<?xml version="1.0" encoding="UTF-8" standalone="no"?><svg xmlns="http://www.w3.org/2000/svg" xmlns:xlink="http://www.w3.org/1999/xlink" contentStyleType="text/css" height="745px" preserveAspectRatio="none" style="width:1166px;height:745px;background:#FFFFFF;" version="1.1" viewBox="0 0 1166 745" width="1166px" zoomAndPan="magnify"><defs/><g><rect fill="none" height="29.0679" id="_title" style="stroke:none;stroke-width:1.0;" width="179" x="483.25" y="5"/><text fill="#000000" font-family="sans-serif" font-size="14" font-weight="bold" lengthAdjust="spacing" textLength="169" x="488.25" y="24.9659">Contexto Administrador</text><ellipse cx="579.75" cy="56.0679" fill="#222222" rx="10" ry="10" style="stroke:none;stroke-width:1.0;"/><rect fill="#F1F1F1" height="40" rx="12.5" ry="12.5" style="stroke:#181818;stroke-width:0.5;" width="60" x="549.75" y="127.0679"/><text fill="#000000" font-family="sans-serif" font-size="14" lengthAdjust="spacing" textLength="50" x="554.75" y="152.4999">INITIAL</text><ellipse cx="579.75" cy="729.1379" fill="none" rx="10" ry="10" style="stroke:#222222;stroke-width:1.0;"/><ellipse cx="580.25" cy="729.6379" fill="#222222" rx="6" ry="6" style="stroke:none;stroke-width:1.0;"/><path d="M19.5,264.0679 L1140,264.0679 A12.5,12.5 0 0 1 1152.5,276.5679 L1152.5,293.1358 L7,293.1358 L7,276.5679 A12.5,12.5 0 0 1 19.5,264.0679 " fill="#F1F1F1" style="stroke:#F1F1F1;stroke-width:1.0;"/><rect fill="none" height="358.0679" rx="12.5" ry="12.5" style="stroke:#181818;stroke-width:0.5;" width="1145.5" x="7" y="264.0679"/><line style="stroke:#181818;stroke-width:0.5;" x1="7" x2="1152.5" y1="293.1358" y2="293.1358"/><text fill="#000000" font-family="sans-serif" font-size="14" lengthAdjust="spacing" textLength="55" x="552.25" y="284.0339">ALUMNI</text><ellipse cx="499.5" cy="314.1358" fill="#222222" rx="10" ry="10" style="stroke:none;stroke-width:1.0;"/><rect fill="#F1F1F1" height="40" rx="12.5" ry="12.5" style="stroke:#181818;stroke-width:0.5;" width="95" x="452" y="422.6358"/><text fill="#000000" font-family="sans-serif" font-size="14" lengthAdjust="spacing" textLength="85" x="457" y="448.0678">DASHBOARD</text><rect fill="#F1F1F1" height="40" rx="12.5" ry="12.5" style="stroke:#181818;stroke-width:0.5;" width="127" x="19" y="568.6358"/><text fill="#000000" font-family="sans-serif" font-size="14" lengthAdjust="spacing" textLength="117" x="24" y="594.0678">CONFIGURACIÓN</text><rect fill="#F1F1F1" height="40" rx="12.5" ry="12.5" style="stroke:#181818;stroke-width:0.5;" width="156" x="361.5" y="568.6358"/><text fill="#000000" font-family="sans-serif" font-size="14" lengthAdjust="spacing" textLength="146" x="366.5" y="594.0678">EXPLORAR_SERVICIOS</text><rect fill="#F1F1F1" height="40" rx="12.5" ry="12.5" style="stroke:#181818;stroke-width:0.5;" width="81" x="852" y="568.6358"/><text fill="#000000" font-family="sans-serif" font-size="14" lengthAdjust="spacing" textLength="71" x="857" y="594.0678">SERVICIOS</text><!--MD5=[80ed1e7dc5ea98cae66a17687b6a86b3]
link *start*Alumni to DASHBOARD--><g id="link_*start*Alumni_DASHBOARD"><path d="M499.5,324.2358 C499.5,343.2158 499.5,387.6458 499.5,416.0858 " fill="none" id="*start*Alumni-to-DASHBOARD" style="stroke:#181818;stroke-width:1.0;"/><polygon fill="#181818" points="499.5,421.0758,503.5,412.0758,499.5,416.0758,495.5,412.0758,499.5,421.0758" style="stroke:#181818;stroke-width:1.0;"/><path d="M504.5,347.1358 L504.5,392.1358 L653.5,392.1358 L653.5,357.1358 L643.5,347.1358 L504.5,347.1358 " fill="#F5F5F5" style="stroke:#181818;stroke-width:0.5;"/><path d="M643.5,347.1358 L643.5,357.1358 L653.5,357.1358 L643.5,347.1358 " fill="#F5F5F5" style="stroke:#181818;stroke-width:0.5;"/><text fill="#000000" font-family="sans-serif" font-size="13" lengthAdjust="spacing" textLength="128" x="510.5" y="366.0328">consultar Estadísticas</text><text fill="#000000" font-family="sans-serif" font-size="13" lengthAdjust="spacing" textLength="97" x="510.5" y="383.7389">Realizar Petición</text></g><!--MD5=[7cae9b5798a55d6f83418a211846eb70]
link DASHBOARD to CONFIGURACIÓN--><g id="link_DASHBOARD_CONFIGURACIÓN"><path d="M451.58,452.2658 C379.75,465.2058 252.5,488.1358 252.5,488.1358 C252.5,488.1358 210.5,543.1358 210.5,543.1358 C210.5,543.1358 177.06,554.7658 144.36,566.1258 " fill="none" id="DASHBOARD-to-CONFIGURACIÓN" style="stroke:#181818;stroke-width:1.0;"/><polygon fill="#181818" points="139.7,567.7458,149.5143,568.5706,144.4231,566.1049,146.8888,561.0137,139.7,567.7458" style="stroke:#181818;stroke-width:1.0;"/><path d="M257.5,493.1358 L257.5,538.1358 L399.5,538.1358 L399.5,503.1358 L389.5,493.1358 L257.5,493.1358 " fill="#F5F5F5" style="stroke:#181818;stroke-width:0.5;"/><path d="M389.5,493.1358 L389.5,503.1358 L399.5,503.1358 L389.5,493.1358 " fill="#F5F5F5" style="stroke:#181818;stroke-width:0.5;"/><text fill="#000000" font-family="sans-serif" font-size="13" lengthAdjust="spacing" textLength="121" x="263.5" y="512.0328">Listar Datos Usuario</text><text fill="#000000" font-family="sans-serif" font-size="13" lengthAdjust="spacing" textLength="97" x="263.5" y="529.7389">Realizar Petición</text></g><!--MD5=[1e095cc5293d3c721a2bdf695703f74b]
reverse link DASHBOARD to CONFIGURACIÓN--><g id="link_DASHBOARD_CONFIGURACIÓN"><path d="M445.51,448.9758 C325.97,460.7958 49.5,488.1358 49.5,488.1358 C49.5,488.1358 49.5,543.1358 49.5,543.1358 C49.5,543.1358 59.23,556.2558 68.12,568.2458 " fill="none" id="DASHBOARD-backto-CONFIGURACIÓN" style="stroke:#181818;stroke-width:1.0;"/><polygon fill="#181818" points="450.26,448.5058,440.9049,445.4265,445.2851,449.0062,441.7055,453.3864,450.26,448.5058" style="stroke:#181818;stroke-width:1.0;"/><path d="M54.5,493.1358 L54.5,538.1358 L205.5,538.1358 L205.5,503.1358 L195.5,493.1358 L54.5,493.1358 " fill="#F5F5F5" style="stroke:#181818;stroke-width:0.5;"/><path d="M195.5,493.1358 L195.5,503.1358 L205.5,503.1358 L195.5,493.1358 " fill="#F5F5F5" style="stroke:#181818;stroke-width:0.5;"/><text fill="#000000" font-family="sans-serif" font-size="13" lengthAdjust="spacing" textLength="130" x="60.5" y="512.0328">Consultar Estadisticas</text><text fill="#000000" font-family="sans-serif" font-size="13" lengthAdjust="spacing" textLength="97" x="60.5" y="529.7389">Realizar Petición</text></g><!--MD5=[32c88919d16ba5927ab528d95a6cb14d]
link DASHBOARD to EXPLORAR_SERVICIOS--><g id="link_DASHBOARD_EXPLORAR_SERVICIOS"><path d="M530,463.0258 C548.86,475.0158 569.5,488.1358 569.5,488.1358 C569.5,488.1358 569.5,543.1358 569.5,543.1358 C569.5,543.1358 535.25,554.8558 501.91,566.2758 " fill="none" id="DASHBOARD-to-EXPLORAR_SERVICIOS" style="stroke:#181818;stroke-width:1.0;"/><polygon fill="#181818" points="497.57,567.7558,507.3797,568.6336,502.3019,566.1404,504.795,561.0626,497.57,567.7558" style="stroke:#181818;stroke-width:1.0;"/><path d="M574.5,493.1358 L574.5,538.1358 L750.5,538.1358 L750.5,503.1358 L740.5,493.1358 L574.5,493.1358 " fill="#F5F5F5" style="stroke:#181818;stroke-width:0.5;"/><path d="M740.5,493.1358 L740.5,503.1358 L750.5,503.1358 L740.5,493.1358 " fill="#F5F5F5" style="stroke:#181818;stroke-width:0.5;"/><text fill="#000000" font-family="sans-serif" font-size="13" lengthAdjust="spacing" textLength="155" x="580.5" y="512.0328">Listar Servicios / Paquetes</text><text fill="#000000" font-family="sans-serif" font-size="13" lengthAdjust="spacing" textLength="97" x="580.5" y="529.7389">Realizar Petición</text></g><!--MD5=[dd2dcb00e452a5e703e3ba78b2ad64cf]
reverse link DASHBOARD to EXPLORAR_SERVICIOS--><g id="link_DASHBOARD_EXPLORAR_SERVICIOS"><path d="M454.07,465.8458 C431.3,476.9858 408.5,488.1358 408.5,488.1358 C408.5,488.1358 408.5,543.1358 408.5,543.1358 C408.5,543.1358 417.64,556.2558 425.99,568.2458 " fill="none" id="DASHBOARD-backto-EXPLORAR_SERVICIOS" style="stroke:#181818;stroke-width:1.0;"/><polygon fill="#181818" points="458.49,463.6858,448.6482,464.0575,454.0008,465.8875,452.1709,471.2402,458.49,463.6858" style="stroke:#181818;stroke-width:1.0;"/><path d="M413.5,493.1358 L413.5,538.1358 L564.5,538.1358 L564.5,503.1358 L554.5,493.1358 L413.5,493.1358 " fill="#F5F5F5" style="stroke:#181818;stroke-width:0.5;"/><path d="M554.5,493.1358 L554.5,503.1358 L564.5,503.1358 L554.5,493.1358 " fill="#F5F5F5" style="stroke:#181818;stroke-width:0.5;"/><text fill="#000000" font-family="sans-serif" font-size="13" lengthAdjust="spacing" textLength="130" x="419.5" y="512.0328">Consultar Estadisticas</text><text fill="#000000" font-family="sans-serif" font-size="13" lengthAdjust="spacing" textLength="97" x="419.5" y="529.7389">Realizar Petición</text></g><!--MD5=[7820c43a1beb09945b2afcd2f4f1c4c3]
link DASHBOARD to SERVICIOS--><g id="link_DASHBOARD_SERVICIOS"><path d="M547.31,448.2258 C665.6,459.5958 962.5,488.1358 962.5,488.1358 C962.5,488.1358 962.5,543.1358 962.5,543.1358 C962.5,543.1358 945.55,553.9058 928.33,564.8558 " fill="none" id="DASHBOARD-to-SERVICIOS" style="stroke:#181818;stroke-width:1.0;"/><polygon fill="#181818" points="924.28,567.4358,934.0195,565.9722,928.4965,564.7487,929.7201,559.2257,924.28,567.4358" style="stroke:#181818;stroke-width:1.0;"/><path d="M967.5,493.1358 L967.5,538.1358 L1143.5,538.1358 L1143.5,503.1358 L1133.5,493.1358 L967.5,493.1358 " fill="#F5F5F5" style="stroke:#181818;stroke-width:0.5;"/><path d="M1133.5,493.1358 L1133.5,503.1358 L1143.5,503.1358 L1133.5,493.1358 " fill="#F5F5F5" style="stroke:#181818;stroke-width:0.5;"/><text fill="#000000" font-family="sans-serif" font-size="13" lengthAdjust="spacing" textLength="155" x="973.5" y="512.0328">Listar Servicios / Paquetes</text><text fill="#000000" font-family="sans-serif" font-size="13" lengthAdjust="spacing" textLength="97" x="973.5" y="529.7389">Realizar Petición</text></g><!--MD5=[c1fdba3d8c420396c01bd7c9b50e82e2]
reverse link DASHBOARD to SERVICIOS--><g id="link_DASHBOARD_SERVICIOS"><path d="M553.79,452.9258 C630,465.9758 759.5,488.1358 759.5,488.1358 C759.5,488.1358 801.5,543.1358 801.5,543.1358 C801.5,543.1358 828.33,556.2558 852.85,568.2458 " fill="none" id="DASHBOARD-backto-SERVICIOS" style="stroke:#181818;stroke-width:1.0;"/><polygon fill="#181818" points="548.98,452.1058,557.1769,457.5657,553.9085,452.9487,558.5255,449.6802,548.98,452.1058" style="stroke:#181818;stroke-width:1.0;"/><path d="M806.5,493.1358 L806.5,538.1358 L957.5,538.1358 L957.5,503.1358 L947.5,493.1358 L806.5,493.1358 " fill="#F5F5F5" style="stroke:#181818;stroke-width:0.5;"/><path d="M947.5,493.1358 L947.5,503.1358 L957.5,503.1358 L947.5,493.1358 " fill="#F5F5F5" style="stroke:#181818;stroke-width:0.5;"/><text fill="#000000" font-family="sans-serif" font-size="13" lengthAdjust="spacing" textLength="130" x="812.5" y="512.0328">Consultar Estadisticas</text><text fill="#000000" font-family="sans-serif" font-size="13" lengthAdjust="spacing" textLength="97" x="812.5" y="529.7389">Realizar Petición</text></g><!--MD5=[3cf5599dd911814b498cda2483b34115]
link DASHBOARD to DASHBOARD--><g id="link_DASHBOARD_DASHBOARD"><path d="M547.48,429.3858 C557.65,430.7358 565,435.1458 565,442.6358 C565,448.4858 560.52,452.4558 553.7,454.5558 " fill="none" id="DASHBOARD-to-DASHBOARD" style="stroke:#181818;stroke-width:1.0;"/><polygon fill="#181818" points="548.96,455.5658,558.5967,457.599,553.8498,454.5221,556.9267,449.7752,548.96,455.5658" style="stroke:#181818;stroke-width:1.0;"/><path d="M570,420.1358 L570,465.1358 L721,465.1358 L721,430.1358 L711,420.1358 L570,420.1358 " fill="#F5F5F5" style="stroke:#181818;stroke-width:0.5;"/><path d="M711,420.1358 L711,430.1358 L721,430.1358 L711,420.1358 " fill="#F5F5F5" style="stroke:#181818;stroke-width:0.5;"/><text fill="#000000" font-family="sans-serif" font-size="13" lengthAdjust="spacing" textLength="130" x="576" y="439.0328">Consultar Estadisticas</text><text fill="#000000" font-family="sans-serif" font-size="13" lengthAdjust="spacing" textLength="97" x="576" y="456.7389">Realizar Petición</text></g><!--MD5=[3f78e76ef453f16d960b33123f35b7ff]
link CONFIGURACIÓN to CONFIGURACIÓN--><g id="link_CONFIGURACIÓN_CONFIGURACIÓN"><path d="M146.4,575.9758 C156.83,577.7858 164,582.0058 164,588.6358 C164,593.9158 159.45,597.6758 152.32,599.8958 " fill="none" id="CONFIGURACIÓN-to-CONFIGURACIÓN" style="stroke:#181818;stroke-width:1.0;"/><polygon fill="#181818" points="147.87,600.9558,157.5508,602.7676,152.7346,599.8003,155.7019,594.9842,147.87,600.9558" style="stroke:#181818;stroke-width:1.0;"/><path d="M169,566.1358 L169,611.1358 L336,611.1358 L336,576.1358 L326,566.1358 L169,566.1358 " fill="#F5F5F5" style="stroke:#181818;stroke-width:0.5;"/><path d="M326,566.1358 L326,576.1358 L336,576.1358 L326,566.1358 " fill="#F5F5F5" style="stroke:#181818;stroke-width:0.5;"/><text fill="#000000" font-family="sans-serif" font-size="13" lengthAdjust="spacing" textLength="121" x="175" y="585.0328">Listar Datos Usuario</text><text fill="#000000" font-family="sans-serif" font-size="13" lengthAdjust="spacing" textLength="146" x="175" y="602.7389">Actualizar Datos Usuario</text></g><!--MD5=[25db80d4a06b6a0347c544f028d58385]
link EXPLORAR_SERVICIOS to EXPLORAR_SERVICIOS--><g id="link_EXPLORAR_SERVICIOS_EXPLORAR_SERVICIOS"><path d="M517.85,576.4958 C528.44,578.5258 535.5,582.5758 535.5,588.6358 C535.5,593.4658 531.02,597.0158 523.84,599.2858 " fill="none" id="EXPLORAR_SERVICIOS-to-EXPLORAR_SERVICIOS" style="stroke:#181818;stroke-width:1.0;"/><polygon fill="#181818" points="519.32,600.4158,529.0167,602.1405,524.1741,599.2166,527.0979,594.374,519.32,600.4158" style="stroke:#181818;stroke-width:1.0;"/><path d="M540.5,566.1358 L540.5,611.1358 L704.5,611.1358 L704.5,576.1358 L694.5,566.1358 L540.5,566.1358 " fill="#F5F5F5" style="stroke:#181818;stroke-width:0.5;"/><path d="M694.5,566.1358 L694.5,576.1358 L704.5,576.1358 L694.5,566.1358 " fill="#F5F5F5" style="stroke:#181818;stroke-width:0.5;"/><text fill="#000000" font-family="sans-serif" font-size="13" lengthAdjust="spacing" textLength="143" x="546.5" y="585.0328">Listar Servicio / Paquete</text><text fill="#000000" font-family="sans-serif" font-size="13" lengthAdjust="spacing" textLength="97" x="546.5" y="602.7389">Realizar Petición</text></g><!--MD5=[d5b37b2e2d08a4c6818671524b21dafd]
link SERVICIOS to SERVICIOS--><g id="link_SERVICIOS_SERVICIOS"><path d="M933.23,575.1358 C943.4,576.0758 951,580.5758 951,588.6358 C951,594.9258 946.36,599.0558 939.49,601.0058 " fill="none" id="SERVICIOS-to-SERVICIOS" style="stroke:#181818;stroke-width:1.0;"/><polygon fill="#181818" points="934.72,601.8658,944.2933,604.1791,939.6382,600.9651,942.8522,596.31,934.72,601.8658" style="stroke:#181818;stroke-width:1.0;"/><path d="M956,566.1358 L956,611.1358 L1120,611.1358 L1120,576.1358 L1110,566.1358 L956,566.1358 " fill="#F5F5F5" style="stroke:#181818;stroke-width:0.5;"/><path d="M1110,566.1358 L1110,576.1358 L1120,576.1358 L1110,566.1358 " fill="#F5F5F5" style="stroke:#181818;stroke-width:0.5;"/><text fill="#000000" font-family="sans-serif" font-size="13" lengthAdjust="spacing" textLength="143" x="962" y="585.0328">Listar Servicio / Paquete</text><text fill="#000000" font-family="sans-serif" font-size="13" lengthAdjust="spacing" textLength="97" x="962" y="602.7389">Realizar Petición</text></g><!--MD5=[06c3f2024f4ea60966e79307ee69ec5f]
link *start to INITIAL--><g id="link_*start_INITIAL"><path d="M579.75,66.2579 C579.75,78.9179 579.75,102.2079 579.75,120.3779 " fill="none" id="*start-to-INITIAL" style="stroke:#181818;stroke-width:1.0;"/><polygon fill="#181818" points="579.75,125.2979,583.75,116.2979,579.75,120.2979,575.75,116.2979,579.75,125.2979" style="stroke:#181818;stroke-width:1.0;"/></g><!--MD5=[5563963b6eff4b13ffd230664b5db6c7]
link INITIAL to Alumni--><g id="link_INITIAL_Alumni"><path d="M579.75,167.3579 C579.75,187.2879 579.75,220.5779 579.75,257.2279 " fill="none" id="INITIAL-to-Alumni" style="stroke:#181818;stroke-width:1.0;"/><polygon fill="#181818" points="579.75,262.1079,583.75,253.1079,579.75,257.1079,575.75,253.1079,579.75,262.1079" style="stroke:#181818;stroke-width:1.0;"/><path d="M584.75,202.0679 L584.75,229.0679 L683.75,229.0679 L683.75,212.0679 L673.75,202.0679 L584.75,202.0679 " fill="#F5F5F5" style="stroke:#181818;stroke-width:0.5;"/><path d="M673.75,202.0679 L673.75,212.0679 L683.75,212.0679 L673.75,202.0679 " fill="#F5F5F5" style="stroke:#181818;stroke-width:0.5;"/><text fill="#000000" font-family="sans-serif" font-size="13" lengthAdjust="spacing" textLength="78" x="590.75" y="220.9649">Iniciar Sesión</text></g><!--MD5=[58c2ff39d5451b5af4d7cc6e6c959528]
link Alumni to *end--><g id="link_Alumni_*end"><path d="M579.75,622.3779 C579.75,659.8979 579.75,693.7979 579.75,712.6279 " fill="none" id="Alumni-to-*end" style="stroke:#181818;stroke-width:1.0;"/><polygon fill="#181818" points="579.75,717.3379,583.75,708.3379,579.75,712.3379,575.75,708.3379,579.75,717.3379" style="stroke:#181818;stroke-width:1.0;"/><path d="M584.75,657.1379 L584.75,684.1379 L684.75,684.1379 L684.75,667.1379 L674.75,657.1379 L584.75,657.1379 " fill="#F5F5F5" style="stroke:#181818;stroke-width:0.5;"/><path d="M674.75,657.1379 L674.75,667.1379 L684.75,667.1379 L674.75,657.1379 " fill="#F5F5F5" style="stroke:#181818;stroke-width:0.5;"/><text fill="#000000" font-family="sans-serif" font-size="13" lengthAdjust="spacing" textLength="79" x="590.75" y="676.0349">Cerrar Sesión</text></g><!--MD5=[c6fd37fec8a7abd868f9b76894c58378]
@startuml Contexto
title Contexto Administrador

skinparam {
    NoteBackgroundColor #whiteSmoke
    NoteBorderColor #green
    linetype polyline
}

hide empty description

[*] - -> INITIAL 

INITIAL - -> Alumni
note on link 
Iniciar Sesión
end note
Alumni - -> [*]
note on link
Cerrar Sesión
end note

state Alumni as "ALUMNI" {
    [*] - -> DASHBOARD
    note on link
    consultar Estadísticas
    Realizar Petición
    end note

    DASHBOARD - -> CONFIGURACIÓN
    note on link 
    Listar Datos Usuario
    Realizar Petición
    end note  
    DASHBOARD <- - CONFIGURACIÓN
    note on link 
    Consultar Estadisticas
    Realizar Petición
    end note
    DASHBOARD - -> EXPLORAR_SERVICIOS
    note on link 
    Listar Servicios / Paquetes
    Realizar Petición
    end note  
    DASHBOARD <- - EXPLORAR_SERVICIOS
    note on link 
    Consultar Estadisticas
    Realizar Petición
    end note
    DASHBOARD - -> SERVICIOS
    note on link 
    Listar Servicios / Paquetes
    Realizar Petición
    end note  
    DASHBOARD <- - SERVICIOS
    note on link 
    Consultar Estadisticas
    Realizar Petición
    end note
    
    DASHBOARD - -> DASHBOARD
    note on link
    Consultar Estadisticas
    Realizar Petición
    end note

    CONFIGURACIÓN - -> CONFIGURACIÓN
    note on link 
    Listar Datos Usuario
    Actualizar Datos Usuario
    end note
    EXPLORAR_SERVICIOS - -> EXPLORAR_SERVICIOS
    note on link 
    Listar Servicio / Paquete
    Realizar Petición
    end note
    SERVICIOS - -> SERVICIOS
    note on link 
    Listar Servicio / Paquete
    Realizar Petición
    end note
}

@enduml

PlantUML version 1.2022.7(Mon Aug 22 19:01:30 CEST 2022)
(GPL source distribution)
Java Runtime: OpenJDK Runtime Environment
JVM: OpenJDK 64-Bit Server VM
Default Encoding: UTF-8
Language: es
Country: ES
--></g></svg>