<?xml version="1.0" encoding="UTF-8" standalone="no"?><svg xmlns="http://www.w3.org/2000/svg" xmlns:xlink="http://www.w3.org/1999/xlink" contentStyleType="text/css" height="730px" preserveAspectRatio="none" style="width:1166px;height:730px;background:#FFFFFF;" version="1.1" viewBox="0 0 1166 730" width="1166px" zoomAndPan="magnify"><defs/><g><rect fill="none" height="29.0679" id="_title" style="stroke:none;stroke-width:1.0;" width="179" x="483.25" y="5"/><text fill="#000000" font-family="sans-serif" font-size="14" font-weight="bold" lengthAdjust="spacing" textLength="169" x="488.25" y="24.9659">Contexto Administrador</text><ellipse cx="579.75" cy="56.0679" fill="#222222" rx="10" ry="10" style="stroke:none;stroke-width:1.0;"/><rect fill="#F1F1F1" height="40" rx="12.5" ry="12.5" style="stroke:#181818;stroke-width:0.5;" width="60" x="549.75" y="127.0679"/><text fill="#000000" font-family="sans-serif" font-size="14" lengthAdjust="spacing" textLength="50" x="554.75" y="152.4999">INITIAL</text><ellipse cx="579.75" cy="714.1379" fill="none" rx="10" ry="10" style="stroke:#222222;stroke-width:1.0;"/><ellipse cx="580.25" cy="714.6379" fill="#222222" rx="6" ry="6" style="stroke:none;stroke-width:1.0;"/><path d="M19.5,264.0679 L1140,264.0679 A12.5,12.5 0 0 1 1152.5,276.5679 L1152.5,293.1358 L7,293.1358 L7,276.5679 A12.5,12.5 0 0 1 19.5,264.0679 " fill="#F1F1F1" style="stroke:#F1F1F1;stroke-width:1.0;"/><rect fill="none" height="343.0679" rx="12.5" ry="12.5" style="stroke:#181818;stroke-width:0.5;" width="1145.5" x="7" y="264.0679"/><line style="stroke:#181818;stroke-width:0.5;" x1="7" x2="1152.5" y1="293.1358" y2="293.1358"/><text fill="#000000" font-family="sans-serif" font-size="14" lengthAdjust="spacing" textLength="55" x="552.25" y="284.0339">ALUMNI</text><ellipse cx="499.5" cy="314.1358" fill="#222222" rx="10" ry="10" style="stroke:none;stroke-width:1.0;"/><rect fill="#F1F1F1" height="40" rx="12.5" ry="12.5" style="stroke:#181818;stroke-width:0.5;" width="95" x="452" y="415.1358"/><text fill="#000000" font-family="sans-serif" font-size="14" lengthAdjust="spacing" textLength="85" x="457" y="440.5678">DASHBOARD</text><rect fill="#F1F1F1" height="40" rx="12.5" ry="12.5" style="stroke:#181818;stroke-width:0.5;" width="127" x="19" y="553.6358"/><text fill="#000000" font-family="sans-serif" font-size="14" lengthAdjust="spacing" textLength="117" x="24" y="579.0678">CONFIGURACIÓN</text><rect fill="#F1F1F1" height="40" rx="12.5" ry="12.5" style="stroke:#181818;stroke-width:0.5;" width="156" x="361.5" y="553.6358"/><text fill="#000000" font-family="sans-serif" font-size="14" lengthAdjust="spacing" textLength="146" x="366.5" y="579.0678">EXPLORAR_SERVICIOS</text><rect fill="#F1F1F1" height="40" rx="12.5" ry="12.5" style="stroke:#181818;stroke-width:0.5;" width="81" x="852" y="553.6358"/><text fill="#000000" font-family="sans-serif" font-size="14" lengthAdjust="spacing" textLength="71" x="857" y="579.0678">SERVICIOS</text><!--MD5=[80ed1e7dc5ea98cae66a17687b6a86b3]
link *start*Alumni to DASHBOARD--><g id="link_*start*Alumni_DASHBOARD"><path d="M499.5,324.4758 C499.5,342.3558 499.5,381.9958 499.5,408.3858 " fill="none" id="*start*Alumni-to-DASHBOARD" style="stroke:#181818;stroke-width:1.0;"/><polygon fill="#181818" points="499.5,413.2758,503.5,404.2758,499.5,408.2758,495.5,404.2758,499.5,413.2758" style="stroke:#181818;stroke-width:1.0;"/><path d="M504.5,347.1358 L504.5,392.1358 L653.5,392.1358 L653.5,357.1358 L643.5,347.1358 L504.5,347.1358 " fill="#F5F5F5" style="stroke:#181818;stroke-width:0.5;"/><path d="M643.5,347.1358 L643.5,357.1358 L653.5,357.1358 L643.5,347.1358 " fill="#F5F5F5" style="stroke:#181818;stroke-width:0.5;"/><text fill="#000000" font-family="sans-serif" font-size="13" lengthAdjust="spacing" textLength="128" x="510.5" y="366.0328">consultar Estadísticas</text><text fill="#000000" font-family="sans-serif" font-size="13" lengthAdjust="spacing" textLength="97" x="510.5" y="383.7389">Realizar Petición</text></g><!--MD5=[7cae9b5798a55d6f83418a211846eb70]
link DASHBOARD to CONFIGURACIÓN--><g id="link_DASHBOARD_CONFIGURACIÓN"><path d="M451.58,443.3158 C379.75,454.0758 252.5,473.1358 252.5,473.1358 C252.5,473.1358 210.5,528.1358 210.5,528.1358 C210.5,528.1358 177.06,539.7658 144.36,551.1258 " fill="none" id="DASHBOARD-to-CONFIGURACIÓN" style="stroke:#181818;stroke-width:1.0;"/><polygon fill="#181818" points="139.7,552.7458,149.5143,553.5706,144.4231,551.1049,146.8888,546.0137,139.7,552.7458" style="stroke:#181818;stroke-width:1.0;"/><path d="M257.5,478.1358 L257.5,523.1358 L399.5,523.1358 L399.5,488.1358 L389.5,478.1358 L257.5,478.1358 " fill="#F5F5F5" style="stroke:#181818;stroke-width:0.5;"/><path d="M389.5,478.1358 L389.5,488.1358 L399.5,488.1358 L389.5,478.1358 " fill="#F5F5F5" style="stroke:#181818;stroke-width:0.5;"/><text fill="#000000" font-family="sans-serif" font-size="13" lengthAdjust="spacing" textLength="121" x="263.5" y="497.0328">Listar Datos Usuario</text><text fill="#000000" font-family="sans-serif" font-size="13" lengthAdjust="spacing" textLength="97" x="263.5" y="514.7389">Realizar Petición</text></g><!--MD5=[1e095cc5293d3c721a2bdf695703f74b]
reverse link DASHBOARD to CONFIGURACIÓN--><g id="link_DASHBOARD_CONFIGURACIÓN"><path d="M445.51,440.5758 C325.97,450.4058 49.5,473.1358 49.5,473.1358 C49.5,473.1358 49.5,528.1358 49.5,528.1358 C49.5,528.1358 59.23,541.2558 68.12,553.2458 " fill="none" id="DASHBOARD-backto-CONFIGURACIÓN" style="stroke:#181818;stroke-width:1.0;"/><polygon fill="#181818" points="450.26,440.1858,440.9597,436.9449,445.2772,440.5999,441.6221,444.9174,450.26,440.1858" style="stroke:#181818;stroke-width:1.0;"/><path d="M54.5,478.1358 L54.5,523.1358 L205.5,523.1358 L205.5,488.1358 L195.5,478.1358 L54.5,478.1358 " fill="#F5F5F5" style="stroke:#181818;stroke-width:0.5;"/><path d="M195.5,478.1358 L195.5,488.1358 L205.5,488.1358 L195.5,478.1358 " fill="#F5F5F5" style="stroke:#181818;stroke-width:0.5;"/><text fill="#000000" font-family="sans-serif" font-size="13" lengthAdjust="spacing" textLength="130" x="60.5" y="497.0328">Consultar Estadisticas</text><text fill="#000000" font-family="sans-serif" font-size="13" lengthAdjust="spacing" textLength="97" x="60.5" y="514.7389">Realizar Petición</text></g><!--MD5=[32c88919d16ba5927ab528d95a6cb14d]
link DASHBOARD to EXPLORAR_SERVICIOS--><g id="link_DASHBOARD_EXPLORAR_SERVICIOS"><path d="M536.14,455.5058 C553.08,464.4558 569.5,473.1358 569.5,473.1358 C569.5,473.1358 569.5,528.1358 569.5,528.1358 C569.5,528.1358 535.25,539.8558 501.91,551.2758 " fill="none" id="DASHBOARD-to-EXPLORAR_SERVICIOS" style="stroke:#181818;stroke-width:1.0;"/><polygon fill="#181818" points="497.57,552.7558,507.3797,553.6336,502.3019,551.1404,504.795,546.0626,497.57,552.7558" style="stroke:#181818;stroke-width:1.0;"/><path d="M574.5,478.1358 L574.5,523.1358 L750.5,523.1358 L750.5,488.1358 L740.5,478.1358 L574.5,478.1358 " fill="#F5F5F5" style="stroke:#181818;stroke-width:0.5;"/><path d="M740.5,478.1358 L740.5,488.1358 L750.5,488.1358 L740.5,478.1358 " fill="#F5F5F5" style="stroke:#181818;stroke-width:0.5;"/><text fill="#000000" font-family="sans-serif" font-size="13" lengthAdjust="spacing" textLength="155" x="580.5" y="497.0328">Listar Servicios / Paquetes</text><text fill="#000000" font-family="sans-serif" font-size="13" lengthAdjust="spacing" textLength="97" x="580.5" y="514.7389">Realizar Petición</text></g><!--MD5=[dd2dcb00e452a5e703e3ba78b2ad64cf]
reverse link DASHBOARD to EXPLORAR_SERVICIOS--><g id="link_DASHBOARD_EXPLORAR_SERVICIOS"><path d="M445.73,457.9958 C426.04,466.0058 408.5,473.1358 408.5,473.1358 C408.5,473.1358 408.5,528.1358 408.5,528.1358 C408.5,528.1358 417.64,541.2558 425.99,553.2458 " fill="none" id="DASHBOARD-backto-EXPLORAR_SERVICIOS" style="stroke:#181818;stroke-width:1.0;"/><polygon fill="#181818" points="450.2,456.1858,440.356,455.8771,445.5695,458.0723,443.3744,463.2859,450.2,456.1858" style="stroke:#181818;stroke-width:1.0;"/><path d="M413.5,478.1358 L413.5,523.1358 L564.5,523.1358 L564.5,488.1358 L554.5,478.1358 L413.5,478.1358 " fill="#F5F5F5" style="stroke:#181818;stroke-width:0.5;"/><path d="M554.5,478.1358 L554.5,488.1358 L564.5,488.1358 L554.5,478.1358 " fill="#F5F5F5" style="stroke:#181818;stroke-width:0.5;"/><text fill="#000000" font-family="sans-serif" font-size="13" lengthAdjust="spacing" textLength="130" x="419.5" y="497.0328">Consultar Estadisticas</text><text fill="#000000" font-family="sans-serif" font-size="13" lengthAdjust="spacing" textLength="97" x="419.5" y="514.7389">Realizar Petición</text></g><!--MD5=[7820c43a1beb09945b2afcd2f4f1c4c3]
link DASHBOARD to SERVICIOS--><g id="link_DASHBOARD_SERVICIOS"><path d="M547.31,439.9558 C665.6,449.4058 962.5,473.1358 962.5,473.1358 C962.5,473.1358 962.5,528.1358 962.5,528.1358 C962.5,528.1358 945.55,538.9058 928.33,549.8558 " fill="none" id="DASHBOARD-to-SERVICIOS" style="stroke:#181818;stroke-width:1.0;"/><polygon fill="#181818" points="924.28,552.4358,934.0195,550.9722,928.4965,549.7487,929.7201,544.2257,924.28,552.4358" style="stroke:#181818;stroke-width:1.0;"/><path d="M967.5,478.1358 L967.5,523.1358 L1143.5,523.1358 L1143.5,488.1358 L1133.5,478.1358 L967.5,478.1358 " fill="#F5F5F5" style="stroke:#181818;stroke-width:0.5;"/><path d="M1133.5,478.1358 L1133.5,488.1358 L1143.5,488.1358 L1133.5,478.1358 " fill="#F5F5F5" style="stroke:#181818;stroke-width:0.5;"/><text fill="#000000" font-family="sans-serif" font-size="13" lengthAdjust="spacing" textLength="155" x="973.5" y="497.0328">Listar Servicios / Paquetes</text><text fill="#000000" font-family="sans-serif" font-size="13" lengthAdjust="spacing" textLength="97" x="973.5" y="514.7389">Realizar Petición</text></g><!--MD5=[c1fdba3d8c420396c01bd7c9b50e82e2]
reverse link DASHBOARD to SERVICIOS--><g id="link_DASHBOARD_SERVICIOS"><path d="M553.79,443.8658 C630,454.7058 759.5,473.1358 759.5,473.1358 C759.5,473.1358 801.5,528.1358 801.5,528.1358 C801.5,528.1358 828.33,541.2558 852.85,553.2458 " fill="none" id="DASHBOARD-backto-SERVICIOS" style="stroke:#181818;stroke-width:1.0;"/><polygon fill="#181818" points="548.99,443.1758,557.3275,448.4185,553.9389,443.8889,558.4685,440.5003,548.99,443.1758" style="stroke:#181818;stroke-width:1.0;"/><path d="M806.5,478.1358 L806.5,523.1358 L957.5,523.1358 L957.5,488.1358 L947.5,478.1358 L806.5,478.1358 " fill="#F5F5F5" style="stroke:#181818;stroke-width:0.5;"/><path d="M947.5,478.1358 L947.5,488.1358 L957.5,488.1358 L947.5,478.1358 " fill="#F5F5F5" style="stroke:#181818;stroke-width:0.5;"/><text fill="#000000" font-family="sans-serif" font-size="13" lengthAdjust="spacing" textLength="130" x="812.5" y="497.0328">Consultar Estadisticas</text><text fill="#000000" font-family="sans-serif" font-size="13" lengthAdjust="spacing" textLength="97" x="812.5" y="514.7389">Realizar Petición</text></g><!--MD5=[3f78e76ef453f16d960b33123f35b7ff]
link CONFIGURACIÓN to CONFIGURACIÓN--><g id="link_CONFIGURACIÓN_CONFIGURACIÓN"><path d="M146.4,560.9758 C156.83,562.7858 164,567.0058 164,573.6358 C164,578.9158 159.45,582.6758 152.32,584.8958 " fill="none" id="CONFIGURACIÓN-to-CONFIGURACIÓN" style="stroke:#181818;stroke-width:1.0;"/><polygon fill="#181818" points="147.87,585.9558,157.5508,587.7676,152.7346,584.8003,155.7019,579.9842,147.87,585.9558" style="stroke:#181818;stroke-width:1.0;"/><path d="M169,551.1358 L169,596.1358 L336,596.1358 L336,561.1358 L326,551.1358 L169,551.1358 " fill="#F5F5F5" style="stroke:#181818;stroke-width:0.5;"/><path d="M326,551.1358 L326,561.1358 L336,561.1358 L326,551.1358 " fill="#F5F5F5" style="stroke:#181818;stroke-width:0.5;"/><text fill="#000000" font-family="sans-serif" font-size="13" lengthAdjust="spacing" textLength="121" x="175" y="570.0328">Listar Datos Usuario</text><text fill="#000000" font-family="sans-serif" font-size="13" lengthAdjust="spacing" textLength="146" x="175" y="587.7389">Actualizar Datos Usuario</text></g><!--MD5=[25db80d4a06b6a0347c544f028d58385]
link EXPLORAR_SERVICIOS to EXPLORAR_SERVICIOS--><g id="link_EXPLORAR_SERVICIOS_EXPLORAR_SERVICIOS"><path d="M517.85,561.4958 C528.44,563.5258 535.5,567.5758 535.5,573.6358 C535.5,578.4658 531.02,582.0158 523.84,584.2858 " fill="none" id="EXPLORAR_SERVICIOS-to-EXPLORAR_SERVICIOS" style="stroke:#181818;stroke-width:1.0;"/><polygon fill="#181818" points="519.32,585.4158,529.0167,587.1405,524.1741,584.2166,527.0979,579.374,519.32,585.4158" style="stroke:#181818;stroke-width:1.0;"/><path d="M540.5,551.1358 L540.5,596.1358 L704.5,596.1358 L704.5,561.1358 L694.5,551.1358 L540.5,551.1358 " fill="#F5F5F5" style="stroke:#181818;stroke-width:0.5;"/><path d="M694.5,551.1358 L694.5,561.1358 L704.5,561.1358 L694.5,551.1358 " fill="#F5F5F5" style="stroke:#181818;stroke-width:0.5;"/><text fill="#000000" font-family="sans-serif" font-size="13" lengthAdjust="spacing" textLength="143" x="546.5" y="570.0328">Listar Servicio / Paquete</text><text fill="#000000" font-family="sans-serif" font-size="13" lengthAdjust="spacing" textLength="97" x="546.5" y="587.7389">Realizar Petición</text></g><!--MD5=[d5b37b2e2d08a4c6818671524b21dafd]
link SERVICIOS to SERVICIOS--><g id="link_SERVICIOS_SERVICIOS"><path d="M933.23,560.1358 C943.4,561.0758 951,565.5758 951,573.6358 C951,579.9258 946.36,584.0558 939.49,586.0058 " fill="none" id="SERVICIOS-to-SERVICIOS" style="stroke:#181818;stroke-width:1.0;"/><polygon fill="#181818" points="934.72,586.8658,944.2933,589.1791,939.6382,585.9651,942.8522,581.31,934.72,586.8658" style="stroke:#181818;stroke-width:1.0;"/><path d="M956,551.1358 L956,596.1358 L1120,596.1358 L1120,561.1358 L1110,551.1358 L956,551.1358 " fill="#F5F5F5" style="stroke:#181818;stroke-width:0.5;"/><path d="M1110,551.1358 L1110,561.1358 L1120,561.1358 L1110,551.1358 " fill="#F5F5F5" style="stroke:#181818;stroke-width:0.5;"/><text fill="#000000" font-family="sans-serif" font-size="13" lengthAdjust="spacing" textLength="143" x="962" y="570.0328">Listar Servicio / Paquete</text><text fill="#000000" font-family="sans-serif" font-size="13" lengthAdjust="spacing" textLength="97" x="962" y="587.7389">Realizar Petición</text></g><!--MD5=[06c3f2024f4ea60966e79307ee69ec5f]
link *start to INITIAL--><g id="link_*start_INITIAL"><path d="M579.75,66.2579 C579.75,78.9179 579.75,102.2079 579.75,120.3779 " fill="none" id="*start-to-INITIAL" style="stroke:#181818;stroke-width:1.0;"/><polygon fill="#181818" points="579.75,125.2979,583.75,116.2979,579.75,120.2979,575.75,116.2979,579.75,125.2979" style="stroke:#181818;stroke-width:1.0;"/></g><!--MD5=[5563963b6eff4b13ffd230664b5db6c7]
link INITIAL to Alumni--><g id="link_INITIAL_Alumni"><path d="M579.75,167.3179 C579.75,187.2979 579.75,220.7179 579.75,257.2879 " fill="none" id="INITIAL-to-Alumni" style="stroke:#181818;stroke-width:1.0;"/><polygon fill="#181818" points="579.75,262.1479,583.75,253.1479,579.75,257.1479,575.75,253.1479,579.75,262.1479" style="stroke:#181818;stroke-width:1.0;"/><path d="M584.75,202.0679 L584.75,229.0679 L683.75,229.0679 L683.75,212.0679 L673.75,202.0679 L584.75,202.0679 " fill="#F5F5F5" style="stroke:#181818;stroke-width:0.5;"/><path d="M673.75,202.0679 L673.75,212.0679 L683.75,212.0679 L673.75,202.0679 " fill="#F5F5F5" style="stroke:#181818;stroke-width:0.5;"/><text fill="#000000" font-family="sans-serif" font-size="13" lengthAdjust="spacing" textLength="78" x="590.75" y="220.9649">Iniciar Sesión</text></g><!--MD5=[58c2ff39d5451b5af4d7cc6e6c959528]
link Alumni to *end--><g id="link_Alumni_*end"><path d="M579.75,607.4079 C579.75,644.5579 579.75,678.3779 579.75,697.3079 " fill="none" id="Alumni-to-*end" style="stroke:#181818;stroke-width:1.0;"/><polygon fill="#181818" points="579.75,702.2979,583.75,693.2979,579.75,697.2979,575.75,693.2979,579.75,702.2979" style="stroke:#181818;stroke-width:1.0;"/><path d="M584.75,642.1379 L584.75,669.1379 L684.75,669.1379 L684.75,652.1379 L674.75,642.1379 L584.75,642.1379 " fill="#F5F5F5" style="stroke:#181818;stroke-width:0.5;"/><path d="M674.75,642.1379 L674.75,652.1379 L684.75,652.1379 L674.75,642.1379 " fill="#F5F5F5" style="stroke:#181818;stroke-width:0.5;"/><text fill="#000000" font-family="sans-serif" font-size="13" lengthAdjust="spacing" textLength="79" x="590.75" y="661.0349">Cerrar Sesión</text></g><!--MD5=[bb11399392430c25b985d819d709c3a5]
@startuml Contexto
title Contexto Administrador

skinparam {
    NoteBackgroundColor #whiteSmoke
    NoteBorderColor #green
    linetype polyline
}

hide empty description

[*] - -> INITIAL 

INITIAL - -> Alumni
note on link 
Iniciar Sesión
end note
Alumni - -> [*]
note on link
Cerrar Sesión
end note

state Alumni as "ALUMNI" {
    [*] - -> DASHBOARD
    note on link
    consultar Estadísticas
    Realizar Petición
    end note

    DASHBOARD - -> CONFIGURACIÓN
    note on link 
    Listar Datos Usuario
    Realizar Petición
    end note  
    DASHBOARD <- - CONFIGURACIÓN
    note on link 
    Consultar Estadisticas
    Realizar Petición
    end note
    DASHBOARD - -> EXPLORAR_SERVICIOS
    note on link 
    Listar Servicios / Paquetes
    Realizar Petición
    end note  
    DASHBOARD <- - EXPLORAR_SERVICIOS
    note on link 
    Consultar Estadisticas
    Realizar Petición
    end note
    DASHBOARD - -> SERVICIOS
    note on link 
    Listar Servicios / Paquetes
    Realizar Petición
    end note  
    DASHBOARD <- - SERVICIOS
    note on link 
    Consultar Estadisticas
    Realizar Petición
    end note
    
    CONFIGURACIÓN - -> CONFIGURACIÓN
    note on link 
    Listar Datos Usuario
    Actualizar Datos Usuario
    end note
    EXPLORAR_SERVICIOS - -> EXPLORAR_SERVICIOS
    note on link 
    Listar Servicio / Paquete
    Realizar Petición
    end note
    SERVICIOS - -> SERVICIOS
    note on link 
    Listar Servicio / Paquete
    Realizar Petición
    end note
}

@enduml

PlantUML version 1.2022.7(Mon Aug 22 19:01:30 CEST 2022)
(GPL source distribution)
Java Runtime: OpenJDK Runtime Environment
JVM: OpenJDK 64-Bit Server VM
Default Encoding: UTF-8
Language: es
Country: ES
--></g></svg>