<?xml version="1.0" encoding="UTF-8" standalone="no"?><svg xmlns="http://www.w3.org/2000/svg" xmlns:xlink="http://www.w3.org/1999/xlink" contentStyleType="text/css" height="253px" preserveAspectRatio="none" style="width:965px;height:253px;background:#FFFFFF;" version="1.1" viewBox="0 0 965 253" width="965px" zoomAndPan="magnify"><defs/><g><text fill="#000000" font-family="Arial" font-size="14" font-weight="bold" lengthAdjust="spacing" textLength="148" x="401.75" y="22.9951">Servicios externos</text><!--class SERVICIO EXTERNO--><g id="elem_SERVICIO EXTERNO"><rect codeLine="9" fill="#F1F1F1" height="26.2969" id="SERVICIO EXTERNO" rx="2.5" ry="2.5" style="stroke:#181818;stroke-width:0.5;" width="141" x="395.5" y="44.2969"/><text fill="#000000" font-family="Arial" font-size="14" font-style="italic" lengthAdjust="spacing" textLength="135" x="398.5" y="62.292">SERVICIO EXTERNO</text></g><!--class UNIVERSIDAD--><g id="elem_UNIVERSIDAD"><rect codeLine="13" fill="#F1F1F1" height="50.5938" id="UNIVERSIDAD" rx="2.5" ry="2.5" style="stroke:#181818;stroke-width:0.5;" width="122" x="7" y="162.7969"/><text fill="#000000" font-family="Arial" font-size="14" lengthAdjust="spacing" textLength="94" x="21" y="180.792">UNIVERSIDAD</text><line style="stroke:#181818;stroke-width:0.5;" x1="8" x2="128" y1="189.0938" y2="189.0938"/><text fill="#000000" font-family="Arial" font-size="14" lengthAdjust="spacing" textLength="110" x="13" y="206.0889">Bases de Datos</text></g><!--class RED SOCIAL--><g id="elem_RED SOCIAL"><rect codeLine="18" fill="#F1F1F1" height="50.5938" id="RED SOCIAL" rx="2.5" ry="2.5" style="stroke:#181818;stroke-width:0.5;" width="89" x="164.5" y="162.7969"/><text fill="#000000" font-family="Arial" font-size="14" lengthAdjust="spacing" textLength="83" x="167.5" y="180.792">RED SOCIAL</text><line style="stroke:#181818;stroke-width:0.5;" x1="165.5" x2="252.5" y1="189.0938" y2="189.0938"/><text fill="#000000" font-family="Arial" font-size="14" lengthAdjust="spacing" textLength="33" x="170.5" y="206.0889">Perfil</text></g><!--class INSTALACIONES--><g id="elem_INSTALACIONES"><rect codeLine="23" fill="#F1F1F1" height="83.1875" id="INSTALACIONES" rx="2.5" ry="2.5" style="stroke:#181818;stroke-width:0.5;" width="180" x="289" y="146.7969"/><text fill="#000000" font-family="Arial" font-size="14" lengthAdjust="spacing" textLength="108" x="325" y="164.792">INSTALACIONES</text><line style="stroke:#181818;stroke-width:0.5;" x1="290" x2="468" y1="173.0938" y2="173.0938"/><text fill="#000000" font-family="Arial" font-size="14" lengthAdjust="spacing" textLength="67" x="295" y="190.0889">Biblioteca</text><text fill="#000000" font-family="Arial" font-size="14" lengthAdjust="spacing" textLength="145" x="295" y="206.3857">Sala de Ordenadores</text><text fill="#000000" font-family="Arial" font-size="14" lengthAdjust="spacing" textLength="168" x="295" y="222.6826">Instalaciones Deportivas</text></g><!--class NEWSLETTER--><g id="elem_NEWSLETTER"><rect codeLine="30" fill="#F1F1F1" height="66.8906" id="NEWSLETTER" rx="2.5" ry="2.5" style="stroke:#181818;stroke-width:0.5;" width="100" x="504" y="154.7969"/><text fill="#000000" font-family="Arial" font-size="14" lengthAdjust="spacing" textLength="94" x="507" y="172.792">NEWSLETTER</text><line style="stroke:#181818;stroke-width:0.5;" x1="505" x2="603" y1="181.0938" y2="181.0938"/><text fill="#000000" font-family="Arial" font-size="14" lengthAdjust="spacing" textLength="54" x="510" y="198.0889">Noticias</text><text fill="#000000" font-family="Arial" font-size="14" lengthAdjust="spacing" textLength="56" x="510" y="214.3857">Eventos</text></g><!--class OFERTAS DE EMPLEO--><g id="elem_OFERTAS DE EMPLEO"><rect codeLine="36" fill="#F1F1F1" height="115.7813" id="OFERTAS DE EMPLEO" rx="2.5" ry="2.5" style="stroke:#181818;stroke-width:0.5;" width="169" x="639.5" y="130.2969"/><text fill="#000000" font-family="Arial" font-size="14" lengthAdjust="spacing" textLength="150" x="649" y="148.292">OFERTAS DE EMPLEO</text><line style="stroke:#181818;stroke-width:0.5;" x1="640.5" x2="807.5" y1="156.5938" y2="156.5938"/><text fill="#000000" font-family="Arial" font-size="14" lengthAdjust="spacing" textLength="157" x="645.5" y="173.5889">Nombre de la Empresa</text><text fill="#000000" font-family="Arial" font-size="14" lengthAdjust="spacing" textLength="126" x="645.5" y="189.8857">Puesto de Trabajo</text><text fill="#000000" font-family="Arial" font-size="14" lengthAdjust="spacing" textLength="82" x="645.5" y="206.1826">Descripción</text><text fill="#000000" font-family="Arial" font-size="14" lengthAdjust="spacing" textLength="45" x="645.5" y="222.4795">Salario</text><text fill="#000000" font-family="Arial" font-size="14" lengthAdjust="spacing" textLength="67" x="645.5" y="238.7764">Ubicación</text></g><!--class COMUNICACIÓN--><g id="elem_COMUNICACIÓN"><rect codeLine="45" fill="#F1F1F1" height="66.8906" id="COMUNICACIÓN" rx="2.5" ry="2.5" style="stroke:#181818;stroke-width:0.5;" width="115" x="843.5" y="154.7969"/><text fill="#000000" font-family="Arial" font-size="14" lengthAdjust="spacing" textLength="109" x="846.5" y="172.792">COMUNICACIÓN</text><line style="stroke:#181818;stroke-width:0.5;" x1="844.5" x2="957.5" y1="181.0938" y2="181.0938"/><text fill="#000000" font-family="Arial" font-size="14" lengthAdjust="spacing" textLength="36" x="849.5" y="198.0889">Email</text><text fill="#000000" font-family="Arial" font-size="14" lengthAdjust="spacing" textLength="32" x="849.5" y="214.3857">Chat</text></g><!--reverse link SERVICIO EXTERNO to UNIVERSIDAD--><g id="link_SERVICIO EXTERNO_UNIVERSIDAD"><path codeLine="51" d="M375.31,68.8569 C309.72,78.8169 220.13,97.3269 147,130.2969 C128.81,138.4969 110.6,151.2469 96.26,162.6169 " fill="none" id="SERVICIO EXTERNO-backto-UNIVERSIDAD" style="stroke:#181818;stroke-width:1.0;"/><polygon fill="none" points="374.49,61.8969,395.28,65.9669,376.49,75.7569,374.49,61.8969" style="stroke:#181818;stroke-width:1.0;"/></g><!--reverse link SERVICIO EXTERNO to RED SOCIAL--><g id="link_SERVICIO EXTERNO_RED SOCIAL"><path codeLine="52" d="M398.6,76.0669 C359.61,88.0469 310.6,106.0969 271,130.2969 C256.53,139.1369 242.44,151.6769 231.36,162.7369 " fill="none" id="SERVICIO EXTERNO-backto-RED SOCIAL" style="stroke:#181818;stroke-width:1.0;"/><polygon fill="none" points="396.8,69.2969,417.96,70.3569,400.76,82.7269,396.8,69.2969" style="stroke:#181818;stroke-width:1.0;"/></g><!--reverse link SERVICIO EXTERNO to INSTALACIONES--><g id="link_SERVICIO EXTERNO_INSTALACIONES"><path codeLine="53" d="M446.46,87.2669 C434.66,104.7669 419.44,127.3369 406.44,146.6069 " fill="none" id="SERVICIO EXTERNO-backto-INSTALACIONES" style="stroke:#181818;stroke-width:1.0;"/><polygon fill="none" points="440.67,83.3369,457.66,70.6669,452.28,91.1569,440.67,83.3369" style="stroke:#181818;stroke-width:1.0;"/></g><!--reverse link SERVICIO EXTERNO to NEWSLETTER--><g id="link_SERVICIO EXTERNO_NEWSLETTER"><path codeLine="54" d="M485.87,87.4169 C499.51,107.4169 517.63,133.9769 531.75,154.6869 " fill="none" id="SERVICIO EXTERNO-backto-NEWSLETTER" style="stroke:#181818;stroke-width:1.0;"/><polygon fill="none" points="479.93,91.1369,474.44,70.6669,491.49,83.2469,479.93,91.1369" style="stroke:#181818;stroke-width:1.0;"/></g><!--reverse link SERVICIO EXTERNO to OFERTAS DE EMPLEO--><g id="link_SERVICIO EXTERNO_OFERTAS DE EMPLEO"><path codeLine="55" d="M512.3,78.5369 C543.58,92.4869 585.63,111.7769 622,130.2969 C627.69,133.1969 633.53,136.2469 639.39,139.3669 " fill="none" id="SERVICIO EXTERNO-backto-OFERTAS DE EMPLEO" style="stroke:#181818;stroke-width:1.0;"/><polygon fill="none" points="509.38,84.8969,493.93,70.4069,515.05,72.0969,509.38,84.8969" style="stroke:#181818;stroke-width:1.0;"/></g><!--reverse link SERVICIO EXTERNO to COMUNICACIÓN--><g id="link_SERVICIO EXTERNO_COMUNICACIÓN"><path codeLine="56" d="M556.74,65.0569 C631.69,73.2769 739.43,91.2569 826,130.2969 C839.72,136.4869 853.26,145.5869 864.98,154.7069 " fill="none" id="SERVICIO EXTERNO-backto-COMUNICACIÓN" style="stroke:#181818;stroke-width:1.0;"/><polygon fill="none" points="555.7,71.9869,536.51,62.9869,557.12,58.0569,555.7,71.9869" style="stroke:#181818;stroke-width:1.0;"/></g><!--SRC=[TL5BKkim4Dph528RLjo0ZR55bQk2dRBCPpkM1pAWZqjImdi5d8AZS0GkXXn3IEezQoLDjwPxUY95ZLoYtv8Y5pZ-YUYj2uoTdiGr6kHWw05OU28xW0V3Er1F3zvjR9yxxJn_NbF40xp7UzZeUEbih23zppo1PclgaIloIkDqHpF4lzoWwT0dDUX2zA0YNqZHt9HvMNDnrugcgXUSlN3snfZI40A_hieRqSYoo8e4C9xE1GGCIPSN49FpFNNHY8BBEY-pvUARka9_J_gNKbQopPPPagk4tFUZJfEBg63tbA1Xx5xx7YtqpcFOrKiROe9IR3R95pWu7saB1mOgSIkNearZ_BIkN4mvmzH0RD4U6wulHTDcaXU2YwlLKko6__veEe-ZZMH6c26PcDojDXYY6u7MGmUFRbSjC2XFWwBF3xiVmjC4NdUaO8BsqdbzbPBDKnAVxzMFg32GmXfl-HhYIFxFTivVpyuEjpBBELh77Ebe8REits3drVxDSfPxDFmN]--></g></svg>