<?xml version="1.0" encoding="us-ascii" standalone="no"?><svg xmlns="http://www.w3.org/2000/svg" xmlns:xlink="http://www.w3.org/1999/xlink" contentStyleType="text/css" height="442px" preserveAspectRatio="none" style="width:2892px;height:442px;background:#FFFFFF;" version="1.1" viewBox="0 0 2892 442" width="2892px" zoomAndPan="magnify"><defs/><g><g id="elem_gestorDeHorarios"><rect fill="#F1F1F1" height="44.5938" style="stroke:#181818;stroke-width:0.5;" width="193" x="1442.5" y="215"/><text fill="#000000" font-family="sans-serif" font-size="14" lengthAdjust="spacing" textLength="179" x="1449.5" y="229.9951">gestorDeHorarios : David</text><line style="stroke:#181818;stroke-width:0.5;" x1="1443.5" x2="1634.5" y1="235.2969" y2="235.2969"/><text fill="#000000" font-family="sans-serif" font-size="14" lengthAdjust="spacing" textLength="147" x="1448.5" y="252.292">rol = "Crear Horario"</text></g><g id="elem_asignatura1"><rect fill="#F1F1F1" height="44.5938" style="stroke:#181818;stroke-width:0.5;" width="194" x="7" y="215"/><text fill="#000000" font-family="sans-serif" font-size="14" lengthAdjust="spacing" textLength="172" x="18" y="229.9951">asignatura1 : Asignatura</text><line style="stroke:#181818;stroke-width:0.5;" x1="8" x2="200" y1="235.2969" y2="235.2969"/><text fill="#000000" font-family="sans-serif" font-size="14" lengthAdjust="spacing" textLength="182" x="13" y="252.292">nombre = "Matem&#225;ticas"</text></g><g id="elem_asignatura2"><rect fill="#F1F1F1" height="44.5938" style="stroke:#181818;stroke-width:0.5;" width="209" x="463.5" y="215"/><text fill="#000000" font-family="sans-serif" font-size="14" lengthAdjust="spacing" textLength="171" x="482.5" y="229.9951">asignatura2 : Asignatura</text><line style="stroke:#181818;stroke-width:0.5;" x1="464.5" x2="671.5" y1="235.2969" y2="235.2969"/><text fill="#000000" font-family="sans-serif" font-size="14" lengthAdjust="spacing" textLength="197" x="469.5" y="252.292">nombre = "Programaci&#243;n I"</text></g><g id="elem_docente1"><rect fill="#F1F1F1" height="44.5938" style="stroke:#181818;stroke-width:0.5;" width="194" x="708" y="215"/><text fill="#000000" font-family="sans-serif" font-size="14" lengthAdjust="spacing" textLength="144" x="733" y="229.9951">docente1 : Docente</text><line style="stroke:#181818;stroke-width:0.5;" x1="709" x2="901" y1="235.2969" y2="235.2969"/><text fill="#000000" font-family="sans-serif" font-size="14" lengthAdjust="spacing" textLength="182" x="714" y="252.292">nombre = "Jorge Crespo"</text></g><g id="elem_docente2"><rect fill="#F1F1F1" height="44.5938" style="stroke:#181818;stroke-width:0.5;" width="202" x="1148" y="215"/><text fill="#000000" font-family="sans-serif" font-size="14" lengthAdjust="spacing" textLength="143" x="1177.5" y="229.9951">docente2 : Docente</text><line style="stroke:#181818;stroke-width:0.5;" x1="1149" x2="1349" y1="235.2969" y2="235.2969"/><text fill="#000000" font-family="sans-serif" font-size="14" lengthAdjust="spacing" textLength="190" x="1154" y="252.292">nombre = "Manuel Masias"</text></g><g id="elem_aula1"><rect fill="#F1F1F1" height="60.8906" style="stroke:#181818;stroke-width:0.5;" width="128" x="1293" y="375"/><text fill="#000000" font-family="sans-serif" font-size="14" lengthAdjust="spacing" textLength="80" x="1317" y="389.9951">aula1 : Aula</text><line style="stroke:#181818;stroke-width:0.5;" x1="1294" x2="1420" y1="395.2969" y2="395.2969"/><text fill="#000000" font-family="sans-serif" font-size="14" lengthAdjust="spacing" textLength="116" x="1299" y="412.292">numero = "-2.6"</text><text fill="#000000" font-family="sans-serif" font-size="14" lengthAdjust="spacing" textLength="107" x="1299" y="428.5889">disponible = Si</text></g><g id="elem_aula2"><rect fill="#F1F1F1" height="60.8906" style="stroke:#181818;stroke-width:0.5;" width="123" x="1659.5" y="375"/><text fill="#000000" font-family="sans-serif" font-size="14" lengthAdjust="spacing" textLength="79" x="1681.5" y="389.9951">aula2 : Aula</text><line style="stroke:#181818;stroke-width:0.5;" x1="1660.5" x2="1781.5" y1="395.2969" y2="395.2969"/><text fill="#000000" font-family="sans-serif" font-size="14" lengthAdjust="spacing" textLength="111" x="1665.5" y="412.292">numero = "1.3"</text><text fill="#000000" font-family="sans-serif" font-size="14" lengthAdjust="spacing" textLength="107" x="1665.5" y="428.5889">disponible = Si</text></g><g id="elem_asignacionDocenteAsignatura"><rect fill="#F1F1F1" height="60.8906" style="stroke:#181818;stroke-width:0.5;" width="317" x="2316.5" y="207"/><text fill="#000000" font-family="sans-serif" font-size="14" lengthAdjust="spacing" textLength="303" x="2323.5" y="221.9951">asignacionDocenteAsignatura : Asignacion</text><line style="stroke:#181818;stroke-width:0.5;" x1="2317.5" x2="2632.5" y1="227.2969" y2="227.2969"/><text fill="#000000" font-family="sans-serif" font-size="14" lengthAdjust="spacing" textLength="193" x="2322.5" y="244.292">docente = "Manuel Masias"</text><text fill="#000000" font-family="sans-serif" font-size="14" lengthAdjust="spacing" textLength="214" x="2322.5" y="260.5889">asignatura = "Programaci&#243;n I"</text></g><g id="elem_asignacionAulaAsignatura"><rect fill="#F1F1F1" height="60.8906" style="stroke:#181818;stroke-width:0.5;" width="285" x="1728.5" y="207"/><text fill="#000000" font-family="sans-serif" font-size="14" lengthAdjust="spacing" textLength="271" x="1735.5" y="221.9951">asignacionAulaAsignatura : Asignacion</text><line style="stroke:#181818;stroke-width:0.5;" x1="1729.5" x2="2012.5" y1="227.2969" y2="227.2969"/><text fill="#000000" font-family="sans-serif" font-size="14" lengthAdjust="spacing" textLength="206" x="1734.5" y="244.292">asignatura = "Programaci&#243;n"</text><text fill="#000000" font-family="sans-serif" font-size="14" lengthAdjust="spacing" textLength="89" x="1734.5" y="260.5889">aula = "-2.6"</text></g><g id="elem_horario"><rect fill="#F1F1F1" height="93.4844" style="stroke:#181818;stroke-width:0.5;" width="226" x="1426" y="7"/><text fill="#000000" font-family="sans-serif" font-size="14" lengthAdjust="spacing" textLength="116" x="1481" y="21.9951">horario : Horario</text><line style="stroke:#181818;stroke-width:0.5;" x1="1427" x2="1651" y1="27.2969" y2="27.2969"/><text fill="#000000" font-family="sans-serif" font-size="14" lengthAdjust="spacing" textLength="95" x="1432" y="44.292">dia = "Lunes"</text><text fill="#000000" font-family="sans-serif" font-size="14" lengthAdjust="spacing" textLength="143" x="1432" y="60.5889">horaInicio = "08.00"</text><text fill="#000000" font-family="sans-serif" font-size="14" lengthAdjust="spacing" textLength="127" x="1432" y="76.8857">horaFin = "10.00"</text><text fill="#000000" font-family="sans-serif" font-size="14" lengthAdjust="spacing" textLength="214" x="1432" y="93.1826">asignatura = "Programaci&#243;n I"</text></g><g id="elem_nota1"><path d="M236,217.5 L236,257.7656 L428,257.7656 L428,227.5 L418,217.5 L236,217.5 " fill="#FEFFDD" style="stroke:#181818;stroke-width:0.5;"/><path d="M418,217.5 L418,227.5 L428,227.5 L418,217.5 " fill="#FEFFDD" style="stroke:#181818;stroke-width:1.0;"/><text fill="#000000" font-family="sans-serif" font-size="13" lengthAdjust="spacing" textLength="129" x="242" y="234.5669">Se reciben todas las</text><text fill="#000000" font-family="sans-serif" font-size="13" lengthAdjust="spacing" textLength="171" x="242" y="249.6997">asignaturas de cada grado</text></g><g id="elem_nota2"><path d="M937,217.5 L937,257.7656 L1113,257.7656 L1113,227.5 L1103,217.5 L937,217.5 " fill="#FEFFDD" style="stroke:#181818;stroke-width:0.5;"/><path d="M1103,217.5 L1103,227.5 L1113,227.5 L1103,217.5 " fill="#FEFFDD" style="stroke:#181818;stroke-width:1.0;"/><text fill="#000000" font-family="sans-serif" font-size="13" lengthAdjust="spacing" textLength="129" x="943" y="234.5669">Se reciben todos los</text><text fill="#000000" font-family="sans-serif" font-size="13" lengthAdjust="spacing" textLength="155" x="943" y="249.6997">docentes de cada grado</text></g><g id="elem_nota3"><path d="M1456,385.5 L1456,425.7656 L1624,425.7656 L1624,395.5 L1614,385.5 L1456,385.5 " fill="#FEFFDD" style="stroke:#181818;stroke-width:0.5;"/><path d="M1614,385.5 L1614,395.5 L1624,395.5 L1614,385.5 " fill="#FEFFDD" style="stroke:#181818;stroke-width:1.0;"/><text fill="#000000" font-family="sans-serif" font-size="13" lengthAdjust="spacing" textLength="110" x="1462" y="402.5669">Verifica todas las</text><text fill="#000000" font-family="sans-serif" font-size="13" lengthAdjust="spacing" textLength="147" x="1462" y="417.6997">aulas de la universidad</text></g><g id="elem_nota4"><path d="M2049,217.5 L2049,233.5 L2013.69,237.5 L2049,241.5 L2049,257.7656 A0,0 0 0 0 2049,257.7656 L2281,257.7656 A0,0 0 0 0 2281,257.7656 L2281,227.5 L2271,217.5 L2049,217.5 A0,0 0 0 0 2049,217.5 " fill="#FEFFDD" style="stroke:#181818;stroke-width:0.5;"/><path d="M2271,217.5 L2271,227.5 L2281,227.5 L2271,217.5 " fill="#FEFFDD" style="stroke:#181818;stroke-width:0.5;"/><text fill="#000000" font-family="sans-serif" font-size="13" lengthAdjust="spacing" textLength="211" x="2055" y="234.5669">Se asignan todas las asignaturas</text><text fill="#000000" font-family="sans-serif" font-size="13" lengthAdjust="spacing" textLength="68" x="2055" y="249.6997">a las aulas</text></g><g id="elem_nota5"><path d="M2669,217.5 L2669,233.5 L2633.67,237.5 L2669,241.5 L2669,257.7656 A0,0 0 0 0 2669,257.7656 L2885,257.7656 A0,0 0 0 0 2885,257.7656 L2885,227.5 L2875,217.5 L2669,217.5 A0,0 0 0 0 2669,217.5 " fill="#FEFFDD" style="stroke:#181818;stroke-width:0.5;"/><path d="M2875,217.5 L2875,227.5 L2885,227.5 L2875,217.5 " fill="#FEFFDD" style="stroke:#181818;stroke-width:0.5;"/><text fill="#000000" font-family="sans-serif" font-size="13" lengthAdjust="spacing" textLength="195" x="2675" y="234.5669">Se asignan todos los docentes</text><text fill="#000000" font-family="sans-serif" font-size="13" lengthAdjust="spacing" textLength="109" x="2675" y="249.6997">a las asignaturas</text></g><g id="elem_note6"><path d="M1111.5,33.5 L1111.5,73.7656 A0,0 0 0 0 1111.5,73.7656 L1390.5,73.7656 A0,0 0 0 0 1390.5,73.7656 L1390.5,57.5 L1425.81,53.5 L1390.5,49.5 L1390.5,43.5 L1380.5,33.5 L1111.5,33.5 A0,0 0 0 0 1111.5,33.5 " fill="#FEFFDD" style="stroke:#181818;stroke-width:0.5;"/><path d="M1380.5,33.5 L1380.5,43.5 L1390.5,43.5 L1380.5,33.5 " fill="#FEFFDD" style="stroke:#181818;stroke-width:0.5;"/><text fill="#000000" font-family="sans-serif" font-size="13" lengthAdjust="spacing" textLength="182" x="1117.5" y="50.5669">Se elige el d&#237;a y las horas en</text><text fill="#000000" font-family="sans-serif" font-size="13" lengthAdjust="spacing" textLength="258" x="1117.5" y="65.6997">en las que se va a impartir la asignatura</text></g><!--link asignatura1 to gestorDeHorarios--><g id="link_asignatura1_gestorDeHorarios"><path codeLine="28" d="M179.891,214.965 C192.527,211.858 205.566,209.039 218,207 C448.016,169.286 1035.06,105.847 1265,144 C1346.07,157.452 1429.8348,189.4972 1483.7748,212.6062 " fill="none" id="asignatura1-to-gestorDeHorarios" style="stroke:#181818;stroke-width:1.0;"/><polygon fill="#181818" points="1489.29,214.969,1482.5925,207.748,1484.694,213,1479.442,215.1016,1489.29,214.969" style="stroke:#181818;stroke-width:1.0;"/><polygon fill="#000000" points="1218,138.5574,1208.9496,135.6348,1208.9602,141.5126,1218,138.5574" style="stroke:#000000;stroke-width:1.0;"/><text fill="#000000" font-family="sans-serif" font-size="13" lengthAdjust="spacing" textLength="43" x="1221" y="143.0669">Recibe</text><text fill="#000000" font-family="sans-serif" font-size="13" lengthAdjust="spacing" textLength="4" x="1234" y="158.1997">&#160;</text><text fill="#000000" font-family="sans-serif" font-size="13" lengthAdjust="spacing" textLength="4" x="1234" y="173.3325">&#160;</text></g><!--link asignatura2 to gestorDeHorarios--><g id="link_asignatura2_gestorDeHorarios"><path codeLine="29" d="M631.408,214.953 C732.671,181.589 937.389,124.955 1113,144 C1236.08,157.348 1369.9215,190.206 1454.7615,213.349 " fill="none" id="asignatura2-to-gestorDeHorarios" style="stroke:#181818;stroke-width:1.0;"/><polygon fill="#181818" points="1460.55,214.928,1452.9199,208.7005,1455.7263,213.6122,1450.8146,216.4185,1460.55,214.928" style="stroke:#181818;stroke-width:1.0;"/><polygon fill="#000000" points="1066,138.5567,1056.9492,135.6354,1056.9606,141.5132,1066,138.5567" style="stroke:#000000;stroke-width:1.0;"/><text fill="#000000" font-family="sans-serif" font-size="13" lengthAdjust="spacing" textLength="43" x="1069" y="143.0669">Recibe</text><text fill="#000000" font-family="sans-serif" font-size="13" lengthAdjust="spacing" textLength="4" x="1082" y="158.1997">&#160;</text><text fill="#000000" font-family="sans-serif" font-size="13" lengthAdjust="spacing" textLength="4" x="1082" y="173.3325">&#160;</text></g><!--link docente1 to gestorDeHorarios--><g id="link_docente1_gestorDeHorarios"><path codeLine="30" d="M829.358,214.915 C855.946,191.94 900.912,157.811 947,144 C1040.44,115.999 1308.7671,177.6852 1448.7871,213.4982 " fill="none" id="docente1-to-gestorDeHorarios" style="stroke:#181818;stroke-width:1.0;"/><polygon fill="#181818" points="1454.6,214.985,1446.8719,208.8796,1449.7559,213.746,1444.8895,216.6301,1454.6,214.985" style="stroke:#181818;stroke-width:1.0;"/><polygon fill="#000000" points="958,138.555,948.9482,135.6367,948.9616,141.5146,958,138.555" style="stroke:#000000;stroke-width:1.0;"/><text fill="#000000" font-family="sans-serif" font-size="13" lengthAdjust="spacing" textLength="43" x="961" y="143.0669">Recibe</text><text fill="#000000" font-family="sans-serif" font-size="13" lengthAdjust="spacing" textLength="4" x="974" y="158.1997">&#160;</text><text fill="#000000" font-family="sans-serif" font-size="13" lengthAdjust="spacing" textLength="4" x="974" y="173.3325">&#160;</text></g><!--link docente2 to gestorDeHorarios--><g id="link_docente2_gestorDeHorarios"><path codeLine="31" d="M1350.02,237.5 C1379.93,237.5 1406.61,237.5 1436.24,237.5 " fill="none" id="docente2-to-gestorDeHorarios" style="stroke:#181818;stroke-width:1.0;"/><polygon fill="#181818" points="1442.24,237.5,1433.24,233.5,1437.24,237.5,1433.24,241.5,1442.24,237.5" style="stroke:#181818;stroke-width:1.0;"/><polygon fill="#000000" points="1378.25,196.0664,1369.2049,193.1275,1369.2049,199.0053,1378.25,196.0664" style="stroke:#000000;stroke-width:1.0;"/><text fill="#000000" font-family="sans-serif" font-size="13" lengthAdjust="spacing" textLength="43" x="1381.25" y="200.5669">Recibe</text><text fill="#000000" font-family="sans-serif" font-size="13" lengthAdjust="spacing" textLength="4" x="1394.25" y="215.6997">&#160;</text><text fill="#000000" font-family="sans-serif" font-size="13" lengthAdjust="spacing" textLength="4" x="1394.25" y="230.8325">&#160;</text></g><!--link gestorDeHorarios to aula1--><g id="link_gestorDeHorarios_aula1"><path codeLine="33" d="M1515.21,260.202 C1483.02,289.555 1429.9328,337.9741 1393.8328,370.9045 " fill="none" id="gestorDeHorarios-to-aula1" style="stroke:#181818;stroke-width:1.0;"/><polygon fill="#181818" points="1389.4,374.9481,1398.7449,371.8379,1393.094,371.5785,1393.3534,365.9276,1389.4,374.9481" style="stroke:#181818;stroke-width:1.0;"/><polygon fill="#000000" points="1472.3058,309.9358,1480.9692,306.012,1477.0083,301.6691,1472.3058,309.9358" style="stroke:#000000;stroke-width:1.0;"/><text fill="#000000" font-family="sans-serif" font-size="13" lengthAdjust="spacing" textLength="48" x="1484" y="311.0669">Verifica</text><text fill="#000000" font-family="sans-serif" font-size="13" lengthAdjust="spacing" textLength="4" x="1499.5" y="326.1997">&#160;</text><text fill="#000000" font-family="sans-serif" font-size="13" lengthAdjust="spacing" textLength="4" x="1499.5" y="341.3325">&#160;</text></g><!--link gestorDeHorarios to aula2--><g id="link_gestorDeHorarios_aula2"><path codeLine="34" d="M1562.79,260.202 C1594.98,289.555 1648.0672,337.9741 1684.1672,370.9045 " fill="none" id="gestorDeHorarios-to-aula2" style="stroke:#181818;stroke-width:1.0;"/><polygon fill="#181818" points="1688.6,374.9481,1684.6466,365.9276,1684.906,371.5785,1679.2551,371.8379,1688.6,374.9481" style="stroke:#181818;stroke-width:1.0;"/><polygon fill="#000000" points="1661.6942,309.9358,1656.9917,301.6691,1653.0308,306.012,1661.6942,309.9358" style="stroke:#000000;stroke-width:1.0;"/><text fill="#000000" font-family="sans-serif" font-size="13" lengthAdjust="spacing" textLength="48" x="1666" y="311.0669">Verifica</text><text fill="#000000" font-family="sans-serif" font-size="13" lengthAdjust="spacing" textLength="4" x="1681.5" y="326.1997">&#160;</text><text fill="#000000" font-family="sans-serif" font-size="13" lengthAdjust="spacing" textLength="4" x="1681.5" y="341.3325">&#160;</text></g><!--link gestorDeHorarios to asignacionDocenteAsignatura--><g id="link_gestorDeHorarios_asignacionDocenteAsignatura"><path codeLine="40" d="M1614.07,214.931 C1695.26,191.79 1828.94,157.355 1947,144 C2104.25,126.212 2279.781,171.4341 2383.801,205.0661 " fill="none" id="gestorDeHorarios-to-asignacionDocenteAsignatura" style="stroke:#181818;stroke-width:1.0;"/><polygon fill="#181818" points="2389.51,206.912,2382.177,200.3372,2384.7525,205.3738,2379.7159,207.9492,2389.51,206.912" style="stroke:#181818;stroke-width:1.0;"/><polygon fill="#000000" points="1957.9996,138.5023,1948.9176,135.6796,1948.9929,141.5569,1957.9996,138.5023" style="stroke:#000000;stroke-width:1.0;"/><text fill="#000000" font-family="sans-serif" font-size="13" lengthAdjust="spacing" textLength="43" x="1961" y="143.0669">Asigna</text><text fill="#000000" font-family="sans-serif" font-size="13" lengthAdjust="spacing" textLength="4" x="1974" y="158.1997">&#160;</text><text fill="#000000" font-family="sans-serif" font-size="13" lengthAdjust="spacing" textLength="4" x="1974" y="173.3325">&#160;</text></g><!--link gestorDeHorarios to asignacionAulaAsignatura--><g id="link_gestorDeHorarios_asignacionAulaAsignatura"><path codeLine="46" d="M1635.92,237.5 C1664.82,237.5 1691.12,237.5 1722.3,237.5 " fill="none" id="gestorDeHorarios-to-asignacionAulaAsignatura" style="stroke:#181818;stroke-width:1.0;"/><polygon fill="#181818" points="1728.3,237.5,1719.3,233.5,1723.3,237.5,1719.3,241.5,1728.3,237.5" style="stroke:#181818;stroke-width:1.0;"/><polygon fill="#000000" points="1664,196.0664,1654.9549,193.1275,1654.9549,199.0053,1664,196.0664" style="stroke:#000000;stroke-width:1.0;"/><text fill="#000000" font-family="sans-serif" font-size="13" lengthAdjust="spacing" textLength="43" x="1667" y="200.5669">Asigna</text><text fill="#000000" font-family="sans-serif" font-size="13" lengthAdjust="spacing" textLength="4" x="1680" y="215.6997">&#160;</text><text fill="#000000" font-family="sans-serif" font-size="13" lengthAdjust="spacing" textLength="4" x="1680" y="230.8325">&#160;</text></g><!--link asignatura1 to nota1--><g id="link_asignatura1_nota1"><path codeLine="56" d="M201.078,237.5 C212.67,237.5 224.262,237.5 235.854,237.5 " fill="none" id="asignatura1-nota1" style="stroke:#181818;stroke-width:1.0;stroke-dasharray:7.0,7.0;"/></g><!--link nota1 to asignatura2--><g id="link_nota1_asignatura2"><path codeLine="57" d="M428.336,237.5 C439.975,237.5 451.613,237.5 463.252,237.5 " fill="none" id="nota1-asignatura2" style="stroke:#181818;stroke-width:1.0;stroke-dasharray:7.0,7.0;"/></g><!--link docente1 to nota2--><g id="link_docente1_nota2"><path codeLine="60" d="M902.109,237.5 C913.63,237.5 925.151,237.5 936.672,237.5 " fill="none" id="docente1-nota2" style="stroke:#181818;stroke-width:1.0;stroke-dasharray:7.0,7.0;"/></g><!--link nota2 to docente2--><g id="link_nota2_docente2"><path codeLine="61" d="M1113.38,237.5 C1124.85,237.5 1136.33,237.5 1147.81,237.5 " fill="none" id="nota2-docente2" style="stroke:#181818;stroke-width:1.0;stroke-dasharray:7.0,7.0;"/></g><!--link aula1 to nota3--><g id="link_aula1_nota3"><path codeLine="64" d="M1421.34,405.5 C1432.77,405.5 1444.2,405.5 1455.64,405.5 " fill="none" id="aula1-nota3" style="stroke:#181818;stroke-width:1.0;stroke-dasharray:7.0,7.0;"/></g><!--link nota3 to aula2--><g id="link_nota3_aula2"><path codeLine="65" d="M1624.14,405.5 C1635.87,405.5 1647.6,405.5 1659.33,405.5 " fill="none" id="nota3-aula2" style="stroke:#181818;stroke-width:1.0;stroke-dasharray:7.0,7.0;"/></g><!--reverse link horario to gestorDeHorarios--><g id="link_horario_gestorDeHorarios"><path codeLine="78" d="M1539,106.426 C1539,143.072 1539,186.765 1539,214.84 " fill="none" id="horario-backto-gestorDeHorarios" style="stroke:#181818;stroke-width:1.0;"/><polygon fill="#181818" points="1539,100.426,1535,109.426,1539,105.426,1543,109.426,1539,100.426" style="stroke:#181818;stroke-width:1.0;"/><polygon fill="#000000" points="1544,148.5664,1541.0611,157.6115,1546.9389,157.6115,1544,148.5664" style="stroke:#000000;stroke-width:1.0;"/><text fill="#000000" font-family="sans-serif" font-size="13" lengthAdjust="spacing" textLength="30" x="1553" y="158.0669">Crea</text></g><!--SRC=[bLNRYjim47tNLmnwJqYKtL0A3ImDfLkwKBhGfxmejffLiQMjR0VAqe_f1_Ifdv0Vw-XcAx6TP0Dnuj7ed3cZCxRU_X1P3NGdgbgRjVYe3JTIL_0MrdmlSmgyWjxY2m7y65t0Ew3lZU06mXeblmdH0PHNSgTutHW-Hxoxziw1feiUJ-boQuI5VE2rA0z_QfdnoYBs0TavGDO3_6Bqpl2IP_BmJy7zKPMvpeIgXIrnxVywk3PyYlL9cvq0L5qzwxIui84Dux01aQeH1JnWtLvb9xCfVCVmrqjpWG3GbC9e2p1XqoLriLnYBKfk2mlyADEEuKvs2iLwKFFfOWo9f0SrCPCL37Y5VXMPt0fORTH6KP8UnPLRsdQ_BlzgVD9BcUIuCRQQVXD6VaU_nVpnT3QKVcBHJ6eLJD2vjBMiNKqiEvpiZoZ87F2BNUtwF6BolWhRhVCrKdztHfarqtMoJZ9VBbKTPE6kpk2NLVJg6PFmv04m8pwkRBan6Zek7VVdHedGPRj-hoGosONPc-birYryaCeDqAoDNZmKeZIUA7qKO9n55TGwnpeA_6vKjnsV7G8oddD0XDpNYblv_6WafsOQekxgxfFv6sR37XQwsgXWhp4crerbf66EXhdxE8EHensALW_AQGel18-qKN8lJ2LpdhSK2-97CE8l7Fx2ox3JbWZmij9s9Sr2AX-oX2ty3HcrIMIy8SCKlaTHP8VVKROij-JSI4MYsuH7579dhv0V_dBuvP2jdIh00zeelDZ8pqP09M3FWOCidxcffR6DvCTlFekwTDXBHnOCJOOUUWrEJZS6xkKDA_eV]--></g></svg>