<?xml version="1.0" encoding="us-ascii" standalone="no"?><svg xmlns="http://www.w3.org/2000/svg" xmlns:xlink="http://www.w3.org/1999/xlink" contentStyleType="text/css" height="788px" preserveAspectRatio="none" style="width:659px;height:788px;background:#FFFFFF;" version="1.1" viewBox="0 0 659 788" width="659px" zoomAndPan="magnify"><defs/><g><text fill="#000000" font-family="sans-serif" font-size="14" font-weight="bold" lengthAdjust="spacing" textLength="120" x="259.5598" y="22.9951">Editar Paquete</text><rect fill="#F1F1F1" height="40" rx="12.5" ry="12.5" style="stroke:#181818;stroke-width:0.5;" width="59" x="297" y="44.2969"/><text fill="#000000" font-family="sans-serif" font-size="14" lengthAdjust="spacing" textLength="49" x="302" y="69.1436">INITIAL</text><path d="M19.5,194.2969 L633.6197,194.2969 A12.5,12.5 0 0 1 646.1197,206.7969 L646.1197,220.5938 L7,220.5938 L7,206.7969 A12.5,12.5 0 0 1 19.5,194.2969 " fill="#F1F1F1" style="stroke:#F1F1F1;stroke-width:1.0;"/><rect fill="none" height="588.2969" rx="12.5" ry="12.5" style="stroke:#181818;stroke-width:0.5;" width="639.1197" x="7" y="194.2969"/><line style="stroke:#181818;stroke-width:0.5;" x1="7" x2="646.1197" y1="220.5938" y2="220.5938"/><text fill="#000000" font-family="sans-serif" font-size="14" lengthAdjust="spacing" textLength="102" x="275.5598" y="212.292">EditarPaquete</text><rect fill="#F1F1F1" height="40" rx="12.5" ry="12.5" style="stroke:#181818;stroke-width:0.5;" width="50" x="157.1197" y="288.5938"/><text fill="#000000" font-family="sans-serif" font-size="14" lengthAdjust="spacing" textLength="4" x="180.1197" y="313.4404">&#160;</text><rect fill="#F1F1F1" height="40" rx="12.5" ry="12.5" style="stroke:#181818;stroke-width:0.5;" width="50" x="20.1197" y="479.5938"/><text fill="#000000" font-family="sans-serif" font-size="14" lengthAdjust="spacing" textLength="4" x="43.1197" y="504.4404">&#160;</text><g id="elem_4"><polygon fill="#F1F1F1" points="215.1197,640.5938,227.1197,652.5938,215.1197,664.5938,203.1197,652.5938,215.1197,640.5938" style="stroke:#181818;stroke-width:0.5;"/></g><ellipse cx="182.1197" cy="241.5938" fill="#222222" rx="10" ry="10" style="stroke:#222222;stroke-width:1.0;"/><ellipse cx="215.1197" cy="761.5938" fill="none" rx="11" ry="11" style="stroke:#222222;stroke-width:1.0;"/><ellipse cx="215.1197" cy="761.5938" fill="#222222" rx="6" ry="6" style="stroke:#222222;stroke-width:1.0;"/><!--link *start*EditarPaquete to 2--><g id="link_*start*EditarPaquete_2"><path d="M182.1197,251.6318 C182.1197,261.1198 182.1197,270.3208 182.1197,282.4868 " fill="none" id="*start*EditarPaquete-to-2" style="stroke:#008000;stroke-width:1.0;"/><polygon fill="#008000" points="182.1197,288.4868,186.1197,279.4868,182.1197,283.4868,178.1197,279.4868,182.1197,288.4868" style="stroke:#008000;stroke-width:1.0;"/></g><!--link 2 to 3--><g id="link_2_3"><path d="M157.0837,315.4568 C112.5324,325.8898 24.1197,346.5938 24.1197,346.5938 C24.1197,346.5938 24.1197,456.5938 24.1197,456.5938 C24.1197,456.5938 27.363,463.0813 32.9194,474.1933 " fill="none" id="2-to-3" style="stroke:#008000;stroke-width:1.0;"/><polygon fill="#008000" points="35.6028,479.5598,35.1553,469.7211,33.3666,475.0877,28,473.2989,35.6028,479.5598" style="stroke:#008000;stroke-width:1.0;"/><path d="M29.1197,351.5938 L29.1197,451.5938 L323.1197,451.5938 L323.1197,361.5938 L313.1197,351.5938 L29.1197,351.5938 " fill="#F5F5F5" style="stroke:#008000;stroke-width:0.5;"/><path d="M313.1197,351.5938 L313.1197,361.5938 L323.1197,361.5938 L313.1197,351.5938 " fill="#F5F5F5" style="stroke:#008000;stroke-width:0.5;"/><text fill="#000000" font-family="sans-serif" font-size="13" font-weight="bold" lengthAdjust="spacing" textLength="122" x="35.1197" y="368.6606">Sistema Solicita</text><ellipse cx="40.6197" cy="379.3594" fill="#000000" rx="2.5" ry="2.5" style="stroke:#000000;stroke-width:0.0;"/><text fill="#000000" font-family="sans-serif" font-size="13" lengthAdjust="spacing" textLength="51" x="47.1197" y="383.7935">Nombre</text><ellipse cx="40.6197" cy="394.4922" fill="#000000" rx="2.5" ry="2.5" style="stroke:#000000;stroke-width:0.0;"/><text fill="#000000" font-family="sans-serif" font-size="13" lengthAdjust="spacing" textLength="116" x="47.1197" y="398.9263">Servicios Incluidos</text><ellipse cx="40.6197" cy="409.625" fill="#000000" rx="2.5" ry="2.5" style="stroke:#000000;stroke-width:0.0;"/><text fill="#000000" font-family="sans-serif" font-size="13" lengthAdjust="spacing" textLength="39" x="47.1197" y="414.0591">Precio</text><text fill="#000000" font-family="sans-serif" font-size="13" font-weight="bold" lengthAdjust="spacing" textLength="127" x="35.1197" y="429.1919">Sistema Permite</text><ellipse cx="40.6197" cy="439.8906" fill="#000000" rx="2.5" ry="2.5" style="stroke:#000000;stroke-width:0.0;"/><text fill="#000000" font-family="sans-serif" font-size="13" lengthAdjust="spacing" textLength="261" x="47.1197" y="444.3247">Actualizar datos de Paquete de Servicios</text></g><!--link 3 to 4--><g id="link_3_4"><path d="M55.2759,519.6558 C73.5572,553.9688 110.1197,622.5938 110.1197,622.5938 C110.1197,622.5938 174.9922,640.5104 200.3842,647.5234 " fill="none" id="3-to-4" style="stroke:#008000;stroke-width:1.0;"/><polygon fill="#008000" points="206.1677,649.1208,198.5574,642.8691,201.3481,647.7896,196.4276,650.5804,206.1677,649.1208" style="stroke:#008000;stroke-width:1.0;"/><path d="M115.1197,547.5938 L115.1197,617.5938 L323.1197,617.5938 L323.1197,557.5938 L313.1197,547.5938 L115.1197,547.5938 " fill="#F5F5F5" style="stroke:#008000;stroke-width:0.5;"/><path d="M313.1197,547.5938 L313.1197,557.5938 L323.1197,557.5938 L313.1197,547.5938 " fill="#F5F5F5" style="stroke:#008000;stroke-width:0.5;"/><text fill="#000000" font-family="sans-serif" font-size="13" font-weight="bold" lengthAdjust="spacing" textLength="187" x="121.1197" y="564.6606">Amdinistrador Introduce</text><ellipse cx="126.6197" cy="575.3594" fill="#000000" rx="2.5" ry="2.5" style="stroke:#000000;stroke-width:0.0;"/><text fill="#000000" font-family="sans-serif" font-size="13" lengthAdjust="spacing" textLength="51" x="133.1197" y="579.7935">Nombre</text><ellipse cx="126.6197" cy="590.4922" fill="#000000" rx="2.5" ry="2.5" style="stroke:#000000;stroke-width:0.0;"/><text fill="#000000" font-family="sans-serif" font-size="13" lengthAdjust="spacing" textLength="116" x="133.1197" y="594.9263">Servicios Incluidos</text><ellipse cx="126.6197" cy="605.625" fill="#000000" rx="2.5" ry="2.5" style="stroke:#000000;stroke-width:0.0;"/><text fill="#000000" font-family="sans-serif" font-size="13" lengthAdjust="spacing" textLength="39" x="133.1197" y="610.0591">Precio</text></g><!--link 4 to *end*EditarPaquete--><g id="link_4_*end*EditarPaquete"><path d="M215.1197,664.6418 C215.1197,685.4658 215.1197,724.2386 215.1197,744.3932 " fill="none" id="4-to-*end*EditarPaquete" style="stroke:#008000;stroke-width:1.0;"/><polygon fill="#008000" points="215.1197,750.3932,219.1197,741.3932,215.1197,745.3932,211.1197,741.3932,215.1197,750.3932" style="stroke:#008000;stroke-width:1.0;"/><path d="M220.1197,687.5938 L220.1197,727.5938 L382.1197,727.5938 L382.1197,697.5938 L372.1197,687.5938 L220.1197,687.5938 " fill="#F5F5F5" style="stroke:#008000;stroke-width:0.5;"/><path d="M372.1197,687.5938 L372.1197,697.5938 L382.1197,697.5938 L372.1197,687.5938 " fill="#F5F5F5" style="stroke:#008000;stroke-width:0.5;"/><text fill="#000000" font-family="sans-serif" font-size="13" font-weight="bold" lengthAdjust="spacing" textLength="129" x="226.1197" y="704.6606">Sistema Muestra</text><ellipse cx="231.6197" cy="715.3594" fill="#000000" rx="2.5" ry="2.5" style="stroke:#000000;stroke-width:0.0;"/><text fill="#000000" font-family="sans-serif" font-size="13" lengthAdjust="spacing" textLength="129" x="238.1197" y="719.7935">Cambios Realizados</text></g><!--link 4 to 2--><g id="link_4_2"><path d="M223.9867,649.3177 C250.6257,642.4818 328.1197,622.5938 328.1197,622.5938 C328.1197,622.5938 328.1197,346.5938 328.1197,346.5938 C328.1197,346.5938 254.7779,328.0066 213.0339,317.4286 " fill="none" id="4-to-2" style="stroke:#FF0000;stroke-width:1.0;"/><polygon fill="#FF0000" points="207.2177,315.9548,214.9594,322.0429,212.0645,317.1829,216.9245,314.288,207.2177,315.9548" style="stroke:#FF0000;stroke-width:1.0;"/><path d="M333.1197,479.5938 L333.1197,519.5938 L637.1197,519.5938 L637.1197,489.5938 L627.1197,479.5938 L333.1197,479.5938 " fill="#F5F5F5" style="stroke:#008000;stroke-width:0.5;"/><path d="M627.1197,479.5938 L627.1197,489.5938 L637.1197,489.5938 L627.1197,479.5938 " fill="#F5F5F5" style="stroke:#008000;stroke-width:0.5;"/><text fill="#000000" font-family="sans-serif" font-size="13" font-weight="bold" lengthAdjust="spacing" textLength="129" x="339.1197" y="496.6606">Sistema Muestra</text><ellipse cx="344.6197" cy="507.3594" fill="#000000" rx="2.5" ry="2.5" style="stroke:#000000;stroke-width:0.0;"/><text fill="#000000" font-family="sans-serif" font-size="13" lengthAdjust="spacing" textLength="271" x="351.1197" y="511.7935">Mensaje de error en los datos introducidos</text></g><!--link startState to EditarPaquete--><g id="link_startState_EditarPaquete"><path d="M326.5,84.5259 C326.5,107.0999 326.5,141.4429 326.5,188.1499 " fill="none" id="startState-to-EditarPaquete" style="stroke:#008000;stroke-width:1.0;"/><polygon fill="#008000" points="326.5,194.1499,330.5,185.1499,326.5,189.1499,322.5,185.1499,326.5,194.1499" style="stroke:#008000;stroke-width:1.0;"/><path d="M331.5,119.2969 L331.5,159.2969 L539.5,159.2969 L539.5,129.2969 L529.5,119.2969 L331.5,119.2969 " fill="#F5F5F5" style="stroke:#008000;stroke-width:0.5;"/><path d="M529.5,119.2969 L529.5,129.2969 L539.5,129.2969 L529.5,119.2969 " fill="#F5F5F5" style="stroke:#008000;stroke-width:0.5;"/><text fill="#000000" font-family="sans-serif" font-size="13" font-weight="bold" lengthAdjust="spacing" textLength="169" x="337.5" y="136.3638">Administrador Solicita</text><ellipse cx="343" cy="147.0625" fill="#000000" rx="2.5" ry="2.5" style="stroke:#000000;stroke-width:0.0;"/><text fill="#000000" font-family="sans-serif" font-size="13" lengthAdjust="spacing" textLength="175" x="349.5" y="151.4966">Editar Paquete de Servicios</text></g><!--SRC=[bP9DQy9048Rl-oi6lGbIK8yXa4eFWIhIz2OUDjcXRitkffDDnOh_lPCbMbCfRNC8EpiVxpDluhKl4HwKzf9W9TyQz2X4lTEsaYGD70NmitGUxsMnUo7NM3LtfICOxhVQOsRS3aDDGkJsNUg54ErNfoE5T9CgjKL_g10gLnxQG9o4s6g5WARo1r1O5wGhhvrb8Yyz0h_9P-4eQnYao_GvJHu78NrEZCTnjyzv7SiCu6mhk0lAKHudocYhQqzICLNcIbrmItINnw5YzCqIXe4CwPshN2tGAcY7dh5wSiVkSX8GOT25qtuuWoWgjauN6CT2h4SR62ktjym-4M9o2QPzU0RF61gDx2EFs6UJ4_BXGWcfBSf6A-OTmOgGxwxxLqY6lr_NdXI-aQN-u8sLzDpC-_wo-lG2ERk1J8owSZUrdfng2lmFArn9pIvIRDIFZYmQR1KxaRaqUJlv2SDUgiVE0zT3GhK9Vlzju09jBL-37SY_EW5oH-jKy4jtE-g-qEaJ]--></g></svg>