<?xml version="1.0" encoding="UTF-8" standalone="no"?><svg xmlns="http://www.w3.org/2000/svg" xmlns:xlink="http://www.w3.org/1999/xlink" contentStyleType="text/css" height="868px" preserveAspectRatio="none" style="width:621px;height:868px;background:#FFFFFF;" version="1.1" viewBox="0 0 621 868" width="621px" zoomAndPan="magnify"><defs/><g><rect fill="none" height="29.0679" id="_title" style="stroke:none;stroke-width:1.0;" width="112" x="244.6365" y="5"/><text fill="#000000" font-family="sans-serif" font-size="14" font-weight="bold" lengthAdjust="spacing" textLength="102" x="249.6365" y="24.9659">Editar Paquete</text><rect fill="#F1F1F1" height="40" rx="12.5" ry="12.5" style="stroke:#181818;stroke-width:0.5;" width="60" x="277.64" y="47.0679"/><text fill="#000000" font-family="sans-serif" font-size="14" lengthAdjust="spacing" textLength="50" x="282.64" y="72.4999">INITIAL</text><path d="M19.5,202.0679 L595.773,202.0679 A12.5,12.5 0 0 1 608.273,214.5679 L608.273,231.1358 L7,231.1358 L7,214.5679 A12.5,12.5 0 0 1 19.5,202.0679 " fill="#F1F1F1" style="stroke:#F1F1F1;stroke-width:1.0;"/><rect fill="none" height="660.0679" rx="12.5" ry="12.5" style="stroke:#181818;stroke-width:0.5;" width="601.273" x="7" y="202.0679"/><line style="stroke:#181818;stroke-width:0.5;" x1="7" x2="608.273" y1="231.1358" y2="231.1358"/><text fill="#000000" font-family="sans-serif" font-size="14" lengthAdjust="spacing" textLength="95" x="260.1365" y="222.0339">EditarPaquete</text><rect fill="#F1F1F1" height="40" rx="12.5" ry="12.5" style="stroke:#181818;stroke-width:0.5;" width="50" x="146.273" y="299.1358"/><text fill="#000000" font-family="sans-serif" font-size="14" lengthAdjust="spacing" textLength="4" x="169.273" y="324.5678"> </text><rect fill="#F1F1F1" height="40" rx="12.5" ry="12.5" style="stroke:#181818;stroke-width:0.5;" width="50" x="20.273" y="525.6358"/><text fill="#000000" font-family="sans-serif" font-size="14" lengthAdjust="spacing" textLength="4" x="43.273" y="551.0678"> </text><g id="elem_4"><polygon fill="#F1F1F1" points="193.273,717.1358,205.273,729.1358,193.273,741.1358,181.273,729.1358,193.273,717.1358" style="stroke:#181818;stroke-width:0.5;"/></g><ellipse cx="171.273" cy="252.1358" fill="#222222" rx="10" ry="10" style="stroke:none;stroke-width:1.0;"/><ellipse cx="193.273" cy="842.1358" fill="none" rx="10" ry="10" style="stroke:#222222;stroke-width:1.0;"/><ellipse cx="193.773" cy="842.6358" fill="#222222" rx="6" ry="6" style="stroke:none;stroke-width:1.0;"/><!--MD5=[d65042c40b1b83a540a8cec182954caf]
link *start*EditarPaquete to 2--><g id="link_*start*EditarPaquete_2"><path d="M171.273,262.4458 C171.273,270.2358 171.273,281.7358 171.273,292.2658 " fill="none" id="*start*EditarPaquete-to-2" style="stroke:#008000;stroke-width:1.0;"/><polygon fill="#008000" points="171.273,297.1458,175.273,288.1458,171.273,292.1458,167.273,288.1458,171.273,297.1458" style="stroke:#008000;stroke-width:1.0;"/></g><!--MD5=[eeb69082328d10abd3b14fdeede0d8a3]
link 2 to 3--><g id="link_2_3"><path d="M146.003,326.4958 C103.973,337.0758 24.273,357.1358 24.273,357.1358 C24.273,357.1358 24.273,500.1358 24.273,500.1358 C24.273,500.1358 28.683,509.4758 33.453,519.5958 " fill="none" id="2-to-3" style="stroke:#008000;stroke-width:1.0;"/><polygon fill="#008000" points="35.473,523.8758,35.2271,514.03,33.3288,519.3589,28,517.4606,35.473,523.8758" style="stroke:#008000;stroke-width:1.0;"/><path d="M29.273,362.1358 L29.273,495.1358 L301.273,495.1358 L301.273,372.1358 L291.273,362.1358 L29.273,362.1358 " fill="#F5F5F5" style="stroke:#181818;stroke-width:0.5;"/><path d="M291.273,362.1358 L291.273,372.1358 L301.273,372.1358 L291.273,362.1358 " fill="#F5F5F5" style="stroke:#181818;stroke-width:0.5;"/><text fill="#000000" font-family="sans-serif" font-size="13" font-weight="bold" lengthAdjust="spacing" textLength="103" x="35.273" y="381.0328">Sistema Solicita</text><ellipse cx="40.773" cy="395.0479" fill="#000000" rx="2.5" ry="2.5" style="stroke:#000000;stroke-width:0.0;"/><text fill="#000000" font-family="sans-serif" font-size="13" lengthAdjust="spacing" textLength="50" x="47.273" y="398.7389">Nombre</text><ellipse cx="40.773" cy="412.7539" fill="#000000" rx="2.5" ry="2.5" style="stroke:#000000;stroke-width:0.0;"/><text fill="#000000" font-family="sans-serif" font-size="13" lengthAdjust="spacing" textLength="109" x="47.273" y="416.4449">Servicios Incluidos</text><ellipse cx="40.773" cy="430.4599" fill="#000000" rx="2.5" ry="2.5" style="stroke:#000000;stroke-width:0.0;"/><text fill="#000000" font-family="sans-serif" font-size="13" lengthAdjust="spacing" textLength="37" x="47.273" y="434.1509">Precio</text><ellipse cx="40.773" cy="448.1659" fill="#000000" rx="2.5" ry="2.5" style="stroke:#000000;stroke-width:0.0;"/><text fill="#000000" font-family="sans-serif" font-size="13" lengthAdjust="spacing" textLength="69" x="47.273" y="451.8569">Descripcion</text><text fill="#000000" font-family="sans-serif" font-size="13" font-weight="bold" lengthAdjust="spacing" textLength="108" x="35.273" y="469.5629">Sistema Permite</text><ellipse cx="40.773" cy="483.5779" fill="#000000" rx="2.5" ry="2.5" style="stroke:#000000;stroke-width:0.0;"/><text fill="#000000" font-family="sans-serif" font-size="13" lengthAdjust="spacing" textLength="239" x="47.273" y="487.2689">Actualizar datos de Paquete de Servicios</text></g><!--MD5=[b1f22f0c97e7f2b556a5a2d67c42ac53]
link 3 to 4--><g id="link_3_4"><path d="M53.633,565.9458 C71.393,606.9858 111.273,699.1358 111.273,699.1358 C111.273,699.1358 155.203,714.6758 178.753,723.0058 " fill="none" id="3-to-4" style="stroke:#008000;stroke-width:1.0;"/><polygon fill="#008000" points="183.383,724.6358,176.237,717.8583,178.6704,722.965,173.5637,725.3984,183.383,724.6358" style="stroke:#008000;stroke-width:1.0;"/><path d="M116.273,596.1358 L116.273,694.1358 L301.273,694.1358 L301.273,606.1358 L291.273,596.1358 L116.273,596.1358 " fill="#F5F5F5" style="stroke:#181818;stroke-width:0.5;"/><path d="M291.273,596.1358 L291.273,606.1358 L301.273,606.1358 L291.273,596.1358 " fill="#F5F5F5" style="stroke:#181818;stroke-width:0.5;"/><text fill="#000000" font-family="sans-serif" font-size="13" font-weight="bold" lengthAdjust="spacing" textLength="164" x="122.273" y="615.0328">Amdinistrador Introduce</text><ellipse cx="127.773" cy="629.0479" fill="#000000" rx="2.5" ry="2.5" style="stroke:#000000;stroke-width:0.0;"/><text fill="#000000" font-family="sans-serif" font-size="13" lengthAdjust="spacing" textLength="50" x="134.273" y="632.7389">Nombre</text><ellipse cx="127.773" cy="646.7539" fill="#000000" rx="2.5" ry="2.5" style="stroke:#000000;stroke-width:0.0;"/><text fill="#000000" font-family="sans-serif" font-size="13" lengthAdjust="spacing" textLength="109" x="134.273" y="650.4449">Servicios Incluidos</text><ellipse cx="127.773" cy="664.4599" fill="#000000" rx="2.5" ry="2.5" style="stroke:#000000;stroke-width:0.0;"/><text fill="#000000" font-family="sans-serif" font-size="13" lengthAdjust="spacing" textLength="37" x="134.273" y="668.1509">Precio</text><ellipse cx="127.773" cy="682.1659" fill="#000000" rx="2.5" ry="2.5" style="stroke:#000000;stroke-width:0.0;"/><text fill="#000000" font-family="sans-serif" font-size="13" lengthAdjust="spacing" textLength="69" x="134.273" y="685.8569">Descripcion</text></g><!--MD5=[f42725d358c4abec39d9ddf60b23be04]
link 4 to *end*EditarPaquete--><g id="link_4_*end*EditarPaquete"><path d="M193.273,741.5958 C193.273,761.5758 193.273,802.8058 193.273,825.4258 " fill="none" id="4-to-*end*EditarPaquete" style="stroke:#008000;stroke-width:1.0;"/><polygon fill="#008000" points="193.273,830.2958,197.273,821.2958,193.273,825.2958,189.273,821.2958,193.273,830.2958" style="stroke:#008000;stroke-width:1.0;"/><path d="M198.273,764.1358 L198.273,809.1358 L349.273,809.1358 L349.273,774.1358 L339.273,764.1358 L198.273,764.1358 " fill="#F5F5F5" style="stroke:#181818;stroke-width:0.5;"/><path d="M339.273,764.1358 L339.273,774.1358 L349.273,774.1358 L339.273,764.1358 " fill="#F5F5F5" style="stroke:#181818;stroke-width:0.5;"/><text fill="#000000" font-family="sans-serif" font-size="13" font-weight="bold" lengthAdjust="spacing" textLength="110" x="204.273" y="783.0328">Sistema Muestra</text><ellipse cx="209.773" cy="797.0479" fill="#000000" rx="2.5" ry="2.5" style="stroke:#000000;stroke-width:0.0;"/><text fill="#000000" font-family="sans-serif" font-size="13" lengthAdjust="spacing" textLength="118" x="216.273" y="800.7389">Cambios Realizados</text></g><!--MD5=[d5d43b3f3dfddbfb6ca65af0419a6a54]
link 4 to 2--><g id="link_4_2"><path d="M202.523,725.7658 C229.503,718.8358 306.273,699.1358 306.273,699.1358 C306.273,699.1358 306.273,357.1358 306.273,357.1358 C306.273,357.1358 242.753,339.7258 202.853,328.7958 " fill="none" id="4-to-2" style="stroke:#FF0000;stroke-width:1.0;"/><polygon fill="#FF0000" points="198.123,327.4958,205.7393,333.7401,202.9438,328.8223,207.8616,326.0268,198.123,327.4958" style="stroke:#FF0000;stroke-width:1.0;"/><path d="M311.273,523.1358 L311.273,568.1358 L599.273,568.1358 L599.273,533.1358 L589.273,523.1358 L311.273,523.1358 " fill="#F5F5F5" style="stroke:#181818;stroke-width:0.5;"/><path d="M589.273,523.1358 L589.273,533.1358 L599.273,533.1358 L589.273,523.1358 " fill="#F5F5F5" style="stroke:#181818;stroke-width:0.5;"/><text fill="#000000" font-family="sans-serif" font-size="13" font-weight="bold" lengthAdjust="spacing" textLength="110" x="317.273" y="542.0328">Sistema Muestra</text><ellipse cx="322.773" cy="556.0479" fill="#000000" rx="2.5" ry="2.5" style="stroke:#000000;stroke-width:0.0;"/><text fill="#000000" font-family="sans-serif" font-size="13" lengthAdjust="spacing" textLength="255" x="329.273" y="559.7389">Mensaje de error en los datos introducidos</text></g><!--MD5=[e4985d932f25f1c1f0e8b3c679308eb7]
link startState to EditarPaquete--><g id="link_startState_EditarPaquete"><path d="M307.64,87.3779 C307.64,109.5679 307.64,148.9879 307.64,195.4779 " fill="none" id="startState-to-EditarPaquete" style="stroke:#008000;stroke-width:1.0;"/><polygon fill="#008000" points="307.64,200.2679,311.64,191.2679,307.64,195.2679,303.64,191.2679,307.64,200.2679" style="stroke:#008000;stroke-width:1.0;"/><path d="M312.64,122.0679 L312.64,167.0679 L506.64,167.0679 L506.64,132.0679 L496.64,122.0679 L312.64,122.0679 " fill="#F5F5F5" style="stroke:#181818;stroke-width:0.5;"/><path d="M496.64,122.0679 L496.64,132.0679 L506.64,132.0679 L496.64,122.0679 " fill="#F5F5F5" style="stroke:#181818;stroke-width:0.5;"/><text fill="#000000" font-family="sans-serif" font-size="13" font-weight="bold" lengthAdjust="spacing" textLength="146" x="318.64" y="140.9649">Administrador Solicita</text><ellipse cx="324.14" cy="154.9799" fill="#000000" rx="2.5" ry="2.5" style="stroke:#000000;stroke-width:0.0;"/><text fill="#000000" font-family="sans-serif" font-size="13" lengthAdjust="spacing" textLength="161" x="330.64" y="158.6709">Editar Paquete de Servicios</text></g><!--MD5=[eb566cca0b76a839e6ea508888b04ec1]
@startuml
title Editar Paquete

skinparam {
    NoteBackgroundColor #whiteSmoke
    ArrowColor #green
    NoteBorderColor #green
    linetype polyline
}

hide empty description

state startState as "INITIAL"

startState - -> EditarPaquete
note on link
    <b>Administrador Solicita</b>
    * Editar Paquete de Servicios
end note

state EditarPaquete{
state 2 as " "
state 3 as " "
state 4 <<choice>>

[*] -down-> 2

2 -down-> 3
note on link
<b>Sistema Solicita</b>
* Nombre
* Servicios Incluidos
* Precio
* Descripcion
<b>Sistema Permite</b>
* Actualizar datos de Paquete de Servicios
end note

3 -down-> 4
note on link
<b>Amdinistrador Introduce</b>
* Nombre
* Servicios Incluidos
* Precio
* Descripcion
end note

4 -down-> [*]
note on link
<b>Sistema Muestra</b>
* Cambios Realizados
end note

4 -[#red]-> 2
note on link
<b>Sistema Muestra</b>
* Mensaje de error en los datos introducidos
end note

}
@enduml

PlantUML version 1.2022.7(Mon Aug 22 19:01:30 CEST 2022)
(GPL source distribution)
Java Runtime: OpenJDK Runtime Environment
JVM: OpenJDK 64-Bit Server VM
Default Encoding: UTF-8
Language: es
Country: ES
--></g></svg>