<?xml version="1.0" encoding="UTF-8" standalone="no"?><svg xmlns="http://www.w3.org/2000/svg" xmlns:xlink="http://www.w3.org/1999/xlink" contentStyleType="text/css" height="702px" preserveAspectRatio="none" style="width:1018px;height:702px;background:#FFFFFF;" version="1.1" viewBox="0 0 1018 702" width="1018px" zoomAndPan="magnify"><defs/><g><rect fill="none" height="29.0679" id="_title" style="stroke:none;stroke-width:1.0;" width="297" x="353.5576" y="5"/><text fill="#000000" font-family="sans-serif" font-size="14" font-weight="bold" lengthAdjust="spacing" textLength="287" x="358.5576" y="24.9659">Estructura de los Casos de Uso(Egresado)</text><!--MD5=[886f27c4ce1bf6d1eb714be2c81d3749]
entity Egresado--><g id="elem_Egresado"><ellipse cx="37.5" cy="340.3579" fill="#F1F1F1" rx="8" ry="8" style="stroke:#181818;stroke-width:0.5;"/><path d="M37.5,348.3579 L37.5,375.3579 M24.5,356.3579 L50.5,356.3579 M37.5,375.3579 L24.5,390.3579 M37.5,375.3579 L50.5,390.3579 " fill="none" style="stroke:#181818;stroke-width:0.5;"/><text fill="#000000" font-family="sans-serif" font-size="14" lengthAdjust="spacing" textLength="63" x="6" y="406.8239">Egresado</text></g><g id="elem_Registro en Plataforma"><ellipse cx="295.1573" cy="68.3914" fill="#F1F1F1" rx="99.6173" ry="22.3235" style="stroke:#181818;stroke-width:0.5;"/><text fill="#000000" font-family="sans-serif" font-size="14" lengthAdjust="spacing" textLength="154" x="215.1573" y="73.1243">Registro en Plataforma</text></g><g id="elem_Cancelación de Cuenta"><ellipse cx="295.1573" cy="148.3914" fill="#F1F1F1" rx="99.6173" ry="22.3235" style="stroke:#181818;stroke-width:0.5;"/><text fill="#000000" font-family="sans-serif" font-size="14" lengthAdjust="spacing" textLength="154" x="215.1573" y="153.1243">Cancelación de Cuenta</text></g><g id="elem_Actualización de Datos de la Cuenta"><ellipse cx="295.1638" cy="235.3847" fill="#F1F1F1" rx="138.1838" ry="30.0368" style="stroke:#181818;stroke-width:0.5;"/><text fill="#000000" font-family="sans-serif" font-size="14" lengthAdjust="spacing" textLength="241" x="174.6638" y="238.8167">Actualización de Datos de la Cuenta</text></g><g id="elem_Listar Datos de la Cuenta"><ellipse cx="295.1586" cy="324.3856" fill="#F1F1F1" rx="105.4886" ry="23.4977" style="stroke:#181818;stroke-width:0.5;"/><text fill="#000000" font-family="sans-serif" font-size="14" lengthAdjust="spacing" textLength="168" x="208.1586" y="329.1186">Listar Datos de la Cuenta</text></g><g id="elem_Suscripción a Servicio / Paquete de Servicios"><ellipse cx="295.1648" cy="418.3909" fill="#F1F1F1" rx="165.1648" ry="35.433" style="stroke:#181818;stroke-width:0.5;"/><text fill="#000000" font-family="sans-serif" font-size="14" lengthAdjust="spacing" textLength="298" x="146.1648" y="421.8228">Suscripción a Servicio / Paquete de Servicios</text></g><g id="elem_Cancelación de Suscripción a Servicio / Paquete de Servicios"><ellipse cx="795.7226" cy="477.3864" fill="#F1F1F1" rx="216.3926" ry="45.6785" style="stroke:#181818;stroke-width:0.5;"/><text fill="#000000" font-family="sans-serif" font-size="14" lengthAdjust="spacing" textLength="404" x="593.7226" y="480.8184">Cancelación de Suscripción a Servicio / Paquete de Servicios</text></g><g id="elem_Listar Servicios / Paquetes de Servicios"><ellipse cx="295.1607" cy="591.3861" fill="#F1F1F1" rx="146.6407" ry="31.7281" style="stroke:#181818;stroke-width:0.5;"/><text fill="#000000" font-family="sans-serif" font-size="14" lengthAdjust="spacing" textLength="259" x="165.6607" y="594.818">Listar Servicios / Paquetes de Servicios</text></g><g id="elem_Realizar Petición"><ellipse cx="295.1618" cy="677.3843" fill="#F1F1F1" rx="82.7318" ry="18.9464" style="stroke:#181818;stroke-width:0.5;"/><text fill="#000000" font-family="sans-serif" font-size="14" lengthAdjust="spacing" textLength="111" x="236.6618" y="682.1172">Realizar Petición</text></g><!--MD5=[8426604bda2913588765e14bdbd0d807]
link Egresado to Registro en Plataforma--><g id="link_Egresado_Registro en Plataforma"><path d="M52.4,331.4479 C77.99,257.8779 130,108.3879 130,108.3879 C130,108.3879 176.73,97.0079 220.32,86.3879 " fill="none" id="Egresado-to-Registro en Plataforma" style="stroke:#181818;stroke-width:1.0;"/><polygon fill="#181818" points="224.97,85.2479,215.2781,83.4964,220.1126,86.4337,217.1754,91.2682,224.97,85.2479" style="stroke:#181818;stroke-width:1.0;"/></g><!--MD5=[6fc14c47e73df4c791fb6589e5e9d7a3]
link Egresado to Cancelación de Cuenta--><g id="link_Egresado_Cancelación de Cuenta"><path d="M58.35,331.4679 C85.27,277.3479 130,187.3879 130,187.3879 C130,187.3879 176.07,176.4479 219.4,166.1479 " fill="none" id="Egresado-to-Cancelación de Cuenta" style="stroke:#181818;stroke-width:1.0;"/><polygon fill="#181818" points="224.02,165.0579,214.3392,163.2462,219.1554,166.2134,216.1881,171.0296,224.02,165.0579" style="stroke:#181818;stroke-width:1.0;"/></g><!--MD5=[9a798759383098f40366426e4cc25681]
link Egresado to Actualización de Datos de la Cuenta--><g id="link_Egresado_Actualización de Datos de la Cuenta"><path d="M69.48,341.5979 C96.02,316.0679 130,283.3879 130,283.3879 C130,283.3879 166.4,272.7479 204.93,261.4879 " fill="none" id="Egresado-to-Actualización de Datos de la Cuenta" style="stroke:#181818;stroke-width:1.0;"/><polygon fill="#181818" points="209.67,260.0979,199.91,258.7779,204.87,261.4979,202.15,266.4579,209.67,260.0979" style="stroke:#181818;stroke-width:1.0;"/></g><!--MD5=[024f5e8e82769c9d95f6c9fbe08d941c]
link Egresado to Listar Datos de la Cuenta--><g id="link_Egresado_Listar Datos de la Cuenta"><path d="M69.34,365.7179 C103.09,359.5179 158.71,349.2979 206.18,340.5679 " fill="none" id="Egresado-to-Listar Datos de la Cuenta" style="stroke:#181818;stroke-width:1.0;"/><polygon fill="#181818" points="211.04,339.6779,201.4602,337.3916,206.1243,340.5925,202.9235,345.2566,211.04,339.6779" style="stroke:#181818;stroke-width:1.0;"/></g><!--MD5=[7d6c2f27233e1a683505a9751f2431e0]
link Egresado to Suscripción a Servicio / Paquete de Servicios--><g id="link_Egresado_Suscripción a Servicio / Paquete de Servicios"><path d="M69.34,377.0579 C93.07,381.4279 127.61,387.7779 162.54,394.1979 " fill="none" id="Egresado-to-Suscripción a Servicio / Paquete de Servicios" style="stroke:#181818;stroke-width:1.0;"/><polygon fill="#181818" points="167.11,395.0379,158.9778,389.4821,162.1918,394.1372,157.5367,397.3512,167.11,395.0379" style="stroke:#181818;stroke-width:1.0;"/></g><!--MD5=[173058fa2fc76ff4827fceec93daab69]
link Egresado to Cancelación de Suscripción a Servicio / Paquete de Servicios--><g id="link_Egresado_Cancelación de Suscripción a Servicio / Paquete de Servicios"><path d="M69.48,405.2479 C96.02,434.2579 130,471.3879 130,471.3879 C130,471.3879 379.76,473.6479 573.09,475.3879 " fill="none" id="Egresado-to-Cancelación de Suscripción a Servicio / Paquete de Servicios" style="stroke:#181818;stroke-width:1.0;"/><polygon fill="#181818" points="577.85,475.4379,568.8846,471.3609,572.8502,475.3951,568.816,479.3606,577.85,475.4379" style="stroke:#181818;stroke-width:1.0;"/></g><!--MD5=[58e4cf5416d9a429023adf5eec354dd0]
link Egresado to Listar Servicios / Paquetes de Servicios--><g id="link_Egresado_Listar Servicios / Paquetes de Servicios"><path d="M53.46,411.1879 C71.37,458.8679 99,532.3879 99,532.3879 C99,532.3879 151.56,548.2779 202.13,563.5679 " fill="none" id="Egresado-to-Listar Servicios / Paquetes de Servicios" style="stroke:#181818;stroke-width:1.0;"/><polygon fill="#181818" points="206.83,564.9879,199.3677,558.5603,202.0428,563.5446,197.0585,566.2197,206.83,564.9879" style="stroke:#181818;stroke-width:1.0;"/></g><!--MD5=[ba6585a4adf4e0976f9f073972a0f16a]
link Egresado to Realizar Petición--><g id="link_Egresado_Realizar Petición"><path d="M52.1,411.3779 C77.59,486.3079 130,640.3879 130,640.3879 C130,640.3879 183.01,652.3379 228.78,662.6579 " fill="none" id="Egresado-to-Realizar Petición" style="stroke:#181818;stroke-width:1.0;"/><polygon fill="#181818" points="233.42,663.6979,225.5221,657.8138,228.5428,662.5966,223.76,665.6173,233.42,663.6979" style="stroke:#181818;stroke-width:1.0;"/></g><!--MD5=[8371732b0577795bfb2e8cfb607e8119]
link Cancelación de Cuenta to Cancelación de Suscripción a Servicio / Paquete de Servicios--><g id="link_Cancelación de Cuenta_Cancelación de Suscripción a Servicio / Paquete de Servicios"><path d="M364.83,164.7079 C409.82,175.3879 460.33,187.3879 460.33,187.3879 C460.33,187.3879 643.18,345.9679 738.46,428.5979 " fill="none" id="Cancelación de Cuenta-to-Cancelación de Suscripción a Servicio / Paquete de Servicios" style="stroke:#181818;stroke-width:1.0;"/><polygon fill="#181818" points="742.06,431.7279,737.8824,422.809,738.283,428.4516,732.6403,428.8522,742.06,431.7279" style="stroke:#181818;stroke-width:1.0;"/><text fill="#000000" font-family="sans-serif" font-size="13" lengthAdjust="spacing" textLength="57" x="491.33" y="214.2849">«include»</text></g><!--MD5=[84e0fbf43df59c67701469943cd10931]
@startuml Estructura

title Estructura de los Casos de Uso(Egresado)

skinparam {
    NoteBackgroundColor #whiteSmoke
    NoteBorderColor #green
    linetype polyline
}

left to right direction

actor Egresado

Egresado - -> (Registro en Plataforma)
Egresado - -> (Cancelación de Cuenta)
Egresado - -> (Actualización de Datos de la Cuenta)
Egresado - -> (Listar Datos de la Cuenta)
Egresado - -> (Suscripción a Servicio / Paquete de Servicios)
Egresado - -> (Cancelación de Suscripción a Servicio / Paquete de Servicios)
Egresado - -> (Listar Servicios / Paquetes de Servicios)
Egresado - -> (Realizar Petición)

(Cancelación de Cuenta) - -> (Cancelación de Suscripción a Servicio / Paquete de Servicios) : <<include>>

@enduml

PlantUML version 1.2022.7(Mon Aug 22 19:01:30 CEST 2022)
(GPL source distribution)
Java Runtime: OpenJDK Runtime Environment
JVM: OpenJDK 64-Bit Server VM
Default Encoding: UTF-8
Language: es
Country: ES
--></g></svg>