<?xml version="1.0" encoding="UTF-8" standalone="no"?><svg xmlns="http://www.w3.org/2000/svg" xmlns:xlink="http://www.w3.org/1999/xlink" contentStyleType="text/css" height="727px" preserveAspectRatio="none" style="width:547px;height:727px;background:#FFFFFF;" version="1.1" viewBox="0 0 547 727" width="547px" zoomAndPan="magnify"><defs/><g><rect fill="none" height="29.0679" id="_title" style="stroke:none;stroke-width:1.0;" width="172" x="177.5" y="5"/><text fill="#000000" font-family="sans-serif" font-size="14" font-weight="bold" lengthAdjust="spacing" textLength="162" x="182.5" y="24.9659">Eliminar Administrador</text><rect fill="#F1F1F1" height="40" rx="12.5" ry="12.5" style="stroke:#181818;stroke-width:0.5;" width="60" x="240.5" y="47.0679"/><text fill="#000000" font-family="sans-serif" font-size="14" lengthAdjust="spacing" textLength="50" x="245.5" y="72.4999">INITIAL</text><path d="M19.5,202.0679 L521.5,202.0679 A12.5,12.5 0 0 1 534,214.5679 L534,231.1358 L7,231.1358 L7,214.5679 A12.5,12.5 0 0 1 19.5,202.0679 " fill="#F1F1F1" style="stroke:#F1F1F1;stroke-width:1.0;"/><rect fill="none" height="519.0679" rx="12.5" ry="12.5" style="stroke:#181818;stroke-width:0.5;" width="527" x="7" y="202.0679"/><line style="stroke:#181818;stroke-width:0.5;" x1="7" x2="534" y1="231.1358" y2="231.1358"/><text fill="#000000" font-family="sans-serif" font-size="14" lengthAdjust="spacing" textLength="153" x="194" y="222.0339">EliminarAdministrador</text><rect fill="#F1F1F1" height="40" rx="12.5" ry="12.5" style="stroke:#181818;stroke-width:0.5;" width="50" x="120" y="299.1358"/><text fill="#000000" font-family="sans-serif" font-size="14" lengthAdjust="spacing" textLength="4" x="143" y="324.5678"> </text><rect fill="#F1F1F1" height="40" rx="12.5" ry="12.5" style="stroke:#181818;stroke-width:0.5;" width="50" x="19" y="437.6358"/><text fill="#000000" font-family="sans-serif" font-size="14" lengthAdjust="spacing" textLength="4" x="42" y="463.0678"> </text><g id="elem_4"><polygon fill="#F1F1F1" points="142,576.1358,154,588.1358,142,600.1358,130,588.1358,142,576.1358" style="stroke:#181818;stroke-width:0.5;"/></g><ellipse cx="145" cy="252.1358" fill="#222222" rx="10" ry="10" style="stroke:none;stroke-width:1.0;"/><ellipse cx="142" cy="701.1358" fill="none" rx="10" ry="10" style="stroke:#222222;stroke-width:1.0;"/><ellipse cx="142.5" cy="701.6358" fill="#222222" rx="6" ry="6" style="stroke:none;stroke-width:1.0;"/><!--MD5=[0483152ead3095bcd26c34edd6193d37]
link *start*EliminarAdministrador to 2--><g id="link_*start*EliminarAdministrador_2"><path d="M145,262.4458 C145,270.2358 145,281.7358 145,292.2658 " fill="none" id="*start*EliminarAdministrador-to-2" style="stroke:#008000;stroke-width:1.0;"/><polygon fill="#008000" points="145,297.1458,149,288.1458,145,292.1458,141,288.1458,145,297.1458" style="stroke:#008000;stroke-width:1.0;"/></g><!--MD5=[eeb69082328d10abd3b14fdeede0d8a3]
link 2 to 3--><g id="link_2_3"><path d="M119.86,330.2458 C92.62,341.2058 53,357.1358 53,357.1358 C53,357.1358 48.98,401.5658 46.31,431.0458 " fill="none" id="2-to-3" style="stroke:#008000;stroke-width:1.0;"/><polygon fill="#008000" points="45.87,435.9458,50.6751,427.3487,46.3265,430.9667,42.7085,426.6182,45.87,435.9458" style="stroke:#008000;stroke-width:1.0;"/><path d="M58,362.1358 L58,407.1358 L228,407.1358 L228,372.1358 L218,362.1358 L58,362.1358 " fill="#F5F5F5" style="stroke:#181818;stroke-width:0.5;"/><path d="M218,362.1358 L218,372.1358 L228,372.1358 L218,362.1358 " fill="#F5F5F5" style="stroke:#181818;stroke-width:0.5;"/><text fill="#000000" font-family="sans-serif" font-size="13" font-weight="bold" lengthAdjust="spacing" textLength="108" x="64" y="381.0328">Sistema Permite</text><ellipse cx="69.5" cy="395.0479" fill="#000000" rx="2.5" ry="2.5" style="stroke:#000000;stroke-width:0.0;"/><text fill="#000000" font-family="sans-serif" font-size="13" lengthAdjust="spacing" textLength="137" x="76" y="398.7389">Eliminar Administrador</text></g><!--MD5=[b1f22f0c97e7f2b556a5a2d67c42ac53]
link 3 to 4--><g id="link_3_4"><path d="M41.39,478.0258 C39.77,490.0158 38,503.1358 38,503.1358 C38,503.1358 38,558.1358 38,558.1358 C38,558.1358 98.49,575.0058 127.2,583.0058 " fill="none" id="3-to-4" style="stroke:#008000;stroke-width:1.0;"/><polygon fill="#008000" points="131.68,584.2558,124.0856,577.9848,126.8638,582.9125,121.9362,585.6907,131.68,584.2558" style="stroke:#008000;stroke-width:1.0;"/><path d="M43,508.1358 L43,553.1358 L228,553.1358 L228,518.1358 L218,508.1358 L43,508.1358 " fill="#F5F5F5" style="stroke:#181818;stroke-width:0.5;"/><path d="M218,508.1358 L218,518.1358 L228,518.1358 L218,508.1358 " fill="#F5F5F5" style="stroke:#181818;stroke-width:0.5;"/><text fill="#000000" font-family="sans-serif" font-size="13" font-weight="bold" lengthAdjust="spacing" textLength="164" x="49" y="527.0328">Administrador Introduce</text><ellipse cx="54.5" cy="541.0479" fill="#000000" rx="2.5" ry="2.5" style="stroke:#000000;stroke-width:0.0;"/><text fill="#000000" font-family="sans-serif" font-size="13" lengthAdjust="spacing" textLength="142" x="61" y="544.7389">Email del Administrador</text></g><!--MD5=[2b52753d8ab4002b1bbdccfd91a30dde]
link 4 to *end*EliminarAdministrador--><g id="link_4_*end*EliminarAdministrador"><path d="M142,600.5958 C142,620.5758 142,661.8058 142,684.4258 " fill="none" id="4-to-*end*EliminarAdministrador" style="stroke:#008000;stroke-width:1.0;"/><polygon fill="#008000" points="142,689.2958,146,680.2958,142,684.2958,138,680.2958,142,689.2958" style="stroke:#008000;stroke-width:1.0;"/><path d="M147,623.1358 L147,668.1358 L331,668.1358 L331,633.1358 L321,623.1358 L147,623.1358 " fill="#F5F5F5" style="stroke:#181818;stroke-width:0.5;"/><path d="M321,623.1358 L321,633.1358 L331,633.1358 L321,623.1358 " fill="#F5F5F5" style="stroke:#181818;stroke-width:0.5;"/><text fill="#000000" font-family="sans-serif" font-size="13" font-weight="bold" lengthAdjust="spacing" textLength="110" x="153" y="642.0328">Sistema Muestra</text><ellipse cx="158.5" cy="656.0479" fill="#000000" rx="2.5" ry="2.5" style="stroke:#000000;stroke-width:0.0;"/><text fill="#000000" font-family="sans-serif" font-size="13" lengthAdjust="spacing" textLength="151" x="165" y="659.7389">Mensaje de Confirmación</text></g><!--MD5=[d5d43b3f3dfddbfb6ca65af0419a6a54]
link 4 to 2--><g id="link_4_2"><path d="M150.73,584.3558 C173.5,577.0958 233,558.1358 233,558.1358 C233,558.1358 233,357.1358 233,357.1358 C233,357.1358 201.67,343.9658 176.4,333.3358 " fill="none" id="4-to-2" style="stroke:#FF0000;stroke-width:1.0;"/><polygon fill="#FF0000" points="171.85,331.4258,178.5925,338.6049,176.4582,333.3661,181.6969,331.2318,171.85,331.4258" style="stroke:#FF0000;stroke-width:1.0;"/><path d="M238,435.1358 L238,480.1358 L525,480.1358 L525,445.1358 L515,435.1358 L238,435.1358 " fill="#F5F5F5" style="stroke:#181818;stroke-width:0.5;"/><path d="M515,435.1358 L515,445.1358 L525,445.1358 L515,435.1358 " fill="#F5F5F5" style="stroke:#181818;stroke-width:0.5;"/><text fill="#000000" font-family="sans-serif" font-size="13" font-weight="bold" lengthAdjust="spacing" textLength="110" x="244" y="454.0328">Sistema Muestra</text><ellipse cx="249.5" cy="468.0479" fill="#000000" rx="2.5" ry="2.5" style="stroke:#000000;stroke-width:0.0;"/><text fill="#000000" font-family="sans-serif" font-size="13" lengthAdjust="spacing" textLength="254" x="256" y="471.7389">Mensaje de error al eliminar Administrador</text></g><!--MD5=[02eaa9ca8b054fb37c8d16f5a9b644e9]
link startState to EliminarAdministrador--><g id="link_startState_EliminarAdministrador"><path d="M270.5,87.5379 C270.5,110.0679 270.5,149.9679 270.5,195.5379 " fill="none" id="startState-to-EliminarAdministrador" style="stroke:#008000;stroke-width:1.0;"/><polygon fill="#008000" points="270.5,200.4879,274.5,191.4879,270.5,195.4879,266.5,191.4879,270.5,200.4879" style="stroke:#008000;stroke-width:1.0;"/><path d="M275.5,122.0679 L275.5,167.0679 L445.5,167.0679 L445.5,132.0679 L435.5,122.0679 L275.5,122.0679 " fill="#F5F5F5" style="stroke:#181818;stroke-width:0.5;"/><path d="M435.5,122.0679 L435.5,132.0679 L445.5,132.0679 L435.5,122.0679 " fill="#F5F5F5" style="stroke:#181818;stroke-width:0.5;"/><text fill="#000000" font-family="sans-serif" font-size="13" font-weight="bold" lengthAdjust="spacing" textLength="146" x="281.5" y="140.9649">Administrador Solicita</text><ellipse cx="287" cy="154.9799" fill="#000000" rx="2.5" ry="2.5" style="stroke:#000000;stroke-width:0.0;"/><text fill="#000000" font-family="sans-serif" font-size="13" lengthAdjust="spacing" textLength="137" x="293.5" y="158.6709">Eliminar Administrador</text></g><!--MD5=[fa301f79aa838907c0c14b883242b386]
@startuml

title Eliminar Administrador

skinparam {
    NoteBackgroundColor #whiteSmoke
    ArrowColor #green
    NoteBorderColor #green
    linetype polyline
}

hide empty description

state startState as "INITIAL"

startState - -> EliminarAdministrador
note on link
    <b>Administrador Solicita</b>
    * Eliminar Administrador
end note

state EliminarAdministrador {
state 2 as " "
state 3 as " "
state 4 <<choice>>

[*] -down-> 2

2 -down-> 3
note on link
<b>Sistema Permite</b>
* Eliminar Administrador
end note

3 -down-> 4
note on link
<b>Administrador Introduce</b>
* Email del Administrador
end note

4 -down-> [*]
note on link
<b>Sistema Muestra</b>
* Mensaje de Confirmación
end note

4 -[#red]-> 2
note on link
<b>Sistema Muestra</b>
* Mensaje de error al eliminar Administrador
end note

}

@enduml

PlantUML version 1.2022.7(Mon Aug 22 19:01:30 CEST 2022)
(GPL source distribution)
Java Runtime: OpenJDK Runtime Environment
JVM: OpenJDK 64-Bit Server VM
Default Encoding: UTF-8
Language: es
Country: ES
--></g></svg>