<?xml version="1.0" encoding="UTF-8" standalone="no"?><svg xmlns="http://www.w3.org/2000/svg" xmlns:xlink="http://www.w3.org/1999/xlink" contentStyleType="text/css" height="353px" preserveAspectRatio="none" style="width:675px;height:353px;background:#FFFFFF;" version="1.1" viewBox="0 0 675 353" width="675px" zoomAndPan="magnify"><defs/><g><ellipse cx="334.5" cy="16" fill="#222222" rx="10" ry="10" style="stroke:none;stroke-width:1.0;"/><path d="M19.5,102 L649,102 A12.5,12.5 0 0 1 661.5,114.5 L661.5,128.0986 L7,128.0986 L7,114.5 A12.5,12.5 0 0 1 19.5,102 " fill="#F1F1F1" style="stroke:#F1F1F1;stroke-width:1.0;"/><rect fill="none" height="245.0986" rx="12.5" ry="12.5" style="stroke:#181818;stroke-width:0.5;" width="654.5" x="7" y="102"/><line style="stroke:#181818;stroke-width:0.5;" x1="7" x2="661.5" y1="128.0986" y2="128.0986"/><text fill="#000000" font-family="Arial" font-size="14" lengthAdjust="spacing" textLength="139" x="264.75" y="120.3608">CancelaciónSolicitada</text><g id="elem_ComprobarRequisitos"><polygon fill="#F1F1F1" points="214.5,211.0986,226.5,223.0986,214.5,235.0986,202.5,223.0986,214.5,211.0986" style="stroke:#181818;stroke-width:0.5;"/></g><ellipse cx="214.5" cy="149.0986" fill="#222222" rx="10" ry="10" style="stroke:none;stroke-width:1.0;"/><g id="CancelaciónSolicitada.UsuarioEliminado"><rect fill="#F1F1F1" height="50" rx="12.5" ry="12.5" style="stroke:#181818;stroke-width:0.5;" width="129" x="19" y="287.0986"/><line style="stroke:#181818;stroke-width:0.5;" x1="19" x2="148" y1="313.1973" y2="313.1973"/><text fill="#000000" font-family="Arial" font-size="14" lengthAdjust="spacing" textLength="109" x="29" y="305.4595">UsuarioEliminado</text></g><g id="CancelaciónSolicitada.UsuarioBloqueado"><rect fill="#F1F1F1" height="50" rx="12.5" ry="12.5" style="stroke:#181818;stroke-width:0.5;" width="136" x="277.5" y="287.0986"/><line style="stroke:#181818;stroke-width:0.5;" x1="277.5" x2="413.5" y1="313.1973" y2="313.1973"/><text fill="#000000" font-family="Arial" font-size="14" lengthAdjust="spacing" textLength="116" x="287.5" y="305.4595">UsuarioBloqueado</text></g><!--MD5=[fad73688477dbf5dd22b12e70246e48d]
link *start*CancelaciónSolicitada to ComprobarRequisitos--><g id="link_*start*CancelaciónSolicitada_ComprobarRequisitos"><path d="M214.5,159.2186 C214.5,170.9486 214.5,191.5186 214.5,205.9286 " fill="none" id="*start*CancelaciónSolicitada-to-ComprobarRequisitos" style="stroke:#181818;stroke-width:1.0;"/><polygon fill="#181818" points="214.5,210.9286,218.5,201.9286,214.5,205.9286,210.5,201.9286,214.5,210.9286" style="stroke:#181818;stroke-width:1.0;"/><text fill="#000000" font-family="Arial" font-size="13" lengthAdjust="spacing" textLength="173" x="215.5" y="190.5051">Se valida la cuenta a cancelar</text></g><!--MD5=[88ab4af117d0c4489682f651b0cf69f7]
link ComprobarRequisitos to UsuarioEliminado--><g id="link_ComprobarRequisitos_UsuarioEliminado"><path d="M204.11,224.8086 C176.02,226.9686 99.7,234.4586 84.5,253.0986 C78.05,261.0086 76.55,271.7386 77.09,281.8286 " fill="none" id="ComprobarRequisitos-to-UsuarioEliminado" style="stroke:#181818;stroke-width:1.0;"/><polygon fill="#181818" points="77.54,287.0286,80.7257,277.7092,77.0964,282.0484,72.7572,278.419,77.54,287.0286" style="stroke:#181818;stroke-width:1.0;"/><text fill="#000000" font-family="Arial" font-size="13" lengthAdjust="spacing" textLength="237" x="85.5" y="266.5051">Los datos se han validado correctamente</text></g><!--MD5=[3485c724496af7579d34e08f1db70e64]
link ComprobarRequisitos to UsuarioBloqueado--><g id="link_ComprobarRequisitos_UsuarioBloqueado"><path d="M225.96,223.8986 C247.74,224.1586 295.44,227.7786 323.5,253.0986 C331.81,260.5986 337,271.5786 340.24,281.9686 " fill="none" id="ComprobarRequisitos-to-UsuarioBloqueado" style="stroke:#181818;stroke-width:1.0;"/><polygon fill="#181818" points="341.67,287.0086,343.0436,277.256,340.2964,282.201,335.3514,279.4538,341.67,287.0086" style="stroke:#181818;stroke-width:1.0;"/><text fill="#000000" font-family="Arial" font-size="13" lengthAdjust="spacing" textLength="316" x="335.5" y="266.5051">La cuenta a cancelar a incumplido los terminos de uso</text></g><!--MD5=[7c8b9d44b0e5f34536c5c2574bb750bb]
link *start to CancelaciónSolicitada--><g id="link_*start_CancelaciónSolicitada"><path d="M334.5,26.14 C334.5,39.72 334.5,66.85 334.5,96.75 " fill="none" id="*start-to-CancelaciónSolicitada" style="stroke:#181818;stroke-width:1.0;"/><polygon fill="#181818" points="334.5,101.97,338.5,92.97,334.5,96.97,330.5,92.97,334.5,101.97" style="stroke:#181818;stroke-width:1.0;"/><text fill="#000000" font-family="Arial" font-size="13" lengthAdjust="spacing" textLength="202" x="335.5" y="69.4065">Solicitud de cancelación de cuenta</text></g><!--MD5=[391728b9aeea1a57e38e5d966cc1ab60]
@startuml
skinparam defaultFontName Arial
top to bottom direction

[*] - -> CancelaciónSolicitada: Solicitud de cancelación de cuenta

state CancelaciónSolicitada{
  state ComprobarRequisitos <<choice>>
  [*] - -> ComprobarRequisitos : Se valida la cuenta a cancelar
  ComprobarRequisitos - -> UsuarioEliminado: Los datos se han validado correctamente
  ComprobarRequisitos - -> UsuarioBloqueado: La cuenta a cancelar a incumplido los terminos de uso
}
@enduml

PlantUML version 1.2022.7(Mon Aug 22 19:01:30 CEST 2022)
(GPL source distribution)
Java Runtime: Java(TM) SE Runtime Environment
JVM: Java HotSpot(TM) Client VM
Default Encoding: Cp1252
Language: es
Country: ES
--></g></svg>