<?xml version="1.0" encoding="UTF-8" standalone="no"?><svg xmlns="http://www.w3.org/2000/svg" xmlns:xlink="http://www.w3.org/1999/xlink" contentStyleType="text/css" height="971px" preserveAspectRatio="none" style="width:527px;height:971px;background:#FFFFFF;" version="1.1" viewBox="0 0 527 971" width="527px" zoomAndPan="magnify"><defs/><g><rect fill="none" height="27.6094" id="_title" style="stroke:none;stroke-width:1.0;" width="120" x="193.5" y="5"/><text fill="#000000" font-family="sans-serif" font-size="14" font-weight="bold" lengthAdjust="spacing" textLength="110" x="198.5" y="24.5332">Crear Egresado</text><rect fill="#F1F1F1" height="40" rx="12.5" ry="12.5" style="stroke:#181818;stroke-width:0.5;" width="166" x="177.5" y="45.6094"/><text fill="#000000" font-family="sans-serif" font-size="14" lengthAdjust="spacing" textLength="156" x="182.5" y="71.3379">GESTIÓN_EGRESADOS</text><path d="M19.5,197.6094 L501.5,197.6094 A12.5,12.5 0 0 1 514,210.1094 L514,225.2188 L7,225.2188 L7,210.1094 A12.5,12.5 0 0 1 19.5,197.6094 " fill="#F1F1F1" style="stroke:#F1F1F1;stroke-width:1.0;"/><rect fill="none" height="767.6094" rx="12.5" ry="12.5" style="stroke:#181818;stroke-width:0.5;" width="507" x="7" y="197.6094"/><line style="stroke:#181818;stroke-width:0.5;" x1="7" x2="514" y1="225.2188" y2="225.2188"/><text fill="#000000" font-family="sans-serif" font-size="14" lengthAdjust="spacing" textLength="97" x="212" y="217.1426">CrearEgresado</text><rect fill="#F1F1F1" height="40" rx="12.5" ry="12.5" style="stroke:#181818;stroke-width:0.5;" width="50" x="114" y="293.2188"/><text fill="#000000" font-family="sans-serif" font-size="14" lengthAdjust="spacing" textLength="4" x="137" y="318.9473"> </text><rect fill="#F1F1F1" height="40" rx="12.5" ry="12.5" style="stroke:#181818;stroke-width:0.5;" width="50" x="19" y="574.2188"/><text fill="#000000" font-family="sans-serif" font-size="14" lengthAdjust="spacing" textLength="4" x="42" y="599.9473"> </text><g id="elem_4"><polygon fill="#F1F1F1" points="134,823.2188,146,835.2188,134,847.2188,122,835.2188,134,823.2188" style="stroke:#181818;stroke-width:0.5;"/></g><ellipse cx="139" cy="246.2188" fill="#222222" rx="10" ry="10" style="stroke:none;stroke-width:1.0;"/><ellipse cx="134" cy="945.2188" fill="none" rx="10" ry="10" style="stroke:#222222;stroke-width:1.0;"/><ellipse cx="134.5" cy="945.7188" fill="#222222" rx="6" ry="6" style="stroke:none;stroke-width:1.0;"/><!--MD5=[8a79ef5b248d4cf2c1958753b4b8837b]
link *start*CrearEgresado to 2--><g id="link_*start*CrearEgresado_2"><path d="M139,256.2587 C139,264.4088 139,276.7787 139,287.8188 " fill="none" id="*start*CrearEgresado-to-2" style="stroke:#008000;stroke-width:1.0;"/><polygon fill="#008000" points="139,293.1088,143,284.1088,139,288.1088,135,284.1088,139,293.1088" style="stroke:#008000;stroke-width:1.0;"/></g><!--MD5=[eeb69082328d10abd3b14fdeede0d8a3]
link 2 to 3--><g id="link_2_3"><path d="M113.8,325.3188 C89.05,336.2188 55,351.2188 55,351.2188 C55,351.2188 47.93,506.8588 45.12,568.5088 " fill="none" id="2-to-3" style="stroke:#008000;stroke-width:1.0;"/><polygon fill="#008000" points="44.88,573.8288,49.2868,565.0208,45.1083,568.834,41.2952,564.6555,44.88,573.8288" style="stroke:#008000;stroke-width:1.0;"/><path d="M60,356.2188 L60,545.2188 L215,545.2188 L215,366.2188 L205,356.2188 L60,356.2188 " fill="#F5F5F5" style="stroke:#181818;stroke-width:0.5;"/><path d="M205,356.2188 L205,366.2188 L215,366.2188 L205,356.2188 " fill="#F5F5F5" style="stroke:#181818;stroke-width:0.5;"/><text fill="#000000" font-family="sans-serif" font-size="13" font-weight="bold" lengthAdjust="spacing" textLength="103" x="66" y="374.7139">Sistema Solicita</text><ellipse cx="71.5" cy="386.4219" fill="#000000" rx="2.5" ry="2.5" style="stroke:#000000;stroke-width:0.0;"/><text fill="#000000" font-family="sans-serif" font-size="13" lengthAdjust="spacing" textLength="45" x="79" y="391.0654">Nombre</text><ellipse cx="71.5" cy="402.7734" fill="#000000" rx="2.5" ry="2.5" style="stroke:#000000;stroke-width:0.0;"/><text fill="#000000" font-family="sans-serif" font-size="13" lengthAdjust="spacing" textLength="46" x="79" y="407.417">Apellido</text><ellipse cx="71.5" cy="419.125" fill="#000000" rx="2.5" ry="2.5" style="stroke:#000000;stroke-width:0.0;"/><text fill="#000000" font-family="sans-serif" font-size="13" lengthAdjust="spacing" textLength="121" x="79" y="423.7686">Fecha de nacimiento</text><ellipse cx="71.5" cy="435.4766" fill="#000000" rx="2.5" ry="2.5" style="stroke:#000000;stroke-width:0.0;"/><text fill="#000000" font-family="sans-serif" font-size="13" lengthAdjust="spacing" textLength="33" x="79" y="440.1201">Email</text><ellipse cx="71.5" cy="451.8281" fill="#000000" rx="2.5" ry="2.5" style="stroke:#000000;stroke-width:0.0;"/><text fill="#000000" font-family="sans-serif" font-size="13" lengthAdjust="spacing" textLength="48" x="79" y="456.4717">Teléfono</text><ellipse cx="71.5" cy="468.1797" fill="#000000" rx="2.5" ry="2.5" style="stroke:#000000;stroke-width:0.0;"/><text fill="#000000" font-family="sans-serif" font-size="13" lengthAdjust="spacing" textLength="66" x="79" y="472.8232">Contraseña</text><ellipse cx="71.5" cy="484.5313" fill="#000000" rx="2.5" ry="2.5" style="stroke:#000000;stroke-width:0.0;"/><text fill="#000000" font-family="sans-serif" font-size="13" lengthAdjust="spacing" textLength="54" x="79" y="489.1748">Dirección</text><ellipse cx="71.5" cy="500.8828" fill="#000000" rx="2.5" ry="2.5" style="stroke:#000000;stroke-width:0.0;"/><text fill="#000000" font-family="sans-serif" font-size="13" lengthAdjust="spacing" textLength="62" x="79" y="505.5264">Ocupación</text><text fill="#000000" font-family="sans-serif" font-size="13" font-weight="bold" lengthAdjust="spacing" textLength="105" x="66" y="521.8779">Sistema Permite</text><ellipse cx="71.5" cy="533.5859" fill="#000000" rx="2.5" ry="2.5" style="stroke:#000000;stroke-width:0.0;"/><text fill="#000000" font-family="sans-serif" font-size="13" lengthAdjust="spacing" textLength="90" x="79" y="538.2295">Crear Egresado</text></g><!--MD5=[b1f22f0c97e7f2b556a5a2d67c42ac53]
link 3 to 4--><g id="link_3_4"><path d="M40.42,614.4588 C38.29,625.9088 36,638.2188 36,638.2188 C36,638.2188 36,805.2188 36,805.2188 C36,805.2188 93.41,822.2088 120.35,830.1788 " fill="none" id="3-to-4" style="stroke:#008000;stroke-width:1.0;"/><polygon fill="#008000" points="125.3,831.6488,117.8149,825.2477,120.5077,830.2225,115.5329,832.9153,125.3,831.6488" style="stroke:#008000;stroke-width:1.0;"/><path d="M41,643.2188 L41,800.2188 L215,800.2188 L215,653.2188 L205,643.2188 L41,643.2188 " fill="#F5F5F5" style="stroke:#181818;stroke-width:0.5;"/><path d="M205,643.2188 L205,653.2188 L215,653.2188 L205,643.2188 " fill="#F5F5F5" style="stroke:#181818;stroke-width:0.5;"/><text fill="#000000" font-family="sans-serif" font-size="13" font-weight="bold" lengthAdjust="spacing" textLength="153" x="47" y="661.7139">Amdinistrador Introduce</text><ellipse cx="52.5" cy="673.4219" fill="#000000" rx="2.5" ry="2.5" style="stroke:#000000;stroke-width:0.0;"/><text fill="#000000" font-family="sans-serif" font-size="13" lengthAdjust="spacing" textLength="45" x="60" y="678.0654">Nombre</text><ellipse cx="52.5" cy="689.7734" fill="#000000" rx="2.5" ry="2.5" style="stroke:#000000;stroke-width:0.0;"/><text fill="#000000" font-family="sans-serif" font-size="13" lengthAdjust="spacing" textLength="46" x="60" y="694.417">Apellido</text><ellipse cx="52.5" cy="706.125" fill="#000000" rx="2.5" ry="2.5" style="stroke:#000000;stroke-width:0.0;"/><text fill="#000000" font-family="sans-serif" font-size="13" lengthAdjust="spacing" textLength="121" x="60" y="710.7686">Fecha de nacimiento</text><ellipse cx="52.5" cy="722.4766" fill="#000000" rx="2.5" ry="2.5" style="stroke:#000000;stroke-width:0.0;"/><text fill="#000000" font-family="sans-serif" font-size="13" lengthAdjust="spacing" textLength="33" x="60" y="727.1201">Email</text><ellipse cx="52.5" cy="738.8281" fill="#000000" rx="2.5" ry="2.5" style="stroke:#000000;stroke-width:0.0;"/><text fill="#000000" font-family="sans-serif" font-size="13" lengthAdjust="spacing" textLength="48" x="60" y="743.4717">Teléfono</text><ellipse cx="52.5" cy="755.1797" fill="#000000" rx="2.5" ry="2.5" style="stroke:#000000;stroke-width:0.0;"/><text fill="#000000" font-family="sans-serif" font-size="13" lengthAdjust="spacing" textLength="66" x="60" y="759.8232">Contraseña</text><ellipse cx="52.5" cy="771.5313" fill="#000000" rx="2.5" ry="2.5" style="stroke:#000000;stroke-width:0.0;"/><text fill="#000000" font-family="sans-serif" font-size="13" lengthAdjust="spacing" textLength="54" x="60" y="776.1748">Dirección</text><ellipse cx="52.5" cy="787.8828" fill="#000000" rx="2.5" ry="2.5" style="stroke:#000000;stroke-width:0.0;"/><text fill="#000000" font-family="sans-serif" font-size="13" lengthAdjust="spacing" textLength="62" x="60" y="792.5264">Ocupación</text></g><!--MD5=[d61e96a56c1cdb0afd2f31f36d9f8f61]
link 4 to *end*CrearEgresado--><g id="link_4_*end*CrearEgresado"><path d="M134,847.3688 C134,867.1488 134,908.3088 134,930.0588 " fill="none" id="4-to-*end*CrearEgresado" style="stroke:#008000;stroke-width:1.0;"/><polygon fill="#008000" points="134,935.1388,138,926.1388,134,930.1388,130,926.1388,134,935.1388" style="stroke:#008000;stroke-width:1.0;"/><path d="M139,870.2188 L139,912.2188 L273,912.2188 L273,880.2188 L263,870.2188 L139,870.2188 " fill="#F5F5F5" style="stroke:#181818;stroke-width:0.5;"/><path d="M263,870.2188 L263,880.2188 L273,880.2188 L263,870.2188 " fill="#F5F5F5" style="stroke:#181818;stroke-width:0.5;"/><text fill="#000000" font-family="sans-serif" font-size="13" font-weight="bold" lengthAdjust="spacing" textLength="105" x="145" y="888.7139">Sistema Muestra</text><ellipse cx="150.5" cy="900.4219" fill="#000000" rx="2.5" ry="2.5" style="stroke:#000000;stroke-width:0.0;"/><text fill="#000000" font-family="sans-serif" font-size="13" lengthAdjust="spacing" textLength="100" x="158" y="905.0654">Egresado Creado</text></g><!--MD5=[d5d43b3f3dfddbfb6ca65af0419a6a54]
link 4 to 2--><g id="link_4_2"><path d="M142.25,831.4388 C163.77,824.1788 220,805.2188 220,805.2188 C220,805.2188 220,351.2188 220,351.2188 C220,351.2188 192.08,338.4588 169.02,327.9288 " fill="none" id="4-to-2" style="stroke:#FF0000;stroke-width:1.0;"/><polygon fill="#FF0000" points="164.18,325.7188,170.7094,333.0922,168.7294,327.7932,174.0284,325.8132,164.18,325.7188" style="stroke:#FF0000;stroke-width:1.0;"/><path d="M225,573.2188 L225,615.2188 L505,615.2188 L505,583.2188 L495,573.2188 L225,573.2188 " fill="#F5F5F5" style="stroke:#181818;stroke-width:0.5;"/><path d="M495,573.2188 L495,583.2188 L505,583.2188 L495,573.2188 " fill="#F5F5F5" style="stroke:#181818;stroke-width:0.5;"/><text fill="#000000" font-family="sans-serif" font-size="13" font-weight="bold" lengthAdjust="spacing" textLength="105" x="231" y="591.7139">Sistema Muestra</text><ellipse cx="236.5" cy="603.4219" fill="#000000" rx="2.5" ry="2.5" style="stroke:#000000;stroke-width:0.0;"/><text fill="#000000" font-family="sans-serif" font-size="13" lengthAdjust="spacing" textLength="246" x="244" y="608.0654">Mensaje de error en los datos introducidos</text></g><!--MD5=[219620f2e484ccb8c10f615b2ee0022b]
link startState to CrearEgresado--><g id="link_startState_CrearEgresado"><path d="M260.5,85.8194 C260.5,107.5794 260.5,146.0994 260.5,192.3794 " fill="none" id="startState-to-CrearEgresado" style="stroke:#008000;stroke-width:1.0;"/><polygon fill="#008000" points="260.5,197.4694,264.5,188.4694,260.5,192.4694,256.5,188.4694,260.5,197.4694" style="stroke:#008000;stroke-width:1.0;"/><path d="M265.5,120.6094 L265.5,162.6094 L437.5,162.6094 L437.5,130.6094 L427.5,120.6094 L265.5,120.6094 " fill="#F5F5F5" style="stroke:#181818;stroke-width:0.5;"/><path d="M427.5,120.6094 L427.5,130.6094 L437.5,130.6094 L427.5,120.6094 " fill="#F5F5F5" style="stroke:#181818;stroke-width:0.5;"/><text fill="#000000" font-family="sans-serif" font-size="13" font-weight="bold" lengthAdjust="spacing" textLength="141" x="271.5" y="139.1045">Administrador Solicita</text><ellipse cx="277" cy="150.8125" fill="#000000" rx="2.5" ry="2.5" style="stroke:#000000;stroke-width:0.0;"/><text fill="#000000" font-family="sans-serif" font-size="13" lengthAdjust="spacing" textLength="138" x="284.5" y="155.4561">Crear Usuario Egresado</text></g><!--MD5=[650f48143417c7f164e2d92290e07aee]
@startuml
title Crear Egresado

skinparam {
    NoteBackgroundColor #whiteSmoke
    ArrowColor #green
    NoteBorderColor #green
    linetype polyline
}

hide empty description

state startState as "GESTIÓN_EGRESADOS"

startState - -> CrearEgresado
note on link
    <b>Administrador Solicita</b>
    * Crear Usuario Egresado
end note

state CrearEgresado {
state 2 as " "
state 3 as " "
state 4 <<choice>>

[*] -down-> 2

2 -down-> 3
note on link
<b>Sistema Solicita</b>
* Nombre
* Apellido
* Fecha de nacimiento
* Email
* Teléfono
* Contraseña
* Dirección
* Ocupación
<b>Sistema Permite</b>
* Crear Egresado
end note

3 -down-> 4
note on link
<b>Amdinistrador Introduce</b>
* Nombre
* Apellido
* Fecha de nacimiento
* Email
* Teléfono
* Contraseña
* Dirección
* Ocupación
end note

4 -down-> [*]
note on link
<b>Sistema Muestra</b>
* Egresado Creado
end note

4 -[#red]-> 2
note on link
<b>Sistema Muestra</b>
* Mensaje de error en los datos introducidos
end note

}
@enduml

PlantUML version 1.2022.7(Mon Aug 22 19:01:30 CEST 2022)
(GPL source distribution)
Java Runtime: Java(TM) SE Runtime Environment
JVM: Java HotSpot(TM) 64-Bit Server VM
Default Encoding: Cp1252
Language: es
Country: ES
--></g></svg>