<?xml version="1.0" encoding="UTF-8" standalone="no"?><svg xmlns="http://www.w3.org/2000/svg" xmlns:xlink="http://www.w3.org/1999/xlink" contentStyleType="text/css" height="1111px" preserveAspectRatio="none" style="width:541px;height:1111px;background:#FFFFFF;" version="1.1" viewBox="0 0 541 1111" width="541px" zoomAndPan="magnify"><defs/><g><rect fill="none" height="29.0679" id="_title" style="stroke:none;stroke-width:1.0;" width="115" x="203" y="5"/><text fill="#000000" font-family="sans-serif" font-size="14" font-weight="bold" lengthAdjust="spacing" textLength="105" x="208" y="24.9659">Crear Egresado</text><rect fill="#F1F1F1" height="40" rx="12.5" ry="12.5" style="stroke:#181818;stroke-width:0.5;" width="158" x="188.5" y="47.0679"/><text fill="#000000" font-family="sans-serif" font-size="14" lengthAdjust="spacing" textLength="148" x="193.5" y="72.4999">GESTIÓN_EGRESADOS</text><rect fill="#F1F1F1" height="40" rx="12.5" ry="12.5" style="stroke:#181818;stroke-width:0.5;" width="158" x="188.5" y="1065.1379"/><text fill="#000000" font-family="sans-serif" font-size="14" lengthAdjust="spacing" textLength="148" x="193.5" y="1090.5699">GESTIÓN_EGRESADOS</text><path d="M19.5,202.0679 L515.5,202.0679 A12.5,12.5 0 0 1 528,214.5679 L528,231.1358 L7,231.1358 L7,214.5679 A12.5,12.5 0 0 1 19.5,202.0679 " fill="#F1F1F1" style="stroke:#F1F1F1;stroke-width:1.0;"/><rect fill="none" height="802.0679" rx="12.5" ry="12.5" style="stroke:#181818;stroke-width:0.5;" width="521" x="7" y="202.0679"/><line style="stroke:#181818;stroke-width:0.5;" x1="7" x2="528" y1="231.1358" y2="231.1358"/><text fill="#000000" font-family="sans-serif" font-size="14" lengthAdjust="spacing" textLength="100" x="217.5" y="222.0339">CrearEgresado</text><rect fill="#F1F1F1" height="40" rx="12.5" ry="12.5" style="stroke:#181818;stroke-width:0.5;" width="50" x="117" y="299.1358"/><text fill="#000000" font-family="sans-serif" font-size="14" lengthAdjust="spacing" textLength="4" x="140" y="324.5678"> </text><rect fill="#F1F1F1" height="40" rx="12.5" ry="12.5" style="stroke:#181818;stroke-width:0.5;" width="50" x="19" y="596.6358"/><text fill="#000000" font-family="sans-serif" font-size="14" lengthAdjust="spacing" textLength="4" x="42" y="622.0678"> </text><g id="elem_4"><polygon fill="#F1F1F1" points="135,859.1358,147,871.1358,135,883.1358,123,871.1358,135,859.1358" style="stroke:#181818;stroke-width:0.5;"/></g><ellipse cx="142" cy="252.1358" fill="#222222" rx="10" ry="10" style="stroke:none;stroke-width:1.0;"/><ellipse cx="135" cy="984.1358" fill="none" rx="10" ry="10" style="stroke:#222222;stroke-width:1.0;"/><ellipse cx="135.5" cy="984.6358" fill="#222222" rx="6" ry="6" style="stroke:none;stroke-width:1.0;"/><!--MD5=[8a79ef5b248d4cf2c1958753b4b8837b]
link *start*CrearEgresado to 2--><g id="link_*start*CrearEgresado_2"><path d="M142,262.4458 C142,270.2358 142,281.7358 142,292.2658 " fill="none" id="*start*CrearEgresado-to-2" style="stroke:#008000;stroke-width:1.0;"/><polygon fill="#008000" points="142,297.1458,146,288.1458,142,292.1458,138,288.1458,142,297.1458" style="stroke:#008000;stroke-width:1.0;"/></g><!--MD5=[eeb69082328d10abd3b14fdeede0d8a3]
link 2 to 3--><g id="link_2_3"><path d="M116.5,331.6358 C92.43,342.5058 60,357.1358 60,357.1358 C60,357.1358 49.65,524.4058 45.6,589.8358 " fill="none" id="2-to-3" style="stroke:#008000;stroke-width:1.0;"/><polygon fill="#008000" points="45.3,594.6958,49.8583,585.9653,45.6146,589.7057,41.8741,585.462,45.3,594.6958" style="stroke:#008000;stroke-width:1.0;"/><path d="M65,362.1358 L65,566.1358 L221,566.1358 L221,372.1358 L211,362.1358 L65,362.1358 " fill="#F5F5F5" style="stroke:#181818;stroke-width:0.5;"/><path d="M211,362.1358 L211,372.1358 L221,372.1358 L211,362.1358 " fill="#F5F5F5" style="stroke:#181818;stroke-width:0.5;"/><text fill="#000000" font-family="sans-serif" font-size="13" font-weight="bold" lengthAdjust="spacing" textLength="103" x="71" y="381.0328">Sistema Solicita</text><ellipse cx="76.5" cy="395.0479" fill="#000000" rx="2.5" ry="2.5" style="stroke:#000000;stroke-width:0.0;"/><text fill="#000000" font-family="sans-serif" font-size="13" lengthAdjust="spacing" textLength="50" x="83" y="398.7389">Nombre</text><ellipse cx="76.5" cy="412.7539" fill="#000000" rx="2.5" ry="2.5" style="stroke:#000000;stroke-width:0.0;"/><text fill="#000000" font-family="sans-serif" font-size="13" lengthAdjust="spacing" textLength="48" x="83" y="416.4449">Apellido</text><ellipse cx="76.5" cy="430.4599" fill="#000000" rx="2.5" ry="2.5" style="stroke:#000000;stroke-width:0.0;"/><text fill="#000000" font-family="sans-serif" font-size="13" lengthAdjust="spacing" textLength="123" x="83" y="434.1509">Fecha de nacimiento</text><ellipse cx="76.5" cy="448.1659" fill="#000000" rx="2.5" ry="2.5" style="stroke:#000000;stroke-width:0.0;"/><text fill="#000000" font-family="sans-serif" font-size="13" lengthAdjust="spacing" textLength="32" x="83" y="451.8569">Email</text><ellipse cx="76.5" cy="465.8719" fill="#000000" rx="2.5" ry="2.5" style="stroke:#000000;stroke-width:0.0;"/><text fill="#000000" font-family="sans-serif" font-size="13" lengthAdjust="spacing" textLength="52" x="83" y="469.5629">Teléfono</text><ellipse cx="76.5" cy="483.5779" fill="#000000" rx="2.5" ry="2.5" style="stroke:#000000;stroke-width:0.0;"/><text fill="#000000" font-family="sans-serif" font-size="13" lengthAdjust="spacing" textLength="69" x="83" y="487.2689">Contraseña</text><ellipse cx="76.5" cy="501.284" fill="#000000" rx="2.5" ry="2.5" style="stroke:#000000;stroke-width:0.0;"/><text fill="#000000" font-family="sans-serif" font-size="13" lengthAdjust="spacing" textLength="55" x="83" y="504.975">Dirección</text><ellipse cx="76.5" cy="518.99" fill="#000000" rx="2.5" ry="2.5" style="stroke:#000000;stroke-width:0.0;"/><text fill="#000000" font-family="sans-serif" font-size="13" lengthAdjust="spacing" textLength="64" x="83" y="522.681">Ocupación</text><text fill="#000000" font-family="sans-serif" font-size="13" font-weight="bold" lengthAdjust="spacing" textLength="108" x="71" y="540.387">Sistema Permite</text><ellipse cx="76.5" cy="554.402" fill="#000000" rx="2.5" ry="2.5" style="stroke:#000000;stroke-width:0.0;"/><text fill="#000000" font-family="sans-serif" font-size="13" lengthAdjust="spacing" textLength="91" x="83" y="558.093">Crear Egresado</text></g><!--MD5=[b1f22f0c97e7f2b556a5a2d67c42ac53]
link 3 to 4--><g id="link_3_4"><path d="M38.34,637.0258 C34.83,649.0158 31,662.1358 31,662.1358 C31,662.1358 31,841.1358 31,841.1358 C31,841.1358 91.49,858.0058 120.2,866.0058 " fill="none" id="3-to-4" style="stroke:#008000;stroke-width:1.0;"/><polygon fill="#008000" points="124.68,867.2558,117.0856,860.9848,119.8638,865.9125,114.9362,868.6907,124.68,867.2558" style="stroke:#008000;stroke-width:1.0;"/><path d="M36,667.1358 L36,836.1358 L221,836.1358 L221,677.1358 L211,667.1358 L36,667.1358 " fill="#F5F5F5" style="stroke:#181818;stroke-width:0.5;"/><path d="M211,667.1358 L211,677.1358 L221,677.1358 L211,667.1358 " fill="#F5F5F5" style="stroke:#181818;stroke-width:0.5;"/><text fill="#000000" font-family="sans-serif" font-size="13" font-weight="bold" lengthAdjust="spacing" textLength="164" x="42" y="686.0328">Administrador Introduce</text><ellipse cx="47.5" cy="700.0479" fill="#000000" rx="2.5" ry="2.5" style="stroke:#000000;stroke-width:0.0;"/><text fill="#000000" font-family="sans-serif" font-size="13" lengthAdjust="spacing" textLength="50" x="54" y="703.7389">Nombre</text><ellipse cx="47.5" cy="717.7539" fill="#000000" rx="2.5" ry="2.5" style="stroke:#000000;stroke-width:0.0;"/><text fill="#000000" font-family="sans-serif" font-size="13" lengthAdjust="spacing" textLength="48" x="54" y="721.4449">Apellido</text><ellipse cx="47.5" cy="735.4599" fill="#000000" rx="2.5" ry="2.5" style="stroke:#000000;stroke-width:0.0;"/><text fill="#000000" font-family="sans-serif" font-size="13" lengthAdjust="spacing" textLength="123" x="54" y="739.1509">Fecha de nacimiento</text><ellipse cx="47.5" cy="753.1659" fill="#000000" rx="2.5" ry="2.5" style="stroke:#000000;stroke-width:0.0;"/><text fill="#000000" font-family="sans-serif" font-size="13" lengthAdjust="spacing" textLength="32" x="54" y="756.8569">Email</text><ellipse cx="47.5" cy="770.8719" fill="#000000" rx="2.5" ry="2.5" style="stroke:#000000;stroke-width:0.0;"/><text fill="#000000" font-family="sans-serif" font-size="13" lengthAdjust="spacing" textLength="52" x="54" y="774.5629">Teléfono</text><ellipse cx="47.5" cy="788.5779" fill="#000000" rx="2.5" ry="2.5" style="stroke:#000000;stroke-width:0.0;"/><text fill="#000000" font-family="sans-serif" font-size="13" lengthAdjust="spacing" textLength="69" x="54" y="792.2689">Contraseña</text><ellipse cx="47.5" cy="806.284" fill="#000000" rx="2.5" ry="2.5" style="stroke:#000000;stroke-width:0.0;"/><text fill="#000000" font-family="sans-serif" font-size="13" lengthAdjust="spacing" textLength="55" x="54" y="809.975">Dirección</text><ellipse cx="47.5" cy="823.99" fill="#000000" rx="2.5" ry="2.5" style="stroke:#000000;stroke-width:0.0;"/><text fill="#000000" font-family="sans-serif" font-size="13" lengthAdjust="spacing" textLength="64" x="54" y="827.681">Ocupación</text></g><!--MD5=[d61e96a56c1cdb0afd2f31f36d9f8f61]
link 4 to *end*CrearEgresado--><g id="link_4_*end*CrearEgresado"><path d="M135,883.5958 C135,903.5758 135,944.8058 135,967.4258 " fill="none" id="4-to-*end*CrearEgresado" style="stroke:#008000;stroke-width:1.0;"/><polygon fill="#008000" points="135,972.2958,139,963.2958,135,967.2958,131,963.2958,135,972.2958" style="stroke:#008000;stroke-width:1.0;"/><path d="M140,906.1358 L140,951.1358 L275,951.1358 L275,916.1358 L265,906.1358 L140,906.1358 " fill="#F5F5F5" style="stroke:#181818;stroke-width:0.5;"/><path d="M265,906.1358 L265,916.1358 L275,916.1358 L265,906.1358 " fill="#F5F5F5" style="stroke:#181818;stroke-width:0.5;"/><text fill="#000000" font-family="sans-serif" font-size="13" font-weight="bold" lengthAdjust="spacing" textLength="110" x="146" y="925.0328">Sistema Muestra</text><ellipse cx="151.5" cy="939.0479" fill="#000000" rx="2.5" ry="2.5" style="stroke:#000000;stroke-width:0.0;"/><text fill="#000000" font-family="sans-serif" font-size="13" lengthAdjust="spacing" textLength="102" x="158" y="942.7389">Egresado Creado</text></g><!--MD5=[d5d43b3f3dfddbfb6ca65af0419a6a54]
link 4 to 2--><g id="link_4_2"><path d="M143.73,867.3558 C166.5,860.0958 226,841.1358 226,841.1358 C226,841.1358 226,357.1358 226,357.1358 C226,357.1358 197.06,344.3858 173.15,333.8558 " fill="none" id="4-to-2" style="stroke:#FF0000;stroke-width:1.0;"/><polygon fill="#FF0000" points="168.59,331.8458,175.2131,339.1352,173.1655,333.8619,178.4388,331.8144,168.59,331.8458" style="stroke:#FF0000;stroke-width:1.0;"/><path d="M231,594.1358 L231,639.1358 L519,639.1358 L519,604.1358 L509,594.1358 L231,594.1358 " fill="#F5F5F5" style="stroke:#181818;stroke-width:0.5;"/><path d="M509,594.1358 L509,604.1358 L519,604.1358 L509,594.1358 " fill="#F5F5F5" style="stroke:#181818;stroke-width:0.5;"/><text fill="#000000" font-family="sans-serif" font-size="13" font-weight="bold" lengthAdjust="spacing" textLength="110" x="237" y="613.0328">Sistema Muestra</text><ellipse cx="242.5" cy="627.0479" fill="#000000" rx="2.5" ry="2.5" style="stroke:#000000;stroke-width:0.0;"/><text fill="#000000" font-family="sans-serif" font-size="13" lengthAdjust="spacing" textLength="255" x="249" y="630.7389">Mensaje de error en los datos introducidos</text></g><!--MD5=[219620f2e484ccb8c10f615b2ee0022b]
link startState to CrearEgresado--><g id="link_startState_CrearEgresado"><path d="M267.5,87.3879 C267.5,109.3579 267.5,148.3479 267.5,195.3779 " fill="none" id="startState-to-CrearEgresado" style="stroke:#008000;stroke-width:1.0;"/><polygon fill="#008000" points="267.5,200.2479,271.5,191.2479,267.5,195.2479,263.5,191.2479,267.5,200.2479" style="stroke:#008000;stroke-width:1.0;"/><path d="M272.5,122.0679 L272.5,167.0679 L446.5,167.0679 L446.5,132.0679 L436.5,122.0679 L272.5,122.0679 " fill="#F5F5F5" style="stroke:#181818;stroke-width:0.5;"/><path d="M436.5,122.0679 L436.5,132.0679 L446.5,132.0679 L436.5,122.0679 " fill="#F5F5F5" style="stroke:#181818;stroke-width:0.5;"/><text fill="#000000" font-family="sans-serif" font-size="13" font-weight="bold" lengthAdjust="spacing" textLength="146" x="278.5" y="140.9649">Administrador Solicita</text><ellipse cx="284" cy="154.9799" fill="#000000" rx="2.5" ry="2.5" style="stroke:#000000;stroke-width:0.0;"/><text fill="#000000" font-family="sans-serif" font-size="13" lengthAdjust="spacing" textLength="141" x="290.5" y="158.6709">Crear Usuario Egresado</text></g><!--MD5=[d5396607899bda5c2f32686d81afea87]
link CrearEgresado to endState--><g id="link_CrearEgresado_endState"><path d="M267.5,1004.5979 C267.5,1026.2879 267.5,1044.7579 267.5,1058.4179 " fill="none" id="CrearEgresado-to-endState" style="stroke:#008000;stroke-width:1.0;"/><polygon fill="#008000" points="267.5,1063.2179,271.5,1054.2179,267.5,1058.2179,263.5,1054.2179,267.5,1063.2179" style="stroke:#008000;stroke-width:1.0;"/></g><!--MD5=[f3f6d77448ecc725f09d737aed8f65e5]
@startuml
title Crear Egresado

skinparam {
    NoteBackgroundColor #whiteSmoke
    ArrowColor #green
    NoteBorderColor #green
    linetype polyline
}

hide empty description

state startState as "GESTIÓN_EGRESADOS"
state endState as "GESTIÓN_EGRESADOS"

startState - -> CrearEgresado
note on link
    <b>Administrador Solicita</b>
    * Crear Usuario Egresado
end note

CrearEgresado - -> endState

state CrearEgresado {
state 2 as " "
state 3 as " "
state 4 <<choice>>

[*] -down-> 2

2 -down-> 3
note on link
<b>Sistema Solicita</b>
* Nombre
* Apellido
* Fecha de nacimiento
* Email
* Teléfono
* Contraseña
* Dirección
* Ocupación
<b>Sistema Permite</b>
* Crear Egresado
end note

3 -down-> 4
note on link
<b>Administrador Introduce</b>
* Nombre
* Apellido
* Fecha de nacimiento
* Email
* Teléfono
* Contraseña
* Dirección
* Ocupación
end note

4 -down-> [*]
note on link
<b>Sistema Muestra</b>
* Egresado Creado
end note

4 -[#red]-> 2
note on link
<b>Sistema Muestra</b>
* Mensaje de error en los datos introducidos
end note

}
@enduml

PlantUML version 1.2022.7(Mon Aug 22 19:01:30 CEST 2022)
(GPL source distribution)
Java Runtime: OpenJDK Runtime Environment
JVM: OpenJDK 64-Bit Server VM
Default Encoding: UTF-8
Language: es
Country: ES
--></g></svg>