<?xml version="1.0" encoding="UTF-8" standalone="no"?><svg xmlns="http://www.w3.org/2000/svg" xmlns:xlink="http://www.w3.org/1999/xlink" contentStyleType="text/css" height="573px" preserveAspectRatio="none" style="width:577px;height:573px;background:#FFFFFF;" version="1.1" viewBox="0 0 577 573" width="577px" zoomAndPan="magnify"><defs/><g><rect fill="none" height="26.0986" id="_title" style="stroke:none;stroke-width:1.0;" width="288" x="134.5" y="5"/><text fill="#000000" font-family="Arial" font-size="14" font-weight="bold" lengthAdjust="spacing" textLength="278" x="139.5" y="23.1318">Listar Servicios / Paquetes de servicios</text><rect fill="#F1F1F1" height="40" rx="12.5" ry="12.5" style="stroke:#181818;stroke-width:0.5;" width="165" x="203" y="44.0986"/><text fill="#000000" font-family="Arial" font-size="14" lengthAdjust="spacing" textLength="155" x="208" y="69.1812">EXPLORAR_SERVICIOS</text><path d="M19.5,193.0986 L551.5,193.0986 A12.5,12.5 0 0 1 564,205.5986 L564,219.1973 L7,219.1973 L7,205.5986 A12.5,12.5 0 0 1 19.5,193.0986 " fill="#F1F1F1" style="stroke:#F1F1F1;stroke-width:1.0;"/><rect fill="none" height="374.0986" rx="12.5" ry="12.5" style="stroke:#181818;stroke-width:0.5;" width="557" x="7" y="193.0986"/><line style="stroke:#181818;stroke-width:0.5;" x1="7" x2="564" y1="219.1973" y2="219.1973"/><text fill="#000000" font-family="Arial" font-size="14" lengthAdjust="spacing" textLength="161" x="205" y="211.2305">ListarServiciosYPaquetes</text><rect fill="#F1F1F1" height="40" rx="12.5" ry="12.5" style="stroke:#181818;stroke-width:0.5;" width="50" x="103" y="287.1973"/><text fill="#000000" font-family="Arial" font-size="14" lengthAdjust="spacing" textLength="4" x="126" y="312.2798"> </text><ellipse cx="128" cy="240.1973" fill="#222222" rx="10" ry="10" style="stroke:none;stroke-width:1.0;"/><rect fill="#F1F1F1" height="40" rx="12.5" ry="12.5" style="stroke:#181818;stroke-width:0.5;" width="166" x="45" y="412.1973"/><text fill="#000000" font-family="Arial" font-size="14" lengthAdjust="spacing" textLength="156" x="50" y="437.2798">ListaServiciosYPaquetes</text><ellipse cx="128" cy="547.1973" fill="none" rx="10" ry="10" style="stroke:#222222;stroke-width:1.0;"/><ellipse cx="128.5" cy="547.6973" fill="#222222" rx="6" ry="6" style="stroke:none;stroke-width:1.0;"/><!--MD5=[aa72634e8b37f908867aadfc4d39a18b]
link *start*ListarServiciosYPaquetes to 1--><g id="link_*start*ListarServiciosYPaquetes_1"><path d="M128,250.2373 C128,258.3873 128,270.7573 128,281.7973 " fill="none" id="*start*ListarServiciosYPaquetes-to-1" style="stroke:#008000;stroke-width:1.0;"/><polygon fill="#008000" points="128,287.0873,132,278.0873,128,282.0873,124,278.0873,128,287.0873" style="stroke:#008000;stroke-width:1.0;"/></g><!--MD5=[8453806eb39a13a3e91584614bdb777f]
link 1 to ListaServiciosYPaquetes--><g id="link_1_ListaServiciosYPaquetes"><path d="M102.76,316.6873 C70.29,327.6073 18,345.1973 18,345.1973 C18,345.1973 18,394.1973 18,394.1973 C18,394.1973 41.24,402.0173 66.35,410.4573 " fill="none" id="1-to-ListaServiciosYPaquetes" style="stroke:#008000;stroke-width:1.0;"/><polygon fill="#008000" points="71.39,412.1573,64.1469,405.4836,66.6538,410.5547,61.5827,413.0616,71.39,412.1573" style="stroke:#008000;stroke-width:1.0;"/><path d="M23,350.1973 L23,389.1973 L213,389.1973 L213,360.1973 L203,350.1973 L23,350.1973 " fill="#F5F5F5" style="stroke:#181818;stroke-width:0.5;"/><path d="M203,350.1973 L203,360.1973 L213,360.1973 L203,350.1973 " fill="#F5F5F5" style="stroke:#181818;stroke-width:0.5;"/><text fill="#000000" font-family="Arial" font-size="13" font-weight="bold" lengthAdjust="spacing" textLength="169" x="29" y="367.3911">Sistema permite introducir</text><text fill="#000000" font-family="Arial" font-size="13" lengthAdjust="spacing" textLength="107" x="29" y="382.3398">Filtro de búsqueda</text></g><!--MD5=[238d63af5ef381959382cd04a743c83e]
link ListaServiciosYPaquetes to 1--><g id="link_ListaServiciosYPaquetes_1"><path d="M174.32,412.1573 C196.37,403.0873 218,394.1973 218,394.1973 C218,394.1973 218,345.1973 218,345.1973 C218,345.1973 184.06,331.2473 157.86,320.4773 " fill="none" id="ListaServiciosYPaquetes-to-1" style="stroke:#FF0000;stroke-width:1.0;"/><polygon fill="#FF0000" points="153.07,318.5073,159.8768,325.6253,157.6955,320.406,162.9148,318.2246,153.07,318.5073" style="stroke:#FF0000;stroke-width:1.0;"/><path d="M223,350.1973 L223,389.1973 L555,389.1973 L555,360.1973 L545,350.1973 L223,350.1973 " fill="#F5F5F5" style="stroke:#181818;stroke-width:0.5;"/><path d="M545,350.1973 L545,360.1973 L555,360.1973 L545,350.1973 " fill="#F5F5F5" style="stroke:#181818;stroke-width:0.5;"/><text fill="#000000" font-family="Arial" font-size="13" font-weight="bold" lengthAdjust="spacing" textLength="106" x="229" y="367.3911">Sistema muestra</text><text fill="#000000" font-family="Arial" font-size="13" lengthAdjust="spacing" textLength="311" x="229" y="382.3398">Mensaje de error en caso de que el filtro no sea válido</text></g><!--MD5=[2f745dc7cfc3d883d6da64878d2914c0]
link ListaServiciosYPaquetes to *end*ListarServiciosYPaquetes--><g id="link_ListaServiciosYPaquetes_*end*ListarServiciosYPaquetes"><path d="M128,452.3673 C128,474.8173 128,511.4873 128,531.6973 " fill="none" id="ListaServiciosYPaquetes-to-*end*ListarServiciosYPaquetes" style="stroke:#008000;stroke-width:1.0;"/><polygon fill="#008000" points="128,536.9373,132,527.9373,128,531.9373,124,527.9373,128,536.9373" style="stroke:#008000;stroke-width:1.0;"/><path d="M133,475.1973 L133,514.1973 L419,514.1973 L419,485.1973 L409,475.1973 L133,475.1973 " fill="#F5F5F5" style="stroke:#181818;stroke-width:0.5;"/><path d="M409,475.1973 L409,485.1973 L419,485.1973 L409,475.1973 " fill="#F5F5F5" style="stroke:#181818;stroke-width:0.5;"/><text fill="#000000" font-family="Arial" font-size="13" font-weight="bold" lengthAdjust="spacing" textLength="106" x="139" y="492.3911">Sistema muestra</text><text fill="#000000" font-family="Arial" font-size="13" lengthAdjust="spacing" textLength="265" x="139" y="507.3398">Listado de servicios y/o paquetes de servicios</text></g><!--MD5=[635da5187efa66a34e05b8312129368b]
link EXPLORAR_SERVICIOS to ListarServiciosYPaquetes--><g id="link_EXPLORAR_SERVICIOS_ListarServiciosYPaquetes"><path d="M285.5,84.2686 C285.5,106.3986 285.5,145.2486 285.5,187.6186 " fill="none" id="EXPLORAR_SERVICIOS-to-ListarServiciosYPaquetes" style="stroke:#008000;stroke-width:1.0;"/><polygon fill="#008000" points="285.5,192.7986,289.5,183.7986,285.5,187.7986,281.5,183.7986,285.5,192.7986" style="stroke:#008000;stroke-width:1.0;"/><path d="M290.5,119.0986 L290.5,158.0986 L548.5,158.0986 L548.5,129.0986 L538.5,119.0986 L290.5,119.0986 " fill="#F5F5F5" style="stroke:#181818;stroke-width:0.5;"/><path d="M538.5,119.0986 L538.5,129.0986 L548.5,129.0986 L538.5,119.0986 " fill="#F5F5F5" style="stroke:#181818;stroke-width:0.5;"/><text fill="#000000" font-family="Arial" font-size="13" font-weight="bold" lengthAdjust="spacing" textLength="97" x="296.5" y="136.2925">Usuario solicita</text><text fill="#000000" font-family="Arial" font-size="13" lengthAdjust="spacing" textLength="237" x="296.5" y="151.2412">Listar servicios y/o paquetes de servicios</text></g><!--MD5=[bc516cc55e7380f73e2ed4a93746a23c]
@startuml
skinparam defaultFontName Arial
skinparam NoteBackgroundColor #whiteSmoke
skinparam ArrowColor #green
skinparam Linetype polyline
top to bottom direction

hide empty description
title Listar Servicios / Paquetes de servicios

skinparam defaultFontName Arial
top to bottom direction

EXPLORAR_SERVICIOS -down-> ListarServiciosYPaquetes
note on link
<b>Usuario solicita</b>
Listar servicios y/o paquetes de servicios
end note

state ListarServiciosYPaquetes{
  state 1 as " "
  [*] - -> 1
  1 - -> ListaServiciosYPaquetes
  note on link
  <b>Sistema permite introducir</b>
  Filtro de búsqueda
  end note
  ListaServiciosYPaquetes -[#red]-> 1
  note on link
  <b>Sistema muestra</b>
  Mensaje de error en caso de que el filtro no sea válido
  end note
  ListaServiciosYPaquetes - -> [*]
  note on link
  <b>Sistema muestra</b>
  Listado de servicios y/o paquetes de servicios
  end note
}
@enduml

PlantUML version 1.2022.7(Mon Aug 22 19:01:30 CEST 2022)
(GPL source distribution)
Java Runtime: Java(TM) SE Runtime Environment
JVM: Java HotSpot(TM) 64-Bit Server VM
Default Encoding: Cp1252
Language: es
Country: ES
--></g></svg>