<?xml version="1.0" encoding="UTF-8" standalone="no"?><svg xmlns="http://www.w3.org/2000/svg" xmlns:xlink="http://www.w3.org/1999/xlink" contentStyleType="text/css" height="808px" preserveAspectRatio="none" style="width:538px;height:808px;background:#FFFFFF;" version="1.1" viewBox="0 0 538 808" width="538px" zoomAndPan="magnify"><defs/><g><rect fill="none" height="27.6094" id="_title" style="stroke:none;stroke-width:1.0;" width="166" x="176" y="5"/><text fill="#000000" font-family="sans-serif" font-size="14" font-weight="bold" lengthAdjust="spacing" textLength="156" x="181" y="24.5332">Consultar Estadisticas</text><rect fill="#F1F1F1" height="40" rx="12.5" ry="12.5" style="stroke:#181818;stroke-width:0.5;" width="54" x="239" y="45.6094"/><text fill="#000000" font-family="sans-serif" font-size="14" lengthAdjust="spacing" textLength="44" x="244" y="71.3379">INITIAL</text><path d="M19.5,197.6094 L512.5,197.6094 A12.5,12.5 0 0 1 525,210.1094 L525,225.2188 L7,225.2188 L7,210.1094 A12.5,12.5 0 0 1 19.5,197.6094 " fill="#F1F1F1" style="stroke:#F1F1F1;stroke-width:1.0;"/><rect fill="none" height="604.6094" rx="12.5" ry="12.5" style="stroke:#181818;stroke-width:0.5;" width="518" x="7" y="197.6094"/><line style="stroke:#181818;stroke-width:0.5;" x1="7" x2="525" y1="225.2188" y2="225.2188"/><text fill="#000000" font-family="sans-serif" font-size="14" lengthAdjust="spacing" textLength="144" x="194" y="217.1426">Consultar_Estadisticas</text><rect fill="#F1F1F1" height="40" rx="12.5" ry="12.5" style="stroke:#181818;stroke-width:0.5;" width="50" x="116" y="293.2188"/><text fill="#000000" font-family="sans-serif" font-size="14" lengthAdjust="spacing" textLength="4" x="139" y="318.9473"> </text><rect fill="#F1F1F1" height="40" rx="12.5" ry="12.5" style="stroke:#181818;stroke-width:0.5;" width="50" x="19" y="493.2188"/><text fill="#000000" font-family="sans-serif" font-size="14" lengthAdjust="spacing" textLength="4" x="42" y="518.9473"> </text><g id="elem_4"><polygon fill="#F1F1F1" points="138,660.2188,150,672.2188,138,684.2188,126,672.2188,138,660.2188" style="stroke:#181818;stroke-width:0.5;"/></g><ellipse cx="141" cy="246.2188" fill="#222222" rx="10" ry="10" style="stroke:none;stroke-width:1.0;"/><ellipse cx="138" cy="782.2188" fill="none" rx="10" ry="10" style="stroke:#222222;stroke-width:1.0;"/><ellipse cx="138.5" cy="782.7188" fill="#222222" rx="6" ry="6" style="stroke:none;stroke-width:1.0;"/><!--MD5=[d73044bea05e710b277a0051b4942221]
link *start*Consultar_Estadisticas to 2--><g id="link_*start*Consultar_Estadisticas_2"><path d="M141,256.2587 C141,264.4088 141,276.7787 141,287.8188 " fill="none" id="*start*Consultar_Estadisticas-to-2" style="stroke:#008000;stroke-width:1.0;"/><polygon fill="#008000" points="141,293.1088,145,284.1088,141,288.1088,137,284.1088,141,293.1088" style="stroke:#008000;stroke-width:1.0;"/></g><!--MD5=[eeb69082328d10abd3b14fdeede0d8a3]
link 2 to 3--><g id="link_2_3"><path d="M115.93,324.5288 C89.3,335.4688 51,351.2188 51,351.2188 C51,351.2188 47.02,442.8688 45.06,487.8688 " fill="none" id="2-to-3" style="stroke:#008000;stroke-width:1.0;"/><polygon fill="#008000" points="44.83,493.1188,49.2117,484.2983,45.0441,488.1233,41.219,483.9557,44.83,493.1188" style="stroke:#008000;stroke-width:1.0;"/><path d="M56,356.2188 L56,464.2188 L219,464.2188 L219,366.2188 L209,356.2188 L56,356.2188 " fill="#F5F5F5" style="stroke:#181818;stroke-width:0.5;"/><path d="M209,356.2188 L209,366.2188 L219,366.2188 L209,356.2188 " fill="#F5F5F5" style="stroke:#181818;stroke-width:0.5;"/><text fill="#000000" font-family="sans-serif" font-size="13" font-weight="bold" lengthAdjust="spacing" textLength="103" x="62" y="374.7139">Sistema Solicita</text><ellipse cx="67.5" cy="386.4219" fill="#000000" rx="2.5" ry="2.5" style="stroke:#000000;stroke-width:0.0;"/><text fill="#000000" font-family="sans-serif" font-size="13" lengthAdjust="spacing" textLength="113" x="75" y="391.0654">Servicio a consultar</text><ellipse cx="67.5" cy="402.7734" fill="#000000" rx="2.5" ry="2.5" style="stroke:#000000;stroke-width:0.0;"/><text fill="#000000" font-family="sans-serif" font-size="13" lengthAdjust="spacing" textLength="88" x="75" y="407.417">Fecha de inicio</text><ellipse cx="67.5" cy="419.125" fill="#000000" rx="2.5" ry="2.5" style="stroke:#000000;stroke-width:0.0;"/><text fill="#000000" font-family="sans-serif" font-size="13" lengthAdjust="spacing" textLength="71" x="75" y="423.7686">Fecha de fin</text><text fill="#000000" font-family="sans-serif" font-size="13" font-weight="bold" lengthAdjust="spacing" textLength="105" x="62" y="440.1201">Sistema Permite</text><ellipse cx="67.5" cy="451.8281" fill="#000000" rx="2.5" ry="2.5" style="stroke:#000000;stroke-width:0.0;"/><text fill="#000000" font-family="sans-serif" font-size="13" lengthAdjust="spacing" textLength="129" x="75" y="456.4717">Consultar estadisticas</text></g><!--MD5=[b1f22f0c97e7f2b556a5a2d67c42ac53]
link 3 to 4--><g id="link_3_4"><path d="M42.21,533.4588 C41.15,544.9088 40,557.2188 40,557.2188 C40,557.2188 40,642.2188 40,642.2188 C40,642.2188 97.41,659.2088 124.35,667.1788 " fill="none" id="3-to-4" style="stroke:#008000;stroke-width:1.0;"/><polygon fill="#008000" points="129.3,668.6488,121.8149,662.2477,124.5077,667.2225,119.5329,669.9153,129.3,668.6488" style="stroke:#008000;stroke-width:1.0;"/><path d="M45,562.2188 L45,637.2188 L219,637.2188 L219,572.2188 L209,562.2188 L45,562.2188 " fill="#F5F5F5" style="stroke:#181818;stroke-width:0.5;"/><path d="M209,562.2188 L209,572.2188 L219,572.2188 L209,562.2188 " fill="#F5F5F5" style="stroke:#181818;stroke-width:0.5;"/><text fill="#000000" font-family="sans-serif" font-size="13" font-weight="bold" lengthAdjust="spacing" textLength="153" x="51" y="580.7139">Administrador introduce</text><ellipse cx="56.5" cy="592.4219" fill="#000000" rx="2.5" ry="2.5" style="stroke:#000000;stroke-width:0.0;"/><text fill="#000000" font-family="sans-serif" font-size="13" lengthAdjust="spacing" textLength="113" x="64" y="597.0654">Servicio a consultar</text><ellipse cx="56.5" cy="608.7734" fill="#000000" rx="2.5" ry="2.5" style="stroke:#000000;stroke-width:0.0;"/><text fill="#000000" font-family="sans-serif" font-size="13" lengthAdjust="spacing" textLength="88" x="64" y="613.417">Fecha de inicio</text><ellipse cx="56.5" cy="625.125" fill="#000000" rx="2.5" ry="2.5" style="stroke:#000000;stroke-width:0.0;"/><text fill="#000000" font-family="sans-serif" font-size="13" lengthAdjust="spacing" textLength="71" x="64" y="629.7686">Fecha de fin</text></g><!--MD5=[d50bd8febe03a9896f01ac290d994ead]
link 4 to *end*Consultar_Estadisticas--><g id="link_4_*end*Consultar_Estadisticas"><path d="M138,684.3688 C138,704.1488 138,745.3088 138,767.0588 " fill="none" id="4-to-*end*Consultar_Estadisticas" style="stroke:#008000;stroke-width:1.0;"/><polygon fill="#008000" points="138,772.1388,142,763.1388,138,767.1388,134,763.1388,138,772.1388" style="stroke:#008000;stroke-width:1.0;"/><path d="M143,707.2188 L143,749.2188 L317,749.2188 L317,717.2188 L307,707.2188 L143,707.2188 " fill="#F5F5F5" style="stroke:#181818;stroke-width:0.5;"/><path d="M307,707.2188 L307,717.2188 L317,717.2188 L307,707.2188 " fill="#F5F5F5" style="stroke:#181818;stroke-width:0.5;"/><text fill="#000000" font-family="sans-serif" font-size="13" font-weight="bold" lengthAdjust="spacing" textLength="105" x="149" y="725.7139">Sistema Muestra</text><ellipse cx="154.5" cy="737.4219" fill="#000000" rx="2.5" ry="2.5" style="stroke:#000000;stroke-width:0.0;"/><text fill="#000000" font-family="sans-serif" font-size="13" lengthAdjust="spacing" textLength="140" x="162" y="742.0654">Estadisticas del servicio</text></g><!--MD5=[d5d43b3f3dfddbfb6ca65af0419a6a54]
link 4 to 2--><g id="link_4_2"><path d="M146.25,668.4388 C167.77,661.1788 224,642.2188 224,642.2188 C224,642.2188 224,351.2188 224,351.2188 C224,351.2188 194.79,338.1988 171.02,327.5988 " fill="none" id="4-to-2" style="stroke:#FF0000;stroke-width:1.0;"/><polygon fill="#FF0000" points="166.35,325.5188,172.954,332.8254,170.9202,327.5468,176.1989,325.513,166.35,325.5188" style="stroke:#FF0000;stroke-width:1.0;"/><path d="M229,492.2188 L229,534.2188 L516,534.2188 L516,502.2188 L506,492.2188 L229,492.2188 " fill="#F5F5F5" style="stroke:#181818;stroke-width:0.5;"/><path d="M506,492.2188 L506,502.2188 L516,502.2188 L506,492.2188 " fill="#F5F5F5" style="stroke:#181818;stroke-width:0.5;"/><text fill="#000000" font-family="sans-serif" font-size="13" font-weight="bold" lengthAdjust="spacing" textLength="105" x="235" y="510.7139">Sistema Muestra</text><ellipse cx="240.5" cy="522.4219" fill="#000000" rx="2.5" ry="2.5" style="stroke:#000000;stroke-width:0.0;"/><text fill="#000000" font-family="sans-serif" font-size="13" lengthAdjust="spacing" textLength="253" x="248" y="527.0654">Mensaje de error al generar las estadisticas</text></g><!--MD5=[09b63eba0d2d6746faea31f49dbf88b4]
link startState to Consultar_Estadisticas--><g id="link_startState_Consultar_Estadisticas"><path d="M266,85.7494 C266,107.7994 266,146.8994 266,192.5394 " fill="none" id="startState-to-Consultar_Estadisticas" style="stroke:#008000;stroke-width:1.0;"/><polygon fill="#008000" points="266,197.5594,270,188.5594,266,192.5594,262,188.5594,266,197.5594" style="stroke:#008000;stroke-width:1.0;"/><path d="M271,120.6094 L271,162.6094 L436,162.6094 L436,130.6094 L426,120.6094 L271,120.6094 " fill="#F5F5F5" style="stroke:#181818;stroke-width:0.5;"/><path d="M426,120.6094 L426,130.6094 L436,130.6094 L426,120.6094 " fill="#F5F5F5" style="stroke:#181818;stroke-width:0.5;"/><text fill="#000000" font-family="sans-serif" font-size="13" font-weight="bold" lengthAdjust="spacing" textLength="141" x="277" y="139.1045">Administrador Solicita</text><ellipse cx="282.5" cy="150.8125" fill="#000000" rx="2.5" ry="2.5" style="stroke:#000000;stroke-width:0.0;"/><text fill="#000000" font-family="sans-serif" font-size="13" lengthAdjust="spacing" textLength="131" x="290" y="155.4561">Consultar Estadisticas</text></g><!--MD5=[d18e88cf2fd92d308865ba46c3582857]
@startuml
title Consultar Estadisticas

skinparam {
    NoteBackgroundColor #whiteSmoke
    ArrowColor #green
    NoteBorderColor #green
    linetype polyline
}

hide empty description

state startState as "INITIAL"

startState - -> Consultar_Estadisticas
note on link
    <b>Administrador Solicita</b>
    * Consultar Estadisticas
end note

state Consultar_Estadisticas{
state 2 as " "
state 3 as " "
state 4 <<choice>>

[*] -down-> 2

2 -down-> 3
note on link
<b>Sistema Solicita</b>
* Servicio a consultar
* Fecha de inicio
* Fecha de fin
<b>Sistema Permite</b>
* Consultar estadisticas
end note

3 -down-> 4
note on link
<b>Administrador introduce</b>
* Servicio a consultar
* Fecha de inicio
* Fecha de fin
end note

4 -down-> [*]
note on link
<b>Sistema Muestra</b>
* Estadisticas del servicio
end note

4 -[#red]-> 2
note on link
<b>Sistema Muestra</b>
* Mensaje de error al generar las estadisticas
end note

}
@enduml

PlantUML version 1.2022.7(Mon Aug 22 19:01:30 CEST 2022)
(GPL source distribution)
Java Runtime: Java(TM) SE Runtime Environment
JVM: Java HotSpot(TM) 64-Bit Server VM
Default Encoding: Cp1252
Language: es
Country: ES
--></g></svg>