<?xml version="1.0" encoding="us-ascii" standalone="no"?><svg xmlns="http://www.w3.org/2000/svg" xmlns:xlink="http://www.w3.org/1999/xlink" contentStyleType="text/css" height="1300px" preserveAspectRatio="none" style="width:1170px;height:1300px;background:#FFFFFF;" version="1.1" viewBox="0 0 1170 1300" width="1170px" zoomAndPan="magnify"><defs/><g><text fill="#000000" font-family="sans-serif" font-size="14" font-weight="bold" lengthAdjust="spacing" textLength="190" x="480" y="22.9951">Registro en Plataforma</text><rect fill="#F1F1F1" height="40" rx="12.5" ry="12.5" style="stroke:#181818;stroke-width:0.5;" width="59" x="552.5" y="44.2969"/><text fill="#000000" font-family="sans-serif" font-size="14" lengthAdjust="spacing" textLength="49" x="557.5" y="69.1436">INITIAL</text><path d="M19.5,194.2969 L1144.5,194.2969 A12.5,12.5 0 0 1 1157,206.7969 L1157,220.5938 L7,220.5938 L7,206.7969 A12.5,12.5 0 0 1 19.5,194.2969 " fill="#F1F1F1" style="stroke:#F1F1F1;stroke-width:1.0;"/><rect fill="none" height="1100.2969" rx="12.5" ry="12.5" style="stroke:#181818;stroke-width:0.5;" width="1150" x="7" y="194.2969"/><line style="stroke:#181818;stroke-width:0.5;" x1="7" x2="1157" y1="220.5938" y2="220.5938"/><text fill="#000000" font-family="sans-serif" font-size="14" lengthAdjust="spacing" textLength="158" x="503" y="212.292">RegistroEnPlataforma</text><rect fill="#F1F1F1" height="40" rx="12.5" ry="12.5" style="stroke:#181818;stroke-width:0.5;" width="50" x="725" y="352.5938"/><text fill="#000000" font-family="sans-serif" font-size="14" lengthAdjust="spacing" textLength="4" x="748" y="377.4404">&#160;</text><g id="elem_3"><polygon fill="#F1F1F1" points="640,506.5938,652,518.5938,640,530.5938,628,518.5938,640,506.5938" style="stroke:#181818;stroke-width:0.5;"/></g><rect fill="#F1F1F1" height="40" rx="12.5" ry="12.5" style="stroke:#181818;stroke-width:0.5;" width="50" x="420" y="614.5938"/><text fill="#000000" font-family="sans-serif" font-size="14" lengthAdjust="spacing" textLength="4" x="443" y="639.4404">&#160;</text><rect fill="#F1F1F1" height="40" rx="12.5" ry="12.5" style="stroke:#181818;stroke-width:0.5;" width="50" x="718" y="614.5938"/><text fill="#000000" font-family="sans-serif" font-size="14" lengthAdjust="spacing" textLength="4" x="741" y="639.4404">&#160;</text><rect fill="#F1F1F1" height="40" rx="12.5" ry="12.5" style="stroke:#181818;stroke-width:0.5;" width="50" x="420" y="876.5938"/><text fill="#000000" font-family="sans-serif" font-size="14" lengthAdjust="spacing" textLength="4" x="443" y="901.4404">&#160;</text><g id="elem_7"><polygon fill="#F1F1F1" points="345,1121.5938,357,1133.5938,345,1145.5938,333,1133.5938,345,1121.5938" style="stroke:#181818;stroke-width:0.5;"/></g><rect fill="#F1F1F1" height="40" rx="12.5" ry="12.5" style="stroke:#181818;stroke-width:0.5;" width="50" x="418" y="1244.5938"/><text fill="#000000" font-family="sans-serif" font-size="14" lengthAdjust="spacing" textLength="4" x="441" y="1269.4404">&#160;</text><ellipse cx="750" cy="241.5938" fill="#222222" rx="10" ry="10" style="stroke:#222222;stroke-width:1.0;"/><ellipse cx="29" cy="1264.5938" fill="none" rx="11" ry="11" style="stroke:#222222;stroke-width:1.0;"/><ellipse cx="29" cy="1264.5938" fill="#222222" rx="6" ry="6" style="stroke:#222222;stroke-width:1.0;"/><!--link *start*RegistroEnPlataforma to 2--><g id="link_*start*RegistroEnPlataforma_2"><path d="M750,251.8737 C750,272.7838 750,317.9738 750,346.1718 " fill="none" id="*start*RegistroEnPlataforma-to-2" style="stroke:#008000;stroke-width:1.0;"/><polygon fill="#008000" points="750,352.1718,754,343.1718,750,347.1718,746,343.1718,750,352.1718" style="stroke:#008000;stroke-width:1.0;"/><path d="M755,274.5938 L755,329.5938 L923,329.5938 L923,284.5938 L913,274.5938 L755,274.5938 " fill="#F5F5F5" style="stroke:#008000;stroke-width:0.5;"/><path d="M913,274.5938 L913,284.5938 L923,284.5938 L913,274.5938 " fill="#F5F5F5" style="stroke:#008000;stroke-width:0.5;"/><text fill="#000000" font-family="sans-serif" font-size="13" font-weight="bold" lengthAdjust="spacing" textLength="122" x="761" y="291.6606">Sistema Solicita</text><ellipse cx="766.5" cy="302.3594" fill="#000000" rx="2.5" ry="2.5" style="stroke:#000000;stroke-width:0.0;"/><text fill="#000000" font-family="sans-serif" font-size="13" lengthAdjust="spacing" textLength="135" x="773" y="306.7935">Carnet de Estudiante</text><ellipse cx="766.5" cy="317.4922" fill="#000000" rx="2.5" ry="2.5" style="stroke:#000000;stroke-width:0.0;"/><text fill="#000000" font-family="sans-serif" font-size="13" lengthAdjust="spacing" textLength="69" x="773" y="321.9263">DNI/NIF/NIE</text></g><!--link 2 to 3--><g id="link_2_3"><path d="M724.542,383.5087 C696.402,394.4688 655,410.5938 655,410.5938 C655,410.5938 645.9311,475.2889 642.2171,501.7769 " fill="none" id="2-to-3" style="stroke:#008000;stroke-width:1.0;"/><polygon fill="#008000" points="641.384,507.7188,646.595,499.3614,642.0783,502.7672,638.6725,498.2505,641.384,507.7188" style="stroke:#008000;stroke-width:1.0;"/><path d="M660,415.5938 L660,470.5938 L828,470.5938 L828,425.5938 L818,415.5938 L660,415.5938 " fill="#F5F5F5" style="stroke:#008000;stroke-width:0.5;"/><path d="M818,415.5938 L818,425.5938 L828,425.5938 L818,415.5938 " fill="#F5F5F5" style="stroke:#008000;stroke-width:0.5;"/><text fill="#000000" font-family="sans-serif" font-size="13" font-weight="bold" lengthAdjust="spacing" textLength="136" x="666" y="432.6606">Usuario Introduce</text><ellipse cx="671.5" cy="443.3594" fill="#000000" rx="2.5" ry="2.5" style="stroke:#000000;stroke-width:0.0;"/><text fill="#000000" font-family="sans-serif" font-size="13" lengthAdjust="spacing" textLength="135" x="678" y="447.7935">Carnet de Estudiante</text><ellipse cx="671.5" cy="458.4922" fill="#000000" rx="2.5" ry="2.5" style="stroke:#000000;stroke-width:0.0;"/><text fill="#000000" font-family="sans-serif" font-size="13" lengthAdjust="spacing" textLength="69" x="678" y="462.9263">DNI/NIF/NIE</text></g><!--link 3 to 5--><g id="link_3_5"><path d="M640.143,530.6258 C640.42,551.9168 641,596.5938 641,596.5938 C641,596.5938 681.9406,611.4447 712.1466,622.4017 " fill="none" id="3-to-5" style="stroke:#FF0000;stroke-width:1.0;"/><polygon fill="#FF0000" points="717.787,624.4478,710.6904,617.6185,713.0867,622.7427,707.9624,625.139,717.787,624.4478" style="stroke:#FF0000;stroke-width:1.0;"/><path d="M646,566.5938 L646,591.5938 L828,591.5938 L828,576.5938 L818,566.5938 L646,566.5938 " fill="#F5F5F5" style="stroke:#008000;stroke-width:0.5;"/><path d="M818,566.5938 L818,576.5938 L828,576.5938 L818,566.5938 " fill="#F5F5F5" style="stroke:#008000;stroke-width:0.5;"/><text fill="#000000" font-family="sans-serif" font-size="13" lengthAdjust="spacing" textLength="161" x="652" y="583.6606">Estudiante no Registrado</text></g><!--link 5 to 2--><g id="link_5_2"><path d="M768.07,623.2868 C794.7,612.3388 833,596.5938 833,596.5938 C833,596.5938 833,410.5938 833,410.5938 C833,410.5938 805.2432,398.2197 780.8342,387.3387 " fill="none" id="5-to-2" style="stroke:#FF0000;stroke-width:1.0;"/><polygon fill="#FF0000" points="775.354,384.8958,781.9456,392.2136,779.9208,386.9315,785.2029,384.9067,775.354,384.8958" style="stroke:#FF0000;stroke-width:1.0;"/><path d="M838,498.5938 L838,538.5938 L1148,538.5938 L1148,508.5938 L1138,498.5938 L838,498.5938 " fill="#F5F5F5" style="stroke:#008000;stroke-width:0.5;"/><path d="M1138,498.5938 L1138,508.5938 L1148,508.5938 L1138,498.5938 " fill="#F5F5F5" style="stroke:#008000;stroke-width:0.5;"/><text fill="#000000" font-family="sans-serif" font-size="13" font-weight="bold" lengthAdjust="spacing" textLength="129" x="844" y="515.6606">Sistema Muestra</text><ellipse cx="849.5" cy="526.3594" fill="#000000" rx="2.5" ry="2.5" style="stroke:#000000;stroke-width:0.0;"/><text fill="#000000" font-family="sans-serif" font-size="13" lengthAdjust="spacing" textLength="277" x="856" y="530.7935">Mensaje de Error: Estudiante no Registrado</text></g><!--link 3 to 4--><g id="link_3_4"><path d="M631.081,521.7348 C595.42,530.2928 465,561.5938 465,561.5938 C465,561.5938 457.8898,587.1906 451.9658,608.5176 " fill="none" id="3-to-4" style="stroke:#008000;stroke-width:1.0;"/><polygon fill="#008000" points="450.36,614.2988,456.6228,606.6976,451.6982,609.4812,448.9147,604.5565,450.36,614.2988" style="stroke:#008000;stroke-width:1.0;"/><path d="M470,566.5938 L470,591.5938 L632,591.5938 L632,576.5938 L622,566.5938 L470,566.5938 " fill="#F5F5F5" style="stroke:#008000;stroke-width:0.5;"/><path d="M622,566.5938 L622,576.5938 L632,576.5938 L622,566.5938 " fill="#F5F5F5" style="stroke:#008000;stroke-width:0.5;"/><text fill="#000000" font-family="sans-serif" font-size="13" lengthAdjust="spacing" textLength="141" x="476" y="583.6606">Estudiante Registrado</text></g><!--link 4 to 6--><g id="link_4_6"><path d="M445,654.7118 C445,702.7938 445,822.3358 445,870.4478 " fill="none" id="4-to-6" style="stroke:#008000;stroke-width:1.0;"/><polygon fill="#008000" points="445,876.4478,449,867.4478,445,871.4478,441,867.4478,445,876.4478" style="stroke:#008000;stroke-width:1.0;"/><path d="M450,677.5938 L450,853.5938 L741,853.5938 L741,687.5938 L731,677.5938 L450,677.5938 " fill="#F5F5F5" style="stroke:#008000;stroke-width:0.5;"/><path d="M731,677.5938 L731,687.5938 L741,687.5938 L731,677.5938 " fill="#F5F5F5" style="stroke:#008000;stroke-width:0.5;"/><text fill="#000000" font-family="sans-serif" font-size="13" font-weight="bold" lengthAdjust="spacing" textLength="129" x="456" y="694.6606">Sistema Muestra</text><ellipse cx="461.5" cy="705.3594" fill="#000000" rx="2.5" ry="2.5" style="stroke:#000000;stroke-width:0.0;"/><text fill="#000000" font-family="sans-serif" font-size="13" lengthAdjust="spacing" textLength="258" x="468" y="709.7935">Mensaje de Exito: Estudiante Registrado</text><text fill="#000000" font-family="sans-serif" font-size="13" font-weight="bold" lengthAdjust="spacing" textLength="122" x="456" y="724.9263">Sistema Solicita</text><ellipse cx="461.5" cy="735.625" fill="#000000" rx="2.5" ry="2.5" style="stroke:#000000;stroke-width:0.0;"/><text fill="#000000" font-family="sans-serif" font-size="13" lengthAdjust="spacing" textLength="51" x="468" y="740.0591">Nombre</text><ellipse cx="461.5" cy="750.7578" fill="#000000" rx="2.5" ry="2.5" style="stroke:#000000;stroke-width:0.0;"/><text fill="#000000" font-family="sans-serif" font-size="13" lengthAdjust="spacing" textLength="50" x="468" y="755.1919">Apellido</text><ellipse cx="461.5" cy="765.8906" fill="#000000" rx="2.5" ry="2.5" style="stroke:#000000;stroke-width:0.0;"/><text fill="#000000" font-family="sans-serif" font-size="13" lengthAdjust="spacing" textLength="133" x="468" y="770.3247">Fecha de nacimiento</text><ellipse cx="461.5" cy="781.0234" fill="#000000" rx="2.5" ry="2.5" style="stroke:#000000;stroke-width:0.0;"/><text fill="#000000" font-family="sans-serif" font-size="13" lengthAdjust="spacing" textLength="35" x="468" y="785.4575">Email</text><ellipse cx="461.5" cy="796.1563" fill="#000000" rx="2.5" ry="2.5" style="stroke:#000000;stroke-width:0.0;"/><text fill="#000000" font-family="sans-serif" font-size="13" lengthAdjust="spacing" textLength="56" x="468" y="800.5903">Tel&#233;fono</text><ellipse cx="461.5" cy="811.2891" fill="#000000" rx="2.5" ry="2.5" style="stroke:#000000;stroke-width:0.0;"/><text fill="#000000" font-family="sans-serif" font-size="13" lengthAdjust="spacing" textLength="74" x="468" y="815.7231">Contrase&#241;a</text><ellipse cx="461.5" cy="826.4219" fill="#000000" rx="2.5" ry="2.5" style="stroke:#000000;stroke-width:0.0;"/><text fill="#000000" font-family="sans-serif" font-size="13" lengthAdjust="spacing" textLength="59" x="468" y="830.856">Direcci&#243;n</text><ellipse cx="461.5" cy="841.5547" fill="#000000" rx="2.5" ry="2.5" style="stroke:#000000;stroke-width:0.0;"/><text fill="#000000" font-family="sans-serif" font-size="13" lengthAdjust="spacing" textLength="67" x="468" y="845.9888">Ocupaci&#243;n</text></g><!--link 6 to 7--><g id="link_6_7"><path d="M419.81,907.5088 C391.966,918.4688 351,934.5938 351,934.5938 C351,934.5938 346.7708,1074.1605 345.5128,1115.6695 " fill="none" id="6-to-7" style="stroke:#008000;stroke-width:1.0;"/><polygon fill="#008000" points="345.331,1121.6667,349.6018,1112.7921,345.4825,1116.669,341.6055,1112.5497,345.331,1121.6667" style="stroke:#008000;stroke-width:1.0;"/><path d="M356,939.5938 L356,1085.5938 L522,1085.5938 L522,949.5938 L512,939.5938 L356,939.5938 " fill="#F5F5F5" style="stroke:#008000;stroke-width:0.5;"/><path d="M512,939.5938 L512,949.5938 L522,949.5938 L512,939.5938 " fill="#F5F5F5" style="stroke:#008000;stroke-width:0.5;"/><text fill="#000000" font-family="sans-serif" font-size="13" font-weight="bold" lengthAdjust="spacing" textLength="136" x="362" y="956.6606">Usuario Introduce</text><ellipse cx="367.5" cy="967.3594" fill="#000000" rx="2.5" ry="2.5" style="stroke:#000000;stroke-width:0.0;"/><text fill="#000000" font-family="sans-serif" font-size="13" lengthAdjust="spacing" textLength="51" x="374" y="971.7935">Nombre</text><ellipse cx="367.5" cy="982.4922" fill="#000000" rx="2.5" ry="2.5" style="stroke:#000000;stroke-width:0.0;"/><text fill="#000000" font-family="sans-serif" font-size="13" lengthAdjust="spacing" textLength="50" x="374" y="986.9263">Apellido</text><ellipse cx="367.5" cy="997.625" fill="#000000" rx="2.5" ry="2.5" style="stroke:#000000;stroke-width:0.0;"/><text fill="#000000" font-family="sans-serif" font-size="13" lengthAdjust="spacing" textLength="133" x="374" y="1002.0591">Fecha de nacimiento</text><ellipse cx="367.5" cy="1012.7578" fill="#000000" rx="2.5" ry="2.5" style="stroke:#000000;stroke-width:0.0;"/><text fill="#000000" font-family="sans-serif" font-size="13" lengthAdjust="spacing" textLength="35" x="374" y="1017.1919">Email</text><ellipse cx="367.5" cy="1027.8906" fill="#000000" rx="2.5" ry="2.5" style="stroke:#000000;stroke-width:0.0;"/><text fill="#000000" font-family="sans-serif" font-size="13" lengthAdjust="spacing" textLength="56" x="374" y="1032.3247">Tel&#233;fono</text><ellipse cx="367.5" cy="1043.0234" fill="#000000" rx="2.5" ry="2.5" style="stroke:#000000;stroke-width:0.0;"/><text fill="#000000" font-family="sans-serif" font-size="13" lengthAdjust="spacing" textLength="74" x="374" y="1047.4575">Contrase&#241;a</text><ellipse cx="367.5" cy="1058.1563" fill="#000000" rx="2.5" ry="2.5" style="stroke:#000000;stroke-width:0.0;"/><text fill="#000000" font-family="sans-serif" font-size="13" lengthAdjust="spacing" textLength="59" x="374" y="1062.5903">Direcci&#243;n</text><ellipse cx="367.5" cy="1073.2891" fill="#000000" rx="2.5" ry="2.5" style="stroke:#000000;stroke-width:0.0;"/><text fill="#000000" font-family="sans-serif" font-size="13" lengthAdjust="spacing" textLength="67" x="374" y="1077.7231">Ocupaci&#243;n</text></g><!--link 7 to *end*RegistroEnPlataforma--><g id="link_7_*end*RegistroEnPlataforma"><path d="M335.152,1135.9908 C283.791,1143.2788 49,1176.5938 49,1176.5938 C49,1176.5938 37.8918,1224.9142 32.6385,1247.7663 " fill="none" id="7-to-*end*RegistroEnPlataforma" style="stroke:#008000;stroke-width:1.0;"/><polygon fill="#008000" points="31.2943,1253.6138,37.209,1245.7387,32.4145,1248.7408,29.4123,1243.9464,31.2943,1253.6138" style="stroke:#008000;stroke-width:1.0;"/><path d="M54,1181.5938 L54,1221.5938 L337,1221.5938 L337,1191.5938 L327,1181.5938 L54,1181.5938 " fill="#F5F5F5" style="stroke:#008000;stroke-width:0.5;"/><path d="M327,1181.5938 L327,1191.5938 L337,1191.5938 L327,1181.5938 " fill="#F5F5F5" style="stroke:#008000;stroke-width:0.5;"/><text fill="#000000" font-family="sans-serif" font-size="13" font-weight="bold" lengthAdjust="spacing" textLength="129" x="60" y="1198.6606">Sistema Muestra</text><ellipse cx="65.5" cy="1209.3594" fill="#000000" rx="2.5" ry="2.5" style="stroke:#000000;stroke-width:0.0;"/><text fill="#000000" font-family="sans-serif" font-size="13" lengthAdjust="spacing" textLength="250" x="72" y="1213.7935">Mensaje de Exito: Egresado Registrado</text></g><!--link 7 to 8--><g id="link_7_8"><path d="M345.119,1145.5088 C345.384,1169.8787 346,1226.5938 346,1226.5938 C346,1226.5938 383.421,1240.8677 412.162,1251.8307 " fill="none" id="7-to-8" style="stroke:#FF0000;stroke-width:1.0;"/><polygon fill="#FF0000" points="417.768,1253.9691,410.7846,1247.0242,413.0963,1252.1871,407.9334,1254.4988,417.768,1253.9691" style="stroke:#FF0000;stroke-width:1.0;"/><path d="M351,1189.0938 L351,1214.0938 L522,1214.0938 L522,1199.0938 L512,1189.0938 L351,1189.0938 " fill="#F5F5F5" style="stroke:#008000;stroke-width:0.5;"/><path d="M512,1189.0938 L512,1199.0938 L522,1199.0938 L512,1189.0938 " fill="#F5F5F5" style="stroke:#008000;stroke-width:0.5;"/><text fill="#000000" font-family="sans-serif" font-size="13" lengthAdjust="spacing" textLength="150" x="357" y="1206.1606">Error al introducir datos</text></g><!--link 8 to 6--><g id="link_8_6"><path d="M468.203,1252.4926 C492.945,1241.594 527,1226.5938 527,1226.5938 C527,1226.5938 527,934.5938 527,934.5938 C527,934.5938 499.632,922.2445 475.517,911.3635 " fill="none" id="8-to-6" style="stroke:#FF0000;stroke-width:1.0;"/><polygon fill="#FF0000" points="470.048,908.8958,476.6064,916.2433,474.6055,910.9522,479.8967,908.9513,470.048,908.8958" style="stroke:#FF0000;stroke-width:1.0;"/><path d="M532,1113.5938 L532,1153.5938 L831,1153.5938 L831,1123.5938 L821,1113.5938 L532,1113.5938 " fill="#F5F5F5" style="stroke:#008000;stroke-width:0.5;"/><path d="M821,1113.5938 L821,1123.5938 L831,1123.5938 L821,1113.5938 " fill="#F5F5F5" style="stroke:#008000;stroke-width:0.5;"/><text fill="#000000" font-family="sans-serif" font-size="13" font-weight="bold" lengthAdjust="spacing" textLength="129" x="538" y="1130.6606">Sistema Muestra</text><ellipse cx="543.5" cy="1141.3594" fill="#000000" rx="2.5" ry="2.5" style="stroke:#000000;stroke-width:0.0;"/><text fill="#000000" font-family="sans-serif" font-size="13" lengthAdjust="spacing" textLength="266" x="550" y="1145.7935">Mensaje de Error: Error al introducir datos</text></g><!--link startState to RegistroEnPlataforma--><g id="link_startState_RegistroEnPlataforma"><path d="M582,84.4969 C582,106.3669 582,139.4569 582,188.0869 " fill="none" id="startState-to-RegistroEnPlataforma" style="stroke:#008000;stroke-width:1.0;"/><polygon fill="#008000" points="582,194.0869,586,185.0869,582,189.0869,578,185.0869,582,194.0869" style="stroke:#008000;stroke-width:1.0;"/><path d="M587,119.2969 L587,159.2969 L795,159.2969 L795,129.2969 L785,119.2969 L587,119.2969 " fill="#F5F5F5" style="stroke:#008000;stroke-width:0.5;"/><path d="M785,119.2969 L785,129.2969 L795,129.2969 L785,119.2969 " fill="#F5F5F5" style="stroke:#008000;stroke-width:0.5;"/><text fill="#000000" font-family="sans-serif" font-size="13" font-weight="bold" lengthAdjust="spacing" textLength="187" x="593" y="136.3638">Ajeno al Sistema Solicita</text><ellipse cx="598.5" cy="147.0625" fill="#000000" rx="2.5" ry="2.5" style="stroke:#000000;stroke-width:0.0;"/><text fill="#000000" font-family="sans-serif" font-size="13" lengthAdjust="spacing" textLength="148" x="605" y="151.4966">Registro en Plataforma</text></g><!--SRC=[pLJDQjj04BxhAGRdPZ21-9TW3AxhWA1nIvsUGWxZrIIUMDeHgnMfANcW7aiVmI_MrLQoXMlNeScX0edLVBFppNmpkvPjJF2P7ZYpHe0qV8hHuhsO18CWMx5EqM02tm9mpqmilKErUZ2IwsWYiHWuUrgofNaYA_8-OsFagOGU397UxHGJaVa3YbcJNQS4gSJhuYTu3e8bHmIKf7OD4MNAS6fPjCl8eYLmNsFdVeaPDC9PU1EEFpGyN06jrcXRrrJNgj8k5H1TyAvy0iF5QFn8MW1Zc3j_IX3c4hDYYyFpnSWxDO-9H3g28cILso5EBzzl-C9d38sjeGt3eLeAAngDjiRElbTttz3RD_GFnHbKNe4ptJRll2eNRdr8XB_KFa7ZckHQ0TFCvX6ZjbH2xsVX-IoySk_KMNPgW2krO6iVOVkIvMXO8DHEh2XNz5gwDhHkpmn5TuwqUuXq5yjXLPymahqutLgSKr9TvrJ4gAL-JJh3H_AvkvDWBbzAs_PgTKuaVdHxns_llIhVhspbyYZRgHcPIR8mLPl6ASKnb_kQS4LgYGM7HiK9axOLCasGut9zG_7c-xte2fk8cmtCQFC3g-wp8QLuyrENXeygJx4orFNeUJtw_p1y_rSTVL-7ExflqLbtwMQkcSUdg5-R_S71KInckhWekLIE3KHe9TiBDAW5wht58NeHx_Cl]--></g></svg>