<?xml version="1.0" encoding="UTF-8" standalone="no"?><svg xmlns="http://www.w3.org/2000/svg" xmlns:xlink="http://www.w3.org/1999/xlink" contentStyleType="text/css" height="1323px" preserveAspectRatio="none" style="width:1090px;height:1323px;background:#FFFFFF;" version="1.1" viewBox="0 0 1090 1323" width="1090px" zoomAndPan="magnify"><defs/><g><rect fill="none" height="27.6094" id="_title" style="stroke:none;stroke-width:1.0;" width="170" x="450" y="5"/><text fill="#000000" font-family="sans-serif" font-size="14" font-weight="bold" lengthAdjust="spacing" textLength="160" x="455" y="24.5332">Registro en Plataforma</text><ellipse cx="542" cy="54.6094" fill="#222222" rx="10" ry="10" style="stroke:none;stroke-width:1.0;"/><path d="M19.5,176.6094 L1064.5,176.6094 A12.5,12.5 0 0 1 1077,189.1094 L1077,204.2188 L7,204.2188 L7,189.1094 A12.5,12.5 0 0 1 19.5,176.6094 " fill="#F1F1F1" style="stroke:#F1F1F1;stroke-width:1.0;"/><rect fill="none" height="1140.6094" rx="12.5" ry="12.5" style="stroke:#181818;stroke-width:0.5;" width="1070" x="7" y="176.6094"/><line style="stroke:#181818;stroke-width:0.5;" x1="7" x2="1077" y1="204.2188" y2="204.2188"/><text fill="#000000" font-family="sans-serif" font-size="14" lengthAdjust="spacing" textLength="138" x="473" y="196.1426">RegistroEnPlataforma</text><rect fill="#F1F1F1" height="40" rx="12.5" ry="12.5" style="stroke:#181818;stroke-width:0.5;" width="50" x="669" y="340.2188"/><text fill="#000000" font-family="sans-serif" font-size="14" lengthAdjust="spacing" textLength="4" x="692" y="365.9473"> </text><g id="elem_3"><polygon fill="#F1F1F1" points="598,499.2188,610,511.2188,598,523.2188,586,511.2188,598,499.2188" style="stroke:#181818;stroke-width:0.5;"/></g><rect fill="#F1F1F1" height="40" rx="12.5" ry="12.5" style="stroke:#181818;stroke-width:0.5;" width="50" x="391" y="609.2188"/><text fill="#000000" font-family="sans-serif" font-size="14" lengthAdjust="spacing" textLength="4" x="414" y="634.9473"> </text><rect fill="#F1F1F1" height="40" rx="12.5" ry="12.5" style="stroke:#181818;stroke-width:0.5;" width="50" x="669" y="609.2188"/><text fill="#000000" font-family="sans-serif" font-size="14" lengthAdjust="spacing" textLength="4" x="692" y="634.9473"> </text><rect fill="#F1F1F1" height="40" rx="12.5" ry="12.5" style="stroke:#181818;stroke-width:0.5;" width="50" x="391" y="884.2188"/><text fill="#000000" font-family="sans-serif" font-size="14" lengthAdjust="spacing" textLength="4" x="414" y="909.9473"> </text><g id="elem_7"><polygon fill="#F1F1F1" points="325,1141.2188,337,1153.2188,325,1165.2188,313,1153.2188,325,1141.2188" style="stroke:#181818;stroke-width:0.5;"/></g><rect fill="#F1F1F1" height="40" rx="12.5" ry="12.5" style="stroke:#181818;stroke-width:0.5;" width="50" x="390" y="1267.2188"/><text fill="#000000" font-family="sans-serif" font-size="14" lengthAdjust="spacing" textLength="4" x="413" y="1292.9473"> </text><ellipse cx="694" cy="225.2188" fill="#222222" rx="10" ry="10" style="stroke:none;stroke-width:1.0;"/><ellipse cx="28" cy="1287.2188" fill="none" rx="10" ry="10" style="stroke:#222222;stroke-width:1.0;"/><ellipse cx="28.5" cy="1287.7188" fill="#222222" rx="6" ry="6" style="stroke:none;stroke-width:1.0;"/><!--MD5=[551396dde787568e645a798f318599ed]
link *start*RegistroEnPlataforma to 2--><g id="link_*start*RegistroEnPlataforma_2"><path d="M694,235.3588 C694,255.5787 694,304.6788 694,334.6287 " fill="none" id="*start*RegistroEnPlataforma-to-2" style="stroke:#008000;stroke-width:1.0;"/><polygon fill="#008000" points="694,339.9888,698,330.9888,694,334.9888,690,330.9888,694,339.9888" style="stroke:#008000;stroke-width:1.0;"/><path d="M699,258.2188 L699,317.2188 L855,317.2188 L855,268.2188 L845,258.2188 L699,258.2188 " fill="#F5F5F5" style="stroke:#181818;stroke-width:0.5;"/><path d="M845,258.2188 L845,268.2188 L855,268.2188 L845,258.2188 " fill="#F5F5F5" style="stroke:#181818;stroke-width:0.5;"/><text fill="#000000" font-family="sans-serif" font-size="13" font-weight="bold" lengthAdjust="spacing" textLength="103" x="705" y="276.7139">Sistema Solicita</text><ellipse cx="710.5" cy="288.4219" fill="#000000" rx="2.5" ry="2.5" style="stroke:#000000;stroke-width:0.0;"/><text fill="#000000" font-family="sans-serif" font-size="13" lengthAdjust="spacing" textLength="122" x="718" y="293.0654">Carnet de Estudiante</text><ellipse cx="710.5" cy="304.7734" fill="#000000" rx="2.5" ry="2.5" style="stroke:#000000;stroke-width:0.0;"/><text fill="#000000" font-family="sans-serif" font-size="13" lengthAdjust="spacing" textLength="70" x="718" y="309.417">DNI/NIF/NIE</text></g><!--MD5=[eeb69082328d10abd3b14fdeede0d8a3]
link 2 to 3--><g id="link_2_3"><path d="M668.8,372.3188 C644.05,383.2188 610,398.2188 610,398.2188 C610,398.2188 602.91,464.3787 599.63,494.9988 " fill="none" id="2-to-3" style="stroke:#008000;stroke-width:1.0;"/><polygon fill="#008000" points="599.06,500.2787,604.0133,491.7661,599.6028,495.3083,596.0606,490.8977,599.06,500.2787" style="stroke:#008000;stroke-width:1.0;"/><path d="M615,403.2188 L615,462.2188 L771,462.2188 L771,413.2188 L761,403.2188 L615,403.2188 " fill="#F5F5F5" style="stroke:#181818;stroke-width:0.5;"/><path d="M761,403.2188 L761,413.2188 L771,413.2188 L761,403.2188 " fill="#F5F5F5" style="stroke:#181818;stroke-width:0.5;"/><text fill="#000000" font-family="sans-serif" font-size="13" font-weight="bold" lengthAdjust="spacing" textLength="112" x="621" y="421.7139">Usuario Introduce</text><ellipse cx="626.5" cy="433.4219" fill="#000000" rx="2.5" ry="2.5" style="stroke:#000000;stroke-width:0.0;"/><text fill="#000000" font-family="sans-serif" font-size="13" lengthAdjust="spacing" textLength="122" x="634" y="438.0654">Carnet de Estudiante</text><ellipse cx="626.5" cy="449.7734" fill="#000000" rx="2.5" ry="2.5" style="stroke:#000000;stroke-width:0.0;"/><text fill="#000000" font-family="sans-serif" font-size="13" lengthAdjust="spacing" textLength="70" x="634" y="454.417">DNI/NIF/NIE</text></g><!--MD5=[c24e363b82b23e873c94edca50a9731f]
link 3 to 5--><g id="link_3_5"><path d="M598.14,523.1988 C598.41,544.9088 599,591.2188 599,591.2188 C599,591.2188 636,605.6288 663.81,616.4588 " fill="none" id="3-to-5" style="stroke:#FF0000;stroke-width:1.0;"/><polygon fill="#FF0000" points="668.54,618.2988,661.6059,611.3046,663.8811,616.4838,658.7019,618.7589,668.54,618.2988" style="stroke:#FF0000;stroke-width:1.0;"/><path d="M604,560.2188 L604,586.2188 L771,586.2188 L771,570.2188 L761,560.2188 L604,560.2188 " fill="#F5F5F5" style="stroke:#181818;stroke-width:0.5;"/><path d="M761,560.2188 L761,570.2188 L771,570.2188 L761,560.2188 " fill="#F5F5F5" style="stroke:#181818;stroke-width:0.5;"/><text fill="#000000" font-family="sans-serif" font-size="13" lengthAdjust="spacing" textLength="146" x="610" y="578.7139">Estudiante no Registrado</text></g><!--MD5=[4d8a96d09d2f7e5fdd4fcd506871cbc1]
link 5 to 2--><g id="link_5_2"><path d="M719.05,616.9188 C743.16,606.0388 776,591.2188 776,591.2188 C776,591.2188 776,398.2188 776,398.2188 C776,398.2188 747.14,385.1988 723.66,374.5988 " fill="none" id="5-to-2" style="stroke:#FF0000;stroke-width:1.0;"/><polygon fill="#FF0000" points="719.05,372.5187,725.6072,379.8674,723.6072,374.5759,728.8987,372.5759,719.05,372.5187" style="stroke:#FF0000;stroke-width:1.0;"/><path d="M781,490.2188 L781,532.2188 L1068,532.2188 L1068,500.2188 L1058,490.2188 L781,490.2188 " fill="#F5F5F5" style="stroke:#181818;stroke-width:0.5;"/><path d="M1058,490.2188 L1058,500.2188 L1068,500.2188 L1058,490.2188 " fill="#F5F5F5" style="stroke:#181818;stroke-width:0.5;"/><text fill="#000000" font-family="sans-serif" font-size="13" font-weight="bold" lengthAdjust="spacing" textLength="105" x="787" y="508.7139">Sistema Muestra</text><ellipse cx="792.5" cy="520.4219" fill="#000000" rx="2.5" ry="2.5" style="stroke:#000000;stroke-width:0.0;"/><text fill="#000000" font-family="sans-serif" font-size="13" lengthAdjust="spacing" textLength="253" x="800" y="525.0654">Mensaje de Error: Estudiante no Registrado</text></g><!--MD5=[b1f22f0c97e7f2b556a5a2d67c42ac53]
link 3 to 4--><g id="link_3_4"><path d="M589.29,514.5288 C555.64,523.4588 436,555.2188 436,555.2188 C436,555.2188 428.44,582.8088 422.62,604.0688 " fill="none" id="3-to-4" style="stroke:#008000;stroke-width:1.0;"/><polygon fill="#008000" points="421.25,609.0388,427.479,601.4099,422.5668,604.2153,419.7614,599.303,421.25,609.0388" style="stroke:#008000;stroke-width:1.0;"/><path d="M441,560.2188 L441,586.2188 L590,586.2188 L590,570.2188 L580,560.2188 L441,560.2188 " fill="#F5F5F5" style="stroke:#181818;stroke-width:0.5;"/><path d="M580,560.2188 L580,570.2188 L590,570.2188 L580,560.2188 " fill="#F5F5F5" style="stroke:#181818;stroke-width:0.5;"/><text fill="#000000" font-family="sans-serif" font-size="13" lengthAdjust="spacing" textLength="128" x="447" y="578.7139">Estudiante Registrado</text></g><!--MD5=[f13c3ab577a688343a149026a232f91b]
link 4 to 6--><g id="link_4_6"><path d="M416,649.4188 C416,697.8788 416,825.1088 416,878.7788 " fill="none" id="4-to-6" style="stroke:#008000;stroke-width:1.0;"/><polygon fill="#008000" points="416,884.0387,420,875.0387,416,879.0387,412,875.0387,416,884.0387" style="stroke:#008000;stroke-width:1.0;"/><path d="M421,672.2188 L421,861.2188 L692,861.2188 L692,682.2188 L682,672.2188 L421,672.2188 " fill="#F5F5F5" style="stroke:#181818;stroke-width:0.5;"/><path d="M682,672.2188 L682,682.2188 L692,682.2188 L682,672.2188 " fill="#F5F5F5" style="stroke:#181818;stroke-width:0.5;"/><text fill="#000000" font-family="sans-serif" font-size="13" font-weight="bold" lengthAdjust="spacing" textLength="105" x="427" y="690.7139">Sistema Muestra</text><ellipse cx="432.5" cy="702.4219" fill="#000000" rx="2.5" ry="2.5" style="stroke:#000000;stroke-width:0.0;"/><text fill="#000000" font-family="sans-serif" font-size="13" lengthAdjust="spacing" textLength="237" x="440" y="707.0654">Mensaje de Exito: Estudiante Registrado</text><text fill="#000000" font-family="sans-serif" font-size="13" font-weight="bold" lengthAdjust="spacing" textLength="103" x="427" y="723.417">Sistema Solicita</text><ellipse cx="432.5" cy="735.125" fill="#000000" rx="2.5" ry="2.5" style="stroke:#000000;stroke-width:0.0;"/><text fill="#000000" font-family="sans-serif" font-size="13" lengthAdjust="spacing" textLength="45" x="440" y="739.7686">Nombre</text><ellipse cx="432.5" cy="751.4766" fill="#000000" rx="2.5" ry="2.5" style="stroke:#000000;stroke-width:0.0;"/><text fill="#000000" font-family="sans-serif" font-size="13" lengthAdjust="spacing" textLength="46" x="440" y="756.1201">Apellido</text><ellipse cx="432.5" cy="767.8281" fill="#000000" rx="2.5" ry="2.5" style="stroke:#000000;stroke-width:0.0;"/><text fill="#000000" font-family="sans-serif" font-size="13" lengthAdjust="spacing" textLength="121" x="440" y="772.4717">Fecha de nacimiento</text><ellipse cx="432.5" cy="784.1797" fill="#000000" rx="2.5" ry="2.5" style="stroke:#000000;stroke-width:0.0;"/><text fill="#000000" font-family="sans-serif" font-size="13" lengthAdjust="spacing" textLength="33" x="440" y="788.8232">Email</text><ellipse cx="432.5" cy="800.5313" fill="#000000" rx="2.5" ry="2.5" style="stroke:#000000;stroke-width:0.0;"/><text fill="#000000" font-family="sans-serif" font-size="13" lengthAdjust="spacing" textLength="48" x="440" y="805.1748">Teléfono</text><ellipse cx="432.5" cy="816.8828" fill="#000000" rx="2.5" ry="2.5" style="stroke:#000000;stroke-width:0.0;"/><text fill="#000000" font-family="sans-serif" font-size="13" lengthAdjust="spacing" textLength="66" x="440" y="821.5264">Contraseña</text><ellipse cx="432.5" cy="833.2344" fill="#000000" rx="2.5" ry="2.5" style="stroke:#000000;stroke-width:0.0;"/><text fill="#000000" font-family="sans-serif" font-size="13" lengthAdjust="spacing" textLength="54" x="440" y="837.8779">Dirección</text><ellipse cx="432.5" cy="849.5859" fill="#000000" rx="2.5" ry="2.5" style="stroke:#000000;stroke-width:0.0;"/><text fill="#000000" font-family="sans-serif" font-size="13" lengthAdjust="spacing" textLength="62" x="440" y="854.2295">Ocupación</text></g><!--MD5=[2dfa168d6698efd82f568a8036f37f42]
link 6 to 7--><g id="link_6_7"><path d="M390.73,915.7188 C364.42,926.6588 327,942.2188 327,942.2188 C327,942.2188 325.62,1086.6688 325.15,1135.9588 " fill="none" id="6-to-7" style="stroke:#008000;stroke-width:1.0;"/><polygon fill="#008000" points="325.1,1141.2288,329.177,1132.2634,325.1429,1136.2289,321.1773,1132.1948,325.1,1141.2288" style="stroke:#008000;stroke-width:1.0;"/><path d="M332,947.2188 L332,1104.2188 L487,1104.2188 L487,957.2188 L477,947.2188 L332,947.2188 " fill="#F5F5F5" style="stroke:#181818;stroke-width:0.5;"/><path d="M477,947.2188 L477,957.2188 L487,957.2188 L477,947.2188 " fill="#F5F5F5" style="stroke:#181818;stroke-width:0.5;"/><text fill="#000000" font-family="sans-serif" font-size="13" font-weight="bold" lengthAdjust="spacing" textLength="112" x="338" y="965.7139">Usuario Introduce</text><ellipse cx="343.5" cy="977.4219" fill="#000000" rx="2.5" ry="2.5" style="stroke:#000000;stroke-width:0.0;"/><text fill="#000000" font-family="sans-serif" font-size="13" lengthAdjust="spacing" textLength="45" x="351" y="982.0654">Nombre</text><ellipse cx="343.5" cy="993.7734" fill="#000000" rx="2.5" ry="2.5" style="stroke:#000000;stroke-width:0.0;"/><text fill="#000000" font-family="sans-serif" font-size="13" lengthAdjust="spacing" textLength="46" x="351" y="998.417">Apellido</text><ellipse cx="343.5" cy="1010.125" fill="#000000" rx="2.5" ry="2.5" style="stroke:#000000;stroke-width:0.0;"/><text fill="#000000" font-family="sans-serif" font-size="13" lengthAdjust="spacing" textLength="121" x="351" y="1014.7686">Fecha de nacimiento</text><ellipse cx="343.5" cy="1026.4766" fill="#000000" rx="2.5" ry="2.5" style="stroke:#000000;stroke-width:0.0;"/><text fill="#000000" font-family="sans-serif" font-size="13" lengthAdjust="spacing" textLength="33" x="351" y="1031.1201">Email</text><ellipse cx="343.5" cy="1042.8281" fill="#000000" rx="2.5" ry="2.5" style="stroke:#000000;stroke-width:0.0;"/><text fill="#000000" font-family="sans-serif" font-size="13" lengthAdjust="spacing" textLength="48" x="351" y="1047.4717">Teléfono</text><ellipse cx="343.5" cy="1059.1797" fill="#000000" rx="2.5" ry="2.5" style="stroke:#000000;stroke-width:0.0;"/><text fill="#000000" font-family="sans-serif" font-size="13" lengthAdjust="spacing" textLength="66" x="351" y="1063.8232">Contraseña</text><ellipse cx="343.5" cy="1075.5313" fill="#000000" rx="2.5" ry="2.5" style="stroke:#000000;stroke-width:0.0;"/><text fill="#000000" font-family="sans-serif" font-size="13" lengthAdjust="spacing" textLength="54" x="351" y="1080.1748">Dirección</text><ellipse cx="343.5" cy="1091.8828" fill="#000000" rx="2.5" ry="2.5" style="stroke:#000000;stroke-width:0.0;"/><text fill="#000000" font-family="sans-serif" font-size="13" lengthAdjust="spacing" textLength="62" x="351" y="1096.5264">Ocupación</text></g><!--MD5=[09e96f217a855a8e3d35b283e8945458]
link 7 to *end*RegistroEnPlataforma--><g id="link_7_*end*RegistroEnPlataforma"><path d="M315.47,1155.6988 C266.76,1163.2588 48,1197.2188 48,1197.2188 C48,1197.2188 36.71,1247.4488 31.1,1272.4388 " fill="none" id="7-to-*end*RegistroEnPlataforma" style="stroke:#008000;stroke-width:1.0;"/><polygon fill="#008000" points="29.99,1277.3588,35.8741,1269.4608,31.0913,1272.4815,28.0706,1267.6987,29.99,1277.3588" style="stroke:#008000;stroke-width:1.0;"/><path d="M53,1202.2188 L53,1244.2188 L317,1244.2188 L317,1212.2188 L307,1202.2188 L53,1202.2188 " fill="#F5F5F5" style="stroke:#181818;stroke-width:0.5;"/><path d="M307,1202.2188 L307,1212.2188 L317,1212.2188 L307,1202.2188 " fill="#F5F5F5" style="stroke:#181818;stroke-width:0.5;"/><text fill="#000000" font-family="sans-serif" font-size="13" font-weight="bold" lengthAdjust="spacing" textLength="105" x="59" y="1220.7139">Sistema Muestra</text><ellipse cx="64.5" cy="1232.4219" fill="#000000" rx="2.5" ry="2.5" style="stroke:#000000;stroke-width:0.0;"/><text fill="#000000" font-family="sans-serif" font-size="13" lengthAdjust="spacing" textLength="230" x="72" y="1237.0654">Mensaje de Exito: Egresado Registrado</text></g><!--MD5=[5ca979b543d038a4b12f05f8f6f2c83d]
link 7 to 8--><g id="link_7_8"><path d="M325.11,1165.1188 C325.38,1190.0688 326,1249.2188 326,1249.2188 C326,1249.2188 359.17,1263.0088 385,1273.7488 " fill="none" id="7-to-8" style="stroke:#FF0000;stroke-width:1.0;"/><polygon fill="#FF0000" points="389.73,1275.7188,382.9498,1268.5753,385.1117,1273.8028,379.8842,1275.9647,389.73,1275.7188" style="stroke:#FF0000;stroke-width:1.0;"/><path d="M331,1210.2188 L331,1236.2188 L487,1236.2188 L487,1220.2188 L477,1210.2188 L331,1210.2188 " fill="#F5F5F5" style="stroke:#181818;stroke-width:0.5;"/><path d="M477,1210.2188 L477,1220.2188 L487,1220.2188 L477,1210.2188 " fill="#F5F5F5" style="stroke:#181818;stroke-width:0.5;"/><text fill="#000000" font-family="sans-serif" font-size="13" lengthAdjust="spacing" textLength="135" x="337" y="1228.7139">Error al introducir datos</text></g><!--MD5=[dfd4d3abcbc1ea6e869654a29eca52f3]
link 8 to 6--><g id="link_8_6"><path d="M440.21,1274.0988 C462.67,1263.3088 492,1249.2188 492,1249.2188 C492,1249.2188 492,942.2188 492,942.2188 C492,942.2188 467.29,930.1888 446.05,919.8488 " fill="none" id="8-to-6" style="stroke:#FF0000;stroke-width:1.0;"/><polygon fill="#FF0000" points="441.31,917.5387,447.6485,925.0769,445.8048,919.7289,451.1528,917.8852,441.31,917.5387" style="stroke:#FF0000;stroke-width:1.0;"/><path d="M497,1132.2188 L497,1174.2188 L773,1174.2188 L773,1142.2188 L763,1132.2188 L497,1132.2188 " fill="#F5F5F5" style="stroke:#181818;stroke-width:0.5;"/><path d="M763,1132.2188 L763,1142.2188 L773,1142.2188 L763,1132.2188 " fill="#F5F5F5" style="stroke:#181818;stroke-width:0.5;"/><text fill="#000000" font-family="sans-serif" font-size="13" font-weight="bold" lengthAdjust="spacing" textLength="105" x="503" y="1150.7139">Sistema Muestra</text><ellipse cx="508.5" cy="1162.4219" fill="#000000" rx="2.5" ry="2.5" style="stroke:#000000;stroke-width:0.0;"/><text fill="#000000" font-family="sans-serif" font-size="13" lengthAdjust="spacing" textLength="242" x="516" y="1167.0654">Mensaje de Error: Error al introducir datos</text></g><!--MD5=[beaeb33f63748c3f24f8209c8e2e401f]
link *start to RegistroEnPlataforma--><g id="link_*start_RegistroEnPlataforma"><path d="M542,64.8494 C542,81.6794 542,120.3194 542,171.1094 " fill="none" id="*start-to-RegistroEnPlataforma" style="stroke:#008000;stroke-width:1.0;"/><polygon fill="#008000" points="542,176.3794,546,167.3794,542,171.3794,538,167.3794,542,176.3794" style="stroke:#008000;stroke-width:1.0;"/><path d="M547,99.6094 L547,141.6094 L728,141.6094 L728,109.6094 L718,99.6094 L547,99.6094 " fill="#F5F5F5" style="stroke:#181818;stroke-width:0.5;"/><path d="M718,99.6094 L718,109.6094 L728,109.6094 L718,99.6094 " fill="#F5F5F5" style="stroke:#181818;stroke-width:0.5;"/><text fill="#000000" font-family="sans-serif" font-size="13" font-weight="bold" lengthAdjust="spacing" textLength="160" x="553" y="118.1045">Ajeno al Sistema Solicita</text><ellipse cx="558.5" cy="129.8125" fill="#000000" rx="2.5" ry="2.5" style="stroke:#000000;stroke-width:0.0;"/><text fill="#000000" font-family="sans-serif" font-size="13" lengthAdjust="spacing" textLength="132" x="566" y="134.4561">Registro en Plataforma</text></g><!--MD5=[3c24a36ee44a9711dc1cfa5ec2074753]
@startuml
title Registro en Plataforma

skinparam {
    NoteBackgroundColor #whiteSmoke
    ArrowColor #green
    NoteBorderColor #green
    linetype polyline
}

hide empty description



[*] - -> RegistroEnPlataforma
note on link
    <b>Ajeno al Sistema Solicita</b>
    * Registro en Plataforma
end note

state RegistroEnPlataforma {
  state 2 as " "
  state 3 <<choice>>
  state 4 as " "
  state 5 as " "
  state 6 as " "
  state 7 <<choice>>
  state 8 as " "


  [*] - -> 2
  note on link
    <b>Sistema Solicita</b>
    * Carnet de Estudiante 
    * DNI/NIF/NIE
  end note

  2 - -> 3
  note on link
    <b>Usuario Introduce</b>
    * Carnet de Estudiante
    * DNI/NIF/NIE
  end note

  3 -[#red]-> 5
  note on link
    Estudiante no Registrado
  end note

  5 -[#red]-> 2
  note on link
    <b>Sistema Muestra</b>
    * Mensaje de Error: Estudiante no Registrado
  end note

  3 - -> 4
  note on link
    Estudiante Registrado
  end note

  4 - -> 6
  note on link
    <b>Sistema Muestra</b>
    * Mensaje de Exito: Estudiante Registrado
    <b>Sistema Solicita</b>
    * Nombre
    * Apellido
    * Fecha de nacimiento
    * Email
    * Teléfono
    * Contraseña
    * Dirección
    * Ocupación
  end note

  6 - -> 7
  note on link
    <b>Usuario Introduce</b>
    * Nombre
    * Apellido
    * Fecha de nacimiento
    * Email
    * Teléfono
    * Contraseña
    * Dirección
    * Ocupación
  end note

  7 - -> [*]
  note on link
    <b>Sistema Muestra</b>
    * Mensaje de Exito: Egresado Registrado
  end note

  7 -[#red]-> 8
  note on link
    Error al introducir datos
  end note

  8 -[#red]-> 6
  note on link
    <b>Sistema Muestra</b>
    * Mensaje de Error: Error al introducir datos
  end note

}
@enduml

PlantUML version 1.2022.7(Mon Aug 22 19:01:30 CEST 2022)
(GPL source distribution)
Java Runtime: Java(TM) SE Runtime Environment
JVM: Java HotSpot(TM) 64-Bit Server VM
Default Encoding: Cp1252
Language: es
Country: ES
--></g></svg>