<?xml version="1.0" encoding="us-ascii" standalone="no"?><svg xmlns="http://www.w3.org/2000/svg" xmlns:xlink="http://www.w3.org/1999/xlink" contentStyleType="text/css" height="493px" preserveAspectRatio="none" style="width:710px;height:493px;background:#FFFFFF;" version="1.1" viewBox="0 0 710 493" width="710px" zoomAndPan="magnify"><defs/><g><ellipse cx="352" cy="16" fill="#222222" rx="10" ry="10" style="stroke:#222222;stroke-width:1.0;"/><g id="RegistrandoDatos"><rect fill="#F1F1F1" height="50" rx="12.5" ry="12.5" style="stroke:#181818;stroke-width:0.5;" width="149" x="277.5" y="103"/><line style="stroke:#181818;stroke-width:0.5;" x1="277.5" x2="426.5" y1="129.2969" y2="129.2969"/><text fill="#000000" font-family="sans-serif" font-size="14" lengthAdjust="spacing" textLength="129" x="287.5" y="120.9951">RegistrandoDatos</text></g><path d="M19.5,230 L684,230 A12.5,12.5 0 0 1 696.5,242.5 L696.5,256.2969 L7,256.2969 L7,242.5 A12.5,12.5 0 0 1 19.5,230 " fill="#F1F1F1" style="stroke:#F1F1F1;stroke-width:1.0;"/><rect fill="none" height="257.2969" rx="12.5" ry="12.5" style="stroke:#181818;stroke-width:0.5;" width="689.5" x="7" y="230"/><line style="stroke:#181818;stroke-width:0.5;" x1="7" x2="696.5" y1="256.2969" y2="256.2969"/><text fill="#000000" font-family="sans-serif" font-size="14" lengthAdjust="spacing" textLength="153" x="275.25" y="247.9951">UsuarioAdministrador</text><g id="UsuarioAdministrador.Activo"><rect fill="#F1F1F1" height="50" rx="12.5" ry="12.5" style="stroke:#181818;stroke-width:0.5;" width="66" x="472" y="340.2969"/><line style="stroke:#181818;stroke-width:0.5;" x1="472" x2="538" y1="366.5938" y2="366.5938"/><text fill="#000000" font-family="sans-serif" font-size="14" lengthAdjust="spacing" textLength="46" x="482" y="358.292">Activo</text></g><g id="UsuarioAdministrador.GestionandoEstad&#237;sticas"><rect fill="#F1F1F1" height="50" rx="12.5" ry="12.5" style="stroke:#181818;stroke-width:0.5;" width="196" x="19" y="427.2969"/><line style="stroke:#181818;stroke-width:0.5;" x1="19" x2="215" y1="453.5938" y2="453.5938"/><text fill="#000000" font-family="sans-serif" font-size="14" lengthAdjust="spacing" textLength="176" x="29" y="445.292">GestionandoEstad&#237;sticas</text></g><ellipse cx="505" cy="277.2969" fill="#222222" rx="10" ry="10" style="stroke:#222222;stroke-width:1.0;"/><g id="UsuarioAdministrador.gestionandoServicio"><rect fill="#F1F1F1" height="50" rx="12.5" ry="12.5" style="stroke:#181818;stroke-width:0.5;" width="166" x="233" y="427.2969"/><line style="stroke:#181818;stroke-width:0.5;" x1="233" x2="399" y1="453.5938" y2="453.5938"/><text fill="#000000" font-family="sans-serif" font-size="14" lengthAdjust="spacing" textLength="146" x="243" y="445.292">gestionandoServicio</text></g><g id="UsuarioAdministrador.gestionandoPaquetes"><rect fill="#F1F1F1" height="50" rx="12.5" ry="12.5" style="stroke:#181818;stroke-width:0.5;" width="175" x="417.5" y="427.2969"/><line style="stroke:#181818;stroke-width:0.5;" x1="417.5" x2="592.5" y1="453.5938" y2="453.5938"/><text fill="#000000" font-family="sans-serif" font-size="14" lengthAdjust="spacing" textLength="155" x="427.5" y="445.292">gestionandoPaquetes</text></g><g id="UsuarioAdministrador.Inactivo"><rect fill="#F1F1F1" height="50" rx="12.5" ry="12.5" style="stroke:#181818;stroke-width:0.5;" width="77" x="610.5" y="427.2969"/><line style="stroke:#181818;stroke-width:0.5;" x1="610.5" x2="687.5" y1="453.5938" y2="453.5938"/><text fill="#000000" font-family="sans-serif" font-size="14" lengthAdjust="spacing" textLength="57" x="620.5" y="445.292">Inactivo</text></g><!--link Activo to GestionandoEstad?sticas--><g id="link_Activo_GestionandoEstad&#237;sticas"><path d="M471.677,373.4529 C419.044,384.7738 313.453,407.5558 224,427.2969 C221.118,427.9328 224.052,427.2819 221.099,427.9361 " fill="none" id="Activo-to-GestionandoEstad&#237;sticas" style="stroke:#181818;stroke-width:1.0;"/><polygon fill="#181818" points="215.241,429.2339,224.8931,431.1925,220.1226,428.1524,223.1628,423.3819,215.241,429.2339" style="stroke:#181818;stroke-width:1.0;"/></g><!--link *start*UsuarioAdministrador to Activo--><g id="link_*start*UsuarioAdministrador_Activo"><path d="M505,287.5009 C505,299.9799 505,316.7189 505,334.2269 " fill="none" id="*start*UsuarioAdministrador-to-Activo" style="stroke:#181818;stroke-width:1.0;"/><polygon fill="#181818" points="505,340.2269,509,331.2269,505,335.2269,501,331.2269,505,340.2269" style="stroke:#181818;stroke-width:1.0;"/><text fill="#000000" font-family="sans-serif" font-size="13" lengthAdjust="spacing" textLength="166" x="506" y="318.3638">necesita gestionar Alumni</text></g><!--link Activo to gestionandoServicio--><g id="link_Activo_gestionandoServicio"><path d="M471.646,381.2975 C443.351,394.0227 407.7111,410.051 374.8451,424.832 " fill="none" id="Activo-to-gestionandoServicio" style="stroke:#181818;stroke-width:1.0;"/><polygon fill="#181818" points="369.373,427.293,379.2218,427.2495,373.9331,425.2422,375.9405,419.9535,369.373,427.293" style="stroke:#181818;stroke-width:1.0;"/></g><!--link Activo to gestionandoPaquetes--><g id="link_Activo_gestionandoPaquetes"><path d="M505,390.4271 C505,401.9122 505,409.6135 505,421.1063 " fill="none" id="Activo-to-gestionandoPaquetes" style="stroke:#181818;stroke-width:1.0;"/><polygon fill="#181818" points="505,427.1063,509,418.1063,505,422.1063,501,418.1063,505,427.1063" style="stroke:#181818;stroke-width:1.0;"/></g><!--link Activo to Inactivo--><g id="link_Activo_Inactivo"><path d="M538.258,389.5235 C559.768,402.7951 582.5093,416.3192 605.0173,428.9074 " fill="none" id="Activo-to-Inactivo" style="stroke:#181818;stroke-width:1.0;"/><polygon fill="#181818" points="610.254,431.8362,604.3515,423.952,605.8901,429.3956,600.4465,430.9342,610.254,431.8362" style="stroke:#181818;stroke-width:1.0;"/></g><!--link Inactivo to Activo--><g id="link_Inactivo_Activo"><path d="M614.391,427.2376 C591.249,412.9952 566.3349,398.2283 543.4739,385.5889 " fill="none" id="Inactivo-to-Activo" style="stroke:#181818;stroke-width:1.0;"/><polygon fill="#181818" points="538.223,382.6858,544.1639,390.541,542.5987,385.105,548.0348,383.5399,538.223,382.6858" style="stroke:#181818;stroke-width:1.0;"/></g><!--link *start* to RegistrandoDatos--><g id="link_*start*_RegistrandoDatos"><path d="M352,26.002 C352,42.627 352,72.655 352,96.873 " fill="none" id="*start*-to-RegistrandoDatos" style="stroke:#181818;stroke-width:1.0;"/><polygon fill="#181818" points="352,102.873,356,93.873,352,97.873,348,93.873,352,102.873" style="stroke:#181818;stroke-width:1.0;"/><text fill="#000000" font-family="sans-serif" font-size="13" lengthAdjust="spacing" textLength="140" x="353" y="69.0669">se crea administrador</text></g><!--link RegistrandoDatos to UsuarioAdministrador--><g id="link_RegistrandoDatos_UsuarioAdministrador"><path d="M352,153.022 C352,172.1 352,194.394 352,223.892 " fill="none" id="RegistrandoDatos-to-UsuarioAdministrador" style="stroke:#181818;stroke-width:1.0;"/><polygon fill="#181818" points="352,229.892,356,220.892,352,224.892,348,220.892,352,229.892" style="stroke:#181818;stroke-width:1.0;"/><text fill="#000000" font-family="sans-serif" font-size="13" lengthAdjust="spacing" textLength="174" x="353" y="196.0669">se han registrado los datos</text></g><!--SRC=[RP1D2i9034RtEKNMWXVeGYWeuauKLyL5c0arq4vmCdKZ7ibJU377_b0HTqc-zxw1gHPdN2vNUE1QB4KANjUKr0eqHXUPa7mheS-yHe1VCCidwoYAbjyW5jc_KC0uybwnKKF_SG304YN6V-OTIfVafhbuovP4m-UjJHRywvbtHmRLufpZWIimi6EJH5YFVCIowTeWSrCzDnqvtiI9ujzqJzUE4zkKzf-p2zGlC0tzTG3WyGO0]--></g></svg>