<?xml version="1.0" encoding="UTF-8" standalone="no"?><svg xmlns="http://www.w3.org/2000/svg" xmlns:xlink="http://www.w3.org/1999/xlink" contentStyleType="text/css" height="387px" preserveAspectRatio="none" style="width:1326px;height:387px;background:#FFFFFF;" version="1.1" viewBox="0 0 1326 387" width="1326px" zoomAndPan="magnify"><defs/><g><rect fill="none" height="27.6094" id="_title" style="stroke:none;stroke-width:1.0;" width="176" x="568" y="5"/><text fill="#000000" font-family="sans-serif" font-size="14" font-weight="bold" lengthAdjust="spacing" textLength="166" x="573" y="24.5332">Contexto Administrador</text><ellipse cx="64.5" cy="54.6094" fill="#222222" rx="10" ry="10" style="stroke:none;stroke-width:1.0;"/><rect fill="#F1F1F1" height="40" rx="12.5" ry="12.5" style="stroke:#181818;stroke-width:0.5;" width="115" x="7" y="125.6094"/><text fill="#000000" font-family="sans-serif" font-size="14" lengthAdjust="spacing" textLength="105" x="12" y="151.3379">INICIAR_SESIÓN</text><rect fill="#F1F1F1" height="40" rx="12.5" ry="12.5" style="stroke:#181818;stroke-width:0.5;" width="50" x="39.5" y="243.6094"/><text fill="#000000" font-family="sans-serif" font-size="14" lengthAdjust="spacing" textLength="39" x="45" y="269.3379">INICIO</text><rect fill="#F1F1F1" height="40" rx="12.5" ry="12.5" style="stroke:#181818;stroke-width:0.5;" width="141" x="125" y="243.6094"/><text fill="#000000" font-family="sans-serif" font-size="14" lengthAdjust="spacing" textLength="131" x="130" y="269.3379">ADMINISTRADORES</text><rect fill="#F1F1F1" height="40" rx="12.5" ry="12.5" style="stroke:#181818;stroke-width:0.5;" width="179" x="1141" y="243.6094"/><text fill="#000000" font-family="sans-serif" font-size="14" lengthAdjust="spacing" textLength="169" x="1146" y="269.3379">CREAR_ADMINISTRADOR</text><rect fill="#F1F1F1" height="40" rx="12.5" ry="12.5" style="stroke:#181818;stroke-width:0.5;" width="181" x="925" y="243.6094"/><text fill="#000000" font-family="sans-serif" font-size="14" lengthAdjust="spacing" textLength="171" x="930" y="269.3379">EDITAR_ADMINISTRADOR</text><rect fill="#F1F1F1" height="40" rx="12.5" ry="12.5" style="stroke:#181818;stroke-width:0.5;" width="193" x="697" y="243.6094"/><text fill="#000000" font-family="sans-serif" font-size="14" lengthAdjust="spacing" textLength="183" x="702" y="269.3379">ELIMINAR_ADMINISTRADOR</text><rect fill="#F1F1F1" height="40" rx="12.5" ry="12.5" style="stroke:#181818;stroke-width:0.5;" width="179" x="483" y="243.6094"/><text fill="#000000" font-family="sans-serif" font-size="14" lengthAdjust="spacing" textLength="169" x="488" y="269.3379">LISTAR_ADMINISTRADOR</text><rect fill="#F1F1F1" height="40" rx="12.5" ry="12.5" style="stroke:#181818;stroke-width:0.5;" width="147" x="301" y="243.6094"/><text fill="#000000" font-family="sans-serif" font-size="14" lengthAdjust="spacing" textLength="137" x="306" y="269.3379">REALIZAR_PETICIÓN</text><ellipse cx="129.5" cy="371.6094" fill="none" rx="10" ry="10" style="stroke:#222222;stroke-width:1.0;"/><ellipse cx="130" cy="372.1094" fill="#222222" rx="6" ry="6" style="stroke:none;stroke-width:1.0;"/><!--MD5=[fffa5c9a6c2a3d9bbcf62492fefaaec1]
link *start to INICIAR_SESIÓN--><g id="link_*start_INICIAR_SESIÓN"><path d="M64.5,64.7994 C64.5,77.7894 64.5,101.9894 64.5,120.3394 " fill="none" id="*start-to-INICIAR_SESIÓN" style="stroke:#181818;stroke-width:1.0;"/><polygon fill="#181818" points="64.5,125.3494,68.5,116.3494,64.5,120.3494,60.5,116.3494,64.5,125.3494" style="stroke:#181818;stroke-width:1.0;"/></g><!--MD5=[66837f7cee128dc6ca7363ed13e0752f]
link INICIAR_SESIÓN to INICIO--><g id="link_INICIAR_SESIÓN_INICIO"><path d="M64.5,165.7694 C64.5,185.5794 64.5,216.5894 64.5,238.1594 " fill="none" id="INICIAR_SESIÓN-to-INICIO" style="stroke:#181818;stroke-width:1.0;"/><polygon fill="#181818" points="64.5,243.4294,68.5,234.4294,64.5,238.4294,60.5,234.4294,64.5,243.4294" style="stroke:#181818;stroke-width:1.0;"/><text fill="#000000" font-family="sans-serif" font-size="13" lengthAdjust="spacing" textLength="78" x="65.5" y="210.1045">Iniciar Sesión</text></g><!--MD5=[92094c0e7e8db2be50d4eb13853064a4]
link INICIO to ADMINISTRADORES--><g id="link_INICIO_ADMINISTRADORES"><path d="M89.65,275.1294 C99.35,279.5694 108.17,283.6094 108.17,283.6094 C108.17,283.6094 113.1,283.6094 119.65,283.6094 " fill="none" id="INICIO-to-ADMINISTRADORES" style="stroke:#181818;stroke-width:1.0;"/><polygon fill="#181818" points="124.92,283.6094,115.92,279.6094,119.92,283.6094,115.92,287.6094,124.92,283.6094" style="stroke:#181818;stroke-width:1.0;"/></g><!--MD5=[39555862d1b24fbe8e4bce6cefa6c186]
reverse link INICIO to ADMINISTRADORES--><g id="link_INICIO_ADMINISTRADORES"><path d="M94.53,249.8494 C102.12,246.3794 108.17,243.6094 108.17,243.6094 C108.17,243.6094 115.94,243.6094 124.92,243.6094 " fill="none" id="INICIO-backto-ADMINISTRADORES" style="stroke:#181818;stroke-width:1.0;"/><polygon fill="#181818" points="89.65,252.0894,99.4984,251.995,94.1994,250.015,96.1794,244.7159,89.65,252.0894" style="stroke:#181818;stroke-width:1.0;"/></g><!--MD5=[e1cf4c2f69a6a71f8fdad091a4632c47]
link ADMINISTRADORES to CREAR_ADMINISTRADOR--><g id="link_ADMINISTRADORES_CREAR_ADMINISTRADOR"><path d="M238.93,243.5694 C265.78,231.1694 295.17,217.6094 295.17,217.6094 C295.17,217.6094 1111.83,217.6094 1111.83,217.6094 C1111.83,217.6094 1143.36,229.8294 1173.91,241.6694 " fill="none" id="ADMINISTRADORES-to-CREAR_ADMINISTRADOR" style="stroke:#181818;stroke-width:1.0;"/><polygon fill="#181818" points="1178.8,243.5694,1171.8659,236.5752,1174.1411,241.7544,1168.9619,244.0296,1178.8,243.5694" style="stroke:#181818;stroke-width:1.0;"/></g><!--MD5=[a32a8c5be89b6103a03da342fa4ec55b]
reverse link ADMINISTRADORES to CREAR_ADMINISTRADOR--><g id="link_ADMINISTRADORES_CREAR_ADMINISTRADOR"><path d="M230.83,240.7594 C263.44,219.6694 306.83,191.6094 306.83,191.6094 C306.83,191.6094 1100.17,191.6094 1100.17,191.6094 C1100.17,191.6094 1155.63,222.2494 1194.19,243.5494 " fill="none" id="ADMINISTRADORES-backto-CREAR_ADMINISTRADOR" style="stroke:#181818;stroke-width:1.0;"/><polygon fill="#181818" points="226.51,243.5494,236.24,242.0239,230.7094,240.8355,231.8978,235.3049,226.51,243.5494" style="stroke:#181818;stroke-width:1.0;"/></g><!--MD5=[bee2009da01c9b80ca0cd8348b2147c6]
link ADMINISTRADORES to EDITAR_ADMINISTRADOR--><g id="link_ADMINISTRADORES_EDITAR_ADMINISTRADOR"><path d="M238.93,243.5694 C265.78,231.1694 295.17,217.6094 295.17,217.6094 C295.17,217.6094 895.83,217.6094 895.83,217.6094 C895.83,217.6094 927.62,229.8294 958.43,241.6694 " fill="none" id="ADMINISTRADORES-to-EDITAR_ADMINISTRADOR" style="stroke:#181818;stroke-width:1.0;"/><polygon fill="#181818" points="963.36,243.5694,956.3815,236.6195,958.6896,241.7841,953.525,244.0921,963.36,243.5694" style="stroke:#181818;stroke-width:1.0;"/></g><!--MD5=[f079c46bd8e4a971aad46b77b7b1ece7]
reverse link ADMINISTRADORES to EDITAR_ADMINISTRADOR--><g id="link_ADMINISTRADORES_EDITAR_ADMINISTRADOR"><path d="M230.83,240.7594 C263.44,219.6694 306.83,191.6094 306.83,191.6094 C306.83,191.6094 884.17,191.6094 884.17,191.6094 C884.17,191.6094 940.06,222.2494 978.92,243.5494 " fill="none" id="ADMINISTRADORES-backto-EDITAR_ADMINISTRADOR" style="stroke:#181818;stroke-width:1.0;"/><polygon fill="#181818" points="226.51,243.5494,236.24,242.0239,230.7094,240.8355,231.8978,235.3049,226.51,243.5494" style="stroke:#181818;stroke-width:1.0;"/></g><!--MD5=[a1e26af23b4ed1cb7667442ed3d5d646]
link ADMINISTRADORES to ELIMINAR_ADMINISTRADOR--><g id="link_ADMINISTRADORES_ELIMINAR_ADMINISTRADOR"><path d="M238.93,243.5694 C265.78,231.1694 295.17,217.6094 295.17,217.6094 C295.17,217.6094 667.83,217.6094 667.83,217.6094 C667.83,217.6094 701.49,229.9294 733.97,241.8194 " fill="none" id="ADMINISTRADORES-to-ELIMINAR_ADMINISTRADOR" style="stroke:#181818;stroke-width:1.0;"/><polygon fill="#181818" points="738.75,243.5694,731.6722,236.7206,734.0544,241.8515,728.9236,244.2336,738.75,243.5694" style="stroke:#181818;stroke-width:1.0;"/></g><!--MD5=[bb6559a9d75908ea633832ef6b4498fb]
reverse link ADMINISTRADORES to ELIMINAR_ADMINISTRADOR--><g id="link_ADMINISTRADORES_ELIMINAR_ADMINISTRADOR"><path d="M230.83,240.7594 C263.44,219.6694 306.83,191.6094 306.83,191.6094 C306.83,191.6094 656.17,191.6094 656.17,191.6094 C656.17,191.6094 714.61,222.2494 755.25,243.5494 " fill="none" id="ADMINISTRADORES-backto-ELIMINAR_ADMINISTRADOR" style="stroke:#181818;stroke-width:1.0;"/><polygon fill="#181818" points="226.51,243.5494,236.24,242.0239,230.7094,240.8355,231.8978,235.3049,226.51,243.5494" style="stroke:#181818;stroke-width:1.0;"/></g><!--MD5=[e8c2b76e721020994ebb22eec5183311]
link ADMINISTRADORES to LISTAR_ADMINISTRADOR--><g id="link_ADMINISTRADORES_LISTAR_ADMINISTRADOR"><path d="M238.93,243.5694 C265.78,231.1694 295.17,217.6094 295.17,217.6094 C295.17,217.6094 453.83,217.6094 453.83,217.6094 C453.83,217.6094 485.36,229.8294 515.91,241.6694 " fill="none" id="ADMINISTRADORES-to-LISTAR_ADMINISTRADOR" style="stroke:#181818;stroke-width:1.0;"/><polygon fill="#181818" points="520.8,243.5694,513.8659,236.5752,516.1411,241.7544,510.9619,244.0296,520.8,243.5694" style="stroke:#181818;stroke-width:1.0;"/></g><!--MD5=[07dbf8006a407c6567c3206d6b0cfdf8]
reverse link ADMINISTRADORES to LISTAR_ADMINISTRADOR--><g id="link_ADMINISTRADORES_LISTAR_ADMINISTRADOR"><path d="M230.83,240.7594 C263.44,219.6694 306.83,191.6094 306.83,191.6094 C306.83,191.6094 442.17,191.6094 442.17,191.6094 C442.17,191.6094 497.63,222.2494 536.19,243.5494 " fill="none" id="ADMINISTRADORES-backto-LISTAR_ADMINISTRADOR" style="stroke:#181818;stroke-width:1.0;"/><polygon fill="#181818" points="226.51,243.5494,236.24,242.0239,230.7094,240.8355,231.8978,235.3049,226.51,243.5494" style="stroke:#181818;stroke-width:1.0;"/></g><!--MD5=[cffc91a515bb5829127b3519d55e3f1d]
link ADMINISTRADORES to REALIZAR_PETICIÓN--><g id="link_ADMINISTRADORES_REALIZAR_PETICIÓN"><path d="M266.11,283.6094 C274.29,283.6094 285.68,283.6094 295.39,283.6094 " fill="none" id="ADMINISTRADORES-to-REALIZAR_PETICIÓN" style="stroke:#181818;stroke-width:1.0;"/><polygon fill="#181818" points="300.58,283.6094,291.58,279.6094,295.58,283.6094,291.58,287.6094,300.58,283.6094" style="stroke:#181818;stroke-width:1.0;"/></g><!--MD5=[efc92bcf2a8319d4c2a2bf773ec6c0bf]
reverse link ADMINISTRADORES to REALIZAR_PETICIÓN--><g id="link_ADMINISTRADORES_REALIZAR_PETICIÓN"><path d="M271.21,243.6094 C280.36,243.6094 291.74,243.6094 300.58,243.6094 " fill="none" id="ADMINISTRADORES-backto-REALIZAR_PETICIÓN" style="stroke:#181818;stroke-width:1.0;"/><polygon fill="#181818" points="266.11,243.6094,275.11,247.6094,271.11,243.6094,275.11,239.6094,266.11,243.6094" style="stroke:#181818;stroke-width:1.0;"/></g><!--MD5=[0876ba8a88d8bbcf732e506fae106d5c]
link INICIO to *end--><g id="link_INICIO_*end"><path d="M65.64,283.6294 C66.82,303.4394 68.5,331.6094 68.5,331.6094 C68.5,331.6094 99.51,351.4394 117.31,362.8194 " fill="none" id="INICIO-to-*end" style="stroke:#181818;stroke-width:1.0;"/><polygon fill="#181818" points="121.53,365.5094,116.1097,357.2862,117.3199,362.8121,111.7941,364.0223,121.53,365.5094" style="stroke:#181818;stroke-width:1.0;"/><text fill="#000000" font-family="sans-serif" font-size="13" lengthAdjust="spacing" textLength="79" x="69.5" y="328.1045">Cerrar Sesión</text></g><!--MD5=[0cb71d928789617a6509f6e93c713ea4]
link ADMINISTRADORES to *end--><g id="link_ADMINISTRADORES_*end"><path d="M183.39,284.0494 C169.88,305.7594 148.42,340.2294 137.08,358.4294 " fill="none" id="ADMINISTRADORES-to-*end" style="stroke:#181818;stroke-width:1.0;"/><polygon fill="#181818" points="134.43,362.6894,142.5836,357.165,137.0736,358.4454,135.7932,352.9353,134.43,362.6894" style="stroke:#181818;stroke-width:1.0;"/><text fill="#000000" font-family="sans-serif" font-size="13" lengthAdjust="spacing" textLength="79" x="165.5" y="328.1045">Cerrar Sesión</text></g><!--MD5=[a544594ea33026b8e302904bb086e1af]
@startuml Contexto
title Contexto Administrador

skinparam {
    NoteBackgroundColor #whiteSmoke
    NoteBorderColor #green
    linetype polyline
}

hide empty description

[*] - -> INICIAR_SESIÓN
INICIAR_SESIÓN - -> INICIO : Iniciar Sesión

INICIO -> ADMINISTRADORES
INICIO <- ADMINISTRADORES

ADMINISTRADORES -> CREAR_ADMINISTRADOR
ADMINISTRADORES <- CREAR_ADMINISTRADOR
ADMINISTRADORES -> EDITAR_ADMINISTRADOR
ADMINISTRADORES <- EDITAR_ADMINISTRADOR
ADMINISTRADORES -> ELIMINAR_ADMINISTRADOR
ADMINISTRADORES <- ELIMINAR_ADMINISTRADOR
ADMINISTRADORES -> LISTAR_ADMINISTRADOR
ADMINISTRADORES <- LISTAR_ADMINISTRADOR
ADMINISTRADORES -> REALIZAR_PETICIÓN
ADMINISTRADORES <- REALIZAR_PETICIÓN

INICIO - -> [*] : Cerrar Sesión
ADMINISTRADORES - -> [*] : Cerrar Sesión


@enduml

PlantUML version 1.2022.7(Mon Aug 22 19:01:30 CEST 2022)
(GPL source distribution)
Java Runtime: OpenJDK Runtime Environment
JVM: OpenJDK 64-Bit Server VM
Default Encoding: Cp1252
Language: es
Country: ES
--></g></svg>