<?xml version="1.0" encoding="UTF-8" standalone="no"?><svg xmlns="http://www.w3.org/2000/svg" xmlns:xlink="http://www.w3.org/1999/xlink" contentStyleType="text/css" height="773px" preserveAspectRatio="none" style="width:501px;height:773px;background:#FFFFFF;" version="1.1" viewBox="0 0 501 773" width="501px" zoomAndPan="magnify"><defs/><g><text fill="#000000" font-family="Arial" font-size="14" font-weight="bold" lengthAdjust="spacing" textLength="179" x="151" y="22.9951">Cancelación de cuenta</text><rect fill="#F1F1F1" height="40" rx="12.5" ry="12.5" style="stroke:#181818;stroke-width:0.5;" width="168" x="163.5" y="44.2969"/><text fill="#000000" font-family="Arial" font-size="14" lengthAdjust="spacing" textLength="158" x="168.5" y="69.1436">DASHBOARD_ABIERTO</text><path d="M19.5,194.2969 L475.5,194.2969 A12.5,12.5 0 0 1 488,206.7969 L488,220.5938 L7,220.5938 L7,206.7969 A12.5,12.5 0 0 1 19.5,194.2969 " fill="#F1F1F1" style="stroke:#F1F1F1;stroke-width:1.0;"/><rect fill="none" height="573.2969" rx="12.5" ry="12.5" style="stroke:#181818;stroke-width:0.5;" width="481" x="7" y="194.2969"/><line style="stroke:#181818;stroke-width:0.5;" x1="7" x2="488" y1="220.5938" y2="220.5938"/><text fill="#000000" font-family="Arial" font-size="14" lengthAdjust="spacing" textLength="154" x="170.5" y="212.292">CancelaciónDeCuenta</text><rect fill="#F1F1F1" height="40" rx="12.5" ry="12.5" style="stroke:#181818;stroke-width:0.5;" width="50" x="113" y="288.5938"/><text fill="#000000" font-family="Arial" font-size="14" lengthAdjust="spacing" textLength="4" x="136" y="313.4404"> </text><rect fill="#F1F1F1" height="40" rx="12.5" ry="12.5" style="stroke:#181818;stroke-width:0.5;" width="50" x="19" y="419.5938"/><text fill="#000000" font-family="Arial" font-size="14" lengthAdjust="spacing" textLength="4" x="42" y="444.4404"> </text><g id="elem_ComprobarRequisitos"><polygon fill="#F1F1F1" points="144,550.5938,156,562.5938,144,574.5938,132,562.5938,144,550.5938" style="stroke:#181818;stroke-width:0.5;"/></g><ellipse cx="138" cy="241.5938" fill="#222222" rx="10" ry="10" style="stroke:none;stroke-width:1.0;"/><rect fill="#F1F1F1" height="40" rx="12.5" ry="12.5" style="stroke:#181818;stroke-width:0.5;" width="156" x="66" y="611.5938"/><text fill="#000000" font-family="Arial" font-size="14" lengthAdjust="spacing" textLength="146" x="71" y="636.4404">UsuarioDeshabilitado</text><ellipse cx="144" cy="747.5938" fill="none" rx="10" ry="10" style="stroke:#222222;stroke-width:1.0;"/><ellipse cx="144.5" cy="748.0938" fill="#222222" rx="6" ry="6" style="stroke:none;stroke-width:1.0;"/><!--link *start*CancelaciónDeCuenta to 1--><g id="link_*start*CancelaciónDeCuenta_1"><path d="M138,251.6338 C138,259.7838 138,272.1538 138,283.1938 " fill="none" id="*start*CancelaciónDeCuenta-to-1" style="stroke:#008000;stroke-width:1.0;"/><polygon fill="#008000" points="138,288.4838,142,279.4838,138,283.4838,134,279.4838,138,288.4838" style="stroke:#008000;stroke-width:1.0;"/></g><!--link 1 to 2--><g id="link_1_2"><path d="M112.76,319.0238 C83.43,329.9838 39,346.5938 39,346.5938 C39,346.5938 39,396.5938 39,396.5938 C39,396.5938 40,405.0338 41.11,414.3438 " fill="none" id="1-to-2" style="stroke:#008000;stroke-width:1.0;"/><polygon fill="#008000" points="41.73,419.5638,44.6196,410.1483,41.1292,414.6,36.6775,411.1096,41.73,419.5638" style="stroke:#008000;stroke-width:1.0;"/><path d="M44,351.5938 L44,391.5938 L219,391.5938 L219,361.5938 L209,351.5938 L44,351.5938 " fill="#F5F5F5" style="stroke:#181818;stroke-width:0.5;"/><path d="M209,351.5938 L209,361.5938 L219,361.5938 L209,351.5938 " fill="#F5F5F5" style="stroke:#181818;stroke-width:0.5;"/><text fill="#000000" font-family="Arial" font-size="13" font-weight="bold" lengthAdjust="spacing" textLength="125" x="50" y="368.6606">Sistema muestra</text><text fill="#000000" font-family="Arial" font-size="13" lengthAdjust="spacing" textLength="154" x="50" y="383.7935">Confirmar la contraseña</text></g><!--link 2 to ComprobarRequisitos--><g id="link_2_ComprobarRequisitos"><path d="M47.94,459.6538 C53.5,486.6038 63,532.5938 63,532.5938 C63,532.5938 107.89,548.6637 130.84,556.8838 " fill="none" id="2-to-ComprobarRequisitos" style="stroke:#008000;stroke-width:1.0;"/><polygon fill="#008000" points="135.64,558.6038,128.5123,551.807,130.9319,556.9203,125.8187,559.3399,135.64,558.6038" style="stroke:#008000;stroke-width:1.0;"/><path d="M68,487.5938 L68,527.5938 L219,527.5938 L219,497.5938 L209,487.5938 L68,487.5938 " fill="#F5F5F5" style="stroke:#181818;stroke-width:0.5;"/><path d="M209,487.5938 L209,497.5938 L219,497.5938 L209,487.5938 " fill="#F5F5F5" style="stroke:#181818;stroke-width:0.5;"/><text fill="#000000" font-family="Arial" font-size="13" font-weight="bold" lengthAdjust="spacing" textLength="130" x="74" y="504.6606">Usuario introduce</text><text fill="#000000" font-family="Arial" font-size="13" lengthAdjust="spacing" textLength="74" x="74" y="519.7935">Contraseña</text></g><!--link ComprobarRequisitos to 1--><g id="link_ComprobarRequisitos_1"><path d="M152.26,558.6038 C172.7,551.1938 224,532.5938 224,532.5938 C224,532.5938 224,346.5938 224,346.5938 C224,346.5938 192.98,333.2438 168.2,322.5838 " fill="none" id="ComprobarRequisitos-to-1" style="stroke:#FF0000;stroke-width:1.0;"/><polygon fill="#FF0000" points="163.34,320.4938,170.0285,327.7231,167.9335,322.4685,173.1881,320.3735,163.34,320.4938" style="stroke:#FF0000;stroke-width:1.0;"/><path d="M229,419.5938 L229,459.5938 L479,459.5938 L479,429.5938 L469,419.5938 L229,419.5938 " fill="#F5F5F5" style="stroke:#181818;stroke-width:0.5;"/><path d="M469,419.5938 L469,429.5938 L479,429.5938 L469,419.5938 " fill="#F5F5F5" style="stroke:#181818;stroke-width:0.5;"/><text fill="#000000" font-family="Arial" font-size="13" font-weight="bold" lengthAdjust="spacing" textLength="125" x="235" y="436.6606">Sistema muestra</text><text fill="#000000" font-family="Arial" font-size="13" lengthAdjust="spacing" textLength="229" x="235" y="451.7935">Mensaje de error en datos enviados</text></g><!--link ComprobarRequisitos to UsuarioDeshabilitado--><g id="link_ComprobarRequisitos_UsuarioDeshabilitado"><path d="M144,574.6538 C144,583.2138 144,595.3938 144,606.2038 " fill="none" id="ComprobarRequisitos-to-UsuarioDeshabilitado" style="stroke:#008000;stroke-width:1.0;"/><polygon fill="#008000" points="144,611.3738,148,602.3738,144,606.3738,140,602.3738,144,611.3738" style="stroke:#008000;stroke-width:1.0;"/></g><!--link UsuarioDeshabilitado to *end*CancelaciónDeCuenta--><g id="link_UsuarioDeshabilitado_*end*CancelaciónDeCuenta"><path d="M144,651.6737 C144,674.4838 144,712.1138 144,732.4738 " fill="none" id="UsuarioDeshabilitado-to-*end*CancelaciónDeCuenta" style="stroke:#008000;stroke-width:1.0;"/><polygon fill="#008000" points="144,737.4938,148,728.4938,144,732.4938,140,728.4938,144,737.4938" style="stroke:#008000;stroke-width:1.0;"/><path d="M149,674.5938 L149,714.5938 L329,714.5938 L329,684.5938 L319,674.5938 L149,674.5938 " fill="#F5F5F5" style="stroke:#181818;stroke-width:0.5;"/><path d="M319,674.5938 L319,684.5938 L329,684.5938 L319,674.5938 " fill="#F5F5F5" style="stroke:#181818;stroke-width:0.5;"/><text fill="#000000" font-family="Arial" font-size="13" font-weight="bold" lengthAdjust="spacing" textLength="125" x="155" y="691.6606">Sistema muestra</text><text fill="#000000" font-family="Arial" font-size="13" lengthAdjust="spacing" textLength="159" x="155" y="706.7935">Mensaje de confirmación</text></g><!--link DASHBOARD_ABIERTO to CancelaciónDeCuenta--><g id="link_DASHBOARD_ABIERTO_CancelaciónDeCuenta"><path d="M247.5,84.4569 C247.5,106.2269 247.5,144.5669 247.5,189.0669 " fill="none" id="DASHBOARD_ABIERTO-to-CancelaciónDeCuenta" style="stroke:#008000;stroke-width:1.0;"/><polygon fill="#008000" points="247.5,194.2369,251.5,185.2369,247.5,189.2369,243.5,185.2369,247.5,194.2369" style="stroke:#008000;stroke-width:1.0;"/><path d="M252.5,119.2969 L252.5,159.2969 L396.5,159.2969 L396.5,129.2969 L386.5,119.2969 L252.5,119.2969 " fill="#F5F5F5" style="stroke:#181818;stroke-width:0.5;"/><path d="M386.5,119.2969 L386.5,129.2969 L396.5,129.2969 L386.5,119.2969 " fill="#F5F5F5" style="stroke:#181818;stroke-width:0.5;"/><text fill="#000000" font-family="Arial" font-size="13" font-weight="bold" lengthAdjust="spacing" textLength="112" x="258.5" y="136.3638">Usuario solicita</text><text fill="#000000" font-family="Arial" font-size="13" lengthAdjust="spacing" textLength="123" x="258.5" y="151.4966">Cancelar su cuenta</text></g><!--SRC=[dLBDYXD14BxtKnIxDo58zXm69ecYeBkGw6bPfAQxTbDcfclihZ44yQ74HzWNipAPZLaPKBnLry_tqrLvox75X0q4kiUkrjSIzHeRWZ8nrYwVwjUYD4U_VKZInR2GMX9SxZQij6vaIsUTPKgo6neU4b4ygxtZIBfl2LgfzxKzd4eBAb29gfWAJkIL9JgtuK10JQjxqvPzuhRFAsjDiC3egKRFZp-ZbS5t51MTMvRhD_ERShNyLCxVlbfzk859a5sS5CycbhGuzaSp1HB1b6pTh2e-vWuJ2sIfsRFYx6LLk64oGUwUU2W6ECmwbnMLHi6_EO1ZTGgOuG8kJechFnCBQTea5QOLVUauiqg6sSnlX3qLXRNTlhY3YRcOMZpjeokBdia7C0DhpaeDGjDHrdJK3mOVxparPg56yBRXX9aUVw2LJax0L1rmHwICCZrz5HkQXCxJRwvn-36FazlBHE5kCFQlTjvJpFYP3didkxLaB13mW4VnAsFe5V-DUJYBmSQIyWOhhctdGMnaBDr_ZotY_vJwOGVzZPph-_uB]--></g></svg>