<?xml version="1.0" encoding="UTF-8" standalone="no"?><svg xmlns="http://www.w3.org/2000/svg" xmlns:xlink="http://www.w3.org/1999/xlink" contentStyleType="text/css" height="768px" preserveAspectRatio="none" style="width:459px;height:768px;background:#FFFFFF;" version="1.1" viewBox="0 0 459 768" width="459px" zoomAndPan="magnify"><defs/><g><rect fill="none" height="26.0986" id="_title" style="stroke:none;stroke-width:1.0;" width="170" x="134.5" y="5"/><text fill="#000000" font-family="Arial" font-size="14" font-weight="bold" lengthAdjust="spacing" textLength="160" x="139.5" y="23.1318">Cancelación de cuenta</text><rect fill="#F1F1F1" height="40" rx="12.5" ry="12.5" style="stroke:#181818;stroke-width:0.5;" width="124" x="164.5" y="44.0986"/><text fill="#000000" font-family="Arial" font-size="14" lengthAdjust="spacing" textLength="114" x="169.5" y="69.1812">CONFIGURACIÓN</text><path d="M19.5,193.0986 L433.5,193.0986 A12.5,12.5 0 0 1 446,205.5986 L446,219.1973 L7,219.1973 L7,205.5986 A12.5,12.5 0 0 1 19.5,193.0986 " fill="#F1F1F1" style="stroke:#F1F1F1;stroke-width:1.0;"/><rect fill="none" height="569.0986" rx="12.5" ry="12.5" style="stroke:#181818;stroke-width:0.5;" width="439" x="7" y="193.0986"/><line style="stroke:#181818;stroke-width:0.5;" x1="7" x2="446" y1="219.1973" y2="219.1973"/><text fill="#000000" font-family="Arial" font-size="14" lengthAdjust="spacing" textLength="142" x="155.5" y="211.2305">CancelaciónDeCuenta</text><rect fill="#F1F1F1" height="40" rx="12.5" ry="12.5" style="stroke:#181818;stroke-width:0.5;" width="50" x="103" y="287.1973"/><text fill="#000000" font-family="Arial" font-size="14" lengthAdjust="spacing" textLength="4" x="126" y="312.2798"> </text><rect fill="#F1F1F1" height="40" rx="12.5" ry="12.5" style="stroke:#181818;stroke-width:0.5;" width="50" x="19" y="416.6973"/><text fill="#000000" font-family="Arial" font-size="14" lengthAdjust="spacing" textLength="4" x="42" y="441.7798"> </text><g id="elem_ComprobarRequisitos"><polygon fill="#F1F1F1" points="135,546.1973,147,558.1973,135,570.1973,123,558.1973,135,546.1973" style="stroke:#181818;stroke-width:0.5;"/></g><ellipse cx="128" cy="240.1973" fill="#222222" rx="10" ry="10" style="stroke:none;stroke-width:1.0;"/><rect fill="#F1F1F1" height="40" rx="12.5" ry="12.5" style="stroke:#181818;stroke-width:0.5;" width="144" x="63" y="607.1973"/><text fill="#000000" font-family="Arial" font-size="14" lengthAdjust="spacing" textLength="134" x="68" y="632.2798">UsuarioDeshabilitado</text><ellipse cx="135" cy="742.1973" fill="none" rx="10" ry="10" style="stroke:#222222;stroke-width:1.0;"/><ellipse cx="135.5" cy="742.6973" fill="#222222" rx="6" ry="6" style="stroke:none;stroke-width:1.0;"/><!--MD5=[06ecb8ec9215981c5aa086f2083bac40]
link *start*CancelaciónDeCuenta to 1--><g id="link_*start*CancelaciónDeCuenta_1"><path d="M128,250.2373 C128,258.3873 128,270.7573 128,281.7973 " fill="none" id="*start*CancelaciónDeCuenta-to-1" style="stroke:#008000;stroke-width:1.0;"/><polygon fill="#008000" points="128,287.0873,132,278.0873,128,282.0873,124,278.0873,128,287.0873" style="stroke:#008000;stroke-width:1.0;"/></g><!--MD5=[0ba0d8a0fd0e641c23f69743a446dfe6]
link 1 to 2--><g id="link_1_2"><path d="M102.93,318.5073 C76.3,329.4473 38,345.1973 38,345.1973 C38,345.1973 38,394.1973 38,394.1973 C38,394.1973 39.17,402.2873 40.48,411.3273 " fill="none" id="1-to-2" style="stroke:#008000;stroke-width:1.0;"/><polygon fill="#008000" points="41.21,416.4073,43.8855,406.9288,40.4969,411.4584,35.9673,408.0697,41.21,416.4073" style="stroke:#008000;stroke-width:1.0;"/><path d="M43,350.1973 L43,389.1973 L201,389.1973 L201,360.1973 L191,350.1973 L43,350.1973 " fill="#F5F5F5" style="stroke:#181818;stroke-width:0.5;"/><path d="M191,350.1973 L191,360.1973 L201,360.1973 L191,350.1973 " fill="#F5F5F5" style="stroke:#181818;stroke-width:0.5;"/><text fill="#000000" font-family="Arial" font-size="13" font-weight="bold" lengthAdjust="spacing" textLength="106" x="49" y="367.3911">Sistema muestra</text><text fill="#000000" font-family="Arial" font-size="13" lengthAdjust="spacing" textLength="137" x="49" y="382.3398">Confirmar la contraseña</text></g><!--MD5=[13909e73959e71170bc65ca165e7c964]
link 2 to ComprobarRequisitos--><g id="link_2_ComprobarRequisitos"><path d="M48.03,456.8873 C53.61,483.4573 63,528.1973 63,528.1973 C63,528.1973 101.48,543.6973 122.17,552.0273 " fill="none" id="2-to-ComprobarRequisitos" style="stroke:#008000;stroke-width:1.0;"/><polygon fill="#008000" points="127.02,553.9873,120.168,546.9127,122.3826,552.118,117.1772,554.3326,127.02,553.9873" style="stroke:#008000;stroke-width:1.0;"/><path d="M68,484.1973 L68,523.1973 L201,523.1973 L201,494.1973 L191,484.1973 L68,484.1973 " fill="#F5F5F5" style="stroke:#181818;stroke-width:0.5;"/><path d="M191,484.1973 L191,494.1973 L201,494.1973 L191,484.1973 " fill="#F5F5F5" style="stroke:#181818;stroke-width:0.5;"/><text fill="#000000" font-family="Arial" font-size="13" font-weight="bold" lengthAdjust="spacing" textLength="112" x="74" y="501.3911">Usuario introduce</text><text fill="#000000" font-family="Arial" font-size="13" lengthAdjust="spacing" textLength="66" x="74" y="516.3398">Contraseña</text></g><!--MD5=[c1b49b34dcfb68e63dee6960720ec1d8]
link ComprobarRequisitos to 1--><g id="link_ComprobarRequisitos_1"><path d="M142.87,553.9873 C161.36,546.4373 206,528.1973 206,528.1973 C206,528.1973 206,345.1973 206,345.1973 C206,345.1973 179.77,332.7573 157.74,322.3073 " fill="none" id="ComprobarRequisitos-to-1" style="stroke:#FF0000;stroke-width:1.0;"/><polygon fill="#FF0000" points="153.11,320.1073,159.5252,327.5802,157.6269,322.2514,162.9558,320.3531,153.11,320.1073" style="stroke:#FF0000;stroke-width:1.0;"/><path d="M211,417.1973 L211,456.1973 L437,456.1973 L437,427.1973 L427,417.1973 L211,417.1973 " fill="#F5F5F5" style="stroke:#181818;stroke-width:0.5;"/><path d="M427,417.1973 L427,427.1973 L437,427.1973 L427,417.1973 " fill="#F5F5F5" style="stroke:#181818;stroke-width:0.5;"/><text fill="#000000" font-family="Arial" font-size="13" font-weight="bold" lengthAdjust="spacing" textLength="106" x="217" y="434.3911">Sistema muestra</text><text fill="#000000" font-family="Arial" font-size="13" lengthAdjust="spacing" textLength="205" x="217" y="449.3398">Mensaje de error en datos enviados</text></g><!--MD5=[175b3c26eca590134f55bef93cd8beb1]
link ComprobarRequisitos to UsuarioDeshabilitado--><g id="link_ComprobarRequisitos_UsuarioDeshabilitado"><path d="M135,570.2573 C135,578.8173 135,590.9973 135,601.8073 " fill="none" id="ComprobarRequisitos-to-UsuarioDeshabilitado" style="stroke:#008000;stroke-width:1.0;"/><polygon fill="#008000" points="135,606.9773,139,597.9773,135,601.9773,131,597.9773,135,606.9773" style="stroke:#008000;stroke-width:1.0;"/></g><!--MD5=[4d34fd25b8d531c66bbc55ad44978407]
link UsuarioDeshabilitado to *end*CancelaciónDeCuenta--><g id="link_UsuarioDeshabilitado_*end*CancelaciónDeCuenta"><path d="M135,647.3673 C135,669.8173 135,706.4873 135,726.6973 " fill="none" id="UsuarioDeshabilitado-to-*end*CancelaciónDeCuenta" style="stroke:#008000;stroke-width:1.0;"/><polygon fill="#008000" points="135,731.9373,139,722.9373,135,726.9373,131,722.9373,135,731.9373" style="stroke:#008000;stroke-width:1.0;"/><path d="M140,670.1973 L140,709.1973 L305,709.1973 L305,680.1973 L295,670.1973 L140,670.1973 " fill="#F5F5F5" style="stroke:#181818;stroke-width:0.5;"/><path d="M295,670.1973 L295,680.1973 L305,680.1973 L295,670.1973 " fill="#F5F5F5" style="stroke:#181818;stroke-width:0.5;"/><text fill="#000000" font-family="Arial" font-size="13" font-weight="bold" lengthAdjust="spacing" textLength="106" x="146" y="687.3911">Sistema muestra</text><text fill="#000000" font-family="Arial" font-size="13" lengthAdjust="spacing" textLength="144" x="146" y="702.3398">Mensaje de confirmación</text></g><!--MD5=[521fd2f0e62ea4b347b04daef375e201]
link CONFIGURACIÓN to CancelaciónDeCuenta--><g id="link_CONFIGURACIÓN_CancelaciónDeCuenta"><path d="M226.5,84.1186 C226.5,105.6586 226.5,143.5286 226.5,187.5086 " fill="none" id="CONFIGURACIÓN-to-CancelaciónDeCuenta" style="stroke:#008000;stroke-width:1.0;"/><polygon fill="#008000" points="226.5,192.6186,230.5,183.6186,226.5,187.6186,222.5,183.6186,226.5,192.6186" style="stroke:#008000;stroke-width:1.0;"/><path d="M231.5,119.0986 L231.5,158.0986 L364.5,158.0986 L364.5,129.0986 L354.5,119.0986 L231.5,119.0986 " fill="#F5F5F5" style="stroke:#181818;stroke-width:0.5;"/><path d="M354.5,119.0986 L354.5,129.0986 L364.5,129.0986 L354.5,119.0986 " fill="#F5F5F5" style="stroke:#181818;stroke-width:0.5;"/><text fill="#000000" font-family="Arial" font-size="13" font-weight="bold" lengthAdjust="spacing" textLength="97" x="237.5" y="136.2925">Usuario solicita</text><text fill="#000000" font-family="Arial" font-size="13" lengthAdjust="spacing" textLength="112" x="237.5" y="151.2412">Cancelar su cuenta</text></g><!--MD5=[c93f48beb06c2c7c00a209b3de3e2eb8]
@startuml
skinparam defaultFontName Arial
skinparam NoteBackgroundColor #whiteSmoke
skinparam ArrowColor #green
skinparam Linetype polyline
top to bottom direction

hide empty description
title Cancelación de cuenta

CONFIGURACIÓN -down-> CancelaciónDeCuenta
note on link
<b>Usuario solicita</b>
Cancelar su cuenta
end note

state CancelaciónDeCuenta{
  state 1 as " "
  state 2 as " "
  state ComprobarRequisitos <<choice>>
  [*] - -> 1
  1 - -> 2
  note on link
  <b>Sistema muestra</b>
  Confirmar la contraseña
  end note
  2 - -> ComprobarRequisitos
  note on link
  <b>Usuario introduce</b>
  Contraseña
  end note
  ComprobarRequisitos -[#red]-> 1
  note on link
  <b>Sistema muestra</b>
  Mensaje de error en datos enviados
  end note
  ComprobarRequisitos -down-> UsuarioDeshabilitado
  UsuarioDeshabilitado - -> [*]
  note on link
  <b>Sistema muestra</b>
  Mensaje de confirmación
  end note
}
@enduml

PlantUML version 1.2022.7(Mon Aug 22 19:01:30 CEST 2022)
(GPL source distribution)
Java Runtime: Java(TM) SE Runtime Environment
JVM: Java HotSpot(TM) 64-Bit Server VM
Default Encoding: Cp1252
Language: es
Country: ES
--></g></svg>