<?xml version="1.0" encoding="us-ascii" standalone="no"?><svg xmlns="http://www.w3.org/2000/svg" xmlns:xlink="http://www.w3.org/1999/xlink" contentStyleType="text/css" height="1129px" preserveAspectRatio="none" style="width:626px;height:1129px;background:#FFFFFF;" version="1.1" viewBox="0 0 626 1129" width="626px" zoomAndPan="magnify"><defs/><g><ellipse cx="310" cy="16" fill="#222222" rx="10" ry="10" style="stroke:#222222;stroke-width:1.0;"/><path d="M175.5,86 L444,86 A12.5,12.5 0 0 1 456.5,98.5 L456.5,112.2969 L163,112.2969 L163,98.5 A12.5,12.5 0 0 1 175.5,86 " fill="#F1F1F1" style="stroke:#F1F1F1;stroke-width:1.0;"/><rect fill="none" height="617.2969" rx="12.5" ry="12.5" style="stroke:#181818;stroke-width:0.5;" width="293.5" x="163" y="86"/><line style="stroke:#181818;stroke-width:0.5;" x1="163" x2="456.5" y1="112.2969" y2="112.2969"/><text fill="#000000" font-family="sans-serif" font-size="14" lengthAdjust="spacing" textLength="170" x="224.75" y="103.9951">RegistrandoseEnAlumni</text><ellipse cx="241.5" cy="133.2969" fill="#222222" rx="10" ry="10" style="stroke:#222222;stroke-width:1.0;"/><g id="RegistrandoseEnAlumni.AjenoAlSistema"><rect fill="#F1F1F1" height="50" rx="12.5" ry="12.5" style="stroke:#181818;stroke-width:0.5;" width="133" x="175" y="180.2969"/><line style="stroke:#181818;stroke-width:0.5;" x1="175" x2="308" y1="206.5938" y2="206.5938"/><text fill="#000000" font-family="sans-serif" font-size="14" lengthAdjust="spacing" textLength="113" x="185" y="198.292">AjenoAlSistema</text></g><g id="elem_accion"><polygon fill="#F1F1F1" points="241.5,283.2969,253.5,295.2969,241.5,307.2969,229.5,295.2969,241.5,283.2969" style="stroke:#181818;stroke-width:0.5;"/></g><ellipse cx="205.5" cy="565.2969" fill="none" rx="11" ry="11" style="stroke:#222222;stroke-width:1.0;"/><ellipse cx="205.5" cy="565.2969" fill="#222222" rx="6" ry="6" style="stroke:#222222;stroke-width:1.0;"/><g id="RegistrandoseEnAlumni.IdentificandoUsuario"><rect fill="#F1F1F1" height="50" rx="12.5" ry="12.5" style="stroke:#181818;stroke-width:0.5;" width="166" x="233.5" y="360.2969"/><line style="stroke:#181818;stroke-width:0.5;" x1="233.5" x2="399.5" y1="386.5938" y2="386.5938"/><text fill="#000000" font-family="sans-serif" font-size="14" lengthAdjust="spacing" textLength="146" x="243.5" y="378.292">IdentificandoUsuario</text></g><g id="elem_accion1"><polygon fill="#F1F1F1" points="316.5,463.2969,328.5,475.2969,316.5,487.2969,304.5,475.2969,316.5,463.2969" style="stroke:#181818;stroke-width:0.5;"/></g><g id="RegistrandoseEnAlumni.RellenandoFormulario"><rect fill="#F1F1F1" height="50" rx="12.5" ry="12.5" style="stroke:#181818;stroke-width:0.5;" width="176" x="234.5" y="540.2969"/><line style="stroke:#181818;stroke-width:0.5;" x1="234.5" x2="410.5" y1="566.5938" y2="566.5938"/><text fill="#000000" font-family="sans-serif" font-size="14" lengthAdjust="spacing" textLength="156" x="244.5" y="558.292">RellenandoFormulario</text></g><g id="RegistrandoseEnAlumni.UsuarioAlumni"><rect fill="#F1F1F1" height="50" rx="12.5" ry="12.5" style="stroke:#181818;stroke-width:0.5;" width="120" x="262.5" y="643.2969"/><line style="stroke:#181818;stroke-width:0.5;" x1="262.5" x2="382.5" y1="669.5938" y2="669.5938"/><text fill="#000000" font-family="sans-serif" font-size="14" lengthAdjust="spacing" textLength="100" x="272.5" y="661.292">UsuarioAlumni</text></g><!--link *start*RegistrandoseEnAlumni to AjenoAlSistema--><g id="link_*start*RegistrandoseEnAlumni_AjenoAlSistema"><path d="M241.5,143.4479 C241.5,152.7129 241.5,161.4379 241.5,174.0809 " fill="none" id="*start*RegistrandoseEnAlumni-to-AjenoAlSistema" style="stroke:#181818;stroke-width:1.0;"/><polygon fill="#181818" points="241.5,180.0809,245.5,171.0809,241.5,175.0809,237.5,171.0809,241.5,180.0809" style="stroke:#181818;stroke-width:1.0;"/></g><!--link AjenoAlSistema to accion--><g id="link_AjenoAlSistema_accion"><path d="M241.5,230.3429 C241.5,247.4419 241.5,263.6409 241.5,276.8829 " fill="none" id="AjenoAlSistema-to-accion" style="stroke:#181818;stroke-width:1.0;"/><polygon fill="#181818" points="241.5,282.8829,245.5,273.8829,241.5,277.8829,237.5,273.8829,241.5,282.8829" style="stroke:#181818;stroke-width:1.0;"/><text fill="#000000" font-family="sans-serif" font-size="13" lengthAdjust="spacing" textLength="193" x="242.5" y="261.3638">quiere formar parte de alumni</text></g><!--link accion to *end*RegistrandoseEnAlumni--><g id="link_accion_*end*RegistrandoseEnAlumni"><path d="M238.7264,304.8899 C234.9053,317.0789 228.0881,340.1499 224.5,360.2969 C211.4028,433.8369 207.2387,518.0033 206.0822,548.0313 " fill="none" id="accion-to-*end*RegistrandoseEnAlumni" style="stroke:#181818;stroke-width:1.0;"/><polygon fill="#181818" points="205.8513,554.0269,210.1947,545.1875,206.0437,549.0306,202.2006,544.8796,205.8513,554.0269" style="stroke:#181818;stroke-width:1.0;"/><text fill="#000000" font-family="sans-serif" font-size="13" lengthAdjust="spacing" textLength="16" x="216.5" y="441.3638">no</text></g><!--link accion to IdentificandoUsuario--><g id="link_accion_IdentificandoUsuario"><path d="M246.6551,302.3459 C256.6497,314.0729 275.262,335.9114 292.041,355.5984 " fill="none" id="accion-to-IdentificandoUsuario" style="stroke:#181818;stroke-width:1.0;"/><polygon fill="#181818" points="295.933,360.1649,293.1394,350.7205,292.6897,356.3595,287.0508,355.9098,295.933,360.1649" style="stroke:#181818;stroke-width:1.0;"/><text fill="#000000" font-family="sans-serif" font-size="13" lengthAdjust="spacing" textLength="10" x="280.5" y="338.3638">si</text></g><!--link IdentificandoUsuario to accion1--><g id="link_IdentificandoUsuario_accion1"><path d="M316.5,410.3429 C316.5,427.4419 316.5,443.6409 316.5,456.8829 " fill="none" id="IdentificandoUsuario-to-accion1" style="stroke:#181818;stroke-width:1.0;"/><polygon fill="#181818" points="316.5,462.8829,320.5,453.8829,316.5,457.8829,312.5,453.8829,316.5,462.8829" style="stroke:#181818;stroke-width:1.0;"/><text fill="#000000" font-family="sans-serif" font-size="13" lengthAdjust="spacing" textLength="113" x="317.5" y="441.3638">cumple requisitos</text></g><!--link accion1 to *end*RegistrandoseEnAlumni--><g id="link_accion1_*end*RegistrandoseEnAlumni"><path d="M309.42,480.3869 C293.471,489.7829 253.909,514.1219 225.5,540.2969 C220.3943,545.0009 219.0605,546.2512 215.3369,551.0752 " fill="none" id="accion1-to-*end*RegistrandoseEnAlumni" style="stroke:#181818;stroke-width:1.0;"/><polygon fill="#181818" points="211.6707,555.8249,220.3364,551.1446,214.7259,551.8668,214.0036,546.2563,211.6707,555.8249" style="stroke:#181818;stroke-width:1.0;"/><text fill="#000000" font-family="sans-serif" font-size="13" lengthAdjust="spacing" textLength="16" x="269.5" y="518.3638">no</text></g><!--link accion1 to RellenandoFormulario--><g id="link_accion1_RellenandoFormulario"><path d="M317.212,486.7369 C318.106,499.8489 319.2589,516.7648 320.4539,534.2938 " fill="none" id="accion1-to-RellenandoFormulario" style="stroke:#181818;stroke-width:1.0;"/><polygon fill="#181818" points="320.862,540.2799,324.2406,531.0287,320.5219,535.2915,316.2591,531.5728,320.862,540.2799" style="stroke:#181818;stroke-width:1.0;"/><text fill="#000000" font-family="sans-serif" font-size="13" lengthAdjust="spacing" textLength="10" x="320.5" y="518.3638">si</text></g><!--link RellenandoFormulario to UsuarioAlumni--><g id="link_RellenandoFormulario_UsuarioAlumni"><path d="M322.5,590.4889 C322.5,606.3626 322.5,621.0478 322.5,636.9522 " fill="none" id="RellenandoFormulario-to-UsuarioAlumni" style="stroke:#181818;stroke-width:1.0;"/><polygon fill="#181818" points="322.5,642.9522,326.5,633.9522,322.5,637.9522,318.5,633.9522,322.5,642.9522" style="stroke:#181818;stroke-width:1.0;"/><text fill="#000000" font-family="sans-serif" font-size="13" lengthAdjust="spacing" textLength="123" x="323.5" y="621.3638">Formulario enviado</text></g><path d="M19.5,763 L600.5099,763 A12.5,12.5 0 0 1 613.0099,775.5 L613.0099,789.2969 L7,789.2969 L7,775.5 A12.5,12.5 0 0 1 19.5,763 " fill="#F1F1F1" style="stroke:#F1F1F1;stroke-width:1.0;"/><rect fill="none" height="360.2969" rx="12.5" ry="12.5" style="stroke:#181818;stroke-width:0.5;" width="606.0099" x="7" y="763"/><line style="stroke:#181818;stroke-width:0.5;" x1="7" x2="613.0099" y1="789.2969" y2="789.2969"/><text fill="#000000" font-family="sans-serif" font-size="14" lengthAdjust="spacing" textLength="49" x="285.5049" y="780.9951">Alumni</text><ellipse cx="237.0099" cy="810.2969" fill="#222222" rx="10" ry="10" style="stroke:#222222;stroke-width:1.0;"/><g id="Alumni.Egresado"><rect fill="#F1F1F1" height="50" rx="12.5" ry="12.5" style="stroke:#181818;stroke-width:0.5;" width="86" x="194.0099" y="857.2969"/><line style="stroke:#181818;stroke-width:0.5;" x1="194.0099" x2="280.0099" y1="883.5938" y2="883.5938"/><text fill="#000000" font-family="sans-serif" font-size="14" lengthAdjust="spacing" textLength="66" x="204.0099" y="875.292">Egresado</text></g><g id="Alumni.Suscrito"><rect fill="#F1F1F1" height="50" rx="12.5" ry="12.5" style="stroke:#181818;stroke-width:0.5;" width="78" x="31.0103" y="960.2969"/><line style="stroke:#181818;stroke-width:0.5;" x1="31.0103" x2="109.0103" y1="986.5938" y2="986.5938"/><text fill="#000000" font-family="sans-serif" font-size="14" lengthAdjust="spacing" textLength="58" x="41.0103" y="978.292">Suscrito</text></g><g id="Alumni.RealizandoPago"><rect fill="#F1F1F1" height="50" rx="12.5" ry="12.5" style="stroke:#181818;stroke-width:0.5;" width="133" x="263.5099" y="960.2969"/><line style="stroke:#181818;stroke-width:0.5;" x1="263.5099" x2="396.5099" y1="986.5938" y2="986.5938"/><text fill="#000000" font-family="sans-serif" font-size="14" lengthAdjust="spacing" textLength="113" x="273.5099" y="978.292">RealizandoPago</text></g><g id="Alumni.SuscripcionPago"><rect fill="#F1F1F1" height="50" rx="12.5" ry="12.5" style="stroke:#181818;stroke-width:0.5;" width="137" x="260.5099" y="1063.2969"/><line style="stroke:#181818;stroke-width:0.5;" x1="260.5099" x2="397.5099" y1="1089.5938" y2="1089.5938"/><text fill="#000000" font-family="sans-serif" font-size="14" lengthAdjust="spacing" textLength="117" x="270.5099" y="1081.292">SuscripcionPago</text></g><ellipse cx="536.0099" cy="985.2969" fill="none" rx="11" ry="11" style="stroke:#222222;stroke-width:1.0;"/><ellipse cx="536.0099" cy="985.2969" fill="#222222" rx="6" ry="6" style="stroke:#222222;stroke-width:1.0;"/><!--link *start*Alumni to Egresado--><g id="link_*start*Alumni_Egresado"><path d="M237.0099,820.4479 C237.0099,829.7129 237.0099,838.4379 237.0099,851.0809 " fill="none" id="*start*Alumni-to-Egresado" style="stroke:#181818;stroke-width:1.0;"/><polygon fill="#181818" points="237.0099,857.0809,241.0099,848.0809,237.0099,852.0809,233.0099,848.0809,237.0099,857.0809" style="stroke:#181818;stroke-width:1.0;"/></g><!--link Egresado to Suscrito--><g id="link_Egresado_Suscrito"><path d="M193.6429,885.7259 C138.6609,889.8159 48.5298,900.2439 28.0103,925.2969 C18.928,936.3859 22.017,945.0599 32.9491,955.9729 " fill="none" id="Egresado-to-Suscrito" style="stroke:#181818;stroke-width:1.0;"/><polygon fill="#181818" points="37.1955,960.2119,33.6519,951.0226,33.6569,956.6794,28,956.6844,37.1955,960.2119" style="stroke:#181818;stroke-width:1.0;"/><text fill="#000000" font-family="sans-serif" font-size="13" lengthAdjust="spacing" textLength="72" x="29.0103" y="938.3638">se suscribe</text></g><!--link Egresado to RealizandoPago--><g id="link_Egresado_RealizandoPago"><path d="M231.7959,907.4309 C230.6579,918.8579 231.3879,932.1839 238.0099,942.2969 C244.2619,951.8449 248.0718,956.257 258.0328,961.995 " fill="none" id="Egresado-to-RealizandoPago" style="stroke:#181818;stroke-width:1.0;"/><polygon fill="#181818" points="263.2319,964.9899,257.4299,957.0314,258.8993,962.4941,253.4366,963.9636,263.2319,964.9899" style="stroke:#181818;stroke-width:1.0;"/><text fill="#000000" font-family="sans-serif" font-size="13" lengthAdjust="spacing" textLength="161" x="239.0099" y="938.3638">se suscribe a un paquete</text></g><!--link RealizandoPago to SuscripcionPago--><g id="link_RealizandoPago_SuscripcionPago"><path d="M294.9269,1010.3639 C289.6829,1015.6266 285.0299,1021.6418 282.0099,1028.2969 C276.2739,1040.9379 279.0623,1049.0246 289.3193,1059.0848 " fill="none" id="RealizandoPago-to-SuscripcionPago" style="stroke:#181818;stroke-width:1.0;"/><polygon fill="#181818" points="293.6029,1063.2862,289.9785,1054.1285,290.0333,1059.7851,284.3767,1059.8398,293.6029,1063.2862" style="stroke:#181818;stroke-width:1.0;"/><text fill="#000000" font-family="sans-serif" font-size="13" lengthAdjust="spacing" textLength="72" x="283.0099" y="1041.3638">se suscribe</text></g><!--link SuscripcionPago to RealizandoPago--><g id="link_SuscripcionPago_RealizandoPago"><path d="M347.8059,1063.1285 C351.1839,1057.5574 354.2029,1051.4515 356.0099,1045.2969 C359.4799,1033.483 358.1674,1026.1248 352.1194,1015.6473 " fill="none" id="SuscripcionPago-to-RealizandoPago" style="stroke:#181818;stroke-width:1.0;"/><polygon fill="#181818" points="349.1199,1010.4509,350.1549,1020.2452,351.6195,1014.7812,357.0835,1016.2458,349.1199,1010.4509" style="stroke:#181818;stroke-width:1.0;"/><text fill="#000000" font-family="sans-serif" font-size="13" lengthAdjust="spacing" textLength="88" x="359.0099" y="1041.3638">se desuscribe</text></g><!--link Suscrito to Egresado--><g id="link_Suscrito_Egresado"><path d="M94.4569,960.1979 C107.0515,948.6439 123.081,935.1989 139.0099,925.2969 C155.9889,914.7429 170.5129,907.8469 188.0729,900.8239 " fill="none" id="Suscrito-to-Egresado" style="stroke:#181818;stroke-width:1.0;"/><polygon fill="#181818" points="193.6439,898.5959,183.802,898.224,189.0014,900.4526,186.7728,905.652,193.6439,898.5959" style="stroke:#181818;stroke-width:1.0;"/><text fill="#000000" font-family="sans-serif" font-size="13" lengthAdjust="spacing" textLength="88" x="140.0099" y="938.3638">se desuscribe</text></g><!--link RealizandoPago to Egresado--><g id="link_RealizandoPago_Egresado"><path d="M386.6249,960.2379 C401.6149,950.4349 411.1319,938.3369 401.0099,925.2969 C386.3229,906.3739 329.7933,895.3569 286.3423,889.2429 " fill="none" id="RealizandoPago-to-Egresado" style="stroke:#181818;stroke-width:1.0;"/><polygon fill="#181818" points="280.4009,888.4069,288.7557,893.6219,285.3521,889.1036,289.8704,885.6999,280.4009,888.4069" style="stroke:#181818;stroke-width:1.0;"/><text fill="#000000" font-family="sans-serif" font-size="13" lengthAdjust="spacing" textLength="88" x="407.0099" y="938.3638">deja de pagar</text></g><!--link Egresado to *end*Alumni--><g id="link_Egresado_*end*Alumni"><path d="M280.1319,885.8289 C345.2499,890.3669 464.8219,901.7039 500.0099,925.2969 C517.7509,937.1919 526.2313,955.4097 530.9683,968.8567 " fill="none" id="Egresado-to-*end*Alumni" style="stroke:#181818;stroke-width:1.0;"/><polygon fill="#181818" points="532.9619,974.5159,533.7443,964.6981,531.3006,969.7999,526.1988,967.3562,532.9619,974.5159" style="stroke:#181818;stroke-width:1.0;"/><text fill="#000000" font-family="sans-serif" font-size="13" lengthAdjust="spacing" textLength="86" x="517.0099" y="938.3638">se da de baja</text></g><!--link *start* to RegistrandoseEnAlumni--><g id="link_*start*_RegistrandoseEnAlumni"><path d="M310,26.31 C310,37.74 310,52.96 310,79.65 " fill="none" id="*start*-to-RegistrandoseEnAlumni" style="stroke:#181818;stroke-width:1.0;"/><polygon fill="#181818" points="310,85.65,314,76.65,310,80.65,306,76.65,310,85.65" style="stroke:#181818;stroke-width:1.0;"/></g><!--link RegistrandoseEnAlumni to Alumni--><g id="link_RegistrandoseEnAlumni_Alumni"><path d="M310,703.092 C310,723.359 310,737.369 310,756.667 " fill="none" id="RegistrandoseEnAlumni-to-Alumni" style="stroke:#181818;stroke-width:1.0;"/><polygon fill="#181818" points="310,762.667,314,753.667,310,757.667,306,753.667,310,762.667" style="stroke:#181818;stroke-width:1.0;"/></g><!--SRC=[RP8_Ry8m4CLtVuhhLAaI0oj2I0nKwbQ1EbKT3kS8Xnmx-4-7LdptdaqeISWM-txltlDTdf_YaHe2RBX6fJvVlc0sMy6MQWxHewrSe8rTczHOLYf4Z3HT_CrQaQvFPDtQx8IW1jMkA51hTXQMItrqh6crKaEiU7RG0iw9oHCSd6_GGujUEbJIv1gYmx8Yfrs0TT2_VAl8HZwmpla-GaBFJgZ0WoppVfX9oJtINEGwDQqXy2JX0aSNrAqct2r7_svBnf3D3L_b7SdSOqnMibldV9sdiBqosM_6oYbrKPFJB_fkIzSb3RUogJs5tE3sKGIx5BINn-HS1A6SzZHajeI6VxBREzOZ4X2IbGMT4qLI8_9kqEQXFAhLk5gczkXMqKWH2_gVSWnDvEYn5Pqm_qqjrkW7JvL9BNAdKjxZ2TNb3m00]--></g></svg>