<?xml version="1.0" encoding="UTF-8" standalone="no"?><svg xmlns="http://www.w3.org/2000/svg" xmlns:xlink="http://www.w3.org/1999/xlink" contentStyleType="text/css" height="828px" preserveAspectRatio="none" style="width:487px;height:828px;background:#FFFFFF;" version="1.1" viewBox="0 0 487 828" width="487px" zoomAndPan="magnify"><defs/><g><rect fill="none" height="29.0679" id="_title" style="stroke:none;stroke-width:1.0;" width="125" x="171" y="5"/><text fill="#000000" font-family="sans-serif" font-size="14" font-weight="bold" lengthAdjust="spacing" textLength="115" x="176" y="24.9659">Eliminar Servicio</text><rect fill="#F1F1F1" height="40" rx="12.5" ry="12.5" style="stroke:#181818;stroke-width:0.5;" width="148" x="166.5" y="47.0679"/><text fill="#000000" font-family="sans-serif" font-size="14" lengthAdjust="spacing" textLength="138" x="171.5" y="72.4999">GESTIÓN_SERVICIOS</text><rect fill="#F1F1F1" height="40" rx="12.5" ry="12.5" style="stroke:#181818;stroke-width:0.5;" width="148" x="166.5" y="782.1379"/><text fill="#000000" font-family="sans-serif" font-size="14" lengthAdjust="spacing" textLength="138" x="171.5" y="807.5699">GESTIÓN_SERVICIOS</text><path d="M19.5,202.0679 L461.5,202.0679 A12.5,12.5 0 0 1 474,214.5679 L474,231.1358 L7,231.1358 L7,214.5679 A12.5,12.5 0 0 1 19.5,202.0679 " fill="#F1F1F1" style="stroke:#F1F1F1;stroke-width:1.0;"/><rect fill="none" height="519.0679" rx="12.5" ry="12.5" style="stroke:#181818;stroke-width:0.5;" width="467" x="7" y="202.0679"/><line style="stroke:#181818;stroke-width:0.5;" x1="7" x2="474" y1="231.1358" y2="231.1358"/><text fill="#000000" font-family="sans-serif" font-size="14" lengthAdjust="spacing" textLength="108" x="186.5" y="222.0339">EliminarServicio</text><rect fill="#F1F1F1" height="40" rx="12.5" ry="12.5" style="stroke:#181818;stroke-width:0.5;" width="50" x="110" y="299.1358"/><text fill="#000000" font-family="sans-serif" font-size="14" lengthAdjust="spacing" textLength="4" x="133" y="324.5678"> </text><rect fill="#F1F1F1" height="40" rx="12.5" ry="12.5" style="stroke:#181818;stroke-width:0.5;" width="50" x="19" y="437.6358"/><text fill="#000000" font-family="sans-serif" font-size="14" lengthAdjust="spacing" textLength="4" x="42" y="463.0678"> </text><g id="elem_4"><polygon fill="#F1F1F1" points="122,576.1358,134,588.1358,122,600.1358,110,588.1358,122,576.1358" style="stroke:#181818;stroke-width:0.5;"/></g><ellipse cx="135" cy="252.1358" fill="#222222" rx="10" ry="10" style="stroke:none;stroke-width:1.0;"/><ellipse cx="122" cy="701.1358" fill="none" rx="10" ry="10" style="stroke:#222222;stroke-width:1.0;"/><ellipse cx="122.5" cy="701.6358" fill="#222222" rx="6" ry="6" style="stroke:none;stroke-width:1.0;"/><!--MD5=[81054034d30428b1a7219c7c8b02e8f5]
link *start*EliminarServicio to 2--><g id="link_*start*EliminarServicio_2"><path d="M135,262.4458 C135,270.2358 135,281.7358 135,292.2658 " fill="none" id="*start*EliminarServicio-to-2" style="stroke:#008000;stroke-width:1.0;"/><polygon fill="#008000" points="135,297.1458,139,288.1458,135,292.1458,131,288.1458,135,297.1458" style="stroke:#008000;stroke-width:1.0;"/></g><!--MD5=[eeb69082328d10abd3b14fdeede0d8a3]
link 2 to 3--><g id="link_2_3"><path d="M109.78,335.1858 C92.62,345.4258 73,357.1358 73,357.1358 C73,357.1358 59.94,401.9358 51.35,431.4158 " fill="none" id="2-to-3" style="stroke:#008000;stroke-width:1.0;"/><polygon fill="#008000" points="50.02,435.9958,56.38,428.4758,51.42,431.1958,48.7,426.2358,50.02,435.9958" style="stroke:#008000;stroke-width:1.0;"/><path d="M78,362.1358 L78,407.1358 L208,407.1358 L208,372.1358 L198,362.1358 L78,362.1358 " fill="#F5F5F5" style="stroke:#181818;stroke-width:0.5;"/><path d="M198,362.1358 L198,372.1358 L208,372.1358 L198,362.1358 " fill="#F5F5F5" style="stroke:#181818;stroke-width:0.5;"/><text fill="#000000" font-family="sans-serif" font-size="13" font-weight="bold" lengthAdjust="spacing" textLength="108" x="84" y="381.0328">Sistema Permite</text><ellipse cx="89.5" cy="395.0479" fill="#000000" rx="2.5" ry="2.5" style="stroke:#000000;stroke-width:0.0;"/><text fill="#000000" font-family="sans-serif" font-size="13" lengthAdjust="spacing" textLength="97" x="96" y="398.7389">Eliminar Servicio</text></g><!--MD5=[b1f22f0c97e7f2b556a5a2d67c42ac53]
link 3 to 4--><g id="link_3_4"><path d="M32.67,478.0258 C25.67,490.0158 18,503.1358 18,503.1358 C18,503.1358 18,558.1358 18,558.1358 C18,558.1358 78.49,575.0058 107.2,583.0058 " fill="none" id="3-to-4" style="stroke:#008000;stroke-width:1.0;"/><polygon fill="#008000" points="111.68,584.2558,104.0856,577.9848,106.8638,582.9125,101.9362,585.6907,111.68,584.2558" style="stroke:#008000;stroke-width:1.0;"/><path d="M23,508.1358 L23,553.1358 L208,553.1358 L208,518.1358 L198,508.1358 L23,508.1358 " fill="#F5F5F5" style="stroke:#181818;stroke-width:0.5;"/><path d="M198,508.1358 L198,518.1358 L208,518.1358 L198,508.1358 " fill="#F5F5F5" style="stroke:#181818;stroke-width:0.5;"/><text fill="#000000" font-family="sans-serif" font-size="13" font-weight="bold" lengthAdjust="spacing" textLength="164" x="29" y="527.0328">Administrador Introduce</text><ellipse cx="34.5" cy="541.0479" fill="#000000" rx="2.5" ry="2.5" style="stroke:#000000;stroke-width:0.0;"/><text fill="#000000" font-family="sans-serif" font-size="13" lengthAdjust="spacing" textLength="120" x="41" y="544.7389">Nombre del Servicio</text></g><!--MD5=[6c5db065719c80a90b7d1c53107cb735]
link 4 to *end*EliminarServicio--><g id="link_4_*end*EliminarServicio"><path d="M122,600.5958 C122,620.5758 122,661.8058 122,684.4258 " fill="none" id="4-to-*end*EliminarServicio" style="stroke:#008000;stroke-width:1.0;"/><polygon fill="#008000" points="122,689.2958,126,680.2958,122,684.2958,118,680.2958,122,689.2958" style="stroke:#008000;stroke-width:1.0;"/><path d="M127,623.1358 L127,668.1358 L311,668.1358 L311,633.1358 L301,623.1358 L127,623.1358 " fill="#F5F5F5" style="stroke:#181818;stroke-width:0.5;"/><path d="M301,623.1358 L301,633.1358 L311,633.1358 L301,623.1358 " fill="#F5F5F5" style="stroke:#181818;stroke-width:0.5;"/><text fill="#000000" font-family="sans-serif" font-size="13" font-weight="bold" lengthAdjust="spacing" textLength="110" x="133" y="642.0328">Sistema Muestra</text><ellipse cx="138.5" cy="656.0479" fill="#000000" rx="2.5" ry="2.5" style="stroke:#000000;stroke-width:0.0;"/><text fill="#000000" font-family="sans-serif" font-size="13" lengthAdjust="spacing" textLength="151" x="145" y="659.7389">Mensaje de Confirmación</text></g><!--MD5=[d5d43b3f3dfddbfb6ca65af0419a6a54]
link 4 to 2--><g id="link_4_2"><path d="M130.73,584.3558 C153.5,577.0958 213,558.1358 213,558.1358 C213,558.1358 213,357.1358 213,357.1358 C213,357.1358 187.64,345.1058 165.85,334.7658 " fill="none" id="4-to-2" style="stroke:#FF0000;stroke-width:1.0;"/><polygon fill="#FF0000" points="161.48,332.6958,167.8952,340.1688,165.9969,334.84,171.3258,332.9417,161.48,332.6958" style="stroke:#FF0000;stroke-width:1.0;"/><path d="M218,435.1358 L218,480.1358 L465,480.1358 L465,445.1358 L455,435.1358 L218,435.1358 " fill="#F5F5F5" style="stroke:#181818;stroke-width:0.5;"/><path d="M455,435.1358 L455,445.1358 L465,445.1358 L455,435.1358 " fill="#F5F5F5" style="stroke:#181818;stroke-width:0.5;"/><text fill="#000000" font-family="sans-serif" font-size="13" font-weight="bold" lengthAdjust="spacing" textLength="110" x="224" y="454.0328">Sistema Muestra</text><ellipse cx="229.5" cy="468.0479" fill="#000000" rx="2.5" ry="2.5" style="stroke:#000000;stroke-width:0.0;"/><text fill="#000000" font-family="sans-serif" font-size="13" lengthAdjust="spacing" textLength="214" x="236" y="471.7389">Mensaje de error al eliminar Servicio</text></g><!--MD5=[3f29bb8c0936765020cdcc811e8fffaf]
link startState to EliminarServicio--><g id="link_startState_EliminarServicio"><path d="M240.5,87.5379 C240.5,110.0679 240.5,149.9679 240.5,195.5379 " fill="none" id="startState-to-EliminarServicio" style="stroke:#008000;stroke-width:1.0;"/><polygon fill="#008000" points="240.5,200.4879,244.5,191.4879,240.5,195.4879,236.5,191.4879,240.5,200.4879" style="stroke:#008000;stroke-width:1.0;"/><path d="M245.5,122.0679 L245.5,167.0679 L412.5,167.0679 L412.5,132.0679 L402.5,122.0679 L245.5,122.0679 " fill="#F5F5F5" style="stroke:#181818;stroke-width:0.5;"/><path d="M402.5,122.0679 L402.5,132.0679 L412.5,132.0679 L402.5,122.0679 " fill="#F5F5F5" style="stroke:#181818;stroke-width:0.5;"/><text fill="#000000" font-family="sans-serif" font-size="13" font-weight="bold" lengthAdjust="spacing" textLength="146" x="251.5" y="140.9649">Administrador Solicita</text><ellipse cx="257" cy="154.9799" fill="#000000" rx="2.5" ry="2.5" style="stroke:#000000;stroke-width:0.0;"/><text fill="#000000" font-family="sans-serif" font-size="13" lengthAdjust="spacing" textLength="97" x="263.5" y="158.6709">Eliminar Servicio</text></g><!--MD5=[d4a85418e50e29559590fcb17fb5b526]
link EliminarServicio to endState--><g id="link_EliminarServicio_endState"><path d="M240.5,721.3379 C240.5,742.6979 240.5,761.3979 240.5,775.3079 " fill="none" id="EliminarServicio-to-endState" style="stroke:#008000;stroke-width:1.0;"/><polygon fill="#008000" points="240.5,780.2379,244.5,771.2379,240.5,775.2379,236.5,771.2379,240.5,780.2379" style="stroke:#008000;stroke-width:1.0;"/></g><!--MD5=[fad41453202a70a241928ca27ee8fc3e]
@startuml

title Eliminar Servicio

skinparam {
    NoteBackgroundColor #whiteSmoke
    ArrowColor #green
    NoteBorderColor #green
    linetype polyline
}

hide empty description

state startState as "GESTIÓN_SERVICIOS"
state endState as "GESTIÓN_SERVICIOS"

startState - -> EliminarServicio
note on link
    <b>Administrador Solicita</b>
    * Eliminar Servicio
end note

EliminarServicio - -> endState

state EliminarServicio {
state 2 as " "
state 3 as " "
state 4 <<choice>>

[*] -down-> 2

2 -down-> 3
note on link
<b>Sistema Permite</b>
* Eliminar Servicio
end note

3 -down-> 4
note on link
<b>Administrador Introduce</b>
* Nombre del Servicio
end note

4 -down-> [*]
note on link
<b>Sistema Muestra</b>
* Mensaje de Confirmación
end note

4 -[#red]-> 2
note on link
<b>Sistema Muestra</b>
* Mensaje de error al eliminar Servicio
end note

}

@enduml

PlantUML version 1.2022.7(Mon Aug 22 19:01:30 CEST 2022)
(GPL source distribution)
Java Runtime: OpenJDK Runtime Environment
JVM: OpenJDK 64-Bit Server VM
Default Encoding: UTF-8
Language: es
Country: ES
--></g></svg>