<?xml version="1.0" encoding="us-ascii" standalone="no"?><svg xmlns="http://www.w3.org/2000/svg" xmlns:xlink="http://www.w3.org/1999/xlink" contentStyleType="text/css" height="950px" preserveAspectRatio="none" style="width:451px;height:950px;background:#0B58A8;" version="1.1" viewBox="0 0 451 950" width="451px" zoomAndPan="magnify"><defs/><g><rect fill="#0B58A8" height="950" style="stroke:none;stroke-width:1.0;" width="451" x="0" y="0"/><!--cluster IniciandoSistema--><g id="cluster_IniciandoSistema"><path d="M75.5,12 L329.5,12 A12.5,12.5 0 0 1 342,24.5 L342,33.2969 L63,33.2969 L63,24.5 A12.5,12.5 0 0 1 75.5,12 " fill="#0B58A8" style="stroke:#0B58A8;stroke-width:1.0;"/><path d="M63,33.2969 L342,33.2969 L342,520.5 A12.5,12.5 0 0 1 329.5,533 L75.5,533 A12.5,12.5 0 0 1 63,520.5 L63,33.2969 " fill="#0B58A8" style="stroke:#0B58A8;stroke-width:1.0;"/><rect fill="none" height="521" rx="12.5" ry="12.5" style="stroke:#FFFFFF;stroke-width:1.0;" width="279" x="63" y="12"/><line style="stroke:#FFFFFF;stroke-width:1.0;" x1="63" x2="342" y1="33.2969" y2="33.2969"/><text fill="#FFFFFF" font-family="Verdana" font-size="14" lengthAdjust="spacing" textLength="122" x="141.5" y="28.9951">IniciandoSistema</text></g><!--cluster SistemaFuncional--><g id="cluster_SistemaFuncional"><path d="M24.5,709 L406.5,709 A12.5,12.5 0 0 1 419,721.5 L419,730.2969 L12,730.2969 L12,721.5 A12.5,12.5 0 0 1 24.5,709 " fill="#0B58A8" style="stroke:#0B58A8;stroke-width:1.0;"/><path d="M12,730.2969 L419,730.2969 L419,924.5 A12.5,12.5 0 0 1 406.5,937 L24.5,937 A12.5,12.5 0 0 1 12,924.5 L12,730.2969 " fill="#0B58A8" style="stroke:#0B58A8;stroke-width:1.0;"/><rect fill="none" height="228" rx="12.5" ry="12.5" style="stroke:#FFFFFF;stroke-width:1.0;" width="407" x="12" y="709"/><line style="stroke:#FFFFFF;stroke-width:1.0;" x1="12" x2="419" y1="730.2969" y2="730.2969"/><text fill="#FFFFFF" font-family="Verdana" font-size="14" lengthAdjust="spacing" textLength="125" x="153" y="725.9951">SistemaFuncional</text></g><g id="elem_accion1"><polygon fill="#0B58A8" points="171,255,183,267,171,279,159,267,171,255" style="stroke:#FFFFFF;stroke-width:1.0;"/></g><ellipse cx="171" cy="57" fill="#0B58A8" rx="10" ry="10" style="stroke:#FFFFFF;stroke-width:1.0;"/><g id="IniciandoSistema.CompruebaRequisitos"><rect fill="#0B58A8" height="50" rx="12.5" ry="12.5" style="stroke:#FFFFFF;stroke-width:1.0;" width="178" x="82" y="128"/><line style="stroke:#FFFFFF;stroke-width:1.0;" x1="82" x2="260" y1="154.2969" y2="154.2969"/><text fill="#FFFFFF" font-family="Verdana" font-size="14" lengthAdjust="spacing" textLength="158" x="92" y="145.9951">CompruebaRequisitos</text></g><ellipse cx="90" cy="381" fill="none" rx="11" ry="11" style="stroke:#FFFFFF;stroke-width:1.0;"/><ellipse cx="90" cy="381" fill="#0B58A8" rx="6" ry="6" style="stroke:#FFFFFF;stroke-width:1.0;"/><g id="IniciandoSistema.SolicitandoDatosUNEAT"><rect fill="#0B58A8" height="50" rx="12.5" ry="12.5" style="stroke:#FFFFFF;stroke-width:1.0;" width="189" x="136.5" y="356"/><line style="stroke:#FFFFFF;stroke-width:1.0;" x1="136.5" x2="325.5" y1="382.2969" y2="382.2969"/><text fill="#FFFFFF" font-family="Verdana" font-size="14" lengthAdjust="spacing" textLength="169" x="146.5" y="373.9951">SolicitandoDatosUNEAT</text></g><g id="IniciandoSistema.GeneraEstad&#237;sticas"><rect fill="#0B58A8" height="50" rx="12.5" ry="12.5" style="stroke:#FFFFFF;stroke-width:1.0;" width="157" x="152.5" y="467"/><line style="stroke:#FFFFFF;stroke-width:1.0;" x1="152.5" x2="309.5" y1="493.2969" y2="493.2969"/><text fill="#FFFFFF" font-family="Verdana" font-size="14" lengthAdjust="spacing" textLength="137" x="162.5" y="484.9951">GeneraEstad&#237;sticas</text></g><g id="elem_accion"><polygon fill="#0B58A8" points="152,757,164,769,152,781,140,769,152,757" style="stroke:#FFFFFF;stroke-width:1.0;"/></g><g id="SistemaFuncional.ApartadoSocial"><rect fill="#0B58A8" height="50" rx="12.5" ry="12.5" style="stroke:#FFFFFF;stroke-width:1.0;" width="129" x="231.5" y="744"/><line style="stroke:#FFFFFF;stroke-width:1.0;" x1="231.5" x2="360.5" y1="770.2969" y2="770.2969"/><text fill="#FFFFFF" font-family="Verdana" font-size="14" lengthAdjust="spacing" textLength="109" x="241.5" y="761.9951">ApartadoSocial</text></g><g id="SistemaFuncional.Env&#237;aNewsLetter"><rect fill="#0B58A8" height="50" rx="12.5" ry="12.5" style="stroke:#FFFFFF;stroke-width:1.0;" width="141" x="28.5" y="871"/><line style="stroke:#FFFFFF;stroke-width:1.0;" x1="28.5" x2="169.5" y1="897.2969" y2="897.2969"/><text fill="#FFFFFF" font-family="Verdana" font-size="14" lengthAdjust="spacing" textLength="121" x="38.5" y="888.9951">Env&#237;aNewsLetter</text></g><ellipse cx="392" cy="896" fill="none" rx="11" ry="11" style="stroke:#FFFFFF;stroke-width:1.0;"/><ellipse cx="392" cy="896" fill="#0B58A8" rx="6" ry="6" style="stroke:#FFFFFF;stroke-width:1.0;"/><g id="SuscribirUsuario"><rect fill="#0B58A8" height="50" rx="12.5" ry="12.5" style="stroke:#FFFFFF;stroke-width:1.0;" width="133" x="85.5" y="596"/><line style="stroke:#FFFFFF;stroke-width:1.0;" x1="85.5" x2="218.5" y1="622.2969" y2="622.2969"/><text fill="#FFFFFF" font-family="Verdana" font-size="14" lengthAdjust="spacing" textLength="113" x="95.5" y="613.9951">SuscribirUsuario</text></g><!--link *start*IniciandoSistema to CompruebaRequisitos--><g id="link_*start*IniciandoSistema_CompruebaRequisitos"><path d="M171,67.013 C171,80.891 171,101.965 171,121.84 " fill="none" id="*start*IniciandoSistema-to-CompruebaRequisitos" style="stroke:#FFFFFF;stroke-width:1.0;"/><polygon fill="#FFFFFF" points="171,127.84,175,118.84,171,122.84,167,118.84,171,127.84" style="stroke:#FFFFFF;stroke-width:1.0;"/></g><!--link CompruebaRequisitos to accion1--><g id="link_CompruebaRequisitos_accion1"><path d="M171,178.027 C171,201.809 171,231.161 171,248.941 " fill="none" id="CompruebaRequisitos-to-accion1" style="stroke:#FFFFFF;stroke-width:1.0;"/><polygon fill="#FFFFFF" points="171,254.941,175,245.941,171,249.941,167,245.941,171,254.941" style="stroke:#FFFFFF;stroke-width:1.0;"/><text fill="#FFFFFF" font-family="Verdana" font-size="13" lengthAdjust="spacing" textLength="87" x="172" y="221.0669">&#191;Los cumple?</text></g><!--link accion1 to *end*IniciandoSistema--><g id="link_accion1_*end*IniciandoSistema"><path d="M166.176,274.671 C152.144,294.073 114.8851,345.5912 99.4928,366.8742 " fill="none" id="accion1-to-*end*IniciandoSistema" style="stroke:#FFFFFF;stroke-width:1.0;"/><polygon fill="#FFFFFF" points="95.9767,371.736,104.4921,366.7874,98.9068,367.6845,98.0097,362.0993,95.9767,371.736" style="stroke:#FFFFFF;stroke-width:1.0;"/><text fill="#FFFFFF" font-family="Verdana" font-size="13" lengthAdjust="spacing" textLength="19" x="142" y="322.0669">NO</text></g><!--link accion1 to SolicitandoDatosUNEAT--><g id="link_accion1_SolicitandoDatosUNEAT"><path d="M174.937,275.349 C183.54,291.408 201.5096,324.9512 215.2126,350.5292 " fill="none" id="accion1-to-SolicitandoDatosUNEAT" style="stroke:#FFFFFF;stroke-width:1.0;"/><polygon fill="#FFFFFF" points="218.046,355.818,217.3218,345.9958,215.6848,351.4106,210.27,349.7737,218.046,355.818" style="stroke:#FFFFFF;stroke-width:1.0;"/><text fill="#FFFFFF" font-family="Verdana" font-size="13" lengthAdjust="spacing" textLength="11" x="202" y="322.0669">SI</text></g><!--link SolicitandoDatosUNEAT to GeneraEstad?sticas--><g id="link_SolicitandoDatosUNEAT_GeneraEstad&#237;sticas"><path d="M231,406.191 C231,424.254 231,442.83 231,460.877 " fill="none" id="SolicitandoDatosUNEAT-to-GeneraEstad&#237;sticas" style="stroke:#FFFFFF;stroke-width:1.0;"/><polygon fill="#FFFFFF" points="231,466.877,235,457.877,231,461.877,227,457.877,231,466.877" style="stroke:#FFFFFF;stroke-width:1.0;"/></g><!--link GeneraEstad?sticas to SuscribirUsuario--><g id="link_GeneraEstad&#237;sticas_SuscribirUsuario"><path d="M179.275,517.234 C167.181,525.515 155.842,536.042 149,549 C141.454,563.292 141.2964,575.6544 144.0354,590.0754 " fill="none" id="GeneraEstad&#237;sticas-to-SuscribirUsuario" style="stroke:#FFFFFF;stroke-width:1.0;"/><polygon fill="#FFFFFF" points="145.155,595.97,147.4054,586.3817,144.222,591.0578,139.5459,587.8745,145.155,595.97" style="stroke:#FFFFFF;stroke-width:1.0;"/><text fill="#FFFFFF" font-family="Verdana" font-size="13" lengthAdjust="spacing" textLength="119" x="150" y="562.0669">suscribe al usuario</text></g><!--link GeneraEstad?sticas to ApartadoSocial--><g id="link_GeneraEstad&#237;sticas_ApartadoSocial"><path d="M254.183,517.071 C261.781,526.347 269.437,537.491 274,549 C300.478,615.781 300.2433,696.5941 298.0853,737.9971 " fill="none" id="GeneraEstad&#237;sticas-to-ApartadoSocial" style="stroke:#FFFFFF;stroke-width:1.0;"/><polygon fill="#FFFFFF" points="297.773,743.989,302.236,735.2094,298.0333,738.9958,294.2469,734.793,297.773,743.989" style="stroke:#FFFFFF;stroke-width:1.0;"/><text fill="#FFFFFF" font-family="Verdana" font-size="13" lengthAdjust="spacing" textLength="147" x="296" y="625.5669">comunica usuarios con</text></g><!--link SuscribirUsuario to accion--><g id="link_SuscribirUsuario_accion"><path d="M152,646.109 C152,678.02 152,726.999 152,750.646 " fill="none" id="SuscribirUsuario-to-accion" style="stroke:#FFFFFF;stroke-width:1.0;"/><polygon fill="#FFFFFF" points="152,756.646,156,747.646,152,751.646,148,747.646,152,756.646" style="stroke:#FFFFFF;stroke-width:1.0;"/><text fill="#FFFFFF" font-family="Verdana" font-size="13" lengthAdjust="spacing" textLength="96" x="153" y="689.0669">&#191;Est&#225; suscrito?</text></g><!--link accion to Env?aNewsLetter--><g id="link_accion_Env&#237;aNewsLetter"><path d="M148.685,777.819 C140.934,796.099 123.711,836.718 111.574,865.3447 " fill="none" id="accion-to-Env&#237;aNewsLetter" style="stroke:#FFFFFF;stroke-width:1.0;"/><polygon fill="#FFFFFF" points="109.232,870.8687,116.4278,864.144,111.1837,866.2653,109.0624,861.0213,109.232,870.8687" style="stroke:#FFFFFF;stroke-width:1.0;"/><text fill="#FFFFFF" font-family="Verdana" font-size="13" lengthAdjust="spacing" textLength="11" x="130" y="837.0669">SI</text></g><!--link accion to *end*SistemaFuncional--><g id="link_accion_*end*SistemaFuncional"><path d="M160.029,773.013 C188.769,783.964 288.751,823.525 363,871 C370.708,875.9287 374.2049,878.6244 379.8269,883.6985 " fill="none" id="accion-to-*end*SistemaFuncional" style="stroke:#FFFFFF;stroke-width:1.0;"/><polygon fill="#FFFFFF" points="384.281,887.7185,380.2798,878.719,380.5692,884.3685,374.9198,884.6579,384.281,887.7185" style="stroke:#FFFFFF;stroke-width:1.0;"/><text fill="#FFFFFF" font-family="Verdana" font-size="13" lengthAdjust="spacing" textLength="19" x="308" y="837.0669">NO</text></g><!--link Env?aNewsLetter to Env?aNewsLetter--><g id="link_Env&#237;aNewsLetter_Env&#237;aNewsLetter"><path d="M169.504,884.4325 C189.302,884.9391 204.5,888.7949 204.5,896 C204.5,903.2051 195.3,906.9074 175.502,907.414 " fill="none" id="Env&#237;aNewsLetter-to-Env&#237;aNewsLetter" style="stroke:#FFFFFF;stroke-width:1.0;"/><polygon fill="#FFFFFF" points="169.504,907.5675,178.6034,911.336,174.5024,907.4396,178.3987,903.3386,169.504,907.5675" style="stroke:#FFFFFF;stroke-width:1.0;"/><text fill="#FFFFFF" font-family="Verdana" font-size="13" lengthAdjust="spacing" textLength="146" x="210.5" y="900.5669">llega nueva newsletter</text></g><!--SRC=[TP4zJWCn48LxdyAqI2beesXH10kA52qIIof4CN56YIN_BFu91U8m721dG68lnjZP3IHi6XTldjyyVxu86zJ8GSirCEO31EGp8uK4ixArz04rl3DMvm488QsvufE9s5Wfi2WuOy-NBtmqAlYDrOsBk8H7V8tIos0zOmDYDlT9O_xzDITDHDqel6Qi6oHF2XvN3mSjNwojed8XjRi5IbjKvVI9OkePbHoSfLltQD11ISzRjJiVf03gzi7OWBxV4hrmSYdTmaTmqj82lvS8Wk9nh_QyEantqQIUe4vu7UCwjtBQW2FDrfROAreeh8xq4T1l8qZMKF9fjL-ScIObjvzTss0FHBEjDDjs1nM- -Jc6WAxZziUHcVC4_P_tJ81Ik0Pk8cxff87A0wBx0m00]--></g></svg>