<?xml version="1.0" encoding="UTF-8" standalone="no"?><svg xmlns="http://www.w3.org/2000/svg" xmlns:xlink="http://www.w3.org/1999/xlink" contentStyleType="text/css" height="348px" preserveAspectRatio="none" style="width:311px;height:348px;background:#FFFFFF;" version="1.1" viewBox="0 0 311 348" width="311px" zoomAndPan="magnify"><defs/><g><rect fill="none" height="26.2969" id="_title" style="stroke:none;stroke-width:1.0;" width="288" x="5" y="5"/><text fill="#000000" font-family="sans-serif" font-size="14" font-weight="bold" lengthAdjust="spacing" textLength="278" x="10" y="22.9951">Caso de Uso Pagina Principal - FISC</text><!--MD5=[527b08f9fe3683adfee3e3d2a3404f21]
cluster FISC Pagina Principal--><g id="cluster_FISC Pagina Principal"><rect fill="none" height="298" rx="2.5" ry="2.5" style="stroke:#181818;stroke-width:1.0;" width="195" x="110.5" y="44.2969"/><text fill="#000000" font-family="sans-serif" font-size="14" font-weight="bold" lengthAdjust="spacing" textLength="163" x="126.5" y="59.292">FISC Pagina Principal</text></g><g id="elem_exportar"><ellipse cx="207.9455" cy="98.486" fill="#F1F1F1" rx="81.4455" ry="18.6891" style="stroke:#181818;stroke-width:0.5;"/><text fill="#000000" font-family="sans-serif" font-size="14" lengthAdjust="spacing" textLength="122" x="145.8109" y="101.7058">Exportar Proyecto</text></g><g id="elem_abrir"><ellipse cx="208.1781" cy="168.4325" fill="#F1F1F1" rx="71.1781" ry="16.6356" style="stroke:#181818;stroke-width:0.5;"/><text fill="#000000" font-family="sans-serif" font-size="14" lengthAdjust="spacing" textLength="96" x="157.1781" y="172.1801">Abrir Proyecto</text></g><g id="elem_importar"><ellipse cx="207.9455" cy="238.486" fill="#F1F1F1" rx="81.4455" ry="18.6891" style="stroke:#181818;stroke-width:0.5;"/><text fill="#000000" font-family="sans-serif" font-size="14" lengthAdjust="spacing" textLength="122" x="145.8109" y="241.7058">Importar Proyecto</text></g><g id="elem_nuevo"><ellipse cx="207.9504" cy="309.3869" fill="#F1F1F1" rx="73.4504" ry="17.0901" style="stroke:#181818;stroke-width:0.5;"/><text fill="#000000" font-family="sans-serif" font-size="14" lengthAdjust="spacing" textLength="102" x="153.9504" y="313.1345">Crear Proyecto</text></g><!--MD5=[8fc3522a43f8c7199df5e09e5bb0188e]
entity user--><g id="elem_user"><ellipse cx="32.5" cy="177.7969" fill="#F1F1F1" rx="8" ry="8" style="stroke:#181818;stroke-width:0.5;"/><path d="M32.5,185.7969 L32.5,212.7969 M19.5,193.7969 L45.5,193.7969 M32.5,212.7969 L19.5,227.7969 M32.5,212.7969 L45.5,227.7969 " fill="none" style="stroke:#181818;stroke-width:0.5;"/><text fill="#000000" font-family="sans-serif" font-size="14" lengthAdjust="spacing" textLength="52" x="6.5" y="242.292">Usuario</text></g><!--MD5=[584f8c816157def0586efef5c7473c6e]
link user to exportar--><g id="link_user_exportar"><path d="M58.53,174.4069 C70.55,160.4469 85.94,144.9769 102.5,134.2969 C115.9,125.6569 131.62,118.8269 146.73,113.5569 " fill="none" id="user-to-exportar" style="stroke:#181818;stroke-width:1.0;"/><polygon fill="#181818" points="151.83,111.8269,142.0227,110.9226,147.0938,113.4295,144.5869,118.5005,151.83,111.8269" style="stroke:#181818;stroke-width:1.0;"/><text fill="#000000" font-family="sans-serif" font-size="13" lengthAdjust="spacing" textLength="4" x="89.5" y="137.3638"> </text></g><!--MD5=[dfaf045c464e96de1306bf96f19dcc74]
link user to abrir--><g id="link_user_abrir"><path d="M58.73,201.6269 C82.9,196.1869 120.22,187.8069 151.36,180.8069 " fill="none" id="user-to-abrir" style="stroke:#181818;stroke-width:1.0;"/><polygon fill="#181818" points="156.3,179.6969,146.64,177.7775,151.4228,180.7982,148.4021,185.581,156.3,179.6969" style="stroke:#181818;stroke-width:1.0;"/><text fill="#000000" font-family="sans-serif" font-size="13" lengthAdjust="spacing" textLength="4" x="89.5" y="191.3638"> </text></g><!--MD5=[5d0215d404fe2aec8e50b1c6e99e2243]
link user to importar--><g id="link_user_importar"><path d="M58.53,221.0669 C67.69,225.4569 78.31,229.8169 88.5,232.2969 C99,234.8469 110.18,236.6069 121.31,237.7969 " fill="none" id="user-to-importar" style="stroke:#181818;stroke-width:1.0;"/><polygon fill="#181818" points="126.41,238.2969,117.8416,233.4407,121.4337,237.8107,117.0637,241.4028,126.41,238.2969" style="stroke:#181818;stroke-width:1.0;"/><text fill="#000000" font-family="sans-serif" font-size="13" lengthAdjust="spacing" textLength="4" x="89.5" y="228.3638"> </text></g><!--MD5=[ad4a459f07bc40c2411e53c94231036b]
link user to nuevo--><g id="link_user_nuevo"><path d="M58.63,237.1369 C70.78,250.0269 86.24,264.3969 102.5,274.2969 C117.31,283.3169 134.73,290.3369 151.06,295.6369 " fill="none" id="user-to-nuevo" style="stroke:#181818;stroke-width:1.0;"/><polygon fill="#181818" points="156.08,297.2269,148.7173,290.6854,151.3156,295.7103,146.2907,298.3085,156.08,297.2269" style="stroke:#181818;stroke-width:1.0;"/><text fill="#000000" font-family="sans-serif" font-size="13" lengthAdjust="spacing" textLength="4" x="89.5" y="262.3638"> </text></g><!--MD5=[17392f0bf134d760470287469b24f469]
@startuml
title Caso de Uso Pagina Principal - FISC

left to right direction

actor Usuario as user

rectangle "FISC Pagina Principal" {
    usecase "Exportar Proyecto" as exportar
    usecase "Abrir Proyecto" as abrir
    usecase "Importar Proyecto" as importar
    usecase "Crear Proyecto" as nuevo
}

user - -> exportar : ""
user - -> abrir : ""
user - -> importar : ""
user - -> nuevo : ""
@enduml

PlantUML version 1.2022.7(Mon Aug 22 17:01:30 UTC 2022)
(GPL source distribution)
Java Runtime: OpenJDK Runtime Environment
JVM: OpenJDK 64-Bit Server VM
Default Encoding: UTF-8
Language: en
Country: null
--></g></svg>