<?xml version="1.0" encoding="us-ascii" standalone="no"?><svg xmlns="http://www.w3.org/2000/svg" xmlns:xlink="http://www.w3.org/1999/xlink" contentStyleType="text/css" height="137px" preserveAspectRatio="none" style="width:429px;height:137px;background:#FFFFFF;" version="1.1" viewBox="0 0 429 137" width="429px" zoomAndPan="magnify"><defs/><g><text fill="#000000" font-family="sans-serif" font-size="14" font-weight="bold" lengthAdjust="spacing" textLength="186" x="114.5" y="22.9951">Caso de Uso LOG - FISC</text><!--cluster Log acceso cualquier pantalla--><g id="cluster_Log acceso cualquier pantalla"><rect fill="none" height="81" rx="2.5" ry="2.5" style="stroke:#181818;stroke-width:1.0;" width="259" x="164" y="44.2969"/><text fill="#000000" font-family="sans-serif" font-size="14" font-weight="bold" lengthAdjust="spacing" textLength="243" x="172" y="59.292">Log acceso cualquier pantalla</text></g><g id="elem_log"><ellipse cx="293.6985" cy="94.3205" fill="#F1F1F1" rx="32.6985" ry="14.5236" style="stroke:#181818;stroke-width:0.5;"/><text fill="#000000" font-family="sans-serif" font-size="14" lengthAdjust="spacing" textLength="30" x="278.6709" y="97.1779">LOG</text></g><!--entity user--><g id="elem_user"><ellipse cx="31.5" cy="64.7969" fill="#F1F1F1" rx="8" ry="8" style="stroke:#181818;stroke-width:0.5;"/><path d="M31.5,72.7969 L31.5,99.7969 M18.5,80.7969 L44.5,80.7969 M31.5,99.7969 L18.5,114.7969 M31.5,99.7969 L44.5,114.7969 " fill="none" style="stroke:#181818;stroke-width:0.5;"/><text fill="#000000" font-family="sans-serif" font-size="14" lengthAdjust="spacing" textLength="51" x="6" y="129.292">Usuario</text></g><!--link user to log--><g id="link_user_log"><path d="M57.4299,94.2969 C104.9658,94.2969 202.485,94.2969 254.834,94.2969 " fill="none" id="user-to-log" style="stroke:#181818;stroke-width:1.0;"/><polygon fill="#181818" points="260.834,94.2969,251.834,90.2969,255.834,94.2969,251.834,98.2969,260.834,94.2969" style="stroke:#181818;stroke-width:1.0;"/><text fill="#000000" font-family="sans-serif" font-size="13" lengthAdjust="spacing" textLength="59" x="88" y="90.3638">Accede a</text></g><!--SRC=[5Ov12W8n34NtESMd-xc02q4678I1MOW729rO2sMYRReIxswQpOVF-uzOjYAOkIbsmSDZtHPCkDxkCr6Hfy4KDQUNOSzLecKzY3YQLiSxrwpWXjwa4j40-4Yk3AicS8pYojYvV7gMYZSVngLmm9VWvxF8RT3R4eQdQ2Bw4GqVfkayYXF2nKN-7uS_]--></g></svg>