<?xml version="1.0" encoding="UTF-8" standalone="no"?><svg xmlns="http://www.w3.org/2000/svg" xmlns:xlink="http://www.w3.org/1999/xlink" contentStyleType="text/css" height="198px" preserveAspectRatio="none" style="width:281px;height:198px;background:#FFFFFF;" version="1.1" viewBox="0 0 281 198" width="281px" zoomAndPan="magnify"><defs/><g><rect fill="none" height="26.2969" id="_title" style="stroke:none;stroke-width:1.0;" width="193" x="37" y="5"/><text fill="#000000" font-family="sans-serif" font-size="14" font-weight="bold" lengthAdjust="spacing" textLength="183" x="42" y="22.9951">Caso de Uso Log - FISC</text><!--MD5=[7ccdf393c163a2512aebd9e183726eb0]
cluster FISC Log--><g id="cluster_FISC Log"><rect fill="none" height="148" rx="2.5" ry="2.5" style="stroke:#181818;stroke-width:1.0;" width="165" x="110" y="44.2969"/><text fill="#000000" font-family="sans-serif" font-size="14" font-weight="bold" lengthAdjust="spacing" textLength="68" x="158.5" y="59.292">FISC Log</text></g><g id="elem_imprimirLog"><ellipse cx="192.4626" cy="95.4894" fill="#F1F1F1" rx="66.4626" ry="15.6925" style="stroke:#181818;stroke-width:0.5;"/><text fill="#000000" font-family="sans-serif" font-size="14" lengthAdjust="spacing" textLength="83" x="147.9626" y="99.237">Imprimir Log</text></g><g id="elem_cerrarLog"><ellipse cx="192.4096" cy="161.1788" fill="#F1F1F1" rx="62.4096" ry="14.8819" style="stroke:#181818;stroke-width:0.5;"/><text fill="#000000" font-family="sans-serif" font-size="14" lengthAdjust="spacing" textLength="71" x="153.9096" y="164.9264">Cerrar Log</text></g><!--MD5=[8fc3522a43f8c7199df5e09e5bb0188e]
entity user--><g id="elem_user"><ellipse cx="32" cy="99.7969" fill="#F1F1F1" rx="8" ry="8" style="stroke:#181818;stroke-width:0.5;"/><path d="M32,107.7969 L32,134.7969 M19,115.7969 L45,115.7969 M32,134.7969 L19,149.7969 M32,134.7969 L45,149.7969 " fill="none" style="stroke:#181818;stroke-width:0.5;"/><text fill="#000000" font-family="sans-serif" font-size="14" lengthAdjust="spacing" textLength="52" x="6" y="164.292">Usuario</text></g><!--MD5=[0258d3a9ec488c97e7a8f7d593b18a23]
link user to imprimirLog--><g id="link_user_imprimirLog"><path d="M58.11,123.9069 C79.48,119.3269 110.9,112.5869 137.88,106.7969 " fill="none" id="user-to-imprimirLog" style="stroke:#181818;stroke-width:1.0;"/><polygon fill="#181818" points="142.86,105.7269,133.2233,103.6937,137.9702,106.7706,134.8933,111.5175,142.86,105.7269" style="stroke:#181818;stroke-width:1.0;"/><text fill="#000000" font-family="sans-serif" font-size="13" lengthAdjust="spacing" textLength="4" x="89" y="113.3638"> </text></g><!--MD5=[fe72dfe192026707c73988509cf281c7]
link user to cerrarLog--><g id="link_user_cerrarLog"><path d="M58.02,145.5769 C67.1,150.6269 77.66,155.5769 88,158.2969 C100.05,161.4669 113.16,163.1369 125.87,163.8869 " fill="none" id="user-to-cerrarLog" style="stroke:#181818;stroke-width:1.0;"/><polygon fill="#181818" points="130.91,164.1469,122.1153,159.7137,125.9159,163.9036,121.726,167.7043,130.91,164.1469" style="stroke:#181818;stroke-width:1.0;"/><text fill="#000000" font-family="sans-serif" font-size="13" lengthAdjust="spacing" textLength="4" x="89" y="154.3638"> </text></g><!--MD5=[7350be811c5b7a0813b37ae74220ce6d]
@startuml
title Caso de Uso Log - FISC

left to right direction

actor Usuario as user

rectangle "FISC Log" {
    usecase "Imprimir Log" as imprimirLog
    usecase "Cerrar Log" as cerrarLog
}

user - -> imprimirLog : ""
user - -> cerrarLog : ""
@enduml

PlantUML version 1.2022.7(Mon Aug 22 17:01:30 UTC 2022)
(GPL source distribution)
Java Runtime: OpenJDK Runtime Environment
JVM: OpenJDK 64-Bit Server VM
Default Encoding: UTF-8
Language: en
Country: null
--></g></svg>