<?xml version="1.0" encoding="us-ascii" standalone="no"?><svg xmlns="http://www.w3.org/2000/svg" xmlns:xlink="http://www.w3.org/1999/xlink" contentStyleType="text/css" height="137px" preserveAspectRatio="none" style="width:296px;height:137px;background:#FFFFFF;" version="1.1" viewBox="0 0 296 137" width="296px" zoomAndPan="magnify"><defs/><g><text fill="#000000" font-family="sans-serif" font-size="14" font-weight="bold" lengthAdjust="spacing" textLength="186" x="48" y="22.9951">Caso de Uso LOG - FISC</text><!--cluster FISC LOG--><g id="cluster_FISC LOG"><rect fill="none" height="81" rx="2.5" ry="2.5" style="stroke:#181818;stroke-width:1.0;" width="145" x="145" y="44.2969"/><text fill="#000000" font-family="sans-serif" font-size="14" font-weight="bold" lengthAdjust="spacing" textLength="72" x="181.5" y="59.292">FISC LOG</text></g><g id="elem_imprimirLog"><ellipse cx="217.3333" cy="94.5424" fill="#F1F1F1" rx="56.3333" ry="14.7455" style="stroke:#181818;stroke-width:0.5;"/><text fill="#000000" font-family="sans-serif" font-size="14" lengthAdjust="spacing" textLength="62" x="183.3333" y="98.2899">Imprimir</text></g><!--entity user--><g id="elem_user"><ellipse cx="31.5" cy="64.7969" fill="#F1F1F1" rx="8" ry="8" style="stroke:#181818;stroke-width:0.5;"/><path d="M31.5,72.7969 L31.5,99.7969 M18.5,80.7969 L44.5,80.7969 M31.5,99.7969 L18.5,114.7969 M31.5,99.7969 L44.5,114.7969 " fill="none" style="stroke:#181818;stroke-width:0.5;"/><text fill="#000000" font-family="sans-serif" font-size="14" lengthAdjust="spacing" textLength="51" x="6" y="129.292">Usuario</text></g><!--link user to imprimirLog--><g id="link_user_imprimirLog"><path d="M57.3151,94.2969 C83.7023,94.2969 120.303,94.2969 154.797,94.2969 " fill="none" id="user-to-imprimirLog" style="stroke:#181818;stroke-width:1.0;"/><polygon fill="#181818" points="160.797,94.2969,151.797,90.2969,155.797,94.2969,151.797,98.2969,160.797,94.2969" style="stroke:#181818;stroke-width:1.0;"/><text fill="#000000" font-family="sans-serif" font-size="13" lengthAdjust="spacing" textLength="40" x="88" y="90.3638">Puede</text></g><!--SRC=[JOn12W8n34NtESMd-rx0XPi1PM10GJn0QMCDp4mbJLVYtMt1XTbymd__cTZAc48jI8nxZ-LoXiTflar4ApyCLg2IduOaoj6ax4GXMj6Ejw1I42fQPIMY0OGzTwKRXY5pU1FwTIA6sejvUwbiecxivFSi9HDzY8O7tX__YmFSjN5YzmK0]--></g></svg>