<?xml version="1.0" encoding="us-ascii" standalone="no"?><svg xmlns="http://www.w3.org/2000/svg" xmlns:xlink="http://www.w3.org/1999/xlink" contentStyleType="text/css" height="344px" preserveAspectRatio="none" style="width:254px;height:344px;background:#FFFFFF;" version="1.1" viewBox="0 0 254 344" width="254px" zoomAndPan="magnify"><defs><filter height="300%" id="f1mpgd0092dajq" width="300%" x="-1" y="-1"><feGaussianBlur result="blurOut" stdDeviation="2.0"/><feColorMatrix in="blurOut" result="blurOut2" type="matrix" values="0 0 0 0 0 0 0 0 0 0 0 0 0 0 0 0 0 0 .4 0"/><feOffset dx="4.0" dy="4.0" in="blurOut2" result="blurOut3"/><feBlend in="SourceGraphic" in2="blurOut3" mode="normal"/></filter></defs><g><rect fill="#FEFECE" filter="url(#f1mpgd0092dajq)" height="33.9688" rx="12.5" ry="12.5" style="stroke:#A80036;stroke-width:1.5;" width="152" x="50.5" y="11"/><text fill="#000000" font-family="sans-serif" font-size="12" lengthAdjust="spacing" textLength="132" x="60.5" y="32.1387">DASHBOARD_ABIERTO</text><rect fill="#FEFECE" filter="url(#f1mpgd0092dajq)" height="33.9688" rx="12.5" ry="12.5" style="stroke:#A80036;stroke-width:1.5;" width="132" x="60.5" y="64.9688"/><text fill="#000000" font-family="sans-serif" font-size="12" lengthAdjust="spacing" textLength="112" x="70.5" y="86.1074">ELIMINAR_USUARIO</text><rect fill="none" filter="url(#f1mpgd0092dajq)" height="218.2344" style="stroke:#000000;stroke-width:1.0;" width="226.5" x="11" y="109.7393"/><path d="M232,109.7393 L232,119.0361 L222,129.0361 L11,129.0361 " fill="none" style="stroke:#000000;stroke-width:1.0;"/><text fill="#000000" font-family="sans-serif" font-size="14" lengthAdjust="spacing" textLength="211" x="14" y="123.7344">Seleccionar usuario a eliminar</text><ellipse cx="126.5" cy="156.0361" fill="#000000" filter="url(#f1mpgd0092dajq)" rx="10" ry="10" style="stroke:#000000;stroke-width:1.0;"/><rect fill="#FEFECE" filter="url(#f1mpgd0092dajq)" height="33.9688" rx="12.5" ry="12.5" style="stroke:#A80036;stroke-width:1.5;" width="198" x="27.5" y="186.0361"/><text fill="#000000" font-family="sans-serif" font-size="12" lengthAdjust="spacing" textLength="178" x="37.5" y="207.1748">Introducir nombre de Usuario</text><rect fill="#FEFECE" filter="url(#f1mpgd0092dajq)" height="33.9688" rx="12.5" ry="12.5" style="stroke:#A80036;stroke-width:1.5;" width="169" x="42" y="240.0049"/><text fill="#000000" font-family="sans-serif" font-size="12" lengthAdjust="spacing" textLength="149" x="52" y="261.1436">confirmarEliminarUsuario</text><ellipse cx="126.5" cy="304.9736" fill="none" filter="url(#f1mpgd0092dajq)" rx="11" ry="11" style="stroke:#000000;stroke-width:1.0;"/><ellipse cx="126.5" cy="304.9736" fill="#000000" rx="6" ry="6" style="stroke:#000000;stroke-width:1.0;"/><line style="stroke:#A80036;stroke-width:1.5;" x1="126.5" x2="126.5" y1="44.9688" y2="64.9688"/><polygon fill="#A80036" points="122.5,54.9688,126.5,64.9688,130.5,54.9688,126.5,58.9688" style="stroke:#A80036;stroke-width:1.0;"/><line style="stroke:#A80036;stroke-width:1.5;" x1="126.5" x2="126.5" y1="166.0361" y2="186.0361"/><polygon fill="#A80036" points="122.5,176.0361,126.5,186.0361,130.5,176.0361,126.5,180.0361" style="stroke:#A80036;stroke-width:1.0;"/><line style="stroke:#A80036;stroke-width:1.5;" x1="126.5" x2="126.5" y1="220.0049" y2="240.0049"/><polygon fill="#A80036" points="122.5,230.0049,126.5,240.0049,130.5,230.0049,126.5,234.0049" style="stroke:#A80036;stroke-width:1.0;"/><line style="stroke:#A80036;stroke-width:1.5;" x1="126.5" x2="126.5" y1="273.9736" y2="293.9736"/><polygon fill="#A80036" points="122.5,283.9736,126.5,293.9736,130.5,283.9736,126.5,287.9736" style="stroke:#A80036;stroke-width:1.0;"/><line style="stroke:#A80036;stroke-width:1.5;" x1="126.5" x2="126.5" y1="98.9375" y2="146.0361"/><polygon fill="#A80036" points="122.5,136.0361,126.5,146.0361,130.5,136.0361,126.5,140.0361" style="stroke:#A80036;stroke-width:1.0;"/><!--SRC=[JOp12i8m44Jl-Ogbdv6UKXeme1RIvbnY6c6npPPDUXB_tOWUFCqmysRo0nCmvIY4xDLuwWPb-rbrHjjfQ8NKPtCnLsLdDpfbJOt4xhbWGKhGZ76D8LJh6OvyU4O23t753MlKm5C0v5BvgjAamhGS0HaIRJUEi4HmtrNx0GAbE_BcMVyE_ifSQ1UlDm00]--></g></svg>