<?xml version="1.0" encoding="UTF-8" standalone="no"?><svg xmlns="http://www.w3.org/2000/svg" xmlns:xlink="http://www.w3.org/1999/xlink" contentStyleType="text/css" height="288px" preserveAspectRatio="none" style="width:353px;height:288px;background:#FFFFFF;" version="1.1" viewBox="0 0 353 288" width="353px" zoomAndPan="magnify"><defs/><g><g id="LectorDeHuella"><rect fill="#F1F1F1" height="50" rx="12.5" ry="12.5" style="stroke:#181818;stroke-width:0.5;" width="117" x="7" y="104"/><line style="stroke:#181818;stroke-width:0.5;" x1="7" x2="124" y1="131.6094" y2="131.6094"/><text fill="#000000" font-family="sans-serif" font-size="14" lengthAdjust="spacing" textLength="97" x="17" y="123.5332">LectorDeHuella</text></g><g id="Fichaje"><rect fill="#F1F1F1" height="50" rx="12.5" ry="12.5" style="stroke:#181818;stroke-width:0.5;" width="66" x="192.5" y="104"/><line style="stroke:#181818;stroke-width:0.5;" x1="192.5" x2="258.5" y1="131.6094" y2="131.6094"/><text fill="#000000" font-family="sans-serif" font-size="14" lengthAdjust="spacing" textLength="46" x="202.5" y="123.5332">Fichaje</text></g><g id="EstadoTrabajador"><rect fill="#F1F1F1" height="50" rx="12.5" ry="12.5" style="stroke:#181818;stroke-width:0.5;" width="134" x="158.5" y="232"/><line style="stroke:#181818;stroke-width:0.5;" x1="158.5" x2="292.5" y1="259.6094" y2="259.6094"/><text fill="#000000" font-family="sans-serif" font-size="14" lengthAdjust="spacing" textLength="114" x="168.5" y="251.5332">EstadoTrabajador</text></g><ellipse cx="65.5" cy="16" fill="#222222" rx="10" ry="10" style="stroke:none;stroke-width:1.0;"/><ellipse cx="337.5" cy="257" fill="none" rx="10" ry="10" style="stroke:#222222;stroke-width:1.0;"/><ellipse cx="338" cy="257.5" fill="#222222" rx="6" ry="6" style="stroke:none;stroke-width:1.0;"/><!--MD5=[cff88d6bf7b1b88a3bebf320159abac9]
link *start to LectorDeHuella--><g id="link_*start_LectorDeHuella"><path d="M65.5,26.08 C65.5,41.75 65.5,74.47 65.5,98.64 " fill="none" id="*start-to-LectorDeHuella" style="stroke:#181818;stroke-width:1.0;"/><polygon fill="#181818" points="65.5,103.65,69.5,94.65,65.5,98.65,61.5,94.65,65.5,103.65" style="stroke:#181818;stroke-width:1.0;"/><text fill="#000000" font-family="sans-serif" font-size="13" lengthAdjust="spacing" textLength="23" x="66.5" y="70.4951">Usa</text></g><!--MD5=[0ff7afa7504fd3c8827ce2ac3715cdd7]
link LectorDeHuella to Fichaje--><g id="link_LectorDeHuella_Fichaje"><path d="M124.17,129 C145.2,129 168.36,129 187.22,129 " fill="none" id="LectorDeHuella-to-Fichaje" style="stroke:#181818;stroke-width:1.0;"/><polygon fill="#181818" points="192.42,129,183.42,125,187.42,129,183.42,133,192.42,129" style="stroke:#181818;stroke-width:1.0;"/><text fill="#000000" font-family="sans-serif" font-size="13" lengthAdjust="spacing" textLength="32" x="142.25" y="122.4951">Ficha</text></g><!--MD5=[c89c175e3c9a279138bb3d3a0fb8ca5e]
link Fichaje to EstadoTrabajador--><g id="link_Fichaje_EstadoTrabajador"><path d="M225.5,154.29 C225.5,174.95 225.5,204.67 225.5,226.65 " fill="none" id="Fichaje-to-EstadoTrabajador" style="stroke:#181818;stroke-width:1.0;"/><polygon fill="#181818" points="225.5,231.78,229.5,222.78,225.5,226.78,221.5,222.78,225.5,231.78" style="stroke:#181818;stroke-width:1.0;"/><text fill="#000000" font-family="sans-serif" font-size="13" lengthAdjust="spacing" textLength="44" x="226.5" y="198.4951">Cambia</text></g><!--MD5=[65557cff6716b9ab788eb3cfd2345057]
link EstadoTrabajador to *end--><g id="link_EstadoTrabajador_*end"><path d="M292.88,257 C302.67,257 312.47,257 322.27,257 " fill="none" id="EstadoTrabajador-to-*end" style="stroke:#181818;stroke-width:1.0;"/><polygon fill="#181818" points="327.39,257,318.39,253,322.39,257,318.39,261,327.39,257" style="stroke:#181818;stroke-width:1.0;"/></g><!--MD5=[d78c9cbf62dbda012e79801805615487]
@startuml CDU-Fichar
state LectorDeHuella
state Fichaje
state EstadoTrabajador

[*] - ->  LectorDeHuella: Usa

LectorDeHuella -r-> Fichaje : Ficha

Fichaje -d-> EstadoTrabajador : Cambia

EstadoTrabajador -r-> [*]

@enduml

PlantUML version 1.2022.7(Mon Aug 22 19:01:30 CEST 2022)
(GPL source distribution)
Java Runtime: Java(TM) SE Runtime Environment
JVM: Java HotSpot(TM) 64-Bit Server VM
Default Encoding: UTF-8
Language: en
Country: US
--></g></svg>