<?xml version="1.0" encoding="UTF-8" standalone="no"?><svg xmlns="http://www.w3.org/2000/svg" xmlns:xlink="http://www.w3.org/1999/xlink" contentStyleType="text/css" height="613px" preserveAspectRatio="none" style="width:729px;height:613px;background:#FFFFFF;" version="1.1" viewBox="0 0 729 613" width="729px" zoomAndPan="magnify"><defs><filter height="300%" id="f1w2fatxkzhzlq" width="300%" x="-1" y="-1"><feGaussianBlur result="blurOut" stdDeviation="2.0"/><feColorMatrix in="blurOut" result="blurOut2" type="matrix" values="0 0 0 0 0 0 0 0 0 0 0 0 0 0 0 0 0 0 .4 0"/><feOffset dx="4.0" dy="4.0" in="blurOut2" result="blurOut3"/><feBlend in="SourceGraphic" in2="blurOut3" mode="normal"/></filter></defs><g><rect fill="none" height="27.6094" id="_title" style="stroke:none;stroke-width:1.0;" width="219" x="248" y="5"/><text fill="#000000" font-family="sans-serif" font-size="14" font-weight="bold" lengthAdjust="spacing" textLength="209" x="253" y="24.5332">Diagrama de contexto (admin)</text><ellipse cx="544" cy="54.6094" fill="#000000" filter="url(#f1w2fatxkzhzlq)" rx="10" ry="10" style="stroke:none;stroke-width:1.0;"/><g id="Inicial"><rect fill="#FEFECE" filter="url(#f1w2fatxkzhzlq)" height="50" rx="12.5" ry="12.5" style="stroke:#A80036;stroke-width:1.0;" width="55" x="516.5" y="125.6094"/><line style="stroke:#A80036;stroke-width:1.0;" x1="516.5" x2="571.5" y1="153.2188" y2="153.2188"/><text fill="#000000" font-family="sans-serif" font-size="14" lengthAdjust="spacing" textLength="35" x="526.5" y="145.1426">Inicial</text></g><g id="DASHBOARD_ABIERTO"><rect fill="#FEFECE" filter="url(#f1w2fatxkzhzlq)" height="50" rx="12.5" ry="12.5" style="stroke:#A80036;stroke-width:1.0;" width="174" x="457" y="253.6094"/><line style="stroke:#A80036;stroke-width:1.0;" x1="457" x2="631" y1="281.2188" y2="281.2188"/><text fill="#000000" font-family="sans-serif" font-size="14" lengthAdjust="spacing" textLength="154" x="467" y="273.1426">DASHBOARD_ABIERTO</text></g><g id="VER_USUARIOS"><rect fill="#FEFECE" filter="url(#f1w2fatxkzhzlq)" height="50" rx="12.5" ry="12.5" style="stroke:#A80036;stroke-width:1.0;" width="125" x="330.5" y="401.6094"/><line style="stroke:#A80036;stroke-width:1.0;" x1="330.5" x2="455.5" y1="429.2188" y2="429.2188"/><text fill="#000000" font-family="sans-serif" font-size="14" lengthAdjust="spacing" textLength="105" x="340.5" y="421.1426">VER_USUARIOS</text></g><g id="AÑADIR_USUARIO"><rect fill="#FEFECE" filter="url(#f1w2fatxkzhzlq)" height="50" rx="12.5" ry="12.5" style="stroke:#A80036;stroke-width:1.0;" width="138" x="7" y="549.6094"/><line style="stroke:#A80036;stroke-width:1.0;" x1="7" x2="145" y1="577.2188" y2="577.2188"/><text fill="#000000" font-family="sans-serif" font-size="14" lengthAdjust="spacing" textLength="118" x="17" y="569.1426">AÑADIR_USUARIO</text></g><g id="EDITAR_USUARIO"><rect fill="#FEFECE" filter="url(#f1w2fatxkzhzlq)" height="50" rx="12.5" ry="12.5" style="stroke:#A80036;stroke-width:1.0;" width="138" x="188" y="549.6094"/><line style="stroke:#A80036;stroke-width:1.0;" x1="188" x2="326" y1="577.2188" y2="577.2188"/><text fill="#000000" font-family="sans-serif" font-size="14" lengthAdjust="spacing" textLength="118" x="198" y="569.1426">EDITAR_USUARIO</text></g><g id="BAJAS_USUARIOS"><rect fill="#FEFECE" filter="url(#f1w2fatxkzhzlq)" height="50" rx="12.5" ry="12.5" style="stroke:#A80036;stroke-width:1.0;" width="139" x="365.5" y="549.6094"/><line style="stroke:#A80036;stroke-width:1.0;" x1="365.5" x2="504.5" y1="577.2188" y2="577.2188"/><text fill="#000000" font-family="sans-serif" font-size="14" lengthAdjust="spacing" textLength="119" x="375.5" y="569.1426">BAJAS_USUARIOS</text></g><g id="INFORME"><rect fill="#FEFECE" filter="url(#f1w2fatxkzhzlq)" height="90.4375" rx="12.5" ry="12.5" style="stroke:#A80036;stroke-width:1.0;" width="84" x="560" y="381.6094"/><line style="stroke:#A80036;stroke-width:1.0;" x1="560" x2="644" y1="409.2188" y2="409.2188"/><text fill="#000000" font-family="sans-serif" font-size="14" lengthAdjust="spacing" textLength="62" x="571" y="401.1426">INFORME</text><text fill="#000000" font-family="sans-serif" font-size="14" lengthAdjust="spacing" textLength="46" x="565" y="428.752">DIARIO</text><text fill="#000000" font-family="sans-serif" font-size="14" lengthAdjust="spacing" textLength="64" x="565" y="446.3613">SEMANAL</text><text fill="#000000" font-family="sans-serif" font-size="14" lengthAdjust="spacing" textLength="64" x="565" y="463.9707">MENSUAL</text></g><ellipse cx="654" cy="574.6094" fill="none" filter="url(#f1w2fatxkzhzlq)" rx="10" ry="10" style="stroke:#000000;stroke-width:1.0;"/><ellipse cx="654.5" cy="575.1094" fill="#000000" rx="6" ry="6" style="stroke:none;stroke-width:1.0;"/><!--MD5=[799679ad9d273e0a78da94a10d804476]
link *start to Inicial--><g id="link_*start_Inicial"><path d="M544,64.6194 C544,77.3094 544,101.0194 544,120.1794 " fill="none" id="*start-to-Inicial" style="stroke:#A80036;stroke-width:1.0;"/><polygon fill="#A80036" points="544,125.4494,548,116.4494,544,120.4494,540,116.4494,544,125.4494" style="stroke:#A80036;stroke-width:1.0;"/></g><!--MD5=[95708fe9de2b13754123d01133badfb5]
link Inicial to DASHBOARD_ABIERTO--><g id="link_Inicial_DASHBOARD_ABIERTO"><path d="M544,175.8994 C544,196.5594 544,226.2794 544,248.2594 " fill="none" id="Inicial-to-DASHBOARD_ABIERTO" style="stroke:#A80036;stroke-width:1.0;"/><polygon fill="#A80036" points="544,253.3894,548,244.3894,544,248.3894,540,244.3894,544,253.3894" style="stroke:#A80036;stroke-width:1.0;"/><text fill="#000000" font-family="sans-serif" font-size="13" lengthAdjust="spacing" textLength="27" x="545" y="220.1045">login</text></g><!--MD5=[3d4fcaaba2e84bee612a9c77eb1a97cc]
link DASHBOARD_ABIERTO to VER_USUARIOS--><g id="link_DASHBOARD_ABIERTO_VER_USUARIOS"><path d="M515.99,303.6594 C505.49,312.8694 493.55,323.5694 483,333.6094 C461.18,354.3694 437.38,378.7794 419.74,397.2294 " fill="none" id="DASHBOARD_ABIERTO-to-VER_USUARIOS" style="stroke:#A80036;stroke-width:1.0;"/><polygon fill="#A80036" points="415.85,401.3194,424.9542,397.5625,419.299,397.6994,419.1622,392.0442,415.85,401.3194" style="stroke:#A80036;stroke-width:1.0;"/><text fill="#000000" font-family="sans-serif" font-size="13" lengthAdjust="spacing" textLength="67" x="484" y="348.1045">verUsuarios</text></g><!--MD5=[972514cffe00f6277886bd9daed49931]
reverse link DASHBOARD_ABIERTO to VER_USUARIOS--><g id="link_DASHBOARD_ABIERTO_VER_USUARIOS"><path d="M452.22,305.7694 C438.61,312.9694 425.87,322.0894 416,333.6094 C399.83,352.4894 394.73,381.1094 393.27,401.3994 " fill="none" id="DASHBOARD_ABIERTO-backto-VER_USUARIOS" style="stroke:#A80036;stroke-width:1.0;"/><polygon fill="#A80036" points="456.87,303.3994,447.035,303.922,452.4151,305.6696,450.6674,311.0498,456.87,303.3994" style="stroke:#A80036;stroke-width:1.0;"/></g><!--MD5=[b4be8b61a72fb798a8902ce199dd366d]
reverse link VER_USUARIOS to AÑADIR_USUARIO--><g id="link_VER_USUARIOS_AÑADIR_USUARIO"><path d="M325.36,436.1794 C247.5,447.3994 126.18,469.4994 94,501.6094 C81.5,514.0794 77.23,533.8194 75.95,549.4794 " fill="none" id="VER_USUARIOS-backto-AÑADIR_USUARIO" style="stroke:#A80036;stroke-width:1.0;"/><polygon fill="#A80036" points="330.42,435.4594,320.9491,432.7571,325.4691,436.1585,322.0677,440.6785,330.42,435.4594" style="stroke:#A80036;stroke-width:1.0;"/></g><!--MD5=[a4913cbe3bd859d8d9ac834e2131a716]
link VER_USUARIOS to AÑADIR_USUARIO--><g id="link_VER_USUARIOS_AÑADIR_USUARIO"><path d="M330.04,440.7894 C282.03,452.4594 215.3,472.2494 162,501.6094 C140.62,513.3894 119.55,530.8994 103.62,545.6994 " fill="none" id="VER_USUARIOS-to-AÑADIR_USUARIO" style="stroke:#A80036;stroke-width:1.0;"/><polygon fill="#A80036" points="99.68,549.3994,108.9753,546.1439,103.321,545.9726,103.4923,540.3183,99.68,549.3994" style="stroke:#A80036;stroke-width:1.0;"/><text fill="#000000" font-family="sans-serif" font-size="13" lengthAdjust="spacing" textLength="79" x="163" y="516.1045">añadirUsuario</text></g><!--MD5=[d625bb896eee82d4847b72a76b630368]
reverse link VER_USUARIOS to EDITAR_USUARIO--><g id="link_VER_USUARIOS_EDITAR_USUARIO"><path d="M325.45,447.2494 C298.98,458.6194 271.32,475.9294 256,501.6094 C247.48,515.8894 248.09,534.7694 250.63,549.6094 " fill="none" id="VER_USUARIOS-backto-EDITAR_USUARIO" style="stroke:#A80036;stroke-width:1.0;"/><polygon fill="#A80036" points="330.38,445.1994,320.5336,444.9794,325.7667,447.1275,323.6186,452.3607,330.38,445.1994" style="stroke:#A80036;stroke-width:1.0;"/></g><!--MD5=[df3c3d98aeb0196d9d3c75facb81d479]
link VER_USUARIOS to EDITAR_USUARIO--><g id="link_VER_USUARIOS_EDITAR_USUARIO"><path d="M370.54,451.7194 C346.52,477.4994 308.48,518.3494 283.13,545.5494 " fill="none" id="VER_USUARIOS-to-EDITAR_USUARIO" style="stroke:#A80036;stroke-width:1.0;"/><polygon fill="#A80036" points="279.49,549.4694,288.5556,545.6204,282.9021,545.8146,282.7079,540.1611,279.49,549.4694" style="stroke:#A80036;stroke-width:1.0;"/><text fill="#000000" font-family="sans-serif" font-size="13" lengthAdjust="spacing" textLength="76" x="322" y="516.1045">editarUsuario</text></g><!--MD5=[5085c39534836b77dec39cdc8f3b68d7]
reverse link VER_USUARIOS to BAJAS_USUARIOS--><g id="link_VER_USUARIOS_BAJAS_USUARIOS"><path d="M399,456.6294 C403,474.8594 408.68,498.7794 415,519.6094 C417.99,529.4594 421.81,540.1294 425.31,549.3594 " fill="none" id="VER_USUARIOS-backto-BAJAS_USUARIOS" style="stroke:#A80036;stroke-width:1.0;"/><polygon fill="#A80036" points="397.92,451.6494,395.9407,461.2973,398.991,456.5333,403.755,459.5836,397.92,451.6494" style="stroke:#A80036;stroke-width:1.0;"/></g><!--MD5=[648f8b8d4ad9938fc889080a73294160]
link VER_USUARIOS to BAJAS_USUARIOS--><g id="link_VER_USUARIOS_BAJAS_USUARIOS"><path d="M399.94,451.7194 C407.26,477.1894 418.81,517.3394 426.64,544.5394 " fill="none" id="VER_USUARIOS-to-BAJAS_USUARIOS" style="stroke:#A80036;stroke-width:1.0;"/><polygon fill="#A80036" points="428.05,549.4694,429.4236,539.7168,426.6764,544.6618,421.7314,541.9145,428.05,549.4694" style="stroke:#A80036;stroke-width:1.0;"/><text fill="#000000" font-family="sans-serif" font-size="13" lengthAdjust="spacing" textLength="84" x="420" y="516.1045">bajaDeUsuario</text></g><!--MD5=[45f9f0170600205b8b3828a7ca61639c]
link DASHBOARD_ABIERTO to INFORME--><g id="link_DASHBOARD_ABIERTO_INFORME"><path d="M553.58,303.7194 C561.42,323.4594 572.77,352.0294 582.51,376.5494 " fill="none" id="DASHBOARD_ABIERTO-to-INFORME" style="stroke:#A80036;stroke-width:1.0;"/><polygon fill="#A80036" points="584.44,381.3994,584.8218,371.5579,582.588,376.755,577.3909,374.5212,584.44,381.3994" style="stroke:#A80036;stroke-width:1.0;"/><text fill="#000000" font-family="sans-serif" font-size="13" lengthAdjust="spacing" textLength="58" x="573" y="348.1045">verInforme</text></g><!--MD5=[a3765a6a5211596ed59364ce26c2be37]
reverse link DASHBOARD_ABIERTO to INFORME--><g id="link_DASHBOARD_ABIERTO_INFORME"><path d="M551.87,309.0394 C555.68,322.2294 560.59,337.8594 566,351.6094 C569.87,361.4494 574.51,371.7794 579.15,381.4994 " fill="none" id="DASHBOARD_ABIERTO-backto-INFORME" style="stroke:#A80036;stroke-width:1.0;"/><polygon fill="#A80036" points="550.41,303.9294,549.0364,313.682,551.7836,308.737,556.7286,311.4842,550.41,303.9294" style="stroke:#A80036;stroke-width:1.0;"/></g><!--MD5=[d42bfe1b3b7c62dac76e573e451337ca]
link DASHBOARD_ABIERTO to *end--><g id="link_DASHBOARD_ABIERTO_*end"><path d="M601.18,303.8494 C615.18,311.7894 629.22,321.6994 640,333.6094 C655.62,350.8794 654.46,359.2594 661,381.6094 C678.39,441.0294 693.77,459.2494 680,519.6094 C676.51,534.9194 668.1,550.9394 661.78,561.5194 " fill="none" id="DASHBOARD_ABIERTO-to-*end" style="stroke:#A80036;stroke-width:1.0;"/><polygon fill="#A80036" points="659.05,565.9694,667.16,560.3811,661.6601,561.7047,660.3365,556.2049,659.05,565.9694" style="stroke:#A80036;stroke-width:1.0;"/><text fill="#000000" font-family="sans-serif" font-size="13" lengthAdjust="spacing" textLength="35" x="686" y="432.1045">logout</text></g><!--MD5=[6e9521f04217590830be2f00435d2572]
link VER_USUARIOS to *end--><g id="link_VER_USUARIOS_*end"><path d="M436.1,451.7194 C496.79,485.6694 604.16,545.7294 641.1,566.3894 " fill="none" id="VER_USUARIOS-to-*end" style="stroke:#A80036;stroke-width:1.0;"/><polygon fill="#A80036" points="645.63,568.9294,639.7248,561.0472,641.2653,566.4903,635.8222,568.0308,645.63,568.9294" style="stroke:#A80036;stroke-width:1.0;"/><text fill="#000000" font-family="sans-serif" font-size="13" lengthAdjust="spacing" textLength="35" x="556" y="516.1045">logout</text></g><!--MD5=[8bf94b30d374c43509a18f65957c2cec]
link INFORME to *end--><g id="link_INFORME_*end"><path d="M617.74,471.8094 C628.5,502.0094 642.05,540.0494 649.15,559.9794 " fill="none" id="INFORME-to-*end" style="stroke:#A80036;stroke-width:1.0;"/><polygon fill="#A80036" points="650.89,564.8794,651.6526,555.0601,649.2192,560.1668,644.1125,557.7334,650.89,564.8794" style="stroke:#A80036;stroke-width:1.0;"/><text fill="#000000" font-family="sans-serif" font-size="13" lengthAdjust="spacing" textLength="35" x="636" y="516.1045">logout</text></g><!--MD5=[f50f22eca191cbcc82f1d3d85c5626e5]
@startuml Diagrama Contexto (administrador)

skin rose
title Diagrama de contexto (admin)

[*] - ->  Inicial

Inicial -d-> DASHBOARD_ABIERTO : login

DASHBOARD_ABIERTO - -> VER_USUARIOS : verUsuarios
DASHBOARD_ABIERTO <- - VER_USUARIOS

VER_USUARIOS <- - AÑADIR_USUARIO
VER_USUARIOS <- - EDITAR_USUARIO
VER_USUARIOS <- - BAJAS_USUARIOS

VER_USUARIOS - -> AÑADIR_USUARIO : añadirUsuario
VER_USUARIOS - -> EDITAR_USUARIO : editarUsuario 
VER_USUARIOS - -> BAJAS_USUARIOS : bajaDeUsuario

DASHBOARD_ABIERTO - -> INFORME : verInforme
DASHBOARD_ABIERTO <- - INFORME

INFORME : DIARIO
INFORME : SEMANAL
INFORME : MENSUAL


DASHBOARD_ABIERTO - -> [*] : logout
VER_USUARIOS - -> [*] : logout
INFORME - -> [*] : logout


@enduml

PlantUML version 1.2022.7(Mon Aug 22 19:01:30 CEST 2022)
(GPL source distribution)
Java Runtime: Java(TM) SE Runtime Environment
JVM: Java HotSpot(TM) 64-Bit Server VM
Default Encoding: UTF-8
Language: es
Country: ES
--></g></svg>