<?xml version="1.0" encoding="us-ascii" standalone="no"?><svg xmlns="http://www.w3.org/2000/svg" xmlns:xlink="http://www.w3.org/1999/xlink" contentStyleType="text/css" height="569px" preserveAspectRatio="none" style="width:473px;height:569px;background:#FFFFFF;" version="1.1" viewBox="0 0 473 569" width="473px" zoomAndPan="magnify"><defs><filter height="300%" id="f1gqe7oo5dwifi" width="300%" x="-1" y="-1"><feGaussianBlur result="blurOut" stdDeviation="2.0"/><feColorMatrix in="blurOut" result="blurOut2" type="matrix" values="0 0 0 0 0 0 0 0 0 0 0 0 0 0 0 0 0 0 .4 0"/><feOffset dx="4.0" dy="4.0" in="blurOut2" result="blurOut3"/><feBlend in="SourceGraphic" in2="blurOut3" mode="normal"/></filter></defs><g><text fill="#000000" font-family="sans-serif" font-size="14" font-weight="bold" lengthAdjust="spacing" textLength="259" x="100" y="22.9951">Diagrama de contexto (usuario)</text><ellipse cx="312" cy="53.2969" fill="#000000" filter="url(#f1gqe7oo5dwifi)" rx="10" ry="10" style="stroke:#000000;stroke-width:1.0;"/><g id="Inicial"><rect fill="#FEFECE" filter="url(#f1gqe7oo5dwifi)" height="50" rx="12.5" ry="12.5" style="stroke:#A80036;stroke-width:1.0;" width="61" x="281.5" y="124.2969"/><line style="stroke:#A80036;stroke-width:1.0;" x1="281.5" x2="342.5" y1="150.5938" y2="150.5938"/><text fill="#000000" font-family="sans-serif" font-size="14" lengthAdjust="spacing" textLength="41" x="291.5" y="142.292">Inicial</text></g><g id="DASHBOARD_ABIERTO"><rect fill="#FEFECE" filter="url(#f1gqe7oo5dwifi)" height="50" rx="12.5" ry="12.5" style="stroke:#A80036;stroke-width:1.0;" width="182" x="221" y="251.2969"/><line style="stroke:#A80036;stroke-width:1.0;" x1="221" x2="403" y1="277.5938" y2="277.5938"/><text fill="#000000" font-family="sans-serif" font-size="14" lengthAdjust="spacing" textLength="162" x="231" y="269.292">DASHBOARD_ABIERTO</text></g><g id="FICHAJE_ACTUAL"><rect fill="#FEFECE" filter="url(#f1gqe7oo5dwifi)" height="50" rx="12.5" ry="12.5" style="stroke:#A80036;stroke-width:1.0;" width="138" x="245" y="378.2969"/><line style="stroke:#A80036;stroke-width:1.0;" x1="245" x2="383" y1="404.5938" y2="404.5938"/><text fill="#000000" font-family="sans-serif" font-size="14" lengthAdjust="spacing" textLength="118" x="255" y="396.292">FICHAJE_ACTUAL</text></g><g id="INFORME"><rect fill="#FEFECE" filter="url(#f1gqe7oo5dwifi)" height="50" rx="12.5" ry="12.5" style="stroke:#A80036;stroke-width:1.0;" width="84" x="116" y="378.2969"/><line style="stroke:#A80036;stroke-width:1.0;" x1="116" x2="200" y1="404.5938" y2="404.5938"/><text fill="#000000" font-family="sans-serif" font-size="14" lengthAdjust="spacing" textLength="64" x="126" y="396.292">INFORME</text></g><g id="DIARIO"><rect fill="#FEFECE" filter="url(#f1gqe7oo5dwifi)" height="50" rx="12.5" ry="12.5" style="stroke:#A80036;stroke-width:1.0;" width="70" x="7" y="505.2969"/><line style="stroke:#A80036;stroke-width:1.0;" x1="7" x2="77" y1="531.5938" y2="531.5938"/><text fill="#000000" font-family="sans-serif" font-size="14" lengthAdjust="spacing" textLength="50" x="17" y="523.292">DIARIO</text></g><g id="SEMANAL"><rect fill="#FEFECE" filter="url(#f1gqe7oo5dwifi)" height="50" rx="12.5" ry="12.5" style="stroke:#A80036;stroke-width:1.0;" width="88" x="112" y="505.2969"/><line style="stroke:#A80036;stroke-width:1.0;" x1="112" x2="200" y1="531.5938" y2="531.5938"/><text fill="#000000" font-family="sans-serif" font-size="14" lengthAdjust="spacing" textLength="68" x="122" y="523.292">SEMANAL</text></g><g id="MENSUAL"><rect fill="#FEFECE" filter="url(#f1gqe7oo5dwifi)" height="50" rx="12.5" ry="12.5" style="stroke:#A80036;stroke-width:1.0;" width="87" x="235.5" y="505.2969"/><line style="stroke:#A80036;stroke-width:1.0;" x1="235.5" x2="322.5" y1="531.5938" y2="531.5938"/><text fill="#000000" font-family="sans-serif" font-size="14" lengthAdjust="spacing" textLength="67" x="245.5" y="523.292">MENSUAL</text></g><ellipse cx="388" cy="530.2969" fill="none" filter="url(#f1gqe7oo5dwifi)" rx="11" ry="11" style="stroke:#000000;stroke-width:1.0;"/><ellipse cx="388" cy="530.2969" fill="#000000" rx="6" ry="6" style="stroke:#000000;stroke-width:1.0;"/><!--link *start* to Inicial--><g id="link_*start*_Inicial"><path d="M312,63.3099 C312,77.1879 312,98.2619 312,118.1369 " fill="none" id="*start*-to-Inicial" style="stroke:#A80036;stroke-width:1.0;"/><polygon fill="#A80036" points="312,124.1369,316,115.1369,312,119.1369,308,115.1369,312,124.1369" style="stroke:#A80036;stroke-width:1.0;"/></g><!--link Inicial to DASHBOARD_ABIERTO--><g id="link_Inicial_DASHBOARD_ABIERTO"><path d="M312,174.3979 C312,196.5329 312,223.1579 312,245.2699 " fill="none" id="Inicial-to-DASHBOARD_ABIERTO" style="stroke:#A80036;stroke-width:1.0;"/><polygon fill="#A80036" points="312,251.2699,316,242.2699,312,246.2699,308,242.2699,312,251.2699" style="stroke:#A80036;stroke-width:1.0;"/><text fill="#000000" font-family="sans-serif" font-size="13" lengthAdjust="spacing" textLength="30" x="313" y="217.3638">login</text></g><!--link DASHBOARD_ABIERTO to FICHAJE_ACTUAL--><g id="link_DASHBOARD_ABIERTO_FICHAJE_ACTUAL"><path d="M354.321,301.3839 C364.617,309.4659 374.297,319.4859 380,331.2969 C388.635,349.1799 380.1009,362.0805 363.2009,374.6535 " fill="none" id="DASHBOARD_ABIERTO-to-FICHAJE_ACTUAL" style="stroke:#A80036;stroke-width:1.0;"/><polygon fill="#A80036" points="358.387,378.2349,367.9955,376.0721,362.3986,375.2504,363.2203,369.6535,358.387,378.2349" style="stroke:#A80036;stroke-width:1.0;"/></g><!--reverse link DASHBOARD_ABIERTO to FICHAJE_ACTUAL--><g id="link_DASHBOARD_ABIERTO_FICHAJE_ACTUAL"><path d="M309.5118,307.6026 C308.5998,321.3126 308.283,332.7679 309,348.2969 C309.452,358.0779 310.362,368.8239 311.283,378.1369 " fill="none" id="DASHBOARD_ABIERTO-backto-FICHAJE_ACTUAL" style="stroke:#A80036;stroke-width:1.0;"/><polygon fill="#A80036" points="309.91,301.6159,305.3215,310.3305,309.5781,306.6048,313.3038,310.8615,309.91,301.6159" style="stroke:#A80036;stroke-width:1.0;"/><text fill="#000000" font-family="sans-serif" font-size="13" lengthAdjust="spacing" textLength="65" x="310" y="344.3638">verFichaje</text></g><!--link DASHBOARD_ABIERTO to INFORME--><g id="link_DASHBOARD_ABIERTO_INFORME"><path d="M285.883,301.6129 C270.51,315.6349 250.51,333.3849 232,348.2969 C219.367,358.4739 209.9202,365.6053 197.2712,374.7233 " fill="none" id="DASHBOARD_ABIERTO-to-INFORME" style="stroke:#A80036;stroke-width:1.0;"/><polygon fill="#A80036" points="192.404,378.2319,202.0439,376.2139,196.46,375.3081,197.3658,369.7242,192.404,378.2319" style="stroke:#A80036;stroke-width:1.0;"/></g><!--reverse link DASHBOARD_ABIERTO to INFORME--><g id="link_DASHBOARD_ABIERTO_INFORME"><path d="M214.8989,290.4557 C189.5469,298.2967 170.487,309.5929 155,331.2969 C145.469,344.6539 146.651,363.2959 149.987,378.1259 " fill="none" id="DASHBOARD_ABIERTO-backto-INFORME" style="stroke:#A80036;stroke-width:1.0;"/><polygon fill="#A80036" points="220.631,288.6829,210.8509,287.5208,215.8542,290.1603,213.2148,295.1636,220.631,288.6829" style="stroke:#A80036;stroke-width:1.0;"/><text fill="#000000" font-family="sans-serif" font-size="13" lengthAdjust="spacing" textLength="71" x="156" y="344.3638">verInforme</text></g><!--link INFORME to DIARIO--><g id="link_INFORME_DIARIO"><path d="M146.55,428.3979 C129.458,450.5329 103.5886,479.0907 79.6125,501.2019 " fill="none" id="INFORME-to-DIARIO" style="stroke:#A80036;stroke-width:1.0;"/><polygon fill="#A80036" points="75.2018,505.2696,84.5296,502.1086,78.8774,501.8799,79.1061,496.2276,75.2018,505.2696" style="stroke:#A80036;stroke-width:1.0;"/></g><!--reverse link INFORME to DIARIO--><g id="link_INFORME_DIARIO"><path d="M120.9306,432.4842 C97.1326,454.6192 71.2531,483.1584 53.9986,505.2696 " fill="none" id="INFORME-backto-DIARIO" style="stroke:#A80036;stroke-width:1.0;"/><polygon fill="#A80036" points="125.324,428.3979,116.0097,431.5985,121.6629,431.8032,121.4582,437.4563,125.324,428.3979" style="stroke:#A80036;stroke-width:1.0;"/></g><!--link INFORME to SEMANAL--><g id="link_INFORME_SEMANAL"><path d="M168.53,428.3979 C171.625,450.5329 172.1191,477.2456 168.3081,499.3568 " fill="none" id="INFORME-to-SEMANAL" style="stroke:#A80036;stroke-width:1.0;"/><polygon fill="#A80036" points="167.289,505.2696,172.7595,497.0798,168.1383,500.3422,164.8758,495.7209,167.289,505.2696" style="stroke:#A80036;stroke-width:1.0;"/></g><!--reverse link INFORME to SEMANAL--><g id="link_INFORME_SEMANAL"><path d="M146.3387,434.3196 C142.7267,456.4546 143.175,483.1584 146.086,505.2696 " fill="none" id="INFORME-backto-SEMANAL" style="stroke:#A80036;stroke-width:1.0;"/><polygon fill="#A80036" points="147.305,428.3979,141.9078,436.6362,146.4997,433.3326,149.8033,437.9246,147.305,428.3979" style="stroke:#A80036;stroke-width:1.0;"/></g><!--link INFORME to MENSUAL--><g id="link_INFORME_MENSUAL"><path d="M192.246,428.3979 C217.122,450.5329 244.9178,478.4998 262.8648,500.611 " fill="none" id="INFORME-to-MENSUAL" style="stroke:#A80036;stroke-width:1.0;"/><polygon fill="#A80036" points="266.646,505.2696,264.0799,495.7609,263.495,501.3874,257.8684,500.8025,266.646,505.2696" style="stroke:#A80036;stroke-width:1.0;"/></g><!--reverse link INFORME to MENSUAL--><g id="link_INFORME_MENSUAL"><path d="M174.8268,433.0356 C192.9958,455.1706 220.774,483.1584 245.443,505.2696 " fill="none" id="INFORME-backto-MENSUAL" style="stroke:#A80036;stroke-width:1.0;"/><polygon fill="#A80036" points="171.02,428.3979,173.6383,437.8923,174.1923,432.2626,179.822,432.8166,171.02,428.3979" style="stroke:#A80036;stroke-width:1.0;"/></g><!--link DASHBOARD_ABIERTO to *end*--><g id="link_DASHBOARD_ABIERTO_*end*"><path d="M377.25,301.5419 C389.522,309.1559 400.76,318.9169 408,331.2969 C445.327,395.1199 408.8095,485.1625 394.9895,514.7739 " fill="none" id="DASHBOARD_ABIERTO-to-*end*" style="stroke:#A80036;stroke-width:1.0;"/><polygon fill="#A80036" points="392.452,520.2109,399.8829,513.747,394.5666,515.68,392.6336,510.3637,392.452,520.2109" style="stroke:#A80036;stroke-width:1.0;"/><text fill="#000000" font-family="sans-serif" font-size="13" lengthAdjust="spacing" textLength="40" x="425" y="407.8638">logout</text></g><!--link FICHAJE_ACTUAL to *end*--><g id="link_FICHAJE_ACTUAL_*end*"><path d="M330.236,428.5219 C336.278,437.7489 343.097,448.4189 349,458.2969 C361.987,480.0264 373.2071,500.9855 380.3781,514.6704 " fill="none" id="FICHAJE_ACTUAL-to-*end*" style="stroke:#A80036;stroke-width:1.0;"/><polygon fill="#A80036" points="383.163,519.985,382.5287,510.1566,380.8423,515.5562,375.4427,513.8697,383.163,519.985" style="stroke:#A80036;stroke-width:1.0;"/><text fill="#000000" font-family="sans-serif" font-size="13" lengthAdjust="spacing" textLength="40" x="359" y="471.3638">logout</text></g><!--link INFORME to *end*--><g id="link_INFORME_*end*"><path d="M200.173,425.7789 C219.149,435.5519 241.782,447.3559 262,458.2969 C306.165,482.1973 353.0313,509.0876 373.6943,521.0212 " fill="none" id="INFORME-to-*end*" style="stroke:#A80036;stroke-width:1.0;"/><polygon fill="#A80036" points="378.89,524.0219,373.0969,516.057,374.5602,521.5213,369.0959,522.9846,378.89,524.0219" style="stroke:#A80036;stroke-width:1.0;"/><text fill="#000000" font-family="sans-serif" font-size="13" lengthAdjust="spacing" textLength="40" x="291" y="471.3638">logout</text></g><!--SRC=[TP1H2u8m58NVzolkOmNx0nB1oecBLD1wYeYXgrQsmPpLpy-PX5czZU_SStRkhIvIWT6LG5RQKe0l-T7mAuT2GAwL5G-hOLHNDJTIZn7QJdQ0yGo0APbBNYBKFG0N-guQnITPE4z8wk_9dD5qdNXGwgDK27qfRLB05Y5PqZrPh3TazMU8nK6IHlHNnXJZGGPuS1CcaFc9dyKVHnVu6cNgeCrLDBjqr7tfCvAov0DbD29nqx7F8XfdhlSRklI1rw6Xrx6tz_VIxjRjyNHjqM35BxtVgIyy0G00]--></g></svg>