<?xml version="1.0" encoding="us-ascii" standalone="no"?><svg xmlns="http://www.w3.org/2000/svg" xmlns:xlink="http://www.w3.org/1999/xlink" contentStyleType="text/css" height="553px" preserveAspectRatio="none" style="width:773px;height:553px;background:#FFFFFF;" version="1.1" viewBox="0 0 773 553" width="773px" zoomAndPan="magnify"><defs><filter height="300%" id="fewfuq8dnjmoz" width="300%" x="-1" y="-1"><feGaussianBlur result="blurOut" stdDeviation="2.0"/><feColorMatrix in="blurOut" result="blurOut2" type="matrix" values="0 0 0 0 0 0 0 0 0 0 0 0 0 0 0 0 0 0 .4 0"/><feOffset dx="4.0" dy="4.0" in="blurOut2" result="blurOut3"/><feBlend in="SourceGraphic" in2="blurOut3" mode="normal"/></filter></defs><g><text fill="#000000" font-family="sans-serif" font-size="14" font-weight="bold" lengthAdjust="spacing" textLength="248" x="255.5" y="22.9951">Diagrama de contexto (admin)</text><ellipse cx="602" cy="53.2969" fill="#000000" filter="url(#fewfuq8dnjmoz)" rx="10" ry="10" style="stroke:#000000;stroke-width:1.0;"/><g id="Inicial"><rect fill="#FEFECE" filter="url(#fewfuq8dnjmoz)" height="50" rx="12.5" ry="12.5" style="stroke:#A80036;stroke-width:1.0;" width="61" x="571.5" y="124.2969"/><line style="stroke:#A80036;stroke-width:1.0;" x1="571.5" x2="632.5" y1="150.5938" y2="150.5938"/><text fill="#000000" font-family="sans-serif" font-size="14" lengthAdjust="spacing" textLength="41" x="581.5" y="142.292">Inicial</text></g><g id="DASHBOARD_ABIERTO"><rect fill="#FEFECE" filter="url(#fewfuq8dnjmoz)" height="50" rx="12.5" ry="12.5" style="stroke:#A80036;stroke-width:1.0;" width="182" x="511" y="251.2969"/><line style="stroke:#A80036;stroke-width:1.0;" x1="511" x2="693" y1="277.5938" y2="277.5938"/><text fill="#000000" font-family="sans-serif" font-size="14" lengthAdjust="spacing" textLength="162" x="521" y="269.292">DASHBOARD_ABIERTO</text></g><g id="LISTA_EMPLEADOS"><rect fill="#FEFECE" filter="url(#fewfuq8dnjmoz)" height="50" rx="12.5" ry="12.5" style="stroke:#A80036;stroke-width:1.0;" width="155" x="363.5" y="362.2969"/><line style="stroke:#A80036;stroke-width:1.0;" x1="363.5" x2="518.5" y1="388.5938" y2="388.5938"/><text fill="#000000" font-family="sans-serif" font-size="14" lengthAdjust="spacing" textLength="135" x="373.5" y="380.292">LISTA_EMPLEADOS</text></g><g id="A&#209;ADIR_USUARIO"><rect fill="#FEFECE" filter="url(#fewfuq8dnjmoz)" height="50" rx="12.5" ry="12.5" style="stroke:#A80036;stroke-width:1.0;" width="144" x="7" y="489.2969"/><line style="stroke:#A80036;stroke-width:1.0;" x1="7" x2="151" y1="515.5938" y2="515.5938"/><text fill="#000000" font-family="sans-serif" font-size="14" lengthAdjust="spacing" textLength="124" x="17" y="507.292">A&#209;ADIR_USUARIO</text></g><g id="EDITAR_USUARIO"><rect fill="#FEFECE" filter="url(#fewfuq8dnjmoz)" height="50" rx="12.5" ry="12.5" style="stroke:#A80036;stroke-width:1.0;" width="142" x="186" y="489.2969"/><line style="stroke:#A80036;stroke-width:1.0;" x1="186" x2="328" y1="515.5938" y2="515.5938"/><text fill="#000000" font-family="sans-serif" font-size="14" lengthAdjust="spacing" textLength="122" x="196" y="507.292">EDITAR_USUARIO</text></g><g id="ELIMINAR_USUARIO"><rect fill="#FEFECE" filter="url(#fewfuq8dnjmoz)" height="50" rx="12.5" ry="12.5" style="stroke:#A80036;stroke-width:1.0;" width="156" x="363" y="489.2969"/><line style="stroke:#A80036;stroke-width:1.0;" x1="363" x2="519" y1="515.5938" y2="515.5938"/><text fill="#000000" font-family="sans-serif" font-size="14" lengthAdjust="spacing" textLength="136" x="373" y="507.292">ELIMINAR_USUARIO</text></g><g id="BAJAS_DOCENTES"><rect fill="#FEFECE" filter="url(#fewfuq8dnjmoz)" height="50" rx="12.5" ry="12.5" style="stroke:#A80036;stroke-width:1.0;" width="148" x="554" y="489.2969"/><line style="stroke:#A80036;stroke-width:1.0;" x1="554" x2="702" y1="515.5938" y2="515.5938"/><text fill="#000000" font-family="sans-serif" font-size="14" lengthAdjust="spacing" textLength="128" x="564" y="507.292">BAJAS_DOCENTES</text></g><ellipse cx="748" cy="514.2969" fill="none" filter="url(#fewfuq8dnjmoz)" rx="11" ry="11" style="stroke:#000000;stroke-width:1.0;"/><ellipse cx="748" cy="514.2969" fill="#000000" rx="6" ry="6" style="stroke:#000000;stroke-width:1.0;"/><!--link *start* to Inicial--><g id="link_*start*_Inicial"><path d="M602,63.3099 C602,77.1879 602,98.2619 602,118.1369 " fill="none" id="*start*-to-Inicial" style="stroke:#A80036;stroke-width:1.0;"/><polygon fill="#A80036" points="602,124.1369,606,115.1369,602,119.1369,598,115.1369,602,124.1369" style="stroke:#A80036;stroke-width:1.0;"/></g><!--link Inicial to DASHBOARD_ABIERTO--><g id="link_Inicial_DASHBOARD_ABIERTO"><path d="M602,174.3979 C602,196.5329 602,223.1579 602,245.2699 " fill="none" id="Inicial-to-DASHBOARD_ABIERTO" style="stroke:#A80036;stroke-width:1.0;"/><polygon fill="#A80036" points="602,251.2699,606,242.2699,602,246.2699,598,242.2699,602,251.2699" style="stroke:#A80036;stroke-width:1.0;"/><text fill="#000000" font-family="sans-serif" font-size="13" lengthAdjust="spacing" textLength="30" x="603" y="217.3638">login</text></g><!--link DASHBOARD_ABIERTO to LISTA_EMPLEADOS--><g id="link_DASHBOARD_ABIERTO_LISTA_EMPLEADOS"><path d="M566.269,301.4879 C539.588,319.5509 508.2565,340.7632 481.5995,358.8102 " fill="none" id="DASHBOARD_ABIERTO-to-LISTA_EMPLEADOS" style="stroke:#A80036;stroke-width:1.0;"/><polygon fill="#A80036" points="476.631,362.1739,486.3262,360.4407,480.7714,359.3708,481.8412,353.816,476.631,362.1739" style="stroke:#A80036;stroke-width:1.0;"/></g><!--reverse link LISTA_EMPLEADOS to A?ADIR_USUARIO--><g id="link_LISTA_EMPLEADOS_A&#209;ADIR_USUARIO"><path d="M357.435,413.5322 C290.019,435.6492 199.945,466.838 138.49,489.1948 " fill="none" id="LISTA_EMPLEADOS-backto-A&#209;ADIR_USUARIO" style="stroke:#A80036;stroke-width:1.0;"/><polygon fill="#A80036" points="363.136,411.6619,353.3376,410.6667,358.3851,413.2205,355.8313,418.2681,363.136,411.6619" style="stroke:#A80036;stroke-width:1.0;"/></g><!--link LISTA_EMPLEADOS to A?ADIR_USUARIO--><g id="link_LISTA_EMPLEADOS_A&#209;ADIR_USUARIO"><path d="M382.119,412.3979 C318.939,435.4549 224.7514,468.0385 156.9014,490.1204 " fill="none" id="LISTA_EMPLEADOS-to-A&#209;ADIR_USUARIO" style="stroke:#A80036;stroke-width:1.0;"/><polygon fill="#A80036" points="151.196,491.9773,160.9921,492.9956,155.9505,490.4299,158.5163,485.3884,151.196,491.9773" style="stroke:#A80036;stroke-width:1.0;"/></g><!--reverse link LISTA_EMPLEADOS to EDITAR_USUARIO--><g id="link_LISTA_EMPLEADOS_EDITAR_USUARIO"><path d="M390.1082,415.5507 C354.2692,437.6857 311.352,467.1584 282.069,489.2696 " fill="none" id="LISTA_EMPLEADOS-backto-EDITAR_USUARIO" style="stroke:#A80036;stroke-width:1.0;"/><polygon fill="#A80036" points="395.213,412.3979,385.4538,413.724,390.959,415.0253,389.6576,420.5304,395.213,412.3979" style="stroke:#A80036;stroke-width:1.0;"/></g><!--link LISTA_EMPLEADOS to EDITAR_USUARIO--><g id="link_LISTA_EMPLEADOS_EDITAR_USUARIO"><path d="M416.439,412.3979 C387.306,434.5329 344.3898,464.0184 308.3858,486.1296 " fill="none" id="LISTA_EMPLEADOS-to-EDITAR_USUARIO" style="stroke:#A80036;stroke-width:1.0;"/><polygon fill="#A80036" points="303.273,489.2696,313.0355,487.9682,307.5337,486.653,308.8489,481.1511,303.273,489.2696" style="stroke:#A80036;stroke-width:1.0;"/></g><!--reverse link LISTA_EMPLEADOS to ELIMINAR_USUARIO--><g id="link_LISTA_EMPLEADOS_ELIMINAR_USUARIO"><path d="M429.8165,418.334 C426.5595,440.469 427.437,467.1584 430.701,489.2696 " fill="none" id="LISTA_EMPLEADOS-backto-ELIMINAR_USUARIO" style="stroke:#A80036;stroke-width:1.0;"/><polygon fill="#A80036" points="430.69,412.3979,425.4224,420.7197,429.9621,417.3446,433.3372,421.8843,430.69,412.3979" style="stroke:#A80036;stroke-width:1.0;"/></g><!--link LISTA_EMPLEADOS to ELIMINAR_USUARIO--><g id="link_LISTA_EMPLEADOS_ELIMINAR_USUARIO"><path d="M451.916,412.3979 C455.365,434.5329 456.2878,461.2304 452.8308,483.3416 " fill="none" id="LISTA_EMPLEADOS-to-ELIMINAR_USUARIO" style="stroke:#A80036;stroke-width:1.0;"/><polygon fill="#A80036" points="451.904,489.2696,457.2462,480.9955,452.6763,484.3296,449.3422,479.7597,451.904,489.2696" style="stroke:#A80036;stroke-width:1.0;"/></g><!--reverse link LISTA_EMPLEADOS to BAJAS_DOCENTES--><g id="link_LISTA_EMPLEADOS_BAJAS_DOCENTES"><path d="M471.5658,415.9713 C501.4218,438.1063 545.413,467.1584 581.757,489.2696 " fill="none" id="LISTA_EMPLEADOS-backto-BAJAS_DOCENTES" style="stroke:#A80036;stroke-width:1.0;"/><polygon fill="#A80036" points="466.746,412.3979,471.5935,420.9712,470.7625,415.3757,476.358,414.5447,466.746,412.3979" style="stroke:#A80036;stroke-width:1.0;"/></g><!--link LISTA_EMPLEADOS to BAJAS_DOCENTES--><g id="link_LISTA_EMPLEADOS_BAJAS_DOCENTES"><path d="M487.971,412.3979 C524.534,434.5329 568.5298,463.5693 598.1518,485.6805 " fill="none" id="LISTA_EMPLEADOS-to-BAJAS_DOCENTES" style="stroke:#A80036;stroke-width:1.0;"/><polygon fill="#A80036" points="602.96,489.2696,598.1404,480.6805,598.9532,486.2787,593.355,487.0915,602.96,489.2696" style="stroke:#A80036;stroke-width:1.0;"/></g><!--link DASHBOARD_ABIERTO to *end*--><g id="link_DASHBOARD_ABIERTO_*end*"><path d="M617.075,301.6639 C648.986,353.2469 718.9573,466.3508 739.4293,499.4423 " fill="none" id="DASHBOARD_ABIERTO-to-*end*" style="stroke:#A80036;stroke-width:1.0;"/><polygon fill="#A80036" points="742.586,504.5448,741.2527,494.7866,739.9555,500.2927,734.4493,498.9955,742.586,504.5448" style="stroke:#A80036;stroke-width:1.0;"/><text fill="#000000" font-family="sans-serif" font-size="13" lengthAdjust="spacing" textLength="40" x="686" y="391.8638">logout</text></g><!--link LISTA_EMPLEADOS to *end*--><g id="link_LISTA_EMPLEADOS_*end*"><path d="M518.73,408.7259 C576.274,425.6719 655.383,452.88 719,489.2969 C726.94,493.8423 730.483,496.4997 736.038,501.6851 " fill="none" id="LISTA_EMPLEADOS-to-*end*" style="stroke:#A80036;stroke-width:1.0;"/><polygon fill="#A80036" points="740.424,505.7793,736.5744,496.7139,736.769,502.3674,731.1155,502.562,740.424,505.7793" style="stroke:#A80036;stroke-width:1.0;"/><text fill="#000000" font-family="sans-serif" font-size="13" lengthAdjust="spacing" textLength="40" x="655" y="455.3638">logout</text></g><!--SRC=[XP512i8m44NtSufPgf0BY0XJ4p1IZJHr9LA2BILO4z08NiCpUJ6Dk12jP3VyUNmUC-U3TNZovmQ23Ls3t9hsP8u6wmRtteNc6ZmEJ7sqRWYm7UsGiIcYT7PlJGVm7f3LpvYJdcUA2bvH9aLHAXnZvrlh07vNiIUNkgHABDUv8Auqm5U04yQGxZVYigWsUaE5LBsCuBAa19BBfLmbe8mMf2kkPc9LYXwVA9toYKp2vuMaV2BqxVFdZl4lhrFxI-Zj-GGU]--></g></svg>