<?xml version="1.0" encoding="us-ascii" standalone="no"?><svg xmlns="http://www.w3.org/2000/svg" xmlns:xlink="http://www.w3.org/1999/xlink" contentStyleType="text/css" height="1180px" preserveAspectRatio="none" style="width:978px;height:1180px;background:#FFFFFF;" version="1.1" viewBox="0 0 978 1180" width="978px" zoomAndPan="magnify"><defs/><g><ellipse cx="486" cy="16" fill="#222222" rx="10" ry="10" style="stroke:#222222;stroke-width:1.0;"/><g id="INICIO"><rect fill="#FAF4B4" height="50" rx="12.5" ry="12.5" style="stroke:#C90000;stroke-width:0.5;" width="63" x="454.5" y="87"/><line style="stroke:#C90000;stroke-width:0.5;" x1="454.5" x2="517.5" y1="113.2969" y2="113.2969"/><text fill="#000000" font-family="sans-serif" font-size="14" lengthAdjust="spacing" textLength="43" x="464.5" y="104.9951">INICIO</text></g><path d="M19.5,232 L952.5,232 A12.5,12.5 0 0 1 965,244.5 L965,258.2969 L7,258.2969 L7,244.5 A12.5,12.5 0 0 1 19.5,232 " fill="#FAF4B4" style="stroke:#FAF4B4;stroke-width:1.0;"/><rect fill="none" height="797.2969" rx="12.5" ry="12.5" style="stroke:#C90000;stroke-width:0.5;" width="958" x="7" y="232"/><line style="stroke:#C90000;stroke-width:0.5;" x1="7" x2="965" y1="258.2969" y2="258.2969"/><text fill="#000000" font-family="sans-serif" font-size="14" lengthAdjust="spacing" textLength="31" x="470.5" y="249.9951">FISC</text><ellipse cx="340" cy="279.2969" fill="#222222" rx="10" ry="10" style="stroke:#222222;stroke-width:1.0;"/><g id="FISC.ESTADO_PRINCIPAL"><rect fill="#FAF4B4" height="50" rx="12.5" ry="12.5" style="stroke:#C90000;stroke-width:0.5;" width="160" x="260" y="360.2969"/><line style="stroke:#C90000;stroke-width:0.5;" x1="260" x2="420" y1="386.5938" y2="386.5938"/><text fill="#000000" font-family="sans-serif" font-size="14" lengthAdjust="spacing" textLength="140" x="270" y="378.292">ESTADO_PRINCIPAL</text></g><g id="FISC.ESTADO_PROYECTO"><rect fill="#FAF4B4" height="50" rx="12.5" ry="12.5" style="stroke:#C90000;stroke-width:0.5;" width="164" x="258" y="481.2969"/><line style="stroke:#C90000;stroke-width:0.5;" x1="258" x2="422" y1="507.5938" y2="507.5938"/><text fill="#000000" font-family="sans-serif" font-size="14" lengthAdjust="spacing" textLength="144" x="268" y="499.292">ESTADO_PROYECTO</text></g><g id="FISC.REPORTE"><rect fill="#FAF4B4" height="50" rx="12.5" ry="12.5" style="stroke:#C90000;stroke-width:0.5;" width="87" x="293.5" y="969.2969"/><line style="stroke:#C90000;stroke-width:0.5;" x1="293.5" x2="380.5" y1="995.5938" y2="995.5938"/><text fill="#000000" font-family="sans-serif" font-size="14" lengthAdjust="spacing" textLength="67" x="303.5" y="987.292">REPORTE</text></g><g id="FISC.CONFIGURACI&#211;N_DE_SIMULACI&#211;N"><rect fill="#FAF4B4" height="50" rx="12.5" ry="12.5" style="stroke:#C90000;stroke-width:0.5;" width="259" x="200.5" y="602.2969"/><line style="stroke:#C90000;stroke-width:0.5;" x1="200.5" x2="459.5" y1="628.5938" y2="628.5938"/><text fill="#000000" font-family="sans-serif" font-size="14" lengthAdjust="spacing" textLength="239" x="210.5" y="620.292">CONFIGURACI&#211;N_DE_SIMULACI&#211;N</text></g><g id="FISC.SIMULANDO"><rect fill="#FAF4B4" height="50" rx="12.5" ry="12.5" style="stroke:#C90000;stroke-width:0.5;" width="104" x="432" y="810.2969"/><line style="stroke:#C90000;stroke-width:0.5;" x1="432" x2="536" y1="836.5938" y2="836.5938"/><text fill="#000000" font-family="sans-serif" font-size="14" lengthAdjust="spacing" textLength="84" x="442" y="828.292">SIMULANDO</text></g><!--link *start*FISC to ESTADO_PRINCIPAL--><g id="link_*start*FISC_ESTADO_PRINCIPAL"><path d="M340,289.5259 C340,305.2349 340,331.6539 340,354.1719 " fill="none" id="*start*FISC-to-ESTADO_PRINCIPAL" style="stroke:#218C00;stroke-width:1.0;"/><polygon fill="#218C00" points="340,360.1719,344,351.1719,340,355.1719,336,351.1719,340,360.1719" style="stroke:#218C00;stroke-width:1.0;"/><path d="M345,312.2969 L345,337.2969 L477,337.2969 L477,322.2969 L467,312.2969 L345,312.2969 " fill="#F5F5F5" style="stroke:#C90000;stroke-width:0.5;"/><path d="M467,312.2969 L467,322.2969 L477,322.2969 L467,312.2969 " fill="#F5F5F5" style="stroke:#C90000;stroke-width:0.5;"/><text fill="#000000" font-family="sans-serif" font-size="13" lengthAdjust="spacing" textLength="103" x="351" y="329.3638">Listar Proyectos</text></g><!--link ESTADO_PRINCIPAL to ESTADO_PROYECTO--><g id="link_ESTADO_PRINCIPAL_ESTADO_PROYECTO"><path d="M259.991,396.7329 C164.626,409.1719 18,428.2969 18,428.2969 C18,428.2969 18,463.2969 18,463.2969 C18,463.2969 156.5624,481.3698 251.9634,493.8138 " fill="none" id="ESTADO_PRINCIPAL-to-ESTADO_PROYECTO" style="stroke:#218C00;stroke-width:1.0;"/><polygon fill="#218C00" points="257.913,494.5899,249.506,489.4594,252.955,493.9432,248.4712,497.3922,257.913,494.5899" style="stroke:#218C00;stroke-width:1.0;"/><path d="M23,433.2969 L23,458.2969 L143,458.2969 L143,443.2969 L133,433.2969 L23,433.2969 " fill="#F5F5F5" style="stroke:#C90000;stroke-width:0.5;"/><path d="M133,433.2969 L133,443.2969 L143,443.2969 L133,433.2969 " fill="#F5F5F5" style="stroke:#C90000;stroke-width:0.5;"/><text fill="#000000" font-family="sans-serif" font-size="13" lengthAdjust="spacing" textLength="91" x="29" y="450.3638">Abrir Proyecto</text></g><!--link ESTADO_PRINCIPAL to ESTADO_PROYECTO--><g id="link_ESTADO_PRINCIPAL_ESTADO_PROYECTO"><path d="M259.954,406.1899 C216.273,417.0459 171,428.2969 171,428.2969 C171,428.2969 171,463.2969 171,463.2969 C171,463.2969 209.0941,472.7637 252.1521,483.4647 " fill="none" id="ESTADO_PRINCIPAL-to-ESTADO_PROYECTO-1" style="stroke:#218C00;stroke-width:1.0;"/><polygon fill="#218C00" points="257.975,484.9119,250.2054,478.8593,253.1226,483.7059,248.2759,486.6231,257.975,484.9119" style="stroke:#218C00;stroke-width:1.0;"/><path d="M176,433.2969 L176,458.2969 L313,458.2969 L313,443.2969 L303,433.2969 L176,433.2969 " fill="#F5F5F5" style="stroke:#C90000;stroke-width:0.5;"/><path d="M303,433.2969 L303,443.2969 L313,443.2969 L303,433.2969 " fill="#F5F5F5" style="stroke:#C90000;stroke-width:0.5;"/><text fill="#000000" font-family="sans-serif" font-size="13" lengthAdjust="spacing" textLength="116" x="182" y="450.3638">Importar Proyecto</text></g><!--link ESTADO_PRINCIPAL to ESTADO_PROYECTO--><g id="link_ESTADO_PRINCIPAL_ESTADO_PROYECTO"><path d="M340,410.3779 C340,431.0239 340,454.6159 340,475.2509 " fill="none" id="ESTADO_PRINCIPAL-to-ESTADO_PROYECTO-2" style="stroke:#218C00;stroke-width:1.0;"/><polygon fill="#218C00" points="340,481.2509,344,472.2509,340,476.2509,336,472.2509,340,481.2509" style="stroke:#218C00;stroke-width:1.0;"/><path d="M345,433.2969 L345,458.2969 L466,458.2969 L466,443.2969 L456,433.2969 L345,433.2969 " fill="#F5F5F5" style="stroke:#C90000;stroke-width:0.5;"/><path d="M456,433.2969 L456,443.2969 L466,443.2969 L456,433.2969 " fill="#F5F5F5" style="stroke:#C90000;stroke-width:0.5;"/><text fill="#000000" font-family="sans-serif" font-size="13" lengthAdjust="spacing" textLength="96" x="351" y="450.3638">Crear Proyecto</text></g><!--link ESTADO_PRINCIPAL to ESTADO_PROYECTO--><g id="link_ESTADO_PRINCIPAL_ESTADO_PROYECTO"><path d="M415.637,410.3629 C445.131,419.7479 472,428.2969 472,428.2969 C472,428.2969 472,463.2969 472,463.2969 C472,463.2969 450.8485,470.0266 421.3545,479.4116 " fill="none" id="ESTADO_PRINCIPAL-to-ESTADO_PROYECTO-3" style="stroke:#218C00;stroke-width:1.0;"/><polygon fill="#218C00" points="415.637,481.2309,425.4262,482.3136,420.4016,479.7148,423.0004,474.6902,415.637,481.2309" style="stroke:#218C00;stroke-width:1.0;"/><path d="M477,433.2969 L477,458.2969 L621,458.2969 L621,443.2969 L611,433.2969 L477,433.2969 " fill="#F5F5F5" style="stroke:#C90000;stroke-width:0.5;"/><path d="M611,433.2969 L611,443.2969 L621,443.2969 L611,433.2969 " fill="#F5F5F5" style="stroke:#C90000;stroke-width:0.5;"/><text fill="#000000" font-family="sans-serif" font-size="13" lengthAdjust="spacing" textLength="123" x="483" y="450.3638">Listar Simulaciones</text></g><!--link ESTADO_PRINCIPAL to ESTADO_PRINCIPAL--><g id="link_ESTADO_PRINCIPAL_ESTADO_PRINCIPAL"><path d="M420.36,375.3759 C430.966,377.0679 438,380.3749 438,385.2969 C438,390.2189 436.8911,392.5806 426.2851,394.2726 " fill="none" id="ESTADO_PRINCIPAL-to-ESTADO_PRINCIPAL" style="stroke:#218C00;stroke-width:1.0;"/><polygon fill="#218C00" points="420.36,395.2179,429.8778,397.7501,425.2976,394.4302,428.6175,389.85,420.36,395.2179" style="stroke:#218C00;stroke-width:1.0;"/><path d="M443,372.7969 L443,397.7969 L580,397.7969 L580,382.7969 L570,372.7969 L443,372.7969 " fill="#F5F5F5" style="stroke:#C90000;stroke-width:0.5;"/><path d="M570,372.7969 L570,382.7969 L580,382.7969 L570,372.7969 " fill="#F5F5F5" style="stroke:#C90000;stroke-width:0.5;"/><text fill="#000000" font-family="sans-serif" font-size="13" lengthAdjust="spacing" textLength="116" x="449" y="389.8638">Exportar Proyecto</text></g><!--link ESTADO_PROYECTO to ESTADO_PRINCIPAL--><g id="link_ESTADO_PROYECTO_ESTADO_PRINCIPAL"><path d="M422.327,493.3739 C508.063,480.9569 630,463.2969 630,463.2969 C630,463.2969 630,428.2969 630,428.2969 C630,428.2969 511.788,411.1769 425.949,398.7449 " fill="none" id="ESTADO_PROYECTO-to-ESTADO_PRINCIPAL" style="stroke:#218C00;stroke-width:1.0;"/><polygon fill="#218C00" points="420.011,397.8849,428.3447,403.1336,424.9594,398.6015,429.4914,395.2162,420.011,397.8849" style="stroke:#218C00;stroke-width:1.0;"/><path d="M635,433.2969 L635,458.2969 L759,458.2969 L759,443.2969 L749,433.2969 L635,433.2969 " fill="#F5F5F5" style="stroke:#C90000;stroke-width:0.5;"/><path d="M749,433.2969 L749,443.2969 L759,443.2969 L749,433.2969 " fill="#F5F5F5" style="stroke:#C90000;stroke-width:0.5;"/><text fill="#000000" font-family="sans-serif" font-size="13" lengthAdjust="spacing" textLength="103" x="641" y="450.3638">Listar Proyectos</text></g><!--link REPORTE to ESTADO_PROYECTO--><g id="link_REPORTE_ESTADO_PROYECTO"><path d="M380.794,986.0755 C497.472,966.8361 807,915.7969 807,915.7969 C807,626.2969 807,626.2969 807,626.2969 C807,626.2969 638,549.2969 638,549.2969 C638,549.2969 516.3663,532.1543 428.1603,519.7223 " fill="none" id="REPORTE-to-ESTADO_PROYECTO" style="stroke:#218C00;stroke-width:1.0;"/><polygon fill="#218C00" points="422.219,518.8849,430.5727,524.1018,427.1701,519.5827,431.6892,516.1801,422.219,518.8849" style="stroke:#218C00;stroke-width:1.0;"/><path d="M812,747.2969 L812,787.2969 L956,787.2969 L956,757.2969 L946,747.2969 L812,747.2969 " fill="#F5F5F5" style="stroke:#C90000;stroke-width:0.5;"/><path d="M946,747.2969 L946,757.2969 L956,757.2969 L946,747.2969 " fill="#F5F5F5" style="stroke:#C90000;stroke-width:0.5;"/><text fill="#000000" font-family="sans-serif" font-size="13" lengthAdjust="spacing" textLength="107" x="818" y="764.3638">Guardar Reporte</text><text fill="#000000" font-family="sans-serif" font-size="13" lengthAdjust="spacing" textLength="123" x="818" y="779.4966">Listar Simulaciones</text></g><!--link ESTADO_PROYECTO to CONFIGURACI?N_DE_SIMULACI?N--><g id="link_ESTADO_PROYECTO_CONFIGURACI&#211;N_DE_SIMULACI&#211;N"><path d="M257.888,529.4039 C220.306,539.5219 184,549.2969 184,549.2969 C184,549.2969 184,584.2969 184,584.2969 C184,584.2969 207.9529,591.187 240.5749,600.572 " fill="none" id="ESTADO_PROYECTO-to-CONFIGURACI&#211;N_DE_SIMULACI&#211;N" style="stroke:#218C00;stroke-width:1.0;"/><polygon fill="#218C00" points="246.341,602.2309,238.7977,595.8985,241.5359,600.8485,236.5859,603.5867,246.341,602.2309" style="stroke:#218C00;stroke-width:1.0;"/><path d="M189,554.2969 L189,579.2969 L313,579.2969 L313,564.2969 L303,554.2969 L189,554.2969 " fill="#F5F5F5" style="stroke:#C90000;stroke-width:0.5;"/><path d="M303,554.2969 L303,564.2969 L313,564.2969 L303,554.2969 " fill="#F5F5F5" style="stroke:#C90000;stroke-width:0.5;"/><text fill="#000000" font-family="sans-serif" font-size="13" lengthAdjust="spacing" textLength="103" x="195" y="571.3638">Abrir Simulaci&#243;n</text></g><!--link ESTADO_PROYECTO to CONFIGURACI?N_DE_SIMULACI?N--><g id="link_ESTADO_PROYECTO_CONFIGURACI&#211;N_DE_SIMULACI&#211;N"><path d="M337.976,531.3779 C336.241,552.0239 334.2574,575.6369 332.5234,596.2719 " fill="none" id="ESTADO_PROYECTO-to-CONFIGURACI&#211;N_DE_SIMULACI&#211;N-1" style="stroke:#218C00;stroke-width:1.0;"/><polygon fill="#218C00" points="332.021,602.2509,336.7606,593.6174,332.4397,597.2684,328.7887,592.9475,332.021,602.2509" style="stroke:#218C00;stroke-width:1.0;"/><path d="M342,554.2969 L342,579.2969 L471,579.2969 L471,564.2969 L461,554.2969 L342,554.2969 " fill="#F5F5F5" style="stroke:#C90000;stroke-width:0.5;"/><path d="M461,554.2969 L461,564.2969 L471,564.2969 L461,554.2969 " fill="#F5F5F5" style="stroke:#C90000;stroke-width:0.5;"/><text fill="#000000" font-family="sans-serif" font-size="13" lengthAdjust="spacing" textLength="108" x="348" y="571.3638">Crear Simulaci&#243;n</text></g><!--link ESTADO_PROYECTO to REPORTE--><g id="link_ESTADO_PROYECTO_REPORTE"><path d="M257.657,528.9119 C218.453,539.2029 180,549.2969 180,549.2969 C180,549.2969 150,626.2969 150,626.2969 C150,626.2969 150,626.2969 150,915.7969 C150,915.7969 232.3422,949.9227 287.6142,972.8294 " fill="none" id="ESTADO_PROYECTO-to-REPORTE" style="stroke:#218C00;stroke-width:1.0;"/><polygon fill="#218C00" points="293.157,975.1266,286.3742,967.9856,288.538,973.2123,283.3113,975.3761,293.157,975.1266" style="stroke:#218C00;stroke-width:1.0;"/><path d="M155,754.7969 L155,779.7969 L253,779.7969 L253,764.7969 L243,754.7969 L155,754.7969 " fill="#F5F5F5" style="stroke:#C90000;stroke-width:0.5;"/><path d="M243,754.7969 L243,764.7969 L253,764.7969 L243,754.7969 " fill="#F5F5F5" style="stroke:#C90000;stroke-width:0.5;"/><text fill="#000000" font-family="sans-serif" font-size="13" lengthAdjust="spacing" textLength="77" x="161" y="771.8638">Ver Reporte</text></g><!--link CONFIGURACI?N_DE_SIMULACI?N to ESTADO_PROYECTO--><g id="link_CONFIGURACI&#211;N_DE_SIMULACI&#211;N_ESTADO_PROYECTO"><path d="M415.951,602.2309 C449.467,592.8459 480,584.2969 480,584.2969 C480,584.2969 480,549.2969 480,549.2969 C480,549.2969 457.2489,542.4721 425.9679,533.0871 " fill="none" id="CONFIGURACI&#211;N_DE_SIMULACI&#211;N-to-ESTADO_PROYECTO" style="stroke:#218C00;stroke-width:1.0;"/><polygon fill="#218C00" points="420.221,531.3629,427.6919,537.7805,425.0101,532.7997,429.9909,530.1179,420.221,531.3629" style="stroke:#218C00;stroke-width:1.0;"/><path d="M485,554.2969 L485,579.2969 L629,579.2969 L629,564.2969 L619,554.2969 L485,554.2969 " fill="#F5F5F5" style="stroke:#C90000;stroke-width:0.5;"/><path d="M619,554.2969 L619,564.2969 L629,564.2969 L619,554.2969 " fill="#F5F5F5" style="stroke:#C90000;stroke-width:0.5;"/><text fill="#000000" font-family="sans-serif" font-size="13" lengthAdjust="spacing" textLength="123" x="491" y="571.3638">Listar Simulaciones</text></g><!--link CONFIGURACI?N_DE_SIMULACI?N to SIMULANDO--><g id="link_CONFIGURACI&#211;N_DE_SIMULACI&#211;N_SIMULANDO"><path d="M332.271,652.5219 C334.937,680.9609 339,724.2969 339,724.2969 C339,724.2969 404.7158,774.1506 447.3988,806.5306 " fill="none" id="CONFIGURACI&#211;N_DE_SIMULACI&#211;N-to-SIMULANDO" style="stroke:#218C00;stroke-width:1.0;"/><polygon fill="#218C00" points="452.179,810.1569,447.4263,801.5306,448.1955,807.135,442.5912,807.9042,452.179,810.1569" style="stroke:#218C00;stroke-width:1.0;"/><path d="M344,694.2969 L344,719.2969 L475,719.2969 L475,704.2969 L465,694.2969 L344,694.2969 " fill="#F5F5F5" style="stroke:#C90000;stroke-width:0.5;"/><path d="M465,694.2969 L465,704.2969 L475,704.2969 L465,694.2969 " fill="#F5F5F5" style="stroke:#C90000;stroke-width:0.5;"/><text fill="#000000" font-family="sans-serif" font-size="13" lengthAdjust="spacing" textLength="110" x="350" y="711.3638">Iniciar Simulaci&#243;n</text></g><!--link CONFIGURACI?N_DE_SIMULACI?N to CONFIGURACI?N_DE_SIMULACI?N--><g id="link_CONFIGURACI&#211;N_DE_SIMULACI&#211;N_CONFIGURACI&#211;N_DE_SIMULACI&#211;N"><path d="M459.938,621.2109 C470.764,622.5199 477.5,624.5489 477.5,627.2969 C477.5,630.0449 476.7206,631.3536 465.8946,632.6626 " fill="none" id="CONFIGURACI&#211;N_DE_SIMULACI&#211;N-to-CONFIGURACI&#211;N_DE_SIMULACI&#211;N" style="stroke:#218C00;stroke-width:1.0;"/><polygon fill="#218C00" points="459.938,633.3829,469.3531,636.2736,464.9018,632.7827,468.3928,628.3315,459.938,633.3829" style="stroke:#218C00;stroke-width:1.0;"/><path d="M482.5,614.7969 L482.5,639.7969 L631.5,639.7969 L631.5,624.7969 L621.5,614.7969 L482.5,614.7969 " fill="#F5F5F5" style="stroke:#C90000;stroke-width:0.5;"/><path d="M621.5,614.7969 L621.5,624.7969 L631.5,624.7969 L621.5,614.7969 " fill="#F5F5F5" style="stroke:#C90000;stroke-width:0.5;"/><text fill="#000000" font-family="sans-serif" font-size="13" lengthAdjust="spacing" textLength="128" x="488.5" y="631.8638">Importar Simulaci&#243;n</text></g><!--link SIMULANDO to CONFIGURACI?N_DE_SIMULACI?N--><g id="link_SIMULANDO_CONFIGURACI&#211;N_DE_SIMULACI&#211;N"><path d="M483.33,810.0269 C482.192,768.7489 480,689.2969 480,689.2969 C480,689.2969 436.77,671.716 394.842,654.666 " fill="none" id="SIMULANDO-to-CONFIGURACI&#211;N_DE_SIMULACI&#211;N" style="stroke:#218C00;stroke-width:1.0;"/><polygon fill="#218C00" points="389.284,652.4059,396.1143,659.5015,393.9157,654.2893,399.1278,652.0908,389.284,652.4059" style="stroke:#218C00;stroke-width:1.0;"/><path d="M486,694.2969 L486,719.2969 L636,719.2969 L636,704.2969 L626,694.2969 L486,694.2969 " fill="#F5F5F5" style="stroke:#C90000;stroke-width:0.5;"/><path d="M626,694.2969 L626,704.2969 L636,704.2969 L626,694.2969 " fill="#F5F5F5" style="stroke:#C90000;stroke-width:0.5;"/><text fill="#000000" font-family="sans-serif" font-size="13" lengthAdjust="spacing" textLength="129" x="492" y="711.3638">Cancelar Simulaci&#243;n</text></g><!--link SIMULANDO to SIMULANDO--><g id="link_SIMULANDO_SIMULANDO"><path d="M536.202,827.7469 C546.592,828.5969 554,831.1129 554,835.2969 C554,839.4809 552.572,841.5077 542.182,842.3577 " fill="none" id="SIMULANDO-to-SIMULANDO" style="stroke:#218C00;stroke-width:1.0;"/><polygon fill="#218C00" points="536.202,842.8469,545.4982,846.0997,541.1854,842.4392,544.8459,838.1264,536.202,842.8469" style="stroke:#218C00;stroke-width:1.0;"/><path d="M559,822.7969 L559,847.7969 L774,847.7969 L774,832.7969 L764,822.7969 L559,822.7969 " fill="#F5F5F5" style="stroke:#C90000;stroke-width:0.5;"/><path d="M764,822.7969 L764,832.7969 L774,832.7969 L764,822.7969 " fill="#F5F5F5" style="stroke:#C90000;stroke-width:0.5;"/><text fill="#000000" font-family="sans-serif" font-size="13" lengthAdjust="spacing" textLength="194" x="565" y="839.8638">Verificar Estado de Simulaci&#243;n</text></g><!--link SIMULANDO to REPORTE--><g id="link_SIMULANDO_REPORTE"><path d="M461.353,860.4839 C433.729,889.9869 391.4089,935.1868 363.7729,964.7024 " fill="none" id="SIMULANDO-to-REPORTE" style="stroke:#218C00;stroke-width:1.0;"/><polygon fill="#218C00" points="359.672,969.0822,368.7432,965.2464,363.0894,965.4323,362.9035,959.7785,359.672,969.0822" style="stroke:#218C00;stroke-width:1.0;"/><path d="M432,902.2969 L432,927.2969 L647,927.2969 L647,912.2969 L637,902.2969 L432,902.2969 " fill="#F5F5F5" style="stroke:#C90000;stroke-width:0.5;"/><path d="M637,902.2969 L637,912.2969 L647,912.2969 L637,902.2969 " fill="#F5F5F5" style="stroke:#C90000;stroke-width:0.5;"/><text fill="#000000" font-family="sans-serif" font-size="13" lengthAdjust="spacing" textLength="194" x="438" y="919.3638">Verificar Estado de Simulaci&#243;n</text></g><!--link REPORTE to REPORTE--><g id="link_REPORTE_REPORTE"><path d="M380.669,990.4373 C390.93,990.7545 398.5,992.041 398.5,994.2969 C398.5,996.5528 396.9271,997.6539 386.6661,997.9711 " fill="none" id="REPORTE-to-REPORTE" style="stroke:#218C00;stroke-width:1.0;"/><polygon fill="#218C00" points="380.669,998.1565,389.7883,1001.8765,385.6666,998.002,389.5411,993.8803,380.669,998.1565" style="stroke:#218C00;stroke-width:1.0;"/><path d="M403.5,981.7969 L403.5,1006.7969 L542.5,1006.7969 L542.5,991.7969 L532.5,981.7969 L403.5,981.7969 " fill="#F5F5F5" style="stroke:#C90000;stroke-width:0.5;"/><path d="M532.5,981.7969 L532.5,991.7969 L542.5,991.7969 L532.5,981.7969 " fill="#F5F5F5" style="stroke:#C90000;stroke-width:0.5;"/><text fill="#000000" font-family="sans-serif" font-size="13" lengthAdjust="spacing" textLength="110" x="409.5" y="998.8638">Exportar Reporte</text></g><!--link REPORTE to REPORTE--><g id="link_REPORTE_REPORTE"><path d="M380.58,988.4215 C443.46,984.4429 547.5,986.4014 547.5,994.2969 C547.5,1002.1924 449.448,1004.5298 386.568,1000.5512 " fill="none" id="REPORTE-to-REPORTE-1" style="stroke:#218C00;stroke-width:1.0;"/><polygon fill="#218C00" points="380.58,1000.1723,389.3095,1004.7326,385.57,1000.488,389.8146,996.7486,380.58,1000.1723" style="stroke:#218C00;stroke-width:1.0;"/><path d="M552.5,981.7969 L552.5,1006.7969 L681.5,1006.7969 L681.5,991.7969 L671.5,981.7969 L552.5,981.7969 " fill="#F5F5F5" style="stroke:#C90000;stroke-width:0.5;"/><path d="M671.5,981.7969 L671.5,991.7969 L681.5,991.7969 L671.5,981.7969 " fill="#F5F5F5" style="stroke:#C90000;stroke-width:0.5;"/><text fill="#000000" font-family="sans-serif" font-size="13" lengthAdjust="spacing" textLength="108" x="558.5" y="998.8638">Imprimir Reporte</text></g><!--link REPORTE to CONFIGURACI?N_DE_SIMULACI?N--><g id="link_REPORTE_CONFIGURACI&#211;N_DE_SIMULACI&#211;N"><path d="M317.101,969.2002 C298.313,946.4499 273,915.7969 273,915.7969 C273,705.7969 273,705.7969 273,705.7969 C273,705.7969 291.9901,679.9774 308.7221,657.2274 " fill="none" id="REPORTE-to-CONFIGURACI&#211;N_DE_SIMULACI&#211;N" style="stroke:#218C00;stroke-width:1.0;"/><polygon fill="#218C00" points="312.277,652.3939,303.7223,657.2742,309.3146,656.4218,310.167,662.0141,312.277,652.3939" style="stroke:#218C00;stroke-width:1.0;"/><path d="M278,822.7969 L278,847.7969 L409,847.7969 L409,832.7969 L399,822.7969 L278,822.7969 " fill="#F5F5F5" style="stroke:#C90000;stroke-width:0.5;"/><path d="M399,822.7969 L399,832.7969 L409,832.7969 L399,822.7969 " fill="#F5F5F5" style="stroke:#C90000;stroke-width:0.5;"/><text fill="#000000" font-family="sans-serif" font-size="13" lengthAdjust="spacing" textLength="110" x="284" y="839.8638">Editar Simulaci&#243;n</text></g><g id="LOG"><rect fill="#FAF4B4" height="50" rx="12.5" ry="12.5" style="stroke:#C90000;stroke-width:0.5;" width="50" x="379" y="1124"/><line style="stroke:#C90000;stroke-width:0.5;" x1="379" x2="429" y1="1150.2969" y2="1150.2969"/><text fill="#000000" font-family="sans-serif" font-size="14" lengthAdjust="spacing" textLength="30" x="389" y="1141.9951">LOG</text></g><ellipse cx="624" cy="1149" fill="none" rx="11" ry="11" style="stroke:#222222;stroke-width:1.0;"/><ellipse cx="624" cy="1149" fill="#222222" rx="6" ry="6" style="stroke:#222222;stroke-width:1.0;"/><!--link *start* to INICIO--><g id="link_*start*_INICIO"><path d="M486,26.01 C486,39.89 486,60.97 486,80.84 " fill="none" id="*start*-to-INICIO" style="stroke:#218C00;stroke-width:1.0;"/><polygon fill="#218C00" points="486,86.84,490,77.84,486,81.84,482,77.84,486,86.84" style="stroke:#218C00;stroke-width:1.0;"/></g><!--link INICIO to FISC--><g id="link_INICIO_FISC"><path d="M486,137.22 C486,158.41 486,186.005 486,225.944 " fill="none" id="INICIO-to-FISC" style="stroke:#218C00;stroke-width:1.0;"/><polygon fill="#218C00" points="486,231.944,490,222.944,486,226.944,482,222.944,486,231.944" style="stroke:#218C00;stroke-width:1.0;"/><path d="M491,172 L491,197 L546,197 L546,182 L536,172 L491,172 " fill="#F5F5F5" style="stroke:#C90000;stroke-width:0.5;"/><path d="M536,172 L536,182 L546,182 L536,172 " fill="#F5F5F5" style="stroke:#C90000;stroke-width:0.5;"/><text fill="#000000" font-family="sans-serif" font-size="13" lengthAdjust="spacing" textLength="34" x="497" y="189.0669">Login</text></g><!--link INICIO to INICIO--><g id="link_INICIO_INICIO"><path d="M517.816,102.39 C535.826,100.52 552.5,103.72 552.5,112 C552.5,120.28 541.7939,124.0997 523.7839,122.2297 " fill="none" id="INICIO-to-INICIO" style="stroke:#218C00;stroke-width:1.0;"/><polygon fill="#218C00" points="517.816,121.61,526.3548,126.5181,522.7893,122.1264,527.181,118.5609,517.816,121.61" style="stroke:#218C00;stroke-width:1.0;"/><path d="M557.5,99.5 L557.5,124.5 L688.5,124.5 L688.5,109.5 L678.5,99.5 L557.5,99.5 " fill="#F5F5F5" style="stroke:#C90000;stroke-width:0.5;"/><path d="M678.5,99.5 L678.5,109.5 L688.5,109.5 L678.5,99.5 " fill="#F5F5F5" style="stroke:#C90000;stroke-width:0.5;"/><text fill="#000000" font-family="sans-serif" font-size="13" lengthAdjust="spacing" textLength="110" x="563.5" y="116.5669">Registrar Usuario</text></g><!--link LOG to LOG--><g id="link_LOG_LOG"><path d="M429.278,1136.8184 C446.773,1133.127 464,1137.1875 464,1149 C464,1160.8125 452.6437,1166.1118 435.1487,1162.4203 " fill="none" id="LOG-to-LOG" style="stroke:#218C00;stroke-width:1.0;"/><polygon fill="#218C00" points="429.278,1161.1816,437.2583,1166.9535,434.1703,1162.2139,438.9099,1159.1259,429.278,1161.1816" style="stroke:#218C00;stroke-width:1.0;"/><path d="M469,1136.5 L469,1161.5 L543,1161.5 L543,1146.5 L533,1136.5 L469,1136.5 " fill="#F5F5F5" style="stroke:#C90000;stroke-width:0.5;"/><path d="M533,1136.5 L533,1146.5 L543,1146.5 L533,1136.5 " fill="#F5F5F5" style="stroke:#C90000;stroke-width:0.5;"/><text fill="#000000" font-family="sans-serif" font-size="13" lengthAdjust="spacing" textLength="53" x="475" y="1153.5669">Imprimir</text></g><!--link FISC to LOG--><g id="link_FISC_LOG"><path d="M364.108,1029.278 C358.401,1047.9 355,1059 355,1059 C355,1059 355,1094 355,1094 C355,1094 365.001,1105.0219 378.048,1119.3997 " fill="none" id="FISC-to-LOG" style="stroke:#218C00;stroke-width:1.0;"/><polygon fill="#218C00" points="382.08,1123.843,378.9942,1114.4901,378.72,1120.1403,373.0698,1119.8661,382.08,1123.843" style="stroke:#218C00;stroke-width:1.0;"/><path d="M360,1064 L360,1089 L438,1089 L438,1074 L428,1064 L360,1064 " fill="#F5F5F5" style="stroke:#C90000;stroke-width:0.5;"/><path d="M428,1064 L428,1074 L438,1074 L428,1064 " fill="#F5F5F5" style="stroke:#C90000;stroke-width:0.5;"/><text fill="#000000" font-family="sans-serif" font-size="13" lengthAdjust="spacing" textLength="57" x="366" y="1081.0669">Abrir Log</text></g><!--link LOG to FISC--><g id="link_LOG_FISC"><path d="M423.236,1123.843 C434.685,1109.4652 447,1094 447,1094 C447,1094 448.6558,1074.3608 451.9598,1035.1828 " fill="none" id="LOG-to-FISC" style="stroke:#218C00;stroke-width:1.0;"/><polygon fill="#218C00" points="452.464,1029.204,447.7218,1037.836,452.0438,1034.1863,455.6935,1038.5083,452.464,1029.204" style="stroke:#218C00;stroke-width:1.0;"/><path d="M455,1064 L455,1089 L543,1089 L543,1074 L533,1064 L455,1064 " fill="#F5F5F5" style="stroke:#C90000;stroke-width:0.5;"/><path d="M533,1064 L533,1074 L543,1074 L533,1064 " fill="#F5F5F5" style="stroke:#C90000;stroke-width:0.5;"/><text fill="#000000" font-family="sans-serif" font-size="13" lengthAdjust="spacing" textLength="67" x="461" y="1081.0669">Cerrar Log</text></g><!--link FISC to *end*--><g id="link_FISC_*end*"><path d="M592.253,1029.18 C605.835,1080.0125 615.1173,1114.7548 619.8563,1132.4927 " fill="none" id="FISC-to-*end*" style="stroke:#218C00;stroke-width:1.0;"/><polygon fill="#218C00" points="621.405,1138.2894,622.9464,1128.5619,620.1144,1133.4588,615.2175,1130.6268,621.405,1138.2894" style="stroke:#218C00;stroke-width:1.0;"/><path d="M611,1064 L611,1089 L718,1089 L718,1074 L708,1064 L611,1064 " fill="#F5F5F5" style="stroke:#C90000;stroke-width:0.5;"/><path d="M708,1064 L708,1074 L718,1074 L708,1064 " fill="#F5F5F5" style="stroke:#C90000;stroke-width:0.5;"/><text fill="#000000" font-family="sans-serif" font-size="13" lengthAdjust="spacing" textLength="86" x="617" y="1081.0669">Cerrar Sesi&#243;n</text></g><!--SRC=[fPNRYjim48RlzHG3lIi4TiiMsfj2wdY38BM3dHIMfGIjhQGYZXGaXsueVOe-IXzXNwpoOMtveCJP91V6ziodVtxDM6hB-9v8iWCkKlgLHDkD50SUEo8H4jwjFsP_f9fHGiPKbX7HvnlzCoA8bE9N-VB3xQUeyLAbf6yLihvxkkk4dLmcOPocnps5lKYEsKrRmk8dYxQSAWMt23s-_m6ZqHV07dQmZr1n7SNwqJqE7K1PNI1uXjqYW9dOC8ueZ_E2pV2Iq8eFw8QfL189ItKWaeaw5uLPCSKoloiXRhWOJ_pLFC2UW-VZMKU0ncdQN8eZZLAX00nYEpaNLZtq7rndqL4uVfAivXauU1CEx_P2cWglv3cI6h1hrPNkXMntI4Z4X6w3shxJGCj-kC_sUWsDXPn1nFOE6y30dVl1mXrIwLHtMwmn0StqqJEr0_HhTNpl7a-NmTZ1Bt-zrSHTXVZRSbRSzdVIA__b7-_RhBV2YpuO1i_cgBIgZVbEQqjg03efvUh6Eaylxhr9TvmuYvYryFFWYpokPhTtDMrJ9JEt-BBz8poYYRMI9jbgXzu-jcQHnhZQxrX0J0S1xTqm45UDdXrMVGdA_cfyIit9xSk7mdx9TgolGStqYsntOsRTKFG7ePa_pGtIrvvkoEKO2VbPbOleYI_6Nn-GHe8EW-emxRG4bTd1sCmebj0P-a2q98HKDGhv3m00]--></g></svg>