<?xml version="1.0" encoding="us-ascii" standalone="no"?><svg xmlns="http://www.w3.org/2000/svg" xmlns:xlink="http://www.w3.org/1999/xlink" contentStyleType="text/css" height="433px" preserveAspectRatio="none" style="width:339px;height:433px;background:#FFFFFF;" version="1.1" viewBox="0 0 339 433" width="339px" zoomAndPan="magnify"><defs><filter height="300%" id="f9tjapdov19zp" width="300%" x="-1" y="-1"><feGaussianBlur result="blurOut" stdDeviation="2.0"/><feColorMatrix in="blurOut" result="blurOut2" type="matrix" values="0 0 0 0 0 0 0 0 0 0 0 0 0 0 0 0 0 0 .4 0"/><feOffset dx="4.0" dy="4.0" in="blurOut2" result="blurOut3"/><feBlend in="SourceGraphic" in2="blurOut3" mode="normal"/></filter></defs><g><text fill="#000000" font-family="sans-serif" font-size="14" font-weight="bold" lengthAdjust="spacing" textLength="107" x="109.0591" y="22.9951">Casos de Uso</text><!--entity Usuario--><g id="elem_Usuario"><ellipse cx="57" cy="64.7969" fill="#FEFECE" filter="url(#f9tjapdov19zp)" rx="8" ry="8" style="stroke:#A80036;stroke-width:2.0;"/><path d="M57,72.7969 L57,99.7969 M44,80.7969 L70,80.7969 M57,99.7969 L44,114.7969 M57,99.7969 L70,114.7969 " fill="none" filter="url(#f9tjapdov19zp)" style="stroke:#A80036;stroke-width:2.0;"/><text fill="#000000" font-family="sans-serif" font-size="14" lengthAdjust="spacing" textLength="51" x="31.5" y="134.792">Usuario</text></g><g id="elem_verFichajeDiario"><ellipse cx="246.5591" cy="61.4087" fill="#FEFECE" filter="url(#f9tjapdov19zp)" rx="78.5591" ry="18.1118" style="stroke:#A80036;stroke-width:1.0;"/><text fill="#000000" font-family="sans-serif" font-size="14" lengthAdjust="spacing" textLength="115" x="186.8328" y="64.9493">verFichajeDiario</text></g><g id="elem_verInforme"><ellipse cx="246.42" cy="130.2809" fill="#FEFECE" filter="url(#f9tjapdov19zp)" rx="65.42" ry="15.484" style="stroke:#A80036;stroke-width:1.0;"/><text fill="#000000" font-family="sans-serif" font-size="14" lengthAdjust="spacing" textLength="80" x="203.42" y="134.0284">verInforme</text></g><!--entity Administrador--><g id="elem_Administrador"><ellipse cx="57" cy="232.7969" fill="#FEFECE" filter="url(#f9tjapdov19zp)" rx="8" ry="8" style="stroke:#A80036;stroke-width:2.0;"/><path d="M57,240.7969 L57,267.7969 M44,248.7969 L70,248.7969 M57,267.7969 L44,282.7969 M57,267.7969 L70,282.7969 " fill="none" filter="url(#f9tjapdov19zp)" style="stroke:#A80036;stroke-width:2.0;"/><text fill="#000000" font-family="sans-serif" font-size="14" lengthAdjust="spacing" textLength="102" x="6" y="302.792">Administrador</text></g><g id="elem_crearUsuarios"><ellipse cx="246.3049" cy="197.3579" fill="#FEFECE" filter="url(#f9tjapdov19zp)" rx="70.8049" ry="16.561" style="stroke:#A80036;stroke-width:1.0;"/><text fill="#000000" font-family="sans-serif" font-size="14" lengthAdjust="spacing" textLength="95" x="195.8049" y="201.1054">crearUsuarios</text></g><g id="elem_verUsuarios"><ellipse cx="246.2655" cy="264.35" fill="#FEFECE" filter="url(#f9tjapdov19zp)" rx="65.7655" ry="15.5531" style="stroke:#A80036;stroke-width:1.0;"/><text fill="#000000" font-family="sans-serif" font-size="14" lengthAdjust="spacing" textLength="81" x="202.7655" y="268.0975">verUsuarios</text></g><g id="elem_editarUsuarios"><ellipse cx="246.5678" cy="332.3104" fill="#FEFECE" filter="url(#f9tjapdov19zp)" rx="73.0678" ry="17.0136" style="stroke:#A80036;stroke-width:1.0;"/><text fill="#000000" font-family="sans-serif" font-size="14" lengthAdjust="spacing" textLength="101" x="193.0678" y="336.058">editarUsuarios</text></g><g id="elem_bajaDeUsuarios"><ellipse cx="246.2754" cy="402.3519" fill="#FEFECE" filter="url(#f9tjapdov19zp)" rx="75.7754" ry="17.5551" style="stroke:#A80036;stroke-width:1.0;"/><text fill="#000000" font-family="sans-serif" font-size="14" lengthAdjust="spacing" textLength="108" x="189.2754" y="406.0995">bajaDeUsuarios</text></g><!--link Usuario to verFichajeDiario--><g id="link_Usuario_verFichajeDiario"><path d="M82.5124,91.7209 C108.421,86.8849 144.3709,80.1737 179.1749,73.6777 " fill="none" id="Usuario-to-verFichajeDiario" style="stroke:#A80036;stroke-width:1.0;"/><polygon fill="#A80036" points="185.073,72.5769,175.4919,70.2961,180.1579,73.4943,176.9597,78.1603,185.073,72.5769" style="stroke:#A80036;stroke-width:1.0;"/></g><!--link Usuario to verInforme--><g id="link_Usuario_verInforme"><path d="M82.5124,100.7419 C110.704,105.8539 151.8643,113.3174 188.1903,119.9044 " fill="none" id="Usuario-to-verInforme" style="stroke:#A80036;stroke-width:1.0;"/><polygon fill="#A80036" points="194.094,120.9749,185.9521,115.4333,189.1742,120.0828,184.5247,123.3049,194.094,120.9749" style="stroke:#A80036;stroke-width:1.0;"/></g><!--link Administrador to crearUsuarios--><g id="link_Administrador_crearUsuarios"><path d="M108.247,246.3419 C139.271,235.2559 172.8119,223.2708 201.3659,213.0678 " fill="none" id="Administrador-to-crearUsuarios" style="stroke:#A80036;stroke-width:1.0;"/><polygon fill="#A80036" points="207.016,211.0489,197.1949,210.3105,202.3076,212.7313,199.8868,217.844,207.016,211.0489" style="stroke:#A80036;stroke-width:1.0;"/></g><!--link Administrador to verUsuarios--><g id="link_Administrador_verUsuarios"><path d="M108.247,264.2969 C130.376,264.2969 150.66,264.2969 174.275,264.2969 " fill="none" id="Administrador-to-verUsuarios" style="stroke:#A80036;stroke-width:1.0;"/><polygon fill="#A80036" points="180.275,264.2969,171.275,260.2969,175.275,264.2969,171.275,268.2969,180.275,264.2969" style="stroke:#A80036;stroke-width:1.0;"/></g><!--link Administrador to editarUsuarios--><g id="link_Administrador_editarUsuarios"><path d="M108.247,282.5199 C138.945,293.6529 172.0005,305.6413 200.4735,315.9673 " fill="none" id="Administrador-to-editarUsuarios" style="stroke:#A80036;stroke-width:1.0;"/><polygon fill="#A80036" points="206.114,318.0129,199.0169,311.1841,201.4136,316.3082,196.2895,318.7048,206.114,318.0129" style="stroke:#A80036;stroke-width:1.0;"/></g><!--link Administrador to bajaDeUsuarios--><g id="link_Administrador_bajaDeUsuarios"><path d="M96.0379,305.8659 C116.082,326.1517 141.884,349.8726 168,367.2969 C179.667,375.0809 187.8498,379.5032 200.4428,385.0112 " fill="none" id="Administrador-to-bajaDeUsuarios" style="stroke:#A80036;stroke-width:1.0;"/><polygon fill="#A80036" points="205.94,387.4156,199.2972,380.1442,201.359,385.4119,196.0913,387.4738,205.94,387.4156" style="stroke:#A80036;stroke-width:1.0;"/></g><!--link Administrador to verInforme--><g id="link_Administrador_verInforme"><path d="M96.7646,222.5929 C116.693,202.8209 142.179,179.9449 168,163.2969 C180.537,155.2139 189.8183,150.5701 203.1483,145.2161 " fill="none" id="Administrador-to-verInforme" style="stroke:#A80036;stroke-width:1.0;"/><polygon fill="#A80036" points="208.716,142.9799,198.8736,142.6225,204.0763,144.8434,201.8553,150.0461,208.716,142.9799" style="stroke:#A80036;stroke-width:1.0;"/></g><!--SRC=[XOvD3e9038NtFKMNpe8hc1Y8YGVW07McI16cILizlnfqfP7j-zwVNwMYgJFCF0I6eibb32nYd4EqGaZCZ2svEXR6tXMWznkPA3RD7dTtjgFaaIRkvAMcBtogWzh22U1G5gdYOLJKLfwDoTu9JxySpuQ_d8l4HiMP9kfuQ-Npym40]--></g></svg>