<?xml version="1.0" encoding="UTF-8" standalone="no"?><svg xmlns="http://www.w3.org/2000/svg" xmlns:xlink="http://www.w3.org/1999/xlink" contentStyleType="text/css" height="489px" preserveAspectRatio="none" style="width:1087px;height:489px;background:#FFFFFF;" version="1.1" viewBox="0 0 1087 489" width="1087px" zoomAndPan="magnify"><defs><filter height="300%" id="f18f8g0q34ct8a" width="300%" x="-1" y="-1"><feGaussianBlur result="blurOut" stdDeviation="2.0"/><feColorMatrix in="blurOut" result="blurOut2" type="matrix" values="0 0 0 0 0 0 0 0 0 0 0 0 0 0 0 0 0 0 .4 0"/><feOffset dx="4.0" dy="4.0" in="blurOut2" result="blurOut3"/><feBlend in="SourceGraphic" in2="blurOut3" mode="normal"/></filter></defs><g><!--MD5=[128f0757cf0ea77f14e95a88885fd9f7]
entity Usuario--><g id="elem_Usuario"><ellipse cx="594.5" cy="159" fill="#FEFECE" filter="url(#f18f8g0q34ct8a)" rx="8" ry="8" style="stroke:#A80036;stroke-width:2.0;"/><path d="M594.5,167 L594.5,194 M581.5,175 L607.5,175 M594.5,194 L581.5,209 M594.5,194 L607.5,209 " fill="none" filter="url(#f18f8g0q34ct8a)" style="stroke:#A80036;stroke-width:2.0;"/><text fill="#000000" font-family="sans-serif" font-size="14" lengthAdjust="spacing" textLength="48" x="570.5" y="230.5332">Usuario</text></g><!--MD5=[b0882d4598bd8a45fca5af13768a2863]
entity Trabajador--><g id="elem_Trabajador"><ellipse cx="697.5" cy="14" fill="#FEFECE" filter="url(#f18f8g0q34ct8a)" rx="8" ry="8" style="stroke:#A80036;stroke-width:2.0;"/><path d="M697.5,22 L697.5,49 M684.5,30 L710.5,30 M697.5,49 L684.5,64 M697.5,49 L710.5,64 " fill="none" filter="url(#f18f8g0q34ct8a)" style="stroke:#A80036;stroke-width:2.0;"/><text fill="#000000" font-family="sans-serif" font-size="14" lengthAdjust="spacing" textLength="70" x="662.5" y="85.5332">Trabajador</text></g><!--MD5=[2e903384ba6a94be9c906ea46910cc3f]
entity Administrador--><g id="elem_Administrador"><ellipse cx="440.5" cy="304" fill="#FEFECE" filter="url(#f18f8g0q34ct8a)" rx="8" ry="8" style="stroke:#A80036;stroke-width:2.0;"/><path d="M440.5,312 L440.5,339 M427.5,320 L453.5,320 M440.5,339 L427.5,354 M440.5,339 L453.5,354 " fill="none" filter="url(#f18f8g0q34ct8a)" style="stroke:#A80036;stroke-width:2.0;"/><text fill="#000000" font-family="sans-serif" font-size="14" lengthAdjust="spacing" textLength="87" x="397" y="375.5332">Administrador</text></g><g id="elem_Escanea Lector de Huella / Crear registro"><ellipse cx="800.3995" cy="191.2799" fill="#FEFECE" filter="url(#f18f8g0q34ct8a)" rx="146.8995" ry="31.7799" style="stroke:#A80036;stroke-width:1.0;"/><text fill="#000000" font-family="sans-serif" font-size="14" lengthAdjust="spacing" textLength="262" x="669.3995" y="195.0084">Escanea Lector de Huella / Crear registro</text></g><g id="elem_Leer fichaje diario"><ellipse cx="85.4775" cy="457.2955" fill="#FEFECE" filter="url(#f18f8g0q34ct8a)" rx="79.4775" ry="18.2955" style="stroke:#A80036;stroke-width:1.0;"/><text fill="#000000" font-family="sans-serif" font-size="14" lengthAdjust="spacing" textLength="113" x="27.756" y="461.3709">Leer fichaje diario</text></g><g id="elem_Leer informe dia"><ellipse cx="594.6002" cy="336.52" fill="#FEFECE" filter="url(#f18f8g0q34ct8a)" rx="75.6002" ry="17.52" style="stroke:#A80036;stroke-width:1.0;"/><text fill="#000000" font-family="sans-serif" font-size="14" lengthAdjust="spacing" textLength="103" x="540.1002" y="341.0366">Leer informe dia</text></g><g id="elem_Leer informe semana"><ellipse cx="793.7471" cy="336.5494" fill="#FEFECE" filter="url(#f18f8g0q34ct8a)" rx="88.2471" ry="20.0494" style="stroke:#A80036;stroke-width:1.0;"/><text fill="#000000" font-family="sans-serif" font-size="14" lengthAdjust="spacing" textLength="134" x="726.7471" y="340.2779">Leer informe semana</text></g><g id="elem_Leer informe mes"><ellipse cx="995.2877" cy="336.5575" fill="#FEFECE" filter="url(#f18f8g0q34ct8a)" rx="78.2877" ry="18.0575" style="stroke:#A80036;stroke-width:1.0;"/><text fill="#000000" font-family="sans-serif" font-size="14" lengthAdjust="spacing" textLength="110" x="938.5149" y="340.7774">Leer informe mes</text></g><g id="elem_Leer informe"><ellipse cx="267.4169" cy="457.3834" fill="#FEFECE" filter="url(#f18f8g0q34ct8a)" rx="67.4169" ry="15.8834" style="stroke:#A80036;stroke-width:1.0;"/><text fill="#000000" font-family="sans-serif" font-size="14" lengthAdjust="spacing" textLength="80" x="224.4169" y="461.9">Leer informe</text></g><g id="elem_Crear Usuario"><ellipse cx="440.6531" cy="457.4306" fill="#FEFECE" filter="url(#f18f8g0q34ct8a)" rx="70.1531" ry="16.4306" style="stroke:#A80036;stroke-width:1.0;"/><text fill="#000000" font-family="sans-serif" font-size="14" lengthAdjust="spacing" textLength="88" x="393.6531" y="461.9472">Crear Usuario</text></g><g id="elem_Leer Usuario"><ellipse cx="613.2517" cy="457.4503" fill="#FEFECE" filter="url(#f18f8g0q34ct8a)" rx="67.7517" ry="15.9503" style="stroke:#A80036;stroke-width:1.0;"/><text fill="#000000" font-family="sans-serif" font-size="14" lengthAdjust="spacing" textLength="81" x="569.7517" y="461.9669">Leer Usuario</text></g><g id="elem_Actualizar Usuario"><ellipse cx="796.4775" cy="457.2955" fill="#FEFECE" filter="url(#f18f8g0q34ct8a)" rx="79.4775" ry="18.2955" style="stroke:#A80036;stroke-width:1.0;"/><text fill="#000000" font-family="sans-serif" font-size="14" lengthAdjust="spacing" textLength="113" x="738.756" y="461.3709">Actualizar Usuario</text></g><g id="elem_Eliminar Usuario"><ellipse cx="986.7256" cy="457.4451" fill="#FEFECE" filter="url(#f18f8g0q34ct8a)" rx="75.2256" ry="17.4451" style="stroke:#A80036;stroke-width:1.0;"/><text fill="#000000" font-family="sans-serif" font-size="14" lengthAdjust="spacing" textLength="102" x="932.7256" y="461.9617">Eliminar Usuario</text></g><!--MD5=[2e056b81345018e9f747e45bad94c163]
reverse link Trabajador to Usuario--><g id="link_Trabajador_Usuario"><path d="M655.67,105.57 C643.04,123.1 629.61,141.76 618.56,157.1 " fill="none" id="Trabajador-backto-Usuario" style="stroke:#A80036;stroke-width:1.0;"/><polygon fill="none" points="650.06,101.38,667.43,89.25,661.42,109.57,650.06,101.38" style="stroke:#A80036;stroke-width:1.0;"/></g><!--MD5=[39a07826a1b74c11cd6c15b957d26b5e]
reverse link Usuario to Administrador--><g id="link_Usuario_Administrador"><path d="M555.7,228.53 C533.94,248.73 506.73,274 484.22,294.9 " fill="none" id="Usuario-backto-Administrador" style="stroke:#A80036;stroke-width:1.0;"/><polygon fill="none" points="551.02,223.32,570.44,214.84,560.54,233.58,551.02,223.32" style="stroke:#A80036;stroke-width:1.0;"/></g><!--MD5=[96ea16b9b318e4f1ee5032f9a9c9bdb0]
link Trabajador to Escanea Lector de Huella / Crear registro--><g id="link_Trabajador_Escanea Lector de Huella / Crear registro"><path d="M727.57,89.25 C742.76,110.33 760.97,135.63 775.4,155.66 " fill="none" id="Trabajador-to-Escanea Lector de Huella / Crear registro" style="stroke:#A80036;stroke-width:1.0;"/><polygon fill="#A80036" points="778.42,159.85,776.4181,150.2067,775.503,155.7891,769.9207,154.8739,778.42,159.85" style="stroke:#A80036;stroke-width:1.0;"/></g><!--MD5=[0e5dec1c1d9ecff0add8e38acb129828]
link Usuario to Leer fichaje diario--><g id="link_Usuario_Leer fichaje diario"><path d="M570.4,203.27 C530.37,221.29 447.85,259.02 379.5,294 C283.3,343.23 172.34,406.32 118.38,437.42 " fill="none" id="Usuario-to-Leer fichaje diario" style="stroke:#A80036;stroke-width:1.0;"/><polygon fill="#A80036" points="113.97,439.97,123.7641,438.9326,118.2997,437.4693,119.763,432.005,113.97,439.97" style="stroke:#A80036;stroke-width:1.0;"/></g><!--MD5=[18148a4e00dc44d783669ac345181331]
link Usuario to Leer informe dia--><g id="link_Usuario_Leer informe dia"><path d="M594.5,234.25 C594.5,260.24 594.5,292.61 594.5,313.65 " fill="none" id="Usuario-to-Leer informe dia" style="stroke:#A80036;stroke-width:1.0;"/><polygon fill="#A80036" points="594.5,318.75,598.5,309.75,594.5,313.75,590.5,309.75,594.5,318.75" style="stroke:#A80036;stroke-width:1.0;"/></g><!--MD5=[a2d4a9f301feb44ba97874c9db0d1624]
link Usuario to Leer informe semana--><g id="link_Usuario_Leer informe semana"><path d="M618.82,218.88 C624.11,224.12 629.84,229.41 635.5,234 C674.64,265.73 724.11,296.15 757.17,315.27 " fill="none" id="Usuario-to-Leer informe semana" style="stroke:#A80036;stroke-width:1.0;"/><polygon fill="#A80036" points="761.53,317.77,755.737,309.805,757.2003,315.2693,751.7359,316.7326,761.53,317.77" style="stroke:#A80036;stroke-width:1.0;"/></g><!--MD5=[ddbd9274c0c1683664bbd4bbdc74ab5b]
link Usuario to Leer informe mes--><g id="link_Usuario_Leer informe mes"><path d="M618.62,221.36 C623.77,226.16 629.48,230.65 635.5,234 C740.66,292.47 785.12,256.63 899.5,294 C919.54,300.55 941.14,309.69 958.77,317.73 " fill="none" id="Usuario-to-Leer informe mes" style="stroke:#A80036;stroke-width:1.0;"/><polygon fill="#A80036" points="963.64,319.96,957.1298,312.5696,959.096,317.8738,953.7919,319.84,963.64,319.96" style="stroke:#A80036;stroke-width:1.0;"/></g><!--MD5=[09c5a50600d890683ba489d37b75b43b]
link Administrador to Leer fichaje diario--><g id="link_Administrador_Leer fichaje diario"><path d="M396.97,352.09 C330.25,374.46 203.16,417.06 133.73,440.33 " fill="none" id="Administrador-to-Leer fichaje diario" style="stroke:#A80036;stroke-width:1.0;"/><polygon fill="#A80036" points="128.83,441.98,138.6364,442.8933,133.5677,440.3817,136.0792,435.313,128.83,441.98" style="stroke:#A80036;stroke-width:1.0;"/></g><!--MD5=[2a3b3836155fe429f1783345caa09f6e]
link Administrador to Leer informe--><g id="link_Administrador_Leer informe"><path d="M396.84,367.53 C363.97,390.14 320.05,420.35 292.78,439.11 " fill="none" id="Administrador-to-Leer informe" style="stroke:#A80036;stroke-width:1.0;"/><polygon fill="#A80036" points="288.55,442.02,298.2354,440.2331,292.6748,439.194,293.7138,433.6334,288.55,442.02" style="stroke:#A80036;stroke-width:1.0;"/></g><!--MD5=[bd767c1110ef1ec4cbb9dbc08e703d97]
link Administrador to Crear Usuario--><g id="link_Administrador_Crear Usuario"><path d="M440.5,379.12 C440.5,398.27 440.5,420.14 440.5,435.74 " fill="none" id="Administrador-to-Crear Usuario" style="stroke:#A80036;stroke-width:1.0;"/><polygon fill="#A80036" points="440.5,440.77,444.5,431.77,440.5,435.77,436.5,431.77,440.5,440.77" style="stroke:#A80036;stroke-width:1.0;"/></g><!--MD5=[ded54a9030e158d0bcf6cf5be582945f]
link Administrador to Leer Usuario--><g id="link_Administrador_Leer Usuario"><path d="M484.16,367.53 C517.03,390.14 560.95,420.35 588.22,439.11 " fill="none" id="Administrador-to-Leer Usuario" style="stroke:#A80036;stroke-width:1.0;"/><polygon fill="#A80036" points="592.45,442.02,587.2862,433.6334,588.3252,439.194,582.7646,440.2331,592.45,442.02" style="stroke:#A80036;stroke-width:1.0;"/></g><!--MD5=[ec1613410bed5036552754dda1464750]
link Administrador to Actualizar Usuario--><g id="link_Administrador_Actualizar Usuario"><path d="M484.1,369.72 C489.79,373.15 495.67,376.35 501.5,379 C542.98,397.88 662.03,426.41 735.6,443.07 " fill="none" id="Administrador-to-Actualizar Usuario" style="stroke:#A80036;stroke-width:1.0;"/><polygon fill="#A80036" points="740.82,444.25,732.9184,438.3709,735.9421,443.1518,731.1612,446.1755,740.82,444.25" style="stroke:#A80036;stroke-width:1.0;"/></g><!--MD5=[afcac0a2234c3aa58482fb87e94c4737]
link Administrador to Eliminar Usuario--><g id="link_Administrador_Eliminar Usuario"><path d="M484.19,370.52 C489.82,373.77 495.66,376.7 501.5,379 C665.53,443.5 719.76,409.37 893.5,439 C904.03,440.8 915.22,442.81 926.04,444.81 " fill="none" id="Administrador-to-Eliminar Usuario" style="stroke:#A80036;stroke-width:1.0;"/><polygon fill="#A80036" points="930.99,445.73,922.8735,440.1513,926.0743,444.8155,921.4102,448.0163,930.99,445.73" style="stroke:#A80036;stroke-width:1.0;"/></g><!--MD5=[1e2754c40b08b088b84bf3fd29cd5477]
@startuml

skin rose

Usuario -up-|> Trabajador
Administrador -up-|> Usuario

Trabajador - -> (Escanea Lector de Huella / Crear registro)

Usuario - -> (Leer fichaje diario)
Usuario - -> (Leer informe dia)
Usuario - -> (Leer informe semana)
Usuario - -> (Leer informe mes)

Administrador - -> (Leer fichaje diario)

Administrador - -> (Leer informe)

Administrador - -> (Crear Usuario)
Administrador - -> (Leer Usuario)
Administrador - -> (Actualizar Usuario)
Administrador - -> (Eliminar Usuario)

@enduml

PlantUML version 1.2022.7(Mon Aug 22 19:01:30 CEST 2022)
(GPL source distribution)
Java Runtime: Java(TM) SE Runtime Environment
JVM: Java HotSpot(TM) 64-Bit Server VM
Default Encoding: UTF-8
Language: en
Country: US
--></g></svg>