<?xml version="1.0" encoding="us-ascii" standalone="no"?><svg xmlns="http://www.w3.org/2000/svg" xmlns:xlink="http://www.w3.org/1999/xlink" contentStyleType="text/css" height="553px" preserveAspectRatio="none" style="width:463px;height:553px;background:#FFFFFF;" version="1.1" viewBox="0 0 463 553" width="463px" zoomAndPan="magnify"><defs><filter height="300%" id="fgso0n5gzmgwb" width="300%" x="-1" y="-1"><feGaussianBlur result="blurOut" stdDeviation="2.0"/><feColorMatrix in="blurOut" result="blurOut2" type="matrix" values="0 0 0 0 0 0 0 0 0 0 0 0 0 0 0 0 0 0 .4 0"/><feOffset dx="4.0" dy="4.0" in="blurOut2" result="blurOut3"/><feBlend in="SourceGraphic" in2="blurOut3" mode="normal"/></filter></defs><g><text fill="#000000" font-family="sans-serif" font-size="14" font-weight="bold" lengthAdjust="spacing" textLength="180" x="134.5" y="22.9951">Diagrama de contexto</text><ellipse cx="314" cy="53.2969" fill="#000000" filter="url(#fgso0n5gzmgwb)" rx="10" ry="10" style="stroke:#000000;stroke-width:1.0;"/><g id="Inicial"><rect fill="#FEFECE" filter="url(#fgso0n5gzmgwb)" height="50" rx="12.5" ry="12.5" style="stroke:#A80036;stroke-width:1.0;" width="61" x="283.5" y="124.2969"/><line style="stroke:#A80036;stroke-width:1.0;" x1="283.5" x2="344.5" y1="150.5938" y2="150.5938"/><text fill="#000000" font-family="sans-serif" font-size="14" lengthAdjust="spacing" textLength="41" x="293.5" y="142.292">Inicial</text></g><g id="DASHBOARD_ABIERTO"><rect fill="#FEFECE" filter="url(#fgso0n5gzmgwb)" height="50" rx="12.5" ry="12.5" style="stroke:#A80036;stroke-width:1.0;" width="182" x="223" y="251.2969"/><line style="stroke:#A80036;stroke-width:1.0;" x1="223" x2="405" y1="277.5938" y2="277.5938"/><text fill="#000000" font-family="sans-serif" font-size="14" lengthAdjust="spacing" textLength="162" x="233" y="269.292">DASHBOARD_ABIERTO</text></g><g id="FICHAJE_ACTUAL"><rect fill="#FEFECE" filter="url(#fgso0n5gzmgwb)" height="50" rx="12.5" ry="12.5" style="stroke:#A80036;stroke-width:1.0;" width="138" x="245" y="362.2969"/><line style="stroke:#A80036;stroke-width:1.0;" x1="245" x2="383" y1="388.5938" y2="388.5938"/><text fill="#000000" font-family="sans-serif" font-size="14" lengthAdjust="spacing" textLength="118" x="255" y="380.292">FICHAJE_ACTUAL</text></g><g id="INFORME"><rect fill="#FEFECE" filter="url(#fgso0n5gzmgwb)" height="50" rx="12.5" ry="12.5" style="stroke:#A80036;stroke-width:1.0;" width="84" x="126" y="362.2969"/><line style="stroke:#A80036;stroke-width:1.0;" x1="126" x2="210" y1="388.5938" y2="388.5938"/><text fill="#000000" font-family="sans-serif" font-size="14" lengthAdjust="spacing" textLength="64" x="136" y="380.292">INFORME</text></g><g id="DIARIO"><rect fill="#FEFECE" filter="url(#fgso0n5gzmgwb)" height="50" rx="12.5" ry="12.5" style="stroke:#A80036;stroke-width:1.0;" width="70" x="7" y="489.2969"/><line style="stroke:#A80036;stroke-width:1.0;" x1="7" x2="77" y1="515.5938" y2="515.5938"/><text fill="#000000" font-family="sans-serif" font-size="14" lengthAdjust="spacing" textLength="50" x="17" y="507.292">DIARIO</text></g><g id="SEMANAL"><rect fill="#FEFECE" filter="url(#fgso0n5gzmgwb)" height="50" rx="12.5" ry="12.5" style="stroke:#A80036;stroke-width:1.0;" width="88" x="112" y="489.2969"/><line style="stroke:#A80036;stroke-width:1.0;" x1="112" x2="200" y1="515.5938" y2="515.5938"/><text fill="#000000" font-family="sans-serif" font-size="14" lengthAdjust="spacing" textLength="68" x="122" y="507.292">SEMANAL</text></g><g id="MENSUAL"><rect fill="#FEFECE" filter="url(#fgso0n5gzmgwb)" height="50" rx="12.5" ry="12.5" style="stroke:#A80036;stroke-width:1.0;" width="87" x="235.5" y="489.2969"/><line style="stroke:#A80036;stroke-width:1.0;" x1="235.5" x2="322.5" y1="515.5938" y2="515.5938"/><text fill="#000000" font-family="sans-serif" font-size="14" lengthAdjust="spacing" textLength="67" x="245.5" y="507.292">MENSUAL</text></g><ellipse cx="388" cy="514.2969" fill="none" filter="url(#fgso0n5gzmgwb)" rx="11" ry="11" style="stroke:#000000;stroke-width:1.0;"/><ellipse cx="388" cy="514.2969" fill="#000000" rx="6" ry="6" style="stroke:#000000;stroke-width:1.0;"/><!--link *start* to Inicial--><g id="link_*start*_Inicial"><path d="M314,63.3099 C314,77.1879 314,98.2619 314,118.1369 " fill="none" id="*start*-to-Inicial" style="stroke:#A80036;stroke-width:1.0;"/><polygon fill="#A80036" points="314,124.1369,318,115.1369,314,119.1369,310,115.1369,314,124.1369" style="stroke:#A80036;stroke-width:1.0;"/></g><!--link Inicial to DASHBOARD_ABIERTO--><g id="link_Inicial_DASHBOARD_ABIERTO"><path d="M314,174.3979 C314,196.5329 314,223.1579 314,245.2699 " fill="none" id="Inicial-to-DASHBOARD_ABIERTO" style="stroke:#A80036;stroke-width:1.0;"/><polygon fill="#A80036" points="314,251.2699,318,242.2699,314,246.2699,310,242.2699,314,251.2699" style="stroke:#A80036;stroke-width:1.0;"/><text fill="#000000" font-family="sans-serif" font-size="13" lengthAdjust="spacing" textLength="103" x="315" y="217.3638">login/registrarse</text></g><!--link DASHBOARD_ABIERTO to FICHAJE_ACTUAL--><g id="link_DASHBOARD_ABIERTO_FICHAJE_ACTUAL"><path d="M325.44,301.4879 C328.19,319.5509 329.0931,338.1957 326.3361,356.2427 " fill="none" id="DASHBOARD_ABIERTO-to-FICHAJE_ACTUAL" style="stroke:#A80036;stroke-width:1.0;"/><polygon fill="#A80036" points="325.43,362.1739,330.7433,353.8812,326.1851,357.2312,322.835,352.673,325.43,362.1739" style="stroke:#A80036;stroke-width:1.0;"/></g><!--reverse link DASHBOARD_ABIERTO to FICHAJE_ACTUAL--><g id="link_DASHBOARD_ABIERTO_FICHAJE_ACTUAL"><path d="M302.3411,307.4268 C299.7441,325.4898 300.602,344.1269 303.205,362.1739 " fill="none" id="DASHBOARD_ABIERTO-backto-FICHAJE_ACTUAL" style="stroke:#A80036;stroke-width:1.0;"/><polygon fill="#A80036" points="303.195,301.4879,297.9549,309.827,302.4834,306.437,305.8735,310.9655,303.195,301.4879" style="stroke:#A80036;stroke-width:1.0;"/></g><!--link DASHBOARD_ABIERTO to INFORME--><g id="link_DASHBOARD_ABIERTO_INFORME"><path d="M293.038,301.4879 C271.146,319.9269 242.2874,341.8273 215.0594,359.9663 " fill="none" id="DASHBOARD_ABIERTO-to-INFORME" style="stroke:#A80036;stroke-width:1.0;"/><polygon fill="#A80036" points="210.066,363.2929,219.7738,361.632,214.2272,360.5207,215.3384,354.9741,210.066,363.2929" style="stroke:#A80036;stroke-width:1.0;"/></g><!--reverse link DASHBOARD_ABIERTO to INFORME--><g id="link_DASHBOARD_ABIERTO_INFORME"><path d="M265.818,304.842 C239.026,322.905 211.086,344.1269 189.517,362.1739 " fill="none" id="DASHBOARD_ABIERTO-backto-INFORME" style="stroke:#A80036;stroke-width:1.0;"/><polygon fill="#A80036" points="270.793,301.4879,261.0945,303.2024,266.6472,304.2829,265.5666,309.8356,270.793,301.4879" style="stroke:#A80036;stroke-width:1.0;"/></g><!--link INFORME to DIARIO--><g id="link_INFORME_DIARIO"><path d="M154.622,412.3979 C135.759,434.5329 107.4206,463.2491 81.6757,485.3603 " fill="none" id="INFORME-to-DIARIO" style="stroke:#A80036;stroke-width:1.0;"/><polygon fill="#A80036" points="77.124,489.2696,86.5577,486.4402,80.9171,486.0119,81.3454,480.3713,77.124,489.2696" style="stroke:#A80036;stroke-width:1.0;"/></g><!--reverse link INFORME to DIARIO--><g id="link_INFORME_DIARIO"><path d="M128.8597,416.3249 C103.2907,438.4599 74.9441,467.1584 55.9208,489.2696 " fill="none" id="INFORME-backto-DIARIO" style="stroke:#A80036;stroke-width:1.0;"/><polygon fill="#A80036" points="133.396,412.3979,123.9735,415.2643,129.6157,415.6704,129.2096,421.3127,133.396,412.3979" style="stroke:#A80036;stroke-width:1.0;"/></g><!--link INFORME to SEMANAL--><g id="link_INFORME_SEMANAL"><path d="M176.602,412.3979 C177.927,434.5329 176.2591,461.3408 170.6791,483.452 " fill="none" id="INFORME-to-SEMANAL" style="stroke:#A80036;stroke-width:1.0;"/><polygon fill="#A80036" points="169.211,489.2696,175.2916,481.5219,170.4344,484.4216,167.5348,479.5644,169.211,489.2696" style="stroke:#A80036;stroke-width:1.0;"/></g><!--reverse link INFORME to SEMANAL--><g id="link_INFORME_SEMANAL"><path d="M153.9592,418.228 C148.5762,440.363 146.866,467.1584 148.008,489.2696 " fill="none" id="INFORME-backto-SEMANAL" style="stroke:#A80036;stroke-width:1.0;"/><polygon fill="#A80036" points="155.377,412.3979,149.3636,420.1978,154.1955,417.2563,157.137,422.0882,155.377,412.3979" style="stroke:#A80036;stroke-width:1.0;"/></g><!--link INFORME to MENSUAL--><g id="link_INFORME_MENSUAL"><path d="M200.318,412.3979 C223.423,434.5329 248.8471,462.3161 265.0251,484.4273 " fill="none" id="INFORME-to-MENSUAL" style="stroke:#A80036;stroke-width:1.0;"/><polygon fill="#A80036" points="268.568,489.2696,266.4818,479.6442,265.6156,485.2343,260.0254,484.3681,268.568,489.2696" style="stroke:#A80036;stroke-width:1.0;"/></g><!--reverse link INFORME to MENSUAL--><g id="link_INFORME_MENSUAL"><path d="M182.6636,417.219 C199.0616,439.354 224.466,467.1584 247.365,489.2696 " fill="none" id="INFORME-backto-MENSUAL" style="stroke:#A80036;stroke-width:1.0;"/><polygon fill="#A80036" points="179.092,412.3979,181.2353,422.0107,182.0683,416.4155,187.6635,417.2486,179.092,412.3979" style="stroke:#A80036;stroke-width:1.0;"/></g><!--link DASHBOARD_ABIERTO to *end*--><g id="link_DASHBOARD_ABIERTO_*end*"><path d="M348.317,301.6109 C366.922,316.7989 388.422,338.0489 400,362.2969 C418.638,401.3329 415.632,416.7179 408,459.2969 C405.072,475.6322 400.0792,488.0556 395.1392,498.5915 " fill="none" id="DASHBOARD_ABIERTO-to-*end*" style="stroke:#A80036;stroke-width:1.0;"/><polygon fill="#A80036" points="392.592,504.024,400.0344,497.5733,394.7146,499.4969,392.7911,494.1771,392.592,504.024" style="stroke:#A80036;stroke-width:1.0;"/><text fill="#000000" font-family="sans-serif" font-size="13" lengthAdjust="spacing" textLength="40" x="415" y="391.8638">logout</text></g><!--link FICHAJE_ACTUAL to *end*--><g id="link_FICHAJE_ACTUAL_*end*"><path d="M330.236,412.5219 C336.278,421.7489 343.097,432.4189 349,442.2969 C361.987,464.0264 373.2071,484.9855 380.3781,498.6704 " fill="none" id="FICHAJE_ACTUAL-to-*end*" style="stroke:#A80036;stroke-width:1.0;"/><polygon fill="#A80036" points="383.163,503.985,382.5287,494.1566,380.8423,499.5562,375.4427,497.8697,383.163,503.985" style="stroke:#A80036;stroke-width:1.0;"/><text fill="#000000" font-family="sans-serif" font-size="13" lengthAdjust="spacing" textLength="40" x="359" y="455.3638">logout</text></g><!--link INFORME to *end*--><g id="link_INFORME_*end*"><path d="M210.069,410.8679 C227.723,420.4369 248.428,431.7859 267,442.2969 C309.182,466.1694 353.7545,492.7441 373.8035,504.769 " fill="none" id="INFORME-to-*end*" style="stroke:#A80036;stroke-width:1.0;"/><polygon fill="#A80036" points="378.949,507.8552,373.2882,499.7957,374.6611,505.2834,369.1734,506.6563,378.949,507.8552" style="stroke:#A80036;stroke-width:1.0;"/><text fill="#000000" font-family="sans-serif" font-size="13" lengthAdjust="spacing" textLength="40" x="295" y="455.3638">logout</text></g><!--SRC=[XP1T2u8m58RlzolETJ2wZmYccxH81RMh21awP6GEve9-Vav4_8hk3izvpxETqpvL0qQt4bbbQmbKYSg8bu1IGg4RApzM8tJVFG3Z4m1lLA54ZT1G02uxJ4bwzcAIq9nud2LP30UeTQMQlP6LQgqHfdi0hMFE6N3_J2ui9tvs8zSV8Hu5SHAoBSSHu_yE5neTGz6BAIS9ZsSePI69EikKXInAdNc4JhYOTMWvwzWukxsQksr_BlssQBx8kZ_zqxJn1G00]--></g></svg>