<?xml version="1.0" encoding="us-ascii" standalone="no"?><svg xmlns="http://www.w3.org/2000/svg" xmlns:xlink="http://www.w3.org/1999/xlink" contentStyleType="text/css" height="576px" preserveAspectRatio="none" style="width:1298px;height:576px;background:#FFFFFF;" version="1.1" viewBox="0 0 1298 576" width="1298px" zoomAndPan="magnify"><defs><filter height="300%" id="f4ineu6k4f91u" width="300%" x="-1" y="-1"><feGaussianBlur result="blurOut" stdDeviation="2.0"/><feColorMatrix in="blurOut" result="blurOut2" type="matrix" values="0 0 0 0 0 0 0 0 0 0 0 0 0 0 0 0 0 0 .4 0"/><feOffset dx="4.0" dy="4.0" in="blurOut2" result="blurOut3"/><feBlend in="SourceGraphic" in2="blurOut3" mode="normal"/></filter></defs><g><!--entity Usuario--><g id="elem_Usuario"><ellipse cx="271" cy="157" fill="#FEFECE" filter="url(#f4ineu6k4f91u)" rx="8" ry="8" style="stroke:#A80036;stroke-width:2.0;"/><path d="M271,165 L271,192 M258,173 L284,173 M271,192 L258,207 M271,192 L284,207 " fill="none" filter="url(#f4ineu6k4f91u)" style="stroke:#A80036;stroke-width:2.0;"/><text fill="#000000" font-family="sans-serif" font-size="14" lengthAdjust="spacing" textLength="51" x="245.5" y="226.9951">Usuario</text></g><!--entity Trabajador--><g id="elem_Trabajador"><ellipse cx="337" cy="14" fill="#FEFECE" filter="url(#f4ineu6k4f91u)" rx="8" ry="8" style="stroke:#A80036;stroke-width:2.0;"/><path d="M337,22 L337,49 M324,30 L350,30 M337,49 L324,64 M337,49 L350,64 " fill="none" filter="url(#f4ineu6k4f91u)" style="stroke:#A80036;stroke-width:2.0;"/><text fill="#000000" font-family="sans-serif" font-size="14" lengthAdjust="spacing" textLength="77" x="298.5" y="83.9951">Trabajador</text></g><!--entity Administrador--><g id="elem_Administrador"><ellipse cx="535" cy="300" fill="#FEFECE" filter="url(#f4ineu6k4f91u)" rx="8" ry="8" style="stroke:#A80036;stroke-width:2.0;"/><path d="M535,308 L535,335 M522,316 L548,316 M535,335 L522,350 M535,335 L548,350 " fill="none" filter="url(#f4ineu6k4f91u)" style="stroke:#A80036;stroke-width:2.0;"/><text fill="#000000" font-family="sans-serif" font-size="14" lengthAdjust="spacing" textLength="102" x="484" y="369.9951">Administrador</text></g><g id="elem_Crear registro"><ellipse cx="404.1868" cy="188.4374" fill="#FEFECE" filter="url(#f4ineu6k4f91u)" rx="72.6868" ry="16.9374" style="stroke:#A80036;stroke-width:1.0;"/><text fill="#000000" font-family="sans-serif" font-size="14" lengthAdjust="spacing" textLength="100" x="351.1868" y="192.1849">Crear registro</text></g><g id="elem_Ver fichaje diario"><ellipse cx="87.0271" cy="453.1054" fill="#FEFECE" filter="url(#f4ineu6k4f91u)" rx="81.0271" ry="18.6054" style="stroke:#A80036;stroke-width:1.0;"/><text fill="#000000" font-family="sans-serif" font-size="14" lengthAdjust="spacing" textLength="121" x="25.2415" y="456.3718">Ver fichaje diario</text></g><g id="elem_Ver informe"><ellipse cx="271.0233" cy="452.9047" fill="#FEFECE" filter="url(#f4ineu6k4f91u)" rx="67.5233" ry="15.9047" style="stroke:#A80036;stroke-width:1.0;"/><text fill="#000000" font-family="sans-serif" font-size="14" lengthAdjust="spacing" textLength="86" x="225.0233" y="456.6522">Ver informe</text></g><g id="elem_Editar fichaje diario"><ellipse cx="1195.7915" cy="453.1583" fill="#FEFECE" filter="url(#f4ineu6k4f91u)" rx="88.7915" ry="20.1583" style="stroke:#A80036;stroke-width:1.0;"/><text fill="#000000" font-family="sans-serif" font-size="14" lengthAdjust="spacing" textLength="139" x="1126.2915" y="456.005">Editar fichaje diario</text></g><g id="elem_Crear Usuarios"><ellipse cx="447.0678" cy="453.0136" fill="#FEFECE" filter="url(#f4ineu6k4f91u)" rx="73.0678" ry="17.0136" style="stroke:#A80036;stroke-width:1.0;"/><text fill="#000000" font-family="sans-serif" font-size="14" lengthAdjust="spacing" textLength="101" x="393.5678" y="456.7611">Crear Usuarios</text></g><g id="elem_Ver Usuarios"><ellipse cx="622.8807" cy="452.9761" fill="#FEFECE" filter="url(#f4ineu6k4f91u)" rx="67.8807" ry="15.9761" style="stroke:#A80036;stroke-width:1.0;"/><text fill="#000000" font-family="sans-serif" font-size="14" lengthAdjust="spacing" textLength="87" x="576.3807" y="456.7237">Ver Usuarios</text></g><g id="elem_Editar Usuarios"><ellipse cx="801.1066" cy="452.8213" fill="#FEFECE" filter="url(#f4ineu6k4f91u)" rx="74.6066" ry="17.3213" style="stroke:#A80036;stroke-width:1.0;"/><text fill="#000000" font-family="sans-serif" font-size="14" lengthAdjust="spacing" textLength="105" x="745.6066" y="456.5689">Editar Usuarios</text></g><g id="elem_Eliminar Usuarios"><ellipse cx="991.1107" cy="453.0221" fill="#FEFECE" filter="url(#f4ineu6k4f91u)" rx="80.6107" ry="18.5221" style="stroke:#A80036;stroke-width:1.0;"/><text fill="#000000" font-family="sans-serif" font-size="14" lengthAdjust="spacing" textLength="120" x="929.6726" y="456.3348">Eliminar Usuarios</text></g><g id="elem_Dia"><ellipse cx="156.2487" cy="547.5236" fill="#FEFECE" filter="url(#f4ineu6k4f91u)" rx="27.7487" ry="14.5236" style="stroke:#A80036;stroke-width:1.0;"/><text fill="#000000" font-family="sans-serif" font-size="14" lengthAdjust="spacing" textLength="23" x="144.7487" y="550.3703">Dia</text></g><g id="elem_Semana"><ellipse cx="271.1007" cy="547.715" fill="#FEFECE" filter="url(#f4ineu6k4f91u)" rx="52.6007" ry="14.715" style="stroke:#A80036;stroke-width:1.0;"/><text fill="#000000" font-family="sans-serif" font-size="14" lengthAdjust="spacing" textLength="57" x="239.6007" y="551.4626">Semana</text></g><g id="elem_Mes"><ellipse cx="389.7843" cy="547.5236" fill="#FEFECE" filter="url(#f4ineu6k4f91u)" rx="31.2843" ry="14.5236" style="stroke:#A80036;stroke-width:1.0;"/><text fill="#000000" font-family="sans-serif" font-size="14" lengthAdjust="spacing" textLength="28" x="375.7843" y="550.3703">Mes</text></g><!--reverse link Trabajador to Usuario--><g id="link_Trabajador_Usuario"><path d="M310.2794,103.5856 C301.5234,122.2926 298.798,128.113 290.047,146.809 " fill="none" id="Trabajador-backto-Usuario" style="stroke:#A80036;stroke-width:1.0;"/><polygon fill="none" points="317.91,87.283,304.8452,101.0421,315.7136,106.1291,317.91,87.283" style="stroke:#A80036;stroke-width:1.0;"/></g><!--reverse link Usuario to Administrador--><g id="link_Usuario_Administrador"><path d="M310.0326,228.3004 C315.4826,233.2224 308.04,225.999 314,230 C368.07,266.292 437.371,295.383 483.825,312.747 " fill="none" id="Usuario-backto-Administrador" style="stroke:#A80036;stroke-width:1.0;"/><polygon fill="none" points="296.674,216.236,306.0111,232.7532,314.054,223.8475,296.674,216.236" style="stroke:#A80036;stroke-width:1.0;"/></g><!--link Trabajador to Crear registro--><g id="link_Trabajador_Crear registro"><path d="M356.379,87.283 C369.674,115.262 384.026,145.4647 393.702,165.8287 " fill="none" id="Trabajador-to-Crear registro" style="stroke:#A80036;stroke-width:1.0;"/><polygon fill="#A80036" points="396.277,171.248,396.0274,161.4023,394.1312,166.7319,388.8016,164.8357,396.277,171.248" style="stroke:#A80036;stroke-width:1.0;"/></g><!--link Usuario to Ver fichaje diario--><g id="link_Usuario_Ver fichaje diario"><path d="M245.416,226 C205.226,283.335 132.2729,387.4128 102.6279,429.7048 " fill="none" id="Usuario-to-Ver fichaje diario" style="stroke:#A80036;stroke-width:1.0;"/><polygon fill="#A80036" points="99.184,434.618,107.6254,429.5442,102.0539,430.5237,101.0745,424.9523,99.184,434.618" style="stroke:#A80036;stroke-width:1.0;"/></g><!--link Usuario to Ver informe--><g id="link_Usuario_Ver informe"><path d="M271,230.228 C271,289.558 271,391.006 271,430.715 " fill="none" id="Usuario-to-Ver informe" style="stroke:#A80036;stroke-width:1.0;"/><polygon fill="#A80036" points="271,436.715,275,427.715,271,431.715,267,427.715,271,436.715" style="stroke:#A80036;stroke-width:1.0;"/></g><!--link Administrador to Ver fichaje diario--><g id="link_Administrador_Ver fichaje diario"><path d="M483.609,346.208 C397.191,369.259 229.6033,413.9616 143.5893,436.9056 " fill="none" id="Administrador-to-Ver fichaje diario" style="stroke:#A80036;stroke-width:1.0;"/><polygon fill="#A80036" points="137.792,438.452,147.5189,439.9972,142.6231,437.1633,145.457,432.2675,137.792,438.452" style="stroke:#A80036;stroke-width:1.0;"/></g><!--link Administrador to Editar fichaje diario--><g id="link_Administrador_Editar fichaje diario"><path d="M586.043,341.728 C704.143,363.079 990.3277,414.8176 1122.8157,438.7696 " fill="none" id="Administrador-to-Editar fichaje diario" style="stroke:#A80036;stroke-width:1.0;"/><polygon fill="#A80036" points="1128.72,439.837,1120.5752,434.2997,1123.7998,438.9475,1119.152,442.1721,1128.72,439.837" style="stroke:#A80036;stroke-width:1.0;"/></g><!--link Administrador to Ver informe--><g id="link_Administrador_Ver informe"><path d="M483.785,355.682 C429.355,380.321 350.6121,415.9627 306.2111,436.0617 " fill="none" id="Administrador-to-Ver informe" style="stroke:#A80036;stroke-width:1.0;"/><polygon fill="#A80036" points="300.745,438.536,310.5936,438.4686,305.3,436.4741,307.2945,431.1805,300.745,438.536" style="stroke:#A80036;stroke-width:1.0;"/></g><!--link Administrador to Crear Usuarios--><g id="link_Administrador_Crear Usuarios"><path d="M504.962,373.291 C489.128,394.792 474.1619,415.1157 462.3969,431.0917 " fill="none" id="Administrador-to-Crear Usuarios" style="stroke:#A80036;stroke-width:1.0;"/><polygon fill="#A80036" points="458.839,435.923,467.3967,431.0479,461.8039,431.8969,460.9549,426.3041,458.839,435.923" style="stroke:#A80036;stroke-width:1.0;"/></g><!--link Administrador to Ver Usuarios--><g id="link_Administrador_Ver Usuarios"><path d="M565.038,373.291 C581.27,395.333 596.7723,416.3836 608.4783,432.2806 " fill="none" id="Administrador-to-Ver Usuarios" style="stroke:#A80036;stroke-width:1.0;"/><polygon fill="#A80036" points="612.036,437.112,609.9204,427.493,609.0712,433.0858,603.4785,432.2366,612.036,437.112" style="stroke:#A80036;stroke-width:1.0;"/></g><!--link Administrador to Editar Usuarios--><g id="link_Administrador_Editar Usuarios"><path d="M586.287,355.541 C639.882,379.618 716.9049,414.2202 762.4589,434.6852 " fill="none" id="Administrador-to-Editar Usuarios" style="stroke:#A80036;stroke-width:1.0;"/><polygon fill="#A80036" points="767.932,437.144,761.3616,429.8071,763.3711,435.095,758.0832,437.1046,767.932,437.144" style="stroke:#A80036;stroke-width:1.0;"/></g><!--link Administrador to Eliminar Usuarios--><g id="link_Administrador_Eliminar Usuarios"><path d="M586.423,345.976 C674.35,369.018 846.751,414.198 934.31,437.144 " fill="none" id="Administrador-to-Eliminar Usuarios" style="stroke:#A80036;stroke-width:1.0;"/><polygon fill="#A80036" points="940.114,438.665,932.422,432.5141,935.2773,437.3975,930.394,440.2528,940.114,438.665" style="stroke:#A80036;stroke-width:1.0;"/></g><!--link Ver informe to Dia--><g id="link_Ver informe_Dia"><path d="M253.031,468.4531 C230.163,486.847 195.8023,514.4853 174.8923,531.3043 " fill="none" id="Ver informe-to-Dia" style="stroke:#A80036;stroke-width:1.0;"/><polygon fill="#A80036" points="170.217,535.0649,179.7369,532.5409,174.1131,531.9311,174.7229,526.3072,170.217,535.0649" style="stroke:#A80036;stroke-width:1.0;"/></g><!--link Ver informe to Semana--><g id="link_Ver informe_Semana"><path d="M271,469.2745 C271,486.9264 271,509.7194 271,526.7143 " fill="none" id="Ver informe-to-Semana" style="stroke:#A80036;stroke-width:1.0;"/><polygon fill="#A80036" points="271,532.7143,275,523.7143,271,527.7143,267,523.7143,271,532.7143" style="stroke:#A80036;stroke-width:1.0;"/></g><!--link Ver informe to Mes--><g id="link_Ver informe_Mes"><path d="M289.594,468.4531 C312.996,486.6437 348.0238,513.8713 369.8278,530.8198 " fill="none" id="Ver informe-to-Mes" style="stroke:#A80036;stroke-width:1.0;"/><polygon fill="#A80036" points="374.565,534.5021,369.9141,525.8206,370.6173,531.4335,365.0044,532.1368,374.565,534.5021" style="stroke:#A80036;stroke-width:1.0;"/></g><!--SRC=[VO-z3i8m38JtF8L7CkGLAY5WPE9dTuaBBYH1Jhlny3Hg4PIc7Ntt-NoET_OW8P9IfzYYS03JFishWADWYJNQ86fj7NkEZQJfum-uKbyGZ2bWjH520Q5hsWZw9pYvPnAe-7B3ci1oqlKKO5y5STJj_fsUIyXWEyiDJicvnCMJ_Kj3pQZdCXQ1eSyoy-1E6r5grAx7jemwfn_8eSzRUuhw3G00]--></g></svg>