<?xml version="1.0" encoding="us-ascii" standalone="no"?><svg xmlns="http://www.w3.org/2000/svg" xmlns:xlink="http://www.w3.org/1999/xlink" contentStyleType="text/css" height="1176px" preserveAspectRatio="none" style="width:822px;height:1176px;background:#FFFFFF;" version="1.1" viewBox="0 0 822 1176" width="822px" zoomAndPan="magnify"><defs/><g><ellipse cx="408" cy="16" fill="#222222" rx="10" ry="10" style="stroke:#222222;stroke-width:1.0;"/><g id="Inicio"><rect fill="#FAF4B4" height="50" rx="12.5" ry="12.5" style="stroke:#C90000;stroke-width:0.5;" width="58" x="379" y="87"/><line style="stroke:#C90000;stroke-width:0.5;" x1="379" x2="437" y1="113.2969" y2="113.2969"/><text fill="#000000" font-family="sans-serif" font-size="14" lengthAdjust="spacing" textLength="38" x="389" y="104.9951">Inicio</text></g><path d="M19.5,232 L796.7281,232 A12.5,12.5 0 0 1 809.2281,244.5 L809.2281,258.2969 L7,258.2969 L7,244.5 A12.5,12.5 0 0 1 19.5,232 " fill="#FAF4B4" style="stroke:#FAF4B4;stroke-width:1.0;"/><rect fill="none" height="793.2969" rx="12.5" ry="12.5" style="stroke:#C90000;stroke-width:0.5;" width="802.2281" x="7" y="232"/><line style="stroke:#C90000;stroke-width:0.5;" x1="7" x2="809.2281" y1="258.2969" y2="258.2969"/><text fill="#000000" font-family="sans-serif" font-size="14" lengthAdjust="spacing" textLength="31" x="392.6141" y="249.9951">FISC</text><ellipse cx="575.7281" cy="279.2969" fill="#222222" rx="10" ry="10" style="stroke:#222222;stroke-width:1.0;"/><g id="FISC.P&#225;ginaPrincipal"><rect fill="#FAF4B4" height="50" rx="12.5" ry="12.5" style="stroke:#C90000;stroke-width:0.5;" width="129" x="511.2281" y="326.2969"/><line style="stroke:#C90000;stroke-width:0.5;" x1="511.2281" x2="640.2281" y1="352.5938" y2="352.5938"/><text fill="#000000" font-family="sans-serif" font-size="14" lengthAdjust="spacing" textLength="109" x="521.2281" y="344.292">P&#225;ginaPrincipal</text></g><g id="FISC.P&#225;ginaProyecto"><rect fill="#FAF4B4" height="50" rx="12.5" ry="12.5" style="stroke:#C90000;stroke-width:0.5;" width="132" x="509.7281" y="477.2969"/><line style="stroke:#C90000;stroke-width:0.5;" x1="509.7281" x2="641.7281" y1="503.5938" y2="503.5938"/><text fill="#000000" font-family="sans-serif" font-size="14" lengthAdjust="spacing" textLength="112" x="519.7281" y="495.292">P&#225;ginaProyecto</text></g><g id="FISC.Configuraci&#243;nDeSimulaci&#243;n"><rect fill="#FAF4B4" height="50" rx="12.5" ry="12.5" style="stroke:#C90000;stroke-width:0.5;" width="216" x="141.7281" y="613.2969"/><line style="stroke:#C90000;stroke-width:0.5;" x1="141.7281" x2="357.7281" y1="639.5938" y2="639.5938"/><text fill="#000000" font-family="sans-serif" font-size="14" lengthAdjust="spacing" textLength="196" x="151.7281" y="631.292">Configuraci&#243;nDeSimulaci&#243;n</text></g><g id="FISC.Reporte"><rect fill="#FAF4B4" height="50" rx="12.5" ry="12.5" style="stroke:#C90000;stroke-width:0.5;" width="80" x="450.7281" y="965.2969"/><line style="stroke:#C90000;stroke-width:0.5;" x1="450.7281" x2="530.7281" y1="991.5938" y2="991.5938"/><text fill="#000000" font-family="sans-serif" font-size="14" lengthAdjust="spacing" textLength="60" x="460.7281" y="983.292">Reporte</text></g><g id="FISC.Simulando"><rect fill="#FAF4B4" height="50" rx="12.5" ry="12.5" style="stroke:#C90000;stroke-width:0.5;" width="94" x="33.7283" y="806.2969"/><line style="stroke:#C90000;stroke-width:0.5;" x1="33.7283" x2="127.7283" y1="832.5938" y2="832.5938"/><text fill="#000000" font-family="sans-serif" font-size="14" lengthAdjust="spacing" textLength="74" x="43.7283" y="824.292">Simulando</text></g><!--link *start*FISC to P?ginaPrincipal--><g id="link_*start*FISC_P&#225;ginaPrincipal"><path d="M575.7281,289.4479 C575.7281,298.7129 575.7281,307.4379 575.7281,320.0809 " fill="none" id="*start*FISC-to-P&#225;ginaPrincipal" style="stroke:#218C00;stroke-width:1.0;"/><polygon fill="#218C00" points="575.7281,326.0809,579.7281,317.0809,575.7281,321.0809,571.7281,317.0809,575.7281,326.0809" style="stroke:#218C00;stroke-width:1.0;"/></g><!--link P?ginaPrincipal to P?ginaProyecto--><g id="link_P&#225;ginaPrincipal_P&#225;ginaProyecto"><path d="M575.7281,376.5679 C575.7281,404.2759 575.7281,443.3329 575.7281,471.0359 " fill="none" id="P&#225;ginaPrincipal-to-P&#225;ginaProyecto" style="stroke:#218C00;stroke-width:1.0;"/><polygon fill="#218C00" points="575.7281,477.0359,579.7281,468.0359,575.7281,472.0359,571.7281,468.0359,575.7281,477.0359" style="stroke:#218C00;stroke-width:1.0;"/><path d="M580.7281,399.2969 L580.7281,454.2969 L717.7281,454.2969 L717.7281,409.2969 L707.7281,399.2969 L580.7281,399.2969 " fill="#F5F5F5" style="stroke:#C90000;stroke-width:0.5;"/><path d="M707.7281,399.2969 L707.7281,409.2969 L717.7281,409.2969 L707.7281,399.2969 " fill="#F5F5F5" style="stroke:#C90000;stroke-width:0.5;"/><text fill="#000000" font-family="sans-serif" font-size="13" lengthAdjust="spacing" textLength="91" x="586.7281" y="416.3638">Abrir Proyecto</text><text fill="#000000" font-family="sans-serif" font-size="13" lengthAdjust="spacing" textLength="116" x="586.7281" y="431.4966">Importar Proyecto</text><text fill="#000000" font-family="sans-serif" font-size="13" lengthAdjust="spacing" textLength="102" x="586.7281" y="446.6294">Nuevo Proyecto</text></g><!--link P?ginaPrincipal to P?ginaPrincipal--><g id="link_P&#225;ginaPrincipal_P&#225;ginaPrincipal"><path d="M640.4081,344.0109 C650.9701,345.0539 658.2281,347.4829 658.2281,351.2969 C658.2281,355.1109 656.9411,356.9502 646.3791,357.9932 " fill="none" id="P&#225;ginaPrincipal-to-P&#225;ginaPrincipal" style="stroke:#218C00;stroke-width:1.0;"/><polygon fill="#218C00" points="640.4081,358.5829,649.7576,361.6791,645.3839,358.0915,648.9714,353.7178,640.4081,358.5829" style="stroke:#218C00;stroke-width:1.0;"/><path d="M663.2281,338.7969 L663.2281,363.7969 L800.2281,363.7969 L800.2281,348.7969 L790.2281,338.7969 L663.2281,338.7969 " fill="#F5F5F5" style="stroke:#C90000;stroke-width:0.5;"/><path d="M790.2281,338.7969 L790.2281,348.7969 L800.2281,348.7969 L790.2281,338.7969 " fill="#F5F5F5" style="stroke:#C90000;stroke-width:0.5;"/><text fill="#000000" font-family="sans-serif" font-size="13" lengthAdjust="spacing" textLength="116" x="669.2281" y="355.8638">Exportar Proyecto</text></g><!--link P?ginaProyecto to Configuraci?nDeSimulaci?n--><g id="link_P&#225;ginaProyecto_Configuraci&#243;nDeSimulaci&#243;n"><path d="M509.5781,516.9299 C480.5581,523.8849 446.4141,533.4099 416.7281,545.2969 C370.1731,563.9399 325.337,589.5835 292.323,609.9875 " fill="none" id="P&#225;ginaProyecto-to-Configuraci&#243;nDeSimulaci&#243;n" style="stroke:#218C00;stroke-width:1.0;"/><polygon fill="#218C00" points="287.2191,613.1419,296.9779,611.8128,291.4723,610.5132,292.772,605.0077,287.2191,613.1419" style="stroke:#218C00;stroke-width:1.0;"/><path d="M421.7281,550.2969 L421.7281,590.2969 L556.7281,590.2969 L556.7281,560.2969 L546.7281,550.2969 L421.7281,550.2969 " fill="#F5F5F5" style="stroke:#C90000;stroke-width:0.5;"/><path d="M546.7281,550.2969 L546.7281,560.2969 L556.7281,560.2969 L546.7281,550.2969 " fill="#F5F5F5" style="stroke:#C90000;stroke-width:0.5;"/><text fill="#000000" font-family="sans-serif" font-size="13" lengthAdjust="spacing" textLength="103" x="427.7281" y="567.3638">Abrir Simulaci&#243;n</text><text fill="#000000" font-family="sans-serif" font-size="13" lengthAdjust="spacing" textLength="114" x="427.7281" y="582.4966">Nueva Simulaci&#243;n</text></g><!--link P?ginaProyecto to Reporte--><g id="link_P&#225;ginaProyecto_Reporte"><path d="M575.7281,527.5039 C575.7281,554.3409 575.7281,598.9119 575.7281,637.2969 C575.7281,637.2969 575.7281,637.2969 575.7281,911.7969 C575.7281,938.357 557.9573,955.1949 535.9103,968.1677 " fill="none" id="P&#225;ginaProyecto-to-Reporte" style="stroke:#218C00;stroke-width:1.0;"/><polygon fill="#218C00" points="530.7391,971.2105,540.5244,970.0937,535.0484,968.6748,536.4674,963.1988,530.7391,971.2105" style="stroke:#218C00;stroke-width:1.0;"/><path d="M580.7281,758.2969 L580.7281,783.2969 L678.7281,783.2969 L678.7281,768.2969 L668.7281,758.2969 L580.7281,758.2969 " fill="#F5F5F5" style="stroke:#C90000;stroke-width:0.5;"/><path d="M668.7281,758.2969 L668.7281,768.2969 L678.7281,768.2969 L668.7281,758.2969 " fill="#F5F5F5" style="stroke:#C90000;stroke-width:0.5;"/><text fill="#000000" font-family="sans-serif" font-size="13" lengthAdjust="spacing" textLength="77" x="586.7281" y="775.3638">Ver Reporte</text></g><!--link Configuraci?nDeSimulaci?n to Simulando--><g id="link_Configuraci&#243;nDeSimulaci&#243;n_Simulando"><path d="M242.3291,663.5939 C235.2341,684.1719 223.0351,713.6899 205.7281,735.2969 C182.6381,764.1239 154.0198,785.8053 127.4417,802.8843 " fill="none" id="Configuraci&#243;nDeSimulaci&#243;n-to-Simulando" style="stroke:#218C00;stroke-width:1.0;"/><polygon fill="#218C00" points="122.394,806.1279,132.1279,804.6276,126.6004,803.4249,127.8031,797.8973,122.394,806.1279" style="stroke:#218C00;stroke-width:1.0;"/><path d="M231.7281,705.2969 L231.7281,730.2969 L362.7281,730.2969 L362.7281,715.2969 L352.7281,705.2969 L231.7281,705.2969 " fill="#F5F5F5" style="stroke:#C90000;stroke-width:0.5;"/><path d="M352.7281,705.2969 L352.7281,715.2969 L362.7281,715.2969 L352.7281,705.2969 " fill="#F5F5F5" style="stroke:#C90000;stroke-width:0.5;"/><text fill="#000000" font-family="sans-serif" font-size="13" lengthAdjust="spacing" textLength="110" x="237.7281" y="722.3638">Iniciar Simulaci&#243;n</text></g><!--link Configuraci?nDeSimulaci?n to Configuraci?nDeSimulaci?n--><g id="link_Configuraci&#243;nDeSimulaci&#243;n_Configuraci&#243;nDeSimulaci&#243;n"><path d="M358.1591,631.8759 C368.8981,633.1629 375.7281,635.3029 375.7281,638.2969 C375.7281,641.2909 374.8555,642.7169 364.1165,644.0039 " fill="none" id="Configuraci&#243;nDeSimulaci&#243;n-to-Configuraci&#243;nDeSimulaci&#243;n" style="stroke:#218C00;stroke-width:1.0;"/><polygon fill="#218C00" points="358.1591,644.7179,367.5711,647.6185,363.1236,644.1229,366.6192,639.6754,358.1591,644.7179" style="stroke:#218C00;stroke-width:1.0;"/><path d="M380.7281,625.7969 L380.7281,650.7969 L529.7281,650.7969 L529.7281,635.7969 L519.7281,625.7969 L380.7281,625.7969 " fill="#F5F5F5" style="stroke:#C90000;stroke-width:0.5;"/><path d="M519.7281,625.7969 L519.7281,635.7969 L529.7281,635.7969 L519.7281,625.7969 " fill="#F5F5F5" style="stroke:#C90000;stroke-width:0.5;"/><text fill="#000000" font-family="sans-serif" font-size="13" lengthAdjust="spacing" textLength="128" x="386.7281" y="642.8638">Importar Simulaci&#243;n</text></g><!--link Simulando to Configuraci?nDeSimulaci?n--><g id="link_Simulando_Configuraci&#243;nDeSimulaci&#243;n"><path d="M61.6599,806.0069 C42.211,778.0679 18,731.9829 41.7283,700.2969 C54.6704,683.0139 91.9601,670.3387 135.6166,660.1017 " fill="none" id="Simulando-to-Configuraci&#243;nDeSimulaci&#243;n" style="stroke:#218C00;stroke-width:1.0;"/><polygon fill="#218C00" points="141.4581,658.7319,131.7826,656.8922,136.5901,659.8734,133.609,664.6809,141.4581,658.7319" style="stroke:#218C00;stroke-width:1.0;"/><path d="M46.7283,705.2969 L46.7283,730.2969 L196.7283,730.2969 L196.7283,715.2969 L186.7283,705.2969 L46.7283,705.2969 " fill="#F5F5F5" style="stroke:#C90000;stroke-width:0.5;"/><path d="M186.7283,705.2969 L186.7283,715.2969 L196.7283,715.2969 L186.7283,705.2969 " fill="#F5F5F5" style="stroke:#C90000;stroke-width:0.5;"/><text fill="#000000" font-family="sans-serif" font-size="13" lengthAdjust="spacing" textLength="129" x="52.7283" y="722.3638">Cancelar Simulaci&#243;n</text></g><!--link Simulando to Simulando--><g id="link_Simulando_Simulando"><path d="M127.7638,823.6339 C138.1581,824.3539 145.7281,826.9079 145.7281,831.2969 C145.7281,835.6859 144.1438,837.8253 133.7495,838.5453 " fill="none" id="Simulando-to-Simulando" style="stroke:#218C00;stroke-width:1.0;"/><polygon fill="#218C00" points="127.7638,838.9599,137.0187,842.3284,132.7518,838.6144,136.4659,834.3475,127.7638,838.9599" style="stroke:#218C00;stroke-width:1.0;"/><path d="M150.7281,818.7969 L150.7281,843.7969 L365.7281,843.7969 L365.7281,828.7969 L355.7281,818.7969 L150.7281,818.7969 " fill="#F5F5F5" style="stroke:#C90000;stroke-width:0.5;"/><path d="M355.7281,818.7969 L355.7281,828.7969 L365.7281,828.7969 L355.7281,818.7969 " fill="#F5F5F5" style="stroke:#C90000;stroke-width:0.5;"/><text fill="#000000" font-family="sans-serif" font-size="13" lengthAdjust="spacing" textLength="194" x="156.7281" y="835.8638">Verificar Estado de Simulaci&#243;n</text></g><!--link Simulando to Reporte--><g id="link_Simulando_Reporte"><path d="M95.8754,856.5209 C111.1774,878.8419 136.9191,911.0389 167.7281,928.2969 C259.5891,979.7519 380.8118,988.6298 444.7118,989.6275 " fill="none" id="Simulando-to-Reporte" style="stroke:#218C00;stroke-width:1.0;"/><polygon fill="#218C00" points="450.7111,989.7212,441.7746,985.5812,445.7117,989.6431,441.6498,993.5802,450.7111,989.7212" style="stroke:#218C00;stroke-width:1.0;"/><path d="M172.7281,898.2969 L172.7281,923.2969 L387.7281,923.2969 L387.7281,908.2969 L377.7281,898.2969 L172.7281,898.2969 " fill="#F5F5F5" style="stroke:#C90000;stroke-width:0.5;"/><path d="M377.7281,898.2969 L377.7281,908.2969 L387.7281,908.2969 L377.7281,898.2969 " fill="#F5F5F5" style="stroke:#C90000;stroke-width:0.5;"/><text fill="#000000" font-family="sans-serif" font-size="13" lengthAdjust="spacing" textLength="194" x="178.7281" y="915.3638">Verificar Estado de Simulaci&#243;n</text></g><!--link Reporte to Reporte--><g id="link_Reporte_Reporte"><path d="M530.8471,982.5161 C541.0601,983.0275 548.7281,985.6211 548.7281,990.2969 C548.7281,994.9727 547.0526,997.2662 536.8396,997.7776 " fill="none" id="Reporte-to-Reporte" style="stroke:#218C00;stroke-width:1.0;"/><polygon fill="#218C00" points="530.8471,998.0777,540.0359,1001.6226,535.8408,997.8276,539.6358,993.6326,530.8471,998.0777" style="stroke:#218C00;stroke-width:1.0;"/><path d="M553.7281,970.2969 L553.7281,1010.2969 L692.7281,1010.2969 L692.7281,980.2969 L682.7281,970.2969 L553.7281,970.2969 " fill="#F5F5F5" style="stroke:#C90000;stroke-width:0.5;"/><path d="M682.7281,970.2969 L682.7281,980.2969 L692.7281,980.2969 L682.7281,970.2969 " fill="#F5F5F5" style="stroke:#C90000;stroke-width:0.5;"/><text fill="#000000" font-family="sans-serif" font-size="13" lengthAdjust="spacing" textLength="110" x="559.7281" y="987.3638">Exportar Reporte</text><text fill="#000000" font-family="sans-serif" font-size="13" lengthAdjust="spacing" textLength="108" x="559.7281" y="1002.4966">Imprimir Reporte</text></g><!--link Reporte to P?ginaProyecto--><g id="link_Reporte_P&#225;ginaProyecto"><path d="M530.8501,983.3088 C593.3161,972.8416 706.7281,948.7492 706.7281,911.7969 C706.7281,637.2969 706.7281,637.2969 706.7281,637.2969 C706.7281,588.0079 665.9795,553.2379 628.5235,530.5249 " fill="none" id="Reporte-to-P&#225;ginaProyecto" style="stroke:#218C00;stroke-width:1.0;"/><polygon fill="#218C00" points="623.3931,527.4139,629.0147,535.5007,627.6685,530.0064,633.1628,528.6602,623.3931,527.4139" style="stroke:#218C00;stroke-width:1.0;"/><path d="M711.7281,758.2969 L711.7281,783.2969 L784.7281,783.2969 L784.7281,768.2969 L774.7281,758.2969 L711.7281,758.2969 " fill="#F5F5F5" style="stroke:#C90000;stroke-width:0.5;"/><path d="M774.7281,758.2969 L774.7281,768.2969 L784.7281,768.2969 L774.7281,758.2969 " fill="#F5F5F5" style="stroke:#C90000;stroke-width:0.5;"/><text fill="#000000" font-family="sans-serif" font-size="13" lengthAdjust="spacing" textLength="52" x="717.7281" y="775.3638">Guardar</text></g><!--link Reporte to Configuraci?nDeSimulaci?n--><g id="link_Reporte_Configuraci&#243;nDeSimulaci&#243;n"><path d="M450.6961,970.7978 C429.0611,957.7748 406.7281,937.9884 406.7281,911.7969 C406.7281,716.7969 406.7281,716.7969 406.7281,716.7969 C406.7281,687.9199 390.644,672.1156 363.449,660.7496 " fill="none" id="Reporte-to-Configuraci&#243;nDeSimulaci&#243;n" style="stroke:#218C00;stroke-width:1.0;"/><polygon fill="#218C00" points="357.9131,658.4359,364.6745,665.5971,362.5264,660.364,367.7595,658.2158,357.9131,658.4359" style="stroke:#218C00;stroke-width:1.0;"/><path d="M411.7281,818.7969 L411.7281,843.7969 L542.7281,843.7969 L542.7281,828.7969 L532.7281,818.7969 L411.7281,818.7969 " fill="#F5F5F5" style="stroke:#C90000;stroke-width:0.5;"/><path d="M532.7281,818.7969 L532.7281,828.7969 L542.7281,828.7969 L532.7281,818.7969 " fill="#F5F5F5" style="stroke:#C90000;stroke-width:0.5;"/><text fill="#000000" font-family="sans-serif" font-size="13" lengthAdjust="spacing" textLength="110" x="417.7281" y="835.8638">Editar Simulaci&#243;n</text></g><g id="Log"><rect fill="#FAF4B4" height="50" rx="12.5" ry="12.5" style="stroke:#C90000;stroke-width:0.5;" width="50" x="275" y="1120"/><line style="stroke:#C90000;stroke-width:0.5;" x1="275" x2="325" y1="1146.2969" y2="1146.2969"/><text fill="#000000" font-family="sans-serif" font-size="14" lengthAdjust="spacing" textLength="26" x="287" y="1137.9951">Log</text></g><ellipse cx="473" cy="1145" fill="none" rx="11" ry="11" style="stroke:#222222;stroke-width:1.0;"/><ellipse cx="473" cy="1145" fill="#222222" rx="6" ry="6" style="stroke:#222222;stroke-width:1.0;"/><!--link *start* to Inicio--><g id="link_*start*_Inicio"><path d="M408,26.01 C408,39.89 408,60.97 408,80.84 " fill="none" id="*start*-to-Inicio" style="stroke:#218C00;stroke-width:1.0;"/><polygon fill="#218C00" points="408,86.84,412,77.84,408,81.84,404,77.84,408,86.84" style="stroke:#218C00;stroke-width:1.0;"/></g><!--link Inicio to FISC--><g id="link_Inicio_FISC"><path d="M408,137.13 C408,158.28 408,185.857 408,225.765 " fill="none" id="Inicio-to-FISC" style="stroke:#218C00;stroke-width:1.0;"/><polygon fill="#218C00" points="408,231.765,412,222.765,408,226.765,404,222.765,408,231.765" style="stroke:#218C00;stroke-width:1.0;"/><path d="M413,172 L413,197 L468,197 L468,182 L458,172 L413,172 " fill="#F5F5F5" style="stroke:#C90000;stroke-width:0.5;"/><path d="M458,172 L458,182 L468,182 L458,172 " fill="#F5F5F5" style="stroke:#C90000;stroke-width:0.5;"/><text fill="#000000" font-family="sans-serif" font-size="13" lengthAdjust="spacing" textLength="34" x="419" y="189.0669">Login</text></g><!--link Inicio to Inicio--><g id="link_Inicio_Inicio"><path d="M437.293,102.55 C455.124,100.36 472,103.51 472,112 C472,120.49 461.0793,124.3714 443.2483,122.1814 " fill="none" id="Inicio-to-Inicio" style="stroke:#218C00;stroke-width:1.0;"/><polygon fill="#218C00" points="437.293,121.45,445.7383,126.5173,442.2557,122.0595,446.7135,118.577,437.293,121.45" style="stroke:#218C00;stroke-width:1.0;"/><path d="M477,99.5 L477,124.5 L608,124.5 L608,109.5 L598,99.5 L477,99.5 " fill="#F5F5F5" style="stroke:#C90000;stroke-width:0.5;"/><path d="M598,99.5 L598,109.5 L608,109.5 L598,99.5 " fill="#F5F5F5" style="stroke:#C90000;stroke-width:0.5;"/><text fill="#000000" font-family="sans-serif" font-size="13" lengthAdjust="spacing" textLength="110" x="483" y="116.5669">Registrar Usuario</text></g><!--link Log to Log--><g id="link_Log_Log"><path d="M325.278,1132.8184 C342.773,1129.127 360,1133.1875 360,1145 C360,1156.8125 348.6437,1162.1118 331.1487,1158.4203 " fill="none" id="Log-to-Log" style="stroke:#218C00;stroke-width:1.0;"/><polygon fill="#218C00" points="325.278,1157.1816,333.2583,1162.9535,330.1703,1158.2139,334.9099,1155.1259,325.278,1157.1816" style="stroke:#218C00;stroke-width:1.0;"/><path d="M365,1132.5 L365,1157.5 L439,1157.5 L439,1142.5 L429,1132.5 L365,1132.5 " fill="#F5F5F5" style="stroke:#C90000;stroke-width:0.5;"/><path d="M429,1132.5 L429,1142.5 L439,1142.5 L429,1132.5 " fill="#F5F5F5" style="stroke:#C90000;stroke-width:0.5;"/><text fill="#000000" font-family="sans-serif" font-size="13" lengthAdjust="spacing" textLength="53" x="371" y="1149.5669">Imprimir</text></g><!--link FISC to Log--><g id="link_FISC_Log"><path d="M324.913,1025.317 C316.57,1065.065 310.7797,1092.6492 306.3387,1113.8041 " fill="none" id="FISC-to-Log" style="stroke:#218C00;stroke-width:1.0;"/><polygon fill="#218C00" points="305.106,1119.6761,310.8697,1111.6899,306.1332,1114.7828,303.0404,1110.0463,305.106,1119.6761" style="stroke:#218C00;stroke-width:1.0;"/><path d="M324,1060 L324,1085 L402,1085 L402,1070 L392,1060 L324,1060 " fill="#F5F5F5" style="stroke:#C90000;stroke-width:0.5;"/><path d="M392,1060 L392,1070 L402,1070 L392,1060 " fill="#F5F5F5" style="stroke:#C90000;stroke-width:0.5;"/><text fill="#000000" font-family="sans-serif" font-size="13" lengthAdjust="spacing" textLength="57" x="330" y="1077.0669">Abrir Log</text></g><!--link FISC to *end*--><g id="link_FISC_*end*"><path d="M458.006,1025.317 C464.385,1075.8071 468.7291,1110.1937 470.9861,1128.0615 " fill="none" id="FISC-to-*end*" style="stroke:#218C00;stroke-width:1.0;"/><polygon fill="#218C00" points="471.738,1134.0142,474.5786,1124.5839,471.1114,1129.0536,466.6416,1125.5864,471.738,1134.0142" style="stroke:#218C00;stroke-width:1.0;"/><path d="M469,1060 L469,1085 L540,1085 L540,1070 L530,1060 L469,1060 " fill="#F5F5F5" style="stroke:#C90000;stroke-width:0.5;"/><path d="M530,1060 L530,1070 L540,1070 L530,1060 " fill="#F5F5F5" style="stroke:#C90000;stroke-width:0.5;"/><text fill="#000000" font-family="sans-serif" font-size="13" lengthAdjust="spacing" textLength="50" x="475" y="1077.0669">Log Out</text></g><!--SRC=[bLHBJiCm4Dtx52EnGwf4KP5WWmIXe4e8gXRO81QkxPPH4hkQ9425E0ndu0Yz64wSfacQz9Ckaiuyl_Tcx77aevvpuY5e4wjhBlmPcKHBpmI6u6XwblvOL4KPaefoXBWuiKy9mOdCPvuyxPwBIZAAUPCAd_OclGtOLfa0jOeNSmKJ4yYw_DCx2b-hA88kOw_7Rz3fNC90eq33c7j3HzhOxM3i0KkB0gDJJfy1t9iPQgQqpAgju7EEseAHcc4K4oTuZX9E5b0iPkEq5AVpNLWPBd-j11yIQe5p7W1Z6w5ChuYQXHBnXl3LX91WbGKR6OHpGp5V1sti8L4VfeHQcODTedcqhjh_gcki6LdDiMFqZ9xYB24kSFcdRzGOmoHmVvfBAWDS0RmIQoXXfPVsTwHIXwhE_QAeI9KiRt7dxBk0bXlzpuu3fnPhEtaFQ4knhurIjeZ2e-l00TGUrq85hLNKY5jxOPkBKnIMfs_7ryAbse-nVRFsv6CvWsjg2rrnQ5VWV5e8Gsmw5HNE7MDuPuTUScfRVS1Uz2MsRZBxOSnUJQvfzgFXY6J5b5ParqxceG7l9YrDr1TOlBsf6gv5U4pY0lqF]--></g></svg>