<?xml version="1.0" encoding="UTF-8" standalone="no"?><svg xmlns="http://www.w3.org/2000/svg" xmlns:xlink="http://www.w3.org/1999/xlink" contentStyleType="text/css" height="581px" preserveAspectRatio="none" style="width:402px;height:581px;background:#FFFFFF;" version="1.1" viewBox="0 0 402 581" width="402px" zoomAndPan="magnify"><defs><filter height="300%" id="fnzo69poby7in" width="300%" x="-1" y="-1"><feGaussianBlur result="blurOut" stdDeviation="2.0"/><feColorMatrix in="blurOut" result="blurOut2" type="matrix" values="0 0 0 0 0 0 0 0 0 0 0 0 0 0 0 0 0 0 .4 0"/><feOffset dx="4.0" dy="4.0" in="blurOut2" result="blurOut3"/><feBlend in="SourceGraphic" in2="blurOut3" mode="normal"/></filter></defs><g><rect fill="none" height="27.6094" id="_title" style="stroke:none;stroke-width:1.0;" width="230" x="79.4" y="5"/><text fill="#000000" font-family="sans-serif" font-size="14" font-weight="bold" lengthAdjust="spacing" textLength="220" x="84.4" y="24.5332">Diagrama de contexto (usuario)</text><ellipse cx="213.8" cy="54.6094" fill="#000000" filter="url(#fnzo69poby7in)" rx="10" ry="10" style="stroke:none;stroke-width:1.0;"/><g id="Inicial"><rect fill="#FEFECE" filter="url(#fnzo69poby7in)" height="50" rx="12.5" ry="12.5" style="stroke:#A80036;stroke-width:1.0;" width="55" x="186.3" y="125.6094"/><line style="stroke:#A80036;stroke-width:1.0;" x1="186.3" x2="241.3" y1="153.2188" y2="153.2188"/><text fill="#000000" font-family="sans-serif" font-size="14" lengthAdjust="spacing" textLength="35" x="196.3" y="145.1426">Inicial</text></g><g id="DASHBOARD_ABIERTO"><rect fill="#FEFECE" filter="url(#fnzo69poby7in)" height="50" rx="12.5" ry="12.5" style="stroke:#A80036;stroke-width:1.0;" width="174" x="126.8" y="253.6094"/><line style="stroke:#A80036;stroke-width:1.0;" x1="126.8" x2="300.8" y1="281.2188" y2="281.2188"/><text fill="#000000" font-family="sans-serif" font-size="14" lengthAdjust="spacing" textLength="154" x="136.8" y="273.1426">DASHBOARD_ABIERTO</text></g><g id="FICHAJE_ACTUAL"><rect fill="#FEFECE" filter="url(#fnzo69poby7in)" height="50" rx="12.5" ry="12.5" style="stroke:#A80036;stroke-width:1.0;" width="137" x="45.3" y="401.6094"/><line style="stroke:#A80036;stroke-width:1.0;" x1="45.3" x2="182.3" y1="429.2188" y2="429.2188"/><text fill="#000000" font-family="sans-serif" font-size="14" lengthAdjust="spacing" textLength="117" x="55.3" y="421.1426">FICHAJE_ACTUAL</text></g><g id="INFORME"><rect fill="#FEFECE" filter="url(#fnzo69poby7in)" height="90.4375" rx="12.5" ry="12.5" style="stroke:#A80036;stroke-width:1.0;" width="84" x="223.8" y="381.6094"/><line style="stroke:#A80036;stroke-width:1.0;" x1="223.8" x2="307.8" y1="409.2188" y2="409.2188"/><text fill="#000000" font-family="sans-serif" font-size="14" lengthAdjust="spacing" textLength="62" x="234.8" y="401.1426">INFORME</text><text fill="#000000" font-family="sans-serif" font-size="14" lengthAdjust="spacing" textLength="46" x="228.8" y="428.752">DIARIO</text><text fill="#000000" font-family="sans-serif" font-size="14" lengthAdjust="spacing" textLength="64" x="228.8" y="446.3613">SEMANAL</text><text fill="#000000" font-family="sans-serif" font-size="14" lengthAdjust="spacing" textLength="64" x="228.8" y="463.9707">MENSUAL</text></g><ellipse cx="265.8" cy="559.6094" fill="none" filter="url(#fnzo69poby7in)" rx="10" ry="10" style="stroke:#000000;stroke-width:1.0;"/><ellipse cx="266.3" cy="560.1094" fill="#000000" rx="6" ry="6" style="stroke:none;stroke-width:1.0;"/><!--MD5=[799679ad9d273e0a78da94a10d804476]
link *start to Inicial--><g id="link_*start_Inicial"><path d="M213.8,64.6194 C213.8,77.3094 213.8,101.0194 213.8,120.1794 " fill="none" id="*start-to-Inicial" style="stroke:#A80036;stroke-width:1.0;"/><polygon fill="#A80036" points="213.8,125.4494,217.8,116.4494,213.8,120.4494,209.8,116.4494,213.8,125.4494" style="stroke:#A80036;stroke-width:1.0;"/></g><!--MD5=[95708fe9de2b13754123d01133badfb5]
link Inicial to DASHBOARD_ABIERTO--><g id="link_Inicial_DASHBOARD_ABIERTO"><path d="M213.8,175.8994 C213.8,196.5594 213.8,226.2794 213.8,248.2594 " fill="none" id="Inicial-to-DASHBOARD_ABIERTO" style="stroke:#A80036;stroke-width:1.0;"/><polygon fill="#A80036" points="213.8,253.3894,217.8,244.3894,213.8,248.3894,209.8,244.3894,213.8,253.3894" style="stroke:#A80036;stroke-width:1.0;"/><text fill="#000000" font-family="sans-serif" font-size="13" lengthAdjust="spacing" textLength="27" x="214.8" y="220.1045">login</text></g><!--MD5=[deb5cdedbdbcf5931d22540895a3ce3f]
link DASHBOARD_ABIERTO to FICHAJE_ACTUAL--><g id="link_DASHBOARD_ABIERTO_FICHAJE_ACTUAL"><path d="M170.74,303.7294 C159.3,311.9194 147.89,321.9894 139.8,333.6094 C126.89,352.1694 120.36,377.0194 117.07,396.2094 " fill="none" id="DASHBOARD_ABIERTO-to-FICHAJE_ACTUAL" style="stroke:#A80036;stroke-width:1.0;"/><polygon fill="#A80036" points="116.23,401.4694,121.6166,393.2241,117.0289,396.5336,113.7193,391.9459,116.23,401.4694" style="stroke:#A80036;stroke-width:1.0;"/><text fill="#000000" font-family="sans-serif" font-size="13" lengthAdjust="spacing" textLength="58" x="140.8" y="348.1045">verFichaje</text></g><!--MD5=[59ebab59547f4fcd14a9aabcd62b41c5]
reverse link DASHBOARD_ABIERTO to FICHAJE_ACTUAL--><g id="link_DASHBOARD_ABIERTO_FICHAJE_ACTUAL"><path d="M121.51,295.1594 C79.85,304.2494 37.19,317.1794 24.8,333.6094 C6,358.5394 34.64,383.8094 64.32,401.5494 " fill="none" id="DASHBOARD_ABIERTO-backto-FICHAJE_ACTUAL" style="stroke:#A80036;stroke-width:1.0;"/><polygon fill="#A80036" points="126.59,294.0694,116.9476,292.0632,121.7031,295.1268,118.6395,299.8822,126.59,294.0694" style="stroke:#A80036;stroke-width:1.0;"/><text fill="#000000" font-family="sans-serif" font-size="13" lengthAdjust="spacing" textLength="44" x="25.8" y="348.1045">retornar</text></g><!--MD5=[45f9f0170600205b8b3828a7ca61639c]
link DASHBOARD_ABIERTO to INFORME--><g id="link_DASHBOARD_ABIERTO_INFORME"><path d="M240.93,303.8394 C248.75,312.4094 256.37,322.6694 260.8,333.6094 C266.16,346.8094 268.39,361.9594 269.03,376.1094 " fill="none" id="DASHBOARD_ABIERTO-to-INFORME" style="stroke:#A80036;stroke-width:1.0;"/><polygon fill="#A80036" points="269.19,381.2694,272.9053,372.1482,269.0329,376.2718,264.9093,372.3995,269.19,381.2694" style="stroke:#A80036;stroke-width:1.0;"/><text fill="#000000" font-family="sans-serif" font-size="13" lengthAdjust="spacing" textLength="58" x="267.8" y="348.1045">verInforme</text></g><!--MD5=[a3765a6a5211596ed59364ce26c2be37]
reverse link DASHBOARD_ABIERTO to INFORME--><g id="link_DASHBOARD_ABIERTO_INFORME"><path d="M207.92,309.0394 C206.43,322.3394 206.33,338.0794 210.8,351.6094 C214.22,361.9394 219.71,372.0094 225.92,381.2194 " fill="none" id="DASHBOARD_ABIERTO-backto-INFORME" style="stroke:#A80036;stroke-width:1.0;"/><polygon fill="#A80036" points="208.58,303.8794,203.4558,312.2902,207.937,308.8379,211.3893,313.3191,208.58,303.8794" style="stroke:#A80036;stroke-width:1.0;"/><text fill="#000000" font-family="sans-serif" font-size="13" lengthAdjust="spacing" textLength="44" x="211.8" y="348.1045">retornar</text></g><!--MD5=[d42bfe1b3b7c62dac76e573e451337ca]
link DASHBOARD_ABIERTO to *end--><g id="link_DASHBOARD_ABIERTO_*end"><path d="M300.86,303.4794 C314.31,310.9694 326.48,320.7794 334.8,333.6094 C380.17,403.5294 355.8,449.4494 310.8,519.6094 C302.48,532.5894 288.58,543.6794 278.43,550.6794 " fill="none" id="DASHBOARD_ABIERTO-to-*end" style="stroke:#A80036;stroke-width:1.0;"/><polygon fill="#A80036" points="274.06,553.5994,283.7633,551.9122,278.2137,550.816,279.3099,545.2664,274.06,553.5994" style="stroke:#A80036;stroke-width:1.0;"/><text fill="#000000" font-family="sans-serif" font-size="13" lengthAdjust="spacing" textLength="35" x="359.8" y="432.1045">logout</text></g><!--MD5=[8401c559bb3c1857946896202541f17f]
link FICHAJE_ACTUAL to *end--><g id="link_FICHAJE_ACTUAL_*end"><path d="M141.68,451.6394 C175.57,480.8394 231.14,528.7394 254.69,549.0394 " fill="none" id="FICHAJE_ACTUAL-to-*end" style="stroke:#A80036;stroke-width:1.0;"/><polygon fill="#A80036" points="258.71,552.4894,254.4799,543.5952,254.9137,549.2354,249.2735,549.6693,258.71,552.4894" style="stroke:#A80036;stroke-width:1.0;"/><text fill="#000000" font-family="sans-serif" font-size="13" lengthAdjust="spacing" textLength="35" x="217.8" y="516.1045">logout</text></g><!--MD5=[8bf94b30d374c43509a18f65957c2cec]
link INFORME to *end--><g id="link_INFORME_*end"><path d="M265.8,471.9594 C265.8,497.0394 265.8,526.7394 265.8,544.0494 " fill="none" id="INFORME-to-*end" style="stroke:#A80036;stroke-width:1.0;"/><polygon fill="#A80036" points="265.8,549.4194,269.8,540.4194,265.8,544.4194,261.8,540.4194,265.8,549.4194" style="stroke:#A80036;stroke-width:1.0;"/><text fill="#000000" font-family="sans-serif" font-size="13" lengthAdjust="spacing" textLength="35" x="266.8" y="516.1045">logout</text></g><!--MD5=[5c10357984caf8e85635732489504af8]
@startuml Diagrama Contexto

skin rose
title Diagrama de contexto (usuario)

[*] - ->  Inicial

Inicial -down-> DASHBOARD_ABIERTO: login

DASHBOARD_ABIERTO - -> FICHAJE_ACTUAL : verFichaje
DASHBOARD_ABIERTO - -> INFORME : verInforme
INFORME : DIARIO
INFORME : SEMANAL
INFORME : MENSUAL 
DASHBOARD_ABIERTO <- - FICHAJE_ACTUAL : retornar
DASHBOARD_ABIERTO <- - INFORME : retornar


DASHBOARD_ABIERTO - -> [*] : logout
FICHAJE_ACTUAL - -> [*] : logout
INFORME - -> [*] : logout

@enduml

PlantUML version 1.2022.7(Mon Aug 22 19:01:30 CEST 2022)
(GPL source distribution)
Java Runtime: Java(TM) SE Runtime Environment
JVM: Java HotSpot(TM) 64-Bit Server VM
Default Encoding: UTF-8
Language: es
Country: ES
--></g></svg>