<?xml version="1.0" encoding="us-ascii" standalone="no"?><svg xmlns="http://www.w3.org/2000/svg" xmlns:xlink="http://www.w3.org/1999/xlink" contentStyleType="text/css" height="1020px" preserveAspectRatio="none" style="width:885px;height:1020px;background:#FFFFFF;" version="1.1" viewBox="0 0 885 1020" width="885px" zoomAndPan="magnify"><defs/><g><ellipse cx="666.5" cy="16" fill="#222222" rx="10" ry="10" style="stroke:#222222;stroke-width:1.0;"/><g id="Inicial"><rect fill="#F1F1F1" height="50" rx="12.5" ry="12.5" style="stroke:#181818;stroke-width:0.5;" width="61" x="636" y="87"/><line style="stroke:#181818;stroke-width:0.5;" x1="636" x2="697" y1="113.2969" y2="113.2969"/><text fill="#000000" font-family="sans-serif" font-size="14" lengthAdjust="spacing" textLength="41" x="646" y="104.9951">Inicial</text></g><path d="M19.5,214 L665.5,214 A12.5,12.5 0 0 1 678,226.5 L678,240.2969 L7,240.2969 L7,226.5 A12.5,12.5 0 0 1 19.5,214 " fill="#F1F1F1" style="stroke:#F1F1F1;stroke-width:1.0;"/><rect fill="none" height="673.2969" rx="12.5" ry="12.5" style="stroke:#181818;stroke-width:0.5;" width="671" x="7" y="214"/><line style="stroke:#181818;stroke-width:0.5;" x1="7" x2="678" y1="240.2969" y2="240.2969"/><text fill="#000000" font-family="sans-serif" font-size="14" lengthAdjust="spacing" textLength="31" x="327" y="231.9951">FISC</text><ellipse cx="442" cy="261.2969" fill="#222222" rx="10" ry="10" style="stroke:#222222;stroke-width:1.0;"/><g id="FISC.P&#225;ginaPrincipal"><rect fill="#F1F1F1" height="50" rx="12.5" ry="12.5" style="stroke:#181818;stroke-width:0.5;" width="129" x="377.5" y="308.2969"/><line style="stroke:#181818;stroke-width:0.5;" x1="377.5" x2="506.5" y1="334.5938" y2="334.5938"/><text fill="#000000" font-family="sans-serif" font-size="14" lengthAdjust="spacing" textLength="109" x="387.5" y="326.292">P&#225;ginaPrincipal</text></g><g id="FISC.P&#225;ginaProyecto"><rect fill="#F1F1F1" height="50" rx="12.5" ry="12.5" style="stroke:#181818;stroke-width:0.5;" width="132" x="376" y="426.2969"/><line style="stroke:#181818;stroke-width:0.5;" x1="376" x2="508" y1="452.5938" y2="452.5938"/><text fill="#000000" font-family="sans-serif" font-size="14" lengthAdjust="spacing" textLength="112" x="386" y="444.292">P&#225;ginaProyecto</text></g><g id="FISC.Configuraci&#243;n_de_Simulaci&#243;n"><rect fill="#F1F1F1" height="50" rx="12.5" ry="12.5" style="stroke:#181818;stroke-width:0.5;" width="228" x="99" y="529.2969"/><line style="stroke:#181818;stroke-width:0.5;" x1="99" x2="327" y1="555.5938" y2="555.5938"/><text fill="#000000" font-family="sans-serif" font-size="14" lengthAdjust="spacing" textLength="208" x="109" y="547.292">Configuraci&#243;n_de_Simulaci&#243;n</text></g><g id="FISC.Reporte"><rect fill="#F1F1F1" height="50" rx="12.5" ry="12.5" style="stroke:#181818;stroke-width:0.5;" width="80" x="403" y="827.2969"/><line style="stroke:#181818;stroke-width:0.5;" x1="403" x2="483" y1="853.5938" y2="853.5938"/><text fill="#000000" font-family="sans-serif" font-size="14" lengthAdjust="spacing" textLength="60" x="413" y="845.292">Reporte</text></g><g id="FISC.Simulando"><rect fill="#F1F1F1" height="50" rx="12.5" ry="12.5" style="stroke:#181818;stroke-width:0.5;" width="94" x="19" y="686.2969"/><line style="stroke:#181818;stroke-width:0.5;" x1="19" x2="113" y1="712.5938" y2="712.5938"/><text fill="#000000" font-family="sans-serif" font-size="14" lengthAdjust="spacing" textLength="74" x="29" y="704.292">Simulando</text></g><!--link *start*FISC to P?ginaPrincipal--><g id="link_*start*FISC_P&#225;ginaPrincipal"><path d="M442,271.4479 C442,280.7129 442,289.4379 442,302.0809 " fill="none" id="*start*FISC-to-P&#225;ginaPrincipal" style="stroke:#181818;stroke-width:1.0;"/><polygon fill="#181818" points="442,308.0809,446,299.0809,442,303.0809,438,299.0809,442,308.0809" style="stroke:#181818;stroke-width:1.0;"/></g><!--link P?ginaPrincipal to P?ginaProyecto--><g id="link_P&#225;ginaPrincipal_P&#225;ginaProyecto"><path d="M388.838,358.3449 C382.509,363.3809 376.916,369.3279 373,376.2969 C366.032,388.6949 366.032,395.8989 373,408.2969 C376.916,415.2659 377.814,417.477 384.143,422.513 " fill="none" id="P&#225;ginaPrincipal-to-P&#225;ginaProyecto" style="stroke:#181818;stroke-width:1.0;"/><polygon fill="#181818" points="388.838,426.2489,384.286,417.5151,384.9255,423.1357,379.3049,423.7751,388.838,426.2489" style="stroke:#181818;stroke-width:1.0;"/><text fill="#000000" font-family="sans-serif" font-size="13" lengthAdjust="spacing" textLength="91" x="384.5" y="389.3638">Abrir Proyecto</text><text fill="#000000" font-family="sans-serif" font-size="13" lengthAdjust="spacing" textLength="116" x="374" y="404.4966">Importar Proyecto</text></g><!--link P?ginaPrincipal to P?ginaProyecto--><g id="link_P&#225;ginaPrincipal_P&#225;ginaProyecto"><path d="M478.287,358.7409 C483.443,363.8999 488.004,369.7819 491,376.2969 C496.943,389.2179 496.943,395.3759 491,408.2969 C488.004,414.8119 487.6844,416.45 482.5284,421.609 " fill="none" id="P&#225;ginaPrincipal-to-P&#225;ginaProyecto-1" style="stroke:#181818;stroke-width:1.0;"/><polygon fill="#181818" points="478.287,425.8529,487.4784,422.3147,481.8215,422.3163,481.8199,416.6595,478.287,425.8529" style="stroke:#181818;stroke-width:1.0;"/><text fill="#000000" font-family="sans-serif" font-size="13" lengthAdjust="spacing" textLength="102" x="496" y="396.8638">Nuevo Proyecto</text></g><!--link P?ginaPrincipal to P?ginaPrincipal--><g id="link_P&#225;ginaPrincipal_P&#225;ginaPrincipal"><path d="M506.68,326.0109 C517.241,327.0539 524.5,329.4829 524.5,333.2969 C524.5,337.1109 523.212,338.9502 512.651,339.9932 " fill="none" id="P&#225;ginaPrincipal-to-P&#225;ginaPrincipal" style="stroke:#181818;stroke-width:1.0;"/><polygon fill="#181818" points="506.68,340.5829,516.0296,343.679,511.6558,340.0915,515.2433,335.7177,506.68,340.5829" style="stroke:#181818;stroke-width:1.0;"/><text fill="#000000" font-family="sans-serif" font-size="13" lengthAdjust="spacing" textLength="116" x="530.5" y="337.8638">Exportar Proyecto</text></g><!--link P?ginaProyecto to Configuraci?n_de_Simulaci?n--><g id="link_P&#225;ginaProyecto_Configuraci&#243;n_de_Simulaci&#243;n"><path d="M375.829,460.2119 C326.61,467.2119 264.557,478.7339 244,494.2969 C232.653,502.8879 227.2655,511.2657 222.4325,523.4487 " fill="none" id="P&#225;ginaProyecto-to-Configuraci&#243;n_de_Simulaci&#243;n" style="stroke:#181818;stroke-width:1.0;"/><polygon fill="#181818" points="220.22,529.0259,227.2568,522.1351,222.0637,524.3782,219.8206,519.1851,220.22,529.0259" style="stroke:#181818;stroke-width:1.0;"/><text fill="#000000" font-family="sans-serif" font-size="13" lengthAdjust="spacing" textLength="103" x="245" y="507.3638">Abrir Simulaci&#243;n</text></g><!--link P?ginaProyecto to Configuraci?n_de_Simulaci?n--><g id="link_P&#225;ginaProyecto_Configuraci&#243;n_de_Simulaci&#243;n"><path d="M408.785,476.4169 C391.57,488.1159 369.833,501.6809 349,511.2969 C334.416,518.0279 324.1608,522.1476 308.4858,527.3846 " fill="none" id="P&#225;ginaProyecto-to-Configuraci&#243;n_de_Simulaci&#243;n-1" style="stroke:#181818;stroke-width:1.0;"/><polygon fill="#181818" points="302.795,529.2859,312.5987,530.2278,307.5373,527.7015,310.0637,522.6401,302.795,529.2859" style="stroke:#181818;stroke-width:1.0;"/><text fill="#000000" font-family="sans-serif" font-size="13" lengthAdjust="spacing" textLength="114" x="380" y="507.3638">Nueva Simulaci&#243;n</text></g><!--link P?ginaProyecto to Reporte--><g id="link_P&#225;ginaProyecto_Reporte"><path d="M482.481,476.4199 C488.748,481.6449 494.592,487.6329 499,494.2969 C513.868,516.7749 513,526.3469 513,553.2969 C513,553.2969 513,553.2969 513,782.7969 C513,802.3509 503.7017,814.5973 488.1417,826.0801 " fill="none" id="P&#225;ginaProyecto-to-Reporte" style="stroke:#181818;stroke-width:1.0;"/><polygon fill="#181818" points="483.314,829.6428,492.9307,827.5172,487.3371,826.6738,488.1805,821.0802,483.314,829.6428" style="stroke:#181818;stroke-width:1.0;"/><text fill="#000000" font-family="sans-serif" font-size="13" lengthAdjust="spacing" textLength="77" x="514" y="664.3638">Ver Reporte</text></g><!--link Configuraci?n_de_Simulaci?n to Simulando--><g id="link_Configuraci&#243;n_de_Simulaci&#243;n_Simulando"><path d="M210.8,579.5019 C208.259,596.0359 202.786,617.6899 191,633.2969 C171.185,659.5359 145.0063,676.2805 118.5442,689.0185 " fill="none" id="Configuraci&#243;n_de_Simulaci&#243;n-to-Simulando" style="stroke:#181818;stroke-width:1.0;"/><polygon fill="#181818" points="113.1379,691.6209,122.9822,691.3215,117.6431,689.4522,119.5123,684.1131,113.1379,691.6209" style="stroke:#181818;stroke-width:1.0;"/><text fill="#000000" font-family="sans-serif" font-size="13" lengthAdjust="spacing" textLength="110" x="202" y="629.3638">Iniciar Simulaci&#243;n</text></g><!--link Configuraci?n_de_Simulaci?n to Configuraci?n_de_Simulaci?n--><g id="link_Configuraci&#243;n_de_Simulaci&#243;n_Configuraci&#243;n_de_Simulaci&#243;n"><path d="M327.054,547.9289 C338.039,549.2209 345,551.3439 345,554.2969 C345,557.2499 343.9979,558.672 333.0129,559.964 " fill="none" id="Configuraci&#243;n_de_Simulaci&#243;n-to-Configuraci&#243;n_de_Simulaci&#243;n" style="stroke:#181818;stroke-width:1.0;"/><polygon fill="#181818" points="327.054,560.6649,336.4596,563.5862,332.0198,560.0808,335.5251,555.641,327.054,560.6649" style="stroke:#181818;stroke-width:1.0;"/><text fill="#000000" font-family="sans-serif" font-size="13" lengthAdjust="spacing" textLength="128" x="351" y="558.8638">Importar Simulaci&#243;n</text></g><!--link Simulando to Configuraci?n_de_Simulaci?n--><g id="link_Simulando_Configuraci&#243;n_de_Simulaci&#243;n"><path d="M55.2702,686.1499 C47.999,665.7779 42.0052,636.7479 56,616.2969 C67.1468,600.0069 77.9469,590.7156 95.7363,581.9636 " fill="none" id="Simulando-to-Configuraci&#243;n_de_Simulaci&#243;n" style="stroke:#181818;stroke-width:1.0;"/><polygon fill="#181818" points="101.12,579.3149,91.2786,579.6987,96.6336,581.5221,94.8102,586.877,101.12,579.3149" style="stroke:#181818;stroke-width:1.0;"/><text fill="#000000" font-family="sans-serif" font-size="13" lengthAdjust="spacing" textLength="129" x="57" y="629.3638">Cancelar Simulaci&#243;n</text></g><!--link Simulando to Simulando--><g id="link_Simulando_Simulando"><path d="M113.0355,703.6339 C123.43,704.3539 131,706.9079 131,711.2969 C131,715.6859 129.4157,717.8253 119.0212,718.5453 " fill="none" id="Simulando-to-Simulando" style="stroke:#181818;stroke-width:1.0;"/><polygon fill="#181818" points="113.0355,718.9599,122.2904,722.3284,118.0235,718.6144,121.7376,714.3475,113.0355,718.9599" style="stroke:#181818;stroke-width:1.0;"/><text fill="#000000" font-family="sans-serif" font-size="13" lengthAdjust="spacing" textLength="194" x="137" y="715.8638">Verificar Estado de Simulaci&#243;n</text></g><!--link Simulando to Reporte--><g id="link_Simulando_Reporte"><path d="M89.3322,736.3169 C107.7426,753.8749 134.925,776.8769 163,790.2969 C242.675,828.38 340.4993,842.4068 396.6653,847.7787 " fill="none" id="Simulando-to-Reporte" style="stroke:#181818;stroke-width:1.0;"/><polygon fill="#181818" points="402.638,848.35,394.0597,843.5113,397.6607,847.8739,393.298,851.4749,402.638,848.35" style="stroke:#181818;stroke-width:1.0;"/><text fill="#000000" font-family="sans-serif" font-size="13" lengthAdjust="spacing" textLength="194" x="164" y="786.3638">Verificar Estado de Simulaci&#243;n</text></g><!--link Reporte to Reporte--><g id="link_Reporte_Reporte"><path d="M483.119,844.5161 C493.332,845.0275 501,847.6211 501,852.2969 C501,856.9727 499.3245,859.2662 489.1115,859.7776 " fill="none" id="Reporte-to-Reporte" style="stroke:#181818;stroke-width:1.0;"/><polygon fill="#181818" points="483.119,860.0777,492.3078,863.6226,488.1127,859.8276,491.9077,855.6326,483.119,860.0777" style="stroke:#181818;stroke-width:1.0;"/><text fill="#000000" font-family="sans-serif" font-size="13" lengthAdjust="spacing" textLength="110" x="507" y="849.3638">Exportar Reporte</text><text fill="#000000" font-family="sans-serif" font-size="13" lengthAdjust="spacing" textLength="108" x="512" y="864.4966">Imprimir Reporte</text></g><!--link Reporte to P?ginaProyecto--><g id="link_Reporte_P&#225;ginaProyecto"><path d="M483.326,851.9701 C534.164,850.4664 615,839.2063 615,782.7969 C615,553.2969 615,553.2969 615,553.2969 C615,501.8249 562.9892,477.6031 514.2032,465.0671 " fill="none" id="Reporte-to-P&#225;ginaProyecto" style="stroke:#181818;stroke-width:1.0;"/><polygon fill="#181818" points="508.392,463.5739,516.1133,469.6879,513.2347,464.8182,518.1043,461.9396,508.392,463.5739" style="stroke:#181818;stroke-width:1.0;"/><text fill="#000000" font-family="sans-serif" font-size="13" lengthAdjust="spacing" textLength="52" x="616" y="664.3638">Guardar</text></g><!--link Reporte to Configuraci?n_de_Simulaci?n--><g id="link_Reporte_Configuraci&#243;n_de_Simulaci&#243;n"><path d="M402.686,829.6428 C387.126,818.16 373,802.3509 373,782.7969 C373,623.7969 373,623.7969 373,623.7969 C373,596.4509 358.6001,582.043 332.7461,572.045 " fill="none" id="Reporte-to-Configuraci&#243;n_de_Simulaci&#243;n" style="stroke:#181818;stroke-width:1.0;"/><polygon fill="#181818" points="327.15,569.8809,334.1015,576.8578,331.8134,571.6843,336.9869,569.3962,327.15,569.8809" style="stroke:#181818;stroke-width:1.0;"/><text fill="#000000" font-family="sans-serif" font-size="13" lengthAdjust="spacing" textLength="110" x="374" y="715.8638">Editar Simulaci&#243;n</text></g><g id="Registrando_Usuario"><rect fill="#F1F1F1" height="50" rx="12.5" ry="12.5" style="stroke:#181818;stroke-width:0.5;" width="165" x="713" y="525.5"/><line style="stroke:#181818;stroke-width:0.5;" x1="713" x2="878" y1="551.7969" y2="551.7969"/><text fill="#000000" font-family="sans-serif" font-size="14" lengthAdjust="spacing" textLength="145" x="723" y="543.4951">Registrando_Usuario</text></g><g id="Log"><rect fill="#F1F1F1" height="50" rx="12.5" ry="12.5" style="stroke:#181818;stroke-width:0.5;" width="50" x="213.5" y="964"/><line style="stroke:#181818;stroke-width:0.5;" x1="213.5" x2="263.5" y1="990.2969" y2="990.2969"/><text fill="#000000" font-family="sans-serif" font-size="14" lengthAdjust="spacing" textLength="26" x="225.5" y="981.9951">Log</text></g><ellipse cx="392.5" cy="989" fill="none" rx="11" ry="11" style="stroke:#222222;stroke-width:1.0;"/><ellipse cx="392.5" cy="989" fill="#222222" rx="6" ry="6" style="stroke:#222222;stroke-width:1.0;"/><!--link *start* to Inicial--><g id="link_*start*_Inicial"><path d="M666.5,26.013 C666.5,39.891 666.5,60.965 666.5,80.84 " fill="none" id="*start*-to-Inicial" style="stroke:#181818;stroke-width:1.0;"/><polygon fill="#181818" points="666.5,86.84,670.5,77.84,666.5,81.84,662.5,77.84,666.5,86.84" style="stroke:#181818;stroke-width:1.0;"/></g><!--link Inicial to FISC--><g id="link_Inicial_FISC"><path d="M641.887,137.02 C632.951,146.133 622.974,156.781 614.5,167 C602.016,182.054 593.1848,192.924 580.7208,208.823 " fill="none" id="Inicial-to-FISC" style="stroke:#181818;stroke-width:1.0;"/><polygon fill="#181818" points="577.019,213.545,585.7196,208.9299,580.1038,209.61,579.4237,203.9942,577.019,213.545" style="stroke:#181818;stroke-width:1.0;"/><text fill="#000000" font-family="sans-serif" font-size="13" lengthAdjust="spacing" textLength="34" x="615.5" y="180.0669">Login</text></g><!--link Inicial to Registrando_Usuario--><g id="link_Inicial_Registrando_Usuario"><path d="M660.346,137.302 C657.984,151.482 657.173,169.396 663.5,184 C671.25,201.888 685.249,197.418 695.5,214 C760.215,318.69 784.3372,461.7321 791.9202,519.4341 " fill="none" id="Inicial-to-Registrando_Usuario" style="stroke:#181818;stroke-width:1.0;"/><polygon fill="#181818" points="792.702,525.383,795.4952,515.9385,792.0505,520.4256,787.5634,516.9809,792.702,525.383" style="stroke:#181818;stroke-width:1.0;"/><text fill="#000000" font-family="sans-serif" font-size="13" lengthAdjust="spacing" textLength="87" x="664.5" y="180.0669">Crear Usuario</text></g><!--link Registrando_Usuario to Inicial--><g id="link_Registrando_Usuario_Inicial"><path d="M799.98,525.177 C810.461,460.874 830.417,283.345 756.5,167 C742.918,145.622 723.0974,133.8299 702.7474,125.4229 " fill="none" id="Registrando_Usuario-to-Inicial" style="stroke:#181818;stroke-width:1.0;"/><polygon fill="#181818" points="697.202,123.132,703.9928,130.2653,701.8232,125.0411,707.0474,122.8714,697.202,123.132" style="stroke:#181818;stroke-width:1.0;"/><text fill="#000000" font-family="sans-serif" font-size="13" lengthAdjust="spacing" textLength="110" x="762.5" y="180.0669">Registrar Usuario</text></g><!--link Log to Log--><g id="link_Log_Log"><path d="M263.778,978.5103 C281.273,975.3315 298.5,978.8281 298.5,989 C298.5,999.1719 287.1763,1003.7411 269.6813,1000.5623 " fill="none" id="Log-to-Log" style="stroke:#181818;stroke-width:1.0;"/><polygon fill="#181818" points="263.778,999.4897,271.9179,1005.0342,268.6975,1000.3836,273.3481,997.1631,263.778,999.4897" style="stroke:#181818;stroke-width:1.0;"/><text fill="#000000" font-family="sans-serif" font-size="13" lengthAdjust="spacing" textLength="53" x="304.5" y="993.5669">Imprimir</text></g><!--link FISC to Log--><g id="link_FISC_Log"><path d="M262.556,887.036 C254.991,918.7833 249.9408,939.9842 245.6318,958.0668 " fill="none" id="FISC-to-Log" style="stroke:#181818;stroke-width:1.0;"/><polygon fill="#181818" points="244.241,963.9034,250.2183,956.0758,245.4,959.0396,242.4362,954.2213,244.241,963.9034" style="stroke:#181818;stroke-width:1.0;"/><text fill="#000000" font-family="sans-serif" font-size="13" lengthAdjust="spacing" textLength="57" x="255.5" y="930.0669">Abrir Log</text></g><!--link FISC to *end*--><g id="link_FISC_*end*"><path d="M380.935,887.036 C385.696,928.6045 388.8502,956.1373 390.6702,972.0275 " fill="none" id="FISC-to-*end*" style="stroke:#181818;stroke-width:1.0;"/><polygon fill="#181818" points="391.353,977.9885,394.3029,968.5918,390.784,973.021,386.3549,969.5021,391.353,977.9885" style="stroke:#181818;stroke-width:1.0;"/><text fill="#000000" font-family="sans-serif" font-size="13" lengthAdjust="spacing" textLength="50" x="387.5" y="930.0669">Log Out</text></g><!--SRC=[dLHTIWCn47wVK-HPs0liWo3BAWNHOj6NLafCqZBG9YMR5KKyZ6Vm2BsOqoIRxMvbj_GjysNccsz-aldLAykoQpRHA91l0EA1PPBGsyciO3cxDslKtPidjSRAMQwbMJvNDRTeoB6mYbiMRO3_d7nqfCeJpL7Gp76dGkOlc4Tvq_qFIU1JYrhWZaG0d42UEQ7cKmbtq7JpPj6o12pqPBiprl4MEvlgeLRlfgKQYslGd9KV_PJGP_UXXT4hNDUM2zp_wgLKonbkwqqmcrAEe0jOOXbyc2Rp8pw8LZbxKROn08R9VVu0qD0fLvXqL_GP56Cbf1aUmxGxARElOAIT1TT2RNhYUXJ9z6t05GhoBol7oK6geSZOCJOU28rhV5bDNDgQ1bheG-4MjzWEf1Dxkh9tzAeajrstiUwM4dkzXMy0-WL2PNJ8an3mBzNJUZpiA1tZ1U7qYFqVmXvhzmS0]--></g></svg>