<?xml version="1.0" encoding="us-ascii" standalone="no"?><svg xmlns="http://www.w3.org/2000/svg" xmlns:xlink="http://www.w3.org/1999/xlink" contentStyleType="text/css" height="569px" preserveAspectRatio="none" style="width:969px;height:569px;background:#FFFFFF;" version="1.1" viewBox="0 0 969 569" width="969px" zoomAndPan="magnify"><defs><filter height="300%" id="fqb50prvjgy2y" width="300%" x="-1" y="-1"><feGaussianBlur result="blurOut" stdDeviation="2.0"/><feColorMatrix in="blurOut" result="blurOut2" type="matrix" values="0 0 0 0 0 0 0 0 0 0 0 0 0 0 0 0 0 0 .4 0"/><feOffset dx="4.0" dy="4.0" in="blurOut2" result="blurOut3"/><feBlend in="SourceGraphic" in2="blurOut3" mode="normal"/></filter></defs><g><text fill="#000000" font-family="sans-serif" font-size="14" font-weight="bold" lengthAdjust="spacing" textLength="248" x="353.75" y="22.9951">Diagrama de contexto (admin)</text><ellipse cx="371" cy="53.2969" fill="#000000" filter="url(#fqb50prvjgy2y)" rx="10" ry="10" style="stroke:#000000;stroke-width:1.0;"/><g id="Inicial"><rect fill="#FEFECE" filter="url(#fqb50prvjgy2y)" height="50" rx="12.5" ry="12.5" style="stroke:#A80036;stroke-width:1.0;" width="61" x="340.5" y="124.2969"/><line style="stroke:#A80036;stroke-width:1.0;" x1="340.5" x2="401.5" y1="150.5938" y2="150.5938"/><text fill="#000000" font-family="sans-serif" font-size="14" lengthAdjust="spacing" textLength="41" x="350.5" y="142.292">Inicial</text></g><g id="DASHBOARD_ABIERTO"><rect fill="#FEFECE" filter="url(#fqb50prvjgy2y)" height="50" rx="12.5" ry="12.5" style="stroke:#A80036;stroke-width:1.0;" width="182" x="280" y="251.2969"/><line style="stroke:#A80036;stroke-width:1.0;" x1="280" x2="462" y1="277.5938" y2="277.5938"/><text fill="#000000" font-family="sans-serif" font-size="14" lengthAdjust="spacing" textLength="162" x="290" y="269.292">DASHBOARD_ABIERTO</text></g><g id="VER_USUARIOS"><rect fill="#FEFECE" filter="url(#fqb50prvjgy2y)" height="50" rx="12.5" ry="12.5" style="stroke:#A80036;stroke-width:1.0;" width="127" x="488.5" y="378.2969"/><line style="stroke:#A80036;stroke-width:1.0;" x1="488.5" x2="615.5" y1="404.5938" y2="404.5938"/><text fill="#000000" font-family="sans-serif" font-size="14" lengthAdjust="spacing" textLength="107" x="498.5" y="396.292">VER_USUARIOS</text></g><g id="A&#209;ADIR_USUARIO"><rect fill="#FEFECE" filter="url(#fqb50prvjgy2y)" height="50" rx="12.5" ry="12.5" style="stroke:#A80036;stroke-width:1.0;" width="144" x="443" y="505.2969"/><line style="stroke:#A80036;stroke-width:1.0;" x1="443" x2="587" y1="531.5938" y2="531.5938"/><text fill="#000000" font-family="sans-serif" font-size="14" lengthAdjust="spacing" textLength="124" x="453" y="523.292">A&#209;ADIR_USUARIO</text></g><g id="EDITAR_USUARIO"><rect fill="#FEFECE" filter="url(#fqb50prvjgy2y)" height="50" rx="12.5" ry="12.5" style="stroke:#A80036;stroke-width:1.0;" width="142" x="632" y="505.2969"/><line style="stroke:#A80036;stroke-width:1.0;" x1="632" x2="774" y1="531.5938" y2="531.5938"/><text fill="#000000" font-family="sans-serif" font-size="14" lengthAdjust="spacing" textLength="122" x="642" y="523.292">EDITAR_USUARIO</text></g><g id="BAJAS_USUARIOS"><rect fill="#FEFECE" filter="url(#fqb50prvjgy2y)" height="50" rx="12.5" ry="12.5" style="stroke:#A80036;stroke-width:1.0;" width="141" x="814.5" y="505.2969"/><line style="stroke:#A80036;stroke-width:1.0;" x1="814.5" x2="955.5" y1="531.5938" y2="531.5938"/><text fill="#000000" font-family="sans-serif" font-size="14" lengthAdjust="spacing" textLength="121" x="824.5" y="523.292">BAJAS_USUARIOS</text></g><g id="INFORME"><rect fill="#FEFECE" filter="url(#fqb50prvjgy2y)" height="50" rx="12.5" ry="12.5" style="stroke:#A80036;stroke-width:1.0;" width="84" x="175" y="378.2969"/><line style="stroke:#A80036;stroke-width:1.0;" x1="175" x2="259" y1="404.5938" y2="404.5938"/><text fill="#000000" font-family="sans-serif" font-size="14" lengthAdjust="spacing" textLength="64" x="185" y="396.292">INFORME</text></g><g id="DIARIO"><rect fill="#FEFECE" filter="url(#fqb50prvjgy2y)" height="50" rx="12.5" ry="12.5" style="stroke:#A80036;stroke-width:1.0;" width="70" x="7" y="505.2969"/><line style="stroke:#A80036;stroke-width:1.0;" x1="7" x2="77" y1="531.5938" y2="531.5938"/><text fill="#000000" font-family="sans-serif" font-size="14" lengthAdjust="spacing" textLength="50" x="17" y="523.292">DIARIO</text></g><g id="SEMANAL"><rect fill="#FEFECE" filter="url(#fqb50prvjgy2y)" height="50" rx="12.5" ry="12.5" style="stroke:#A80036;stroke-width:1.0;" width="88" x="112" y="505.2969"/><line style="stroke:#A80036;stroke-width:1.0;" x1="112" x2="200" y1="531.5938" y2="531.5938"/><text fill="#000000" font-family="sans-serif" font-size="14" lengthAdjust="spacing" textLength="68" x="122" y="523.292">SEMANAL</text></g><g id="MENSUAL"><rect fill="#FEFECE" filter="url(#fqb50prvjgy2y)" height="50" rx="12.5" ry="12.5" style="stroke:#A80036;stroke-width:1.0;" width="87" x="235.5" y="505.2969"/><line style="stroke:#A80036;stroke-width:1.0;" x1="235.5" x2="322.5" y1="531.5938" y2="531.5938"/><text fill="#000000" font-family="sans-serif" font-size="14" lengthAdjust="spacing" textLength="67" x="245.5" y="523.292">MENSUAL</text></g><ellipse cx="371" cy="530.2969" fill="none" filter="url(#fqb50prvjgy2y)" rx="11" ry="11" style="stroke:#000000;stroke-width:1.0;"/><ellipse cx="371" cy="530.2969" fill="#000000" rx="6" ry="6" style="stroke:#000000;stroke-width:1.0;"/><!--link *start* to Inicial--><g id="link_*start*_Inicial"><path d="M371,63.3099 C371,77.1879 371,98.2619 371,118.1369 " fill="none" id="*start*-to-Inicial" style="stroke:#A80036;stroke-width:1.0;"/><polygon fill="#A80036" points="371,124.1369,375,115.1369,371,119.1369,367,115.1369,371,124.1369" style="stroke:#A80036;stroke-width:1.0;"/></g><!--link Inicial to DASHBOARD_ABIERTO--><g id="link_Inicial_DASHBOARD_ABIERTO"><path d="M371,174.3979 C371,196.5329 371,223.1579 371,245.2699 " fill="none" id="Inicial-to-DASHBOARD_ABIERTO" style="stroke:#A80036;stroke-width:1.0;"/><polygon fill="#A80036" points="371,251.2699,375,242.2699,371,246.2699,367,242.2699,371,251.2699" style="stroke:#A80036;stroke-width:1.0;"/><text fill="#000000" font-family="sans-serif" font-size="13" lengthAdjust="spacing" textLength="30" x="372" y="217.3638">login</text></g><!--link DASHBOARD_ABIERTO to VER_USUARIOS--><g id="link_DASHBOARD_ABIERTO_VER_USUARIOS"><path d="M435.245,301.3189 C453.156,309.4789 472.058,319.5559 488,331.2969 C505.905,344.4839 518.8756,358.6155 530.7226,373.5725 " fill="none" id="DASHBOARD_ABIERTO-to-VER_USUARIOS" style="stroke:#A80036;stroke-width:1.0;"/><polygon fill="#A80036" points="534.448,378.2759,531.9955,368.7373,531.3435,374.3564,525.7244,373.7044,534.448,378.2759" style="stroke:#A80036;stroke-width:1.0;"/><text fill="#000000" font-family="sans-serif" font-size="13" lengthAdjust="spacing" textLength="76" x="507" y="344.3638">verUsuarios</text></g><!--reverse link DASHBOARD_ABIERTO to VER_USUARIOS--><g id="link_DASHBOARD_ABIERTO_VER_USUARIOS"><path d="M410.8361,304.8075 C442.8871,326.9425 485.191,356.1579 517.209,378.2699 " fill="none" id="DASHBOARD_ABIERTO-backto-VER_USUARIOS" style="stroke:#A80036;stroke-width:1.0;"/><polygon fill="#A80036" points="405.899,301.3979,411.0315,309.8037,410.0132,304.2392,415.5777,303.2209,405.899,301.3979" style="stroke:#A80036;stroke-width:1.0;"/></g><!--reverse link VER_USUARIOS to A?ADIR_USUARIO--><g id="link_VER_USUARIOS_A&#209;ADIR_USUARIO"><path d="M528.0696,433.4662 C521.8576,442.2692 519.274,447.7519 516,458.2969 C511.321,473.3666 511.071,491.1166 511.991,505.0992 " fill="none" id="VER_USUARIOS-backto-A&#209;ADIR_USUARIO" style="stroke:#A80036;stroke-width:1.0;"/><polygon fill="#A80036" points="531.529,428.5639,523.0717,433.6111,528.6462,432.6491,529.6081,438.2236,531.529,428.5639" style="stroke:#A80036;stroke-width:1.0;"/></g><!--link VER_USUARIOS to A?ADIR_USUARIO--><g id="link_VER_USUARIOS_A&#209;ADIR_USUARIO"><path d="M544.866,428.3979 C538.314,450.5329 530.36,477.4051 523.815,499.5163 " fill="none" id="VER_USUARIOS-to-A&#209;ADIR_USUARIO" style="stroke:#A80036;stroke-width:1.0;"/><polygon fill="#A80036" points="522.112,505.2696,528.502,497.775,523.5312,500.4752,520.831,495.5044,522.112,505.2696" style="stroke:#A80036;stroke-width:1.0;"/><text fill="#000000" font-family="sans-serif" font-size="13" lengthAdjust="spacing" textLength="88" x="537" y="471.3638">a&#241;adirUsuario</text></g><!--reverse link VER_USUARIOS to EDITAR_USUARIO--><g id="link_VER_USUARIOS_EDITAR_USUARIO"><path d="M597.4845,431.6975 C611.1385,440.4905 621.127,447.6509 634,458.2969 C651.219,472.5378 668.743,490.6243 681.822,504.9784 " fill="none" id="VER_USUARIOS-backto-EDITAR_USUARIO" style="stroke:#A80036;stroke-width:1.0;"/><polygon fill="#A80036" points="592.44,428.4489,597.841,436.6847,596.6437,431.156,602.1724,429.9588,592.44,428.4489" style="stroke:#A80036;stroke-width:1.0;"/></g><!--link VER_USUARIOS to EDITAR_USUARIO--><g id="link_VER_USUARIOS_EDITAR_USUARIO"><path d="M615.606,423.7329 C634.87,431.9999 654.901,443.2869 670,458.2969 C682.917,471.1383 689.4251,484.3075 694.5321,499.3585 " fill="none" id="VER_USUARIOS-to-EDITAR_USUARIO" style="stroke:#A80036;stroke-width:1.0;"/><polygon fill="#A80036" points="696.46,505.0404,697.356,495.2324,694.8534,500.3055,689.7802,497.8029,696.46,505.0404" style="stroke:#A80036;stroke-width:1.0;"/><text fill="#000000" font-family="sans-serif" font-size="13" lengthAdjust="spacing" textLength="85" x="684" y="471.3638">editarUsuario</text></g><!--reverse link VER_USUARIOS to BAJAS_USUARIOS--><g id="link_VER_USUARIOS_BAJAS_USUARIOS"><path d="M621.6854,414.4074 C668.0394,422.4644 725.653,435.5339 778,458.2969 C805.805,470.388 834.265,489.6704 854.837,505.0909 " fill="none" id="VER_USUARIOS-backto-BAJAS_USUARIOS" style="stroke:#A80036;stroke-width:1.0;"/><polygon fill="#A80036" points="615.774,413.3799,623.9561,418.862,620.7001,414.2361,625.326,410.9802,615.774,413.3799" style="stroke:#A80036;stroke-width:1.0;"/></g><!--link VER_USUARIOS to BAJAS_USUARIOS--><g id="link_VER_USUARIOS_BAJAS_USUARIOS"><path d="M615.7,406.0829 C672.575,410.1499 756.461,422.4079 820,458.2969 C840.081,469.639 853.8284,484.5635 865.5284,500.3567 " fill="none" id="VER_USUARIOS-to-BAJAS_USUARIOS" style="stroke:#A80036;stroke-width:1.0;"/><polygon fill="#A80036" points="869.1,505.1779,866.9567,495.5651,866.1236,501.1603,860.5285,500.3272,869.1,505.1779" style="stroke:#A80036;stroke-width:1.0;"/><text fill="#000000" font-family="sans-serif" font-size="13" lengthAdjust="spacing" textLength="93" x="843" y="471.3638">bajaDeUsuario</text></g><!--link DASHBOARD_ABIERTO to INFORME--><g id="link_DASHBOARD_ABIERTO_INFORME"><path d="M317.281,301.4169 C301.812,309.6929 285.488,319.8079 272,331.2969 C256.213,344.7439 245.3499,358.4152 235.3209,373.2212 " fill="none" id="DASHBOARD_ABIERTO-to-INFORME" style="stroke:#A80036;stroke-width:1.0;"/><polygon fill="#A80036" points="231.956,378.1889,240.3151,372.9807,234.7601,374.0492,233.6916,368.4941,231.956,378.1889" style="stroke:#A80036;stroke-width:1.0;"/><text fill="#000000" font-family="sans-serif" font-size="13" lengthAdjust="spacing" textLength="71" x="273" y="344.3638">verInforme</text></g><!--reverse link DASHBOARD_ABIERTO to INFORME--><g id="link_DASHBOARD_ABIERTO_INFORME"><path d="M275.994,303.8959 C260.248,311.4099 250.622,318.6059 239,331.2969 C227.321,344.0489 221.841,362.9049 219.27,377.9799 " fill="none" id="DASHBOARD_ABIERTO-backto-INFORME" style="stroke:#A80036;stroke-width:1.0;"/><polygon fill="#A80036" points="281.409,301.3119,271.5637,301.5779,276.8965,303.4653,275.0091,308.798,281.409,301.3119" style="stroke:#A80036;stroke-width:1.0;"/></g><!--link INFORME to DIARIO--><g id="link_INFORME_DIARIO"><path d="M194.174,428.3979 C164.075,452.5899 117.3996,486.1414 82.3551,507.9733 " fill="none" id="INFORME-to-DIARIO" style="stroke:#A80036;stroke-width:1.0;"/><polygon fill="#A80036" points="77.2625,511.1459,87.0165,509.7821,81.5063,508.5021,82.7864,502.9919,77.2625,511.1459" style="stroke:#A80036;stroke-width:1.0;"/></g><!--reverse link INFORME to DIARIO--><g id="link_INFORME_DIARIO"><path d="M169.7234,430.4691 C135.3074,452.6001 93.5692,482.732 65.38,505.2373 " fill="none" id="INFORME-backto-DIARIO" style="stroke:#A80036;stroke-width:1.0;"/><polygon fill="#A80036" points="174.77,427.2239,165.0366,428.7273,170.5645,429.9282,169.3635,435.4561,174.77,427.2239" style="stroke:#A80036;stroke-width:1.0;"/></g><!--link INFORME to SEMANAL--><g id="link_INFORME_SEMANAL"><path d="M216.155,428.3979 C208.802,450.5329 196.1268,478.1147 181.8798,500.2259 " fill="none" id="INFORME-to-SEMANAL" style="stroke:#A80036;stroke-width:1.0;"/><polygon fill="#A80036" points="178.63,505.2696,186.8672,499.8706,181.3382,501.0665,180.1423,495.5375,178.63,505.2696" style="stroke:#A80036;stroke-width:1.0;"/></g><!--reverse link INFORME to SEMANAL--><g id="link_INFORME_SEMANAL"><path d="M191.7121,433.4626 C177.6531,455.5976 164.952,483.1584 157.427,505.2696 " fill="none" id="INFORME-backto-SEMANAL" style="stroke:#A80036;stroke-width:1.0;"/><polygon fill="#A80036" points="194.929,428.3979,186.7272,433.8504,192.2483,432.6185,193.4802,438.1396,194.929,428.3979" style="stroke:#A80036;stroke-width:1.0;"/></g><!--link INFORME to MENSUAL--><g id="link_INFORME_MENSUAL"><path d="M239.87,428.3979 C254.298,450.5329 268.5474,477.4771 276.0574,499.5883 " fill="none" id="INFORME-to-MENSUAL" style="stroke:#A80036;stroke-width:1.0;"/><polygon fill="#A80036" points="277.987,505.2696,278.8801,495.4613,276.379,500.5352,271.3051,498.0341,277.987,505.2696" style="stroke:#A80036;stroke-width:1.0;"/></g><!--reverse link INFORME to MENSUAL--><g id="link_INFORME_MENSUAL"><path d="M220.6211,434.0631 C228.3421,456.1981 242.552,483.1584 256.784,505.2696 " fill="none" id="INFORME-backto-MENSUAL" style="stroke:#A80036;stroke-width:1.0;"/><polygon fill="#A80036" points="218.645,428.3979,217.8323,438.2131,220.2918,433.1189,225.386,435.5783,218.645,428.3979" style="stroke:#A80036;stroke-width:1.0;"/></g><!--link DASHBOARD_ABIERTO to *end*--><g id="link_DASHBOARD_ABIERTO_*end*"><path d="M371,301.4599 C371,355.1709 371,476.6233 371,513.2773 " fill="none" id="DASHBOARD_ABIERTO-to-*end*" style="stroke:#A80036;stroke-width:1.0;"/><polygon fill="#A80036" points="371,519.2773,375,510.2773,371,514.2773,367,510.2773,371,519.2773" style="stroke:#A80036;stroke-width:1.0;"/><text fill="#000000" font-family="sans-serif" font-size="13" lengthAdjust="spacing" textLength="40" x="372" y="407.8638">logout</text></g><!--link VER_USUARIOS to *end*--><g id="link_VER_USUARIOS_*end*"><path d="M510.183,428.3559 C495.08,437.3869 478.052,447.9699 463,458.2969 C431.058,480.2115 399.906,505.3719 384.013,518.4923 " fill="none" id="VER_USUARIOS-to-*end*" style="stroke:#A80036;stroke-width:1.0;"/><polygon fill="#A80036" points="379.386,522.3121,388.873,519.667,383.2418,519.1289,383.78,513.4977,379.386,522.3121" style="stroke:#A80036;stroke-width:1.0;"/><text fill="#000000" font-family="sans-serif" font-size="13" lengthAdjust="spacing" textLength="40" x="464" y="471.3638">logout</text></g><!--link INFORME to *end*--><g id="link_INFORME_*end*"><path d="M245.947,428.4259 C262.576,442.2289 283.89,459.8232 303,475.2969 C324.323,492.5628 344.979,508.8652 357.866,518.9904 " fill="none" id="INFORME-to-*end*" style="stroke:#A80036;stroke-width:1.0;"/><polygon fill="#A80036" points="362.584,522.6973,357.9783,513.9917,358.6524,519.6082,353.0358,520.2823,362.584,522.6973" style="stroke:#A80036;stroke-width:1.0;"/><text fill="#000000" font-family="sans-serif" font-size="13" lengthAdjust="spacing" textLength="40" x="304" y="471.3638">logout</text></g><!--SRC=[VP9HJeGm54N_kuhtgIPim1YJHrfZpG093FuOCwb3dLIXJQ1Zt8PBSGspCTiHHWg3V-JUT_fkB-tUbORMT99OPMi9L8bTAne1bOIjqLP-MWCNecgKlYJawUePekWMW6krLQ8cfF-0g78onU8-pZ2d6umvozSPN4DjTaeJChVyEOyitvH5YJdF2ZVx8TkosujMcUuCS1D50K18W7iR3rz8-KcS3p3Ar_YF7-C35aiRVEB91XTQ7Bv5fORWSo9SwG1PAIk6UPW3OGO7l8WtGUMmOA5AdjvbUS9-M-JwrRIDN2Yn7tK_hsSyJ_cnaR5Ki0HJN0LQmb8NRFN7-WCdh9UchDTExC8L_EiwFXYpj_DQ0dSSQMpy0000]--></g></svg>