<?xml version="1.0" encoding="us-ascii" standalone="no"?><svg xmlns="http://www.w3.org/2000/svg" xmlns:xlink="http://www.w3.org/1999/xlink" contentStyleType="text/css" height="510px" preserveAspectRatio="none" style="width:467px;height:510px;background:#FFFFFF;" version="1.1" viewBox="0 0 467 510" width="467px" zoomAndPan="magnify"><defs><filter height="300%" id="f1diax6lbd99pz" width="300%" x="-1" y="-1"><feGaussianBlur result="blurOut" stdDeviation="2.0"/><feColorMatrix in="blurOut" result="blurOut2" type="matrix" values="0 0 0 0 0 0 0 0 0 0 0 0 0 0 0 0 0 0 .4 0"/><feOffset dx="4.0" dy="4.0" in="blurOut2" result="blurOut3"/><feBlend in="SourceGraphic" in2="blurOut3" mode="normal"/></filter></defs><g><text fill="#000000" font-family="sans-serif" font-size="14" font-weight="bold" lengthAdjust="spacing" textLength="107" x="173.0368" y="22.9951">Casos de Uso</text><!--entity Administrador--><g id="elem_Administrador"><ellipse cx="168" cy="218.7969" fill="#FEFECE" filter="url(#f1diax6lbd99pz)" rx="8" ry="8" style="stroke:#A80036;stroke-width:2.0;"/><path d="M168,226.7969 L168,253.7969 M155,234.7969 L181,234.7969 M168,253.7969 L155,268.7969 M168,253.7969 L181,268.7969 " fill="none" filter="url(#f1diax6lbd99pz)" style="stroke:#A80036;stroke-width:2.0;"/><text fill="#000000" font-family="sans-serif" font-size="14" lengthAdjust="spacing" textLength="102" x="117" y="288.792">Administrador</text></g><!--entity Usuario--><g id="elem_Usuario"><ellipse cx="31.5" cy="100.7969" fill="#FEFECE" filter="url(#f1diax6lbd99pz)" rx="8" ry="8" style="stroke:#A80036;stroke-width:2.0;"/><path d="M31.5,108.7969 L31.5,135.7969 M18.5,116.7969 L44.5,116.7969 M31.5,135.7969 L18.5,150.7969 M31.5,135.7969 L44.5,150.7969 " fill="none" filter="url(#f1diax6lbd99pz)" style="stroke:#A80036;stroke-width:2.0;"/><text fill="#000000" font-family="sans-serif" font-size="14" lengthAdjust="spacing" textLength="51" x="6" y="170.792">Usuario</text></g><g id="elem_verFichajeDiario"><ellipse cx="366.0591" cy="61.4087" fill="#FEFECE" filter="url(#f1diax6lbd99pz)" rx="78.5591" ry="18.1118" style="stroke:#A80036;stroke-width:1.0;"/><text fill="#000000" font-family="sans-serif" font-size="14" lengthAdjust="spacing" textLength="115" x="306.3328" y="64.9493">verFichajeDiario</text></g><g id="elem_verInforme"><ellipse cx="365.92" cy="130.2809" fill="#FEFECE" filter="url(#f1diax6lbd99pz)" rx="65.42" ry="15.484" style="stroke:#A80036;stroke-width:1.0;"/><text fill="#000000" font-family="sans-serif" font-size="14" lengthAdjust="spacing" textLength="80" x="322.92" y="134.0284">verInforme</text></g><g id="elem_editarFichajeDiario"><ellipse cx="366.0368" cy="272.1042" fill="#FEFECE" filter="url(#f1diax6lbd99pz)" rx="87.0368" ry="19.8074" style="stroke:#A80036;stroke-width:1.0;"/><text fill="#000000" font-family="sans-serif" font-size="14" lengthAdjust="spacing" textLength="135" x="298.5368" y="274.9509">editarFichajeDiario</text></g><g id="elem_crearUsuarios"><ellipse cx="365.8049" cy="344.3579" fill="#FEFECE" filter="url(#f1diax6lbd99pz)" rx="70.8049" ry="16.561" style="stroke:#A80036;stroke-width:1.0;"/><text fill="#000000" font-family="sans-serif" font-size="14" lengthAdjust="spacing" textLength="95" x="315.3049" y="348.1054">crearUsuarios</text></g><g id="elem_verUsuarios"><ellipse cx="365.7655" cy="411.35" fill="#FEFECE" filter="url(#f1diax6lbd99pz)" rx="65.7655" ry="15.5531" style="stroke:#A80036;stroke-width:1.0;"/><text fill="#000000" font-family="sans-serif" font-size="14" lengthAdjust="spacing" textLength="81" x="322.2655" y="415.0975">verUsuarios</text></g><g id="elem_editarUsuarios"><ellipse cx="366.0678" cy="479.3104" fill="#FEFECE" filter="url(#f1diax6lbd99pz)" rx="73.0678" ry="17.0136" style="stroke:#A80036;stroke-width:1.0;"/><text fill="#000000" font-family="sans-serif" font-size="14" lengthAdjust="spacing" textLength="101" x="312.5678" y="483.058">editarUsuarios</text></g><g id="elem_eliminarUsuarios"><ellipse cx="365.9652" cy="199.4899" fill="#FEFECE" filter="url(#f1diax6lbd99pz)" rx="78.9652" ry="18.193" style="stroke:#A80036;stroke-width:1.0;"/><text fill="#000000" font-family="sans-serif" font-size="14" lengthAdjust="spacing" textLength="116" x="305.9" y="202.9854">eliminarUsuarios</text></g><!--reverse link Usuario to Administrador--><g id="link_Usuario_Administrador"><path d="M70.7001,165.8108 C88.1428,181.1138 98.5472,190.2419 119.622,208.7309 " fill="none" id="Usuario-backto-Administrador" style="stroke:#A80036;stroke-width:1.0;"/><polygon fill="none" points="57.1694,153.9399,66.7432,170.3211,74.6571,161.3006,57.1694,153.9399" style="stroke:#A80036;stroke-width:1.0;"/></g><!--link Usuario to verFichajeDiario--><g id="link_Usuario_verFichajeDiario"><path d="M57.024,123.5019 C73.7579,117.7389 96.5179,110.3619 117,105.2969 C177.915,90.2329 242.5312,79.1338 292.7732,71.4948 " fill="none" id="Usuario-to-verFichajeDiario" style="stroke:#A80036;stroke-width:1.0;"/><polygon fill="#A80036" points="298.705,70.5929,289.206,67.9912,293.7618,71.3445,290.4085,75.9003,298.705,70.5929" style="stroke:#A80036;stroke-width:1.0;"/></g><!--link Usuario to verInforme--><g id="link_Usuario_verInforme"><path d="M57.2199,132.1479 C108.165,131.8419 220.2771,131.1669 294.4751,130.7209 " fill="none" id="Usuario-to-verInforme" style="stroke:#A80036;stroke-width:1.0;"/><polygon fill="#A80036" points="300.475,130.6849,291.4511,126.739,295.4751,130.7149,291.4992,134.7389,300.475,130.6849" style="stroke:#A80036;stroke-width:1.0;"/></g><!--link Administrador to verFichajeDiario--><g id="link_Administrador_verFichajeDiario"><path d="M190.399,208.6979 C209.639,174.8079 240.723,127.7439 279,97.2969 C290.401,88.2289 298.8571,83.3498 312.2381,77.9008 " fill="none" id="Administrador-to-verFichajeDiario" style="stroke:#A80036;stroke-width:1.0;"/><polygon fill="#A80036" points="317.795,75.6379,307.951,75.3276,313.1642,77.5236,310.9682,82.7368,317.795,75.6379" style="stroke:#A80036;stroke-width:1.0;"/></g><!--link Administrador to editarFichajeDiario--><g id="link_Administrador_editarFichajeDiario"><path d="M219.22,255.9339 C239.977,258.2639 258.5565,260.3484 281.5265,262.9274 " fill="none" id="Administrador-to-editarFichajeDiario" style="stroke:#A80036;stroke-width:1.0;"/><polygon fill="#A80036" points="287.489,263.5969,278.9915,258.6177,282.5202,263.039,278.0989,266.5677,287.489,263.5969" style="stroke:#A80036;stroke-width:1.0;"/></g><!--link Administrador to verInforme--><g id="link_Administrador_verInforme"><path d="M216.149,208.5939 C234.866,193.3659 257.122,176.8239 279,164.2969 C293.908,155.7609 305.7505,150.502 321.0365,144.849 " fill="none" id="Administrador-to-verInforme" style="stroke:#A80036;stroke-width:1.0;"/><polygon fill="#A80036" points="326.664,142.7679,316.8353,142.1379,321.9744,144.5022,319.6102,149.6413,326.664,142.7679" style="stroke:#A80036;stroke-width:1.0;"/></g><!--link Administrador to crearUsuarios--><g id="link_Administrador_crearUsuarios"><path d="M219.261,279.4019 C237.783,289.6759 259.102,300.9799 279,310.2969 C294.412,317.5139 306.2062,322.4282 321.2982,328.2352 " fill="none" id="Administrador-to-crearUsuarios" style="stroke:#A80036;stroke-width:1.0;"/><polygon fill="#A80036" points="326.898,330.3899,319.9348,323.4247,322.2315,328.5943,317.0619,330.8911,326.898,330.3899" style="stroke:#A80036;stroke-width:1.0;"/></g><!--link Administrador to verUsuarios--><g id="link_Administrador_verUsuarios"><path d="M196.497,291.9709 C216.56,319.6359 245.942,355.0129 279,378.2969 C291.944,387.4139 302.0848,392.4046 316.5888,397.5621 " fill="none" id="Administrador-to-verUsuarios" style="stroke:#A80036;stroke-width:1.0;"/><polygon fill="#A80036" points="322.242,399.5724,315.1023,392.7882,317.531,397.8972,312.422,400.3258,322.242,399.5724" style="stroke:#A80036;stroke-width:1.0;"/></g><!--link Administrador to editarUsuarios--><g id="link_Administrador_editarUsuarios"><path d="M183.231,292.0139 C199.954,335.3859 231.584,402.6475 279,444.2969 C290.021,453.9776 298.4841,459.0157 312.0211,464.3023 " fill="none" id="Administrador-to-editarUsuarios" style="stroke:#A80036;stroke-width:1.0;"/><polygon fill="#A80036" points="317.61,466.485,310.6817,459.4851,312.9526,464.6661,307.7715,466.937,317.61,466.485" style="stroke:#A80036;stroke-width:1.0;"/></g><!--link Administrador to eliminarUsuarios--><g id="link_Administrador_eliminarUsuarios"><path d="M219.22,237.2289 C248.03,229.7329 278.3253,221.8498 307.3953,214.2858 " fill="none" id="Administrador-to-eliminarUsuarios" style="stroke:#A80036;stroke-width:1.0;"/><polygon fill="#A80036" points="313.202,212.7749,303.4848,211.1701,308.3631,214.0339,305.4993,218.9123,313.202,212.7749" style="stroke:#A80036;stroke-width:1.0;"/></g><!--SRC=[VOuz3i8m34RtdC8Z6NA5IWY4n04uG9IurD36o7QPE3n1T43qPxFydZz_UgS2megknzR068IkdK4cmMJ4nHbPZt28oWePuQBit3uFL4XDOcQ1C3x2gwbaZ4ALkcc241hOFL5EbBfumoDzjdw6pwLb6T3FSfVF5oJCPF7VMqdR_9O4eqpzrAyaRF9lbMsbfxhxaTu0]--></g></svg>