<?xml version="1.0" encoding="UTF-8" standalone="no"?><svg xmlns="http://www.w3.org/2000/svg" xmlns:xlink="http://www.w3.org/1999/xlink" contentStyleType="text/css" height="581px" preserveAspectRatio="none" style="width:352px;height:581px;background:#FFFFFF;" version="1.1" viewBox="0 0 352 581" width="352px" zoomAndPan="magnify"><defs><filter height="300%" id="f1f111ndx8087l" width="300%" x="-1" y="-1"><feGaussianBlur result="blurOut" stdDeviation="2.0"/><feColorMatrix in="blurOut" result="blurOut2" type="matrix" values="0 0 0 0 0 0 0 0 0 0 0 0 0 0 0 0 0 0 .4 0"/><feOffset dx="4.0" dy="4.0" in="blurOut2" result="blurOut3"/><feBlend in="SourceGraphic" in2="blurOut3" mode="normal"/></filter></defs><g><rect fill="none" height="27.6094" id="_title" style="stroke:none;stroke-width:1.0;" width="230" x="54.25" y="5"/><text fill="#000000" font-family="sans-serif" font-size="14" font-weight="bold" lengthAdjust="spacing" textLength="220" x="59.25" y="24.5332">Diagrama de contexto (usuario)</text><ellipse cx="192.5" cy="54.6094" fill="#000000" filter="url(#f1f111ndx8087l)" rx="10" ry="10" style="stroke:none;stroke-width:1.0;"/><g id="Inicial"><rect fill="#FEFECE" filter="url(#f1f111ndx8087l)" height="50" rx="12.5" ry="12.5" style="stroke:#A80036;stroke-width:1.0;" width="55" x="165" y="125.6094"/><line style="stroke:#A80036;stroke-width:1.0;" x1="165" x2="220" y1="153.2188" y2="153.2188"/><text fill="#000000" font-family="sans-serif" font-size="14" lengthAdjust="spacing" textLength="35" x="175" y="145.1426">Inicial</text></g><g id="DASHBOARD_ABIERTO"><rect fill="#FEFECE" filter="url(#f1f111ndx8087l)" height="50" rx="12.5" ry="12.5" style="stroke:#A80036;stroke-width:1.0;" width="174" x="105.5" y="253.6094"/><line style="stroke:#A80036;stroke-width:1.0;" x1="105.5" x2="279.5" y1="281.2188" y2="281.2188"/><text fill="#000000" font-family="sans-serif" font-size="14" lengthAdjust="spacing" textLength="154" x="115.5" y="273.1426">DASHBOARD_ABIERTO</text></g><g id="FICHAJE_ACTUAL"><rect fill="#FEFECE" filter="url(#f1f111ndx8087l)" height="50" rx="12.5" ry="12.5" style="stroke:#A80036;stroke-width:1.0;" width="137" x="7" y="401.6094"/><line style="stroke:#A80036;stroke-width:1.0;" x1="7" x2="144" y1="429.2188" y2="429.2188"/><text fill="#000000" font-family="sans-serif" font-size="14" lengthAdjust="spacing" textLength="117" x="17" y="421.1426">FICHAJE_ACTUAL</text></g><g id="INFORME"><rect fill="#FEFECE" filter="url(#f1f111ndx8087l)" height="90.4375" rx="12.5" ry="12.5" style="stroke:#A80036;stroke-width:1.0;" width="84" x="179.5" y="381.6094"/><line style="stroke:#A80036;stroke-width:1.0;" x1="179.5" x2="263.5" y1="409.2188" y2="409.2188"/><text fill="#000000" font-family="sans-serif" font-size="14" lengthAdjust="spacing" textLength="62" x="190.5" y="401.1426">INFORME</text><text fill="#000000" font-family="sans-serif" font-size="14" lengthAdjust="spacing" textLength="46" x="184.5" y="428.752">DIARIO</text><text fill="#000000" font-family="sans-serif" font-size="14" lengthAdjust="spacing" textLength="64" x="184.5" y="446.3613">SEMANAL</text><text fill="#000000" font-family="sans-serif" font-size="14" lengthAdjust="spacing" textLength="64" x="184.5" y="463.9707">MENSUAL</text></g><ellipse cx="221.5" cy="559.6094" fill="none" filter="url(#f1f111ndx8087l)" rx="10" ry="10" style="stroke:#000000;stroke-width:1.0;"/><ellipse cx="222" cy="560.1094" fill="#000000" rx="6" ry="6" style="stroke:none;stroke-width:1.0;"/><!--MD5=[799679ad9d273e0a78da94a10d804476]
link *start to Inicial--><g id="link_*start_Inicial"><path d="M192.5,64.6194 C192.5,77.3094 192.5,101.0194 192.5,120.1794 " fill="none" id="*start-to-Inicial" style="stroke:#A80036;stroke-width:1.0;"/><polygon fill="#A80036" points="192.5,125.4494,196.5,116.4494,192.5,120.4494,188.5,116.4494,192.5,125.4494" style="stroke:#A80036;stroke-width:1.0;"/></g><!--MD5=[95708fe9de2b13754123d01133badfb5]
link Inicial to DASHBOARD_ABIERTO--><g id="link_Inicial_DASHBOARD_ABIERTO"><path d="M192.5,175.8994 C192.5,196.5594 192.5,226.2794 192.5,248.2594 " fill="none" id="Inicial-to-DASHBOARD_ABIERTO" style="stroke:#A80036;stroke-width:1.0;"/><polygon fill="#A80036" points="192.5,253.3894,196.5,244.3894,192.5,248.3894,188.5,244.3894,192.5,253.3894" style="stroke:#A80036;stroke-width:1.0;"/><text fill="#000000" font-family="sans-serif" font-size="13" lengthAdjust="spacing" textLength="27" x="193.5" y="220.1045">login</text></g><!--MD5=[deb5cdedbdbcf5931d22540895a3ce3f]
link DASHBOARD_ABIERTO to FICHAJE_ACTUAL--><g id="link_DASHBOARD_ABIERTO_FICHAJE_ACTUAL"><path d="M165.09,303.7694 C155.58,312.7194 145.14,323.2294 136.5,333.6094 C119.88,353.5594 103.76,378.1694 92.27,396.9194 " fill="none" id="DASHBOARD_ABIERTO-to-FICHAJE_ACTUAL" style="stroke:#A80036;stroke-width:1.0;"/><polygon fill="#A80036" points="89.45,401.5494,97.5463,395.9414,92.0497,397.2784,90.7127,391.7818,89.45,401.5494" style="stroke:#A80036;stroke-width:1.0;"/><text fill="#000000" font-family="sans-serif" font-size="13" lengthAdjust="spacing" textLength="58" x="137.5" y="348.1045">verFichaje</text></g><!--MD5=[59ebab59547f4fcd14a9aabcd62b41c5]
reverse link DASHBOARD_ABIERTO to FICHAJE_ACTUAL--><g id="link_DASHBOARD_ABIERTO_FICHAJE_ACTUAL"><path d="M102.26,306.4394 C90.88,313.5094 80.71,322.4094 73.5,333.6094 C60.61,353.6194 63.4,381.4994 67.99,401.3194 " fill="none" id="DASHBOARD_ABIERTO-backto-FICHAJE_ACTUAL" style="stroke:#A80036;stroke-width:1.0;"/><polygon fill="#A80036" points="106.85,303.7194,97.0671,304.8575,102.5462,306.2645,101.1393,311.7436,106.85,303.7194" style="stroke:#A80036;stroke-width:1.0;"/></g><!--MD5=[45f9f0170600205b8b3828a7ca61639c]
link DASHBOARD_ABIERTO to INFORME--><g id="link_DASHBOARD_ABIERTO_INFORME"><path d="M202.32,303.7194 C205.71,312.9394 209.23,323.6294 211.5,333.6094 C214.61,347.2794 216.76,362.3294 218.24,376.2194 " fill="none" id="DASHBOARD_ABIERTO-to-INFORME" style="stroke:#A80036;stroke-width:1.0;"/><polygon fill="#A80036" points="218.76,381.2794,221.8393,371.9243,218.2597,376.3045,213.8794,372.7248,218.76,381.2794" style="stroke:#A80036;stroke-width:1.0;"/><text fill="#000000" font-family="sans-serif" font-size="13" lengthAdjust="spacing" textLength="58" x="216.5" y="348.1045">verInforme</text></g><!--MD5=[a3765a6a5211596ed59364ce26c2be37]
reverse link DASHBOARD_ABIERTO to INFORME--><g id="link_DASHBOARD_ABIERTO_INFORME"><path d="M198.3,308.8294 C202.43,329.5994 208.05,357.8694 212.72,381.3994 " fill="none" id="DASHBOARD_ABIERTO-backto-INFORME" style="stroke:#A80036;stroke-width:1.0;"/><polygon fill="#A80036" points="197.29,303.7194,195.1166,313.3254,198.2623,308.6239,202.9638,311.7697,197.29,303.7194" style="stroke:#A80036;stroke-width:1.0;"/></g><!--MD5=[d42bfe1b3b7c62dac76e573e451337ca]
link DASHBOARD_ABIERTO to *end--><g id="link_DASHBOARD_ABIERTO_*end"><path d="M253.49,303.8594 C265.48,311.5294 276.5,321.3194 283.5,333.6094 C324.58,405.7494 311.31,449.7294 266.5,519.6094 C258.18,532.5894 244.28,543.6794 234.12,550.6794 " fill="none" id="DASHBOARD_ABIERTO-to-*end" style="stroke:#A80036;stroke-width:1.0;"/><polygon fill="#A80036" points="229.75,553.5994,239.4573,551.9353,233.9103,550.8259,235.0197,545.2789,229.75,553.5994" style="stroke:#A80036;stroke-width:1.0;"/><text fill="#000000" font-family="sans-serif" font-size="13" lengthAdjust="spacing" textLength="35" x="309.5" y="432.1045">logout</text></g><!--MD5=[8401c559bb3c1857946896202541f17f]
link FICHAJE_ACTUAL to *end--><g id="link_FICHAJE_ACTUAL_*end"><path d="M101.5,451.6194 C121.8,470.2894 150.79,496.7694 176.5,519.6094 C187.89,529.7294 201.09,541.1294 210.23,548.9794 " fill="none" id="FICHAJE_ACTUAL-to-*end" style="stroke:#A80036;stroke-width:1.0;"/><polygon fill="#A80036" points="214.12,552.3194,209.8899,543.4252,210.3237,549.0654,204.6835,549.4993,214.12,552.3194" style="stroke:#A80036;stroke-width:1.0;"/><text fill="#000000" font-family="sans-serif" font-size="13" lengthAdjust="spacing" textLength="35" x="177.5" y="516.1045">logout</text></g><!--MD5=[8bf94b30d374c43509a18f65957c2cec]
link INFORME to *end--><g id="link_INFORME_*end"><path d="M221.5,471.9594 C221.5,497.0394 221.5,526.7394 221.5,544.0494 " fill="none" id="INFORME-to-*end" style="stroke:#A80036;stroke-width:1.0;"/><polygon fill="#A80036" points="221.5,549.4194,225.5,540.4194,221.5,544.4194,217.5,540.4194,221.5,549.4194" style="stroke:#A80036;stroke-width:1.0;"/><text fill="#000000" font-family="sans-serif" font-size="13" lengthAdjust="spacing" textLength="35" x="222.5" y="516.1045">logout</text></g><!--MD5=[f8f687adfdfea05bbaa972940cb2e36c]
@startuml Diagrama Contexto

skin rose
title Diagrama de contexto (usuario)

[*] - ->  Inicial

Inicial -down-> DASHBOARD_ABIERTO: login

DASHBOARD_ABIERTO - -> FICHAJE_ACTUAL : verFichaje
DASHBOARD_ABIERTO - -> INFORME : verInforme
INFORME : DIARIO
INFORME : SEMANAL
INFORME : MENSUAL 
DASHBOARD_ABIERTO <- - FICHAJE_ACTUAL
DASHBOARD_ABIERTO <- - INFORME 


DASHBOARD_ABIERTO - -> [*] : logout
FICHAJE_ACTUAL - -> [*] : logout
INFORME - -> [*] : logout

@enduml

PlantUML version 1.2022.7(Mon Aug 22 19:01:30 CEST 2022)
(GPL source distribution)
Java Runtime: Java(TM) SE Runtime Environment
JVM: Java HotSpot(TM) 64-Bit Server VM
Default Encoding: UTF-8
Language: es
Country: ES
--></g></svg>