<?xml version="1.0" encoding="us-ascii" standalone="no"?><svg xmlns="http://www.w3.org/2000/svg" xmlns:xlink="http://www.w3.org/1999/xlink" contentStyleType="text/css" height="1176px" preserveAspectRatio="none" style="width:821px;height:1176px;background:#FFFFFF;" version="1.1" viewBox="0 0 821 1176" width="821px" zoomAndPan="magnify"><defs/><g><ellipse cx="407.5" cy="16" fill="#222222" rx="10" ry="10" style="stroke:#222222;stroke-width:1.0;"/><g id="Inicio"><rect fill="#FAF4B4" height="50" rx="12.5" ry="12.5" style="stroke:#C90000;stroke-width:0.5;" width="58" x="378.5" y="87"/><line style="stroke:#C90000;stroke-width:0.5;" x1="378.5" x2="436.5" y1="113.2969" y2="113.2969"/><text fill="#000000" font-family="sans-serif" font-size="14" lengthAdjust="spacing" textLength="38" x="388.5" y="104.9951">Inicio</text></g><path d="M19.5,232 L795.5,232 A12.5,12.5 0 0 1 808,244.5 L808,258.2969 L7,258.2969 L7,244.5 A12.5,12.5 0 0 1 19.5,232 " fill="#FAF4B4" style="stroke:#FAF4B4;stroke-width:1.0;"/><rect fill="none" height="793.2969" rx="12.5" ry="12.5" style="stroke:#C90000;stroke-width:0.5;" width="801" x="7" y="232"/><line style="stroke:#C90000;stroke-width:0.5;" x1="7" x2="808" y1="258.2969" y2="258.2969"/><text fill="#000000" font-family="sans-serif" font-size="14" lengthAdjust="spacing" textLength="31" x="392" y="249.9951">FISC</text><ellipse cx="561" cy="279.2969" fill="#222222" rx="10" ry="10" style="stroke:#222222;stroke-width:1.0;"/><g id="FISC.P&#225;ginaPrincipal"><rect fill="#FAF4B4" height="50" rx="12.5" ry="12.5" style="stroke:#C90000;stroke-width:0.5;" width="129" x="496.5" y="326.2969"/><line style="stroke:#C90000;stroke-width:0.5;" x1="496.5" x2="625.5" y1="352.5938" y2="352.5938"/><text fill="#000000" font-family="sans-serif" font-size="14" lengthAdjust="spacing" textLength="109" x="506.5" y="344.292">P&#225;ginaPrincipal</text></g><g id="FISC.P&#225;ginaProyecto"><rect fill="#FAF4B4" height="50" rx="12.5" ry="12.5" style="stroke:#C90000;stroke-width:0.5;" width="132" x="495" y="477.2969"/><line style="stroke:#C90000;stroke-width:0.5;" x1="495" x2="627" y1="503.5938" y2="503.5938"/><text fill="#000000" font-family="sans-serif" font-size="14" lengthAdjust="spacing" textLength="112" x="505" y="495.292">P&#225;ginaProyecto</text></g><g id="FISC.Configuraci&#243;nDeSimulaci&#243;n"><rect fill="#FAF4B4" height="50" rx="12.5" ry="12.5" style="stroke:#C90000;stroke-width:0.5;" width="216" x="127" y="613.2969"/><line style="stroke:#C90000;stroke-width:0.5;" x1="127" x2="343" y1="639.5938" y2="639.5938"/><text fill="#000000" font-family="sans-serif" font-size="14" lengthAdjust="spacing" textLength="196" x="137" y="631.292">Configuraci&#243;nDeSimulaci&#243;n</text></g><g id="FISC.Reporte"><rect fill="#FAF4B4" height="50" rx="12.5" ry="12.5" style="stroke:#C90000;stroke-width:0.5;" width="80" x="436" y="965.2969"/><line style="stroke:#C90000;stroke-width:0.5;" x1="436" x2="516" y1="991.5938" y2="991.5938"/><text fill="#000000" font-family="sans-serif" font-size="14" lengthAdjust="spacing" textLength="60" x="446" y="983.292">Reporte</text></g><g id="FISC.Simulando"><rect fill="#FAF4B4" height="50" rx="12.5" ry="12.5" style="stroke:#C90000;stroke-width:0.5;" width="94" x="19" y="806.2969"/><line style="stroke:#C90000;stroke-width:0.5;" x1="19" x2="113" y1="832.5938" y2="832.5938"/><text fill="#000000" font-family="sans-serif" font-size="14" lengthAdjust="spacing" textLength="74" x="29" y="824.292">Simulando</text></g><!--link *start*FISC to P?ginaPrincipal--><g id="link_*start*FISC_P&#225;ginaPrincipal"><path d="M561,289.4479 C561,298.7129 561,307.4379 561,320.0809 " fill="none" id="*start*FISC-to-P&#225;ginaPrincipal" style="stroke:#218C00;stroke-width:1.0;"/><polygon fill="#218C00" points="561,326.0809,565,317.0809,561,321.0809,557,317.0809,561,326.0809" style="stroke:#218C00;stroke-width:1.0;"/></g><!--link P?ginaPrincipal to P?ginaProyecto--><g id="link_P&#225;ginaPrincipal_P&#225;ginaProyecto"><path d="M561,376.5679 C561,404.2759 561,443.3329 561,471.0359 " fill="none" id="P&#225;ginaPrincipal-to-P&#225;ginaProyecto" style="stroke:#218C00;stroke-width:1.0;"/><polygon fill="#218C00" points="561,477.0359,565,468.0359,561,472.0359,557,468.0359,561,477.0359" style="stroke:#218C00;stroke-width:1.0;"/><path d="M566,399.2969 L566,454.2969 L703,454.2969 L703,409.2969 L693,399.2969 L566,399.2969 " fill="#F5F5F5" style="stroke:#C90000;stroke-width:0.5;"/><path d="M693,399.2969 L693,409.2969 L703,409.2969 L693,399.2969 " fill="#F5F5F5" style="stroke:#C90000;stroke-width:0.5;"/><text fill="#000000" font-family="sans-serif" font-size="13" lengthAdjust="spacing" textLength="91" x="572" y="416.3638">Abrir Proyecto</text><text fill="#000000" font-family="sans-serif" font-size="13" lengthAdjust="spacing" textLength="116" x="572" y="431.4966">Importar Proyecto</text><text fill="#000000" font-family="sans-serif" font-size="13" lengthAdjust="spacing" textLength="102" x="572" y="446.6294">Nuevo Proyecto</text></g><!--link P?ginaPrincipal to P?ginaPrincipal--><g id="link_P&#225;ginaPrincipal_P&#225;ginaPrincipal"><path d="M625.68,344.0109 C636.241,345.0539 643.5,347.4829 643.5,351.2969 C643.5,355.1109 642.212,356.9502 631.651,357.9932 " fill="none" id="P&#225;ginaPrincipal-to-P&#225;ginaPrincipal" style="stroke:#218C00;stroke-width:1.0;"/><polygon fill="#218C00" points="625.68,358.5829,635.0296,361.679,630.6558,358.0915,634.2433,353.7177,625.68,358.5829" style="stroke:#218C00;stroke-width:1.0;"/><path d="M648.5,338.7969 L648.5,363.7969 L785.5,363.7969 L785.5,348.7969 L775.5,338.7969 L648.5,338.7969 " fill="#F5F5F5" style="stroke:#C90000;stroke-width:0.5;"/><path d="M775.5,338.7969 L775.5,348.7969 L785.5,348.7969 L775.5,338.7969 " fill="#F5F5F5" style="stroke:#C90000;stroke-width:0.5;"/><text fill="#000000" font-family="sans-serif" font-size="13" lengthAdjust="spacing" textLength="116" x="654.5" y="355.8638">Exportar Proyecto</text></g><!--link P?ginaProyecto to Configuraci?nDeSimulaci?n--><g id="link_P&#225;ginaProyecto_Configuraci&#243;nDeSimulaci&#243;n"><path d="M494.951,520.7439 C451.266,532.2829 402,545.2969 402,545.2969 C402,545.2969 333.6123,582.9718 284.1323,610.2298 " fill="none" id="P&#225;ginaProyecto-to-Configuraci&#243;nDeSimulaci&#243;n" style="stroke:#218C00;stroke-width:1.0;"/><polygon fill="#218C00" points="278.877,613.1249,288.69,612.2858,283.2564,610.7123,284.8299,605.2787,278.877,613.1249" style="stroke:#218C00;stroke-width:1.0;"/><path d="M407,550.2969 L407,590.2969 L542,590.2969 L542,560.2969 L532,550.2969 L407,550.2969 " fill="#F5F5F5" style="stroke:#C90000;stroke-width:0.5;"/><path d="M532,550.2969 L532,560.2969 L542,560.2969 L532,550.2969 " fill="#F5F5F5" style="stroke:#C90000;stroke-width:0.5;"/><text fill="#000000" font-family="sans-serif" font-size="13" lengthAdjust="spacing" textLength="103" x="413" y="567.3638">Abrir Simulaci&#243;n</text><text fill="#000000" font-family="sans-serif" font-size="13" lengthAdjust="spacing" textLength="114" x="413" y="582.4966">Nueva Simulaci&#243;n</text></g><!--link P?ginaProyecto to Reporte--><g id="link_P&#225;ginaProyecto_Reporte"><path d="M561,527.5629 C561,566.1789 561,637.2969 561,637.2969 C561,637.2969 561,637.2969 561,911.7969 C561,911.7969 531.8147,938.4074 506.8627,961.1577 " fill="none" id="P&#225;ginaProyecto-to-Reporte" style="stroke:#218C00;stroke-width:1.0;"/><polygon fill="#218C00" points="502.429,965.2002,511.7746,962.0922,506.1238,961.8314,506.3846,956.1806,502.429,965.2002" style="stroke:#218C00;stroke-width:1.0;"/><path d="M566,758.2969 L566,783.2969 L664,783.2969 L664,768.2969 L654,758.2969 L566,758.2969 " fill="#F5F5F5" style="stroke:#C90000;stroke-width:0.5;"/><path d="M654,758.2969 L654,768.2969 L664,768.2969 L654,758.2969 " fill="#F5F5F5" style="stroke:#C90000;stroke-width:0.5;"/><text fill="#000000" font-family="sans-serif" font-size="13" lengthAdjust="spacing" textLength="77" x="572" y="775.3638">Ver Reporte</text></g><!--link P?ginaProyecto to P?ginaProyecto--><g id="link_P&#225;ginaProyecto_P&#225;ginaProyecto"><path d="M627.201,490.5559 C637.768,492.2739 645,496.1879 645,502.2969 C645,508.4059 643.6902,511.357 633.1232,513.075 " fill="none" id="P&#225;ginaProyecto-to-P&#225;ginaProyecto" style="stroke:#218C00;stroke-width:1.0;"/><polygon fill="#218C00" points="627.201,514.0379,636.7263,516.5418,632.1362,513.2355,635.4425,508.6454,627.201,514.0379" style="stroke:#218C00;stroke-width:1.0;"/><path d="M650,489.7969 L650,514.7969 L799,514.7969 L799,499.7969 L789,489.7969 L650,489.7969 " fill="#F5F5F5" style="stroke:#C90000;stroke-width:0.5;"/><path d="M789,489.7969 L789,499.7969 L799,499.7969 L789,489.7969 " fill="#F5F5F5" style="stroke:#C90000;stroke-width:0.5;"/><text fill="#000000" font-family="sans-serif" font-size="13" lengthAdjust="spacing" textLength="128" x="656" y="506.8638">Exportar Simulaci&#243;n</text></g><!--link Configuraci?nDeSimulaci?n to Simulando--><g id="link_Configuraci&#243;nDeSimulaci&#243;n_Simulando"><path d="M223.897,663.5219 C210.862,691.9609 191,735.2969 191,735.2969 C191,735.2969 139.678,774.3024 102.6432,802.4484 " fill="none" id="Configuraci&#243;nDeSimulaci&#243;n-to-Simulando" style="stroke:#218C00;stroke-width:1.0;"/><polygon fill="#218C00" points="97.8662,806.0789,107.452,803.8178,101.847,803.0535,102.6114,797.4485,97.8662,806.0789" style="stroke:#218C00;stroke-width:1.0;"/><path d="M211,705.2969 L211,730.2969 L342,730.2969 L342,715.2969 L332,705.2969 L211,705.2969 " fill="#F5F5F5" style="stroke:#C90000;stroke-width:0.5;"/><path d="M332,705.2969 L332,715.2969 L342,715.2969 L332,705.2969 " fill="#F5F5F5" style="stroke:#C90000;stroke-width:0.5;"/><text fill="#000000" font-family="sans-serif" font-size="13" lengthAdjust="spacing" textLength="110" x="217" y="722.3638">Iniciar Simulaci&#243;n</text></g><!--link Configuraci?nDeSimulaci?n to Configuraci?nDeSimulaci?n--><g id="link_Configuraci&#243;nDeSimulaci&#243;n_Configuraci&#243;nDeSimulaci&#243;n"><path d="M343.43,631.8759 C354.17,633.1629 361,635.3029 361,638.2969 C361,641.2909 360.1274,642.717 349.3874,644.004 " fill="none" id="Configuraci&#243;nDeSimulaci&#243;n-to-Configuraci&#243;nDeSimulaci&#243;n" style="stroke:#218C00;stroke-width:1.0;"/><polygon fill="#218C00" points="343.43,644.7179,352.842,647.6186,348.3945,644.123,351.8901,639.6755,343.43,644.7179" style="stroke:#218C00;stroke-width:1.0;"/><path d="M366,625.7969 L366,650.7969 L515,650.7969 L515,635.7969 L505,625.7969 L366,625.7969 " fill="#F5F5F5" style="stroke:#C90000;stroke-width:0.5;"/><path d="M505,625.7969 L505,635.7969 L515,635.7969 L505,625.7969 " fill="#F5F5F5" style="stroke:#C90000;stroke-width:0.5;"/><text fill="#000000" font-family="sans-serif" font-size="13" lengthAdjust="spacing" textLength="128" x="372" y="642.8638">Importar Simulaci&#243;n</text></g><!--link Simulando to Configuraci?nDeSimulaci?n--><g id="link_Simulando_Configuraci&#243;nDeSimulaci&#243;n"><path d="M55.9565,805.8319 C44.4011,777.6839 27,735.2969 27,735.2969 C27,735.2969 27,700.2969 27,700.2969 C27,700.2969 89.1277,682.0764 147.3335,665.0064 " fill="none" id="Simulando-to-Configuraci&#243;nDeSimulaci&#243;n" style="stroke:#218C00;stroke-width:1.0;"/><polygon fill="#218C00" points="153.091,663.3179,143.3291,662.0123,148.2931,664.725,145.5804,669.689,153.091,663.3179" style="stroke:#218C00;stroke-width:1.0;"/><path d="M32,705.2969 L32,730.2969 L182,730.2969 L182,715.2969 L172,705.2969 L32,705.2969 " fill="#F5F5F5" style="stroke:#C90000;stroke-width:0.5;"/><path d="M172,705.2969 L172,715.2969 L182,715.2969 L172,705.2969 " fill="#F5F5F5" style="stroke:#C90000;stroke-width:0.5;"/><text fill="#000000" font-family="sans-serif" font-size="13" lengthAdjust="spacing" textLength="129" x="38" y="722.3638">Cancelar Simulaci&#243;n</text></g><!--link Simulando to Simulando--><g id="link_Simulando_Simulando"><path d="M113.0355,823.6339 C123.43,824.3539 131,826.9079 131,831.2969 C131,835.6859 129.4157,837.8253 119.0212,838.5453 " fill="none" id="Simulando-to-Simulando" style="stroke:#218C00;stroke-width:1.0;"/><polygon fill="#218C00" points="113.0355,838.9599,122.2904,842.3284,118.0235,838.6144,121.7376,834.3475,113.0355,838.9599" style="stroke:#218C00;stroke-width:1.0;"/><path d="M136,818.7969 L136,843.7969 L351,843.7969 L351,828.7969 L341,818.7969 L136,818.7969 " fill="#F5F5F5" style="stroke:#C90000;stroke-width:0.5;"/><path d="M341,818.7969 L341,828.7969 L351,828.7969 L341,818.7969 " fill="#F5F5F5" style="stroke:#C90000;stroke-width:0.5;"/><text fill="#000000" font-family="sans-serif" font-size="13" lengthAdjust="spacing" textLength="194" x="142" y="835.8638">Verificar Estado de Simulaci&#243;n</text></g><!--link Simulando to Reporte--><g id="link_Simulando_Reporte"><path d="M87.9538,856.5219 C113.7268,884.9609 153,928.2969 153,928.2969 C153,928.2969 343.2632,964.2289 429.8492,980.581 " fill="none" id="Simulando-to-Reporte" style="stroke:#218C00;stroke-width:1.0;"/><polygon fill="#218C00" points="435.745,981.6945,427.6436,976.0938,430.8318,980.7666,426.159,983.9548,435.745,981.6945" style="stroke:#218C00;stroke-width:1.0;"/><path d="M158,898.2969 L158,923.2969 L373,923.2969 L373,908.2969 L363,898.2969 L158,898.2969 " fill="#F5F5F5" style="stroke:#C90000;stroke-width:0.5;"/><path d="M363,898.2969 L363,908.2969 L373,908.2969 L363,898.2969 " fill="#F5F5F5" style="stroke:#C90000;stroke-width:0.5;"/><text fill="#000000" font-family="sans-serif" font-size="13" lengthAdjust="spacing" textLength="194" x="164" y="915.3638">Verificar Estado de Simulaci&#243;n</text></g><!--link Reporte to Reporte--><g id="link_Reporte_Reporte"><path d="M516.119,982.5161 C526.332,983.0275 534,985.6211 534,990.2969 C534,994.9727 532.3245,997.2662 522.1115,997.7776 " fill="none" id="Reporte-to-Reporte" style="stroke:#218C00;stroke-width:1.0;"/><polygon fill="#218C00" points="516.119,998.0777,525.3078,1001.6226,521.1127,997.8276,524.9077,993.6326,516.119,998.0777" style="stroke:#218C00;stroke-width:1.0;"/><path d="M539,970.2969 L539,1010.2969 L678,1010.2969 L678,980.2969 L668,970.2969 L539,970.2969 " fill="#F5F5F5" style="stroke:#C90000;stroke-width:0.5;"/><path d="M668,970.2969 L668,980.2969 L678,980.2969 L668,970.2969 " fill="#F5F5F5" style="stroke:#C90000;stroke-width:0.5;"/><text fill="#000000" font-family="sans-serif" font-size="13" lengthAdjust="spacing" textLength="110" x="545" y="987.3638">Exportar Reporte</text><text fill="#000000" font-family="sans-serif" font-size="13" lengthAdjust="spacing" textLength="108" x="545" y="1002.4966">Imprimir Reporte</text></g><!--link Reporte to P?ginaProyecto--><g id="link_Reporte_P&#225;ginaProyecto"><path d="M516.122,974.9014 C578.587,952.489 692,911.7969 692,911.7969 C692,637.2969 692,637.2969 692,637.2969 C692,637.2969 626.6683,570.4693 588.9173,531.8533 " fill="none" id="Reporte-to-P&#225;ginaProyecto" style="stroke:#218C00;stroke-width:1.0;"/><polygon fill="#218C00" points="584.723,527.5629,588.1542,536.7947,588.2183,531.1382,593.8748,531.2023,584.723,527.5629" style="stroke:#218C00;stroke-width:1.0;"/><path d="M697,758.2969 L697,783.2969 L770,783.2969 L770,768.2969 L760,758.2969 L697,758.2969 " fill="#F5F5F5" style="stroke:#C90000;stroke-width:0.5;"/><path d="M760,758.2969 L760,768.2969 L770,768.2969 L760,758.2969 " fill="#F5F5F5" style="stroke:#C90000;stroke-width:0.5;"/><text fill="#000000" font-family="sans-serif" font-size="13" lengthAdjust="spacing" textLength="52" x="703" y="775.3638">Guardar</text></g><!--link Reporte to Configuraci?nDeSimulaci?n--><g id="link_Reporte_Configuraci&#243;nDeSimulaci&#243;n"><path d="M449.882,965.2002 C425.224,942.4499 392,911.7969 392,911.7969 C392,716.7969 392,716.7969 392,716.7969 C392,716.7969 335.2832,688.7997 289.1952,666.0497 " fill="none" id="Reporte-to-Configuraci&#243;nDeSimulaci&#243;n" style="stroke:#218C00;stroke-width:1.0;"/><polygon fill="#218C00" points="283.815,663.3939,290.1148,670.9644,288.2985,665.607,293.6559,663.7907,283.815,663.3939" style="stroke:#218C00;stroke-width:1.0;"/><path d="M397,818.7969 L397,843.7969 L528,843.7969 L528,828.7969 L518,818.7969 L397,818.7969 " fill="#F5F5F5" style="stroke:#C90000;stroke-width:0.5;"/><path d="M518,818.7969 L518,828.7969 L528,828.7969 L518,818.7969 " fill="#F5F5F5" style="stroke:#C90000;stroke-width:0.5;"/><text fill="#000000" font-family="sans-serif" font-size="13" lengthAdjust="spacing" textLength="110" x="403" y="835.8638">Editar Simulaci&#243;n</text></g><g id="Log"><rect fill="#FAF4B4" height="50" rx="12.5" ry="12.5" style="stroke:#C90000;stroke-width:0.5;" width="50" x="274.5" y="1120"/><line style="stroke:#C90000;stroke-width:0.5;" x1="274.5" x2="324.5" y1="1146.2969" y2="1146.2969"/><text fill="#000000" font-family="sans-serif" font-size="14" lengthAdjust="spacing" textLength="26" x="286.5" y="1137.9951">Log</text></g><ellipse cx="472.5" cy="1145" fill="none" rx="11" ry="11" style="stroke:#222222;stroke-width:1.0;"/><ellipse cx="472.5" cy="1145" fill="#222222" rx="6" ry="6" style="stroke:#222222;stroke-width:1.0;"/><!--link *start* to Inicio--><g id="link_*start*_Inicio"><path d="M407.5,26.01 C407.5,39.89 407.5,60.97 407.5,80.84 " fill="none" id="*start*-to-Inicio" style="stroke:#218C00;stroke-width:1.0;"/><polygon fill="#218C00" points="407.5,86.84,411.5,77.84,407.5,81.84,403.5,77.84,407.5,86.84" style="stroke:#218C00;stroke-width:1.0;"/></g><!--link Inicio to FISC--><g id="link_Inicio_FISC"><path d="M407.5,137.13 C407.5,158.28 407.5,185.857 407.5,225.765 " fill="none" id="Inicio-to-FISC" style="stroke:#218C00;stroke-width:1.0;"/><polygon fill="#218C00" points="407.5,231.765,411.5,222.765,407.5,226.765,403.5,222.765,407.5,231.765" style="stroke:#218C00;stroke-width:1.0;"/><path d="M412.5,172 L412.5,197 L467.5,197 L467.5,182 L457.5,172 L412.5,172 " fill="#F5F5F5" style="stroke:#C90000;stroke-width:0.5;"/><path d="M457.5,172 L457.5,182 L467.5,182 L457.5,172 " fill="#F5F5F5" style="stroke:#C90000;stroke-width:0.5;"/><text fill="#000000" font-family="sans-serif" font-size="13" lengthAdjust="spacing" textLength="34" x="418.5" y="189.0669">Login</text></g><!--link Inicio to Inicio--><g id="link_Inicio_Inicio"><path d="M436.793,102.55 C454.624,100.36 471.5,103.51 471.5,112 C471.5,120.49 460.5793,124.3714 442.7483,122.1814 " fill="none" id="Inicio-to-Inicio" style="stroke:#218C00;stroke-width:1.0;"/><polygon fill="#218C00" points="436.793,121.45,445.2383,126.5173,441.7557,122.0595,446.2135,118.577,436.793,121.45" style="stroke:#218C00;stroke-width:1.0;"/><path d="M476.5,99.5 L476.5,124.5 L607.5,124.5 L607.5,109.5 L597.5,99.5 L476.5,99.5 " fill="#F5F5F5" style="stroke:#C90000;stroke-width:0.5;"/><path d="M597.5,99.5 L597.5,109.5 L607.5,109.5 L597.5,99.5 " fill="#F5F5F5" style="stroke:#C90000;stroke-width:0.5;"/><text fill="#000000" font-family="sans-serif" font-size="13" lengthAdjust="spacing" textLength="110" x="482.5" y="116.5669">Registrar Usuario</text></g><!--link Log to Log--><g id="link_Log_Log"><path d="M324.778,1132.8184 C342.273,1129.127 359.5,1133.1875 359.5,1145 C359.5,1156.8125 348.1437,1162.1118 330.6487,1158.4203 " fill="none" id="Log-to-Log" style="stroke:#218C00;stroke-width:1.0;"/><polygon fill="#218C00" points="324.778,1157.1816,332.7583,1162.9535,329.6703,1158.2139,334.4099,1155.1259,324.778,1157.1816" style="stroke:#218C00;stroke-width:1.0;"/><path d="M364.5,1132.5 L364.5,1157.5 L438.5,1157.5 L438.5,1142.5 L428.5,1132.5 L364.5,1132.5 " fill="#F5F5F5" style="stroke:#C90000;stroke-width:0.5;"/><path d="M428.5,1132.5 L428.5,1142.5 L438.5,1142.5 L428.5,1132.5 " fill="#F5F5F5" style="stroke:#C90000;stroke-width:0.5;"/><text fill="#000000" font-family="sans-serif" font-size="13" lengthAdjust="spacing" textLength="53" x="370.5" y="1149.5669">Imprimir</text></g><!--link FISC to Log--><g id="link_FISC_Log"><path d="M324.413,1025.317 C316.07,1065.065 310.2797,1092.6492 305.8387,1113.8041 " fill="none" id="FISC-to-Log" style="stroke:#218C00;stroke-width:1.0;"/><polygon fill="#218C00" points="304.606,1119.6761,310.3697,1111.6899,305.6332,1114.7828,302.5404,1110.0463,304.606,1119.6761" style="stroke:#218C00;stroke-width:1.0;"/><path d="M323.5,1060 L323.5,1085 L401.5,1085 L401.5,1070 L391.5,1060 L323.5,1060 " fill="#F5F5F5" style="stroke:#C90000;stroke-width:0.5;"/><path d="M391.5,1060 L391.5,1070 L401.5,1070 L391.5,1060 " fill="#F5F5F5" style="stroke:#C90000;stroke-width:0.5;"/><text fill="#000000" font-family="sans-serif" font-size="13" lengthAdjust="spacing" textLength="57" x="329.5" y="1077.0669">Abrir Log</text></g><!--link FISC to *end*--><g id="link_FISC_*end*"><path d="M457.506,1025.317 C463.885,1075.8071 468.2291,1110.1937 470.4861,1128.0615 " fill="none" id="FISC-to-*end*" style="stroke:#218C00;stroke-width:1.0;"/><polygon fill="#218C00" points="471.238,1134.0142,474.0786,1124.5839,470.6114,1129.0536,466.1416,1125.5864,471.238,1134.0142" style="stroke:#218C00;stroke-width:1.0;"/><path d="M468.5,1060 L468.5,1085 L539.5,1085 L539.5,1070 L529.5,1060 L468.5,1060 " fill="#F5F5F5" style="stroke:#C90000;stroke-width:0.5;"/><path d="M529.5,1060 L529.5,1070 L539.5,1070 L529.5,1060 " fill="#F5F5F5" style="stroke:#C90000;stroke-width:0.5;"/><text fill="#000000" font-family="sans-serif" font-size="13" lengthAdjust="spacing" textLength="50" x="474.5" y="1077.0669">Log Out</text></g><!--SRC=[bLJDIiD04BxFKmnu4meg2deHj5OfY8fLB-9XkzdMeUbkc2Hg4H_6P_0HV34tsNHjqesnxQ7Dp3VVDt-PT4Ow4Ipcg4scJeMSJTdaEkgRs31kJGwABwHrbE58SOMGHplsiu8GpEQrSkxj7igQCyr4I4LCziVxQx0_PMBIAbia2XCJBug7PWftpoHdMgKfxW8yRZzXhtUCGqsI383xnLvaRUV3KH-XA0oDBdXdW7XffgH1wQYik8QlE1e1jsfAQSQ2yJxD1Lk03uPHKOxJUVUft7n_MWbnmwGb9I96W3LJgUUjPg5ajYPyCcPYN7hHMeRpn70cVetMTfMh5xE2MYQ7NQALjQawU6jg_3928sF7s3TwGjESXQJlBtscHZJFO_SGBcaLu0eGDLkWXALUqTzRLMIecjmFYhshWw6ZyRu5eQG0_gZNDSGPTBH6N2vO2ozsysxGQByfGIaxIP-ZwyW6r7sXfOfRgsWGj_R2Zeic92tFm1u52u_K_nZRn_zFFgWON5DRwFmEBC7L-ySqfz2UrJWxzkl2df58S5lq1hCOHDGwPFW0iCVEDSt-2Qn8MSnAH7d8oXm2UFVk5evcWCNRsnSuj7YTPnxz0m00]--></g></svg>