<?xml version="1.0" encoding="us-ascii" standalone="no"?><svg xmlns="http://www.w3.org/2000/svg" xmlns:xlink="http://www.w3.org/1999/xlink" contentStyleType="text/css" height="1176px" preserveAspectRatio="none" style="width:857px;height:1176px;background:#FFFFFF;" version="1.1" viewBox="0 0 857 1176" width="857px" zoomAndPan="magnify"><defs/><g><ellipse cx="425.5" cy="16" fill="#222222" rx="10" ry="10" style="stroke:#222222;stroke-width:1.0;"/><g id="INICIO"><rect fill="#FAF4B4" height="50" rx="12.5" ry="12.5" style="stroke:#C90000;stroke-width:0.5;" width="63" x="394" y="87"/><line style="stroke:#C90000;stroke-width:0.5;" x1="394" x2="457" y1="113.2969" y2="113.2969"/><text fill="#000000" font-family="sans-serif" font-size="14" lengthAdjust="spacing" textLength="43" x="404" y="104.9951">INICIO</text></g><path d="M19.5,232 L831.5,232 A12.5,12.5 0 0 1 844,244.5 L844,258.2969 L7,258.2969 L7,244.5 A12.5,12.5 0 0 1 19.5,232 " fill="#FAF4B4" style="stroke:#FAF4B4;stroke-width:1.0;"/><rect fill="none" height="793.2969" rx="12.5" ry="12.5" style="stroke:#C90000;stroke-width:0.5;" width="837" x="7" y="232"/><line style="stroke:#C90000;stroke-width:0.5;" x1="7" x2="844" y1="258.2969" y2="258.2969"/><text fill="#000000" font-family="sans-serif" font-size="14" lengthAdjust="spacing" textLength="31" x="410" y="249.9951">FISC</text><ellipse cx="571" cy="279.2969" fill="#222222" rx="10" ry="10" style="stroke:#222222;stroke-width:1.0;"/><g id="FISC.P&#193;GINA_PRINCIPAL"><rect fill="#FAF4B4" height="50" rx="12.5" ry="12.5" style="stroke:#C90000;stroke-width:0.5;" width="155" x="493.5" y="326.2969"/><line style="stroke:#C90000;stroke-width:0.5;" x1="493.5" x2="648.5" y1="352.5938" y2="352.5938"/><text fill="#000000" font-family="sans-serif" font-size="14" lengthAdjust="spacing" textLength="135" x="503.5" y="344.292">P&#193;GINA_PRINCIPAL</text></g><g id="FISC.P&#193;GINA_PROYECTO"><rect fill="#FAF4B4" height="50" rx="12.5" ry="12.5" style="stroke:#C90000;stroke-width:0.5;" width="159" x="491.5" y="477.2969"/><line style="stroke:#C90000;stroke-width:0.5;" x1="491.5" x2="650.5" y1="503.5938" y2="503.5938"/><text fill="#000000" font-family="sans-serif" font-size="14" lengthAdjust="spacing" textLength="139" x="501.5" y="495.292">P&#193;GINA_PROYECTO</text></g><g id="FISC.CONFIGURACI&#211;N_DE_SIMULACI&#211;N"><rect fill="#FAF4B4" height="50" rx="12.5" ry="12.5" style="stroke:#C90000;stroke-width:0.5;" width="259" x="104.5" y="613.2969"/><line style="stroke:#C90000;stroke-width:0.5;" x1="104.5" x2="363.5" y1="639.5938" y2="639.5938"/><text fill="#000000" font-family="sans-serif" font-size="14" lengthAdjust="spacing" textLength="239" x="114.5" y="631.292">CONFIGURACI&#211;N_DE_SIMULACI&#211;N</text></g><g id="FISC.REPORTE"><rect fill="#FAF4B4" height="50" rx="12.5" ry="12.5" style="stroke:#C90000;stroke-width:0.5;" width="87" x="442.5" y="965.2969"/><line style="stroke:#C90000;stroke-width:0.5;" x1="442.5" x2="529.5" y1="991.5938" y2="991.5938"/><text fill="#000000" font-family="sans-serif" font-size="14" lengthAdjust="spacing" textLength="67" x="452.5" y="983.292">REPORTE</text></g><g id="FISC.SIMULANDO"><rect fill="#FAF4B4" height="50" rx="12.5" ry="12.5" style="stroke:#C90000;stroke-width:0.5;" width="104" x="19" y="806.2969"/><line style="stroke:#C90000;stroke-width:0.5;" x1="19" x2="123" y1="832.5938" y2="832.5938"/><text fill="#000000" font-family="sans-serif" font-size="14" lengthAdjust="spacing" textLength="84" x="29" y="824.292">SIMULANDO</text></g><!--link *start*FISC to P?GINA_PRINCIPAL--><g id="link_*start*FISC_P&#193;GINA_PRINCIPAL"><path d="M571,289.4479 C571,298.7129 571,307.4379 571,320.0809 " fill="none" id="*start*FISC-to-P&#193;GINA_PRINCIPAL" style="stroke:#218C00;stroke-width:1.0;"/><polygon fill="#218C00" points="571,326.0809,575,317.0809,571,321.0809,567,317.0809,571,326.0809" style="stroke:#218C00;stroke-width:1.0;"/></g><!--link P?GINA_PRINCIPAL to P?GINA_PROYECTO--><g id="link_P&#193;GINA_PRINCIPAL_P&#193;GINA_PROYECTO"><path d="M571,376.5679 C571,404.2759 571,443.3329 571,471.0359 " fill="none" id="P&#193;GINA_PRINCIPAL-to-P&#193;GINA_PROYECTO" style="stroke:#218C00;stroke-width:1.0;"/><polygon fill="#218C00" points="571,477.0359,575,468.0359,571,472.0359,567,468.0359,571,477.0359" style="stroke:#218C00;stroke-width:1.0;"/><path d="M576,399.2969 L576,454.2969 L713,454.2969 L713,409.2969 L703,399.2969 L576,399.2969 " fill="#F5F5F5" style="stroke:#C90000;stroke-width:0.5;"/><path d="M703,399.2969 L703,409.2969 L713,409.2969 L703,399.2969 " fill="#F5F5F5" style="stroke:#C90000;stroke-width:0.5;"/><text fill="#000000" font-family="sans-serif" font-size="13" lengthAdjust="spacing" textLength="91" x="582" y="416.3638">Abrir Proyecto</text><text fill="#000000" font-family="sans-serif" font-size="13" lengthAdjust="spacing" textLength="116" x="582" y="431.4966">Importar Proyecto</text><text fill="#000000" font-family="sans-serif" font-size="13" lengthAdjust="spacing" textLength="102" x="582" y="446.6294">Nuevo Proyecto</text></g><!--link P?GINA_PRINCIPAL to P?GINA_PRINCIPAL--><g id="link_P&#193;GINA_PRINCIPAL_P&#193;GINA_PRINCIPAL"><path d="M648.565,344.2699 C659.315,345.4269 666.5,347.7699 666.5,351.2969 C666.5,354.8239 665.2805,356.5248 654.5305,357.6818 " fill="none" id="P&#193;GINA_PRINCIPAL-to-P&#193;GINA_PRINCIPAL" style="stroke:#218C00;stroke-width:1.0;"/><polygon fill="#218C00" points="648.565,358.3239,657.9414,361.3378,653.5363,357.7888,657.0853,353.3838,648.565,358.3239" style="stroke:#218C00;stroke-width:1.0;"/><path d="M671.5,338.7969 L671.5,363.7969 L808.5,363.7969 L808.5,348.7969 L798.5,338.7969 L671.5,338.7969 " fill="#F5F5F5" style="stroke:#C90000;stroke-width:0.5;"/><path d="M798.5,338.7969 L798.5,348.7969 L808.5,348.7969 L798.5,338.7969 " fill="#F5F5F5" style="stroke:#C90000;stroke-width:0.5;"/><text fill="#000000" font-family="sans-serif" font-size="13" lengthAdjust="spacing" textLength="116" x="677.5" y="355.8638">Exportar Proyecto</text></g><!--link P?GINA_PROYECTO to CONFIGURACI?N_DE_SIMULACI?N--><g id="link_P&#193;GINA_PROYECTO_CONFIGURACI&#211;N_DE_SIMULACI&#211;N"><path d="M491.034,524.4199 C451.44,534.8789 412,545.2969 412,545.2969 C412,545.2969 338.8362,583.112 286.0972,610.37 " fill="none" id="P&#193;GINA_PROYECTO-to-CONFIGURACI&#211;N_DE_SIMULACI&#211;N" style="stroke:#218C00;stroke-width:1.0;"/><polygon fill="#218C00" points="280.767,613.1249,290.5988,612.546,285.2088,610.8291,286.9257,605.4391,280.767,613.1249" style="stroke:#218C00;stroke-width:1.0;"/><path d="M417,550.2969 L417,590.2969 L552,590.2969 L552,560.2969 L542,550.2969 L417,550.2969 " fill="#F5F5F5" style="stroke:#C90000;stroke-width:0.5;"/><path d="M542,550.2969 L542,560.2969 L552,560.2969 L542,550.2969 " fill="#F5F5F5" style="stroke:#C90000;stroke-width:0.5;"/><text fill="#000000" font-family="sans-serif" font-size="13" lengthAdjust="spacing" textLength="103" x="423" y="567.3638">Abrir Simulaci&#243;n</text><text fill="#000000" font-family="sans-serif" font-size="13" lengthAdjust="spacing" textLength="114" x="423" y="582.4966">Nueva Simulaci&#243;n</text></g><!--link P?GINA_PROYECTO to REPORTE--><g id="link_P&#193;GINA_PROYECTO_REPORTE"><path d="M571,527.5629 C571,566.1789 571,637.2969 571,637.2969 C571,637.2969 571,637.2969 571,911.7969 C571,911.7969 541.8147,938.4074 516.8627,961.1577 " fill="none" id="P&#193;GINA_PROYECTO-to-REPORTE" style="stroke:#218C00;stroke-width:1.0;"/><polygon fill="#218C00" points="512.429,965.2002,521.7746,962.0922,516.1238,961.8314,516.3846,956.1806,512.429,965.2002" style="stroke:#218C00;stroke-width:1.0;"/><path d="M576,758.2969 L576,783.2969 L674,783.2969 L674,768.2969 L664,758.2969 L576,758.2969 " fill="#F5F5F5" style="stroke:#C90000;stroke-width:0.5;"/><path d="M664,758.2969 L664,768.2969 L674,768.2969 L664,758.2969 " fill="#F5F5F5" style="stroke:#C90000;stroke-width:0.5;"/><text fill="#000000" font-family="sans-serif" font-size="13" lengthAdjust="spacing" textLength="77" x="582" y="775.3638">Ver Reporte</text></g><!--link CONFIGURACI?N_DE_SIMULACI?N to SIMULANDO--><g id="link_CONFIGURACI&#211;N_DE_SIMULACI&#211;N_SIMULANDO"><path d="M225.673,663.5219 C215.897,691.9609 201,735.2969 201,735.2969 C201,735.2969 147.5014,774.3928 108.9853,802.5388 " fill="none" id="CONFIGURACI&#211;N_DE_SIMULACI&#211;N-to-SIMULANDO" style="stroke:#218C00;stroke-width:1.0;"/><polygon fill="#218C00" points="104.1409,806.0789,113.7675,803.9984,108.1779,803.1288,109.0474,797.5392,104.1409,806.0789" style="stroke:#218C00;stroke-width:1.0;"/><path d="M218,705.2969 L218,730.2969 L349,730.2969 L349,715.2969 L339,705.2969 L218,705.2969 " fill="#F5F5F5" style="stroke:#C90000;stroke-width:0.5;"/><path d="M339,705.2969 L339,715.2969 L349,715.2969 L339,705.2969 " fill="#F5F5F5" style="stroke:#C90000;stroke-width:0.5;"/><text fill="#000000" font-family="sans-serif" font-size="13" lengthAdjust="spacing" textLength="110" x="224" y="722.3638">Iniciar Simulaci&#243;n</text></g><!--link CONFIGURACI?N_DE_SIMULACI?N to CONFIGURACI?N_DE_SIMULACI?N--><g id="link_CONFIGURACI&#211;N_DE_SIMULACI&#211;N_CONFIGURACI&#211;N_DE_SIMULACI&#211;N"><path d="M363.938,632.2109 C374.764,633.5199 381.5,635.5489 381.5,638.2969 C381.5,641.0449 380.7206,642.3536 369.8946,643.6626 " fill="none" id="CONFIGURACI&#211;N_DE_SIMULACI&#211;N-to-CONFIGURACI&#211;N_DE_SIMULACI&#211;N" style="stroke:#218C00;stroke-width:1.0;"/><polygon fill="#218C00" points="363.938,644.3829,373.3531,647.2736,368.9018,643.7827,372.3928,639.3315,363.938,644.3829" style="stroke:#218C00;stroke-width:1.0;"/><path d="M386.5,625.7969 L386.5,650.7969 L535.5,650.7969 L535.5,635.7969 L525.5,625.7969 L386.5,625.7969 " fill="#F5F5F5" style="stroke:#C90000;stroke-width:0.5;"/><path d="M525.5,625.7969 L525.5,635.7969 L535.5,635.7969 L525.5,625.7969 " fill="#F5F5F5" style="stroke:#C90000;stroke-width:0.5;"/><text fill="#000000" font-family="sans-serif" font-size="13" lengthAdjust="spacing" textLength="128" x="392.5" y="642.8638">Importar Simulaci&#243;n</text></g><!--link SIMULANDO to CONFIGURACI?N_DE_SIMULACI?N--><g id="link_SIMULANDO_CONFIGURACI&#211;N_DE_SIMULACI&#211;N"><path d="M62.2442,805.8319 C52.1702,777.6839 37,735.2969 37,735.2969 C37,735.2969 37,700.2969 37,700.2969 C37,700.2969 95.5636,682.1626 150.6915,665.0926 " fill="none" id="SIMULANDO-to-CONFIGURACI&#211;N_DE_SIMULACI&#211;N" style="stroke:#218C00;stroke-width:1.0;"/><polygon fill="#218C00" points="156.423,663.3179,146.6426,662.159,151.6467,664.7968,149.0089,669.801,156.423,663.3179" style="stroke:#218C00;stroke-width:1.0;"/><path d="M42,705.2969 L42,730.2969 L192,730.2969 L192,715.2969 L182,705.2969 L42,705.2969 " fill="#F5F5F5" style="stroke:#C90000;stroke-width:0.5;"/><path d="M182,705.2969 L182,715.2969 L192,715.2969 L182,705.2969 " fill="#F5F5F5" style="stroke:#C90000;stroke-width:0.5;"/><text fill="#000000" font-family="sans-serif" font-size="13" lengthAdjust="spacing" textLength="129" x="48" y="722.3638">Cancelar Simulaci&#243;n</text></g><!--link SIMULANDO to SIMULANDO--><g id="link_SIMULANDO_SIMULANDO"><path d="M123.202,823.7469 C133.592,824.5969 141,827.1129 141,831.2969 C141,835.4809 139.572,837.5077 129.182,838.3577 " fill="none" id="SIMULANDO-to-SIMULANDO" style="stroke:#218C00;stroke-width:1.0;"/><polygon fill="#218C00" points="123.202,838.8469,132.4982,842.0997,128.1854,838.4392,131.8459,834.1264,123.202,838.8469" style="stroke:#218C00;stroke-width:1.0;"/><path d="M146,818.7969 L146,843.7969 L361,843.7969 L361,828.7969 L351,818.7969 L146,818.7969 " fill="#F5F5F5" style="stroke:#C90000;stroke-width:0.5;"/><path d="M351,818.7969 L351,828.7969 L361,828.7969 L351,818.7969 " fill="#F5F5F5" style="stroke:#C90000;stroke-width:0.5;"/><text fill="#000000" font-family="sans-serif" font-size="13" lengthAdjust="spacing" textLength="194" x="152" y="835.8638">Verificar Estado de Simulaci&#243;n</text></g><!--link SIMULANDO to REPORTE--><g id="link_SIMULANDO_REPORTE"><path d="M94.2155,856.5219 C121.47,884.9609 163,928.2969 163,928.2969 C163,928.2969 348.3782,963.3063 436.5432,979.9567 " fill="none" id="SIMULANDO-to-REPORTE" style="stroke:#218C00;stroke-width:1.0;"/><polygon fill="#218C00" points="442.439,981.0702,434.3376,975.4695,437.5258,980.1423,432.853,983.3305,442.439,981.0702" style="stroke:#218C00;stroke-width:1.0;"/><path d="M168,898.2969 L168,923.2969 L383,923.2969 L383,908.2969 L373,898.2969 L168,898.2969 " fill="#F5F5F5" style="stroke:#C90000;stroke-width:0.5;"/><path d="M373,898.2969 L373,908.2969 L383,908.2969 L373,898.2969 " fill="#F5F5F5" style="stroke:#C90000;stroke-width:0.5;"/><text fill="#000000" font-family="sans-serif" font-size="13" lengthAdjust="spacing" textLength="194" x="174" y="915.3638">Verificar Estado de Simulaci&#243;n</text></g><!--link REPORTE to REPORTE--><g id="link_REPORTE_REPORTE"><path d="M529.669,982.5776 C539.93,983.2121 547.5,985.7852 547.5,990.2969 C547.5,994.8086 545.9186,997.0114 535.6576,997.6459 " fill="none" id="REPORTE-to-REPORTE" style="stroke:#218C00;stroke-width:1.0;"/><polygon fill="#218C00" points="529.669,998.0162,538.8987,1001.4531,534.6595,997.7076,538.405,993.4683,529.669,998.0162" style="stroke:#218C00;stroke-width:1.0;"/><path d="M552.5,970.2969 L552.5,1010.2969 L691.5,1010.2969 L691.5,980.2969 L681.5,970.2969 L552.5,970.2969 " fill="#F5F5F5" style="stroke:#C90000;stroke-width:0.5;"/><path d="M681.5,970.2969 L681.5,980.2969 L691.5,980.2969 L681.5,970.2969 " fill="#F5F5F5" style="stroke:#C90000;stroke-width:0.5;"/><text fill="#000000" font-family="sans-serif" font-size="13" lengthAdjust="spacing" textLength="110" x="558.5" y="987.3638">Exportar Reporte</text><text fill="#000000" font-family="sans-serif" font-size="13" lengthAdjust="spacing" textLength="108" x="558.5" y="1002.4966">Imprimir Reporte</text></g><!--link REPORTE to P?GINA_PROYECTO--><g id="link_REPORTE_P&#193;GINA_PROYECTO"><path d="M529.711,973.6136 C592.827,950.9679 702,911.7969 702,911.7969 C702,637.2969 702,637.2969 702,637.2969 C702,637.2969 636.6683,570.4693 598.9173,531.8533 " fill="none" id="REPORTE-to-P&#193;GINA_PROYECTO" style="stroke:#218C00;stroke-width:1.0;"/><polygon fill="#218C00" points="594.723,527.5629,598.1542,536.7947,598.2183,531.1382,603.8748,531.2023,594.723,527.5629" style="stroke:#218C00;stroke-width:1.0;"/><path d="M707,758.2969 L707,783.2969 L835,783.2969 L835,768.2969 L825,758.2969 L707,758.2969 " fill="#F5F5F5" style="stroke:#C90000;stroke-width:0.5;"/><path d="M825,758.2969 L825,768.2969 L835,768.2969 L825,758.2969 " fill="#F5F5F5" style="stroke:#C90000;stroke-width:0.5;"/><text fill="#000000" font-family="sans-serif" font-size="13" lengthAdjust="spacing" textLength="107" x="713" y="775.3638">Guardar Reporte</text></g><!--link REPORTE to CONFIGURACI?N_DE_SIMULACI?N--><g id="link_REPORTE_CONFIGURACI&#211;N_DE_SIMULACI&#211;N"><path d="M459.882,965.2002 C435.224,942.4499 402,911.7969 402,911.7969 C402,716.7969 402,716.7969 402,716.7969 C402,716.7969 341.0002,688.6572 291.6832,665.9072 " fill="none" id="REPORTE-to-CONFIGURACI&#211;N_DE_SIMULACI&#211;N" style="stroke:#218C00;stroke-width:1.0;"/><polygon fill="#218C00" points="286.235,663.3939,292.7318,670.796,290.7752,665.4883,296.0829,663.5316,286.235,663.3939" style="stroke:#218C00;stroke-width:1.0;"/><path d="M407,818.7969 L407,843.7969 L538,843.7969 L538,828.7969 L528,818.7969 L407,818.7969 " fill="#F5F5F5" style="stroke:#C90000;stroke-width:0.5;"/><path d="M528,818.7969 L528,828.7969 L538,828.7969 L528,818.7969 " fill="#F5F5F5" style="stroke:#C90000;stroke-width:0.5;"/><text fill="#000000" font-family="sans-serif" font-size="13" lengthAdjust="spacing" textLength="110" x="413" y="835.8638">Editar Simulaci&#243;n</text></g><g id="LOG"><rect fill="#FAF4B4" height="50" rx="12.5" ry="12.5" style="stroke:#C90000;stroke-width:0.5;" width="50" x="292.5" y="1120"/><line style="stroke:#C90000;stroke-width:0.5;" x1="292.5" x2="342.5" y1="1146.2969" y2="1146.2969"/><text fill="#000000" font-family="sans-serif" font-size="14" lengthAdjust="spacing" textLength="30" x="302.5" y="1137.9951">LOG</text></g><ellipse cx="490.5" cy="1145" fill="none" rx="11" ry="11" style="stroke:#222222;stroke-width:1.0;"/><ellipse cx="490.5" cy="1145" fill="#222222" rx="6" ry="6" style="stroke:#222222;stroke-width:1.0;"/><!--link *start* to INICIO--><g id="link_*start*_INICIO"><path d="M425.5,26.01 C425.5,39.89 425.5,60.97 425.5,80.84 " fill="none" id="*start*-to-INICIO" style="stroke:#218C00;stroke-width:1.0;"/><polygon fill="#218C00" points="425.5,86.84,429.5,77.84,425.5,81.84,421.5,77.84,425.5,86.84" style="stroke:#218C00;stroke-width:1.0;"/></g><!--link INICIO to FISC--><g id="link_INICIO_FISC"><path d="M425.5,137.13 C425.5,158.28 425.5,185.857 425.5,225.765 " fill="none" id="INICIO-to-FISC" style="stroke:#218C00;stroke-width:1.0;"/><polygon fill="#218C00" points="425.5,231.765,429.5,222.765,425.5,226.765,421.5,222.765,425.5,231.765" style="stroke:#218C00;stroke-width:1.0;"/><path d="M430.5,172 L430.5,197 L485.5,197 L485.5,182 L475.5,172 L430.5,172 " fill="#F5F5F5" style="stroke:#C90000;stroke-width:0.5;"/><path d="M475.5,172 L475.5,182 L485.5,182 L475.5,172 " fill="#F5F5F5" style="stroke:#C90000;stroke-width:0.5;"/><text fill="#000000" font-family="sans-serif" font-size="13" lengthAdjust="spacing" textLength="34" x="436.5" y="189.0669">Login</text></g><!--link INICIO to INICIO--><g id="link_INICIO_INICIO"><path d="M457.316,102.39 C475.326,100.52 492,103.72 492,112 C492,120.28 481.2939,124.0997 463.2839,122.2297 " fill="none" id="INICIO-to-INICIO" style="stroke:#218C00;stroke-width:1.0;"/><polygon fill="#218C00" points="457.316,121.61,465.8548,126.5181,462.2893,122.1264,466.681,118.5609,457.316,121.61" style="stroke:#218C00;stroke-width:1.0;"/><path d="M497,99.5 L497,124.5 L628,124.5 L628,109.5 L618,99.5 L497,99.5 " fill="#F5F5F5" style="stroke:#C90000;stroke-width:0.5;"/><path d="M618,99.5 L618,109.5 L628,109.5 L618,99.5 " fill="#F5F5F5" style="stroke:#C90000;stroke-width:0.5;"/><text fill="#000000" font-family="sans-serif" font-size="13" lengthAdjust="spacing" textLength="110" x="503" y="116.5669">Registrar Usuario</text></g><!--link LOG to LOG--><g id="link_LOG_LOG"><path d="M342.778,1132.8184 C360.273,1129.127 377.5,1133.1875 377.5,1145 C377.5,1156.8125 366.1437,1162.1118 348.6487,1158.4203 " fill="none" id="LOG-to-LOG" style="stroke:#218C00;stroke-width:1.0;"/><polygon fill="#218C00" points="342.778,1157.1816,350.7583,1162.9535,347.6703,1158.2139,352.4099,1155.1259,342.778,1157.1816" style="stroke:#218C00;stroke-width:1.0;"/><path d="M382.5,1132.5 L382.5,1157.5 L456.5,1157.5 L456.5,1142.5 L446.5,1132.5 L382.5,1132.5 " fill="#F5F5F5" style="stroke:#C90000;stroke-width:0.5;"/><path d="M446.5,1132.5 L446.5,1142.5 L456.5,1142.5 L446.5,1132.5 " fill="#F5F5F5" style="stroke:#C90000;stroke-width:0.5;"/><text fill="#000000" font-family="sans-serif" font-size="13" lengthAdjust="spacing" textLength="53" x="388.5" y="1149.5669">Imprimir</text></g><!--link FISC to LOG--><g id="link_FISC_LOG"><path d="M342.413,1025.317 C334.07,1065.065 328.2797,1092.6492 323.8387,1113.8041 " fill="none" id="FISC-to-LOG" style="stroke:#218C00;stroke-width:1.0;"/><polygon fill="#218C00" points="322.606,1119.6761,328.3697,1111.6899,323.6332,1114.7828,320.5404,1110.0463,322.606,1119.6761" style="stroke:#218C00;stroke-width:1.0;"/><path d="M341.5,1060 L341.5,1085 L419.5,1085 L419.5,1070 L409.5,1060 L341.5,1060 " fill="#F5F5F5" style="stroke:#C90000;stroke-width:0.5;"/><path d="M409.5,1060 L409.5,1070 L419.5,1070 L409.5,1060 " fill="#F5F5F5" style="stroke:#C90000;stroke-width:0.5;"/><text fill="#000000" font-family="sans-serif" font-size="13" lengthAdjust="spacing" textLength="57" x="347.5" y="1077.0669">Abrir Log</text></g><!--link FISC to *end*--><g id="link_FISC_*end*"><path d="M475.506,1025.317 C481.885,1075.8071 486.2291,1110.1937 488.4861,1128.0615 " fill="none" id="FISC-to-*end*" style="stroke:#218C00;stroke-width:1.0;"/><polygon fill="#218C00" points="489.238,1134.0142,492.0786,1124.5839,488.6114,1129.0536,484.1416,1125.5864,489.238,1134.0142" style="stroke:#218C00;stroke-width:1.0;"/><path d="M486.5,1060 L486.5,1085 L557.5,1085 L557.5,1070 L547.5,1060 L486.5,1060 " fill="#F5F5F5" style="stroke:#C90000;stroke-width:0.5;"/><path d="M547.5,1060 L547.5,1070 L557.5,1070 L547.5,1060 " fill="#F5F5F5" style="stroke:#C90000;stroke-width:0.5;"/><text fill="#000000" font-family="sans-serif" font-size="13" lengthAdjust="spacing" textLength="50" x="492.5" y="1077.0669">Log Out</text></g><!--SRC=[bLJTQjim5BxNKnpetI2mZWwscq7gka6GsSP92cMCeCfA9k98uTZU5aelzWnxb3v2NgooxDgEVvh6lZ0w_lHztpb7Hyb6gXr3jWMbKt7D-6QDEbEHesEDSB7wdByaEKPfZ0IM2FxretaQ28Qe_vG_Frr-uKS_avJrgR3LrSDL1_QcJ2oLIFSx0JiTx_D5syByb-GR9P84BWdvyU4dZ4RVW7hKeJuXnNSKcT0jdJb0yhn0gvnsGm2cUYqL4Igo2JVX9KCB7ugrJ59a28iaOoXrlPVCycGAcSVAI73uDw7UU1c4r7DeC9uIqWbPlJhgtxlElACyVa294A3U2vvgC16wtMbCMHqqCIyJltK3zUeEJik- -clfkd_RAZKdaBPho-dutYsTBCAnGm__lUMDkvpHxujfiUpFQoQtMSouF3ohCWjs5AirEufvbKCtyCEvs-Q-4sWwbliNpKgywSzcKAozcquNg99SCXpmTfhuhD9K3UvLCubKDcqHpk9scE8Y7ipac7cm7AR0SYMveN7DA4SQ8l4kmk5-lPEEb0osg0DirSajZm2KGuDoA_lEHPFor3HEpF17x1JBMHrn8pdOQ_94oDIVsDgPRyz1iKarDjXho9hemHSpP-w-pWQ3DpTNpoq9VfPMw1S0]--></g></svg>