<svg xmlns="http://www.w3.org/2000/svg" xmlns:xlink="http://www.w3.org/1999/xlink" contentStyleType="text/css" height="1179px" preserveAspectRatio="none" style="width:974px;height:1179px;background:#FFFFFF;" version="1.1" viewBox="0 0 974 1179" width="974px" zoomAndPan="magnify"><defs/><g><ellipse cx="484" cy="16" fill="#222222" rx="10" ry="10" style="stroke:#222222;stroke-width:1.0;"/><g id="INICIO"><rect fill="#FAF4B4" height="50" rx="12.5" ry="12.5" style="stroke:#C90000;stroke-width:0.5;" width="60" x="454" y="86"/><line style="stroke:#C90000;stroke-width:0.5;" x1="454" x2="514" y1="112.2969" y2="112.2969"/><text fill="#000000" font-family="sans-serif" font-size="14" lengthAdjust="spacing" textLength="40" x="464" y="103.9951">INICIO</text></g><path d="M19.5,231 L948.5,231 A12.5,12.5 0 0 1 961,243.5 L961,257.2969 L7,257.2969 L7,243.5 A12.5,12.5 0 0 1 19.5,231 " fill="#FAF4B4" style="stroke:#FAF4B4;stroke-width:1.0;"/><rect fill="none" height="797.2969" rx="12.5" ry="12.5" style="stroke:#C90000;stroke-width:0.5;" width="954" x="7" y="231"/><line style="stroke:#C90000;stroke-width:0.5;" x1="7" x2="961" y1="257.2969" y2="257.2969"/><text fill="#000000" font-family="sans-serif" font-size="14" lengthAdjust="spacing" textLength="30" x="469" y="248.9951">FISC</text><ellipse cx="338" cy="278.2969" fill="#222222" rx="10" ry="10" style="stroke:#222222;stroke-width:1.0;"/><g id="FISC.ESTADO_PRINCIPAL"><rect fill="#FAF4B4" height="50" rx="12.5" ry="12.5" style="stroke:#C90000;stroke-width:0.5;" width="155" x="260.5" y="359.2969"/><line style="stroke:#C90000;stroke-width:0.5;" x1="260.5" x2="415.5" y1="385.5938" y2="385.5938"/><text fill="#000000" font-family="sans-serif" font-size="14" lengthAdjust="spacing" textLength="135" x="270.5" y="377.292">ESTADO_PRINCIPAL</text></g><g id="FISC.ESTADO_PROYECTO"><rect fill="#FAF4B4" height="50" rx="12.5" ry="12.5" style="stroke:#C90000;stroke-width:0.5;" width="163" x="256.5" y="480.2969"/><line style="stroke:#C90000;stroke-width:0.5;" x1="256.5" x2="419.5" y1="506.5938" y2="506.5938"/><text fill="#000000" font-family="sans-serif" font-size="14" lengthAdjust="spacing" textLength="143" x="266.5" y="498.292">ESTADO_PROYECTO</text></g><g id="FISC.REPORTE"><rect fill="#FAF4B4" height="50" rx="12.5" ry="12.5" style="stroke:#C90000;stroke-width:0.5;" width="87" x="330.5" y="968.2969"/><line style="stroke:#C90000;stroke-width:0.5;" x1="330.5" x2="417.5" y1="994.5938" y2="994.5938"/><text fill="#000000" font-family="sans-serif" font-size="14" lengthAdjust="spacing" textLength="67" x="340.5" y="986.292">REPORTE</text></g><g id="FISC.CONFIGURACI&#211;N_DE_SIMULACI&#211;N"><rect fill="#FAF4B4" height="50" rx="12.5" ry="12.5" style="stroke:#C90000;stroke-width:0.5;" width="254" x="205" y="601.2969"/><line style="stroke:#C90000;stroke-width:0.5;" x1="205" x2="459" y1="627.5938" y2="627.5938"/><text fill="#000000" font-family="sans-serif" font-size="14" lengthAdjust="spacing" textLength="234" x="215" y="619.292">CONFIGURACI&#211;N_DE_SIMULACI&#211;N</text></g><g id="FISC.SIMULANDO"><rect fill="#FAF4B4" height="50" rx="12.5" ry="12.5" style="stroke:#C90000;stroke-width:0.5;" width="102" x="429" y="809.2969"/><line style="stroke:#C90000;stroke-width:0.5;" x1="429" x2="531" y1="835.5938" y2="835.5938"/><text fill="#000000" font-family="sans-serif" font-size="14" lengthAdjust="spacing" textLength="82" x="439" y="827.292">SIMULANDO</text></g><!--link *start*FISC to ESTADO_PRINCIPAL--><g id="link_*start*FISC_ESTADO_PRINCIPAL"><path d="M338,288.5269 C338,304.2369 338,330.6569 338,353.1669 " fill="none" id="*start*FISC-to-ESTADO_PRINCIPAL" style="stroke:#218C00;stroke-width:1.0;"/><polygon fill="#218C00" points="338,359.1669,342,350.1669,338,354.1669,334,350.1669,338,359.1669" style="stroke:#218C00;stroke-width:1.0;"/><path d="M343,311.2969 L343,336.2969 L474,336.2969 L474,321.2969 L464,311.2969 L343,311.2969 " fill="#F5F5F5" style="stroke:#C90000;stroke-width:0.5;"/><path d="M464,311.2969 L464,321.2969 L474,321.2969 L464,311.2969 " fill="#F5F5F5" style="stroke:#C90000;stroke-width:0.5;"/><text fill="#000000" font-family="sans-serif" font-size="13" lengthAdjust="spacing" textLength="102" x="349" y="328.3638">Listar Proyectos</text></g><!--link ESTADO_PRINCIPAL to ESTADO_PROYECTO--><g id="link_ESTADO_PRINCIPAL_ESTADO_PROYECTO"><path d="M260.13,395.5169 C165.41,407.9469 18,427.2969 18,427.2969 C18,427.2969 18,462.2969 18,462.2969 C18,462.2969 155.2511,480.3057 250.0611,492.7557 " fill="none" id="ESTADO_PRINCIPAL-to-ESTADO_PROYECTO" style="stroke:#218C00;stroke-width:1.0;"/><polygon fill="#218C00" points="256.01,493.5369,247.6074,488.3991,251.0526,492.8859,246.5658,496.331,256.01,493.5369" style="stroke:#218C00;stroke-width:1.0;"/><path d="M23,432.2969 L23,457.2969 L142,457.2969 L142,442.2969 L132,432.2969 L23,432.2969 " fill="#F5F5F5" style="stroke:#C90000;stroke-width:0.5;"/><path d="M132,432.2969 L132,442.2969 L142,442.2969 L132,432.2969 " fill="#F5F5F5" style="stroke:#C90000;stroke-width:0.5;"/><text fill="#000000" font-family="sans-serif" font-size="13" lengthAdjust="spacing" textLength="90" x="29" y="449.3638">Abrir Proyecto</text></g><!--link ESTADO_PRINCIPAL to ESTADO_PROYECTO--><g id="link_ESTADO_PRINCIPAL_ESTADO_PROYECTO"><path d="M260.39,404.6969 C216.37,415.7069 170,427.2969 170,427.2969 C170,427.2969 170,462.2969 170,462.2969 C170,462.2969 207.8395,471.7504 250.6395,482.4604 " fill="none" id="ESTADO_PRINCIPAL-to-ESTADO_PROYECTO-1" style="stroke:#218C00;stroke-width:1.0;"/><polygon fill="#218C00" points="256.46,483.9169,248.7002,477.8518,251.6096,482.7031,246.7582,485.6125,256.46,483.9169" style="stroke:#218C00;stroke-width:1.0;"/><path d="M175,432.2969 L175,457.2969 L311,457.2969 L311,442.2969 L301,432.2969 L175,432.2969 " fill="#F5F5F5" style="stroke:#C90000;stroke-width:0.5;"/><path d="M301,432.2969 L301,442.2969 L311,442.2969 L301,432.2969 " fill="#F5F5F5" style="stroke:#C90000;stroke-width:0.5;"/><text fill="#000000" font-family="sans-serif" font-size="13" lengthAdjust="spacing" textLength="115" x="181" y="449.3638">Importar Proyecto</text></g><!--link ESTADO_PRINCIPAL to ESTADO_PROYECTO--><g id="link_ESTADO_PRINCIPAL_ESTADO_PROYECTO"><path d="M338,409.6669 C338,430.1969 338,453.4369 338,473.9569 " fill="none" id="ESTADO_PRINCIPAL-to-ESTADO_PROYECTO-2" style="stroke:#218C00;stroke-width:1.0;"/><polygon fill="#218C00" points="338,479.9569,342,470.9569,338,474.9569,334,470.9569,338,479.9569" style="stroke:#218C00;stroke-width:1.0;"/><path d="M343,432.2969 L343,457.2969 L463,457.2969 L463,442.2969 L453,432.2969 L343,432.2969 " fill="#F5F5F5" style="stroke:#C90000;stroke-width:0.5;"/><path d="M453,432.2969 L453,442.2969 L463,442.2969 L453,432.2969 " fill="#F5F5F5" style="stroke:#C90000;stroke-width:0.5;"/><text fill="#000000" font-family="sans-serif" font-size="13" lengthAdjust="spacing" textLength="95" x="349" y="449.3638">Crear Proyecto</text></g><!--link ESTADO_PRINCIPAL to ESTADO_PROYECTO--><g id="link_ESTADO_PRINCIPAL_ESTADO_PROYECTO"><path d="M414.2,409.7269 C443.02,418.9669 469,427.2969 469,427.2969 C469,427.2969 469,462.2969 469,462.2969 C469,462.2969 448.7335,468.7951 419.9135,478.0351 " fill="none" id="ESTADO_PRINCIPAL-to-ESTADO_PROYECTO-3" style="stroke:#218C00;stroke-width:1.0;"/><polygon fill="#218C00" points="414.2,479.8669,423.9915,480.9282,418.9613,478.3404,421.5491,473.3101,414.2,479.8669" style="stroke:#218C00;stroke-width:1.0;"/><path d="M474,432.2969 L474,457.2969 L619,457.2969 L619,442.2969 L609,432.2969 L474,432.2969 " fill="#F5F5F5" style="stroke:#C90000;stroke-width:0.5;"/><path d="M609,432.2969 L609,442.2969 L619,442.2969 L609,432.2969 " fill="#F5F5F5" style="stroke:#C90000;stroke-width:0.5;"/><text fill="#000000" font-family="sans-serif" font-size="13" lengthAdjust="spacing" textLength="124" x="480" y="449.3638">Listar Simulaciones</text></g><!--link ESTADO_PRINCIPAL to ESTADO_PRINCIPAL--><g id="link_ESTADO_PRINCIPAL_ESTADO_PRINCIPAL"><path d="M415.94,374.2369 C426.48,375.9169 433.5,379.2769 433.5,384.2969 C433.5,389.3169 432.4052,391.7324 421.8652,393.4124 " fill="none" id="ESTADO_PRINCIPAL-to-ESTADO_PRINCIPAL" style="stroke:#218C00;stroke-width:1.0;"/><polygon fill="#218C00" points="415.94,394.3569,425.4574,396.8904,420.8777,393.5698,424.1982,388.9901,415.94,394.3569" style="stroke:#218C00;stroke-width:1.0;"/><path d="M438.5,371.7969 L438.5,396.7969 L573.5,396.7969 L573.5,381.7969 L563.5,371.7969 L438.5,371.7969 " fill="#F5F5F5" style="stroke:#C90000;stroke-width:0.5;"/><path d="M563.5,371.7969 L563.5,381.7969 L573.5,381.7969 L563.5,371.7969 " fill="#F5F5F5" style="stroke:#C90000;stroke-width:0.5;"/><text fill="#000000" font-family="sans-serif" font-size="13" lengthAdjust="spacing" textLength="114" x="444.5" y="388.8638">Exportar Proyecto</text></g><!--link ESTADO_PROYECTO to ESTADO_PRINCIPAL--><g id="link_ESTADO_PROYECTO_ESTADO_PRINCIPAL"><path d="M419.94,492.4269 C505.7,480.0069 628,462.2969 628,462.2969 C628,462.2969 628,427.2969 628,427.2969 C628,427.2969 507.5581,409.8567 421.6481,397.4167 " fill="none" id="ESTADO_PROYECTO-to-ESTADO_PRINCIPAL" style="stroke:#218C00;stroke-width:1.0;"/><polygon fill="#218C00" points="415.71,396.5569,424.0439,401.8054,420.6584,397.2734,425.1903,393.8879,415.71,396.5569" style="stroke:#218C00;stroke-width:1.0;"/><path d="M633,432.2969 L633,457.2969 L756,457.2969 L756,442.2969 L746,432.2969 L633,432.2969 " fill="#F5F5F5" style="stroke:#C90000;stroke-width:0.5;"/><path d="M746,432.2969 L746,442.2969 L756,442.2969 L746,432.2969 " fill="#F5F5F5" style="stroke:#C90000;stroke-width:0.5;"/><text fill="#000000" font-family="sans-serif" font-size="13" lengthAdjust="spacing" textLength="102" x="639" y="449.3638">Listar Proyectos</text></g><!--link REPORTE to ESTADO_PROYECTO--><g id="link_REPORTE_ESTADO_PROYECTO"><path d="M417.79,984.3669 C526.87,964.6169 802,914.7969 802,914.7969 C802,625.2969 802,625.2969 802,625.2969 C802,625.2969 638,548.2969 638,548.2969 C638,548.2969 514.7421,531.0384 425.9221,518.6084 " fill="none" id="REPORTE-to-ESTADO_PROYECTO" style="stroke:#218C00;stroke-width:1.0;"/><polygon fill="#218C00" points="419.98,517.7769,428.3388,522.9856,424.9317,518.4699,429.4475,515.0628,419.98,517.7769" style="stroke:#218C00;stroke-width:1.0;"/><path d="M807,746.2969 L807,786.2969 L952,786.2969 L952,756.2969 L942,746.2969 L807,746.2969 " fill="#F5F5F5" style="stroke:#C90000;stroke-width:0.5;"/><path d="M942,746.2969 L942,756.2969 L952,756.2969 L942,746.2969 " fill="#F5F5F5" style="stroke:#C90000;stroke-width:0.5;"/><text fill="#000000" font-family="sans-serif" font-size="13" lengthAdjust="spacing" textLength="106" x="813" y="763.3638">Guardar Reporte</text><text fill="#000000" font-family="sans-serif" font-size="13" lengthAdjust="spacing" textLength="124" x="813" y="778.4966">Listar Simulaciones</text></g><!--link ESTADO_PROYECTO to CONFIGURACI?N_DE_SIMULACI?N--><g id="link_ESTADO_PROYECTO_CONFIGURACI&#211;N_DE_SIMULACI&#211;N"><path d="M256.28,528.1569 C218.13,538.3669 181,548.2969 181,548.2969 C181,548.2969 181,583.2969 181,583.2969 C181,583.2969 205.1594,590.019 238.3794,599.259 " fill="none" id="ESTADO_PROYECTO-to-CONFIGURACI&#211;N_DE_SIMULACI&#211;N" style="stroke:#218C00;stroke-width:1.0;"/><polygon fill="#218C00" points="244.16,600.8669,236.5611,594.6014,239.3429,599.527,234.4173,602.3088,244.16,600.8669" style="stroke:#218C00;stroke-width:1.0;"/><path d="M186,553.2969 L186,578.2969 L311,578.2969 L311,563.2969 L301,553.2969 L186,553.2969 " fill="#F5F5F5" style="stroke:#C90000;stroke-width:0.5;"/><path d="M301,553.2969 L301,563.2969 L311,563.2969 L301,553.2969 " fill="#F5F5F5" style="stroke:#C90000;stroke-width:0.5;"/><text fill="#000000" font-family="sans-serif" font-size="13" lengthAdjust="spacing" textLength="104" x="192" y="570.3638">Abrir Simulaci&#243;n</text></g><!--link ESTADO_PROYECTO to CONFIGURACI?N_DE_SIMULACI?N--><g id="link_ESTADO_PROYECTO_CONFIGURACI&#211;N_DE_SIMULACI&#211;N"><path d="M336.77,530.6669 C335.74,551.1969 334.5608,574.4444 333.5308,594.9644 " fill="none" id="ESTADO_PROYECTO-to-CONFIGURACI&#211;N_DE_SIMULACI&#211;N-1" style="stroke:#218C00;stroke-width:1.0;"/><polygon fill="#218C00" points="333.23,600.9569,337.6762,592.1687,333.4807,595.9632,329.6862,591.7677,333.23,600.9569" style="stroke:#218C00;stroke-width:1.0;"/><path d="M341,553.2969 L341,578.2969 L471,578.2969 L471,563.2969 L461,553.2969 L341,553.2969 " fill="#F5F5F5" style="stroke:#C90000;stroke-width:0.5;"/><path d="M461,553.2969 L461,563.2969 L471,563.2969 L461,553.2969 " fill="#F5F5F5" style="stroke:#C90000;stroke-width:0.5;"/><text fill="#000000" font-family="sans-serif" font-size="13" lengthAdjust="spacing" textLength="109" x="347" y="570.3638">Crear Simulaci&#243;n</text></g><!--link ESTADO_PROYECTO to REPORTE--><g id="link_ESTADO_PROYECTO_REPORTE"><path d="M256.09,527.6669 C216.31,538.0369 177,548.2969 177,548.2969 C177,548.2969 147,625.2969 147,625.2969 C147,625.2969 147,625.2969 147,914.7969 C147,914.7969 258.5918,952.8982 324.5518,975.4182 " fill="none" id="ESTADO_PROYECTO-to-REPORTE" style="stroke:#218C00;stroke-width:1.0;"/><polygon fill="#218C00" points="330.23,977.3569,323.0052,970.6635,325.4982,975.7413,320.4203,978.2344,330.23,977.3569" style="stroke:#218C00;stroke-width:1.0;"/><path d="M152,753.7969 L152,778.7969 L249,778.7969 L249,763.7969 L239,753.7969 L152,753.7969 " fill="#F5F5F5" style="stroke:#C90000;stroke-width:0.5;"/><path d="M239,753.7969 L239,763.7969 L249,763.7969 L239,753.7969 " fill="#F5F5F5" style="stroke:#C90000;stroke-width:0.5;"/><text fill="#000000" font-family="sans-serif" font-size="13" lengthAdjust="spacing" textLength="76" x="158" y="770.8638">Ver Reporte</text></g><!--link CONFIGURACI?N_DE_SIMULACI?N to ESTADO_PROYECTO--><g id="link_CONFIGURACI&#211;N_DE_SIMULACI&#211;N_ESTADO_PROYECTO"><path d="M417.51,600.8669 C449.85,591.6269 479,583.2969 479,583.2969 C479,583.2969 479,548.2969 479,548.2969 C479,548.2969 456.5402,541.6101 425.3602,532.3201 " fill="none" id="CONFIGURACI&#211;N_DE_SIMULACI&#211;N-to-ESTADO_PROYECTO" style="stroke:#218C00;stroke-width:1.0;"/><polygon fill="#218C00" points="419.61,530.6069,427.0931,537.0102,424.4018,532.0346,429.3775,529.3433,419.61,530.6069" style="stroke:#218C00;stroke-width:1.0;"/><path d="M484,553.2969 L484,578.2969 L629,578.2969 L629,563.2969 L619,553.2969 L484,553.2969 " fill="#F5F5F5" style="stroke:#C90000;stroke-width:0.5;"/><path d="M619,553.2969 L619,563.2969 L629,563.2969 L619,553.2969 " fill="#F5F5F5" style="stroke:#C90000;stroke-width:0.5;"/><text fill="#000000" font-family="sans-serif" font-size="13" lengthAdjust="spacing" textLength="124" x="490" y="570.3638">Listar Simulaciones</text></g><!--link CONFIGURACI?N_DE_SIMULACI?N to SIMULANDO--><g id="link_CONFIGURACI&#211;N_DE_SIMULACI&#211;N_SIMULANDO"><path d="M332.76,651.7669 C333.65,680.2169 335,723.2969 335,723.2969 C335,723.2969 400.3199,772.8504 443.0399,805.2604 " fill="none" id="CONFIGURACI&#211;N_DE_SIMULACI&#211;N-to-SIMULANDO" style="stroke:#218C00;stroke-width:1.0;"/><polygon fill="#218C00" points="447.82,808.8869,443.0675,800.2605,443.8366,805.8648,438.2323,806.6339,447.82,808.8869" style="stroke:#218C00;stroke-width:1.0;"/><path d="M340,693.2969 L340,718.2969 L472,718.2969 L472,703.2969 L462,693.2969 L340,693.2969 " fill="#F5F5F5" style="stroke:#C90000;stroke-width:0.5;"/><path d="M462,693.2969 L462,703.2969 L472,703.2969 L462,693.2969 " fill="#F5F5F5" style="stroke:#C90000;stroke-width:0.5;"/><text fill="#000000" font-family="sans-serif" font-size="13" lengthAdjust="spacing" textLength="111" x="346" y="710.3638">Iniciar Simulaci&#243;n</text></g><!--link CONFIGURACI?N_DE_SIMULACI?N to CONFIGURACI?N_DE_SIMULACI?N--><g id="link_CONFIGURACI&#211;N_DE_SIMULACI&#211;N_CONFIGURACI&#211;N_DE_SIMULACI&#211;N"><path d="M459.26,619.9369 C470.18,621.2869 477,623.4069 477,626.2969 C477,629.1869 476.1347,630.5707 465.2147,631.9207 " fill="none" id="CONFIGURACI&#211;N_DE_SIMULACI&#211;N-to-CONFIGURACI&#211;N_DE_SIMULACI&#211;N" style="stroke:#218C00;stroke-width:1.0;"/><polygon fill="#218C00" points="459.26,632.6569,468.6828,635.5224,464.2222,632.0434,467.7012,627.5829,459.26,632.6569" style="stroke:#218C00;stroke-width:1.0;"/><path d="M482,613.7969 L482,638.7969 L632,638.7969 L632,623.7969 L622,613.7969 L482,613.7969 " fill="#F5F5F5" style="stroke:#C90000;stroke-width:0.5;"/><path d="M622,613.7969 L622,623.7969 L632,623.7969 L622,613.7969 " fill="#F5F5F5" style="stroke:#C90000;stroke-width:0.5;"/><text fill="#000000" font-family="sans-serif" font-size="13" lengthAdjust="spacing" textLength="129" x="488" y="630.8638">Importar Simulaci&#243;n</text></g><!--link SIMULANDO to CONFIGURACI?N_DE_SIMULACI?N--><g id="link_SIMULANDO_CONFIGURACI&#211;N_DE_SIMULACI&#211;N"><path d="M479.5,809.0269 C478.64,767.7469 477,688.2969 477,688.2969 C477,688.2969 436.0106,671.0534 395.6706,654.0834 " fill="none" id="SIMULANDO-to-CONFIGURACI&#211;N_DE_SIMULACI&#211;N" style="stroke:#218C00;stroke-width:1.0;"/><polygon fill="#218C00" points="390.14,651.7569,396.8848,658.9338,394.7488,653.6957,399.9869,651.5597,390.14,651.7569" style="stroke:#218C00;stroke-width:1.0;"/><path d="M482,693.2969 L482,718.2969 L633,718.2969 L633,703.2969 L623,693.2969 L482,693.2969 " fill="#F5F5F5" style="stroke:#C90000;stroke-width:0.5;"/><path d="M623,693.2969 L623,703.2969 L633,703.2969 L623,693.2969 " fill="#F5F5F5" style="stroke:#C90000;stroke-width:0.5;"/><text fill="#000000" font-family="sans-serif" font-size="13" lengthAdjust="spacing" textLength="130" x="488" y="710.3638">Cancelar Simulaci&#243;n</text></g><!--link SIMULANDO to SIMULANDO--><g id="link_SIMULANDO_SIMULANDO"><path d="M531.46,826.4769 C541.7,827.3569 549,829.9669 549,834.2969 C549,838.6269 547.678,840.7231 537.438,841.6031 " fill="none" id="SIMULANDO-to-SIMULANDO" style="stroke:#218C00;stroke-width:1.0;"/><polygon fill="#218C00" points="531.46,842.1169,540.7694,845.3316,536.4416,841.6888,540.0845,837.361,531.46,842.1169" style="stroke:#218C00;stroke-width:1.0;"/><path d="M554,821.7969 L554,846.7969 L769,846.7969 L769,831.7969 L759,821.7969 L554,821.7969 " fill="#F5F5F5" style="stroke:#C90000;stroke-width:0.5;"/><path d="M759,821.7969 L759,831.7969 L769,831.7969 L759,821.7969 " fill="#F5F5F5" style="stroke:#C90000;stroke-width:0.5;"/><text fill="#000000" font-family="sans-serif" font-size="13" lengthAdjust="spacing" textLength="194" x="560" y="838.8638">Verificar Estado de Simulaci&#243;n</text></g><!--link SIMULANDO to REPORTE--><g id="link_SIMULANDO_REPORTE"><path d="M463.67,859.4869 C443.81,888.8969 413.8273,933.3041 393.8773,962.8541 " fill="none" id="SIMULANDO-to-REPORTE" style="stroke:#218C00;stroke-width:1.0;"/><polygon fill="#218C00" points="390.52,967.8269,398.8711,962.6059,393.3177,963.6829,392.2407,958.1295,390.52,967.8269" style="stroke:#218C00;stroke-width:1.0;"/><path d="M443,901.2969 L443,926.2969 L658,926.2969 L658,911.2969 L648,901.2969 L443,901.2969 " fill="#F5F5F5" style="stroke:#C90000;stroke-width:0.5;"/><path d="M648,901.2969 L648,911.2969 L658,911.2969 L648,901.2969 " fill="#F5F5F5" style="stroke:#C90000;stroke-width:0.5;"/><text fill="#000000" font-family="sans-serif" font-size="13" lengthAdjust="spacing" textLength="194" x="449" y="918.3638">Verificar Estado de Simulaci&#243;n</text></g><!--link REPORTE to REPORTE--><g id="link_REPORTE_REPORTE"><path d="M417.95,989.3069 C428.07,989.6569 435.5,990.9769 435.5,993.2969 C435.5,995.6169 434.0664,996.7295 423.9464,997.0795 " fill="none" id="REPORTE-to-REPORTE" style="stroke:#218C00;stroke-width:1.0;"/><polygon fill="#218C00" points="417.95,997.2869,427.0829,1000.9734,422.947,997.1141,426.8064,992.9782,417.95,997.2869" style="stroke:#218C00;stroke-width:1.0;"/><path d="M440.5,980.7969 L440.5,1005.7969 L577.5,1005.7969 L577.5,990.7969 L567.5,980.7969 L440.5,980.7969 " fill="#F5F5F5" style="stroke:#C90000;stroke-width:0.5;"/><path d="M567.5,980.7969 L567.5,990.7969 L577.5,990.7969 L567.5,980.7969 " fill="#F5F5F5" style="stroke:#C90000;stroke-width:0.5;"/><text fill="#000000" font-family="sans-serif" font-size="13" lengthAdjust="spacing" textLength="108" x="446.5" y="997.8638">Exportar Reporte</text></g><!--link REPORTE to REPORTE--><g id="link_REPORTE_REPORTE"><path d="M417.76,987.1769 C480.12,983.0969 582.5,985.1369 582.5,993.2969 C582.5,1001.4569 486.1072,1003.8886 423.7472,999.8086 " fill="none" id="REPORTE-to-REPORTE-1" style="stroke:#218C00;stroke-width:1.0;"/><polygon fill="#218C00" points="417.76,999.4169,426.4797,1003.9959,422.7493,999.7433,427.0019,996.013,417.76,999.4169" style="stroke:#218C00;stroke-width:1.0;"/><path d="M587.5,980.7969 L587.5,1005.7969 L715.5,1005.7969 L715.5,990.7969 L705.5,980.7969 L587.5,980.7969 " fill="#F5F5F5" style="stroke:#C90000;stroke-width:0.5;"/><path d="M705.5,980.7969 L705.5,990.7969 L715.5,990.7969 L705.5,980.7969 " fill="#F5F5F5" style="stroke:#C90000;stroke-width:0.5;"/><text fill="#000000" font-family="sans-serif" font-size="13" lengthAdjust="spacing" textLength="107" x="593.5" y="997.8638">Imprimir Reporte</text></g><!--link REPORTE to CONFIGURACI?N_DE_SIMULACI?N--><g id="link_REPORTE_CONFIGURACI&#211;N_DE_SIMULACI&#211;N"><path d="M341.07,967.9869 C310.27,945.2569 269,914.7969 269,914.7969 C269,704.7969 269,704.7969 269,704.7969 C269,704.7969 290.1358,678.803 308.6258,656.053 " fill="none" id="REPORTE-to-CONFIGURACI&#211;N_DE_SIMULACI&#211;N" style="stroke:#218C00;stroke-width:1.0;"/><polygon fill="#218C00" points="312.41,651.3969,303.6295,655.8582,309.2565,655.277,309.8377,660.9039,312.41,651.3969" style="stroke:#218C00;stroke-width:1.0;"/><path d="M274,821.7969 L274,846.7969 L406,846.7969 L406,831.7969 L396,821.7969 L274,821.7969 " fill="#F5F5F5" style="stroke:#C90000;stroke-width:0.5;"/><path d="M396,821.7969 L396,831.7969 L406,831.7969 L396,821.7969 " fill="#F5F5F5" style="stroke:#C90000;stroke-width:0.5;"/><text fill="#000000" font-family="sans-serif" font-size="13" lengthAdjust="spacing" textLength="111" x="280" y="838.8638">Editar Simulaci&#243;n</text></g><g id="LOG"><rect fill="#FAF4B4" height="50" rx="12.5" ry="12.5" style="stroke:#C90000;stroke-width:0.5;" width="50" x="377" y="1123.3"/><line style="stroke:#C90000;stroke-width:0.5;" x1="377" x2="427" y1="1149.5969" y2="1149.5969"/><text fill="#000000" font-family="sans-serif" font-size="14" lengthAdjust="spacing" textLength="29" x="387.5" y="1141.2951">LOG</text></g><ellipse cx="622" cy="1148.3" fill="none" rx="11" ry="11" style="stroke:#222222;stroke-width:1.0;"/><ellipse cx="622" cy="1148.3" fill="#222222" rx="6" ry="6" style="stroke:#222222;stroke-width:1.0;"/><!--link *start* to INICIO--><g id="link_*start*_INICIO"><path d="M484,26.26 C484,39.95 484,60.07 484,79.52 " fill="none" id="*start*-to-INICIO" style="stroke:#218C00;stroke-width:1.0;"/><polygon fill="#218C00" points="484,85.52,488,76.52,484,80.52,480,76.52,484,85.52" style="stroke:#218C00;stroke-width:1.0;"/></g><!--link INICIO to FISC--><g id="link_INICIO_FISC"><path d="M484,136.23 C484,157.38 484,184.87 484,224.7 " fill="none" id="INICIO-to-FISC" style="stroke:#218C00;stroke-width:1.0;"/><polygon fill="#218C00" points="484,230.7,488,221.7,484,225.7,480,221.7,484,230.7" style="stroke:#218C00;stroke-width:1.0;"/><path d="M489,171 L489,196 L594,196 L594,181 L584,171 L489,171 " fill="#F5F5F5" style="stroke:#C90000;stroke-width:0.5;"/><path d="M584,171 L584,181 L594,181 L584,171 " fill="#F5F5F5" style="stroke:#C90000;stroke-width:0.5;"/><text fill="#000000" font-family="sans-serif" font-size="13" lengthAdjust="spacing" textLength="84" x="495" y="188.0669">Iniciar Sesi&#243;n</text></g><!--link INICIO to INICIO--><g id="link_INICIO_INICIO"><path d="M514.42,101.3 C532.28,99.23 549,102.46 549,111 C549,119.54 538.2401,123.4708 520.3801,121.4008 " fill="none" id="INICIO-to-INICIO" style="stroke:#218C00;stroke-width:1.0;"/><polygon fill="#218C00" points="514.42,120.71,522.8996,125.7196,519.3868,121.2857,523.8207,117.7728,514.42,120.71" style="stroke:#218C00;stroke-width:1.0;"/><path d="M554,98.5 L554,123.5 L685,123.5 L685,108.5 L675,98.5 L554,98.5 " fill="#F5F5F5" style="stroke:#C90000;stroke-width:0.5;"/><path d="M675,98.5 L675,108.5 L685,108.5 L675,98.5 " fill="#F5F5F5" style="stroke:#C90000;stroke-width:0.5;"/><text fill="#000000" font-family="sans-serif" font-size="13" lengthAdjust="spacing" textLength="110" x="560" y="115.5669">Registrar Usuario</text></g><!--link LOG to LOG--><g id="link_LOG_LOG"><path d="M427.28,1136.03 C444.77,1132.32 462,1136.41 462,1148.3 C462,1160.19 450.6394,1165.525 433.1494,1161.815 " fill="none" id="LOG-to-LOG" style="stroke:#218C00;stroke-width:1.0;"/><polygon fill="#218C00" points="427.28,1160.57,435.2541,1166.3505,432.1712,1161.6075,436.9141,1158.5246,427.28,1160.57" style="stroke:#218C00;stroke-width:1.0;"/><path d="M467,1135.8 L467,1160.8 L541,1160.8 L541,1145.8 L531,1135.8 L467,1135.8 " fill="#F5F5F5" style="stroke:#C90000;stroke-width:0.5;"/><path d="M531,1135.8 L531,1145.8 L541,1145.8 L531,1135.8 " fill="#F5F5F5" style="stroke:#C90000;stroke-width:0.5;"/><text fill="#000000" font-family="sans-serif" font-size="13" lengthAdjust="spacing" textLength="53" x="473" y="1152.8669">Imprimir</text></g><!--link FISC to LOG--><g id="link_FISC_LOG"><path d="M362.11,1028.57 C356.4,1047.2 353,1058.3 353,1058.3 C353,1058.3 353,1093.3 353,1093.3 C353,1093.3 362.7992,1104.0956 375.7592,1118.3856 " fill="none" id="FISC-to-LOG" style="stroke:#218C00;stroke-width:1.0;"/><polygon fill="#218C00" points="379.79,1122.83,376.7068,1113.4762,376.431,1119.1263,370.7809,1118.8505,379.79,1122.83" style="stroke:#218C00;stroke-width:1.0;"/><path d="M358,1063.3 L358,1088.3 L436,1088.3 L436,1073.3 L426,1063.3 L358,1063.3 " fill="#F5F5F5" style="stroke:#C90000;stroke-width:0.5;"/><path d="M426,1063.3 L426,1073.3 L436,1073.3 L426,1063.3 " fill="#F5F5F5" style="stroke:#C90000;stroke-width:0.5;"/><text fill="#000000" font-family="sans-serif" font-size="13" lengthAdjust="spacing" textLength="57" x="364" y="1080.3669">Abrir Log</text></g><!--link LOG to FISC--><g id="link_LOG_FISC"><path d="M421.49,1122.83 C432.86,1108.54 445,1093.3 445,1093.3 C445,1093.3 446.6566,1073.6488 449.9566,1034.4588 " fill="none" id="LOG-to-FISC" style="stroke:#218C00;stroke-width:1.0;"/><polygon fill="#218C00" points="450.46,1028.48,445.7189,1037.1126,450.0405,1033.4624,453.6907,1037.7839,450.46,1028.48" style="stroke:#218C00;stroke-width:1.0;"/><path d="M453,1063.3 L453,1088.3 L541,1088.3 L541,1073.3 L531,1063.3 L453,1063.3 " fill="#F5F5F5" style="stroke:#C90000;stroke-width:0.5;"/><path d="M531,1063.3 L531,1073.3 L541,1073.3 L531,1063.3 " fill="#F5F5F5" style="stroke:#C90000;stroke-width:0.5;"/><text fill="#000000" font-family="sans-serif" font-size="13" lengthAdjust="spacing" textLength="67" x="459" y="1080.3669">Cerrar Log</text></g><!--link FISC to *end*--><g id="link_FISC_*end*"><path d="M590.34,1028.77 C603.82,1079.23 613.0194,1113.7038 617.7894,1131.5338 " fill="none" id="FISC-to-*end*" style="stroke:#218C00;stroke-width:1.0;"/><polygon fill="#218C00" points="619.34,1137.33,620.8782,1127.602,618.0478,1132.4999,613.1499,1129.6695,619.34,1137.33" style="stroke:#218C00;stroke-width:1.0;"/><path d="M609,1063.3 L609,1088.3 L717,1088.3 L717,1073.3 L707,1063.3 L609,1063.3 " fill="#F5F5F5" style="stroke:#C90000;stroke-width:0.5;"/><path d="M707,1063.3 L707,1073.3 L717,1073.3 L707,1063.3 " fill="#F5F5F5" style="stroke:#C90000;stroke-width:0.5;"/><text fill="#000000" font-family="sans-serif" font-size="13" lengthAdjust="spacing" textLength="87" x="615" y="1080.3669">Cerrar Sesi&#243;n</text></g><!--SRC=[hPLHYjim48RVTOg1lXK2tR8Bko-5rF46WTSETb9OIWbQMKb572d83cqeFKMFqYFinIfRhYqxTk8qJHwCx9bF__mQIUc6YnrHP0j2PkmZePkradiHEpAH2jwixl8_IfjHKiLCbH7quPt-MH54AVcj_FZ-vfusFgOPwPg5h6vVRe_2JawJSC6omux1JYQ7VD2MCF_AwKQmD8KRX3w__GAZqGV0FdPmW91vZcBzwX573g2yBf0YnsuG01QSSg8WOYb__IqG4t5HkfrOibgP8LlpD5CwTv7kYUAopaLHNfQPy4SboOtcuqcmd8NOT_1ixBM1diPfsap90wEPJ04iOZkv45Qz39vTPtwaSFoYUCspSF1FEBpTIMKhl9BdA6R1hbLNkXVnxJuXb4lT4BLzfu4zw-5-xw_NqcZa32AsLzW2Xkui2EVka4gdkjjYZGbPhe-TgHsWMwiJ-8zukWZ73dxzvIydxZB2JmlF3BixwI_VtYV_0MxwO1WytqUbLMtC9rPRKWFGIIbNDzPvkXdxaw3tvEai_3pu8e-hlTivcxQfabbOVDdw4K5Pqbj9aznhXru-lk9KOrpjTomXPeE0_Tqm45TjlNvOTHAK_TKuIksTsvKFndx5jxohGUtqYsntOzwxeEWdGbumBGpIpuvkAEHO2SLTLOZeY3VRtvDhAq67GNMj7hK4K_d5sCmmK-WCVI7s9BHluJy0]--></g></svg>