<?xml version="1.0" encoding="us-ascii" standalone="no"?><svg xmlns="http://www.w3.org/2000/svg" xmlns:xlink="http://www.w3.org/1999/xlink" contentStyleType="text/css" height="887px" preserveAspectRatio="none" style="width:1038px;height:887px;background:#FFFFFF;" version="1.1" viewBox="0 0 1038 887" width="1038px" zoomAndPan="magnify"><defs/><g><!--class ALUMNI--><g id="elem_ALUMNI"><rect codeLine="4" fill="#F1F1F1" height="64.2969" id="ALUMNI" rx="2.5" ry="2.5" style="stroke:#181818;stroke-width:0.5;" width="92" x="357.5" y="7"/><ellipse cx="375.65" cy="23" fill="#ADD1B2" rx="11" ry="11" style="stroke:#181818;stroke-width:1.0;"/><path d="M377.9938,18.6719 C377.0563,18.2344 376.4625,18.0938 375.5875,18.0938 C372.9625,18.0938 370.9625,20.1719 370.9625,22.8906 L370.9625,24.0156 C370.9625,26.5938 373.0719,28.4844 375.9625,28.4844 C377.1813,28.4844 378.3375,28.1875 379.0875,27.6406 C379.6656,27.2344 379.9938,26.7813 379.9938,26.3906 C379.9938,25.9375 379.6031,25.5469 379.1344,25.5469 C378.9156,25.5469 378.7125,25.625 378.525,25.8125 C378.0719,26.2969 378.0719,26.2969 377.8844,26.3906 C377.4625,26.6563 376.775,26.7813 376.0094,26.7813 C373.9625,26.7813 372.6656,25.6875 372.6656,23.9844 L372.6656,22.8906 C372.6656,21.1094 373.9156,19.7969 375.65,19.7969 C376.2281,19.7969 376.8375,19.9531 377.3063,20.2031 C377.7906,20.4844 377.9625,20.7031 378.0563,21.1094 C378.1188,21.5156 378.15,21.6406 378.2906,21.7656 C378.4313,21.9063 378.6656,22.0156 378.8844,22.0156 C379.15,22.0156 379.4156,21.875 379.5875,21.6563 C379.6969,21.5 379.7281,21.3125 379.7281,20.8906 L379.7281,19.4688 C379.7281,19.0313 379.7125,18.9063 379.6188,18.75 C379.4625,18.4844 379.1813,18.3438 378.8844,18.3438 C378.5875,18.3438 378.3844,18.4375 378.1656,18.75 L377.9938,18.6719 Z " fill="#000000"/><text fill="#000000" font-family="Arial" font-size="14" lengthAdjust="spacing" textLength="53" x="390.35" y="27.8467">ALUMNI</text><line style="stroke:#181818;stroke-width:0.5;" x1="358.5" x2="448.5" y1="39" y2="39"/><text fill="#000000" font-family="Arial" font-size="14" lengthAdjust="spacing" textLength="80" x="363.5" y="55.9951">plataforma</text><line style="stroke:#181818;stroke-width:0.5;" x1="358.5" x2="448.5" y1="63.2969" y2="63.2969"/></g><!--class USUARIO--><g id="elem_USUARIO"><rect codeLine="8" fill="#F1F1F1" height="194.6719" id="USUARIO" rx="2.5" ry="2.5" style="stroke:#181818;stroke-width:0.5;" width="164" x="231.5" y="322"/><ellipse cx="278.25" cy="338" fill="#ADD1B2" rx="11" ry="11" style="stroke:#181818;stroke-width:1.0;"/><path d="M280.5938,333.6719 C279.6563,333.2344 279.0625,333.0938 278.1875,333.0938 C275.5625,333.0938 273.5625,335.1719 273.5625,337.8906 L273.5625,339.0156 C273.5625,341.5938 275.6719,343.4844 278.5625,343.4844 C279.7813,343.4844 280.9375,343.1875 281.6875,342.6406 C282.2656,342.2344 282.5938,341.7813 282.5938,341.3906 C282.5938,340.9375 282.2031,340.5469 281.7344,340.5469 C281.5156,340.5469 281.3125,340.625 281.125,340.8125 C280.6719,341.2969 280.6719,341.2969 280.4844,341.3906 C280.0625,341.6563 279.375,341.7813 278.6094,341.7813 C276.5625,341.7813 275.2656,340.6875 275.2656,338.9844 L275.2656,337.8906 C275.2656,336.1094 276.5156,334.7969 278.25,334.7969 C278.8281,334.7969 279.4375,334.9531 279.9063,335.2031 C280.3906,335.4844 280.5625,335.7031 280.6563,336.1094 C280.7188,336.5156 280.75,336.6406 280.8906,336.7656 C281.0313,336.9063 281.2656,337.0156 281.4844,337.0156 C281.75,337.0156 282.0156,336.875 282.1875,336.6563 C282.2969,336.5 282.3281,336.3125 282.3281,335.8906 L282.3281,334.4688 C282.3281,334.0313 282.3125,333.9063 282.2188,333.75 C282.0625,333.4844 281.7813,333.3438 281.4844,333.3438 C281.1875,333.3438 280.9844,333.4375 280.7656,333.75 L280.5938,333.6719 Z " fill="#000000"/><text fill="#000000" font-family="Arial" font-size="14" lengthAdjust="spacing" textLength="62" x="298.75" y="342.8467">USUARIO</text><line style="stroke:#181818;stroke-width:0.5;" x1="232.5" x2="394.5" y1="354" y2="354"/><text fill="#000000" font-family="Arial" font-size="14" lengthAdjust="spacing" textLength="15" x="237.5" y="370.9951">ID</text><text fill="#000000" font-family="Arial" font-size="14" lengthAdjust="spacing" textLength="58" x="237.5" y="387.292">Nombre</text><text fill="#000000" font-family="Arial" font-size="14" lengthAdjust="spacing" textLength="59" x="237.5" y="403.5889">Apellido</text><text fill="#000000" font-family="Arial" font-size="14" lengthAdjust="spacing" textLength="39" x="237.5" y="419.8857">Email</text><text fill="#000000" font-family="Arial" font-size="14" lengthAdjust="spacing" textLength="68" x="237.5" y="436.1826">ubicacion</text><text fill="#000000" font-family="Arial" font-size="14" lengthAdjust="spacing" textLength="150" x="237.5" y="452.4795">Fecha de Nacimiento</text><text fill="#000000" font-family="Arial" font-size="14" lengthAdjust="spacing" textLength="75" x="237.5" y="468.7764">Ocupaci&#243;n</text><text fill="#000000" font-family="Arial" font-size="14" lengthAdjust="spacing" textLength="152" x="237.5" y="485.0732">Carnet de Estudiante</text><text fill="#000000" font-family="Arial" font-size="14" lengthAdjust="spacing" textLength="115" x="237.5" y="501.3701">Area Acad&#233;mica</text><line style="stroke:#181818;stroke-width:0.5;" x1="232.5" x2="394.5" y1="508.6719" y2="508.6719"/></g><!--class REQUISITO--><g id="elem_REQUISITO"><rect codeLine="20" fill="#F1F1F1" height="64.2969" id="REQUISITO" rx="2.5" ry="2.5" style="stroke:#181818;stroke-width:0.5;" width="174" x="179.5" y="618.5"/><ellipse cx="224.25" cy="634.5" fill="#ADD1B2" rx="11" ry="11" style="stroke:#181818;stroke-width:1.0;"/><path d="M226.5938,630.1719 C225.6563,629.7344 225.0625,629.5938 224.1875,629.5938 C221.5625,629.5938 219.5625,631.6719 219.5625,634.3906 L219.5625,635.5156 C219.5625,638.0938 221.6719,639.9844 224.5625,639.9844 C225.7813,639.9844 226.9375,639.6875 227.6875,639.1406 C228.2656,638.7344 228.5938,638.2813 228.5938,637.8906 C228.5938,637.4375 228.2031,637.0469 227.7344,637.0469 C227.5156,637.0469 227.3125,637.125 227.125,637.3125 C226.6719,637.7969 226.6719,637.7969 226.4844,637.8906 C226.0625,638.1563 225.375,638.2813 224.6094,638.2813 C222.5625,638.2813 221.2656,637.1875 221.2656,635.4844 L221.2656,634.3906 C221.2656,632.6094 222.5156,631.2969 224.25,631.2969 C224.8281,631.2969 225.4375,631.4531 225.9063,631.7031 C226.3906,631.9844 226.5625,632.2031 226.6563,632.6094 C226.7188,633.0156 226.75,633.1406 226.8906,633.2656 C227.0313,633.4063 227.2656,633.5156 227.4844,633.5156 C227.75,633.5156 228.0156,633.375 228.1875,633.1563 C228.2969,633 228.3281,632.8125 228.3281,632.3906 L228.3281,630.9688 C228.3281,630.5313 228.3125,630.4063 228.2188,630.25 C228.0625,629.9844 227.7813,629.8438 227.4844,629.8438 C227.1875,629.8438 226.9844,629.9375 226.7656,630.25 L226.5938,630.1719 Z " fill="#000000"/><text fill="#000000" font-family="Arial" font-size="14" lengthAdjust="spacing" textLength="76" x="244.75" y="639.3467">REQUISITO</text><line style="stroke:#181818;stroke-width:0.5;" x1="180.5" x2="352.5" y1="650.5" y2="650.5"/><text fill="#000000" font-family="Arial" font-size="14" lengthAdjust="spacing" textLength="162" x="185.5" y="667.4951">Titulaci&#243;n universitaria</text><line style="stroke:#181818;stroke-width:0.5;" x1="180.5" x2="352.5" y1="674.7969" y2="674.7969"/></g><!--class INSCRIPCI?N--><g id="elem_INSCRIPCI&#211;N"><rect codeLine="24" fill="#F1F1F1" height="64.2969" id="INSCRIPCI&#211;N" rx="2.5" ry="2.5" style="stroke:#181818;stroke-width:0.5;" width="123" x="426" y="164.5"/><ellipse cx="441" cy="180.5" fill="#ADD1B2" rx="11" ry="11" style="stroke:#181818;stroke-width:1.0;"/><path d="M443.3438,176.1719 C442.4063,175.7344 441.8125,175.5938 440.9375,175.5938 C438.3125,175.5938 436.3125,177.6719 436.3125,180.3906 L436.3125,181.5156 C436.3125,184.0938 438.4219,185.9844 441.3125,185.9844 C442.5313,185.9844 443.6875,185.6875 444.4375,185.1406 C445.0156,184.7344 445.3438,184.2813 445.3438,183.8906 C445.3438,183.4375 444.9531,183.0469 444.4844,183.0469 C444.2656,183.0469 444.0625,183.125 443.875,183.3125 C443.4219,183.7969 443.4219,183.7969 443.2344,183.8906 C442.8125,184.1563 442.125,184.2813 441.3594,184.2813 C439.3125,184.2813 438.0156,183.1875 438.0156,181.4844 L438.0156,180.3906 C438.0156,178.6094 439.2656,177.2969 441,177.2969 C441.5781,177.2969 442.1875,177.4531 442.6563,177.7031 C443.1406,177.9844 443.3125,178.2031 443.4063,178.6094 C443.4688,179.0156 443.5,179.1406 443.6406,179.2656 C443.7813,179.4063 444.0156,179.5156 444.2344,179.5156 C444.5,179.5156 444.7656,179.375 444.9375,179.1563 C445.0469,179 445.0781,178.8125 445.0781,178.3906 L445.0781,176.9688 C445.0781,176.5313 445.0625,176.4063 444.9688,176.25 C444.8125,175.9844 444.5313,175.8438 444.2344,175.8438 C443.9375,175.8438 443.7344,175.9375 443.5156,176.25 L443.3438,176.1719 Z " fill="#000000"/><text fill="#000000" font-family="Arial" font-size="14" lengthAdjust="spacing" textLength="91" x="455" y="185.3467">INSCRIPCI&#211;N</text><line style="stroke:#181818;stroke-width:0.5;" x1="427" x2="548" y1="196.5" y2="196.5"/><text fill="#000000" font-family="Arial" font-size="14" lengthAdjust="spacing" textLength="58" x="432" y="213.4951">Nombre</text><line style="stroke:#181818;stroke-width:0.5;" x1="427" x2="548" y1="220.7969" y2="220.7969"/></g><!--class ADMINISTRADOR--><g id="elem_ADMINISTRADOR"><rect codeLine="28" fill="#F1F1F1" height="145.7813" id="ADMINISTRADOR" rx="2.5" ry="2.5" style="stroke:#181818;stroke-width:0.5;" width="162" x="9.5" y="346.5"/><ellipse cx="28.55" cy="362.5" fill="#ADD1B2" rx="11" ry="11" style="stroke:#181818;stroke-width:1.0;"/><path d="M30.8938,358.1719 C29.9563,357.7344 29.3625,357.5938 28.4875,357.5938 C25.8625,357.5938 23.8625,359.6719 23.8625,362.3906 L23.8625,363.5156 C23.8625,366.0938 25.9719,367.9844 28.8625,367.9844 C30.0813,367.9844 31.2375,367.6875 31.9875,367.1406 C32.5656,366.7344 32.8938,366.2813 32.8938,365.8906 C32.8938,365.4375 32.5031,365.0469 32.0344,365.0469 C31.8156,365.0469 31.6125,365.125 31.425,365.3125 C30.9719,365.7969 30.9719,365.7969 30.7844,365.8906 C30.3625,366.1563 29.675,366.2813 28.9094,366.2813 C26.8625,366.2813 25.5656,365.1875 25.5656,363.4844 L25.5656,362.3906 C25.5656,360.6094 26.8156,359.2969 28.55,359.2969 C29.1281,359.2969 29.7375,359.4531 30.2063,359.7031 C30.6906,359.9844 30.8625,360.2031 30.9563,360.6094 C31.0188,361.0156 31.05,361.1406 31.1906,361.2656 C31.3313,361.4063 31.5656,361.5156 31.7844,361.5156 C32.05,361.5156 32.3156,361.375 32.4875,361.1563 C32.5969,361 32.6281,360.8125 32.6281,360.3906 L32.6281,358.9688 C32.6281,358.5313 32.6125,358.4063 32.5188,358.25 C32.3625,357.9844 32.0813,357.8438 31.7844,357.8438 C31.4875,357.8438 31.2844,357.9375 31.0656,358.25 L30.8938,358.1719 Z " fill="#000000"/><text fill="#000000" font-family="Arial" font-size="14" lengthAdjust="spacing" textLength="121" x="43.45" y="367.3467">ADMINISTRADOR</text><line style="stroke:#181818;stroke-width:0.5;" x1="10.5" x2="170.5" y1="378.5" y2="378.5"/><text fill="#000000" font-family="Arial" font-size="14" lengthAdjust="spacing" textLength="15" x="15.5" y="395.4951">ID</text><text fill="#000000" font-family="Arial" font-size="14" lengthAdjust="spacing" textLength="58" x="15.5" y="411.792">Nombre</text><text fill="#000000" font-family="Arial" font-size="14" lengthAdjust="spacing" textLength="59" x="15.5" y="428.0889">Apellido</text><text fill="#000000" font-family="Arial" font-size="14" lengthAdjust="spacing" textLength="39" x="15.5" y="444.3857">Email</text><text fill="#000000" font-family="Arial" font-size="14" lengthAdjust="spacing" textLength="114" x="15.5" y="460.6826">Zona de trabajo</text><text fill="#000000" font-family="Arial" font-size="14" lengthAdjust="spacing" textLength="150" x="15.5" y="476.9795">Fecha de Nacimiento</text><line style="stroke:#181818;stroke-width:0.5;" x1="10.5" x2="170.5" y1="484.2813" y2="484.2813"/></g><!--class SUSCRIPCI?N--><g id="elem_SUSCRIPCI&#211;N"><rect codeLine="37" fill="#F1F1F1" height="113.1875" id="SUSCRIPCI&#211;N" rx="2.5" ry="2.5" style="stroke:#181818;stroke-width:0.5;" width="150" x="729.5" y="363"/><ellipse cx="754.85" cy="379" fill="#ADD1B2" rx="11" ry="11" style="stroke:#181818;stroke-width:1.0;"/><path d="M757.1938,374.6719 C756.2563,374.2344 755.6625,374.0938 754.7875,374.0938 C752.1625,374.0938 750.1625,376.1719 750.1625,378.8906 L750.1625,380.0156 C750.1625,382.5938 752.2719,384.4844 755.1625,384.4844 C756.3813,384.4844 757.5375,384.1875 758.2875,383.6406 C758.8656,383.2344 759.1938,382.7813 759.1938,382.3906 C759.1938,381.9375 758.8031,381.5469 758.3344,381.5469 C758.1156,381.5469 757.9125,381.625 757.725,381.8125 C757.2719,382.2969 757.2719,382.2969 757.0844,382.3906 C756.6625,382.6563 755.975,382.7813 755.2094,382.7813 C753.1625,382.7813 751.8656,381.6875 751.8656,379.9844 L751.8656,378.8906 C751.8656,377.1094 753.1156,375.7969 754.85,375.7969 C755.4281,375.7969 756.0375,375.9531 756.5063,376.2031 C756.9906,376.4844 757.1625,376.7031 757.2563,377.1094 C757.3188,377.5156 757.35,377.6406 757.4906,377.7656 C757.6313,377.9063 757.8656,378.0156 758.0844,378.0156 C758.35,378.0156 758.6156,377.875 758.7875,377.6563 C758.8969,377.5 758.9281,377.3125 758.9281,376.8906 L758.9281,375.4688 C758.9281,375.0313 758.9125,374.9063 758.8188,374.75 C758.6625,374.4844 758.3813,374.3438 758.0844,374.3438 C757.7875,374.3438 757.5844,374.4375 757.3656,374.75 L757.1938,374.6719 Z " fill="#000000"/><text fill="#000000" font-family="Arial" font-size="14" lengthAdjust="spacing" textLength="95" x="771.15" y="383.8467">SUSCRIPCI&#211;N</text><line style="stroke:#181818;stroke-width:0.5;" x1="730.5" x2="878.5" y1="395" y2="395"/><text fill="#000000" font-family="Arial" font-size="14" lengthAdjust="spacing" textLength="58" x="735.5" y="411.9951">Nombre</text><text fill="#000000" font-family="Arial" font-size="14" lengthAdjust="spacing" textLength="45" x="735.5" y="428.292">Precio</text><text fill="#000000" font-family="Arial" font-size="14" lengthAdjust="spacing" textLength="116" x="735.5" y="444.5889">M&#233;todo de Pago</text><text fill="#000000" font-family="Arial" font-size="14" lengthAdjust="spacing" textLength="138" x="735.5" y="460.8857">Frecuencia de Pago</text><line style="stroke:#181818;stroke-width:0.5;" x1="730.5" x2="878.5" y1="468.1875" y2="468.1875"/></g><!--class SERVICIOS--><g id="elem_SERVICIOS"><rect codeLine="44" fill="#F1F1F1" height="80.5938" id="SERVICIOS" rx="2.5" ry="2.5" style="stroke:#181818;stroke-width:0.5;" width="111" x="434" y="379"/><ellipse cx="450.35" cy="395" fill="#ADD1B2" rx="11" ry="11" style="stroke:#181818;stroke-width:1.0;"/><path d="M452.6938,390.6719 C451.7563,390.2344 451.1625,390.0938 450.2875,390.0938 C447.6625,390.0938 445.6625,392.1719 445.6625,394.8906 L445.6625,396.0156 C445.6625,398.5938 447.7719,400.4844 450.6625,400.4844 C451.8813,400.4844 453.0375,400.1875 453.7875,399.6406 C454.3656,399.2344 454.6938,398.7813 454.6938,398.3906 C454.6938,397.9375 454.3031,397.5469 453.8344,397.5469 C453.6156,397.5469 453.4125,397.625 453.225,397.8125 C452.7719,398.2969 452.7719,398.2969 452.5844,398.3906 C452.1625,398.6563 451.475,398.7813 450.7094,398.7813 C448.6625,398.7813 447.3656,397.6875 447.3656,395.9844 L447.3656,394.8906 C447.3656,393.1094 448.6156,391.7969 450.35,391.7969 C450.9281,391.7969 451.5375,391.9531 452.0063,392.2031 C452.4906,392.4844 452.6625,392.7031 452.7563,393.1094 C452.8188,393.5156 452.85,393.6406 452.9906,393.7656 C453.1313,393.9063 453.3656,394.0156 453.5844,394.0156 C453.85,394.0156 454.1156,393.875 454.2875,393.6563 C454.3969,393.5 454.4281,393.3125 454.4281,392.8906 L454.4281,391.4688 C454.4281,391.0313 454.4125,390.9063 454.3188,390.75 C454.1625,390.4844 453.8813,390.3438 453.5844,390.3438 C453.2875,390.3438 453.0844,390.4375 452.8656,390.75 L452.6938,390.6719 Z " fill="#000000"/><text fill="#000000" font-family="Arial" font-size="14" lengthAdjust="spacing" textLength="76" x="464.65" y="399.8467">SERVICIOS</text><line style="stroke:#181818;stroke-width:0.5;" x1="435" x2="544" y1="411" y2="411"/><rect fill="none" height="6" style="stroke:#C82930;stroke-width:1.0;" width="6" x="442" y="421.6484"/><text fill="#000000" font-family="Arial" font-size="14" lengthAdjust="spacing" textLength="58" x="454" y="427.9951">Nombre</text><rect fill="none" height="6" style="stroke:#C82930;stroke-width:1.0;" width="6" x="442" y="437.9453"/><text fill="#000000" font-family="Arial" font-size="14" lengthAdjust="spacing" textLength="85" x="454" y="444.292">Descripci&#243;n</text><line style="stroke:#181818;stroke-width:0.5;" x1="435" x2="544" y1="451.5938" y2="451.5938"/></g><!--class SERVICIO DE SUSCRIPCION--><g id="elem_SERVICIO DE SUSCRIPCION"><rect codeLine="48" fill="#F1F1F1" height="80.5938" id="SERVICIO DE SUSCRIPCION" rx="2.5" ry="2.5" style="stroke:#181818;stroke-width:0.5;" width="222" x="809.5" y="610"/><ellipse cx="824.5" cy="626" fill="#ADD1B2" rx="11" ry="11" style="stroke:#181818;stroke-width:1.0;"/><path d="M826.8438,621.6719 C825.9063,621.2344 825.3125,621.0938 824.4375,621.0938 C821.8125,621.0938 819.8125,623.1719 819.8125,625.8906 L819.8125,627.0156 C819.8125,629.5938 821.9219,631.4844 824.8125,631.4844 C826.0313,631.4844 827.1875,631.1875 827.9375,630.6406 C828.5156,630.2344 828.8438,629.7813 828.8438,629.3906 C828.8438,628.9375 828.4531,628.5469 827.9844,628.5469 C827.7656,628.5469 827.5625,628.625 827.375,628.8125 C826.9219,629.2969 826.9219,629.2969 826.7344,629.3906 C826.3125,629.6563 825.625,629.7813 824.8594,629.7813 C822.8125,629.7813 821.5156,628.6875 821.5156,626.9844 L821.5156,625.8906 C821.5156,624.1094 822.7656,622.7969 824.5,622.7969 C825.0781,622.7969 825.6875,622.9531 826.1563,623.2031 C826.6406,623.4844 826.8125,623.7031 826.9063,624.1094 C826.9688,624.5156 827,624.6406 827.1406,624.7656 C827.2813,624.9063 827.5156,625.0156 827.7344,625.0156 C828,625.0156 828.2656,624.875 828.4375,624.6563 C828.5469,624.5 828.5781,624.3125 828.5781,623.8906 L828.5781,622.4688 C828.5781,622.0313 828.5625,621.9063 828.4688,621.75 C828.3125,621.4844 828.0313,621.3438 827.7344,621.3438 C827.4375,621.3438 827.2344,621.4375 827.0156,621.75 L826.8438,621.6719 Z " fill="#000000"/><text fill="#000000" font-family="Arial" font-size="14" lengthAdjust="spacing" textLength="190" x="838.5" y="630.8467">SERVICIO DE SUSCRIPCION</text><line style="stroke:#181818;stroke-width:0.5;" x1="810.5" x2="1030.5" y1="642" y2="642"/><rect fill="none" height="6" style="stroke:#C82930;stroke-width:1.0;" width="6" x="817.5" y="652.6484"/><text fill="#000000" font-family="Arial" font-size="14" lengthAdjust="spacing" textLength="58" x="829.5" y="658.9951">Nombre</text><rect fill="none" height="6" style="stroke:#C82930;stroke-width:1.0;" width="6" x="817.5" y="668.9453"/><text fill="#000000" font-family="Arial" font-size="14" lengthAdjust="spacing" textLength="85" x="829.5" y="675.292">Descripci&#243;n</text><line style="stroke:#181818;stroke-width:0.5;" x1="810.5" x2="1030.5" y1="682.5938" y2="682.5938"/></g><!--class COMUNICACI?N--><g id="elem_COMUNICACI&#211;N"><rect codeLine="53" fill="#F1F1F1" height="96.8906" id="COMUNICACI&#211;N" rx="2.5" ry="2.5" style="stroke:#181818;stroke-width:0.5;" width="143" x="244" y="148"/><ellipse cx="259" cy="164" fill="#ADD1B2" rx="11" ry="11" style="stroke:#181818;stroke-width:1.0;"/><path d="M261.3438,159.6719 C260.4063,159.2344 259.8125,159.0938 258.9375,159.0938 C256.3125,159.0938 254.3125,161.1719 254.3125,163.8906 L254.3125,165.0156 C254.3125,167.5938 256.4219,169.4844 259.3125,169.4844 C260.5313,169.4844 261.6875,169.1875 262.4375,168.6406 C263.0156,168.2344 263.3438,167.7813 263.3438,167.3906 C263.3438,166.9375 262.9531,166.5469 262.4844,166.5469 C262.2656,166.5469 262.0625,166.625 261.875,166.8125 C261.4219,167.2969 261.4219,167.2969 261.2344,167.3906 C260.8125,167.6563 260.125,167.7813 259.3594,167.7813 C257.3125,167.7813 256.0156,166.6875 256.0156,164.9844 L256.0156,163.8906 C256.0156,162.1094 257.2656,160.7969 259,160.7969 C259.5781,160.7969 260.1875,160.9531 260.6563,161.2031 C261.1406,161.4844 261.3125,161.7031 261.4063,162.1094 C261.4688,162.5156 261.5,162.6406 261.6406,162.7656 C261.7813,162.9063 262.0156,163.0156 262.2344,163.0156 C262.5,163.0156 262.7656,162.875 262.9375,162.6563 C263.0469,162.5 263.0781,162.3125 263.0781,161.8906 L263.0781,160.4688 C263.0781,160.0313 263.0625,159.9063 262.9688,159.75 C262.8125,159.4844 262.5313,159.3438 262.2344,159.3438 C261.9375,159.3438 261.7344,159.4375 261.5156,159.75 L261.3438,159.6719 Z " fill="#000000"/><text fill="#000000" font-family="Arial" font-size="14" lengthAdjust="spacing" textLength="111" x="273" y="168.8467">COMUNICACI&#211;N</text><line style="stroke:#181818;stroke-width:0.5;" x1="245" x2="386" y1="180" y2="180"/><rect fill="none" height="6" style="stroke:#C82930;stroke-width:1.0;" width="6" x="252" y="190.6484"/><text fill="#000000" font-family="Arial" font-size="14" lengthAdjust="spacing" textLength="39" x="264" y="196.9951">Email</text><rect fill="none" height="6" style="stroke:#C82930;stroke-width:1.0;" width="6" x="252" y="206.9453"/><text fill="#000000" font-family="Arial" font-size="14" lengthAdjust="spacing" textLength="34" x="264" y="213.292">Chat</text><rect fill="none" height="6" style="stroke:#C82930;stroke-width:1.0;" width="6" x="252" y="223.2422"/><text fill="#000000" font-family="Arial" font-size="14" lengthAdjust="spacing" textLength="64" x="264" y="229.5889">Telefono</text><line style="stroke:#181818;stroke-width:0.5;" x1="245" x2="386" y1="236.8906" y2="236.8906"/></g><!--class REPOSITORIO--><g id="elem_REPOSITORIO"><rect codeLine="59" fill="#F1F1F1" height="96.8906" id="REPOSITORIO" rx="2.5" ry="2.5" style="stroke:#181818;stroke-width:0.5;" width="129" x="10" y="602"/><ellipse cx="25" cy="618" fill="#ADD1B2" rx="11" ry="11" style="stroke:#181818;stroke-width:1.0;"/><path d="M27.3438,613.6719 C26.4063,613.2344 25.8125,613.0938 24.9375,613.0938 C22.3125,613.0938 20.3125,615.1719 20.3125,617.8906 L20.3125,619.0156 C20.3125,621.5938 22.4219,623.4844 25.3125,623.4844 C26.5313,623.4844 27.6875,623.1875 28.4375,622.6406 C29.0156,622.2344 29.3438,621.7813 29.3438,621.3906 C29.3438,620.9375 28.9531,620.5469 28.4844,620.5469 C28.2656,620.5469 28.0625,620.625 27.875,620.8125 C27.4219,621.2969 27.4219,621.2969 27.2344,621.3906 C26.8125,621.6563 26.125,621.7813 25.3594,621.7813 C23.3125,621.7813 22.0156,620.6875 22.0156,618.9844 L22.0156,617.8906 C22.0156,616.1094 23.2656,614.7969 25,614.7969 C25.5781,614.7969 26.1875,614.9531 26.6563,615.2031 C27.1406,615.4844 27.3125,615.7031 27.4063,616.1094 C27.4688,616.5156 27.5,616.6406 27.6406,616.7656 C27.7813,616.9063 28.0156,617.0156 28.2344,617.0156 C28.5,617.0156 28.7656,616.875 28.9375,616.6563 C29.0469,616.5 29.0781,616.3125 29.0781,615.8906 L29.0781,614.4688 C29.0781,614.0313 29.0625,613.9063 28.9688,613.75 C28.8125,613.4844 28.5313,613.3438 28.2344,613.3438 C27.9375,613.3438 27.7344,613.4375 27.5156,613.75 L27.3438,613.6719 Z " fill="#000000"/><text fill="#000000" font-family="Arial" font-size="14" lengthAdjust="spacing" textLength="97" x="39" y="622.8467">REPOSITORIO</text><line style="stroke:#181818;stroke-width:0.5;" x1="11" x2="138" y1="634" y2="634"/><rect fill="none" height="6" style="stroke:#C82930;stroke-width:1.0;" width="6" x="18" y="644.6484"/><text fill="#000000" font-family="Arial" font-size="14" lengthAdjust="spacing" textLength="15" x="30" y="650.9951">ID</text><rect fill="none" height="6" style="stroke:#C82930;stroke-width:1.0;" width="6" x="18" y="660.9453"/><text fill="#000000" font-family="Arial" font-size="14" lengthAdjust="spacing" textLength="62" x="30" y="667.292">NOMBRE</text><rect fill="none" height="6" style="stroke:#C82930;stroke-width:1.0;" width="6" x="18" y="677.2422"/><text fill="#000000" font-family="Arial" font-size="14" lengthAdjust="spacing" textLength="80" x="30" y="683.5889">CONTACTO</text><line style="stroke:#181818;stroke-width:0.5;" x1="11" x2="138" y1="690.8906" y2="690.8906"/></g><!--class ACCESO A INSTALACIONES--><g id="elem_ACCESO A INSTALACIONES"><rect codeLine="64" fill="#F1F1F1" height="96.8906" id="ACCESO A INSTALACIONES" rx="2.5" ry="2.5" style="stroke:#181818;stroke-width:0.5;" width="222" x="809.5" y="784"/><ellipse cx="824.5" cy="800" fill="#ADD1B2" rx="11" ry="11" style="stroke:#181818;stroke-width:1.0;"/><path d="M826.8438,795.6719 C825.9063,795.2344 825.3125,795.0938 824.4375,795.0938 C821.8125,795.0938 819.8125,797.1719 819.8125,799.8906 L819.8125,801.0156 C819.8125,803.5938 821.9219,805.4844 824.8125,805.4844 C826.0313,805.4844 827.1875,805.1875 827.9375,804.6406 C828.5156,804.2344 828.8438,803.7813 828.8438,803.3906 C828.8438,802.9375 828.4531,802.5469 827.9844,802.5469 C827.7656,802.5469 827.5625,802.625 827.375,802.8125 C826.9219,803.2969 826.9219,803.2969 826.7344,803.3906 C826.3125,803.6563 825.625,803.7813 824.8594,803.7813 C822.8125,803.7813 821.5156,802.6875 821.5156,800.9844 L821.5156,799.8906 C821.5156,798.1094 822.7656,796.7969 824.5,796.7969 C825.0781,796.7969 825.6875,796.9531 826.1563,797.2031 C826.6406,797.4844 826.8125,797.7031 826.9063,798.1094 C826.9688,798.5156 827,798.6406 827.1406,798.7656 C827.2813,798.9063 827.5156,799.0156 827.7344,799.0156 C828,799.0156 828.2656,798.875 828.4375,798.6563 C828.5469,798.5 828.5781,798.3125 828.5781,797.8906 L828.5781,796.4688 C828.5781,796.0313 828.5625,795.9063 828.4688,795.75 C828.3125,795.4844 828.0313,795.3438 827.7344,795.3438 C827.4375,795.3438 827.2344,795.4375 827.0156,795.75 L826.8438,795.6719 Z " fill="#000000"/><text fill="#000000" font-family="Arial" font-size="14" lengthAdjust="spacing" textLength="190" x="838.5" y="804.8467">ACCESO A INSTALACIONES</text><line style="stroke:#181818;stroke-width:0.5;" x1="810.5" x2="1030.5" y1="816" y2="816"/><rect fill="none" height="6" style="stroke:#C82930;stroke-width:1.0;" width="6" x="817.5" y="826.6484"/><text fill="#000000" font-family="Arial" font-size="14" lengthAdjust="spacing" textLength="73" x="829.5" y="832.9951">Biblioteca</text><rect fill="none" height="6" style="stroke:#C82930;stroke-width:1.0;" width="6" x="817.5" y="842.9453"/><text fill="#000000" font-family="Arial" font-size="14" lengthAdjust="spacing" textLength="145" x="829.5" y="849.292">Sala de ordenadores</text><rect fill="none" height="6" style="stroke:#C82930;stroke-width:1.0;" width="6" x="817.5" y="859.2422"/><text fill="#000000" font-family="Arial" font-size="14" lengthAdjust="spacing" textLength="165" x="829.5" y="865.5889">Instalacioes deportivas</text><line style="stroke:#181818;stroke-width:0.5;" x1="810.5" x2="1030.5" y1="872.8906" y2="872.8906"/></g><!--class NEWSLETTER--><g id="elem_NEWSLETTER"><rect codeLine="70" fill="#F1F1F1" height="96.8906" id="NEWSLETTER" rx="2.5" ry="2.5" style="stroke:#181818;stroke-width:0.5;" width="161" x="613" y="602"/><ellipse cx="642.85" cy="618" fill="#ADD1B2" rx="11" ry="11" style="stroke:#181818;stroke-width:1.0;"/><path d="M645.1938,613.6719 C644.2563,613.2344 643.6625,613.0938 642.7875,613.0938 C640.1625,613.0938 638.1625,615.1719 638.1625,617.8906 L638.1625,619.0156 C638.1625,621.5938 640.2719,623.4844 643.1625,623.4844 C644.3813,623.4844 645.5375,623.1875 646.2875,622.6406 C646.8656,622.2344 647.1938,621.7813 647.1938,621.3906 C647.1938,620.9375 646.8031,620.5469 646.3344,620.5469 C646.1156,620.5469 645.9125,620.625 645.725,620.8125 C645.2719,621.2969 645.2719,621.2969 645.0844,621.3906 C644.6625,621.6563 643.975,621.7813 643.2094,621.7813 C641.1625,621.7813 639.8656,620.6875 639.8656,618.9844 L639.8656,617.8906 C639.8656,616.1094 641.1156,614.7969 642.85,614.7969 C643.4281,614.7969 644.0375,614.9531 644.5063,615.2031 C644.9906,615.4844 645.1625,615.7031 645.2563,616.1094 C645.3188,616.5156 645.35,616.6406 645.4906,616.7656 C645.6313,616.9063 645.8656,617.0156 646.0844,617.0156 C646.35,617.0156 646.6156,616.875 646.7875,616.6563 C646.8969,616.5 646.9281,616.3125 646.9281,615.8906 L646.9281,614.4688 C646.9281,614.0313 646.9125,613.9063 646.8188,613.75 C646.6625,613.4844 646.3813,613.3438 646.0844,613.3438 C645.7875,613.3438 645.5844,613.4375 645.3656,613.75 L645.1938,613.6719 Z " fill="#000000"/><text fill="#000000" font-family="Arial" font-size="14" lengthAdjust="spacing" textLength="96" x="660.15" y="622.8467">NEWSLETTER</text><line style="stroke:#181818;stroke-width:0.5;" x1="614" x2="773" y1="634" y2="634"/><rect fill="none" height="6" style="stroke:#C82930;stroke-width:1.0;" width="6" x="621" y="644.6484"/><text fill="#000000" font-family="Arial" font-size="14" lengthAdjust="spacing" textLength="57" x="633" y="650.9951">Noticias</text><rect fill="none" height="6" style="stroke:#C82930;stroke-width:1.0;" width="6" x="621" y="660.9453"/><text fill="#000000" font-family="Arial" font-size="14" lengthAdjust="spacing" textLength="58" x="633" y="667.292">Eventos</text><rect fill="none" height="6" style="stroke:#C82930;stroke-width:1.0;" width="6" x="621" y="677.2422"/><text fill="#000000" font-family="Arial" font-size="14" lengthAdjust="spacing" textLength="135" x="633" y="683.5889">Ofertas de empleo</text><line style="stroke:#181818;stroke-width:0.5;" x1="614" x2="773" y1="690.8906" y2="690.8906"/></g><!--class OFERTAS DE EMPLEO--><g id="elem_OFERTAS DE EMPLEO"><rect codeLine="76" fill="#F1F1F1" height="113.1875" id="OFERTAS DE EMPLEO" rx="2.5" ry="2.5" style="stroke:#181818;stroke-width:0.5;" width="189" x="389" y="594"/><ellipse cx="406.25" cy="610" fill="#ADD1B2" rx="11" ry="11" style="stroke:#181818;stroke-width:1.0;"/><path d="M408.5938,605.6719 C407.6563,605.2344 407.0625,605.0938 406.1875,605.0938 C403.5625,605.0938 401.5625,607.1719 401.5625,609.8906 L401.5625,611.0156 C401.5625,613.5938 403.6719,615.4844 406.5625,615.4844 C407.7813,615.4844 408.9375,615.1875 409.6875,614.6406 C410.2656,614.2344 410.5938,613.7813 410.5938,613.3906 C410.5938,612.9375 410.2031,612.5469 409.7344,612.5469 C409.5156,612.5469 409.3125,612.625 409.125,612.8125 C408.6719,613.2969 408.6719,613.2969 408.4844,613.3906 C408.0625,613.6563 407.375,613.7813 406.6094,613.7813 C404.5625,613.7813 403.2656,612.6875 403.2656,610.9844 L403.2656,609.8906 C403.2656,608.1094 404.5156,606.7969 406.25,606.7969 C406.8281,606.7969 407.4375,606.9531 407.9063,607.2031 C408.3906,607.4844 408.5625,607.7031 408.6563,608.1094 C408.7188,608.5156 408.75,608.6406 408.8906,608.7656 C409.0313,608.9063 409.2656,609.0156 409.4844,609.0156 C409.75,609.0156 410.0156,608.875 410.1875,608.6563 C410.2969,608.5 410.3281,608.3125 410.3281,607.8906 L410.3281,606.4688 C410.3281,606.0313 410.3125,605.9063 410.2188,605.75 C410.0625,605.4844 409.7813,605.3438 409.4844,605.3438 C409.1875,605.3438 408.9844,605.4375 408.7656,605.75 L408.5938,605.6719 Z " fill="#000000"/><text fill="#000000" font-family="Arial" font-size="14" lengthAdjust="spacing" textLength="152" x="420.75" y="614.8467">OFERTAS DE EMPLEO</text><line style="stroke:#181818;stroke-width:0.5;" x1="390" x2="577" y1="626" y2="626"/><rect fill="none" height="6" style="stroke:#C82930;stroke-width:1.0;" width="6" x="397" y="636.6484"/><text fill="#000000" font-family="Arial" font-size="14" lengthAdjust="spacing" textLength="163" x="409" y="642.9951">Nombre de la empresa</text><rect fill="none" height="6" style="stroke:#C82930;stroke-width:1.0;" width="6" x="397" y="652.9453"/><text fill="#000000" font-family="Arial" font-size="14" lengthAdjust="spacing" textLength="127" x="409" y="659.292">Puesto de trabajo</text><rect fill="none" height="6" style="stroke:#C82930;stroke-width:1.0;" width="6" x="397" y="669.2422"/><text fill="#000000" font-family="Arial" font-size="14" lengthAdjust="spacing" textLength="48" x="409" y="675.5889">Salario</text><rect fill="none" height="6" style="stroke:#C82930;stroke-width:1.0;" width="6" x="397" y="685.5391"/><text fill="#000000" font-family="Arial" font-size="14" lengthAdjust="spacing" textLength="69" x="409" y="691.8857">Ubicaci&#243;n</text><line style="stroke:#181818;stroke-width:0.5;" x1="390" x2="577" y1="699.1875" y2="699.1875"/></g><!--class ESTAD?STICAS--><g id="elem_ESTAD&#205;STICAS"><rect fill="#F1F1F1" height="48" id="ESTAD&#205;STICAS" rx="2.5" ry="2.5" style="stroke:#181818;stroke-width:0.5;" width="135" x="7" y="808.5"/><ellipse cx="22" cy="824.5" fill="#ADD1B2" rx="11" ry="11" style="stroke:#181818;stroke-width:1.0;"/><path d="M24.3438,820.1719 C23.4063,819.7344 22.8125,819.5938 21.9375,819.5938 C19.3125,819.5938 17.3125,821.6719 17.3125,824.3906 L17.3125,825.5156 C17.3125,828.0938 19.4219,829.9844 22.3125,829.9844 C23.5313,829.9844 24.6875,829.6875 25.4375,829.1406 C26.0156,828.7344 26.3438,828.2813 26.3438,827.8906 C26.3438,827.4375 25.9531,827.0469 25.4844,827.0469 C25.2656,827.0469 25.0625,827.125 24.875,827.3125 C24.4219,827.7969 24.4219,827.7969 24.2344,827.8906 C23.8125,828.1563 23.125,828.2813 22.3594,828.2813 C20.3125,828.2813 19.0156,827.1875 19.0156,825.4844 L19.0156,824.3906 C19.0156,822.6094 20.2656,821.2969 22,821.2969 C22.5781,821.2969 23.1875,821.4531 23.6563,821.7031 C24.1406,821.9844 24.3125,822.2031 24.4063,822.6094 C24.4688,823.0156 24.5,823.1406 24.6406,823.2656 C24.7813,823.4063 25.0156,823.5156 25.2344,823.5156 C25.5,823.5156 25.7656,823.375 25.9375,823.1563 C26.0469,823 26.0781,822.8125 26.0781,822.3906 L26.0781,820.9688 C26.0781,820.5313 26.0625,820.4063 25.9688,820.25 C25.8125,819.9844 25.5313,819.8438 25.2344,819.8438 C24.9375,819.8438 24.7344,819.9375 24.5156,820.25 L24.3438,820.1719 Z " fill="#000000"/><text fill="#000000" font-family="Arial" font-size="14" lengthAdjust="spacing" textLength="103" x="36" y="829.3467">ESTAD&#205;STICAS</text><line style="stroke:#181818;stroke-width:0.5;" x1="8" x2="141" y1="840.5" y2="840.5"/><line style="stroke:#181818;stroke-width:0.5;" x1="8" x2="141" y1="848.5" y2="848.5"/></g><!--link ALUMNI to COMUNICACI?N--><g id="link_ALUMNI_COMUNICACI&#211;N"><path codeLine="83" d="M362.048,71.228 C352.794,79.956 343.853,90.075 337.5,101 C329.286,115.125 324.138,132.113 320.912,147.767 " fill="none" id="ALUMNI-COMUNICACI&#211;N" style="stroke:#181818;stroke-width:1.0;"/><text fill="#000000" font-family="Arial" font-size="13" lengthAdjust="spacing" textLength="91" x="338.5" y="114.0669">se encarga de</text></g><!--link COMUNICACI?N to ADMINISTRADOR--><g id="link_COMUNICACI&#211;N_ADMINISTRADOR"><path codeLine="84" d="M266.955,245.182 C236.984,274.62 197.944,312.966 164.207,346.103 " fill="none" id="COMUNICACI&#211;N-ADMINISTRADOR" style="stroke:#181818;stroke-width:1.0;"/></g><!--link COMUNICACI?N to USUARIO--><g id="link_COMUNICACI&#211;N_USUARIO"><path codeLine="85" d="M315.068,245.182 C314.865,267.641 314.615,295.286 314.375,321.846 " fill="none" id="COMUNICACI&#211;N-USUARIO" style="stroke:#181818;stroke-width:1.0;"/></g><!--link ALUMNI to INSCRIPCI?N--><g id="link_ALUMNI_INSCRIPCI&#211;N"><path codeLine="86" d="M420.297,71.094 C434.947,98.215 456.09,137.355 470.732,164.46 " fill="none" id="ALUMNI-INSCRIPCI&#211;N" style="stroke:#181818;stroke-width:1.0;"/><text fill="#000000" font-family="Arial" font-size="13" lengthAdjust="spacing" textLength="32" x="446.5" y="114.0669">tiene</text></g><!--link INSCRIPCI?N to SUSCRIPCI?N--><g id="link_INSCRIPCI&#211;N_SUSCRIPCI&#211;N"><path codeLine="87" d="M532.246,228.695 C583.446,264.39 668.117,323.419 729.457,366.183 " fill="none" id="INSCRIPCI&#211;N-SUSCRIPCI&#211;N" style="stroke:#181818;stroke-width:1.0;"/><text fill="#000000" font-family="Arial" font-size="13" lengthAdjust="spacing" textLength="78" x="619.5" y="288.0669">con pago es</text></g><!--link INSCRIPCI?N to SERVICIOS--><g id="link_INSCRIPCI&#211;N_SERVICIOS"><path codeLine="88" d="M487.782,228.695 C488.139,268.078 488.752,335.868 489.141,378.875 " fill="none" id="INSCRIPCI&#211;N-SERVICIOS" style="stroke:#181818;stroke-width:1.0;"/><text fill="#000000" font-family="Arial" font-size="13" lengthAdjust="spacing" textLength="32" x="489.5" y="288.0669">tiene</text></g><!--link COMUNICACI?N to SERVICIOS--><g id="link_COMUNICACI&#211;N_SERVICIOS"><path codeLine="89" d="M353.041,245.182 C384.411,285.025 428.628,341.186 458.136,378.663 " fill="none" id="COMUNICACI&#211;N-SERVICIOS" style="stroke:#181818;stroke-width:1.0;stroke-dasharray:7.0,7.0;"/><text fill="#000000" font-family="Arial" font-size="13" lengthAdjust="spacing" textLength="35" x="388.5" y="288.0669">es un</text></g><!--link SERVICIOS to SERVICIO DE SUSCRIPCION--><g id="link_SERVICIOS_SERVICIO DE SUSCRIPCION"><path codeLine="90" d="M545.404,450.203 C622.162,490.986 760.379,564.424 845.895,609.861 " fill="none" id="SERVICIOS-SERVICIO DE SUSCRIPCION" style="stroke:#181818;stroke-width:1.0;"/><text fill="#000000" font-family="Arial" font-size="13" lengthAdjust="spacing" textLength="45" x="757.5" y="560.0669">incluye</text></g><!--link SUSCRIPCI?N to SERVICIO DE SUSCRIPCION--><g id="link_SUSCRIPCI&#211;N_SERVICIO DE SUSCRIPCION"><path codeLine="91" d="M832.728,476.227 C853.652,517.533 881.668,572.84 900.363,609.746 " fill="none" id="SUSCRIPCI&#211;N-SERVICIO DE SUSCRIPCION" style="stroke:#181818;stroke-width:1.0;"/><text fill="#000000" font-family="Arial" font-size="13" lengthAdjust="spacing" textLength="32" x="876.5" y="560.0669">tiene</text></g><!--link INSCRIPCI?N to USUARIO--><g id="link_INSCRIPCI&#211;N_USUARIO"><path codeLine="92" d="M462.939,228.695 C443.735,253.086 415.952,288.374 389.539,321.922 " fill="none" id="INSCRIPCI&#211;N-USUARIO" style="stroke:#181818;stroke-width:1.0;stroke-dasharray:7.0,7.0;"/></g><!--link USUARIO to REQUISITO--><g id="link_USUARIO_REQUISITO"><path codeLine="93" d="M293.636,517.285 C286.195,553.539 278.256,592.222 272.9,618.317 " fill="none" id="USUARIO-REQUISITO" style="stroke:#181818;stroke-width:1.0;"/><text fill="#000000" font-family="Arial" font-size="13" lengthAdjust="spacing" textLength="54" x="288.5" y="560.0669">necesita</text></g><!--link USUARIO to REPOSITORIO--><g id="link_USUARIO_REPOSITORIO"><path codeLine="94" d="M231.456,495.979 C213.565,512.669 194.812,530.344 177.5,547 C159.048,564.753 139.036,584.542 121.602,601.961 " fill="none" id="USUARIO-REPOSITORIO" style="stroke:#181818;stroke-width:1.0;"/><text fill="#000000" font-family="Arial" font-size="13" lengthAdjust="spacing" textLength="97" x="178.5" y="560.0669">forma parte de</text></g><!--link ADMINISTRADOR to REPOSITORIO--><g id="link_ADMINISTRADOR_REPOSITORIO"><path codeLine="95" d="M67.9539,492.646 C63.0226,515.319 59.7279,540.556 61.5,564 C62.428,576.277 64.0953,589.461 65.9331,601.712 " fill="none" id="ADMINISTRADOR-REPOSITORIO" style="stroke:#181818;stroke-width:1.0;"/><text fill="#000000" font-family="Arial" font-size="13" lengthAdjust="spacing" textLength="68" x="62.5" y="560.0669">administra</text></g><!--link REPOSITORIO to ESTAD?STICAS--><g id="link_REPOSITORIO_ESTAD&#205;STICAS"><path codeLine="96" d="M74.5,699.264 C74.5,734.468 74.5,780.821 74.5,808.2605 " fill="none" id="REPOSITORIO-ESTAD&#205;STICAS" style="stroke:#181818;stroke-width:1.0;"/><text fill="#000000" font-family="Arial" font-size="13" lengthAdjust="spacing" textLength="57" x="75.5" y="750.0669">se sacan</text></g><!--link SERVICIOS to NEWSLETTER--><g id="link_SERVICIOS_NEWSLETTER"><path codeLine="97" d="M524.801,460.127 C559.811,499.427 613.489,559.684 650.861,601.635 " fill="none" id="SERVICIOS-NEWSLETTER" style="stroke:#181818;stroke-width:1.0;"/></g><!--link SERVICIO DE SUSCRIPCION to ACCESO A INSTALACIONES--><g id="link_SERVICIO DE SUSCRIPCION_ACCESO A INSTALACIONES"><path codeLine="98" d="M920.5,691.002 C920.5,718.323 920.5,754.823 920.5,783.7727 " fill="none" id="SERVICIO DE SUSCRIPCION-ACCESO A INSTALACIONES" style="stroke:#181818;stroke-width:1.0;"/></g><!--link SERVICIOS to OFERTAS DE EMPLEO--><g id="link_SERVICIOS_OFERTAS DE EMPLEO"><path codeLine="99" d="M488.462,460.127 C487.496,496.995 486.047,552.305 484.963,593.645 " fill="none" id="SERVICIOS-OFERTAS DE EMPLEO" style="stroke:#181818;stroke-width:1.0;"/></g><!--SRC=[bLJ1Zfim4Btp5MukFT4FoCrBl19IWbCChTJRX3YxRi56ngnKhVOJUkfNxBcVa1_hW270PdVLdZ2UcJTltipuumTtBoj9e59t43G_bAx1GaMEyWHjwMwDTWcWdLe5PH0K9JGDeTjybyJaCI24r2KuE1bRGV0qsdEHqpJcte74c_wJcEfW9UdFj9PbgOx6_x4ALEcFxK4LK2YZ_U-jBEu1kP04BoibjHj2UD7MU7N-e_lV2AoMhdDaZMkF2hIJFf6LG6W1n_DpXSWJnPHzpcCHPoF9JBcsz8YarUf1saOvmAAda3WHKHhle_ZyEtcSbJHvqCqkJcAHfNJ3q_yl_flHVR7EmW6-ctSaU29ap2doYHLvl4gsjnBbzEVT-TaPp8jWUxWp7XxjhTI5WilrfHp1qYzn57Cnu8OBv91iP5DOLNlHCCn7hSOmic4JEvwi_WraG8duBa_YYCxh2hrOmpcw1pSSCrdAaz5ctjuzxxexJM4uT29C-EucPVuSyIIZKSOdyZIAcE24TjtEw9Psp9bONHZSg4EfZ9CuI_v2GDbBP-nHQZWQAvl14kl6GJTJHZReKHlhr0Cq4yc4VHLRbcKidGdi5FPYX60FNR_7FtwIra67HMHLbt9MxuhViZIZejESxVPRnbSlcuPHo1G3aU58Vj_AnfdPpCsAichyo_rITik62OVb3yCNFLgJ1ddf0knTBqYmDAF_OZrUiG_FnYp3VEKmWSFnby7Y4fqM6x0c1JuUDSunmKPSkLucUWHRalZqQU62VMjrCDqWmflJZUvA5sNxKmOBGc7uNiWh5I67KOZn7SMyqtkr9beMidkTHdjldkPzJVhd64MmhcjxiDJzoXkEbTAgmGa8vWRqOxW2c_ClaQ50mZUuWG9UIZBDyIfuirZKuOtTcc9mppgywrd-2m00]--></g></svg>