<?xml version="1.0" encoding="us-ascii" standalone="no"?><svg xmlns="http://www.w3.org/2000/svg" xmlns:xlink="http://www.w3.org/1999/xlink" contentStyleType="text/css" height="1006px" preserveAspectRatio="none" style="width:920px;height:1006px;background:#FFFFFF;" version="1.1" viewBox="0 0 920 1006" width="920px" zoomAndPan="magnify"><defs/><g><!--cluster RevisarTrimestre--><g id="cluster_RevisarTrimestre"><path d="M265.5,379 L616.5,379 A12.5,12.5 0 0 1 629,391.5 L629,400.2969 L253,400.2969 L253,391.5 A12.5,12.5 0 0 1 265.5,379 " fill="#F1F1F1" style="stroke:#F1F1F1;stroke-width:1.0;"/><rect fill="none" height="315.36" rx="12.5" ry="12.5" style="stroke:#181818;stroke-width:0.5;" width="376" x="253" y="379"/><line style="stroke:#181818;stroke-width:0.5;" x1="253" x2="629" y1="400.2969" y2="400.2969"/><text fill="#000000" font-family="sans-serif" font-size="14" lengthAdjust="spacing" textLength="123" x="379.5" y="395.9951">RevisarTrimestre</text></g><!--cluster RevisarAsignaturas--><g id="cluster_RevisarAsignaturas"><path d="M681.5,7 L884.5,7 A12.5,12.5 0 0 1 897,19.5 L897,28.2969 L669,28.2969 L669,19.5 A12.5,12.5 0 0 1 681.5,7 " fill="#F1F1F1" style="stroke:#F1F1F1;stroke-width:1.0;"/><rect fill="none" height="789.72" rx="12.5" ry="12.5" style="stroke:#181818;stroke-width:0.5;" width="228" x="669" y="7"/><line style="stroke:#181818;stroke-width:0.5;" x1="669" x2="897" y1="28.2969" y2="28.2969"/><text fill="#000000" font-family="sans-serif" font-size="14" lengthAdjust="spacing" textLength="135" x="715.5" y="23.9951">RevisarAsignaturas</text></g><ellipse cx="437" cy="432" fill="#222222" rx="10" ry="10" style="stroke:#222222;stroke-width:1.0;"/><g id="RevisarTrimestre.PrimerTrimestre"><rect fill="#F1F1F1" height="50" rx="12.5" ry="12.5" style="stroke:#181818;stroke-width:0.5;" width="139" x="277.5" y="534"/><line style="stroke:#181818;stroke-width:0.5;" x1="277.5" x2="416.5" y1="560.2969" y2="560.2969"/><text fill="#000000" font-family="sans-serif" font-size="14" lengthAdjust="spacing" textLength="119" x="287.5" y="551.9951">PrimerTrimestre</text></g><g id="RevisarTrimestre.SegundoTrimestre"><rect fill="#F1F1F1" height="50" rx="12.5" ry="12.5" style="stroke:#181818;stroke-width:0.5;" width="153" x="451.5" y="534"/><line style="stroke:#181818;stroke-width:0.5;" x1="451.5" x2="604.5" y1="560.2969" y2="560.2969"/><text fill="#000000" font-family="sans-serif" font-size="14" lengthAdjust="spacing" textLength="133" x="461.5" y="551.9951">SegundoTrimestre</text></g><ellipse cx="746" cy="60" fill="#222222" rx="10" ry="10" style="stroke:#222222;stroke-width:1.0;"/><g id="RevisarAsignaturas.Asignatura1"><rect fill="#F1F1F1" height="50" rx="12.5" ry="12.5" style="stroke:#181818;stroke-width:0.5;" width="105" x="693.5" y="131"/><line style="stroke:#181818;stroke-width:0.5;" x1="693.5" x2="798.5" y1="157.2969" y2="157.2969"/><text fill="#000000" font-family="sans-serif" font-size="14" lengthAdjust="spacing" textLength="85" x="703.5" y="148.9951">Asignatura1</text></g><g id="RevisarAsignaturas.Asignatura2"><rect fill="#F1F1F1" height="50" rx="12.5" ry="12.5" style="stroke:#181818;stroke-width:0.5;" width="104" x="693" y="258"/><line style="stroke:#181818;stroke-width:0.5;" x1="693" x2="797" y1="284.2969" y2="284.2969"/><text fill="#000000" font-family="sans-serif" font-size="14" lengthAdjust="spacing" textLength="84" x="703" y="275.9951">Asignatura2</text></g><g id="RevisarAsignaturas.Asignatura3"><rect fill="#F1F1F1" height="50" rx="12.5" ry="12.5" style="stroke:#181818;stroke-width:0.5;" width="105" x="693.5" y="407"/><line style="stroke:#181818;stroke-width:0.5;" x1="693.5" x2="798.5" y1="433.2969" y2="433.2969"/><text fill="#000000" font-family="sans-serif" font-size="14" lengthAdjust="spacing" textLength="85" x="703.5" y="424.9951">Asignatura3</text></g><g id="RevisarAsignaturas.Asignatura4"><rect fill="#F1F1F1" height="50" rx="12.5" ry="12.5" style="stroke:#181818;stroke-width:0.5;" width="104" x="693" y="534"/><line style="stroke:#181818;stroke-width:0.5;" x1="693" x2="797" y1="560.2969" y2="560.2969"/><text fill="#000000" font-family="sans-serif" font-size="14" lengthAdjust="spacing" textLength="84" x="703" y="551.9951">Asignatura4</text></g><g id="RevisarAsignaturas.Asignatura5"><rect fill="#F1F1F1" height="50" rx="12.5" ry="12.5" style="stroke:#181818;stroke-width:0.5;" width="105" x="693.5" y="661"/><line style="stroke:#181818;stroke-width:0.5;" x1="693.5" x2="798.5" y1="687.2969" y2="687.2969"/><text fill="#000000" font-family="sans-serif" font-size="14" lengthAdjust="spacing" textLength="85" x="703.5" y="678.9951">Asignatura5</text></g><ellipse cx="87" cy="283" fill="#222222" rx="10" ry="10" style="stroke:#222222;stroke-width:1.0;"/><g id="InicioHorariosGrado"><rect fill="#F1F1F1" height="50" rx="12.5" ry="12.5" style="stroke:#181818;stroke-width:0.5;" width="160" x="7" y="407"/><line style="stroke:#181818;stroke-width:0.5;" x1="7" x2="167" y1="433.2969" y2="433.2969"/><text fill="#000000" font-family="sans-serif" font-size="14" lengthAdjust="spacing" textLength="140" x="17" y="424.9951">InicioHorariosGrado</text></g><g id="RevisarA&#241;oGrado"><rect fill="#F1F1F1" height="50" rx="12.5" ry="12.5" style="stroke:#181818;stroke-width:0.5;" width="143" x="50.5" y="534"/><line style="stroke:#181818;stroke-width:0.5;" x1="50.5" x2="193.5" y1="560.2969" y2="560.2969"/><text fill="#000000" font-family="sans-serif" font-size="14" lengthAdjust="spacing" textLength="123" x="60.5" y="551.9951">RevisarA&#241;oGrado</text></g><g id="HorarioGradoCompleto"><rect fill="#F1F1F1" height="50" rx="12.5" ry="12.5" style="stroke:#181818;stroke-width:0.5;" width="187" x="608.5" y="867.72"/><line style="stroke:#181818;stroke-width:0.5;" x1="608.5" x2="795.5" y1="894.0169" y2="894.0169"/><text fill="#000000" font-family="sans-serif" font-size="14" lengthAdjust="spacing" textLength="167" x="618.5" y="885.7151">HorarioGradoCompleto</text></g><ellipse cx="702" cy="989.72" fill="none" rx="11" ry="11" style="stroke:#222222;stroke-width:1.0;"/><ellipse cx="702" cy="989.72" fill="#222222" rx="6" ry="6" style="stroke:#222222;stroke-width:1.0;"/><!--link *start* to InicioHorariosGrado--><g id="link_*start*_InicioHorariosGrado"><path d="M87,293.196 C87,315.635 87,367.78 87,400.928 " fill="none" id="*start*-to-InicioHorariosGrado" style="stroke:#181818;stroke-width:1.0;"/><polygon fill="#181818" points="87,406.928,91,397.928,87,401.928,83,397.928,87,406.928" style="stroke:#181818;stroke-width:1.0;"/></g><!--link InicioHorariosGrado to RevisarA?oGrado--><g id="link_InicioHorariosGrado_RevisarA&#241;oGrado"><path d="M93.7484,457.101 C99.9461,479.236 107.4633,506.0832 113.6543,528.1952 " fill="none" id="InicioHorariosGrado-to-RevisarA&#241;oGrado" style="stroke:#181818;stroke-width:1.0;"/><polygon fill="#181818" points="115.272,533.973,116.6973,524.2278,113.9239,529.1582,108.9936,526.3847,115.272,533.973" style="stroke:#181818;stroke-width:1.0;"/><text fill="#000000" font-family="sans-serif" font-size="13" lengthAdjust="spacing" textLength="140" x="108" y="500.0669">Revisar a&#241;o del grado</text></g><!--link RevisarA?oGrado to RevisarTrimestre--><g id="link_RevisarA&#241;oGrado_RevisarTrimestre"><path d="M149.032,584.206 C167.551,599.627 193.322,618.909 219,631 C229.872,636.1193 235.6581,638.7364 247.3291,643.0025 " fill="none" id="RevisarA&#241;oGrado-to-RevisarTrimestre" style="stroke:#181818;stroke-width:1.0;"/><polygon fill="#181818" points="252.9644,645.0624,245.8847,638.2157,248.2683,643.3458,243.1382,645.7295,252.9644,645.0624" style="stroke:#181818;stroke-width:1.0;"/><text fill="#000000" font-family="sans-serif" font-size="13" lengthAdjust="spacing" textLength="156" x="220" y="627.0669">A&#241;o del grado verificado</text></g><!--link *start*RevisarTrimestre to PrimerTrimestre--><g id="link_*start*RevisarTrimestre_PrimerTrimestre"><path d="M431.64,440.445 C418.66,458.473 388.5908,500.2348 367.8408,529.0548 " fill="none" id="*start*RevisarTrimestre-to-PrimerTrimestre" style="stroke:#181818;stroke-width:1.0;"/><polygon fill="#181818" points="364.335,533.924,372.8398,528.9573,367.2565,529.8663,366.3475,524.283,364.335,533.924" style="stroke:#181818;stroke-width:1.0;"/></g><!--link PrimerTrimestre to RevisarTrimestre--><g id="link_PrimerTrimestre_RevisarTrimestre"><path d="M363.389,584.101 C387.703,619.857 427.2573,678.028 428.5933,679.992 " fill="none" id="PrimerTrimestre-to-RevisarTrimestre" style="stroke:#181818;stroke-width:1.0;"/><polygon fill="#181818" points="431.968,684.953,430.2133,675.2617,429.1558,680.8188,423.5986,679.7613,431.968,684.953" style="stroke:#181818;stroke-width:1.0;"/></g><!--link *start*RevisarTrimestre to SegundoTrimestre--><g id="link_*start*RevisarTrimestre_SegundoTrimestre"><path d="M442.42,440.445 C455.544,458.473 485.9607,500.2533 506.9417,529.0733 " fill="none" id="*start*RevisarTrimestre-to-SegundoTrimestre" style="stroke:#181818;stroke-width:1.0;"/><polygon fill="#181818" points="510.473,533.924,508.4098,524.2937,507.5302,529.8817,501.9422,529.0021,510.473,533.924" style="stroke:#181818;stroke-width:1.0;"/></g><!--link SegundoTrimestre to RevisarTrimestre--><g id="link_SegundoTrimestre_RevisarTrimestre"><path d="M509.49,584.101 C482.03,619.857 437.2006,678.2312 435.6916,680.1952 " fill="none" id="SegundoTrimestre-to-RevisarTrimestre" style="stroke:#181818;stroke-width:1.0;"/><polygon fill="#181818" points="432.036,684.953,440.6912,680.2533,435.0823,680.9882,434.3475,675.3792,432.036,684.953" style="stroke:#181818;stroke-width:1.0;"/></g><!--link RevisarTrimestre to RevisarAsignaturas--><g id="link_RevisarTrimestre_RevisarAsignaturas"><path d="M444.7982,694.469 C445.3037,694.7584 445.8225,695.0548 446.3542,695.358 C454.8611,700.2091 466.6744,706.7931 480.4909,714.0803 C508.1238,728.6545 543.769,746.041 577,758 C603.459,767.522 634.1535,774.9383 658.5045,780.0149 C661.5484,780.6495 664.4931,781.2475 667.3181,781.8085 C667.6712,781.8786 668.0225,781.9482 668.3718,782.0171 C668.5465,782.0516 662.8337,780.9271 663.0074,780.9613 " fill="none" id="RevisarTrimestre-to-RevisarAsignaturas" style="stroke:#181818;stroke-width:1.0;"/><polygon fill="#181818" points="668.8944,782.1201,660.8364,776.4572,663.9885,781.1544,659.2913,784.3065,668.8944,782.1201" style="stroke:#181818;stroke-width:1.0;"/><text fill="#000000" font-family="sans-serif" font-size="13" lengthAdjust="spacing" textLength="129" x="578" y="754.0669">Trimestre verificado</text></g><!--link *start*RevisarAsignaturas to Asignatura1--><g id="link_*start*RevisarAsignaturas_Asignatura1"><path d="M746,70.013 C746,83.891 746,104.965 746,124.84 " fill="none" id="*start*RevisarAsignaturas-to-Asignatura1" style="stroke:#181818;stroke-width:1.0;"/><polygon fill="#181818" points="746,130.84,750,121.84,746,125.84,742,121.84,746,130.84" style="stroke:#181818;stroke-width:1.0;"/></g><!--link Asignatura1 to Asignatura2--><g id="link_Asignatura1_Asignatura2"><path d="M745.807,181.101 C745.63,203.236 745.417,229.8612 745.24,251.9732 " fill="none" id="Asignatura1-to-Asignatura2" style="stroke:#181818;stroke-width:1.0;"/><polygon fill="#181818" points="745.192,257.973,749.2639,249.0053,745.232,252.9732,741.2642,248.9413,745.192,257.973" style="stroke:#181818;stroke-width:1.0;"/><text fill="#000000" font-family="sans-serif" font-size="13" lengthAdjust="spacing" textLength="143" x="746" y="224.0669">Asignatura 1 asignada</text></g><!--link Asignatura2 to Asignatura3--><g id="link_Asignatura2_Asignatura3"><path d="M745.165,308.274 C745.35,335.511 745.608,373.4381 745.794,400.6901 " fill="none" id="Asignatura2-to-Asignatura3" style="stroke:#181818;stroke-width:1.0;"/><polygon fill="#181818" points="745.835,406.69,749.7735,397.6629,745.8009,401.6901,741.7737,397.7175,745.835,406.69" style="stroke:#181818;stroke-width:1.0;"/><text fill="#000000" font-family="sans-serif" font-size="13" lengthAdjust="spacing" textLength="143" x="746" y="351.0669">Asignatura 2 asignada</text></g><!--link Asignatura3 to Asignatura4--><g id="link_Asignatura3_Asignatura4"><path d="M745.807,457.101 C745.63,479.236 745.417,505.8612 745.24,527.9732 " fill="none" id="Asignatura3-to-Asignatura4" style="stroke:#181818;stroke-width:1.0;"/><polygon fill="#181818" points="745.192,533.973,749.2639,525.0053,745.232,528.9732,741.2642,524.9413,745.192,533.973" style="stroke:#181818;stroke-width:1.0;"/><text fill="#000000" font-family="sans-serif" font-size="13" lengthAdjust="spacing" textLength="143" x="746" y="500.0669">Asignatura 3 asignada</text></g><!--link Asignatura4 to Asignatura5--><g id="link_Asignatura4_Asignatura5"><path d="M745.193,584.101 C745.37,606.236 745.583,632.8612 745.76,654.9732 " fill="none" id="Asignatura4-to-Asignatura5" style="stroke:#181818;stroke-width:1.0;"/><polygon fill="#181818" points="745.808,660.973,749.7358,651.9413,745.768,655.9732,741.7361,652.0053,745.808,660.973" style="stroke:#181818;stroke-width:1.0;"/><text fill="#000000" font-family="sans-serif" font-size="13" lengthAdjust="spacing" textLength="143" x="746" y="627.0669">Asignatura 4 asignada</text></g><!--link Asignatura5 to RevisarAsignaturas--><g id="link_Asignatura5_RevisarAsignaturas"><path d="M735.461,711.192 C722.851,740.138 705.6662,779.5832 704.4552,782.3632 " fill="none" id="Asignatura5-to-RevisarAsignaturas" style="stroke:#181818;stroke-width:1.0;"/><polygon fill="#181818" points="702.059,787.864,709.3205,781.2103,704.0558,783.28,701.9861,778.0154,702.059,787.864" style="stroke:#181818;stroke-width:1.0;"/><text fill="#000000" font-family="sans-serif" font-size="13" lengthAdjust="spacing" textLength="143" x="723" y="754.0669">Asignatura 5 asignada</text></g><!--link RevisarAsignaturas to HorarioGradoCompleto--><g id="link_RevisarAsignaturas_HorarioGradoCompleto"><path d="M702,796.7665 C702,796.84 702,796.9141 702,796.9886 C702,797.1376 702,797.2885 702,797.4412 C702,797.7466 702,798.0593 702,798.3792 C702,803.4965 702,810.4301 702,818.222 C702,833.8058 702,846.8225 702,861.608 " fill="none" id="RevisarAsignaturas-to-HorarioGradoCompleto" style="stroke:#181818;stroke-width:1.0;"/><polygon fill="#181818" points="702,867.608,706,858.608,702,862.608,698,858.608,702,867.608" style="stroke:#181818;stroke-width:1.0;"/><text fill="#000000" font-family="sans-serif" font-size="13" lengthAdjust="spacing" textLength="209" x="703" y="833.7869">Todas las asignaturas asignadas</text></g><!--link HorarioGradoCompleto to *end*--><g id="link_HorarioGradoCompleto_*end*"><path d="M702,918.1849 C702,937.7564 702,958.2121 702,972.5167 " fill="none" id="HorarioGradoCompleto-to-*end*" style="stroke:#181818;stroke-width:1.0;"/><polygon fill="#181818" points="702,978.5167,706,969.5167,702,973.5167,698,969.5167,702,978.5167" style="stroke:#181818;stroke-width:1.0;"/></g><!--SRC=[TP8xZi8m48PxdsBgbLAGHqE1XBROfKD0XoX6s4IMGeniGuCu56VWOjZcuKVYI2dcd_b-UyQp_Tb1KSnWqVCz5_z2ekH2_KcaWf0HqHMls8KhbFF7NRp4wKS2D1fGra7hB0QL0RwH_CYKbipWymY32vFymFVk4agZPaFcIi1ys_VrbrRtMPTBjF6Z8vSrQyyz5R5DAexwa1iX0-zmL8gtFUgpH6MwzINPHaCWRjLd9auFuYHVsi5-8vW0ke1YmfK9LyLScUEgXAjZhifnTS8rCLVdk2O_qG1lFEuV9Qos9k-TTZlvAuwdZccxnHj1JK5dVWo0ZvyYevZrCu_p1000]--></g></svg>