<?xml version="1.0" encoding="us-ascii" standalone="no"?><svg xmlns="http://www.w3.org/2000/svg" xmlns:xlink="http://www.w3.org/1999/xlink" contentStyleType="text/css" height="639px" preserveAspectRatio="none" style="width:496px;height:639px;background:#FFFFFF;" version="1.1" viewBox="0 0 496 639" width="496px" zoomAndPan="magnify"><defs/><g><ellipse cx="195.5" cy="16" fill="#222222" rx="10" ry="10" style="stroke:#222222;stroke-width:1.0;"/><g id="GradosNoRecibidos"><rect fill="#F1F1F1" height="50" rx="12.5" ry="12.5" style="stroke:#181818;stroke-width:0.5;" width="159" x="116" y="103"/><line style="stroke:#181818;stroke-width:0.5;" x1="116" x2="275" y1="129.2969" y2="129.2969"/><text fill="#000000" font-family="sans-serif" font-size="14" lengthAdjust="spacing" textLength="139" x="126" y="120.9951">GradosNoRecibidos</text></g><g id="TodosLosGradosRecibidos"><rect fill="#F1F1F1" height="50" rx="12.5" ry="12.5" style="stroke:#181818;stroke-width:0.5;" width="207" x="92" y="230"/><line style="stroke:#181818;stroke-width:0.5;" x1="92" x2="299" y1="256.2969" y2="256.2969"/><text fill="#000000" font-family="sans-serif" font-size="14" lengthAdjust="spacing" textLength="187" x="102" y="247.9951">TodosLosGradosRecibidos</text></g><g id="AsignandoGradosADocente"><rect fill="#F1F1F1" height="50" rx="12.5" ry="12.5" style="stroke:#181818;stroke-width:0.5;" width="216" x="87.5" y="357"/><line style="stroke:#181818;stroke-width:0.5;" x1="87.5" x2="303.5" y1="383.2969" y2="383.2969"/><text fill="#000000" font-family="sans-serif" font-size="14" lengthAdjust="spacing" textLength="196" x="97.5" y="374.9951">AsignandoGradosADocente</text></g><g id="GradosNoAsignados"><rect fill="#F1F1F1" height="50" rx="12.5" ry="12.5" style="stroke:#181818;stroke-width:0.5;" width="161" x="7" y="484"/><line style="stroke:#181818;stroke-width:0.5;" x1="7" x2="168" y1="510.2969" y2="510.2969"/><text fill="#000000" font-family="sans-serif" font-size="14" lengthAdjust="spacing" textLength="141" x="17" y="501.9951">GradosNoAsignados</text></g><g id="GradosAsignadosADocente"><rect fill="#F1F1F1" height="50" rx="12.5" ry="12.5" style="stroke:#181818;stroke-width:0.5;" width="214" x="203.5" y="484"/><line style="stroke:#181818;stroke-width:0.5;" x1="203.5" x2="417.5" y1="510.2969" y2="510.2969"/><text fill="#000000" font-family="sans-serif" font-size="14" lengthAdjust="spacing" textLength="194" x="213.5" y="501.9951">GradosAsignadosADocente</text></g><ellipse cx="310.5" cy="622" fill="none" rx="11" ry="11" style="stroke:#222222;stroke-width:1.0;"/><ellipse cx="310.5" cy="622" fill="#222222" rx="6" ry="6" style="stroke:#222222;stroke-width:1.0;"/><!--link *start* to GradosNoRecibidos--><g id="link_*start*_GradosNoRecibidos"><path d="M195.5,26.002 C195.5,42.627 195.5,72.655 195.5,96.873 " fill="none" id="*start*-to-GradosNoRecibidos" style="stroke:#181818;stroke-width:1.0;"/><polygon fill="#181818" points="195.5,102.873,199.5,93.873,195.5,97.873,191.5,93.873,195.5,102.873" style="stroke:#181818;stroke-width:1.0;"/><text fill="#000000" font-family="sans-serif" font-size="13" lengthAdjust="spacing" textLength="110" x="196.5" y="69.0669">Inicio del proceso</text></g><!--link GradosNoRecibidos to TodosLosGradosRecibidos--><g id="link_GradosNoRecibidos_TodosLosGradosRecibidos"><path d="M195.5,153.101 C195.5,175.236 195.5,201.861 195.5,223.973 " fill="none" id="GradosNoRecibidos-to-TodosLosGradosRecibidos" style="stroke:#181818;stroke-width:1.0;"/><polygon fill="#181818" points="195.5,229.973,199.5,220.973,195.5,224.973,191.5,220.973,195.5,229.973" style="stroke:#181818;stroke-width:1.0;"/><text fill="#000000" font-family="sans-serif" font-size="13" lengthAdjust="spacing" textLength="165" x="196.5" y="196.0669">Detectar grados faltantes</text></g><!--link TodosLosGradosRecibidos to AsignandoGradosADocente--><g id="link_TodosLosGradosRecibidos_AsignandoGradosADocente"><path d="M195.5,280.101 C195.5,302.236 195.5,328.861 195.5,350.973 " fill="none" id="TodosLosGradosRecibidos-to-AsignandoGradosADocente" style="stroke:#181818;stroke-width:1.0;"/><polygon fill="#181818" points="195.5,356.973,199.5,347.973,195.5,351.973,191.5,347.973,195.5,356.973" style="stroke:#181818;stroke-width:1.0;"/><text fill="#000000" font-family="sans-serif" font-size="13" lengthAdjust="spacing" textLength="138" x="196.5" y="323.0669">Comenzar asignaci&#243;n</text></g><!--link AsignandoGradosADocente to GradosNoAsignados--><g id="link_AsignandoGradosADocente_GradosNoAsignados"><path d="M123.605,407.006 C110.565,414.586 98.5625,424.394 90.5,437 C81.7255,450.719 80.5703,463.2004 82.1219,477.8534 " fill="none" id="AsignandoGradosADocente-to-GradosNoAsignados" style="stroke:#181818;stroke-width:1.0;"/><polygon fill="#181818" points="82.7537,483.82,85.7838,474.4488,82.2272,478.8478,77.8282,475.2912,82.7537,483.82" style="stroke:#181818;stroke-width:1.0;"/><text fill="#000000" font-family="sans-serif" font-size="13" lengthAdjust="spacing" textLength="186" x="91.5" y="450.0669">Identificar grados pendientes</text></g><!--link AsignandoGradosADocente to AsignandoGradosADocente--><g id="link_AsignandoGradosADocente_AsignandoGradosADocente"><path d="M303.691,370.951 C324.098,372.293 338.5,375.976 338.5,382 C338.5,388.024 330.0851,391.3133 309.6781,392.6553 " fill="none" id="AsignandoGradosADocente-to-AsignandoGradosADocente" style="stroke:#181818;stroke-width:1.0;"/><polygon fill="#181818" points="303.691,393.049,312.9341,396.4498,308.6802,392.7209,312.4091,388.467,303.691,393.049" style="stroke:#181818;stroke-width:1.0;"/><text fill="#000000" font-family="sans-serif" font-size="13" lengthAdjust="spacing" textLength="139" x="344.5" y="386.5669">Completar asignaci&#243;n</text></g><!--link AsignandoGradosADocente to GradosAsignadosADocente--><g id="link_AsignandoGradosADocente_GradosAsignadosADocente"><path d="M246.229,407.005 C259.368,415.086 272.59,425.126 282.5,437 C293.792,450.53 299.2568,463.3967 303.4888,478.1807 " fill="none" id="AsignandoGradosADocente-to-GradosAsignadosADocente" style="stroke:#181818;stroke-width:1.0;"/><polygon fill="#181818" points="305.14,483.949,306.5087,474.1957,303.764,479.1421,298.8176,476.3973,305.14,483.949" style="stroke:#181818;stroke-width:1.0;"/></g><!--link GradosAsignadosADocente to *end*--><g id="link_GradosAsignadosADocente_*end*"><path d="M310.5,534.0853 C310.5,558.0597 310.5,587.6954 310.5,604.9353 " fill="none" id="GradosAsignadosADocente-to-*end*" style="stroke:#181818;stroke-width:1.0;"/><polygon fill="#181818" points="310.5,610.9353,314.5,601.9353,310.5,605.9353,306.5,601.9353,310.5,610.9353" style="stroke:#181818;stroke-width:1.0;"/><text fill="#000000" font-family="sans-serif" font-size="13" lengthAdjust="spacing" textLength="116" x="311.5" y="577.0669">Proceso finalizado</text></g><!--SRC=[bP512i8m44NtESMi2xr05aAn88A8YBlIHKocCX0pfScgr_88NioOe4KaWhiXx_-VFqnNzL3NAzXCoh3Vyn4rdIcE4hQED34Oj31EhD6p-58bxudZj6EVwS8aj1XG1pN19I4Ob0tA1VIYv7dcDPukJZd36JPj_3oQ9ApvYcwESIefDDrlJXJK7rjbJTxAH4e3wQNLYCuGfbg_maeizHejXh-BlMkzc2Yy9qzNzH8E-H8ma5EMvYXw0000]--></g></svg>