<?xml version="1.0" encoding="us-ascii" standalone="no"?><svg xmlns="http://www.w3.org/2000/svg" xmlns:xlink="http://www.w3.org/1999/xlink" contentStyleType="text/css" height="842px" preserveAspectRatio="none" style="width:505px;height:842px;background:#FFFFFF;" version="1.1" viewBox="0 0 505 842" width="505px" zoomAndPan="magnify"><defs/><g><text fill="#000000" font-family="sans-serif" font-size="14" font-weight="bold" lengthAdjust="spacing" textLength="288" x="101.5" y="22.9951">Modelo de Dominio - Time Guardian</text><!--class GestorDeHorarios--><g id="elem_GestorDeHorarios"><rect codeLine="3" fill="#F1F1F1" height="64.2969" id="GestorDeHorarios" rx="2.5" ry="2.5" style="stroke:#181818;stroke-width:0.5;" width="160" x="158.5" y="44.2969"/><ellipse cx="173.5" cy="60.2969" fill="#ADD1B2" rx="11" ry="11" style="stroke:#181818;stroke-width:1.0;"/><path d="M175.8438,55.9688 C174.9063,55.5313 174.3125,55.3906 173.4375,55.3906 C170.8125,55.3906 168.8125,57.4688 168.8125,60.1875 L168.8125,61.3125 C168.8125,63.8906 170.9219,65.7813 173.8125,65.7813 C175.0313,65.7813 176.1875,65.4844 176.9375,64.9375 C177.5156,64.5313 177.8438,64.0781 177.8438,63.6875 C177.8438,63.2344 177.4531,62.8438 176.9844,62.8438 C176.7656,62.8438 176.5625,62.9219 176.375,63.1094 C175.9219,63.5938 175.9219,63.5938 175.7344,63.6875 C175.3125,63.9531 174.625,64.0781 173.8594,64.0781 C171.8125,64.0781 170.5156,62.9844 170.5156,61.2813 L170.5156,60.1875 C170.5156,58.4063 171.7656,57.0938 173.5,57.0938 C174.0781,57.0938 174.6875,57.25 175.1563,57.5 C175.6406,57.7813 175.8125,58 175.9063,58.4063 C175.9688,58.8125 176,58.9375 176.1406,59.0625 C176.2813,59.2031 176.5156,59.3125 176.7344,59.3125 C177,59.3125 177.2656,59.1719 177.4375,58.9531 C177.5469,58.7969 177.5781,58.6094 177.5781,58.1875 L177.5781,56.7656 C177.5781,56.3281 177.5625,56.2031 177.4688,56.0469 C177.3125,55.7813 177.0313,55.6406 176.7344,55.6406 C176.4375,55.6406 176.2344,55.7344 176.0156,56.0469 L175.8438,55.9688 Z " fill="#000000"/><text fill="#000000" font-family="sans-serif" font-size="14" lengthAdjust="spacing" textLength="128" x="187.5" y="65.1436">GestorDeHorarios</text><line style="stroke:#181818;stroke-width:0.5;" x1="159.5" x2="317.5" y1="76.2969" y2="76.2969"/><rect fill="none" height="6" style="stroke:#C82930;stroke-width:1.0;" width="6" x="166.5" y="86.9453"/><text fill="#000000" font-family="sans-serif" font-size="14" lengthAdjust="spacing" textLength="58" x="178.5" y="93.292">horarios</text><line style="stroke:#181818;stroke-width:0.5;" x1="159.5" x2="317.5" y1="100.5938" y2="100.5938"/></g><!--class Docente--><g id="elem_Docente"><rect codeLine="7" fill="#F1F1F1" height="80.5938" id="Docente" rx="2.5" ry="2.5" style="stroke:#181818;stroke-width:0.5;" width="94" x="260.5" y="185.2969"/><ellipse cx="275.5" cy="201.2969" fill="#ADD1B2" rx="11" ry="11" style="stroke:#181818;stroke-width:1.0;"/><path d="M277.8438,196.9688 C276.9063,196.5313 276.3125,196.3906 275.4375,196.3906 C272.8125,196.3906 270.8125,198.4688 270.8125,201.1875 L270.8125,202.3125 C270.8125,204.8906 272.9219,206.7813 275.8125,206.7813 C277.0313,206.7813 278.1875,206.4844 278.9375,205.9375 C279.5156,205.5313 279.8438,205.0781 279.8438,204.6875 C279.8438,204.2344 279.4531,203.8438 278.9844,203.8438 C278.7656,203.8438 278.5625,203.9219 278.375,204.1094 C277.9219,204.5938 277.9219,204.5938 277.7344,204.6875 C277.3125,204.9531 276.625,205.0781 275.8594,205.0781 C273.8125,205.0781 272.5156,203.9844 272.5156,202.2813 L272.5156,201.1875 C272.5156,199.4063 273.7656,198.0938 275.5,198.0938 C276.0781,198.0938 276.6875,198.25 277.1563,198.5 C277.6406,198.7813 277.8125,199 277.9063,199.4063 C277.9688,199.8125 278,199.9375 278.1406,200.0625 C278.2813,200.2031 278.5156,200.3125 278.7344,200.3125 C279,200.3125 279.2656,200.1719 279.4375,199.9531 C279.5469,199.7969 279.5781,199.6094 279.5781,199.1875 L279.5781,197.7656 C279.5781,197.3281 279.5625,197.2031 279.4688,197.0469 C279.3125,196.7813 279.0313,196.6406 278.7344,196.6406 C278.4375,196.6406 278.2344,196.7344 278.0156,197.0469 L277.8438,196.9688 Z " fill="#000000"/><text fill="#000000" font-family="sans-serif" font-size="14" lengthAdjust="spacing" textLength="62" x="289.5" y="206.1436">Docente</text><line style="stroke:#181818;stroke-width:0.5;" x1="261.5" x2="353.5" y1="217.2969" y2="217.2969"/><rect fill="none" height="6" style="stroke:#C82930;stroke-width:1.0;" width="6" x="268.5" y="227.9453"/><text fill="#000000" font-family="sans-serif" font-size="14" lengthAdjust="spacing" textLength="57" x="280.5" y="234.292">nombre</text><rect fill="none" height="6" style="stroke:#C82930;stroke-width:1.0;" width="6" x="268.5" y="244.2422"/><text fill="#000000" font-family="sans-serif" font-size="14" lengthAdjust="spacing" textLength="57" x="280.5" y="250.5889">apellido</text><line style="stroke:#181818;stroke-width:0.5;" x1="261.5" x2="353.5" y1="257.8906" y2="257.8906"/></g><!--class Asignatura--><g id="elem_Asignatura"><rect codeLine="12" fill="#F1F1F1" height="80.5938" id="Asignatura" rx="2.5" ry="2.5" style="stroke:#181818;stroke-width:0.5;" width="108" x="117.5" y="185.2969"/><ellipse cx="132.5" cy="201.2969" fill="#ADD1B2" rx="11" ry="11" style="stroke:#181818;stroke-width:1.0;"/><path d="M134.8438,196.9688 C133.9063,196.5313 133.3125,196.3906 132.4375,196.3906 C129.8125,196.3906 127.8125,198.4688 127.8125,201.1875 L127.8125,202.3125 C127.8125,204.8906 129.9219,206.7813 132.8125,206.7813 C134.0313,206.7813 135.1875,206.4844 135.9375,205.9375 C136.5156,205.5313 136.8438,205.0781 136.8438,204.6875 C136.8438,204.2344 136.4531,203.8438 135.9844,203.8438 C135.7656,203.8438 135.5625,203.9219 135.375,204.1094 C134.9219,204.5938 134.9219,204.5938 134.7344,204.6875 C134.3125,204.9531 133.625,205.0781 132.8594,205.0781 C130.8125,205.0781 129.5156,203.9844 129.5156,202.2813 L129.5156,201.1875 C129.5156,199.4063 130.7656,198.0938 132.5,198.0938 C133.0781,198.0938 133.6875,198.25 134.1563,198.5 C134.6406,198.7813 134.8125,199 134.9063,199.4063 C134.9688,199.8125 135,199.9375 135.1406,200.0625 C135.2813,200.2031 135.5156,200.3125 135.7344,200.3125 C136,200.3125 136.2656,200.1719 136.4375,199.9531 C136.5469,199.7969 136.5781,199.6094 136.5781,199.1875 L136.5781,197.7656 C136.5781,197.3281 136.5625,197.2031 136.4688,197.0469 C136.3125,196.7813 136.0313,196.6406 135.7344,196.6406 C135.4375,196.6406 135.2344,196.7344 135.0156,197.0469 L134.8438,196.9688 Z " fill="#000000"/><text fill="#000000" font-family="sans-serif" font-size="14" lengthAdjust="spacing" textLength="76" x="146.5" y="206.1436">Asignatura</text><line style="stroke:#181818;stroke-width:0.5;" x1="118.5" x2="224.5" y1="217.2969" y2="217.2969"/><rect fill="none" height="6" style="stroke:#C82930;stroke-width:1.0;" width="6" x="125.5" y="227.9453"/><text fill="#000000" font-family="sans-serif" font-size="14" lengthAdjust="spacing" textLength="57" x="137.5" y="234.292">nombre</text><rect fill="none" height="6" style="stroke:#C82930;stroke-width:1.0;" width="6" x="125.5" y="244.2422"/><text fill="#000000" font-family="sans-serif" font-size="14" lengthAdjust="spacing" textLength="13" x="137.5" y="250.5889">id</text><line style="stroke:#181818;stroke-width:0.5;" x1="118.5" x2="224.5" y1="257.8906" y2="257.8906"/></g><!--class Aula--><g id="elem_Aula"><rect codeLine="17" fill="#F1F1F1" height="64.2969" id="Aula" rx="2.5" ry="2.5" style="stroke:#181818;stroke-width:0.5;" width="81" x="7" y="296.2969"/><ellipse cx="30.55" cy="312.2969" fill="#ADD1B2" rx="11" ry="11" style="stroke:#181818;stroke-width:1.0;"/><path d="M32.8938,307.9688 C31.9563,307.5313 31.3625,307.3906 30.4875,307.3906 C27.8625,307.3906 25.8625,309.4688 25.8625,312.1875 L25.8625,313.3125 C25.8625,315.8906 27.9719,317.7813 30.8625,317.7813 C32.0813,317.7813 33.2375,317.4844 33.9875,316.9375 C34.5656,316.5313 34.8938,316.0781 34.8938,315.6875 C34.8938,315.2344 34.5031,314.8438 34.0344,314.8438 C33.8156,314.8438 33.6125,314.9219 33.425,315.1094 C32.9719,315.5938 32.9719,315.5938 32.7844,315.6875 C32.3625,315.9531 31.675,316.0781 30.9094,316.0781 C28.8625,316.0781 27.5656,314.9844 27.5656,313.2813 L27.5656,312.1875 C27.5656,310.4063 28.8156,309.0938 30.55,309.0938 C31.1281,309.0938 31.7375,309.25 32.2063,309.5 C32.6906,309.7813 32.8625,310 32.9563,310.4063 C33.0188,310.8125 33.05,310.9375 33.1906,311.0625 C33.3313,311.2031 33.5656,311.3125 33.7844,311.3125 C34.05,311.3125 34.3156,311.1719 34.4875,310.9531 C34.5969,310.7969 34.6281,310.6094 34.6281,310.1875 L34.6281,308.7656 C34.6281,308.3281 34.6125,308.2031 34.5188,308.0469 C34.3625,307.7813 34.0813,307.6406 33.7844,307.6406 C33.4875,307.6406 33.2844,307.7344 33.0656,308.0469 L32.8938,307.9688 Z " fill="#000000"/><text fill="#000000" font-family="sans-serif" font-size="14" lengthAdjust="spacing" textLength="30" x="46.45" y="317.1436">Aula</text><line style="stroke:#181818;stroke-width:0.5;" x1="8" x2="87" y1="328.2969" y2="328.2969"/><rect fill="none" height="6" style="stroke:#C82930;stroke-width:1.0;" width="6" x="15" y="338.9453"/><text fill="#000000" font-family="sans-serif" font-size="14" lengthAdjust="spacing" textLength="55" x="27" y="345.292">numero</text><line style="stroke:#181818;stroke-width:0.5;" x1="8" x2="87" y1="352.5938" y2="352.5938"/></g><!--class Horario--><g id="elem_Horario"><rect codeLine="21" fill="#F1F1F1" height="129.4844" id="Horario" rx="2.5" ry="2.5" style="stroke:#181818;stroke-width:0.5;" width="100" x="113.5" y="706.2969"/><ellipse cx="135.7" cy="722.2969" fill="#ADD1B2" rx="11" ry="11" style="stroke:#181818;stroke-width:1.0;"/><path d="M138.0438,717.9688 C137.1063,717.5313 136.5125,717.3906 135.6375,717.3906 C133.0125,717.3906 131.0125,719.4688 131.0125,722.1875 L131.0125,723.3125 C131.0125,725.8906 133.1219,727.7813 136.0125,727.7813 C137.2313,727.7813 138.3875,727.4844 139.1375,726.9375 C139.7156,726.5313 140.0438,726.0781 140.0438,725.6875 C140.0438,725.2344 139.6531,724.8438 139.1844,724.8438 C138.9656,724.8438 138.7625,724.9219 138.575,725.1094 C138.1219,725.5938 138.1219,725.5938 137.9344,725.6875 C137.5125,725.9531 136.825,726.0781 136.0594,726.0781 C134.0125,726.0781 132.7156,724.9844 132.7156,723.2813 L132.7156,722.1875 C132.7156,720.4063 133.9656,719.0938 135.7,719.0938 C136.2781,719.0938 136.8875,719.25 137.3563,719.5 C137.8406,719.7813 138.0125,720 138.1063,720.4063 C138.1688,720.8125 138.2,720.9375 138.3406,721.0625 C138.4813,721.2031 138.7156,721.3125 138.9344,721.3125 C139.2,721.3125 139.4656,721.1719 139.6375,720.9531 C139.7469,720.7969 139.7781,720.6094 139.7781,720.1875 L139.7781,718.7656 C139.7781,718.3281 139.7625,718.2031 139.6688,718.0469 C139.5125,717.7813 139.2313,717.6406 138.9344,717.6406 C138.6375,717.6406 138.4344,717.7344 138.2156,718.0469 L138.0438,717.9688 Z " fill="#000000"/><text fill="#000000" font-family="sans-serif" font-size="14" lengthAdjust="spacing" textLength="52" x="151.3" y="727.1436">Horario</text><line style="stroke:#181818;stroke-width:0.5;" x1="114.5" x2="212.5" y1="738.2969" y2="738.2969"/><rect fill="none" height="6" style="stroke:#C82930;stroke-width:1.0;" width="6" x="121.5" y="748.9453"/><text fill="#000000" font-family="sans-serif" font-size="14" lengthAdjust="spacing" textLength="21" x="133.5" y="755.292">dia</text><rect fill="none" height="6" style="stroke:#C82930;stroke-width:1.0;" width="6" x="121.5" y="765.2422"/><text fill="#000000" font-family="sans-serif" font-size="14" lengthAdjust="spacing" textLength="74" x="133.5" y="771.5889">asignatura</text><rect fill="none" height="6" style="stroke:#C82930;stroke-width:1.0;" width="6" x="121.5" y="781.5391"/><text fill="#000000" font-family="sans-serif" font-size="14" lengthAdjust="spacing" textLength="28" x="133.5" y="787.8857">aula</text><rect fill="none" height="6" style="stroke:#C82930;stroke-width:1.0;" width="6" x="121.5" y="797.8359"/><text fill="#000000" font-family="sans-serif" font-size="14" lengthAdjust="spacing" textLength="70" x="133.5" y="804.1826">horaInicio</text><rect fill="none" height="6" style="stroke:#C82930;stroke-width:1.0;" width="6" x="121.5" y="814.1328"/><text fill="#000000" font-family="sans-serif" font-size="14" lengthAdjust="spacing" textLength="53" x="133.5" y="820.4795">horaFin</text><line style="stroke:#181818;stroke-width:0.5;" x1="114.5" x2="212.5" y1="827.7813" y2="827.7813"/></g><!--class AsignacionDocenteAsignatura--><g id="elem_AsignacionDocenteAsignatura"><rect codeLine="29" fill="#F1F1F1" height="80.5938" id="AsignacionDocenteAsignatura" rx="2.5" ry="2.5" style="stroke:#181818;stroke-width:0.5;" width="247" x="251" y="390.2969"/><ellipse cx="266" cy="406.2969" fill="#ADD1B2" rx="11" ry="11" style="stroke:#181818;stroke-width:1.0;"/><path d="M268.3438,401.9688 C267.4063,401.5313 266.8125,401.3906 265.9375,401.3906 C263.3125,401.3906 261.3125,403.4688 261.3125,406.1875 L261.3125,407.3125 C261.3125,409.8906 263.4219,411.7813 266.3125,411.7813 C267.5313,411.7813 268.6875,411.4844 269.4375,410.9375 C270.0156,410.5313 270.3438,410.0781 270.3438,409.6875 C270.3438,409.2344 269.9531,408.8438 269.4844,408.8438 C269.2656,408.8438 269.0625,408.9219 268.875,409.1094 C268.4219,409.5938 268.4219,409.5938 268.2344,409.6875 C267.8125,409.9531 267.125,410.0781 266.3594,410.0781 C264.3125,410.0781 263.0156,408.9844 263.0156,407.2813 L263.0156,406.1875 C263.0156,404.4063 264.2656,403.0938 266,403.0938 C266.5781,403.0938 267.1875,403.25 267.6563,403.5 C268.1406,403.7813 268.3125,404 268.4063,404.4063 C268.4688,404.8125 268.5,404.9375 268.6406,405.0625 C268.7813,405.2031 269.0156,405.3125 269.2344,405.3125 C269.5,405.3125 269.7656,405.1719 269.9375,404.9531 C270.0469,404.7969 270.0781,404.6094 270.0781,404.1875 L270.0781,402.7656 C270.0781,402.3281 270.0625,402.2031 269.9688,402.0469 C269.8125,401.7813 269.5313,401.6406 269.2344,401.6406 C268.9375,401.6406 268.7344,401.7344 268.5156,402.0469 L268.3438,401.9688 Z " fill="#000000"/><text fill="#000000" font-family="sans-serif" font-size="14" lengthAdjust="spacing" textLength="215" x="280" y="411.1436">AsignacionDocenteAsignatura</text><line style="stroke:#181818;stroke-width:0.5;" x1="252" x2="497" y1="422.2969" y2="422.2969"/><rect fill="none" height="6" style="stroke:#C82930;stroke-width:1.0;" width="6" x="259" y="432.9453"/><text fill="#000000" font-family="sans-serif" font-size="14" lengthAdjust="spacing" textLength="60" x="271" y="439.292">docente</text><rect fill="none" height="6" style="stroke:#C82930;stroke-width:1.0;" width="6" x="259" y="449.2422"/><text fill="#000000" font-family="sans-serif" font-size="14" lengthAdjust="spacing" textLength="74" x="271" y="455.5889">asignatura</text><line style="stroke:#181818;stroke-width:0.5;" x1="252" x2="497" y1="462.8906" y2="462.8906"/></g><!--class AsignacionAula--><g id="elem_AsignacionAula"><rect codeLine="34" fill="#F1F1F1" height="80.5938" id="AsignacionAula" rx="2.5" ry="2.5" style="stroke:#181818;stroke-width:0.5;" width="139" x="94" y="548.2969"/><ellipse cx="109" cy="564.2969" fill="#ADD1B2" rx="11" ry="11" style="stroke:#181818;stroke-width:1.0;"/><path d="M111.3438,559.9688 C110.4063,559.5313 109.8125,559.3906 108.9375,559.3906 C106.3125,559.3906 104.3125,561.4688 104.3125,564.1875 L104.3125,565.3125 C104.3125,567.8906 106.4219,569.7813 109.3125,569.7813 C110.5313,569.7813 111.6875,569.4844 112.4375,568.9375 C113.0156,568.5313 113.3438,568.0781 113.3438,567.6875 C113.3438,567.2344 112.9531,566.8438 112.4844,566.8438 C112.2656,566.8438 112.0625,566.9219 111.875,567.1094 C111.4219,567.5938 111.4219,567.5938 111.2344,567.6875 C110.8125,567.9531 110.125,568.0781 109.3594,568.0781 C107.3125,568.0781 106.0156,566.9844 106.0156,565.2813 L106.0156,564.1875 C106.0156,562.4063 107.2656,561.0938 109,561.0938 C109.5781,561.0938 110.1875,561.25 110.6563,561.5 C111.1406,561.7813 111.3125,562 111.4063,562.4063 C111.4688,562.8125 111.5,562.9375 111.6406,563.0625 C111.7813,563.2031 112.0156,563.3125 112.2344,563.3125 C112.5,563.3125 112.7656,563.1719 112.9375,562.9531 C113.0469,562.7969 113.0781,562.6094 113.0781,562.1875 L113.0781,560.7656 C113.0781,560.3281 113.0625,560.2031 112.9688,560.0469 C112.8125,559.7813 112.5313,559.6406 112.2344,559.6406 C111.9375,559.6406 111.7344,559.7344 111.5156,560.0469 L111.3438,559.9688 Z " fill="#000000"/><text fill="#000000" font-family="sans-serif" font-size="14" lengthAdjust="spacing" textLength="107" x="123" y="569.1436">AsignacionAula</text><line style="stroke:#181818;stroke-width:0.5;" x1="95" x2="232" y1="580.2969" y2="580.2969"/><rect fill="none" height="6" style="stroke:#C82930;stroke-width:1.0;" width="6" x="102" y="590.9453"/><text fill="#000000" font-family="sans-serif" font-size="14" lengthAdjust="spacing" textLength="74" x="114" y="597.292">asignatura</text><rect fill="none" height="6" style="stroke:#C82930;stroke-width:1.0;" width="6" x="102" y="607.2422"/><text fill="#000000" font-family="sans-serif" font-size="14" lengthAdjust="spacing" textLength="28" x="114" y="613.5889">aula</text><line style="stroke:#181818;stroke-width:0.5;" x1="95" x2="232" y1="620.8906" y2="620.8906"/></g><!--link GestorDeHorarios to Docente--><g id="link_GestorDeHorarios_Docente"><path codeLine="39" d="M253.133,108.5779 C263.577,130.9029 275.1626,155.6701 286.3986,179.6891 " fill="none" id="GestorDeHorarios-to-Docente" style="stroke:#181818;stroke-width:1.0;"/><polygon fill="#181818" points="288.941,185.1239,288.7506,175.2769,286.8224,180.5949,281.5043,178.6667,288.941,185.1239" style="stroke:#181818;stroke-width:1.0;"/><polygon fill="#000000" points="280.6186,151.3922,279.448,141.954,274.1239,144.4446,280.6186,151.3922" style="stroke:#000000;stroke-width:1.0;"/><text fill="#000000" font-family="sans-serif" font-size="13" lengthAdjust="spacing" textLength="39" x="287.5" y="151.3638">recibe</text><text fill="#000000" font-family="sans-serif" font-size="13" lengthAdjust="spacing" textLength="8" x="247.3261" y="128.8327">1</text><text fill="#000000" font-family="sans-serif" font-size="13" lengthAdjust="spacing" textLength="7" x="278.2875" y="174.2568">*</text></g><!--link GestorDeHorarios to Asignatura--><g id="link_GestorDeHorarios_Asignatura"><path codeLine="40" d="M216.459,108.3889 C210.443,117.7249 204.275,128.1799 199.5,138.2969 C192.494,153.1429 188.3078,164.4624 183.7298,179.4874 " fill="none" id="GestorDeHorarios-to-Asignatura" style="stroke:#181818;stroke-width:1.0;"/><polygon fill="#181818" points="181.981,185.2269,188.4305,177.7835,183.4383,180.444,180.7778,175.4518,181.981,185.2269" style="stroke:#181818;stroke-width:1.0;"/><polygon fill="#000000" points="202.4092,151.4052,208.8611,144.4178,203.5218,141.9599,202.4092,151.4052" style="stroke:#000000;stroke-width:1.0;"/><text fill="#000000" font-family="sans-serif" font-size="13" lengthAdjust="spacing" textLength="39" x="213.5" y="151.3638">recibe</text><text fill="#000000" font-family="sans-serif" font-size="13" lengthAdjust="spacing" textLength="8" x="203.088" y="128.6047">1</text><text fill="#000000" font-family="sans-serif" font-size="13" lengthAdjust="spacing" textLength="7" x="176.1372" y="174.3768">*</text></g><!--link GestorDeHorarios to Aula--><g id="link_GestorDeHorarios_Aula"><path codeLine="41" d="M173.019,108.3479 C158.474,116.8989 143.754,126.9819 131.5,138.2969 C85.07,181.1699 64.1004,248.5724 54.7022,290.1694 " fill="none" id="GestorDeHorarios-to-Aula" style="stroke:#181818;stroke-width:1.0;"/><polygon fill="#181818" points="53.3799,296.0219,59.265,288.1247,54.4818,291.1448,51.4617,286.3616,53.3799,296.0219" style="stroke:#181818;stroke-width:1.0;"/><polygon fill="#000000" points="133.7729,151.0541,141.1696,145.0758,136.243,141.8699,133.7729,151.0541" style="stroke:#000000;stroke-width:1.0;"/><text fill="#000000" font-family="sans-serif" font-size="13" lengthAdjust="spacing" textLength="39" x="145.5" y="151.3638">recibe</text><text fill="#000000" font-family="sans-serif" font-size="13" lengthAdjust="spacing" textLength="8" x="150.6885" y="128.5552">1</text><text fill="#000000" font-family="sans-serif" font-size="13" lengthAdjust="spacing" textLength="7" x="46.8484" y="285.2419">*</text></g><!--reverse link GestorDeHorarios to AsignacionDocenteAsignatura--><g id="link_GestorDeHorarios_AsignacionDocenteAsignatura"><path codeLine="43" d="M305.4402,114.7336 C319.2892,123.5336 323.446,127.3059 335.5,138.2969 C354.944,156.0249 359.748,161.7549 371.5,185.2969 C406.778,255.9699 417.533,282.7519 402.5,360.2969 C400.569,370.2579 397.215,380.6009 393.485,390.1689 " fill="none" id="GestorDeHorarios-backto-AsignacionDocenteAsignatura" style="stroke:#181818;stroke-width:1.0;"/><polygon fill="none" points="295.312,108.2979,298.2309,114.8918,305.4402,114.7336,302.5214,108.1397,295.312,108.2979" style="stroke:#181818;stroke-width:1.0;"/><polygon fill="#000000" points="412.0224,230.6259,412.0677,221.1154,406.469,222.9051,412.0224,230.6259" style="stroke:#000000;stroke-width:1.0;"/><text fill="#000000" font-family="sans-serif" font-size="13" lengthAdjust="spacing" textLength="42" x="419.5" y="230.3638">asigna</text><text fill="#000000" font-family="sans-serif" font-size="13" lengthAdjust="spacing" textLength="8" x="298.2045" y="128.4949">1</text><text fill="#000000" font-family="sans-serif" font-size="13" lengthAdjust="spacing" textLength="7" x="389.0497" y="379.3092">*</text></g><!--reverse link AsignacionDocenteAsignatura to AsignacionAula--><g id="link_AsignacionDocenteAsignatura_AsignacionAula"><path codeLine="44" d="M311.3339,478.4979 C279.4679,502.0579 248.816,524.7199 216.96,548.2719 " fill="none" id="AsignacionDocenteAsignatura-backto-AsignacionAula" style="stroke:#181818;stroke-width:1.0;"/><polygon fill="none" points="320.983,471.3639,313.7804,471.7145,311.3339,478.4979,318.5365,478.1473,320.983,471.3639" style="stroke:#181818;stroke-width:1.0;"/><polygon fill="#000000" points="276.4795,512.8358,285.4998,509.8217,282.0055,505.0953,276.4795,512.8358" style="stroke:#000000;stroke-width:1.0;"/><text fill="#000000" font-family="sans-serif" font-size="13" lengthAdjust="spacing" textLength="42" x="289.5" y="514.3638">asigna</text><text fill="#000000" font-family="sans-serif" font-size="13" lengthAdjust="spacing" textLength="8" x="304.1757" y="490.8323">1</text><text fill="#000000" font-family="sans-serif" font-size="13" lengthAdjust="spacing" textLength="7" x="218.5469" y="537.1308">*</text></g><!--reverse link AsignacionAula to Horario--><g id="link_AsignacionAula_Horario"><path codeLine="45" d="M163.5,641.2989 C163.5,663.7559 163.5,680.4149 163.5,705.9839 " fill="none" id="AsignacionAula-backto-Horario" style="stroke:#181818;stroke-width:1.0;"/><polygon fill="none" points="163.5,629.2989,159.5,635.2989,163.5,641.2989,167.5,635.2989,163.5,629.2989" style="stroke:#181818;stroke-width:1.0;"/><polygon fill="#000000" points="168.5,672.8633,171.4389,663.8182,165.5611,663.8182,168.5,672.8633" style="stroke:#000000;stroke-width:1.0;"/><text fill="#000000" font-family="sans-serif" font-size="13" lengthAdjust="spacing" textLength="42" x="177.5" y="672.3638">asigna</text><text fill="#000000" font-family="sans-serif" font-size="13" lengthAdjust="spacing" textLength="8" x="154.8625" y="649.059">1</text><text fill="#000000" font-family="sans-serif" font-size="13" lengthAdjust="spacing" textLength="7" x="156.1172" y="695.1223">*</text></g><!--reverse link Docente to AsignacionDocenteAsignatura--><g id="link_Docente_AsignacionDocenteAsignatura"><path codeLine="47" d="M309.807,272.4817 C312.098,299.6577 316.781,330.1149 328.5,360.2969 C332.48,370.5479 338.151,380.8379 344.159,390.2399 " fill="none" id="Docente-backto-AsignacionDocenteAsignatura" style="stroke:#181818;stroke-width:1.0;"/><polygon fill="#181818" points="309.303,266.5029,306.0732,275.8071,309.723,271.4852,314.0449,275.135,309.303,266.5029" style="stroke:#181818;stroke-width:1.0;"/><polygon fill="#000000" points="334.9002,333.1632,335.1885,323.657,329.5459,325.3031,334.9002,333.1632" style="stroke:#000000;stroke-width:1.0;"/><text fill="#000000" font-family="sans-serif" font-size="13" lengthAdjust="spacing" textLength="55" x="342.5" y="332.8638">participa</text></g><!--reverse link Asignatura to AsignacionDocenteAsignatura--><g id="link_Asignatura_AsignacionDocenteAsignatura"><path codeLine="48" d="M184.7843,272.2247 C194.7263,301.1827 209.727,334.0919 235.5,360.2969 C246.851,371.8379 260.517,381.7879 274.789,390.2569 " fill="none" id="Asignatura-backto-AsignacionDocenteAsignatura" style="stroke:#181818;stroke-width:1.0;"/><polygon fill="#181818" points="182.836,266.5499,181.9752,276.361,184.4596,271.2789,189.5417,273.7633,182.836,266.5499" style="stroke:#181818;stroke-width:1.0;"/><polygon fill="#000000" points="243.5318,332.3392,240.3842,323.3646,235.7102,326.9287,243.5318,332.3392" style="stroke:#000000;stroke-width:1.0;"/><text fill="#000000" font-family="sans-serif" font-size="13" lengthAdjust="spacing" textLength="55" x="249.5" y="332.8638">participa</text></g><!--reverse link Asignatura to AsignacionAula--><g id="link_Asignatura_AsignacionAula"><path codeLine="49" d="M170.4881,272.4614 C168.9501,341.8794 165.92,478.6019 164.38,548.0649 " fill="none" id="Asignatura-backto-AsignacionAula" style="stroke:#181818;stroke-width:1.0;"/><polygon fill="#181818" points="170.621,266.4629,166.4226,275.3721,170.5102,271.4616,174.4207,275.5493,170.621,266.4629" style="stroke:#181818;stroke-width:1.0;"/><polygon fill="#000000" points="173.3892,435.8621,176.5278,426.8843,170.6514,426.7541,173.3892,435.8621" style="stroke:#000000;stroke-width:1.0;"/><text fill="#000000" font-family="sans-serif" font-size="13" lengthAdjust="spacing" textLength="37" x="182.5" y="435.3638">utiliza</text></g><!--reverse link Aula to AsignacionAula--><g id="link_Aula_AsignacionAula"><path codeLine="50" d="M47.6058,366.5166 C48.5859,396.1986 52.7085,435.4999 68.5,471.2969 C81.0873,499.8309 102.6236,527.1109 122.011,548.0899 " fill="none" id="Aula-backto-AsignacionAula" style="stroke:#181818;stroke-width:1.0;"/><polygon fill="#181818" points="47.4078,360.5199,43.707,369.647,47.5728,365.5172,51.7026,369.383,47.4078,360.5199" style="stroke:#181818;stroke-width:1.0;"/><polygon fill="#000000" points="75.3959,435.4899,74.6856,426.0059,69.2467,428.2347,75.3959,435.4899" style="stroke:#000000;stroke-width:1.0;"/><text fill="#000000" font-family="sans-serif" font-size="13" lengthAdjust="spacing" textLength="37" x="82.5" y="435.3638">utiliza</text></g><!--SRC=[hPBFQiCm3CRlVWhXuy27NSSe3CAw7NRR2xYns0IE5Vpdij9tdzF4cREQbi5oY_JxFdqIZXGjmXiRj0m6eUE1734eUAS1OP-qDwIT4BtL8S0UGsJVuGjxxOa370NaJy7dKX2dWdRSeuku4ew7WyVbHuzeBHd-mPy2VJWTazTj1PcAJRQYqe2-CbgYhVqSlmnTHvH2zgdolphgYQl2CxdV0JFWbiqQYStSkPpNSDaiqOwMLHS7b_SIbDg1l9FhYHz0UkpfWB2JrnLLvZ-8fgGRlCspKjMGzgMopRphP7CDR1kMA2sFSw-MbPUmuKKvscEcRYGTjO_vIOpLe7FhtwHbdHJ9qjVCJgLRr3S0]--></g></svg>