<?xml version="1.0" encoding="UTF-8" standalone="no"?><svg xmlns="http://www.w3.org/2000/svg" xmlns:xlink="http://www.w3.org/1999/xlink" contentStyleType="text/css" height="620px" preserveAspectRatio="none" style="width:3085px;height:620px;background:#FFFFFF;" version="1.1" viewBox="0 0 3085 620" width="3085px" zoomAndPan="magnify"><defs/><g><rect fill="none" height="27.6094" id="_title" style="stroke:none;stroke-width:1.0;" width="176" x="1447.5" y="5"/><text fill="#000000" font-family="sans-serif" font-size="14" font-weight="bold" lengthAdjust="spacing" textLength="166" x="1452.5" y="24.5332">Contexto Administrador</text><ellipse cx="1515" cy="54.6094" fill="#222222" rx="10" ry="10" style="stroke:none;stroke-width:1.0;"/><rect fill="#F1F1F1" height="40" rx="12.5" ry="12.5" style="stroke:#181818;stroke-width:0.5;" width="54" x="1488" y="125.6094"/><text fill="#000000" font-family="sans-serif" font-size="14" lengthAdjust="spacing" textLength="44" x="1493" y="151.3379">INITIAL</text><rect fill="#F1F1F1" height="40" rx="12.5" ry="12.5" style="stroke:#181818;stroke-width:0.5;" width="164" x="1433" y="261.6094"/><text fill="#000000" font-family="sans-serif" font-size="14" lengthAdjust="spacing" textLength="154" x="1438" y="287.3379">DASHBOARD_ABIERTO</text><rect fill="#F1F1F1" height="40" rx="12.5" ry="12.5" style="stroke:#181818;stroke-width:0.5;" width="234" x="7" y="436.1094"/><text fill="#000000" font-family="sans-serif" font-size="14" lengthAdjust="spacing" textLength="224" x="12" y="461.8379">GESTIÓN_EGRESADOS_ABIERTO</text><rect fill="#F1F1F1" height="40" rx="12.5" ry="12.5" style="stroke:#181818;stroke-width:0.5;" width="278" x="431" y="436.1094"/><text fill="#000000" font-family="sans-serif" font-size="14" lengthAdjust="spacing" textLength="268" x="436" y="461.8379">GESTIÓN_ADMINISTRADORES_ABIERTO</text><rect fill="#F1F1F1" height="40" rx="12.5" ry="12.5" style="stroke:#181818;stroke-width:0.5;" width="220" x="924" y="436.1094"/><text fill="#000000" font-family="sans-serif" font-size="14" lengthAdjust="spacing" textLength="210" x="929" y="461.8379">GESTIÓN_SERVICIOS_ABIERTO</text><rect fill="#F1F1F1" height="40" rx="12.5" ry="12.5" style="stroke:#181818;stroke-width:0.5;" width="221" x="1324.5" y="436.1094"/><text fill="#000000" font-family="sans-serif" font-size="14" lengthAdjust="spacing" textLength="211" x="1329.5" y="461.8379">GESTIÓN_PAQUETES_ABIERTO</text><rect fill="#F1F1F1" height="40" rx="12.5" ry="12.5" style="stroke:#181818;stroke-width:0.5;" width="192" x="1736" y="436.1094"/><text fill="#000000" font-family="sans-serif" font-size="14" lengthAdjust="spacing" textLength="182" x="1741" y="461.8379">CONFIGURACIÓN_ABIERTO</text><rect fill="#F1F1F1" height="40" rx="12.5" ry="12.5" style="stroke:#181818;stroke-width:0.5;" width="233" x="2156.5" y="436.1094"/><text fill="#000000" font-family="sans-serif" font-size="14" lengthAdjust="spacing" textLength="223" x="2161.5" y="461.8379">EXPLORAR_SERVICIOS_ABIERTO</text><rect fill="#F1F1F1" height="40" rx="12.5" ry="12.5" style="stroke:#181818;stroke-width:0.5;" width="151" x="2614.5" y="436.1094"/><text fill="#000000" font-family="sans-serif" font-size="14" lengthAdjust="spacing" textLength="141" x="2619.5" y="461.8379">SERVICIOS_ABIERTO</text><ellipse cx="1683" cy="604.6094" fill="none" rx="10" ry="10" style="stroke:#222222;stroke-width:1.0;"/><ellipse cx="1683.5" cy="605.1094" fill="#222222" rx="6" ry="6" style="stroke:none;stroke-width:1.0;"/><!--MD5=[06c3f2024f4ea60966e79307ee69ec5f]
link *start to INITIAL--><g id="link_*start_INITIAL"><path d="M1515,64.7994 C1515,77.7894 1515,101.9894 1515,120.3394 " fill="none" id="*start-to-INITIAL" style="stroke:#181818;stroke-width:1.0;"/><polygon fill="#181818" points="1515,125.3494,1519,116.3494,1515,120.3494,1511,116.3494,1515,125.3494" style="stroke:#181818;stroke-width:1.0;"/></g><!--MD5=[ddf21f5e9bb09c1cf42b72c0549db28f]
link INITIAL to DASHBOARD_ABIERTO--><g id="link_INITIAL_DASHBOARD_ABIERTO"><path d="M1515,165.8094 C1515,189.5894 1515,230.1394 1515,256.1294 " fill="none" id="INITIAL-to-DASHBOARD_ABIERTO" style="stroke:#181818;stroke-width:1.0;"/><polygon fill="#181818" points="1515,261.4494,1519,252.4494,1515,256.4494,1511,252.4494,1515,261.4494" style="stroke:#181818;stroke-width:1.0;"/><path d="M1520,200.6094 L1520,226.6094 L1619,226.6094 L1619,210.6094 L1609,200.6094 L1520,200.6094 " fill="#F5F5F5" style="stroke:#181818;stroke-width:0.5;"/><path d="M1609,200.6094 L1609,210.6094 L1619,210.6094 L1609,200.6094 " fill="#F5F5F5" style="stroke:#181818;stroke-width:0.5;"/><text fill="#000000" font-family="sans-serif" font-size="13" lengthAdjust="spacing" textLength="78" x="1526" y="219.1045">Iniciar Sesión</text></g><!--MD5=[d343a28b8f44b2bffc1c021c30b0f5a8]
link DASHBOARD_ABIERTO to GESTIÓN_EGRESADOS_ABIERTO--><g id="link_DASHBOARD_ABIERTO_GESTIÓN_EGRESADOS_ABIERTO"><path d="M1432.65,286.3494 C1180.65,297.8094 437,331.6094 437,331.6094 C437,331.6094 349,383.6094 349,383.6094 C349,383.6094 255.58,413.2994 189.14,434.4094 " fill="none" id="DASHBOARD_ABIERTO-to-GESTIÓN_EGRESADOS_ABIERTO" style="stroke:#181818;stroke-width:1.0;"/><polygon fill="#181818" points="184,436.0394,193.7883,437.1295,188.7658,434.5269,191.3684,429.5043,184,436.0394" style="stroke:#181818;stroke-width:1.0;"/><path d="M442,344.6094 L442,370.6094 L554,370.6094 L554,354.6094 L544,344.6094 L442,344.6094 " fill="#F5F5F5" style="stroke:#181818;stroke-width:0.5;"/><path d="M544,344.6094 L544,354.6094 L554,354.6094 L544,344.6094 " fill="#F5F5F5" style="stroke:#181818;stroke-width:0.5;"/><text fill="#000000" font-family="sans-serif" font-size="13" lengthAdjust="spacing" textLength="91" x="448" y="363.1045">Listar Egresado</text></g><!--MD5=[2bc049bd684c0e69cf52abfa6070f2bc]
reverse link DASHBOARD_ABIERTO to GESTIÓN_EGRESADOS_ABIERTO--><g id="link_DASHBOARD_ABIERTO_GESTIÓN_EGRESADOS_ABIERTO"><path d="M1427.76,285.8194 C1131.61,296.7094 183,331.6094 183,331.6094 C183,331.6094 149.64,401.4394 133.09,436.0794 " fill="none" id="DASHBOARD_ABIERTO-backto-GESTIÓN_EGRESADOS_ABIERTO" style="stroke:#181818;stroke-width:1.0;"/><polygon fill="#181818" points="1432.93,285.6294,1423.7877,281.9662,1427.9334,285.815,1424.0847,289.9607,1432.93,285.6294" style="stroke:#181818;stroke-width:1.0;"/><path d="M188,344.6094 L188,370.6094 L340,370.6094 L340,354.6094 L330,344.6094 L188,344.6094 " fill="#F5F5F5" style="stroke:#181818;stroke-width:0.5;"/><path d="M330,344.6094 L330,354.6094 L340,354.6094 L330,344.6094 " fill="#F5F5F5" style="stroke:#181818;stroke-width:0.5;"/><text fill="#000000" font-family="sans-serif" font-size="13" lengthAdjust="spacing" textLength="131" x="194" y="363.1045">Consultar Estadisticas</text></g><!--MD5=[112ea76af39868fa6701d136de9ab5be]
link DASHBOARD_ABIERTO to GESTIÓN_ADMINISTRADORES_ABIERTO--><g id="link_DASHBOARD_ABIERTO_GESTIÓN_ADMINISTRADORES_ABIERTO"><path d="M1432.75,288.2494 C1245,301.1394 801,331.6094 801,331.6094 C801,331.6094 733,383.6094 733,383.6094 C733,383.6094 666.33,412.8494 618.27,433.9394 " fill="none" id="DASHBOARD_ABIERTO-to-GESTIÓN_ADMINISTRADORES_ABIERTO" style="stroke:#181818;stroke-width:1.0;"/><polygon fill="#181818" points="613.68,435.9494,623.5287,436.0066,618.2608,433.9453,620.3221,428.6774,613.68,435.9494" style="stroke:#181818;stroke-width:1.0;"/><path d="M806,344.6094 L806,370.6094 L943,370.6094 L943,354.6094 L933,344.6094 L806,344.6094 " fill="#F5F5F5" style="stroke:#181818;stroke-width:0.5;"/><path d="M933,344.6094 L933,354.6094 L943,354.6094 L933,344.6094 " fill="#F5F5F5" style="stroke:#181818;stroke-width:0.5;"/><text fill="#000000" font-family="sans-serif" font-size="13" lengthAdjust="spacing" textLength="116" x="812" y="363.1045">Listar Administrador</text></g><!--MD5=[ef6c80c6cb8d567e562da7aa739bbcf5]
reverse link DASHBOARD_ABIERTO to GESTIÓN_ADMINISTRADORES_ABIERTO--><g id="link_DASHBOARD_ABIERTO_GESTIÓN_ADMINISTRADORES_ABIERTO"><path d="M1427.82,287.1194 C1193.37,299.2294 567,331.6094 567,331.6094 C567,331.6094 567,383.6094 567,383.6094 C567,383.6094 568.31,414.7694 569.2,435.9494 " fill="none" id="DASHBOARD_ABIERTO-backto-GESTIÓN_ADMINISTRADORES_ABIERTO" style="stroke:#181818;stroke-width:1.0;"/><polygon fill="#181818" points="1432.94,286.8494,1423.7464,283.3169,1427.9466,287.1062,1424.1573,291.3063,1432.94,286.8494" style="stroke:#181818;stroke-width:1.0;"/><path d="M572,344.6094 L572,370.6094 L724,370.6094 L724,354.6094 L714,344.6094 L572,344.6094 " fill="#F5F5F5" style="stroke:#181818;stroke-width:0.5;"/><path d="M714,344.6094 L714,354.6094 L724,354.6094 L714,344.6094 " fill="#F5F5F5" style="stroke:#181818;stroke-width:0.5;"/><text fill="#000000" font-family="sans-serif" font-size="13" lengthAdjust="spacing" textLength="131" x="578" y="363.1045">Consultar Estadisticas</text></g><!--MD5=[5f0c2e63e533feaf0039180bf3df817c]
link DASHBOARD_ABIERTO to GESTIÓN_SERVICIOS_ABIERTO--><g id="link_DASHBOARD_ABIERTO_GESTIÓN_SERVICIOS_ABIERTO"><path d="M1432.99,294.9694 C1336.71,309.4894 1190,331.6094 1190,331.6094 C1190,331.6094 1106.89,397.4094 1061.99,432.9494 " fill="none" id="DASHBOARD_ABIERTO-to-GESTIÓN_SERVICIOS_ABIERTO" style="stroke:#181818;stroke-width:1.0;"/><polygon fill="#181818" points="1058.03,436.0794,1067.5688,433.6274,1061.9496,432.9751,1062.602,427.356,1058.03,436.0794" style="stroke:#181818;stroke-width:1.0;"/><path d="M1195,344.6094 L1195,370.6094 L1297,370.6094 L1297,354.6094 L1287,344.6094 L1195,344.6094 " fill="#F5F5F5" style="stroke:#181818;stroke-width:0.5;"/><path d="M1287,344.6094 L1287,354.6094 L1297,354.6094 L1287,344.6094 " fill="#F5F5F5" style="stroke:#181818;stroke-width:0.5;"/><text fill="#000000" font-family="sans-serif" font-size="13" lengthAdjust="spacing" textLength="81" x="1201" y="363.1045">Listar Servicio</text></g><!--MD5=[2be8a7ceb0f27d4afd26985911d60d21]
reverse link DASHBOARD_ABIERTO to GESTIÓN_SERVICIOS_ABIERTO--><g id="link_DASHBOARD_ABIERTO_GESTIÓN_SERVICIOS_ABIERTO"><path d="M1427.75,290.2594 C1270.57,304.0394 956,331.6094 956,331.6094 C956,331.6094 956,383.6094 956,383.6094 C956,383.6094 989.99,414.7694 1013.1,435.9494 " fill="none" id="DASHBOARD_ABIERTO-backto-GESTIÓN_SERVICIOS_ABIERTO" style="stroke:#181818;stroke-width:1.0;"/><polygon fill="#181818" points="1432.82,289.8094,1423.5006,286.6237,1427.8397,290.253,1424.2104,294.5922,1432.82,289.8094" style="stroke:#181818;stroke-width:1.0;"/><path d="M961,344.6094 L961,370.6094 L1113,370.6094 L1113,354.6094 L1103,344.6094 L961,344.6094 " fill="#F5F5F5" style="stroke:#181818;stroke-width:0.5;"/><path d="M1103,344.6094 L1103,354.6094 L1113,354.6094 L1103,344.6094 " fill="#F5F5F5" style="stroke:#181818;stroke-width:0.5;"/><text fill="#000000" font-family="sans-serif" font-size="13" lengthAdjust="spacing" textLength="131" x="967" y="363.1045">Consultar Estadisticas</text></g><!--MD5=[44e0eac0b2164cc5bc9ab5b96b43f1fc]
link DASHBOARD_ABIERTO to GESTIÓN_PAQUETES_ABIERTO--><g id="link_DASHBOARD_ABIERTO_GESTIÓN_PAQUETES_ABIERTO"><path d="M1507.48,302.0794 C1496.15,331.4294 1476,383.6094 1476,383.6094 C1476,383.6094 1460.43,410.7694 1448.48,431.6094 " fill="none" id="DASHBOARD_ABIERTO-to-GESTIÓN_PAQUETES_ABIERTO" style="stroke:#181818;stroke-width:1.0;"/><polygon fill="#181818" points="1445.99,435.9494,1453.9406,430.1367,1448.4799,431.6135,1447.0031,426.1528,1445.99,435.9494" style="stroke:#181818;stroke-width:1.0;"/><path d="M1501,344.6094 L1501,370.6094 L1613,370.6094 L1613,354.6094 L1603,344.6094 L1501,344.6094 " fill="#F5F5F5" style="stroke:#181818;stroke-width:0.5;"/><path d="M1603,344.6094 L1603,354.6094 L1613,354.6094 L1603,344.6094 " fill="#F5F5F5" style="stroke:#181818;stroke-width:0.5;"/><text fill="#000000" font-family="sans-serif" font-size="13" lengthAdjust="spacing" textLength="91" x="1507" y="363.1045">Listar Paquetes</text></g><!--MD5=[489cb68dacded6941c5a80f5baea4e7c]
reverse link DASHBOARD_ABIERTO to GESTIÓN_PAQUETES_ABIERTO--><g id="link_DASHBOARD_ABIERTO_GESTIÓN_PAQUETES_ABIERTO"><path d="M1430.36,302.8394 C1373.91,316.3294 1310,331.6094 1310,331.6094 C1310,331.6094 1310,383.6094 1310,383.6094 C1310,383.6094 1364.48,414.7694 1401.5,435.9494 " fill="none" id="DASHBOARD_ABIERTO-backto-GESTIÓN_PAQUETES_ABIERTO" style="stroke:#181818;stroke-width:1.0;"/><polygon fill="#181818" points="1435.45,301.6194,1425.768,299.814,1430.5861,302.7781,1427.622,307.5962,1435.45,301.6194" style="stroke:#181818;stroke-width:1.0;"/><path d="M1315,344.6094 L1315,370.6094 L1467,370.6094 L1467,354.6094 L1457,344.6094 L1315,344.6094 " fill="#F5F5F5" style="stroke:#181818;stroke-width:0.5;"/><path d="M1457,344.6094 L1457,354.6094 L1467,354.6094 L1457,344.6094 " fill="#F5F5F5" style="stroke:#181818;stroke-width:0.5;"/><text fill="#000000" font-family="sans-serif" font-size="13" lengthAdjust="spacing" textLength="131" x="1321" y="363.1045">Consultar Estadisticas</text></g><!--MD5=[a07216390c8eb2833711dcbb206af2cd]
link DASHBOARD_ABIERTO to CONFIGURACIÓN_ABIERTO--><g id="link_DASHBOARD_ABIERTO_CONFIGURACIÓN_ABIERTO"><path d="M1597.01,294.9694 C1693.29,309.4894 1840,331.6094 1840,331.6094 C1840,331.6094 1840,383.6094 1840,383.6094 C1840,383.6094 1837.04,410.0894 1834.72,430.8194 " fill="none" id="DASHBOARD_ABIERTO-to-CONFIGURACIÓN_ABIERTO" style="stroke:#181818;stroke-width:1.0;"/><polygon fill="#181818" points="1834.14,435.9494,1839.0933,427.4368,1834.6828,430.9789,1831.1406,426.5684,1834.14,435.9494" style="stroke:#181818;stroke-width:1.0;"/><path d="M1845,344.6094 L1845,370.6094 L1984,370.6094 L1984,354.6094 L1974,344.6094 L1845,344.6094 " fill="#F5F5F5" style="stroke:#181818;stroke-width:0.5;"/><path d="M1974,344.6094 L1974,354.6094 L1984,354.6094 L1974,344.6094 " fill="#F5F5F5" style="stroke:#181818;stroke-width:0.5;"/><text fill="#000000" font-family="sans-serif" font-size="13" lengthAdjust="spacing" textLength="118" x="1851" y="363.1045">Listar Datos Usuario</text></g><!--MD5=[40eaee2e0cc08eaf6be3a75ae9b87361]
reverse link DASHBOARD_ABIERTO to CONFIGURACIÓN_ABIERTO--><g id="link_DASHBOARD_ABIERTO_CONFIGURACIÓN_ABIERTO"><path d="M1563.02,303.8094 C1593.02,317.0494 1626,331.6094 1626,331.6094 C1626,331.6094 1674,383.6094 1674,383.6094 C1674,383.6094 1742.86,414.7694 1789.66,435.9494 " fill="none" id="DASHBOARD_ABIERTO-backto-CONFIGURACIÓN_ABIERTO" style="stroke:#181818;stroke-width:1.0;"/><polygon fill="#181818" points="1558.23,301.6894,1564.8614,308.9711,1562.8078,303.7002,1568.0788,301.6466,1558.23,301.6894" style="stroke:#181818;stroke-width:1.0;"/><path d="M1679,344.6094 L1679,370.6094 L1831,370.6094 L1831,354.6094 L1821,344.6094 L1679,344.6094 " fill="#F5F5F5" style="stroke:#181818;stroke-width:0.5;"/><path d="M1821,344.6094 L1821,354.6094 L1831,354.6094 L1821,344.6094 " fill="#F5F5F5" style="stroke:#181818;stroke-width:0.5;"/><text fill="#000000" font-family="sans-serif" font-size="13" lengthAdjust="spacing" textLength="131" x="1685" y="363.1045">Consultar Estadisticas</text></g><!--MD5=[a837cbd2f15d3b2a180854004ac174cc]
link DASHBOARD_ABIERTO to EXPLORAR_SERVICIOS_ABIERTO--><g id="link_DASHBOARD_ABIERTO_EXPLORAR_SERVICIOS_ABIERTO"><path d="M1597.13,288.2294 C1785.2,301.0994 2231,331.6094 2231,331.6094 C2231,331.6094 2252.57,395.0494 2264.8,430.9894 " fill="none" id="DASHBOARD_ABIERTO-to-EXPLORAR_SERVICIOS_ABIERTO" style="stroke:#181818;stroke-width:1.0;"/><polygon fill="#181818" points="2266.53,436.0794,2267.4433,426.273,2264.9317,431.3417,2259.863,428.8302,2266.53,436.0794" style="stroke:#181818;stroke-width:1.0;"/><path d="M2254,344.6094 L2254,370.6094 L2430,370.6094 L2430,354.6094 L2420,344.6094 L2254,344.6094 " fill="#F5F5F5" style="stroke:#181818;stroke-width:0.5;"/><path d="M2420,344.6094 L2420,354.6094 L2430,354.6094 L2420,344.6094 " fill="#F5F5F5" style="stroke:#181818;stroke-width:0.5;"/><text fill="#000000" font-family="sans-serif" font-size="13" lengthAdjust="spacing" textLength="155" x="2260" y="363.1045">Listar Servicios / Paquetes</text></g><!--MD5=[0eb123b78ddd246330078a8e1a9fd6d2]
reverse link DASHBOARD_ABIERTO to EXPLORAR_SERVICIOS_ABIERTO--><g id="link_DASHBOARD_ABIERTO_EXPLORAR_SERVICIOS_ABIERTO"><path d="M1602.34,291.4894 C1741.25,305.6094 1997,331.6094 1997,331.6094 C1997,331.6094 2065,383.6094 2065,383.6094 C2065,383.6094 2155.92,414.8594 2217.53,436.0394 " fill="none" id="DASHBOARD_ABIERTO-backto-EXPLORAR_SERVICIOS_ABIERTO" style="stroke:#181818;stroke-width:1.0;"/><polygon fill="#181818" points="1597.04,290.9494,1605.5959,295.8275,1602.015,291.4483,1606.3942,287.8674,1597.04,290.9494" style="stroke:#181818;stroke-width:1.0;"/><path d="M2070,344.6094 L2070,370.6094 L2222,370.6094 L2222,354.6094 L2212,344.6094 L2070,344.6094 " fill="#F5F5F5" style="stroke:#181818;stroke-width:0.5;"/><path d="M2212,344.6094 L2212,354.6094 L2222,354.6094 L2212,344.6094 " fill="#F5F5F5" style="stroke:#181818;stroke-width:0.5;"/><text fill="#000000" font-family="sans-serif" font-size="13" lengthAdjust="spacing" textLength="131" x="2076" y="363.1045">Consultar Estadisticas</text></g><!--MD5=[68d2156f18c3fe68ee743c9ca0bb53f7]
link DASHBOARD_ABIERTO to SERVICIOS_ABIERTO--><g id="link_DASHBOARD_ABIERTO_SERVICIOS_ABIERTO"><path d="M1597.27,286.1294 C1859.58,297.3694 2659,331.6094 2659,331.6094 C2659,331.6094 2674.92,395.0494 2683.95,430.9894 " fill="none" id="DASHBOARD_ABIERTO-to-SERVICIOS_ABIERTO" style="stroke:#181818;stroke-width:1.0;"/><polygon fill="#181818" points="2685.22,436.0794,2686.911,426.3768,2684.004,431.2295,2679.1512,428.3224,2685.22,436.0794" style="stroke:#181818;stroke-width:1.0;"/><path d="M2677,336.6094 L2677,378.6094 L2853,378.6094 L2853,346.6094 L2843,336.6094 L2677,336.6094 " fill="#F5F5F5" style="stroke:#181818;stroke-width:0.5;"/><path d="M2843,336.6094 L2843,346.6094 L2853,346.6094 L2843,336.6094 " fill="#F5F5F5" style="stroke:#181818;stroke-width:0.5;"/><text fill="#000000" font-family="sans-serif" font-size="13" lengthAdjust="spacing" textLength="155" x="2683" y="355.1045">Listar Servicios / Paquetes</text><text fill="#000000" font-family="sans-serif" font-size="13" lengthAdjust="spacing" textLength="98" x="2683" y="371.4561">Realizar Petición</text></g><!--MD5=[9555e1e2e8eb2f1961c22470384b70d7]
reverse link DASHBOARD_ABIERTO to SERVICIOS_ABIERTO--><g id="link_DASHBOARD_ABIERTO_SERVICIOS_ABIERTO"><path d="M1602.41,287.2294 C1833.5,299.4294 2443,331.6094 2443,331.6094 C2443,331.6094 2493,383.6094 2493,383.6094 C2493,383.6094 2597,413.6094 2597,413.6094 C2597,413.6094 2622.86,425.1494 2647.31,436.0594 " fill="none" id="DASHBOARD_ABIERTO-backto-SERVICIOS_ABIERTO" style="stroke:#181818;stroke-width:1.0;"/><polygon fill="#181818" points="1597.35,286.9594,1606.1199,291.4413,1602.3426,287.2304,1606.5536,283.4531,1597.35,286.9594" style="stroke:#181818;stroke-width:1.0;"/><path d="M2498,344.6094 L2498,370.6094 L2650,370.6094 L2650,354.6094 L2640,344.6094 L2498,344.6094 " fill="#F5F5F5" style="stroke:#181818;stroke-width:0.5;"/><path d="M2640,344.6094 L2640,354.6094 L2650,354.6094 L2640,344.6094 " fill="#F5F5F5" style="stroke:#181818;stroke-width:0.5;"/><text fill="#000000" font-family="sans-serif" font-size="13" lengthAdjust="spacing" textLength="131" x="2504" y="363.1045">Consultar Estadisticas</text></g><!--MD5=[c490074b497e138e77df62e2ed682bb8]
link GESTIÓN_EGRESADOS_ABIERTO to GESTIÓN_EGRESADOS_ABIERTO--><g id="link_GESTIÓN_EGRESADOS_ABIERTO_GESTIÓN_EGRESADOS_ABIERTO"><path d="M241.27,440.2894 C261.75,442.3994 276,447.6694 276,456.1094 C276,463.8194 264.09,468.8894 246.4,471.3194 " fill="none" id="GESTIÓN_EGRESADOS_ABIERTO-to-GESTIÓN_EGRESADOS_ABIERTO" style="stroke:#181818;stroke-width:1.0;"/><polygon fill="#181818" points="241.27,471.9294,250.6854,474.8189,246.2338,471.3286,249.7241,466.8769,241.27,471.9294" style="stroke:#181818;stroke-width:1.0;"/><path d="M281,418.6094 L281,493.6094 L408,493.6094 L408,428.6094 L398,418.6094 L281,418.6094 " fill="#F5F5F5" style="stroke:#181818;stroke-width:0.5;"/><path d="M398,418.6094 L398,428.6094 L408,428.6094 L398,418.6094 " fill="#F5F5F5" style="stroke:#181818;stroke-width:0.5;"/><text fill="#000000" font-family="sans-serif" font-size="13" lengthAdjust="spacing" textLength="91" x="287" y="437.1045">Listar Egresado</text><text fill="#000000" font-family="sans-serif" font-size="13" lengthAdjust="spacing" textLength="90" x="287" y="453.4561">Crear Egresado</text><text fill="#000000" font-family="sans-serif" font-size="13" lengthAdjust="spacing" textLength="93" x="287" y="469.8076">Editar Egresado</text><text fill="#000000" font-family="sans-serif" font-size="13" lengthAdjust="spacing" textLength="106" x="287" y="486.1592">Eliminar Egresado</text></g><!--MD5=[e645f3b632128aaddb5b918d58e3a836]
link GESTIÓN_ADMINISTRADORES_ABIERTO to GESTIÓN_ADMINISTRADORES_ABIERTO--><g id="link_GESTIÓN_ADMINISTRADORES_ABIERTO_GESTIÓN_ADMINISTRADORES_ABIERTO"><path d="M709.25,440.7994 C729.98,443.1794 744,448.2894 744,456.1094 C744,463.2594 732.29,468.1394 714.44,470.7394 " fill="none" id="GESTIÓN_ADMINISTRADORES_ABIERTO-to-GESTIÓN_ADMINISTRADORES_ABIERTO" style="stroke:#181818;stroke-width:1.0;"/><polygon fill="#181818" points="709.25,471.4194,718.6897,474.2287,714.2085,470.7763,717.6608,466.2951,709.25,471.4194" style="stroke:#181818;stroke-width:1.0;"/><path d="M749,418.6094 L749,493.6094 L901,493.6094 L901,428.6094 L891,418.6094 L749,418.6094 " fill="#F5F5F5" style="stroke:#181818;stroke-width:0.5;"/><path d="M891,418.6094 L891,428.6094 L901,428.6094 L891,418.6094 " fill="#F5F5F5" style="stroke:#181818;stroke-width:0.5;"/><text fill="#000000" font-family="sans-serif" font-size="13" lengthAdjust="spacing" textLength="116" x="755" y="437.1045">Listar Administrador</text><text fill="#000000" font-family="sans-serif" font-size="13" lengthAdjust="spacing" textLength="115" x="755" y="453.4561">Crear Administrador</text><text fill="#000000" font-family="sans-serif" font-size="13" lengthAdjust="spacing" textLength="118" x="755" y="469.8076">Editar Administrador</text><text fill="#000000" font-family="sans-serif" font-size="13" lengthAdjust="spacing" textLength="131" x="755" y="486.1592">Eliminar Administrador</text></g><!--MD5=[da942f706a63c3b4cb344f4f6c97c409]
link GESTIÓN_SERVICIOS_ABIERTO to GESTIÓN_SERVICIOS_ABIERTO--><g id="link_GESTIÓN_SERVICIOS_ABIERTO_GESTIÓN_SERVICIOS_ABIERTO"><path d="M1144.02,440.0994 C1164.54,442.0694 1179,447.4094 1179,456.1094 C1179,464.0594 1166.92,469.2094 1149.17,471.5394 " fill="none" id="GESTIÓN_SERVICIOS_ABIERTO-to-GESTIÓN_SERVICIOS_ABIERTO" style="stroke:#181818;stroke-width:1.0;"/><polygon fill="#181818" points="1144.02,472.1194,1153.4095,475.0921,1148.9889,471.5625,1152.5185,467.1419,1144.02,472.1194" style="stroke:#181818;stroke-width:1.0;"/><path d="M1184,418.6094 L1184,493.6094 L1301,493.6094 L1301,428.6094 L1291,418.6094 L1184,418.6094 " fill="#F5F5F5" style="stroke:#181818;stroke-width:0.5;"/><path d="M1291,418.6094 L1291,428.6094 L1301,428.6094 L1291,418.6094 " fill="#F5F5F5" style="stroke:#181818;stroke-width:0.5;"/><text fill="#000000" font-family="sans-serif" font-size="13" lengthAdjust="spacing" textLength="81" x="1190" y="437.1045">Listar Servicio</text><text fill="#000000" font-family="sans-serif" font-size="13" lengthAdjust="spacing" textLength="80" x="1190" y="453.4561">Crear Servicio</text><text fill="#000000" font-family="sans-serif" font-size="13" lengthAdjust="spacing" textLength="83" x="1190" y="469.8076">Editar Servicio</text><text fill="#000000" font-family="sans-serif" font-size="13" lengthAdjust="spacing" textLength="96" x="1190" y="486.1592">Eliminar Servicio</text></g><!--MD5=[56f93944d790333d559908ed7181abd5]
link GESTIÓN_PAQUETES_ABIERTO to GESTIÓN_PAQUETES_ABIERTO--><g id="link_GESTIÓN_PAQUETES_ABIERTO_GESTIÓN_PAQUETES_ABIERTO"><path d="M1545.71,440.1294 C1566.14,442.1294 1580.5,447.4494 1580.5,456.1094 C1580.5,464.0194 1568.5,469.1494 1550.84,471.4994 " fill="none" id="GESTIÓN_PAQUETES_ABIERTO-to-GESTIÓN_PAQUETES_ABIERTO" style="stroke:#181818;stroke-width:1.0;"/><polygon fill="#181818" points="1545.71,472.0894,1555.0995,475.0621,1550.6789,471.5325,1554.2085,467.1119,1545.71,472.0894" style="stroke:#181818;stroke-width:1.0;"/><path d="M1585.5,418.6094 L1585.5,493.6094 L1712.5,493.6094 L1712.5,428.6094 L1702.5,418.6094 L1585.5,418.6094 " fill="#F5F5F5" style="stroke:#181818;stroke-width:0.5;"/><path d="M1702.5,418.6094 L1702.5,428.6094 L1712.5,428.6094 L1702.5,418.6094 " fill="#F5F5F5" style="stroke:#181818;stroke-width:0.5;"/><text fill="#000000" font-family="sans-serif" font-size="13" lengthAdjust="spacing" textLength="91" x="1591.5" y="437.1045">Listar Paquetes</text><text fill="#000000" font-family="sans-serif" font-size="13" lengthAdjust="spacing" textLength="90" x="1591.5" y="453.4561">Crear Paquetes</text><text fill="#000000" font-family="sans-serif" font-size="13" lengthAdjust="spacing" textLength="93" x="1591.5" y="469.8076">Editar Paquetes</text><text fill="#000000" font-family="sans-serif" font-size="13" lengthAdjust="spacing" textLength="106" x="1591.5" y="486.1592">Eliminar Paquetes</text></g><!--MD5=[af3d0a912357b6fdb80856dc69b00482]
link CONFIGURACIÓN_ABIERTO to CONFIGURACIÓN_ABIERTO--><g id="link_CONFIGURACIÓN_ABIERTO_CONFIGURACIÓN_ABIERTO"><path d="M1928.25,439.7994 C1948.45,441.4894 1963,446.9294 1963,456.1094 C1963,464.5094 1950.84,469.7694 1933.33,471.8994 " fill="none" id="CONFIGURACIÓN_ABIERTO-to-CONFIGURACIÓN_ABIERTO" style="stroke:#181818;stroke-width:1.0;"/><polygon fill="#181818" points="1928.25,472.4194,1937.6138,475.472,1933.2235,471.9049,1936.7906,467.5145,1928.25,472.4194" style="stroke:#181818;stroke-width:1.0;"/><path d="M1968,435.1094 L1968,477.1094 L2133,477.1094 L2133,445.1094 L2123,435.1094 L1968,435.1094 " fill="#F5F5F5" style="stroke:#181818;stroke-width:0.5;"/><path d="M2123,435.1094 L2123,445.1094 L2133,445.1094 L2123,435.1094 " fill="#F5F5F5" style="stroke:#181818;stroke-width:0.5;"/><text fill="#000000" font-family="sans-serif" font-size="13" lengthAdjust="spacing" textLength="118" x="1974" y="453.6045">Listar Datos Usuario</text><text fill="#000000" font-family="sans-serif" font-size="13" lengthAdjust="spacing" textLength="144" x="1974" y="469.9561">Actualizar Datos Usuario</text></g><!--MD5=[255754a8dbe81b27ba27cde4b693d709]
link EXPLORAR_SERVICIOS_ABIERTO to EXPLORAR_SERVICIOS_ABIERTO--><g id="link_EXPLORAR_SERVICIOS_ABIERTO_EXPLORAR_SERVICIOS_ABIERTO"><path d="M2389.56,440.2594 C2410.15,442.3394 2424.5,447.6294 2424.5,456.1094 C2424.5,463.8594 2412.51,468.9394 2394.72,471.3494 " fill="none" id="EXPLORAR_SERVICIOS_ABIERTO-to-EXPLORAR_SERVICIOS_ABIERTO" style="stroke:#181818;stroke-width:1.0;"/><polygon fill="#181818" points="2389.56,471.9594,2398.9662,474.8788,2394.5257,471.3743,2398.0302,466.9338,2389.56,471.9594" style="stroke:#181818;stroke-width:1.0;"/><path d="M2429.5,435.1094 L2429.5,477.1094 L2591.5,477.1094 L2591.5,445.1094 L2581.5,435.1094 L2429.5,435.1094 " fill="#F5F5F5" style="stroke:#181818;stroke-width:0.5;"/><path d="M2581.5,435.1094 L2581.5,445.1094 L2591.5,445.1094 L2581.5,435.1094 " fill="#F5F5F5" style="stroke:#181818;stroke-width:0.5;"/><text fill="#000000" font-family="sans-serif" font-size="13" lengthAdjust="spacing" textLength="141" x="2435.5" y="453.6045">Listar Servicio / Paquete</text><text fill="#000000" font-family="sans-serif" font-size="13" lengthAdjust="spacing" textLength="98" x="2435.5" y="469.9561">Realizar Petición</text></g><!--MD5=[3a3abf76bf5d39ee9feabd115ba37c92]
link SERVICIOS_ABIERTO to SERVICIOS_ABIERTO--><g id="link_SERVICIOS_ABIERTO_SERVICIOS_ABIERTO"><path d="M2765.66,439.3994 C2785.5,440.3894 2800.5,445.9594 2800.5,456.1094 C2800.5,465.3894 2787.97,470.8394 2770.66,472.4694 " fill="none" id="SERVICIOS_ABIERTO-to-SERVICIOS_ABIERTO" style="stroke:#181818;stroke-width:1.0;"/><polygon fill="#181818" points="2765.66,472.8194,2774.9228,476.1661,2770.6472,472.4621,2774.3512,468.1865,2765.66,472.8194" style="stroke:#181818;stroke-width:1.0;"/><path d="M2805.5,435.1094 L2805.5,477.1094 L2967.5,477.1094 L2967.5,445.1094 L2957.5,435.1094 L2805.5,435.1094 " fill="#F5F5F5" style="stroke:#181818;stroke-width:0.5;"/><path d="M2957.5,435.1094 L2957.5,445.1094 L2967.5,445.1094 L2957.5,435.1094 " fill="#F5F5F5" style="stroke:#181818;stroke-width:0.5;"/><text fill="#000000" font-family="sans-serif" font-size="13" lengthAdjust="spacing" textLength="141" x="2811.5" y="453.6045">Listar Servicio / Paquete</text><text fill="#000000" font-family="sans-serif" font-size="13" lengthAdjust="spacing" textLength="98" x="2811.5" y="469.9561">Realizar Petición</text></g><!--MD5=[d42bfe1b3b7c62dac76e573e451337ca]
link DASHBOARD_ABIERTO to *end--><g id="link_DASHBOARD_ABIERTO_*end"><path d="M1597.22,285.5894 C1890.24,296.2194 2866,331.6094 2866,331.6094 C2866,331.6094 2973,413.6094 2973,413.6094 C2973,413.6094 2973,498.6094 2973,498.6094 C2973,498.6094 2497,564.6094 2497,564.6094 C2497,564.6094 1809.45,597.5494 1698.14,602.8794 " fill="none" id="DASHBOARD_ABIERTO-to-*end" style="stroke:#181818;stroke-width:1.0;"/><polygon fill="#181818" points="1693,603.1294,1702.1835,606.688,1697.9941,602.8868,1701.7953,598.6975,1693,603.1294" style="stroke:#181818;stroke-width:1.0;"/><path d="M2978,443.1094 L2978,469.1094 L3078,469.1094 L3078,453.1094 L3068,443.1094 L2978,443.1094 " fill="#F5F5F5" style="stroke:#181818;stroke-width:0.5;"/><path d="M3068,443.1094 L3068,453.1094 L3078,453.1094 L3068,443.1094 " fill="#F5F5F5" style="stroke:#181818;stroke-width:0.5;"/><text fill="#000000" font-family="sans-serif" font-size="13" lengthAdjust="spacing" textLength="79" x="2984" y="461.6045">Cerrar Sesión</text></g><!--MD5=[51d5862573450e46f9de3ca1252f2823]
link SERVICIOS_ABIERTO to *end--><g id="link_SERVICIOS_ABIERTO_*end"><path d="M2647.31,476.1594 C2622.86,487.0694 2597,498.6094 2597,498.6094 C2597,498.6094 2133,564.6094 2133,564.6094 C2133,564.6094 1777.5,595.4194 1698.45,602.2694 " fill="none" id="SERVICIOS_ABIERTO-to-*end" style="stroke:#181818;stroke-width:1.0;"/><polygon fill="#181818" points="1693.24,602.7194,1702.5594,605.905,1698.2203,602.2757,1701.8496,597.9366,1693.24,602.7194" style="stroke:#181818;stroke-width:1.0;"/><path d="M2384,533.6094 L2384,559.6094 L2484,559.6094 L2484,543.6094 L2474,533.6094 L2384,533.6094 " fill="#F5F5F5" style="stroke:#181818;stroke-width:0.5;"/><path d="M2474,533.6094 L2474,543.6094 L2484,543.6094 L2474,533.6094 " fill="#F5F5F5" style="stroke:#181818;stroke-width:0.5;"/><text fill="#000000" font-family="sans-serif" font-size="13" lengthAdjust="spacing" textLength="79" x="2390" y="552.1045">Cerrar Sesión</text></g><!--MD5=[bdf46b36c2235e61421fe8213a6127d9]
link GESTIÓN_EGRESADOS_ABIERTO to *end--><g id="link_GESTIÓN_EGRESADOS_ABIERTO_*end"><path d="M241.23,474.0294 C451.03,504.2994 869,564.6094 869,564.6094 C869,564.6094 1556.55,597.5494 1667.86,602.8794 " fill="none" id="GESTIÓN_EGRESADOS_ABIERTO-to-*end" style="stroke:#181818;stroke-width:1.0;"/><polygon fill="#181818" points="1673,603.1294,1664.2047,598.6975,1668.0059,602.8868,1663.8165,606.688,1673,603.1294" style="stroke:#181818;stroke-width:1.0;"/><path d="M874,533.6094 L874,559.6094 L974,559.6094 L974,543.6094 L964,533.6094 L874,533.6094 " fill="#F5F5F5" style="stroke:#181818;stroke-width:0.5;"/><path d="M964,533.6094 L964,543.6094 L974,543.6094 L964,533.6094 " fill="#F5F5F5" style="stroke:#181818;stroke-width:0.5;"/><text fill="#000000" font-family="sans-serif" font-size="13" lengthAdjust="spacing" textLength="79" x="880" y="552.1045">Cerrar Sesión</text></g><!--MD5=[a3782c31058f341dce9ae8857b7b8f67]
link GESTIÓN_ADMINISTRADORES_ABIERTO to *end--><g id="link_GESTIÓN_ADMINISTRADORES_ABIERTO_*end"><path d="M679.06,476.1394 C855.99,507.0194 1186,564.6094 1186,564.6094 C1186,564.6094 1585.3,595.9394 1668.08,602.4394 " fill="none" id="GESTIÓN_ADMINISTRADORES_ABIERTO-to-*end" style="stroke:#181818;stroke-width:1.0;"/><polygon fill="#181818" points="1673.07,602.8294,1664.4064,598.1452,1668.085,602.4426,1663.7876,606.1212,1673.07,602.8294" style="stroke:#181818;stroke-width:1.0;"/><path d="M1191,533.6094 L1191,559.6094 L1291,559.6094 L1291,543.6094 L1281,533.6094 L1191,533.6094 " fill="#F5F5F5" style="stroke:#181818;stroke-width:0.5;"/><path d="M1281,533.6094 L1281,543.6094 L1291,543.6094 L1281,533.6094 " fill="#F5F5F5" style="stroke:#181818;stroke-width:0.5;"/><text fill="#000000" font-family="sans-serif" font-size="13" lengthAdjust="spacing" textLength="79" x="1197" y="552.1045">Cerrar Sesión</text></g><!--MD5=[ebe7d8de981238a7ba1122db40018f3b]
link GESTIÓN_SERVICIOS_ABIERTO to *end--><g id="link_GESTIÓN_SERVICIOS_ABIERTO_*end"><path d="M1104.87,476.1994 C1219.53,507.0994 1433,564.6094 1433,564.6094 C1433,564.6094 1614.31,592.8894 1668.12,601.2894 " fill="none" id="GESTIÓN_SERVICIOS_ABIERTO-to-*end" style="stroke:#181818;stroke-width:1.0;"/><polygon fill="#181818" points="1673.2,602.0794,1664.9245,596.7394,1668.2598,601.3084,1663.6908,604.6437,1673.2,602.0794" style="stroke:#181818;stroke-width:1.0;"/><path d="M1438,533.6094 L1438,559.6094 L1538,559.6094 L1538,543.6094 L1528,533.6094 L1438,533.6094 " fill="#F5F5F5" style="stroke:#181818;stroke-width:0.5;"/><path d="M1528,533.6094 L1528,543.6094 L1538,543.6094 L1528,533.6094 " fill="#F5F5F5" style="stroke:#181818;stroke-width:0.5;"/><text fill="#000000" font-family="sans-serif" font-size="13" lengthAdjust="spacing" textLength="79" x="1444" y="552.1045">Cerrar Sesión</text></g><!--MD5=[a0aeba9d9412982a3fdf3047acd13c6c]
link GESTIÓN_PAQUETES_ABIERTO to *end--><g id="link_GESTIÓN_PAQUETES_ABIERTO_*end"><path d="M1465.39,476.3294 C1514.29,507.2494 1605,564.6094 1605,564.6094 C1605,564.6094 1647.39,585.8094 1669.67,596.9494 " fill="none" id="GESTIÓN_PAQUETES_ABIERTO-to-*end" style="stroke:#181818;stroke-width:1.0;"/><polygon fill="#181818" points="1674.35,599.2894,1668.0987,591.6788,1669.8807,597.0476,1664.5119,598.8296,1674.35,599.2894" style="stroke:#181818;stroke-width:1.0;"/><path d="M1610,533.6094 L1610,559.6094 L1710,559.6094 L1710,543.6094 L1700,533.6094 L1610,533.6094 " fill="#F5F5F5" style="stroke:#181818;stroke-width:0.5;"/><path d="M1700,533.6094 L1700,543.6094 L1710,543.6094 L1700,533.6094 " fill="#F5F5F5" style="stroke:#181818;stroke-width:0.5;"/><text fill="#000000" font-family="sans-serif" font-size="13" lengthAdjust="spacing" textLength="79" x="1616" y="552.1045">Cerrar Sesión</text></g><!--MD5=[8285318f842f05e51f89699ccc738dc5]
link CONFIGURACIÓN_ABIERTO to *end--><g id="link_CONFIGURACIÓN_ABIERTO_*end"><path d="M1812.52,476.2594 C1780.62,507.6194 1718.32,568.8794 1693.54,593.2494 " fill="none" id="CONFIGURACIÓN_ABIERTO-to-*end" style="stroke:#181818;stroke-width:1.0;"/><polygon fill="#181818" points="1689.89,596.8294,1699.1176,593.3869,1693.4611,593.3297,1693.5182,587.6732,1689.89,596.8294" style="stroke:#181818;stroke-width:1.0;"/><path d="M1763,533.6094 L1763,559.6094 L1863,559.6094 L1863,543.6094 L1853,533.6094 L1763,533.6094 " fill="#F5F5F5" style="stroke:#181818;stroke-width:0.5;"/><path d="M1853,533.6094 L1853,543.6094 L1863,543.6094 L1853,533.6094 " fill="#F5F5F5" style="stroke:#181818;stroke-width:0.5;"/><text fill="#000000" font-family="sans-serif" font-size="13" lengthAdjust="spacing" textLength="79" x="1769" y="552.1045">Cerrar Sesión</text></g><!--MD5=[53ac6a2703b76be3945203948d275c80]
link EXPLORAR_SERVICIOS_ABIERTO to *end--><g id="link_EXPLORAR_SERVICIOS_ABIERTO_*end"><path d="M2211.03,476.1594 C2175.54,487.0694 2138,498.6094 2138,498.6094 C2138,498.6094 1876,564.6094 1876,564.6094 C1876,564.6094 1742.58,591.5694 1697.6,600.6594 " fill="none" id="EXPLORAR_SERVICIOS_ABIERTO-to-*end" style="stroke:#181818;stroke-width:1.0;"/><polygon fill="#181818" points="1692.57,601.6794,1702.1821,603.8259,1697.4718,600.6933,1700.6044,595.983,1692.57,601.6794" style="stroke:#181818;stroke-width:1.0;"/><path d="M2020,533.6094 L2020,559.6094 L2120,559.6094 L2120,543.6094 L2110,533.6094 L2020,533.6094 " fill="#F5F5F5" style="stroke:#181818;stroke-width:0.5;"/><path d="M2110,533.6094 L2110,543.6094 L2120,543.6094 L2110,533.6094 " fill="#F5F5F5" style="stroke:#181818;stroke-width:0.5;"/><text fill="#000000" font-family="sans-serif" font-size="13" lengthAdjust="spacing" textLength="79" x="2026" y="552.1045">Cerrar Sesión</text></g><!--MD5=[20fe2c3b4bb6bb22337d3b839184fd91]
@startuml Contexto
title Contexto Administrador

skinparam {
    NoteBackgroundColor #whiteSmoke
    NoteBorderColor #green
    linetype polyline
}

hide empty description

[*] - -> INITIAL 
INITIAL - -> DASHBOARD_ABIERTO 
note on link 
Iniciar Sesión
end note
DASHBOARD_ABIERTO - -> GESTIÓN_EGRESADOS_ABIERTO
note on link 
Listar Egresado
end note  
DASHBOARD_ABIERTO <- - GESTIÓN_EGRESADOS_ABIERTO
note on link 
Consultar Estadisticas
end note  
DASHBOARD_ABIERTO - -> GESTIÓN_ADMINISTRADORES_ABIERTO
note on link 
Listar Administrador
end note  
DASHBOARD_ABIERTO <- - GESTIÓN_ADMINISTRADORES_ABIERTO
note on link 
Consultar Estadisticas
end note
DASHBOARD_ABIERTO - -> GESTIÓN_SERVICIOS_ABIERTO
note on link 
Listar Servicio
end note  
DASHBOARD_ABIERTO <- - GESTIÓN_SERVICIOS_ABIERTO
note on link 
Consultar Estadisticas
end note
DASHBOARD_ABIERTO - -> GESTIÓN_PAQUETES_ABIERTO
note on link 
Listar Paquetes
end note  
DASHBOARD_ABIERTO <- - GESTIÓN_PAQUETES_ABIERTO
note on link 
Consultar Estadisticas
end note
DASHBOARD_ABIERTO - -> CONFIGURACIÓN_ABIERTO
note on link 
Listar Datos Usuario
end note  
DASHBOARD_ABIERTO <- - CONFIGURACIÓN_ABIERTO
note on link 
Consultar Estadisticas
end note
DASHBOARD_ABIERTO - -> EXPLORAR_SERVICIOS_ABIERTO
note on link 
Listar Servicios / Paquetes
end note  
DASHBOARD_ABIERTO <- - EXPLORAR_SERVICIOS_ABIERTO
note on link 
Consultar Estadisticas
end note
DASHBOARD_ABIERTO - -> SERVICIOS_ABIERTO
note on link 
Listar Servicios / Paquetes
Realizar Petición
end note  
DASHBOARD_ABIERTO <- - SERVICIOS_ABIERTO
note on link 
Consultar Estadisticas
end note

GESTIÓN_EGRESADOS_ABIERTO - -> GESTIÓN_EGRESADOS_ABIERTO
note on link 
Listar Egresado
Crear Egresado
Editar Egresado
Eliminar Egresado
end note
GESTIÓN_ADMINISTRADORES_ABIERTO - -> GESTIÓN_ADMINISTRADORES_ABIERTO
note on link 
Listar Administrador
Crear Administrador
Editar Administrador
Eliminar Administrador
end note
GESTIÓN_SERVICIOS_ABIERTO - -> GESTIÓN_SERVICIOS_ABIERTO
note on link 
Listar Servicio
Crear Servicio
Editar Servicio
Eliminar Servicio
end note
GESTIÓN_PAQUETES_ABIERTO - -> GESTIÓN_PAQUETES_ABIERTO
note on link 
Listar Paquetes
Crear Paquetes
Editar Paquetes
Eliminar Paquetes
end note
CONFIGURACIÓN_ABIERTO - -> CONFIGURACIÓN_ABIERTO
note on link 
Listar Datos Usuario
Actualizar Datos Usuario
end note
EXPLORAR_SERVICIOS_ABIERTO - -> EXPLORAR_SERVICIOS_ABIERTO
note on link 
Listar Servicio / Paquete
Realizar Petición
end note
SERVICIOS_ABIERTO - -> SERVICIOS_ABIERTO
note on link 
Listar Servicio / Paquete
Realizar Petición
end note

DASHBOARD_ABIERTO - -> [*]
note on link 
Cerrar Sesión
end note  
SERVICIOS_ABIERTO - -> [*]
note on link 
Cerrar Sesión
end note    
GESTIÓN_EGRESADOS_ABIERTO - -> [*]
note on link 
Cerrar Sesión
end note    
GESTIÓN_ADMINISTRADORES_ABIERTO - -> [*]
note on link 
Cerrar Sesión
end note    
GESTIÓN_SERVICIOS_ABIERTO - -> [*]
note on link 
Cerrar Sesión
end note    
GESTIÓN_PAQUETES_ABIERTO - -> [*]
note on link 
Cerrar Sesión
end note    
CONFIGURACIÓN_ABIERTO - -> [*]
note on link 
Cerrar Sesión
end note    
EXPLORAR_SERVICIOS_ABIERTO - -> [*]
note on link 
Cerrar Sesión
end note    

@enduml

PlantUML version 1.2022.7(Mon Aug 22 19:01:30 CEST 2022)
(GPL source distribution)
Java Runtime: Java(TM) SE Runtime Environment
JVM: Java HotSpot(TM) 64-Bit Server VM
Default Encoding: UTF-8
Language: es
Country: ES
--></g></svg>