<?xml version="1.0" encoding="UTF-8" standalone="no"?><svg xmlns="http://www.w3.org/2000/svg" xmlns:xlink="http://www.w3.org/1999/xlink" contentStyleType="text/css" height="391px" preserveAspectRatio="none" style="width:1308px;height:391px;background:#FFFFFF;" version="1.1" viewBox="0 0 1308 391" width="1308px" zoomAndPan="magnify"><defs/><g><rect fill="none" height="29.0679" id="_title" style="stroke:none;stroke-width:1.0;" width="179" x="557.5" y="5"/><text fill="#000000" font-family="sans-serif" font-size="14" font-weight="bold" lengthAdjust="spacing" textLength="169" x="562.5" y="24.9659">Contexto Administrador</text><ellipse cx="67" cy="56.0679" fill="#222222" rx="10" ry="10" style="stroke:none;stroke-width:1.0;"/><rect fill="#F1F1F1" height="40" rx="12.5" ry="12.5" style="stroke:#181818;stroke-width:0.5;" width="120" x="7" y="127.0679"/><text fill="#000000" font-family="sans-serif" font-size="14" lengthAdjust="spacing" textLength="110" x="12" y="152.4999">INICIAR_SESIÓN</text><rect fill="#F1F1F1" height="40" rx="12.5" ry="12.5" style="stroke:#181818;stroke-width:0.5;" width="56" x="39" y="246.0679"/><text fill="#000000" font-family="sans-serif" font-size="14" lengthAdjust="spacing" textLength="46" x="44" y="271.4999">INICIO</text><rect fill="#F1F1F1" height="40" rx="12.5" ry="12.5" style="stroke:#181818;stroke-width:0.5;" width="158" x="1144" y="246.0679"/><text fill="#000000" font-family="sans-serif" font-size="14" lengthAdjust="spacing" textLength="148" x="1149" y="271.4999">GESTIÓN_EGRESADOS</text><rect fill="#F1F1F1" height="40" rx="12.5" ry="12.5" style="stroke:#181818;stroke-width:0.5;" width="143" x="966.5" y="246.0679"/><text fill="#000000" font-family="sans-serif" font-size="14" lengthAdjust="spacing" textLength="133" x="971.5" y="271.4999">ADMINISTRADORES</text><rect fill="#F1F1F1" height="40" rx="12.5" ry="12.5" style="stroke:#181818;stroke-width:0.5;" width="148" x="783" y="246.0679"/><text fill="#000000" font-family="sans-serif" font-size="14" lengthAdjust="spacing" textLength="138" x="788" y="271.4999">GESTIÓN_SERVICIOS</text><rect fill="#F1F1F1" height="40" rx="12.5" ry="12.5" style="stroke:#181818;stroke-width:0.5;" width="147" x="600.5" y="246.0679"/><text fill="#000000" font-family="sans-serif" font-size="14" lengthAdjust="spacing" textLength="137" x="605.5" y="271.4999">GESTIÓN_PAQUETES</text><rect fill="#F1F1F1" height="40" rx="12.5" ry="12.5" style="stroke:#181818;stroke-width:0.5;" width="127" x="438.5" y="246.0679"/><text fill="#000000" font-family="sans-serif" font-size="14" lengthAdjust="spacing" textLength="117" x="443.5" y="271.4999">CONFIGURACIÓN</text><rect fill="#F1F1F1" height="40" rx="12.5" ry="12.5" style="stroke:#181818;stroke-width:0.5;" width="156" x="247" y="246.0679"/><text fill="#000000" font-family="sans-serif" font-size="14" lengthAdjust="spacing" textLength="146" x="252" y="271.4999">EXPLORAR_SERVICIOS</text><rect fill="#F1F1F1" height="40" rx="12.5" ry="12.5" style="stroke:#181818;stroke-width:0.5;" width="81" x="130.5" y="246.0679"/><text fill="#000000" font-family="sans-serif" font-size="14" lengthAdjust="spacing" textLength="71" x="135.5" y="271.4999">SERVICIOS</text><ellipse cx="674" cy="375.0679" fill="none" rx="10" ry="10" style="stroke:#222222;stroke-width:1.0;"/><ellipse cx="674.5" cy="375.5679" fill="#222222" rx="6" ry="6" style="stroke:none;stroke-width:1.0;"/><!--MD5=[fffa5c9a6c2a3d9bbcf62492fefaaec1]
link *start to INICIAR_SESIÓN--><g id="link_*start_INICIAR_SESIÓN"><path d="M67,66.2579 C67,78.9179 67,102.2079 67,120.3779 " fill="none" id="*start-to-INICIAR_SESIÓN" style="stroke:#181818;stroke-width:1.0;"/><polygon fill="#181818" points="67,125.2979,71,116.2979,67,120.2979,63,116.2979,67,125.2979" style="stroke:#181818;stroke-width:1.0;"/></g><!--MD5=[66837f7cee128dc6ca7363ed13e0752f]
link INICIAR_SESIÓN to INICIO--><g id="link_INICIAR_SESIÓN_INICIO"><path d="M67,167.3879 C67,187.0379 67,217.5879 67,239.2879 " fill="none" id="INICIAR_SESIÓN-to-INICIO" style="stroke:#181818;stroke-width:1.0;"/><polygon fill="#181818" points="67,244.2079,71,235.2079,67,239.2079,63,235.2079,67,244.2079" style="stroke:#181818;stroke-width:1.0;"/><text fill="#000000" font-family="sans-serif" font-size="13" lengthAdjust="spacing" textLength="78" x="68" y="211.9649">Iniciar Sesión</text></g><!--MD5=[924a5f2c07eecafe54ec1a392292cfcb]
link INICIO to GESTIÓN_EGRESADOS--><g id="link_INICIO_GESTIÓN_EGRESADOS"><path d="M92.46,245.6079 C107.91,233.1979 124.67,219.7379 124.67,219.7379 C124.67,219.7379 1115.33,219.7379 1115.33,219.7379 C1115.33,219.7379 1142.6,231.4679 1169.69,243.1279 " fill="none" id="INICIO-to-GESTIÓN_EGRESADOS" style="stroke:#181818;stroke-width:1.0;"/><polygon fill="#181818" points="1174.07,245.0079,1167.3734,237.7861,1169.4743,243.0383,1164.222,245.1392,1174.07,245.0079" style="stroke:#181818;stroke-width:1.0;"/></g><!--MD5=[07bad1bbb0ab526be7c56fe5971851f4]
reverse link INICIO to GESTIÓN_EGRESADOS--><g id="link_INICIO_GESTIÓN_EGRESADOS"><path d="M90.76,241.1679 C110.83,220.1279 136.33,193.3979 136.33,193.3979 C136.33,193.3979 1103.67,193.3979 1103.67,193.3979 C1103.67,193.3979 1154.15,224.1379 1189.44,245.6279 " fill="none" id="INICIO-backto-GESTIÓN_EGRESADOS" style="stroke:#181818;stroke-width:1.0;"/><polygon fill="#181818" points="87.36,244.7279,96.4564,240.9523,90.8015,241.1008,90.653,235.4459,87.36,244.7279" style="stroke:#181818;stroke-width:1.0;"/></g><!--MD5=[92094c0e7e8db2be50d4eb13853064a4]
link INICIO to ADMINISTRADORES--><g id="link_INICIO_ADMINISTRADORES"><path d="M92.46,245.6079 C107.91,233.1979 124.67,219.7379 124.67,219.7379 C124.67,219.7379 937.33,219.7379 937.33,219.7379 C937.33,219.7379 962.62,231.3679 987.84,242.9779 " fill="none" id="INICIO-to-ADMINISTRADORES" style="stroke:#181818;stroke-width:1.0;"/><polygon fill="#181818" points="992.18,244.9779,985.689,237.5707,987.6415,242.8799,982.3322,244.8323,992.18,244.9779" style="stroke:#181818;stroke-width:1.0;"/></g><!--MD5=[39555862d1b24fbe8e4bce6cefa6c186]
reverse link INICIO to ADMINISTRADORES--><g id="link_INICIO_ADMINISTRADORES"><path d="M90.76,241.1679 C110.83,220.1279 136.33,193.3979 136.33,193.3979 C136.33,193.3979 925.67,193.3979 925.67,193.3979 C925.67,193.3979 973.18,224.1379 1006.41,245.6279 " fill="none" id="INICIO-backto-ADMINISTRADORES" style="stroke:#181818;stroke-width:1.0;"/><polygon fill="#181818" points="87.36,244.7279,96.4564,240.9523,90.8015,241.1008,90.653,235.4459,87.36,244.7279" style="stroke:#181818;stroke-width:1.0;"/></g><!--MD5=[353c6902efa302421d9fee1ede3a026b]
link INICIO to GESTIÓN_SERVICIOS--><g id="link_INICIO_GESTIÓN_SERVICIOS"><path d="M92.46,245.6079 C107.91,233.1979 124.67,219.7379 124.67,219.7379 C124.67,219.7379 753.33,219.7379 753.33,219.7379 C753.33,219.7379 779.37,231.3679 805.35,242.9779 " fill="none" id="INICIO-to-GESTIÓN_SERVICIOS" style="stroke:#181818;stroke-width:1.0;"/><polygon fill="#181818" points="809.85,244.9979,803.2736,237.6664,805.2875,242.9526,800.0012,244.9665,809.85,244.9979" style="stroke:#181818;stroke-width:1.0;"/></g><!--MD5=[a719752bf28f17955bf7daddc275162b]
reverse link INICIO to GESTIÓN_SERVICIOS--><g id="link_INICIO_GESTIÓN_SERVICIOS"><path d="M90.76,241.1679 C110.83,220.1279 136.33,193.3979 136.33,193.3979 C136.33,193.3979 741.67,193.3979 741.67,193.3979 C741.67,193.3979 790.45,224.1379 824.57,245.6279 " fill="none" id="INICIO-backto-GESTIÓN_SERVICIOS" style="stroke:#181818;stroke-width:1.0;"/><polygon fill="#181818" points="87.36,244.7279,96.4564,240.9523,90.8015,241.1008,90.653,235.4459,87.36,244.7279" style="stroke:#181818;stroke-width:1.0;"/></g><!--MD5=[544181461a6ae2dedaf9572119c7d9e6]
link INICIO to GESTIÓN_PAQUETES--><g id="link_INICIO_GESTIÓN_PAQUETES"><path d="M92.46,245.6079 C107.91,233.1979 124.67,219.7379 124.67,219.7379 C124.67,219.7379 571.33,219.7379 571.33,219.7379 C571.33,219.7379 597.12,231.3679 622.85,242.9779 " fill="none" id="INICIO-to-GESTIÓN_PAQUETES" style="stroke:#181818;stroke-width:1.0;"/><polygon fill="#181818" points="627.29,244.9879,620.7328,237.6393,622.7328,242.9307,617.4413,244.9308,627.29,244.9879" style="stroke:#181818;stroke-width:1.0;"/></g><!--MD5=[3f0810a6510995f05b80500b04f71fb2]
reverse link INICIO to GESTIÓN_PAQUETES--><g id="link_INICIO_GESTIÓN_PAQUETES"><path d="M90.76,241.1679 C110.83,220.1279 136.33,193.3979 136.33,193.3979 C136.33,193.3979 559.67,193.3979 559.67,193.3979 C559.67,193.3979 608.03,224.1379 641.85,245.6279 " fill="none" id="INICIO-backto-GESTIÓN_PAQUETES" style="stroke:#181818;stroke-width:1.0;"/><polygon fill="#181818" points="87.36,244.7279,96.4564,240.9523,90.8015,241.1008,90.653,235.4459,87.36,244.7279" style="stroke:#181818;stroke-width:1.0;"/></g><!--MD5=[4cc4cc43b11f3134bf32754e9a51a657]
link INICIO to CONFIGURACIÓN--><g id="link_INICIO_CONFIGURACIÓN"><path d="M92.46,245.6079 C107.91,233.1979 124.67,219.7379 124.67,219.7379 C124.67,219.7379 409.33,219.7379 409.33,219.7379 C409.33,219.7379 432.41,231.2779 455.54,242.8379 " fill="none" id="INICIO-to-CONFIGURACIÓN" style="stroke:#181818;stroke-width:1.0;"/><polygon fill="#181818" points="459.73,244.9379,453.4593,237.3433,455.255,242.7076,449.8907,244.5033,459.73,244.9379" style="stroke:#181818;stroke-width:1.0;"/></g><!--MD5=[0b6bd3b75ec5b2cd13b71c92fb5bba52]
reverse link INICIO to CONFIGURACIÓN--><g id="link_INICIO_CONFIGURACIÓN"><path d="M90.76,241.1679 C110.83,220.1279 136.33,193.3979 136.33,193.3979 C136.33,193.3979 397.67,193.3979 397.67,193.3979 C397.67,193.3979 441.8,224.1379 472.66,245.6279 " fill="none" id="INICIO-backto-CONFIGURACIÓN" style="stroke:#181818;stroke-width:1.0;"/><polygon fill="#181818" points="87.36,244.7279,96.4564,240.9523,90.8015,241.1008,90.653,235.4459,87.36,244.7279" style="stroke:#181818;stroke-width:1.0;"/></g><!--MD5=[cca3090e76786349203404ad2fa77f79]
link INICIO to EXPLORAR_SERVICIOS--><g id="link_INICIO_EXPLORAR_SERVICIOS"><path d="M92.46,245.6079 C107.91,233.1979 124.67,219.7379 124.67,219.7379 C124.67,219.7379 217.33,219.7379 217.33,219.7379 C217.33,219.7379 244.6,231.4679 271.69,243.1279 " fill="none" id="INICIO-to-EXPLORAR_SERVICIOS" style="stroke:#181818;stroke-width:1.0;"/><polygon fill="#181818" points="276.07,245.0079,269.3734,237.7861,271.4743,243.0383,266.222,245.1392,276.07,245.0079" style="stroke:#181818;stroke-width:1.0;"/></g><!--MD5=[847b408c021b00de83bcc586619bdd73]
reverse link INICIO to EXPLORAR_SERVICIOS--><g id="link_INICIO_EXPLORAR_SERVICIOS"><path d="M90.76,241.1679 C110.83,220.1279 136.33,193.3979 136.33,193.3979 C136.33,193.3979 205.67,193.3979 205.67,193.3979 C205.67,193.3979 256.15,224.1379 291.44,245.6279 " fill="none" id="INICIO-backto-EXPLORAR_SERVICIOS" style="stroke:#181818;stroke-width:1.0;"/><polygon fill="#181818" points="87.36,244.7279,96.4564,240.9523,90.8015,241.1008,90.653,235.4459,87.36,244.7279" style="stroke:#181818;stroke-width:1.0;"/></g><!--MD5=[0023349e8bcb5c519201d7e61fde61b3]
link INICIO to SERVICIOS--><g id="link_INICIO_SERVICIOS"><path d="M95.31,282.3979 C99.07,284.5679 101.67,286.0679 101.67,286.0679 C101.67,286.0679 114.01,286.0679 123.96,286.0679 " fill="none" id="INICIO-to-SERVICIOS" style="stroke:#181818;stroke-width:1.0;"/><polygon fill="#181818" points="128.78,286.0679,119.78,282.0679,123.78,286.0679,119.78,290.0679,128.78,286.0679" style="stroke:#181818;stroke-width:1.0;"/></g><!--MD5=[6edecfe94a264b0d01984fbd5538cd5d]
reverse link INICIO to SERVICIOS--><g id="link_INICIO_SERVICIOS"><path d="M100.65,246.6579 C101.3,246.2779 101.67,246.0679 101.67,246.0679 C101.67,246.0679 120.36,246.0679 130.29,246.0679 " fill="none" id="INICIO-backto-SERVICIOS" style="stroke:#181818;stroke-width:1.0;"/><polygon fill="#181818" points="96.62,248.9779,106.4166,247.9648,100.9559,246.488,102.4327,241.0273,96.62,248.9779" style="stroke:#181818;stroke-width:1.0;"/></g><!--MD5=[0876ba8a88d8bbcf732e506fae106d5c]
link INICIO to *end--><g id="link_INICIO_*end"><path d="M95.35,278.7779 C104.81,282.6879 113,286.0679 113,286.0679 C113,286.0679 355,335.0679 355,335.0679 C355,335.0679 592.55,364.1079 657.67,372.0679 " fill="none" id="INICIO-to-*end" style="stroke:#181818;stroke-width:1.0;"/><polygon fill="#181818" points="662.25,372.6279,653.7959,367.5755,657.2862,372.0271,652.8346,375.5175,662.25,372.6279" style="stroke:#181818;stroke-width:1.0;"/><text fill="#000000" font-family="sans-serif" font-size="13" lengthAdjust="spacing" textLength="74" x="356" y="330.9649">Cerar Sesión</text></g><!--MD5=[68cf946387aa7a9d6ab5098896bcd071]
link GESTIÓN_EGRESADOS to *end--><g id="link_GESTIÓN_EGRESADOS_*end"><path d="M1158.24,286.5579 C1091.45,306.6479 997,335.0679 997,335.0679 C997,335.0679 755.42,364.2379 690.11,372.1179 " fill="none" id="GESTIÓN_EGRESADOS-to-*end" style="stroke:#181818;stroke-width:1.0;"/><polygon fill="#181818" points="685.52,372.6779,694.9344,375.5707,690.484,372.0788,693.9759,367.6284,685.52,372.6779" style="stroke:#181818;stroke-width:1.0;"/><text fill="#000000" font-family="sans-serif" font-size="13" lengthAdjust="spacing" textLength="74" x="1058" y="330.9649">Cerar Sesión</text></g><!--MD5=[0cb71d928789617a6509f6e93c713ea4]
link ADMINISTRADORES to *end--><g id="link_ADMINISTRADORES_*end"><path d="M989.28,286.5579 C939.05,306.6479 868,335.0679 868,335.0679 C868,335.0679 736.66,361.4679 690.11,370.8279 " fill="none" id="ADMINISTRADORES-to-*end" style="stroke:#181818;stroke-width:1.0;"/><polygon fill="#181818" points="685.37,371.7779,694.9821,373.9244,690.2718,370.7918,693.4044,366.0815,685.37,371.7779" style="stroke:#181818;stroke-width:1.0;"/><text fill="#000000" font-family="sans-serif" font-size="13" lengthAdjust="spacing" textLength="74" x="914" y="330.9649">Cerar Sesión</text></g><!--MD5=[2179718e8c368688269990cc05e2538b]
link GESTIÓN_SERVICIOS to *end--><g id="link_GESTIÓN_SERVICIOS_*end"><path d="M828.63,286.5579 C799.38,306.6479 758,335.0679 758,335.0679 C758,335.0679 712.67,356.1179 688.61,367.2879 " fill="none" id="GESTIÓN_SERVICIOS-to-*end" style="stroke:#181818;stroke-width:1.0;"/><polygon fill="#181818" points="684.36,369.2579,694.2076,369.1005,688.896,367.1545,690.8421,361.8429,684.36,369.2579" style="stroke:#181818;stroke-width:1.0;"/><text fill="#000000" font-family="sans-serif" font-size="13" lengthAdjust="spacing" textLength="74" x="785" y="330.9649">Cerar Sesión</text></g><!--MD5=[ebe559387794da29d51c1506eb8107be]
link GESTIÓN_PAQUETES to *end--><g id="link_GESTIÓN_PAQUETES_*end"><path d="M674,286.1979 C674,306.7579 674,339.0579 674,358.2379 " fill="none" id="GESTIÓN_PAQUETES-to-*end" style="stroke:#181818;stroke-width:1.0;"/><polygon fill="#181818" points="674,363.1479,678,354.1479,674,358.1479,670,354.1479,674,363.1479" style="stroke:#181818;stroke-width:1.0;"/><text fill="#000000" font-family="sans-serif" font-size="13" lengthAdjust="spacing" textLength="74" x="675" y="330.9649">Cerar Sesión</text></g><!--MD5=[f281b6c48a71b2adc9bcfe8dff9d1342]
link CONFIGURACIÓN to *end--><g id="link_CONFIGURACIÓN_*end"><path d="M526.98,286.3679 C553,306.4779 590,335.0679 590,335.0679 C590,335.0679 635.33,356.1179 659.39,367.2879 " fill="none" id="CONFIGURACIÓN-to-*end" style="stroke:#181818;stroke-width:1.0;"/><polygon fill="#181818" points="663.64,369.2579,657.1579,361.8429,659.104,367.1545,653.7924,369.1005,663.64,369.2579" style="stroke:#181818;stroke-width:1.0;"/><text fill="#000000" font-family="sans-serif" font-size="13" lengthAdjust="spacing" textLength="74" x="591" y="330.9649">Cerar Sesión</text></g><!--MD5=[c6e8d97373a6e0272a3c575f2d7d2fa1]
link EXPLORAR_SERVICIOS to *end--><g id="link_EXPLORAR_SERVICIOS_*end"><path d="M369.99,286.5579 C416.38,306.6479 482,335.0679 482,335.0679 C482,335.0679 611.99,361.4679 658.05,370.8279 " fill="none" id="EXPLORAR_SERVICIOS-to-*end" style="stroke:#181818;stroke-width:1.0;"/><polygon fill="#181818" points="662.73,371.7779,654.7116,366.0591,657.831,370.7781,653.1119,373.8975,662.73,371.7779" style="stroke:#181818;stroke-width:1.0;"/><text fill="#000000" font-family="sans-serif" font-size="13" lengthAdjust="spacing" textLength="74" x="483" y="330.9649">Cerar Sesión</text></g><!--MD5=[29a5ad8628f9a66065cc8a649df30ddb]
@startuml Contexto
title Contexto Administrador

skinparam {
    NoteBackgroundColor #whiteSmoke
    NoteBorderColor #green
    linetype polyline
}

hide empty description

[*] - -> INICIAR_SESIÓN
INICIAR_SESIÓN - -> INICIO : Iniciar Sesión

INICIO -> GESTIÓN_EGRESADOS
INICIO <- GESTIÓN_EGRESADOS
INICIO -> ADMINISTRADORES
INICIO <- ADMINISTRADORES
INICIO -> GESTIÓN_SERVICIOS
INICIO <- GESTIÓN_SERVICIOS
INICIO -> GESTIÓN_PAQUETES
INICIO <- GESTIÓN_PAQUETES
INICIO -> CONFIGURACIÓN
INICIO <- CONFIGURACIÓN
INICIO -> EXPLORAR_SERVICIOS
INICIO <- EXPLORAR_SERVICIOS
INICIO -> SERVICIOS
INICIO <- SERVICIOS

INICIO - -> [*] : Cerar Sesión
GESTIÓN_EGRESADOS - -> [*] : Cerar Sesión
ADMINISTRADORES - -> [*] : Cerar Sesión
GESTIÓN_SERVICIOS - -> [*] : Cerar Sesión
GESTIÓN_PAQUETES - -> [*] : Cerar Sesión
CONFIGURACIÓN - -> [*] : Cerar Sesión
EXPLORAR_SERVICIOS - -> [*] : Cerar Sesión


@enduml

PlantUML version 1.2022.7(Mon Aug 22 19:01:30 CEST 2022)
(GPL source distribution)
Java Runtime: OpenJDK Runtime Environment
JVM: OpenJDK 64-Bit Server VM
Default Encoding: UTF-8
Language: es
Country: ES
--></g></svg>