<?xml version="1.0" encoding="UTF-8" standalone="no"?><svg xmlns="http://www.w3.org/2000/svg" xmlns:xlink="http://www.w3.org/1999/xlink" contentStyleType="text/css" height="387px" preserveAspectRatio="none" style="width:1327px;height:387px;background:#FFFFFF;" version="1.1" viewBox="0 0 1327 387" width="1327px" zoomAndPan="magnify"><defs/><g><rect fill="none" height="27.6094" id="_title" style="stroke:none;stroke-width:1.0;" width="176" x="568.75" y="5"/><text fill="#000000" font-family="sans-serif" font-size="14" font-weight="bold" lengthAdjust="spacing" textLength="166" x="573.75" y="24.5332">Contexto Administrador</text><ellipse cx="64.5" cy="54.6094" fill="#222222" rx="10" ry="10" style="stroke:none;stroke-width:1.0;"/><rect fill="#F1F1F1" height="40" rx="12.5" ry="12.5" style="stroke:#181818;stroke-width:0.5;" width="115" x="7" y="125.6094"/><text fill="#000000" font-family="sans-serif" font-size="14" lengthAdjust="spacing" textLength="105" x="12" y="151.3379">INICIAR_SESIÓN</text><rect fill="#F1F1F1" height="40" rx="12.5" ry="12.5" style="stroke:#181818;stroke-width:0.5;" width="50" x="39.5" y="243.6094"/><text fill="#000000" font-family="sans-serif" font-size="14" lengthAdjust="spacing" textLength="39" x="45" y="269.3379">INICIO</text><rect fill="#F1F1F1" height="40" rx="12.5" ry="12.5" style="stroke:#181818;stroke-width:0.5;" width="166" x="1155.5" y="243.6094"/><text fill="#000000" font-family="sans-serif" font-size="14" lengthAdjust="spacing" textLength="156" x="1160.5" y="269.3379">GESTIÓN_EGRESADOS</text><rect fill="#F1F1F1" height="40" rx="12.5" ry="12.5" style="stroke:#181818;stroke-width:0.5;" width="141" x="979" y="243.6094"/><text fill="#000000" font-family="sans-serif" font-size="14" lengthAdjust="spacing" textLength="131" x="984" y="269.3379">ADMINISTRADORES</text><rect fill="#F1F1F1" height="40" rx="12.5" ry="12.5" style="stroke:#181818;stroke-width:0.5;" width="152" x="791.5" y="243.6094"/><text fill="#000000" font-family="sans-serif" font-size="14" lengthAdjust="spacing" textLength="142" x="796.5" y="269.3379">GESTIÓN_SERVICIOS</text><rect fill="#F1F1F1" height="40" rx="12.5" ry="12.5" style="stroke:#181818;stroke-width:0.5;" width="153" x="603" y="243.6094"/><text fill="#000000" font-family="sans-serif" font-size="14" lengthAdjust="spacing" textLength="143" x="608" y="269.3379">GESTIÓN_PAQUETES</text><rect fill="#F1F1F1" height="40" rx="12.5" ry="12.5" style="stroke:#181818;stroke-width:0.5;" width="124" x="443.5" y="243.6094"/><text fill="#000000" font-family="sans-serif" font-size="14" lengthAdjust="spacing" textLength="114" x="448.5" y="269.3379">CONFIGURACIÓN</text><rect fill="#F1F1F1" height="40" rx="12.5" ry="12.5" style="stroke:#181818;stroke-width:0.5;" width="165" x="243" y="243.6094"/><text fill="#000000" font-family="sans-serif" font-size="14" lengthAdjust="spacing" textLength="155" x="248" y="269.3379">EXPLORAR_SERVICIOS</text><rect fill="#F1F1F1" height="40" rx="12.5" ry="12.5" style="stroke:#181818;stroke-width:0.5;" width="83" x="125" y="243.6094"/><text fill="#000000" font-family="sans-serif" font-size="14" lengthAdjust="spacing" textLength="73" x="130" y="269.3379">SERVICIOS</text><ellipse cx="578.5" cy="371.6094" fill="none" rx="10" ry="10" style="stroke:#222222;stroke-width:1.0;"/><ellipse cx="579" cy="372.1094" fill="#222222" rx="6" ry="6" style="stroke:none;stroke-width:1.0;"/><!--MD5=[fffa5c9a6c2a3d9bbcf62492fefaaec1]
link *start to INICIAR_SESIÓN--><g id="link_*start_INICIAR_SESIÓN"><path d="M64.5,64.7994 C64.5,77.7894 64.5,101.9894 64.5,120.3394 " fill="none" id="*start-to-INICIAR_SESIÓN" style="stroke:#181818;stroke-width:1.0;"/><polygon fill="#181818" points="64.5,125.3494,68.5,116.3494,64.5,120.3494,60.5,116.3494,64.5,125.3494" style="stroke:#181818;stroke-width:1.0;"/></g><!--MD5=[66837f7cee128dc6ca7363ed13e0752f]
link INICIAR_SESIÓN to INICIO--><g id="link_INICIAR_SESIÓN_INICIO"><path d="M64.5,165.7694 C64.5,185.5794 64.5,216.5894 64.5,238.1594 " fill="none" id="INICIAR_SESIÓN-to-INICIO" style="stroke:#181818;stroke-width:1.0;"/><polygon fill="#181818" points="64.5,243.4294,68.5,234.4294,64.5,238.4294,60.5,234.4294,64.5,243.4294" style="stroke:#181818;stroke-width:1.0;"/><text fill="#000000" font-family="sans-serif" font-size="13" lengthAdjust="spacing" textLength="78" x="65.5" y="210.1045">Iniciar Sesión</text></g><!--MD5=[924a5f2c07eecafe54ec1a392292cfcb]
link INICIO to GESTIÓN_EGRESADOS--><g id="link_INICIO_GESTIÓN_EGRESADOS"><path d="M88.32,243.5694 C103.05,231.1694 119.17,217.6094 119.17,217.6094 C119.17,217.6094 1125.83,217.6094 1125.83,217.6094 C1125.83,217.6094 1155.76,229.8294 1184.77,241.6694 " fill="none" id="INICIO-to-GESTIÓN_EGRESADOS" style="stroke:#181818;stroke-width:1.0;"/><polygon fill="#181818" points="1189.41,243.5694,1182.5844,236.4693,1184.7795,241.6829,1179.566,243.8781,1189.41,243.5694" style="stroke:#181818;stroke-width:1.0;"/></g><!--MD5=[07bad1bbb0ab526be7c56fe5971851f4]
reverse link INICIO to GESTIÓN_EGRESADOS--><g id="link_INICIO_GESTIÓN_EGRESADOS"><path d="M86.51,239.7194 C105.82,218.7594 130.83,191.6094 130.83,191.6094 C130.83,191.6094 1114.17,191.6094 1114.17,191.6094 C1114.17,191.6094 1167.08,222.2494 1203.87,243.5494 " fill="none" id="INICIO-backto-GESTIÓN_EGRESADOS" style="stroke:#181818;stroke-width:1.0;"/><polygon fill="#181818" points="82.98,243.5494,92.0218,239.6449,86.3696,239.8737,86.1408,234.2215,82.98,243.5494" style="stroke:#181818;stroke-width:1.0;"/></g><!--MD5=[92094c0e7e8db2be50d4eb13853064a4]
link INICIO to ADMINISTRADORES--><g id="link_INICIO_ADMINISTRADORES"><path d="M88.32,243.5694 C103.05,231.1694 119.17,217.6094 119.17,217.6094 C119.17,217.6094 949.83,217.6094 949.83,217.6094 C949.83,217.6094 975.87,229.6294 1001.33,241.3794 " fill="none" id="INICIO-to-ADMINISTRADORES" style="stroke:#181818;stroke-width:1.0;"/><polygon fill="#181818" points="1006.07,243.5694,999.579,236.1621,1001.5315,241.4714,996.2222,243.4238,1006.07,243.5694" style="stroke:#181818;stroke-width:1.0;"/></g><!--MD5=[39555862d1b24fbe8e4bce6cefa6c186]
reverse link INICIO to ADMINISTRADORES--><g id="link_INICIO_ADMINISTRADORES"><path d="M86.51,239.7194 C105.82,218.7594 130.83,191.6094 130.83,191.6094 C130.83,191.6094 938.17,191.6094 938.17,191.6094 C938.17,191.6094 985.54,222.2494 1018.49,243.5494 " fill="none" id="INICIO-backto-ADMINISTRADORES" style="stroke:#181818;stroke-width:1.0;"/><polygon fill="#181818" points="82.98,243.5494,92.0218,239.6449,86.3696,239.8737,86.1408,234.2215,82.98,243.5494" style="stroke:#181818;stroke-width:1.0;"/></g><!--MD5=[353c6902efa302421d9fee1ede3a026b]
link INICIO to GESTIÓN_SERVICIOS--><g id="link_INICIO_GESTIÓN_SERVICIOS"><path d="M88.32,243.5694 C103.05,231.1694 119.17,217.6094 119.17,217.6094 C119.17,217.6094 761.83,217.6094 761.83,217.6094 C761.83,217.6094 789.67,229.7294 816.77,241.5294 " fill="none" id="INICIO-to-GESTIÓN_SERVICIOS" style="stroke:#181818;stroke-width:1.0;"/><polygon fill="#181818" points="821.46,243.5694,814.7905,236.3224,816.8717,241.5825,811.6116,243.6637,821.46,243.5694" style="stroke:#181818;stroke-width:1.0;"/></g><!--MD5=[a719752bf28f17955bf7daddc275162b]
reverse link INICIO to GESTIÓN_SERVICIOS--><g id="link_INICIO_GESTIÓN_SERVICIOS"><path d="M86.51,239.7194 C105.82,218.7594 130.83,191.6094 130.83,191.6094 C130.83,191.6094 750.17,191.6094 750.17,191.6094 C750.17,191.6094 800.1,222.2494 834.82,243.5494 " fill="none" id="INICIO-backto-GESTIÓN_SERVICIOS" style="stroke:#181818;stroke-width:1.0;"/><polygon fill="#181818" points="82.98,243.5494,92.0218,239.6449,86.3696,239.8737,86.1408,234.2215,82.98,243.5494" style="stroke:#181818;stroke-width:1.0;"/></g><!--MD5=[544181461a6ae2dedaf9572119c7d9e6]
link INICIO to GESTIÓN_PAQUETES--><g id="link_INICIO_GESTIÓN_PAQUETES"><path d="M88.32,243.5694 C103.05,231.1694 119.17,217.6094 119.17,217.6094 C119.17,217.6094 573.83,217.6094 573.83,217.6094 C573.83,217.6094 601.67,229.7294 628.77,241.5294 " fill="none" id="INICIO-to-GESTIÓN_PAQUETES" style="stroke:#181818;stroke-width:1.0;"/><polygon fill="#181818" points="633.46,243.5694,626.7905,236.3224,628.8717,241.5825,623.6116,243.6637,633.46,243.5694" style="stroke:#181818;stroke-width:1.0;"/></g><!--MD5=[3f0810a6510995f05b80500b04f71fb2]
reverse link INICIO to GESTIÓN_PAQUETES--><g id="link_INICIO_GESTIÓN_PAQUETES"><path d="M86.51,239.7194 C105.82,218.7594 130.83,191.6094 130.83,191.6094 C130.83,191.6094 562.17,191.6094 562.17,191.6094 C562.17,191.6094 612.1,222.2494 646.82,243.5494 " fill="none" id="INICIO-backto-GESTIÓN_PAQUETES" style="stroke:#181818;stroke-width:1.0;"/><polygon fill="#181818" points="82.98,243.5494,92.0218,239.6449,86.3696,239.8737,86.1408,234.2215,82.98,243.5494" style="stroke:#181818;stroke-width:1.0;"/></g><!--MD5=[4cc4cc43b11f3134bf32754e9a51a657]
link INICIO to CONFIGURACIÓN--><g id="link_INICIO_CONFIGURACIÓN"><path d="M88.32,243.5694 C103.05,231.1694 119.17,217.6094 119.17,217.6094 C119.17,217.6094 413.83,217.6094 413.83,217.6094 C413.83,217.6094 437.59,229.5294 460.91,241.2294 " fill="none" id="INICIO-to-CONFIGURACIÓN" style="stroke:#181818;stroke-width:1.0;"/><polygon fill="#181818" points="465.56,243.5694,459.3087,235.9588,461.0907,241.3276,455.7219,243.1096,465.56,243.5694" style="stroke:#181818;stroke-width:1.0;"/></g><!--MD5=[0b6bd3b75ec5b2cd13b71c92fb5bba52]
reverse link INICIO to CONFIGURACIÓN--><g id="link_INICIO_CONFIGURACIÓN"><path d="M86.51,239.7194 C105.82,218.7594 130.83,191.6094 130.83,191.6094 C130.83,191.6094 402.17,191.6094 402.17,191.6094 C402.17,191.6094 446.14,222.2494 476.72,243.5494 " fill="none" id="INICIO-backto-CONFIGURACIÓN" style="stroke:#181818;stroke-width:1.0;"/><polygon fill="#181818" points="82.98,243.5494,92.0218,239.6449,86.3696,239.8737,86.1408,234.2215,82.98,243.5494" style="stroke:#181818;stroke-width:1.0;"/></g><!--MD5=[cca3090e76786349203404ad2fa77f79]
link INICIO to EXPLORAR_SERVICIOS--><g id="link_INICIO_EXPLORAR_SERVICIOS"><path d="M88.32,243.5694 C103.05,231.1694 119.17,217.6094 119.17,217.6094 C119.17,217.6094 213.83,217.6094 213.83,217.6094 C213.83,217.6094 243.25,229.7294 271.89,241.5294 " fill="none" id="INICIO-to-EXPLORAR_SERVICIOS" style="stroke:#181818;stroke-width:1.0;"/><polygon fill="#181818" points="276.85,243.5694,270.0432,236.4513,272.2245,241.6707,267.0052,243.852,276.85,243.5694" style="stroke:#181818;stroke-width:1.0;"/></g><!--MD5=[847b408c021b00de83bcc586619bdd73]
reverse link INICIO to EXPLORAR_SERVICIOS--><g id="link_INICIO_EXPLORAR_SERVICIOS"><path d="M86.51,239.7194 C105.82,218.7594 130.83,191.6094 130.83,191.6094 C130.83,191.6094 202.17,191.6094 202.17,191.6094 C202.17,191.6094 254.65,222.2494 291.14,243.5494 " fill="none" id="INICIO-backto-EXPLORAR_SERVICIOS" style="stroke:#181818;stroke-width:1.0;"/><polygon fill="#181818" points="82.98,243.5494,92.0218,239.6449,86.3696,239.8737,86.1408,234.2215,82.98,243.5494" style="stroke:#181818;stroke-width:1.0;"/></g><!--MD5=[0023349e8bcb5c519201d7e61fde61b3]
link INICIO to SERVICIOS--><g id="link_INICIO_SERVICIOS"><path d="M89.57,278.3594 C94.66,281.3494 98.5,283.6094 98.5,283.6094 C98.5,283.6094 110.2,283.6094 119.88,283.6094 " fill="none" id="INICIO-to-SERVICIOS" style="stroke:#181818;stroke-width:1.0;"/><polygon fill="#181818" points="124.95,283.6094,115.95,279.6094,119.95,283.6094,115.95,287.6094,124.95,283.6094" style="stroke:#181818;stroke-width:1.0;"/></g><!--MD5=[6edecfe94a264b0d01984fbd5538cd5d]
reverse link INICIO to SERVICIOS--><g id="link_INICIO_SERVICIOS"><path d="M93.9,246.3194 C96.69,244.6794 98.5,243.6094 98.5,243.6094 C98.5,243.6094 114.94,243.6094 124.95,243.6094 " fill="none" id="INICIO-backto-SERVICIOS" style="stroke:#181818;stroke-width:1.0;"/><polygon fill="#181818" points="89.57,248.8594,99.3573,247.7595,93.8837,246.3311,95.3121,240.8576,89.57,248.8594" style="stroke:#181818;stroke-width:1.0;"/></g><!--MD5=[0876ba8a88d8bbcf732e506fae106d5c]
link INICIO to *end--><g id="link_INICIO_*end"><path d="M89.7,278.0094 C126.47,297.5594 190.5,331.6094 190.5,331.6094 C190.5,331.6094 491.88,361.8994 563.41,369.0894 " fill="none" id="INICIO-to-*end" style="stroke:#181818;stroke-width:1.0;"/><polygon fill="#181818" points="568.52,369.6094,559.9655,364.7288,563.5451,369.109,559.1649,372.6887,568.52,369.6094" style="stroke:#181818;stroke-width:1.0;"/><text fill="#000000" font-family="sans-serif" font-size="13" lengthAdjust="spacing" textLength="79" x="191.5" y="328.1045">Cerrar Sesión</text></g><!--MD5=[bcf48f0dad38cb54a9a5c91127a57132]
link SERVICIOS to *end--><g id="link_SERVICIOS_*end"><path d="M208.04,282.5594 C253.95,302.4094 321.5,331.6094 321.5,331.6094 C321.5,331.6094 508.71,360.0194 563.57,368.3394 " fill="none" id="SERVICIOS-to-*end" style="stroke:#181818;stroke-width:1.0;"/><polygon fill="#181818" points="568.74,369.1294,560.4494,363.8128,563.7976,368.3723,559.2381,371.7205,568.74,369.1294" style="stroke:#181818;stroke-width:1.0;"/><text fill="#000000" font-family="sans-serif" font-size="13" lengthAdjust="spacing" textLength="79" x="322.5" y="328.1045">Cerrar Sesión</text></g><!--MD5=[68cf946387aa7a9d6ab5098896bcd071]
link GESTIÓN_EGRESADOS to *end--><g id="link_GESTIÓN_EGRESADOS_*end"><path d="M1169.8,283.6294 C1098.25,303.4394 996.5,331.6094 996.5,331.6094 C996.5,331.6094 669.01,362.1694 593.78,369.1794 " fill="none" id="GESTIÓN_EGRESADOS-to-*end" style="stroke:#181818;stroke-width:1.0;"/><polygon fill="#181818" points="588.42,369.6794,597.7485,372.8385,593.399,369.2215,597.0159,364.8721,588.42,369.6794" style="stroke:#181818;stroke-width:1.0;"/><text fill="#000000" font-family="sans-serif" font-size="13" lengthAdjust="spacing" textLength="79" x="1061.5" y="328.1045">Cerrar Sesión</text></g><!--MD5=[0cb71d928789617a6509f6e93c713ea4]
link ADMINISTRADORES to *end--><g id="link_ADMINISTRADORES_*end"><path d="M994.43,283.6294 C937.07,303.4394 855.5,331.6094 855.5,331.6094 C855.5,331.6094 651.1,360.3894 593.47,368.4994 " fill="none" id="ADMINISTRADORES-to-*end" style="stroke:#181818;stroke-width:1.0;"/><polygon fill="#181818" points="588.36,369.2194,597.8232,371.9484,593.3128,368.5343,596.727,364.0239,588.36,369.2194" style="stroke:#181818;stroke-width:1.0;"/><text fill="#000000" font-family="sans-serif" font-size="13" lengthAdjust="spacing" textLength="79" x="908.5" y="328.1045">Cerrar Sesión</text></g><!--MD5=[2179718e8c368688269990cc05e2538b]
link GESTIÓN_SERVICIOS to *end--><g id="link_GESTIÓN_SERVICIOS_*end"><path d="M828.32,283.6294 C787.53,303.4394 729.5,331.6094 729.5,331.6094 C729.5,331.6094 630.94,357.0694 593.07,366.8494 " fill="none" id="GESTIÓN_SERVICIOS-to-*end" style="stroke:#181818;stroke-width:1.0;"/><polygon fill="#181818" points="587.95,368.1694,597.663,369.7997,592.7922,366.923,595.6688,362.0522,587.95,368.1694" style="stroke:#181818;stroke-width:1.0;"/><text fill="#000000" font-family="sans-serif" font-size="13" lengthAdjust="spacing" textLength="79" x="767.5" y="328.1045">Cerrar Sesión</text></g><!--MD5=[ebe559387794da29d51c1506eb8107be]
link GESTIÓN_PAQUETES to *end--><g id="link_GESTIÓN_PAQUETES_*end"><path d="M664.45,283.6294 C648.78,303.4394 626.5,331.6094 626.5,331.6094 C626.5,331.6094 604.33,349.6294 590.12,361.1694 " fill="none" id="GESTIÓN_PAQUETES-to-*end" style="stroke:#181818;stroke-width:1.0;"/><polygon fill="#181818" points="586,364.5194,595.5085,361.9525,589.8819,361.368,590.4663,355.7414,586,364.5194" style="stroke:#181818;stroke-width:1.0;"/><text fill="#000000" font-family="sans-serif" font-size="13" lengthAdjust="spacing" textLength="79" x="641.5" y="328.1045">Cerrar Sesión</text></g><!--MD5=[f281b6c48a71b2adc9bcfe8dff9d1342]
link CONFIGURACIÓN to *end--><g id="link_CONFIGURACIÓN_*end"><path d="M515.72,283.6294 C526.36,303.4394 541.5,331.6094 541.5,331.6094 C541.5,331.6094 557.61,348.5894 568.57,360.1394 " fill="none" id="CONFIGURACIÓN-to-*end" style="stroke:#181818;stroke-width:1.0;"/><polygon fill="#181818" points="572.06,363.8194,568.767,354.5373,568.6185,360.1922,562.9636,360.0437,572.06,363.8194" style="stroke:#181818;stroke-width:1.0;"/><text fill="#000000" font-family="sans-serif" font-size="13" lengthAdjust="spacing" textLength="79" x="542.5" y="328.1045">Cerrar Sesión</text></g><!--MD5=[c6e8d97373a6e0272a3c575f2d7d2fa1]
link EXPLORAR_SERVICIOS to *end--><g id="link_EXPLORAR_SERVICIOS_*end"><path d="M358.71,283.6294 C393.3,303.4394 442.5,331.6094 442.5,331.6094 C442.5,331.6094 528.93,356.3994 563.99,366.4494 " fill="none" id="EXPLORAR_SERVICIOS-to-*end" style="stroke:#181818;stroke-width:1.0;"/><polygon fill="#181818" points="569.15,367.9294,561.6126,361.59,564.3462,366.5426,559.3937,369.2762,569.15,367.9294" style="stroke:#181818;stroke-width:1.0;"/><text fill="#000000" font-family="sans-serif" font-size="13" lengthAdjust="spacing" textLength="79" x="443.5" y="328.1045">Cerrar Sesión</text></g><!--MD5=[bda4c65367633899a3fd47f48b7c4a90]
@startuml Contexto
title Contexto Administrador

skinparam {
    NoteBackgroundColor #whiteSmoke
    NoteBorderColor #green
    linetype polyline
}

hide empty description

[*] - -> INICIAR_SESIÓN
INICIAR_SESIÓN - -> INICIO : Iniciar Sesión

INICIO -> GESTIÓN_EGRESADOS
INICIO <- GESTIÓN_EGRESADOS
INICIO -> ADMINISTRADORES
INICIO <- ADMINISTRADORES
INICIO -> GESTIÓN_SERVICIOS
INICIO <- GESTIÓN_SERVICIOS
INICIO -> GESTIÓN_PAQUETES
INICIO <- GESTIÓN_PAQUETES
INICIO -> CONFIGURACIÓN
INICIO <- CONFIGURACIÓN
INICIO -> EXPLORAR_SERVICIOS
INICIO <- EXPLORAR_SERVICIOS
INICIO -> SERVICIOS
INICIO <- SERVICIOS

INICIO - -> [*] : Cerrar Sesión
SERVICIOS - -> [*] : Cerrar Sesión
GESTIÓN_EGRESADOS - -> [*] : Cerrar Sesión
ADMINISTRADORES - -> [*] : Cerrar Sesión
GESTIÓN_SERVICIOS - -> [*] : Cerrar Sesión
GESTIÓN_PAQUETES - -> [*] : Cerrar Sesión
CONFIGURACIÓN - -> [*] : Cerrar Sesión
EXPLORAR_SERVICIOS - -> [*] : Cerrar Sesión


@enduml

PlantUML version 1.2022.7(Mon Aug 22 19:01:30 CEST 2022)
(GPL source distribution)
Java Runtime: OpenJDK Runtime Environment
JVM: OpenJDK 64-Bit Server VM
Default Encoding: Cp1252
Language: es
Country: ES
--></g></svg>