<?xml version="1.0" encoding="UTF-8" standalone="no"?><svg xmlns="http://www.w3.org/2000/svg" xmlns:xlink="http://www.w3.org/1999/xlink" contentStyleType="text/css" height="387px" preserveAspectRatio="none" style="width:1146px;height:387px;background:#FFFFFF;" version="1.1" viewBox="0 0 1146 387" width="1146px" zoomAndPan="magnify"><defs/><g><rect fill="none" height="27.6094" id="_title" style="stroke:none;stroke-width:1.0;" width="176" x="478" y="5"/><text fill="#000000" font-family="sans-serif" font-size="14" font-weight="bold" lengthAdjust="spacing" textLength="166" x="483" y="24.5332">Contexto Administrador</text><ellipse cx="64.5" cy="54.6094" fill="#222222" rx="10" ry="10" style="stroke:none;stroke-width:1.0;"/><rect fill="#F1F1F1" height="40" rx="12.5" ry="12.5" style="stroke:#181818;stroke-width:0.5;" width="115" x="7" y="125.6094"/><text fill="#000000" font-family="sans-serif" font-size="14" lengthAdjust="spacing" textLength="105" x="12" y="151.3379">INICIAR_SESIÓN</text><rect fill="#F1F1F1" height="40" rx="12.5" ry="12.5" style="stroke:#181818;stroke-width:0.5;" width="50" x="39.5" y="243.6094"/><text fill="#000000" font-family="sans-serif" font-size="14" lengthAdjust="spacing" textLength="39" x="45" y="269.3379">INICIO</text><rect fill="#F1F1F1" height="40" rx="12.5" ry="12.5" style="stroke:#181818;stroke-width:0.5;" width="153" x="125" y="243.6094"/><text fill="#000000" font-family="sans-serif" font-size="14" lengthAdjust="spacing" textLength="143" x="130" y="269.3379">GESTIÓN_PAQUETES</text><rect fill="#F1F1F1" height="40" rx="12.5" ry="12.5" style="stroke:#181818;stroke-width:0.5;" width="131" x="1009" y="243.6094"/><text fill="#000000" font-family="sans-serif" font-size="14" lengthAdjust="spacing" textLength="121" x="1014" y="269.3379">CREAR_PAQUETE</text><rect fill="#F1F1F1" height="40" rx="12.5" ry="12.5" style="stroke:#181818;stroke-width:0.5;" width="133" x="841" y="243.6094"/><text fill="#000000" font-family="sans-serif" font-size="14" lengthAdjust="spacing" textLength="123" x="846" y="269.3379">EDITAR_PAQUETE</text><rect fill="#F1F1F1" height="40" rx="12.5" ry="12.5" style="stroke:#181818;stroke-width:0.5;" width="145" x="661" y="243.6094"/><text fill="#000000" font-family="sans-serif" font-size="14" lengthAdjust="spacing" textLength="135" x="666" y="269.3379">ELIMINAR_PAQUETE</text><rect fill="#F1F1F1" height="40" rx="12.5" ry="12.5" style="stroke:#181818;stroke-width:0.5;" width="131" x="495" y="243.6094"/><text fill="#000000" font-family="sans-serif" font-size="14" lengthAdjust="spacing" textLength="121" x="500" y="269.3379">LISTAR_PAQUETE</text><rect fill="#F1F1F1" height="40" rx="12.5" ry="12.5" style="stroke:#181818;stroke-width:0.5;" width="147" x="313" y="243.6094"/><text fill="#000000" font-family="sans-serif" font-size="14" lengthAdjust="spacing" textLength="137" x="318" y="269.3379">REALIZAR_PETICIÓN</text><ellipse cx="132.5" cy="371.6094" fill="none" rx="10" ry="10" style="stroke:#222222;stroke-width:1.0;"/><ellipse cx="133" cy="372.1094" fill="#222222" rx="6" ry="6" style="stroke:none;stroke-width:1.0;"/><!--MD5=[fffa5c9a6c2a3d9bbcf62492fefaaec1]
link *start to INICIAR_SESIÓN--><g id="link_*start_INICIAR_SESIÓN"><path d="M64.5,64.7994 C64.5,77.7894 64.5,101.9894 64.5,120.3394 " fill="none" id="*start-to-INICIAR_SESIÓN" style="stroke:#181818;stroke-width:1.0;"/><polygon fill="#181818" points="64.5,125.3494,68.5,116.3494,64.5,120.3494,60.5,116.3494,64.5,125.3494" style="stroke:#181818;stroke-width:1.0;"/></g><!--MD5=[66837f7cee128dc6ca7363ed13e0752f]
link INICIAR_SESIÓN to INICIO--><g id="link_INICIAR_SESIÓN_INICIO"><path d="M64.5,165.7694 C64.5,185.5794 64.5,216.5894 64.5,238.1594 " fill="none" id="INICIAR_SESIÓN-to-INICIO" style="stroke:#181818;stroke-width:1.0;"/><polygon fill="#181818" points="64.5,243.4294,68.5,234.4294,64.5,238.4294,60.5,234.4294,64.5,243.4294" style="stroke:#181818;stroke-width:1.0;"/><text fill="#000000" font-family="sans-serif" font-size="13" lengthAdjust="spacing" textLength="78" x="65.5" y="210.1045">Iniciar Sesión</text></g><!--MD5=[544181461a6ae2dedaf9572119c7d9e6]
link INICIO to GESTIÓN_PAQUETES--><g id="link_INICIO_GESTIÓN_PAQUETES"><path d="M89.74,274.6594 C100.3,279.2894 110.17,283.6094 110.17,283.6094 C110.17,283.6094 114.17,283.6094 119.8,283.6094 " fill="none" id="INICIO-to-GESTIÓN_PAQUETES" style="stroke:#181818;stroke-width:1.0;"/><polygon fill="#181818" points="124.87,283.6094,115.87,279.6094,119.87,283.6094,115.87,287.6094,124.87,283.6094" style="stroke:#181818;stroke-width:1.0;"/></g><!--MD5=[3f0810a6510995f05b80500b04f71fb2]
reverse link INICIO to GESTIÓN_PAQUETES--><g id="link_INICIO_GESTIÓN_PAQUETES"><path d="M94.6,250.4294 C103.14,246.6894 110.17,243.6094 110.17,243.6094 C110.17,243.6094 116.72,243.6094 124.87,243.6094 " fill="none" id="INICIO-backto-GESTIÓN_PAQUETES" style="stroke:#181818;stroke-width:1.0;"/><polygon fill="#181818" points="89.74,252.5594,99.5887,252.6166,94.3208,250.5553,96.3821,245.2874,89.74,252.5594" style="stroke:#181818;stroke-width:1.0;"/></g><!--MD5=[a983a3c5125ce085c4368c4c4475c0ac]
link GESTIÓN_PAQUETES to CREAR_PAQUETE--><g id="link_GESTIÓN_PAQUETES_CREAR_PAQUETE"><path d="M247.54,243.5694 C276.01,231.1694 307.17,217.6094 307.17,217.6094 C307.17,217.6094 979.83,217.6094 979.83,217.6094 C979.83,217.6094 1004.57,229.6294 1028.75,241.3794 " fill="none" id="GESTIÓN_PAQUETES-to-CREAR_PAQUETE" style="stroke:#181818;stroke-width:1.0;"/><polygon fill="#181818" points="1033.25,243.5694,1026.902,236.0392,1028.7525,241.3849,1023.4068,243.2353,1033.25,243.5694" style="stroke:#181818;stroke-width:1.0;"/></g><!--MD5=[623b2f763758d4282581ac2532080c7d]
reverse link GESTIÓN_PAQUETES to CREAR_PAQUETE--><g id="link_GESTIÓN_PAQUETES_CREAR_PAQUETE"><path d="M238.74,240.7594 C273.1,219.6694 318.83,191.6094 318.83,191.6094 C318.83,191.6094 968.17,191.6094 968.17,191.6094 C968.17,191.6094 1013.42,222.2494 1044.88,243.5494 " fill="none" id="GESTIÓN_PAQUETES-backto-CREAR_PAQUETE" style="stroke:#181818;stroke-width:1.0;"/><polygon fill="#181818" points="234.18,243.5494,243.9425,242.2483,238.4407,240.9329,239.7561,235.4311,234.18,243.5494" style="stroke:#181818;stroke-width:1.0;"/></g><!--MD5=[061f406ceb66d7ec58248c0efb2d5afb]
link GESTIÓN_PAQUETES to EDITAR_PAQUETE--><g id="link_GESTIÓN_PAQUETES_EDITAR_PAQUETE"><path d="M247.54,243.5694 C276.01,231.1694 307.17,217.6094 307.17,217.6094 C307.17,217.6094 811.83,217.6094 811.83,217.6094 C811.83,217.6094 836.83,229.6294 861.27,241.3794 " fill="none" id="GESTIÓN_PAQUETES-to-EDITAR_PAQUETE" style="stroke:#181818;stroke-width:1.0;"/><polygon fill="#181818" points="865.82,243.5694,859.4434,236.0635,861.3142,241.402,855.9756,243.2728,865.82,243.5694" style="stroke:#181818;stroke-width:1.0;"/></g><!--MD5=[66a9e0e938822aa33240c5320d8c9883]
reverse link GESTIÓN_PAQUETES to EDITAR_PAQUETE--><g id="link_GESTIÓN_PAQUETES_EDITAR_PAQUETE"><path d="M238.74,240.7594 C273.1,219.6694 318.83,191.6094 318.83,191.6094 C318.83,191.6094 800.17,191.6094 800.17,191.6094 C800.17,191.6094 845.84,222.2494 877.6,243.5494 " fill="none" id="GESTIÓN_PAQUETES-backto-EDITAR_PAQUETE" style="stroke:#181818;stroke-width:1.0;"/><polygon fill="#181818" points="234.18,243.5494,243.9425,242.2483,238.4407,240.9329,239.7561,235.4311,234.18,243.5494" style="stroke:#181818;stroke-width:1.0;"/></g><!--MD5=[2bed159a093bb4fc308c5c44fcdf892d]
link GESTIÓN_PAQUETES to ELIMINAR_PAQUETE--><g id="link_GESTIÓN_PAQUETES_ELIMINAR_PAQUETE"><path d="M247.54,243.5694 C276.01,231.1694 307.17,217.6094 307.17,217.6094 C307.17,217.6094 631.83,217.6094 631.83,217.6094 C631.83,217.6094 658.4,229.6294 684.37,241.3794 " fill="none" id="GESTIÓN_PAQUETES-to-ELIMINAR_PAQUETE" style="stroke:#181818;stroke-width:1.0;"/><polygon fill="#181818" points="689.2,243.5694,682.6428,236.2207,684.6428,241.5122,679.3513,243.5122,689.2,243.5694" style="stroke:#181818;stroke-width:1.0;"/></g><!--MD5=[3780cf926667bb456372de6f9da2a9c7]
reverse link GESTIÓN_PAQUETES to ELIMINAR_PAQUETE--><g id="link_GESTIÓN_PAQUETES_ELIMINAR_PAQUETE"><path d="M238.74,240.7594 C273.1,219.6694 318.83,191.6094 318.83,191.6094 C318.83,191.6094 620.17,191.6094 620.17,191.6094 C620.17,191.6094 668.4,222.2494 701.93,243.5494 " fill="none" id="GESTIÓN_PAQUETES-backto-ELIMINAR_PAQUETE" style="stroke:#181818;stroke-width:1.0;"/><polygon fill="#181818" points="234.18,243.5494,243.9425,242.2483,238.4407,240.9329,239.7561,235.4311,234.18,243.5494" style="stroke:#181818;stroke-width:1.0;"/></g><!--MD5=[e1e51404e25c9ffb7639cdebf011f0e1]
link GESTIÓN_PAQUETES to LISTAR_PAQUETE--><g id="link_GESTIÓN_PAQUETES_LISTAR_PAQUETE"><path d="M247.54,243.5694 C276.01,231.1694 307.17,217.6094 307.17,217.6094 C307.17,217.6094 465.83,217.6094 465.83,217.6094 C465.83,217.6094 490.57,229.6294 514.75,241.3794 " fill="none" id="GESTIÓN_PAQUETES-to-LISTAR_PAQUETE" style="stroke:#181818;stroke-width:1.0;"/><polygon fill="#181818" points="519.25,243.5694,512.902,236.0392,514.7525,241.3849,509.4068,243.2353,519.25,243.5694" style="stroke:#181818;stroke-width:1.0;"/></g><!--MD5=[3734b6ca09f2d5787150db4d00843752]
reverse link GESTIÓN_PAQUETES to LISTAR_PAQUETE--><g id="link_GESTIÓN_PAQUETES_LISTAR_PAQUETE"><path d="M238.74,240.7594 C273.1,219.6694 318.83,191.6094 318.83,191.6094 C318.83,191.6094 454.17,191.6094 454.17,191.6094 C454.17,191.6094 499.42,222.2494 530.88,243.5494 " fill="none" id="GESTIÓN_PAQUETES-backto-LISTAR_PAQUETE" style="stroke:#181818;stroke-width:1.0;"/><polygon fill="#181818" points="234.18,243.5494,243.9425,242.2483,238.4407,240.9329,239.7561,235.4311,234.18,243.5494" style="stroke:#181818;stroke-width:1.0;"/></g><!--MD5=[84298db0ad1762dcefc94b8250dbe291]
link GESTIÓN_PAQUETES to REALIZAR_PETICIÓN--><g id="link_GESTIÓN_PAQUETES_REALIZAR_PETICIÓN"><path d="M278.09,283.6094 C287.03,283.6094 298.43,283.6094 307.73,283.6094 " fill="none" id="GESTIÓN_PAQUETES-to-REALIZAR_PETICIÓN" style="stroke:#181818;stroke-width:1.0;"/><polygon fill="#181818" points="312.93,283.6094,303.93,279.6094,307.93,283.6094,303.93,287.6094,312.93,283.6094" style="stroke:#181818;stroke-width:1.0;"/></g><!--MD5=[37cbcfecbfdee0ee82092a786f536dcc]
reverse link GESTIÓN_PAQUETES to REALIZAR_PETICIÓN--><g id="link_GESTIÓN_PAQUETES_REALIZAR_PETICIÓN"><path d="M283.33,243.6094 C293.12,243.6094 304.55,243.6094 312.93,243.6094 " fill="none" id="GESTIÓN_PAQUETES-backto-REALIZAR_PETICIÓN" style="stroke:#181818;stroke-width:1.0;"/><polygon fill="#181818" points="278.09,243.6094,287.09,247.6094,283.09,243.6094,287.09,239.6094,278.09,243.6094" style="stroke:#181818;stroke-width:1.0;"/></g><!--MD5=[0876ba8a88d8bbcf732e506fae106d5c]
link INICIO to *end--><g id="link_INICIO_*end"><path d="M67.05,283.6294 C69.72,303.4394 73.5,331.6094 73.5,331.6094 C73.5,331.6094 102.4,350.7094 119.74,362.1794 " fill="none" id="INICIO-to-*end" style="stroke:#181818;stroke-width:1.0;"/><polygon fill="#181818" points="124.3,365.1894,118.9974,356.8898,120.1288,362.4324,114.5862,363.5637,124.3,365.1894" style="stroke:#181818;stroke-width:1.0;"/><text fill="#000000" font-family="sans-serif" font-size="13" lengthAdjust="spacing" textLength="79" x="74.5" y="328.1045">Cerrar Sesión</text></g><!--MD5=[ebe559387794da29d51c1506eb8107be]
link GESTIÓN_PAQUETES to *end--><g id="link_GESTIÓN_PAQUETES_*end"><path d="M189.29,283.6294 C176.58,303.4394 158.5,331.6094 158.5,331.6094 C158.5,331.6094 148.26,346.9694 140.63,358.4094 " fill="none" id="GESTIÓN_PAQUETES-to-*end" style="stroke:#181818;stroke-width:1.0;"/><polygon fill="#181818" points="137.76,362.7194,146.0805,357.4497,140.5335,358.5591,139.4241,353.0121,137.76,362.7194" style="stroke:#181818;stroke-width:1.0;"/><text fill="#000000" font-family="sans-serif" font-size="13" lengthAdjust="spacing" textLength="79" x="171.5" y="328.1045">Cerrar Sesión</text></g><!--MD5=[8f89f8f712cc3abd439ac516fb96b896]
@startuml Contexto
title Contexto Administrador

skinparam {
    NoteBackgroundColor #whiteSmoke
    NoteBorderColor #green
    linetype polyline
}

hide empty description

[*] - -> INICIAR_SESIÓN
INICIAR_SESIÓN - -> INICIO : Iniciar Sesión

INICIO -> GESTIÓN_PAQUETES
INICIO <- GESTIÓN_PAQUETES

GESTIÓN_PAQUETES -> CREAR_PAQUETE
GESTIÓN_PAQUETES <- CREAR_PAQUETE
GESTIÓN_PAQUETES -> EDITAR_PAQUETE
GESTIÓN_PAQUETES <- EDITAR_PAQUETE
GESTIÓN_PAQUETES -> ELIMINAR_PAQUETE
GESTIÓN_PAQUETES <- ELIMINAR_PAQUETE
GESTIÓN_PAQUETES -> LISTAR_PAQUETE
GESTIÓN_PAQUETES <- LISTAR_PAQUETE
GESTIÓN_PAQUETES -> REALIZAR_PETICIÓN
GESTIÓN_PAQUETES <- REALIZAR_PETICIÓN

INICIO - -> [*] : Cerrar Sesión
GESTIÓN_PAQUETES - -> [*] : Cerrar Sesión


@enduml

PlantUML version 1.2022.7(Mon Aug 22 19:01:30 CEST 2022)
(GPL source distribution)
Java Runtime: OpenJDK Runtime Environment
JVM: OpenJDK 64-Bit Server VM
Default Encoding: Cp1252
Language: es
Country: ES
--></g></svg>