<?xml version="1.0" encoding="UTF-8" standalone="no"?><svg xmlns="http://www.w3.org/2000/svg" xmlns:xlink="http://www.w3.org/1999/xlink" contentStyleType="text/css" height="756px" preserveAspectRatio="none" style="width:1501px;height:756px;background:#FFFFFF;" version="1.1" viewBox="0 0 1501 756" width="1501px" zoomAndPan="magnify"><defs/><g><!--MD5=[86a46607765088d6bc16607347922e0b]
class ALUMNI--><g id="elem_ALUMNI"><rect codeLine="6" fill="#F1F1F1" height="64.0986" id="ALUMNI" rx="2.5" ry="2.5" style="stroke:#181818;stroke-width:0.5;" width="81" x="1042" y="7"/><ellipse cx="1057" cy="23" fill="#ADD1B2" rx="11" ry="11" style="stroke:#181818;stroke-width:1.0;"/><path d="M1059.7656,18.875 Q1059.9219,18.6563 1060.1094,18.5469 Q1060.2969,18.4375 1060.5156,18.4375 Q1060.8906,18.4375 1061.125,18.7031 Q1061.3594,18.9531 1061.3594,19.5625 L1061.3594,21.0156 Q1061.3594,21.625 1061.125,21.8906 Q1060.8906,22.1563 1060.5156,22.1563 Q1060.1719,22.1563 1059.9688,21.9531 Q1059.7656,21.7656 1059.6563,21.25 Q1059.6094,20.8906 1059.4219,20.7031 Q1059.0938,20.3281 1058.4844,20.1094 Q1057.875,19.8906 1057.25,19.8906 Q1056.4844,19.8906 1055.8438,20.2188 Q1055.2188,20.5469 1054.7188,21.2969 Q1054.2344,22.0469 1054.2344,23.0781 L1054.2344,24.1719 Q1054.2344,25.4063 1055.125,26.2344 Q1056.0156,27.0469 1057.6094,27.0469 Q1058.5469,27.0469 1059.2031,26.7969 Q1059.5938,26.6406 1060.0156,26.2031 Q1060.2813,25.9375 1060.4219,25.8594 Q1060.5781,25.7813 1060.7813,25.7813 Q1061.1094,25.7813 1061.3594,26.0469 Q1061.625,26.2969 1061.625,26.6406 Q1061.625,26.9844 1061.2813,27.3906 Q1060.7813,27.9688 1059.9844,28.2969 Q1058.9063,28.75 1057.6094,28.75 Q1056.0938,28.75 1054.8906,28.125 Q1053.9063,27.625 1053.2188,26.5625 Q1052.5313,25.4844 1052.5313,24.2031 L1052.5313,23.0469 Q1052.5313,21.7188 1053.1406,20.5781 Q1053.7656,19.4219 1054.8594,18.8125 Q1055.9531,18.1875 1057.1875,18.1875 Q1057.9219,18.1875 1058.5625,18.3594 Q1059.2188,18.5156 1059.7656,18.875 Z " fill="#000000"/><text fill="#000000" font-family="Arial" font-size="14" lengthAdjust="spacing" textLength="49" x="1071" y="28.0825">ALUMNI</text><line style="stroke:#181818;stroke-width:0.5;" x1="1043" x2="1122" y1="39" y2="39"/><text fill="#000000" font-family="Arial" font-size="14" lengthAdjust="spacing" textLength="67" x="1048" y="56.1318">plataforma</text><line style="stroke:#181818;stroke-width:0.5;" x1="1043" x2="1122" y1="63.0986" y2="63.0986"/></g><!--MD5=[d487106a069dbf8887c3866d5775fb0b]
class SERVICIO EXTERNO--><g id="elem_SERVICIO EXTERNO"><rect codeLine="11" fill="#F1F1F1" height="48" id="SERVICIO EXTERNO" rx="2.5" ry="2.5" style="stroke:#181818;stroke-width:0.5;" width="165" x="1234" y="15"/><ellipse cx="1249" cy="31" fill="#ADD1B2" rx="11" ry="11" style="stroke:#181818;stroke-width:1.0;"/><path d="M1251.7656,26.875 Q1251.9219,26.6563 1252.1094,26.5469 Q1252.2969,26.4375 1252.5156,26.4375 Q1252.8906,26.4375 1253.125,26.7031 Q1253.3594,26.9531 1253.3594,27.5625 L1253.3594,29.0156 Q1253.3594,29.625 1253.125,29.8906 Q1252.8906,30.1563 1252.5156,30.1563 Q1252.1719,30.1563 1251.9688,29.9531 Q1251.7656,29.7656 1251.6563,29.25 Q1251.6094,28.8906 1251.4219,28.7031 Q1251.0938,28.3281 1250.4844,28.1094 Q1249.875,27.8906 1249.25,27.8906 Q1248.4844,27.8906 1247.8438,28.2188 Q1247.2188,28.5469 1246.7188,29.2969 Q1246.2344,30.0469 1246.2344,31.0781 L1246.2344,32.1719 Q1246.2344,33.4063 1247.125,34.2344 Q1248.0156,35.0469 1249.6094,35.0469 Q1250.5469,35.0469 1251.2031,34.7969 Q1251.5938,34.6406 1252.0156,34.2031 Q1252.2813,33.9375 1252.4219,33.8594 Q1252.5781,33.7813 1252.7813,33.7813 Q1253.1094,33.7813 1253.3594,34.0469 Q1253.625,34.2969 1253.625,34.6406 Q1253.625,34.9844 1253.2813,35.3906 Q1252.7813,35.9688 1251.9844,36.2969 Q1250.9063,36.75 1249.6094,36.75 Q1248.0938,36.75 1246.8906,36.125 Q1245.9063,35.625 1245.2188,34.5625 Q1244.5313,33.4844 1244.5313,32.2031 L1244.5313,31.0469 Q1244.5313,29.7188 1245.1406,28.5781 Q1245.7656,27.4219 1246.8594,26.8125 Q1247.9531,26.1875 1249.1875,26.1875 Q1249.9219,26.1875 1250.5625,26.3594 Q1251.2188,26.5156 1251.7656,26.875 Z " fill="#000000"/><text fill="#000000" font-family="Arial" font-size="14" lengthAdjust="spacing" textLength="133" x="1263" y="36.0825">SERVICIO EXTERNO</text><line style="stroke:#181818;stroke-width:0.5;" x1="1235" x2="1398" y1="47" y2="47"/><line style="stroke:#181818;stroke-width:0.5;" x1="1235" x2="1398" y1="55" y2="55"/></g><!--MD5=[b644a1a23592027d84a02e04553a752a]
class UNIVERSIDAD--><g id="elem_UNIVERSIDAD"><rect codeLine="13" fill="#F1F1F1" height="48" id="UNIVERSIDAD" rx="2.5" ry="2.5" style="stroke:#181818;stroke-width:0.5;" width="122" x="809.5" y="15"/><ellipse cx="824.5" cy="31" fill="#ADD1B2" rx="11" ry="11" style="stroke:#181818;stroke-width:1.0;"/><path d="M827.2656,26.875 Q827.4219,26.6563 827.6094,26.5469 Q827.7969,26.4375 828.0156,26.4375 Q828.3906,26.4375 828.625,26.7031 Q828.8594,26.9531 828.8594,27.5625 L828.8594,29.0156 Q828.8594,29.625 828.625,29.8906 Q828.3906,30.1563 828.0156,30.1563 Q827.6719,30.1563 827.4688,29.9531 Q827.2656,29.7656 827.1563,29.25 Q827.1094,28.8906 826.9219,28.7031 Q826.5938,28.3281 825.9844,28.1094 Q825.375,27.8906 824.75,27.8906 Q823.9844,27.8906 823.3438,28.2188 Q822.7188,28.5469 822.2188,29.2969 Q821.7344,30.0469 821.7344,31.0781 L821.7344,32.1719 Q821.7344,33.4063 822.625,34.2344 Q823.5156,35.0469 825.1094,35.0469 Q826.0469,35.0469 826.7031,34.7969 Q827.0938,34.6406 827.5156,34.2031 Q827.7813,33.9375 827.9219,33.8594 Q828.0781,33.7813 828.2813,33.7813 Q828.6094,33.7813 828.8594,34.0469 Q829.125,34.2969 829.125,34.6406 Q829.125,34.9844 828.7813,35.3906 Q828.2813,35.9688 827.4844,36.2969 Q826.4063,36.75 825.1094,36.75 Q823.5938,36.75 822.3906,36.125 Q821.4063,35.625 820.7188,34.5625 Q820.0313,33.4844 820.0313,32.2031 L820.0313,31.0469 Q820.0313,29.7188 820.6406,28.5781 Q821.2656,27.4219 822.3594,26.8125 Q823.4531,26.1875 824.6875,26.1875 Q825.4219,26.1875 826.0625,26.3594 Q826.7188,26.5156 827.2656,26.875 Z " fill="#000000"/><text fill="#000000" font-family="Arial" font-size="14" lengthAdjust="spacing" textLength="90" x="838.5" y="36.0825">UNIVERSIDAD</text><line style="stroke:#181818;stroke-width:0.5;" x1="810.5" x2="930.5" y1="47" y2="47"/><line style="stroke:#181818;stroke-width:0.5;" x1="810.5" x2="930.5" y1="55" y2="55"/></g><!--MD5=[2ab7582ab6c49ef72aa094ce2439025d]
class EGRESADO--><g id="elem_EGRESADO"><rect codeLine="17" fill="#F1F1F1" height="176.7891" id="EGRESADO" rx="2.5" ry="2.5" style="stroke:#181818;stroke-width:0.5;" width="267" x="436" y="147"/><ellipse cx="526.25" cy="163" fill="#ADD1B2" rx="11" ry="11" style="stroke:#181818;stroke-width:1.0;"/><path d="M529.0156,158.875 Q529.1719,158.6563 529.3594,158.5469 Q529.5469,158.4375 529.7656,158.4375 Q530.1406,158.4375 530.375,158.7031 Q530.6094,158.9531 530.6094,159.5625 L530.6094,161.0156 Q530.6094,161.625 530.375,161.8906 Q530.1406,162.1563 529.7656,162.1563 Q529.4219,162.1563 529.2188,161.9531 Q529.0156,161.7656 528.9063,161.25 Q528.8594,160.8906 528.6719,160.7031 Q528.3438,160.3281 527.7344,160.1094 Q527.125,159.8906 526.5,159.8906 Q525.7344,159.8906 525.0938,160.2188 Q524.4688,160.5469 523.9688,161.2969 Q523.4844,162.0469 523.4844,163.0781 L523.4844,164.1719 Q523.4844,165.4063 524.375,166.2344 Q525.2656,167.0469 526.8594,167.0469 Q527.7969,167.0469 528.4531,166.7969 Q528.8438,166.6406 529.2656,166.2031 Q529.5313,165.9375 529.6719,165.8594 Q529.8281,165.7813 530.0313,165.7813 Q530.3594,165.7813 530.6094,166.0469 Q530.875,166.2969 530.875,166.6406 Q530.875,166.9844 530.5313,167.3906 Q530.0313,167.9688 529.2344,168.2969 Q528.1563,168.75 526.8594,168.75 Q525.3438,168.75 524.1406,168.125 Q523.1563,167.625 522.4688,166.5625 Q521.7813,165.4844 521.7813,164.2031 L521.7813,163.0469 Q521.7813,161.7188 522.3906,160.5781 Q523.0156,159.4219 524.1094,158.8125 Q525.2031,158.1875 526.4375,158.1875 Q527.1719,158.1875 527.8125,158.3594 Q528.4688,158.5156 529.0156,158.875 Z " fill="#000000"/><text fill="#000000" font-family="Arial" font-size="14" lengthAdjust="spacing" textLength="78" x="546.75" y="168.0825">EGRESADO</text><line style="stroke:#181818;stroke-width:0.5;" x1="437" x2="702" y1="179" y2="179"/><rect fill="none" height="6" style="stroke:#C82930;stroke-width:1.0;" width="6" x="444" y="189.5493"/><text fill="#000000" font-family="Arial" font-size="14" lengthAdjust="spacing" textLength="69" x="456" y="196.1318">ID: 000001</text><ellipse cx="447" cy="208.6479" fill="none" rx="3" ry="3" style="stroke:#038048;stroke-width:1.0;"/><text fill="#000000" font-family="Arial" font-size="14" lengthAdjust="spacing" textLength="94" x="456" y="212.2305">Nombre : Pepe</text><ellipse cx="447" cy="224.7466" fill="none" rx="3" ry="3" style="stroke:#038048;stroke-width:1.0;"/><text fill="#000000" font-family="Arial" font-size="14" lengthAdjust="spacing" textLength="131" x="456" y="228.3291">Apellido: San Vitores</text><rect fill="none" height="6" style="stroke:#C82930;stroke-width:1.0;" width="6" x="444" y="237.8452"/><text fill="#000000" font-family="Arial" font-size="14" lengthAdjust="spacing" textLength="203" x="456" y="244.4277">Fecha de Nacimiento 19-6-1999</text><rect fill="none" height="6" style="stroke:#C82930;stroke-width:1.0;" width="6" x="444" y="253.9438"/><text fill="#000000" font-family="Arial" font-size="14" lengthAdjust="spacing" textLength="241" x="456" y="260.5264">Email: pepe@alumnos.uneatlantico.es</text><rect fill="none" height="6" style="stroke:#C82930;stroke-width:1.0;" width="6" x="444" y="270.0425"/><text fill="#000000" font-family="Arial" font-size="14" lengthAdjust="spacing" textLength="134" x="456" y="276.625">ubicacion: Santander</text><ellipse cx="447" cy="289.1411" fill="none" rx="3" ry="3" style="stroke:#038048;stroke-width:1.0;"/><text fill="#000000" font-family="Arial" font-size="14" lengthAdjust="spacing" textLength="161" x="456" y="292.7236">Ocupación: desempleado</text><rect fill="none" height="6" style="stroke:#C82930;stroke-width:1.0;" width="6" x="444" y="302.2397"/><text fill="#000000" font-family="Arial" font-size="14" lengthAdjust="spacing" textLength="194" x="456" y="308.8223">Carnet de Estudiante:123456Z</text><line style="stroke:#181818;stroke-width:0.5;" x1="437" x2="702" y1="315.7891" y2="315.7891"/></g><!--MD5=[4c1736d2acf393d1932c4bd71ed8c52b]
class ADMINISTRADOR--><g id="elem_ADMINISTRADOR"><rect codeLine="29" fill="#F1F1F1" height="144.5918" id="ADMINISTRADOR" rx="2.5" ry="2.5" style="stroke:#181818;stroke-width:0.5;" width="229" x="968" y="163"/><ellipse cx="1021.75" cy="179" fill="#ADD1B2" rx="11" ry="11" style="stroke:#181818;stroke-width:1.0;"/><path d="M1024.5156,174.875 Q1024.6719,174.6563 1024.8594,174.5469 Q1025.0469,174.4375 1025.2656,174.4375 Q1025.6406,174.4375 1025.875,174.7031 Q1026.1094,174.9531 1026.1094,175.5625 L1026.1094,177.0156 Q1026.1094,177.625 1025.875,177.8906 Q1025.6406,178.1563 1025.2656,178.1563 Q1024.9219,178.1563 1024.7188,177.9531 Q1024.5156,177.7656 1024.4063,177.25 Q1024.3594,176.8906 1024.1719,176.7031 Q1023.8438,176.3281 1023.2344,176.1094 Q1022.625,175.8906 1022,175.8906 Q1021.2344,175.8906 1020.5938,176.2188 Q1019.9688,176.5469 1019.4688,177.2969 Q1018.9844,178.0469 1018.9844,179.0781 L1018.9844,180.1719 Q1018.9844,181.4063 1019.875,182.2344 Q1020.7656,183.0469 1022.3594,183.0469 Q1023.2969,183.0469 1023.9531,182.7969 Q1024.3438,182.6406 1024.7656,182.2031 Q1025.0313,181.9375 1025.1719,181.8594 Q1025.3281,181.7813 1025.5313,181.7813 Q1025.8594,181.7813 1026.1094,182.0469 Q1026.375,182.2969 1026.375,182.6406 Q1026.375,182.9844 1026.0313,183.3906 Q1025.5313,183.9688 1024.7344,184.2969 Q1023.6563,184.75 1022.3594,184.75 Q1020.8438,184.75 1019.6406,184.125 Q1018.6563,183.625 1017.9688,182.5625 Q1017.2813,181.4844 1017.2813,180.2031 L1017.2813,179.0469 Q1017.2813,177.7188 1017.8906,176.5781 Q1018.5156,175.4219 1019.6094,174.8125 Q1020.7031,174.1875 1021.9375,174.1875 Q1022.6719,174.1875 1023.3125,174.3594 Q1023.9688,174.5156 1024.5156,174.875 Z " fill="#000000"/><text fill="#000000" font-family="Arial" font-size="14" lengthAdjust="spacing" textLength="113" x="1042.25" y="184.0825">ADMINISTRADOR</text><line style="stroke:#181818;stroke-width:0.5;" x1="969" x2="1196" y1="195" y2="195"/><rect fill="none" height="6" style="stroke:#C82930;stroke-width:1.0;" width="6" x="976" y="205.5493"/><text fill="#000000" font-family="Arial" font-size="14" lengthAdjust="spacing" textLength="69" x="988" y="212.1318">ID: 000002</text><ellipse cx="979" cy="224.6479" fill="none" rx="3" ry="3" style="stroke:#038048;stroke-width:1.0;"/><text fill="#000000" font-family="Arial" font-size="14" lengthAdjust="spacing" textLength="102" x="988" y="228.2305">Nombre : Juanjo</text><ellipse cx="979" cy="240.7466" fill="none" rx="3" ry="3" style="stroke:#038048;stroke-width:1.0;"/><text fill="#000000" font-family="Arial" font-size="14" lengthAdjust="spacing" textLength="113" x="988" y="244.3291">Apellido: Gimenez</text><rect fill="none" height="6" style="stroke:#C82930;stroke-width:1.0;" width="6" x="976" y="253.8452"/><text fill="#000000" font-family="Arial" font-size="14" lengthAdjust="spacing" textLength="203" x="988" y="260.4277">Fecha de Nacimiento 19-6-1984</text><rect fill="none" height="6" style="stroke:#C82930;stroke-width:1.0;" width="6" x="976" y="269.9438"/><text fill="#000000" font-family="Arial" font-size="14" lengthAdjust="spacing" textLength="190" x="988" y="276.5264">Email: juanjo@uneatlantico.es</text><rect fill="none" height="6" style="stroke:#C82930;stroke-width:1.0;" width="6" x="976" y="286.0425"/><text fill="#000000" font-family="Arial" font-size="14" lengthAdjust="spacing" textLength="178" x="988" y="292.625">Zona de trabajo: Uneatlatico</text><line style="stroke:#181818;stroke-width:0.5;" x1="969" x2="1196" y1="299.5918" y2="299.5918"/></g><!--MD5=[a63780b95c376d0ca261608ab8f4ee8f]
class REQUISITO--><g id="elem_REQUISITO"><rect codeLine="39" fill="#F1F1F1" height="64.0986" id="REQUISITO" rx="2.5" ry="2.5" style="stroke:#181818;stroke-width:0.5;" width="151" x="782" y="203.5"/><ellipse cx="817.25" cy="219.5" fill="#ADD1B2" rx="11" ry="11" style="stroke:#181818;stroke-width:1.0;"/><path d="M820.0156,215.375 Q820.1719,215.1563 820.3594,215.0469 Q820.5469,214.9375 820.7656,214.9375 Q821.1406,214.9375 821.375,215.2031 Q821.6094,215.4531 821.6094,216.0625 L821.6094,217.5156 Q821.6094,218.125 821.375,218.3906 Q821.1406,218.6563 820.7656,218.6563 Q820.4219,218.6563 820.2188,218.4531 Q820.0156,218.2656 819.9063,217.75 Q819.8594,217.3906 819.6719,217.2031 Q819.3438,216.8281 818.7344,216.6094 Q818.125,216.3906 817.5,216.3906 Q816.7344,216.3906 816.0938,216.7188 Q815.4688,217.0469 814.9688,217.7969 Q814.4844,218.5469 814.4844,219.5781 L814.4844,220.6719 Q814.4844,221.9063 815.375,222.7344 Q816.2656,223.5469 817.8594,223.5469 Q818.7969,223.5469 819.4531,223.2969 Q819.8438,223.1406 820.2656,222.7031 Q820.5313,222.4375 820.6719,222.3594 Q820.8281,222.2813 821.0313,222.2813 Q821.3594,222.2813 821.6094,222.5469 Q821.875,222.7969 821.875,223.1406 Q821.875,223.4844 821.5313,223.8906 Q821.0313,224.4688 820.2344,224.7969 Q819.1563,225.25 817.8594,225.25 Q816.3438,225.25 815.1406,224.625 Q814.1563,224.125 813.4688,223.0625 Q812.7813,221.9844 812.7813,220.7031 L812.7813,219.5469 Q812.7813,218.2188 813.3906,217.0781 Q814.0156,215.9219 815.1094,215.3125 Q816.2031,214.6875 817.4375,214.6875 Q818.1719,214.6875 818.8125,214.8594 Q819.4688,215.0156 820.0156,215.375 Z " fill="#000000"/><text fill="#000000" font-family="Arial" font-size="14" lengthAdjust="spacing" textLength="74" x="835.75" y="224.5825">REQUISITO</text><line style="stroke:#181818;stroke-width:0.5;" x1="783" x2="932" y1="235.5" y2="235.5"/><ellipse cx="793" cy="249.0493" fill="none" rx="3" ry="3" style="stroke:#038048;stroke-width:1.0;"/><text fill="#000000" font-family="Arial" font-size="14" lengthAdjust="spacing" textLength="125" x="802" y="252.6318">titulación de UNEAT</text><line style="stroke:#181818;stroke-width:0.5;" x1="783" x2="932" y1="259.5986" y2="259.5986"/></g><!--MD5=[aab25a36f996111713aad722b3ef7682]
class ESTADISTICAS--><g id="elem_ESTADISTICAS"><rect codeLine="44" fill="#F1F1F1" height="64.0986" id="ESTADISTICAS" rx="2.5" ry="2.5" style="stroke:#181818;stroke-width:0.5;" width="212" x="1282.5" y="203.5"/><ellipse cx="1335.25" cy="219.5" fill="#ADD1B2" rx="11" ry="11" style="stroke:#181818;stroke-width:1.0;"/><path d="M1338.0156,215.375 Q1338.1719,215.1563 1338.3594,215.0469 Q1338.5469,214.9375 1338.7656,214.9375 Q1339.1406,214.9375 1339.375,215.2031 Q1339.6094,215.4531 1339.6094,216.0625 L1339.6094,217.5156 Q1339.6094,218.125 1339.375,218.3906 Q1339.1406,218.6563 1338.7656,218.6563 Q1338.4219,218.6563 1338.2188,218.4531 Q1338.0156,218.2656 1337.9063,217.75 Q1337.8594,217.3906 1337.6719,217.2031 Q1337.3438,216.8281 1336.7344,216.6094 Q1336.125,216.3906 1335.5,216.3906 Q1334.7344,216.3906 1334.0938,216.7188 Q1333.4688,217.0469 1332.9688,217.7969 Q1332.4844,218.5469 1332.4844,219.5781 L1332.4844,220.6719 Q1332.4844,221.9063 1333.375,222.7344 Q1334.2656,223.5469 1335.8594,223.5469 Q1336.7969,223.5469 1337.4531,223.2969 Q1337.8438,223.1406 1338.2656,222.7031 Q1338.5313,222.4375 1338.6719,222.3594 Q1338.8281,222.2813 1339.0313,222.2813 Q1339.3594,222.2813 1339.6094,222.5469 Q1339.875,222.7969 1339.875,223.1406 Q1339.875,223.4844 1339.5313,223.8906 Q1339.0313,224.4688 1338.2344,224.7969 Q1337.1563,225.25 1335.8594,225.25 Q1334.3438,225.25 1333.1406,224.625 Q1332.1563,224.125 1331.4688,223.0625 Q1330.7813,221.9844 1330.7813,220.7031 L1330.7813,219.5469 Q1330.7813,218.2188 1331.3906,217.0781 Q1332.0156,215.9219 1333.1094,215.3125 Q1334.2031,214.6875 1335.4375,214.6875 Q1336.1719,214.6875 1336.8125,214.8594 Q1337.4688,215.0156 1338.0156,215.375 Z " fill="#000000"/><text fill="#000000" font-family="Arial" font-size="14" lengthAdjust="spacing" textLength="98" x="1355.75" y="224.5825">ESTADISTICAS</text><line style="stroke:#181818;stroke-width:0.5;" x1="1283.5" x2="1493.5" y1="235.5" y2="235.5"/><rect fill="none" height="6" style="stroke:#C82930;stroke-width:1.0;" width="6" x="1290.5" y="246.0493"/><text fill="#000000" font-family="Arial" font-size="14" lengthAdjust="spacing" textLength="186" x="1302.5" y="252.6318">información de los egresados</text><line style="stroke:#181818;stroke-width:0.5;" x1="1283.5" x2="1493.5" y1="259.5986" y2="259.5986"/></g><!--MD5=[19899f9ca578ac9ce8c1dbc8b9bc3638]
class SUSCRIPCIÓN--><g id="elem_SUSCRIPCIÓN"><rect codeLine="49" fill="#F1F1F1" height="112.3945" id="SUSCRIPCIÓN" rx="2.5" ry="2.5" style="stroke:#181818;stroke-width:0.5;" width="332" x="449.5" y="400"/><ellipse cx="565.25" cy="416" fill="#ADD1B2" rx="11" ry="11" style="stroke:#181818;stroke-width:1.0;"/><path d="M568.0156,411.875 Q568.1719,411.6563 568.3594,411.5469 Q568.5469,411.4375 568.7656,411.4375 Q569.1406,411.4375 569.375,411.7031 Q569.6094,411.9531 569.6094,412.5625 L569.6094,414.0156 Q569.6094,414.625 569.375,414.8906 Q569.1406,415.1563 568.7656,415.1563 Q568.4219,415.1563 568.2188,414.9531 Q568.0156,414.7656 567.9063,414.25 Q567.8594,413.8906 567.6719,413.7031 Q567.3438,413.3281 566.7344,413.1094 Q566.125,412.8906 565.5,412.8906 Q564.7344,412.8906 564.0938,413.2188 Q563.4688,413.5469 562.9688,414.2969 Q562.4844,415.0469 562.4844,416.0781 L562.4844,417.1719 Q562.4844,418.4063 563.375,419.2344 Q564.2656,420.0469 565.8594,420.0469 Q566.7969,420.0469 567.4531,419.7969 Q567.8438,419.6406 568.2656,419.2031 Q568.5313,418.9375 568.6719,418.8594 Q568.8281,418.7813 569.0313,418.7813 Q569.3594,418.7813 569.6094,419.0469 Q569.875,419.2969 569.875,419.6406 Q569.875,419.9844 569.5313,420.3906 Q569.0313,420.9688 568.2344,421.2969 Q567.1563,421.75 565.8594,421.75 Q564.3438,421.75 563.1406,421.125 Q562.1563,420.625 561.4688,419.5625 Q560.7813,418.4844 560.7813,417.2031 L560.7813,416.0469 Q560.7813,414.7188 561.3906,413.5781 Q562.0156,412.4219 563.1094,411.8125 Q564.2031,411.1875 565.4375,411.1875 Q566.1719,411.1875 566.8125,411.3594 Q567.4688,411.5156 568.0156,411.875 Z " fill="#000000"/><text fill="#000000" font-family="Arial" font-size="14" lengthAdjust="spacing" textLength="92" x="585.75" y="421.0825">SUSCRIPCIÓN</text><line style="stroke:#181818;stroke-width:0.5;" x1="450.5" x2="780.5" y1="432" y2="432"/><rect fill="none" height="6" style="stroke:#C82930;stroke-width:1.0;" width="6" x="457.5" y="442.5493"/><text fill="#000000" font-family="Arial" font-size="14" lengthAdjust="spacing" textLength="177" x="469.5" y="449.1318">paquetes suscritos:premium</text><rect fill="none" height="6" style="stroke:#C82930;stroke-width:1.0;" width="6" x="457.5" y="458.6479"/><text fill="#000000" font-family="Arial" font-size="14" lengthAdjust="spacing" textLength="306" x="469.5" y="465.2305">servicios suscritos: Instalaciones, Comunicacion,</text><text fill="#000000" font-family="Arial" font-size="14" lengthAdjust="spacing" textLength="188" x="469.5" y="481.3291">Newsletter, Ofertas de trabajo</text><rect fill="none" height="6" style="stroke:#C82930;stroke-width:1.0;" width="6" x="457.5" y="490.8452"/><text fill="#000000" font-family="Arial" font-size="14" lengthAdjust="spacing" textLength="102" x="469.5" y="497.4277">precio total 20 €</text><line style="stroke:#181818;stroke-width:0.5;" x1="450.5" x2="780.5" y1="504.3945" y2="504.3945"/></g><!--MD5=[400228ae5d671c1e1fdff589fc59b7ba]
class PAQUETE--><g id="elem_PAQUETE"><rect codeLine="57" fill="#F1F1F1" height="112.3945" id="PAQUETE" rx="2.5" ry="2.5" style="stroke:#181818;stroke-width:0.5;" width="414" x="867.5" y="400"/><ellipse cx="1037.75" cy="416" fill="#ADD1B2" rx="11" ry="11" style="stroke:#181818;stroke-width:1.0;"/><path d="M1040.5156,411.875 Q1040.6719,411.6563 1040.8594,411.5469 Q1041.0469,411.4375 1041.2656,411.4375 Q1041.6406,411.4375 1041.875,411.7031 Q1042.1094,411.9531 1042.1094,412.5625 L1042.1094,414.0156 Q1042.1094,414.625 1041.875,414.8906 Q1041.6406,415.1563 1041.2656,415.1563 Q1040.9219,415.1563 1040.7188,414.9531 Q1040.5156,414.7656 1040.4063,414.25 Q1040.3594,413.8906 1040.1719,413.7031 Q1039.8438,413.3281 1039.2344,413.1094 Q1038.625,412.8906 1038,412.8906 Q1037.2344,412.8906 1036.5938,413.2188 Q1035.9688,413.5469 1035.4688,414.2969 Q1034.9844,415.0469 1034.9844,416.0781 L1034.9844,417.1719 Q1034.9844,418.4063 1035.875,419.2344 Q1036.7656,420.0469 1038.3594,420.0469 Q1039.2969,420.0469 1039.9531,419.7969 Q1040.3438,419.6406 1040.7656,419.2031 Q1041.0313,418.9375 1041.1719,418.8594 Q1041.3281,418.7813 1041.5313,418.7813 Q1041.8594,418.7813 1042.1094,419.0469 Q1042.375,419.2969 1042.375,419.6406 Q1042.375,419.9844 1042.0313,420.3906 Q1041.5313,420.9688 1040.7344,421.2969 Q1039.6563,421.75 1038.3594,421.75 Q1036.8438,421.75 1035.6406,421.125 Q1034.6563,420.625 1033.9688,419.5625 Q1033.2813,418.4844 1033.2813,417.2031 L1033.2813,416.0469 Q1033.2813,414.7188 1033.8906,413.5781 Q1034.5156,412.4219 1035.6094,411.8125 Q1036.7031,411.1875 1037.9375,411.1875 Q1038.6719,411.1875 1039.3125,411.3594 Q1039.9688,411.5156 1040.5156,411.875 Z " fill="#000000"/><text fill="#000000" font-family="Arial" font-size="14" lengthAdjust="spacing" textLength="65" x="1058.25" y="421.0825">PAQUETE</text><line style="stroke:#181818;stroke-width:0.5;" x1="868.5" x2="1280.5" y1="432" y2="432"/><ellipse cx="878.5" cy="445.5493" fill="none" rx="3" ry="3" style="stroke:#038048;stroke-width:1.0;"/><text fill="#000000" font-family="Arial" font-size="14" lengthAdjust="spacing" textLength="111" x="887.5" y="449.1318">Nombre: premium</text><ellipse cx="878.5" cy="461.6479" fill="none" rx="3" ry="3" style="stroke:#038048;stroke-width:1.0;"/><text fill="#000000" font-family="Arial" font-size="14" lengthAdjust="spacing" textLength="388" x="887.5" y="465.2305">Descripción: Ofrece incluye instalaciones y ofertas de empleo</text><ellipse cx="878.5" cy="477.7466" fill="none" rx="3" ry="3" style="stroke:#038048;stroke-width:1.0;"/><text fill="#000000" font-family="Arial" font-size="14" lengthAdjust="spacing" textLength="363" x="887.5" y="481.3291">servicios incluidos: incluye newsletter y ofertas de empleo</text><ellipse cx="878.5" cy="493.8452" fill="none" rx="3" ry="3" style="stroke:#038048;stroke-width:1.0;"/><text fill="#000000" font-family="Arial" font-size="14" lengthAdjust="spacing" textLength="75" x="887.5" y="497.4277">precio: 20 €</text><line style="stroke:#181818;stroke-width:0.5;" x1="868.5" x2="1280.5" y1="504.3945" y2="504.3945"/></g><!--MD5=[47077f945d59e6f3403f02c3421ace20]
class COMUNICACIÓN--><g id="elem_COMUNICACIÓN"><rect codeLine="65" fill="#F1F1F1" height="160.6904" id="COMUNICACIÓN" rx="2.5" ry="2.5" style="stroke:#181818;stroke-width:0.5;" width="267" x="7" y="581"/><ellipse cx="83.75" cy="597" fill="#ADD1B2" rx="11" ry="11" style="stroke:#181818;stroke-width:1.0;"/><path d="M86.5156,592.875 Q86.6719,592.6563 86.8594,592.5469 Q87.0469,592.4375 87.2656,592.4375 Q87.6406,592.4375 87.875,592.7031 Q88.1094,592.9531 88.1094,593.5625 L88.1094,595.0156 Q88.1094,595.625 87.875,595.8906 Q87.6406,596.1563 87.2656,596.1563 Q86.9219,596.1563 86.7188,595.9531 Q86.5156,595.7656 86.4063,595.25 Q86.3594,594.8906 86.1719,594.7031 Q85.8438,594.3281 85.2344,594.1094 Q84.625,593.8906 84,593.8906 Q83.2344,593.8906 82.5938,594.2188 Q81.9688,594.5469 81.4688,595.2969 Q80.9844,596.0469 80.9844,597.0781 L80.9844,598.1719 Q80.9844,599.4063 81.875,600.2344 Q82.7656,601.0469 84.3594,601.0469 Q85.2969,601.0469 85.9531,600.7969 Q86.3438,600.6406 86.7656,600.2031 Q87.0313,599.9375 87.1719,599.8594 Q87.3281,599.7813 87.5313,599.7813 Q87.8594,599.7813 88.1094,600.0469 Q88.375,600.2969 88.375,600.6406 Q88.375,600.9844 88.0313,601.3906 Q87.5313,601.9688 86.7344,602.2969 Q85.6563,602.75 84.3594,602.75 Q82.8438,602.75 81.6406,602.125 Q80.6563,601.625 79.9688,600.5625 Q79.2813,599.4844 79.2813,598.2031 L79.2813,597.0469 Q79.2813,595.7188 79.8906,594.5781 Q80.5156,593.4219 81.6094,592.8125 Q82.7031,592.1875 83.9375,592.1875 Q84.6719,592.1875 85.3125,592.3594 Q85.9688,592.5156 86.5156,592.875 Z " fill="#000000"/><text fill="#000000" font-family="Arial" font-size="14" lengthAdjust="spacing" textLength="105" x="104.25" y="602.0825">COMUNICACIÓN</text><line style="stroke:#181818;stroke-width:0.5;" x1="8" x2="273" y1="613" y2="613"/><ellipse cx="18" cy="626.5493" fill="none" rx="3" ry="3" style="stroke:#038048;stroke-width:1.0;"/><text fill="#000000" font-family="Arial" font-size="14" lengthAdjust="spacing" textLength="146" x="27" y="630.1318">Nombre: Comunicación</text><ellipse cx="18" cy="642.6479" fill="none" rx="3" ry="3" style="stroke:#038048;stroke-width:1.0;"/><text fill="#000000" font-family="Arial" font-size="14" lengthAdjust="spacing" textLength="214" x="27" y="646.2305">Descripción: Permite comunicarse</text><text fill="#000000" font-family="Arial" font-size="14" lengthAdjust="spacing" textLength="201" x="27" y="662.3291">e interactuar con otros usuarios</text><ellipse cx="18" cy="674.8452" fill="none" rx="3" ry="3" style="stroke:#038048;stroke-width:1.0;"/><text fill="#000000" font-family="Arial" font-size="14" lengthAdjust="spacing" textLength="67" x="27" y="678.4277">precio: 0 €</text><ellipse cx="18" cy="690.9438" fill="none" rx="3" ry="3" style="stroke:#038048;stroke-width:1.0;"/><text fill="#000000" font-family="Arial" font-size="14" lengthAdjust="spacing" textLength="241" x="27" y="694.5264">Email: pepe@alumnos.uneatlantico.es</text><rect fill="none" height="6" style="stroke:#C82930;stroke-width:1.0;" width="6" x="15" y="704.0425"/><text fill="#000000" font-family="Arial" font-size="14" lengthAdjust="spacing" textLength="30" x="27" y="710.625">Chat</text><rect fill="none" height="6" style="stroke:#C82930;stroke-width:1.0;" width="6" x="15" y="720.1411"/><text fill="#000000" font-family="Arial" font-size="14" lengthAdjust="spacing" textLength="78" x="27" y="726.7236">Seguimiento</text><line style="stroke:#181818;stroke-width:0.5;" x1="8" x2="273" y1="733.6904" y2="733.6904"/></g><!--MD5=[48505422c03f555df6ba4b5977c5d640]
class INSTALACIONES--><g id="elem_INSTALACIONES"><rect codeLine="76" fill="#F1F1F1" height="160.6904" id="INSTALACIONES" rx="2.5" ry="2.5" style="stroke:#181818;stroke-width:0.5;" width="293" x="309" y="581"/><ellipse cx="397.75" cy="597" fill="#ADD1B2" rx="11" ry="11" style="stroke:#181818;stroke-width:1.0;"/><path d="M400.5156,592.875 Q400.6719,592.6563 400.8594,592.5469 Q401.0469,592.4375 401.2656,592.4375 Q401.6406,592.4375 401.875,592.7031 Q402.1094,592.9531 402.1094,593.5625 L402.1094,595.0156 Q402.1094,595.625 401.875,595.8906 Q401.6406,596.1563 401.2656,596.1563 Q400.9219,596.1563 400.7188,595.9531 Q400.5156,595.7656 400.4063,595.25 Q400.3594,594.8906 400.1719,594.7031 Q399.8438,594.3281 399.2344,594.1094 Q398.625,593.8906 398,593.8906 Q397.2344,593.8906 396.5938,594.2188 Q395.9688,594.5469 395.4688,595.2969 Q394.9844,596.0469 394.9844,597.0781 L394.9844,598.1719 Q394.9844,599.4063 395.875,600.2344 Q396.7656,601.0469 398.3594,601.0469 Q399.2969,601.0469 399.9531,600.7969 Q400.3438,600.6406 400.7656,600.2031 Q401.0313,599.9375 401.1719,599.8594 Q401.3281,599.7813 401.5313,599.7813 Q401.8594,599.7813 402.1094,600.0469 Q402.375,600.2969 402.375,600.6406 Q402.375,600.9844 402.0313,601.3906 Q401.5313,601.9688 400.7344,602.2969 Q399.6563,602.75 398.3594,602.75 Q396.8438,602.75 395.6406,602.125 Q394.6563,601.625 393.9688,600.5625 Q393.2813,599.4844 393.2813,598.2031 L393.2813,597.0469 Q393.2813,595.7188 393.8906,594.5781 Q394.5156,593.4219 395.6094,592.8125 Q396.7031,592.1875 397.9375,592.1875 Q398.6719,592.1875 399.3125,592.3594 Q399.9688,592.5156 400.5156,592.875 Z " fill="#000000"/><text fill="#000000" font-family="Arial" font-size="14" lengthAdjust="spacing" textLength="107" x="418.25" y="602.0825">INSTALACIONES</text><line style="stroke:#181818;stroke-width:0.5;" x1="310" x2="601" y1="613" y2="613"/><ellipse cx="320" cy="626.5493" fill="none" rx="3" ry="3" style="stroke:#038048;stroke-width:1.0;"/><text fill="#000000" font-family="Arial" font-size="14" lengthAdjust="spacing" textLength="139" x="329" y="630.1318">Nombre: Instalaciones</text><ellipse cx="320" cy="642.6479" fill="none" rx="3" ry="3" style="stroke:#038048;stroke-width:1.0;"/><text fill="#000000" font-family="Arial" font-size="14" lengthAdjust="spacing" textLength="267" x="329" y="646.2305">Descripción: Concede acceso a diferentes</text><text fill="#000000" font-family="Arial" font-size="14" lengthAdjust="spacing" textLength="239" x="329" y="662.3291">instalaciones dentro de la universidad</text><ellipse cx="320" cy="674.8452" fill="none" rx="3" ry="3" style="stroke:#038048;stroke-width:1.0;"/><text fill="#000000" font-family="Arial" font-size="14" lengthAdjust="spacing" textLength="75" x="329" y="678.4277">precio: 25 €</text><ellipse cx="320" cy="690.9438" fill="none" rx="3" ry="3" style="stroke:#038048;stroke-width:1.0;"/><text fill="#000000" font-family="Arial" font-size="14" lengthAdjust="spacing" textLength="61" x="329" y="694.5264">Biblioteca</text><ellipse cx="320" cy="707.0425" fill="none" rx="3" ry="3" style="stroke:#038048;stroke-width:1.0;"/><text fill="#000000" font-family="Arial" font-size="14" lengthAdjust="spacing" textLength="133" x="329" y="710.625">Sala de ordenadores</text><ellipse cx="320" cy="723.1411" fill="none" rx="3" ry="3" style="stroke:#038048;stroke-width:1.0;"/><text fill="#000000" font-family="Arial" font-size="14" lengthAdjust="spacing" textLength="152" x="329" y="726.7236">Instalaciones deportivas</text><line style="stroke:#181818;stroke-width:0.5;" x1="310" x2="601" y1="733.6904" y2="733.6904"/></g><!--MD5=[6750979e80429437d6fa463c6f206655]
class NEWSLETTER--><g id="elem_NEWSLETTER"><rect codeLine="87" fill="#F1F1F1" height="144.5918" id="NEWSLETTER" rx="2.5" ry="2.5" style="stroke:#181818;stroke-width:0.5;" width="277" x="637" y="589"/><ellipse cx="724.25" cy="605" fill="#ADD1B2" rx="11" ry="11" style="stroke:#181818;stroke-width:1.0;"/><path d="M727.0156,600.875 Q727.1719,600.6563 727.3594,600.5469 Q727.5469,600.4375 727.7656,600.4375 Q728.1406,600.4375 728.375,600.7031 Q728.6094,600.9531 728.6094,601.5625 L728.6094,603.0156 Q728.6094,603.625 728.375,603.8906 Q728.1406,604.1563 727.7656,604.1563 Q727.4219,604.1563 727.2188,603.9531 Q727.0156,603.7656 726.9063,603.25 Q726.8594,602.8906 726.6719,602.7031 Q726.3438,602.3281 725.7344,602.1094 Q725.125,601.8906 724.5,601.8906 Q723.7344,601.8906 723.0938,602.2188 Q722.4688,602.5469 721.9688,603.2969 Q721.4844,604.0469 721.4844,605.0781 L721.4844,606.1719 Q721.4844,607.4063 722.375,608.2344 Q723.2656,609.0469 724.8594,609.0469 Q725.7969,609.0469 726.4531,608.7969 Q726.8438,608.6406 727.2656,608.2031 Q727.5313,607.9375 727.6719,607.8594 Q727.8281,607.7813 728.0313,607.7813 Q728.3594,607.7813 728.6094,608.0469 Q728.875,608.2969 728.875,608.6406 Q728.875,608.9844 728.5313,609.3906 Q728.0313,609.9688 727.2344,610.2969 Q726.1563,610.75 724.8594,610.75 Q723.3438,610.75 722.1406,610.125 Q721.1563,609.625 720.4688,608.5625 Q719.7813,607.4844 719.7813,606.2031 L719.7813,605.0469 Q719.7813,603.7188 720.3906,602.5781 Q721.0156,601.4219 722.1094,600.8125 Q723.2031,600.1875 724.4375,600.1875 Q725.1719,600.1875 725.8125,600.3594 Q726.4688,600.5156 727.0156,600.875 Z " fill="#000000"/><text fill="#000000" font-family="Arial" font-size="14" lengthAdjust="spacing" textLength="94" x="744.75" y="610.0825">NEWSLETTER</text><line style="stroke:#181818;stroke-width:0.5;" x1="638" x2="913" y1="621" y2="621"/><ellipse cx="648" cy="634.5493" fill="none" rx="3" ry="3" style="stroke:#038048;stroke-width:1.0;"/><text fill="#000000" font-family="Arial" font-size="14" lengthAdjust="spacing" textLength="125" x="657" y="638.1318">Nombre:  newsletter</text><ellipse cx="648" cy="650.6479" fill="none" rx="3" ry="3" style="stroke:#038048;stroke-width:1.0;"/><text fill="#000000" font-family="Arial" font-size="14" lengthAdjust="spacing" textLength="251" x="657" y="654.2305">Descripción: Tablon de anuncios donde</text><text fill="#000000" font-family="Arial" font-size="14" lengthAdjust="spacing" textLength="203" x="657" y="670.3291">se comparten eventos y noticias</text><ellipse cx="648" cy="682.8452" fill="none" rx="3" ry="3" style="stroke:#038048;stroke-width:1.0;"/><text fill="#000000" font-family="Arial" font-size="14" lengthAdjust="spacing" textLength="64" x="657" y="686.4277">Precio 0 €</text><ellipse cx="648" cy="698.9438" fill="none" rx="3" ry="3" style="stroke:#038048;stroke-width:1.0;"/><text fill="#000000" font-family="Arial" font-size="14" lengthAdjust="spacing" textLength="181" x="657" y="702.5264">Noticias practicas con inditex</text><ellipse cx="648" cy="715.0425" fill="none" rx="3" ry="3" style="stroke:#038048;stroke-width:1.0;"/><text fill="#000000" font-family="Arial" font-size="14" lengthAdjust="spacing" textLength="51" x="657" y="718.625">Eventos</text><line style="stroke:#181818;stroke-width:0.5;" x1="638" x2="913" y1="725.5918" y2="725.5918"/></g><!--MD5=[0fe3946baf08576b1ff49b2fa5551d2f]
class OFERTAS DE EMPLEO--><g id="elem_OFERTAS DE EMPLEO"><rect codeLine="97" fill="#F1F1F1" height="176.7891" id="OFERTAS DE EMPLEO" rx="2.5" ry="2.5" style="stroke:#181818;stroke-width:0.5;" width="272" x="949.5" y="573"/><ellipse cx="1006.25" cy="589" fill="#ADD1B2" rx="11" ry="11" style="stroke:#181818;stroke-width:1.0;"/><path d="M1009.0156,584.875 Q1009.1719,584.6563 1009.3594,584.5469 Q1009.5469,584.4375 1009.7656,584.4375 Q1010.1406,584.4375 1010.375,584.7031 Q1010.6094,584.9531 1010.6094,585.5625 L1010.6094,587.0156 Q1010.6094,587.625 1010.375,587.8906 Q1010.1406,588.1563 1009.7656,588.1563 Q1009.4219,588.1563 1009.2188,587.9531 Q1009.0156,587.7656 1008.9063,587.25 Q1008.8594,586.8906 1008.6719,586.7031 Q1008.3438,586.3281 1007.7344,586.1094 Q1007.125,585.8906 1006.5,585.8906 Q1005.7344,585.8906 1005.0938,586.2188 Q1004.4688,586.5469 1003.9688,587.2969 Q1003.4844,588.0469 1003.4844,589.0781 L1003.4844,590.1719 Q1003.4844,591.4063 1004.375,592.2344 Q1005.2656,593.0469 1006.8594,593.0469 Q1007.7969,593.0469 1008.4531,592.7969 Q1008.8438,592.6406 1009.2656,592.2031 Q1009.5313,591.9375 1009.6719,591.8594 Q1009.8281,591.7813 1010.0313,591.7813 Q1010.3594,591.7813 1010.6094,592.0469 Q1010.875,592.2969 1010.875,592.6406 Q1010.875,592.9844 1010.5313,593.3906 Q1010.0313,593.9688 1009.2344,594.2969 Q1008.1563,594.75 1006.8594,594.75 Q1005.3438,594.75 1004.1406,594.125 Q1003.1563,593.625 1002.4688,592.5625 Q1001.7813,591.4844 1001.7813,590.2031 L1001.7813,589.0469 Q1001.7813,587.7188 1002.3906,586.5781 Q1003.0156,585.4219 1004.1094,584.8125 Q1005.2031,584.1875 1006.4375,584.1875 Q1007.1719,584.1875 1007.8125,584.3594 Q1008.4688,584.5156 1009.0156,584.875 Z " fill="#000000"/><text fill="#000000" font-family="Arial" font-size="14" lengthAdjust="spacing" textLength="150" x="1026.75" y="594.0825">OFERTAS DE EMPLEO</text><line style="stroke:#181818;stroke-width:0.5;" x1="950.5" x2="1220.5" y1="605" y2="605"/><ellipse cx="960.5" cy="618.5493" fill="none" rx="3" ry="3" style="stroke:#038048;stroke-width:1.0;"/><text fill="#000000" font-family="Arial" font-size="14" lengthAdjust="spacing" textLength="228" x="969.5" y="622.1318">Nombre: Ofertas de empleo Amazon</text><ellipse cx="960.5" cy="634.6479" fill="none" rx="3" ry="3" style="stroke:#038048;stroke-width:1.0;"/><text fill="#000000" font-family="Arial" font-size="14" lengthAdjust="spacing" textLength="229" x="969.5" y="638.2305">Descripción: Informacion referente a</text><text fill="#000000" font-family="Arial" font-size="14" lengthAdjust="spacing" textLength="246" x="969.5" y="654.3291">diversas ofertas de empleo disponibles</text><ellipse cx="960.5" cy="666.8452" fill="none" rx="3" ry="3" style="stroke:#038048;stroke-width:1.0;"/><text fill="#000000" font-family="Arial" font-size="14" lengthAdjust="spacing" textLength="67" x="969.5" y="670.4277">precio: 5 €</text><ellipse cx="960.5" cy="682.9438" fill="none" rx="3" ry="3" style="stroke:#038048;stroke-width:1.0;"/><text fill="#000000" font-family="Arial" font-size="14" lengthAdjust="spacing" textLength="143" x="969.5" y="686.5264">Nombre de la empresa</text><ellipse cx="960.5" cy="699.0425" fill="none" rx="3" ry="3" style="stroke:#038048;stroke-width:1.0;"/><text fill="#000000" font-family="Arial" font-size="14" lengthAdjust="spacing" textLength="112" x="969.5" y="702.625">Puesto de trabajo</text><ellipse cx="960.5" cy="715.1411" fill="none" rx="3" ry="3" style="stroke:#038048;stroke-width:1.0;"/><text fill="#000000" font-family="Arial" font-size="14" lengthAdjust="spacing" textLength="44" x="969.5" y="718.7236">Salario</text><ellipse cx="960.5" cy="731.2397" fill="none" rx="3" ry="3" style="stroke:#038048;stroke-width:1.0;"/><text fill="#000000" font-family="Arial" font-size="14" lengthAdjust="spacing" textLength="61" x="969.5" y="734.8223">Ubicación</text><line style="stroke:#181818;stroke-width:0.5;" x1="950.5" x2="1220.5" y1="741.7891" y2="741.7891"/></g><!--MD5=[fbe49f68b372c0a23e6a086496ac2c7b]
link ALUMNI to EGRESADO--><g id="link_ALUMNI_EGRESADO"><path codeLine="109" d="M1041.89,52.27 C980.99,70.99 862.68,108.56 764.5,147 C744.46,154.85 723.49,163.63 703.04,172.52 " fill="none" id="ALUMNI-EGRESADO" style="stroke:#181818;stroke-width:1.0;"/><text fill="#000000" font-family="Arial" font-size="13" lengthAdjust="spacing" textLength="28" x="887.5" y="114.1938">tiene</text></g><!--MD5=[0f15262c4370eece06a3d46540fc7acf]
link ALUMNI to ADMINISTRADOR--><g id="link_ALUMNI_ADMINISTRADOR"><path codeLine="110" d="M1082.5,71.25 C1082.5,95.95 1082.5,131.4 1082.5,162.96 " fill="none" id="ALUMNI-ADMINISTRADOR" style="stroke:#181818;stroke-width:1.0;"/><text fill="#000000" font-family="Arial" font-size="13" lengthAdjust="spacing" textLength="28" x="1083.5" y="114.1938">tiene</text></g><!--MD5=[98be5604b5d3dbb87f1145fcc496bec0]
link EGRESADO to SUSCRIPCIÓN--><g id="link_EGRESADO_SUSCRIPCIÓN"><path codeLine="111" d="M587.94,324.11 C593.32,349.64 599.04,376.81 603.87,399.74 " fill="none" id="EGRESADO-SUSCRIPCIÓN" style="stroke:#181818;stroke-width:1.0;"/><text fill="#000000" font-family="Arial" font-size="13" lengthAdjust="spacing" textLength="63" x="598.5" y="367.1938">se inscribe</text></g><!--MD5=[a1601e2c835187c31047575bce49f525]
link ALUMNI to SERVICIO EXTERNO--><g id="link_ALUMNI_SERVICIO EXTERNO"><path codeLine="112" d="M1123.26,39 C1153.64,39 1196.16,39 1233.59,39 " fill="none" id="ALUMNI-SERVICIO EXTERNO" style="stroke:#181818;stroke-width:1.0;"/><text fill="#000000" font-family="Arial" font-size="13" lengthAdjust="spacing" textLength="74" x="1141.5" y="33.1938">se comunica</text></g><!--MD5=[dddc89fd371c160f93cf11b7ec7e78d6]
link EGRESADO to REQUISITO--><g id="link_EGRESADO_REQUISITO"><path codeLine="114" d="M703.38,235.5 C730.26,235.5 757.62,235.5 781.67,235.5 " fill="none" id="EGRESADO-REQUISITO" style="stroke:#181818;stroke-width:1.0;"/><text fill="#000000" font-family="Arial" font-size="13" lengthAdjust="spacing" textLength="42" x="721.5" y="229.6938">cumple</text></g><!--MD5=[ae6df9e5fe8797a6c174dc717df45c99]
link ALUMNI to ESTADISTICAS--><g id="link_ALUMNI_ESTADISTICAS"><path codeLine="115" d="M1123.13,65.83 C1179.06,101.38 1279.63,165.3 1339.6,203.42 " fill="none" id="ALUMNI-ESTADISTICAS" style="stroke:#181818;stroke-width:1.0;"/><text fill="#000000" font-family="Arial" font-size="13" lengthAdjust="spacing" textLength="39" x="1200.5" y="114.1938">genera</text></g><!--MD5=[0f502edca7071e71c4db78ad4f7a7ecf]
link ADMINISTRADOR to ESTADISTICAS--><g id="link_ADMINISTRADOR_ESTADISTICAS"><path codeLine="116" d="M1197.31,235.5 C1225.21,235.5 1254.92,235.5 1282.39,235.5 " fill="none" id="ADMINISTRADOR-ESTADISTICAS" style="stroke:#181818;stroke-width:1.0;stroke-dasharray:7.0,7.0;"/><text fill="#000000" font-family="Arial" font-size="13" lengthAdjust="spacing" textLength="49" x="1215.25" y="229.6938">consulta</text></g><!--MD5=[0ae76caab6403afd96ace9cd4635e9a5]
link SUSCRIPCIÓN to PAQUETE--><g id="link_SUSCRIPCIÓN_PAQUETE"><path codeLine="117" d="M781.53,456 C809.38,456 838.59,456 867.32,456 " fill="none" id="SUSCRIPCIÓN-PAQUETE" style="stroke:#181818;stroke-width:1.0;"/><text fill="#000000" font-family="Arial" font-size="13" lengthAdjust="spacing" textLength="41" x="804" y="450.1938">incluye</text></g><!--MD5=[df8fb414bb926766e0b2651c87b311c0]
link UNIVERSIDAD to ALUMNI--><g id="link_UNIVERSIDAD_ALUMNI"><path codeLine="119" d="M931.53,39 C967.01,39 1010.73,39 1041.97,39 " fill="none" id="UNIVERSIDAD-ALUMNI" style="stroke:#181818;stroke-width:1.0;"/><text fill="#000000" font-family="Arial" font-size="13" lengthAdjust="spacing" textLength="74" x="949.75" y="33.1938">se comunica</text></g><!--MD5=[3bafd94deb2dc497ce79c5a231e60fd2]
link ADMINISTRADOR to PAQUETE--><g id="link_ADMINISTRADOR_PAQUETE"><path codeLine="121" d="M1079.88,308.05 C1078.79,337.92 1077.54,372.07 1076.52,399.93 " fill="none" id="ADMINISTRADOR-PAQUETE" style="stroke:#181818;stroke-width:1.0;stroke-dasharray:7.0,7.0;"/></g><!--MD5=[685d2fa0e58cbaceb56fa21426e69ba5]
reverse link SUSCRIPCIÓN to COMUNICACIÓN--><g id="link_SUSCRIPCIÓN_COMUNICACIÓN"><path codeLine="123" d="M430.33,516.77 C384.31,533.39 335.56,552.55 291.5,573 C285.73,575.68 279.89,578.51 274.03,581.44 " fill="none" id="SUSCRIPCIÓN-backto-COMUNICACIÓN" style="stroke:#181818;stroke-width:1.0;"/><polygon fill="none" points="427.99,510.17,449.18,510.04,432.69,523.36,427.99,510.17" style="stroke:#181818;stroke-width:1.0;"/></g><!--MD5=[9556d2c3e10d0af436dee5b76dd23ba2]
reverse link SUSCRIPCIÓN to INSTALACIONES--><g id="link_SUSCRIPCIÓN_INSTALACIONES"><path codeLine="124" d="M559.68,528 C546.23,545.1 531.79,563.47 518.06,580.93 " fill="none" id="SUSCRIPCIÓN-backto-INSTALACIONES" style="stroke:#181818;stroke-width:1.0;"/><polygon fill="none" points="554.34,523.47,572.2,512.07,565.34,532.12,554.34,523.47" style="stroke:#181818;stroke-width:1.0;"/></g><!--MD5=[b5657f5f2e779de790375b83defccd6c]
reverse link SUSCRIPCIÓN to NEWSLETTER--><g id="link_SUSCRIPCIÓN_NEWSLETTER"><path codeLine="125" d="M671.2,527.85 C686.75,547.62 703.65,569.11 719.22,588.92 " fill="none" id="SUSCRIPCIÓN-backto-NEWSLETTER" style="stroke:#181818;stroke-width:1.0;"/><polygon fill="none" points="665.66,532.12,658.8,512.07,676.66,523.47,665.66,532.12" style="stroke:#181818;stroke-width:1.0;"/></g><!--MD5=[6b1dfc076c491497254edc4dbfc5bce8]
reverse link SUSCRIPCIÓN to OFERTAS DE EMPLEO--><g id="link_SUSCRIPCIÓN_OFERTAS DE EMPLEO"><path codeLine="126" d="M800.07,518.95 C843.73,535.19 889.73,553.63 931.5,573 C937.36,575.72 943.29,578.58 949.25,581.54 " fill="none" id="SUSCRIPCIÓN-backto-OFERTAS DE EMPLEO" style="stroke:#181818;stroke-width:1.0;"/><polygon fill="none" points="797.55,525.48,781.2,512.01,802.38,512.34,797.55,525.48" style="stroke:#181818;stroke-width:1.0;"/></g><!--MD5=[284f6b02a0f488ae2844266dd2c62978]
@startuml AlumniModel

'!theme amiga
skinparam backgroundColor white
skinparam defaultFontName Arial

class ALUMNI 
{
   plataforma
}

class "SERVICIO EXTERNO" {}

class UNIVERSIDAD {}



class EGRESADO 
{
    - ID: 000001
    + Nombre : Pepe
    + Apellido: San Vitores
    - Fecha de Nacimiento 19-6-1999
    - Email: pepe@alumnos.uneatlantico.es
    - ubicacion: Santander
    + Ocupación: desempleado
    -Carnet de Estudiante:123456Z
}

class ADMINISTRADOR
{
    - ID: 000002
    + Nombre : Juanjo
    + Apellido: Gimenez  
    - Fecha de Nacimiento 19-6-1984
    - Email: juanjo@uneatlantico.es
    - Zona de trabajo: Uneatlatico
}

class REQUISITO 
{
    + titulación de UNEAT
}

class ESTADISTICAS 
{
    - información de los egresados
}

class SUSCRIPCIÓN 
{
    - paquetes suscritos:premium
    - servicios suscritos: Instalaciones, Comunicacion,
     Newsletter, Ofertas de trabajo
    - precio total 20 €
}

class PAQUETE
{
    + Nombre: premium
    + Descripción: Ofrece incluye instalaciones y ofertas de empleo
    + servicios incluidos: incluye newsletter y ofertas de empleo
    + precio: 20 €
}

class COMUNICACIÓN 
{
   + Nombre: Comunicación
   + Descripción: Permite comunicarse
    e interactuar con otros usuarios
   +precio: 0 €
   + Email: pepe@alumnos.uneatlantico.es
    -  Chat
    - Seguimiento
}

class INSTALACIONES 
{
    + Nombre: Instalaciones
    + Descripción: Concede acceso a diferentes 
    instalaciones dentro de la universidad
    + precio: 25 €
    + Biblioteca
    + Sala de ordenadores
    + Instalaciones deportivas
}

class NEWSLETTER 
{
    + Nombre:  newsletter
    + Descripción: Tablon de anuncios donde 
    se comparten eventos y noticias
    + Precio 0 €
    + Noticias practicas con inditex
    + Eventos
}

class "OFERTAS DE EMPLEO" 
{
    + Nombre: Ofertas de empleo Amazon
    + Descripción: Informacion referente a
    diversas ofertas de empleo disponibles
    + precio: 5 €
    + Nombre de la empresa
    + Puesto de trabajo
    + Salario
    + Ubicación
}

EGRESADO -up- ALUMNI  : tiene
ALUMNI - - ADMINISTRADOR : tiene
EGRESADO - - SUSCRIPCIÓN : se inscribe
ALUMNI -right- "SERVICIO EXTERNO" : se comunica

EGRESADO -right- REQUISITO : cumple
ALUMNI -right- ESTADISTICAS : genera
ADMINISTRADOR .right. ESTADISTICAS : consulta
SUSCRIPCIÓN -right- PAQUETE : incluye

UNIVERSIDAD -right- ALUMNI : se comunica

ADMINISTRADOR .. PAQUETE

SUSCRIPCIÓN <|- - "COMUNICACIÓN"
SUSCRIPCIÓN <|- - "INSTALACIONES"
SUSCRIPCIÓN <|- - "NEWSLETTER"
SUSCRIPCIÓN <|- - "OFERTAS DE EMPLEO"

@enduml

@startuml AlumniModel

skinparam backgroundColor white
skinparam defaultFontName Arial

class ALUMNI 
{
   plataforma
}

class "SERVICIO EXTERNO" {}

class UNIVERSIDAD {}



class EGRESADO 
{
    - ID: 000001
    + Nombre : Pepe
    + Apellido: San Vitores
    - Fecha de Nacimiento 19-6-1999
    - Email: pepe@alumnos.uneatlantico.es
    - ubicacion: Santander
    + Ocupación: desempleado
    -Carnet de Estudiante:123456Z
}

class ADMINISTRADOR
{
    - ID: 000002
    + Nombre : Juanjo
    + Apellido: Gimenez  
    - Fecha de Nacimiento 19-6-1984
    - Email: juanjo@uneatlantico.es
    - Zona de trabajo: Uneatlatico
}

class REQUISITO 
{
    + titulación de UNEAT
}

class ESTADISTICAS 
{
    - información de los egresados
}

class SUSCRIPCIÓN 
{
    - paquetes suscritos:premium
    - servicios suscritos: Instalaciones, Comunicacion,
     Newsletter, Ofertas de trabajo
    - precio total 20 €
}

class PAQUETE
{
    + Nombre: premium
    + Descripción: Ofrece incluye instalaciones y ofertas de empleo
    + servicios incluidos: incluye newsletter y ofertas de empleo
    + precio: 20 €
}

class COMUNICACIÓN 
{
   + Nombre: Comunicación
   + Descripción: Permite comunicarse
    e interactuar con otros usuarios
   +precio: 0 €
   + Email: pepe@alumnos.uneatlantico.es
    -  Chat
    - Seguimiento
}

class INSTALACIONES 
{
    + Nombre: Instalaciones
    + Descripción: Concede acceso a diferentes 
    instalaciones dentro de la universidad
    + precio: 25 €
    + Biblioteca
    + Sala de ordenadores
    + Instalaciones deportivas
}

class NEWSLETTER 
{
    + Nombre:  newsletter
    + Descripción: Tablon de anuncios donde 
    se comparten eventos y noticias
    + Precio 0 €
    + Noticias practicas con inditex
    + Eventos
}

class "OFERTAS DE EMPLEO" 
{
    + Nombre: Ofertas de empleo Amazon
    + Descripción: Informacion referente a
    diversas ofertas de empleo disponibles
    + precio: 5 €
    + Nombre de la empresa
    + Puesto de trabajo
    + Salario
    + Ubicación
}

EGRESADO -up- ALUMNI  : tiene
ALUMNI - - ADMINISTRADOR : tiene
EGRESADO - - SUSCRIPCIÓN : se inscribe
ALUMNI -right- "SERVICIO EXTERNO" : se comunica

EGRESADO -right- REQUISITO : cumple
ALUMNI -right- ESTADISTICAS : genera
ADMINISTRADOR .right. ESTADISTICAS : consulta
SUSCRIPCIÓN -right- PAQUETE : incluye

UNIVERSIDAD -right- ALUMNI : se comunica

ADMINISTRADOR .. PAQUETE

SUSCRIPCIÓN <|- - "COMUNICACIÓN"
SUSCRIPCIÓN <|- - "INSTALACIONES"
SUSCRIPCIÓN <|- - "NEWSLETTER"
SUSCRIPCIÓN <|- - "OFERTAS DE EMPLEO"

@enduml

PlantUML version 1.2022.7(Mon Aug 22 19:01:30 CEST 2022)
(GPL source distribution)
Java Runtime: Java(TM) SE Runtime Environment
JVM: Java HotSpot(TM) 64-Bit Server VM
Default Encoding: Cp1252
Language: es
Country: ES
--></g></svg>