<?xml version="1.0" encoding="us-ascii" standalone="no"?><svg xmlns="http://www.w3.org/2000/svg" xmlns:xlink="http://www.w3.org/1999/xlink" contentStyleType="text/css" height="336px" preserveAspectRatio="none" style="width:997px;height:336px;" version="1.1" viewBox="0 0 997 336" width="997px" zoomAndPan="magnify"><defs/><g><!--class Alumni--><g id="elem_Alumni"><rect codeLine="5" fill="#0B58A8" height="44" id="Alumni" rx="2.5" ry="2.5" style="stroke:#FFFFFF;stroke-width:1.0;" width="77" x="67.5" y="149"/><ellipse cx="80.5" cy="163" fill="#0B58A8" rx="9" ry="9" style="stroke:#FFFFFF;stroke-width:1.0;"/><path d="M82.8438,158.6719 C81.9063,158.2344 81.3125,158.0938 80.4375,158.0938 C77.8125,158.0938 75.8125,160.1719 75.8125,162.8906 L75.8125,164.0156 C75.8125,166.5938 77.9219,168.4844 80.8125,168.4844 C82.0313,168.4844 83.1875,168.1875 83.9375,167.6406 C84.5156,167.2344 84.8438,166.7813 84.8438,166.3906 C84.8438,165.9375 84.4531,165.5469 83.9844,165.5469 C83.7656,165.5469 83.5625,165.625 83.375,165.8125 C82.9219,166.2969 82.9219,166.2969 82.7344,166.3906 C82.3125,166.6563 81.625,166.7813 80.8594,166.7813 C78.8125,166.7813 77.5156,165.6875 77.5156,163.9844 L77.5156,162.8906 C77.5156,161.1094 78.7656,159.7969 80.5,159.7969 C81.0781,159.7969 81.6875,159.9531 82.1563,160.2031 C82.6406,160.4844 82.8125,160.7031 82.9063,161.1094 C82.9688,161.5156 83,161.6406 83.1406,161.7656 C83.2813,161.9063 83.5156,162.0156 83.7344,162.0156 C84,162.0156 84.2656,161.875 84.4375,161.6563 C84.5469,161.5 84.5781,161.3125 84.5781,160.8906 L84.5781,159.4688 C84.5781,159.0313 84.5625,158.9063 84.4688,158.75 C84.3125,158.4844 84.0313,158.3438 83.7344,158.3438 C83.4375,158.3438 83.2344,158.4375 83.0156,158.75 L82.8438,158.6719 Z " fill="#FFFFFF"/><text fill="#FFFFFF" font-family="Arial" font-size="14" lengthAdjust="spacing" textLength="49" x="92.5" y="167.8467">Alumni</text><line style="stroke:#FFFFFF;stroke-width:1.0;" x1="68.5" x2="143.5" y1="177" y2="177"/><line style="stroke:#FFFFFF;stroke-width:1.0;" x1="68.5" x2="143.5" y1="185" y2="185"/></g><!--class alumnoEgresado--><g id="elem_alumnoEgresado"><rect codeLine="6" fill="#0B58A8" height="44" id="alumnoEgresado" rx="2.5" ry="2.5" style="stroke:#FFFFFF;stroke-width:1.0;" width="146" x="362" y="269.5"/><ellipse cx="375" cy="283.5" fill="#0B58A8" rx="9" ry="9" style="stroke:#FFFFFF;stroke-width:1.0;"/><path d="M377.3438,279.1719 C376.4063,278.7344 375.8125,278.5938 374.9375,278.5938 C372.3125,278.5938 370.3125,280.6719 370.3125,283.3906 L370.3125,284.5156 C370.3125,287.0938 372.4219,288.9844 375.3125,288.9844 C376.5313,288.9844 377.6875,288.6875 378.4375,288.1406 C379.0156,287.7344 379.3438,287.2813 379.3438,286.8906 C379.3438,286.4375 378.9531,286.0469 378.4844,286.0469 C378.2656,286.0469 378.0625,286.125 377.875,286.3125 C377.4219,286.7969 377.4219,286.7969 377.2344,286.8906 C376.8125,287.1563 376.125,287.2813 375.3594,287.2813 C373.3125,287.2813 372.0156,286.1875 372.0156,284.4844 L372.0156,283.3906 C372.0156,281.6094 373.2656,280.2969 375,280.2969 C375.5781,280.2969 376.1875,280.4531 376.6563,280.7031 C377.1406,280.9844 377.3125,281.2031 377.4063,281.6094 C377.4688,282.0156 377.5,282.1406 377.6406,282.2656 C377.7813,282.4063 378.0156,282.5156 378.2344,282.5156 C378.5,282.5156 378.7656,282.375 378.9375,282.1563 C379.0469,282 379.0781,281.8125 379.0781,281.3906 L379.0781,279.9688 C379.0781,279.5313 379.0625,279.4063 378.9688,279.25 C378.8125,278.9844 378.5313,278.8438 378.2344,278.8438 C377.9375,278.8438 377.7344,278.9375 377.5156,279.25 L377.3438,279.1719 Z " fill="#FFFFFF"/><text fill="#FFFFFF" font-family="Arial" font-size="14" lengthAdjust="spacing" textLength="118" x="387" y="288.3467">alumnoEgresado</text><line style="stroke:#FFFFFF;stroke-width:1.0;" x1="363" x2="507" y1="297.5" y2="297.5"/><line style="stroke:#FFFFFF;stroke-width:1.0;" x1="363" x2="507" y1="305.5" y2="305.5"/></g><!--class uneatlantico--><g id="elem_uneatlantico"><rect codeLine="7" fill="#0B58A8" height="44" id="uneatlantico" rx="2.5" ry="2.5" style="stroke:#FFFFFF;stroke-width:1.0;" width="118" x="376" y="28.5"/><ellipse cx="389" cy="42.5" fill="#0B58A8" rx="9" ry="9" style="stroke:#FFFFFF;stroke-width:1.0;"/><path d="M391.3438,38.1719 C390.4063,37.7344 389.8125,37.5938 388.9375,37.5938 C386.3125,37.5938 384.3125,39.6719 384.3125,42.3906 L384.3125,43.5156 C384.3125,46.0938 386.4219,47.9844 389.3125,47.9844 C390.5313,47.9844 391.6875,47.6875 392.4375,47.1406 C393.0156,46.7344 393.3438,46.2813 393.3438,45.8906 C393.3438,45.4375 392.9531,45.0469 392.4844,45.0469 C392.2656,45.0469 392.0625,45.125 391.875,45.3125 C391.4219,45.7969 391.4219,45.7969 391.2344,45.8906 C390.8125,46.1563 390.125,46.2813 389.3594,46.2813 C387.3125,46.2813 386.0156,45.1875 386.0156,43.4844 L386.0156,42.3906 C386.0156,40.6094 387.2656,39.2969 389,39.2969 C389.5781,39.2969 390.1875,39.4531 390.6563,39.7031 C391.1406,39.9844 391.3125,40.2031 391.4063,40.6094 C391.4688,41.0156 391.5,41.1406 391.6406,41.2656 C391.7813,41.4063 392.0156,41.5156 392.2344,41.5156 C392.5,41.5156 392.7656,41.375 392.9375,41.1563 C393.0469,41 393.0781,40.8125 393.0781,40.3906 L393.0781,38.9688 C393.0781,38.5313 393.0625,38.4063 392.9688,38.25 C392.8125,37.9844 392.5313,37.8438 392.2344,37.8438 C391.9375,37.8438 391.7344,37.9375 391.5156,38.25 L391.3438,38.1719 Z " fill="#FFFFFF"/><text fill="#FFFFFF" font-family="Arial" font-size="14" lengthAdjust="spacing" textLength="90" x="401" y="47.3467">uneatlantico</text><line style="stroke:#FFFFFF;stroke-width:1.0;" x1="377" x2="493" y1="56.5" y2="56.5"/><line style="stroke:#FFFFFF;stroke-width:1.0;" x1="377" x2="493" y1="64.5" y2="64.5"/></g><!--class usuarioAlumni--><g id="elem_usuarioAlumni"><rect codeLine="8" fill="#0B58A8" height="76.5938" id="usuarioAlumni" rx="2.5" ry="2.5" style="stroke:#FFFFFF;stroke-width:1.0;" width="188" x="12" y="253"/><ellipse cx="52.75" cy="267" fill="#0B58A8" rx="9" ry="9" style="stroke:#FFFFFF;stroke-width:1.0;"/><path d="M55.0938,262.6719 C54.1563,262.2344 53.5625,262.0938 52.6875,262.0938 C50.0625,262.0938 48.0625,264.1719 48.0625,266.8906 L48.0625,268.0156 C48.0625,270.5938 50.1719,272.4844 53.0625,272.4844 C54.2813,272.4844 55.4375,272.1875 56.1875,271.6406 C56.7656,271.2344 57.0938,270.7813 57.0938,270.3906 C57.0938,269.9375 56.7031,269.5469 56.2344,269.5469 C56.0156,269.5469 55.8125,269.625 55.625,269.8125 C55.1719,270.2969 55.1719,270.2969 54.9844,270.3906 C54.5625,270.6563 53.875,270.7813 53.1094,270.7813 C51.0625,270.7813 49.7656,269.6875 49.7656,267.9844 L49.7656,266.8906 C49.7656,265.1094 51.0156,263.7969 52.75,263.7969 C53.3281,263.7969 53.9375,263.9531 54.4063,264.2031 C54.8906,264.4844 55.0625,264.7031 55.1563,265.1094 C55.2188,265.5156 55.25,265.6406 55.3906,265.7656 C55.5313,265.9063 55.7656,266.0156 55.9844,266.0156 C56.25,266.0156 56.5156,265.875 56.6875,265.6563 C56.7969,265.5 56.8281,265.3125 56.8281,264.8906 L56.8281,263.4688 C56.8281,263.0313 56.8125,262.9063 56.7188,262.75 C56.5625,262.4844 56.2813,262.3438 55.9844,262.3438 C55.6875,262.3438 55.4844,262.4375 55.2656,262.75 L55.0938,262.6719 Z " fill="#FFFFFF"/><text fill="#FFFFFF" font-family="Arial" font-size="14" lengthAdjust="spacing" textLength="99" x="70.25" y="271.8467">usuarioAlumni</text><line style="stroke:#FFFFFF;stroke-width:1.0;" x1="13" x2="199" y1="281" y2="281"/><ellipse cx="23" cy="294.6484" fill="none" rx="3" ry="3" style="stroke:#FFFFFF;stroke-width:1.0;"/><text fill="#FFFFFF" font-family="Arial" font-size="14" lengthAdjust="spacing" textLength="119" x="30" y="297.9951">dominio@alumni</text><rect fill="none" height="6" style="stroke:#FFFFFF;stroke-width:1.0;" width="6" x="20" y="307.9453"/><text fill="#FFFFFF" font-family="Arial" font-size="14" lengthAdjust="spacing" textLength="164" x="30" y="314.292">Membresia membresia</text><line style="stroke:#FFFFFF;stroke-width:1.0;" x1="13" x2="199" y1="321.5938" y2="321.5938"/></g><!--class exalumnoAlumni--><g id="elem_exalumnoAlumni"><rect codeLine="12" fill="#0B58A8" height="44" id="exalumnoAlumni" rx="2.5" ry="2.5" style="stroke:#FFFFFF;stroke-width:1.0;" width="146" x="362" y="149"/><ellipse cx="375" cy="163" fill="#0B58A8" rx="9" ry="9" style="stroke:#FFFFFF;stroke-width:1.0;"/><path d="M377.3438,158.6719 C376.4063,158.2344 375.8125,158.0938 374.9375,158.0938 C372.3125,158.0938 370.3125,160.1719 370.3125,162.8906 L370.3125,164.0156 C370.3125,166.5938 372.4219,168.4844 375.3125,168.4844 C376.5313,168.4844 377.6875,168.1875 378.4375,167.6406 C379.0156,167.2344 379.3438,166.7813 379.3438,166.3906 C379.3438,165.9375 378.9531,165.5469 378.4844,165.5469 C378.2656,165.5469 378.0625,165.625 377.875,165.8125 C377.4219,166.2969 377.4219,166.2969 377.2344,166.3906 C376.8125,166.6563 376.125,166.7813 375.3594,166.7813 C373.3125,166.7813 372.0156,165.6875 372.0156,163.9844 L372.0156,162.8906 C372.0156,161.1094 373.2656,159.7969 375,159.7969 C375.5781,159.7969 376.1875,159.9531 376.6563,160.2031 C377.1406,160.4844 377.3125,160.7031 377.4063,161.1094 C377.4688,161.5156 377.5,161.6406 377.6406,161.7656 C377.7813,161.9063 378.0156,162.0156 378.2344,162.0156 C378.5,162.0156 378.7656,161.875 378.9375,161.6563 C379.0469,161.5 379.0781,161.3125 379.0781,160.8906 L379.0781,159.4688 C379.0781,159.0313 379.0625,158.9063 378.9688,158.75 C378.8125,158.4844 378.5313,158.3438 378.2344,158.3438 C377.9375,158.3438 377.7344,158.4375 377.5156,158.75 L377.3438,158.6719 Z " fill="#FFFFFF"/><text fill="#FFFFFF" font-family="Arial" font-size="14" lengthAdjust="spacing" textLength="118" x="387" y="167.8467">exalumnoAlumni</text><line style="stroke:#FFFFFF;stroke-width:1.0;" x1="363" x2="507" y1="177" y2="177"/><line style="stroke:#FFFFFF;stroke-width:1.0;" x1="363" x2="507" y1="185" y2="185"/></g><!--class Membresia--><g id="elem_Membresia"><rect codeLine="15" fill="#0B58A8" height="76.5938" id="Membresia" rx="2.5" ry="2.5" style="stroke:#FFFFFF;stroke-width:1.0;" width="171" x="691.5" y="12"/><ellipse cx="733.75" cy="26" fill="#0B58A8" rx="9" ry="9" style="stroke:#FFFFFF;stroke-width:1.0;"/><path d="M736.0938,21.6719 C735.1563,21.2344 734.5625,21.0938 733.6875,21.0938 C731.0625,21.0938 729.0625,23.1719 729.0625,25.8906 L729.0625,27.0156 C729.0625,29.5938 731.1719,31.4844 734.0625,31.4844 C735.2813,31.4844 736.4375,31.1875 737.1875,30.6406 C737.7656,30.2344 738.0938,29.7813 738.0938,29.3906 C738.0938,28.9375 737.7031,28.5469 737.2344,28.5469 C737.0156,28.5469 736.8125,28.625 736.625,28.8125 C736.1719,29.2969 736.1719,29.2969 735.9844,29.3906 C735.5625,29.6563 734.875,29.7813 734.1094,29.7813 C732.0625,29.7813 730.7656,28.6875 730.7656,26.9844 L730.7656,25.8906 C730.7656,24.1094 732.0156,22.7969 733.75,22.7969 C734.3281,22.7969 734.9375,22.9531 735.4063,23.2031 C735.8906,23.4844 736.0625,23.7031 736.1563,24.1094 C736.2188,24.5156 736.25,24.6406 736.3906,24.7656 C736.5313,24.9063 736.7656,25.0156 736.9844,25.0156 C737.25,25.0156 737.5156,24.875 737.6875,24.6563 C737.7969,24.5 737.8281,24.3125 737.8281,23.8906 L737.8281,22.4688 C737.8281,22.0313 737.8125,21.9063 737.7188,21.75 C737.5625,21.4844 737.2813,21.3438 736.9844,21.3438 C736.6875,21.3438 736.4844,21.4375 736.2656,21.75 L736.0938,21.6719 Z " fill="#FFFFFF"/><text fill="#FFFFFF" font-family="Arial" font-size="14" lengthAdjust="spacing" textLength="79" x="751.25" y="30.8467">Membresia</text><line style="stroke:#FFFFFF;stroke-width:1.0;" x1="692.5" x2="861.5" y1="40" y2="40"/><rect fill="none" height="6" style="stroke:#FFFFFF;stroke-width:1.0;" width="6" x="699.5" y="50.6484"/><text fill="#FFFFFF" font-family="Arial" font-size="14" lengthAdjust="spacing" textLength="40" x="709.5" y="56.9951">coste</text><line style="stroke:#FFFFFF;stroke-width:1.0;" x1="692.5" x2="861.5" y1="64.2969" y2="64.2969"/><rect fill="#0B58A8" height="6" style="stroke:#FFFFFF;stroke-width:1.0;" width="6" x="699.5" y="74.9453"/><text fill="#FFFFFF" font-family="Arial" font-size="14" lengthAdjust="spacing" textLength="147" x="709.5" y="81.292">obtener privilegios()</text></g><!--class premium--><g id="elem_premium"><rect codeLine="19" fill="#0B58A8" height="44" id="premium" rx="2.5" ry="2.5" style="stroke:#FFFFFF;stroke-width:1.0;" width="93" x="543.5" y="149"/><ellipse cx="556.5" cy="163" fill="#0B58A8" rx="9" ry="9" style="stroke:#FFFFFF;stroke-width:1.0;"/><path d="M558.8438,158.6719 C557.9063,158.2344 557.3125,158.0938 556.4375,158.0938 C553.8125,158.0938 551.8125,160.1719 551.8125,162.8906 L551.8125,164.0156 C551.8125,166.5938 553.9219,168.4844 556.8125,168.4844 C558.0313,168.4844 559.1875,168.1875 559.9375,167.6406 C560.5156,167.2344 560.8438,166.7813 560.8438,166.3906 C560.8438,165.9375 560.4531,165.5469 559.9844,165.5469 C559.7656,165.5469 559.5625,165.625 559.375,165.8125 C558.9219,166.2969 558.9219,166.2969 558.7344,166.3906 C558.3125,166.6563 557.625,166.7813 556.8594,166.7813 C554.8125,166.7813 553.5156,165.6875 553.5156,163.9844 L553.5156,162.8906 C553.5156,161.1094 554.7656,159.7969 556.5,159.7969 C557.0781,159.7969 557.6875,159.9531 558.1563,160.2031 C558.6406,160.4844 558.8125,160.7031 558.9063,161.1094 C558.9688,161.5156 559,161.6406 559.1406,161.7656 C559.2813,161.9063 559.5156,162.0156 559.7344,162.0156 C560,162.0156 560.2656,161.875 560.4375,161.6563 C560.5469,161.5 560.5781,161.3125 560.5781,160.8906 L560.5781,159.4688 C560.5781,159.0313 560.5625,158.9063 560.4688,158.75 C560.3125,158.4844 560.0313,158.3438 559.7344,158.3438 C559.4375,158.3438 559.2344,158.4375 559.0156,158.75 L558.8438,158.6719 Z " fill="#FFFFFF"/><text fill="#FFFFFF" font-family="Arial" font-size="14" lengthAdjust="spacing" textLength="65" x="568.5" y="167.8467">premium</text><line style="stroke:#FFFFFF;stroke-width:1.0;" x1="544.5" x2="635.5" y1="177" y2="177"/><line style="stroke:#FFFFFF;stroke-width:1.0;" x1="544.5" x2="635.5" y1="185" y2="185"/></g><!--class empresa--><g id="elem_empresa"><rect codeLine="20" fill="#0B58A8" height="44" id="empresa" rx="2.5" ry="2.5" style="stroke:#FFFFFF;stroke-width:1.0;" width="91" x="671.5" y="149"/><ellipse cx="684.5" cy="163" fill="#0B58A8" rx="9" ry="9" style="stroke:#FFFFFF;stroke-width:1.0;"/><path d="M686.8438,158.6719 C685.9063,158.2344 685.3125,158.0938 684.4375,158.0938 C681.8125,158.0938 679.8125,160.1719 679.8125,162.8906 L679.8125,164.0156 C679.8125,166.5938 681.9219,168.4844 684.8125,168.4844 C686.0313,168.4844 687.1875,168.1875 687.9375,167.6406 C688.5156,167.2344 688.8438,166.7813 688.8438,166.3906 C688.8438,165.9375 688.4531,165.5469 687.9844,165.5469 C687.7656,165.5469 687.5625,165.625 687.375,165.8125 C686.9219,166.2969 686.9219,166.2969 686.7344,166.3906 C686.3125,166.6563 685.625,166.7813 684.8594,166.7813 C682.8125,166.7813 681.5156,165.6875 681.5156,163.9844 L681.5156,162.8906 C681.5156,161.1094 682.7656,159.7969 684.5,159.7969 C685.0781,159.7969 685.6875,159.9531 686.1563,160.2031 C686.6406,160.4844 686.8125,160.7031 686.9063,161.1094 C686.9688,161.5156 687,161.6406 687.1406,161.7656 C687.2813,161.9063 687.5156,162.0156 687.7344,162.0156 C688,162.0156 688.2656,161.875 688.4375,161.6563 C688.5469,161.5 688.5781,161.3125 688.5781,160.8906 L688.5781,159.4688 C688.5781,159.0313 688.5625,158.9063 688.4688,158.75 C688.3125,158.4844 688.0313,158.3438 687.7344,158.3438 C687.4375,158.3438 687.2344,158.4375 687.0156,158.75 L686.8438,158.6719 Z " fill="#FFFFFF"/><text fill="#FFFFFF" font-family="Arial" font-size="14" lengthAdjust="spacing" textLength="63" x="696.5" y="167.8467">empresa</text><line style="stroke:#FFFFFF;stroke-width:1.0;" x1="672.5" x2="761.5" y1="177" y2="177"/><line style="stroke:#FFFFFF;stroke-width:1.0;" x1="672.5" x2="761.5" y1="185" y2="185"/></g><!--class platino--><g id="elem_platino"><rect codeLine="21" fill="#0B58A8" height="44" id="platino" rx="2.5" ry="2.5" style="stroke:#FFFFFF;stroke-width:1.0;" width="79" x="797.5" y="149"/><ellipse cx="810.5" cy="163" fill="#0B58A8" rx="9" ry="9" style="stroke:#FFFFFF;stroke-width:1.0;"/><path d="M812.8438,158.6719 C811.9063,158.2344 811.3125,158.0938 810.4375,158.0938 C807.8125,158.0938 805.8125,160.1719 805.8125,162.8906 L805.8125,164.0156 C805.8125,166.5938 807.9219,168.4844 810.8125,168.4844 C812.0313,168.4844 813.1875,168.1875 813.9375,167.6406 C814.5156,167.2344 814.8438,166.7813 814.8438,166.3906 C814.8438,165.9375 814.4531,165.5469 813.9844,165.5469 C813.7656,165.5469 813.5625,165.625 813.375,165.8125 C812.9219,166.2969 812.9219,166.2969 812.7344,166.3906 C812.3125,166.6563 811.625,166.7813 810.8594,166.7813 C808.8125,166.7813 807.5156,165.6875 807.5156,163.9844 L807.5156,162.8906 C807.5156,161.1094 808.7656,159.7969 810.5,159.7969 C811.0781,159.7969 811.6875,159.9531 812.1563,160.2031 C812.6406,160.4844 812.8125,160.7031 812.9063,161.1094 C812.9688,161.5156 813,161.6406 813.1406,161.7656 C813.2813,161.9063 813.5156,162.0156 813.7344,162.0156 C814,162.0156 814.2656,161.875 814.4375,161.6563 C814.5469,161.5 814.5781,161.3125 814.5781,160.8906 L814.5781,159.4688 C814.5781,159.0313 814.5625,158.9063 814.4688,158.75 C814.3125,158.4844 814.0313,158.3438 813.7344,158.3438 C813.4375,158.3438 813.2344,158.4375 813.0156,158.75 L812.8438,158.6719 Z " fill="#FFFFFF"/><text fill="#FFFFFF" font-family="Arial" font-size="14" lengthAdjust="spacing" textLength="51" x="822.5" y="167.8467">platino</text><line style="stroke:#FFFFFF;stroke-width:1.0;" x1="798.5" x2="875.5" y1="177" y2="177"/><line style="stroke:#FFFFFF;stroke-width:1.0;" x1="798.5" x2="875.5" y1="185" y2="185"/></g><!--class default--><g id="elem_default"><rect codeLine="22" fill="#0B58A8" height="44" id="default" rx="2.5" ry="2.5" style="stroke:#FFFFFF;stroke-width:1.0;" width="79" x="911.5" y="149"/><ellipse cx="924.5" cy="163" fill="#0B58A8" rx="9" ry="9" style="stroke:#FFFFFF;stroke-width:1.0;"/><path d="M926.8438,158.6719 C925.9063,158.2344 925.3125,158.0938 924.4375,158.0938 C921.8125,158.0938 919.8125,160.1719 919.8125,162.8906 L919.8125,164.0156 C919.8125,166.5938 921.9219,168.4844 924.8125,168.4844 C926.0313,168.4844 927.1875,168.1875 927.9375,167.6406 C928.5156,167.2344 928.8438,166.7813 928.8438,166.3906 C928.8438,165.9375 928.4531,165.5469 927.9844,165.5469 C927.7656,165.5469 927.5625,165.625 927.375,165.8125 C926.9219,166.2969 926.9219,166.2969 926.7344,166.3906 C926.3125,166.6563 925.625,166.7813 924.8594,166.7813 C922.8125,166.7813 921.5156,165.6875 921.5156,163.9844 L921.5156,162.8906 C921.5156,161.1094 922.7656,159.7969 924.5,159.7969 C925.0781,159.7969 925.6875,159.9531 926.1563,160.2031 C926.6406,160.4844 926.8125,160.7031 926.9063,161.1094 C926.9688,161.5156 927,161.6406 927.1406,161.7656 C927.2813,161.9063 927.5156,162.0156 927.7344,162.0156 C928,162.0156 928.2656,161.875 928.4375,161.6563 C928.5469,161.5 928.5781,161.3125 928.5781,160.8906 L928.5781,159.4688 C928.5781,159.0313 928.5625,158.9063 928.4688,158.75 C928.3125,158.4844 928.0313,158.3438 927.7344,158.3438 C927.4375,158.3438 927.2344,158.4375 927.0156,158.75 L926.8438,158.6719 Z " fill="#FFFFFF"/><text fill="#FFFFFF" font-family="Arial" font-size="14" lengthAdjust="spacing" textLength="51" x="936.5" y="167.8467">default</text><line style="stroke:#FFFFFF;stroke-width:1.0;" x1="912.5" x2="989.5" y1="177" y2="177"/><line style="stroke:#FFFFFF;stroke-width:1.0;" x1="912.5" x2="989.5" y1="185" y2="185"/></g><!--class Empresa--><g id="elem_Empresa"><rect fill="#0B58A8" height="44" id="Empresa" rx="2.5" ry="2.5" style="stroke:#FFFFFF;stroke-width:1.0;" width="91" x="235.5" y="269.5"/><ellipse cx="248.5" cy="283.5" fill="#0B58A8" rx="9" ry="9" style="stroke:#FFFFFF;stroke-width:1.0;"/><path d="M250.8438,279.1719 C249.9063,278.7344 249.3125,278.5938 248.4375,278.5938 C245.8125,278.5938 243.8125,280.6719 243.8125,283.3906 L243.8125,284.5156 C243.8125,287.0938 245.9219,288.9844 248.8125,288.9844 C250.0313,288.9844 251.1875,288.6875 251.9375,288.1406 C252.5156,287.7344 252.8438,287.2813 252.8438,286.8906 C252.8438,286.4375 252.4531,286.0469 251.9844,286.0469 C251.7656,286.0469 251.5625,286.125 251.375,286.3125 C250.9219,286.7969 250.9219,286.7969 250.7344,286.8906 C250.3125,287.1563 249.625,287.2813 248.8594,287.2813 C246.8125,287.2813 245.5156,286.1875 245.5156,284.4844 L245.5156,283.3906 C245.5156,281.6094 246.7656,280.2969 248.5,280.2969 C249.0781,280.2969 249.6875,280.4531 250.1563,280.7031 C250.6406,280.9844 250.8125,281.2031 250.9063,281.6094 C250.9688,282.0156 251,282.1406 251.1406,282.2656 C251.2813,282.4063 251.5156,282.5156 251.7344,282.5156 C252,282.5156 252.2656,282.375 252.4375,282.1563 C252.5469,282 252.5781,281.8125 252.5781,281.3906 L252.5781,279.9688 C252.5781,279.5313 252.5625,279.4063 252.4688,279.25 C252.3125,278.9844 252.0313,278.8438 251.7344,278.8438 C251.4375,278.8438 251.2344,278.9375 251.0156,279.25 L250.8438,279.1719 Z " fill="#FFFFFF"/><text fill="#FFFFFF" font-family="Arial" font-size="14" lengthAdjust="spacing" textLength="63" x="260.5" y="288.3467">Empresa</text><line style="stroke:#FFFFFF;stroke-width:1.0;" x1="236.5" x2="325.5" y1="297.5" y2="297.5"/><line style="stroke:#FFFFFF;stroke-width:1.0;" x1="236.5" x2="325.5" y1="305.5" y2="305.5"/></g><!--link Alumni to usuarioAlumni--><g id="link_Alumni_usuarioAlumni"><path codeLine="24" d="M106,193.185 C106,209.695 106,227.043 106,246.731 " fill="none" id="Alumni-to-usuarioAlumni" style="stroke:#FFFFFF;stroke-width:1.0;"/><polygon fill="#FFFFFF" points="106,252.731,110,243.731,106,247.731,102,243.731,106,252.731" style="stroke:#FFFFFF;stroke-width:1.0;"/></g><!--link usuarioAlumni to alumnoEgresado--><g id="link_usuarioAlumni_alumnoEgresado"><path codeLine="25" d="M164.48,252.8346 C185.906,240.8013 210.938,229.096 235.5,223 C274.754,213.258 287.648,211.762 326.5,223 C357.743,232.0373 383.9283,249.3316 404.7113,265.7178 " fill="none" id="usuarioAlumni-to-alumnoEgresado" style="stroke:#FFFFFF;stroke-width:1.0;"/><polygon fill="#FFFFFF" points="409.423,269.4327,404.8321,260.7193,405.4966,266.337,399.8789,267.0015,409.423,269.4327" style="stroke:#FFFFFF;stroke-width:1.0;"/></g><!--link usuarioAlumni to Empresa--><g id="link_usuarioAlumni_Empresa"><path codeLine="26" d="M200.336,291.5 C211.994,291.5 217.653,291.5 229.311,291.5 " fill="none" id="usuarioAlumni-to-Empresa" style="stroke:#FFFFFF;stroke-width:1.0;"/><polygon fill="#FFFFFF" points="235.311,291.5,226.311,287.5,230.311,291.5,226.311,295.5,235.311,291.5" style="stroke:#FFFFFF;stroke-width:1.0;"/></g><!--link uneatlantico to exalumnoAlumni--><g id="link_uneatlantico_exalumnoAlumni"><path codeLine="27" d="M435,72.685 C435,94.255 435,121.495 435,142.998 " fill="none" id="uneatlantico-to-exalumnoAlumni" style="stroke:#FFFFFF;stroke-width:1.0;"/><polygon fill="#FFFFFF" points="435,148.998,439,139.998,435,143.998,431,139.998,435,148.998" style="stroke:#FFFFFF;stroke-width:1.0;"/></g><!--link exalumnoAlumni to alumnoEgresado--><g id="link_exalumnoAlumni_alumnoEgresado"><path codeLine="28" d="M435,193.185 C435,214.755 435,247.9952 435,269.498 " fill="none" id="exalumnoAlumni-alumnoEgresado" style="stroke:#FFFFFF;stroke-width:1.0;"/></g><!--link Membresia to premium--><g id="link_Membresia_premium"><path codeLine="29" d="M717.575,89.157 C686.454,108.878 664.7024,122.6624 638.5974,139.2044 " fill="none" id="Membresia-to-premium" style="stroke:#FFFFFF;stroke-width:1.0;"/><polygon fill="none" points="623.393,148.839,641.809,144.2725,635.3859,134.1363,623.393,148.839" style="stroke:#FFFFFF;stroke-width:1.0;"/></g><!--link Membresia to platino--><g id="link_Membresia_platino"><path codeLine="30" d="M796.149,89.32 C806.095,108.963 809.7496,116.1778 818.0986,132.6688 " fill="none" id="Membresia-to-platino" style="stroke:#FFFFFF;stroke-width:1.0;"/><polygon fill="none" points="826.229,148.728,823.4517,129.9587,812.7456,135.379,826.229,148.728" style="stroke:#FFFFFF;stroke-width:1.0;"/></g><!--link Membresia to empresa--><g id="link_Membresia_empresa"><path codeLine="31" d="M757.851,89.32 C747.905,108.963 744.2504,116.1778 735.9014,132.6688 " fill="none" id="Membresia-to-empresa" style="stroke:#FFFFFF;stroke-width:1.0;"/><polygon fill="none" points="727.771,148.728,741.2544,135.379,730.5483,129.9587,727.771,148.728" style="stroke:#FFFFFF;stroke-width:1.0;"/></g><!--link Membresia to default--><g id="link_Membresia_default"><path codeLine="32" d="M832.533,89.32 C861.376,108.963 880.6736,122.1047 904.8876,138.5957 " fill="none" id="Membresia-to-default" style="stroke:#FFFFFF;stroke-width:1.0;"/><polygon fill="none" points="919.765,148.728,908.265,133.6366,901.5102,143.5548,919.765,148.728" style="stroke:#FFFFFF;stroke-width:1.0;"/></g><!--SRC=[NL3BRiCm3BlhAxpRXi6VqA35qDssVr0IBHDgIu4Vmu1k_zuKiOCwDvCqAL5FwPiy6VGy8SGBoum1lUbnk4n1iunlwZIO553Y8f6aXryZVM5swLqbVUAISWgC3c1m6ACvkUo52y0xqFCKAEAeXSn2c1nAuc6ZOiR0kdgly3ggPs4zuXfcFyZtImQZyVK5_yLBl-kKQjw4pNG5EsXC15RxH4B1p85_sD746fzVDiCSo7FsDTVFzxMhvZ2nr7tB1G3MeTPsJGDeaErsPzYfvpBeyIvBOjiBMdWux3AtijR-TRL8IvO63LbBDcHfTmC0]--></g></svg>