<?xml version="1.0" encoding="UTF-8" standalone="no"?><svg xmlns="http://www.w3.org/2000/svg" xmlns:xlink="http://www.w3.org/1999/xlink" contentStyleType="text/css" height="709px" preserveAspectRatio="none" style="width:482px;height:709px;background:#FFFFFF;" version="1.1" viewBox="0 0 482 709" width="482px" zoomAndPan="magnify"><defs/><g><rect fill="none" height="27.6094" id="_title" style="stroke:none;stroke-width:1.0;" width="128" x="167" y="5"/><text fill="#000000" font-family="sans-serif" font-size="14" font-weight="bold" lengthAdjust="spacing" textLength="118" x="172" y="24.5332">Eliminar Paquete</text><rect fill="#F1F1F1" height="40" rx="12.5" ry="12.5" style="stroke:#181818;stroke-width:0.5;" width="54" x="211" y="45.6094"/><text fill="#000000" font-family="sans-serif" font-size="14" lengthAdjust="spacing" textLength="44" x="216" y="71.3379">INITIAL</text><path d="M19.5,197.6094 L456.5,197.6094 A12.5,12.5 0 0 1 469,210.1094 L469,225.2188 L7,225.2188 L7,210.1094 A12.5,12.5 0 0 1 19.5,197.6094 " fill="#F1F1F1" style="stroke:#F1F1F1;stroke-width:1.0;"/><rect fill="none" height="505.6094" rx="12.5" ry="12.5" style="stroke:#181818;stroke-width:0.5;" width="462" x="7" y="197.6094"/><line style="stroke:#181818;stroke-width:0.5;" x1="7" x2="469" y1="225.2188" y2="225.2188"/><text fill="#000000" font-family="sans-serif" font-size="14" lengthAdjust="spacing" textLength="103" x="186.5" y="217.1426">EliminarPaquete</text><rect fill="#F1F1F1" height="40" rx="12.5" ry="12.5" style="stroke:#181818;stroke-width:0.5;" width="50" x="109" y="293.2188"/><text fill="#000000" font-family="sans-serif" font-size="14" lengthAdjust="spacing" textLength="4" x="132" y="318.9473"> </text><rect fill="#F1F1F1" height="40" rx="12.5" ry="12.5" style="stroke:#181818;stroke-width:0.5;" width="50" x="19" y="427.2188"/><text fill="#000000" font-family="sans-serif" font-size="14" lengthAdjust="spacing" textLength="4" x="42" y="452.9473"> </text><g id="elem_4"><polygon fill="#F1F1F1" points="123,561.2188,135,573.2188,123,585.2188,111,573.2188,123,561.2188" style="stroke:#181818;stroke-width:0.5;"/></g><ellipse cx="134" cy="246.2188" fill="#222222" rx="10" ry="10" style="stroke:none;stroke-width:1.0;"/><ellipse cx="123" cy="683.2188" fill="none" rx="10" ry="10" style="stroke:#222222;stroke-width:1.0;"/><ellipse cx="123.5" cy="683.7188" fill="#222222" rx="6" ry="6" style="stroke:none;stroke-width:1.0;"/><!--MD5=[db68392c9f6c0259349168dc54a1d243]
link *start*EliminarPaquete to 2--><g id="link_*start*EliminarPaquete_2"><path d="M134,256.2588 C134,264.4088 134,276.7788 134,287.8188 " fill="none" id="*start*EliminarPaquete-to-2" style="stroke:#008000;stroke-width:1.0;"/><polygon fill="#008000" points="134,293.1088,138,284.1088,134,288.1088,130,284.1088,134,293.1088" style="stroke:#008000;stroke-width:1.0;"/></g><!--MD5=[eeb69082328d10abd3b14fdeede0d8a3]
link 2 to 3--><g id="link_2_3"><path d="M108.68,327.9988 C89.35,338.5188 66,351.2188 66,351.2188 C66,351.2188 56.15,393.7688 49.63,421.9188 " fill="none" id="2-to-3" style="stroke:#008000;stroke-width:1.0;"/><polygon fill="#008000" points="48.45,426.9988,54.378,419.1337,49.5785,422.1278,46.5845,417.3282,48.45,426.9988" style="stroke:#008000;stroke-width:1.0;"/><path d="M71,356.2188 L71,398.2188 L204,398.2188 L204,366.2188 L194,356.2188 L71,356.2188 " fill="#F5F5F5" style="stroke:#181818;stroke-width:0.5;"/><path d="M194,356.2188 L194,366.2188 L204,366.2188 L194,356.2188 " fill="#F5F5F5" style="stroke:#181818;stroke-width:0.5;"/><text fill="#000000" font-family="sans-serif" font-size="13" font-weight="bold" lengthAdjust="spacing" textLength="105" x="77" y="374.7139">Sistema Permite</text><ellipse cx="82.5" cy="386.4219" fill="#000000" rx="2.5" ry="2.5" style="stroke:#000000;stroke-width:0.0;"/><text fill="#000000" font-family="sans-serif" font-size="13" lengthAdjust="spacing" textLength="99" x="90" y="391.0654">Eliminar Paquete</text></g><!--MD5=[b1f22f0c97e7f2b556a5a2d67c42ac53]
link 3 to 4--><g id="link_3_4"><path d="M35.5,467.4588 C30.44,478.9088 25,491.2188 25,491.2188 C25,491.2188 25,543.2188 25,543.2188 C25,543.2188 82.41,560.2088 109.35,568.1788 " fill="none" id="3-to-4" style="stroke:#008000;stroke-width:1.0;"/><polygon fill="#008000" points="114.3,569.6488,106.8149,563.2477,109.5077,568.2225,104.5329,570.9153,114.3,569.6488" style="stroke:#008000;stroke-width:1.0;"/><path d="M30,496.2188 L30,538.2188 L204,538.2188 L204,506.2188 L194,496.2188 L30,496.2188 " fill="#F5F5F5" style="stroke:#181818;stroke-width:0.5;"/><path d="M194,496.2188 L194,506.2188 L204,506.2188 L194,496.2188 " fill="#F5F5F5" style="stroke:#181818;stroke-width:0.5;"/><text fill="#000000" font-family="sans-serif" font-size="13" font-weight="bold" lengthAdjust="spacing" textLength="153" x="36" y="514.7139">Amdinistrador Introduce</text><ellipse cx="41.5" cy="526.4219" fill="#000000" rx="2.5" ry="2.5" style="stroke:#000000;stroke-width:0.0;"/><text fill="#000000" font-family="sans-serif" font-size="13" lengthAdjust="spacing" textLength="118" x="49" y="531.0654">Nombre del Paquete</text></g><!--MD5=[51cfe3d02ac0e53afc5c10a14fdfe22d]
link 4 to *end*EliminarPaquete--><g id="link_4_*end*EliminarPaquete"><path d="M123,585.3688 C123,605.1488 123,646.3088 123,668.0587 " fill="none" id="4-to-*end*EliminarPaquete" style="stroke:#008000;stroke-width:1.0;"/><polygon fill="#008000" points="123,673.1388,127,664.1388,123,668.1388,119,664.1388,123,673.1388" style="stroke:#008000;stroke-width:1.0;"/><path d="M128,608.2188 L128,650.2188 L308,650.2188 L308,618.2188 L298,608.2188 L128,608.2188 " fill="#F5F5F5" style="stroke:#181818;stroke-width:0.5;"/><path d="M298,608.2188 L298,618.2188 L308,618.2188 L298,608.2188 " fill="#F5F5F5" style="stroke:#181818;stroke-width:0.5;"/><text fill="#000000" font-family="sans-serif" font-size="13" font-weight="bold" lengthAdjust="spacing" textLength="105" x="134" y="626.7139">Sistema Muestra</text><ellipse cx="139.5" cy="638.4219" fill="#000000" rx="2.5" ry="2.5" style="stroke:#000000;stroke-width:0.0;"/><text fill="#000000" font-family="sans-serif" font-size="13" lengthAdjust="spacing" textLength="146" x="147" y="643.0654">Mensaje de Confirmación</text></g><!--MD5=[d5d43b3f3dfddbfb6ca65af0419a6a54]
link 4 to 2--><g id="link_4_2"><path d="M131.25,569.4388 C152.77,562.1788 209,543.2188 209,543.2188 C209,543.2188 209,351.2188 209,351.2188 C209,351.2188 184.93,339.3388 164.06,329.0488 " fill="none" id="4-to-2" style="stroke:#FF0000;stroke-width:1.0;"/><polygon fill="#FF0000" points="159.39,326.7488,165.6897,334.3193,163.8735,328.9619,169.2309,327.1457,159.39,326.7488" style="stroke:#FF0000;stroke-width:1.0;"/><path d="M214,426.2188 L214,468.2188 L460,468.2188 L460,436.2188 L450,426.2188 L214,426.2188 " fill="#F5F5F5" style="stroke:#181818;stroke-width:0.5;"/><path d="M450,426.2188 L450,436.2188 L460,436.2188 L450,426.2188 " fill="#F5F5F5" style="stroke:#181818;stroke-width:0.5;"/><text fill="#000000" font-family="sans-serif" font-size="13" font-weight="bold" lengthAdjust="spacing" textLength="105" x="220" y="444.7139">Sistema Muestra</text><ellipse cx="225.5" cy="456.4219" fill="#000000" rx="2.5" ry="2.5" style="stroke:#000000;stroke-width:0.0;"/><text fill="#000000" font-family="sans-serif" font-size="13" lengthAdjust="spacing" textLength="212" x="233" y="461.0654">Mensaje de error al eliminar Paquete</text></g><!--MD5=[3ee6ddda22734d2f41850e342f3e1ce6]
link startState to EliminarPaquete--><g id="link_startState_EliminarPaquete"><path d="M238,85.8694 C238,108.0694 238,147.2994 238,192.0094 " fill="none" id="startState-to-EliminarPaquete" style="stroke:#008000;stroke-width:1.0;"/><polygon fill="#008000" points="238,197.1994,242,188.1994,238,192.1994,234,188.1994,238,197.1994" style="stroke:#008000;stroke-width:1.0;"/><path d="M243,120.6094 L243,162.6094 L447,162.6094 L447,130.6094 L437,120.6094 L243,120.6094 " fill="#F5F5F5" style="stroke:#181818;stroke-width:0.5;"/><path d="M437,120.6094 L437,130.6094 L447,130.6094 L437,120.6094 " fill="#F5F5F5" style="stroke:#181818;stroke-width:0.5;"/><text fill="#000000" font-family="sans-serif" font-size="13" font-weight="bold" lengthAdjust="spacing" textLength="141" x="249" y="139.1045">Administrador Solicita</text><ellipse cx="254.5" cy="150.8125" fill="#000000" rx="2.5" ry="2.5" style="stroke:#000000;stroke-width:0.0;"/><text fill="#000000" font-family="sans-serif" font-size="13" lengthAdjust="spacing" textLength="170" x="262" y="155.4561">Elminar Paquete de Servicios</text></g><!--MD5=[fc8b5381e7b965c69e103c54d31ff6e6]
@startuml
title Eliminar Paquete

skinparam {
    NoteBackgroundColor #whiteSmoke
    ArrowColor #green
    NoteBorderColor #green
    linetype polyline
}

hide empty description

state startState as "INITIAL"

startState - -> EliminarPaquete
note on link
    <b>Administrador Solicita</b>
    * Elminar Paquete de Servicios
end note

state EliminarPaquete{
state 2 as " "
state 3 as " "
state 4 <<choice>>

[*] -down-> 2

2 -down-> 3
note on link
<b>Sistema Permite</b>
* Eliminar Paquete
end note

3 -down-> 4
note on link
<b>Amdinistrador Introduce</b>
* Nombre del Paquete
end note

4 -down-> [*]
note on link
<b>Sistema Muestra</b>
* Mensaje de Confirmación
end note

4 -[#red]-> 2
note on link
<b>Sistema Muestra</b>
* Mensaje de error al eliminar Paquete
end note

}
@enduml

PlantUML version 1.2022.7(Mon Aug 22 19:01:30 CEST 2022)
(GPL source distribution)
Java Runtime: Java(TM) SE Runtime Environment
JVM: Java HotSpot(TM) 64-Bit Server VM
Default Encoding: Cp1252
Language: es
Country: ES
--></g></svg>