<?xml version="1.0" encoding="us-ascii" standalone="no"?><svg xmlns="http://www.w3.org/2000/svg" xmlns:xlink="http://www.w3.org/1999/xlink" contentStyleType="text/css" height="1045px" preserveAspectRatio="none" style="width:699px;height:1045px;background:#FFFFFF;" version="1.1" viewBox="0 0 699 1045" width="699px" zoomAndPan="magnify"><defs><filter height="300%" id="f10i43qdifxia9" width="300%" x="-1" y="-1"><feGaussianBlur result="blurOut" stdDeviation="2.0"/><feColorMatrix in="blurOut" result="blurOut2" type="matrix" values="0 0 0 0 0 0 0 0 0 0 0 0 0 0 0 0 0 0 .4 0"/><feOffset dx="4.0" dy="4.0" in="blurOut2" result="blurOut3"/><feBlend in="SourceGraphic" in2="blurOut3" mode="normal"/></filter></defs><g><text fill="#000000" font-family="sans-serif" font-size="14" font-weight="bold" lengthAdjust="spacing" textLength="227" x="228" y="22.9951">Caso de Uso: Asignar Ticket</text><g id="DASHBOARD_ABIERTO"><rect fill="#FEFECE" filter="url(#f10i43qdifxia9)" height="50" rx="12.5" ry="12.5" style="stroke:#A80036;stroke-width:1.0;" width="182" x="249" y="44.2969"/><line style="stroke:#A80036;stroke-width:1.0;" x1="249" x2="431" y1="70.5938" y2="70.5938"/><text fill="#000000" font-family="sans-serif" font-size="14" lengthAdjust="spacing" textLength="162" x="259" y="62.292">DASHBOARD_ABIERTO</text></g><g id="VER_TICKET"><rect fill="#FEFECE" filter="url(#f10i43qdifxia9)" height="50" rx="12.5" ry="12.5" style="stroke:#A80036;stroke-width:1.0;" width="107" x="286.5" y="342.2969"/><line style="stroke:#A80036;stroke-width:1.0;" x1="286.5" x2="393.5" y1="368.5938" y2="368.5938"/><text fill="#000000" font-family="sans-serif" font-size="14" lengthAdjust="spacing" textLength="87" x="296.5" y="360.292">VER_TICKET</text></g><g id="FILTRAR_TICKETS"><rect fill="#FEFECE" filter="url(#f10i43qdifxia9)" height="50" rx="12.5" ry="12.5" style="stroke:#A80036;stroke-width:1.0;" width="146" x="267" y="193.2969"/><line style="stroke:#A80036;stroke-width:1.0;" x1="267" x2="413" y1="219.5938" y2="219.5938"/><text fill="#000000" font-family="sans-serif" font-size="14" lengthAdjust="spacing" textLength="126" x="277" y="211.292">FILTRAR_TICKETS</text></g><g id="OPEN_TICKET2"><rect fill="#FEFECE" filter="url(#f10i43qdifxia9)" height="50" rx="12.5" ry="12.5" style="stroke:#A80036;stroke-width:1.0;" width="107" x="286.5" y="981.2969"/><line style="stroke:#A80036;stroke-width:1.0;" x1="286.5" x2="393.5" y1="1007.5938" y2="1007.5938"/><text fill="#000000" font-family="sans-serif" font-size="14" lengthAdjust="spacing" textLength="87" x="296.5" y="999.292">VER_TICKET</text></g><rect fill="none" filter="url(#f10i43qdifxia9)" height="467.2969" rx="12.5" ry="12.5" style="stroke:#A80036;stroke-width:1.0;" width="666.2224" x="7" y="453.2969"/><path d="M19.5,453.2969 L660.7224,453.2969 A12.5,12.5 0 0 1 673.2224,465.7969 L673.2224,479.5938 L7,479.5938 L7,465.7969 A12.5,12.5 0 0 1 19.5,453.2969 " fill="#FEFECE" style="stroke:#FEFECE;stroke-width:1.0;"/><path d="M7,479.5938 L673.2224,479.5938 L673.2224,908.0938 A12.5,12.5 0 0 1 660.7224,920.5938 L19.5,920.5938 A12.5,12.5 0 0 1 7,908.0938 L7,479.5938 " fill="#FEFECE" style="stroke:#FEFECE;stroke-width:1.0;"/><rect fill="none" height="467.2969" rx="12.5" ry="12.5" style="stroke:#A80036;stroke-width:1.0;" width="666.2224" x="7" y="453.2969"/><line style="stroke:#A80036;stroke-width:1.0;" x1="7" x2="673.2224" y1="479.5938" y2="479.5938"/><text fill="#000000" font-family="sans-serif" font-size="14" lengthAdjust="spacing" textLength="99" x="290.6112" y="471.292">AsignarTicket</text><ellipse cx="200.2224" cy="500.5938" fill="#000000" filter="url(#f10i43qdifxia9)" rx="10" ry="10" style="stroke:#000000;stroke-width:1.0;"/><g id="AsignarTicket.ingresarVerTicket"><rect fill="#FEFECE" filter="url(#f10i43qdifxia9)" height="50" rx="12.5" ry="12.5" style="stroke:#A80036;stroke-width:1.0;" width="77" x="161.7224" y="585.5938"/><line style="stroke:#A80036;stroke-width:1.0;" x1="161.7224" x2="238.7224" y1="611.8906" y2="611.8906"/><text fill="#000000" font-family="sans-serif" font-size="14" lengthAdjust="spacing" textLength="53" x="171.7224" y="603.5889">Asignar</text></g><g id="AsignarTicket.confirmarAsignacion"><rect fill="#FEFECE" filter="url(#f10i43qdifxia9)" height="50" rx="12.5" ry="12.5" style="stroke:#A80036;stroke-width:1.0;" width="92" x="154.2224" y="755.5938"/><line style="stroke:#A80036;stroke-width:1.0;" x1="154.2224" x2="246.2224" y1="781.8906" y2="781.8906"/><text fill="#000000" font-family="sans-serif" font-size="14" lengthAdjust="spacing" textLength="72" x="164.2224" y="773.5889">Confirmar</text></g><ellipse cx="200.2224" cy="891.5938" fill="none" filter="url(#f10i43qdifxia9)" rx="11" ry="11" style="stroke:#000000;stroke-width:1.0;"/><ellipse cx="200.2224" cy="891.5938" fill="#000000" rx="6" ry="6" style="stroke:#000000;stroke-width:1.0;"/><!--link *start*AsignarTicket to ingresarVerTicket--><g id="link_*start*AsignarTicket_ingresarVerTicket"><path d="M200.2224,510.8018 C200.2224,527.1248 200.2224,555.6347 200.2224,579.2217 " fill="none" id="*start*AsignarTicket-to-ingresarVerTicket" style="stroke:#0000FF;stroke-width:1.0;"/><polygon fill="#0000FF" points="200.2224,585.2217,204.2224,576.2217,200.2224,580.2217,196.2224,576.2217,200.2224,585.2217" style="stroke:#0000FF;stroke-width:1.0;"/><path d="M205.2224,533.5938 L205.2224,558.5938 L493.2224,558.5938 L493.2224,543.5938 L483.2224,533.5938 L205.2224,533.5938 " fill="#FBFB77" filter="url(#f10i43qdifxia9)" style="stroke:#A80036;stroke-width:1.0;"/><path d="M483.2224,533.5938 L483.2224,543.5938 L493.2224,543.5938 L483.2224,533.5938 " fill="#FBFB77" style="stroke:#A80036;stroke-width:1.0;"/><text fill="#000000" font-family="sans-serif" font-size="13" font-weight="bold" lengthAdjust="spacing" textLength="134" x="211.2224" y="550.6606">El usuario solicita</text><text fill="#000000" font-family="sans-serif" font-size="13" lengthAdjust="spacing" textLength="129" x="349.2224" y="550.6606">asignar responsable</text></g><!--link ingresarVerTicket to confirmarAsignacion--><g id="link_ingresarVerTicket_confirmarAsignacion"><path d="M200.2224,635.6637 C200.2224,667.6008 200.2224,717.6538 200.2224,749.5677 " fill="none" id="ingresarVerTicket-to-confirmarAsignacion" style="stroke:#0000FF;stroke-width:1.0;"/><polygon fill="#0000FF" points="200.2224,755.5677,204.2224,746.5677,200.2224,750.5677,196.2224,746.5677,200.2224,755.5677" style="stroke:#0000FF;stroke-width:1.0;"/><path d="M205.2224,658.5938 L205.2224,728.5938 L397.2224,728.5938 L397.2224,668.5938 L387.2224,658.5938 L205.2224,658.5938 " fill="#FBFB77" filter="url(#f10i43qdifxia9)" style="stroke:#A80036;stroke-width:1.0;"/><path d="M387.2224,658.5938 L387.2224,668.5938 L397.2224,668.5938 L387.2224,658.5938 " fill="#FBFB77" style="stroke:#A80036;stroke-width:1.0;"/><text fill="#000000" font-family="sans-serif" font-size="13" font-weight="bold" lengthAdjust="spacing" textLength="134" x="211.2224" y="675.6606">El usuario solicita</text><text fill="#000000" font-family="sans-serif" font-size="13" lengthAdjust="spacing" textLength="5" x="345.2224" y="675.6606">:</text><text fill="#000000" font-family="sans-serif" font-size="13" lengthAdjust="spacing" textLength="158" x="219.2224" y="690.7935">&#176; Introducir desarrollador</text><text fill="#000000" font-family="sans-serif" font-size="13" font-weight="bold" lengthAdjust="spacing" textLength="147" x="211.2224" y="705.9263">El sistema muestra</text><text fill="#000000" font-family="sans-serif" font-size="13" lengthAdjust="spacing" textLength="5" x="358.2224" y="705.9263">:</text><text fill="#000000" font-family="sans-serif" font-size="13" lengthAdjust="spacing" textLength="163" x="219.2224" y="721.0591">&#176; Lista de desarrolladores</text></g><!--link confirmarAsignacion to *end*AsignarTicket--><g id="link_confirmarAsignacion_*end*AsignarTicket"><path d="M154.1674,786.5418 C108.9203,792.4648 44.5015,804.1081 29.2226,823.5938 C18.5273,837.234 18,849.3841 29.2226,862.5938 C49.9661,887.0101 148.5708,890.1146 183.1258,890.4906 " fill="none" id="confirmarAsignacion-to-*end*AsignarTicket" style="stroke:#0000FF;stroke-width:1.0;"/><polygon fill="#0000FF" points="189.1254,890.5559,180.1695,886.4582,184.1257,890.5014,180.0825,894.4577,189.1254,890.5559" style="stroke:#0000FF;stroke-width:1.0;"/><path d="M34.2226,828.5938 L34.2226,853.5938 L342.2226,853.5938 L342.2226,838.5938 L332.2226,828.5938 L34.2226,828.5938 " fill="#FBFB77" filter="url(#f10i43qdifxia9)" style="stroke:#A80036;stroke-width:1.0;"/><path d="M332.2226,828.5938 L332.2226,838.5938 L342.2226,838.5938 L332.2226,828.5938 " fill="#FBFB77" style="stroke:#A80036;stroke-width:1.0;"/><text fill="#000000" font-family="sans-serif" font-size="13" font-weight="bold" lengthAdjust="spacing" textLength="134" x="40.2226" y="845.6606">El usuario solicita</text><text fill="#000000" font-family="sans-serif" font-size="13" lengthAdjust="spacing" textLength="149" x="178.2226" y="845.6606">confirmar la asignaci&#243;n</text></g><!--link confirmarAsignacion to *end*AsignarTicket--><g id="link_confirmarAsignacion_*end*AsignarTicket"><path d="M246.2304,788.2068 C285.8004,794.9478 338.4644,806.8028 351.2224,823.5938 C361.7094,837.3952 362.3054,849.2667 351.2224,862.5938 C333.3224,884.1184 249.1757,888.9595 217.3597,890.0802 " fill="none" id="confirmarAsignacion-to-*end*AsignarTicket-1" style="stroke:#FF0000;stroke-width:1.0;"/><polygon fill="#FF0000" points="211.3634,890.2914,220.4987,893.9721,216.3603,890.1154,220.2171,885.9771,211.3634,890.2914" style="stroke:#FF0000;stroke-width:1.0;"/><path d="M364.2224,828.5938 L364.2224,853.5938 L664.2224,853.5938 L664.2224,838.5938 L654.2224,828.5938 L364.2224,828.5938 " fill="#FBFB77" filter="url(#f10i43qdifxia9)" style="stroke:#A80036;stroke-width:1.0;"/><path d="M654.2224,828.5938 L654.2224,838.5938 L664.2224,838.5938 L654.2224,828.5938 " fill="#FBFB77" style="stroke:#A80036;stroke-width:1.0;"/><text fill="#000000" font-family="sans-serif" font-size="13" font-weight="bold" lengthAdjust="spacing" textLength="134" x="370.2224" y="845.6606">El usuario solicita</text><text fill="#000000" font-family="sans-serif" font-size="13" lengthAdjust="spacing" textLength="141" x="508.2224" y="845.6606">cancelar la asignaci&#243;n</text></g><!--link DASHBOARD_ABIERTO to FILTRAR_TICKETS--><g id="link_DASHBOARD_ABIERTO_FILTRAR_TICKETS"><path d="M340,94.5709 C340,121.8079 340,159.7349 340,186.9869 " fill="none" id="DASHBOARD_ABIERTO-to-FILTRAR_TICKETS" style="stroke:#A80036;stroke-width:1.0;"/><polygon fill="#A80036" points="340,192.9869,344,183.9869,340,187.9869,336,183.9869,340,192.9869" style="stroke:#A80036;stroke-width:1.0;"/><path d="M345,129.2969 L345,154.2969 L690,154.2969 L690,139.2969 L680,129.2969 L345,129.2969 " fill="#FBFB77" filter="url(#f10i43qdifxia9)" style="stroke:#A80036;stroke-width:1.0;"/><path d="M680,129.2969 L680,139.2969 L690,139.2969 L680,129.2969 " fill="#FBFB77" style="stroke:#A80036;stroke-width:1.0;"/><text fill="#000000" font-family="sans-serif" font-size="13" font-weight="bold" lengthAdjust="spacing" textLength="134" x="351" y="146.3638">El usuario solicita</text><text fill="#000000" font-family="sans-serif" font-size="13" lengthAdjust="spacing" textLength="186" x="489" y="146.3638">filtrar por propiedad de ticket</text></g><!--link FILTRAR_TICKETS to VER_TICKET--><g id="link_FILTRAR_TICKETS_VER_TICKET"><path d="M340,243.5709 C340,270.8079 340,308.7349 340,335.9869 " fill="none" id="FILTRAR_TICKETS-to-VER_TICKET" style="stroke:#A80036;stroke-width:1.0;"/><polygon fill="#A80036" points="340,341.9869,344,332.9869,340,336.9869,336,332.9869,340,341.9869" style="stroke:#A80036;stroke-width:1.0;"/><path d="M345,278.2969 L345,303.2969 L584,303.2969 L584,288.2969 L574,278.2969 L345,278.2969 " fill="#FBFB77" filter="url(#f10i43qdifxia9)" style="stroke:#A80036;stroke-width:1.0;"/><path d="M574,278.2969 L574,288.2969 L584,288.2969 L574,278.2969 " fill="#FBFB77" style="stroke:#A80036;stroke-width:1.0;"/><text fill="#000000" font-family="sans-serif" font-size="13" font-weight="bold" lengthAdjust="spacing" textLength="134" x="351" y="295.3638">El usuario solicita</text><text fill="#000000" font-family="sans-serif" font-size="13" lengthAdjust="spacing" textLength="80" x="489" y="295.3638">ver un ticket</text></g><!--link VER_TICKET to AsignarTicket--><g id="link_VER_TICKET_AsignarTicket"><path d="M340,392.4219 C340,407.6169 340,422.9179 340,447.1819 " fill="none" id="VER_TICKET-to-AsignarTicket" style="stroke:#A80036;stroke-width:1.0;"/><polygon fill="#A80036" points="340,453.1819,344,444.1819,340,448.1819,336,444.1819,340,453.1819" style="stroke:#A80036;stroke-width:1.0;"/></g><!--link AsignarTicket to OPEN_TICKET2--><g id="link_AsignarTicket_OPEN_TICKET2"><path d="M340,920.6299 C340,944.7339 340,959.9007 340,975.0415 " fill="none" id="AsignarTicket-to-OPEN_TICKET2" style="stroke:#A80036;stroke-width:1.0;"/><polygon fill="#A80036" points="340,981.0415,344,972.0415,340,976.0415,336,972.0415,340,981.0415" style="stroke:#A80036;stroke-width:1.0;"/></g><!--SRC=[bL51Ri8m4Bpx5IjwYyIbHmwL0gHgL5Iga79122t9WYoCZModbwf_gjGVj1-hIPo6D23HWmzUUsPsPioEIz3A4BFS2e8H6WKvmOjH0mWDtqhKaF9iHvOnOz4IZCFPmt0Q9kDLE8oZ99tw-JnALcayUenIFxYF9saIriEPd_QQVpr00zFdwCdVRndha4E_VzTXaieHAGc2ozq0WY0IK9W2DLTWbE0PjnW4iE72QhV-GRcZrO5JZldHdAty_64jbKvCN2VoIXeAMLCsy9BD1-ZpQztAzxPt7r3xsnjZ08jW2Vt5pLeKj7GmBhUQ3EevrTG0rssBlb47FoXfS2t8ONqnTTrbBUSqEhFJfJ8bDrplKLSq6LUo5I6m2qiDm55_VK0ihLPvaN7jEd8gMWc1kT8Lpd1ZQO-mByYuLXlOn3tWiTKMY0mZcPUfD0P7zOgbmtCBmxdfgKlNnDLX_rA1G9zynhy_Zoe0bwKqvVzMGfcHw0fLIky_]--></g></svg>