<?xml version="1.0" encoding="us-ascii" standalone="no"?><svg xmlns="http://www.w3.org/2000/svg" xmlns:xlink="http://www.w3.org/1999/xlink" contentStyleType="text/css" height="929px" preserveAspectRatio="none" style="width:1197px;height:929px;background:#FFFFFF;" version="1.1" viewBox="0 0 1197 929" width="1197px" zoomAndPan="magnify"><defs><filter height="300%" id="ftuiewdcvb4zl" width="300%" x="-1" y="-1"><feGaussianBlur result="blurOut" stdDeviation="2.0"/><feColorMatrix in="blurOut" result="blurOut2" type="matrix" values="0 0 0 0 0 0 0 0 0 0 0 0 0 0 0 0 0 0 .4 0"/><feOffset dx="4.0" dy="4.0" in="blurOut2" result="blurOut3"/><feBlend in="SourceGraphic" in2="blurOut3" mode="normal"/></filter></defs><g><text fill="#000000" font-family="sans-serif" font-size="14" font-weight="bold" lengthAdjust="spacing" textLength="227" x="477.25" y="22.9951">Caso de Uso: Asignar Ticket</text><!--cluster AsignarTicket--><g id="cluster_AsignarTicket"><rect fill="none" filter="url(#ftuiewdcvb4zl)" height="468" rx="12.5" ry="12.5" style="stroke:#A80036;stroke-width:1.0;" width="767" x="214" y="447.2969"/><path d="M226.5,447.2969 L968.5,447.2969 A12.5,12.5 0 0 1 981,459.7969 L981,468.5938 L214,468.5938 L214,459.7969 A12.5,12.5 0 0 1 226.5,447.2969 " fill="#FEFECE" style="stroke:#FEFECE;stroke-width:1.0;"/><path d="M214,468.5938 L981,468.5938 L981,902.7969 A12.5,12.5 0 0 1 968.5,915.2969 L226.5,915.2969 A12.5,12.5 0 0 1 214,902.7969 L214,468.5938 " fill="#FEFECE" style="stroke:#FEFECE;stroke-width:1.0;"/><rect fill="none" height="468" rx="12.5" ry="12.5" style="stroke:#A80036;stroke-width:1.0;" width="767" x="214" y="447.2969"/><line style="stroke:#A80036;stroke-width:1.0;" x1="214" x2="981" y1="468.5938" y2="468.5938"/><text fill="#000000" font-family="sans-serif" font-size="14" lengthAdjust="spacing" textLength="99" x="548" y="464.292">AsignarTicket</text></g><ellipse cx="499" cy="500.2969" fill="#000000" filter="url(#ftuiewdcvb4zl)" rx="10" ry="10" style="stroke:#000000;stroke-width:1.0;"/><g id="AsignarTicket.ingresarVerTicket"><rect fill="#FEFECE" filter="url(#ftuiewdcvb4zl)" height="50" rx="12.5" ry="12.5" style="stroke:#A80036;stroke-width:1.0;" width="169" x="414.5" y="609.2969"/><line style="stroke:#A80036;stroke-width:1.0;" x1="414.5" x2="583.5" y1="635.5938" y2="635.5938"/><text fill="#000000" font-family="sans-serif" font-size="14" lengthAdjust="spacing" textLength="149" x="424.5" y="627.292">Asignar Responsable</text></g><g id="AsignarTicket.confirmarAsignacion"><rect fill="#FEFECE" filter="url(#ftuiewdcvb4zl)" height="50" rx="12.5" ry="12.5" style="stroke:#A80036;stroke-width:1.0;" width="217" x="390.5" y="720.2969"/><line style="stroke:#A80036;stroke-width:1.0;" x1="390.5" x2="607.5" y1="746.5938" y2="746.5938"/><text fill="#000000" font-family="sans-serif" font-size="14" lengthAdjust="spacing" textLength="197" x="400.5" y="738.292">Confirmaci&#243;n de asignaci&#243;n</text></g><ellipse cx="462" cy="880.2969" fill="none" filter="url(#ftuiewdcvb4zl)" rx="11" ry="11" style="stroke:#000000;stroke-width:1.0;"/><ellipse cx="462" cy="880.2969" fill="#000000" rx="6" ry="6" style="stroke:#000000;stroke-width:1.0;"/><g id="DASHBOARD_ABIERTO"><rect fill="#FEFECE" filter="url(#ftuiewdcvb4zl)" height="50" rx="12.5" ry="12.5" style="stroke:#A80036;stroke-width:1.0;" width="182" x="131" y="44.2969"/><line style="stroke:#A80036;stroke-width:1.0;" x1="131" x2="313" y1="70.5938" y2="70.5938"/><text fill="#000000" font-family="sans-serif" font-size="14" lengthAdjust="spacing" textLength="162" x="141" y="62.292">DASHBOARD_ABIERTO</text></g><g id="VER_TICKET"><rect fill="#FEFECE" filter="url(#ftuiewdcvb4zl)" height="50" rx="12.5" ry="12.5" style="stroke:#A80036;stroke-width:1.0;" width="107" x="168.5" y="342.2969"/><line style="stroke:#A80036;stroke-width:1.0;" x1="168.5" x2="275.5" y1="368.5938" y2="368.5938"/><text fill="#000000" font-family="sans-serif" font-size="14" lengthAdjust="spacing" textLength="87" x="178.5" y="360.292">VER_TICKET</text></g><g id="FILTRAR_TICKETS"><rect fill="#FEFECE" filter="url(#ftuiewdcvb4zl)" height="50" rx="12.5" ry="12.5" style="stroke:#A80036;stroke-width:1.0;" width="146" x="149" y="193.2969"/><line style="stroke:#A80036;stroke-width:1.0;" x1="149" x2="295" y1="219.5938" y2="219.5938"/><text fill="#000000" font-family="sans-serif" font-size="14" lengthAdjust="spacing" textLength="126" x="159" y="211.292">FILTRAR_TICKETS</text></g><g id="elem_GMN17"><path d="M6,614.2969 L6,654.5625 A0,0 0 0 0 6,654.5625 L190,654.5625 A0,0 0 0 0 190,654.5625 L190,638.2969 L414.213,634.2969 L190,630.2969 L190,624.2969 L180,614.2969 L6,614.2969 A0,0 0 0 0 6,614.2969 " fill="#FBFB77" filter="url(#ftuiewdcvb4zl)" style="stroke:#A80036;stroke-width:1.0;"/><path d="M180,614.2969 L180,624.2969 L190,624.2969 L180,614.2969 " fill="#FBFB77" style="stroke:#A80036;stroke-width:1.0;"/><text fill="#000000" font-family="sans-serif" font-size="13" font-weight="bold" lengthAdjust="spacing" textLength="147" x="12" y="631.3638">El sistema muestra</text><text fill="#000000" font-family="sans-serif" font-size="13" lengthAdjust="spacing" textLength="5" x="159" y="631.3638">:</text><text fill="#000000" font-family="sans-serif" font-size="13" lengthAdjust="spacing" textLength="163" x="12" y="646.4966">&#176; Lista de desarrolladores</text></g><g id="elem_GMN20"><path d="M1005.5,614.2969 L1005.5,630.2969 L583.678,634.2969 L1005.5,638.2969 L1005.5,654.5625 A0,0 0 0 0 1005.5,654.5625 L1188.5,654.5625 A0,0 0 0 0 1188.5,654.5625 L1188.5,624.2969 L1178.5,614.2969 L1005.5,614.2969 A0,0 0 0 0 1005.5,614.2969 " fill="#FBFB77" filter="url(#ftuiewdcvb4zl)" style="stroke:#A80036;stroke-width:1.0;"/><path d="M1178.5,614.2969 L1178.5,624.2969 L1188.5,624.2969 L1178.5,614.2969 " fill="#FBFB77" style="stroke:#A80036;stroke-width:1.0;"/><text fill="#000000" font-family="sans-serif" font-size="13" font-weight="bold" lengthAdjust="spacing" textLength="134" x="1011.5" y="631.3638">El usuario solicita</text><text fill="#000000" font-family="sans-serif" font-size="13" lengthAdjust="spacing" textLength="5" x="1145.5" y="631.3638">:</text><text fill="#000000" font-family="sans-serif" font-size="13" lengthAdjust="spacing" textLength="158" x="1011.5" y="646.4966">&#176; Introducir desarrollador</text></g><!--link DASHBOARD_ABIERTO to FILTRAR_TICKETS--><g id="link_DASHBOARD_ABIERTO_FILTRAR_TICKETS"><path d="M222,94.5709 C222,121.8079 222,159.7349 222,186.9869 " fill="none" id="DASHBOARD_ABIERTO-to-FILTRAR_TICKETS" style="stroke:#A80036;stroke-width:1.0;"/><polygon fill="#A80036" points="222,192.9869,226,183.9869,222,187.9869,218,183.9869,222,192.9869" style="stroke:#A80036;stroke-width:1.0;"/><path d="M227,129.2969 L227,154.2969 L572,154.2969 L572,139.2969 L562,129.2969 L227,129.2969 " fill="#FBFB77" filter="url(#ftuiewdcvb4zl)" style="stroke:#A80036;stroke-width:1.0;"/><path d="M562,129.2969 L562,139.2969 L572,139.2969 L562,129.2969 " fill="#FBFB77" style="stroke:#A80036;stroke-width:1.0;"/><text fill="#000000" font-family="sans-serif" font-size="13" font-weight="bold" lengthAdjust="spacing" textLength="134" x="233" y="146.3638">El usuario solicita</text><text fill="#000000" font-family="sans-serif" font-size="13" lengthAdjust="spacing" textLength="186" x="371" y="146.3638">filtrar por propiedad de ticket</text></g><!--link FILTRAR_TICKETS to VER_TICKET--><g id="link_FILTRAR_TICKETS_VER_TICKET"><path d="M222,243.5709 C222,270.8079 222,308.7349 222,335.9869 " fill="none" id="FILTRAR_TICKETS-to-VER_TICKET" style="stroke:#A80036;stroke-width:1.0;"/><polygon fill="#A80036" points="222,341.9869,226,332.9869,222,336.9869,218,332.9869,222,341.9869" style="stroke:#A80036;stroke-width:1.0;"/><path d="M227,278.2969 L227,303.2969 L466,303.2969 L466,288.2969 L456,278.2969 L227,278.2969 " fill="#FBFB77" filter="url(#ftuiewdcvb4zl)" style="stroke:#A80036;stroke-width:1.0;"/><path d="M456,278.2969 L456,288.2969 L466,288.2969 L456,278.2969 " fill="#FBFB77" style="stroke:#A80036;stroke-width:1.0;"/><text fill="#000000" font-family="sans-serif" font-size="13" font-weight="bold" lengthAdjust="spacing" textLength="134" x="233" y="295.3638">El usuario solicita</text><text fill="#000000" font-family="sans-serif" font-size="13" lengthAdjust="spacing" textLength="80" x="371" y="295.3638">ver un ticket</text></g><!--link VER_TICKET to AsignarTicket--><g id="link_VER_TICKET_AsignarTicket"><path d="M222,392.3239 C222,401.6309 222,412.8356 222,424.4404 C222,430.2428 222,436.1452 222,441.9604 C222,443.4142 222,444.8626 222,446.3026 C222,446.4826 222,440.6624 222,440.8422 " fill="none" id="VER_TICKET-to-AsignarTicket" style="stroke:#A80036;stroke-width:1.0;"/><polygon fill="#A80036" points="222,446.8422,226,437.8422,222,441.8422,218,437.8422,222,446.8422" style="stroke:#A80036;stroke-width:1.0;"/></g><!--link *start*AsignarTicket to ingresarVerTicket--><g id="link_*start*AsignarTicket_ingresarVerTicket"><path d="M499,510.3699 C499,530.5229 499,573.5769 499,603.2659 " fill="none" id="*start*AsignarTicket-to-ingresarVerTicket" style="stroke:#0000FF;stroke-width:1.0;"/><polygon fill="#0000FF" points="499,609.2659,503,600.2659,499,604.2659,495,600.2659,499,609.2659" style="stroke:#0000FF;stroke-width:1.0;"/><path d="M504,545.2969 L504,570.2969 L792,570.2969 L792,555.2969 L782,545.2969 L504,545.2969 " fill="#FBFB77" filter="url(#ftuiewdcvb4zl)" style="stroke:#A80036;stroke-width:1.0;"/><path d="M782,545.2969 L782,555.2969 L792,555.2969 L782,545.2969 " fill="#FBFB77" style="stroke:#A80036;stroke-width:1.0;"/><text fill="#000000" font-family="sans-serif" font-size="13" font-weight="bold" lengthAdjust="spacing" textLength="134" x="510" y="562.3638">El usuario solicita</text><text fill="#000000" font-family="sans-serif" font-size="13" lengthAdjust="spacing" textLength="129" x="648" y="562.3638">asignar responsable</text></g><!--link ingresarVerTicket to confirmarAsignacion--><g id="link_ingresarVerTicket_confirmarAsignacion"><path d="M499,659.4879 C499,677.5509 499,696.1269 499,714.1739 " fill="none" id="ingresarVerTicket-to-confirmarAsignacion" style="stroke:#0000FF;stroke-width:1.0;"/><polygon fill="#0000FF" points="499,720.1739,503,711.1739,499,715.1739,495,711.1739,499,720.1739" style="stroke:#0000FF;stroke-width:1.0;"/></g><!--link confirmarAsignacion to *end*AsignarTicket--><g id="link_confirmarAsignacion_*end*AsignarTicket"><path d="M390.242,760.0969 C341.902,768.6809 292.603,781.6959 278,800.2969 C267.296,813.9309 267.123,825.8009 278,839.2969 C300.053,866.6587 408.8589,875.8814 445.0629,878.2597 " fill="none" id="confirmarAsignacion-to-*end*AsignarTicket" style="stroke:#0000FF;stroke-width:1.0;"/><polygon fill="#0000FF" points="451.05,878.653,442.3316,874.0716,446.0608,878.3252,441.8072,882.0544,451.05,878.653" style="stroke:#0000FF;stroke-width:1.0;"/><path d="M283,805.2969 L283,830.2969 L591,830.2969 L591,815.2969 L581,805.2969 L283,805.2969 " fill="#FBFB77" filter="url(#ftuiewdcvb4zl)" style="stroke:#A80036;stroke-width:1.0;"/><path d="M581,805.2969 L581,815.2969 L591,815.2969 L581,805.2969 " fill="#FBFB77" style="stroke:#A80036;stroke-width:1.0;"/><text fill="#000000" font-family="sans-serif" font-size="13" font-weight="bold" lengthAdjust="spacing" textLength="134" x="289" y="822.3638">El usuario solicita</text><text fill="#000000" font-family="sans-serif" font-size="13" lengthAdjust="spacing" textLength="149" x="427" y="822.3638">confirmar la asignaci&#243;n</text></g><!--link confirmarAsignacion to *end*AsignarTicket--><g id="link_confirmarAsignacion_*end*AsignarTicket"><path d="M571.84,770.3599 C584.643,777.9149 596.312,787.6979 604,800.2969 C613.029,815.0929 614.464,825.4779 604,839.2969 C587.843,860.6344 509.367,872.9895 478.914,877.1018 " fill="none" id="confirmarAsignacion-to-*end*AsignarTicket-1" style="stroke:#FF0000;stroke-width:1.0;"/><polygon fill="#FF0000" points="472.968,877.9048,482.4223,880.6644,477.923,877.2357,481.3518,872.7363,472.968,877.9048" style="stroke:#FF0000;stroke-width:1.0;"/><path d="M616,805.2969 L616,830.2969 L916,830.2969 L916,815.2969 L906,805.2969 L616,805.2969 " fill="#FBFB77" filter="url(#ftuiewdcvb4zl)" style="stroke:#A80036;stroke-width:1.0;"/><path d="M906,805.2969 L906,815.2969 L916,815.2969 L906,805.2969 " fill="#FBFB77" style="stroke:#A80036;stroke-width:1.0;"/><text fill="#000000" font-family="sans-serif" font-size="13" font-weight="bold" lengthAdjust="spacing" textLength="134" x="622" y="822.3638">El usuario solicita</text><text fill="#000000" font-family="sans-serif" font-size="13" lengthAdjust="spacing" textLength="141" x="760" y="822.3638">cancelar la asignaci&#243;n</text></g><!--SRC=[bP9DQiCm48NtEiMGxWovG1O59t6fQI3WkDc442RsE8WeKf3aRahlLEWDsejL_akSsW5tuOLdzDxtU98vSWbQ6MAMMq4mGwCW9NWrQWA-uGU96cAU7CaoPYnQWhc_Ufuk_MY-ywTX4CNBUhuEebqSpbw2k1uyXOiuyflXYZ7MaS9u_DWv9vKJAmc2o-C4F2yGa9iSDLTWbE09j-Xva75XjGjtLkxJwimfnRI8RgkqVrnBKYlYCCWRQSXbOtcLbsvrFRVjt0pXdJ60ZRU5yUPXBtBQEXcN1qq6zPeQAS2mD5ZVXvEVbJIu5-Iq5NVKN5PqNOwSeXVNcRNp9KfcN9zGLuu9L_9AcTNBXFzyoQ9jh0-vtnBNh-wPjf6keS4bNAn0O9lk303kepIb_oQXJ4ZS0NsmwWa9oYoehBVcqjXmO-c4SCh9k0VhUPCYvVSdBDm2YmhJGgUL49Wgvy58fcN2eOHkz0OHIgjLcYTStqBWmlW5]--></g></svg>