<?xml version="1.0" encoding="us-ascii" standalone="no"?><svg xmlns="http://www.w3.org/2000/svg" xmlns:xlink="http://www.w3.org/1999/xlink" contentStyleType="text/css" height="398px" preserveAspectRatio="none" style="width:565px;height:398px;background:#FFFFFF;" version="1.1" viewBox="0 0 565 398" width="565px" zoomAndPan="magnify"><defs/><g><ellipse cx="55.5" cy="16" fill="#222222" rx="10" ry="10" style="stroke:#222222;stroke-width:1.0;"/><rect fill="#F1F1F1" height="33.9688" rx="12.5" ry="12.5" style="stroke:#181818;stroke-width:0.5;" width="97" x="7" y="67"/><text fill="#000000" font-family="sans-serif" font-size="12" lengthAdjust="spacing" textLength="77" x="17" y="88.1387">RecibirTicket</text><rect fill="#F1F1F1" height="33.9688" rx="12.5" ry="12.5" style="stroke:#181818;stroke-width:0.5;" width="117" x="124" y="67"/><text fill="#000000" font-family="sans-serif" font-size="12" lengthAdjust="spacing" textLength="97" x="134" y="88.1387">PriorizarEtiqueta</text><rect fill="#F1F1F1" height="33.9688" rx="12.5" ry="12.5" style="stroke:#181818;stroke-width:0.5;" width="91" x="261" y="67"/><text fill="#000000" font-family="sans-serif" font-size="12" lengthAdjust="spacing" textLength="71" x="271" y="88.1387">ValidarError</text><g id="elem_#9"><polygon fill="#F1F1F1" points="306.5,147,318.5,159,306.5,171,294.5,159,306.5,147" style="stroke:#181818;stroke-width:0.5;"/></g><rect fill="#F1F1F1" height="33.9688" rx="12.5" ry="12.5" style="stroke:#181818;stroke-width:0.5;" width="114" x="351.5" y="142"/><text fill="#000000" font-family="sans-serif" font-size="12" lengthAdjust="spacing" textLength="94" x="361.5" y="163.1387">ValidarPrioridad</text><g id="elem_#14"><polygon fill="#F1F1F1" points="408.5,217,420.5,229,408.5,241,396.5,229,408.5,217" style="stroke:#181818;stroke-width:0.5;"/></g><rect fill="#F1F1F1" height="33.9688" rx="12.5" ry="12.5" style="stroke:#181818;stroke-width:0.5;" width="143" x="416" y="295"/><text fill="#000000" font-family="sans-serif" font-size="12" lengthAdjust="spacing" textLength="123" x="426" y="316.1387">AsignarResponsable</text><rect fill="#F1F1F1" height="33.9688" rx="12.5" ry="12.5" style="stroke:#181818;stroke-width:0.5;" width="128" x="267.5" y="295"/><text fill="#000000" font-family="sans-serif" font-size="12" lengthAdjust="spacing" textLength="108" x="277.5" y="316.1387">ModificarPrioridad</text><rect fill="#F1F1F1" height="33.9688" rx="12.5" ry="12.5" style="stroke:#181818;stroke-width:0.5;" width="106" x="151.5" y="142"/><text fill="#000000" font-family="sans-serif" font-size="12" lengthAdjust="spacing" textLength="86" x="161.5" y="163.1387">CerrarEtiqueta</text><ellipse cx="487.5" cy="381" fill="none" rx="11" ry="11" style="stroke:#222222;stroke-width:1.0;"/><ellipse cx="487.5" cy="381" fill="#222222" rx="6" ry="6" style="stroke:#222222;stroke-width:1.0;"/><!--link start to RecibirTicket--><g id="link_start_RecibirTicket"><path d="M55.5,26.177 C55.5,36.661 55.5,48.015 55.5,60.791 " fill="none" id="start-to-RecibirTicket" style="stroke:#181818;stroke-width:1.0;"/><polygon fill="#181818" points="55.5,66.791,59.5,57.791,55.5,61.791,51.5,57.791,55.5,66.791" style="stroke:#181818;stroke-width:1.0;"/></g><!--link RecibirTicket to PriorizarEtiqueta--><g id="link_RecibirTicket_PriorizarEtiqueta"><path d="M104.1172,84 C110.649,84 111.181,84 117.713,84 " fill="none" id="RecibirTicket-to-PriorizarEtiqueta" style="stroke:#181818;stroke-width:1.0;"/><polygon fill="#181818" points="123.713,84,114.713,80,118.713,84,114.713,88,123.713,84" style="stroke:#181818;stroke-width:1.0;"/></g><!--link PriorizarEtiqueta to ValidarError--><g id="link_PriorizarEtiqueta_ValidarError"><path d="M241.109,84 C247.665,84 248.222,84 254.778,84 " fill="none" id="PriorizarEtiqueta-to-ValidarError" style="stroke:#181818;stroke-width:1.0;"/><polygon fill="#181818" points="260.778,84,251.778,80,255.778,84,251.778,88,260.778,84" style="stroke:#181818;stroke-width:1.0;"/></g><!--link ValidarError to #9--><g id="link_ValidarError_#9"><path d="M306.5,101.201 C306.5,114.979 306.5,128.414 306.5,140.604 " fill="none" id="ValidarError-to-#9" style="stroke:#181818;stroke-width:1.0;"/><polygon fill="#181818" points="306.5,146.604,310.5,137.604,306.5,141.604,302.5,137.604,306.5,146.604" style="stroke:#181818;stroke-width:1.0;"/><text fill="#000000" font-family="sans-serif" font-size="11" lengthAdjust="spacing" textLength="77" x="315.5959" y="131.4789">&#191;Existe Error?</text></g><!--link #9 to ValidarPrioridad--><g id="link_#9_ValidarPrioridad"><path d="M318.601,159 C327.045,159 332.99,159 345.424,159 " fill="none" id="#9-to-ValidarPrioridad" style="stroke:#181818;stroke-width:1.0;"/><polygon fill="#181818" points="351.424,159,342.424,155,346.424,159,342.424,163,351.424,159" style="stroke:#181818;stroke-width:1.0;"/><text fill="#000000" font-family="sans-serif" font-size="11" lengthAdjust="spacing" textLength="11" x="329.5" y="153.2104">Si</text></g><!--link ValidarPrioridad to #14--><g id="link_ValidarPrioridad_#14"><path d="M408.5,176.115 C408.5,188.683 408.5,199.808 408.5,210.885 " fill="none" id="ValidarPrioridad-to-#14" style="stroke:#181818;stroke-width:1.0;"/><polygon fill="#181818" points="408.5,216.885,412.5,207.885,408.5,211.885,404.5,207.885,408.5,216.885" style="stroke:#181818;stroke-width:1.0;"/><text fill="#000000" font-family="sans-serif" font-size="11" lengthAdjust="spacing" textLength="111" x="277.7281" y="208.7853">&#191;Etiqueta Correcta?</text></g><!--link #14 to AsignarResponsable--><g id="link_#14_AsignarResponsable"><path d="M414.181,235.825 C426.069,248.014 449.7408,272.2846 467.4898,290.4834 " fill="none" id="#14-to-AsignarResponsable" style="stroke:#181818;stroke-width:1.0;"/><polygon fill="#181818" points="471.679,294.7788,468.2588,285.5429,468.188,291.1993,462.5316,291.1285,471.679,294.7788" style="stroke:#181818;stroke-width:1.0;"/><text fill="#000000" font-family="sans-serif" font-size="11" lengthAdjust="spacing" textLength="11" x="450.5" y="272.2104">Si</text></g><!--link #14 to ModificarPrioridad--><g id="link_#14_ModificarPrioridad"><path d="M402.962,235.825 C391.376,248.014 368.3539,272.2313 351.0539,290.4301 " fill="none" id="#14-to-ModificarPrioridad" style="stroke:#181818;stroke-width:1.0;"/><polygon fill="#181818" points="346.92,294.7788,356.02,291.0117,350.3649,291.1549,350.2217,285.4999,346.92,294.7788" style="stroke:#181818;stroke-width:1.0;"/><text fill="#000000" font-family="sans-serif" font-size="11" lengthAdjust="spacing" textLength="15" x="377.5" y="272.2104">No</text></g><!--reverse link CerrarEtiqueta to #9--><g id="link_CerrarEtiqueta_#9"><path d="M263.591,159 C277.339,159 284.883,159 294.22,159 " fill="none" id="CerrarEtiqueta-backto-#9" style="stroke:#181818;stroke-width:1.0;"/><polygon fill="#181818" points="257.591,159,266.591,163,262.591,159,266.591,155,257.591,159" style="stroke:#181818;stroke-width:1.0;"/><text fill="#000000" font-family="sans-serif" font-size="11" lengthAdjust="spacing" textLength="15" x="268.5" y="153.2104">No</text></g><!--link ModificarPrioridad to AsignarResponsable--><g id="link_ModificarPrioridad_AsignarResponsable"><path d="M395.789,312 C402.476,312 403.164,312 409.851,312 " fill="none" id="ModificarPrioridad-to-AsignarResponsable" style="stroke:#181818;stroke-width:1.0;"/><polygon fill="#181818" points="415.851,312,406.851,308,410.851,312,406.851,316,415.851,312" style="stroke:#181818;stroke-width:1.0;"/></g><!--link AsignarResponsable to end--><g id="link_AsignarResponsable_end"><path d="M487.5,329.2188 C487.5,341.9217 487.5,353.1896 487.5,363.9604 " fill="none" id="AsignarResponsable-to-end" style="stroke:#181818;stroke-width:1.0;"/><polygon fill="#181818" points="487.5,369.9604,491.5,360.9604,487.5,364.9604,483.5,360.9604,487.5,369.9604" style="stroke:#181818;stroke-width:1.0;"/></g><!--SRC=[TP7F2e9048VlFiNGIGLVeGZnM8H5b_2mwbX3ibkp6qGl5_HawVg7rDpZpFVxPfXrVG-2O0aGOqOfyO6oAne7O5I1W2jgnwIONe8ZG_S76c71IRM1ZwAal2eoAxPS_QY0nUSTFKaR1DjQBSm5PG_KqTEUaYxUo7EHzyIFffiNAcRCZ1YvhA_LhJMTfU0OzKr9BT8I1nYM6YUvhKfWet8gA9jR16NLTlvQWh9LXCWyEjamEftHN71cvsdPVg7hUry0]--></g></svg>