<?xml version="1.0" encoding="us-ascii" standalone="no"?><svg xmlns="http://www.w3.org/2000/svg" xmlns:xlink="http://www.w3.org/1999/xlink" contentStyleType="text/css" height="891px" preserveAspectRatio="none" style="width:1201px;height:891px;background:#FFFFFF;" version="1.1" viewBox="0 0 1201 891" width="1201px" zoomAndPan="magnify"><defs><filter height="300%" id="f1pnnnfxlrvk1p" width="300%" x="-1" y="-1"><feGaussianBlur result="blurOut" stdDeviation="2.0"/><feColorMatrix in="blurOut" result="blurOut2" type="matrix" values="0 0 0 0 0 0 0 0 0 0 0 0 0 0 0 0 0 0 .4 0"/><feOffset dx="4.0" dy="4.0" in="blurOut2" result="blurOut3"/><feBlend in="SourceGraphic" in2="blurOut3" mode="normal"/></filter></defs><g><text fill="#000000" font-family="sans-serif" font-size="14" font-weight="bold" lengthAdjust="spacing" textLength="244" x="470.5" y="22.9951">Caso de Uso: Comentar Ticket</text><!--cluster ComentarTicket--><g id="cluster_ComentarTicket"><rect fill="none" filter="url(#f1pnnnfxlrvk1p)" height="430" rx="12.5" ry="12.5" style="stroke:#A80036;stroke-width:1.0;" width="722" x="264" y="447.2969"/><path d="M276.5,447.2969 L973.5,447.2969 A12.5,12.5 0 0 1 986,459.7969 L986,468.5938 L264,468.5938 L264,459.7969 A12.5,12.5 0 0 1 276.5,447.2969 " fill="#FEFECE" style="stroke:#FEFECE;stroke-width:1.0;"/><path d="M264,468.5938 L986,468.5938 L986,864.7969 A12.5,12.5 0 0 1 973.5,877.2969 L276.5,877.2969 A12.5,12.5 0 0 1 264,864.7969 L264,468.5938 " fill="#FEFECE" style="stroke:#FEFECE;stroke-width:1.0;"/><rect fill="none" height="430" rx="12.5" ry="12.5" style="stroke:#A80036;stroke-width:1.0;" width="722" x="264" y="447.2969"/><line style="stroke:#A80036;stroke-width:1.0;" x1="264" x2="986" y1="468.5938" y2="468.5938"/><text fill="#000000" font-family="sans-serif" font-size="14" lengthAdjust="spacing" textLength="118" x="566" y="464.292">ComentarTicket</text></g><ellipse cx="545" cy="500.2969" fill="#000000" filter="url(#f1pnnnfxlrvk1p)" rx="10" ry="10" style="stroke:#000000;stroke-width:1.0;"/><g id="ComentarTicket.comentarTicket"><rect fill="#FEFECE" filter="url(#f1pnnnfxlrvk1p)" height="50" rx="12.5" ry="12.5" style="stroke:#A80036;stroke-width:1.0;" width="229" x="430.5" y="571.2969"/><line style="stroke:#A80036;stroke-width:1.0;" x1="430.5" x2="659.5" y1="597.5938" y2="597.5938"/><text fill="#000000" font-family="sans-serif" font-size="14" lengthAdjust="spacing" textLength="209" x="440.5" y="589.292">Hacer comentario a un ticket</text></g><g id="ComentarTicket.confirmarComentario"><rect fill="#FEFECE" filter="url(#f1pnnnfxlrvk1p)" height="50" rx="12.5" ry="12.5" style="stroke:#A80036;stroke-width:1.0;" width="260" x="415" y="682.2969"/><line style="stroke:#A80036;stroke-width:1.0;" x1="415" x2="675" y1="708.5938" y2="708.5938"/><text fill="#000000" font-family="sans-serif" font-size="14" lengthAdjust="spacing" textLength="240" x="425" y="700.292">Confirmar comentario a un ticket</text></g><ellipse cx="498" cy="842.2969" fill="none" filter="url(#f1pnnnfxlrvk1p)" rx="11" ry="11" style="stroke:#000000;stroke-width:1.0;"/><ellipse cx="498" cy="842.2969" fill="#000000" rx="6" ry="6" style="stroke:#000000;stroke-width:1.0;"/><g id="DASHBOARD_ABIERTO"><rect fill="#FEFECE" filter="url(#f1pnnnfxlrvk1p)" height="50" rx="12.5" ry="12.5" style="stroke:#A80036;stroke-width:1.0;" width="182" x="181" y="44.2969"/><line style="stroke:#A80036;stroke-width:1.0;" x1="181" x2="363" y1="70.5938" y2="70.5938"/><text fill="#000000" font-family="sans-serif" font-size="14" lengthAdjust="spacing" textLength="162" x="191" y="62.292">DASHBOARD_ABIERTO</text></g><g id="VER_TICKET"><rect fill="#FEFECE" filter="url(#f1pnnnfxlrvk1p)" height="50" rx="12.5" ry="12.5" style="stroke:#A80036;stroke-width:1.0;" width="107" x="218.5" y="342.2969"/><line style="stroke:#A80036;stroke-width:1.0;" x1="218.5" x2="325.5" y1="368.5938" y2="368.5938"/><text fill="#000000" font-family="sans-serif" font-size="14" lengthAdjust="spacing" textLength="87" x="228.5" y="360.292">VER_TICKET</text></g><g id="FILTRAR_TICKETS"><rect fill="#FEFECE" filter="url(#f1pnnnfxlrvk1p)" height="50" rx="12.5" ry="12.5" style="stroke:#A80036;stroke-width:1.0;" width="146" x="199" y="193.2969"/><line style="stroke:#A80036;stroke-width:1.0;" x1="199" x2="345" y1="219.5938" y2="219.5938"/><text fill="#000000" font-family="sans-serif" font-size="14" lengthAdjust="spacing" textLength="126" x="209" y="211.292">FILTRAR_TICKETS</text></g><g id="elem_GMN17"><path d="M6,576.2969 L6,616.5625 A0,0 0 0 0 6,616.5625 L240,616.5625 A0,0 0 0 0 240,616.5625 L240,600.2969 L430.342,596.2969 L240,592.2969 L240,586.2969 L230,576.2969 L6,576.2969 A0,0 0 0 0 6,576.2969 " fill="#FBFB77" filter="url(#f1pnnnfxlrvk1p)" style="stroke:#A80036;stroke-width:1.0;"/><path d="M230,576.2969 L230,586.2969 L240,586.2969 L230,576.2969 " fill="#FBFB77" style="stroke:#A80036;stroke-width:1.0;"/><text fill="#000000" font-family="sans-serif" font-size="13" font-weight="bold" lengthAdjust="spacing" textLength="147" x="12" y="593.3638">El sistema muestra</text><text fill="#000000" font-family="sans-serif" font-size="13" lengthAdjust="spacing" textLength="5" x="159" y="593.3638">:</text><text fill="#000000" font-family="sans-serif" font-size="13" lengthAdjust="spacing" textLength="213" x="12" y="608.4966">&#176; Campo de texto para comentar</text></g><g id="elem_GMN20"><path d="M1010,576.2969 L1010,592.2969 L659.566,596.2969 L1010,600.2969 L1010,616.5625 A0,0 0 0 0 1010,616.5625 L1192,616.5625 A0,0 0 0 0 1192,616.5625 L1192,586.2969 L1182,576.2969 L1010,576.2969 A0,0 0 0 0 1010,576.2969 " fill="#FBFB77" filter="url(#f1pnnnfxlrvk1p)" style="stroke:#A80036;stroke-width:1.0;"/><path d="M1182,576.2969 L1182,586.2969 L1192,586.2969 L1182,576.2969 " fill="#FBFB77" style="stroke:#A80036;stroke-width:1.0;"/><text fill="#000000" font-family="sans-serif" font-size="13" font-weight="bold" lengthAdjust="spacing" textLength="152" x="1016" y="593.3638">El usuario introduce</text><text fill="#000000" font-family="sans-serif" font-size="13" lengthAdjust="spacing" textLength="5" x="1168" y="593.3638">:</text><text fill="#000000" font-family="sans-serif" font-size="13" lengthAdjust="spacing" textLength="104" x="1016" y="608.4966">&#176; Un comentario</text></g><!--link DASHBOARD_ABIERTO to FILTRAR_TICKETS--><g id="link_DASHBOARD_ABIERTO_FILTRAR_TICKETS"><path d="M272,94.5709 C272,121.8079 272,159.7349 272,186.9869 " fill="none" id="DASHBOARD_ABIERTO-to-FILTRAR_TICKETS" style="stroke:#A80036;stroke-width:1.0;"/><polygon fill="#A80036" points="272,192.9869,276,183.9869,272,187.9869,268,183.9869,272,192.9869" style="stroke:#A80036;stroke-width:1.0;"/><path d="M277,129.2969 L277,154.2969 L622,154.2969 L622,139.2969 L612,129.2969 L277,129.2969 " fill="#FBFB77" filter="url(#f1pnnnfxlrvk1p)" style="stroke:#A80036;stroke-width:1.0;"/><path d="M612,129.2969 L612,139.2969 L622,139.2969 L612,129.2969 " fill="#FBFB77" style="stroke:#A80036;stroke-width:1.0;"/><text fill="#000000" font-family="sans-serif" font-size="13" font-weight="bold" lengthAdjust="spacing" textLength="134" x="283" y="146.3638">El usuario solicita</text><text fill="#000000" font-family="sans-serif" font-size="13" lengthAdjust="spacing" textLength="186" x="421" y="146.3638">filtrar por propiedad de ticket</text></g><!--link FILTRAR_TICKETS to VER_TICKET--><g id="link_FILTRAR_TICKETS_VER_TICKET"><path d="M272,243.5709 C272,270.8079 272,308.7349 272,335.9869 " fill="none" id="FILTRAR_TICKETS-to-VER_TICKET" style="stroke:#A80036;stroke-width:1.0;"/><polygon fill="#A80036" points="272,341.9869,276,332.9869,272,336.9869,268,332.9869,272,341.9869" style="stroke:#A80036;stroke-width:1.0;"/><path d="M277,278.2969 L277,303.2969 L516,303.2969 L516,288.2969 L506,278.2969 L277,278.2969 " fill="#FBFB77" filter="url(#f1pnnnfxlrvk1p)" style="stroke:#A80036;stroke-width:1.0;"/><path d="M506,278.2969 L506,288.2969 L516,288.2969 L506,278.2969 " fill="#FBFB77" style="stroke:#A80036;stroke-width:1.0;"/><text fill="#000000" font-family="sans-serif" font-size="13" font-weight="bold" lengthAdjust="spacing" textLength="134" x="283" y="295.3638">El usuario solicita</text><text fill="#000000" font-family="sans-serif" font-size="13" lengthAdjust="spacing" textLength="80" x="421" y="295.3638">ver un ticket</text></g><!--link VER_TICKET to ComentarTicket--><g id="link_VER_TICKET_ComentarTicket"><path d="M272,392.3239 C272,401.6309 272,412.8356 272,424.4404 C272,430.2428 272,436.1452 272,441.9604 C272,443.4142 272,444.8626 272,446.3026 C272,446.4826 272,440.6624 272,440.8422 " fill="none" id="VER_TICKET-to-ComentarTicket" style="stroke:#A80036;stroke-width:1.0;"/><polygon fill="#A80036" points="272,446.8422,276,437.8422,272,441.8422,268,437.8422,272,446.8422" style="stroke:#A80036;stroke-width:1.0;"/></g><!--link *start*ComentarTicket to comentarTicket--><g id="link_*start*ComentarTicket_comentarTicket"><path d="M545,510.3099 C545,524.1879 545,545.2619 545,565.1369 " fill="none" id="*start*ComentarTicket-to-comentarTicket" style="stroke:#0000FF;stroke-width:1.0;"/><polygon fill="#0000FF" points="545,571.1369,549,562.1369,545,566.1369,541,562.1369,545,571.1369" style="stroke:#0000FF;stroke-width:1.0;"/></g><!--link comentarTicket to confirmarComentario--><g id="link_comentarTicket_confirmarComentario"><path d="M545,621.4879 C545,639.5509 545,658.1269 545,676.1739 " fill="none" id="comentarTicket-to-confirmarComentario" style="stroke:#0000FF;stroke-width:1.0;"/><polygon fill="#0000FF" points="545,682.1739,549,673.1739,545,677.1739,541,673.1739,545,682.1739" style="stroke:#0000FF;stroke-width:1.0;"/></g><!--link confirmarComentario to *end*ComentarTicket--><g id="link_confirmarComentario_*end*ComentarTicket"><path d="M414.783,726.9779 C375.681,735.4179 339.954,747.0029 328,762.2969 C317.325,775.9529 317.238,787.7089 328,801.2969 C348.048,826.61 446.4437,836.9818 480.9407,839.9231 " fill="none" id="confirmarComentario-to-*end*ComentarTicket" style="stroke:#0000FF;stroke-width:1.0;"/><polygon fill="#0000FF" points="486.919,840.4329,478.2914,835.6827,481.9371,840.0081,477.6117,843.6538,486.919,840.4329" style="stroke:#0000FF;stroke-width:1.0;"/><path d="M333,767.2969 L333,792.2969 L613,792.2969 L613,777.2969 L603,767.2969 L333,767.2969 " fill="#FBFB77" filter="url(#f1pnnnfxlrvk1p)" style="stroke:#A80036;stroke-width:1.0;"/><path d="M603,767.2969 L603,777.2969 L613,777.2969 L603,767.2969 " fill="#FBFB77" style="stroke:#A80036;stroke-width:1.0;"/><text fill="#000000" font-family="sans-serif" font-size="13" font-weight="bold" lengthAdjust="spacing" textLength="134" x="339" y="784.3638">El usuario solicita</text><text fill="#000000" font-family="sans-serif" font-size="13" lengthAdjust="spacing" textLength="121" x="477" y="784.3638">comentar un ticket</text></g><!--link confirmarComentario to *end*ComentarTicket--><g id="link_confirmarComentario_*end*ComentarTicket"><path d="M597.748,732.5789 C609.059,740.3889 619.54,750.2269 626,762.2969 C634.179,777.5789 636.267,787.3319 626,801.2969 C598.281,839.0007 541.1803,842.2458 515.3473,841.8615 " fill="none" id="confirmarComentario-to-*end*ComentarTicket-1" style="stroke:#FF0000;stroke-width:1.0;"/><polygon fill="#FF0000" points="509.348,841.7723,518.2875,845.9057,514.3474,841.8466,518.4065,837.9066,509.348,841.7723" style="stroke:#FF0000;stroke-width:1.0;"/><path d="M637,767.2969 L637,792.2969 L920,792.2969 L920,777.2969 L910,767.2969 L637,767.2969 " fill="#FBFB77" filter="url(#f1pnnnfxlrvk1p)" style="stroke:#A80036;stroke-width:1.0;"/><path d="M910,767.2969 L910,777.2969 L920,777.2969 L910,767.2969 " fill="#FBFB77" style="stroke:#A80036;stroke-width:1.0;"/><text fill="#000000" font-family="sans-serif" font-size="13" font-weight="bold" lengthAdjust="spacing" textLength="74" x="643" y="784.3638">El usuario</text><text fill="#000000" font-family="sans-serif" font-size="13" lengthAdjust="spacing" textLength="184" x="721" y="784.3638">solicita cancelar la operaci&#243;n</text></g><!--SRC=[ZPFHQeCm58RlynI7xaxe2_HYOArZPOE2jRiffPp58uJ6H98u1cFlDDWRR2-sL6kjiniAtlp9_t-_nyGUX0AZBJ4dd2I8q6h823PMpo3I1Ic71bB13-GOimuTmI9StyzNORBOX_DbdAIha_uK9_jq6Jt4wKcuMpwcITYAQyO6JfXERmVRbFPUhK0ATPX14CGIAbkX4Hgibe8BXq40kP3E-6wbzg_HfQ0CisDrrvJzbLgJBXgEWxoGWKgraPszJcl7qvzENuKtnW2smGwcsvjdMT7E6tdV2D0u9_V8FQzTzKsmWqy0xT3O5_eCbGjJe8dESHqeQXV_XrrBkA9UOlsN-atZXjkoBoOC_laROYWRm_3HBGKuAaxICoI2BiaW5z-Vgk6yi-OKICeTw7mutJhK2kkeG2Wgilx01S7isF3hmr-LegplYgDNfw54W-S8HYgh6uv2jBCHoXcTLPmwo4PT_A9pwWy0]--></g></svg>