<?xml version="1.0" encoding="us-ascii" standalone="no"?><svg xmlns="http://www.w3.org/2000/svg" xmlns:xlink="http://www.w3.org/1999/xlink" contentStyleType="text/css" height="802px" preserveAspectRatio="none" style="width:709px;height:802px;background:#FFFFFF;" version="1.1" viewBox="0 0 709 802" width="709px" zoomAndPan="magnify"><defs><filter height="300%" id="f1lfrpodn5rtlt" width="300%" x="-1" y="-1"><feGaussianBlur result="blurOut" stdDeviation="2.0"/><feColorMatrix in="blurOut" result="blurOut2" type="matrix" values="0 0 0 0 0 0 0 0 0 0 0 0 0 0 0 0 0 0 .4 0"/><feOffset dx="4.0" dy="4.0" in="blurOut2" result="blurOut3"/><feBlend in="SourceGraphic" in2="blurOut3" mode="normal"/></filter></defs><g><text fill="#000000" font-family="sans-serif" font-size="14" font-weight="bold" lengthAdjust="spacing" textLength="208" x="243.5" y="22.9951">Caso de Uso: Crear Ticket</text><g id="DASHBOARD_ABIERTO2"><rect fill="#FEFECE" filter="url(#f1lfrpodn5rtlt)" height="50" rx="12.5" ry="12.5" style="stroke:#A80036;stroke-width:1.0;" width="182" x="260" y="738.2969"/><line style="stroke:#A80036;stroke-width:1.0;" x1="260" x2="442" y1="764.5938" y2="764.5938"/><text fill="#000000" font-family="sans-serif" font-size="14" lengthAdjust="spacing" textLength="162" x="270" y="756.292">DASHBOARD_ABIERTO</text></g><g id="DASHBOARD_ABIERTO"><rect fill="#FEFECE" filter="url(#f1lfrpodn5rtlt)" height="50" rx="12.5" ry="12.5" style="stroke:#A80036;stroke-width:1.0;" width="182" x="260" y="44.2969"/><line style="stroke:#A80036;stroke-width:1.0;" x1="260" x2="442" y1="70.5938" y2="70.5938"/><text fill="#000000" font-family="sans-serif" font-size="14" lengthAdjust="spacing" textLength="162" x="270" y="62.292">DASHBOARD_ABIERTO</text></g><rect fill="none" filter="url(#f1lfrpodn5rtlt)" height="524.2969" rx="12.5" ry="12.5" style="stroke:#A80036;stroke-width:1.0;" width="688" x="7" y="154.2969"/><path d="M19.5,154.2969 L682.5,154.2969 A12.5,12.5 0 0 1 695,166.7969 L695,180.5938 L7,180.5938 L7,166.7969 A12.5,12.5 0 0 1 19.5,154.2969 " fill="#FEFECE" style="stroke:#FEFECE;stroke-width:1.0;"/><path d="M7,180.5938 L695,180.5938 L695,666.0938 A12.5,12.5 0 0 1 682.5,678.5938 L19.5,678.5938 A12.5,12.5 0 0 1 7,666.0938 L7,180.5938 " fill="#FEFECE" style="stroke:#FEFECE;stroke-width:1.0;"/><rect fill="none" height="524.2969" rx="12.5" ry="12.5" style="stroke:#A80036;stroke-width:1.0;" width="688" x="7" y="154.2969"/><line style="stroke:#A80036;stroke-width:1.0;" x1="7" x2="695" y1="180.5938" y2="180.5938"/><text fill="#000000" font-family="sans-serif" font-size="14" lengthAdjust="spacing" textLength="85" x="308.5" y="172.292">CrearTicket</text><ellipse cx="228" cy="201.5938" fill="#000000" filter="url(#f1lfrpodn5rtlt)" rx="10" ry="10" style="stroke:#000000;stroke-width:1.0;"/><g id="CrearTicket.seleccionarOpcionCrear"><rect fill="#FEFECE" filter="url(#f1lfrpodn5rtlt)" height="50" rx="12.5" ry="12.5" style="stroke:#A80036;stroke-width:1.0;" width="107" x="174.5" y="248.5938"/><line style="stroke:#A80036;stroke-width:1.0;" x1="174.5" x2="281.5" y1="274.8906" y2="274.8906"/><text fill="#000000" font-family="sans-serif" font-size="14" lengthAdjust="spacing" textLength="87" x="184.5" y="266.5889">Seleccionar'</text></g><g id="CrearTicket.ingresarDetallesTicket"><rect fill="#FEFECE" filter="url(#f1lfrpodn5rtlt)" height="50" rx="12.5" ry="12.5" style="stroke:#A80036;stroke-width:1.0;" width="78" x="189" y="388.5938"/><line style="stroke:#A80036;stroke-width:1.0;" x1="189" x2="267" y1="414.8906" y2="414.8906"/><text fill="#000000" font-family="sans-serif" font-size="14" lengthAdjust="spacing" textLength="58" x="199" y="406.5889">Ingresar</text></g><g id="CrearTicket.confirmarCreacionTicket"><rect fill="#FEFECE" filter="url(#f1lfrpodn5rtlt)" height="50" rx="12.5" ry="12.5" style="stroke:#A80036;stroke-width:1.0;" width="96" x="19" y="513.5938"/><line style="stroke:#A80036;stroke-width:1.0;" x1="19" x2="115" y1="539.8906" y2="539.8906"/><text fill="#000000" font-family="sans-serif" font-size="14" lengthAdjust="spacing" textLength="72" x="29" y="531.5889">Confirmar</text></g><ellipse cx="214" cy="649.5938" fill="none" filter="url(#f1lfrpodn5rtlt)" rx="11" ry="11" style="stroke:#000000;stroke-width:1.0;"/><ellipse cx="214" cy="649.5938" fill="#000000" rx="6" ry="6" style="stroke:#000000;stroke-width:1.0;"/><!--link *start*CrearTicket to seleccionarOpcionCrear--><g id="link_*start*CrearTicket_seleccionarOpcionCrear"><path d="M228,211.7448 C228,221.0098 228,229.7348 228,242.3778 " fill="none" id="*start*CrearTicket-to-seleccionarOpcionCrear" style="stroke:#0000FF;stroke-width:1.0;"/><polygon fill="#0000FF" points="228,248.3778,232,239.3778,228,243.3778,224,239.3778,228,248.3778" style="stroke:#0000FF;stroke-width:1.0;"/></g><!--link seleccionarOpcionCrear to ingresarDetallesTicket--><g id="link_seleccionarOpcionCrear_ingresarDetallesTicket"><path d="M228,298.6318 C228,323.8058 228,357.1238 228,382.3688 " fill="none" id="seleccionarOpcionCrear-to-ingresarDetallesTicket" style="stroke:#0000FF;stroke-width:1.0;"/><polygon fill="#0000FF" points="228,388.3688,232,379.3688,228,383.3688,224,379.3688,228,388.3688" style="stroke:#0000FF;stroke-width:1.0;"/><path d="M233,321.5938 L233,361.5938 L609,361.5938 L609,331.5938 L599,321.5938 L233,321.5938 " fill="#FBFB77" filter="url(#f1lfrpodn5rtlt)" style="stroke:#A80036;stroke-width:1.0;"/><path d="M599,321.5938 L599,331.5938 L609,331.5938 L599,321.5938 " fill="#FBFB77" style="stroke:#A80036;stroke-width:1.0;"/><text fill="#000000" font-family="sans-serif" font-size="13" font-weight="bold" lengthAdjust="spacing" textLength="146" x="239" y="338.6606">El sistema requiere</text><text fill="#000000" font-family="sans-serif" font-size="13" lengthAdjust="spacing" textLength="5" x="385" y="338.6606">:</text><text fill="#000000" font-family="sans-serif" font-size="13" lengthAdjust="spacing" textLength="355" x="239" y="353.7935">&#176; Seleccionar la opci&#243;n 'Crear Ticket' en la lista de ticket</text></g><!--link ingresarDetallesTicket to confirmarCreacionTicket--><g id="link_ingresarDetallesTicket_confirmarCreacionTicket"><path d="M188.89,420.7378 C163.662,426.4077 131.482,437.0398 109,456.5938 C91.789,471.5638 82.6833,489.6753 76.2322,507.5983 " fill="none" id="ingresarDetallesTicket-to-confirmarCreacionTicket" style="stroke:#0000FF;stroke-width:1.0;"/><polygon fill="#0000FF" points="74.2002,513.2438,81.0118,506.1302,75.8935,508.5392,73.4846,503.4209,74.2002,513.2438" style="stroke:#0000FF;stroke-width:1.0;"/><path d="M114,461.5938 L114,486.5938 L353,486.5938 L353,471.5938 L343,461.5938 L114,461.5938 " fill="#FBFB77" filter="url(#f1lfrpodn5rtlt)" style="stroke:#A80036;stroke-width:1.0;"/><path d="M343,461.5938 L343,471.5938 L353,471.5938 L343,461.5938 " fill="#FBFB77" style="stroke:#A80036;stroke-width:1.0;"/><text fill="#000000" font-family="sans-serif" font-size="13" font-weight="bold" lengthAdjust="spacing" textLength="74" x="120" y="478.6606">El usuario</text><text fill="#000000" font-family="sans-serif" font-size="13" lengthAdjust="spacing" textLength="140" x="198" y="478.6606">solicita crear un ticket</text></g><!--link confirmarCreacionTicket to *end*CrearTicket--><g id="link_confirmarCreacionTicket_*end*CrearTicket"><path d="M53.9793,563.8926 C46.4902,581.5536 40.8985,605.0004 54,620.5938 C73.1382,643.372 163.4237,647.4805 196.6827,648.2712 " fill="none" id="confirmarCreacionTicket-to-*end*CrearTicket" style="stroke:#0000FF;stroke-width:1.0;"/><polygon fill="#0000FF" points="202.681,648.4139,193.7786,644.2011,197.6824,648.295,193.5885,652.1988,202.681,648.4139" style="stroke:#0000FF;stroke-width:1.0;"/><path d="M59,586.5938 L59,611.5938 L353,611.5938 L353,596.5938 L343,586.5938 L59,586.5938 " fill="#FBFB77" filter="url(#f1lfrpodn5rtlt)" style="stroke:#A80036;stroke-width:1.0;"/><path d="M343,586.5938 L343,596.5938 L353,596.5938 L343,586.5938 " fill="#FBFB77" style="stroke:#A80036;stroke-width:1.0;"/><text fill="#000000" font-family="sans-serif" font-size="13" font-weight="bold" lengthAdjust="spacing" textLength="134" x="65" y="603.6606">El usuario solicita</text><text fill="#000000" font-family="sans-serif" font-size="13" lengthAdjust="spacing" textLength="135" x="203" y="603.6606">confirmar la creaci&#243;n</text></g><!--link ingresarDetallesTicket to *end*CrearTicket--><g id="link_ingresarDetallesTicket_*end*CrearTicket"><path d="M267.075,415.1008 C298.348,417.8298 340.423,427.2188 362,456.5938 C405.15,515.3378 408.504,564.4672 362,620.5938 C344.482,641.7371 262.1084,646.799 230.9174,648.0198 " fill="none" id="ingresarDetallesTicket-to-*end*CrearTicket" style="stroke:#FF0000;stroke-width:1.0;"/><polygon fill="#FF0000" points="224.922,648.2545,234.0716,651.8994,229.9182,648.0589,233.7587,643.9055,224.922,648.2545" style="stroke:#FF0000;stroke-width:1.0;"/><path d="M400,524.0938 L400,549.0938 L686,549.0938 L686,534.0938 L676,524.0938 L400,524.0938 " fill="#FBFB77" filter="url(#f1lfrpodn5rtlt)" style="stroke:#A80036;stroke-width:1.0;"/><path d="M676,524.0938 L676,534.0938 L686,534.0938 L676,524.0938 " fill="#FBFB77" style="stroke:#A80036;stroke-width:1.0;"/><text fill="#000000" font-family="sans-serif" font-size="13" font-weight="bold" lengthAdjust="spacing" textLength="134" x="406" y="541.1606">El usuario solicita</text><text fill="#000000" font-family="sans-serif" font-size="13" lengthAdjust="spacing" textLength="127" x="544" y="541.1606">cancelar la creaci&#243;n</text></g><!--link DASHBOARD_ABIERTO to CrearTicket--><g id="link_DASHBOARD_ABIERTO_CrearTicket"><path d="M351,94.5569 C351,109.4339 351,124.1869 351,148.0539 " fill="none" id="DASHBOARD_ABIERTO-to-CrearTicket" style="stroke:#A80036;stroke-width:1.0;"/><polygon fill="#A80036" points="351,154.0539,355,145.0539,351,149.0539,347,145.0539,351,154.0539" style="stroke:#A80036;stroke-width:1.0;"/></g><!--link CrearTicket to DASHBOARD_ABIERTO2--><g id="link_CrearTicket_DASHBOARD_ABIERTO2"><path d="M351,678.3419 C351,702.3238 351,717.1733 351,732.0961 " fill="none" id="CrearTicket-to-DASHBOARD_ABIERTO2" style="stroke:#A80036;stroke-width:1.0;"/><polygon fill="#A80036" points="351,738.0961,355,729.0961,351,733.0961,347,729.0961,351,738.0961" style="stroke:#A80036;stroke-width:1.0;"/></g><!--SRC=[bP5DQiCm48NtFiMGBWm2RxhCef0_Q5Q195s5KARoj8WeKgkHLwLtAlG6xSKgoKuYcZZGbOsUvhtlZNYd33ZBL7ZbDS44sK9DyC1s21D7w62jv8vyKR17Jp2OZbRtuyLeENqSZUUpvNen06GuExqjYhCpgAgxrhJppFwJTicboysllXS06x65QdFpf1lQXaacJL8gQz0jNkCttG_tEkhLIIyJSF_0HI7FKkR54QERaaUjYRioneOWQq0himi-Gimqi69FUmH7RuqYHq8CW_Jz2HaFQ0GRadw-39JvoaiW4qKTJ30-Yc-3oDGGmqxjvXrHQjQ31pr2tanQywpS7bt4Y7J7sRpSiEtMS8DEMI60hLPI1KQPw1jp83qHJWxEa1ZxWtgKd38y_LMY8qz0Ezh5HSfa6VOSng_kmr7zxo0qalJVd8zV]--></g></svg>