<?xml version="1.0" encoding="us-ascii" standalone="no"?><svg xmlns="http://www.w3.org/2000/svg" xmlns:xlink="http://www.w3.org/1999/xlink" contentStyleType="text/css" height="780px" preserveAspectRatio="none" style="width:791px;height:780px;background:#FFFFFF;" version="1.1" viewBox="0 0 791 780" width="791px" zoomAndPan="magnify"><defs><filter height="300%" id="f1lp75jrb21yob" width="300%" x="-1" y="-1"><feGaussianBlur result="blurOut" stdDeviation="2.0"/><feColorMatrix in="blurOut" result="blurOut2" type="matrix" values="0 0 0 0 0 0 0 0 0 0 0 0 0 0 0 0 0 0 .4 0"/><feOffset dx="4.0" dy="4.0" in="blurOut2" result="blurOut3"/><feBlend in="SourceGraphic" in2="blurOut3" mode="normal"/></filter></defs><g><text fill="#000000" font-family="sans-serif" font-size="14" font-weight="bold" lengthAdjust="spacing" textLength="263" x="256" y="22.9951">Caso de Uso: Consultar Historial</text><!--cluster ConsultarHistorial--><g id="cluster_ConsultarHistorial"><rect fill="none" filter="url(#f1lp75jrb21yob)" height="319" rx="12.5" ry="12.5" style="stroke:#A80036;stroke-width:1.0;" width="378" x="90" y="447.2969"/><path d="M102.5,447.2969 L455.5,447.2969 A12.5,12.5 0 0 1 468,459.7969 L468,468.5938 L90,468.5938 L90,459.7969 A12.5,12.5 0 0 1 102.5,447.2969 " fill="#FEFECE" style="stroke:#FEFECE;stroke-width:1.0;"/><path d="M90,468.5938 L468,468.5938 L468,753.7969 A12.5,12.5 0 0 1 455.5,766.2969 L102.5,766.2969 A12.5,12.5 0 0 1 90,753.7969 L90,468.5938 " fill="#FEFECE" style="stroke:#FEFECE;stroke-width:1.0;"/><rect fill="none" height="319" rx="12.5" ry="12.5" style="stroke:#A80036;stroke-width:1.0;" width="378" x="90" y="447.2969"/><line style="stroke:#A80036;stroke-width:1.0;" x1="90" x2="468" y1="468.5938" y2="468.5938"/><text fill="#000000" font-family="sans-serif" font-size="14" lengthAdjust="spacing" textLength="127" x="215.5" y="464.292">ConsultarHistorial</text></g><ellipse cx="157" cy="500.2969" fill="#000000" filter="url(#f1lp75jrb21yob)" rx="10" ry="10" style="stroke:#000000;stroke-width:1.0;"/><g id="ConsultarHistorial.visualizarHistorial"><rect fill="#FEFECE" filter="url(#f1lp75jrb21yob)" height="50" rx="12.5" ry="12.5" style="stroke:#A80036;stroke-width:1.0;" width="150" x="208" y="609.2969"/><line style="stroke:#A80036;stroke-width:1.0;" x1="208" x2="358" y1="635.5938" y2="635.5938"/><text fill="#000000" font-family="sans-serif" font-size="14" lengthAdjust="spacing" textLength="130" x="218" y="627.292">Visualizar Historial</text></g><ellipse cx="283" cy="731.2969" fill="none" filter="url(#f1lp75jrb21yob)" rx="11" ry="11" style="stroke:#000000;stroke-width:1.0;"/><ellipse cx="283" cy="731.2969" fill="#000000" rx="6" ry="6" style="stroke:#000000;stroke-width:1.0;"/><g id="DASHBOARD_ABIERTO"><rect fill="#FEFECE" filter="url(#f1lp75jrb21yob)" height="50" rx="12.5" ry="12.5" style="stroke:#A80036;stroke-width:1.0;" width="182" x="7" y="44.2969"/><line style="stroke:#A80036;stroke-width:1.0;" x1="7" x2="189" y1="70.5938" y2="70.5938"/><text fill="#000000" font-family="sans-serif" font-size="14" lengthAdjust="spacing" textLength="162" x="17" y="62.292">DASHBOARD_ABIERTO</text></g><g id="FILTRAR_TICKETS"><rect fill="#FEFECE" filter="url(#f1lp75jrb21yob)" height="50" rx="12.5" ry="12.5" style="stroke:#A80036;stroke-width:1.0;" width="146" x="25" y="193.2969"/><line style="stroke:#A80036;stroke-width:1.0;" x1="25" x2="171" y1="219.5938" y2="219.5938"/><text fill="#000000" font-family="sans-serif" font-size="14" lengthAdjust="spacing" textLength="126" x="35" y="211.292">FILTRAR_TICKETS</text></g><g id="VER_TICKET"><rect fill="#FEFECE" filter="url(#f1lp75jrb21yob)" height="50" rx="12.5" ry="12.5" style="stroke:#A80036;stroke-width:1.0;" width="107" x="44.5" y="342.2969"/><line style="stroke:#A80036;stroke-width:1.0;" x1="44.5" x2="151.5" y1="368.5938" y2="368.5938"/><text fill="#000000" font-family="sans-serif" font-size="14" lengthAdjust="spacing" textLength="87" x="54.5" y="360.292">VER_TICKET</text></g><g id="elem_GMN14"><path d="M492,614.2969 L492,630.2969 L358.018,634.2969 L492,638.2969 L492,654.5625 A0,0 0 0 0 492,654.5625 L782,654.5625 A0,0 0 0 0 782,654.5625 L782,624.2969 L772,614.2969 L492,614.2969 A0,0 0 0 0 492,614.2969 " fill="#FBFB77" filter="url(#f1lp75jrb21yob)" style="stroke:#A80036;stroke-width:1.0;"/><path d="M772,614.2969 L772,624.2969 L782,624.2969 L772,614.2969 " fill="#FBFB77" style="stroke:#A80036;stroke-width:1.0;"/><text fill="#000000" font-family="sans-serif" font-size="13" font-weight="bold" lengthAdjust="spacing" textLength="147" x="498" y="631.3638">El sistema muestra</text><text fill="#000000" font-family="sans-serif" font-size="13" lengthAdjust="spacing" textLength="269" x="498" y="646.4966">Todos los cambios que ha sufrido el ticket</text></g><!--link DASHBOARD_ABIERTO to FILTRAR_TICKETS--><g id="link_DASHBOARD_ABIERTO_FILTRAR_TICKETS"><path d="M98,94.5709 C98,121.8079 98,159.7349 98,186.9869 " fill="none" id="DASHBOARD_ABIERTO-to-FILTRAR_TICKETS" style="stroke:#A80036;stroke-width:1.0;"/><polygon fill="#A80036" points="98,192.9869,102,183.9869,98,187.9869,94,183.9869,98,192.9869" style="stroke:#A80036;stroke-width:1.0;"/><path d="M103,129.2969 L103,154.2969 L448,154.2969 L448,139.2969 L438,129.2969 L103,129.2969 " fill="#FBFB77" filter="url(#f1lp75jrb21yob)" style="stroke:#A80036;stroke-width:1.0;"/><path d="M438,129.2969 L438,139.2969 L448,139.2969 L438,129.2969 " fill="#FBFB77" style="stroke:#A80036;stroke-width:1.0;"/><text fill="#000000" font-family="sans-serif" font-size="13" font-weight="bold" lengthAdjust="spacing" textLength="134" x="109" y="146.3638">El usuario solicita</text><text fill="#000000" font-family="sans-serif" font-size="13" lengthAdjust="spacing" textLength="186" x="247" y="146.3638">filtrar por propiedad de ticket</text></g><!--link FILTRAR_TICKETS to VER_TICKET--><g id="link_FILTRAR_TICKETS_VER_TICKET"><path d="M98,243.5709 C98,270.8079 98,308.7349 98,335.9869 " fill="none" id="FILTRAR_TICKETS-to-VER_TICKET" style="stroke:#A80036;stroke-width:1.0;"/><polygon fill="#A80036" points="98,341.9869,102,332.9869,98,336.9869,94,332.9869,98,341.9869" style="stroke:#A80036;stroke-width:1.0;"/><path d="M103,278.2969 L103,303.2969 L342,303.2969 L342,288.2969 L332,278.2969 L103,278.2969 " fill="#FBFB77" filter="url(#f1lp75jrb21yob)" style="stroke:#A80036;stroke-width:1.0;"/><path d="M332,278.2969 L332,288.2969 L342,288.2969 L332,278.2969 " fill="#FBFB77" style="stroke:#A80036;stroke-width:1.0;"/><text fill="#000000" font-family="sans-serif" font-size="13" font-weight="bold" lengthAdjust="spacing" textLength="134" x="109" y="295.3638">El usuario solicita</text><text fill="#000000" font-family="sans-serif" font-size="13" lengthAdjust="spacing" textLength="80" x="247" y="295.3638">ver un ticket</text></g><!--link VER_TICKET to ConsultarHistorial--><g id="link_VER_TICKET_ConsultarHistorial"><path d="M98,392.3239 C98,401.6309 98,412.8356 98,424.4404 C98,430.2428 98,436.1452 98,441.9604 C98,443.4142 98,444.8626 98,446.3026 C98,446.4826 98,440.6624 98,440.8422 " fill="none" id="VER_TICKET-to-ConsultarHistorial" style="stroke:#A80036;stroke-width:1.0;"/><polygon fill="#A80036" points="98,446.8422,102,437.8422,98,441.8422,94,437.8422,98,446.8422" style="stroke:#A80036;stroke-width:1.0;"/></g><!--link *start*ConsultarHistorial to visualizarHistorial--><g id="link_*start*ConsultarHistorial_visualizarHistorial"><path d="M163.422,508.0239 C180.974,526.4119 226.2652,573.8597 255.7902,604.7917 " fill="none" id="*start*ConsultarHistorial-to-visualizarHistorial" style="stroke:#0000FF;stroke-width:1.0;"/><polygon fill="#0000FF" points="259.933,609.1319,256.6123,599.8597,256.4807,605.515,250.8254,605.3834,259.933,609.1319" style="stroke:#0000FF;stroke-width:1.0;"/><path d="M236,545.2969 L236,570.2969 L509,570.2969 L509,555.2969 L499,545.2969 L236,545.2969 " fill="#FBFB77" filter="url(#f1lp75jrb21yob)" style="stroke:#A80036;stroke-width:1.0;"/><path d="M499,545.2969 L499,555.2969 L509,555.2969 L499,545.2969 " fill="#FBFB77" style="stroke:#A80036;stroke-width:1.0;"/><text fill="#000000" font-family="sans-serif" font-size="13" font-weight="bold" lengthAdjust="spacing" textLength="134" x="242" y="562.3638">El usuario solicita</text><text fill="#000000" font-family="sans-serif" font-size="13" lengthAdjust="spacing" textLength="114" x="380" y="562.3638">visualizar historial</text></g><!--link visualizarHistorial to *end*ConsultarHistorial--><g id="link_visualizarHistorial_*end*ConsultarHistorial"><path d="M283,659.7619 C283,679.3329 283,699.789 283,714.0936 " fill="none" id="visualizarHistorial-to-*end*ConsultarHistorial" style="stroke:#0000FF;stroke-width:1.0;"/><polygon fill="#0000FF" points="283,720.0936,287,711.0936,283,715.0936,279,711.0936,283,720.0936" style="stroke:#0000FF;stroke-width:1.0;"/></g><!--SRC=[ZL5DQm8n4BtdLppiRS4_uA6mwXQb1M7TUX6Hw4OTZ1cRIJoqzBytNV63Mi73CEGDxsCciYK7ps9Ke60DUbeOjS6xS0SzTX9jq1u3ai2Uj5LAWWu6_Nmyw8xoiZ_FkyEYh4PAgHiCxVOpNePlLPcNyshOUosgiNASwEnWoMqxoBB28ahKdXZ2bfOKT9PXHJRuPBpdL9xtP6fT_mOBjDoQeFweDawJulH-qEHWFA8xILxeZTfv-PlTRoVuKi0qcw4zVLhOQ6Q9Vw1aQEdpMW1uCDYPYyqL-MZVcbocP-aMjDon_0UzpfbYgszrl9YdzIQ0LtUKchYI0BFJs4KZwOkoB0qghbbWKotrRa6fVqI3ZOR4bQUQOUpfoiRLpH5-0000]--></g></svg>