<?xml version="1.0" encoding="us-ascii" standalone="no"?><svg xmlns="http://www.w3.org/2000/svg" xmlns:xlink="http://www.w3.org/1999/xlink" contentStyleType="text/css" height="890px" preserveAspectRatio="none" style="width:546px;height:890px;background:#FFFFFF;" version="1.1" viewBox="0 0 546 890" width="546px" zoomAndPan="magnify"><defs><filter height="300%" id="f1vzbot8o521su" width="300%" x="-1" y="-1"><feGaussianBlur result="blurOut" stdDeviation="2.0"/><feColorMatrix in="blurOut" result="blurOut2" type="matrix" values="0 0 0 0 0 0 0 0 0 0 0 0 0 0 0 0 0 0 .4 0"/><feOffset dx="4.0" dy="4.0" in="blurOut2" result="blurOut3"/><feBlend in="SourceGraphic" in2="blurOut3" mode="normal"/></filter></defs><g><text fill="#000000" font-family="sans-serif" font-size="14" font-weight="bold" lengthAdjust="spacing" textLength="263" x="133.5" y="22.9951">Caso de Uso: Consultar Historial</text><g id="DASHBOARD_ABIERTO"><rect fill="#FEFECE" filter="url(#f1vzbot8o521su)" height="50" rx="12.5" ry="12.5" style="stroke:#A80036;stroke-width:1.0;" width="182" x="96" y="44.2969"/><line style="stroke:#A80036;stroke-width:1.0;" x1="96" x2="278" y1="70.5938" y2="70.5938"/><text fill="#000000" font-family="sans-serif" font-size="14" lengthAdjust="spacing" textLength="162" x="106" y="62.292">DASHBOARD_ABIERTO</text></g><g id="VER_TICKET2"><rect fill="#FEFECE" filter="url(#f1vzbot8o521su)" height="50" rx="12.5" ry="12.5" style="stroke:#A80036;stroke-width:1.0;" width="107" x="133.5" y="826.2969"/><line style="stroke:#A80036;stroke-width:1.0;" x1="133.5" x2="240.5" y1="852.5938" y2="852.5938"/><text fill="#000000" font-family="sans-serif" font-size="14" lengthAdjust="spacing" textLength="87" x="143.5" y="844.292">VER_TICKET</text></g><g id="FILTRAR_TICKETS"><rect fill="#FEFECE" filter="url(#f1vzbot8o521su)" height="50" rx="12.5" ry="12.5" style="stroke:#A80036;stroke-width:1.0;" width="146" x="114" y="193.2969"/><line style="stroke:#A80036;stroke-width:1.0;" x1="114" x2="260" y1="219.5938" y2="219.5938"/><text fill="#000000" font-family="sans-serif" font-size="14" lengthAdjust="spacing" textLength="126" x="124" y="211.292">FILTRAR_TICKETS</text></g><g id="VER_TICKET"><rect fill="#FEFECE" filter="url(#f1vzbot8o521su)" height="50" rx="12.5" ry="12.5" style="stroke:#A80036;stroke-width:1.0;" width="107" x="133.5" y="342.2969"/><line style="stroke:#A80036;stroke-width:1.0;" x1="133.5" x2="240.5" y1="368.5938" y2="368.5938"/><text fill="#000000" font-family="sans-serif" font-size="14" lengthAdjust="spacing" textLength="87" x="143.5" y="360.292">VER_TICKET</text></g><rect fill="none" filter="url(#f1vzbot8o521su)" height="312.2969" rx="12.5" ry="12.5" style="stroke:#A80036;stroke-width:1.0;" width="359.5" x="7" y="453.2969"/><path d="M19.5,453.2969 L354,453.2969 A12.5,12.5 0 0 1 366.5,465.7969 L366.5,479.5938 L7,479.5938 L7,465.7969 A12.5,12.5 0 0 1 19.5,453.2969 " fill="#FEFECE" style="stroke:#FEFECE;stroke-width:1.0;"/><path d="M7,479.5938 L366.5,479.5938 L366.5,753.0938 A12.5,12.5 0 0 1 354,765.5938 L19.5,765.5938 A12.5,12.5 0 0 1 7,753.0938 L7,479.5938 " fill="#FEFECE" style="stroke:#FEFECE;stroke-width:1.0;"/><rect fill="none" height="312.2969" rx="12.5" ry="12.5" style="stroke:#A80036;stroke-width:1.0;" width="359.5" x="7" y="453.2969"/><line style="stroke:#A80036;stroke-width:1.0;" x1="7" x2="366.5" y1="479.5938" y2="479.5938"/><text fill="#000000" font-family="sans-serif" font-size="14" lengthAdjust="spacing" textLength="127" x="123.25" y="471.292">ConsultarHistorial</text><ellipse cx="62.5" cy="500.5938" fill="#000000" filter="url(#f1vzbot8o521su)" rx="10" ry="10" style="stroke:#000000;stroke-width:1.0;"/><g id="ConsultarHistorial.visualizarHistorial"><rect fill="#FEFECE" filter="url(#f1vzbot8o521su)" height="50" rx="12.5" ry="12.5" style="stroke:#A80036;stroke-width:1.0;" width="87" x="19" y="585.5938"/><line style="stroke:#A80036;stroke-width:1.0;" x1="19" x2="106" y1="611.8906" y2="611.8906"/><text fill="#000000" font-family="sans-serif" font-size="14" lengthAdjust="spacing" textLength="67" x="29" y="603.5889">Visualizar</text></g><ellipse cx="62.5" cy="736.5938" fill="none" filter="url(#f1vzbot8o521su)" rx="11" ry="11" style="stroke:#000000;stroke-width:1.0;"/><ellipse cx="62.5" cy="736.5938" fill="#000000" rx="6" ry="6" style="stroke:#000000;stroke-width:1.0;"/><!--link *start*ConsultarHistorial to visualizarHistorial--><g id="link_*start*ConsultarHistorial_visualizarHistorial"><path d="M62.5,510.8017 C62.5,527.1248 62.5,555.6347 62.5,579.2217 " fill="none" id="*start*ConsultarHistorial-to-visualizarHistorial" style="stroke:#0000FF;stroke-width:1.0;"/><polygon fill="#0000FF" points="62.5,585.2217,66.5,576.2217,62.5,580.2217,58.5,576.2217,62.5,585.2217" style="stroke:#0000FF;stroke-width:1.0;"/><path d="M67.5,533.5938 L67.5,558.5938 L340.5,558.5938 L340.5,543.5938 L330.5,533.5938 L67.5,533.5938 " fill="#FBFB77" filter="url(#f1vzbot8o521su)" style="stroke:#A80036;stroke-width:1.0;"/><path d="M330.5,533.5938 L330.5,543.5938 L340.5,543.5938 L330.5,533.5938 " fill="#FBFB77" style="stroke:#A80036;stroke-width:1.0;"/><text fill="#000000" font-family="sans-serif" font-size="13" font-weight="bold" lengthAdjust="spacing" textLength="134" x="73.5" y="550.6606">El usuario solicita</text><text fill="#000000" font-family="sans-serif" font-size="13" lengthAdjust="spacing" textLength="114" x="211.5" y="550.6606">visualizar historial</text></g><!--link visualizarHistorial to *end*ConsultarHistorial--><g id="link_visualizarHistorial_*end*ConsultarHistorial"><path d="M62.5,635.7968 C62.5,663.0023 62.5,699.9091 62.5,719.3797 " fill="none" id="visualizarHistorial-to-*end*ConsultarHistorial" style="stroke:#0000FF;stroke-width:1.0;"/><polygon fill="#0000FF" points="62.5,725.3797,66.5,716.3797,62.5,720.3797,58.5,716.3797,62.5,725.3797" style="stroke:#0000FF;stroke-width:1.0;"/><path d="M67.5,658.5938 L67.5,698.5938 L357.5,698.5938 L357.5,668.5938 L347.5,658.5938 L67.5,658.5938 " fill="#FBFB77" filter="url(#f1vzbot8o521su)" style="stroke:#A80036;stroke-width:1.0;"/><path d="M347.5,658.5938 L347.5,668.5938 L357.5,668.5938 L347.5,658.5938 " fill="#FBFB77" style="stroke:#A80036;stroke-width:1.0;"/><text fill="#000000" font-family="sans-serif" font-size="13" font-weight="bold" lengthAdjust="spacing" textLength="147" x="73.5" y="675.6606">El sistema muestra</text><text fill="#000000" font-family="sans-serif" font-size="13" lengthAdjust="spacing" textLength="269" x="73.5" y="690.7935">Todos los cambios que ha sufrido el ticket</text></g><!--link DASHBOARD_ABIERTO to FILTRAR_TICKETS--><g id="link_DASHBOARD_ABIERTO_FILTRAR_TICKETS"><path d="M187,94.5709 C187,121.8079 187,159.7349 187,186.9869 " fill="none" id="DASHBOARD_ABIERTO-to-FILTRAR_TICKETS" style="stroke:#A80036;stroke-width:1.0;"/><polygon fill="#A80036" points="187,192.9869,191,183.9869,187,187.9869,183,183.9869,187,192.9869" style="stroke:#A80036;stroke-width:1.0;"/><path d="M192,129.2969 L192,154.2969 L537,154.2969 L537,139.2969 L527,129.2969 L192,129.2969 " fill="#FBFB77" filter="url(#f1vzbot8o521su)" style="stroke:#A80036;stroke-width:1.0;"/><path d="M527,129.2969 L527,139.2969 L537,139.2969 L527,129.2969 " fill="#FBFB77" style="stroke:#A80036;stroke-width:1.0;"/><text fill="#000000" font-family="sans-serif" font-size="13" font-weight="bold" lengthAdjust="spacing" textLength="134" x="198" y="146.3638">El usuario solicita</text><text fill="#000000" font-family="sans-serif" font-size="13" lengthAdjust="spacing" textLength="186" x="336" y="146.3638">filtrar por propiedad de ticket</text></g><!--link FILTRAR_TICKETS to VER_TICKET--><g id="link_FILTRAR_TICKETS_VER_TICKET"><path d="M187,243.5709 C187,270.8079 187,308.7349 187,335.9869 " fill="none" id="FILTRAR_TICKETS-to-VER_TICKET" style="stroke:#A80036;stroke-width:1.0;"/><polygon fill="#A80036" points="187,341.9869,191,332.9869,187,336.9869,183,332.9869,187,341.9869" style="stroke:#A80036;stroke-width:1.0;"/><path d="M192,278.2969 L192,303.2969 L431,303.2969 L431,288.2969 L421,278.2969 L192,278.2969 " fill="#FBFB77" filter="url(#f1vzbot8o521su)" style="stroke:#A80036;stroke-width:1.0;"/><path d="M421,278.2969 L421,288.2969 L431,288.2969 L421,278.2969 " fill="#FBFB77" style="stroke:#A80036;stroke-width:1.0;"/><text fill="#000000" font-family="sans-serif" font-size="13" font-weight="bold" lengthAdjust="spacing" textLength="134" x="198" y="295.3638">El usuario solicita</text><text fill="#000000" font-family="sans-serif" font-size="13" lengthAdjust="spacing" textLength="80" x="336" y="295.3638">ver un ticket</text></g><!--link VER_TICKET to ConsultarHistorial--><g id="link_VER_TICKET_ConsultarHistorial"><path d="M187,392.6299 C187,408.1219 187,423.6509 187,447.1519 " fill="none" id="VER_TICKET-to-ConsultarHistorial" style="stroke:#A80036;stroke-width:1.0;"/><polygon fill="#A80036" points="187,453.1519,191,444.1519,187,448.1519,183,444.1519,187,453.1519" style="stroke:#A80036;stroke-width:1.0;"/></g><!--link ConsultarHistorial to VER_TICKET2--><g id="link_ConsultarHistorial_VER_TICKET2"><path d="M187,765.3439 C187,789.0315 187,804.7217 187,820.2561 " fill="none" id="ConsultarHistorial-to-VER_TICKET2" style="stroke:#A80036;stroke-width:1.0;"/><polygon fill="#A80036" points="187,826.2561,191,817.2561,187,821.2561,183,817.2561,187,826.2561" style="stroke:#A80036;stroke-width:1.0;"/></g><!--SRC=[ZL5DQm8n4BtdLppiBU2bHm-5LRSeBGZhjXSHYMx4mPZOJEAXfV-zSN5TgnuyX92PUHzvmrkoy8wr21ICna2nGwNnmQw7WRCSJL0U8-BWF2aZ10SLD8RPTDIVPCLmaVN7UL5EJlNEPruiol7WBIyxK8ps-Io4k46Xstt1w_YzBB9cRYgiIqJEmf3TzY1bRX0vAayEx0ojA2WfiIOJVBAsT-bujoTTgUfeFT1gguEuOgsLMZSFYXoqHxGDPGklsSxnjEdSbgvqZocSehep-oE0cPoZEtjQcgZd2NgWvChGzwKAyA3xCnQR2t2pgNEttjHzeJlLItV9xBya4w8smsbOxnHsKNFQafIfKRhACKmwAxLRKhg_eiP6WUFQK-MWJHEqjbNzHV7x1m00]--></g></svg>