<?xml version="1.0" encoding="us-ascii" standalone="no"?><svg xmlns="http://www.w3.org/2000/svg" xmlns:xlink="http://www.w3.org/1999/xlink" contentStyleType="text/css" height="1007px" preserveAspectRatio="none" style="width:676px;height:1007px;background:#FFFFFF;" version="1.1" viewBox="0 0 676 1007" width="676px" zoomAndPan="magnify"><defs><filter height="300%" id="fxd4657ns7rxl" width="300%" x="-1" y="-1"><feGaussianBlur result="blurOut" stdDeviation="2.0"/><feColorMatrix in="blurOut" result="blurOut2" type="matrix" values="0 0 0 0 0 0 0 0 0 0 0 0 0 0 0 0 0 0 .4 0"/><feOffset dx="4.0" dy="4.0" in="blurOut2" result="blurOut3"/><feBlend in="SourceGraphic" in2="blurOut3" mode="normal"/></filter></defs><g><text fill="#000000" font-family="sans-serif" font-size="14" font-weight="bold" lengthAdjust="spacing" textLength="244" x="208" y="22.9951">Caso de Uso: Comentar Ticket</text><g id="DASHBOARD_ABIERTO"><rect fill="#FEFECE" filter="url(#fxd4657ns7rxl)" height="50" rx="12.5" ry="12.5" style="stroke:#A80036;stroke-width:1.0;" width="182" x="226" y="44.2969"/><line style="stroke:#A80036;stroke-width:1.0;" x1="226" x2="408" y1="70.5938" y2="70.5938"/><text fill="#000000" font-family="sans-serif" font-size="14" lengthAdjust="spacing" textLength="162" x="236" y="62.292">DASHBOARD_ABIERTO</text></g><g id="VER_TICKET"><rect fill="#FEFECE" filter="url(#fxd4657ns7rxl)" height="50" rx="12.5" ry="12.5" style="stroke:#A80036;stroke-width:1.0;" width="107" x="263.5" y="342.2969"/><line style="stroke:#A80036;stroke-width:1.0;" x1="263.5" x2="370.5" y1="368.5938" y2="368.5938"/><text fill="#000000" font-family="sans-serif" font-size="14" lengthAdjust="spacing" textLength="87" x="273.5" y="360.292">VER_TICKET</text></g><g id="FILTRAR_TICKETS"><rect fill="#FEFECE" filter="url(#fxd4657ns7rxl)" height="50" rx="12.5" ry="12.5" style="stroke:#A80036;stroke-width:1.0;" width="146" x="244" y="193.2969"/><line style="stroke:#A80036;stroke-width:1.0;" x1="244" x2="390" y1="219.5938" y2="219.5938"/><text fill="#000000" font-family="sans-serif" font-size="14" lengthAdjust="spacing" textLength="126" x="254" y="211.292">FILTRAR_TICKETS</text></g><g id="OPEN_TICKET2"><rect fill="#FEFECE" filter="url(#fxd4657ns7rxl)" height="50" rx="12.5" ry="12.5" style="stroke:#A80036;stroke-width:1.0;" width="107" x="263.5" y="943.2969"/><line style="stroke:#A80036;stroke-width:1.0;" x1="263.5" x2="370.5" y1="969.5938" y2="969.5938"/><text fill="#000000" font-family="sans-serif" font-size="14" lengthAdjust="spacing" textLength="87" x="273.5" y="961.292">VER_TICKET</text></g><rect fill="none" filter="url(#fxd4657ns7rxl)" height="429.2969" rx="12.5" ry="12.5" style="stroke:#A80036;stroke-width:1.0;" width="620.1285" x="7" y="453.2969"/><path d="M19.5,453.2969 L614.6285,453.2969 A12.5,12.5 0 0 1 627.1285,465.7969 L627.1285,479.5938 L7,479.5938 L7,465.7969 A12.5,12.5 0 0 1 19.5,453.2969 " fill="#FEFECE" style="stroke:#FEFECE;stroke-width:1.0;"/><path d="M7,479.5938 L627.1285,479.5938 L627.1285,870.0938 A12.5,12.5 0 0 1 614.6285,882.5938 L19.5,882.5938 A12.5,12.5 0 0 1 7,870.0938 L7,479.5938 " fill="#FEFECE" style="stroke:#FEFECE;stroke-width:1.0;"/><rect fill="none" height="429.2969" rx="12.5" ry="12.5" style="stroke:#A80036;stroke-width:1.0;" width="620.1285" x="7" y="453.2969"/><line style="stroke:#A80036;stroke-width:1.0;" x1="7" x2="627.1285" y1="479.5938" y2="479.5938"/><text fill="#000000" font-family="sans-serif" font-size="14" lengthAdjust="spacing" textLength="118" x="258.0643" y="471.292">ComentarTicket</text><ellipse cx="186.1286" cy="500.5938" fill="#000000" filter="url(#fxd4657ns7rxl)" rx="10" ry="10" style="stroke:#000000;stroke-width:1.0;"/><g id="ComentarTicket.comentarTicket"><rect fill="#FEFECE" filter="url(#fxd4657ns7rxl)" height="50" rx="12.5" ry="12.5" style="stroke:#A80036;stroke-width:1.0;" width="61" x="155.6286" y="630.5938"/><line style="stroke:#A80036;stroke-width:1.0;" x1="155.6286" x2="216.6286" y1="656.8906" y2="656.8906"/><text fill="#000000" font-family="sans-serif" font-size="14" lengthAdjust="spacing" textLength="41" x="165.6286" y="648.5889">Hacer</text></g><g id="ComentarTicket.confirmarComentario"><rect fill="#FEFECE" filter="url(#fxd4657ns7rxl)" height="50" rx="12.5" ry="12.5" style="stroke:#A80036;stroke-width:1.0;" width="92" x="140.1286" y="717.5938"/><line style="stroke:#A80036;stroke-width:1.0;" x1="140.1286" x2="232.1286" y1="743.8906" y2="743.8906"/><text fill="#000000" font-family="sans-serif" font-size="14" lengthAdjust="spacing" textLength="72" x="150.1286" y="735.5889">Confirmar</text></g><ellipse cx="186.1286" cy="853.5938" fill="none" filter="url(#fxd4657ns7rxl)" rx="11" ry="11" style="stroke:#000000;stroke-width:1.0;"/><ellipse cx="186.1286" cy="853.5938" fill="#000000" rx="6" ry="6" style="stroke:#000000;stroke-width:1.0;"/><!--link *start*ComentarTicket to comentarTicket--><g id="link_*start*ComentarTicket_comentarTicket"><path d="M186.1286,510.7068 C186.1286,533.9308 186.1286,589.9368 186.1286,624.4898 " fill="none" id="*start*ComentarTicket-to-comentarTicket" style="stroke:#0000FF;stroke-width:1.0;"/><polygon fill="#0000FF" points="186.1286,630.4898,190.1286,621.4898,186.1286,625.4898,182.1286,621.4898,186.1286,630.4898" style="stroke:#0000FF;stroke-width:1.0;"/><path d="M191.1286,533.5938 L191.1286,603.5938 L425.1286,603.5938 L425.1286,543.5938 L415.1286,533.5938 L191.1286,533.5938 " fill="#FBFB77" filter="url(#fxd4657ns7rxl)" style="stroke:#A80036;stroke-width:1.0;"/><path d="M415.1286,533.5938 L415.1286,543.5938 L425.1286,543.5938 L415.1286,533.5938 " fill="#FBFB77" style="stroke:#A80036;stroke-width:1.0;"/><text fill="#000000" font-family="sans-serif" font-size="13" font-weight="bold" lengthAdjust="spacing" textLength="147" x="197.1286" y="550.6606">El sistema muestra</text><text fill="#000000" font-family="sans-serif" font-size="13" lengthAdjust="spacing" textLength="5" x="344.1286" y="550.6606">:</text><text fill="#000000" font-family="sans-serif" font-size="13" lengthAdjust="spacing" textLength="213" x="197.1286" y="565.7935">&#176; Campo de texto para comentar</text><text fill="#000000" font-family="sans-serif" font-size="13" font-weight="bold" lengthAdjust="spacing" textLength="152" x="197.1286" y="580.9263">El usuario introduce</text><text fill="#000000" font-family="sans-serif" font-size="13" lengthAdjust="spacing" textLength="5" x="349.1286" y="580.9263">:</text><text fill="#000000" font-family="sans-serif" font-size="13" lengthAdjust="spacing" textLength="104" x="197.1286" y="596.0591">&#176; Un comentario</text></g><!--link comentarTicket to confirmarComentario--><g id="link_comentarTicket_confirmarComentario"><path d="M186.1286,680.7238 C186.1286,692.2088 186.1286,699.9108 186.1286,711.4028 " fill="none" id="comentarTicket-to-confirmarComentario" style="stroke:#0000FF;stroke-width:1.0;"/><polygon fill="#0000FF" points="186.1286,717.4028,190.1286,708.4028,186.1286,712.4028,182.1286,708.4028,186.1286,717.4028" style="stroke:#0000FF;stroke-width:1.0;"/></g><!--link confirmarComentario to *end*ComentarTicket--><g id="link_confirmarComentario_*end*ComentarTicket"><path d="M139.9005,749.6968 C98.61,756.2078 42.6158,768.0245 29.1287,785.5938 C18.574,799.3431 18,811.3048 29.1287,824.5938 C47.8825,846.9882 136.3798,851.3246 169.0218,852.2147 " fill="none" id="confirmarComentario-to-*end*ComentarTicket" style="stroke:#0000FF;stroke-width:1.0;"/><polygon fill="#0000FF" points="175.0195,852.3783,166.1319,848.1344,170.0214,852.242,165.9139,856.1314,175.0195,852.3783" style="stroke:#0000FF;stroke-width:1.0;"/><path d="M34.1287,790.5938 L34.1287,815.5938 L314.1287,815.5938 L314.1287,800.5938 L304.1287,790.5938 L34.1287,790.5938 " fill="#FBFB77" filter="url(#fxd4657ns7rxl)" style="stroke:#A80036;stroke-width:1.0;"/><path d="M304.1287,790.5938 L304.1287,800.5938 L314.1287,800.5938 L304.1287,790.5938 " fill="#FBFB77" style="stroke:#A80036;stroke-width:1.0;"/><text fill="#000000" font-family="sans-serif" font-size="13" font-weight="bold" lengthAdjust="spacing" textLength="134" x="40.1287" y="807.6606">El usuario solicita</text><text fill="#000000" font-family="sans-serif" font-size="13" lengthAdjust="spacing" textLength="121" x="178.1287" y="807.6606">comentar un ticket</text></g><!--link confirmarComentario to *end*ComentarTicket--><g id="link_confirmarComentario_*end*ComentarTicket"><path d="M232.2695,744.3988 C263.3906,747.6538 302.4226,757.5888 323.1285,785.5938 C333.4335,799.5313 334.0896,811.1661 323.1285,824.5938 C307.1636,844.1523 232.6911,850.0767 203.0781,851.7367 " fill="none" id="confirmarComentario-to-*end*ComentarTicket-1" style="stroke:#FF0000;stroke-width:1.0;"/><polygon fill="#FF0000" points="197.0876,852.0726,206.2973,855.5626,202.0797,851.7927,205.8496,847.5751,197.0876,852.0726" style="stroke:#FF0000;stroke-width:1.0;"/><path d="M335.1285,790.5938 L335.1285,815.5938 L618.1285,815.5938 L618.1285,800.5938 L608.1285,790.5938 L335.1285,790.5938 " fill="#FBFB77" filter="url(#fxd4657ns7rxl)" style="stroke:#A80036;stroke-width:1.0;"/><path d="M608.1285,790.5938 L608.1285,800.5938 L618.1285,800.5938 L608.1285,790.5938 " fill="#FBFB77" style="stroke:#A80036;stroke-width:1.0;"/><text fill="#000000" font-family="sans-serif" font-size="13" font-weight="bold" lengthAdjust="spacing" textLength="74" x="341.1285" y="807.6606">El usuario</text><text fill="#000000" font-family="sans-serif" font-size="13" lengthAdjust="spacing" textLength="184" x="419.1285" y="807.6606">solicita cancelar la operaci&#243;n</text></g><!--link DASHBOARD_ABIERTO to FILTRAR_TICKETS--><g id="link_DASHBOARD_ABIERTO_FILTRAR_TICKETS"><path d="M317,94.5709 C317,121.8079 317,159.7349 317,186.9869 " fill="none" id="DASHBOARD_ABIERTO-to-FILTRAR_TICKETS" style="stroke:#A80036;stroke-width:1.0;"/><polygon fill="#A80036" points="317,192.9869,321,183.9869,317,187.9869,313,183.9869,317,192.9869" style="stroke:#A80036;stroke-width:1.0;"/><path d="M322,129.2969 L322,154.2969 L667,154.2969 L667,139.2969 L657,129.2969 L322,129.2969 " fill="#FBFB77" filter="url(#fxd4657ns7rxl)" style="stroke:#A80036;stroke-width:1.0;"/><path d="M657,129.2969 L657,139.2969 L667,139.2969 L657,129.2969 " fill="#FBFB77" style="stroke:#A80036;stroke-width:1.0;"/><text fill="#000000" font-family="sans-serif" font-size="13" font-weight="bold" lengthAdjust="spacing" textLength="134" x="328" y="146.3638">El usuario solicita</text><text fill="#000000" font-family="sans-serif" font-size="13" lengthAdjust="spacing" textLength="186" x="466" y="146.3638">filtrar por propiedad de ticket</text></g><!--link FILTRAR_TICKETS to VER_TICKET--><g id="link_FILTRAR_TICKETS_VER_TICKET"><path d="M317,243.5709 C317,270.8079 317,308.7349 317,335.9869 " fill="none" id="FILTRAR_TICKETS-to-VER_TICKET" style="stroke:#A80036;stroke-width:1.0;"/><polygon fill="#A80036" points="317,341.9869,321,332.9869,317,336.9869,313,332.9869,317,341.9869" style="stroke:#A80036;stroke-width:1.0;"/><path d="M322,278.2969 L322,303.2969 L561,303.2969 L561,288.2969 L551,278.2969 L322,278.2969 " fill="#FBFB77" filter="url(#fxd4657ns7rxl)" style="stroke:#A80036;stroke-width:1.0;"/><path d="M551,278.2969 L551,288.2969 L561,288.2969 L551,278.2969 " fill="#FBFB77" style="stroke:#A80036;stroke-width:1.0;"/><text fill="#000000" font-family="sans-serif" font-size="13" font-weight="bold" lengthAdjust="spacing" textLength="134" x="328" y="295.3638">El usuario solicita</text><text fill="#000000" font-family="sans-serif" font-size="13" lengthAdjust="spacing" textLength="80" x="466" y="295.3638">ver un ticket</text></g><!--link VER_TICKET to ComentarTicket--><g id="link_VER_TICKET_ComentarTicket"><path d="M317,392.4719 C317,407.7389 317,423.1079 317,447.2529 " fill="none" id="VER_TICKET-to-ComentarTicket" style="stroke:#A80036;stroke-width:1.0;"/><polygon fill="#A80036" points="317,453.2529,321,444.2529,317,448.2529,313,444.2529,317,453.2529" style="stroke:#A80036;stroke-width:1.0;"/></g><!--link ComentarTicket to OPEN_TICKET2--><g id="link_ComentarTicket_OPEN_TICKET2"><path d="M317,882.5569 C317,906.6672 317,921.9961 317,937.2246 " fill="none" id="ComentarTicket-to-OPEN_TICKET2" style="stroke:#A80036;stroke-width:1.0;"/><polygon fill="#A80036" points="317,943.2246,321,934.2246,317,938.2246,313,934.2246,317,943.2246" style="stroke:#A80036;stroke-width:1.0;"/></g><!--SRC=[ZP7VQi8m5CRlynG7TrVmPfTU36hjK3Rcg7Kt8fAbHmYcIKdICHXxfy7UO7knnPhOMXrOw4NE-SxlEt_CZalGoY2nt0g4X1e51SBIg14agaHfgOQSinrQGeob5c4IBwRZUPnDDl5ubcRvtCTVqcoJpvA7DFU1-zbZdiKXkF3HGQiR03KmVqwV_FkMa3Cu38TtPoIf74X945pkHX15gO3Qr5Hp1KO9phYbKGHRBgnsxLVA_LfL70jQxAUpXtbwrCQfCyHr9c-eePO1sPOtjB11ly3JPwCudTwlgAVx80HW5QrXkBfv5JMkNHqx9NTxTUAcMSEDnP92MQDnUuYY4RZKpvSxSbarLxRuRXLKLDCZBnI7IRcqMXKrmxPyAOzghWZA0lRkBkVlEwKCTNFQNfFG2vpE8xTSbrGdBVf8J4BIKoz9BqIxVBS-9xhkfA7Bpbt1VV-RQ2okyN3eu0ACIeR2UGWAga9D6V_zbWUVppy0]--></g></svg>