<?xml version="1.0" encoding="us-ascii" standalone="no"?><svg xmlns="http://www.w3.org/2000/svg" xmlns:xlink="http://www.w3.org/1999/xlink" contentStyleType="text/css" height="403px" preserveAspectRatio="none" style="width:311px;height:403px;background:#FFFFFF;" version="1.1" viewBox="0 0 311 403" width="311px" zoomAndPan="magnify"><defs/><g><g id="DetectarError"><rect fill="#F1F1F1" height="50" rx="12.5" ry="12.5" style="stroke:#181818;stroke-width:0.5;" width="121" x="94" y="7"/><line style="stroke:#181818;stroke-width:0.5;" x1="94" x2="215" y1="33.2969" y2="33.2969"/><text fill="#000000" font-family="sans-serif" font-size="14" lengthAdjust="spacing" textLength="101" x="104" y="24.9951">DetectarError</text></g><g id="CrearTicket"><rect fill="#F1F1F1" height="50" rx="12.5" ry="12.5" style="stroke:#181818;stroke-width:0.5;" width="105" x="102" y="92"/><line style="stroke:#181818;stroke-width:0.5;" x1="102" x2="207" y1="118.2969" y2="118.2969"/><text fill="#000000" font-family="sans-serif" font-size="14" lengthAdjust="spacing" textLength="85" x="112" y="109.9951">CrearTicket</text></g><g id="DetallarError"><rect fill="#F1F1F1" height="50" rx="12.5" ry="12.5" style="stroke:#181818;stroke-width:0.5;" width="113" x="98" y="177"/><line style="stroke:#181818;stroke-width:0.5;" x1="98" x2="211" y1="203.2969" y2="203.2969"/><text fill="#000000" font-family="sans-serif" font-size="14" lengthAdjust="spacing" textLength="93" x="108" y="194.9951">DetallarError</text></g><g id="AsignarPrioridad"><rect fill="#F1F1F1" height="50" rx="12.5" ry="12.5" style="stroke:#181818;stroke-width:0.5;" width="137" x="86" y="262"/><line style="stroke:#181818;stroke-width:0.5;" x1="86" x2="223" y1="288.2969" y2="288.2969"/><text fill="#000000" font-family="sans-serif" font-size="14" lengthAdjust="spacing" textLength="117" x="96" y="279.9951">AsignarPrioridad</text></g><g id="EnviarTicket"><rect fill="#F1F1F1" height="50" rx="12.5" ry="12.5" style="stroke:#181818;stroke-width:0.5;" width="110" x="99.5" y="347"/><line style="stroke:#181818;stroke-width:0.5;" x1="99.5" x2="209.5" y1="373.2969" y2="373.2969"/><text fill="#000000" font-family="sans-serif" font-size="14" lengthAdjust="spacing" textLength="90" x="109.5" y="364.9951">EnviarTicket</text></g><ellipse cx="16" cy="32" fill="#222222" rx="10" ry="10" style="stroke:#222222;stroke-width:1.0;"/><ellipse cx="294" cy="372" fill="none" rx="11" ry="11" style="stroke:#222222;stroke-width:1.0;"/><ellipse cx="294" cy="372" fill="#222222" rx="6" ry="6" style="stroke:#222222;stroke-width:1.0;"/><!--link *start* to DetectarError--><g id="link_*start*_DetectarError"><path d="M26.3822,32 C40.4165,32 62.0029,32 87.9006,32 " fill="none" id="*start*-to-DetectarError" style="stroke:#181818;stroke-width:1.0;"/><polygon fill="#181818" points="93.9006,32,84.9006,28,88.9006,32,84.9006,36,93.9006,32" style="stroke:#181818;stroke-width:1.0;"/></g><!--link DetectarError to CrearTicket--><g id="link_DetectarError_CrearTicket"><path d="M154.5,57.214 C154.5,68.731 154.5,74.248 154.5,85.766 " fill="none" id="DetectarError-to-CrearTicket" style="stroke:#181818;stroke-width:1.0;"/><polygon fill="#181818" points="154.5,91.766,158.5,82.766,154.5,86.766,150.5,82.766,154.5,91.766" style="stroke:#181818;stroke-width:1.0;"/></g><!--link CrearTicket to DetallarError--><g id="link_CrearTicket_DetallarError"><path d="M154.5,142.214 C154.5,153.731 154.5,159.248 154.5,170.766 " fill="none" id="CrearTicket-to-DetallarError" style="stroke:#181818;stroke-width:1.0;"/><polygon fill="#181818" points="154.5,176.766,158.5,167.766,154.5,171.766,150.5,167.766,154.5,176.766" style="stroke:#181818;stroke-width:1.0;"/></g><!--link DetallarError to AsignarPrioridad--><g id="link_DetallarError_AsignarPrioridad"><path d="M154.5,227.214 C154.5,238.731 154.5,244.248 154.5,255.766 " fill="none" id="DetallarError-to-AsignarPrioridad" style="stroke:#181818;stroke-width:1.0;"/><polygon fill="#181818" points="154.5,261.766,158.5,252.766,154.5,256.766,150.5,252.766,154.5,261.766" style="stroke:#181818;stroke-width:1.0;"/></g><!--link AsignarPrioridad to EnviarTicket--><g id="link_AsignarPrioridad_EnviarTicket"><path d="M154.5,312.2136 C154.5,323.731 154.5,329.2483 154.5,340.7656 " fill="none" id="AsignarPrioridad-to-EnviarTicket" style="stroke:#181818;stroke-width:1.0;"/><polygon fill="#181818" points="154.5,346.7656,158.5,337.7656,154.5,341.7656,150.5,337.7656,154.5,346.7656" style="stroke:#181818;stroke-width:1.0;"/></g><!--link EnviarTicket to *end*--><g id="link_EnviarTicket_*end*"><path d="M209.844,372 C237.017,372 261.335,372 276.767,372 " fill="none" id="EnviarTicket-to-*end*" style="stroke:#181818;stroke-width:1.0;"/><polygon fill="#181818" points="282.767,372,273.767,368,277.767,372,273.767,376,282.767,372" style="stroke:#181818;stroke-width:1.0;"/></g><!--SRC=[POuz2W8n48Nxd69g8LSGHBUti1EBOJEkWo61by7p6xAB96itxsTuNp4seOkOpCQOW0nNcdU6C6uwlyKsfxOunh5rAheanXMQeO73Pa_fexzl5-LfP9cWoyieAEgOvkJS_V0Wxu-x_K6HHotqCDtTiX5hK2t_GzmRwyI0t8j6M4c_]--></g></svg>