<?xml version="1.0" encoding="us-ascii" standalone="no"?><svg xmlns="http://www.w3.org/2000/svg" xmlns:xlink="http://www.w3.org/1999/xlink" contentStyleType="text/css" height="952px" preserveAspectRatio="none" style="width:679px;height:952px;background:#FFFFFF;" version="1.1" viewBox="0 0 679 952" width="679px" zoomAndPan="magnify"><defs><filter height="300%" id="f2rh9ats19yoj" width="300%" x="-1" y="-1"><feGaussianBlur result="blurOut" stdDeviation="2.0"/><feColorMatrix in="blurOut" result="blurOut2" type="matrix" values="0 0 0 0 0 0 0 0 0 0 0 0 0 0 0 0 0 0 .4 0"/><feOffset dx="4.0" dy="4.0" in="blurOut2" result="blurOut3"/><feBlend in="SourceGraphic" in2="blurOut3" mode="normal"/></filter></defs><g><text fill="#000000" font-family="sans-serif" font-size="14" font-weight="bold" lengthAdjust="spacing" textLength="344" x="160.6051" y="22.9951">Caso de Uso: Exportar Informe estadistico</text><g id="DASHBOARD_ABIERTO2"><rect fill="#FEFECE" filter="url(#f2rh9ats19yoj)" height="50" rx="12.5" ry="12.5" style="stroke:#A80036;stroke-width:1.0;" width="182" x="245" y="888.2969"/><line style="stroke:#A80036;stroke-width:1.0;" x1="245" x2="427" y1="914.5938" y2="914.5938"/><text fill="#000000" font-family="sans-serif" font-size="14" lengthAdjust="spacing" textLength="162" x="255" y="906.292">DASHBOARD_ABIERTO</text></g><g id="DASHBOARD_ABIERTO"><rect fill="#FEFECE" filter="url(#f2rh9ats19yoj)" height="50" rx="12.5" ry="12.5" style="stroke:#A80036;stroke-width:1.0;" width="182" x="245" y="44.2969"/><line style="stroke:#A80036;stroke-width:1.0;" x1="245" x2="427" y1="70.5938" y2="70.5938"/><text fill="#000000" font-family="sans-serif" font-size="14" lengthAdjust="spacing" textLength="162" x="255" y="62.292">DASHBOARD_ABIERTO</text></g><rect fill="none" filter="url(#f2rh9ats19yoj)" height="674.2969" rx="12.5" ry="12.5" style="stroke:#A80036;stroke-width:1.0;" width="658.2103" x="7" y="154.2969"/><path d="M19.5,154.2969 L652.7103,154.2969 A12.5,12.5 0 0 1 665.2103,166.7969 L665.2103,180.5938 L7,180.5938 L7,166.7969 A12.5,12.5 0 0 1 19.5,154.2969 " fill="#FEFECE" style="stroke:#FEFECE;stroke-width:1.0;"/><path d="M7,180.5938 L665.2103,180.5938 L665.2103,816.0938 A12.5,12.5 0 0 1 652.7103,828.5938 L19.5,828.5938 A12.5,12.5 0 0 1 7,816.0938 L7,180.5938 " fill="#FEFECE" style="stroke:#FEFECE;stroke-width:1.0;"/><rect fill="none" height="674.2969" rx="12.5" ry="12.5" style="stroke:#A80036;stroke-width:1.0;" width="658.2103" x="7" y="154.2969"/><line style="stroke:#A80036;stroke-width:1.0;" x1="7" x2="665.2103" y1="180.5938" y2="180.5938"/><text fill="#000000" font-family="sans-serif" font-size="14" lengthAdjust="spacing" textLength="120" x="276.1051" y="172.292">ExportarInforme</text><ellipse cx="198.2103" cy="201.5938" fill="#000000" filter="url(#f2rh9ats19yoj)" rx="10" ry="10" style="stroke:#000000;stroke-width:1.0;"/><g id="ExportarInforme.elegirInforme"><rect fill="#FEFECE" filter="url(#f2rh9ats19yoj)" height="50" rx="12.5" ry="12.5" style="stroke:#A80036;stroke-width:1.0;" width="103" x="146.7103" y="248.5938"/><line style="stroke:#A80036;stroke-width:1.0;" x1="146.7103" x2="249.7103" y1="274.8906" y2="274.8906"/><text fill="#000000" font-family="sans-serif" font-size="14" lengthAdjust="spacing" textLength="83" x="156.7103" y="266.5889">Seleccionar</text></g><g id="ExportarInforme.visualizarInforme"><rect fill="#FEFECE" filter="url(#f2rh9ats19yoj)" height="50" rx="12.5" ry="12.5" style="stroke:#A80036;stroke-width:1.0;" width="87" x="154.7103" y="463.5938"/><line style="stroke:#A80036;stroke-width:1.0;" x1="154.7103" x2="241.7103" y1="489.8906" y2="489.8906"/><text fill="#000000" font-family="sans-serif" font-size="14" lengthAdjust="spacing" textLength="67" x="164.7103" y="481.5889">Visualizar</text></g><g id="ExportarInforme.confirmarExportacion"><rect fill="#FEFECE" filter="url(#f2rh9ats19yoj)" height="50" rx="12.5" ry="12.5" style="stroke:#A80036;stroke-width:1.0;" width="92" x="152.2103" y="663.5938"/><line style="stroke:#A80036;stroke-width:1.0;" x1="152.2103" x2="244.2103" y1="689.8906" y2="689.8906"/><text fill="#000000" font-family="sans-serif" font-size="14" lengthAdjust="spacing" textLength="72" x="162.2103" y="681.5889">Confirmar</text></g><ellipse cx="198.2103" cy="799.5938" fill="none" filter="url(#f2rh9ats19yoj)" rx="11" ry="11" style="stroke:#000000;stroke-width:1.0;"/><ellipse cx="198.2103" cy="799.5938" fill="#000000" rx="6" ry="6" style="stroke:#000000;stroke-width:1.0;"/><!--link *start*ExportarInforme to elegirInforme--><g id="link_*start*ExportarInforme_elegirInforme"><path d="M198.2103,211.7447 C198.2103,221.0098 198.2103,229.7347 198.2103,242.3778 " fill="none" id="*start*ExportarInforme-to-elegirInforme" style="stroke:#0000FF;stroke-width:1.0;"/><polygon fill="#0000FF" points="198.2103,248.3778,202.2103,239.3778,198.2103,243.3778,194.2103,239.3778,198.2103,248.3778" style="stroke:#0000FF;stroke-width:1.0;"/></g><!--link elegirInforme to visualizarInforme--><g id="link_elegirInforme_visualizarInforme"><path d="M198.2103,298.6138 C198.2103,339.5218 198.2103,416.2648 198.2103,457.3348 " fill="none" id="elegirInforme-to-visualizarInforme" style="stroke:#0000FF;stroke-width:1.0;"/><polygon fill="#0000FF" points="198.2103,463.3348,202.2103,454.3348,198.2103,458.3348,194.2103,454.3348,198.2103,463.3348" style="stroke:#0000FF;stroke-width:1.0;"/><path d="M203.2103,321.5938 L203.2103,436.5938 L399.2103,436.5938 L399.2103,331.5938 L389.2103,321.5938 L203.2103,321.5938 " fill="#FBFB77" filter="url(#f2rh9ats19yoj)" style="stroke:#A80036;stroke-width:1.0;"/><path d="M389.2103,321.5938 L389.2103,331.5938 L399.2103,331.5938 L389.2103,321.5938 " fill="#FBFB77" style="stroke:#A80036;stroke-width:1.0;"/><text fill="#000000" font-family="sans-serif" font-size="13" lengthAdjust="spacing" textLength="8" x="209.2103" y="338.6606">&#160;&#160;</text><text fill="#000000" font-family="sans-serif" font-size="13" font-weight="bold" lengthAdjust="spacing" textLength="78" x="217.2103" y="338.6606">El sistema</text><text fill="#000000" font-family="sans-serif" font-size="13" lengthAdjust="spacing" textLength="59" x="299.2103" y="338.6606">muestra:</text><text fill="#000000" font-family="sans-serif" font-size="13" lengthAdjust="spacing" textLength="133" x="217.2103" y="353.7935">&#176; Informe por estado</text><text fill="#000000" font-family="sans-serif" font-size="13" lengthAdjust="spacing" textLength="167" x="217.2103" y="368.9263">&#176; Informe por responsable</text><text fill="#000000" font-family="sans-serif" font-size="13" lengthAdjust="spacing" textLength="145" x="217.2103" y="384.0591">&#176; Informe por prioridad</text><text fill="#000000" font-family="sans-serif" font-size="13" lengthAdjust="spacing" textLength="125" x="217.2103" y="399.1919">&#176; Informe por fecha</text><text fill="#000000" font-family="sans-serif" font-size="13" font-weight="bold" lengthAdjust="spacing" textLength="74" x="209.2103" y="414.3247">El usuario</text><text fill="#000000" font-family="sans-serif" font-size="13" lengthAdjust="spacing" textLength="65" x="287.2103" y="414.3247">introduce:</text><text fill="#000000" font-family="sans-serif" font-size="13" lengthAdjust="spacing" textLength="111" x="217.2103" y="429.4575">&#176; Tipo de informe</text></g><!--link visualizarInforme to confirmarExportacion--><g id="link_visualizarInforme_confirmarExportacion"><path d="M198.2103,513.8728 C198.2103,551.9768 198.2103,619.3908 198.2103,657.4268 " fill="none" id="visualizarInforme-to-confirmarExportacion" style="stroke:#0000FF;stroke-width:1.0;"/><polygon fill="#0000FF" points="198.2103,663.4268,202.2103,654.4268,198.2103,658.4268,194.2103,654.4268,198.2103,663.4268" style="stroke:#0000FF;stroke-width:1.0;"/><path d="M203.2103,536.5938 L203.2103,636.5938 L474.2103,636.5938 L474.2103,546.5938 L464.2103,536.5938 L203.2103,536.5938 " fill="#FBFB77" filter="url(#f2rh9ats19yoj)" style="stroke:#A80036;stroke-width:1.0;"/><path d="M464.2103,536.5938 L464.2103,546.5938 L474.2103,546.5938 L464.2103,536.5938 " fill="#FBFB77" style="stroke:#A80036;stroke-width:1.0;"/><text fill="#000000" font-family="sans-serif" font-size="13" lengthAdjust="spacing" textLength="8" x="209.2103" y="553.6606">&#160;&#160;</text><text fill="#000000" font-family="sans-serif" font-size="13" font-weight="bold" lengthAdjust="spacing" textLength="78" x="217.2103" y="553.6606">El sistema</text><text fill="#000000" font-family="sans-serif" font-size="13" lengthAdjust="spacing" textLength="59" x="299.2103" y="553.6606">muestra:</text><text fill="#000000" font-family="sans-serif" font-size="13" lengthAdjust="spacing" textLength="128" x="217.2103" y="568.7935">&#176; Datos estadisticos</text><text fill="#000000" font-family="sans-serif" font-size="13" lengthAdjust="spacing" textLength="63" x="217.2103" y="583.9263">&#176; Graficos</text><text fill="#000000" font-family="sans-serif" font-size="13" lengthAdjust="spacing" textLength="8" x="209.2103" y="599.0591">&#160;&#160;</text><text fill="#000000" font-family="sans-serif" font-size="13" font-weight="bold" lengthAdjust="spacing" textLength="78" x="217.2103" y="599.0591">El sistema</text><text fill="#000000" font-family="sans-serif" font-size="13" lengthAdjust="spacing" textLength="55" x="299.2103" y="599.0591">permite:</text><text fill="#000000" font-family="sans-serif" font-size="13" lengthAdjust="spacing" textLength="119" x="217.2103" y="614.1919">&#176; Exportar informe</text><text fill="#000000" font-family="sans-serif" font-size="13" font-weight="bold" lengthAdjust="spacing" textLength="74" x="209.2103" y="629.3247">El usuario</text><text fill="#000000" font-family="sans-serif" font-size="13" lengthAdjust="spacing" textLength="172" x="287.2103" y="629.3247">solicita exportar el informe</text></g><!--link confirmarExportacion to *end*ExportarInforme--><g id="link_confirmarExportacion_*end*ExportarInforme"><path d="M151.8573,694.7318 C107.1796,700.7528 44.2011,712.4214 29.2102,731.5938 C18.5335,745.2486 18,757.3735 29.2102,770.5938 C49.6947,794.7514 147.0868,798.0155 181.2418,798.4565 " fill="none" id="confirmarExportacion-to-*end*ExportarInforme" style="stroke:#0000FF;stroke-width:1.0;"/><polygon fill="#0000FF" points="187.2413,798.534,178.2937,794.4181,182.2417,798.4694,178.1904,802.4174,187.2413,798.534" style="stroke:#0000FF;stroke-width:1.0;"/><path d="M34.2102,736.5938 L34.2102,761.5938 L338.2102,761.5938 L338.2102,746.5938 L328.2102,736.5938 L34.2102,736.5938 " fill="#FBFB77" filter="url(#f2rh9ats19yoj)" style="stroke:#A80036;stroke-width:1.0;"/><path d="M328.2102,736.5938 L328.2102,746.5938 L338.2102,746.5938 L328.2102,736.5938 " fill="#FBFB77" style="stroke:#A80036;stroke-width:1.0;"/><text fill="#000000" font-family="sans-serif" font-size="13" font-weight="bold" lengthAdjust="spacing" textLength="74" x="40.2102" y="753.6606">El usuario</text><text fill="#000000" font-family="sans-serif" font-size="13" lengthAdjust="spacing" textLength="205" x="118.2102" y="753.6606">solicita confirmar la exportacion</text></g><!--link confirmarExportacion to *end*ExportarInforme--><g id="link_confirmarExportacion_*end*ExportarInforme"><path d="M244.3743,696.4258 C283.3363,703.2468 334.7183,715.0944 347.2103,731.5938 C357.6733,745.4133 358.2773,757.2534 347.2103,770.5938 C329.5643,791.8642 246.601,796.8526 215.2,798.04 " fill="none" id="confirmarExportacion-to-*end*ExportarInforme-1" style="stroke:#FF0000;stroke-width:1.0;"/><polygon fill="#FF0000" points="209.2043,798.2668,218.349,801.9238,214.2007,798.0778,218.0467,793.9295,209.2043,798.2668" style="stroke:#FF0000;stroke-width:1.0;"/><path d="M360.2103,736.5938 L360.2103,761.5938 L656.2103,761.5938 L656.2103,746.5938 L646.2103,736.5938 L360.2103,736.5938 " fill="#FBFB77" filter="url(#f2rh9ats19yoj)" style="stroke:#A80036;stroke-width:1.0;"/><path d="M646.2103,736.5938 L646.2103,746.5938 L656.2103,746.5938 L646.2103,736.5938 " fill="#FBFB77" style="stroke:#A80036;stroke-width:1.0;"/><text fill="#000000" font-family="sans-serif" font-size="13" font-weight="bold" lengthAdjust="spacing" textLength="74" x="366.2103" y="753.6606">El usuario</text><text fill="#000000" font-family="sans-serif" font-size="13" lengthAdjust="spacing" textLength="197" x="444.2103" y="753.6606">solicita cancelar la exportacion</text></g><!--link DASHBOARD_ABIERTO to ExportarInforme--><g id="link_DASHBOARD_ABIERTO_ExportarInforme"><path d="M336,94.3869 C336,109.1149 336,123.7659 336,147.9829 " fill="none" id="DASHBOARD_ABIERTO-to-ExportarInforme" style="stroke:#A80036;stroke-width:1.0;"/><polygon fill="#A80036" points="336,153.9829,340,144.9829,336,148.9829,332,144.9829,336,153.9829" style="stroke:#A80036;stroke-width:1.0;"/></g><!--link ExportarInforme to DASHBOARD_ABIERTO2--><g id="link_ExportarInforme_DASHBOARD_ABIERTO2"><path d="M336,828.3129 C336,852.6087 336,867.3332 336,882.1165 " fill="none" id="ExportarInforme-to-DASHBOARD_ABIERTO2" style="stroke:#A80036;stroke-width:1.0;"/><polygon fill="#A80036" points="336,888.1165,340,879.1165,336,883.1165,332,879.1165,336,888.1165" style="stroke:#A80036;stroke-width:1.0;"/></g><!--SRC=[bP9DJiCm48NtFiK8Tf6wOPa5Kly4NLLg2vkgGgupWL4TJsGx286u4sVWPBXfaeQa1NKNFy_CU_F5RaS6B3iKdhn664l7a20yE8vX-fQpzTB2pAHiCmHqNYRaF2aM8dnxXAl9S7a_cWyNawVXQ3PThEPN81tqr1iXH4-4mU2sSQbCHETSrfmO1rM0Rlc7403hQ0E3zVLM5xW9xQZncHe3W2hwCkXA4Hjfoz3Tib_dzhnNSeNKz7uCRJWCP0EQp2vqHj5KWmkaC9DH15aHo5aPGxZw_cfmXk07fDpNBRgSZPDRZVtBt19RIcJIlqfHlKXH-XSXP2WC_cIyvQHG61yQLfINVvcgz6WIs6zmHFFOR5YIwIyCVQrDIB59oMRILhzdJpdqN8Hf8Zsxzfjp1_tEodH_Wlw476r6lbwpUR_rdXqiZZKfyXAmBaJz1vDnlLE9vCo6f-GscF0oEnnYE1UhcGMwoVYFZSNaOXTf5EfJ9W3YymS0]--></g></svg>