<?xml version="1.0" encoding="us-ascii" standalone="no"?><svg xmlns="http://www.w3.org/2000/svg" xmlns:xlink="http://www.w3.org/1999/xlink" contentStyleType="text/css" height="814px" preserveAspectRatio="none" style="width:1176px;height:814px;background:#FFFFFF;" version="1.1" viewBox="0 0 1176 814" width="1176px" zoomAndPan="magnify"><defs><filter height="300%" id="f13q6yzzflq459" width="300%" x="-1" y="-1"><feGaussianBlur result="blurOut" stdDeviation="2.0"/><feColorMatrix in="blurOut" result="blurOut2" type="matrix" values="0 0 0 0 0 0 0 0 0 0 0 0 0 0 0 0 0 0 .4 0"/><feOffset dx="4.0" dy="4.0" in="blurOut2" result="blurOut3"/><feBlend in="SourceGraphic" in2="blurOut3" mode="normal"/></filter></defs><g><text fill="#000000" font-family="sans-serif" font-size="14" font-weight="bold" lengthAdjust="spacing" textLength="344" x="408" y="22.9951">Caso de Uso: Exportar Informe estadistico</text><!--cluster ExportarInforme--><g id="cluster_ExportarInforme"><rect fill="none" filter="url(#f13q6yzzflq459)" height="651" rx="12.5" ry="12.5" style="stroke:#A80036;stroke-width:1.0;" width="759" x="218" y="149.2969"/><path d="M230.5,149.2969 L964.5,149.2969 A12.5,12.5 0 0 1 977,161.7969 L977,170.5938 L218,170.5938 L218,161.7969 A12.5,12.5 0 0 1 230.5,149.2969 " fill="#FEFECE" style="stroke:#FEFECE;stroke-width:1.0;"/><path d="M218,170.5938 L977,170.5938 L977,787.7969 A12.5,12.5 0 0 1 964.5,800.2969 L230.5,800.2969 A12.5,12.5 0 0 1 218,787.7969 L218,170.5938 " fill="#FEFECE" style="stroke:#FEFECE;stroke-width:1.0;"/><rect fill="none" height="651" rx="12.5" ry="12.5" style="stroke:#A80036;stroke-width:1.0;" width="759" x="218" y="149.2969"/><line style="stroke:#A80036;stroke-width:1.0;" x1="218" x2="977" y1="170.5938" y2="170.5938"/><text fill="#000000" font-family="sans-serif" font-size="14" lengthAdjust="spacing" textLength="120" x="537.5" y="166.292">ExportarInforme</text></g><ellipse cx="755" cy="202.2969" fill="#000000" filter="url(#f13q6yzzflq459)" rx="10" ry="10" style="stroke:#000000;stroke-width:1.0;"/><g id="ExportarInforme.elegirInforme"><rect fill="#FEFECE" filter="url(#f13q6yzzflq459)" height="50" rx="12.5" ry="12.5" style="stroke:#A80036;stroke-width:1.0;" width="220" x="645" y="291.2969"/><line style="stroke:#A80036;stroke-width:1.0;" x1="645" x2="865" y1="317.5938" y2="317.5938"/><text fill="#000000" font-family="sans-serif" font-size="14" lengthAdjust="spacing" textLength="200" x="655" y="309.292">Seleccionar tipo de informe</text></g><g id="ExportarInforme.visualizarInforme"><rect fill="#FEFECE" filter="url(#f13q6yzzflq459)" height="50" rx="12.5" ry="12.5" style="stroke:#A80036;stroke-width:1.0;" width="148" x="681" y="438.2969"/><line style="stroke:#A80036;stroke-width:1.0;" x1="681" x2="829" y1="464.5938" y2="464.5938"/><text fill="#000000" font-family="sans-serif" font-size="14" lengthAdjust="spacing" textLength="128" x="691" y="456.292">Visualizar informe</text></g><g id="ExportarInforme.confirmarExportacion"><rect fill="#FEFECE" filter="url(#f13q6yzzflq459)" height="50" rx="12.5" ry="12.5" style="stroke:#A80036;stroke-width:1.0;" width="270" x="508" y="605.2969"/><line style="stroke:#A80036;stroke-width:1.0;" x1="508" x2="778" y1="631.5938" y2="631.5938"/><text fill="#000000" font-family="sans-serif" font-size="14" lengthAdjust="spacing" textLength="250" x="518" y="623.292">Confirmar exportacion del informe</text></g><ellipse cx="464" cy="765.2969" fill="none" filter="url(#f13q6yzzflq459)" rx="11" ry="11" style="stroke:#000000;stroke-width:1.0;"/><ellipse cx="464" cy="765.2969" fill="#000000" rx="6" ry="6" style="stroke:#000000;stroke-width:1.0;"/><g id="DASHBOARD_ABIERTO"><rect fill="#FEFECE" filter="url(#f13q6yzzflq459)" height="50" rx="12.5" ry="12.5" style="stroke:#A80036;stroke-width:1.0;" width="182" x="135" y="44.2969"/><line style="stroke:#A80036;stroke-width:1.0;" x1="135" x2="317" y1="70.5938" y2="70.5938"/><text fill="#000000" font-family="sans-serif" font-size="14" lengthAdjust="spacing" textLength="162" x="145" y="62.292">DASHBOARD_ABIERTO</text></g><g id="elem_GMN15"><path d="M6,273.2969 L6,358.9609 A0,0 0 0 0 6,358.9609 L194,358.9609 A0,0 0 0 0 194,358.9609 L194,320.2969 L644.887,316.2969 L194,312.2969 L194,283.2969 L184,273.2969 L6,273.2969 A0,0 0 0 0 6,273.2969 " fill="#FBFB77" filter="url(#f13q6yzzflq459)" style="stroke:#A80036;stroke-width:1.0;"/><path d="M184,273.2969 L184,283.2969 L194,283.2969 L184,273.2969 " fill="#FBFB77" style="stroke:#A80036;stroke-width:1.0;"/><text fill="#000000" font-family="sans-serif" font-size="13" font-weight="bold" lengthAdjust="spacing" textLength="78" x="12" y="290.3638">El sistema</text><text fill="#000000" font-family="sans-serif" font-size="13" lengthAdjust="spacing" textLength="59" x="94" y="290.3638">muestra:</text><text fill="#000000" font-family="sans-serif" font-size="13" lengthAdjust="spacing" textLength="133" x="12" y="305.4966">&#176; Informe por estado</text><text fill="#000000" font-family="sans-serif" font-size="13" lengthAdjust="spacing" textLength="167" x="12" y="320.6294">&#176; Informe por responsable</text><text fill="#000000" font-family="sans-serif" font-size="13" lengthAdjust="spacing" textLength="145" x="12" y="335.7622">&#176; Informe por prioridad</text><text fill="#000000" font-family="sans-serif" font-size="13" lengthAdjust="spacing" textLength="125" x="12" y="350.895">&#176; Informe por fecha</text></g><g id="elem_GMN18"><path d="M1001,288.7969 L1001,312.2969 L865.188,316.2969 L1001,320.2969 L1001,344.1953 A0,0 0 0 0 1001,344.1953 L1165,344.1953 A0,0 0 0 0 1165,344.1953 L1165,298.7969 L1155,288.7969 L1001,288.7969 A0,0 0 0 0 1001,288.7969 " fill="#FBFB77" filter="url(#f13q6yzzflq459)" style="stroke:#A80036;stroke-width:1.0;"/><path d="M1155,288.7969 L1155,298.7969 L1165,298.7969 L1155,288.7969 " fill="#FBFB77" style="stroke:#A80036;stroke-width:1.0;"/><text fill="#000000" font-family="sans-serif" font-size="13" font-weight="bold" lengthAdjust="spacing" textLength="74" x="1007" y="305.8638">El usuario</text><text fill="#000000" font-family="sans-serif" font-size="13" lengthAdjust="spacing" textLength="65" x="1085" y="305.8638">introduce:</text><text fill="#000000" font-family="sans-serif" font-size="13" lengthAdjust="spacing" textLength="111" x="1007" y="320.9966">&#176; Tipo de informe</text><text fill="#000000" font-family="sans-serif" font-size="13" lengthAdjust="spacing" textLength="4" x="1007" y="336.1294">&#160;</text></g><g id="elem_GMN21"><path d="M1001,420.2969 L1001,459.2969 L829.218,463.2969 L1001,467.2969 L1001,505.9609 A0,0 0 0 0 1001,505.9609 L1167,505.9609 A0,0 0 0 0 1167,505.9609 L1167,430.2969 L1157,420.2969 L1001,420.2969 A0,0 0 0 0 1001,420.2969 " fill="#FBFB77" filter="url(#f13q6yzzflq459)" style="stroke:#A80036;stroke-width:1.0;"/><path d="M1157,420.2969 L1157,430.2969 L1167,430.2969 L1157,420.2969 " fill="#FBFB77" style="stroke:#A80036;stroke-width:1.0;"/><text fill="#000000" font-family="sans-serif" font-size="13" font-weight="bold" lengthAdjust="spacing" textLength="78" x="1007" y="437.3638">El sistema</text><text fill="#000000" font-family="sans-serif" font-size="13" lengthAdjust="spacing" textLength="59" x="1089" y="437.3638">muestra:</text><text fill="#000000" font-family="sans-serif" font-size="13" lengthAdjust="spacing" textLength="128" x="1007" y="452.4966">&#176; Datos estadisticos</text><text fill="#000000" font-family="sans-serif" font-size="13" lengthAdjust="spacing" textLength="63" x="1007" y="467.6294">&#176; Graficos</text><text fill="#000000" font-family="sans-serif" font-size="13" font-weight="bold" lengthAdjust="spacing" textLength="78" x="1007" y="482.7622">El sistema</text><text fill="#000000" font-family="sans-serif" font-size="13" lengthAdjust="spacing" textLength="55" x="1089" y="482.7622">permite:</text><text fill="#000000" font-family="sans-serif" font-size="13" lengthAdjust="spacing" textLength="119" x="1007" y="497.895">&#176; Exportar informe</text></g><!--link DASHBOARD_ABIERTO to ExportarInforme--><g id="link_DASHBOARD_ABIERTO_ExportarInforme"><path d="M226,94.3239 C226,103.6309 226,114.8356 226,126.4404 C226,132.2428 226,138.1452 226,143.9604 C226,145.4142 226,146.8626 226,148.3026 C226,148.4826 226,142.6624 226,142.8422 " fill="none" id="DASHBOARD_ABIERTO-to-ExportarInforme" style="stroke:#A80036;stroke-width:1.0;"/><polygon fill="#A80036" points="226,148.8422,230,139.8422,226,143.8422,222,139.8422,226,148.8422" style="stroke:#A80036;stroke-width:1.0;"/></g><!--link *start*ExportarInforme to elegirInforme--><g id="link_*start*ExportarInforme_elegirInforme"><path d="M755,212.4619 C755,229.4939 755,260.5269 755,285.1859 " fill="none" id="*start*ExportarInforme-to-elegirInforme" style="stroke:#0000FF;stroke-width:1.0;"/><polygon fill="#0000FF" points="755,291.1859,759,282.1859,755,286.1859,751,282.1859,755,291.1859" style="stroke:#0000FF;stroke-width:1.0;"/></g><!--link elegirInforme to visualizarInforme--><g id="link_elegirInforme_visualizarInforme"><path d="M755,341.5669 C755,368.3329 755,405.1499 755,431.9479 " fill="none" id="elegirInforme-to-visualizarInforme" style="stroke:#0000FF;stroke-width:1.0;"/><polygon fill="#0000FF" points="755,437.9479,759,428.9479,755,432.9479,751,428.9479,755,437.9479" style="stroke:#0000FF;stroke-width:1.0;"/></g><!--link visualizarInforme to confirmarExportacion--><g id="link_visualizarInforme_confirmarExportacion"><path d="M738.474,488.6429 C717.238,519.9289 683.9618,568.9515 662.7808,600.1555 " fill="none" id="visualizarInforme-to-confirmarExportacion" style="stroke:#0000FF;stroke-width:1.0;"/><polygon fill="#0000FF" points="659.411,605.1199,667.7752,599.9199,662.2191,600.9829,661.1561,595.4268,659.411,605.1199" style="stroke:#0000FF;stroke-width:1.0;"/><path d="M710,541.2969 L710,566.2969 L981,566.2969 L981,551.2969 L971,541.2969 L710,541.2969 " fill="#FBFB77" filter="url(#f13q6yzzflq459)" style="stroke:#A80036;stroke-width:1.0;"/><path d="M971,541.2969 L971,551.2969 L981,551.2969 L971,541.2969 " fill="#FBFB77" style="stroke:#A80036;stroke-width:1.0;"/><text fill="#000000" font-family="sans-serif" font-size="13" font-weight="bold" lengthAdjust="spacing" textLength="74" x="716" y="558.3638">El usuario</text><text fill="#000000" font-family="sans-serif" font-size="13" lengthAdjust="spacing" textLength="172" x="794" y="558.3638">solicita exportar el informe</text></g><!--link confirmarExportacion to *end*ExportarInforme--><g id="link_confirmarExportacion_*end*ExportarInforme"><path d="M507.557,633.7069 C417.712,638.5059 311.161,651.4499 282,685.2969 C270.686,698.4289 271.138,710.7889 282,724.2969 C303.742,751.3366 410.838,760.7364 446.93,763.2062 " fill="none" id="confirmarExportacion-to-*end*ExportarInforme" style="stroke:#0000FF;stroke-width:1.0;"/><polygon fill="#0000FF" points="452.916,763.6159,444.2101,759.0108,447.9277,763.2745,443.6639,766.9921,452.916,763.6159" style="stroke:#0000FF;stroke-width:1.0;"/><path d="M287,690.2969 L287,715.2969 L591,715.2969 L591,700.2969 L581,690.2969 L287,690.2969 " fill="#FBFB77" filter="url(#f13q6yzzflq459)" style="stroke:#A80036;stroke-width:1.0;"/><path d="M581,690.2969 L581,700.2969 L591,700.2969 L581,690.2969 " fill="#FBFB77" style="stroke:#A80036;stroke-width:1.0;"/><text fill="#000000" font-family="sans-serif" font-size="13" font-weight="bold" lengthAdjust="spacing" textLength="74" x="293" y="707.3638">El usuario</text><text fill="#000000" font-family="sans-serif" font-size="13" lengthAdjust="spacing" textLength="205" x="371" y="707.3638">solicita confirmar la exportacion</text></g><!--link confirmarExportacion to *end*ExportarInforme--><g id="link_confirmarExportacion_*end*ExportarInforme"><path d="M638.963,655.2989 C634.181,676.3779 624.163,706.3969 604,724.2969 C565.814,758.1964 506.7216,763.3329 480.9606,764.0633 " fill="none" id="confirmarExportacion-to-*end*ExportarInforme-1" style="stroke:#FF0000;stroke-width:1.0;"/><polygon fill="#FF0000" points="474.963,764.2334,484.0728,767.9767,479.961,764.0917,483.846,759.9799,474.963,764.2334" style="stroke:#FF0000;stroke-width:1.0;"/><path d="M634,690.2969 L634,715.2969 L930,715.2969 L930,700.2969 L920,690.2969 L634,690.2969 " fill="#FBFB77" filter="url(#f13q6yzzflq459)" style="stroke:#A80036;stroke-width:1.0;"/><path d="M920,690.2969 L920,700.2969 L930,700.2969 L920,690.2969 " fill="#FBFB77" style="stroke:#A80036;stroke-width:1.0;"/><text fill="#000000" font-family="sans-serif" font-size="13" font-weight="bold" lengthAdjust="spacing" textLength="74" x="640" y="707.3638">El usuario</text><text fill="#000000" font-family="sans-serif" font-size="13" lengthAdjust="spacing" textLength="197" x="718" y="707.3638">solicita cancelar la exportacion</text></g><!--SRC=[bPH1JiCm44NtFiK8Tf5wWIwG2gs05L8BR112GpA14OudiXs4GDo9Ct0ofasJ9hWWsCL_F6- -dP-49tRW9P2972t12GQ1Wk0go1GMBxNuY1xENIc-8g0GiU0GEHTZz3aIp6Uhi-EBsN9-Dpi-NomlBumnYGQJoL5Fsy8wm3SPtem1kCbkON9pU6yRkjLMilJ0VID0stcmKZtFMPnQZ5nlZ7ExwG0m96sZzP3_pA51ow-OphZkIoFqlev46ux8nPNiA_JRywvjQuyJ7I8EBBkdAMJPmaAZ5C-IPH34SiuHWReNGRPpiNDuqf6xRMkqNeKT6VvX_ZvvQ5jVn9zTzYomEFJoonXFnR-deCl9xXi2ODurVHkCfJA2b4a4DjIW4QOAbLer6ccFKz3IvqUVSwMsMPTKznHgSG7lBQN5MirwBh18IoNbZsZ85PjpRcrwVdZysUVkzEoYbwB9QTg2ByTfLt57Xl4Dx4lgxxSmnoXX-As7LZ_rMAvNa19gyXN7pbt_t-ZiTTw-0000]--></g></svg>