<?xml version="1.0" encoding="us-ascii" standalone="no"?><svg xmlns="http://www.w3.org/2000/svg" xmlns:xlink="http://www.w3.org/1999/xlink" contentStyleType="text/css" height="682px" preserveAspectRatio="none" style="width:756px;height:682px;background:#FFFFFF;" version="1.1" viewBox="0 0 756 682" width="756px" zoomAndPan="magnify"><defs><filter height="300%" id="f135hvnx2jyziq" width="300%" x="-1" y="-1"><feGaussianBlur result="blurOut" stdDeviation="2.0"/><feColorMatrix in="blurOut" result="blurOut2" type="matrix" values="0 0 0 0 0 0 0 0 0 0 0 0 0 0 0 0 0 0 .4 0"/><feOffset dx="4.0" dy="4.0" in="blurOut2" result="blurOut3"/><feBlend in="SourceGraphic" in2="blurOut3" mode="normal"/></filter></defs><g><text fill="#000000" font-family="sans-serif" font-size="14" font-weight="bold" lengthAdjust="spacing" textLength="225" x="257.75" y="22.9951">Caso de Uso: Filtrar Tickets</text><!--cluster FiltrarTickets--><g id="cluster_FiltrarTickets"><rect fill="none" filter="url(#f135hvnx2jyziq)" height="550" rx="12.5" ry="12.5" style="stroke:#A80036;stroke-width:1.0;" width="294" x="204" y="118.2969"/><path d="M216.5,118.2969 L485.5,118.2969 A12.5,12.5 0 0 1 498,130.7969 L498,139.5938 L204,139.5938 L204,130.7969 A12.5,12.5 0 0 1 216.5,118.2969 " fill="#FEFECE" style="stroke:#FEFECE;stroke-width:1.0;"/><path d="M204,139.5938 L498,139.5938 L498,655.7969 A12.5,12.5 0 0 1 485.5,668.2969 L216.5,668.2969 A12.5,12.5 0 0 1 204,655.7969 L204,139.5938 " fill="#FEFECE" style="stroke:#FEFECE;stroke-width:1.0;"/><rect fill="none" height="550" rx="12.5" ry="12.5" style="stroke:#A80036;stroke-width:1.0;" width="294" x="204" y="118.2969"/><line style="stroke:#A80036;stroke-width:1.0;" x1="204" x2="498" y1="139.5938" y2="139.5938"/><text fill="#000000" font-family="sans-serif" font-size="14" lengthAdjust="spacing" textLength="96" x="303" y="135.292">FiltrarTickets</text></g><ellipse cx="355" cy="171.2969" fill="#000000" filter="url(#f135hvnx2jyziq)" rx="10" ry="10" style="stroke:#000000;stroke-width:1.0;"/><g id="FiltrarTickets.verlistadoTickets"><rect fill="#FEFECE" filter="url(#f135hvnx2jyziq)" height="50" rx="12.5" ry="12.5" style="stroke:#A80036;stroke-width:1.0;" width="174" x="268" y="241.2969"/><line style="stroke:#A80036;stroke-width:1.0;" x1="268" x2="442" y1="267.5938" y2="267.5938"/><text fill="#000000" font-family="sans-serif" font-size="14" lengthAdjust="spacing" textLength="154" x="278" y="259.292">Ver listado de tickets</text></g><g id="FiltrarTickets.confirmarFiltrado"><rect fill="#FEFECE" filter="url(#f135hvnx2jyziq)" height="50" rx="12.5" ry="12.5" style="stroke:#A80036;stroke-width:1.0;" width="110" x="300" y="376.7969"/><line style="stroke:#A80036;stroke-width:1.0;" x1="300" x2="410" y1="403.0938" y2="403.0938"/><text fill="#000000" font-family="sans-serif" font-size="14" lengthAdjust="spacing" textLength="90" x="310" y="394.792">Aplicar filtro</text></g><g id="FiltrarTickets.listadoFiltrado"><rect fill="#FEFECE" filter="url(#f135hvnx2jyziq)" height="50" rx="12.5" ry="12.5" style="stroke:#A80036;stroke-width:1.0;" width="238" x="236" y="512.2969"/><line style="stroke:#A80036;stroke-width:1.0;" x1="236" x2="474" y1="538.5938" y2="538.5938"/><text fill="#000000" font-family="sans-serif" font-size="14" lengthAdjust="spacing" textLength="218" x="246" y="530.292">Ver listado de tickets filtrados</text></g><ellipse cx="355" cy="633.2969" fill="none" filter="url(#f135hvnx2jyziq)" rx="11" ry="11" style="stroke:#000000;stroke-width:1.0;"/><ellipse cx="355" cy="633.2969" fill="#000000" rx="6" ry="6" style="stroke:#000000;stroke-width:1.0;"/><g id="DASHBOARD_ABIERTO"><rect fill="#FEFECE" filter="url(#f135hvnx2jyziq)" height="50" rx="12.5" ry="12.5" style="stroke:#A80036;stroke-width:1.0;" width="182" x="121" y="44.2969"/><line style="stroke:#A80036;stroke-width:1.0;" x1="121" x2="303" y1="70.5938" y2="70.5938"/><text fill="#000000" font-family="sans-serif" font-size="14" lengthAdjust="spacing" textLength="162" x="131" y="62.292">DASHBOARD_ABIERTO</text></g><g id="elem_GMN14"><path d="M6,351.2969 L6,452.0938 A0,0 0 0 0 6,452.0938 L180,452.0938 A0,0 0 0 0 180,452.0938 L180,405.7969 L299.707,401.7969 L180,397.7969 L180,361.2969 L170,351.2969 L6,351.2969 A0,0 0 0 0 6,351.2969 " fill="#FBFB77" filter="url(#f135hvnx2jyziq)" style="stroke:#A80036;stroke-width:1.0;"/><path d="M170,351.2969 L170,361.2969 L180,361.2969 L170,351.2969 " fill="#FBFB77" style="stroke:#A80036;stroke-width:1.0;"/><text fill="#000000" font-family="sans-serif" font-size="13" font-weight="bold" lengthAdjust="spacing" textLength="143" x="12" y="368.3638">El sistema permite</text><text fill="#000000" font-family="sans-serif" font-size="13" lengthAdjust="spacing" textLength="5" x="155" y="368.3638">:</text><text fill="#000000" font-family="sans-serif" font-size="13" lengthAdjust="spacing" textLength="119" x="12" y="383.4966">&#176; Filtrar por estado</text><text fill="#000000" font-family="sans-serif" font-size="13" lengthAdjust="spacing" textLength="107" x="12" y="398.6294">&#176; Filtrar por titulo</text><text fill="#000000" font-family="sans-serif" font-size="13" lengthAdjust="spacing" textLength="131" x="12" y="413.7622">&#176; Filtrar por prioridad</text><text fill="#000000" font-family="sans-serif" font-size="13" lengthAdjust="spacing" textLength="111" x="12" y="428.895">&#176; Filtrar por fecha</text><text fill="#000000" font-family="sans-serif" font-size="13" lengthAdjust="spacing" textLength="153" x="12" y="444.0278">&#176; Filtrar por responsable</text></g><g id="elem_GMN17"><path d="M522.5,517.2969 L522.5,533.2969 L474.13,537.2969 L522.5,541.2969 L522.5,557.5625 A0,0 0 0 0 522.5,557.5625 L705.5,557.5625 A0,0 0 0 0 705.5,557.5625 L705.5,527.2969 L695.5,517.2969 L522.5,517.2969 A0,0 0 0 0 522.5,517.2969 " fill="#FBFB77" filter="url(#f135hvnx2jyziq)" style="stroke:#A80036;stroke-width:1.0;"/><path d="M695.5,517.2969 L695.5,527.2969 L705.5,527.2969 L695.5,517.2969 " fill="#FBFB77" style="stroke:#A80036;stroke-width:1.0;"/><text fill="#000000" font-family="sans-serif" font-size="13" font-weight="bold" lengthAdjust="spacing" textLength="147" x="528.5" y="534.3638">El sistema muestra</text><text fill="#000000" font-family="sans-serif" font-size="13" lengthAdjust="spacing" textLength="5" x="675.5" y="534.3638">:</text><text fill="#000000" font-family="sans-serif" font-size="13" lengthAdjust="spacing" textLength="162" x="528.5" y="549.4966">&#176; Lista de tickets filtrados</text></g><g id="elem_GMN20"><path d="M522.5,381.7969 L522.5,397.7969 L410.234,401.7969 L522.5,405.7969 L522.5,422.0625 A0,0 0 0 0 522.5,422.0625 L747.5,422.0625 A0,0 0 0 0 747.5,422.0625 L747.5,391.7969 L737.5,381.7969 L522.5,381.7969 A0,0 0 0 0 522.5,381.7969 " fill="#FBFB77" filter="url(#f135hvnx2jyziq)" style="stroke:#A80036;stroke-width:1.0;"/><path d="M737.5,381.7969 L737.5,391.7969 L747.5,391.7969 L737.5,381.7969 " fill="#FBFB77" style="stroke:#A80036;stroke-width:1.0;"/><text fill="#000000" font-family="sans-serif" font-size="13" font-weight="bold" lengthAdjust="spacing" textLength="152" x="528.5" y="398.8638">El usuario introduce</text><text fill="#000000" font-family="sans-serif" font-size="13" lengthAdjust="spacing" textLength="5" x="680.5" y="398.8638">:</text><text fill="#000000" font-family="sans-serif" font-size="13" lengthAdjust="spacing" textLength="204" x="528.5" y="413.9966">&#176; Propiedad de ticket para filtrar</text></g><!--link DASHBOARD_ABIERTO to FiltrarTickets--><g id="link_DASHBOARD_ABIERTO_FiltrarTickets"><path d="M212,94.5039 C212,101.6716 212,103.8131 212,112.0363 " fill="none" id="DASHBOARD_ABIERTO-to-FiltrarTickets" style="stroke:#A80036;stroke-width:1.0;"/><polygon fill="#A80036" points="212,118.0363,216,109.0363,212,113.0363,208,109.0363,212,118.0363" style="stroke:#A80036;stroke-width:1.0;"/></g><!--link *start*FiltrarTickets to verlistadoTickets--><g id="link_*start*FiltrarTickets_verlistadoTickets"><path d="M355,181.5539 C355,195.3369 355,215.7189 355,235.2039 " fill="none" id="*start*FiltrarTickets-to-verlistadoTickets" style="stroke:#0000FF;stroke-width:1.0;"/><polygon fill="#0000FF" points="355,241.2039,359,232.2039,355,236.2039,351,232.2039,355,241.2039" style="stroke:#0000FF;stroke-width:1.0;"/></g><!--link verlistadoTickets to confirmarFiltrado--><g id="link_verlistadoTickets_confirmarFiltrado"><path d="M355,291.4729 C355,315.5169 355,346.2109 355,370.3499 " fill="none" id="verlistadoTickets-to-confirmarFiltrado" style="stroke:#0000FF;stroke-width:1.0;"/><polygon fill="#0000FF" points="355,376.3499,359,367.3499,355,371.3499,351,367.3499,355,376.3499" style="stroke:#0000FF;stroke-width:1.0;"/></g><!--link confirmarFiltrado to listadoFiltrado--><g id="link_confirmarFiltrado_listadoFiltrado"><path d="M355,426.9729 C355,451.0169 355,481.7109 355,505.8499 " fill="none" id="confirmarFiltrado-to-listadoFiltrado" style="stroke:#0000FF;stroke-width:1.0;"/><polygon fill="#0000FF" points="355,511.8499,359,502.8499,355,506.8499,351,502.8499,355,511.8499" style="stroke:#0000FF;stroke-width:1.0;"/></g><!--link listadoFiltrado to *end*FiltrarTickets--><g id="link_listadoFiltrado_*end*FiltrarTickets"><path d="M355,562.5039 C355,581.8699 355,602.047 355,616.201 " fill="none" id="listadoFiltrado-to-*end*FiltrarTickets" style="stroke:#0000FF;stroke-width:1.0;"/><polygon fill="#0000FF" points="355,622.201,359,613.201,355,617.201,351,613.201,355,622.201" style="stroke:#0000FF;stroke-width:1.0;"/></g><!--SRC=[VL9BJiCm4Dtx5AEoYvGBT86KqYAGa8fAOLDLo8qdrAeJMsE73U9Ed86JCMdIfeqZjc_cpVlO_g0h8EjH11qCmftq5XJ2gxTJkDSca2HOw_o0mGlXWmm8y-pbORRCLlFtRFQuMAsN8a8WJMzFz07x6eKl8G0soHRIpStErBXbuYUIqRojx8aBq98dRqZGpHgRePrFGFfHLeHTokIsAZILabfBolOocJCwv-H5Cx77ysFR4NPvlXEEZuzdQBKOQzF4x05oASNzyGA0-1QYignXi0XWYr7JIR8muFaObX8SKga39icK9xy_voTtbW2FUZ7EFwKs8xWZRKahgU9HWVbUnZ2XTxRoScTGOAMWyJv84FTmvR-isIL9zW_j-QTcVxJMeGBfZ_t_9TM-bfm9TCMVGDLvNzCpMQUHe_PAu2J9JetEMdy0]--></g></svg>