<?xml version="1.0" encoding="us-ascii" standalone="no"?><svg xmlns="http://www.w3.org/2000/svg" xmlns:xlink="http://www.w3.org/1999/xlink" contentStyleType="text/css" height="995px" preserveAspectRatio="none" style="width:1270px;height:995px;background:#FFFFFF;" version="1.1" viewBox="0 0 1270 995" width="1270px" zoomAndPan="magnify"><defs><filter height="300%" id="f1n2gqk2se8qjd" width="300%" x="-1" y="-1"><feGaussianBlur result="blurOut" stdDeviation="2.0"/><feColorMatrix in="blurOut" result="blurOut2" type="matrix" values="0 0 0 0 0 0 0 0 0 0 0 0 0 0 0 0 0 0 .4 0"/><feOffset dx="4.0" dy="4.0" in="blurOut2" result="blurOut3"/><feBlend in="SourceGraphic" in2="blurOut3" mode="normal"/></filter></defs><g><text fill="#000000" font-family="sans-serif" font-size="14" font-weight="bold" lengthAdjust="spacing" textLength="242" x="506.25" y="22.9951">Caso de Uso: Modificar Ticket</text><!--cluster ModificarTicket--><g id="cluster_ModificarTicket"><rect fill="none" filter="url(#f1n2gqk2se8qjd)" height="534" rx="12.5" ry="12.5" style="stroke:#A80036;stroke-width:1.0;" width="684" x="256" y="447.2969"/><path d="M268.5,447.2969 L927.5,447.2969 A12.5,12.5 0 0 1 940,459.7969 L940,468.5938 L256,468.5938 L256,459.7969 A12.5,12.5 0 0 1 268.5,447.2969 " fill="#FEFECE" style="stroke:#FEFECE;stroke-width:1.0;"/><path d="M256,468.5938 L940,468.5938 L940,968.7969 A12.5,12.5 0 0 1 927.5,981.2969 L268.5,981.2969 A12.5,12.5 0 0 1 256,968.7969 L256,468.5938 " fill="#FEFECE" style="stroke:#FEFECE;stroke-width:1.0;"/><rect fill="none" height="534" rx="12.5" ry="12.5" style="stroke:#A80036;stroke-width:1.0;" width="684" x="256" y="447.2969"/><line style="stroke:#A80036;stroke-width:1.0;" x1="256" x2="940" y1="468.5938" y2="468.5938"/><text fill="#000000" font-family="sans-serif" font-size="14" lengthAdjust="spacing" textLength="112" x="542" y="464.292">ModificarTicket</text></g><ellipse cx="525" cy="500.2969" fill="#000000" filter="url(#f1n2gqk2se8qjd)" rx="10" ry="10" style="stroke:#000000;stroke-width:1.0;"/><g id="ModificarTicket.modificarTicket"><rect fill="#FEFECE" filter="url(#f1n2gqk2se8qjd)" height="50" rx="12.5" ry="12.5" style="stroke:#A80036;stroke-width:1.0;" width="254" x="398" y="642.2969"/><line style="stroke:#A80036;stroke-width:1.0;" x1="398" x2="652" y1="668.5938" y2="668.5938"/><text fill="#000000" font-family="sans-serif" font-size="14" lengthAdjust="spacing" textLength="234" x="408" y="660.292">Modificar propiedades del ticket</text></g><g id="ModificarTicket.confirmarCambios"><rect fill="#FEFECE" filter="url(#f1n2gqk2se8qjd)" height="50" rx="12.5" ry="12.5" style="stroke:#A80036;stroke-width:1.0;" width="230" x="410" y="786.2969"/><line style="stroke:#A80036;stroke-width:1.0;" x1="410" x2="640" y1="812.5938" y2="812.5938"/><text fill="#000000" font-family="sans-serif" font-size="14" lengthAdjust="spacing" textLength="210" x="420" y="804.292">Confirmar cambios del ticket</text></g><ellipse cx="479" cy="946.2969" fill="none" filter="url(#f1n2gqk2se8qjd)" rx="11" ry="11" style="stroke:#000000;stroke-width:1.0;"/><ellipse cx="479" cy="946.2969" fill="#000000" rx="6" ry="6" style="stroke:#000000;stroke-width:1.0;"/><g id="DASHBOARD_ABIERTO"><rect fill="#FEFECE" filter="url(#f1n2gqk2se8qjd)" height="50" rx="12.5" ry="12.5" style="stroke:#A80036;stroke-width:1.0;" width="182" x="173" y="44.2969"/><line style="stroke:#A80036;stroke-width:1.0;" x1="173" x2="355" y1="70.5938" y2="70.5938"/><text fill="#000000" font-family="sans-serif" font-size="14" lengthAdjust="spacing" textLength="162" x="183" y="62.292">DASHBOARD_ABIERTO</text></g><g id="VER_TICKET"><rect fill="#FEFECE" filter="url(#f1n2gqk2se8qjd)" height="50" rx="12.5" ry="12.5" style="stroke:#A80036;stroke-width:1.0;" width="107" x="210.5" y="342.2969"/><line style="stroke:#A80036;stroke-width:1.0;" x1="210.5" x2="317.5" y1="368.5938" y2="368.5938"/><text fill="#000000" font-family="sans-serif" font-size="14" lengthAdjust="spacing" textLength="87" x="220.5" y="360.292">VER_TICKET</text></g><g id="FILTRAR_TICKETS"><rect fill="#FEFECE" filter="url(#f1n2gqk2se8qjd)" height="50" rx="12.5" ry="12.5" style="stroke:#A80036;stroke-width:1.0;" width="146" x="191" y="193.2969"/><line style="stroke:#A80036;stroke-width:1.0;" x1="191" x2="337" y1="219.5938" y2="219.5938"/><text fill="#000000" font-family="sans-serif" font-size="14" lengthAdjust="spacing" textLength="126" x="201" y="211.292">FILTRAR_TICKETS</text></g><g id="elem_GMN17"><path d="M6,609.2969 L6,725.2266 A0,0 0 0 0 6,725.2266 L232,725.2266 A0,0 0 0 0 232,725.2266 L232,671.2969 L397.842,667.2969 L232,663.2969 L232,619.2969 L222,609.2969 L6,609.2969 A0,0 0 0 0 6,609.2969 " fill="#FBFB77" filter="url(#f1n2gqk2se8qjd)" style="stroke:#A80036;stroke-width:1.0;"/><path d="M222,609.2969 L222,619.2969 L232,619.2969 L222,609.2969 " fill="#FBFB77" style="stroke:#A80036;stroke-width:1.0;"/><text fill="#000000" font-family="sans-serif" font-size="13" font-weight="bold" lengthAdjust="spacing" textLength="78" x="12" y="626.3638">El sistema</text><text fill="#000000" font-family="sans-serif" font-size="13" lengthAdjust="spacing" textLength="119" x="94" y="626.3638">permite modificar:</text><text fill="#000000" font-family="sans-serif" font-size="13" lengthAdjust="spacing" textLength="54" x="12" y="641.4966">&#176; Estado</text><text fill="#000000" font-family="sans-serif" font-size="13" lengthAdjust="spacing" textLength="66" x="12" y="656.6294">&#176; Prioridad</text><text fill="#000000" font-family="sans-serif" font-size="13" lengthAdjust="spacing" textLength="45" x="12" y="671.7622">&#176; Titulo</text><text fill="#000000" font-family="sans-serif" font-size="13" lengthAdjust="spacing" textLength="84" x="12" y="686.895">&#176; Descripci&#243;n</text><text fill="#000000" font-family="sans-serif" font-size="13" lengthAdjust="spacing" textLength="92" x="12" y="702.0278">&#176; Responsable</text><text fill="#000000" font-family="sans-serif" font-size="13" lengthAdjust="spacing" textLength="125" x="12" y="717.1606">&#176; Archivos Adjuntos</text></g><g id="elem_GMN20"><path d="M964.5,654.7969 L964.5,663.2969 L652.189,667.2969 L964.5,671.2969 L964.5,679.9297 A0,0 0 0 0 964.5,679.9297 L1261.5,679.9297 A0,0 0 0 0 1261.5,679.9297 L1261.5,664.7969 L1251.5,654.7969 L964.5,654.7969 A0,0 0 0 0 964.5,654.7969 " fill="#FBFB77" filter="url(#f1n2gqk2se8qjd)" style="stroke:#A80036;stroke-width:1.0;"/><path d="M1251.5,654.7969 L1251.5,664.7969 L1261.5,664.7969 L1251.5,654.7969 " fill="#FBFB77" style="stroke:#A80036;stroke-width:1.0;"/><text fill="#000000" font-family="sans-serif" font-size="13" font-weight="bold" lengthAdjust="spacing" textLength="74" x="970.5" y="671.8638">El usuario</text><text fill="#000000" font-family="sans-serif" font-size="13" lengthAdjust="spacing" textLength="198" x="1048.5" y="671.8638">introduce los datos a modificar</text></g><!--link DASHBOARD_ABIERTO to FILTRAR_TICKETS--><g id="link_DASHBOARD_ABIERTO_FILTRAR_TICKETS"><path d="M264,94.5709 C264,121.8079 264,159.7349 264,186.9869 " fill="none" id="DASHBOARD_ABIERTO-to-FILTRAR_TICKETS" style="stroke:#A80036;stroke-width:1.0;"/><polygon fill="#A80036" points="264,192.9869,268,183.9869,264,187.9869,260,183.9869,264,192.9869" style="stroke:#A80036;stroke-width:1.0;"/><path d="M269,129.2969 L269,154.2969 L602,154.2969 L602,139.2969 L592,129.2969 L269,129.2969 " fill="#FBFB77" filter="url(#f1n2gqk2se8qjd)" style="stroke:#A80036;stroke-width:1.0;"/><path d="M592,129.2969 L592,139.2969 L602,139.2969 L592,129.2969 " fill="#FBFB77" style="stroke:#A80036;stroke-width:1.0;"/><text fill="#000000" font-family="sans-serif" font-size="13" font-weight="bold" lengthAdjust="spacing" textLength="74" x="275" y="146.3638">El usuario</text><text fill="#000000" font-family="sans-serif" font-size="13" lengthAdjust="spacing" textLength="234" x="353" y="146.3638">solicita filtrar por propiedad de ticket</text></g><!--link FILTRAR_TICKETS to VER_TICKET--><g id="link_FILTRAR_TICKETS_VER_TICKET"><path d="M264,243.5709 C264,270.8079 264,308.7349 264,335.9869 " fill="none" id="FILTRAR_TICKETS-to-VER_TICKET" style="stroke:#A80036;stroke-width:1.0;"/><polygon fill="#A80036" points="264,341.9869,268,332.9869,264,336.9869,260,332.9869,264,341.9869" style="stroke:#A80036;stroke-width:1.0;"/><path d="M269,278.2969 L269,303.2969 L496,303.2969 L496,288.2969 L486,278.2969 L269,278.2969 " fill="#FBFB77" filter="url(#f1n2gqk2se8qjd)" style="stroke:#A80036;stroke-width:1.0;"/><path d="M486,278.2969 L486,288.2969 L496,288.2969 L486,278.2969 " fill="#FBFB77" style="stroke:#A80036;stroke-width:1.0;"/><text fill="#000000" font-family="sans-serif" font-size="13" font-weight="bold" lengthAdjust="spacing" textLength="74" x="275" y="295.3638">El usuario</text><text fill="#000000" font-family="sans-serif" font-size="13" lengthAdjust="spacing" textLength="128" x="353" y="295.3638">solicita ver un ticket</text></g><!--link VER_TICKET to ModificarTicket--><g id="link_VER_TICKET_ModificarTicket"><path d="M264,392.3239 C264,401.6309 264,412.8356 264,424.4404 C264,430.2428 264,436.1452 264,441.9604 C264,443.4142 264,444.8626 264,446.3026 C264,446.4826 264,440.6624 264,440.8422 " fill="none" id="VER_TICKET-to-ModificarTicket" style="stroke:#A80036;stroke-width:1.0;"/><polygon fill="#A80036" points="264,446.8422,268,437.8422,264,441.8422,260,437.8422,264,446.8422" style="stroke:#A80036;stroke-width:1.0;"/></g><!--link *start*ModificarTicket to modificarTicket--><g id="link_*start*ModificarTicket_modificarTicket"><path d="M525,510.6409 C525,535.7289 525,599.1649 525,636.2379 " fill="none" id="*start*ModificarTicket-to-modificarTicket" style="stroke:#0000FF;stroke-width:1.0;"/><polygon fill="#0000FF" points="525,642.2379,529,633.2379,525,637.2379,521,633.2379,525,642.2379" style="stroke:#0000FF;stroke-width:1.0;"/><path d="M530,545.2969 L530,570.2969 L796,570.2969 L796,555.2969 L786,545.2969 L530,545.2969 " fill="#FBFB77" filter="url(#f1n2gqk2se8qjd)" style="stroke:#A80036;stroke-width:1.0;"/><path d="M786,545.2969 L786,555.2969 L796,555.2969 L786,545.2969 " fill="#FBFB77" style="stroke:#A80036;stroke-width:1.0;"/><text fill="#000000" font-family="sans-serif" font-size="13" font-weight="bold" lengthAdjust="spacing" textLength="74" x="536" y="562.3638">El usuario</text><text fill="#000000" font-family="sans-serif" font-size="13" lengthAdjust="spacing" textLength="167" x="614" y="562.3638">solicita modificar un ticket</text></g><!--link modificarTicket to confirmarCambios--><g id="link_modificarTicket_confirmarCambios"><path d="M525,692.3849 C525,718.4969 525,753.9319 525,780.0899 " fill="none" id="modificarTicket-to-confirmarCambios" style="stroke:#0000FF;stroke-width:1.0;"/><polygon fill="#0000FF" points="525,786.0899,529,777.0899,525,781.0899,521,777.0899,525,786.0899" style="stroke:#0000FF;stroke-width:1.0;"/></g><!--link confirmarCambios to *end*ModificarTicket--><g id="link_confirmarCambios_*end*ModificarTicket"><path d="M409.997,829.9709 C369.982,838.6529 332.048,850.6649 320,866.2969 C309.419,880.0259 309.343,891.6269 320,905.2969 C338.551,929.0925 429.4493,940.2962 462.1993,943.6549 " fill="none" id="confirmarCambios-to-*end*ModificarTicket" style="stroke:#0000FF;stroke-width:1.0;"/><polygon fill="#0000FF" points="468.168,944.267,459.623,939.3697,463.1941,943.7569,458.8069,947.3279,468.168,944.267" style="stroke:#0000FF;stroke-width:1.0;"/><path d="M325,871.2969 L325,896.2969 L583,896.2969 L583,881.2969 L573,871.2969 L325,871.2969 " fill="#FBFB77" filter="url(#f1n2gqk2se8qjd)" style="stroke:#A80036;stroke-width:1.0;"/><path d="M573,871.2969 L573,881.2969 L583,881.2969 L573,871.2969 " fill="#FBFB77" style="stroke:#A80036;stroke-width:1.0;"/><text fill="#000000" font-family="sans-serif" font-size="13" font-weight="bold" lengthAdjust="spacing" textLength="74" x="331" y="888.3638">El usuario</text><text fill="#000000" font-family="sans-serif" font-size="13" lengthAdjust="spacing" textLength="159" x="409" y="888.3638">solicita cambiar un ticket</text></g><!--link confirmarCambios to *end*ModificarTicket--><g id="link_confirmarCambios_*end*ModificarTicket"><path d="M569.519,836.3239 C580.13,844.3549 590.084,854.3649 596,866.2969 C603.7,881.8259 606.081,891.1969 596,905.2969 C571.155,940.0478 520.2359,944.8288 496.1219,945.2856 " fill="none" id="confirmarCambios-to-*end*ModificarTicket-1" style="stroke:#FF0000;stroke-width:1.0;"/><polygon fill="#FF0000" points="490.123,945.3993,499.1971,949.2281,495.1221,945.3046,499.0456,941.2295,490.123,945.3993" style="stroke:#FF0000;stroke-width:1.0;"/><path d="M607,871.2969 L607,896.2969 L874,896.2969 L874,881.2969 L864,871.2969 L607,871.2969 " fill="#FBFB77" filter="url(#f1n2gqk2se8qjd)" style="stroke:#A80036;stroke-width:1.0;"/><path d="M864,871.2969 L864,881.2969 L874,881.2969 L864,871.2969 " fill="#FBFB77" style="stroke:#A80036;stroke-width:1.0;"/><text fill="#000000" font-family="sans-serif" font-size="13" font-weight="bold" lengthAdjust="spacing" textLength="74" x="613" y="888.3638">El usuario</text><text fill="#000000" font-family="sans-serif" font-size="13" lengthAdjust="spacing" textLength="168" x="691" y="888.3638">solicita cancelar el cambio</text></g><!--SRC=[bLBDQjmm4BxhAORqPjWNs4F1sNN9qeGKn-qbXA2LnibaPSb8SYubxnJe6xGlredbzHfd2Pk3mVuqtyzySjYH1Uy2YaZH8AnaSA0HVWQtX2kdgIObFLIaTXX1Y11bH5ZdDnVdrtcvli_FDqLPNG_uhwAyhpQhxqKr0DysbrMPxy4R8TunOR7u-cxCEkOw2uRiRWbPLXZeGYSzkIo3u0mfYX9gCj5pkDRnurrBgAL-2n_xj6AcsZjD4fvcyemUEhkNFD1xjR6WrC- -dXaCluK0kCtkO77xPMiwl6DgCwC2d9Pdv4rI0IJViyE5ZNrWu4RCC7a6CXnndY7JcChPcdmZ_KesMtBXuBNQdu1AHtEV8zGvD7NYVaukeNUSLN1CswF-lBHLQ5YRbqcBCHL0l0YH_XY3TGHN7wcnbmmK8ZQI9Llq3J5X75m23_rzXO8Rr2wz_s1xJtnFwREYs9dXQ8r1UMeL_VjZ4r9YQ9qDScim0RbNZ_JCk-RwgREHEqQh-qM7i9uU7ZzAUoY0RFHETueNVBjAoM8m-Tj6uVy0]--></g></svg>