<?xml version="1.0" encoding="us-ascii" standalone="no"?><svg xmlns="http://www.w3.org/2000/svg" xmlns:xlink="http://www.w3.org/1999/xlink" contentStyleType="text/css" height="594px" preserveAspectRatio="none" style="width:660px;height:594px;background:#FFFFFF;" version="1.1" viewBox="0 0 660 594" width="660px" zoomAndPan="magnify"><defs/><g><!--cluster SistemaTicket--><g id="cluster_SistemaTicket"><rect fill="none" height="581" rx="2.5" ry="2.5" style="stroke:#181818;stroke-width:1.0;" width="453" x="201.4947" y="7"/><text fill="#000000" font-family="sans-serif" font-size="14" font-weight="bold" lengthAdjust="spacing" textLength="117" x="369.4947" y="21.9951">SistemaTicket</text></g><g id="elem_Comentar Ticket"><ellipse cx="302.9401" cy="197.1891" fill="#F1F1F1" rx="81.4455" ry="18.6891" style="stroke:#181818;stroke-width:0.5;"/><text fill="#000000" font-family="sans-serif" font-size="14" lengthAdjust="spacing" textLength="122" x="240.8055" y="200.409">Comentar Ticket</text></g><g id="elem_Crear Ticket"><ellipse cx="303.0958" cy="127.1202" fill="#F1F1F1" rx="68.6011" ry="16.1202" style="stroke:#181818;stroke-width:0.5;"/><text fill="#000000" font-family="sans-serif" font-size="14" lengthAdjust="spacing" textLength="89" x="255.5958" y="130.8678">Crear Ticket</text></g><g id="elem_Filtrar Tickets"><ellipse cx="303.1815" cy="58.9374" fill="#F1F1F1" rx="72.6868" ry="16.9374" style="stroke:#181818;stroke-width:0.5;"/><text fill="#000000" font-family="sans-serif" font-size="14" lengthAdjust="spacing" textLength="100" x="250.1815" y="62.6849">Filtrar Tickets</text></g><g id="elem_Asignar Ticket"><ellipse cx="302.829" cy="339.1669" fill="#F1F1F1" rx="73.8343" ry="17.1669" style="stroke:#181818;stroke-width:0.5;"/><text fill="#000000" font-family="sans-serif" font-size="14" lengthAdjust="spacing" textLength="103" x="248.329" y="342.9144">Asignar Ticket</text></g><g id="elem_Modificar Ticket"><ellipse cx="302.9599" cy="269.193" fill="#F1F1F1" rx="78.9652" ry="18.193" style="stroke:#181818;stroke-width:0.5;"/><text fill="#000000" font-family="sans-serif" font-size="14" lengthAdjust="spacing" textLength="116" x="242.8947" y="272.6886">Modificar Ticket</text></g><g id="elem_Consultar Historial"><ellipse cx="302.7879" cy="551.9586" fill="#F1F1F1" rx="85.2932" ry="19.4586" style="stroke:#181818;stroke-width:0.5;"/><text fill="#000000" font-family="sans-serif" font-size="14" lengthAdjust="spacing" textLength="131" x="237.2879" y="554.8053">Consultar Historial</text></g><g id="elem_Exportar Informe"><ellipse cx="302.7826" cy="409.8576" fill="#F1F1F1" rx="82.288" ry="18.8576" style="stroke:#181818;stroke-width:0.5;"/><text fill="#000000" font-family="sans-serif" font-size="14" lengthAdjust="spacing" textLength="124" x="239.9452" y="412.9838">Exportar Informe</text></g><g id="elem_Cerrar Ticket"><ellipse cx="302.7996" cy="481.061" fill="#F1F1F1" rx="70.8049" ry="16.561" style="stroke:#181818;stroke-width:0.5;"/><text fill="#000000" font-family="sans-serif" font-size="14" lengthAdjust="spacing" textLength="95" x="252.2996" y="484.8085">Cerrar Ticket</text></g><g id="elem_Ver Ticket"><ellipse cx="575.2195" cy="269.145" fill="#F1F1F1" rx="63.7248" ry="15.145" style="stroke:#181818;stroke-width:0.5;"/><text fill="#000000" font-family="sans-serif" font-size="14" lengthAdjust="spacing" textLength="75" x="534.7195" y="272.8925">Ver Ticket</text></g><!--entity JefeProyecto--><g id="elem_JefeProyecto"><ellipse cx="94.9947" cy="297.5" fill="#F1F1F1" rx="8" ry="8" style="stroke:#181818;stroke-width:0.5;"/><path d="M94.9947,305.5 L94.9947,332.5 M81.9947,313.5 L107.9947,313.5 M94.9947,332.5 L81.9947,347.5 M94.9947,332.5 L107.9947,347.5 " fill="none" style="stroke:#181818;stroke-width:0.5;"/><text fill="#000000" font-family="sans-serif" font-size="14" lengthAdjust="spacing" textLength="119" x="35.4947" y="361.9951">Jefe de Proyecto</text></g><!--entity Admin--><g id="elem_Admin"><ellipse cx="94.9947" cy="408.5" fill="#F1F1F1" rx="8" ry="8" style="stroke:#181818;stroke-width:0.5;"/><path d="M94.9947,416.5 L94.9947,443.5 M81.9947,424.5 L107.9947,424.5 M94.9947,443.5 L81.9947,458.5 M94.9947,443.5 L107.9947,458.5 " fill="none" style="stroke:#181818;stroke-width:0.5;"/><text fill="#000000" font-family="sans-serif" font-size="14" lengthAdjust="spacing" textLength="102" x="43.9947" y="472.9951">Administrador</text></g><!--entity Usuario--><g id="elem_Usuario"><ellipse cx="94.9947" cy="75.5" fill="#F1F1F1" rx="8" ry="8" style="stroke:#181818;stroke-width:0.5;"/><path d="M94.9947,83.5 L94.9947,110.5 M81.9947,91.5 L107.9947,91.5 M94.9947,110.5 L81.9947,125.5 M94.9947,110.5 L107.9947,125.5 " fill="none" style="stroke:#181818;stroke-width:0.5;"/><text fill="#000000" font-family="sans-serif" font-size="14" lengthAdjust="spacing" textLength="51" x="69.4947" y="139.9951">Usuario</text></g><!--entity Dev--><g id="elem_Dev"><ellipse cx="94.9947" cy="186.5" fill="#F1F1F1" rx="8" ry="8" style="stroke:#181818;stroke-width:0.5;"/><path d="M94.9947,194.5 L94.9947,221.5 M81.9947,202.5 L107.9947,202.5 M94.9947,221.5 L81.9947,236.5 M94.9947,221.5 L107.9947,236.5 " fill="none" style="stroke:#181818;stroke-width:0.5;"/><text fill="#000000" font-family="sans-serif" font-size="14" lengthAdjust="spacing" textLength="96" x="46.9947" y="250.9951">Desarrollador</text></g><!--reverse link Usuario to Dev--><g id="link_Usuario_Dev"><path d="M94.9947,149.129 C94.9947,160.701 94.9947,166.272 94.9947,177.844 " fill="none" id="Usuario-backto-Dev" style="stroke:#181818;stroke-width:1.0;"/><polygon fill="#181818" points="94.9947,143.129,90.9947,152.129,94.9947,148.129,98.9947,152.129,94.9947,143.129" style="stroke:#181818;stroke-width:1.0;"/></g><!--link Dev to Comentar Ticket--><g id="link_Dev_Comentar Ticket"><path d="M142.9967,211.665 C167.9337,209.365 199.1627,206.484 227.3267,203.887 " fill="none" id="Dev-Comentar Ticket" style="stroke:#181818;stroke-width:1.0;"/></g><!--link Crear Ticket to Usuario--><g id="link_Crear Ticket_Usuario"><path d="M240.4007,120.422 C200.3467,116.144 150.2707,110.797 120.8427,107.654 " fill="none" id="Crear Ticket-Usuario" style="stroke:#181818;stroke-width:1.0;"/></g><!--link Usuario to Filtrar Tickets--><g id="link_Usuario_Filtrar Tickets"><path d="M120.8427,99.451 C152.6257,92.354 208.4907,79.879 249.8057,70.654 " fill="none" id="Usuario-Filtrar Tickets" style="stroke:#181818;stroke-width:1.0;"/></g><!--reverse link Usuario to JefeProyecto--><g id="link_Usuario_JefeProyecto"><path d="M64.2459,124.5244 C46.4603,137.2834 29.3861,153.464 20.4947,177.5 C8.6214,209.597 8.6214,222.403 20.4947,254.5 C25.2535,267.364 33.7528,278.98 43.3522,288.955 " fill="none" id="Usuario-backto-JefeProyecto" style="stroke:#181818;stroke-width:1.0;"/><polygon fill="#181818" points="69.1212,121.027,59.4767,123.0229,65.0584,123.9415,64.1399,129.5233,69.1212,121.027" style="stroke:#181818;stroke-width:1.0;"/></g><!--link JefeProyecto to Asignar Ticket--><g id="link_JefeProyecto_Asignar Ticket"><path d="M154.7507,330.423 C178.5347,331.808 206.2057,333.42 231.0967,334.87 " fill="none" id="JefeProyecto-Asignar Ticket" style="stroke:#181818;stroke-width:1.0;"/></g><!--link JefeProyecto to Modificar Ticket--><g id="link_JefeProyecto_Modificar Ticket"><path d="M154.7507,310.457 C185.6697,301.752 223.1577,291.197 252.5687,282.916 " fill="none" id="JefeProyecto-Modificar Ticket" style="stroke:#181818;stroke-width:1.0;"/></g><!--reverse link Usuario to Admin--><g id="link_Usuario_Admin"><path d="M64.2459,124.5244 C46.4603,137.2834 29.3861,153.464 20.4947,177.5 C6,216.683 6,326.317 20.4947,365.5 C25.3161,378.533 33.9771,390.286 43.7317,400.348 " fill="none" id="Usuario-backto-Admin" style="stroke:#181818;stroke-width:1.0;"/><polygon fill="#181818" points="69.1212,121.027,59.4767,123.0229,65.0584,123.9415,64.1399,129.5233,69.1212,121.027" style="stroke:#181818;stroke-width:1.0;"/></g><!--reverse link JefeProyecto to Admin--><g id="link_JefeProyecto_Admin"><path d="M94.9947,371.129 C94.9947,382.701 94.9947,388.272 94.9947,399.844 " fill="none" id="JefeProyecto-backto-Admin" style="stroke:#181818;stroke-width:1.0;"/><polygon fill="#181818" points="94.9947,365.129,90.9947,374.129,94.9947,370.129,98.9947,374.129,94.9947,365.129" style="stroke:#181818;stroke-width:1.0;"/></g><!--link Admin to Consultar Historial--><g id="link_Admin_Consultar Historial"><path d="M137.9367,476.253 C154.3887,489.838 173.9827,504.3772 193.4947,515 C210.0997,524.0404 229.3227,531.4664 246.9337,537.2313 " fill="none" id="Admin-Consultar Historial" style="stroke:#181818;stroke-width:1.0;"/></g><!--link Admin to Exportar Informe--><g id="link_Admin_Exportar Informe"><path d="M146.1247,431.186 C171.7297,427.706 203.3157,423.413 231.3447,419.603 " fill="none" id="Admin-Exportar Informe" style="stroke:#181818;stroke-width:1.0;"/></g><!--link Admin to Cerrar Ticket--><g id="link_Admin_Cerrar Ticket"><path d="M146.1247,448.464 C177.4467,455.002 217.7177,463.408 249.4797,470.038 " fill="none" id="Admin-Cerrar Ticket" style="stroke:#181818;stroke-width:1.0;"/></g><!--reverse link Filtrar Tickets to Ver Ticket--><g id="link_Filtrar Tickets_Ver Ticket"><path d="M352.388,74.7859 C366.244,80.1209 375.7207,84.797 388.4947,93 C463.2047,140.975 534.4007,221.411 561.9737,254.306 " fill="none" id="Filtrar Tickets-backto-Ver Ticket" style="stroke:#181818;stroke-width:1.0;stroke-dasharray:7.0,7.0;"/><polygon fill="#181818" points="346.7887,72.63,353.7503,79.5967,351.4547,74.4266,356.6249,72.131,346.7887,72.63" style="stroke:#181818;stroke-width:1.0;"/><text fill="#000000" font-family="sans-serif" font-size="13" lengthAdjust="spacing" textLength="61" x="419.4947" y="114.0669">&#171;include&#187;</text></g><!--link Comentar Ticket to Ver Ticket--><g id="link_Comentar Ticket_Ver Ticket"><path d="M356.8277,210.914 C392.1357,220.231 439.6137,232.796 481.4947,244 C498.2077,248.471 510.8161,251.8674 526.7731,256.1864 " fill="none" id="Comentar Ticket-to-Ver Ticket" style="stroke:#181818;stroke-width:1.0;stroke-dasharray:7.0,7.0;"/><polygon fill="#181818" points="532.5647,257.754,524.9223,251.5416,527.7383,256.4477,522.8322,259.2637,532.5647,257.754" style="stroke:#181818;stroke-width:1.0;"/><text fill="#000000" font-family="sans-serif" font-size="13" lengthAdjust="spacing" textLength="61" x="419.4947" y="225.0669">&#171;include&#187;</text></g><!--link Modificar Ticket to Ver Ticket--><g id="link_Modificar Ticket_Ver Ticket"><path d="M382.0897,269 C423.2067,269 466.9427,269 505.4787,269 " fill="none" id="Modificar Ticket-to-Ver Ticket" style="stroke:#181818;stroke-width:1.0;stroke-dasharray:7.0,7.0;"/><polygon fill="#181818" points="511.4787,269,502.4787,265,506.4787,269,502.4787,273,511.4787,269" style="stroke:#181818;stroke-width:1.0;"/><text fill="#000000" font-family="sans-serif" font-size="13" lengthAdjust="spacing" textLength="61" x="419.4947" y="265.0669">&#171;include&#187;</text></g><!--link Asignar Ticket to Ver Ticket--><g id="link_Asignar Ticket_Ver Ticket"><path d="M353.7797,326.6 C389.3907,317.676 438.4397,305.275 481.4947,294 C498.2307,289.617 510.8441,286.2405 526.7991,281.9105 " fill="none" id="Asignar Ticket-to-Ver Ticket" style="stroke:#181818;stroke-width:1.0;stroke-dasharray:7.0,7.0;"/><polygon fill="#181818" points="532.5897,280.339,522.8562,278.8359,527.7642,281.6486,524.9515,286.5566,532.5897,280.339" style="stroke:#181818;stroke-width:1.0;"/><text fill="#000000" font-family="sans-serif" font-size="13" lengthAdjust="spacing" textLength="61" x="419.4947" y="290.0669">&#171;include&#187;</text></g><!--link Cerrar Ticket to Ver Ticket--><g id="link_Cerrar Ticket_Ver Ticket"><path d="M345.9517,467.744 C360.0447,462.364 375.4787,455.41 388.4947,447 C463.4717,398.554 530.6969,321.7882 558.1909,288.4982 " fill="none" id="Cerrar Ticket-to-Ver Ticket" style="stroke:#181818;stroke-width:1.0;stroke-dasharray:7.0,7.0;"/><polygon fill="#181818" points="562.0117,283.872,553.1964,288.2641,558.8277,287.7272,559.3647,293.3585,562.0117,283.872" style="stroke:#181818;stroke-width:1.0;"/><text fill="#000000" font-family="sans-serif" font-size="13" lengthAdjust="spacing" textLength="61" x="419.4947" y="367.0669">&#171;include&#187;</text></g><!--SRC=[ZP7TIiGm48NlynJ3NkrUj0yWfR3iAYe8WZ_tePskWsb69gaeuhkR_jAco6wlslETaycS6gmyU0QXqvk7aWGBJsoLqeLdWSqzLWWbmgFmTq2y0UsW5KTXCExBcYmvBxeCNy7J2GDySOqMubOUNWTmHAT5s9WnTSHFfTexQ7io24_XHAprCnNlw7yKX2Su8359FfqqYGbi3roZzLgWJ-mwE4uFgU0G_0y7UaCcR31ornlcswv7BsauO-_ePACPAzC3brHH4TcwpjOZPlAY-HdhThUkCUtojw4r5j9c5rcklpvOMiUThLXgZFa1HMPNwkYg4yZI5BQlEFdWAil85gOfCS_xJFmV84tpSvbL9PU4eh8lYIoNF9DGwlSF]--></g></svg>