<?xml version="1.0" encoding="us-ascii" standalone="no"?><svg xmlns="http://www.w3.org/2000/svg" xmlns:xlink="http://www.w3.org/1999/xlink" contentStyleType="text/css" height="660px" preserveAspectRatio="none" style="width:696px;height:660px;background:#FFFFFF;" version="1.1" viewBox="0 0 696 660" width="696px" zoomAndPan="magnify"><defs/><g><!--cluster SistemaTicket--><g id="cluster_SistemaTicket"><rect fill="none" height="647" rx="2.5" ry="2.5" style="stroke:#181818;stroke-width:1.0;" width="203" x="487" y="7"/><text fill="#000000" font-family="sans-serif" font-size="14" font-weight="bold" lengthAdjust="spacing" textLength="117" x="530" y="21.9951">SistemaTicket</text></g><g id="elem_Ver Ticket"><ellipse cx="588.7248" cy="57.145" fill="#F1F1F1" rx="63.7248" ry="15.145" style="stroke:#181818;stroke-width:0.5;"/><text fill="#000000" font-family="sans-serif" font-size="14" lengthAdjust="spacing" textLength="75" x="548.2248" y="60.8925">Ver Ticket</text></g><g id="elem_Comentar Ticket"><ellipse cx="588.4455" cy="262.1891" fill="#F1F1F1" rx="81.4455" ry="18.6891" style="stroke:#181818;stroke-width:0.5;"/><text fill="#000000" font-family="sans-serif" font-size="14" lengthAdjust="spacing" textLength="122" x="526.3109" y="265.409">Comentar Ticket</text></g><g id="elem_Crear Ticket"><ellipse cx="588.6011" cy="123.1202" fill="#F1F1F1" rx="68.6011" ry="16.1202" style="stroke:#181818;stroke-width:0.5;"/><text fill="#000000" font-family="sans-serif" font-size="14" lengthAdjust="spacing" textLength="89" x="541.1011" y="126.8678">Crear Ticket</text></g><g id="elem_Filtrar Tickets"><ellipse cx="588.6868" cy="190.9374" fill="#F1F1F1" rx="72.6868" ry="16.9374" style="stroke:#181818;stroke-width:0.5;"/><text fill="#000000" font-family="sans-serif" font-size="14" lengthAdjust="spacing" textLength="100" x="535.6868" y="194.6849">Filtrar Tickets</text></g><g id="elem_Asignar Ticket"><ellipse cx="588.3343" cy="333.1669" fill="#F1F1F1" rx="73.8343" ry="17.1669" style="stroke:#181818;stroke-width:0.5;"/><text fill="#000000" font-family="sans-serif" font-size="14" lengthAdjust="spacing" textLength="103" x="533.8343" y="336.9144">Asignar Ticket</text></g><g id="elem_Modificar Ticket"><ellipse cx="588.4652" cy="403.193" fill="#F1F1F1" rx="78.9652" ry="18.193" style="stroke:#181818;stroke-width:0.5;"/><text fill="#000000" font-family="sans-serif" font-size="14" lengthAdjust="spacing" textLength="116" x="528.4" y="406.6886">Modificar Ticket</text></g><g id="elem_Consultar Historial"><ellipse cx="588.2932" cy="475.9586" fill="#F1F1F1" rx="85.2932" ry="19.4586" style="stroke:#181818;stroke-width:0.5;"/><text fill="#000000" font-family="sans-serif" font-size="14" lengthAdjust="spacing" textLength="131" x="522.7932" y="478.8053">Consultar Historial</text></g><g id="elem_Exportar Informe"><ellipse cx="588.288" cy="549.8576" fill="#F1F1F1" rx="82.288" ry="18.8576" style="stroke:#181818;stroke-width:0.5;"/><text fill="#000000" font-family="sans-serif" font-size="14" lengthAdjust="spacing" textLength="124" x="525.4505" y="552.9838">Exportar Informe</text></g><g id="elem_Cerrar Ticket"><ellipse cx="588.3049" cy="621.061" fill="#F1F1F1" rx="70.8049" ry="16.561" style="stroke:#181818;stroke-width:0.5;"/><text fill="#000000" font-family="sans-serif" font-size="14" lengthAdjust="spacing" textLength="95" x="537.8049" y="624.8085">Cerrar Ticket</text></g><!--entity Usuario--><g id="elem_Usuario"><ellipse cx="395" cy="101.5" fill="#F1F1F1" rx="8" ry="8" style="stroke:#181818;stroke-width:0.5;"/><path d="M395,109.5 L395,136.5 M382,117.5 L408,117.5 M395,136.5 L382,151.5 M395,136.5 L408,151.5 " fill="none" style="stroke:#181818;stroke-width:0.5;"/><text fill="#000000" font-family="sans-serif" font-size="14" lengthAdjust="spacing" textLength="51" x="369.5" y="165.9951">Usuario</text></g><!--entity JefeProyecto--><g id="elem_JefeProyecto"><ellipse cx="227.5" cy="329.5" fill="#F1F1F1" rx="8" ry="8" style="stroke:#181818;stroke-width:0.5;"/><path d="M227.5,337.5 L227.5,364.5 M214.5,345.5 L240.5,345.5 M227.5,364.5 L214.5,379.5 M227.5,364.5 L240.5,379.5 " fill="none" style="stroke:#181818;stroke-width:0.5;"/><text fill="#000000" font-family="sans-serif" font-size="14" lengthAdjust="spacing" textLength="119" x="168" y="393.9951">Jefe de Proyecto</text></g><!--entity Admin--><g id="elem_Admin"><ellipse cx="57" cy="483.5" fill="#F1F1F1" rx="8" ry="8" style="stroke:#181818;stroke-width:0.5;"/><path d="M57,491.5 L57,518.5 M44,499.5 L70,499.5 M57,518.5 L44,533.5 M57,518.5 L70,533.5 " fill="none" style="stroke:#181818;stroke-width:0.5;"/><text fill="#000000" font-family="sans-serif" font-size="14" lengthAdjust="spacing" textLength="102" x="6" y="547.9951">Administrador</text></g><!--entity Dev--><g id="elem_Dev"><ellipse cx="395" cy="212.5" fill="#F1F1F1" rx="8" ry="8" style="stroke:#181818;stroke-width:0.5;"/><path d="M395,220.5 L395,247.5 M382,228.5 L408,228.5 M395,247.5 L382,262.5 M395,247.5 L408,262.5 " fill="none" style="stroke:#181818;stroke-width:0.5;"/><text fill="#000000" font-family="sans-serif" font-size="14" lengthAdjust="spacing" textLength="96" x="347" y="276.9951">Desarrollador</text></g><!--link Usuario to Ver Ticket--><g id="link_Usuario_Ver Ticket"><path d="M420.517,117.109 C436.761,108.279 458.734,97.039 479,89 C499.994,80.673 524.021,73.369 544.12,67.851 " fill="none" id="Usuario-Ver Ticket" style="stroke:#181818;stroke-width:1.0;"/></g><!--link Dev to Comentar Ticket--><g id="link_Dev_Comentar Ticket"><path d="M443.337,246.944 C464.714,249.176 490.459,251.865 514.242,254.349 " fill="none" id="Dev-Comentar Ticket" style="stroke:#181818;stroke-width:1.0;"/></g><!--link Usuario to Crear Ticket--><g id="link_Usuario_Crear Ticket"><path d="M420.643,129.971 C445.898,128.916 486.271,127.229 520.978,125.779 " fill="none" id="Usuario-Crear Ticket" style="stroke:#181818;stroke-width:1.0;"/></g><!--link Usuario to Filtrar Tickets--><g id="link_Usuario_Filtrar Tickets"><path d="M420.643,138.721 C451.858,148.501 506.17,165.518 544.331,177.474 " fill="none" id="Usuario-Filtrar Tickets" style="stroke:#181818;stroke-width:1.0;"/></g><!--link JefeProyecto to Asignar Ticket--><g id="link_JefeProyecto_Asignar Ticket"><path d="M287.38,354.736 C350.537,350.162 450.774,342.902 517.817,338.047 " fill="none" id="JefeProyecto-Asignar Ticket" style="stroke:#181818;stroke-width:1.0;"/></g><!--link JefeProyecto to Modificar Ticket--><g id="link_JefeProyecto_Modificar Ticket"><path d="M287.38,366.216 C350.736,373.982 451.406,386.32 518.449,394.537 " fill="none" id="JefeProyecto-Modificar Ticket" style="stroke:#181818;stroke-width:1.0;"/></g><!--link Admin to Consultar Historial--><g id="link_Admin_Consultar Historial"><path d="M108.291,509.486 C200.063,503.073 395.422,489.422 506.276,481.676 " fill="none" id="Admin-Consultar Historial" style="stroke:#181818;stroke-width:1.0;"/></g><!--link Admin to Exportar Informe--><g id="link_Admin_Exportar Informe"><path d="M108.291,516.514 C200.838,522.981 398.726,536.809 509.064,544.519 " fill="none" id="Admin-Exportar Informe" style="stroke:#181818;stroke-width:1.0;"/></g><!--link Admin to Cerrar Ticket--><g id="link_Admin_Cerrar Ticket"><path d="M108.091,523.542 C126.876,527.477 148.413,531.968 168,536 C299.557,563.082 454.467,594.2946 534.171,610.3045 " fill="none" id="Admin-Cerrar Ticket" style="stroke:#181818;stroke-width:1.0;"/></g><!--reverse link Usuario to Dev--><g id="link_Usuario_Dev"><path d="M395,187.129 C395,198.701 395,192.272 395,203.844 " fill="none" id="Usuario-backto-Dev" style="stroke:#181818;stroke-width:1.0;"/><polygon fill="none" points="395,169.129,389,187.129,401,187.129,395,169.129" style="stroke:#181818;stroke-width:1.0;"/></g><!--link JefeProyecto to Usuario--><g id="link_JefeProyecto_Usuario"><path d="M253.381,320.69 C276.692,285.34 312.951,231.719 347,187 C353.997,177.81 350.3579,181.8417 357.7139,173.1137 " fill="none" id="JefeProyecto-to-Usuario" style="stroke:#181818;stroke-width:1.0;"/><polygon fill="none" points="369.314,159.35,353.126,169.247,362.3018,176.9803,369.314,159.35" style="stroke:#181818;stroke-width:1.0;"/></g><!--link Admin to JefeProyecto--><g id="link_Admin_JefeProyecto"><path d="M99.6517,474.933 C125.575,451.24 145.5134,433.0175 171.4564,409.3065 " fill="none" id="Admin-to-JefeProyecto" style="stroke:#181818;stroke-width:1.0;"/><polygon fill="none" points="184.743,397.163,167.4085,404.8776,175.5042,413.7354,184.743,397.163" style="stroke:#181818;stroke-width:1.0;"/></g><!--SRC=[TP51ImCn48Nl-HL3J_QmVq4ehQA2KAZsFcncry5iHYQfADN_Rh9koiR5M_A-zy9xn54N8GeezoyHB2kraSKRWsqKXUTmGcK13EKuWTK3TGIMOA_ocJAoofui5c4oRkp0daDKjEcMFACmmHq5L1Nd2jpHkp6v0_hU4HnIa0PyulQL8fmDN0er3LmTIU4NhHD9qL7Toa0-uXpDGrkbVzajkzIpqB0sypsZOnEuzrL-ONaKonstbMdSFBNpuUHolRkqJPJHrOQRZpVHpEzz9phGdpYfucArQxwkB_-pg5InybGIgy_w_W40]--></g></svg>