<?xml version="1.0" encoding="us-ascii" standalone="no"?><svg xmlns="http://www.w3.org/2000/svg" xmlns:xlink="http://www.w3.org/1999/xlink" contentStyleType="text/css" height="586px" preserveAspectRatio="none" style="width:718px;height:586px;background:#FFFFFF;" version="1.1" viewBox="0 0 718 586" width="718px" zoomAndPan="magnify"><defs/><g><!--cluster SistemaTicket--><g id="cluster_SistemaTicket"><rect fill="none" height="573" rx="2.5" ry="2.5" style="stroke:#181818;stroke-width:1.0;" width="511" x="201.4947" y="7"/><text fill="#000000" font-family="sans-serif" font-size="14" font-weight="bold" lengthAdjust="spacing" textLength="117" x="398.4947" y="21.9951">SistemaTicket</text></g><g id="elem_Buscar Ticket"><ellipse cx="303.0476" cy="335.2106" fill="#F1F1F1" rx="71.5529" ry="16.7106" style="stroke:#181818;stroke-width:0.5;"/><text fill="#000000" font-family="sans-serif" font-size="14" lengthAdjust="spacing" textLength="97" x="251.5476" y="338.9581">Buscar Ticket</text></g><g id="elem_Comentar Ticket"><ellipse cx="302.9401" cy="193.1891" fill="#F1F1F1" rx="81.4455" ry="18.6891" style="stroke:#181818;stroke-width:0.5;"/><text fill="#000000" font-family="sans-serif" font-size="14" lengthAdjust="spacing" textLength="122" x="240.8055" y="196.409">Comentar Ticket</text></g><g id="elem_Solventar Ticket"><ellipse cx="303.1909" cy="264.9393" fill="#F1F1F1" rx="80.1963" ry="18.4393" style="stroke:#181818;stroke-width:0.5;"/><text fill="#000000" font-family="sans-serif" font-size="14" lengthAdjust="spacing" textLength="119" x="242.0986" y="268.2979">Solventar Ticket</text></g><g id="elem_Crear Ticket"><ellipse cx="303.0958" cy="58.1202" fill="#F1F1F1" rx="68.6011" ry="16.1202" style="stroke:#181818;stroke-width:0.5;"/><text fill="#000000" font-family="sans-serif" font-size="14" lengthAdjust="spacing" textLength="89" x="255.5958" y="61.8678">Crear Ticket</text></g><g id="elem_Ver Ticket"><ellipse cx="303.2195" cy="124.145" fill="#F1F1F1" rx="63.7248" ry="15.145" style="stroke:#181818;stroke-width:0.5;"/><text fill="#000000" font-family="sans-serif" font-size="14" lengthAdjust="spacing" textLength="75" x="262.7195" y="127.8925">Ver Ticket</text></g><g id="elem_Asignar Ticket"><ellipse cx="302.829" cy="404.1669" fill="#F1F1F1" rx="73.8343" ry="17.1669" style="stroke:#181818;stroke-width:0.5;"/><text fill="#000000" font-family="sans-serif" font-size="14" lengthAdjust="spacing" textLength="103" x="248.329" y="407.9144">Asignar Ticket</text></g><g id="elem_Filtrar Fecha"><ellipse cx="607.5958" cy="471.1202" fill="#F1F1F1" rx="68.6011" ry="16.1202" style="stroke:#181818;stroke-width:0.5;"/><text fill="#000000" font-family="sans-serif" font-size="14" lengthAdjust="spacing" textLength="89" x="560.0958" y="474.8678">Filtrar Fecha</text></g><g id="elem_Filtrar Prioridad"><ellipse cx="607.451" cy="401.7913" fill="#F1F1F1" rx="76.9563" ry="17.7913" style="stroke:#181818;stroke-width:0.5;"/><text fill="#000000" font-family="sans-serif" font-size="14" lengthAdjust="spacing" textLength="111" x="549.0622" y="405.5101">Filtrar Prioridad</text></g><g id="elem_Filtrar Responsable"><ellipse cx="607.2861" cy="329.1583" fill="#F1F1F1" rx="88.7915" ry="20.1583" style="stroke:#181818;stroke-width:0.5;"/><text fill="#000000" font-family="sans-serif" font-size="14" lengthAdjust="spacing" textLength="139" x="537.7861" y="332.005">Filtrar Responsable</text></g><g id="elem_Filtrar Estado"><ellipse cx="607.6728" cy="257.1356" fill="#F1F1F1" rx="71.1781" ry="16.6356" style="stroke:#181818;stroke-width:0.5;"/><text fill="#000000" font-family="sans-serif" font-size="14" lengthAdjust="spacing" textLength="96" x="556.6728" y="260.8832">Filtrar Estado</text></g><g id="elem_Filtrar Proyecto"><ellipse cx="607.3483" cy="186.8707" fill="#F1F1F1" rx="77.3536" ry="17.8707" style="stroke:#181818;stroke-width:0.5;"/><text fill="#000000" font-family="sans-serif" font-size="14" lengthAdjust="spacing" textLength="112" x="548.6279" y="190.5454">Filtrar Proyecto</text></g><g id="elem_Consultar Historial"><ellipse cx="302.7879" cy="543.9586" fill="#F1F1F1" rx="85.2932" ry="19.4586" style="stroke:#181818;stroke-width:0.5;"/><text fill="#000000" font-family="sans-serif" font-size="14" lengthAdjust="spacing" textLength="131" x="237.2879" y="546.8053">Consultar Historial</text></g><g id="elem_Exportar Informe"><ellipse cx="607.2826" cy="540.8576" fill="#F1F1F1" rx="82.288" ry="18.8576" style="stroke:#181818;stroke-width:0.5;"/><text fill="#000000" font-family="sans-serif" font-size="14" lengthAdjust="spacing" textLength="124" x="544.4452" y="543.9838">Exportar Informe</text></g><g id="elem_Cerrar Ticket"><ellipse cx="302.7996" cy="473.061" fill="#F1F1F1" rx="70.8049" ry="16.561" style="stroke:#181818;stroke-width:0.5;"/><text fill="#000000" font-family="sans-serif" font-size="14" lengthAdjust="spacing" textLength="95" x="252.2996" y="476.8085">Cerrar Ticket</text></g><!--entity JefeProyecto--><g id="elem_JefeProyecto"><ellipse cx="94.9947" cy="332.5" fill="#F1F1F1" rx="8" ry="8" style="stroke:#181818;stroke-width:0.5;"/><path d="M94.9947,340.5 L94.9947,367.5 M81.9947,348.5 L107.9947,348.5 M94.9947,367.5 L81.9947,382.5 M94.9947,367.5 L107.9947,382.5 " fill="none" style="stroke:#181818;stroke-width:0.5;"/><text fill="#000000" font-family="sans-serif" font-size="14" lengthAdjust="spacing" textLength="119" x="35.4947" y="396.9951">Jefe de Proyecto</text></g><!--entity Admin--><g id="elem_Admin"><ellipse cx="94.9947" cy="443.5" fill="#F1F1F1" rx="8" ry="8" style="stroke:#181818;stroke-width:0.5;"/><path d="M94.9947,451.5 L94.9947,478.5 M81.9947,459.5 L107.9947,459.5 M94.9947,478.5 L81.9947,493.5 M94.9947,478.5 L107.9947,493.5 " fill="none" style="stroke:#181818;stroke-width:0.5;"/><text fill="#000000" font-family="sans-serif" font-size="14" lengthAdjust="spacing" textLength="102" x="43.9947" y="507.9951">Administrador</text></g><!--entity Usuario--><g id="elem_Usuario"><ellipse cx="94.9947" cy="110.5" fill="#F1F1F1" rx="8" ry="8" style="stroke:#181818;stroke-width:0.5;"/><path d="M94.9947,118.5 L94.9947,145.5 M81.9947,126.5 L107.9947,126.5 M94.9947,145.5 L81.9947,160.5 M94.9947,145.5 L107.9947,160.5 " fill="none" style="stroke:#181818;stroke-width:0.5;"/><text fill="#000000" font-family="sans-serif" font-size="14" lengthAdjust="spacing" textLength="51" x="69.4947" y="174.9951">Usuario</text></g><!--entity Dev--><g id="elem_Dev"><ellipse cx="94.9947" cy="221.5" fill="#F1F1F1" rx="8" ry="8" style="stroke:#181818;stroke-width:0.5;"/><path d="M94.9947,229.5 L94.9947,256.5 M81.9947,237.5 L107.9947,237.5 M94.9947,256.5 L81.9947,271.5 M94.9947,256.5 L107.9947,271.5 " fill="none" style="stroke:#181818;stroke-width:0.5;"/><text fill="#000000" font-family="sans-serif" font-size="14" lengthAdjust="spacing" textLength="96" x="46.9947" y="285.9951">Desarrollador</text></g><!--reverse link Usuario to Dev--><g id="link_Usuario_Dev"><path d="M94.9947,184.129 C94.9947,195.701 94.9947,201.272 94.9947,212.844 " fill="none" id="Usuario-backto-Dev" style="stroke:#181818;stroke-width:1.0;"/><polygon fill="#181818" points="94.9947,178.129,90.9947,187.129,94.9947,183.129,98.9947,187.129,94.9947,178.129" style="stroke:#181818;stroke-width:1.0;"/></g><!--link Dev to Buscar Ticket--><g id="link_Dev_Buscar Ticket"><path d="M143.3357,277.326 C159.0327,285.498 176.7717,294.15 193.4947,301 C213.5887,309.231 236.4467,316.665 255.9837,322.469 " fill="none" id="Dev-Buscar Ticket" style="stroke:#181818;stroke-width:1.0;"/></g><!--link Dev to Comentar Ticket--><g id="link_Dev_Comentar Ticket"><path d="M142.9967,237.766 C175.2967,228.672 218.1507,216.606 251.2307,207.293 " fill="none" id="Dev-Comentar Ticket" style="stroke:#181818;stroke-width:1.0;"/></g><!--link Dev to Solventar Ticket--><g id="link_Dev_Solventar Ticket"><path d="M142.9967,254.194 C167.5777,255.865 198.2717,257.951 226.1177,259.843 " fill="none" id="Dev-Solventar Ticket" style="stroke:#181818;stroke-width:1.0;"/></g><!--link Crear Ticket to Usuario--><g id="link_Crear Ticket_Usuario"><path d="M256.7957,69.88 C237.0877,75.536 213.8777,82.847 193.4947,91 C167.9897,101.201 140.0977,115.566 120.7047,126.106 " fill="none" id="Crear Ticket-Usuario" style="stroke:#181818;stroke-width:1.0;"/></g><!--link Usuario to Ver Ticket--><g id="link_Usuario_Ver Ticket"><path d="M120.8427,138.07 C150.6997,135.751 201.8077,131.781 242.1417,128.649 " fill="none" id="Usuario-Ver Ticket" style="stroke:#181818;stroke-width:1.0;"/></g><!--reverse link Usuario to JefeProyecto--><g id="link_Usuario_JefeProyecto"><path d="M64.2459,159.5244 C46.4603,172.2834 29.3861,188.464 20.4947,212.5 C8.6214,244.597 8.6214,257.403 20.4947,289.5 C25.2535,302.364 33.7528,313.98 43.3522,323.955 " fill="none" id="Usuario-backto-JefeProyecto" style="stroke:#181818;stroke-width:1.0;"/><polygon fill="#181818" points="69.1212,156.027,59.4767,158.0229,65.0584,158.9415,64.1399,164.5233,69.1212,156.027" style="stroke:#181818;stroke-width:1.0;"/></g><!--link JefeProyecto to Asignar Ticket--><g id="link_JefeProyecto_Asignar Ticket"><path d="M154.7507,373.979 C183.7677,379.895 218.5687,386.991 247.0507,392.798 " fill="none" id="JefeProyecto-Asignar Ticket" style="stroke:#181818;stroke-width:1.0;"/></g><!--link JefeProyecto to Buscar Ticket--><g id="link_JefeProyecto_Buscar Ticket"><path d="M154.7507,354.299 C181.5077,350.792 213.1837,346.64 240.2877,343.088 " fill="none" id="JefeProyecto-Buscar Ticket" style="stroke:#181818;stroke-width:1.0;"/></g><!--link Buscar Ticket to Filtrar Fecha--><g id="link_Buscar Ticket_Filtrar Fecha"><path d="M345.0957,348.448 C359.4197,354.045 375.2177,361.29 388.4947,370 C404.0007,380.172 402.8837,388.99 418.4947,399 C458.6537,424.749 473.9377,420.958 518.4947,438 C535.4107,444.47 554.2017,451.534 570.0617,457.459 " fill="none" id="Buscar Ticket-Filtrar Fecha" style="stroke:#181818;stroke-width:1.0;stroke-dasharray:7.0,7.0;"/><text fill="#000000" font-family="sans-serif" font-size="13" lengthAdjust="spacing" textLength="68" x="419.4947" y="395.0669">&#171;extends&#187;</text></g><!--link Buscar Ticket to Filtrar Prioridad--><g id="link_Buscar Ticket_Filtrar Prioridad"><path d="M355.3097,346.366 C409.6717,358.406 495.2087,377.351 551.0787,389.726 " fill="none" id="Buscar Ticket-Filtrar Prioridad" style="stroke:#181818;stroke-width:1.0;stroke-dasharray:7.0,7.0;"/><text fill="#000000" font-family="sans-serif" font-size="13" lengthAdjust="spacing" textLength="68" x="419.4947" y="356.0669">&#171;extends&#187;</text></g><!--link Buscar Ticket to Filtrar Responsable--><g id="link_Buscar Ticket_Filtrar Responsable"><path d="M374.5357,333.601 C417.5707,332.747 472.9327,331.649 518.7777,330.74 " fill="none" id="Buscar Ticket-Filtrar Responsable" style="stroke:#181818;stroke-width:1.0;stroke-dasharray:7.0,7.0;"/><text fill="#000000" font-family="sans-serif" font-size="13" lengthAdjust="spacing" textLength="68" x="419.4947" y="327.0669">&#171;extends&#187;</text></g><!--link Buscar Ticket to Filtrar Estado--><g id="link_Buscar Ticket_Filtrar Estado"><path d="M351.2607,322.812 C407.9237,308.202 502.3257,283.86 559.0627,269.23 " fill="none" id="Buscar Ticket-Filtrar Estado" style="stroke:#181818;stroke-width:1.0;stroke-dasharray:7.0,7.0;"/><text fill="#000000" font-family="sans-serif" font-size="13" lengthAdjust="spacing" textLength="68" x="419.4947" y="285.0669">&#171;extends&#187;</text></g><!--link Buscar Ticket to Filtrar Proyecto--><g id="link_Buscar Ticket_Filtrar Proyecto"><path d="M348.3167,321.993 C361.9677,316.759 376.5367,309.829 388.4947,301 C405.5257,288.425 401.5047,276.631 418.4947,264 C457.0437,235.341 474.0427,241.205 518.4947,223 C534.8397,216.306 552.8947,208.919 568.3747,202.587 " fill="none" id="Buscar Ticket-Filtrar Proyecto" style="stroke:#181818;stroke-width:1.0;stroke-dasharray:7.0,7.0;"/><text fill="#000000" font-family="sans-serif" font-size="13" lengthAdjust="spacing" textLength="68" x="419.4947" y="229.0669">&#171;extends&#187;</text></g><!--reverse link Usuario to Admin--><g id="link_Usuario_Admin"><path d="M64.2459,159.5244 C46.4603,172.2834 29.3861,188.464 20.4947,212.5 C6,251.683 6,361.317 20.4947,400.5 C25.3161,413.533 33.9771,425.286 43.7317,435.348 " fill="none" id="Usuario-backto-Admin" style="stroke:#181818;stroke-width:1.0;"/><polygon fill="#181818" points="69.1212,156.027,59.4767,158.0229,65.0584,158.9415,64.1399,164.5233,69.1212,156.027" style="stroke:#181818;stroke-width:1.0;"/></g><!--reverse link JefeProyecto to Admin--><g id="link_JefeProyecto_Admin"><path d="M94.9947,406.129 C94.9947,417.701 94.9947,423.272 94.9947,434.844 " fill="none" id="JefeProyecto-backto-Admin" style="stroke:#181818;stroke-width:1.0;"/><polygon fill="#181818" points="94.9947,400.129,90.9947,409.129,94.9947,405.129,98.9947,409.129,94.9947,400.129" style="stroke:#181818;stroke-width:1.0;"/></g><!--link Admin to Consultar Historial--><g id="link_Admin_Consultar Historial"><path d="M146.0737,490.538 C161.2947,495.848 178.0727,501.6815 193.4947,507 C213.4377,513.8777 235.4677,521.4034 254.4377,527.8613 " fill="none" id="Admin-Consultar Historial" style="stroke:#181818;stroke-width:1.0;"/></g><!--link Consultar Historial to Exportar Informe--><g id="link_Consultar Historial_Exportar Informe"><path d="M388.6597,543.1603 C431.3077,542.7374 482.7797,542.2269 524.9797,541.8084 " fill="none" id="Consultar Historial-Exportar Informe" style="stroke:#181818;stroke-width:1.0;stroke-dasharray:7.0,7.0;"/><text fill="#000000" font-family="sans-serif" font-size="13" lengthAdjust="spacing" textLength="68" x="419.4947" y="538.0669">&#171;extends&#187;</text></g><!--link Admin to Cerrar Ticket--><g id="link_Admin_Cerrar Ticket"><path d="M146.1247,473 C171.8487,473 203.6097,473 231.7357,473 " fill="none" id="Admin-Cerrar Ticket" style="stroke:#181818;stroke-width:1.0;"/></g><!--SRC=[bPB1Re9048RlFCN4anxm0Hf3OgkcxSdKjlSfE-AcowwPNOnDqtVlW6YWe0sSuF_cd_sP7KFR0C41wsmNG6ccD6XdemZJu1X6pxGbK0HhTb-2t0ZGGocUXRfmhd9jjG-CIhwafX9g-EOBPErAkNwjmO8yCZjZpgu57QAep80sCmGRwKWvlkhqay9t1F981SGcJYwTBc8Cu_l2fyXmgf-qq8FBoOOhSEFCeKlFiUKuyJDTmqBVgSsQ4-h6RLEnpxtEBDvgqVzpVpIOJc6yqaPkWM55wGudS0Up6Hq3MUMJv5_JMYAoLgY66b_8xvtr-65eg7NfWrp_yAIdqVJvgjthZhqXjpQumQf5iRumvIuyolR9DD3Km-uZLQRbSU-ur9_ird5EDpAL1n1punv_VW40]--></g></svg>