<?xml version="1.0" encoding="us-ascii" standalone="no"?><svg xmlns="http://www.w3.org/2000/svg" xmlns:xlink="http://www.w3.org/1999/xlink" contentStyleType="text/css" height="700px" preserveAspectRatio="none" style="width:376px;height:700px;background:#FFFFFF;" version="1.1" viewBox="0 0 376 700" width="376px" zoomAndPan="magnify"><defs><filter height="300%" id="f5uq2c8qascez" width="300%" x="-1" y="-1"><feGaussianBlur result="blurOut" stdDeviation="2.0"/><feColorMatrix in="blurOut" result="blurOut2" type="matrix" values="0 0 0 0 0 0 0 0 0 0 0 0 0 0 0 0 0 0 .4 0"/><feOffset dx="4.0" dy="4.0" in="blurOut2" result="blurOut3"/><feBlend in="SourceGraphic" in2="blurOut3" mode="normal"/></filter></defs><g><text fill="#000000" font-family="sans-serif" font-size="14" font-weight="bold" lengthAdjust="spacing" textLength="192" x="85.25" y="22.9951">Caso de Uso: Ver Ticket</text><g id="DASHBOARD_ABIERTO"><rect fill="#FEFECE" filter="url(#f5uq2c8qascez)" height="50" rx="12.5" ry="12.5" style="stroke:#A80036;stroke-width:1.0;" width="182" x="94" y="44.2969"/><line style="stroke:#A80036;stroke-width:1.0;" x1="94" x2="276" y1="70.5938" y2="70.5938"/><text fill="#000000" font-family="sans-serif" font-size="14" lengthAdjust="spacing" textLength="162" x="104" y="62.292">DASHBOARD_ABIERTO</text></g><g id="FILTRAR_TICKETS2"><rect fill="#FEFECE" filter="url(#f5uq2c8qascez)" height="50" rx="12.5" ry="12.5" style="stroke:#A80036;stroke-width:1.0;" width="146" x="112" y="636.2969"/><line style="stroke:#A80036;stroke-width:1.0;" x1="112" x2="258" y1="662.5938" y2="662.5938"/><text fill="#000000" font-family="sans-serif" font-size="14" lengthAdjust="spacing" textLength="126" x="122" y="654.292">FILTRAR_TICKETS</text></g><g id="FILTRAR_TICKETS"><rect fill="#FEFECE" filter="url(#f5uq2c8qascez)" height="50" rx="12.5" ry="12.5" style="stroke:#A80036;stroke-width:1.0;" width="146" x="112" y="154.2969"/><line style="stroke:#A80036;stroke-width:1.0;" x1="112" x2="258" y1="180.5938" y2="180.5938"/><text fill="#000000" font-family="sans-serif" font-size="14" lengthAdjust="spacing" textLength="126" x="122" y="172.292">FILTRAR_TICKETS</text></g><rect fill="none" filter="url(#f5uq2c8qascez)" height="312.2969" rx="12.5" ry="12.5" style="stroke:#A80036;stroke-width:1.0;" width="355.5" x="7" y="264.2969"/><path d="M19.5,264.2969 L350,264.2969 A12.5,12.5 0 0 1 362.5,276.7969 L362.5,290.5938 L7,290.5938 L7,276.7969 A12.5,12.5 0 0 1 19.5,264.2969 " fill="#FEFECE" style="stroke:#FEFECE;stroke-width:1.0;"/><path d="M7,290.5938 L362.5,290.5938 L362.5,564.0938 A12.5,12.5 0 0 1 350,576.5938 L19.5,576.5938 A12.5,12.5 0 0 1 7,564.0938 L7,290.5938 " fill="#FEFECE" style="stroke:#FEFECE;stroke-width:1.0;"/><rect fill="none" height="312.2969" rx="12.5" ry="12.5" style="stroke:#A80036;stroke-width:1.0;" width="355.5" x="7" y="264.2969"/><line style="stroke:#A80036;stroke-width:1.0;" x1="7" x2="362.5" y1="290.5938" y2="290.5938"/><text fill="#000000" font-family="sans-serif" font-size="14" lengthAdjust="spacing" textLength="87" x="141.25" y="282.292">VER_TICKET</text><ellipse cx="70.5" cy="311.5938" fill="#000000" filter="url(#f5uq2c8qascez)" rx="10" ry="10" style="stroke:#000000;stroke-width:1.0;"/><g id="VER_TICKET.seleccionarOpcionVer"><rect fill="#FEFECE" filter="url(#f5uq2c8qascez)" height="50" rx="12.5" ry="12.5" style="stroke:#A80036;stroke-width:1.0;" width="103" x="19" y="396.5938"/><line style="stroke:#A80036;stroke-width:1.0;" x1="19" x2="122" y1="422.8906" y2="422.8906"/><text fill="#000000" font-family="sans-serif" font-size="14" lengthAdjust="spacing" textLength="83" x="29" y="414.5889">Seleccionar</text></g><ellipse cx="70.5" cy="547.5938" fill="none" filter="url(#f5uq2c8qascez)" rx="11" ry="11" style="stroke:#000000;stroke-width:1.0;"/><ellipse cx="70.5" cy="547.5938" fill="#000000" rx="6" ry="6" style="stroke:#000000;stroke-width:1.0;"/><!--link *start*VER_TICKET to seleccionarOpcionVer--><g id="link_*start*VER_TICKET_seleccionarOpcionVer"><path d="M70.5,321.8017 C70.5,338.1248 70.5,366.6348 70.5,390.2218 " fill="none" id="*start*VER_TICKET-to-seleccionarOpcionVer" style="stroke:#0000FF;stroke-width:1.0;"/><polygon fill="#0000FF" points="70.5,396.2218,74.5,387.2218,70.5,391.2218,66.5,387.2218,70.5,396.2218" style="stroke:#0000FF;stroke-width:1.0;"/><path d="M75.5,344.5938 L75.5,369.5938 L353.5,369.5938 L353.5,354.5938 L343.5,344.5938 L75.5,344.5938 " fill="#FBFB77" filter="url(#f5uq2c8qascez)" style="stroke:#A80036;stroke-width:1.0;"/><path d="M343.5,344.5938 L343.5,354.5938 L353.5,354.5938 L343.5,344.5938 " fill="#FBFB77" style="stroke:#A80036;stroke-width:1.0;"/><text fill="#000000" font-family="sans-serif" font-size="13" font-weight="bold" lengthAdjust="spacing" textLength="74" x="81.5" y="361.6606">El usuario</text><text fill="#000000" font-family="sans-serif" font-size="13" lengthAdjust="spacing" textLength="179" x="159.5" y="361.6606">solicita seleccionar un ticket</text></g><!--link seleccionarOpcionVer to *end*VER_TICKET--><g id="link_seleccionarOpcionVer_*end*VER_TICKET"><path d="M70.5,446.7968 C70.5,474.0023 70.5,510.9091 70.5,530.3797 " fill="none" id="seleccionarOpcionVer-to-*end*VER_TICKET" style="stroke:#0000FF;stroke-width:1.0;"/><polygon fill="#0000FF" points="70.5,536.3797,74.5,527.3797,70.5,531.3797,66.5,527.3797,70.5,536.3797" style="stroke:#0000FF;stroke-width:1.0;"/><path d="M75.5,469.5938 L75.5,509.5938 L252.5,509.5938 L252.5,479.5938 L242.5,469.5938 L75.5,469.5938 " fill="#FBFB77" filter="url(#f5uq2c8qascez)" style="stroke:#A80036;stroke-width:1.0;"/><path d="M242.5,469.5938 L242.5,479.5938 L252.5,479.5938 L242.5,469.5938 " fill="#FBFB77" style="stroke:#A80036;stroke-width:1.0;"/><text fill="#000000" font-family="sans-serif" font-size="13" font-weight="bold" lengthAdjust="spacing" textLength="147" x="81.5" y="486.6606">El sistema muestra</text><text fill="#000000" font-family="sans-serif" font-size="13" lengthAdjust="spacing" textLength="5" x="228.5" y="486.6606">:</text><text fill="#000000" font-family="sans-serif" font-size="13" lengthAdjust="spacing" textLength="147" x="81.5" y="501.7935">&#176; El ticket seleccionado</text></g><!--link DASHBOARD_ABIERTO to FILTRAR_TICKETS--><g id="link_DASHBOARD_ABIERTO_FILTRAR_TICKETS"><path d="M185,94.5339 C185,112.3209 185,130.3729 185,148.1409 " fill="none" id="DASHBOARD_ABIERTO-to-FILTRAR_TICKETS" style="stroke:#A80036;stroke-width:1.0;"/><polygon fill="#A80036" points="185,154.1409,189,145.1409,185,149.1409,181,145.1409,185,154.1409" style="stroke:#A80036;stroke-width:1.0;"/></g><!--link FILTRAR_TICKETS to VER_TICKET--><g id="link_FILTRAR_TICKETS_VER_TICKET"><path d="M185,204.5289 C185,219.8379 185,235.0659 185,258.2589 " fill="none" id="FILTRAR_TICKETS-to-VER_TICKET" style="stroke:#A80036;stroke-width:1.0;"/><polygon fill="#A80036" points="185,264.2589,189,255.2589,185,259.2589,181,255.2589,185,264.2589" style="stroke:#A80036;stroke-width:1.0;"/></g><!--link VER_TICKET to FILTRAR_TICKETS2--><g id="link_VER_TICKET_FILTRAR_TICKETS2"><path d="M185,576.3709 C185,599.6275 185,614.9065 185,630.219 " fill="none" id="VER_TICKET-to-FILTRAR_TICKETS2" style="stroke:#A80036;stroke-width:1.0;"/><polygon fill="#A80036" points="185,636.219,189,627.219,185,631.219,181,627.219,185,636.219" style="stroke:#A80036;stroke-width:1.0;"/></g><!--SRC=[TL11ReCm4BplAqRfpHAN7ZbK8WbLK2iX0SqbYY8Nzc3Xs1Ksfwf_wXlwiXf85KhJaxspCxkpurfbq5d7v9NNZ8rq5WtZnTaOU-vGgRfbJ-Iyz8njKkxMUL9iJyawIuigl-2hn-ovAfBYL6MRfxGgLv0E2-oUYFxe4KKFIo8jwf6pJtzgkdvlgOSrawaPxvqEueZeSFUgUpu6aMFDTQsiaLt-DhpXLWAC3Jfhe9Lf4KE8LADtlUoK5GBEQbKhB-Tgz0P-oWYuX55UssCG_oox1Syz1ij4lnm5qMZ9AUVvB77ksVbE2X4FhQzFXDvaPZQyiSIc6KyB9Fhu1W00]--></g></svg>