<?xml version="1.0" encoding="us-ascii" standalone="no"?><svg xmlns="http://www.w3.org/2000/svg" xmlns:xlink="http://www.w3.org/1999/xlink" contentStyleType="text/css" height="593px" preserveAspectRatio="none" style="width:617px;height:593px;background:#FFFFFF;" version="1.1" viewBox="0 0 617 593" width="617px" zoomAndPan="magnify"><defs><filter height="300%" id="fqus0ey4erd7c" width="300%" x="-1" y="-1"><feGaussianBlur result="blurOut" stdDeviation="2.0"/><feColorMatrix in="blurOut" result="blurOut2" type="matrix" values="0 0 0 0 0 0 0 0 0 0 0 0 0 0 0 0 0 0 .4 0"/><feOffset dx="4.0" dy="4.0" in="blurOut2" result="blurOut3"/><feBlend in="SourceGraphic" in2="blurOut3" mode="normal"/></filter></defs><g><text fill="#000000" font-family="sans-serif" font-size="14" font-weight="bold" lengthAdjust="spacing" textLength="192" x="204.75" y="22.9951">Caso de Uso: Ver Ticket</text><!--cluster VER_TICKET--><g id="cluster_VER_TICKET"><rect fill="none" filter="url(#fqus0ey4erd7c)" height="319" rx="12.5" ry="12.5" style="stroke:#A80036;stroke-width:1.0;" width="383" x="207.5" y="260.2969"/><path d="M220,260.2969 L578,260.2969 A12.5,12.5 0 0 1 590.5,272.7969 L590.5,281.5938 L207.5,281.5938 L207.5,272.7969 A12.5,12.5 0 0 1 220,260.2969 " fill="#FEFECE" style="stroke:#FEFECE;stroke-width:1.0;"/><path d="M207.5,281.5938 L590.5,281.5938 L590.5,566.7969 A12.5,12.5 0 0 1 578,579.2969 L220,579.2969 A12.5,12.5 0 0 1 207.5,566.7969 L207.5,281.5938 " fill="#FEFECE" style="stroke:#FEFECE;stroke-width:1.0;"/><rect fill="none" height="319" rx="12.5" ry="12.5" style="stroke:#A80036;stroke-width:1.0;" width="383" x="207.5" y="260.2969"/><line style="stroke:#A80036;stroke-width:1.0;" x1="207.5" x2="590.5" y1="281.5938" y2="281.5938"/><text fill="#000000" font-family="sans-serif" font-size="14" lengthAdjust="spacing" textLength="87" x="355.5" y="277.292">VER_TICKET</text></g><ellipse cx="274.5" cy="313.2969" fill="#000000" filter="url(#fqus0ey4erd7c)" rx="10" ry="10" style="stroke:#000000;stroke-width:1.0;"/><g id="VER_TICKET.seleccionarOpcionVer"><rect fill="#FEFECE" filter="url(#fqus0ey4erd7c)" height="50" rx="12.5" ry="12.5" style="stroke:#A80036;stroke-width:1.0;" width="243" x="240" y="422.2969"/><line style="stroke:#A80036;stroke-width:1.0;" x1="240" x2="483" y1="448.5938" y2="448.5938"/><text fill="#000000" font-family="sans-serif" font-size="14" lengthAdjust="spacing" textLength="223" x="250" y="440.292">Seleccionar opci&#243;n 'Ver Ticket'</text></g><ellipse cx="361.5" cy="544.2969" fill="none" filter="url(#fqus0ey4erd7c)" rx="11" ry="11" style="stroke:#000000;stroke-width:1.0;"/><ellipse cx="361.5" cy="544.2969" fill="#000000" rx="6" ry="6" style="stroke:#000000;stroke-width:1.0;"/><g id="DASHBOARD_ABIERTO"><rect fill="#FEFECE" filter="url(#fqus0ey4erd7c)" height="50" rx="12.5" ry="12.5" style="stroke:#A80036;stroke-width:1.0;" width="182" x="124.5" y="44.2969"/><line style="stroke:#A80036;stroke-width:1.0;" x1="124.5" x2="306.5" y1="70.5938" y2="70.5938"/><text fill="#000000" font-family="sans-serif" font-size="14" lengthAdjust="spacing" textLength="162" x="134.5" y="62.292">DASHBOARD_ABIERTO</text></g><g id="FILTRAR_TICKETS"><rect fill="#FEFECE" filter="url(#fqus0ey4erd7c)" height="50" rx="12.5" ry="12.5" style="stroke:#A80036;stroke-width:1.0;" width="146" x="142.5" y="155.2969"/><line style="stroke:#A80036;stroke-width:1.0;" x1="142.5" x2="288.5" y1="181.5938" y2="181.5938"/><text fill="#000000" font-family="sans-serif" font-size="14" lengthAdjust="spacing" textLength="126" x="152.5" y="173.292">FILTRAR_TICKETS</text></g><g id="elem_GMN12"><path d="M6,427.2969 L6,467.5625 A0,0 0 0 0 6,467.5625 L183,467.5625 A0,0 0 0 0 183,467.5625 L183,451.2969 L239.931,447.2969 L183,443.2969 L183,437.2969 L173,427.2969 L6,427.2969 A0,0 0 0 0 6,427.2969 " fill="#FBFB77" filter="url(#fqus0ey4erd7c)" style="stroke:#A80036;stroke-width:1.0;"/><path d="M173,427.2969 L173,437.2969 L183,437.2969 L173,427.2969 " fill="#FBFB77" style="stroke:#A80036;stroke-width:1.0;"/><text fill="#000000" font-family="sans-serif" font-size="13" font-weight="bold" lengthAdjust="spacing" textLength="147" x="12" y="444.3638">El sistema muestra</text><text fill="#000000" font-family="sans-serif" font-size="13" lengthAdjust="spacing" textLength="5" x="159" y="444.3638">:</text><text fill="#000000" font-family="sans-serif" font-size="13" lengthAdjust="spacing" textLength="147" x="12" y="459.4966">&#176; El ticket seleccionado</text></g><!--link DASHBOARD_ABIERTO to FILTRAR_TICKETS--><g id="link_DASHBOARD_ABIERTO_FILTRAR_TICKETS"><path d="M215.5,94.4879 C215.5,112.5509 215.5,131.1269 215.5,149.1739 " fill="none" id="DASHBOARD_ABIERTO-to-FILTRAR_TICKETS" style="stroke:#A80036;stroke-width:1.0;"/><polygon fill="#A80036" points="215.5,155.1739,219.5,146.1739,215.5,150.1739,211.5,146.1739,215.5,155.1739" style="stroke:#A80036;stroke-width:1.0;"/></g><!--link FILTRAR_TICKETS to VER_TICKET--><g id="link_FILTRAR_TICKETS_VER_TICKET"><path d="M215.5,205.3239 C215.5,214.6309 215.5,225.8356 215.5,237.4404 C215.5,243.2428 215.5,249.1452 215.5,254.9604 C215.5,256.4142 215.5,257.8626 215.5,259.3026 C215.5,259.4826 215.5,253.6624 215.5,253.8422 " fill="none" id="FILTRAR_TICKETS-to-VER_TICKET" style="stroke:#A80036;stroke-width:1.0;"/><polygon fill="#A80036" points="215.5,259.8422,219.5,250.8422,215.5,254.8422,211.5,250.8422,215.5,259.8422" style="stroke:#A80036;stroke-width:1.0;"/></g><!--link *start*VER_TICKET to seleccionarOpcionVer--><g id="link_*start*VER_TICKET_seleccionarOpcionVer"><path d="M279.682,322.1589 C292.412,341.4739 322.3332,386.8711 342.3102,417.1821 " fill="none" id="*start*VER_TICKET-to-seleccionarOpcionVer" style="stroke:#0000FF;stroke-width:1.0;"/><polygon fill="#0000FF" points="345.612,422.1919,343.9992,412.476,342.8605,418.017,337.3194,416.8784,345.612,422.1919" style="stroke:#0000FF;stroke-width:1.0;"/><path d="M330.5,358.2969 L330.5,383.2969 L608.5,383.2969 L608.5,368.2969 L598.5,358.2969 L330.5,358.2969 " fill="#FBFB77" filter="url(#fqus0ey4erd7c)" style="stroke:#A80036;stroke-width:1.0;"/><path d="M598.5,358.2969 L598.5,368.2969 L608.5,368.2969 L598.5,358.2969 " fill="#FBFB77" style="stroke:#A80036;stroke-width:1.0;"/><text fill="#000000" font-family="sans-serif" font-size="13" font-weight="bold" lengthAdjust="spacing" textLength="74" x="336.5" y="375.3638">El usuario</text><text fill="#000000" font-family="sans-serif" font-size="13" lengthAdjust="spacing" textLength="179" x="414.5" y="375.3638">solicita seleccionar un ticket</text></g><!--link seleccionarOpcionVer to *end*VER_TICKET--><g id="link_seleccionarOpcionVer_*end*VER_TICKET"><path d="M361.5,472.7619 C361.5,492.3329 361.5,512.789 361.5,527.0936 " fill="none" id="seleccionarOpcionVer-to-*end*VER_TICKET" style="stroke:#0000FF;stroke-width:1.0;"/><polygon fill="#0000FF" points="361.5,533.0936,365.5,524.0936,361.5,528.0936,357.5,524.0936,361.5,533.0936" style="stroke:#0000FF;stroke-width:1.0;"/></g><!--SRC=[TL1BQiCm4Dth58zq4H3u0buKdCIbfWM3xMOJGb3j2GWhKl78gv0x5Ng3zc9LxOQOfbaDypupRuPRRT4v9k6rDuIbOeU6yC8knfewLBfkoGl1Ndd2AYaV5tbIh7R98akBAl_57xBdgaYANPKjdzAg5E9AY2YwlvBzwGVDEZttvwKN14SXW8tS8jhSlPgUji70PAYkjREgozz-QeWTLDO5gxCmshQ88MLgq7ElEksa13kZQ-tLr8tUme_d0kFgMJcXNPZ-zM4nl_nbFeFYMmd-WwV1mntY9CGGrD3Um-rlZHhIisPF1uL3J-mx9MMCG7s-8t1ZxeczSO9iCtpX6m00]--></g></svg>