<?xml version="1.0" encoding="us-ascii" standalone="no"?><svg xmlns="http://www.w3.org/2000/svg" xmlns:xlink="http://www.w3.org/1999/xlink" contentStyleType="text/css" height="727px" preserveAspectRatio="none" style="width:449px;height:727px;background:#FFFFFF;" version="1.1" viewBox="0 0 449 727" width="449px" zoomAndPan="magnify"><defs/><g><text fill="#000000" font-family="sans-serif" font-size="14" font-weight="bold" lengthAdjust="spacing" textLength="288" x="73.5" y="22.9951">Modelo de Dominio - Time Guardian</text><!--class GestorDeHorarios--><g id="elem_GestorDeHorarios"><rect codeLine="3" fill="#F1F1F1" height="64.2969" id="GestorDeHorarios" rx="2.5" ry="2.5" style="stroke:#181818;stroke-width:0.5;" width="160" x="160.5" y="44.2969"/><ellipse cx="175.5" cy="60.2969" fill="#ADD1B2" rx="11" ry="11" style="stroke:#181818;stroke-width:1.0;"/><path d="M177.8438,55.9688 C176.9063,55.5313 176.3125,55.3906 175.4375,55.3906 C172.8125,55.3906 170.8125,57.4688 170.8125,60.1875 L170.8125,61.3125 C170.8125,63.8906 172.9219,65.7813 175.8125,65.7813 C177.0313,65.7813 178.1875,65.4844 178.9375,64.9375 C179.5156,64.5313 179.8438,64.0781 179.8438,63.6875 C179.8438,63.2344 179.4531,62.8438 178.9844,62.8438 C178.7656,62.8438 178.5625,62.9219 178.375,63.1094 C177.9219,63.5938 177.9219,63.5938 177.7344,63.6875 C177.3125,63.9531 176.625,64.0781 175.8594,64.0781 C173.8125,64.0781 172.5156,62.9844 172.5156,61.2813 L172.5156,60.1875 C172.5156,58.4063 173.7656,57.0938 175.5,57.0938 C176.0781,57.0938 176.6875,57.25 177.1563,57.5 C177.6406,57.7813 177.8125,58 177.9063,58.4063 C177.9688,58.8125 178,58.9375 178.1406,59.0625 C178.2813,59.2031 178.5156,59.3125 178.7344,59.3125 C179,59.3125 179.2656,59.1719 179.4375,58.9531 C179.5469,58.7969 179.5781,58.6094 179.5781,58.1875 L179.5781,56.7656 C179.5781,56.3281 179.5625,56.2031 179.4688,56.0469 C179.3125,55.7813 179.0313,55.6406 178.7344,55.6406 C178.4375,55.6406 178.2344,55.7344 178.0156,56.0469 L177.8438,55.9688 Z " fill="#000000"/><text fill="#000000" font-family="sans-serif" font-size="14" lengthAdjust="spacing" textLength="128" x="189.5" y="65.1436">GestorDeHorarios</text><line style="stroke:#181818;stroke-width:0.5;" x1="161.5" x2="319.5" y1="76.2969" y2="76.2969"/><rect fill="none" height="6" style="stroke:#C82930;stroke-width:1.0;" width="6" x="168.5" y="86.9453"/><text fill="#000000" font-family="sans-serif" font-size="14" lengthAdjust="spacing" textLength="58" x="180.5" y="93.292">horarios</text><line style="stroke:#181818;stroke-width:0.5;" x1="161.5" x2="319.5" y1="100.5938" y2="100.5938"/></g><!--class Docente--><g id="elem_Docente"><rect codeLine="7" fill="#F1F1F1" height="80.5938" id="Docente" rx="2.5" ry="2.5" style="stroke:#181818;stroke-width:0.5;" width="94" x="40.5" y="168.2969"/><ellipse cx="55.5" cy="184.2969" fill="#ADD1B2" rx="11" ry="11" style="stroke:#181818;stroke-width:1.0;"/><path d="M57.8438,179.9688 C56.9063,179.5313 56.3125,179.3906 55.4375,179.3906 C52.8125,179.3906 50.8125,181.4688 50.8125,184.1875 L50.8125,185.3125 C50.8125,187.8906 52.9219,189.7813 55.8125,189.7813 C57.0313,189.7813 58.1875,189.4844 58.9375,188.9375 C59.5156,188.5313 59.8438,188.0781 59.8438,187.6875 C59.8438,187.2344 59.4531,186.8438 58.9844,186.8438 C58.7656,186.8438 58.5625,186.9219 58.375,187.1094 C57.9219,187.5938 57.9219,187.5938 57.7344,187.6875 C57.3125,187.9531 56.625,188.0781 55.8594,188.0781 C53.8125,188.0781 52.5156,186.9844 52.5156,185.2813 L52.5156,184.1875 C52.5156,182.4063 53.7656,181.0938 55.5,181.0938 C56.0781,181.0938 56.6875,181.25 57.1563,181.5 C57.6406,181.7813 57.8125,182 57.9063,182.4063 C57.9688,182.8125 58,182.9375 58.1406,183.0625 C58.2813,183.2031 58.5156,183.3125 58.7344,183.3125 C59,183.3125 59.2656,183.1719 59.4375,182.9531 C59.5469,182.7969 59.5781,182.6094 59.5781,182.1875 L59.5781,180.7656 C59.5781,180.3281 59.5625,180.2031 59.4688,180.0469 C59.3125,179.7813 59.0313,179.6406 58.7344,179.6406 C58.4375,179.6406 58.2344,179.7344 58.0156,180.0469 L57.8438,179.9688 Z " fill="#000000"/><text fill="#000000" font-family="sans-serif" font-size="14" lengthAdjust="spacing" textLength="62" x="69.5" y="189.1436">Docente</text><line style="stroke:#181818;stroke-width:0.5;" x1="41.5" x2="133.5" y1="200.2969" y2="200.2969"/><rect fill="none" height="6" style="stroke:#C82930;stroke-width:1.0;" width="6" x="48.5" y="210.9453"/><text fill="#000000" font-family="sans-serif" font-size="14" lengthAdjust="spacing" textLength="57" x="60.5" y="217.292">nombre</text><rect fill="none" height="6" style="stroke:#C82930;stroke-width:1.0;" width="6" x="48.5" y="227.2422"/><text fill="#000000" font-family="sans-serif" font-size="14" lengthAdjust="spacing" textLength="57" x="60.5" y="233.5889">apellido</text><line style="stroke:#181818;stroke-width:0.5;" x1="41.5" x2="133.5" y1="240.8906" y2="240.8906"/></g><!--class Asignatura--><g id="elem_Asignatura"><rect codeLine="12" fill="#F1F1F1" height="80.5938" id="Asignatura" rx="2.5" ry="2.5" style="stroke:#181818;stroke-width:0.5;" width="108" x="240.5" y="168.2969"/><ellipse cx="255.5" cy="184.2969" fill="#ADD1B2" rx="11" ry="11" style="stroke:#181818;stroke-width:1.0;"/><path d="M257.8438,179.9688 C256.9063,179.5313 256.3125,179.3906 255.4375,179.3906 C252.8125,179.3906 250.8125,181.4688 250.8125,184.1875 L250.8125,185.3125 C250.8125,187.8906 252.9219,189.7813 255.8125,189.7813 C257.0313,189.7813 258.1875,189.4844 258.9375,188.9375 C259.5156,188.5313 259.8438,188.0781 259.8438,187.6875 C259.8438,187.2344 259.4531,186.8438 258.9844,186.8438 C258.7656,186.8438 258.5625,186.9219 258.375,187.1094 C257.9219,187.5938 257.9219,187.5938 257.7344,187.6875 C257.3125,187.9531 256.625,188.0781 255.8594,188.0781 C253.8125,188.0781 252.5156,186.9844 252.5156,185.2813 L252.5156,184.1875 C252.5156,182.4063 253.7656,181.0938 255.5,181.0938 C256.0781,181.0938 256.6875,181.25 257.1563,181.5 C257.6406,181.7813 257.8125,182 257.9063,182.4063 C257.9688,182.8125 258,182.9375 258.1406,183.0625 C258.2813,183.2031 258.5156,183.3125 258.7344,183.3125 C259,183.3125 259.2656,183.1719 259.4375,182.9531 C259.5469,182.7969 259.5781,182.6094 259.5781,182.1875 L259.5781,180.7656 C259.5781,180.3281 259.5625,180.2031 259.4688,180.0469 C259.3125,179.7813 259.0313,179.6406 258.7344,179.6406 C258.4375,179.6406 258.2344,179.7344 258.0156,180.0469 L257.8438,179.9688 Z " fill="#000000"/><text fill="#000000" font-family="sans-serif" font-size="14" lengthAdjust="spacing" textLength="76" x="269.5" y="189.1436">Asignatura</text><line style="stroke:#181818;stroke-width:0.5;" x1="241.5" x2="347.5" y1="200.2969" y2="200.2969"/><rect fill="none" height="6" style="stroke:#C82930;stroke-width:1.0;" width="6" x="248.5" y="210.9453"/><text fill="#000000" font-family="sans-serif" font-size="14" lengthAdjust="spacing" textLength="57" x="260.5" y="217.292">nombre</text><rect fill="none" height="6" style="stroke:#C82930;stroke-width:1.0;" width="6" x="248.5" y="227.2422"/><text fill="#000000" font-family="sans-serif" font-size="14" lengthAdjust="spacing" textLength="13" x="260.5" y="233.5889">id</text><line style="stroke:#181818;stroke-width:0.5;" x1="241.5" x2="347.5" y1="240.8906" y2="240.8906"/></g><!--class Aula--><g id="elem_Aula"><rect codeLine="17" fill="#F1F1F1" height="64.2969" id="Aula" rx="2.5" ry="2.5" style="stroke:#181818;stroke-width:0.5;" width="81" x="361" y="317.7969"/><ellipse cx="384.55" cy="333.7969" fill="#ADD1B2" rx="11" ry="11" style="stroke:#181818;stroke-width:1.0;"/><path d="M386.8938,329.4688 C385.9563,329.0313 385.3625,328.8906 384.4875,328.8906 C381.8625,328.8906 379.8625,330.9688 379.8625,333.6875 L379.8625,334.8125 C379.8625,337.3906 381.9719,339.2813 384.8625,339.2813 C386.0813,339.2813 387.2375,338.9844 387.9875,338.4375 C388.5656,338.0313 388.8938,337.5781 388.8938,337.1875 C388.8938,336.7344 388.5031,336.3438 388.0344,336.3438 C387.8156,336.3438 387.6125,336.4219 387.425,336.6094 C386.9719,337.0938 386.9719,337.0938 386.7844,337.1875 C386.3625,337.4531 385.675,337.5781 384.9094,337.5781 C382.8625,337.5781 381.5656,336.4844 381.5656,334.7813 L381.5656,333.6875 C381.5656,331.9063 382.8156,330.5938 384.55,330.5938 C385.1281,330.5938 385.7375,330.75 386.2063,331 C386.6906,331.2813 386.8625,331.5 386.9563,331.9063 C387.0188,332.3125 387.05,332.4375 387.1906,332.5625 C387.3313,332.7031 387.5656,332.8125 387.7844,332.8125 C388.05,332.8125 388.3156,332.6719 388.4875,332.4531 C388.5969,332.2969 388.6281,332.1094 388.6281,331.6875 L388.6281,330.2656 C388.6281,329.8281 388.6125,329.7031 388.5188,329.5469 C388.3625,329.2813 388.0813,329.1406 387.7844,329.1406 C387.4875,329.1406 387.2844,329.2344 387.0656,329.5469 L386.8938,329.4688 Z " fill="#000000"/><text fill="#000000" font-family="sans-serif" font-size="14" lengthAdjust="spacing" textLength="30" x="400.45" y="338.6436">Aula</text><line style="stroke:#181818;stroke-width:0.5;" x1="362" x2="441" y1="349.7969" y2="349.7969"/><rect fill="none" height="6" style="stroke:#C82930;stroke-width:1.0;" width="6" x="369" y="360.4453"/><text fill="#000000" font-family="sans-serif" font-size="14" lengthAdjust="spacing" textLength="55" x="381" y="366.792">numero</text><line style="stroke:#181818;stroke-width:0.5;" x1="362" x2="441" y1="374.0938" y2="374.0938"/></g><!--class Horario--><g id="elem_Horario"><rect codeLine="21" fill="#F1F1F1" height="129.4844" id="Horario" rx="2.5" ry="2.5" style="stroke:#181818;stroke-width:0.5;" width="100" x="257.5" y="591.2969"/><ellipse cx="279.7" cy="607.2969" fill="#ADD1B2" rx="11" ry="11" style="stroke:#181818;stroke-width:1.0;"/><path d="M282.0438,602.9688 C281.1063,602.5313 280.5125,602.3906 279.6375,602.3906 C277.0125,602.3906 275.0125,604.4688 275.0125,607.1875 L275.0125,608.3125 C275.0125,610.8906 277.1219,612.7813 280.0125,612.7813 C281.2313,612.7813 282.3875,612.4844 283.1375,611.9375 C283.7156,611.5313 284.0438,611.0781 284.0438,610.6875 C284.0438,610.2344 283.6531,609.8438 283.1844,609.8438 C282.9656,609.8438 282.7625,609.9219 282.575,610.1094 C282.1219,610.5938 282.1219,610.5938 281.9344,610.6875 C281.5125,610.9531 280.825,611.0781 280.0594,611.0781 C278.0125,611.0781 276.7156,609.9844 276.7156,608.2813 L276.7156,607.1875 C276.7156,605.4063 277.9656,604.0938 279.7,604.0938 C280.2781,604.0938 280.8875,604.25 281.3563,604.5 C281.8406,604.7813 282.0125,605 282.1063,605.4063 C282.1688,605.8125 282.2,605.9375 282.3406,606.0625 C282.4813,606.2031 282.7156,606.3125 282.9344,606.3125 C283.2,606.3125 283.4656,606.1719 283.6375,605.9531 C283.7469,605.7969 283.7781,605.6094 283.7781,605.1875 L283.7781,603.7656 C283.7781,603.3281 283.7625,603.2031 283.6688,603.0469 C283.5125,602.7813 283.2313,602.6406 282.9344,602.6406 C282.6375,602.6406 282.4344,602.7344 282.2156,603.0469 L282.0438,602.9688 Z " fill="#000000"/><text fill="#000000" font-family="sans-serif" font-size="14" lengthAdjust="spacing" textLength="52" x="295.3" y="612.1436">Horario</text><line style="stroke:#181818;stroke-width:0.5;" x1="258.5" x2="356.5" y1="623.2969" y2="623.2969"/><rect fill="none" height="6" style="stroke:#C82930;stroke-width:1.0;" width="6" x="265.5" y="633.9453"/><text fill="#000000" font-family="sans-serif" font-size="14" lengthAdjust="spacing" textLength="21" x="277.5" y="640.292">dia</text><rect fill="none" height="6" style="stroke:#C82930;stroke-width:1.0;" width="6" x="265.5" y="650.2422"/><text fill="#000000" font-family="sans-serif" font-size="14" lengthAdjust="spacing" textLength="74" x="277.5" y="656.5889">asignatura</text><rect fill="none" height="6" style="stroke:#C82930;stroke-width:1.0;" width="6" x="265.5" y="666.5391"/><text fill="#000000" font-family="sans-serif" font-size="14" lengthAdjust="spacing" textLength="28" x="277.5" y="672.8857">aula</text><rect fill="none" height="6" style="stroke:#C82930;stroke-width:1.0;" width="6" x="265.5" y="682.8359"/><text fill="#000000" font-family="sans-serif" font-size="14" lengthAdjust="spacing" textLength="70" x="277.5" y="689.1826">horaInicio</text><rect fill="none" height="6" style="stroke:#C82930;stroke-width:1.0;" width="6" x="265.5" y="699.1328"/><text fill="#000000" font-family="sans-serif" font-size="14" lengthAdjust="spacing" textLength="53" x="277.5" y="705.4795">horaFin</text><line style="stroke:#181818;stroke-width:0.5;" x1="258.5" x2="356.5" y1="712.7813" y2="712.7813"/></g><!--class AsignacionDocenteAsignatura--><g id="elem_AsignacionDocenteAsignatura"><rect codeLine="29" fill="#F1F1F1" height="80.5938" id="AsignacionDocenteAsignatura" rx="2.5" ry="2.5" style="stroke:#181818;stroke-width:0.5;" width="247" x="7" y="309.2969"/><ellipse cx="22" cy="325.2969" fill="#ADD1B2" rx="11" ry="11" style="stroke:#181818;stroke-width:1.0;"/><path d="M24.3438,320.9688 C23.4063,320.5313 22.8125,320.3906 21.9375,320.3906 C19.3125,320.3906 17.3125,322.4688 17.3125,325.1875 L17.3125,326.3125 C17.3125,328.8906 19.4219,330.7813 22.3125,330.7813 C23.5313,330.7813 24.6875,330.4844 25.4375,329.9375 C26.0156,329.5313 26.3438,329.0781 26.3438,328.6875 C26.3438,328.2344 25.9531,327.8438 25.4844,327.8438 C25.2656,327.8438 25.0625,327.9219 24.875,328.1094 C24.4219,328.5938 24.4219,328.5938 24.2344,328.6875 C23.8125,328.9531 23.125,329.0781 22.3594,329.0781 C20.3125,329.0781 19.0156,327.9844 19.0156,326.2813 L19.0156,325.1875 C19.0156,323.4063 20.2656,322.0938 22,322.0938 C22.5781,322.0938 23.1875,322.25 23.6563,322.5 C24.1406,322.7813 24.3125,323 24.4063,323.4063 C24.4688,323.8125 24.5,323.9375 24.6406,324.0625 C24.7813,324.2031 25.0156,324.3125 25.2344,324.3125 C25.5,324.3125 25.7656,324.1719 25.9375,323.9531 C26.0469,323.7969 26.0781,323.6094 26.0781,323.1875 L26.0781,321.7656 C26.0781,321.3281 26.0625,321.2031 25.9688,321.0469 C25.8125,320.7813 25.5313,320.6406 25.2344,320.6406 C24.9375,320.6406 24.7344,320.7344 24.5156,321.0469 L24.3438,320.9688 Z " fill="#000000"/><text fill="#000000" font-family="sans-serif" font-size="14" lengthAdjust="spacing" textLength="215" x="36" y="330.1436">AsignacionDocenteAsignatura</text><line style="stroke:#181818;stroke-width:0.5;" x1="8" x2="253" y1="341.2969" y2="341.2969"/><rect fill="none" height="6" style="stroke:#C82930;stroke-width:1.0;" width="6" x="15" y="351.9453"/><text fill="#000000" font-family="sans-serif" font-size="14" lengthAdjust="spacing" textLength="60" x="27" y="358.292">docente</text><rect fill="none" height="6" style="stroke:#C82930;stroke-width:1.0;" width="6" x="15" y="368.2422"/><text fill="#000000" font-family="sans-serif" font-size="14" lengthAdjust="spacing" textLength="74" x="27" y="374.5889">asignatura</text><line style="stroke:#181818;stroke-width:0.5;" x1="8" x2="253" y1="381.8906" y2="381.8906"/></g><!--class AsignacionAula--><g id="elem_AsignacionAula"><rect codeLine="34" fill="#F1F1F1" height="80.5938" id="AsignacionAula" rx="2.5" ry="2.5" style="stroke:#181818;stroke-width:0.5;" width="139" x="238" y="450.2969"/><ellipse cx="253" cy="466.2969" fill="#ADD1B2" rx="11" ry="11" style="stroke:#181818;stroke-width:1.0;"/><path d="M255.3438,461.9688 C254.4063,461.5313 253.8125,461.3906 252.9375,461.3906 C250.3125,461.3906 248.3125,463.4688 248.3125,466.1875 L248.3125,467.3125 C248.3125,469.8906 250.4219,471.7813 253.3125,471.7813 C254.5313,471.7813 255.6875,471.4844 256.4375,470.9375 C257.0156,470.5313 257.3438,470.0781 257.3438,469.6875 C257.3438,469.2344 256.9531,468.8438 256.4844,468.8438 C256.2656,468.8438 256.0625,468.9219 255.875,469.1094 C255.4219,469.5938 255.4219,469.5938 255.2344,469.6875 C254.8125,469.9531 254.125,470.0781 253.3594,470.0781 C251.3125,470.0781 250.0156,468.9844 250.0156,467.2813 L250.0156,466.1875 C250.0156,464.4063 251.2656,463.0938 253,463.0938 C253.5781,463.0938 254.1875,463.25 254.6563,463.5 C255.1406,463.7813 255.3125,464 255.4063,464.4063 C255.4688,464.8125 255.5,464.9375 255.6406,465.0625 C255.7813,465.2031 256.0156,465.3125 256.2344,465.3125 C256.5,465.3125 256.7656,465.1719 256.9375,464.9531 C257.0469,464.7969 257.0781,464.6094 257.0781,464.1875 L257.0781,462.7656 C257.0781,462.3281 257.0625,462.2031 256.9688,462.0469 C256.8125,461.7813 256.5313,461.6406 256.2344,461.6406 C255.9375,461.6406 255.7344,461.7344 255.5156,462.0469 L255.3438,461.9688 Z " fill="#000000"/><text fill="#000000" font-family="sans-serif" font-size="14" lengthAdjust="spacing" textLength="107" x="267" y="471.1436">AsignacionAula</text><line style="stroke:#181818;stroke-width:0.5;" x1="239" x2="376" y1="482.2969" y2="482.2969"/><rect fill="none" height="6" style="stroke:#C82930;stroke-width:1.0;" width="6" x="246" y="492.9453"/><text fill="#000000" font-family="sans-serif" font-size="14" lengthAdjust="spacing" textLength="74" x="258" y="499.292">asignatura</text><rect fill="none" height="6" style="stroke:#C82930;stroke-width:1.0;" width="6" x="246" y="509.2422"/><text fill="#000000" font-family="sans-serif" font-size="14" lengthAdjust="spacing" textLength="28" x="258" y="515.5889">aula</text><line style="stroke:#181818;stroke-width:0.5;" x1="239" x2="376" y1="522.8906" y2="522.8906"/></g><!--link GestorDeHorarios to Docente--><g id="link_GestorDeHorarios_Docente"><path codeLine="39" d="M203.853,108.5549 C182.901,126.4259 156.415,149.0169 134.008,168.1289 " fill="none" id="GestorDeHorarios-Docente" style="stroke:#181818;stroke-width:1.0;"/></g><!--link GestorDeHorarios to Asignatura--><g id="link_GestorDeHorarios_Asignatura"><path codeLine="40" d="M253.434,108.5549 C260.798,126.3509 270.098,148.8259 277.985,167.8859 " fill="none" id="GestorDeHorarios-Asignatura" style="stroke:#181818;stroke-width:1.0;"/></g><!--link GestorDeHorarios to Aula--><g id="link_GestorDeHorarios_Aula"><path codeLine="41" d="M301.215,108.4739 C324.729,123.4949 349.731,143.6509 365.5,168.2969 C394.949,214.3229 401.119,279.3969 401.969,317.5359 " fill="none" id="GestorDeHorarios-Aula" style="stroke:#181818;stroke-width:1.0;"/></g><!--link GestorDeHorarios to AsignacionDocenteAsignatura--><g id="link_GestorDeHorarios_AsignacionDocenteAsignatura"><path codeLine="43" d="M227.882,108.4419 C207.792,158.0269 168.559,254.8599 146.517,309.2639 " fill="none" id="GestorDeHorarios-AsignacionDocenteAsignatura" style="stroke:#181818;stroke-width:1.0;"/></g><!--link AsignacionDocenteAsignatura to AsignacionAula--><g id="link_AsignacionDocenteAsignatura_AsignacionAula"><path codeLine="44" d="M181.221,390.6289 C205.023,409.3209 233.313,431.5379 257.078,450.1999 " fill="none" id="AsignacionDocenteAsignatura-AsignacionAula" style="stroke:#181818;stroke-width:1.0;"/></g><!--link AsignacionAula to Horario--><g id="link_AsignacionAula_Horario"><path codeLine="45" d="M307.5,531.6709 C307.5,549.5789 307.5,571.1509 307.5,591.2029 " fill="none" id="AsignacionAula-Horario" style="stroke:#181818;stroke-width:1.0;"/></g><!--link Docente to AsignacionDocenteAsignatura--><g id="link_Docente_AsignacionDocenteAsignatura"><path codeLine="47" d="M99.8221,249.6289 C105.5797,268.2409 112.418,290.3469 118.176,308.9589 " fill="none" id="Docente-AsignacionDocenteAsignatura" style="stroke:#181818;stroke-width:1.0;"/></g><!--link Asignatura to AsignacionDocenteAsignatura--><g id="link_Asignatura_AsignacionDocenteAsignatura"><path codeLine="48" d="M247.504,249.6289 C225.45,268.3209 199.238,290.5379 177.219,309.1999 " fill="none" id="Asignatura-AsignacionDocenteAsignatura" style="stroke:#181818;stroke-width:1.0;"/></g><!--link Asignatura to AsignacionAula--><g id="link_Asignatura_AsignacionAula"><path codeLine="49" d="M296.335,249.3199 C298.806,302.5339 303.177,396.6799 305.653,450.0219 " fill="none" id="Asignatura-AsignacionAula" style="stroke:#181818;stroke-width:1.0;"/></g><!--link Aula to AsignacionAula--><g id="link_Aula_AsignacionAula"><path codeLine="50" d="M380.405,381.9909 C366.764,402.1619 348.89,428.5929 334.254,450.2349 " fill="none" id="Aula-AsignacionAula" style="stroke:#181818;stroke-width:1.0;"/></g><!--SRC=[dP5D3i8W48Ntd68kq4EODFuit7a1B1ET11W3T6MykrG1iKLZx8vv7_FUeu62HjYpGisW47esP8cXWmCPXCqedI9fXHYqz1usw0Ex7hVif2FsS1KGlmxEQI1k6UrvG1km49RDqM4wo0jgJOfV-ChJoSemEjc-GQfYHrrHeq5NBKhHYXxZPzDYaGTnJvL_PsaWhWPhilE04R2fMIEnUYfBlyQMjnBjQF7Mui6Xww2yxGUvIjOc7jwDvPFqfQRu9hwCIpinEqz8_ZtHFhVupJMR_8McE2d4-_mE]--></g></svg>