<?xml version="1.0" encoding="us-ascii" standalone="no"?><svg xmlns="http://www.w3.org/2000/svg" xmlns:xlink="http://www.w3.org/1999/xlink" contentStyleType="text/css" height="486px" preserveAspectRatio="none" style="width:781px;height:486px;background:#FFFFFF;" version="1.1" viewBox="0 0 781 486" width="781px" zoomAndPan="magnify"><defs><filter height="300%" id="f146u42w5ranlz" width="300%" x="-1" y="-1"><feGaussianBlur result="blurOut" stdDeviation="2.0"/><feColorMatrix in="blurOut" result="blurOut2" type="matrix" values="0 0 0 0 0 0 0 0 0 0 0 0 0 0 0 0 0 0 .4 0"/><feOffset dx="4.0" dy="4.0" in="blurOut2" result="blurOut3"/><feBlend in="SourceGraphic" in2="blurOut3" mode="normal"/></filter></defs><g><text fill="#000000" font-family="sans-serif" font-size="14" font-weight="bold" lengthAdjust="spacing" textLength="261" x="252" y="22.9951">Diagrama de Contexto (Usuario)</text><ellipse cx="391" cy="53.2969" fill="#000000" filter="url(#f146u42w5ranlz)" rx="10" ry="10" style="stroke:#000000;stroke-width:1.0;"/><g id="Inicial"><rect fill="#FEFECE" filter="url(#f146u42w5ranlz)" height="50" rx="12.5" ry="12.5" style="stroke:#A80036;stroke-width:1.0;" width="61" x="360.5" y="124.2969"/><line style="stroke:#A80036;stroke-width:1.0;" x1="360.5" x2="421.5" y1="150.5938" y2="150.5938"/><text fill="#000000" font-family="sans-serif" font-size="14" lengthAdjust="spacing" textLength="41" x="370.5" y="142.292">Inicial</text></g><g id="DASHBOARD_ABIERTO"><rect fill="#FEFECE" filter="url(#f146u42w5ranlz)" height="50" rx="12.5" ry="12.5" style="stroke:#A80036;stroke-width:1.0;" width="182" x="300" y="273.2969"/><line style="stroke:#A80036;stroke-width:1.0;" x1="300" x2="482" y1="299.5938" y2="299.5938"/><text fill="#000000" font-family="sans-serif" font-size="14" lengthAdjust="spacing" textLength="162" x="310" y="291.292">DASHBOARD_ABIERTO</text></g><g id="CREACION_TICKET"><rect fill="#FEFECE" filter="url(#f146u42w5ranlz)" height="50" rx="12.5" ry="12.5" style="stroke:#A80036;stroke-width:1.0;" width="152" x="7" y="273.2969"/><line style="stroke:#A80036;stroke-width:1.0;" x1="7" x2="159" y1="299.5938" y2="299.5938"/><text fill="#000000" font-family="sans-serif" font-size="14" lengthAdjust="spacing" textLength="132" x="17" y="291.292">CREACION_TICKET</text></g><g id="LISTA_TICKETS"><rect fill="#FEFECE" filter="url(#f146u42w5ranlz)" height="50" rx="12.5" ry="12.5" style="stroke:#A80036;stroke-width:1.0;" width="127" x="623.5" y="273.2969"/><line style="stroke:#A80036;stroke-width:1.0;" x1="623.5" x2="750.5" y1="299.5938" y2="299.5938"/><text fill="#000000" font-family="sans-serif" font-size="14" lengthAdjust="spacing" textLength="107" x="633.5" y="291.292">LISTA_TICKETS</text></g><g id="TICKET"><rect fill="#FEFECE" filter="url(#f146u42w5ranlz)" height="50" rx="12.5" ry="12.5" style="stroke:#A80036;stroke-width:1.0;" width="71" x="651.5" y="422.2969"/><line style="stroke:#A80036;stroke-width:1.0;" x1="651.5" x2="722.5" y1="448.5938" y2="448.5938"/><text fill="#000000" font-family="sans-serif" font-size="14" lengthAdjust="spacing" textLength="51" x="661.5" y="440.292">TICKET</text></g><ellipse cx="391" cy="447.2969" fill="none" filter="url(#f146u42w5ranlz)" rx="11" ry="11" style="stroke:#000000;stroke-width:1.0;"/><ellipse cx="391" cy="447.2969" fill="#000000" rx="6" ry="6" style="stroke:#000000;stroke-width:1.0;"/><!--link *start* to Inicial--><g id="link_*start*_Inicial"><path d="M391,63.3099 C391,77.1879 391,98.2619 391,118.1369 " fill="none" id="*start*-to-Inicial" style="stroke:#A80036;stroke-width:1.0;"/><polygon fill="#A80036" points="391,124.1369,395,115.1369,391,119.1369,387,115.1369,391,124.1369" style="stroke:#A80036;stroke-width:1.0;"/></g><!--link Inicial to DASHBOARD_ABIERTO--><g id="link_Inicial_DASHBOARD_ABIERTO"><path d="M391,174.5709 C391,201.8079 391,239.7349 391,266.9869 " fill="none" id="Inicial-to-DASHBOARD_ABIERTO" style="stroke:#A80036;stroke-width:1.0;"/><polygon fill="#A80036" points="391,272.9869,395,263.9869,391,267.9869,387,263.9869,391,272.9869" style="stroke:#A80036;stroke-width:1.0;"/><path d="M396,209.2969 L396,234.2969 L447,234.2969 L447,219.2969 L437,209.2969 L396,209.2969 " fill="#FFFFFF" filter="url(#f146u42w5ranlz)" style="stroke:#A80036;stroke-width:1.0;"/><path d="M437,209.2969 L437,219.2969 L447,219.2969 L437,209.2969 " fill="#FFFFFF" style="stroke:#A80036;stroke-width:1.0;"/><text fill="#000000" font-family="sans-serif" font-size="13" lengthAdjust="spacing" textLength="30" x="402" y="226.3638">login</text></g><!--reverse link CREACION_TICKET to DASHBOARD_ABIERTO--><g id="link_CREACION_TICKET_DASHBOARD_ABIERTO"><path d="M165.1044,300.5805 C180.6194,300.9365 190.835,301.1119 206,301.2969 C236.514,301.6689 269.857,301.3519 299.728,300.8059 " fill="none" id="CREACION_TICKET-backto-DASHBOARD_ABIERTO" style="stroke:#A80036;stroke-width:1.0;"/><polygon fill="#A80036" points="159.106,300.4429,168.0119,304.6483,164.1047,300.5576,168.1954,296.6504,159.106,300.4429" style="stroke:#A80036;stroke-width:1.0;"/></g><!--link CREACION_TICKET to DASHBOARD_ABIERTO--><g id="link_CREACION_TICKET_DASHBOARD_ABIERTO"><path d="M159.135,298.2969 C201.71,298.2969 249.061,298.2969 293.85,298.2969 " fill="none" id="CREACION_TICKET-to-DASHBOARD_ABIERTO" style="stroke:#A80036;stroke-width:1.0;"/><polygon fill="#A80036" points="299.85,298.2969,290.85,294.2969,294.85,298.2969,290.85,302.2969,299.85,298.2969" style="stroke:#A80036;stroke-width:1.0;"/><path d="M181.5,261.2969 L181.5,286.2969 L273.5,286.2969 L273.5,271.2969 L263.5,261.2969 L181.5,261.2969 " fill="#FFFFFF" filter="url(#f146u42w5ranlz)" style="stroke:#A80036;stroke-width:1.0;"/><path d="M263.5,261.2969 L263.5,271.2969 L273.5,271.2969 L263.5,261.2969 " fill="#FFFFFF" style="stroke:#A80036;stroke-width:1.0;"/><text fill="#000000" font-family="sans-serif" font-size="13" lengthAdjust="spacing" textLength="71" x="187.5" y="278.3638">crearTicket</text></g><!--link DASHBOARD_ABIERTO to LISTA_TICKETS--><g id="link_DASHBOARD_ABIERTO_LISTA_TICKETS"><path d="M482.437,300.8559 C512.362,301.4049 545.765,301.7109 576.333,301.2969 C591.516,301.0909 601.8691,300.8855 617.2211,300.4795 " fill="none" id="DASHBOARD_ABIERTO-to-LISTA_TICKETS" style="stroke:#A80036;stroke-width:1.0;"/><polygon fill="#A80036" points="623.219,300.3209,614.1164,296.5602,618.2207,300.4531,614.3279,304.5574,623.219,300.3209" style="stroke:#A80036;stroke-width:1.0;"/></g><!--reverse link DASHBOARD_ABIERTO to LISTA_TICKETS--><g id="link_DASHBOARD_ABIERTO_LISTA_TICKETS"><path d="M488.225,298.2969 C533.919,298.2969 582.124,298.2969 623.283,298.2969 " fill="none" id="DASHBOARD_ABIERTO-backto-LISTA_TICKETS" style="stroke:#A80036;stroke-width:1.0;"/><polygon fill="#A80036" points="482.225,298.2969,491.225,302.2969,487.225,298.2969,491.225,294.2969,482.225,298.2969" style="stroke:#A80036;stroke-width:1.0;"/><path d="M504.25,261.2969 L504.25,286.2969 L597.25,286.2969 L597.25,271.2969 L587.25,261.2969 L504.25,261.2969 " fill="#FFFFFF" filter="url(#f146u42w5ranlz)" style="stroke:#A80036;stroke-width:1.0;"/><path d="M587.25,261.2969 L587.25,271.2969 L597.25,271.2969 L587.25,261.2969 " fill="#FFFFFF" style="stroke:#A80036;stroke-width:1.0;"/><text fill="#000000" font-family="sans-serif" font-size="13" lengthAdjust="spacing" textLength="72" x="510.25" y="278.3638">filtrarTicket</text></g><!--link LISTA_TICKETS to TICKET--><g id="link_LISTA_TICKETS_TICKET"><path d="M683.197,323.4249 C681.907,332.7339 680.633,343.4859 680,353.2969 C678.884,370.5939 678.884,374.9996 680,392.2969 C680.633,402.1081 681.0834,406.9166 682.3734,416.2254 " fill="none" id="LISTA_TICKETS-to-TICKET" style="stroke:#A80036;stroke-width:1.0;"/><polygon fill="#A80036" points="683.197,422.1686,685.9237,412.7047,682.5107,417.2159,677.9995,413.8028,683.197,422.1686" style="stroke:#A80036;stroke-width:1.0;"/></g><!--reverse link LISTA_TICKETS to TICKET--><g id="link_LISTA_TICKETS_TICKET"><path d="M687,329.5709 C687,356.8079 687,394.7353 687,421.9868 " fill="none" id="LISTA_TICKETS-backto-TICKET" style="stroke:#A80036;stroke-width:1.0;"/><polygon fill="#A80036" points="687,323.5709,683,332.5709,687,328.5709,691,332.5709,687,323.5709" style="stroke:#A80036;stroke-width:1.0;"/><path d="M692,358.2969 L692,383.2969 L772,383.2969 L772,368.2969 L762,358.2969 L692,358.2969 " fill="#FFFFFF" filter="url(#f146u42w5ranlz)" style="stroke:#A80036;stroke-width:1.0;"/><path d="M762,358.2969 L762,368.2969 L772,368.2969 L762,358.2969 " fill="#FFFFFF" style="stroke:#A80036;stroke-width:1.0;"/><text fill="#000000" font-family="sans-serif" font-size="13" lengthAdjust="spacing" textLength="59" x="698" y="375.3638">verTicket</text></g><!--link DASHBOARD_ABIERTO to *end*--><g id="link_DASHBOARD_ABIERTO_*end*"><path d="M391,323.5709 C391,356.3529 391,407.3139 391,430.2761 " fill="none" id="DASHBOARD_ABIERTO-to-*end*" style="stroke:#A80036;stroke-width:1.0;"/><polygon fill="#A80036" points="391,436.2761,395,427.2761,391,431.2761,387,427.2761,391,436.2761" style="stroke:#A80036;stroke-width:1.0;"/><path d="M396,358.2969 L396,383.2969 L457,383.2969 L457,368.2969 L447,358.2969 L396,358.2969 " fill="#FFFFFF" filter="url(#f146u42w5ranlz)" style="stroke:#A80036;stroke-width:1.0;"/><path d="M447,358.2969 L447,368.2969 L457,368.2969 L447,358.2969 " fill="#FFFFFF" style="stroke:#A80036;stroke-width:1.0;"/><text fill="#000000" font-family="sans-serif" font-size="13" lengthAdjust="spacing" textLength="40" x="402" y="375.3638">logout</text></g><!--link CREACION_TICKET to *end*--><g id="link_CREACION_TICKET_*end*"><path d="M133.515,323.4059 C208.436,359.1639 338.7601,421.3641 375.9441,439.111 " fill="none" id="CREACION_TICKET-to-*end*" style="stroke:#A80036;stroke-width:1.0;"/><polygon fill="#A80036" points="381.359,441.6954,374.9596,434.2089,376.8466,439.5417,371.5138,441.4287,381.359,441.6954" style="stroke:#A80036;stroke-width:1.0;"/></g><!--link LISTA_TICKETS to *end*--><g id="link_LISTA_TICKETS_*end*"><path d="M638.453,323.4059 C566.616,359.0819 441.9688,420.9849 405.8848,438.9047 " fill="none" id="LISTA_TICKETS-to-*end*" style="stroke:#A80036;stroke-width:1.0;"/><polygon fill="#A80036" points="400.511,441.5734,410.3509,441.1529,404.9892,439.3494,406.7926,433.9878,400.511,441.5734" style="stroke:#A80036;stroke-width:1.0;"/></g><!--SRC=[ZL3DIiGm4BxFKypH5Ve27eGqBHYKBRJn9BA4DdQ7neoagGhYkvko5TbMnDlCyFtDDmxaCV1eOKpJYmdc6Jr7-m68kMc7Fl3aEycE0xuTALhuX4ZHMIp8z0bjiBCesKVx7XalxiV91E8TmCFb8sRPDQBor99n0Ck0MPVEXMXkyahKnK7aggnr1RCjiaT7VhX2nprvW0qCCvVOiYw5LDN-e9MyBJMiTip2FopQO4tGr0us_ceqQzofHej5jO6pxPHaorkvF96BuSTd9J5NiVpm7NtQs9uBljg_Gi-2gVfjcpmbmgQd1RsE5KxtBm00]--></g></svg>