<?xml version="1.0" encoding="us-ascii" standalone="no"?><svg xmlns="http://www.w3.org/2000/svg" xmlns:xlink="http://www.w3.org/1999/xlink" contentStyleType="text/css" height="670px" preserveAspectRatio="none" style="width:326px;height:670px;background:#FFFFFF;" version="1.1" viewBox="0 0 326 670" width="326px" zoomAndPan="magnify"><defs/><g><text fill="#000000" font-family="sans-serif" font-size="14" font-weight="bold" lengthAdjust="spacing" textLength="298" x="10" y="22.9951">Diagrama de Clases - Aplicaci&#243;n FISC</text><!--class Usuario--><g id="elem_Usuario"><rect codeLine="3" fill="#F1F1F1" height="80.5938" id="Usuario" rx="2.5" ry="2.5" style="stroke:#181818;stroke-width:0.5;" width="83" x="192.75" y="44.2969"/><ellipse cx="207.75" cy="60.2969" fill="#ADD1B2" rx="11" ry="11" style="stroke:#181818;stroke-width:1.0;"/><path d="M210.0938,55.9688 C209.1563,55.5313 208.5625,55.3906 207.6875,55.3906 C205.0625,55.3906 203.0625,57.4688 203.0625,60.1875 L203.0625,61.3125 C203.0625,63.8906 205.1719,65.7813 208.0625,65.7813 C209.2813,65.7813 210.4375,65.4844 211.1875,64.9375 C211.7656,64.5313 212.0938,64.0781 212.0938,63.6875 C212.0938,63.2344 211.7031,62.8438 211.2344,62.8438 C211.0156,62.8438 210.8125,62.9219 210.625,63.1094 C210.1719,63.5938 210.1719,63.5938 209.9844,63.6875 C209.5625,63.9531 208.875,64.0781 208.1094,64.0781 C206.0625,64.0781 204.7656,62.9844 204.7656,61.2813 L204.7656,60.1875 C204.7656,58.4063 206.0156,57.0938 207.75,57.0938 C208.3281,57.0938 208.9375,57.25 209.4063,57.5 C209.8906,57.7813 210.0625,58 210.1563,58.4063 C210.2188,58.8125 210.25,58.9375 210.3906,59.0625 C210.5313,59.2031 210.7656,59.3125 210.9844,59.3125 C211.25,59.3125 211.5156,59.1719 211.6875,58.9531 C211.7969,58.7969 211.8281,58.6094 211.8281,58.1875 L211.8281,56.7656 C211.8281,56.3281 211.8125,56.2031 211.7188,56.0469 C211.5625,55.7813 211.2813,55.6406 210.9844,55.6406 C210.6875,55.6406 210.4844,55.7344 210.2656,56.0469 L210.0938,55.9688 Z " fill="#000000"/><text fill="#000000" font-family="sans-serif" font-size="14" lengthAdjust="spacing" textLength="51" x="221.75" y="65.1436">Usuario</text><line style="stroke:#181818;stroke-width:0.5;" x1="193.75" x2="274.75" y1="76.2969" y2="76.2969"/><rect fill="none" height="6" style="stroke:#C82930;stroke-width:1.0;" width="6" x="200.75" y="86.9453"/><text fill="#000000" font-family="sans-serif" font-size="14" lengthAdjust="spacing" textLength="57" x="212.75" y="93.292">nombre</text><rect fill="none" height="6" style="stroke:#C82930;stroke-width:1.0;" width="6" x="200.75" y="103.2422"/><text fill="#000000" font-family="sans-serif" font-size="14" lengthAdjust="spacing" textLength="13" x="212.75" y="109.5889">id</text><line style="stroke:#181818;stroke-width:0.5;" x1="193.75" x2="274.75" y1="116.8906" y2="116.8906"/></g><!--class Proyecto--><g id="elem_Proyecto"><rect codeLine="8" fill="#F1F1F1" height="64.2969" id="Proyecto" rx="2.5" ry="2.5" style="stroke:#181818;stroke-width:0.5;" width="97" x="100.75" y="202.2969"/><ellipse cx="115.75" cy="218.2969" fill="#ADD1B2" rx="11" ry="11" style="stroke:#181818;stroke-width:1.0;"/><path d="M118.0938,213.9688 C117.1563,213.5313 116.5625,213.3906 115.6875,213.3906 C113.0625,213.3906 111.0625,215.4688 111.0625,218.1875 L111.0625,219.3125 C111.0625,221.8906 113.1719,223.7813 116.0625,223.7813 C117.2813,223.7813 118.4375,223.4844 119.1875,222.9375 C119.7656,222.5313 120.0938,222.0781 120.0938,221.6875 C120.0938,221.2344 119.7031,220.8438 119.2344,220.8438 C119.0156,220.8438 118.8125,220.9219 118.625,221.1094 C118.1719,221.5938 118.1719,221.5938 117.9844,221.6875 C117.5625,221.9531 116.875,222.0781 116.1094,222.0781 C114.0625,222.0781 112.7656,220.9844 112.7656,219.2813 L112.7656,218.1875 C112.7656,216.4063 114.0156,215.0938 115.75,215.0938 C116.3281,215.0938 116.9375,215.25 117.4063,215.5 C117.8906,215.7813 118.0625,216 118.1563,216.4063 C118.2188,216.8125 118.25,216.9375 118.3906,217.0625 C118.5313,217.2031 118.7656,217.3125 118.9844,217.3125 C119.25,217.3125 119.5156,217.1719 119.6875,216.9531 C119.7969,216.7969 119.8281,216.6094 119.8281,216.1875 L119.8281,214.7656 C119.8281,214.3281 119.8125,214.2031 119.7188,214.0469 C119.5625,213.7813 119.2813,213.6406 118.9844,213.6406 C118.6875,213.6406 118.4844,213.7344 118.2656,214.0469 L118.0938,213.9688 Z " fill="#000000"/><text fill="#000000" font-family="sans-serif" font-size="14" lengthAdjust="spacing" textLength="65" x="129.75" y="223.1436">Proyecto</text><line style="stroke:#181818;stroke-width:0.5;" x1="101.75" x2="196.75" y1="234.2969" y2="234.2969"/><rect fill="none" height="6" style="stroke:#C82930;stroke-width:1.0;" width="6" x="108.75" y="244.9453"/><text fill="#000000" font-family="sans-serif" font-size="14" lengthAdjust="spacing" textLength="57" x="120.75" y="251.292">nombre</text><line style="stroke:#181818;stroke-width:0.5;" x1="101.75" x2="196.75" y1="258.5938" y2="258.5938"/></g><!--class Simulaci?n--><g id="elem_Simulaci&#243;n"><rect codeLine="12" fill="#F1F1F1" height="145.7813" id="Simulaci&#243;n" rx="2.5" ry="2.5" style="stroke:#181818;stroke-width:0.5;" width="160" x="17.25" y="343.2969"/><ellipse cx="55.2" cy="359.2969" fill="#ADD1B2" rx="11" ry="11" style="stroke:#181818;stroke-width:1.0;"/><path d="M57.5438,354.9688 C56.6063,354.5313 56.0125,354.3906 55.1375,354.3906 C52.5125,354.3906 50.5125,356.4688 50.5125,359.1875 L50.5125,360.3125 C50.5125,362.8906 52.6219,364.7813 55.5125,364.7813 C56.7313,364.7813 57.8875,364.4844 58.6375,363.9375 C59.2156,363.5313 59.5438,363.0781 59.5438,362.6875 C59.5438,362.2344 59.1531,361.8438 58.6844,361.8438 C58.4656,361.8438 58.2625,361.9219 58.075,362.1094 C57.6219,362.5938 57.6219,362.5938 57.4344,362.6875 C57.0125,362.9531 56.325,363.0781 55.5594,363.0781 C53.5125,363.0781 52.2156,361.9844 52.2156,360.2813 L52.2156,359.1875 C52.2156,357.4063 53.4656,356.0938 55.2,356.0938 C55.7781,356.0938 56.3875,356.25 56.8563,356.5 C57.3406,356.7813 57.5125,357 57.6063,357.4063 C57.6688,357.8125 57.7,357.9375 57.8406,358.0625 C57.9813,358.2031 58.2156,358.3125 58.4344,358.3125 C58.7,358.3125 58.9656,358.1719 59.1375,357.9531 C59.2469,357.7969 59.2781,357.6094 59.2781,357.1875 L59.2781,355.7656 C59.2781,355.3281 59.2625,355.2031 59.1688,355.0469 C59.0125,354.7813 58.7313,354.6406 58.4344,354.6406 C58.1375,354.6406 57.9344,354.7344 57.7156,355.0469 L57.5438,354.9688 Z " fill="#000000"/><text fill="#000000" font-family="sans-serif" font-size="14" lengthAdjust="spacing" textLength="77" x="74.3" y="364.1436">Simulaci&#243;n</text><line style="stroke:#181818;stroke-width:0.5;" x1="18.25" x2="176.25" y1="375.2969" y2="375.2969"/><rect fill="none" height="6" style="stroke:#C82930;stroke-width:1.0;" width="6" x="25.25" y="385.9453"/><text fill="#000000" font-family="sans-serif" font-size="14" lengthAdjust="spacing" textLength="134" x="37.25" y="392.292">tipolog&#237;aElemento</text><rect fill="none" height="6" style="stroke:#C82930;stroke-width:1.0;" width="6" x="25.25" y="402.2422"/><text fill="#000000" font-family="sans-serif" font-size="14" lengthAdjust="spacing" textLength="60" x="37.25" y="408.5889">material</text><rect fill="none" height="6" style="stroke:#C82930;stroke-width:1.0;" width="6" x="25.25" y="418.5391"/><text fill="#000000" font-family="sans-serif" font-size="14" lengthAdjust="spacing" textLength="83" x="37.25" y="424.8857">localizaci&#243;n</text><rect fill="none" height="6" style="stroke:#C82930;stroke-width:1.0;" width="6" x="25.25" y="434.8359"/><text fill="#000000" font-family="sans-serif" font-size="14" lengthAdjust="spacing" textLength="119" x="37.25" y="441.1826">agresi&#243;nT&#233;rmica</text><rect fill="none" height="6" style="stroke:#C82930;stroke-width:1.0;" width="6" x="25.25" y="451.1328"/><text fill="#000000" font-family="sans-serif" font-size="14" lengthAdjust="spacing" textLength="114" x="37.25" y="457.4795">gr&#225;ficaReacci&#243;n</text><rect fill="none" height="6" style="stroke:#C82930;stroke-width:1.0;" width="6" x="25.25" y="467.4297"/><text fill="#000000" font-family="sans-serif" font-size="14" lengthAdjust="spacing" textLength="117" x="37.25" y="473.7764">fechaSimulaci&#243;n</text><line style="stroke:#181818;stroke-width:0.5;" x1="18.25" x2="176.25" y1="481.0781" y2="481.0781"/></g><!--class Log--><g id="elem_Log"><rect codeLine="21" fill="#F1F1F1" height="96.8906" id="Log" rx="2.5" ry="2.5" style="stroke:#181818;stroke-width:0.5;" width="99" x="215.75" y="367.7969"/><ellipse cx="249.2" cy="383.7969" fill="#ADD1B2" rx="11" ry="11" style="stroke:#181818;stroke-width:1.0;"/><path d="M251.5438,379.4688 C250.6063,379.0313 250.0125,378.8906 249.1375,378.8906 C246.5125,378.8906 244.5125,380.9688 244.5125,383.6875 L244.5125,384.8125 C244.5125,387.3906 246.6219,389.2813 249.5125,389.2813 C250.7313,389.2813 251.8875,388.9844 252.6375,388.4375 C253.2156,388.0313 253.5438,387.5781 253.5438,387.1875 C253.5438,386.7344 253.1531,386.3438 252.6844,386.3438 C252.4656,386.3438 252.2625,386.4219 252.075,386.6094 C251.6219,387.0938 251.6219,387.0938 251.4344,387.1875 C251.0125,387.4531 250.325,387.5781 249.5594,387.5781 C247.5125,387.5781 246.2156,386.4844 246.2156,384.7813 L246.2156,383.6875 C246.2156,381.9063 247.4656,380.5938 249.2,380.5938 C249.7781,380.5938 250.3875,380.75 250.8563,381 C251.3406,381.2813 251.5125,381.5 251.6063,381.9063 C251.6688,382.3125 251.7,382.4375 251.8406,382.5625 C251.9813,382.7031 252.2156,382.8125 252.4344,382.8125 C252.7,382.8125 252.9656,382.6719 253.1375,382.4531 C253.2469,382.2969 253.2781,382.1094 253.2781,381.6875 L253.2781,380.2656 C253.2781,379.8281 253.2625,379.7031 253.1688,379.5469 C253.0125,379.2813 252.7313,379.1406 252.4344,379.1406 C252.1375,379.1406 251.9344,379.2344 251.7156,379.5469 L251.5438,379.4688 Z " fill="#000000"/><text fill="#000000" font-family="sans-serif" font-size="14" lengthAdjust="spacing" textLength="26" x="267.3" y="388.6436">Log</text><line style="stroke:#181818;stroke-width:0.5;" x1="216.75" x2="313.75" y1="399.7969" y2="399.7969"/><rect fill="none" height="6" style="stroke:#C82930;stroke-width:1.0;" width="6" x="223.75" y="410.4453"/><text fill="#000000" font-family="sans-serif" font-size="14" lengthAdjust="spacing" textLength="62" x="235.75" y="416.792">acciones</text><rect fill="none" height="6" style="stroke:#C82930;stroke-width:1.0;" width="6" x="223.75" y="426.7422"/><text fill="#000000" font-family="sans-serif" font-size="14" lengthAdjust="spacing" textLength="73" x="235.75" y="433.0889">fechaHora</text><rect fill="none" height="6" style="stroke:#C82930;stroke-width:1.0;" width="6" x="223.75" y="443.0391"/><text fill="#000000" font-family="sans-serif" font-size="14" lengthAdjust="spacing" textLength="57" x="235.75" y="449.3857">detalles</text><line style="stroke:#181818;stroke-width:0.5;" x1="216.75" x2="313.75" y1="456.6875" y2="456.6875"/></g><!--class Reporte--><g id="elem_Reporte"><rect codeLine="27" fill="#F1F1F1" height="96.8906" id="Reporte" rx="2.5" ry="2.5" style="stroke:#181818;stroke-width:0.5;" width="100" x="47.25" y="566.2969"/><ellipse cx="65.85" cy="582.2969" fill="#ADD1B2" rx="11" ry="11" style="stroke:#181818;stroke-width:1.0;"/><path d="M68.1938,577.9688 C67.2563,577.5313 66.6625,577.3906 65.7875,577.3906 C63.1625,577.3906 61.1625,579.4688 61.1625,582.1875 L61.1625,583.3125 C61.1625,585.8906 63.2719,587.7813 66.1625,587.7813 C67.3813,587.7813 68.5375,587.4844 69.2875,586.9375 C69.8656,586.5313 70.1938,586.0781 70.1938,585.6875 C70.1938,585.2344 69.8031,584.8438 69.3344,584.8438 C69.1156,584.8438 68.9125,584.9219 68.725,585.1094 C68.2719,585.5938 68.2719,585.5938 68.0844,585.6875 C67.6625,585.9531 66.975,586.0781 66.2094,586.0781 C64.1625,586.0781 62.8656,584.9844 62.8656,583.2813 L62.8656,582.1875 C62.8656,580.4063 64.1156,579.0938 65.85,579.0938 C66.4281,579.0938 67.0375,579.25 67.5063,579.5 C67.9906,579.7813 68.1625,580 68.2563,580.4063 C68.3188,580.8125 68.35,580.9375 68.4906,581.0625 C68.6313,581.2031 68.8656,581.3125 69.0844,581.3125 C69.35,581.3125 69.6156,581.1719 69.7875,580.9531 C69.8969,580.7969 69.9281,580.6094 69.9281,580.1875 L69.9281,578.7656 C69.9281,578.3281 69.9125,578.2031 69.8188,578.0469 C69.6625,577.7813 69.3813,577.6406 69.0844,577.6406 C68.7875,577.6406 68.5844,577.7344 68.3656,578.0469 L68.1938,577.9688 Z " fill="#000000"/><text fill="#000000" font-family="sans-serif" font-size="14" lengthAdjust="spacing" textLength="60" x="80.65" y="587.1436">Reporte</text><line style="stroke:#181818;stroke-width:0.5;" x1="48.25" x2="146.25" y1="598.2969" y2="598.2969"/><rect fill="none" height="6" style="stroke:#C82930;stroke-width:1.0;" width="6" x="55.25" y="608.9453"/><text fill="#000000" font-family="sans-serif" font-size="14" lengthAdjust="spacing" textLength="74" x="67.25" y="615.292">resultados</text><rect fill="none" height="6" style="stroke:#C82930;stroke-width:1.0;" width="6" x="55.25" y="625.2422"/><text fill="#000000" font-family="sans-serif" font-size="14" lengthAdjust="spacing" textLength="59" x="67.25" y="631.5889">formato</text><rect fill="none" height="6" style="stroke:#C82930;stroke-width:1.0;" width="6" x="55.25" y="641.5391"/><text fill="#000000" font-family="sans-serif" font-size="14" lengthAdjust="spacing" textLength="56" x="67.25" y="647.8857">gr&#225;ficas</text><line style="stroke:#181818;stroke-width:0.5;" x1="48.25" x2="146.25" y1="655.1875" y2="655.1875"/></g><!--link Usuario to Proyecto--><g id="link_Usuario_Proyecto"><path codeLine="33" d="M211.472,125.3239 C197.604,149.3889 180.137,179.6989 167.242,202.0749 " fill="none" id="Usuario-Proyecto" style="stroke:#181818;stroke-width:1.0;"/><text fill="#000000" font-family="sans-serif" font-size="13" lengthAdjust="spacing" textLength="42" x="193.25" y="168.3638">realiza</text></g><!--link Proyecto to Simulaci?n--><g id="link_Proyecto_Simulaci&#243;n"><path codeLine="34" d="M113.3765,266.4039 C105.5942,275.2009 98.444,285.3819 94.25,296.2969 C88.6163,310.9579 86.5921,327.4019 86.5306,343.2789 " fill="none" id="Proyecto-Simulaci&#243;n" style="stroke:#181818;stroke-width:1.0;"/><text fill="#000000" font-family="sans-serif" font-size="13" lengthAdjust="spacing" textLength="55" x="95.25" y="309.3638">contiene</text></g><!--link Simulaci?n to Reporte--><g id="link_Simulaci&#243;n_Reporte"><path codeLine="35" d="M97.25,489.3509 C97.25,514.9809 97.25,543.1779 97.25,566.2415 " fill="none" id="Simulaci&#243;n-Reporte" style="stroke:#181818;stroke-width:1.0;"/><text fill="#000000" font-family="sans-serif" font-size="13" lengthAdjust="spacing" textLength="52" x="98.25" y="532.3638">produce</text></g><!--link Usuario to Log--><g id="link_Usuario_Log"><path codeLine="36" d="M240.389,125.4359 C241.778,135.1839 243.162,145.6059 244.25,155.2969 C252.557,229.3279 258.86,315.5729 262.303,367.7679 " fill="none" id="Usuario-Log" style="stroke:#181818;stroke-width:1.0;"/><text fill="#000000" font-family="sans-serif" font-size="13" lengthAdjust="spacing" textLength="49" x="256.25" y="238.8638">registra</text></g><!--link Proyecto to Log--><g id="link_Proyecto_Log"><path codeLine="37" d="M164.877,266.5869 C172.412,281.0579 181.843,298.3189 191.25,313.2969 C202.711,331.5459 216.308,350.8519 228.7,367.7009 " fill="none" id="Proyecto-Log" style="stroke:#181818;stroke-width:1.0;"/><text fill="#000000" font-family="sans-serif" font-size="13" lengthAdjust="spacing" textLength="49" x="192.25" y="309.3638">registra</text></g><!--SRC=[RP0nJiKm38RtdYBgtWkmeGS890Rq7Xp0f7x5aXDNJZe0uZ2C34mSeHSZBMbU17Yp_y_sRqUAZEQ2O51mO7eqEuQ0mNJcV6IoO6d-ykRgvh1h6fkaO1x214fYNXkJeZDUtADYJgXltZRmJkKPRVn35k10RkAyOMCYZS8op9zmoUZGHyc2WuXAm3bbiS3qyjETQ-a834j-Ft-eI-PpVT3v_PZIFOAj-IFQ9wXCd9pTob0SBJtYCTHDrwBRy1uZC2UvDEzn58rO1YHJ4qVefOmGJTV8BtVhXEsvNNTwtvbf5TTZswOK5wB-NuAi-4ZeiMrg8N6ReSICAlra4r8jMevTTmmKejPB_X6_0G00]--></g></svg>