<?xml version="1.0" encoding="us-ascii" standalone="no"?><svg xmlns="http://www.w3.org/2000/svg" xmlns:xlink="http://www.w3.org/1999/xlink" contentStyleType="text/css" height="1097px" preserveAspectRatio="none" style="width:792px;height:1097px;background:#FFFFFF;" version="1.1" viewBox="0 0 792 1097" width="792px" zoomAndPan="magnify"><defs/><g><ellipse cx="591" cy="16" fill="#222222" rx="10" ry="10" style="stroke:#222222;stroke-width:1.0;"/><g id="Inicial"><rect fill="#F1F1F1" height="50" rx="12.5" ry="12.5" style="stroke:#181818;stroke-width:0.5;" width="61" x="560.5" y="87"/><line style="stroke:#181818;stroke-width:0.5;" x1="560.5" x2="621.5" y1="113.2969" y2="113.2969"/><text fill="#000000" font-family="sans-serif" font-size="14" lengthAdjust="spacing" textLength="41" x="570.5" y="104.9951">Inicial</text></g><path d="M19.5,214 L572.7827,214 A12.5,12.5 0 0 1 585.2827,226.5 L585.2827,240.2969 L7,240.2969 L7,226.5 A12.5,12.5 0 0 1 19.5,214 " fill="#F1F1F1" style="stroke:#F1F1F1;stroke-width:1.0;"/><rect fill="none" height="750.2969" rx="12.5" ry="12.5" style="stroke:#181818;stroke-width:0.5;" width="578.2827" x="7" y="214"/><line style="stroke:#181818;stroke-width:0.5;" x1="7" x2="585.2827" y1="240.2969" y2="240.2969"/><text fill="#000000" font-family="sans-serif" font-size="14" lengthAdjust="spacing" textLength="31" x="280.6414" y="231.9951">FISC</text><g id="FISC.Project_List"><rect fill="#F1F1F1" height="50" rx="12.5" ry="12.5" style="stroke:#181818;stroke-width:0.5;" width="105" x="251.7827" y="252.2969"/><line style="stroke:#181818;stroke-width:0.5;" x1="251.7827" x2="356.7827" y1="278.5938" y2="278.5938"/><text fill="#000000" font-family="sans-serif" font-size="14" lengthAdjust="spacing" textLength="85" x="261.7827" y="270.292">Project_List</text></g><g id="FISC.Project_Dashboard"><rect fill="#F1F1F1" height="50" rx="12.5" ry="12.5" style="stroke:#181818;stroke-width:0.5;" width="156" x="227.2827" y="473.2969"/><line style="stroke:#181818;stroke-width:0.5;" x1="227.2827" x2="383.2827" y1="499.5938" y2="499.5938"/><text fill="#000000" font-family="sans-serif" font-size="14" lengthAdjust="spacing" textLength="136" x="237.2827" y="491.292">Project_Dashboard</text></g><g id="FISC.Configuraci&#243;n_de_Proyecto"><rect fill="#F1F1F1" height="50" rx="12.5" ry="12.5" style="stroke:#181818;stroke-width:0.5;" width="216" x="197.2827" y="370.2969"/><line style="stroke:#181818;stroke-width:0.5;" x1="197.2827" x2="413.2827" y1="396.5938" y2="396.5938"/><text fill="#000000" font-family="sans-serif" font-size="14" lengthAdjust="spacing" textLength="196" x="207.2827" y="388.292">Configuraci&#243;n_de_Proyecto</text></g><g id="FISC.Reporte_Abierto"><rect fill="#F1F1F1" height="50" rx="12.5" ry="12.5" style="stroke:#181818;stroke-width:0.5;" width="142" x="266.2827" y="904.2969"/><line style="stroke:#181818;stroke-width:0.5;" x1="266.2827" x2="408.2827" y1="930.5938" y2="930.5938"/><text fill="#000000" font-family="sans-serif" font-size="14" lengthAdjust="spacing" textLength="122" x="276.2827" y="922.292">Reporte_Abierto</text></g><g id="FISC.Configuraci&#243;n_de_Simulaci&#243;n"><rect fill="#F1F1F1" height="50" rx="12.5" ry="12.5" style="stroke:#181818;stroke-width:0.5;" width="228" x="174.2827" y="606.2969"/><line style="stroke:#181818;stroke-width:0.5;" x1="174.2827" x2="402.2827" y1="632.5938" y2="632.5938"/><text fill="#000000" font-family="sans-serif" font-size="14" lengthAdjust="spacing" textLength="208" x="184.2827" y="624.292">Configuraci&#243;n_de_Simulaci&#243;n</text></g><g id="FISC.Simulando"><rect fill="#F1F1F1" height="50" rx="12.5" ry="12.5" style="stroke:#181818;stroke-width:0.5;" width="94" x="290.2827" y="763.2969"/><line style="stroke:#181818;stroke-width:0.5;" x1="290.2827" x2="384.2827" y1="789.5938" y2="789.5938"/><text fill="#000000" font-family="sans-serif" font-size="14" lengthAdjust="spacing" textLength="74" x="300.2827" y="781.292">Simulando</text></g><!--link Project_List to Project_Dashboard--><g id="link_Project_List_Project_Dashboard"><path d="M251.7567,287.8599 C167.8307,305.5119 18,348.1489 70.2824,420.2969 C105.8035,469.3149 167.5309,486.9597 221.1709,493.5817 " fill="none" id="Project_List-to-Project_Dashboard" style="stroke:#181818;stroke-width:1.0;"/><polygon fill="#181818" points="227.1257,494.3169,218.6836,489.2443,222.1634,493.7043,217.7034,497.184,227.1257,494.3169" style="stroke:#181818;stroke-width:1.0;"/><text fill="#000000" font-family="sans-serif" font-size="13" lengthAdjust="spacing" textLength="91" x="81.7824" y="392.3638">Abrir Proyecto</text><text fill="#000000" font-family="sans-serif" font-size="13" lengthAdjust="spacing" textLength="116" x="71.2824" y="407.4966">Importar Proyecto</text></g><!--link Project_List to Configuraci?n_de_Proyecto--><g id="link_Project_List_Configuraci&#243;n_de_Proyecto"><path d="M261.6147,302.3809 C255.8347,307.5239 250.7197,313.4949 247.2827,320.2969 C240.8677,332.9909 240.8157,339.6299 247.2827,352.2969 C250.7307,359.0509 251.3345,360.9967 257.1005,366.0967 " fill="none" id="Project_List-to-Configuraci&#243;n_de_Proyecto" style="stroke:#181818;stroke-width:1.0;"/><polygon fill="#181818" points="261.5947,370.0719,257.5034,361.113,257.8495,366.7593,252.2032,367.1053,261.5947,370.0719" style="stroke:#181818;stroke-width:1.0;"/><text fill="#000000" font-family="sans-serif" font-size="13" lengthAdjust="spacing" textLength="96" x="248.2827" y="333.3638">Crear Proyecto</text><text fill="#000000" font-family="sans-serif" font-size="13" lengthAdjust="spacing" textLength="98" x="249.2827" y="348.4966">Editar Proyecto</text></g><!--link Project_List to Project_List--><g id="link_Project_List_Project_List"><path d="M356.8577,266.8709 C367.3207,268.0439 374.7827,271.5199 374.7827,277.2969 C374.7827,283.0739 373.2833,285.8814 362.8203,287.0544 " fill="none" id="Project_List-to-Project_List" style="stroke:#181818;stroke-width:1.0;"/><polygon fill="#181818" points="356.8577,287.7229,366.2473,290.6953,361.8266,287.1658,365.356,282.7451,356.8577,287.7229" style="stroke:#181818;stroke-width:1.0;"/><text fill="#000000" font-family="sans-serif" font-size="13" lengthAdjust="spacing" textLength="100" x="386.7827" y="274.3638">Borrar Proyecto</text><text fill="#000000" font-family="sans-serif" font-size="13" lengthAdjust="spacing" textLength="116" x="380.7827" y="289.4966">Exportar Proyecto</text></g><!--link Configuraci?n_de_Proyecto to Project_Dashboard--><g id="link_Configuraci&#243;n_de_Proyecto_Project_Dashboard"><path d="M305.2827,420.4889 C305.2827,436.3629 305.2827,451.0479 305.2827,466.9519 " fill="none" id="Configuraci&#243;n_de_Proyecto-to-Project_Dashboard" style="stroke:#181818;stroke-width:1.0;"/><polygon fill="#181818" points="305.2827,472.9519,309.2827,463.9519,305.2827,467.9519,301.2827,463.9519,305.2827,472.9519" style="stroke:#181818;stroke-width:1.0;"/><text fill="#000000" font-family="sans-serif" font-size="13" lengthAdjust="spacing" textLength="50" x="306.2827" y="451.3638">Aceptar</text></g><!--link Configuraci?n_de_Proyecto to Project_List--><g id="link_Configuraci&#243;n_de_Proyecto_Project_List"><path d="M337.0477,370.2939 C342.0287,364.9569 346.4577,358.8989 349.2827,352.2969 C354.8777,339.2219 354.9507,333.3409 349.2827,320.2969 C346.4717,313.8279 346.2259,312.2768 341.3139,307.0458 " fill="none" id="Configuraci&#243;n_de_Proyecto-to-Project_List" style="stroke:#181818;stroke-width:1.0;"/><polygon fill="#181818" points="337.2067,302.6719,340.4515,311.9709,340.6293,306.3168,346.2834,306.4946,337.2067,302.6719" style="stroke:#181818;stroke-width:1.0;"/></g><!--link Project_Dashboard to Project_List--><g id="link_Project_Dashboard_Project_List"><path d="M364.5797,473.1969 C386.8397,460.8909 409.7637,443.5219 422.2827,420.2969 C432.8267,400.7349 431.4527,390.5389 422.2827,370.2969 C408.7757,340.4829 385.128,320.8113 359.365,305.3913 " fill="none" id="Project_Dashboard-to-Project_List" style="stroke:#181818;stroke-width:1.0;"/><polygon fill="#181818" points="354.2167,302.3099,359.8849,310.3642,358.5069,304.8777,363.9934,303.4998,354.2167,302.3099" style="stroke:#181818;stroke-width:1.0;"/><text fill="#000000" font-family="sans-serif" font-size="13" lengthAdjust="spacing" textLength="95" x="430.2827" y="399.8638">Ver Simulaci&#243;n</text></g><!--link Project_Dashboard to Reporte_Abierto--><g id="link_Project_Dashboard_Reporte_Abierto"><path d="M239.6927,523.4399 C195.8947,544.2689 146.2824,579.1509 146.2824,630.2969 C146.2824,630.2969 146.2824,630.2969 146.2824,859.7969 C146.2824,886.2177 205.9801,903.9839 260.2841,915.169 " fill="none" id="Project_Dashboard-to-Reporte_Abierto" style="stroke:#181818;stroke-width:1.0;"/><polygon fill="#181818" points="266.1607,916.3794,258.1527,910.646,261.2635,915.3707,256.5388,918.4815,266.1607,916.3794" style="stroke:#181818;stroke-width:1.0;"/><text fill="#000000" font-family="sans-serif" font-size="13" lengthAdjust="spacing" textLength="95" x="147.2824" y="741.3638">Ver Simulaci&#243;n</text></g><!--link Project_Dashboard to Configuraci?n_de_Simulaci?n--><g id="link_Project_Dashboard_Configuraci&#243;n_de_Simulaci&#243;n"><path d="M250.2637,523.3909 C243.8877,528.4019 238.2557,534.3299 234.2827,541.2969 C223.9337,559.4419 225.1047,569.5319 234.2827,588.2969 C237.5697,595.0189 238.1053,596.9004 243.6853,602.0624 " fill="none" id="Project_Dashboard-to-Configuraci&#243;n_de_Simulaci&#243;n" style="stroke:#181818;stroke-width:1.0;"/><polygon fill="#181818" points="248.0897,606.1369,244.1994,597.0889,244.4194,602.7415,238.7668,602.9614,248.0897,606.1369" style="stroke:#181818;stroke-width:1.0;"/><text fill="#000000" font-family="sans-serif" font-size="13" lengthAdjust="spacing" textLength="113" x="240.2827" y="554.3638">Nueva simulaci&#243;n</text><text fill="#000000" font-family="sans-serif" font-size="13" lengthAdjust="spacing" textLength="109" x="242.2827" y="569.4966">Editar simulaci&#243;n</text><text fill="#000000" font-family="sans-serif" font-size="13" lengthAdjust="spacing" textLength="127" x="235.2827" y="584.6294">Importar simulaci&#243;n</text></g><!--link Project_Dashboard to Project_Dashboard--><g id="link_Project_Dashboard_Project_Dashboard"><path d="M383.6297,489.9799 C394.2267,491.3739 401.2827,494.1469 401.2827,498.2969 C401.2827,502.4469 400.1755,504.4373 389.5785,505.8313 " fill="none" id="Project_Dashboard-to-Project_Dashboard" style="stroke:#181818;stroke-width:1.0;"/><polygon fill="#181818" points="383.6297,506.6139,393.0745,509.4059,388.587,505.9618,392.0311,501.4742,383.6297,506.6139" style="stroke:#181818;stroke-width:1.0;"/><text fill="#000000" font-family="sans-serif" font-size="13" lengthAdjust="spacing" textLength="112" x="413.2827" y="495.3638">Borrar Simulaci&#243;n</text><text fill="#000000" font-family="sans-serif" font-size="13" lengthAdjust="spacing" textLength="128" x="407.2827" y="510.4966">Exportar Simulaci&#243;n</text></g><!--link Configuraci?n_de_Simulaci?n to Project_Dashboard--><g id="link_Configuraci&#243;n_de_Simulaci&#243;n_Project_Dashboard"><path d="M347.0677,606.1009 C353.5147,601.1379 359.2077,595.2489 363.2827,588.2969 C373.8447,570.2759 372.7807,559.9019 363.2827,541.2969 C359.8337,534.5429 359.2296,532.5974 353.4646,527.4974 " fill="none" id="Configuraci&#243;n_de_Simulaci&#243;n-to-Project_Dashboard" style="stroke:#181818;stroke-width:1.0;"/><polygon fill="#181818" points="348.9707,523.5219,353.0612,532.4811,352.7156,526.8348,358.3619,526.4892,348.9707,523.5219" style="stroke:#181818;stroke-width:1.0;"/></g><!--link Configuraci?n_de_Simulaci?n to Configuraci?n_de_Simulaci?n--><g id="link_Configuraci&#243;n_de_Simulaci&#243;n_Configuraci&#243;n_de_Simulaci&#243;n"><path d="M402.3367,624.9289 C413.3217,626.2209 420.2827,628.3439 420.2827,631.2969 C420.2827,634.2499 419.2806,635.672 408.2956,636.964 " fill="none" id="Configuraci&#243;n_de_Simulaci&#243;n-to-Configuraci&#243;n_de_Simulaci&#243;n" style="stroke:#181818;stroke-width:1.0;"/><polygon fill="#181818" points="402.3367,637.6649,411.7423,640.5862,407.3025,637.0808,410.8078,632.641,402.3367,637.6649" style="stroke:#181818;stroke-width:1.0;"/><text fill="#000000" font-family="sans-serif" font-size="13" lengthAdjust="spacing" textLength="116" x="426.2827" y="635.8638">Editar Par&#225;metros</text></g><!--link Configuraci?n_de_Simulaci?n to Simulando--><g id="link_Configuraci&#243;n_de_Simulaci&#243;n_Simulando"><path d="M279.2117,656.3989 C274.6697,672.1009 271.2827,692.8369 277.2827,710.2969 C284.1667,730.3309 294.5531,744.7592 307.5561,758.7822 " fill="none" id="Configuraci&#243;n_de_Simulaci&#243;n-to-Simulando" style="stroke:#181818;stroke-width:1.0;"/><polygon fill="#181818" points="311.6357,763.1819,308.4494,753.8627,308.236,759.5155,302.5832,759.3022,311.6357,763.1819" style="stroke:#181818;stroke-width:1.0;"/><text fill="#000000" font-family="sans-serif" font-size="13" lengthAdjust="spacing" textLength="110" x="278.2827" y="706.3638">Iniciar Simulaci&#243;n</text></g><!--link Simulando to Configuraci?n_de_Simulaci?n--><g id="link_Simulando_Configuraci&#243;n_de_Simulaci&#243;n"><path d="M365.2457,763.2809 C383.8687,744.2509 402.6637,717.0109 389.2827,693.2969 C380.4237,677.5969 370.8879,668.5325 355.4049,659.3945 " fill="none" id="Simulando-to-Configuraci&#243;n_de_Simulaci&#243;n" style="stroke:#181818;stroke-width:1.0;"/><polygon fill="#181818" points="350.2377,656.3449,355.9554,664.3641,354.5437,658.8862,360.0216,657.4746,350.2377,656.3449" style="stroke:#181818;stroke-width:1.0;"/><text fill="#000000" font-family="sans-serif" font-size="13" lengthAdjust="spacing" textLength="129" x="394.2827" y="706.3638">Cancelar Simulaci&#243;n</text></g><!--link Simulando to Simulando--><g id="link_Simulando_Simulando"><path d="M384.3177,780.6339 C394.7117,781.3539 402.2827,783.9079 402.2827,788.2969 C402.2827,792.6859 400.6974,794.8252 390.3034,795.5452 " fill="none" id="Simulando-to-Simulando" style="stroke:#181818;stroke-width:1.0;"/><polygon fill="#181818" points="384.3177,795.9599,393.5726,799.3284,389.3057,795.6143,393.0198,791.3475,384.3177,795.9599" style="stroke:#181818;stroke-width:1.0;"/><text fill="#000000" font-family="sans-serif" font-size="13" lengthAdjust="spacing" textLength="25" x="408.2827" y="792.8638">VES</text></g><!--link Simulando to Reporte_Abierto--><g id="link_Simulando_Reporte_Abierto"><path d="M337.2827,813.5089 C337.2827,838.8659 337.2827,872.4686 337.2827,897.896 " fill="none" id="Simulando-to-Reporte_Abierto" style="stroke:#181818;stroke-width:1.0;"/><polygon fill="#181818" points="337.2827,903.896,341.2827,894.896,337.2827,898.896,333.2827,894.896,337.2827,903.896" style="stroke:#181818;stroke-width:1.0;"/><text fill="#000000" font-family="sans-serif" font-size="13" lengthAdjust="spacing" textLength="25" x="338.2827" y="863.3638">VES</text></g><!--link Reporte_Abierto to Reporte_Abierto--><g id="link_Reporte_Abierto_Reporte_Abierto"><path d="M408.5077,922.153 C419.1107,923.2652 426.2827,925.6465 426.2827,929.2969 C426.2827,932.9473 425.078,934.7026 414.475,935.8148 " fill="none" id="Reporte_Abierto-to-Reporte_Abierto" style="stroke:#181818;stroke-width:1.0;"/><polygon fill="#181818" points="408.5077,936.4408,417.8759,939.48,413.4804,935.9192,417.0413,931.5237,408.5077,936.4408" style="stroke:#181818;stroke-width:1.0;"/><text fill="#000000" font-family="sans-serif" font-size="13" lengthAdjust="spacing" textLength="110" x="432.2827" y="933.8638">Exportar Reporte</text></g><!--link Reporte_Abierto to Project_Dashboard--><g id="link_Reporte_Abierto_Project_Dashboard"><path d="M408.3427,921.7508 C478.7937,913.238 576.2827,895.0832 576.2827,859.7969 C576.2827,630.2969 576.2827,630.2969 576.2827,630.2969 C576.2827,543.9419 469.3152,515.2327 389.2572,505.2027 " fill="none" id="Reporte_Abierto-to-Project_Dashboard" style="stroke:#181818;stroke-width:1.0;"/><polygon fill="#181818" points="383.3037,504.4569,391.7366,509.5447,388.2649,505.0784,392.7311,501.6067,383.3037,504.4569" style="stroke:#181818;stroke-width:1.0;"/></g><g id="Registrando_Usuario"><rect fill="#F1F1F1" height="50" rx="12.5" ry="12.5" style="stroke:#181818;stroke-width:0.5;" width="165" x="620.5" y="564"/><line style="stroke:#181818;stroke-width:0.5;" x1="620.5" x2="785.5" y1="590.2969" y2="590.2969"/><text fill="#000000" font-family="sans-serif" font-size="14" lengthAdjust="spacing" textLength="145" x="630.5" y="581.9951">Registrando_Usuario</text></g><g id="Log"><rect fill="#F1F1F1" height="50" rx="12.5" ry="12.5" style="stroke:#181818;stroke-width:0.5;" width="50" x="138" y="1041"/><line style="stroke:#181818;stroke-width:0.5;" x1="138" x2="188" y1="1067.2969" y2="1067.2969"/><text fill="#000000" font-family="sans-serif" font-size="14" lengthAdjust="spacing" textLength="26" x="150" y="1058.9951">Log</text></g><ellipse cx="346" cy="1066" fill="none" rx="11" ry="11" style="stroke:#222222;stroke-width:1.0;"/><ellipse cx="346" cy="1066" fill="#222222" rx="6" ry="6" style="stroke:#222222;stroke-width:1.0;"/><!--link *start* to Inicial--><g id="link_*start*_Inicial"><path d="M591,26.01 C591,39.89 591,60.97 591,80.84 " fill="none" id="*start*-to-Inicial" style="stroke:#181818;stroke-width:1.0;"/><polygon fill="#181818" points="591,86.84,595,77.84,591,81.84,587,77.84,591,86.84" style="stroke:#181818;stroke-width:1.0;"/></g><!--link Inicial to FISC--><g id="link_Inicial_FISC"><path d="M567.18,137.078 C558.784,146.11 549.562,156.69 542,167 C530.86,182.188 523.1704,192.9534 512.2574,209.0124 " fill="none" id="Inicial-to-FISC" style="stroke:#181818;stroke-width:1.0;"/><polygon fill="#181818" points="508.885,213.975,517.2519,208.7794,511.6953,209.8395,510.6351,204.2829,508.885,213.975" style="stroke:#181818;stroke-width:1.0;"/><text fill="#000000" font-family="sans-serif" font-size="13" lengthAdjust="spacing" textLength="34" x="543" y="180.0669">Login</text></g><!--link Inicial to Registrando_Usuario--><g id="link_Inicial_Registrando_Usuario"><path d="M586.897,137.264 C585.318,151.11 584.606,168.703 588,184 C591.187,198.364 596.952,200.179 602,214 C649.072,342.876 684.0126,497.9809 696.7716,558.0589 " fill="none" id="Inicial-to-Registrando_Usuario" style="stroke:#181818;stroke-width:1.0;"/><polygon fill="#181818" points="698.018,563.928,700.0611,554.2934,696.9793,559.0371,692.2356,555.9553,698.018,563.928" style="stroke:#181818;stroke-width:1.0;"/><text fill="#000000" font-family="sans-serif" font-size="13" lengthAdjust="spacing" textLength="87" x="589" y="180.0669">Crear Usuario</text></g><!--link Registrando_Usuario to Inicial--><g id="link_Registrando_Usuario_Inicial"><path d="M709.017,563.896 C724.603,495.743 759.815,298.099 681,167 C667.856,145.136 647.7375,133.2778 627.1595,124.9888 " fill="none" id="Registrando_Usuario-to-Inicial" style="stroke:#181818;stroke-width:1.0;"/><polygon fill="#181818" points="621.594,122.747,628.4476,129.82,626.2319,124.6152,631.4367,122.3994,621.594,122.747" style="stroke:#181818;stroke-width:1.0;"/></g><!--link Log to Log--><g id="link_Log_Log"><path d="M188.278,1055.5103 C205.773,1052.3315 223,1055.8281 223,1066 C223,1076.1719 211.6763,1080.7411 194.1813,1077.5623 " fill="none" id="Log-to-Log" style="stroke:#181818;stroke-width:1.0;"/><polygon fill="#181818" points="188.278,1076.4897,196.4179,1082.0342,193.1975,1077.3836,197.8481,1074.1631,188.278,1076.4897" style="stroke:#181818;stroke-width:1.0;"/><text fill="#000000" font-family="sans-serif" font-size="13" lengthAdjust="spacing" textLength="82" x="229" y="1070.5669">Exportar Log</text></g><!--link FISC to Log--><g id="link_FISC_Log"><path d="M191.206,964.265 C182.32,996 176.4358,1017.0154 171.4078,1034.9728 " fill="none" id="FISC-to-Log" style="stroke:#181818;stroke-width:1.0;"/><polygon fill="#181818" points="169.79,1040.7506,176.0685,1033.1624,171.1381,1035.9358,168.3648,1031.0054,169.79,1040.7506" style="stroke:#181818;stroke-width:1.0;"/><text fill="#000000" font-family="sans-serif" font-size="13" lengthAdjust="spacing" textLength="57" x="184" y="1007.0669">Abrir Log</text></g><!--link FISC to *end*--><g id="link_FISC_*end*"><path d="M335.396,964.265 C339.778,1005.8885 342.6358,1033.0436 344.3028,1048.8784 " fill="none" id="FISC-to-*end*" style="stroke:#181818;stroke-width:1.0;"/><polygon fill="#181818" points="344.931,1054.8454,347.9668,1045.4761,344.4075,1049.8729,340.0107,1046.3136,344.931,1054.8454" style="stroke:#181818;stroke-width:1.0;"/><text fill="#000000" font-family="sans-serif" font-size="13" lengthAdjust="spacing" textLength="50" x="341" y="1007.0669">Log Out</text></g><!--SRC=[ZLHBJiCm4DtFARokb0jaWLH2aIfLW1hHJQaYDp6jKMDN4mU148VX31oX5yE9yt6TX6HdlvdtvcVFThOZddT3beB7d9u0gWFn4etUByE0-6Gb3rnSMzRim3E5L2GoUivoYbngnm0PHLBT0VgSIdOJBLHKCHFc2vvGlh5OHIjDCdurSaUpurvIJ7motoF7ml2f3PAyY6LwbgXeY_Ne15AyyaEEDEQNNn4bBAgTwvmjmKN2H-Hin2Ut4j5H-71JWk4CXYkDsLcBJAOMsG1qXFfItZ0a8K_paz4S8grPKGUBvdlEiEZLH5utOulaauUSlLEIjL3Rz6km6QqDzmNr-ZjOJIQyZbGFnou4_arvO4HJI2EjgDyQnSjFoXJAR8ge0VIlygkVv1JJs4rdHd88g8ZPoT5m9Ao8cqNeMhllHFk0WmuygMOSbQMVrktzDu1UIoQ-FbX2-WRbHYcPfSqiZTQWyUriLousyfYhFm00]--></g></svg>