<svg xmlns="http://www.w3.org/2000/svg" xmlns:xlink="http://www.w3.org/1999/xlink" contentStyleType="text/css" height="544px" preserveAspectRatio="none" style="width:417px;height:544px;background:#FFFFFF;" version="1.1" viewBox="0 0 417 544" width="417px" zoomAndPan="magnify"><defs/><g><text fill="#000000" font-family="sans-serif" font-size="14" font-weight="bold" lengthAdjust="spacing" textLength="290" x="56.5" y="22.9951">Diagrama de Clases - Aplicaci&#243;n FISC</text><!--class Usuario--><g id="elem_Usuario"><rect codeLine="3" fill="#F1F1F1" height="80.5938" id="Usuario" rx="2.5" ry="2.5" style="stroke:#181818;stroke-width:0.5;" width="84" x="7" y="275.2269"/><ellipse cx="22" cy="291.2269" fill="#ADD1B2" rx="11" ry="11" style="stroke:#181818;stroke-width:1.0;"/><path d="M24.9688,296.8675 Q24.3906,297.1644 23.75,297.305 Q23.1094,297.4613 22.4063,297.4613 Q19.9063,297.4613 18.5781,295.8206 Q17.2656,294.1644 17.2656,291.0394 Q17.2656,287.9144 18.5781,286.2581 Q19.9063,284.6019 22.4063,284.6019 Q23.1094,284.6019 23.75,284.7581 Q24.4063,284.9144 24.9688,285.2113 L24.9688,287.93 Q24.3438,287.3519 23.75,287.0863 Q23.1563,286.805 22.5313,286.805 Q21.1875,286.805 20.5,287.8831 Q19.8125,288.9456 19.8125,291.0394 Q19.8125,293.1331 20.5,294.2113 Q21.1875,295.2738 22.5313,295.2738 Q23.1563,295.2738 23.75,295.0081 Q24.3438,294.7269 24.9688,294.1488 L24.9688,296.8675 Z " fill="#000000"/><text fill="#000000" font-family="sans-serif" font-size="14" lengthAdjust="spacing" textLength="52" x="36" y="296.0736">Usuario</text><line style="stroke:#181818;stroke-width:0.5;" x1="8" x2="90" y1="307.2269" y2="307.2269"/><rect fill="none" height="6" style="stroke:#C82930;stroke-width:1.0;" width="6" x="15" y="317.8753"/><text fill="#000000" font-family="sans-serif" font-size="14" lengthAdjust="spacing" textLength="54" x="27" y="324.222">nombre</text><rect fill="none" height="6" style="stroke:#C82930;stroke-width:1.0;" width="6" x="15" y="334.1722"/><text fill="#000000" font-family="sans-serif" font-size="14" lengthAdjust="spacing" textLength="12" x="27" y="340.5189">id</text><line style="stroke:#181818;stroke-width:0.5;" x1="8" x2="90" y1="347.8206" y2="347.8206"/></g><!--class Proyecto--><g id="elem_Proyecto"><rect codeLine="8" fill="#F1F1F1" height="64.2969" id="Proyecto" rx="2.5" ry="2.5" style="stroke:#181818;stroke-width:0.5;" width="93" x="75.5" y="85.0369"/><ellipse cx="90.5" cy="101.0369" fill="#ADD1B2" rx="11" ry="11" style="stroke:#181818;stroke-width:1.0;"/><path d="M93.4688,106.6775 Q92.8906,106.9744 92.25,107.115 Q91.6094,107.2713 90.9063,107.2713 Q88.4063,107.2713 87.0781,105.6306 Q85.7656,103.9744 85.7656,100.8494 Q85.7656,97.7244 87.0781,96.0681 Q88.4063,94.4119 90.9063,94.4119 Q91.6094,94.4119 92.25,94.5681 Q92.9063,94.7244 93.4688,95.0213 L93.4688,97.74 Q92.8438,97.1619 92.25,96.8963 Q91.6563,96.615 91.0313,96.615 Q89.6875,96.615 89,97.6931 Q88.3125,98.7556 88.3125,100.8494 Q88.3125,102.9431 89,104.0213 Q89.6875,105.0838 91.0313,105.0838 Q91.6563,105.0838 92.25,104.8181 Q92.8438,104.5369 93.4688,103.9588 L93.4688,106.6775 Z " fill="#000000"/><text fill="#000000" font-family="sans-serif" font-size="14" lengthAdjust="spacing" textLength="61" x="104.5" y="105.8836">Proyecto</text><line style="stroke:#181818;stroke-width:0.5;" x1="76.5" x2="167.5" y1="117.0369" y2="117.0369"/><rect fill="none" height="6" style="stroke:#C82930;stroke-width:1.0;" width="6" x="83.5" y="127.6853"/><text fill="#000000" font-family="sans-serif" font-size="14" lengthAdjust="spacing" textLength="54" x="95.5" y="134.032">nombre</text><line style="stroke:#181818;stroke-width:0.5;" x1="76.5" x2="167.5" y1="141.3338" y2="141.3338"/></g><!--class Simulaci?n--><g id="elem_Simulaci&#243;n"><rect codeLine="12" fill="#F1F1F1" height="145.7813" id="Simulaci&#243;n" rx="2.5" ry="2.5" style="stroke:#181818;stroke-width:0.5;" width="150" x="260" y="44.2969"/><ellipse cx="294.8" cy="60.2969" fill="#ADD1B2" rx="11" ry="11" style="stroke:#181818;stroke-width:1.0;"/><path d="M297.7688,65.9375 Q297.1906,66.2344 296.55,66.375 Q295.9094,66.5313 295.2063,66.5313 Q292.7063,66.5313 291.3781,64.8906 Q290.0656,63.2344 290.0656,60.1094 Q290.0656,56.9844 291.3781,55.3281 Q292.7063,53.6719 295.2063,53.6719 Q295.9094,53.6719 296.55,53.8281 Q297.2063,53.9844 297.7688,54.2813 L297.7688,57 Q297.1438,56.4219 296.55,56.1563 Q295.9563,55.875 295.3313,55.875 Q293.9875,55.875 293.3,56.9531 Q292.6125,58.0156 292.6125,60.1094 Q292.6125,62.2031 293.3,63.2813 Q293.9875,64.3438 295.3313,64.3438 Q295.9563,64.3438 296.55,64.0781 Q297.1438,63.7969 297.7688,63.2188 L297.7688,65.9375 Z " fill="#000000"/><text fill="#000000" font-family="sans-serif" font-size="14" lengthAdjust="spacing" textLength="74" x="313.2" y="65.1436">Simulaci&#243;n</text><line style="stroke:#181818;stroke-width:0.5;" x1="261" x2="409" y1="76.2969" y2="76.2969"/><rect fill="none" height="6" style="stroke:#C82930;stroke-width:1.0;" width="6" x="268" y="86.9453"/><text fill="#000000" font-family="sans-serif" font-size="14" lengthAdjust="spacing" textLength="124" x="280" y="93.292">tipolog&#237;aElemento</text><rect fill="none" height="6" style="stroke:#C82930;stroke-width:1.0;" width="6" x="268" y="103.2422"/><text fill="#000000" font-family="sans-serif" font-size="14" lengthAdjust="spacing" textLength="54" x="280" y="109.5889">material</text><rect fill="none" height="6" style="stroke:#C82930;stroke-width:1.0;" width="6" x="268" y="119.5391"/><text fill="#000000" font-family="sans-serif" font-size="14" lengthAdjust="spacing" textLength="79" x="280" y="125.8857">localizaci&#243;n</text><rect fill="none" height="6" style="stroke:#C82930;stroke-width:1.0;" width="6" x="268" y="135.8359"/><text fill="#000000" font-family="sans-serif" font-size="14" lengthAdjust="spacing" textLength="115" x="280" y="142.1826">agresi&#243;nT&#233;rmica</text><rect fill="none" height="6" style="stroke:#C82930;stroke-width:1.0;" width="6" x="268" y="152.1328"/><text fill="#000000" font-family="sans-serif" font-size="14" lengthAdjust="spacing" textLength="109" x="280" y="158.4795">gr&#225;ficaReacci&#243;n</text><rect fill="none" height="6" style="stroke:#C82930;stroke-width:1.0;" width="6" x="268" y="168.4297"/><text fill="#000000" font-family="sans-serif" font-size="14" lengthAdjust="spacing" textLength="112" x="280" y="174.7764">fechaSimulaci&#243;n</text><line style="stroke:#181818;stroke-width:0.5;" x1="261" x2="409" y1="182.0781" y2="182.0781"/></g><!--class Log--><g id="elem_Log"><rect codeLine="21" fill="#F1F1F1" height="96.8906" id="Log" rx="2.5" ry="2.5" style="stroke:#181818;stroke-width:0.5;" width="96" x="57" y="440.9669"/><ellipse cx="89.55" cy="456.9669" fill="#ADD1B2" rx="11" ry="11" style="stroke:#181818;stroke-width:1.0;"/><path d="M92.5188,462.6075 Q91.9406,462.9044 91.3,463.045 Q90.6594,463.2013 89.9563,463.2013 Q87.4563,463.2013 86.1281,461.5606 Q84.8156,459.9044 84.8156,456.7794 Q84.8156,453.6544 86.1281,451.9981 Q87.4563,450.3419 89.9563,450.3419 Q90.6594,450.3419 91.3,450.4981 Q91.9563,450.6544 92.5188,450.9513 L92.5188,453.67 Q91.8938,453.0919 91.3,452.8263 Q90.7063,452.545 90.0813,452.545 Q88.7375,452.545 88.05,453.6231 Q87.3625,454.6856 87.3625,456.7794 Q87.3625,458.8731 88.05,459.9513 Q88.7375,461.0138 90.0813,461.0138 Q90.7063,461.0138 91.3,460.7481 Q91.8938,460.4669 92.5188,459.8888 L92.5188,462.6075 Z " fill="#000000"/><text fill="#000000" font-family="sans-serif" font-size="14" lengthAdjust="spacing" textLength="25" x="107.45" y="461.8136">Log</text><line style="stroke:#181818;stroke-width:0.5;" x1="58" x2="152" y1="472.9669" y2="472.9669"/><rect fill="none" height="6" style="stroke:#C82930;stroke-width:1.0;" width="6" x="65" y="483.6153"/><text fill="#000000" font-family="sans-serif" font-size="14" lengthAdjust="spacing" textLength="62" x="77" y="489.962">acciones</text><rect fill="none" height="6" style="stroke:#C82930;stroke-width:1.0;" width="6" x="65" y="499.9122"/><text fill="#000000" font-family="sans-serif" font-size="14" lengthAdjust="spacing" textLength="70" x="77" y="506.2589">fechaHora</text><rect fill="none" height="6" style="stroke:#C82930;stroke-width:1.0;" width="6" x="65" y="516.2091"/><text fill="#000000" font-family="sans-serif" font-size="14" lengthAdjust="spacing" textLength="54" x="77" y="522.5557">detalles</text><line style="stroke:#181818;stroke-width:0.5;" x1="58" x2="152" y1="529.8575" y2="529.8575"/></g><!--class Reporte--><g id="elem_Reporte"><rect codeLine="27" fill="#F1F1F1" height="96.8906" id="Reporte" rx="2.5" ry="2.5" style="stroke:#181818;stroke-width:0.5;" width="99" x="285.5" y="267.0769"/><ellipse cx="305.45" cy="283.0769" fill="#ADD1B2" rx="11" ry="11" style="stroke:#181818;stroke-width:1.0;"/><path d="M308.4188,288.7175 Q307.8406,289.0144 307.2,289.155 Q306.5594,289.3113 305.8563,289.3113 Q303.3563,289.3113 302.0281,287.6706 Q300.7156,286.0144 300.7156,282.8894 Q300.7156,279.7644 302.0281,278.1081 Q303.3563,276.4519 305.8563,276.4519 Q306.5594,276.4519 307.2,276.6081 Q307.8563,276.7644 308.4188,277.0613 L308.4188,279.78 Q307.7938,279.2019 307.2,278.9363 Q306.6063,278.655 305.9813,278.655 Q304.6375,278.655 303.95,279.7331 Q303.2625,280.7956 303.2625,282.8894 Q303.2625,284.9831 303.95,286.0613 Q304.6375,287.1238 305.9813,287.1238 Q306.6063,287.1238 307.2,286.8581 Q307.7938,286.5769 308.4188,285.9988 L308.4188,288.7175 Z " fill="#000000"/><text fill="#000000" font-family="sans-serif" font-size="14" lengthAdjust="spacing" textLength="56" x="320.55" y="287.9236">Reporte</text><line style="stroke:#181818;stroke-width:0.5;" x1="286.5" x2="383.5" y1="299.0769" y2="299.0769"/><rect fill="none" height="6" style="stroke:#C82930;stroke-width:1.0;" width="6" x="293.5" y="309.7253"/><text fill="#000000" font-family="sans-serif" font-size="14" lengthAdjust="spacing" textLength="73" x="305.5" y="316.072">resultados</text><rect fill="none" height="6" style="stroke:#C82930;stroke-width:1.0;" width="6" x="293.5" y="326.0222"/><text fill="#000000" font-family="sans-serif" font-size="14" lengthAdjust="spacing" textLength="53" x="305.5" y="332.3689">formato</text><rect fill="none" height="6" style="stroke:#C82930;stroke-width:1.0;" width="6" x="293.5" y="342.3191"/><text fill="#000000" font-family="sans-serif" font-size="14" lengthAdjust="spacing" textLength="53" x="305.5" y="348.6657">gr&#225;ficas</text><line style="stroke:#181818;stroke-width:0.5;" x1="286.5" x2="383.5" y1="355.9675" y2="355.9675"/></g><!--link Proyecto to Simulaci?n--><g id="link_Proyecto_Simulaci&#243;n"><path codeLine="34" d="M168.74,117.1869 C195.44,117.1869 229.54,117.1869 259.91,117.1869 " fill="none" id="Proyecto-Simulaci&#243;n" style="stroke:#181818;stroke-width:1.0;"/><text fill="#000000" font-family="sans-serif" font-size="13" lengthAdjust="spacing" textLength="55" x="186.75" y="110.2538">contiene</text></g><!--link Simulaci?n to Reporte--><g id="link_Simulaci&#243;n_Reporte"><path codeLine="35" d="M335,190.4569 C335,215.9369 335,243.9169 335,266.8469 " fill="none" id="Simulaci&#243;n-Reporte" style="stroke:#181818;stroke-width:1.0;"/><text fill="#000000" font-family="sans-serif" font-size="13" lengthAdjust="spacing" textLength="52" x="336" y="233.1438">produce</text></g><!--link Proyecto to Usuario--><g id="link_Proyecto_Usuario"><path codeLine="36" d="M92.03,149.7869 C76.25,168.6269 58.47,193.9069 50,220.0769 C44.35,237.5469 43.45,257.8069 44.23,275.0769 " fill="none" id="Proyecto-Usuario" style="stroke:#181818;stroke-width:1.0;"/><text fill="#000000" font-family="sans-serif" font-size="13" lengthAdjust="spacing" textLength="83" x="51" y="233.1438">realizado por</text></g><!--link Usuario to Log--><g id="link_Usuario_Log"><path codeLine="37" d="M61.85,355.9569 C70.05,381.1369 80.73,413.9269 89.42,440.5869 " fill="none" id="Usuario-Log" style="stroke:#181818;stroke-width:1.0;"/><text fill="#000000" font-family="sans-serif" font-size="13" lengthAdjust="spacing" textLength="49" x="80" y="407.0338">registra</text></g><!--link Proyecto to Log--><g id="link_Proyecto_Log"><path codeLine="38" d="M128.98,149.7769 C139.78,203.8869 157.36,317.5069 138,410.9669 C135.95,420.8369 132.61,431.0169 128.83,440.6169 " fill="none" id="Proyecto-Log" style="stroke:#181818;stroke-width:1.0;"/><text fill="#000000" font-family="sans-serif" font-size="13" lengthAdjust="spacing" textLength="49" x="148" y="320.0838">registra</text></g><!--SRC=[PL4zJiKm3DvpYgXxBy267Y2G6D1xS02J-9L8JbqvwG28mp0oC764NWotfA4yijdVZpyxEMH2Un6W4uXWFTeTGS9aMti-K73WmlJLswkRmyuOfr2o3sa42MnVZTNNsfxZes0fWZTlA_5E-1bT_iUiX4E88vK9AoU7WOcxwHCk2IFscGiG8QC4e58IEw3mygCkFLq2qrpVJnyIDNpfTpAz7xNS8xWj_uZk2JOXVfFTSbSJpHhkCMr5roohkSSCH0fNyHu7bepLG4EDbC5pjM3HRVWatU9Wwj4KsTxdp3QE-nomnyPiWRQj0vKp2FlHAQNwABx-cEA2ozKyMvKqPaMKDA-y4BgGii1VXrFm6m00]--></g></svg>