<?xml version="1.0" encoding="us-ascii" standalone="no"?><svg xmlns="http://www.w3.org/2000/svg" xmlns:xlink="http://www.w3.org/1999/xlink" contentStyleType="text/css" height="1748px" preserveAspectRatio="none" style="width:644px;height:1748px;background:#FFFFFF;" version="1.1" viewBox="0 0 644 1748" width="644px" zoomAndPan="magnify"><defs/><g><text fill="#000000" font-family="sans-serif" font-size="14" font-weight="bold" lengthAdjust="spacing" textLength="311" x="156.5" y="22.9951">Diagrama de Estados - Aplicaci&#243;n FISK</text><!--cluster Guardando--><g id="cluster_Guardando"><path d="M262.5,1229.2969 L618.5,1229.2969 A12.5,12.5 0 0 1 631,1241.7969 L631,1250.5938 L250,1250.5938 L250,1241.7969 A12.5,12.5 0 0 1 262.5,1229.2969 " fill="#F1F1F1" style="stroke:#F1F1F1;stroke-width:1.0;"/><rect fill="none" height="325" rx="12.5" ry="12.5" style="stroke:#181818;stroke-width:0.5;" width="381" x="250" y="1229.2969"/><line style="stroke:#181818;stroke-width:0.5;" x1="250" x2="631" y1="1250.5938" y2="1250.5938"/><text fill="#000000" font-family="sans-serif" font-size="14" lengthAdjust="spacing" textLength="77" x="402" y="1246.292">Guardando</text></g><ellipse cx="422" cy="1282.2969" fill="#222222" rx="10" ry="10" style="stroke:#222222;stroke-width:1.0;"/><g id="Guardando.OpcionesGuardado"><rect fill="#F1F1F1" height="50" rx="12.5" ry="12.5" style="stroke:#181818;stroke-width:0.5;" width="155" x="344.5" y="1353.2969"/><line style="stroke:#181818;stroke-width:0.5;" x1="344.5" x2="499.5" y1="1379.5938" y2="1379.5938"/><text fill="#000000" font-family="sans-serif" font-size="14" lengthAdjust="spacing" textLength="135" x="354.5" y="1371.292">OpcionesGuardado</text></g><g id="Guardando.GuardarProyecto"><rect fill="#F1F1F1" height="50" rx="12.5" ry="12.5" style="stroke:#181818;stroke-width:0.5;" width="141" x="282.5" y="1480.2969"/><line style="stroke:#181818;stroke-width:0.5;" x1="282.5" x2="423.5" y1="1506.5938" y2="1506.5938"/><text fill="#000000" font-family="sans-serif" font-size="14" lengthAdjust="spacing" textLength="121" x="292.5" y="1498.292">GuardarProyecto</text></g><g id="Guardando.ExportarProyecto"><rect fill="#F1F1F1" height="50" rx="12.5" ry="12.5" style="stroke:#181818;stroke-width:0.5;" width="148" x="459" y="1480.2969"/><line style="stroke:#181818;stroke-width:0.5;" x1="459" x2="607" y1="1506.5938" y2="1506.5938"/><text fill="#000000" font-family="sans-serif" font-size="14" lengthAdjust="spacing" textLength="128" x="469" y="1498.292">ExportarProyecto</text></g><ellipse cx="258" cy="53.2969" fill="#222222" rx="10" ry="10" style="stroke:#222222;stroke-width:1.0;"/><g id="CreandoProyecto"><rect fill="#F1F1F1" height="50" rx="12.5" ry="12.5" style="stroke:#181818;stroke-width:0.5;" width="145" x="185.5" y="124.2969"/><line style="stroke:#181818;stroke-width:0.5;" x1="185.5" x2="330.5" y1="150.5938" y2="150.5938"/><text fill="#000000" font-family="sans-serif" font-size="14" lengthAdjust="spacing" textLength="125" x="195.5" y="142.292">CreandoProyecto</text></g><g id="SeleccionandoTipologia"><rect fill="#F1F1F1" height="50" rx="12.5" ry="12.5" style="stroke:#181818;stroke-width:0.5;" width="190" x="163" y="251.2969"/><line style="stroke:#181818;stroke-width:0.5;" x1="163" x2="353" y1="277.5938" y2="277.5938"/><text fill="#000000" font-family="sans-serif" font-size="14" lengthAdjust="spacing" textLength="170" x="173" y="269.292">SeleccionandoTipologia</text></g><path d="M19.5,362.2969 L496.4698,362.2969 A12.5,12.5 0 0 1 508.9698,374.7969 L508.9698,388.5938 L7,388.5938 L7,374.7969 A12.5,12.5 0 0 1 19.5,362.2969 " fill="#F1F1F1" style="stroke:#F1F1F1;stroke-width:1.0;"/><rect fill="none" height="463.2969" rx="12.5" ry="12.5" style="stroke:#181818;stroke-width:0.5;" width="501.9698" x="7" y="362.2969"/><line style="stroke:#181818;stroke-width:0.5;" x1="7" x2="508.9698" y1="388.5938" y2="388.5938"/><text fill="#000000" font-family="sans-serif" font-size="14" lengthAdjust="spacing" textLength="173" x="171.4849" y="380.292">ConfigurandoSimulacion</text><ellipse cx="259.9698" cy="409.5938" fill="#222222" rx="10" ry="10" style="stroke:#222222;stroke-width:1.0;"/><g id="ConfigurandoSimulacion.DatosVacios"><rect fill="#F1F1F1" height="50" rx="12.5" ry="12.5" style="stroke:#181818;stroke-width:0.5;" width="108" x="205.9698" y="456.5938"/><line style="stroke:#181818;stroke-width:0.5;" x1="205.9698" x2="313.9698" y1="482.8906" y2="482.8906"/><text fill="#000000" font-family="sans-serif" font-size="14" lengthAdjust="spacing" textLength="88" x="215.9698" y="474.5889">DatosVacios</text></g><g id="ConfigurandoSimulacion.DatosCompletados"><rect fill="#F1F1F1" height="50" rx="12.5" ry="12.5" style="stroke:#181818;stroke-width:0.5;" width="158" x="82.9699" y="662.5938"/><line style="stroke:#181818;stroke-width:0.5;" x1="82.9699" x2="240.9699" y1="688.8906" y2="688.8906"/><text fill="#000000" font-family="sans-serif" font-size="14" lengthAdjust="spacing" textLength="138" x="92.9699" y="680.5889">DatosCompletados</text></g><g id="ConfigurandoSimulacion.ImportandoDatos"><rect fill="#F1F1F1" height="50" rx="12.5" ry="12.5" style="stroke:#181818;stroke-width:0.5;" width="147" x="194.4698" y="559.5938"/><line style="stroke:#181818;stroke-width:0.5;" x1="194.4698" x2="341.4698" y1="585.8906" y2="585.8906"/><text fill="#000000" font-family="sans-serif" font-size="14" lengthAdjust="spacing" textLength="127" x="204.4698" y="577.5889">ImportandoDatos</text></g><g id="ConfigurandoSimulacion.DatosIncorrectos"><rect fill="#F1F1F1" height="50" rx="12.5" ry="12.5" style="stroke:#181818;stroke-width:0.5;" width="144" x="263.9698" y="765.5938"/><line style="stroke:#181818;stroke-width:0.5;" x1="263.9698" x2="407.9698" y1="791.8906" y2="791.8906"/><text fill="#000000" font-family="sans-serif" font-size="14" lengthAdjust="spacing" textLength="124" x="273.9698" y="783.5889">DatosIncorrectos</text></g><g id="ConfigurandoSimulacion.DatosValidados"><rect fill="#F1F1F1" height="50" rx="12.5" ry="12.5" style="stroke:#181818;stroke-width:0.5;" width="130" x="75.9699" y="765.5938"/><line style="stroke:#181818;stroke-width:0.5;" x1="75.9699" x2="205.9699" y1="791.8906" y2="791.8906"/><text fill="#000000" font-family="sans-serif" font-size="14" lengthAdjust="spacing" textLength="110" x="85.9699" y="783.5889">DatosValidados</text></g><!--link *start*ConfigurandoSimulacion to DatosVacios--><g id="link_*start*ConfigurandoSimulacion_DatosVacios"><path d="M259.9698,419.7448 C259.9698,429.0098 259.9698,437.7348 259.9698,450.3778 " fill="none" id="*start*ConfigurandoSimulacion-to-DatosVacios" style="stroke:#181818;stroke-width:1.0;"/><polygon fill="#181818" points="259.9698,456.3778,263.9698,447.3778,259.9698,451.3778,255.9698,447.3778,259.9698,456.3778" style="stroke:#181818;stroke-width:1.0;"/></g><!--link DatosVacios to DatosCompletados--><g id="link_DatosVacios_DatosCompletados"><path d="M205.8078,483.8178 C151.5468,488.2898 70.5674,504.5038 30.97,559.5938 C18,577.6388 19.9339,590.3058 30.97,609.5938 C44.5953,633.4078 63.4077,647.8894 87.3119,659.8864 " fill="none" id="DatosVacios-to-DatosCompletados" style="stroke:#181818;stroke-width:1.0;"/><polygon fill="#181818" points="92.6744,662.5778,86.4249,654.9657,88.2057,660.335,82.8364,662.1158,92.6744,662.5778" style="stroke:#181818;stroke-width:1.0;"/><text fill="#000000" font-family="sans-serif" font-size="13" lengthAdjust="spacing" textLength="152" x="31.97" y="589.1606">"Completa informaci&#243;n"</text></g><!--link DatosVacios to ImportandoDatos--><g id="link_DatosVacios_ImportandoDatos"><path d="M259.5728,506.7498 C259.6048,517.4458 259.9268,530.1678 260.9698,541.5938 C261.4938,547.3358 261.3883,547.5551 262.3233,553.3201 " fill="none" id="DatosVacios-to-ImportandoDatos" style="stroke:#181818;stroke-width:1.0;"/><polygon fill="#181818" points="263.2838,559.2428,265.7914,549.7185,262.4834,554.3072,257.8946,550.9992,263.2838,559.2428" style="stroke:#181818;stroke-width:1.0;"/><text fill="#000000" font-family="sans-serif" font-size="13" lengthAdjust="spacing" textLength="100" x="261.9698" y="537.6606">"Importa datos"</text></g><!--link ImportandoDatos to DatosCompletados--><g id="link_ImportandoDatos_DatosCompletados"><path d="M242.5798,609.7858 C225.9208,625.6598 208.5558,642.2059 191.8638,658.1099 " fill="none" id="ImportandoDatos-to-DatosCompletados" style="stroke:#181818;stroke-width:1.0;"/><polygon fill="#181818" points="187.5198,662.2488,196.795,658.9364,191.1398,658.7997,191.2765,653.1445,187.5198,662.2488" style="stroke:#181818;stroke-width:1.0;"/><text fill="#000000" font-family="sans-serif" font-size="13" lengthAdjust="spacing" textLength="125" x="222.9698" y="640.6606">"Datos Importados"</text></g><!--link DatosCompletados to DatosIncorrectos--><g id="link_DatosCompletados_DatosIncorrectos"><path d="M205.6958,712.6637 C215.4588,718.3375 225.6708,724.5105 234.9698,730.5938 C245.6078,737.5525 247.2358,740.7855 257.9698,747.5938 C267.7108,753.772 273.1731,757.0589 283.4741,762.6854 " fill="none" id="DatosCompletados-to-DatosIncorrectos" style="stroke:#181818;stroke-width:1.0;"/><polygon fill="#181818" points="288.7398,765.5616,282.7587,757.7368,284.3517,763.1647,278.9238,764.7578,288.7398,765.5616" style="stroke:#181818;stroke-width:1.0;"/><text fill="#000000" font-family="sans-serif" font-size="13" lengthAdjust="spacing" textLength="103" x="258.9698" y="743.6606">"Error en Datos"</text></g><!--link DatosIncorrectos to DatosVacios--><g id="link_DatosIncorrectos_DatosVacios"><path d="M354.7648,765.4254 C358.1438,759.8543 361.1618,753.7484 362.9698,747.5938 C390.8998,652.4998 418.2598,606.8498 362.9698,524.5938 C351.8198,508.0058 338.5546,499.8248 319.9096,493.7488 " fill="none" id="DatosIncorrectos-to-DatosVacios" style="stroke:#181818;stroke-width:1.0;"/><polygon fill="#181818" points="314.2048,491.8898,321.5226,498.4815,318.9588,493.439,324.0013,490.8752,314.2048,491.8898" style="stroke:#181818;stroke-width:1.0;"/><text fill="#000000" font-family="sans-serif" font-size="13" lengthAdjust="spacing" textLength="103" x="395.9698" y="640.6606">"Corregir Datos"</text></g><!--link DatosCompletados to DatosValidados--><g id="link_DatosCompletados_DatosValidados"><path d="M148.2928,712.8248 C145.7058,718.4894 143.3738,724.6184 141.9698,730.5938 C139.3228,741.8635 138.6723,748.6814 138.9343,759.483 " fill="none" id="DatosCompletados-to-DatosValidados" style="stroke:#181818;stroke-width:1.0;"/><polygon fill="#181818" points="139.0798,765.4813,142.8604,756.3869,138.9586,760.4827,134.8628,756.5809,139.0798,765.4813" style="stroke:#181818;stroke-width:1.0;"/><text fill="#000000" font-family="sans-serif" font-size="13" lengthAdjust="spacing" textLength="91" x="142.9698" y="743.6606">"Valida Datos"</text></g><g id="DefiniendoAgresion"><rect fill="#F1F1F1" height="50" rx="12.5" ry="12.5" style="stroke:#181818;stroke-width:0.5;" width="162" x="177" y="902.2969"/><line style="stroke:#181818;stroke-width:0.5;" x1="177" x2="339" y1="928.5938" y2="928.5938"/><text fill="#000000" font-family="sans-serif" font-size="14" lengthAdjust="spacing" textLength="142" x="187" y="920.292">DefiniendoAgresion</text></g><g id="Simulando"><rect fill="#F1F1F1" height="50" rx="12.5" ry="12.5" style="stroke:#181818;stroke-width:0.5;" width="94" x="211" y="1013.2969"/><line style="stroke:#181818;stroke-width:0.5;" x1="211" x2="305" y1="1039.5938" y2="1039.5938"/><text fill="#000000" font-family="sans-serif" font-size="14" lengthAdjust="spacing" textLength="74" x="221" y="1031.292">Simulando</text></g><g id="Resultados"><rect fill="#F1F1F1" height="50" rx="12.5" ry="12.5" style="stroke:#181818;stroke-width:0.5;" width="98" x="209" y="1124.2969"/><line style="stroke:#181818;stroke-width:0.5;" x1="209" x2="307" y1="1150.5938" y2="1150.5938"/><text fill="#000000" font-family="sans-serif" font-size="14" lengthAdjust="spacing" textLength="78" x="219" y="1142.292">Resultados</text></g><g id="ProyectoFinalizado"><rect fill="#F1F1F1" height="50" rx="12.5" ry="12.5" style="stroke:#181818;stroke-width:0.5;" width="156" x="382" y="1609.2969"/><line style="stroke:#181818;stroke-width:0.5;" x1="382" x2="538" y1="1635.5938" y2="1635.5938"/><text fill="#000000" font-family="sans-serif" font-size="14" lengthAdjust="spacing" textLength="136" x="392" y="1627.292">ProyectoFinalizado</text></g><ellipse cx="460" cy="1731.2969" fill="none" rx="11" ry="11" style="stroke:#222222;stroke-width:1.0;"/><ellipse cx="460" cy="1731.2969" fill="#222222" rx="6" ry="6" style="stroke:#222222;stroke-width:1.0;"/><!--link *start* to CreandoProyecto--><g id="link_*start*_CreandoProyecto"><path d="M258,63.3069 C258,77.1869 258,98.2669 258,118.1369 " fill="none" id="*start*-to-CreandoProyecto" style="stroke:#181818;stroke-width:1.0;"/><polygon fill="#181818" points="258,124.1369,262,115.1369,258,119.1369,254,115.1369,258,124.1369" style="stroke:#181818;stroke-width:1.0;"/></g><!--link CreandoProyecto to SeleccionandoTipologia--><g id="link_CreandoProyecto_SeleccionandoTipologia"><path d="M258,174.3969 C258,196.5369 258,223.1569 258,245.2669 " fill="none" id="CreandoProyecto-to-SeleccionandoTipologia" style="stroke:#181818;stroke-width:1.0;"/><polygon fill="#181818" points="258,251.2669,262,242.2669,258,246.2669,254,242.2669,258,251.2669" style="stroke:#181818;stroke-width:1.0;"/><text fill="#000000" font-family="sans-serif" font-size="13" lengthAdjust="spacing" textLength="113" x="259" y="217.3638">"Define Tipolog&#237;a"</text></g><!--link SeleccionandoTipologia to ConfigurandoSimulacion--><g id="link_SeleccionandoTipologia_ConfigurandoSimulacion"><path d="M258,301.5269 C258,316.6769 258,331.8669 258,355.9769 " fill="none" id="SeleccionandoTipologia-to-ConfigurandoSimulacion" style="stroke:#181818;stroke-width:1.0;"/><polygon fill="#181818" points="258,361.9769,262,352.9769,258,356.9769,254,352.9769,258,361.9769" style="stroke:#181818;stroke-width:1.0;"/></g><!--link ConfigurandoSimulacion to DefiniendoAgresion--><g id="link_ConfigurandoSimulacion_DefiniendoAgresion"><path d="M258,825.4859 C258,856.3039 258,877.5649 258,895.9419 " fill="none" id="ConfigurandoSimulacion-to-DefiniendoAgresion" style="stroke:#181818;stroke-width:1.0;"/><polygon fill="#181818" points="258,901.9419,262,892.9419,258,896.9419,254,892.9419,258,901.9419" style="stroke:#181818;stroke-width:1.0;"/><text fill="#000000" font-family="sans-serif" font-size="13" lengthAdjust="spacing" textLength="168" x="259" y="868.3638">"Define Agresi&#243;n T&#233;rmica"</text></g><!--link DefiniendoAgresion to Simulando--><g id="link_DefiniendoAgresion_Simulando"><path d="M258,952.4879 C258,970.5509 258,989.1269 258,1007.1739 " fill="none" id="DefiniendoAgresion-to-Simulando" style="stroke:#181818;stroke-width:1.0;"/><polygon fill="#181818" points="258,1013.1739,262,1004.1739,258,1008.1739,254,1004.1739,258,1013.1739" style="stroke:#181818;stroke-width:1.0;"/></g><!--link Simulando to Resultados--><g id="link_Simulando_Resultados"><path d="M258,1063.4879 C258,1081.5509 258,1100.1269 258,1118.1739 " fill="none" id="Simulando-to-Resultados" style="stroke:#181818;stroke-width:1.0;"/><polygon fill="#181818" points="258,1124.1739,262,1115.1739,258,1119.1739,254,1115.1739,258,1124.1739" style="stroke:#181818;stroke-width:1.0;"/></g><!--link Resultados to Guardando--><g id="link_Resultados_Guardando"><path d="M258,1174.3239 C258,1183.6309 258,1194.8356 258,1206.4404 C258,1212.2428 258,1218.1452 258,1223.9604 C258,1225.4142 258,1226.8626 258,1228.3026 C258,1228.4826 258,1222.6624 258,1222.8422 " fill="none" id="Resultados-to-Guardando" style="stroke:#181818;stroke-width:1.0;"/><polygon fill="#181818" points="258,1228.8422,262,1219.8422,258,1223.8422,254,1219.8422,258,1228.8422" style="stroke:#181818;stroke-width:1.0;"/></g><!--link *start*Guardando to OpcionesGuardado--><g id="link_*start*Guardando_OpcionesGuardado"><path d="M422,1292.3099 C422,1306.1879 422,1327.2619 422,1347.1369 " fill="none" id="*start*Guardando-to-OpcionesGuardado" style="stroke:#181818;stroke-width:1.0;"/><polygon fill="#181818" points="422,1353.1369,426,1344.1369,422,1348.1369,418,1344.1369,422,1353.1369" style="stroke:#181818;stroke-width:1.0;"/></g><!--link OpcionesGuardado to GuardarProyecto--><g id="link_OpcionesGuardado_GuardarProyecto"><path d="M352.65,1403.3869 C340.037,1410.9729 328.513,1420.7609 321,1433.2969 C312.034,1448.2579 316.6806,1461.3313 327.0186,1475.4213 " fill="none" id="OpcionesGuardado-to-GuardarProyecto" style="stroke:#181818;stroke-width:1.0;"/><polygon fill="#181818" points="330.568,1480.2589,328.469,1470.6363,327.6102,1476.2276,322.0189,1475.3688,330.568,1480.2589" style="stroke:#181818;stroke-width:1.0;"/><text fill="#000000" font-family="sans-serif" font-size="13" lengthAdjust="spacing" textLength="118" x="322" y="1446.3638">"Guarda Proyecto"</text></g><!--link OpcionesGuardado to ExportarProyecto--><g id="link_OpcionesGuardado_ExportarProyecto"><path d="M443.402,1403.3979 C463.057,1425.5329 488.0451,1453.6714 507.6801,1475.7834 " fill="none" id="OpcionesGuardado-to-ExportarProyecto" style="stroke:#181818;stroke-width:1.0;"/><polygon fill="#181818" points="511.664,1480.2699,508.6791,1470.8842,508.3441,1476.5311,502.6972,1476.1961,511.664,1480.2699" style="stroke:#181818;stroke-width:1.0;"/><text fill="#000000" font-family="sans-serif" font-size="13" lengthAdjust="spacing" textLength="121" x="485" y="1446.3638">"Exporta Proyecto"</text></g><!--link GuardarProyecto to ProyectoFinalizado--><g id="link_GuardarProyecto_ProyectoFinalizado"><path d="M373.378,1530.4839 C392.417,1553.0819 416.8171,1582.0424 435.8321,1604.6114 " fill="none" id="GuardarProyecto-to-ProyectoFinalizado" style="stroke:#181818;stroke-width:1.0;"/><polygon fill="#181818" points="439.698,1609.1999,436.9581,1599.7398,436.4764,1605.3761,430.8401,1604.8944,439.698,1609.1999" style="stroke:#181818;stroke-width:1.0;"/></g><!--link ExportarProyecto to ProyectoFinalizado--><g id="link_ExportarProyecto_ProyectoFinalizado"><path d="M519.097,1530.4839 C506.108,1553.0819 489.8141,1581.429 476.8411,1603.998 " fill="none" id="ExportarProyecto-to-ProyectoFinalizado" style="stroke:#181818;stroke-width:1.0;"/><polygon fill="#181818" points="473.851,1609.1999,481.8041,1603.3905,476.3428,1604.865,474.8683,1599.4037,473.851,1609.1999" style="stroke:#181818;stroke-width:1.0;"/></g><!--link ProyectoFinalizado to *end*--><g id="link_ProyectoFinalizado_*end*"><path d="M460,1659.7618 C460,1679.3333 460,1699.789 460,1714.0936 " fill="none" id="ProyectoFinalizado-to-*end*" style="stroke:#181818;stroke-width:1.0;"/><polygon fill="#181818" points="460,1720.0936,464,1711.0936,460,1715.0936,456,1711.0936,460,1720.0936" style="stroke:#181818;stroke-width:1.0;"/></g><!--SRC=[TL9BQiCm4Dth58ENXLoWYqB8fuGkMfgGJUb2s1Cp84jcR4C_z41TTDKZv6BLIBRZsh5NdlVHF8scfjeWh4ddh0iD6SAcgdNcAbZ0iZIKwfJElnQsk_s3KYythx1OtC6AKTlCFR5xnxHsQbG7pHuDfYavAyo1IcTSJXfk8LdZYIn2Yvr_TA9cnA6NioVA6nPcJqLZjEYKyZ5hd67XKu7_khXhNRlgA4mLy45zuLUkA0t6k_kGNGbaJuwBE8RagdrNb8vhIH0OSRSGP094rrWrrpYohJhht1DbRz_Pr37Bs8Dzm-mOq4PoO1xgHaE9z_LaJZpnNMrwr8QoBd4iEkENKZEF4jpozeIUMEQCbS2NZOYGhDlX_Cs5Nxv4NJ64xGh7UbJrVm5_ngen8Qow_0Rclj6S1KUxEZqmsfR7Kj9Y5Ncl5t8C3exaVktzJI847PJCcpTluON_kLjiOFVJ77SHSrTioVhXVqZAoNapEZN5WjHV_my0]--></g></svg>