<?xml version="1.0" encoding="us-ascii" standalone="no"?><svg xmlns="http://www.w3.org/2000/svg" xmlns:xlink="http://www.w3.org/1999/xlink" contentStyleType="text/css" height="1153px" preserveAspectRatio="none" style="width:792px;height:1153px;background:#FFFFFF;" version="1.1" viewBox="0 0 792 1153" width="792px" zoomAndPan="magnify"><defs/><g><ellipse cx="591" cy="16" fill="#222222" rx="10" ry="10" style="stroke:#222222;stroke-width:1.0;"/><g id="Inicial"><rect fill="#F1F1F1" height="50" rx="12.5" ry="12.5" style="stroke:#181818;stroke-width:0.5;" width="61" x="560.5" y="87"/><line style="stroke:#181818;stroke-width:0.5;" x1="560.5" x2="621.5" y1="113.2969" y2="113.2969"/><text fill="#000000" font-family="sans-serif" font-size="14" lengthAdjust="spacing" textLength="41" x="570.5" y="104.9951">Inicial</text></g><path d="M19.5,214 L572.1555,214 A12.5,12.5 0 0 1 584.6555,226.5 L584.6555,240.2969 L7,240.2969 L7,226.5 A12.5,12.5 0 0 1 19.5,214 " fill="#F1F1F1" style="stroke:#F1F1F1;stroke-width:1.0;"/><rect fill="none" height="806.2969" rx="12.5" ry="12.5" style="stroke:#181818;stroke-width:0.5;" width="577.6555" x="7" y="214"/><line style="stroke:#181818;stroke-width:0.5;" x1="7" x2="584.6555" y1="240.2969" y2="240.2969"/><text fill="#000000" font-family="sans-serif" font-size="14" lengthAdjust="spacing" textLength="31" x="280.3278" y="231.9951">FISC</text><ellipse cx="300.6555" cy="261.2969" fill="#222222" rx="10" ry="10" style="stroke:#222222;stroke-width:1.0;"/><g id="FISC.Project_List"><rect fill="#F1F1F1" height="50" rx="12.5" ry="12.5" style="stroke:#181818;stroke-width:0.5;" width="105" x="248.1555" y="308.2969"/><line style="stroke:#181818;stroke-width:0.5;" x1="248.1555" x2="353.1555" y1="334.5938" y2="334.5938"/><text fill="#000000" font-family="sans-serif" font-size="14" lengthAdjust="spacing" textLength="85" x="258.1555" y="326.292">Project_List</text></g><g id="FISC.Project_Dashboard"><rect fill="#F1F1F1" height="50" rx="12.5" ry="12.5" style="stroke:#181818;stroke-width:0.5;" width="156" x="226.6555" y="529.2969"/><line style="stroke:#181818;stroke-width:0.5;" x1="226.6555" x2="382.6555" y1="555.5938" y2="555.5938"/><text fill="#000000" font-family="sans-serif" font-size="14" lengthAdjust="spacing" textLength="136" x="236.6555" y="547.292">Project_Dashboard</text></g><g id="FISC.Configuraci&#243;n_de_Proyecto"><rect fill="#F1F1F1" height="50" rx="12.5" ry="12.5" style="stroke:#181818;stroke-width:0.5;" width="216" x="196.6555" y="426.2969"/><line style="stroke:#181818;stroke-width:0.5;" x1="196.6555" x2="412.6555" y1="452.5938" y2="452.5938"/><text fill="#000000" font-family="sans-serif" font-size="14" lengthAdjust="spacing" textLength="196" x="206.6555" y="444.292">Configuraci&#243;n_de_Proyecto</text></g><g id="FISC.Reporte_Abierto"><rect fill="#F1F1F1" height="50" rx="12.5" ry="12.5" style="stroke:#181818;stroke-width:0.5;" width="142" x="198.6555" y="960.2969"/><line style="stroke:#181818;stroke-width:0.5;" x1="198.6555" x2="340.6555" y1="986.5938" y2="986.5938"/><text fill="#000000" font-family="sans-serif" font-size="14" lengthAdjust="spacing" textLength="122" x="208.6555" y="978.292">Reporte_Abierto</text></g><g id="FISC.Configuraci&#243;n_de_Simulaci&#243;n"><rect fill="#F1F1F1" height="50" rx="12.5" ry="12.5" style="stroke:#181818;stroke-width:0.5;" width="228" x="173.6555" y="662.2969"/><line style="stroke:#181818;stroke-width:0.5;" x1="173.6555" x2="401.6555" y1="688.5938" y2="688.5938"/><text fill="#000000" font-family="sans-serif" font-size="14" lengthAdjust="spacing" textLength="208" x="183.6555" y="680.292">Configuraci&#243;n_de_Simulaci&#243;n</text></g><g id="FISC.Simulando"><rect fill="#F1F1F1" height="50" rx="12.5" ry="12.5" style="stroke:#181818;stroke-width:0.5;" width="94" x="222.6555" y="819.2969"/><line style="stroke:#181818;stroke-width:0.5;" x1="222.6555" x2="316.6555" y1="845.5938" y2="845.5938"/><text fill="#000000" font-family="sans-serif" font-size="14" lengthAdjust="spacing" textLength="74" x="232.6555" y="837.292">Simulando</text></g><!--link *start*FISC to Project_List--><g id="link_*start*FISC_Project_List"><path d="M300.6555,271.4479 C300.6555,280.7129 300.6555,289.4379 300.6555,302.0809 " fill="none" id="*start*FISC-to-Project_List" style="stroke:#181818;stroke-width:1.0;"/><polygon fill="#181818" points="300.6555,308.0809,304.6555,299.0809,300.6555,303.0809,296.6555,299.0809,300.6555,308.0809" style="stroke:#181818;stroke-width:1.0;"/></g><!--link Project_List to Project_Dashboard--><g id="link_Project_List_Project_Dashboard"><path d="M248.0995,344.1479 C165.0675,362.1019 18,405.0139 69.6553,476.2969 C105.1764,525.3149 166.9037,542.9597 220.5437,549.5817 " fill="none" id="Project_List-to-Project_Dashboard" style="stroke:#181818;stroke-width:1.0;"/><polygon fill="#181818" points="226.4985,550.3169,218.0564,545.2443,221.5362,549.7043,217.0762,553.184,226.4985,550.3169" style="stroke:#181818;stroke-width:1.0;"/><text fill="#000000" font-family="sans-serif" font-size="13" lengthAdjust="spacing" textLength="91" x="81.1553" y="448.3638">Abrir Proyecto</text><text fill="#000000" font-family="sans-serif" font-size="13" lengthAdjust="spacing" textLength="116" x="70.6553" y="463.4966">Importar Proyecto</text></g><!--link Project_List to Configuraci?n_de_Proyecto--><g id="link_Project_List_Configuraci&#243;n_de_Proyecto"><path d="M257.9875,358.3809 C252.2075,363.5239 247.0925,369.4949 243.6555,376.2969 C237.2415,388.9909 237.0385,395.7079 243.6555,408.2969 C247.2445,415.1259 247.9426,417.1612 253.8886,422.2462 " fill="none" id="Project_List-to-Configuraci&#243;n_de_Proyecto" style="stroke:#181818;stroke-width:1.0;"/><polygon fill="#181818" points="258.4485,426.1459,254.2084,417.2565,254.6486,422.8962,249.0089,423.3364,258.4485,426.1459" style="stroke:#181818;stroke-width:1.0;"/><text fill="#000000" font-family="sans-serif" font-size="13" lengthAdjust="spacing" textLength="96" x="244.6555" y="389.3638">Crear Proyecto</text><text fill="#000000" font-family="sans-serif" font-size="13" lengthAdjust="spacing" textLength="98" x="245.6555" y="404.4966">Editar Proyecto</text></g><!--link Project_List to Project_List--><g id="link_Project_List_Project_List"><path d="M353.2305,325.7469 C363.6935,326.5969 371.1555,329.1129 371.1555,333.2969 C371.1555,337.4809 369.6738,339.511 359.2108,340.361 " fill="none" id="Project_List-to-Project_List" style="stroke:#181818;stroke-width:1.0;"/><polygon fill="#181818" points="353.2305,340.8469,362.5248,344.105,358.2141,340.442,361.8771,336.1313,353.2305,340.8469" style="stroke:#181818;stroke-width:1.0;"/><text fill="#000000" font-family="sans-serif" font-size="13" lengthAdjust="spacing" textLength="100" x="383.1555" y="330.3638">Borrar Proyecto</text><text fill="#000000" font-family="sans-serif" font-size="13" lengthAdjust="spacing" textLength="116" x="377.1555" y="345.4966">Exportar Proyecto</text></g><!--link Configuraci?n_de_Proyecto to Project_Dashboard--><g id="link_Configuraci&#243;n_de_Proyecto_Project_Dashboard"><path d="M304.6555,476.4889 C304.6555,492.3629 304.6555,507.0479 304.6555,522.9519 " fill="none" id="Configuraci&#243;n_de_Proyecto-to-Project_Dashboard" style="stroke:#181818;stroke-width:1.0;"/><polygon fill="#181818" points="304.6555,528.9519,308.6555,519.9519,304.6555,523.9519,300.6555,519.9519,304.6555,528.9519" style="stroke:#181818;stroke-width:1.0;"/><text fill="#000000" font-family="sans-serif" font-size="13" lengthAdjust="spacing" textLength="50" x="305.6555" y="507.3638">Aceptar</text></g><!--link Configuraci?n_de_Proyecto to Project_List--><g id="link_Configuraci&#243;n_de_Proyecto_Project_List"><path d="M334.2855,425.9959 C338.9245,420.6859 343.0425,414.7149 345.6555,408.2969 C351.0185,395.1249 351.3235,389.3409 345.6555,376.2969 C342.8445,369.8279 342.5987,368.2768 337.6867,363.0458 " fill="none" id="Configuraci&#243;n_de_Proyecto-to-Project_List" style="stroke:#181818;stroke-width:1.0;"/><polygon fill="#181818" points="333.5795,358.6719,336.8243,367.9709,337.0021,362.3168,342.6562,362.4946,333.5795,358.6719" style="stroke:#181818;stroke-width:1.0;"/></g><!--link Project_Dashboard to Project_List--><g id="link_Project_Dashboard_Project_List"><path d="M363.9525,529.1969 C386.2135,516.8909 409.1365,499.5219 421.6555,476.2969 C432.1995,456.7349 431.0805,446.4209 421.6555,426.2969 C407.6635,396.4239 383.6649,376.8222 357.4679,361.4792 " fill="none" id="Project_Dashboard-to-Project_List" style="stroke:#181818;stroke-width:1.0;"/><polygon fill="#181818" points="352.2905,358.4469,358.0351,366.4469,356.605,360.9738,362.0781,359.5437,352.2905,358.4469" style="stroke:#181818;stroke-width:1.0;"/></g><!--link Project_Dashboard to Reporte_Abierto--><g id="link_Project_Dashboard_Reporte_Abierto"><path d="M239.0655,579.4399 C195.2675,600.2689 145.6553,635.1509 145.6553,686.2969 C145.6553,686.2969 145.6553,686.2969 145.6553,915.7969 C145.6553,944.2032 165.2395,958.9211 192.9455,968.715 " fill="none" id="Project_Dashboard-to-Reporte_Abierto" style="stroke:#181818;stroke-width:1.0;"/><polygon fill="#181818" points="198.6025,970.7147,191.4502,963.9438,193.8884,969.0483,188.7839,971.4864,198.6025,970.7147" style="stroke:#181818;stroke-width:1.0;"/><text fill="#000000" font-family="sans-serif" font-size="13" lengthAdjust="spacing" textLength="95" x="146.6553" y="797.3638">Ver Simulaci&#243;n</text></g><!--link Project_Dashboard to Configuraci?n_de_Simulaci?n--><g id="link_Project_Dashboard_Configuraci&#243;n_de_Simulaci&#243;n"><path d="M249.6365,579.3909 C243.2605,584.4019 237.6285,590.3299 233.6555,597.2969 C223.3065,615.4419 224.4775,625.5319 233.6555,644.2969 C236.9425,651.0189 237.4781,652.9004 243.0581,658.0624 " fill="none" id="Project_Dashboard-to-Configuraci&#243;n_de_Simulaci&#243;n" style="stroke:#181818;stroke-width:1.0;"/><polygon fill="#181818" points="247.4625,662.1369,243.5722,653.0889,243.7922,658.7415,238.1396,658.9614,247.4625,662.1369" style="stroke:#181818;stroke-width:1.0;"/><text fill="#000000" font-family="sans-serif" font-size="13" lengthAdjust="spacing" textLength="113" x="239.6555" y="610.3638">Nueva simulaci&#243;n</text><text fill="#000000" font-family="sans-serif" font-size="13" lengthAdjust="spacing" textLength="109" x="241.6555" y="625.4966">Editar simulaci&#243;n</text><text fill="#000000" font-family="sans-serif" font-size="13" lengthAdjust="spacing" textLength="127" x="234.6555" y="640.6294">Importar simulaci&#243;n</text></g><!--link Project_Dashboard to Project_Dashboard--><g id="link_Project_Dashboard_Project_Dashboard"><path d="M383.0025,545.9799 C393.5995,547.3739 400.6555,550.1469 400.6555,554.2969 C400.6555,558.4469 399.5483,560.4373 388.9513,561.8313 " fill="none" id="Project_Dashboard-to-Project_Dashboard" style="stroke:#181818;stroke-width:1.0;"/><polygon fill="#181818" points="383.0025,562.6139,392.4473,565.4059,387.9598,561.9618,391.4039,557.4742,383.0025,562.6139" style="stroke:#181818;stroke-width:1.0;"/><text fill="#000000" font-family="sans-serif" font-size="13" lengthAdjust="spacing" textLength="112" x="412.6555" y="551.3638">Borrar Simulaci&#243;n</text><text fill="#000000" font-family="sans-serif" font-size="13" lengthAdjust="spacing" textLength="128" x="406.6555" y="566.4966">Exportar Simulaci&#243;n</text></g><!--link Configuraci?n_de_Simulaci?n to Project_Dashboard--><g id="link_Configuraci&#243;n_de_Simulaci&#243;n_Project_Dashboard"><path d="M346.4405,662.1009 C352.8875,657.1379 358.5805,651.2489 362.6555,644.2969 C373.2185,626.2759 372.1535,615.9019 362.6555,597.2969 C359.2075,590.5429 358.6024,588.5974 352.8374,583.4974 " fill="none" id="Configuraci&#243;n_de_Simulaci&#243;n-to-Project_Dashboard" style="stroke:#181818;stroke-width:1.0;"/><polygon fill="#181818" points="348.3435,579.5219,352.434,588.4811,352.0884,582.8348,357.7347,582.4892,348.3435,579.5219" style="stroke:#181818;stroke-width:1.0;"/></g><!--link Configuraci?n_de_Simulaci?n to Configuraci?n_de_Simulaci?n--><g id="link_Configuraci&#243;n_de_Simulaci&#243;n_Configuraci&#243;n_de_Simulaci&#243;n"><path d="M401.7095,680.9289 C412.6945,682.2209 419.6555,684.3439 419.6555,687.2969 C419.6555,690.2499 418.6534,691.672 407.6684,692.964 " fill="none" id="Configuraci&#243;n_de_Simulaci&#243;n-to-Configuraci&#243;n_de_Simulaci&#243;n" style="stroke:#181818;stroke-width:1.0;"/><polygon fill="#181818" points="401.7095,693.6649,411.1151,696.5862,406.6753,693.0808,410.1806,688.641,401.7095,693.6649" style="stroke:#181818;stroke-width:1.0;"/><text fill="#000000" font-family="sans-serif" font-size="13" lengthAdjust="spacing" textLength="116" x="425.6555" y="691.8638">Editar Par&#225;metros</text></g><!--link Configuraci?n_de_Simulaci?n to Simulando--><g id="link_Configuraci&#243;n_de_Simulaci&#243;n_Simulando"><path d="M282.6835,712.5479 C280.5515,723.6999 278.2015,737.1269 276.6555,749.2969 C273.6445,772.9989 272.1169,794.2488 271.0799,813.2828 " fill="none" id="Configuraci&#243;n_de_Simulaci&#243;n-to-Simulando" style="stroke:#181818;stroke-width:1.0;"/><polygon fill="#181818" points="270.7535,819.2739,275.2372,810.5048,271.0255,814.2813,267.249,810.0696,270.7535,819.2739" style="stroke:#181818;stroke-width:1.0;"/><text fill="#000000" font-family="sans-serif" font-size="13" lengthAdjust="spacing" textLength="110" x="277.6555" y="762.3638">Iniciar Simulaci&#243;n</text></g><!--link Simulando to Configuraci?n_de_Simulaci?n--><g id="link_Simulando_Configuraci&#243;n_de_Simulaci&#243;n"><path d="M316.9545,825.9789 C343.1535,813.6649 373.4265,794.2889 388.6555,766.2969 C400.9895,743.6239 386.5081,728.1956 361.2571,715.1036 " fill="none" id="Simulando-to-Configuraci&#243;n_de_Simulaci&#243;n" style="stroke:#181818;stroke-width:1.0;"/><polygon fill="#181818" points="355.9305,712.3419,362.0793,720.0355,360.3694,714.6433,365.7616,712.9334,355.9305,712.3419" style="stroke:#181818;stroke-width:1.0;"/><text fill="#000000" font-family="sans-serif" font-size="13" lengthAdjust="spacing" textLength="129" x="392.6555" y="762.3638">Cancelar Simulaci&#243;n</text></g><!--link Simulando to Simulando--><g id="link_Simulando_Simulando"><path d="M316.6905,836.6339 C327.0855,837.3539 334.6555,839.9079 334.6555,844.2969 C334.6555,848.6859 333.0712,850.8253 322.6762,851.5453 " fill="none" id="Simulando-to-Simulando" style="stroke:#181818;stroke-width:1.0;"/><polygon fill="#181818" points="316.6905,851.9599,325.9454,855.3284,321.6785,851.6144,325.3926,847.3475,316.6905,851.9599" style="stroke:#181818;stroke-width:1.0;"/><text fill="#000000" font-family="sans-serif" font-size="13" lengthAdjust="spacing" textLength="194" x="340.6555" y="848.8638">Verificar Estado de Simulaci&#243;n</text></g><!--link Simulando to Reporte_Abierto--><g id="link_Simulando_Reporte_Abierto"><path d="M269.6555,869.5089 C269.6555,894.8659 269.6555,928.4686 269.6555,953.896 " fill="none" id="Simulando-to-Reporte_Abierto" style="stroke:#181818;stroke-width:1.0;"/><polygon fill="#181818" points="269.6555,959.896,273.6555,950.896,269.6555,954.896,265.6555,950.896,269.6555,959.896" style="stroke:#181818;stroke-width:1.0;"/><text fill="#000000" font-family="sans-serif" font-size="13" lengthAdjust="spacing" textLength="194" x="270.6555" y="919.3638">Verificar Estado de Simulaci&#243;n</text></g><!--link Reporte_Abierto to Reporte_Abierto--><g id="link_Reporte_Abierto_Reporte_Abierto"><path d="M340.8815,978.153 C351.4835,979.2652 358.6555,981.6465 358.6555,985.2969 C358.6555,988.9473 357.4508,990.7026 346.8488,991.8148 " fill="none" id="Reporte_Abierto-to-Reporte_Abierto" style="stroke:#181818;stroke-width:1.0;"/><polygon fill="#181818" points="340.8815,992.4408,350.2497,995.48,345.8542,991.9191,349.4151,987.5236,340.8815,992.4408" style="stroke:#181818;stroke-width:1.0;"/><text fill="#000000" font-family="sans-serif" font-size="13" lengthAdjust="spacing" textLength="110" x="364.6555" y="989.8638">Exportar Reporte</text></g><!--link Reporte_Abierto to Project_Dashboard--><g id="link_Reporte_Abierto_Project_Dashboard"><path d="M341.0125,982.4262 C431.4335,978.0747 575.6555,963.6359 575.6555,915.7969 C575.6555,686.2969 575.6555,686.2969 575.6555,686.2969 C575.6555,599.9419 468.688,571.2327 388.63,561.2027 " fill="none" id="Reporte_Abierto-to-Project_Dashboard" style="stroke:#181818;stroke-width:1.0;"/><polygon fill="#181818" points="382.6765,560.4569,391.1094,565.5447,387.6377,561.0784,392.1039,557.6067,382.6765,560.4569" style="stroke:#181818;stroke-width:1.0;"/></g><g id="Registrando_Usuario"><rect fill="#F1F1F1" height="50" rx="12.5" ry="12.5" style="stroke:#181818;stroke-width:0.5;" width="165" x="620.5" y="592"/><line style="stroke:#181818;stroke-width:0.5;" x1="620.5" x2="785.5" y1="618.2969" y2="618.2969"/><text fill="#000000" font-family="sans-serif" font-size="14" lengthAdjust="spacing" textLength="145" x="630.5" y="609.9951">Registrando_Usuario</text></g><g id="Log"><rect fill="#F1F1F1" height="50" rx="12.5" ry="12.5" style="stroke:#181818;stroke-width:0.5;" width="50" x="138" y="1097"/><line style="stroke:#181818;stroke-width:0.5;" x1="138" x2="188" y1="1123.2969" y2="1123.2969"/><text fill="#000000" font-family="sans-serif" font-size="14" lengthAdjust="spacing" textLength="26" x="150" y="1114.9951">Log</text></g><ellipse cx="346" cy="1122" fill="none" rx="11" ry="11" style="stroke:#222222;stroke-width:1.0;"/><ellipse cx="346" cy="1122" fill="#222222" rx="6" ry="6" style="stroke:#222222;stroke-width:1.0;"/><!--link *start* to Inicial--><g id="link_*start*_Inicial"><path d="M591,26.01 C591,39.89 591,60.97 591,80.84 " fill="none" id="*start*-to-Inicial" style="stroke:#181818;stroke-width:1.0;"/><polygon fill="#181818" points="591,86.84,595,77.84,591,81.84,587,77.84,591,86.84" style="stroke:#181818;stroke-width:1.0;"/></g><!--link Inicial to FISC--><g id="link_Inicial_FISC"><path d="M566.772,137.23 C558.429,146.19 549.346,156.69 542,167 C531.169,182.202 523.7486,192.9132 513.2146,208.9812 " fill="none" id="Inicial-to-FISC" style="stroke:#181818;stroke-width:1.0;"/><polygon fill="#181818" points="509.925,213.999,518.2046,208.6654,512.6663,209.8175,511.5142,204.2792,509.925,213.999" style="stroke:#181818;stroke-width:1.0;"/><text fill="#000000" font-family="sans-serif" font-size="13" lengthAdjust="spacing" textLength="34" x="543" y="180.0669">Login</text></g><!--link Inicial to Registrando_Usuario--><g id="link_Inicial_Registrando_Usuario"><path d="M586.897,137.26 C585.318,151.11 584.606,168.703 588,184 C591.187,198.364 597.074,200.135 602,214 C651.63,353.684 685.6795,522.9709 697.5195,586.0739 " fill="none" id="Inicial-to-Registrando_Usuario" style="stroke:#181818;stroke-width:1.0;"/><polygon fill="#181818" points="698.626,591.971,700.8977,582.3877,697.7039,587.0568,693.0349,583.863,698.626,591.971" style="stroke:#181818;stroke-width:1.0;"/><text fill="#000000" font-family="sans-serif" font-size="13" lengthAdjust="spacing" textLength="87" x="589" y="180.0669">Crear Usuario</text></g><!--link Registrando_Usuario to Inicial--><g id="link_Registrando_Usuario_Inicial"><path d="M709.162,591.847 C725.883,520.677 765.418,307.936 681,167 C667.891,145.12 647.7697,133.2611 627.1817,124.9711 " fill="none" id="Registrando_Usuario-to-Inicial" style="stroke:#181818;stroke-width:1.0;"/><polygon fill="#181818" points="621.616,122.73,628.4705,129.8022,626.2541,124.5976,631.4587,122.3812,621.616,122.73" style="stroke:#181818;stroke-width:1.0;"/></g><!--link Log to Log--><g id="link_Log_Log"><path d="M188.278,1111.5103 C205.773,1108.3315 223,1111.8281 223,1122 C223,1132.1719 211.6763,1136.7411 194.1813,1133.5623 " fill="none" id="Log-to-Log" style="stroke:#181818;stroke-width:1.0;"/><polygon fill="#181818" points="188.278,1132.4897,196.4179,1138.0342,193.1975,1133.3836,197.8481,1130.1631,188.278,1132.4897" style="stroke:#181818;stroke-width:1.0;"/><text fill="#000000" font-family="sans-serif" font-size="13" lengthAdjust="spacing" textLength="82" x="229" y="1126.5669">Exportar Log</text></g><!--link FISC to Log--><g id="link_FISC_Log"><path d="M189.675,1020.118 C181.225,1052.0722 175.6677,1073.0903 170.9257,1091.0247 " fill="none" id="FISC-to-Log" style="stroke:#181818;stroke-width:1.0;"/><polygon fill="#181818" points="169.392,1096.8254,175.5597,1089.1469,170.6701,1091.9915,167.8255,1087.1019,169.392,1096.8254" style="stroke:#181818;stroke-width:1.0;"/><text fill="#000000" font-family="sans-serif" font-size="13" lengthAdjust="spacing" textLength="57" x="181" y="1063.0669">Abrir Log</text></g><!--link FISC to *end*--><g id="link_FISC_*end*"><path d="M335.972,1020.118 C340.138,1062.029 342.8325,1089.1349 344.4015,1104.9184 " fill="none" id="FISC-to-*end*" style="stroke:#181818;stroke-width:1.0;"/><polygon fill="#181818" points="344.995,1110.889,348.0851,1101.5375,344.5004,1105.9135,340.1243,1102.3288,344.995,1110.889" style="stroke:#181818;stroke-width:1.0;"/><text fill="#000000" font-family="sans-serif" font-size="13" lengthAdjust="spacing" textLength="50" x="341" y="1063.0669">Log Out</text></g><!--SRC=[ZLHBJiCm4Dtx55uZvG9P89LGf4eLe4QmAIXoasanQkrguY0GuZ2SWIFqOapZV9pKQRgptynxyxDdUVNAW-2QpvHCfTWoLXrua15wDuiZ7lAvtaZLjInW8tE3GcKwUSeBWLAJOuGWa5TtndnE9Rk95XjXm8RvPiigbqVKxv2QP4vanjoRPTV8hSZVLbfW5lB92YKU3LzaqFn5pNPxZKQqc4SdqcejDmMAL1x-L991KZlNbJY2qqoEoBb8o6yqOa_XivyI6yvWkD8KzYHoCRNRn4R8upJWiu1Zsf1CLXBms9fdG1xBNR6reOTufmawf93V5_0XUDv2RO-xO3D95_O53VmDgmOHToFLit0BOMTJ7fZ89QIHLjHFI-3XTmS6TNw9g0NeQuNLT-eLqzXjPqPoY8HAOTlJw4au4UaDoBLCoN-Q6q4E6PnZ-jxGMJxhCGQUOZF6okAddSxiXp7QQJOtEZX2T6FbEYgPfStkbjP0E6sgSYloXyBy0m00]--></g></svg>