<?xml version="1.0" encoding="us-ascii" standalone="no"?><svg xmlns="http://www.w3.org/2000/svg" xmlns:xlink="http://www.w3.org/1999/xlink" contentStyleType="text/css" height="789px" preserveAspectRatio="none" style="width:364px;height:789px;background:#FFFFFF;" version="1.1" viewBox="0 0 364 789" width="364px" zoomAndPan="magnify"><defs/><g><ellipse cx="284.5" cy="16" fill="#222222" rx="10" ry="10" style="stroke:#222222;stroke-width:1.0;"/><rect fill="#F1F1F1" height="33.9688" rx="12.5" ry="12.5" style="stroke:#181818;stroke-width:0.5;" width="147" x="211" y="67"/><text fill="#000000" font-family="sans-serif" font-size="12" lengthAdjust="spacing" textLength="127" x="221" y="88.1387">Cliente utiliza el Core</text><g id="elem_#5"><polygon fill="#F1F1F1" points="284.5,142,296.5,154,284.5,166,272.5,154,284.5,142" style="stroke:#181818;stroke-width:0.5;"/></g><rect fill="#F1F1F1" height="33.9688" rx="12.5" ry="12.5" style="stroke:#181818;stroke-width:0.5;" width="189" x="98" y="220"/><text fill="#000000" font-family="sans-serif" font-size="12" lengthAdjust="spacing" textLength="169" x="108" y="241.1387">Administrador Recibe Ticket</text><rect fill="#F1F1F1" height="33.9688" rx="12.5" ry="12.5" style="stroke:#181818;stroke-width:0.5;" width="235" x="56" y="295"/><text fill="#000000" font-family="sans-serif" font-size="12" lengthAdjust="spacing" textLength="215" x="66" y="316.1387">Administrador Asigna Desarrollador</text><rect fill="#F1F1F1" height="33.9688" rx="12.5" ry="12.5" style="stroke:#181818;stroke-width:0.5;" width="255" x="38" y="370"/><text fill="#000000" font-family="sans-serif" font-size="12" lengthAdjust="spacing" textLength="235" x="48" y="391.1387">Desarrollador da Seguimiento al Ticket</text><rect fill="#F1F1F1" height="33.9688" rx="12.5" ry="12.5" style="stroke:#181818;stroke-width:0.5;" width="193" x="24" y="445"/><text fill="#000000" font-family="sans-serif" font-size="12" lengthAdjust="spacing" textLength="173" x="34" y="466.1387">Desarrollador Solventa Error</text><rect fill="#F1F1F1" height="33.9688" rx="12.5" ry="12.5" style="stroke:#181818;stroke-width:0.5;" width="213" x="7" y="533"/><text fill="#000000" font-family="sans-serif" font-size="12" lengthAdjust="spacing" textLength="193" x="17" y="554.1387">Administrador Valida la Soluci&#243;n</text><g id="elem_#18"><polygon fill="#F1F1F1" points="201.5,608,213.5,620,201.5,632,189.5,620,201.5,608" style="stroke:#181818;stroke-width:0.5;"/></g><rect fill="#F1F1F1" height="33.9688" rx="12.5" ry="12.5" style="stroke:#181818;stroke-width:0.5;" width="184" x="109.5" y="686"/><text fill="#000000" font-family="sans-serif" font-size="12" lengthAdjust="spacing" textLength="164" x="119.5" y="707.1387">Administrador Cierra Ticket</text><ellipse cx="286.5" cy="772" fill="none" rx="11" ry="11" style="stroke:#222222;stroke-width:1.0;"/><ellipse cx="286.5" cy="772" fill="#222222" rx="6" ry="6" style="stroke:#222222;stroke-width:1.0;"/><!--link start to Cliente utiliza el Core--><g id="link_start_Cliente utiliza el Core"><path d="M284.5,26.177 C284.5,36.661 284.5,48.015 284.5,60.791 " fill="none" id="start-to-Cliente utiliza el Core" style="stroke:#181818;stroke-width:1.0;"/><polygon fill="#181818" points="284.5,66.791,288.5,57.791,284.5,61.791,280.5,57.791,284.5,66.791" style="stroke:#181818;stroke-width:1.0;"/></g><!--link Cliente utiliza el Core to #5--><g id="link_Cliente utiliza el Core_#5"><path d="M284.5,101.115 C284.5,113.683 284.5,124.808 284.5,135.885 " fill="none" id="Cliente utiliza el Core-to-#5" style="stroke:#181818;stroke-width:1.0;"/><polygon fill="#181818" points="284.5,141.885,288.5,132.885,284.5,136.885,280.5,132.885,284.5,141.885" style="stroke:#181818;stroke-width:1.0;"/><text fill="#000000" font-family="sans-serif" font-size="11" lengthAdjust="spacing" textLength="77" x="188.7313" y="131.4605">&#191;Existe Error?</text></g><!--link #5 to Administrador Recibe Ticket--><g id="link_#5_Administrador Recibe Ticket"><path d="M278.464,160.315 C264.952,172.211 236.3193,197.4201 215.3583,215.8751 " fill="none" id="#5-to-Administrador Recibe Ticket" style="stroke:#181818;stroke-width:1.0;"/><polygon fill="#181818" points="210.855,219.84,220.2532,216.8948,214.6077,216.5359,214.9667,210.8905,210.855,219.84" style="stroke:#181818;stroke-width:1.0;"/><text fill="#000000" font-family="sans-serif" font-size="11" lengthAdjust="spacing" textLength="11" x="248.5" y="197.2104">Si</text></g><!--link Administrador Recibe Ticket to Administrador Asigna Desarrollador--><g id="link_Administrador Recibe Ticket_Administrador Asigna Desarrollador"><path d="M188.283,254.201 C185.135,266.298 182.3624,276.9515 179.2164,289.0375 " fill="none" id="Administrador Recibe Ticket-to-Administrador Asigna Desarrollador" style="stroke:#181818;stroke-width:1.0;"/><polygon fill="#181818" points="177.705,294.844,183.8432,287.1419,178.9645,290.0052,176.1012,285.1266,177.705,294.844" style="stroke:#181818;stroke-width:1.0;"/></g><!--link Administrador Asigna Desarrollador to Desarrollador da Seguimiento al Ticket--><g id="link_Administrador Asigna Desarrollador_Desarrollador da Seguimiento al Ticket"><path d="M171.725,329.201 C170.399,341.298 169.2489,351.7937 167.9239,363.8797 " fill="none" id="Administrador Asigna Desarrollador-to-Desarrollador da Seguimiento al Ticket" style="stroke:#181818;stroke-width:1.0;"/><polygon fill="#181818" points="167.27,369.844,172.227,361.3335,167.8149,364.8738,164.2746,360.4617,167.27,369.844" style="stroke:#181818;stroke-width:1.0;"/></g><!--link Desarrollador da Seguimiento al Ticket to Desarrollador Solventa Error--><g id="link_Desarrollador da Seguimiento al Ticket_Desarrollador Solventa Error"><path d="M155.513,404.201 C148.056,416.298 141.0587,427.6506 133.6077,439.7366 " fill="none" id="Desarrollador da Seguimiento al Ticket-to-Desarrollador Solventa Error" style="stroke:#181818;stroke-width:1.0;"/><polygon fill="#181818" points="130.459,444.844,138.587,439.282,133.0829,440.5878,131.7771,435.0837,130.459,444.844" style="stroke:#181818;stroke-width:1.0;"/></g><!--link Desarrollador Solventa Error to Administrador Valida la Soluci?n--><g id="link_Desarrollador Solventa Error_Administrador Valida la Soluci&#243;n"><path d="M119.183,479.176 C117.932,494.551 116.5465,511.5648 115.2975,526.9168 " fill="none" id="Desarrollador Solventa Error-to-Administrador Valida la Soluci&#243;n" style="stroke:#181818;stroke-width:1.0;"/><polygon fill="#181818" points="114.811,532.897,119.5276,524.251,115.2164,527.9135,111.554,523.6023,114.811,532.897" style="stroke:#181818;stroke-width:1.0;"/></g><!--link Administrador Valida la Soluci?n to #18--><g id="link_Administrador Valida la Soluci&#243;n_#18"><path d="M134.355,567.115 C154.075,582.354 177.7192,600.6244 190.3152,610.3574 " fill="none" id="Administrador Valida la Soluci&#243;n-to-#18" style="stroke:#181818;stroke-width:1.0;"/><polygon fill="#181818" points="195.063,614.026,190.3871,605.3579,191.1065,610.9688,185.4956,611.6882,195.063,614.026" style="stroke:#181818;stroke-width:1.0;"/><text fill="#000000" font-family="sans-serif" font-size="11" lengthAdjust="spacing" textLength="113" x="68.295" y="609.7051">&#191;Solucion Validada?</text></g><!--link #18 to Administrador Cierra Ticket--><g id="link_#18_Administrador Cierra Ticket"><path d="M201.5,632.263 C201.5,646.173 201.5,663.937 201.5,679.8031 " fill="none" id="#18-to-Administrador Cierra Ticket" style="stroke:#181818;stroke-width:1.0;"/><polygon fill="#181818" points="201.5,685.8031,205.5,676.8031,201.5,680.8031,197.5,676.8031,201.5,685.8031" style="stroke:#181818;stroke-width:1.0;"/><text fill="#000000" font-family="sans-serif" font-size="11" lengthAdjust="spacing" textLength="11" x="202.5" y="663.2104">Si</text></g><!--link Administrador Cierra Ticket to end--><g id="link_Administrador Cierra Ticket_end"><path d="M222.076,720.2188 C240.157,734.4708 260.8159,750.7549 273.6569,760.8766 " fill="none" id="Administrador Cierra Ticket-to-end" style="stroke:#181818;stroke-width:1.0;"/><polygon fill="#181818" points="278.369,764.5909,273.777,755.8781,274.4422,761.4957,268.8246,762.1609,278.369,764.5909" style="stroke:#181818;stroke-width:1.0;"/></g><!--link #18 to Desarrollador da Seguimiento al Ticket--><g id="link_#18_Desarrollador da Seguimiento al Ticket"><path d="M206.245,612.704 C212.978,603.334 224.988,584.896 229.5,567 C242.76,514.407 248.947,494.376 226.5,445 C218.882,428.243 208.5973,417.7009 195.3413,407.6859 " fill="none" id="#18-to-Desarrollador da Seguimiento al Ticket" style="stroke:#181818;stroke-width:1.0;"/><polygon fill="#181818" points="190.554,404.069,195.3237,412.6858,194.5434,407.083,200.1462,406.3027,190.554,404.069" style="stroke:#181818;stroke-width:1.0;"/><text fill="#000000" font-family="sans-serif" font-size="11" lengthAdjust="spacing" textLength="15" x="242.5" y="510.2104">No</text></g><!--link #5 to end--><g id="link_#5_end"><path d="M289.729,160.807 C300.572,173.474 324.5,204.946 324.5,236 C324.5,236 324.5,236 324.5,704 C324.5,728.3381 309.4415,747.5987 298.3375,759.2067 " fill="none" id="#5-to-end" style="stroke:#181818;stroke-width:1.0;"/><polygon fill="#181818" points="294.19,763.5424,303.3017,759.8038,297.6462,759.9293,297.5207,754.2738,294.19,763.5424" style="stroke:#181818;stroke-width:1.0;"/><text fill="#000000" font-family="sans-serif" font-size="11" lengthAdjust="spacing" textLength="15" x="325.5" y="466.2104">No</text></g><!--SRC=[bP0nhi8m44HxJZ6Y0YIk04A1bk87qI2A9Lxugx_OafCWnBKu019S38SGm7nHuCxZjxCpxlIwwFS7GAB2jc2KXQWS2An8dESMmf4rskVJP2zv02RUEpzie_XbUtj5PR18POcHsOeDa2VZF7uuanLZ9jaV5q_oZHhbih64CUSKZ5KhyGMET1X2ofjIjbLM1zB_xl50wdGNKAfJVmmn9vNWhLGDb9bSZasrkdgjEdi73SNzF_r08kmznHdhzPrUzt5dpJaochhbTxtP6bct8g_6frbqGwu0]--></g></svg>