<?xml version="1.0" encoding="us-ascii" standalone="no"?><svg xmlns="http://www.w3.org/2000/svg" xmlns:xlink="http://www.w3.org/1999/xlink" contentStyleType="text/css" height="512px" preserveAspectRatio="none" style="width:413px;height:512px;background:#FFFFFF;" version="1.1" viewBox="0 0 413 512" width="413px" zoomAndPan="magnify"><defs/><g><text fill="#000000" font-family="sans-serif" font-size="14" font-weight="bold" lengthAdjust="spacing" textLength="298" x="50.75" y="22.9951">Diagrama de Clases - Aplicaci&#243;n FISC</text><!--class Usuario--><g id="elem_Usuario"><rect codeLine="3" fill="#F1F1F1" height="80.5938" id="Usuario" rx="2.5" ry="2.5" style="stroke:#181818;stroke-width:0.5;" width="83" x="7" y="217.7969"/><ellipse cx="22" cy="233.7969" fill="#ADD1B2" rx="11" ry="11" style="stroke:#181818;stroke-width:1.0;"/><path d="M24.3438,229.4688 C23.4063,229.0313 22.8125,228.8906 21.9375,228.8906 C19.3125,228.8906 17.3125,230.9688 17.3125,233.6875 L17.3125,234.8125 C17.3125,237.3906 19.4219,239.2813 22.3125,239.2813 C23.5313,239.2813 24.6875,238.9844 25.4375,238.4375 C26.0156,238.0313 26.3438,237.5781 26.3438,237.1875 C26.3438,236.7344 25.9531,236.3438 25.4844,236.3438 C25.2656,236.3438 25.0625,236.4219 24.875,236.6094 C24.4219,237.0938 24.4219,237.0938 24.2344,237.1875 C23.8125,237.4531 23.125,237.5781 22.3594,237.5781 C20.3125,237.5781 19.0156,236.4844 19.0156,234.7813 L19.0156,233.6875 C19.0156,231.9063 20.2656,230.5938 22,230.5938 C22.5781,230.5938 23.1875,230.75 23.6563,231 C24.1406,231.2813 24.3125,231.5 24.4063,231.9063 C24.4688,232.3125 24.5,232.4375 24.6406,232.5625 C24.7813,232.7031 25.0156,232.8125 25.2344,232.8125 C25.5,232.8125 25.7656,232.6719 25.9375,232.4531 C26.0469,232.2969 26.0781,232.1094 26.0781,231.6875 L26.0781,230.2656 C26.0781,229.8281 26.0625,229.7031 25.9688,229.5469 C25.8125,229.2813 25.5313,229.1406 25.2344,229.1406 C24.9375,229.1406 24.7344,229.2344 24.5156,229.5469 L24.3438,229.4688 Z " fill="#000000"/><text fill="#000000" font-family="sans-serif" font-size="14" lengthAdjust="spacing" textLength="51" x="36" y="238.6436">Usuario</text><line style="stroke:#181818;stroke-width:0.5;" x1="8" x2="89" y1="249.7969" y2="249.7969"/><rect fill="none" height="6" style="stroke:#C82930;stroke-width:1.0;" width="6" x="15" y="260.4453"/><text fill="#000000" font-family="sans-serif" font-size="14" lengthAdjust="spacing" textLength="57" x="27" y="266.792">nombre</text><rect fill="none" height="6" style="stroke:#C82930;stroke-width:1.0;" width="6" x="15" y="276.7422"/><text fill="#000000" font-family="sans-serif" font-size="14" lengthAdjust="spacing" textLength="13" x="27" y="283.0889">id</text><line style="stroke:#181818;stroke-width:0.5;" x1="8" x2="89" y1="290.3906" y2="290.3906"/></g><!--class Proyecto--><g id="elem_Proyecto"><rect codeLine="8" fill="#F1F1F1" height="64.2969" id="Proyecto" rx="2.5" ry="2.5" style="stroke:#181818;stroke-width:0.5;" width="97" x="112" y="44.2969"/><ellipse cx="127" cy="60.2969" fill="#ADD1B2" rx="11" ry="11" style="stroke:#181818;stroke-width:1.0;"/><path d="M129.3438,55.9688 C128.4063,55.5313 127.8125,55.3906 126.9375,55.3906 C124.3125,55.3906 122.3125,57.4688 122.3125,60.1875 L122.3125,61.3125 C122.3125,63.8906 124.4219,65.7813 127.3125,65.7813 C128.5313,65.7813 129.6875,65.4844 130.4375,64.9375 C131.0156,64.5313 131.3438,64.0781 131.3438,63.6875 C131.3438,63.2344 130.9531,62.8438 130.4844,62.8438 C130.2656,62.8438 130.0625,62.9219 129.875,63.1094 C129.4219,63.5938 129.4219,63.5938 129.2344,63.6875 C128.8125,63.9531 128.125,64.0781 127.3594,64.0781 C125.3125,64.0781 124.0156,62.9844 124.0156,61.2813 L124.0156,60.1875 C124.0156,58.4063 125.2656,57.0938 127,57.0938 C127.5781,57.0938 128.1875,57.25 128.6563,57.5 C129.1406,57.7813 129.3125,58 129.4063,58.4063 C129.4688,58.8125 129.5,58.9375 129.6406,59.0625 C129.7813,59.2031 130.0156,59.3125 130.2344,59.3125 C130.5,59.3125 130.7656,59.1719 130.9375,58.9531 C131.0469,58.7969 131.0781,58.6094 131.0781,58.1875 L131.0781,56.7656 C131.0781,56.3281 131.0625,56.2031 130.9688,56.0469 C130.8125,55.7813 130.5313,55.6406 130.2344,55.6406 C129.9375,55.6406 129.7344,55.7344 129.5156,56.0469 L129.3438,55.9688 Z " fill="#000000"/><text fill="#000000" font-family="sans-serif" font-size="14" lengthAdjust="spacing" textLength="65" x="141" y="65.1436">Proyecto</text><line style="stroke:#181818;stroke-width:0.5;" x1="113" x2="208" y1="76.2969" y2="76.2969"/><rect fill="none" height="6" style="stroke:#C82930;stroke-width:1.0;" width="6" x="120" y="86.9453"/><text fill="#000000" font-family="sans-serif" font-size="14" lengthAdjust="spacing" textLength="57" x="132" y="93.292">nombre</text><line style="stroke:#181818;stroke-width:0.5;" x1="113" x2="208" y1="100.5938" y2="100.5938"/></g><!--class Simulaci?n--><g id="elem_Simulaci&#243;n"><rect codeLine="12" fill="#F1F1F1" height="145.7813" id="Simulaci&#243;n" rx="2.5" ry="2.5" style="stroke:#181818;stroke-width:0.5;" width="160" x="246.5" y="185.2969"/><ellipse cx="284.45" cy="201.2969" fill="#ADD1B2" rx="11" ry="11" style="stroke:#181818;stroke-width:1.0;"/><path d="M286.7938,196.9688 C285.8563,196.5313 285.2625,196.3906 284.3875,196.3906 C281.7625,196.3906 279.7625,198.4688 279.7625,201.1875 L279.7625,202.3125 C279.7625,204.8906 281.8719,206.7813 284.7625,206.7813 C285.9813,206.7813 287.1375,206.4844 287.8875,205.9375 C288.4656,205.5313 288.7938,205.0781 288.7938,204.6875 C288.7938,204.2344 288.4031,203.8438 287.9344,203.8438 C287.7156,203.8438 287.5125,203.9219 287.325,204.1094 C286.8719,204.5938 286.8719,204.5938 286.6844,204.6875 C286.2625,204.9531 285.575,205.0781 284.8094,205.0781 C282.7625,205.0781 281.4656,203.9844 281.4656,202.2813 L281.4656,201.1875 C281.4656,199.4063 282.7156,198.0938 284.45,198.0938 C285.0281,198.0938 285.6375,198.25 286.1063,198.5 C286.5906,198.7813 286.7625,199 286.8563,199.4063 C286.9188,199.8125 286.95,199.9375 287.0906,200.0625 C287.2313,200.2031 287.4656,200.3125 287.6844,200.3125 C287.95,200.3125 288.2156,200.1719 288.3875,199.9531 C288.4969,199.7969 288.5281,199.6094 288.5281,199.1875 L288.5281,197.7656 C288.5281,197.3281 288.5125,197.2031 288.4188,197.0469 C288.2625,196.7813 287.9813,196.6406 287.6844,196.6406 C287.3875,196.6406 287.1844,196.7344 286.9656,197.0469 L286.7938,196.9688 Z " fill="#000000"/><text fill="#000000" font-family="sans-serif" font-size="14" lengthAdjust="spacing" textLength="77" x="303.55" y="206.1436">Simulaci&#243;n</text><line style="stroke:#181818;stroke-width:0.5;" x1="247.5" x2="405.5" y1="217.2969" y2="217.2969"/><rect fill="none" height="6" style="stroke:#C82930;stroke-width:1.0;" width="6" x="254.5" y="227.9453"/><text fill="#000000" font-family="sans-serif" font-size="14" lengthAdjust="spacing" textLength="134" x="266.5" y="234.292">tipolog&#237;aElemento</text><rect fill="none" height="6" style="stroke:#C82930;stroke-width:1.0;" width="6" x="254.5" y="244.2422"/><text fill="#000000" font-family="sans-serif" font-size="14" lengthAdjust="spacing" textLength="60" x="266.5" y="250.5889">material</text><rect fill="none" height="6" style="stroke:#C82930;stroke-width:1.0;" width="6" x="254.5" y="260.5391"/><text fill="#000000" font-family="sans-serif" font-size="14" lengthAdjust="spacing" textLength="83" x="266.5" y="266.8857">localizaci&#243;n</text><rect fill="none" height="6" style="stroke:#C82930;stroke-width:1.0;" width="6" x="254.5" y="276.8359"/><text fill="#000000" font-family="sans-serif" font-size="14" lengthAdjust="spacing" textLength="119" x="266.5" y="283.1826">agresi&#243;nT&#233;rmica</text><rect fill="none" height="6" style="stroke:#C82930;stroke-width:1.0;" width="6" x="254.5" y="293.1328"/><text fill="#000000" font-family="sans-serif" font-size="14" lengthAdjust="spacing" textLength="114" x="266.5" y="299.4795">gr&#225;ficaReacci&#243;n</text><rect fill="none" height="6" style="stroke:#C82930;stroke-width:1.0;" width="6" x="254.5" y="309.4297"/><text fill="#000000" font-family="sans-serif" font-size="14" lengthAdjust="spacing" textLength="117" x="266.5" y="315.7764">fechaSimulaci&#243;n</text><line style="stroke:#181818;stroke-width:0.5;" x1="247.5" x2="405.5" y1="323.0781" y2="323.0781"/></g><!--class Log--><g id="elem_Log"><rect codeLine="21" fill="#F1F1F1" height="96.8906" id="Log" rx="2.5" ry="2.5" style="stroke:#181818;stroke-width:0.5;" width="99" x="65" y="408.2969"/><ellipse cx="98.45" cy="424.2969" fill="#ADD1B2" rx="11" ry="11" style="stroke:#181818;stroke-width:1.0;"/><path d="M100.7938,419.9688 C99.8563,419.5313 99.2625,419.3906 98.3875,419.3906 C95.7625,419.3906 93.7625,421.4688 93.7625,424.1875 L93.7625,425.3125 C93.7625,427.8906 95.8719,429.7813 98.7625,429.7813 C99.9813,429.7813 101.1375,429.4844 101.8875,428.9375 C102.4656,428.5313 102.7938,428.0781 102.7938,427.6875 C102.7938,427.2344 102.4031,426.8438 101.9344,426.8438 C101.7156,426.8438 101.5125,426.9219 101.325,427.1094 C100.8719,427.5938 100.8719,427.5938 100.6844,427.6875 C100.2625,427.9531 99.575,428.0781 98.8094,428.0781 C96.7625,428.0781 95.4656,426.9844 95.4656,425.2813 L95.4656,424.1875 C95.4656,422.4063 96.7156,421.0938 98.45,421.0938 C99.0281,421.0938 99.6375,421.25 100.1063,421.5 C100.5906,421.7813 100.7625,422 100.8563,422.4063 C100.9188,422.8125 100.95,422.9375 101.0906,423.0625 C101.2313,423.2031 101.4656,423.3125 101.6844,423.3125 C101.95,423.3125 102.2156,423.1719 102.3875,422.9531 C102.4969,422.7969 102.5281,422.6094 102.5281,422.1875 L102.5281,420.7656 C102.5281,420.3281 102.5125,420.2031 102.4188,420.0469 C102.2625,419.7813 101.9813,419.6406 101.6844,419.6406 C101.3875,419.6406 101.1844,419.7344 100.9656,420.0469 L100.7938,419.9688 Z " fill="#000000"/><text fill="#000000" font-family="sans-serif" font-size="14" lengthAdjust="spacing" textLength="26" x="116.55" y="429.1436">Log</text><line style="stroke:#181818;stroke-width:0.5;" x1="66" x2="163" y1="440.2969" y2="440.2969"/><rect fill="none" height="6" style="stroke:#C82930;stroke-width:1.0;" width="6" x="73" y="450.9453"/><text fill="#000000" font-family="sans-serif" font-size="14" lengthAdjust="spacing" textLength="62" x="85" y="457.292">acciones</text><rect fill="none" height="6" style="stroke:#C82930;stroke-width:1.0;" width="6" x="73" y="467.2422"/><text fill="#000000" font-family="sans-serif" font-size="14" lengthAdjust="spacing" textLength="73" x="85" y="473.5889">fechaHora</text><rect fill="none" height="6" style="stroke:#C82930;stroke-width:1.0;" width="6" x="73" y="483.5391"/><text fill="#000000" font-family="sans-serif" font-size="14" lengthAdjust="spacing" textLength="57" x="85" y="489.8857">detalles</text><line style="stroke:#181818;stroke-width:0.5;" x1="66" x2="163" y1="497.1875" y2="497.1875"/></g><!--class Reporte--><g id="elem_Reporte"><rect codeLine="27" fill="#F1F1F1" height="96.8906" id="Reporte" rx="2.5" ry="2.5" style="stroke:#181818;stroke-width:0.5;" width="100" x="276.5" y="408.2969"/><ellipse cx="295.1" cy="424.2969" fill="#ADD1B2" rx="11" ry="11" style="stroke:#181818;stroke-width:1.0;"/><path d="M297.4438,419.9688 C296.5063,419.5313 295.9125,419.3906 295.0375,419.3906 C292.4125,419.3906 290.4125,421.4688 290.4125,424.1875 L290.4125,425.3125 C290.4125,427.8906 292.5219,429.7813 295.4125,429.7813 C296.6313,429.7813 297.7875,429.4844 298.5375,428.9375 C299.1156,428.5313 299.4438,428.0781 299.4438,427.6875 C299.4438,427.2344 299.0531,426.8438 298.5844,426.8438 C298.3656,426.8438 298.1625,426.9219 297.975,427.1094 C297.5219,427.5938 297.5219,427.5938 297.3344,427.6875 C296.9125,427.9531 296.225,428.0781 295.4594,428.0781 C293.4125,428.0781 292.1156,426.9844 292.1156,425.2813 L292.1156,424.1875 C292.1156,422.4063 293.3656,421.0938 295.1,421.0938 C295.6781,421.0938 296.2875,421.25 296.7563,421.5 C297.2406,421.7813 297.4125,422 297.5063,422.4063 C297.5688,422.8125 297.6,422.9375 297.7406,423.0625 C297.8813,423.2031 298.1156,423.3125 298.3344,423.3125 C298.6,423.3125 298.8656,423.1719 299.0375,422.9531 C299.1469,422.7969 299.1781,422.6094 299.1781,422.1875 L299.1781,420.7656 C299.1781,420.3281 299.1625,420.2031 299.0688,420.0469 C298.9125,419.7813 298.6313,419.6406 298.3344,419.6406 C298.0375,419.6406 297.8344,419.7344 297.6156,420.0469 L297.4438,419.9688 Z " fill="#000000"/><text fill="#000000" font-family="sans-serif" font-size="14" lengthAdjust="spacing" textLength="60" x="309.9" y="429.1436">Reporte</text><line style="stroke:#181818;stroke-width:0.5;" x1="277.5" x2="375.5" y1="440.2969" y2="440.2969"/><rect fill="none" height="6" style="stroke:#C82930;stroke-width:1.0;" width="6" x="284.5" y="450.9453"/><text fill="#000000" font-family="sans-serif" font-size="14" lengthAdjust="spacing" textLength="74" x="296.5" y="457.292">resultados</text><rect fill="none" height="6" style="stroke:#C82930;stroke-width:1.0;" width="6" x="284.5" y="467.2422"/><text fill="#000000" font-family="sans-serif" font-size="14" lengthAdjust="spacing" textLength="59" x="296.5" y="473.5889">formato</text><rect fill="none" height="6" style="stroke:#C82930;stroke-width:1.0;" width="6" x="284.5" y="483.5391"/><text fill="#000000" font-family="sans-serif" font-size="14" lengthAdjust="spacing" textLength="56" x="296.5" y="489.8857">gr&#225;ficas</text><line style="stroke:#181818;stroke-width:0.5;" x1="277.5" x2="375.5" y1="497.1875" y2="497.1875"/></g><!--link Proyecto to Simulaci?n--><g id="link_Proyecto_Simulaci&#243;n"><path codeLine="34" d="M189.415,108.6509 C208.922,129.8029 235.489,158.6099 260.042,185.2349 " fill="none" id="Proyecto-Simulaci&#243;n" style="stroke:#181818;stroke-width:1.0;"/><text fill="#000000" font-family="sans-serif" font-size="13" lengthAdjust="spacing" textLength="55" x="230.5" y="151.3638">contiene</text></g><!--link Simulaci?n to Reporte--><g id="link_Simulaci&#243;n_Reporte"><path codeLine="35" d="M326.5,331.3509 C326.5,356.9809 326.5,385.1779 326.5,408.2415 " fill="none" id="Simulaci&#243;n-Reporte" style="stroke:#181818;stroke-width:1.0;"/><text fill="#000000" font-family="sans-serif" font-size="13" lengthAdjust="spacing" textLength="52" x="327.5" y="374.3638">produce</text></g><!--link Proyecto to Usuario--><g id="link_Proyecto_Usuario"><path codeLine="36" d="M111.833,91.2389 C88.6857,100.5769 63.1418,115.4539 49.5,138.2969 C35.4112,161.8889 35.6917,193.0869 39.2135,217.6199 " fill="none" id="Proyecto-Usuario" style="stroke:#181818;stroke-width:1.0;"/><text fill="#000000" font-family="sans-serif" font-size="13" lengthAdjust="spacing" textLength="83" x="50.5" y="151.3638">realizado por</text></g><!--link Usuario to Log--><g id="link_Usuario_Log"><path codeLine="37" d="M59.1608,298.9889 C65.6641,322.2669 74.4472,352.1469 83.5,378.2969 C86.8659,388.0199 90.7493,398.3109 94.6042,408.1066 " fill="none" id="Usuario-Log" style="stroke:#181818;stroke-width:1.0;"/><text fill="#000000" font-family="sans-serif" font-size="13" lengthAdjust="spacing" textLength="49" x="84.5" y="374.3638">registra</text></g><!--link Proyecto to Log--><g id="link_Proyecto_Log"><path codeLine="38" d="M160.544,108.3609 C160.11,163.2989 156.875,280.9879 138.5,378.2969 C136.644,388.1239 133.972,398.4609 131.079,408.2698 " fill="none" id="Proyecto-Log" style="stroke:#181818;stroke-width:1.0;"/><text fill="#000000" font-family="sans-serif" font-size="13" lengthAdjust="spacing" textLength="49" x="159.5" y="262.8638">registra</text></g><!--SRC=[PP51JiGm34NtEOKr-rw07Hf08B50CyC1JE8faTAwSj8580x3aWKhZj2BuPOaT8RidF_yy-qadmB1bSTMi4Dm1Dk0aI8qS3a4Rz7wwRk7cxlzrXYhKeJ7EA9uXZS3UXhekNiIoeLtvhs03y8lPDC_iW9xtuqXlr2Ov0SEt4vVU1seepvn5ZfC91v3BWDR3FxrjplVwH0Kv_emVKgduVDzAzF7KSiTeLtpHxBFk0hnb-oUsvfexk6UuhhfbgMOEqeOWigrUKS3Iw9geA76aD1njM3HQVWitU9WwjAWQKuMT04RottorDF6h0NboelA3C9kj8fK8zNBbwakjApDCMZBnXH5eNdc1MXzJ8Ad3kVY3m00]--></g></svg>