<?xml version="1.0" encoding="us-ascii" standalone="no"?><svg xmlns="http://www.w3.org/2000/svg" xmlns:xlink="http://www.w3.org/1999/xlink" contentStyleType="text/css" height="420px" preserveAspectRatio="none" style="width:1009px;height:420px;background:#FFFFFF;" version="1.1" viewBox="0 0 1009 420" width="1009px" zoomAndPan="magnify"><defs/><g><!--class Horario de Grado--><g id="elem_Horario de Grado"><rect codeLine="1" fill="#F1F1F1" height="48" id="Horario de Grado" rx="2.5" ry="2.5" style="stroke:#181818;stroke-width:0.5;" width="153" x="570" y="7"/><ellipse cx="585" cy="23" fill="#ADD1B2" rx="11" ry="11" style="stroke:#181818;stroke-width:1.0;"/><path d="M587.3438,18.6719 C586.4063,18.2344 585.8125,18.0938 584.9375,18.0938 C582.3125,18.0938 580.3125,20.1719 580.3125,22.8906 L580.3125,24.0156 C580.3125,26.5938 582.4219,28.4844 585.3125,28.4844 C586.5313,28.4844 587.6875,28.1875 588.4375,27.6406 C589.0156,27.2344 589.3438,26.7813 589.3438,26.3906 C589.3438,25.9375 588.9531,25.5469 588.4844,25.5469 C588.2656,25.5469 588.0625,25.625 587.875,25.8125 C587.4219,26.2969 587.4219,26.2969 587.2344,26.3906 C586.8125,26.6563 586.125,26.7813 585.3594,26.7813 C583.3125,26.7813 582.0156,25.6875 582.0156,23.9844 L582.0156,22.8906 C582.0156,21.1094 583.2656,19.7969 585,19.7969 C585.5781,19.7969 586.1875,19.9531 586.6563,20.2031 C587.1406,20.4844 587.3125,20.7031 587.4063,21.1094 C587.4688,21.5156 587.5,21.6406 587.6406,21.7656 C587.7813,21.9063 588.0156,22.0156 588.2344,22.0156 C588.5,22.0156 588.7656,21.875 588.9375,21.6563 C589.0469,21.5 589.0781,21.3125 589.0781,20.8906 L589.0781,19.4688 C589.0781,19.0313 589.0625,18.9063 588.9688,18.75 C588.8125,18.4844 588.5313,18.3438 588.2344,18.3438 C587.9375,18.3438 587.7344,18.4375 587.5156,18.75 L587.3438,18.6719 Z " fill="#000000"/><text fill="#000000" font-family="sans-serif" font-size="14" lengthAdjust="spacing" textLength="121" x="599" y="27.8467">Horario de Grado</text><line style="stroke:#181818;stroke-width:0.5;" x1="571" x2="722" y1="39" y2="39"/><line style="stroke:#181818;stroke-width:0.5;" x1="571" x2="722" y1="47" y2="47"/></g><!--class Horario de Profesor--><g id="elem_Horario de Profesor"><rect codeLine="4" fill="#F1F1F1" height="48" id="Horario de Profesor" rx="2.5" ry="2.5" style="stroke:#181818;stroke-width:0.5;" width="171" x="284" y="135.5"/><ellipse cx="299" cy="151.5" fill="#ADD1B2" rx="11" ry="11" style="stroke:#181818;stroke-width:1.0;"/><path d="M301.3438,147.1719 C300.4063,146.7344 299.8125,146.5938 298.9375,146.5938 C296.3125,146.5938 294.3125,148.6719 294.3125,151.3906 L294.3125,152.5156 C294.3125,155.0938 296.4219,156.9844 299.3125,156.9844 C300.5313,156.9844 301.6875,156.6875 302.4375,156.1406 C303.0156,155.7344 303.3438,155.2813 303.3438,154.8906 C303.3438,154.4375 302.9531,154.0469 302.4844,154.0469 C302.2656,154.0469 302.0625,154.125 301.875,154.3125 C301.4219,154.7969 301.4219,154.7969 301.2344,154.8906 C300.8125,155.1563 300.125,155.2813 299.3594,155.2813 C297.3125,155.2813 296.0156,154.1875 296.0156,152.4844 L296.0156,151.3906 C296.0156,149.6094 297.2656,148.2969 299,148.2969 C299.5781,148.2969 300.1875,148.4531 300.6563,148.7031 C301.1406,148.9844 301.3125,149.2031 301.4063,149.6094 C301.4688,150.0156 301.5,150.1406 301.6406,150.2656 C301.7813,150.4063 302.0156,150.5156 302.2344,150.5156 C302.5,150.5156 302.7656,150.375 302.9375,150.1563 C303.0469,150 303.0781,149.8125 303.0781,149.3906 L303.0781,147.9688 C303.0781,147.5313 303.0625,147.4063 302.9688,147.25 C302.8125,146.9844 302.5313,146.8438 302.2344,146.8438 C301.9375,146.8438 301.7344,146.9375 301.5156,147.25 L301.3438,147.1719 Z " fill="#000000"/><text fill="#000000" font-family="sans-serif" font-size="14" lengthAdjust="spacing" textLength="139" x="313" y="156.3467">Horario de Profesor</text><line style="stroke:#181818;stroke-width:0.5;" x1="285" x2="454" y1="167.5" y2="167.5"/><line style="stroke:#181818;stroke-width:0.5;" x1="285" x2="454" y1="175.5" y2="175.5"/></g><!--class Horario de Aula--><g id="elem_Horario de Aula"><rect codeLine="7" fill="#F1F1F1" height="48" id="Horario de Aula" rx="2.5" ry="2.5" style="stroke:#181818;stroke-width:0.5;" width="140" x="497.5" y="264"/><ellipse cx="512.5" cy="280" fill="#ADD1B2" rx="11" ry="11" style="stroke:#181818;stroke-width:1.0;"/><path d="M514.8438,275.6719 C513.9063,275.2344 513.3125,275.0938 512.4375,275.0938 C509.8125,275.0938 507.8125,277.1719 507.8125,279.8906 L507.8125,281.0156 C507.8125,283.5938 509.9219,285.4844 512.8125,285.4844 C514.0313,285.4844 515.1875,285.1875 515.9375,284.6406 C516.5156,284.2344 516.8438,283.7813 516.8438,283.3906 C516.8438,282.9375 516.4531,282.5469 515.9844,282.5469 C515.7656,282.5469 515.5625,282.625 515.375,282.8125 C514.9219,283.2969 514.9219,283.2969 514.7344,283.3906 C514.3125,283.6563 513.625,283.7813 512.8594,283.7813 C510.8125,283.7813 509.5156,282.6875 509.5156,280.9844 L509.5156,279.8906 C509.5156,278.1094 510.7656,276.7969 512.5,276.7969 C513.0781,276.7969 513.6875,276.9531 514.1563,277.2031 C514.6406,277.4844 514.8125,277.7031 514.9063,278.1094 C514.9688,278.5156 515,278.6406 515.1406,278.7656 C515.2813,278.9063 515.5156,279.0156 515.7344,279.0156 C516,279.0156 516.2656,278.875 516.4375,278.6563 C516.5469,278.5 516.5781,278.3125 516.5781,277.8906 L516.5781,276.4688 C516.5781,276.0313 516.5625,275.9063 516.4688,275.75 C516.3125,275.4844 516.0313,275.3438 515.7344,275.3438 C515.4375,275.3438 515.2344,275.4375 515.0156,275.75 L514.8438,275.6719 Z " fill="#000000"/><text fill="#000000" font-family="sans-serif" font-size="14" lengthAdjust="spacing" textLength="108" x="526.5" y="284.8467">Horario de Aula</text><line style="stroke:#181818;stroke-width:0.5;" x1="498.5" x2="636.5" y1="296" y2="296"/><line style="stroke:#181818;stroke-width:0.5;" x1="498.5" x2="636.5" y1="304" y2="304"/></g><g id="elem_N1"><path d="M651,139.5 L651,179.7656 A0,0 0 0 0 651,179.7656 L830,179.7656 A0,0 0 0 0 830,179.7656 L830,149.5 L820,139.5 L730.137,139.5 L663.741,55.202 L722.137,139.5 L651,139.5 A0,0 0 0 0 651,139.5 " fill="#FEFFDD" style="stroke:#181818;stroke-width:0.5;"/><path d="M820,139.5 L820,149.5 L830,149.5 L820,139.5 " fill="#FEFFDD" style="stroke:#181818;stroke-width:0.5;"/><text fill="#000000" font-family="sans-serif" font-size="13" lengthAdjust="spacing" textLength="158" x="657" y="156.5669">Contiene las asignaturas</text><text fill="#000000" font-family="sans-serif" font-size="13" lengthAdjust="spacing" textLength="105" x="657" y="171.6997">de cada carrera.</text></g><g id="elem_N2"><path d="M6,268 L6,308.2656 A0,0 0 0 0 6,308.2656 L213,308.2656 A0,0 0 0 0 213,308.2656 L213,278 L203,268 L152.912,268 L322.114,183.555 L144.912,268 L6,268 A0,0 0 0 0 6,268 " fill="#FEFFDD" style="stroke:#181818;stroke-width:0.5;"/><path d="M203,268 L203,278 L213,278 L203,268 " fill="#FEFFDD" style="stroke:#181818;stroke-width:0.5;"/><text fill="#000000" font-family="sans-serif" font-size="13" lengthAdjust="spacing" textLength="186" x="12" y="285.0669">Contiene las asignaturas que</text><text fill="#000000" font-family="sans-serif" font-size="13" lengthAdjust="spacing" textLength="147" x="12" y="300.1997">imparte cada profesor.</text></g><g id="elem_N3"><path d="M366,373 L366,413.2656 A0,0 0 0 0 366,413.2656 L537,413.2656 A0,0 0 0 0 537,413.2656 L537,383 L527,373 L477.168,373 L541.467,312.115 L469.168,373 L366,373 A0,0 0 0 0 366,373 " fill="#FEFFDD" style="stroke:#181818;stroke-width:0.5;"/><path d="M527,373 L527,383 L537,383 L527,373 " fill="#FEFFDD" style="stroke:#181818;stroke-width:0.5;"/><text fill="#000000" font-family="sans-serif" font-size="13" lengthAdjust="spacing" textLength="150" x="372" y="390.0669">Indica qu&#233; clase hay en</text><text fill="#000000" font-family="sans-serif" font-size="13" lengthAdjust="spacing" textLength="66" x="372" y="405.1997">cada aula.</text></g><g id="elem_GMN14"><path d="M865,132 L865,187.3984 A0,0 0 0 0 865,187.3984 L1002,187.3984 A0,0 0 0 0 1002,187.3984 L1002,142 L992,132 L877.36,132 L698.807,55.055 L869.36,132 L865,132 A0,0 0 0 0 865,132 " fill="#FEFFDD" style="stroke:#181818;stroke-width:0.5;"/><path d="M992,132 L992,142 L1002,142 L992,132 " fill="#FEFFDD" style="stroke:#181818;stroke-width:0.5;"/><text fill="#000000" font-family="sans-serif" font-size="13" lengthAdjust="spacing" textLength="102" x="871" y="149.0669">Si hay conflicto:</text><text fill="#000000" font-family="sans-serif" font-size="13" lengthAdjust="spacing" textLength="62" x="871" y="164.1997">- Notificar</text><text fill="#000000" font-family="sans-serif" font-size="13" lengthAdjust="spacing" textLength="116" x="871" y="179.3325">- Bloquear cambio</text></g><g id="elem_GMN17"><path d="M248.5,268 L248.5,308.2656 A0,0 0 0 0 248.5,308.2656 L462.5,308.2656 A0,0 0 0 0 462.5,308.2656 L462.5,278 L452.5,268 L361.639,268 L366.932,183.702 L353.639,268 L248.5,268 A0,0 0 0 0 248.5,268 " fill="#FEFFDD" style="stroke:#181818;stroke-width:0.5;"/><path d="M452.5,268 L452.5,278 L462.5,278 L452.5,268 " fill="#FEFFDD" style="stroke:#181818;stroke-width:0.5;"/><text fill="#000000" font-family="sans-serif" font-size="13" lengthAdjust="spacing" textLength="193" x="254.5" y="285.0669">Un profesor no puede impartir</text><text fill="#000000" font-family="sans-serif" font-size="13" lengthAdjust="spacing" textLength="125" x="254.5" y="300.1997">dos clases a la vez.</text></g><g id="elem_GMN20"><path d="M572,373 L572,413.2656 A0,0 0 0 0 572,413.2656 L795,413.2656 A0,0 0 0 0 795,413.2656 L795,383 L785,373 L665.832,373 L593.533,312.115 L657.832,373 L572,373 A0,0 0 0 0 572,373 " fill="#FEFFDD" style="stroke:#181818;stroke-width:0.5;"/><path d="M785,373 L785,383 L795,383 L785,373 " fill="#FEFFDD" style="stroke:#181818;stroke-width:0.5;"/><text fill="#000000" font-family="sans-serif" font-size="13" lengthAdjust="spacing" textLength="202" x="578" y="390.0669">No puede haber una clase en la</text><text fill="#000000" font-family="sans-serif" font-size="13" lengthAdjust="spacing" textLength="195" x="578" y="405.1997">misma hora en el mismo aula.</text></g><!--link Horario de Grado to Horario de Profesor--><g id="link_Horario de Grado_Horario de Profesor"><path codeLine="10" d="M569.723,47.819 C536.598,56.312 498.064,68.494 465.5,85 C439.101,98.381 412.66,119.319 394.231,135.43 " fill="none" id="Horario de Grado-Horario de Profesor" style="stroke:#181818;stroke-width:1.0;"/><text fill="#000000" font-family="sans-serif" font-size="13" lengthAdjust="spacing" textLength="60" x="466.5" y="98.0669">Conexi&#243;n</text></g><!--link Horario de Grado to Horario de Aula--><g id="link_Horario de Grado_Horario de Aula"><path codeLine="11" d="M622.256,55.334 C604.524,74.144 581.835,102.279 571.5,132 C555.984,176.622 559.862,232.909 563.835,263.896 " fill="none" id="Horario de Grado-Horario de Aula" style="stroke:#181818;stroke-width:1.0;"/><text fill="#000000" font-family="sans-serif" font-size="13" lengthAdjust="spacing" textLength="60" x="572.5" y="164.0669">Conexi&#243;n</text></g><!--link Horario de Profesor to Horario de Aula--><g id="link_Horario de Profesor_Horario de Aula"><path codeLine="12" d="M397.126,183.713 C415.821,198.897 441.409,218.684 465.5,234 C482.341,244.707 501.589,255.136 518.793,263.871 " fill="none" id="Horario de Profesor-Horario de Aula" style="stroke:#181818;stroke-width:1.0;"/><text fill="#000000" font-family="sans-serif" font-size="13" lengthAdjust="spacing" textLength="60" x="466.5" y="230.0669">Conexi&#243;n</text></g><!--SRC=[ZLBBJiD03BplLrYz9nBjhJVW05mY9CG7E8b3LahMgNU3U8WFuimdzCVm9g5KRGgzH8h7CvwPf6ZGUrZSig1OXfBWHh3a1RoR3sEA8_HUk2BFSdBXiczm0cTKa-I4sXgksT6BtNwvCtZZaLESNzL_QSPn840FsOM1E0-M786cqg5zSXXwGQ-GiWiiKHyY99WQSYL4yfx4yWy9sFIai6qxb31fTPFFMR6LRj-vqXQerEqdnAO9Qdm5SWeD0gXvziapnQLfZ3RVJiIMvhYWE5zDLd8EWLlWQkOVKHiFTh1KiAiQMmHUwoo1Z8EjrBaCRrSDQtWKzTpcbW_3pb_OkLI9HxUhIedGzQGBOvCsdYZPZ_LeuzexFDDRUjwL8QygP3-gDUOaq3kS-YQdWhhGMjyYrCgC8sg60HzyW6y0]--></g></svg>