<?xml version="1.0" encoding="us-ascii" standalone="no"?><svg xmlns="http://www.w3.org/2000/svg" xmlns:xlink="http://www.w3.org/1999/xlink" contentStyleType="text/css" height="549px" preserveAspectRatio="none" style="width:339px;height:549px;background:#FFFFFF;" version="1.1" viewBox="0 0 339 549" width="339px" zoomAndPan="magnify"><defs/><g><text fill="#000000" font-family="sans-serif" font-size="14" font-weight="bold" lengthAdjust="spacing" textLength="311" x="10" y="22.9951">Diagrama de Estados - Aplicaci&#243;n FISC</text><ellipse cx="177.75" cy="53.2969" fill="#222222" rx="10" ry="10" style="stroke:#222222;stroke-width:1.0;"/><g id="EligiendoCaracteristicas"><rect fill="#F1F1F1" height="50" rx="12.5" ry="12.5" style="stroke:#181818;stroke-width:0.5;" width="193" x="81.25" y="140.2969"/><line style="stroke:#181818;stroke-width:0.5;" x1="81.25" x2="274.25" y1="166.5938" y2="166.5938"/><text fill="#000000" font-family="sans-serif" font-size="14" lengthAdjust="spacing" textLength="173" x="91.25" y="158.292">EligiendoCaracteristicas</text></g><g id="Simulacion"><rect fill="#F1F1F1" height="50" rx="12.5" ry="12.5" style="stroke:#181818;stroke-width:0.5;" width="97" x="40.25" y="267.2969"/><line style="stroke:#181818;stroke-width:0.5;" x1="40.25" x2="137.25" y1="293.5938" y2="293.5938"/><text fill="#000000" font-family="sans-serif" font-size="14" lengthAdjust="spacing" textLength="77" x="50.25" y="285.292">Simulacion</text></g><g id="Reporte"><rect fill="#F1F1F1" height="50" rx="12.5" ry="12.5" style="stroke:#181818;stroke-width:0.5;" width="80" x="118.75" y="394.2969"/><line style="stroke:#181818;stroke-width:0.5;" x1="118.75" x2="198.75" y1="420.5938" y2="420.5938"/><text fill="#000000" font-family="sans-serif" font-size="14" lengthAdjust="spacing" textLength="60" x="128.75" y="412.292">Reporte</text></g><ellipse cx="158.75" cy="532.2969" fill="none" rx="11" ry="11" style="stroke:#222222;stroke-width:1.0;"/><ellipse cx="158.75" cy="532.2969" fill="#222222" rx="6" ry="6" style="stroke:#222222;stroke-width:1.0;"/><!--link *start* to EligiendoCaracteristicas--><g id="link_*start*_EligiendoCaracteristicas"><path d="M177.75,63.2989 C177.75,79.9239 177.75,109.9519 177.75,134.1699 " fill="none" id="*start*-to-EligiendoCaracteristicas" style="stroke:#181818;stroke-width:1.0;"/><polygon fill="#181818" points="177.75,140.1699,181.75,131.1699,177.75,135.1699,173.75,131.1699,177.75,140.1699" style="stroke:#181818;stroke-width:1.0;"/><text fill="#000000" font-family="sans-serif" font-size="13" lengthAdjust="spacing" textLength="98" x="178.75" y="106.3638">Inicio de Sesion</text></g><!--link EligiendoCaracteristicas to Simulacion--><g id="link_EligiendoCaracteristicas_Simulacion"><path d="M160.59,190.3979 C144.83,212.5329 125.0805,240.2701 109.3373,262.3821 " fill="none" id="EligiendoCaracteristicas-to-Simulacion" style="stroke:#181818;stroke-width:1.0;"/><polygon fill="#181818" points="105.8574,267.2699,114.3358,262.2582,108.7574,263.1968,107.8188,257.6183,105.8574,267.2699" style="stroke:#181818;stroke-width:1.0;"/><text fill="#000000" font-family="sans-serif" font-size="13" lengthAdjust="spacing" textLength="32" x="139.75" y="233.3638">Inicia</text></g><!--link Simulacion to Reporte--><g id="link_Simulacion_Reporte"><path d="M102.2467,317.3979 C114.6421,339.5329 129.9808,366.9228 142.3634,389.0348 " fill="none" id="Simulacion-to-Reporte" style="stroke:#181818;stroke-width:1.0;"/><polygon fill="#181818" points="145.295,394.2699,144.3876,384.4629,142.852,389.9073,137.4076,388.3717,145.295,394.2699" style="stroke:#181818;stroke-width:1.0;"/><text fill="#000000" font-family="sans-serif" font-size="13" lengthAdjust="spacing" textLength="50" x="129.75" y="360.3638">Obtiene</text></g><!--link Reporte to EligiendoCaracteristicas--><g id="link_Reporte_EligiendoCaracteristicas"><path d="M173.783,394.2119 C178.602,385.1789 183.318,374.5999 185.75,364.2969 C200.215,303.0239 191.014,234.0716 183.962,196.3656 " fill="none" id="Reporte-to-EligiendoCaracteristicas" style="stroke:#181818;stroke-width:1.0;"/><polygon fill="#181818" points="182.859,190.4679,180.5817,200.0498,183.7782,195.3827,188.4454,198.5791,182.859,190.4679" style="stroke:#181818;stroke-width:1.0;"/><text fill="#000000" font-family="sans-serif" font-size="13" lengthAdjust="spacing" textLength="109" x="194.75" y="296.8638">Nuevo modelado</text></g><!--link Reporte to *end*--><g id="link_Reporte_*end*"><path d="M158.75,444.3822 C158.75,468.3566 158.75,497.9923 158.75,515.2322 " fill="none" id="Reporte-to-*end*" style="stroke:#181818;stroke-width:1.0;"/><polygon fill="#181818" points="158.75,521.2322,162.75,512.2322,158.75,516.2322,154.75,512.2322,158.75,521.2322" style="stroke:#181818;stroke-width:1.0;"/><text fill="#000000" font-family="sans-serif" font-size="13" lengthAdjust="spacing" textLength="84" x="159.75" y="487.3638">Cierra Sesion</text></g><!--SRC=[XOz12i8m44NtESMiXLwW2q5gXMuKp59SZCbG1j9CIQPUp2DuCHEme0jn- -VzF_yhQo3OCuu99mHFq6T5BnaQsCs17Jf-FY8S1jiPSzbSeMcsq0SUcQAN3XCwfSHP2vgXXI6oOwb1bZ9BD3_P6cHvMa9v8N6reldGAdAcMP9IkPzkMeB8hCgV9iU5xWAJU0fbq9UhxcYXOqe9tprV]--></g></svg>