<?xml version="1.0" encoding="us-ascii" standalone="no"?><svg xmlns="http://www.w3.org/2000/svg" xmlns:xlink="http://www.w3.org/1999/xlink" contentStyleType="text/css" height="425px" preserveAspectRatio="none" style="width:854px;height:425px;background:#FFFFFF;" version="1.1" viewBox="0 0 854 425" width="854px" zoomAndPan="magnify"><defs/><g><text fill="#000000" font-family="sans-serif" font-size="14" font-weight="bold" lengthAdjust="spacing" textLength="226" x="307.25" y="22.9951">Diagrama de Objetos Ticket</text><g id="elem_usuario"><rect fill="#F1F1F1" height="36.2969" style="stroke:#181818;stroke-width:0.5;" width="66" x="318.5" y="44.2969"/><text fill="#000000" font-family="sans-serif" font-size="14" lengthAdjust="spacing" textLength="52" x="325.5" y="59.292">Cliente</text><line style="stroke:#181818;stroke-width:0.5;" x1="319.5" x2="383.5" y1="64.5938" y2="64.5938"/></g><g id="elem_ticket"><rect fill="#F1F1F1" height="36.2969" style="stroke:#181818;stroke-width:0.5;" width="50" x="326.5" y="157.2969"/><text fill="#000000" font-family="sans-serif" font-size="14" lengthAdjust="spacing" textLength="36" x="333.5" y="172.292">Error</text><line style="stroke:#181818;stroke-width:0.5;" x1="327.5" x2="375.5" y1="177.5938" y2="177.5938"/></g><g id="elem_error"><rect fill="#F1F1F1" height="36.2969" style="stroke:#181818;stroke-width:0.5;" width="65" x="7" y="270.2969"/><text fill="#000000" font-family="sans-serif" font-size="14" lengthAdjust="spacing" textLength="51" x="14" y="285.292">Modulo</text><line style="stroke:#181818;stroke-width:0.5;" x1="8" x2="71" y1="290.5938" y2="290.5938"/></g><g id="elem_etiqueta"><rect fill="#F1F1F1" height="36.2969" style="stroke:#181818;stroke-width:0.5;" width="78" x="107.5" y="270.2969"/><text fill="#000000" font-family="sans-serif" font-size="14" lengthAdjust="spacing" textLength="64" x="114.5" y="285.292">Prioridad</text><line style="stroke:#181818;stroke-width:0.5;" x1="108.5" x2="184.5" y1="290.5938" y2="290.5938"/></g><g id="elem_fecha"><rect fill="#F1F1F1" height="36.2969" style="stroke:#181818;stroke-width:0.5;" width="56" x="220.5" y="270.2969"/><text fill="#000000" font-family="sans-serif" font-size="14" lengthAdjust="spacing" textLength="42" x="227.5" y="285.292">Fecha</text><line style="stroke:#181818;stroke-width:0.5;" x1="221.5" x2="275.5" y1="290.5938" y2="290.5938"/></g><g id="elem_proyecto"><rect fill="#F1F1F1" height="36.2969" style="stroke:#181818;stroke-width:0.5;" width="79" x="312" y="270.2969"/><text fill="#000000" font-family="sans-serif" font-size="14" lengthAdjust="spacing" textLength="65" x="319" y="285.292">Proyecto</text><line style="stroke:#181818;stroke-width:0.5;" x1="313" x2="390" y1="290.5938" y2="290.5938"/></g><g id="elem_estado"><rect fill="#F1F1F1" height="36.2969" style="stroke:#181818;stroke-width:0.5;" width="88" x="426.5" y="270.2969"/><text fill="#000000" font-family="sans-serif" font-size="14" lengthAdjust="spacing" textLength="74" x="433.5" y="285.292">Pendiente</text><line style="stroke:#181818;stroke-width:0.5;" x1="427.5" x2="513.5" y1="290.5938" y2="290.5938"/></g><g id="elem_responsable"><rect fill="#F1F1F1" height="36.2969" style="stroke:#181818;stroke-width:0.5;" width="106" x="549.5" y="270.2969"/><text fill="#000000" font-family="sans-serif" font-size="14" lengthAdjust="spacing" textLength="92" x="556.5" y="285.292">Desarrolador</text><line style="stroke:#181818;stroke-width:0.5;" x1="550.5" x2="654.5" y1="290.5938" y2="290.5938"/></g><g id="elem_historial"><rect fill="#F1F1F1" height="36.2969" style="stroke:#181818;stroke-width:0.5;" width="75" x="691" y="270.2969"/><text fill="#000000" font-family="sans-serif" font-size="14" lengthAdjust="spacing" textLength="61" x="698" y="285.292">Registro</text><line style="stroke:#181818;stroke-width:0.5;" x1="692" x2="765" y1="290.5938" y2="290.5938"/></g><g id="elem_informe"><rect fill="#F1F1F1" height="36.2969" style="stroke:#181818;stroke-width:0.5;" width="71" x="693" y="383.2969"/><text fill="#000000" font-family="sans-serif" font-size="14" lengthAdjust="spacing" textLength="57" x="700" y="398.292">Informe</text><line style="stroke:#181818;stroke-width:0.5;" x1="694" x2="763" y1="403.5938" y2="403.5938"/></g><!--link usuario to ticket--><g id="link_usuario_ticket"><path codeLine="14" d="M351.5,80.6409 C351.5,101.4939 351.5,136.2759 351.5,157.0749 " fill="none" id="usuario-ticket" style="stroke:#181818;stroke-width:1.0;"/><polygon fill="#000000" points="356.5,123.8633,359.4389,114.8182,353.5611,114.8182,356.5,123.8633" style="stroke:#000000;stroke-width:1.0;"/><text fill="#000000" font-family="sans-serif" font-size="13" lengthAdjust="spacing" textLength="47" x="365.5" y="123.3638">reporta</text></g><!--reverse link ticket to error--><g id="link_ticket_error"><path codeLine="15" d="M314.6266,184.4974 C280.7586,192.2374 230.575,204.7829 179.5,223.2969 C141.812,236.9579 100.2248,256.5829 72.2465,270.4919 " fill="none" id="ticket-backto-error" style="stroke:#181818;stroke-width:1.0;"/><polygon fill="#181818" points="326.325,181.8239,319.5846,179.2612,314.6266,184.4974,321.367,187.0601,326.325,181.8239" style="stroke:#181818;stroke-width:1.0;"/><polygon fill="#000000" points="179.7878,233.5351,189.2949,233.2805,187.3296,227.741,179.7878,233.5351" style="stroke:#000000;stroke-width:1.0;"/><text fill="#000000" font-family="sans-serif" font-size="13" lengthAdjust="spacing" textLength="16" x="193.5" y="236.3638">de</text></g><!--reverse link ticket to etiqueta--><g id="link_ticket_etiqueta"><path codeLine="16" d="M315.0075,190.7468 C293.1945,199.5978 272.24,208.8409 245.5,223.2969 C219.035,237.6049 190.32,256.5839 170.666,270.1509 " fill="none" id="ticket-backto-etiqueta" style="stroke:#181818;stroke-width:1.0;"/><polygon fill="#181818" points="326.127,186.2349,319.0633,184.7843,315.0075,190.7468,322.0712,192.1973,326.127,186.2349" style="stroke:#181818;stroke-width:1.0;"/><polygon fill="#000000" points="246.1191,234.2733,255.4607,232.4886,252.6277,227.3386,246.1191,234.2733" style="stroke:#000000;stroke-width:1.0;"/><text fill="#000000" font-family="sans-serif" font-size="13" lengthAdjust="spacing" textLength="23" x="259.5" y="236.3638">con</text></g><!--reverse link ticket to fecha--><g id="link_ticket_fecha"><path codeLine="17" d="M325.8219,202.0471 C317.1009,210.8591 314.85,213.2829 305.5,223.2969 C290.878,238.9569 274.67,257.2499 263.288,270.2579 " fill="none" id="ticket-backto-fecha" style="stroke:#181818;stroke-width:1.0;"/><polygon fill="#181818" points="334.263,193.5179,327.1994,194.9688,325.8219,202.0471,332.8855,200.5962,334.263,193.5179" style="stroke:#181818;stroke-width:1.0;"/><polygon fill="#000000" points="307.1212,235.5489,315.3999,230.8676,311.0672,226.8956,307.1212,235.5489" style="stroke:#000000;stroke-width:1.0;"/><text fill="#000000" font-family="sans-serif" font-size="13" lengthAdjust="spacing" textLength="23" x="319.5" y="236.3638">con</text></g><!--reverse link ticket to estado--><g id="link_ticket_estado"><path codeLine="18" d="M381.4002,201.0441 C391.8522,209.8081 395.434,213.0649 406.5,223.2969 C423.114,238.6589 441.287,256.9889 454.009,270.0869 " fill="none" id="ticket-backto-estado" style="stroke:#181818;stroke-width:1.0;"/><polygon fill="#181818" points="372.205,193.3339,374.2326,200.2541,381.4002,201.0441,379.3727,194.1239,372.205,193.3339" style="stroke:#181818;stroke-width:1.0;"/><polygon fill="#000000" points="432.1234,235.3087,427.5938,226.9461,423.5434,231.2056,432.1234,235.3087" style="stroke:#000000;stroke-width:1.0;"/><text fill="#000000" font-family="sans-serif" font-size="13" lengthAdjust="spacing" textLength="43" x="437.5" y="236.3638">pasa a</text></g><!--reverse link ticket to responsable--><g id="link_ticket_responsable"><path codeLine="19" d="M388.2369,186.6962 C416.3239,194.8892 451.284,206.1479 489.5,223.2969 C519.944,236.9579 552.955,256.2139 575.389,270.0299 " fill="none" id="ticket-backto-responsable" style="stroke:#181818;stroke-width:1.0;"/><polygon fill="#181818" points="376.717,183.3359,381.3568,188.856,388.2369,186.6962,383.5971,181.1761,376.717,183.3359" style="stroke:#181818;stroke-width:1.0;"/><polygon fill="#000000" points="531.0677,233.8971,524.0002,227.5331,521.6092,232.9027,531.0677,233.8971" style="stroke:#000000;stroke-width:1.0;"/><text fill="#000000" font-family="sans-serif" font-size="13" lengthAdjust="spacing" textLength="32" x="535.5" y="236.3638">tiene</text></g><!--reverse link ticket to historial--><g id="link_ticket_historial"><path codeLine="20" d="M388.3982,181.723 C430.3682,188.138 505.449,201.1449 576.5,223.2969 C617.639,236.1229 662.941,255.9879 693.293,270.1829 " fill="none" id="ticket-backto-historial" style="stroke:#181818;stroke-width:1.0;"/><polygon fill="#181818" points="376.536,179.9099,381.8627,184.7705,388.3982,181.723,383.0715,176.8624,376.536,179.9099" style="stroke:#181818;stroke-width:1.0;"/><polygon fill="#000000" points="632.302,233.2565,624.434,227.9136,622.7962,233.5587,632.302,233.2565" style="stroke:#000000;stroke-width:1.0;"/><text fill="#000000" font-family="sans-serif" font-size="13" lengthAdjust="spacing" textLength="45" x="636.5" y="236.3638">genera</text></g><!--link ticket to proyecto--><g id="link_ticket_proyecto"><path codeLine="21" d="M351.5,193.6409 C351.5,214.4939 351.5,249.2759 351.5,270.0749 " fill="none" id="ticket-proyecto" style="stroke:#181818;stroke-width:1.0;stroke-dasharray:7.0,7.0;"/><polygon fill="#000000" points="356.5,236.8633,359.4389,227.8182,353.5611,227.8182,356.5,236.8633" style="stroke:#000000;stroke-width:1.0;"/><text fill="#000000" font-family="sans-serif" font-size="13" lengthAdjust="spacing" textLength="32" x="365.5" y="236.3638">tiene</text></g><!--link historial to informe--><g id="link_historial_informe"><path codeLine="23" d="M728.5,306.6409 C728.5,327.4938 728.5,362.2762 728.5,383.0749 " fill="none" id="historial-informe" style="stroke:#181818;stroke-width:1.0;"/><polygon fill="#000000" points="733.5,349.8633,736.4389,340.8182,730.5611,340.8182,733.5,349.8633" style="stroke:#000000;stroke-width:1.0;"/><text fill="#000000" font-family="sans-serif" font-size="13" lengthAdjust="spacing" textLength="104" x="742.5" y="349.3638">permite generar</text></g><!--SRC=[RP11JiGm34NtFOKrIwJE0LYmOK1YWK282tWQJoUGriLn5zmU9-cahSJEzlEt_QrU0y79Ooyu83Y2j_CNAKVuzDqtQTEmvPt2uJ5u6fKEW17cEADuhkn9X2KJBQeRU6Kt1yw4Kay5xoONxz0Lflvd9iMAdwcxOaQN56ra_6j1cJWjoKffTEkH51NT2ayKqKu8LYkd2iM9nuZdGBNfWteVLShyguLs98QANyOBor36-n8tpV8CQDl5_JqysF29nGoL2jmPp0z8pD6kl7XFfEDnYxBtV-h5MG8JHeJTbeshrA3sZzswQYhHtg1K-V5ONxfAcog0rhKtrv2NamnUQPaYVm00]--></g></svg>