<?xml version="1.0" encoding="us-ascii" standalone="no"?><svg xmlns="http://www.w3.org/2000/svg" xmlns:xlink="http://www.w3.org/1999/xlink" contentStyleType="text/css" height="1101px" preserveAspectRatio="none" style="width:608px;height:1101px;background:#FFFFFF;" version="1.1" viewBox="0 0 608 1101" width="608px" zoomAndPan="magnify"><defs/><g><text fill="#000000" font-family="sans-serif" font-size="14" font-weight="bold" lengthAdjust="spacing" textLength="211" x="197" y="32.9951">Flujo de la Aplicaci&#243;n FISC</text><ellipse cx="235.75" cy="57.2969" fill="#222222" rx="10" ry="10" style="stroke:#222222;stroke-width:1.0;"/><rect fill="#F1F1F1" height="33.9688" rx="12.5" ry="12.5" style="stroke:#181818;stroke-width:0.5;" width="120" x="175.75" y="87.2969"/><text fill="#000000" font-family="sans-serif" font-size="12" lengthAdjust="spacing" textLength="100" x="185.75" y="108.4355">Iniciar Aplicaci&#243;n</text><rect fill="#F1F1F1" height="61.9063" rx="12.5" ry="12.5" style="stroke:#181818;stroke-width:0.5;" width="152" x="159.75" y="141.2656"/><text fill="#000000" font-family="sans-serif" font-size="12" lengthAdjust="spacing" textLength="132" x="169.75" y="162.4043">Crear Nuevo Proyecto</text><text fill="#000000" font-family="sans-serif" font-size="12" lengthAdjust="spacing" textLength="100" x="169.75" y="176.373">o Abrir Existente</text><text fill="#000000" font-family="sans-serif" font-size="12" lengthAdjust="spacing" textLength="120" x="169.75" y="190.3418">o Importar Proyecto</text><polygon fill="#F1F1F1" points="185.75,223.1719,285.75,223.1719,297.75,235.1719,285.75,247.1719,185.75,247.1719,173.75,235.1719,185.75,223.1719" style="stroke:#181818;stroke-width:0.5;"/><text fill="#000000" font-family="sans-serif" font-size="11" lengthAdjust="spacing" textLength="100" x="185.75" y="238.98">Importar Proyecto</text><text fill="#000000" font-family="sans-serif" font-size="11" lengthAdjust="spacing" textLength="9" x="164.75" y="232.5776">si</text><text fill="#000000" font-family="sans-serif" font-size="11" lengthAdjust="spacing" textLength="14" x="297.75" y="232.5776">no</text><rect fill="#F1F1F1" height="33.9688" rx="12.5" ry="12.5" style="stroke:#181818;stroke-width:0.5;" width="148" x="11" y="257.1719"/><text fill="#000000" font-family="sans-serif" font-size="12" lengthAdjust="spacing" textLength="128" x="21" y="278.3105">Seleccionar Proyecto</text><polygon fill="#F1F1F1" points="341.5,257.1719,431.5,257.1719,443.5,269.1719,431.5,281.1719,341.5,281.1719,329.5,269.1719,341.5,257.1719" style="stroke:#181818;stroke-width:0.5;"/><text fill="#000000" font-family="sans-serif" font-size="11" lengthAdjust="spacing" textLength="90" x="341.5" y="272.98">Nuevo Proyecto</text><text fill="#000000" font-family="sans-serif" font-size="11" lengthAdjust="spacing" textLength="9" x="320.5" y="266.5776">s&#237;</text><text fill="#000000" font-family="sans-serif" font-size="11" lengthAdjust="spacing" textLength="14" x="443.5" y="266.5776">no</text><rect fill="#F1F1F1" height="33.9688" rx="12.5" ry="12.5" style="stroke:#181818;stroke-width:0.5;" width="181" x="189" y="291.1719"/><text fill="#000000" font-family="sans-serif" font-size="12" lengthAdjust="spacing" textLength="161" x="199" y="312.3105">Configurar Nuevo Proyecto</text><rect fill="#F1F1F1" height="33.9688" rx="12.5" ry="12.5" style="stroke:#181818;stroke-width:0.5;" width="207" x="390" y="291.1719"/><text fill="#000000" font-family="sans-serif" font-size="12" lengthAdjust="spacing" textLength="187" x="400" y="312.3105">Seleccionar Proyecto Existente</text><polygon fill="#F1F1F1" points="386.5,331.1406,398.5,343.1406,386.5,355.1406,374.5,343.1406,386.5,331.1406" style="stroke:#181818;stroke-width:0.5;"/><rect fill="#F1F1F1" height="33.9688" rx="12.5" ry="12.5" style="stroke:#181818;stroke-width:0.5;" width="150" x="311.5" y="375.1406"/><text fill="#000000" font-family="sans-serif" font-size="12" lengthAdjust="spacing" textLength="130" x="321.5" y="396.2793">Seleccionar Tipolog&#237;a</text><rect fill="#F1F1F1" height="33.9688" rx="12.5" ry="12.5" style="stroke:#181818;stroke-width:0.5;" width="133" x="320" y="429.1094"/><text fill="#000000" font-family="sans-serif" font-size="12" lengthAdjust="spacing" textLength="113" x="330" y="450.248">Configurar Material</text><rect fill="#F1F1F1" height="33.9688" rx="12.5" ry="12.5" style="stroke:#181818;stroke-width:0.5;" width="192" x="290.5" y="483.0781"/><text fill="#000000" font-family="sans-serif" font-size="12" lengthAdjust="spacing" textLength="172" x="300.5" y="504.2168">Configurar Agresi&#243;n T&#233;rmica</text><polygon fill="#F1F1F1" points="235.75,523.0469,247.75,535.0469,235.75,547.0469,223.75,535.0469,235.75,523.0469" style="stroke:#181818;stroke-width:0.5;"/><rect fill="#F1F1F1" height="33.9688" rx="12.5" ry="12.5" style="stroke:#181818;stroke-width:0.5;" width="176" x="147.75" y="567.0469"/><text fill="#000000" font-family="sans-serif" font-size="12" lengthAdjust="spacing" textLength="156" x="157.75" y="588.1855">Revisar y Confirmar Datos</text><rect fill="#F1F1F1" height="33.9688" rx="12.5" ry="12.5" style="stroke:#181818;stroke-width:0.5;" width="123" x="174.25" y="621.0156"/><text fill="#000000" font-family="sans-serif" font-size="12" lengthAdjust="spacing" textLength="103" x="184.25" y="642.1543">Iniciar Simulaci&#243;n</text><polygon fill="#F1F1F1" points="196.75,674.9844,274.75,674.9844,286.75,686.9844,274.75,698.9844,196.75,698.9844,184.75,686.9844,196.75,674.9844" style="stroke:#181818;stroke-width:0.5;"/><text fill="#000000" font-family="sans-serif" font-size="11" lengthAdjust="spacing" textLength="78" x="196.75" y="690.7925">&#191;Hay Errores?</text><text fill="#000000" font-family="sans-serif" font-size="11" lengthAdjust="spacing" textLength="9" x="175.75" y="684.3901">s&#237;</text><text fill="#000000" font-family="sans-serif" font-size="11" lengthAdjust="spacing" textLength="14" x="286.75" y="684.3901">no</text><rect fill="#F1F1F1" height="33.9688" rx="12.5" ry="12.5" style="stroke:#181818;stroke-width:0.5;" width="115" x="104.75" y="708.9844"/><text fill="#000000" font-family="sans-serif" font-size="12" lengthAdjust="spacing" textLength="95" x="114.75" y="730.123">Mostrar Errores</text><rect fill="#F1F1F1" height="33.9688" rx="12.5" ry="12.5" style="stroke:#181818;stroke-width:0.5;" width="109" x="107.75" y="762.9531"/><text fill="#000000" font-family="sans-serif" font-size="12" lengthAdjust="spacing" textLength="89" x="117.75" y="784.0918">Corregir Datos</text><rect fill="#F1F1F1" height="33.9688" rx="12.5" ry="12.5" style="stroke:#181818;stroke-width:0.5;" width="139" x="239.75" y="708.9844"/><text fill="#000000" font-family="sans-serif" font-size="12" lengthAdjust="spacing" textLength="119" x="249.75" y="730.123">Generar Resultados</text><polygon fill="#F1F1F1" points="235.75,808.8208,247.75,820.8208,235.75,832.8208,223.75,820.8208,235.75,808.8208" style="stroke:#181818;stroke-width:0.5;"/><text fill="#000000" font-family="sans-serif" font-size="11" lengthAdjust="spacing" textLength="149" x="74.75" y="818.2266">Revisar y Confirmar Datos</text><rect fill="#F1F1F1" height="33.9688" rx="12.5" ry="12.5" style="stroke:#181818;stroke-width:0.5;" width="181" x="145.25" y="852.8208"/><text fill="#000000" font-family="sans-serif" font-size="12" lengthAdjust="spacing" textLength="161" x="155.25" y="873.9595">Visualizar Gr&#225;ficos y Datos</text><rect fill="#F1F1F1" height="33.9688" rx="12.5" ry="12.5" style="stroke:#181818;stroke-width:0.5;" width="121" x="175.25" y="906.7896"/><text fill="#000000" font-family="sans-serif" font-size="12" lengthAdjust="spacing" textLength="101" x="185.25" y="927.9282">Generar Reporte</text><rect fill="#F1F1F1" height="33.9688" rx="12.5" ry="12.5" style="stroke:#181818;stroke-width:0.5;" width="162" x="154.75" y="960.7583"/><text fill="#000000" font-family="sans-serif" font-size="12" lengthAdjust="spacing" textLength="142" x="164.75" y="981.897">Exportar Datos/Reporte</text><rect fill="#F1F1F1" height="33.9688" rx="12.5" ry="12.5" style="stroke:#181818;stroke-width:0.5;" width="125" x="173.25" y="1014.7271"/><text fill="#000000" font-family="sans-serif" font-size="12" lengthAdjust="spacing" textLength="105" x="183.25" y="1035.8657">Guardar Proyecto</text><ellipse cx="235.75" cy="1079.6958" fill="none" rx="11" ry="11" style="stroke:#222222;stroke-width:1.0;"/><ellipse cx="235.75" cy="1079.6958" fill="#222222" rx="6" ry="6" style="stroke:#222222;stroke-width:1.0;"/><line style="stroke:#181818;stroke-width:1.0;" x1="235.75" x2="235.75" y1="67.2969" y2="87.2969"/><polygon fill="#181818" points="231.75,77.2969,235.75,87.2969,239.75,77.2969,235.75,81.2969" style="stroke:#181818;stroke-width:1.0;"/><line style="stroke:#181818;stroke-width:1.0;" x1="235.75" x2="235.75" y1="121.2656" y2="141.2656"/><polygon fill="#181818" points="231.75,131.2656,235.75,141.2656,239.75,131.2656,235.75,135.2656" style="stroke:#181818;stroke-width:1.0;"/><line style="stroke:#181818;stroke-width:1.0;" x1="329.5" x2="279.5" y1="269.1719" y2="269.1719"/><line style="stroke:#181818;stroke-width:1.0;" x1="279.5" x2="279.5" y1="269.1719" y2="291.1719"/><polygon fill="#181818" points="275.5,281.1719,279.5,291.1719,283.5,281.1719,279.5,285.1719" style="stroke:#181818;stroke-width:1.0;"/><line style="stroke:#181818;stroke-width:1.0;" x1="443.5" x2="493.5" y1="269.1719" y2="269.1719"/><line style="stroke:#181818;stroke-width:1.0;" x1="493.5" x2="493.5" y1="269.1719" y2="291.1719"/><polygon fill="#181818" points="489.5,281.1719,493.5,291.1719,497.5,281.1719,493.5,285.1719" style="stroke:#181818;stroke-width:1.0;"/><line style="stroke:#181818;stroke-width:1.0;" x1="279.5" x2="279.5" y1="325.1406" y2="343.1406"/><line style="stroke:#181818;stroke-width:1.0;" x1="279.5" x2="374.5" y1="343.1406" y2="343.1406"/><polygon fill="#181818" points="364.5,339.1406,374.5,343.1406,364.5,347.1406,368.5,343.1406" style="stroke:#181818;stroke-width:1.0;"/><line style="stroke:#181818;stroke-width:1.0;" x1="493.5" x2="493.5" y1="325.1406" y2="343.1406"/><line style="stroke:#181818;stroke-width:1.0;" x1="493.5" x2="398.5" y1="343.1406" y2="343.1406"/><polygon fill="#181818" points="408.5,339.1406,398.5,343.1406,408.5,347.1406,404.5,343.1406" style="stroke:#181818;stroke-width:1.0;"/><line style="stroke:#181818;stroke-width:1.0;" x1="386.5" x2="386.5" y1="355.1406" y2="375.1406"/><polygon fill="#181818" points="382.5,365.1406,386.5,375.1406,390.5,365.1406,386.5,369.1406" style="stroke:#181818;stroke-width:1.0;"/><line style="stroke:#181818;stroke-width:1.0;" x1="386.5" x2="386.5" y1="409.1094" y2="429.1094"/><polygon fill="#181818" points="382.5,419.1094,386.5,429.1094,390.5,419.1094,386.5,423.1094" style="stroke:#181818;stroke-width:1.0;"/><line style="stroke:#181818;stroke-width:1.0;" x1="386.5" x2="386.5" y1="463.0781" y2="483.0781"/><polygon fill="#181818" points="382.5,473.0781,386.5,483.0781,390.5,473.0781,386.5,477.0781" style="stroke:#181818;stroke-width:1.0;"/><line style="stroke:#181818;stroke-width:1.0;" x1="173.75" x2="85" y1="235.1719" y2="235.1719"/><line style="stroke:#181818;stroke-width:1.0;" x1="85" x2="85" y1="235.1719" y2="257.1719"/><polygon fill="#181818" points="81,247.1719,85,257.1719,89,247.1719,85,251.1719" style="stroke:#181818;stroke-width:1.0;"/><line style="stroke:#181818;stroke-width:1.0;" x1="297.75" x2="386.5" y1="235.1719" y2="235.1719"/><line style="stroke:#181818;stroke-width:1.0;" x1="386.5" x2="386.5" y1="235.1719" y2="257.1719"/><polygon fill="#181818" points="382.5,247.1719,386.5,257.1719,390.5,247.1719,386.5,251.1719" style="stroke:#181818;stroke-width:1.0;"/><line style="stroke:#181818;stroke-width:1.0;" x1="85" x2="85" y1="291.1406" y2="535.0469"/><line style="stroke:#181818;stroke-width:1.0;" x1="85" x2="223.75" y1="535.0469" y2="535.0469"/><polygon fill="#181818" points="213.75,531.0469,223.75,535.0469,213.75,539.0469,217.75,535.0469" style="stroke:#181818;stroke-width:1.0;"/><line style="stroke:#181818;stroke-width:1.0;" x1="386.5" x2="386.5" y1="517.0469" y2="535.0469"/><line style="stroke:#181818;stroke-width:1.0;" x1="386.5" x2="247.75" y1="535.0469" y2="535.0469"/><polygon fill="#181818" points="257.75,531.0469,247.75,535.0469,257.75,539.0469,253.75,535.0469" style="stroke:#181818;stroke-width:1.0;"/><line style="stroke:#181818;stroke-width:1.0;" x1="235.75" x2="235.75" y1="203.1719" y2="223.1719"/><polygon fill="#181818" points="231.75,213.1719,235.75,223.1719,239.75,213.1719,235.75,217.1719" style="stroke:#181818;stroke-width:1.0;"/><line style="stroke:#181818;stroke-width:1.0;" x1="235.75" x2="235.75" y1="547.0469" y2="567.0469"/><polygon fill="#181818" points="231.75,557.0469,235.75,567.0469,239.75,557.0469,235.75,561.0469" style="stroke:#181818;stroke-width:1.0;"/><line style="stroke:#181818;stroke-width:1.0;" x1="235.75" x2="235.75" y1="601.0156" y2="621.0156"/><polygon fill="#181818" points="231.75,611.0156,235.75,621.0156,239.75,611.0156,235.75,615.0156" style="stroke:#181818;stroke-width:1.0;"/><line style="stroke:#181818;stroke-width:1.0;" x1="162.25" x2="162.25" y1="742.9531" y2="762.9531"/><polygon fill="#181818" points="158.25,752.9531,162.25,762.9531,166.25,752.9531,162.25,756.9531" style="stroke:#181818;stroke-width:1.0;"/><line style="stroke:#181818;stroke-width:1.0;" x1="184.75" x2="162.25" y1="686.9844" y2="686.9844"/><line style="stroke:#181818;stroke-width:1.0;" x1="162.25" x2="162.25" y1="686.9844" y2="708.9844"/><polygon fill="#181818" points="158.25,698.9844,162.25,708.9844,166.25,698.9844,162.25,702.9844" style="stroke:#181818;stroke-width:1.0;"/><line style="stroke:#181818;stroke-width:1.0;" x1="286.75" x2="309.25" y1="686.9844" y2="686.9844"/><line style="stroke:#181818;stroke-width:1.0;" x1="309.25" x2="309.25" y1="686.9844" y2="708.9844"/><polygon fill="#181818" points="305.25,698.9844,309.25,708.9844,313.25,698.9844,309.25,702.9844" style="stroke:#181818;stroke-width:1.0;"/><line style="stroke:#181818;stroke-width:1.0;" x1="162.25" x2="162.25" y1="796.9219" y2="820.8208"/><line style="stroke:#181818;stroke-width:1.0;" x1="162.25" x2="223.75" y1="820.8208" y2="820.8208"/><polygon fill="#181818" points="213.75,816.8208,223.75,820.8208,213.75,824.8208,217.75,820.8208" style="stroke:#181818;stroke-width:1.0;"/><line style="stroke:#181818;stroke-width:1.0;" x1="309.25" x2="309.25" y1="742.9531" y2="820.8208"/><line style="stroke:#181818;stroke-width:1.0;" x1="309.25" x2="247.75" y1="820.8208" y2="820.8208"/><polygon fill="#181818" points="257.75,816.8208,247.75,820.8208,257.75,824.8208,253.75,820.8208" style="stroke:#181818;stroke-width:1.0;"/><line style="stroke:#181818;stroke-width:1.0;" x1="235.75" x2="235.75" y1="654.9844" y2="674.9844"/><polygon fill="#181818" points="231.75,664.9844,235.75,674.9844,239.75,664.9844,235.75,668.9844" style="stroke:#181818;stroke-width:1.0;"/><line style="stroke:#181818;stroke-width:1.0;" x1="235.75" x2="235.75" y1="832.8208" y2="852.8208"/><polygon fill="#181818" points="231.75,842.8208,235.75,852.8208,239.75,842.8208,235.75,846.8208" style="stroke:#181818;stroke-width:1.0;"/><line style="stroke:#181818;stroke-width:1.0;" x1="235.75" x2="235.75" y1="886.7896" y2="906.7896"/><polygon fill="#181818" points="231.75,896.7896,235.75,906.7896,239.75,896.7896,235.75,900.7896" style="stroke:#181818;stroke-width:1.0;"/><line style="stroke:#181818;stroke-width:1.0;" x1="235.75" x2="235.75" y1="940.7583" y2="960.7583"/><polygon fill="#181818" points="231.75,950.7583,235.75,960.7583,239.75,950.7583,235.75,954.7583" style="stroke:#181818;stroke-width:1.0;"/><line style="stroke:#181818;stroke-width:1.0;" x1="235.75" x2="235.75" y1="994.7271" y2="1014.7271"/><polygon fill="#181818" points="231.75,1004.7271,235.75,1014.7271,239.75,1004.7271,235.75,1008.7271" style="stroke:#181818;stroke-width:1.0;"/><line style="stroke:#181818;stroke-width:1.0;" x1="235.75" x2="235.75" y1="1048.6958" y2="1068.6958"/><polygon fill="#181818" points="231.75,1058.6958,235.75,1068.6958,239.75,1058.6958,235.75,1062.6958" style="stroke:#181818;stroke-width:1.0;"/><!--SRC=[XPA_JiCm4CPtFyMDxO3O4mbKbRPqA49jnSHYqaiuvDZHsQbQteQHeHCFW4HU32TDqqGfmfDr_ldxxfyZfn2cAdypi45G4aQPeaX6L7nfcCvNOo6ia-o42EQQ8fBS9a8HZ1bzx277hO57DdkCd7dM1aOlJ0oJ7Lc7sc4PcgUPOI_MSA4G5CEW5n-2UqKD0qj30Vu4ArGOHMHqvpCgYp3GvWYLIjqq6fdYS4GghR7HCIKvzx8EAwOh-gVxkRBwczvGBFhPhYapoYJ5GHwvjlr2EcIIglyoIXXjDO9ryScfRxUljdAeo2LkoNfi3zKVJltzJZfZQwNJf5QKvkeqgQP9Fz_tSWyJPkDDRYytQM6iAnEfgR3TFcPCg6DOdgiR-2Uj2vsTeSRIPeasLqvk6hJLpIUokLJqxh4P5nynHSPwYtQzPvboaUg919DTlLOLUjrzdEMIDvrjAiFMcUmN]--></g></svg>