<?xml version="1.0" encoding="us-ascii" standalone="no"?><svg xmlns="http://www.w3.org/2000/svg" xmlns:xlink="http://www.w3.org/1999/xlink" contentStyleType="text/css" height="686px" preserveAspectRatio="none" style="width:322px;height:686px;background:#FFFFFF;" version="1.1" viewBox="0 0 322 686" width="322px" zoomAndPan="magnify"><defs/><g><text fill="#000000" font-family="sans-serif" font-size="14" font-weight="bold" lengthAdjust="spacing" textLength="292" x="10" y="22.9951">Modelo de Dominio - Aplicaci&#243;n FISK</text><!--class Usuario--><g id="elem_Usuario"><rect codeLine="3" fill="#F1F1F1" height="80.5938" id="Usuario" rx="2.5" ry="2.5" style="stroke:#181818;stroke-width:0.5;" width="83" x="175.5" y="44.2969"/><ellipse cx="190.5" cy="60.2969" fill="#ADD1B2" rx="11" ry="11" style="stroke:#181818;stroke-width:1.0;"/><path d="M192.8438,55.9688 C191.9063,55.5313 191.3125,55.3906 190.4375,55.3906 C187.8125,55.3906 185.8125,57.4688 185.8125,60.1875 L185.8125,61.3125 C185.8125,63.8906 187.9219,65.7813 190.8125,65.7813 C192.0313,65.7813 193.1875,65.4844 193.9375,64.9375 C194.5156,64.5313 194.8438,64.0781 194.8438,63.6875 C194.8438,63.2344 194.4531,62.8438 193.9844,62.8438 C193.7656,62.8438 193.5625,62.9219 193.375,63.1094 C192.9219,63.5938 192.9219,63.5938 192.7344,63.6875 C192.3125,63.9531 191.625,64.0781 190.8594,64.0781 C188.8125,64.0781 187.5156,62.9844 187.5156,61.2813 L187.5156,60.1875 C187.5156,58.4063 188.7656,57.0938 190.5,57.0938 C191.0781,57.0938 191.6875,57.25 192.1563,57.5 C192.6406,57.7813 192.8125,58 192.9063,58.4063 C192.9688,58.8125 193,58.9375 193.1406,59.0625 C193.2813,59.2031 193.5156,59.3125 193.7344,59.3125 C194,59.3125 194.2656,59.1719 194.4375,58.9531 C194.5469,58.7969 194.5781,58.6094 194.5781,58.1875 L194.5781,56.7656 C194.5781,56.3281 194.5625,56.2031 194.4688,56.0469 C194.3125,55.7813 194.0313,55.6406 193.7344,55.6406 C193.4375,55.6406 193.2344,55.7344 193.0156,56.0469 L192.8438,55.9688 Z " fill="#000000"/><text fill="#000000" font-family="sans-serif" font-size="14" lengthAdjust="spacing" textLength="51" x="204.5" y="65.1436">Usuario</text><line style="stroke:#181818;stroke-width:0.5;" x1="176.5" x2="257.5" y1="76.2969" y2="76.2969"/><rect fill="none" height="6" style="stroke:#C82930;stroke-width:1.0;" width="6" x="183.5" y="86.9453"/><text fill="#000000" font-family="sans-serif" font-size="14" lengthAdjust="spacing" textLength="57" x="195.5" y="93.292">nombre</text><rect fill="none" height="6" style="stroke:#C82930;stroke-width:1.0;" width="6" x="183.5" y="103.2422"/><text fill="#000000" font-family="sans-serif" font-size="14" lengthAdjust="spacing" textLength="13" x="195.5" y="109.5889">id</text><line style="stroke:#181818;stroke-width:0.5;" x1="176.5" x2="257.5" y1="116.8906" y2="116.8906"/></g><!--class Proyecto--><g id="elem_Proyecto"><rect codeLine="8" fill="#F1F1F1" height="64.2969" id="Proyecto" rx="2.5" ry="2.5" style="stroke:#181818;stroke-width:0.5;" width="97" x="84.5" y="218.7969"/><ellipse cx="99.5" cy="234.7969" fill="#ADD1B2" rx="11" ry="11" style="stroke:#181818;stroke-width:1.0;"/><path d="M101.8438,230.4688 C100.9063,230.0313 100.3125,229.8906 99.4375,229.8906 C96.8125,229.8906 94.8125,231.9688 94.8125,234.6875 L94.8125,235.8125 C94.8125,238.3906 96.9219,240.2813 99.8125,240.2813 C101.0313,240.2813 102.1875,239.9844 102.9375,239.4375 C103.5156,239.0313 103.8438,238.5781 103.8438,238.1875 C103.8438,237.7344 103.4531,237.3438 102.9844,237.3438 C102.7656,237.3438 102.5625,237.4219 102.375,237.6094 C101.9219,238.0938 101.9219,238.0938 101.7344,238.1875 C101.3125,238.4531 100.625,238.5781 99.8594,238.5781 C97.8125,238.5781 96.5156,237.4844 96.5156,235.7813 L96.5156,234.6875 C96.5156,232.9063 97.7656,231.5938 99.5,231.5938 C100.0781,231.5938 100.6875,231.75 101.1563,232 C101.6406,232.2813 101.8125,232.5 101.9063,232.9063 C101.9688,233.3125 102,233.4375 102.1406,233.5625 C102.2813,233.7031 102.5156,233.8125 102.7344,233.8125 C103,233.8125 103.2656,233.6719 103.4375,233.4531 C103.5469,233.2969 103.5781,233.1094 103.5781,232.6875 L103.5781,231.2656 C103.5781,230.8281 103.5625,230.7031 103.4688,230.5469 C103.3125,230.2813 103.0313,230.1406 102.7344,230.1406 C102.4375,230.1406 102.2344,230.2344 102.0156,230.5469 L101.8438,230.4688 Z " fill="#000000"/><text fill="#000000" font-family="sans-serif" font-size="14" lengthAdjust="spacing" textLength="65" x="113.5" y="239.6436">Proyecto</text><line style="stroke:#181818;stroke-width:0.5;" x1="85.5" x2="180.5" y1="250.7969" y2="250.7969"/><rect fill="none" height="6" style="stroke:#C82930;stroke-width:1.0;" width="6" x="92.5" y="261.4453"/><text fill="#000000" font-family="sans-serif" font-size="14" lengthAdjust="spacing" textLength="57" x="104.5" y="267.792">nombre</text><line style="stroke:#181818;stroke-width:0.5;" x1="85.5" x2="180.5" y1="275.0938" y2="275.0938"/></g><!--class Simulacion--><g id="elem_Simulacion"><rect codeLine="12" fill="#F1F1F1" height="145.7813" id="Simulacion" rx="2.5" ry="2.5" style="stroke:#181818;stroke-width:0.5;" width="160" x="53" y="376.2969"/><ellipse cx="90.95" cy="392.2969" fill="#ADD1B2" rx="11" ry="11" style="stroke:#181818;stroke-width:1.0;"/><path d="M93.2938,387.9688 C92.3563,387.5313 91.7625,387.3906 90.8875,387.3906 C88.2625,387.3906 86.2625,389.4688 86.2625,392.1875 L86.2625,393.3125 C86.2625,395.8906 88.3719,397.7813 91.2625,397.7813 C92.4813,397.7813 93.6375,397.4844 94.3875,396.9375 C94.9656,396.5313 95.2938,396.0781 95.2938,395.6875 C95.2938,395.2344 94.9031,394.8438 94.4344,394.8438 C94.2156,394.8438 94.0125,394.9219 93.825,395.1094 C93.3719,395.5938 93.3719,395.5938 93.1844,395.6875 C92.7625,395.9531 92.075,396.0781 91.3094,396.0781 C89.2625,396.0781 87.9656,394.9844 87.9656,393.2813 L87.9656,392.1875 C87.9656,390.4063 89.2156,389.0938 90.95,389.0938 C91.5281,389.0938 92.1375,389.25 92.6063,389.5 C93.0906,389.7813 93.2625,390 93.3563,390.4063 C93.4188,390.8125 93.45,390.9375 93.5906,391.0625 C93.7313,391.2031 93.9656,391.3125 94.1844,391.3125 C94.45,391.3125 94.7156,391.1719 94.8875,390.9531 C94.9969,390.7969 95.0281,390.6094 95.0281,390.1875 L95.0281,388.7656 C95.0281,388.3281 95.0125,388.2031 94.9188,388.0469 C94.7625,387.7813 94.4813,387.6406 94.1844,387.6406 C93.8875,387.6406 93.6844,387.7344 93.4656,388.0469 L93.2938,387.9688 Z " fill="#000000"/><text fill="#000000" font-family="sans-serif" font-size="14" lengthAdjust="spacing" textLength="77" x="110.05" y="397.1436">Simulacion</text><line style="stroke:#181818;stroke-width:0.5;" x1="54" x2="212" y1="408.2969" y2="408.2969"/><rect fill="none" height="6" style="stroke:#C82930;stroke-width:1.0;" width="6" x="61" y="418.9453"/><text fill="#000000" font-family="sans-serif" font-size="14" lengthAdjust="spacing" textLength="134" x="73" y="425.292">tipologiaElemento</text><rect fill="none" height="6" style="stroke:#C82930;stroke-width:1.0;" width="6" x="61" y="435.2422"/><text fill="#000000" font-family="sans-serif" font-size="14" lengthAdjust="spacing" textLength="60" x="73" y="441.5889">material</text><rect fill="none" height="6" style="stroke:#C82930;stroke-width:1.0;" width="6" x="61" y="451.5391"/><text fill="#000000" font-family="sans-serif" font-size="14" lengthAdjust="spacing" textLength="83" x="73" y="457.8857">localizacion</text><rect fill="none" height="6" style="stroke:#C82930;stroke-width:1.0;" width="6" x="61" y="467.8359"/><text fill="#000000" font-family="sans-serif" font-size="14" lengthAdjust="spacing" textLength="119" x="73" y="474.1826">agresionTermica</text><rect fill="none" height="6" style="stroke:#C82930;stroke-width:1.0;" width="6" x="61" y="484.1328"/><text fill="#000000" font-family="sans-serif" font-size="14" lengthAdjust="spacing" textLength="114" x="73" y="490.4795">graficaReaccion</text><rect fill="none" height="6" style="stroke:#C82930;stroke-width:1.0;" width="6" x="61" y="500.4297"/><text fill="#000000" font-family="sans-serif" font-size="14" lengthAdjust="spacing" textLength="117" x="73" y="506.7764">fechaSimulacion</text><line style="stroke:#181818;stroke-width:0.5;" x1="54" x2="212" y1="514.0781" y2="514.0781"/></g><!--class Grafica--><g id="elem_Grafica"><rect codeLine="21" fill="#F1F1F1" height="80.5938" id="Grafica" rx="2.5" ry="2.5" style="stroke:#181818;stroke-width:0.5;" width="107" x="10.5" y="599.2969"/><ellipse cx="36.3" cy="615.2969" fill="#ADD1B2" rx="11" ry="11" style="stroke:#181818;stroke-width:1.0;"/><path d="M38.6438,610.9688 C37.7063,610.5313 37.1125,610.3906 36.2375,610.3906 C33.6125,610.3906 31.6125,612.4688 31.6125,615.1875 L31.6125,616.3125 C31.6125,618.8906 33.7219,620.7813 36.6125,620.7813 C37.8313,620.7813 38.9875,620.4844 39.7375,619.9375 C40.3156,619.5313 40.6438,619.0781 40.6438,618.6875 C40.6438,618.2344 40.2531,617.8438 39.7844,617.8438 C39.5656,617.8438 39.3625,617.9219 39.175,618.1094 C38.7219,618.5938 38.7219,618.5938 38.5344,618.6875 C38.1125,618.9531 37.425,619.0781 36.6594,619.0781 C34.6125,619.0781 33.3156,617.9844 33.3156,616.2813 L33.3156,615.1875 C33.3156,613.4063 34.5656,612.0938 36.3,612.0938 C36.8781,612.0938 37.4875,612.25 37.9563,612.5 C38.4406,612.7813 38.6125,613 38.7063,613.4063 C38.7688,613.8125 38.8,613.9375 38.9406,614.0625 C39.0813,614.2031 39.3156,614.3125 39.5344,614.3125 C39.8,614.3125 40.0656,614.1719 40.2375,613.9531 C40.3469,613.7969 40.3781,613.6094 40.3781,613.1875 L40.3781,611.7656 C40.3781,611.3281 40.3625,611.2031 40.2688,611.0469 C40.1125,610.7813 39.8313,610.6406 39.5344,610.6406 C39.2375,610.6406 39.0344,610.7344 38.8156,611.0469 L38.6438,610.9688 Z " fill="#000000"/><text fill="#000000" font-family="sans-serif" font-size="14" lengthAdjust="spacing" textLength="51" x="52.7" y="620.1436">Grafica</text><line style="stroke:#181818;stroke-width:0.5;" x1="11.5" x2="116.5" y1="631.2969" y2="631.2969"/><rect fill="none" height="6" style="stroke:#C82930;stroke-width:1.0;" width="6" x="18.5" y="641.9453"/><text fill="#000000" font-family="sans-serif" font-size="14" lengthAdjust="spacing" textLength="40" x="30.5" y="648.292">datos</text><rect fill="none" height="6" style="stroke:#C82930;stroke-width:1.0;" width="6" x="18.5" y="658.2422"/><text fill="#000000" font-family="sans-serif" font-size="14" lengthAdjust="spacing" textLength="81" x="30.5" y="664.5889">tipoGrafica</text><line style="stroke:#181818;stroke-width:0.5;" x1="11.5" x2="116.5" y1="671.8906" y2="671.8906"/></g><!--class Log--><g id="elem_Log"><rect codeLine="26" fill="#F1F1F1" height="96.8906" id="Log" rx="2.5" ry="2.5" style="stroke:#181818;stroke-width:0.5;" width="99" x="216.5" y="202.2969"/><ellipse cx="249.95" cy="218.2969" fill="#ADD1B2" rx="11" ry="11" style="stroke:#181818;stroke-width:1.0;"/><path d="M252.2938,213.9688 C251.3563,213.5313 250.7625,213.3906 249.8875,213.3906 C247.2625,213.3906 245.2625,215.4688 245.2625,218.1875 L245.2625,219.3125 C245.2625,221.8906 247.3719,223.7813 250.2625,223.7813 C251.4813,223.7813 252.6375,223.4844 253.3875,222.9375 C253.9656,222.5313 254.2938,222.0781 254.2938,221.6875 C254.2938,221.2344 253.9031,220.8438 253.4344,220.8438 C253.2156,220.8438 253.0125,220.9219 252.825,221.1094 C252.3719,221.5938 252.3719,221.5938 252.1844,221.6875 C251.7625,221.9531 251.075,222.0781 250.3094,222.0781 C248.2625,222.0781 246.9656,220.9844 246.9656,219.2813 L246.9656,218.1875 C246.9656,216.4063 248.2156,215.0938 249.95,215.0938 C250.5281,215.0938 251.1375,215.25 251.6063,215.5 C252.0906,215.7813 252.2625,216 252.3563,216.4063 C252.4188,216.8125 252.45,216.9375 252.5906,217.0625 C252.7313,217.2031 252.9656,217.3125 253.1844,217.3125 C253.45,217.3125 253.7156,217.1719 253.8875,216.9531 C253.9969,216.7969 254.0281,216.6094 254.0281,216.1875 L254.0281,214.7656 C254.0281,214.3281 254.0125,214.2031 253.9188,214.0469 C253.7625,213.7813 253.4813,213.6406 253.1844,213.6406 C252.8875,213.6406 252.6844,213.7344 252.4656,214.0469 L252.2938,213.9688 Z " fill="#000000"/><text fill="#000000" font-family="sans-serif" font-size="14" lengthAdjust="spacing" textLength="26" x="268.05" y="223.1436">Log</text><line style="stroke:#181818;stroke-width:0.5;" x1="217.5" x2="314.5" y1="234.2969" y2="234.2969"/><rect fill="none" height="6" style="stroke:#C82930;stroke-width:1.0;" width="6" x="224.5" y="244.9453"/><text fill="#000000" font-family="sans-serif" font-size="14" lengthAdjust="spacing" textLength="62" x="236.5" y="251.292">acciones</text><rect fill="none" height="6" style="stroke:#C82930;stroke-width:1.0;" width="6" x="224.5" y="261.2422"/><text fill="#000000" font-family="sans-serif" font-size="14" lengthAdjust="spacing" textLength="73" x="236.5" y="267.5889">fechaHora</text><rect fill="none" height="6" style="stroke:#C82930;stroke-width:1.0;" width="6" x="224.5" y="277.5391"/><text fill="#000000" font-family="sans-serif" font-size="14" lengthAdjust="spacing" textLength="57" x="236.5" y="283.8857">detalles</text><line style="stroke:#181818;stroke-width:0.5;" x1="217.5" x2="314.5" y1="291.1875" y2="291.1875"/></g><!--class Reporte--><g id="elem_Reporte"><rect codeLine="32" fill="#F1F1F1" height="80.5938" id="Reporte" rx="2.5" ry="2.5" style="stroke:#181818;stroke-width:0.5;" width="99" x="152.5" y="599.2969"/><ellipse cx="170.65" cy="615.2969" fill="#ADD1B2" rx="11" ry="11" style="stroke:#181818;stroke-width:1.0;"/><path d="M172.9938,610.9688 C172.0563,610.5313 171.4625,610.3906 170.5875,610.3906 C167.9625,610.3906 165.9625,612.4688 165.9625,615.1875 L165.9625,616.3125 C165.9625,618.8906 168.0719,620.7813 170.9625,620.7813 C172.1813,620.7813 173.3375,620.4844 174.0875,619.9375 C174.6656,619.5313 174.9938,619.0781 174.9938,618.6875 C174.9938,618.2344 174.6031,617.8438 174.1344,617.8438 C173.9156,617.8438 173.7125,617.9219 173.525,618.1094 C173.0719,618.5938 173.0719,618.5938 172.8844,618.6875 C172.4625,618.9531 171.775,619.0781 171.0094,619.0781 C168.9625,619.0781 167.6656,617.9844 167.6656,616.2813 L167.6656,615.1875 C167.6656,613.4063 168.9156,612.0938 170.65,612.0938 C171.2281,612.0938 171.8375,612.25 172.3063,612.5 C172.7906,612.7813 172.9625,613 173.0563,613.4063 C173.1188,613.8125 173.15,613.9375 173.2906,614.0625 C173.4313,614.2031 173.6656,614.3125 173.8844,614.3125 C174.15,614.3125 174.4156,614.1719 174.5875,613.9531 C174.6969,613.7969 174.7281,613.6094 174.7281,613.1875 L174.7281,611.7656 C174.7281,611.3281 174.7125,611.2031 174.6188,611.0469 C174.4625,610.7813 174.1813,610.6406 173.8844,610.6406 C173.5875,610.6406 173.3844,610.7344 173.1656,611.0469 L172.9938,610.9688 Z " fill="#000000"/><text fill="#000000" font-family="sans-serif" font-size="14" lengthAdjust="spacing" textLength="60" x="185.35" y="620.1436">Reporte</text><line style="stroke:#181818;stroke-width:0.5;" x1="153.5" x2="250.5" y1="631.2969" y2="631.2969"/><rect fill="none" height="6" style="stroke:#C82930;stroke-width:1.0;" width="6" x="160.5" y="641.9453"/><text fill="#000000" font-family="sans-serif" font-size="14" lengthAdjust="spacing" textLength="73" x="172.5" y="648.292">contenido</text><rect fill="none" height="6" style="stroke:#C82930;stroke-width:1.0;" width="6" x="160.5" y="658.2422"/><text fill="#000000" font-family="sans-serif" font-size="14" lengthAdjust="spacing" textLength="59" x="172.5" y="664.5889">formato</text><line style="stroke:#181818;stroke-width:0.5;" x1="153.5" x2="250.5" y1="671.8906" y2="671.8906"/></g><!--link Usuario to Proyecto--><g id="link_Usuario_Proyecto"><path codeLine="37" d="M190.26,125.5609 C184.271,135.1229 178.168,145.4289 173,155.2969 C162.256,175.8139 152.109,199.8629 144.723,218.5649 " fill="none" id="Usuario-Proyecto" style="stroke:#181818;stroke-width:1.0;"/><polygon fill="#000000" points="175.8013,168.3539,182.4183,161.5227,177.1393,158.9379,175.8013,168.3539" style="stroke:#000000;stroke-width:1.0;"/><text fill="#000000" font-family="sans-serif" font-size="13" lengthAdjust="spacing" textLength="42" x="187" y="168.3638">realiza</text></g><!--reverse link Proyecto to Simulacion--><g id="link_Proyecto_Simulacion"><path codeLine="38" d="M133,294.9329 C133,319.9309 133,344.0329 133,376.1309 " fill="none" id="Proyecto-backto-Simulacion" style="stroke:#181818;stroke-width:1.0;"/><polygon fill="none" points="133,282.9329,129,288.9329,133,294.9329,137,288.9329,133,282.9329" style="stroke:#181818;stroke-width:1.0;"/><polygon fill="#000000" points="138,342.8633,140.9389,333.8182,135.0611,333.8182,138,342.8633" style="stroke:#000000;stroke-width:1.0;"/><text fill="#000000" font-family="sans-serif" font-size="13" lengthAdjust="spacing" textLength="55" x="147" y="342.3638">contiene</text><text fill="#000000" font-family="sans-serif" font-size="13" lengthAdjust="spacing" textLength="8" x="124.175" y="303.1578">1</text><text fill="#000000" font-family="sans-serif" font-size="13" lengthAdjust="spacing" textLength="7" x="125.6555" y="365.2745">*</text></g><!--link Simulacion to Grafica--><g id="link_Simulacion_Grafica"><path codeLine="39" d="M106.6187,522.3679 C97.0695,548.4549 86.6404,576.9459 78.4891,599.2143 " fill="none" id="Simulacion-Grafica" style="stroke:#181818;stroke-width:1.0;"/><polygon fill="#000000" points="98.2813,565.5586,104.1503,558.0749,98.6306,556.0545,98.2813,565.5586" style="stroke:#000000;stroke-width:1.0;"/><text fill="#000000" font-family="sans-serif" font-size="13" lengthAdjust="spacing" textLength="45" x="109" y="565.3638">genera</text></g><!--reverse link Simulacion to Reporte--><g id="link_Simulacion_Reporte"><path codeLine="40" d="M163.5063,533.6365 C173.0563,559.7235 179.36,576.9459 187.511,599.2143 " fill="none" id="Simulacion-backto-Reporte" style="stroke:#181818;stroke-width:1.0;"/><polygon fill="none" points="159.381,522.3679,157.6874,529.3773,163.5063,533.6365,165.1998,526.6271,159.381,522.3679" style="stroke:#181818;stroke-width:1.0;"/><polygon fill="#000000" points="181.7187,565.5586,181.3694,556.0545,175.8497,558.0749,181.7187,565.5586" style="stroke:#000000;stroke-width:1.0;"/><text fill="#000000" font-family="sans-serif" font-size="13" lengthAdjust="spacing" textLength="52" x="189" y="565.3638">produce</text></g><!--reverse link Usuario to Log--><g id="link_Usuario_Log"><path codeLine="41" d="M230.5795,131.2458 C237.4895,154.3758 244.531,177.9419 251.807,202.2929 " fill="none" id="Usuario-backto-Log" style="stroke:#181818;stroke-width:1.0;"/><polygon fill="#181818" points="228.862,125.4969,227.6056,135.2653,230.2932,130.2877,235.2708,132.9753,228.862,125.4969" style="stroke:#181818;stroke-width:1.0;"/><text fill="#000000" font-family="sans-serif" font-size="13" lengthAdjust="spacing" textLength="49" x="242" y="168.3638">registra</text></g><!--SRC=[PP1DJiGm38NtFKMK9L8NR152Gk9NW8Hcu00cyNGifN7bP1Q0E1L7u6AudIQjm3lRd-tdboa7D4_iCR3nQAwufqXiMdCv17BWwESxcflxxKFJk00fcTTq057Yip4QhOdSlmdE2Vdcgu3Fmk_eyZ-o0blg3q4lSAn8fe43TmJN0NkCcUTw3nc58CnfO0U1FgRPkGITODBq1QLNtNEr4zXfja5mAtQ7RW_BzKNHxH6lSZnaJYjfStyPUEIkmiSJcDP7xbYA58yPGj1s7TxWm9AnBd0SCqRovUaTY_xDuq0nlMqNMy-C5PniC1UsgMLxQWqhPq_isc6bn_s44KTyrL6s_ArGfu307sJSLzGgCmZxWvls567dIencJA8wIbd0_W80]--></g></svg>