<?xml version="1.0" encoding="us-ascii" standalone="no"?><svg xmlns="http://www.w3.org/2000/svg" xmlns:xlink="http://www.w3.org/1999/xlink" contentStyleType="text/css" height="1023px" preserveAspectRatio="none" style="width:430px;height:1023px;background:#FFFFFF;" version="1.1" viewBox="0 0 430 1023" width="430px" zoomAndPan="magnify"><defs/><g><text fill="#000000" font-family="sans-serif" font-size="14" font-weight="bold" lengthAdjust="spacing" textLength="211" x="108" y="32.9951">Flujo de la Aplicaci&#243;n FISK</text><ellipse cx="208.5" cy="57.2969" fill="#222222" rx="10" ry="10" style="stroke:#222222;stroke-width:1.0;"/><rect fill="#F1F1F1" height="33.9688" rx="12.5" ry="12.5" style="stroke:#181818;stroke-width:0.5;" width="120" x="148.5" y="87.2969"/><text fill="#000000" font-family="sans-serif" font-size="12" lengthAdjust="spacing" textLength="100" x="158.5" y="108.4355">Iniciar Aplicaci&#243;n</text><rect fill="#F1F1F1" height="47.9375" rx="12.5" ry="12.5" style="stroke:#181818;stroke-width:0.5;" width="152" x="132.5" y="141.2656"/><text fill="#000000" font-family="sans-serif" font-size="12" lengthAdjust="spacing" textLength="132" x="142.5" y="162.4043">Crear Nuevo Proyecto</text><text fill="#000000" font-family="sans-serif" font-size="12" lengthAdjust="spacing" textLength="100" x="142.5" y="176.373">o Abrir Existente</text><polygon fill="#F1F1F1" points="163.5,209.2031,253.5,209.2031,265.5,221.2031,253.5,233.2031,163.5,233.2031,151.5,221.2031,163.5,209.2031" style="stroke:#181818;stroke-width:0.5;"/><text fill="#000000" font-family="sans-serif" font-size="11" lengthAdjust="spacing" textLength="90" x="163.5" y="225.0112">Nuevo Proyecto</text><text fill="#000000" font-family="sans-serif" font-size="11" lengthAdjust="spacing" textLength="9" x="142.5" y="218.6089">s&#237;</text><text fill="#000000" font-family="sans-serif" font-size="11" lengthAdjust="spacing" textLength="14" x="265.5" y="218.6089">no</text><rect fill="#F1F1F1" height="33.9688" rx="12.5" ry="12.5" style="stroke:#181818;stroke-width:0.5;" width="181" x="11" y="243.2031"/><text fill="#000000" font-family="sans-serif" font-size="12" lengthAdjust="spacing" textLength="161" x="21" y="264.3418">Configurar Nuevo Proyecto</text><rect fill="#F1F1F1" height="33.9688" rx="12.5" ry="12.5" style="stroke:#181818;stroke-width:0.5;" width="207" x="212" y="243.2031"/><text fill="#000000" font-family="sans-serif" font-size="12" lengthAdjust="spacing" textLength="187" x="222" y="264.3418">Seleccionar Proyecto Existente</text><polygon fill="#F1F1F1" points="208.5,283.1719,220.5,295.1719,208.5,307.1719,196.5,295.1719,208.5,283.1719" style="stroke:#181818;stroke-width:0.5;"/><rect fill="#F1F1F1" height="33.9688" rx="12.5" ry="12.5" style="stroke:#181818;stroke-width:0.5;" width="150" x="133.5" y="327.1719"/><text fill="#000000" font-family="sans-serif" font-size="12" lengthAdjust="spacing" textLength="130" x="143.5" y="348.3105">Seleccionar Tipolog&#237;a</text><rect fill="#F1F1F1" height="33.9688" rx="12.5" ry="12.5" style="stroke:#181818;stroke-width:0.5;" width="133" x="142" y="381.1406"/><text fill="#000000" font-family="sans-serif" font-size="12" lengthAdjust="spacing" textLength="113" x="152" y="402.2793">Configurar Material</text><rect fill="#F1F1F1" height="33.9688" rx="12.5" ry="12.5" style="stroke:#181818;stroke-width:0.5;" width="192" x="112.5" y="435.1094"/><text fill="#000000" font-family="sans-serif" font-size="12" lengthAdjust="spacing" textLength="172" x="122.5" y="456.248">Configurar Agresi&#243;n T&#233;rmica</text><rect fill="#F1F1F1" height="33.9688" rx="12.5" ry="12.5" style="stroke:#181818;stroke-width:0.5;" width="176" x="120.5" y="489.0781"/><text fill="#000000" font-family="sans-serif" font-size="12" lengthAdjust="spacing" textLength="156" x="130.5" y="510.2168">Revisar y Confirmar Datos</text><rect fill="#F1F1F1" height="33.9688" rx="12.5" ry="12.5" style="stroke:#181818;stroke-width:0.5;" width="123" x="147" y="543.0469"/><text fill="#000000" font-family="sans-serif" font-size="12" lengthAdjust="spacing" textLength="103" x="157" y="564.1855">Iniciar Simulaci&#243;n</text><polygon fill="#F1F1F1" points="169.5,597.0156,247.5,597.0156,259.5,609.0156,247.5,621.0156,169.5,621.0156,157.5,609.0156,169.5,597.0156" style="stroke:#181818;stroke-width:0.5;"/><text fill="#000000" font-family="sans-serif" font-size="11" lengthAdjust="spacing" textLength="78" x="169.5" y="612.8237">&#191;Hay Errores?</text><text fill="#000000" font-family="sans-serif" font-size="11" lengthAdjust="spacing" textLength="9" x="148.5" y="606.4214">s&#237;</text><text fill="#000000" font-family="sans-serif" font-size="11" lengthAdjust="spacing" textLength="14" x="259.5" y="606.4214">no</text><rect fill="#F1F1F1" height="33.9688" rx="12.5" ry="12.5" style="stroke:#181818;stroke-width:0.5;" width="115" x="77.5" y="631.0156"/><text fill="#000000" font-family="sans-serif" font-size="12" lengthAdjust="spacing" textLength="95" x="87.5" y="652.1543">Mostrar Errores</text><rect fill="#F1F1F1" height="33.9688" rx="12.5" ry="12.5" style="stroke:#181818;stroke-width:0.5;" width="109" x="80.5" y="684.9844"/><text fill="#000000" font-family="sans-serif" font-size="12" lengthAdjust="spacing" textLength="89" x="90.5" y="706.123">Corregir Datos</text><rect fill="#F1F1F1" height="33.9688" rx="12.5" ry="12.5" style="stroke:#181818;stroke-width:0.5;" width="139" x="212.5" y="631.0156"/><text fill="#000000" font-family="sans-serif" font-size="12" lengthAdjust="spacing" textLength="119" x="222.5" y="652.1543">Generar Resultados</text><polygon fill="#F1F1F1" points="208.5,730.8521,220.5,742.8521,208.5,754.8521,196.5,742.8521,208.5,730.8521" style="stroke:#181818;stroke-width:0.5;"/><text fill="#000000" font-family="sans-serif" font-size="11" lengthAdjust="spacing" textLength="149" x="47.5" y="740.2578">Revisar y Confirmar Datos</text><rect fill="#F1F1F1" height="33.9688" rx="12.5" ry="12.5" style="stroke:#181818;stroke-width:0.5;" width="181" x="118" y="774.8521"/><text fill="#000000" font-family="sans-serif" font-size="12" lengthAdjust="spacing" textLength="161" x="128" y="795.9907">Visualizar Gr&#225;ficos y Datos</text><rect fill="#F1F1F1" height="33.9688" rx="12.5" ry="12.5" style="stroke:#181818;stroke-width:0.5;" width="121" x="148" y="828.8208"/><text fill="#000000" font-family="sans-serif" font-size="12" lengthAdjust="spacing" textLength="101" x="158" y="849.9595">Generar Reporte</text><rect fill="#F1F1F1" height="33.9688" rx="12.5" ry="12.5" style="stroke:#181818;stroke-width:0.5;" width="162" x="127.5" y="882.7896"/><text fill="#000000" font-family="sans-serif" font-size="12" lengthAdjust="spacing" textLength="142" x="137.5" y="903.9282">Exportar Datos/Reporte</text><rect fill="#F1F1F1" height="33.9688" rx="12.5" ry="12.5" style="stroke:#181818;stroke-width:0.5;" width="125" x="146" y="936.7583"/><text fill="#000000" font-family="sans-serif" font-size="12" lengthAdjust="spacing" textLength="105" x="156" y="957.897">Guardar Proyecto</text><ellipse cx="208.5" cy="1001.7271" fill="none" rx="11" ry="11" style="stroke:#222222;stroke-width:1.0;"/><ellipse cx="208.5" cy="1001.7271" fill="#222222" rx="6" ry="6" style="stroke:#222222;stroke-width:1.0;"/><line style="stroke:#181818;stroke-width:1.0;" x1="208.5" x2="208.5" y1="67.2969" y2="87.2969"/><polygon fill="#181818" points="204.5,77.2969,208.5,87.2969,212.5,77.2969,208.5,81.2969" style="stroke:#181818;stroke-width:1.0;"/><line style="stroke:#181818;stroke-width:1.0;" x1="208.5" x2="208.5" y1="121.2656" y2="141.2656"/><polygon fill="#181818" points="204.5,131.2656,208.5,141.2656,212.5,131.2656,208.5,135.2656" style="stroke:#181818;stroke-width:1.0;"/><line style="stroke:#181818;stroke-width:1.0;" x1="151.5" x2="101.5" y1="221.2031" y2="221.2031"/><line style="stroke:#181818;stroke-width:1.0;" x1="101.5" x2="101.5" y1="221.2031" y2="243.2031"/><polygon fill="#181818" points="97.5,233.2031,101.5,243.2031,105.5,233.2031,101.5,237.2031" style="stroke:#181818;stroke-width:1.0;"/><line style="stroke:#181818;stroke-width:1.0;" x1="265.5" x2="315.5" y1="221.2031" y2="221.2031"/><line style="stroke:#181818;stroke-width:1.0;" x1="315.5" x2="315.5" y1="221.2031" y2="243.2031"/><polygon fill="#181818" points="311.5,233.2031,315.5,243.2031,319.5,233.2031,315.5,237.2031" style="stroke:#181818;stroke-width:1.0;"/><line style="stroke:#181818;stroke-width:1.0;" x1="101.5" x2="101.5" y1="277.1719" y2="295.1719"/><line style="stroke:#181818;stroke-width:1.0;" x1="101.5" x2="196.5" y1="295.1719" y2="295.1719"/><polygon fill="#181818" points="186.5,291.1719,196.5,295.1719,186.5,299.1719,190.5,295.1719" style="stroke:#181818;stroke-width:1.0;"/><line style="stroke:#181818;stroke-width:1.0;" x1="315.5" x2="315.5" y1="277.1719" y2="295.1719"/><line style="stroke:#181818;stroke-width:1.0;" x1="315.5" x2="220.5" y1="295.1719" y2="295.1719"/><polygon fill="#181818" points="230.5,291.1719,220.5,295.1719,230.5,299.1719,226.5,295.1719" style="stroke:#181818;stroke-width:1.0;"/><line style="stroke:#181818;stroke-width:1.0;" x1="208.5" x2="208.5" y1="189.2031" y2="209.2031"/><polygon fill="#181818" points="204.5,199.2031,208.5,209.2031,212.5,199.2031,208.5,203.2031" style="stroke:#181818;stroke-width:1.0;"/><line style="stroke:#181818;stroke-width:1.0;" x1="208.5" x2="208.5" y1="307.1719" y2="327.1719"/><polygon fill="#181818" points="204.5,317.1719,208.5,327.1719,212.5,317.1719,208.5,321.1719" style="stroke:#181818;stroke-width:1.0;"/><line style="stroke:#181818;stroke-width:1.0;" x1="208.5" x2="208.5" y1="361.1406" y2="381.1406"/><polygon fill="#181818" points="204.5,371.1406,208.5,381.1406,212.5,371.1406,208.5,375.1406" style="stroke:#181818;stroke-width:1.0;"/><line style="stroke:#181818;stroke-width:1.0;" x1="208.5" x2="208.5" y1="415.1094" y2="435.1094"/><polygon fill="#181818" points="204.5,425.1094,208.5,435.1094,212.5,425.1094,208.5,429.1094" style="stroke:#181818;stroke-width:1.0;"/><line style="stroke:#181818;stroke-width:1.0;" x1="208.5" x2="208.5" y1="469.0781" y2="489.0781"/><polygon fill="#181818" points="204.5,479.0781,208.5,489.0781,212.5,479.0781,208.5,483.0781" style="stroke:#181818;stroke-width:1.0;"/><line style="stroke:#181818;stroke-width:1.0;" x1="208.5" x2="208.5" y1="523.0469" y2="543.0469"/><polygon fill="#181818" points="204.5,533.0469,208.5,543.0469,212.5,533.0469,208.5,537.0469" style="stroke:#181818;stroke-width:1.0;"/><line style="stroke:#181818;stroke-width:1.0;" x1="135" x2="135" y1="664.9844" y2="684.9844"/><polygon fill="#181818" points="131,674.9844,135,684.9844,139,674.9844,135,678.9844" style="stroke:#181818;stroke-width:1.0;"/><line style="stroke:#181818;stroke-width:1.0;" x1="157.5" x2="135" y1="609.0156" y2="609.0156"/><line style="stroke:#181818;stroke-width:1.0;" x1="135" x2="135" y1="609.0156" y2="631.0156"/><polygon fill="#181818" points="131,621.0156,135,631.0156,139,621.0156,135,625.0156" style="stroke:#181818;stroke-width:1.0;"/><line style="stroke:#181818;stroke-width:1.0;" x1="259.5" x2="282" y1="609.0156" y2="609.0156"/><line style="stroke:#181818;stroke-width:1.0;" x1="282" x2="282" y1="609.0156" y2="631.0156"/><polygon fill="#181818" points="278,621.0156,282,631.0156,286,621.0156,282,625.0156" style="stroke:#181818;stroke-width:1.0;"/><line style="stroke:#181818;stroke-width:1.0;" x1="135" x2="135" y1="718.9531" y2="742.8521"/><line style="stroke:#181818;stroke-width:1.0;" x1="135" x2="196.5" y1="742.8521" y2="742.8521"/><polygon fill="#181818" points="186.5,738.8521,196.5,742.8521,186.5,746.8521,190.5,742.8521" style="stroke:#181818;stroke-width:1.0;"/><line style="stroke:#181818;stroke-width:1.0;" x1="282" x2="282" y1="664.9844" y2="742.8521"/><line style="stroke:#181818;stroke-width:1.0;" x1="282" x2="220.5" y1="742.8521" y2="742.8521"/><polygon fill="#181818" points="230.5,738.8521,220.5,742.8521,230.5,746.8521,226.5,742.8521" style="stroke:#181818;stroke-width:1.0;"/><line style="stroke:#181818;stroke-width:1.0;" x1="208.5" x2="208.5" y1="577.0156" y2="597.0156"/><polygon fill="#181818" points="204.5,587.0156,208.5,597.0156,212.5,587.0156,208.5,591.0156" style="stroke:#181818;stroke-width:1.0;"/><line style="stroke:#181818;stroke-width:1.0;" x1="208.5" x2="208.5" y1="754.8521" y2="774.8521"/><polygon fill="#181818" points="204.5,764.8521,208.5,774.8521,212.5,764.8521,208.5,768.8521" style="stroke:#181818;stroke-width:1.0;"/><line style="stroke:#181818;stroke-width:1.0;" x1="208.5" x2="208.5" y1="808.8208" y2="828.8208"/><polygon fill="#181818" points="204.5,818.8208,208.5,828.8208,212.5,818.8208,208.5,822.8208" style="stroke:#181818;stroke-width:1.0;"/><line style="stroke:#181818;stroke-width:1.0;" x1="208.5" x2="208.5" y1="862.7896" y2="882.7896"/><polygon fill="#181818" points="204.5,872.7896,208.5,882.7896,212.5,872.7896,208.5,876.7896" style="stroke:#181818;stroke-width:1.0;"/><line style="stroke:#181818;stroke-width:1.0;" x1="208.5" x2="208.5" y1="916.7583" y2="936.7583"/><polygon fill="#181818" points="204.5,926.7583,208.5,936.7583,212.5,926.7583,208.5,930.7583" style="stroke:#181818;stroke-width:1.0;"/><line style="stroke:#181818;stroke-width:1.0;" x1="208.5" x2="208.5" y1="970.7271" y2="990.7271"/><polygon fill="#181818" points="204.5,980.7271,208.5,990.7271,212.5,980.7271,208.5,984.7271" style="stroke:#181818;stroke-width:1.0;"/><!--SRC=[VPB1JiCm38RlUGeVjmFYtagWQMnZGaDecpXn2QrRZBAuSj9fusquSjY91q2YBqPQhRHZ4ZbPzXV_zfzuyWPXQifNXXJ1Q1WLXXATKFLfOJfVtIdbl1QlL3Itb92MFX6hQ2mOSlSbRXaUXFUOU7wo3ADd8O79Zfn7wp5MbC7W51k2Vq4B0rSTXWh2YSPiCyfBEUiOApGEOM3vIAxGO98Gsu2sK5yDRKfP6BhFhQbWmtbrqFNSdTH2UnJIvZGxoWLTOyEw-f1DM3dKbxWb5ufxQ4ZPXFX6UtPnvy-ADgLf_MdM_lwwrNkOY71eUNs-zeAThoMFHDoQ8O8v_GhKoOih-6U4FnxDq6BTTeckD5wd3NBqvP5SgGszXV9CglUC4dQXPRjBTxLWgVsC9hiwQhKkkyAir9BsNY4E7uQB7m00]--></g></svg>