<?xml version="1.0" encoding="us-ascii" standalone="no"?><svg xmlns="http://www.w3.org/2000/svg" xmlns:xlink="http://www.w3.org/1999/xlink" contentStyleType="text/css" height="364px" preserveAspectRatio="none" style="width:188px;height:364px;background:#FFFFFF;" version="1.1" viewBox="0 0 188 364" width="188px" zoomAndPan="magnify"><defs/><g><text fill="#000000" font-family="sans-serif" font-size="14" font-weight="bold" lengthAdjust="spacing" textLength="156" x="10" y="22.9951">Modelo del entorno</text><!--class usuario--><g id="elem_usuario"><rect fill="#F1F1F1" height="48" id="usuario" rx="2.5" ry="2.5" style="stroke:#181818;stroke-width:0.5;" width="82" x="78.5" y="44.2969"/><ellipse cx="93.5" cy="60.2969" fill="#ADD1B2" rx="11" ry="11" style="stroke:#181818;stroke-width:1.0;"/><path d="M95.8438,55.9688 C94.9063,55.5313 94.3125,55.3906 93.4375,55.3906 C90.8125,55.3906 88.8125,57.4688 88.8125,60.1875 L88.8125,61.3125 C88.8125,63.8906 90.9219,65.7813 93.8125,65.7813 C95.0313,65.7813 96.1875,65.4844 96.9375,64.9375 C97.5156,64.5313 97.8438,64.0781 97.8438,63.6875 C97.8438,63.2344 97.4531,62.8438 96.9844,62.8438 C96.7656,62.8438 96.5625,62.9219 96.375,63.1094 C95.9219,63.5938 95.9219,63.5938 95.7344,63.6875 C95.3125,63.9531 94.625,64.0781 93.8594,64.0781 C91.8125,64.0781 90.5156,62.9844 90.5156,61.2813 L90.5156,60.1875 C90.5156,58.4063 91.7656,57.0938 93.5,57.0938 C94.0781,57.0938 94.6875,57.25 95.1563,57.5 C95.6406,57.7813 95.8125,58 95.9063,58.4063 C95.9688,58.8125 96,58.9375 96.1406,59.0625 C96.2813,59.2031 96.5156,59.3125 96.7344,59.3125 C97,59.3125 97.2656,59.1719 97.4375,58.9531 C97.5469,58.7969 97.5781,58.6094 97.5781,58.1875 L97.5781,56.7656 C97.5781,56.3281 97.5625,56.2031 97.4688,56.0469 C97.3125,55.7813 97.0313,55.6406 96.7344,55.6406 C96.4375,55.6406 96.2344,55.7344 96.0156,56.0469 L95.8438,55.9688 Z " fill="#000000"/><text fill="#000000" font-family="sans-serif" font-size="14" lengthAdjust="spacing" textLength="50" x="107.5" y="65.1436">usuario</text><line style="stroke:#181818;stroke-width:0.5;" x1="79.5" x2="159.5" y1="76.2969" y2="76.2969"/><line style="stroke:#181818;stroke-width:0.5;" x1="79.5" x2="159.5" y1="84.2969" y2="84.2969"/></g><!--class core--><g id="elem_core"><rect fill="#F1F1F1" height="48" id="core" rx="2.5" ry="2.5" style="stroke:#181818;stroke-width:0.5;" width="64" x="8.5" y="169.2969"/><ellipse cx="23.5" cy="185.2969" fill="#ADD1B2" rx="11" ry="11" style="stroke:#181818;stroke-width:1.0;"/><path d="M25.8438,180.9688 C24.9063,180.5313 24.3125,180.3906 23.4375,180.3906 C20.8125,180.3906 18.8125,182.4688 18.8125,185.1875 L18.8125,186.3125 C18.8125,188.8906 20.9219,190.7813 23.8125,190.7813 C25.0313,190.7813 26.1875,190.4844 26.9375,189.9375 C27.5156,189.5313 27.8438,189.0781 27.8438,188.6875 C27.8438,188.2344 27.4531,187.8438 26.9844,187.8438 C26.7656,187.8438 26.5625,187.9219 26.375,188.1094 C25.9219,188.5938 25.9219,188.5938 25.7344,188.6875 C25.3125,188.9531 24.625,189.0781 23.8594,189.0781 C21.8125,189.0781 20.5156,187.9844 20.5156,186.2813 L20.5156,185.1875 C20.5156,183.4063 21.7656,182.0938 23.5,182.0938 C24.0781,182.0938 24.6875,182.25 25.1563,182.5 C25.6406,182.7813 25.8125,183 25.9063,183.4063 C25.9688,183.8125 26,183.9375 26.1406,184.0625 C26.2813,184.2031 26.5156,184.3125 26.7344,184.3125 C27,184.3125 27.2656,184.1719 27.4375,183.9531 C27.5469,183.7969 27.5781,183.6094 27.5781,183.1875 L27.5781,181.7656 C27.5781,181.3281 27.5625,181.2031 27.4688,181.0469 C27.3125,180.7813 27.0313,180.6406 26.7344,180.6406 C26.4375,180.6406 26.2344,180.7344 26.0156,181.0469 L25.8438,180.9688 Z " fill="#000000"/><text fill="#000000" font-family="sans-serif" font-size="14" lengthAdjust="spacing" textLength="32" x="37.5" y="190.1436">core</text><line style="stroke:#181818;stroke-width:0.5;" x1="9.5" x2="71.5" y1="201.2969" y2="201.2969"/><line style="stroke:#181818;stroke-width:0.5;" x1="9.5" x2="71.5" y1="209.2969" y2="209.2969"/></g><!--class ticket--><g id="elem_ticket"><rect fill="#F1F1F1" height="48" id="ticket" rx="2.5" ry="2.5" style="stroke:#181818;stroke-width:0.5;" width="76" x="53.5" y="309.2969"/><ellipse cx="68.5" cy="325.2969" fill="#ADD1B2" rx="11" ry="11" style="stroke:#181818;stroke-width:1.0;"/><path d="M70.8438,320.9688 C69.9063,320.5313 69.3125,320.3906 68.4375,320.3906 C65.8125,320.3906 63.8125,322.4688 63.8125,325.1875 L63.8125,326.3125 C63.8125,328.8906 65.9219,330.7813 68.8125,330.7813 C70.0313,330.7813 71.1875,330.4844 71.9375,329.9375 C72.5156,329.5313 72.8438,329.0781 72.8438,328.6875 C72.8438,328.2344 72.4531,327.8438 71.9844,327.8438 C71.7656,327.8438 71.5625,327.9219 71.375,328.1094 C70.9219,328.5938 70.9219,328.5938 70.7344,328.6875 C70.3125,328.9531 69.625,329.0781 68.8594,329.0781 C66.8125,329.0781 65.5156,327.9844 65.5156,326.2813 L65.5156,325.1875 C65.5156,323.4063 66.7656,322.0938 68.5,322.0938 C69.0781,322.0938 69.6875,322.25 70.1563,322.5 C70.6406,322.7813 70.8125,323 70.9063,323.4063 C70.9688,323.8125 71,323.9375 71.1406,324.0625 C71.2813,324.2031 71.5156,324.3125 71.7344,324.3125 C72,324.3125 72.2656,324.1719 72.4375,323.9531 C72.5469,323.7969 72.5781,323.6094 72.5781,323.1875 L72.5781,321.7656 C72.5781,321.3281 72.5625,321.2031 72.4688,321.0469 C72.3125,320.7813 72.0313,320.6406 71.7344,320.6406 C71.4375,320.6406 71.2344,320.7344 71.0156,321.0469 L70.8438,320.9688 Z " fill="#000000"/><text fill="#000000" font-family="sans-serif" font-size="14" lengthAdjust="spacing" textLength="44" x="82.5" y="330.1436">ticket</text><line style="stroke:#181818;stroke-width:0.5;" x1="54.5" x2="128.5" y1="341.2969" y2="341.2969"/><line style="stroke:#181818;stroke-width:0.5;" x1="54.5" x2="128.5" y1="349.2969" y2="349.2969"/></g><!--link usuario to core--><g id="link_usuario_core"><path codeLine="3" d="M96.3687,92.3469 C88.1959,101.2349 79.3443,111.7849 72.5,122.2969 C62.9491,136.9669 57.0426,149.3903 51.3553,163.4573 " fill="none" id="usuario-to-core" style="stroke:#181818;stroke-width:1.0;"/><polygon fill="#181818" points="49.1063,169.0199,56.1881,162.1753,50.9804,164.3844,48.7713,159.1767,49.1063,169.0199" style="stroke:#181818;stroke-width:1.0;"/><polygon fill="#000000" points="74.8257,135.088,82.1468,129.0173,77.1803,125.8735,74.8257,135.088" style="stroke:#000000;stroke-width:1.0;"/><text fill="#000000" font-family="sans-serif" font-size="13" lengthAdjust="spacing" textLength="37" x="86.5" y="135.3638">utiliza</text></g><!--link usuario to ticket--><g id="link_usuario_ticket"><path codeLine="4" d="M125.498,92.3379 C134.658,131.7149 149.029,214.0269 128.5,279.2969 C125.133,290.0017 118.751,300.4305 112.223,309.1655 " fill="none" id="usuario-ticket" style="stroke:#181818;stroke-width:1.0;"/><polygon fill="#000000" points="143.1945,198.3539,146.6806,189.5054,140.8138,189.1462,143.1945,198.3539" style="stroke:#000000;stroke-width:1.0;"/><text fill="#000000" font-family="sans-serif" font-size="13" lengthAdjust="spacing" textLength="28" x="152.5" y="197.8638">crea</text></g><!--link core to ticket--><g id="link_core_ticket"><path codeLine="5" d="M31.4496,217.3229 C25.9581,235.0269 21.563,259.6928 30.5,279.2969 C35.7957,290.9134 45.0343,300.9682 54.7435,309.1038 " fill="none" id="core-ticket" style="stroke:#181818;stroke-width:1.0;stroke-dasharray:7.0,7.0;"/><polygon fill="#000000" points="52.73,260.7096,53.3535,251.2195,47.6563,252.6655,52.73,260.7096" style="stroke:#000000;stroke-width:1.0;"/><text fill="#000000" font-family="sans-serif" font-size="13" lengthAdjust="spacing" textLength="49" x="59.5" y="260.3638">registra</text><text fill="#000000" font-family="sans-serif" font-size="13" lengthAdjust="spacing" textLength="92" x="31.5" y="275.4966">sus errores en</text></g><!--SRC=[JOkn3SCm30HxJS4kbQJUXJV81ca8cN28IA93aKscZsoaIFCF_DtVdcR7M78-AdRpLbEHbWUzdNgXk37kYYqOMoMuoqPLO0PGDz4kmOUZia2CAnHHWWLMSEFA7_o3O5nUP2SiIXWkDQNVV9sKTXwc-EZ31v3gL6RtBm00]--></g></svg>