<?xml version="1.0" encoding="us-ascii" standalone="no"?><svg xmlns="http://www.w3.org/2000/svg" xmlns:xlink="http://www.w3.org/1999/xlink" contentStyleType="text/css" height="330px" preserveAspectRatio="none" style="width:1574px;height:330px;background:#FFFFFF;" version="1.1" viewBox="0 0 1574 330" width="1574px" zoomAndPan="magnify"><defs/><g><text fill="#000000" font-family="sans-serif" font-size="14" font-weight="bold" lengthAdjust="spacing" textLength="198" x="681" y="22.9951">Modelo del dominio Core</text><!--cluster Sistema--><g id="cluster_Sistema"><rect fill="none" height="207" rx="2.5" ry="2.5" style="stroke:#181818;stroke-width:1.0;" width="1561" x="7" y="117.2969"/><text fill="#000000" font-family="sans-serif" font-size="14" font-weight="bold" lengthAdjust="spacing" textLength="66" x="754.5" y="132.292">Sistema</text></g><!--class dashboard--><g id="elem_dashboard"><rect fill="#F1F1F1" height="48" id="dashboard" rx="2.5" ry="2.5" style="stroke:#181818;stroke-width:0.5;" width="107" x="1090.5" y="152.2969"/><ellipse cx="1105.5" cy="168.2969" fill="#ADD1B2" rx="11" ry="11" style="stroke:#181818;stroke-width:1.0;"/><path d="M1107.8438,163.9688 C1106.9063,163.5313 1106.3125,163.3906 1105.4375,163.3906 C1102.8125,163.3906 1100.8125,165.4688 1100.8125,168.1875 L1100.8125,169.3125 C1100.8125,171.8906 1102.9219,173.7813 1105.8125,173.7813 C1107.0313,173.7813 1108.1875,173.4844 1108.9375,172.9375 C1109.5156,172.5313 1109.8438,172.0781 1109.8438,171.6875 C1109.8438,171.2344 1109.4531,170.8438 1108.9844,170.8438 C1108.7656,170.8438 1108.5625,170.9219 1108.375,171.1094 C1107.9219,171.5938 1107.9219,171.5938 1107.7344,171.6875 C1107.3125,171.9531 1106.625,172.0781 1105.8594,172.0781 C1103.8125,172.0781 1102.5156,170.9844 1102.5156,169.2813 L1102.5156,168.1875 C1102.5156,166.4063 1103.7656,165.0938 1105.5,165.0938 C1106.0781,165.0938 1106.6875,165.25 1107.1563,165.5 C1107.6406,165.7813 1107.8125,166 1107.9063,166.4063 C1107.9688,166.8125 1108,166.9375 1108.1406,167.0625 C1108.2813,167.2031 1108.5156,167.3125 1108.7344,167.3125 C1109,167.3125 1109.2656,167.1719 1109.4375,166.9531 C1109.5469,166.7969 1109.5781,166.6094 1109.5781,166.1875 L1109.5781,164.7656 C1109.5781,164.3281 1109.5625,164.2031 1109.4688,164.0469 C1109.3125,163.7813 1109.0313,163.6406 1108.7344,163.6406 C1108.4375,163.6406 1108.2344,163.7344 1108.0156,164.0469 L1107.8438,163.9688 Z " fill="#000000"/><text fill="#000000" font-family="sans-serif" font-size="14" lengthAdjust="spacing" textLength="75" x="1119.5" y="173.1436">dashboard</text><line style="stroke:#181818;stroke-width:0.5;" x1="1091.5" x2="1196.5" y1="184.2969" y2="184.2969"/><line style="stroke:#181818;stroke-width:0.5;" x1="1091.5" x2="1196.5" y1="192.2969" y2="192.2969"/></g><!--class docente--><g id="elem_docente"><rect fill="#F1F1F1" height="48" id="docente" rx="2.5" ry="2.5" style="stroke:#181818;stroke-width:0.5;" width="92" x="963" y="152.2969"/><ellipse cx="978" cy="168.2969" fill="#ADD1B2" rx="11" ry="11" style="stroke:#181818;stroke-width:1.0;"/><path d="M980.3438,163.9688 C979.4063,163.5313 978.8125,163.3906 977.9375,163.3906 C975.3125,163.3906 973.3125,165.4688 973.3125,168.1875 L973.3125,169.3125 C973.3125,171.8906 975.4219,173.7813 978.3125,173.7813 C979.5313,173.7813 980.6875,173.4844 981.4375,172.9375 C982.0156,172.5313 982.3438,172.0781 982.3438,171.6875 C982.3438,171.2344 981.9531,170.8438 981.4844,170.8438 C981.2656,170.8438 981.0625,170.9219 980.875,171.1094 C980.4219,171.5938 980.4219,171.5938 980.2344,171.6875 C979.8125,171.9531 979.125,172.0781 978.3594,172.0781 C976.3125,172.0781 975.0156,170.9844 975.0156,169.2813 L975.0156,168.1875 C975.0156,166.4063 976.2656,165.0938 978,165.0938 C978.5781,165.0938 979.1875,165.25 979.6563,165.5 C980.1406,165.7813 980.3125,166 980.4063,166.4063 C980.4688,166.8125 980.5,166.9375 980.6406,167.0625 C980.7813,167.2031 981.0156,167.3125 981.2344,167.3125 C981.5,167.3125 981.7656,167.1719 981.9375,166.9531 C982.0469,166.7969 982.0781,166.6094 982.0781,166.1875 L982.0781,164.7656 C982.0781,164.3281 982.0625,164.2031 981.9688,164.0469 C981.8125,163.7813 981.5313,163.6406 981.2344,163.6406 C980.9375,163.6406 980.7344,163.7344 980.5156,164.0469 L980.3438,163.9688 Z " fill="#000000"/><text fill="#000000" font-family="sans-serif" font-size="14" lengthAdjust="spacing" textLength="60" x="992" y="173.1436">docente</text><line style="stroke:#181818;stroke-width:0.5;" x1="964" x2="1054" y1="184.2969" y2="184.2969"/><line style="stroke:#181818;stroke-width:0.5;" x1="964" x2="1054" y1="192.2969" y2="192.2969"/></g><!--class notificacion--><g id="elem_notificacion"><rect fill="#F1F1F1" height="48" id="notificacion" rx="2.5" ry="2.5" style="stroke:#181818;stroke-width:0.5;" width="117" x="761.5" y="152.2969"/><ellipse cx="776.5" cy="168.2969" fill="#ADD1B2" rx="11" ry="11" style="stroke:#181818;stroke-width:1.0;"/><path d="M778.8438,163.9688 C777.9063,163.5313 777.3125,163.3906 776.4375,163.3906 C773.8125,163.3906 771.8125,165.4688 771.8125,168.1875 L771.8125,169.3125 C771.8125,171.8906 773.9219,173.7813 776.8125,173.7813 C778.0313,173.7813 779.1875,173.4844 779.9375,172.9375 C780.5156,172.5313 780.8438,172.0781 780.8438,171.6875 C780.8438,171.2344 780.4531,170.8438 779.9844,170.8438 C779.7656,170.8438 779.5625,170.9219 779.375,171.1094 C778.9219,171.5938 778.9219,171.5938 778.7344,171.6875 C778.3125,171.9531 777.625,172.0781 776.8594,172.0781 C774.8125,172.0781 773.5156,170.9844 773.5156,169.2813 L773.5156,168.1875 C773.5156,166.4063 774.7656,165.0938 776.5,165.0938 C777.0781,165.0938 777.6875,165.25 778.1563,165.5 C778.6406,165.7813 778.8125,166 778.9063,166.4063 C778.9688,166.8125 779,166.9375 779.1406,167.0625 C779.2813,167.2031 779.5156,167.3125 779.7344,167.3125 C780,167.3125 780.2656,167.1719 780.4375,166.9531 C780.5469,166.7969 780.5781,166.6094 780.5781,166.1875 L780.5781,164.7656 C780.5781,164.3281 780.5625,164.2031 780.4688,164.0469 C780.3125,163.7813 780.0313,163.6406 779.7344,163.6406 C779.4375,163.6406 779.2344,163.7344 779.0156,164.0469 L778.8438,163.9688 Z " fill="#000000"/><text fill="#000000" font-family="sans-serif" font-size="14" lengthAdjust="spacing" textLength="85" x="790.5" y="173.1436">notificacion</text><line style="stroke:#181818;stroke-width:0.5;" x1="762.5" x2="877.5" y1="184.2969" y2="184.2969"/><line style="stroke:#181818;stroke-width:0.5;" x1="762.5" x2="877.5" y1="192.2969" y2="192.2969"/></g><!--class rol--><g id="elem_rol"><rect fill="#F1F1F1" height="48" id="rol" rx="2.5" ry="2.5" style="stroke:#181818;stroke-width:0.5;" width="51" x="675.5" y="152.2969"/><ellipse cx="690.5" cy="168.2969" fill="#ADD1B2" rx="11" ry="11" style="stroke:#181818;stroke-width:1.0;"/><path d="M692.8438,163.9688 C691.9063,163.5313 691.3125,163.3906 690.4375,163.3906 C687.8125,163.3906 685.8125,165.4688 685.8125,168.1875 L685.8125,169.3125 C685.8125,171.8906 687.9219,173.7813 690.8125,173.7813 C692.0313,173.7813 693.1875,173.4844 693.9375,172.9375 C694.5156,172.5313 694.8438,172.0781 694.8438,171.6875 C694.8438,171.2344 694.4531,170.8438 693.9844,170.8438 C693.7656,170.8438 693.5625,170.9219 693.375,171.1094 C692.9219,171.5938 692.9219,171.5938 692.7344,171.6875 C692.3125,171.9531 691.625,172.0781 690.8594,172.0781 C688.8125,172.0781 687.5156,170.9844 687.5156,169.2813 L687.5156,168.1875 C687.5156,166.4063 688.7656,165.0938 690.5,165.0938 C691.0781,165.0938 691.6875,165.25 692.1563,165.5 C692.6406,165.7813 692.8125,166 692.9063,166.4063 C692.9688,166.8125 693,166.9375 693.1406,167.0625 C693.2813,167.2031 693.5156,167.3125 693.7344,167.3125 C694,167.3125 694.2656,167.1719 694.4375,166.9531 C694.5469,166.7969 694.5781,166.6094 694.5781,166.1875 L694.5781,164.7656 C694.5781,164.3281 694.5625,164.2031 694.4688,164.0469 C694.3125,163.7813 694.0313,163.6406 693.7344,163.6406 C693.4375,163.6406 693.2344,163.7344 693.0156,164.0469 L692.8438,163.9688 Z " fill="#000000"/><text fill="#000000" font-family="sans-serif" font-size="14" lengthAdjust="spacing" textLength="19" x="704.5" y="173.1436">rol</text><line style="stroke:#181818;stroke-width:0.5;" x1="676.5" x2="725.5" y1="184.2969" y2="184.2969"/><line style="stroke:#181818;stroke-width:0.5;" x1="676.5" x2="725.5" y1="192.2969" y2="192.2969"/></g><!--class asignacion--><g id="elem_asignacion"><rect fill="#F1F1F1" height="48" id="asignacion" rx="2.5" ry="2.5" style="stroke:#181818;stroke-width:0.5;" width="107" x="533.5" y="152.2969"/><ellipse cx="548.5" cy="168.2969" fill="#ADD1B2" rx="11" ry="11" style="stroke:#181818;stroke-width:1.0;"/><path d="M550.8438,163.9688 C549.9063,163.5313 549.3125,163.3906 548.4375,163.3906 C545.8125,163.3906 543.8125,165.4688 543.8125,168.1875 L543.8125,169.3125 C543.8125,171.8906 545.9219,173.7813 548.8125,173.7813 C550.0313,173.7813 551.1875,173.4844 551.9375,172.9375 C552.5156,172.5313 552.8438,172.0781 552.8438,171.6875 C552.8438,171.2344 552.4531,170.8438 551.9844,170.8438 C551.7656,170.8438 551.5625,170.9219 551.375,171.1094 C550.9219,171.5938 550.9219,171.5938 550.7344,171.6875 C550.3125,171.9531 549.625,172.0781 548.8594,172.0781 C546.8125,172.0781 545.5156,170.9844 545.5156,169.2813 L545.5156,168.1875 C545.5156,166.4063 546.7656,165.0938 548.5,165.0938 C549.0781,165.0938 549.6875,165.25 550.1563,165.5 C550.6406,165.7813 550.8125,166 550.9063,166.4063 C550.9688,166.8125 551,166.9375 551.1406,167.0625 C551.2813,167.2031 551.5156,167.3125 551.7344,167.3125 C552,167.3125 552.2656,167.1719 552.4375,166.9531 C552.5469,166.7969 552.5781,166.6094 552.5781,166.1875 L552.5781,164.7656 C552.5781,164.3281 552.5625,164.2031 552.4688,164.0469 C552.3125,163.7813 552.0313,163.6406 551.7344,163.6406 C551.4375,163.6406 551.2344,163.7344 551.0156,164.0469 L550.8438,163.9688 Z " fill="#000000"/><text fill="#000000" font-family="sans-serif" font-size="14" lengthAdjust="spacing" textLength="75" x="562.5" y="173.1436">asignacion</text><line style="stroke:#181818;stroke-width:0.5;" x1="534.5" x2="639.5" y1="184.2969" y2="184.2969"/><line style="stroke:#181818;stroke-width:0.5;" x1="534.5" x2="639.5" y1="192.2969" y2="192.2969"/></g><!--class bajas--><g id="elem_bajas"><rect fill="#F1F1F1" height="48" id="bajas" rx="2.5" ry="2.5" style="stroke:#181818;stroke-width:0.5;" width="69" x="353.5" y="152.2969"/><ellipse cx="368.5" cy="168.2969" fill="#ADD1B2" rx="11" ry="11" style="stroke:#181818;stroke-width:1.0;"/><path d="M370.8438,163.9688 C369.9063,163.5313 369.3125,163.3906 368.4375,163.3906 C365.8125,163.3906 363.8125,165.4688 363.8125,168.1875 L363.8125,169.3125 C363.8125,171.8906 365.9219,173.7813 368.8125,173.7813 C370.0313,173.7813 371.1875,173.4844 371.9375,172.9375 C372.5156,172.5313 372.8438,172.0781 372.8438,171.6875 C372.8438,171.2344 372.4531,170.8438 371.9844,170.8438 C371.7656,170.8438 371.5625,170.9219 371.375,171.1094 C370.9219,171.5938 370.9219,171.5938 370.7344,171.6875 C370.3125,171.9531 369.625,172.0781 368.8594,172.0781 C366.8125,172.0781 365.5156,170.9844 365.5156,169.2813 L365.5156,168.1875 C365.5156,166.4063 366.7656,165.0938 368.5,165.0938 C369.0781,165.0938 369.6875,165.25 370.1563,165.5 C370.6406,165.7813 370.8125,166 370.9063,166.4063 C370.9688,166.8125 371,166.9375 371.1406,167.0625 C371.2813,167.2031 371.5156,167.3125 371.7344,167.3125 C372,167.3125 372.2656,167.1719 372.4375,166.9531 C372.5469,166.7969 372.5781,166.6094 372.5781,166.1875 L372.5781,164.7656 C372.5781,164.3281 372.5625,164.2031 372.4688,164.0469 C372.3125,163.7813 372.0313,163.6406 371.7344,163.6406 C371.4375,163.6406 371.2344,163.7344 371.0156,164.0469 L370.8438,163.9688 Z " fill="#000000"/><text fill="#000000" font-family="sans-serif" font-size="14" lengthAdjust="spacing" textLength="37" x="382.5" y="173.1436">bajas</text><line style="stroke:#181818;stroke-width:0.5;" x1="354.5" x2="421.5" y1="184.2969" y2="184.2969"/><line style="stroke:#181818;stroke-width:0.5;" x1="354.5" x2="421.5" y1="192.2969" y2="192.2969"/></g><!--class configuracion--><g id="elem_configuracion"><rect fill="#F1F1F1" height="48" id="configuracion" rx="2.5" ry="2.5" style="stroke:#181818;stroke-width:0.5;" width="129" x="189.5" y="152.2969"/><ellipse cx="204.5" cy="168.2969" fill="#ADD1B2" rx="11" ry="11" style="stroke:#181818;stroke-width:1.0;"/><path d="M206.8438,163.9688 C205.9063,163.5313 205.3125,163.3906 204.4375,163.3906 C201.8125,163.3906 199.8125,165.4688 199.8125,168.1875 L199.8125,169.3125 C199.8125,171.8906 201.9219,173.7813 204.8125,173.7813 C206.0313,173.7813 207.1875,173.4844 207.9375,172.9375 C208.5156,172.5313 208.8438,172.0781 208.8438,171.6875 C208.8438,171.2344 208.4531,170.8438 207.9844,170.8438 C207.7656,170.8438 207.5625,170.9219 207.375,171.1094 C206.9219,171.5938 206.9219,171.5938 206.7344,171.6875 C206.3125,171.9531 205.625,172.0781 204.8594,172.0781 C202.8125,172.0781 201.5156,170.9844 201.5156,169.2813 L201.5156,168.1875 C201.5156,166.4063 202.7656,165.0938 204.5,165.0938 C205.0781,165.0938 205.6875,165.25 206.1563,165.5 C206.6406,165.7813 206.8125,166 206.9063,166.4063 C206.9688,166.8125 207,166.9375 207.1406,167.0625 C207.2813,167.2031 207.5156,167.3125 207.7344,167.3125 C208,167.3125 208.2656,167.1719 208.4375,166.9531 C208.5469,166.7969 208.5781,166.6094 208.5781,166.1875 L208.5781,164.7656 C208.5781,164.3281 208.5625,164.2031 208.4688,164.0469 C208.3125,163.7813 208.0313,163.6406 207.7344,163.6406 C207.4375,163.6406 207.2344,163.7344 207.0156,164.0469 L206.8438,163.9688 Z " fill="#000000"/><text fill="#000000" font-family="sans-serif" font-size="14" lengthAdjust="spacing" textLength="97" x="218.5" y="173.1436">configuracion</text><line style="stroke:#181818;stroke-width:0.5;" x1="190.5" x2="317.5" y1="184.2969" y2="184.2969"/><line style="stroke:#181818;stroke-width:0.5;" x1="190.5" x2="317.5" y1="192.2969" y2="192.2969"/></g><!--class ticket--><g id="elem_ticket"><rect codeLine="17" fill="#F1F1F1" height="48" id="ticket" rx="2.5" ry="2.5" style="stroke:#181818;stroke-width:0.5;" width="76" x="51" y="152.2969"/><ellipse cx="66" cy="168.2969" fill="#ADD1B2" rx="11" ry="11" style="stroke:#181818;stroke-width:1.0;"/><path d="M68.3438,163.9688 C67.4063,163.5313 66.8125,163.3906 65.9375,163.3906 C63.3125,163.3906 61.3125,165.4688 61.3125,168.1875 L61.3125,169.3125 C61.3125,171.8906 63.4219,173.7813 66.3125,173.7813 C67.5313,173.7813 68.6875,173.4844 69.4375,172.9375 C70.0156,172.5313 70.3438,172.0781 70.3438,171.6875 C70.3438,171.2344 69.9531,170.8438 69.4844,170.8438 C69.2656,170.8438 69.0625,170.9219 68.875,171.1094 C68.4219,171.5938 68.4219,171.5938 68.2344,171.6875 C67.8125,171.9531 67.125,172.0781 66.3594,172.0781 C64.3125,172.0781 63.0156,170.9844 63.0156,169.2813 L63.0156,168.1875 C63.0156,166.4063 64.2656,165.0938 66,165.0938 C66.5781,165.0938 67.1875,165.25 67.6563,165.5 C68.1406,165.7813 68.3125,166 68.4063,166.4063 C68.4688,166.8125 68.5,166.9375 68.6406,167.0625 C68.7813,167.2031 69.0156,167.3125 69.2344,167.3125 C69.5,167.3125 69.7656,167.1719 69.9375,166.9531 C70.0469,166.7969 70.0781,166.6094 70.0781,166.1875 L70.0781,164.7656 C70.0781,164.3281 70.0625,164.2031 69.9688,164.0469 C69.8125,163.7813 69.5313,163.6406 69.2344,163.6406 C68.9375,163.6406 68.7344,163.7344 68.5156,164.0469 L68.3438,163.9688 Z " fill="#000000"/><text fill="#000000" font-family="sans-serif" font-size="14" lengthAdjust="spacing" textLength="44" x="80" y="173.1436">ticket</text><line style="stroke:#181818;stroke-width:0.5;" x1="52" x2="126" y1="184.2969" y2="184.2969"/><line style="stroke:#181818;stroke-width:0.5;" x1="52" x2="126" y1="192.2969" y2="192.2969"/></g><!--class crear--><g id="elem_crear"><rect fill="#F1F1F1" height="48" id="crear" rx="2.5" ry="2.5" style="stroke:#181818;stroke-width:0.5;" width="69" x="758.5" y="260.2969"/><ellipse cx="773.5" cy="276.2969" fill="#ADD1B2" rx="11" ry="11" style="stroke:#181818;stroke-width:1.0;"/><path d="M775.8438,271.9688 C774.9063,271.5313 774.3125,271.3906 773.4375,271.3906 C770.8125,271.3906 768.8125,273.4688 768.8125,276.1875 L768.8125,277.3125 C768.8125,279.8906 770.9219,281.7813 773.8125,281.7813 C775.0313,281.7813 776.1875,281.4844 776.9375,280.9375 C777.5156,280.5313 777.8438,280.0781 777.8438,279.6875 C777.8438,279.2344 777.4531,278.8438 776.9844,278.8438 C776.7656,278.8438 776.5625,278.9219 776.375,279.1094 C775.9219,279.5938 775.9219,279.5938 775.7344,279.6875 C775.3125,279.9531 774.625,280.0781 773.8594,280.0781 C771.8125,280.0781 770.5156,278.9844 770.5156,277.2813 L770.5156,276.1875 C770.5156,274.4063 771.7656,273.0938 773.5,273.0938 C774.0781,273.0938 774.6875,273.25 775.1563,273.5 C775.6406,273.7813 775.8125,274 775.9063,274.4063 C775.9688,274.8125 776,274.9375 776.1406,275.0625 C776.2813,275.2031 776.5156,275.3125 776.7344,275.3125 C777,275.3125 777.2656,275.1719 777.4375,274.9531 C777.5469,274.7969 777.5781,274.6094 777.5781,274.1875 L777.5781,272.7656 C777.5781,272.3281 777.5625,272.2031 777.4688,272.0469 C777.3125,271.7813 777.0313,271.6406 776.7344,271.6406 C776.4375,271.6406 776.2344,271.7344 776.0156,272.0469 L775.8438,271.9688 Z " fill="#000000"/><text fill="#000000" font-family="sans-serif" font-size="14" lengthAdjust="spacing" textLength="37" x="787.5" y="281.1436">crear</text><line style="stroke:#181818;stroke-width:0.5;" x1="759.5" x2="826.5" y1="292.2969" y2="292.2969"/><line style="stroke:#181818;stroke-width:0.5;" x1="759.5" x2="826.5" y1="300.2969" y2="300.2969"/></g><!--class editar--><g id="elem_editar"><rect fill="#F1F1F1" height="48" id="editar" rx="2.5" ry="2.5" style="stroke:#181818;stroke-width:0.5;" width="75" x="862.5" y="260.2969"/><ellipse cx="877.5" cy="276.2969" fill="#ADD1B2" rx="11" ry="11" style="stroke:#181818;stroke-width:1.0;"/><path d="M879.8438,271.9688 C878.9063,271.5313 878.3125,271.3906 877.4375,271.3906 C874.8125,271.3906 872.8125,273.4688 872.8125,276.1875 L872.8125,277.3125 C872.8125,279.8906 874.9219,281.7813 877.8125,281.7813 C879.0313,281.7813 880.1875,281.4844 880.9375,280.9375 C881.5156,280.5313 881.8438,280.0781 881.8438,279.6875 C881.8438,279.2344 881.4531,278.8438 880.9844,278.8438 C880.7656,278.8438 880.5625,278.9219 880.375,279.1094 C879.9219,279.5938 879.9219,279.5938 879.7344,279.6875 C879.3125,279.9531 878.625,280.0781 877.8594,280.0781 C875.8125,280.0781 874.5156,278.9844 874.5156,277.2813 L874.5156,276.1875 C874.5156,274.4063 875.7656,273.0938 877.5,273.0938 C878.0781,273.0938 878.6875,273.25 879.1563,273.5 C879.6406,273.7813 879.8125,274 879.9063,274.4063 C879.9688,274.8125 880,274.9375 880.1406,275.0625 C880.2813,275.2031 880.5156,275.3125 880.7344,275.3125 C881,275.3125 881.2656,275.1719 881.4375,274.9531 C881.5469,274.7969 881.5781,274.6094 881.5781,274.1875 L881.5781,272.7656 C881.5781,272.3281 881.5625,272.2031 881.4688,272.0469 C881.3125,271.7813 881.0313,271.6406 880.7344,271.6406 C880.4375,271.6406 880.2344,271.7344 880.0156,272.0469 L879.8438,271.9688 Z " fill="#000000"/><text fill="#000000" font-family="sans-serif" font-size="14" lengthAdjust="spacing" textLength="43" x="891.5" y="281.1436">editar</text><line style="stroke:#181818;stroke-width:0.5;" x1="863.5" x2="936.5" y1="292.2969" y2="292.2969"/><line style="stroke:#181818;stroke-width:0.5;" x1="863.5" x2="936.5" y1="300.2969" y2="300.2969"/></g><!--class filtrar--><g id="elem_filtrar"><rect fill="#F1F1F1" height="48" id="filtrar" rx="2.5" ry="2.5" style="stroke:#181818;stroke-width:0.5;" width="73" x="972.5" y="260.2969"/><ellipse cx="987.5" cy="276.2969" fill="#ADD1B2" rx="11" ry="11" style="stroke:#181818;stroke-width:1.0;"/><path d="M989.8438,271.9688 C988.9063,271.5313 988.3125,271.3906 987.4375,271.3906 C984.8125,271.3906 982.8125,273.4688 982.8125,276.1875 L982.8125,277.3125 C982.8125,279.8906 984.9219,281.7813 987.8125,281.7813 C989.0313,281.7813 990.1875,281.4844 990.9375,280.9375 C991.5156,280.5313 991.8438,280.0781 991.8438,279.6875 C991.8438,279.2344 991.4531,278.8438 990.9844,278.8438 C990.7656,278.8438 990.5625,278.9219 990.375,279.1094 C989.9219,279.5938 989.9219,279.5938 989.7344,279.6875 C989.3125,279.9531 988.625,280.0781 987.8594,280.0781 C985.8125,280.0781 984.5156,278.9844 984.5156,277.2813 L984.5156,276.1875 C984.5156,274.4063 985.7656,273.0938 987.5,273.0938 C988.0781,273.0938 988.6875,273.25 989.1563,273.5 C989.6406,273.7813 989.8125,274 989.9063,274.4063 C989.9688,274.8125 990,274.9375 990.1406,275.0625 C990.2813,275.2031 990.5156,275.3125 990.7344,275.3125 C991,275.3125 991.2656,275.1719 991.4375,274.9531 C991.5469,274.7969 991.5781,274.6094 991.5781,274.1875 L991.5781,272.7656 C991.5781,272.3281 991.5625,272.2031 991.4688,272.0469 C991.3125,271.7813 991.0313,271.6406 990.7344,271.6406 C990.4375,271.6406 990.2344,271.7344 990.0156,272.0469 L989.8438,271.9688 Z " fill="#000000"/><text fill="#000000" font-family="sans-serif" font-size="14" lengthAdjust="spacing" textLength="41" x="1001.5" y="281.1436">filtrar</text><line style="stroke:#181818;stroke-width:0.5;" x1="973.5" x2="1044.5" y1="292.2969" y2="292.2969"/><line style="stroke:#181818;stroke-width:0.5;" x1="973.5" x2="1044.5" y1="300.2969" y2="300.2969"/></g><!--class buscar--><g id="elem_buscar"><rect fill="#F1F1F1" height="48" id="buscar" rx="2.5" ry="2.5" style="stroke:#181818;stroke-width:0.5;" width="79" x="1080.5" y="260.2969"/><ellipse cx="1095.5" cy="276.2969" fill="#ADD1B2" rx="11" ry="11" style="stroke:#181818;stroke-width:1.0;"/><path d="M1097.8438,271.9688 C1096.9063,271.5313 1096.3125,271.3906 1095.4375,271.3906 C1092.8125,271.3906 1090.8125,273.4688 1090.8125,276.1875 L1090.8125,277.3125 C1090.8125,279.8906 1092.9219,281.7813 1095.8125,281.7813 C1097.0313,281.7813 1098.1875,281.4844 1098.9375,280.9375 C1099.5156,280.5313 1099.8438,280.0781 1099.8438,279.6875 C1099.8438,279.2344 1099.4531,278.8438 1098.9844,278.8438 C1098.7656,278.8438 1098.5625,278.9219 1098.375,279.1094 C1097.9219,279.5938 1097.9219,279.5938 1097.7344,279.6875 C1097.3125,279.9531 1096.625,280.0781 1095.8594,280.0781 C1093.8125,280.0781 1092.5156,278.9844 1092.5156,277.2813 L1092.5156,276.1875 C1092.5156,274.4063 1093.7656,273.0938 1095.5,273.0938 C1096.0781,273.0938 1096.6875,273.25 1097.1563,273.5 C1097.6406,273.7813 1097.8125,274 1097.9063,274.4063 C1097.9688,274.8125 1098,274.9375 1098.1406,275.0625 C1098.2813,275.2031 1098.5156,275.3125 1098.7344,275.3125 C1099,275.3125 1099.2656,275.1719 1099.4375,274.9531 C1099.5469,274.7969 1099.5781,274.6094 1099.5781,274.1875 L1099.5781,272.7656 C1099.5781,272.3281 1099.5625,272.2031 1099.4688,272.0469 C1099.3125,271.7813 1099.0313,271.6406 1098.7344,271.6406 C1098.4375,271.6406 1098.2344,271.7344 1098.0156,272.0469 L1097.8438,271.9688 Z " fill="#000000"/><text fill="#000000" font-family="sans-serif" font-size="14" lengthAdjust="spacing" textLength="47" x="1109.5" y="281.1436">buscar</text><line style="stroke:#181818;stroke-width:0.5;" x1="1081.5" x2="1158.5" y1="292.2969" y2="292.2969"/><line style="stroke:#181818;stroke-width:0.5;" x1="1081.5" x2="1158.5" y1="300.2969" y2="300.2969"/></g><!--class exportar--><g id="elem_exportar"><rect fill="#F1F1F1" height="48" id="exportar" rx="2.5" ry="2.5" style="stroke:#181818;stroke-width:0.5;" width="95" x="1194.5" y="260.2969"/><ellipse cx="1209.5" cy="276.2969" fill="#ADD1B2" rx="11" ry="11" style="stroke:#181818;stroke-width:1.0;"/><path d="M1211.8438,271.9688 C1210.9063,271.5313 1210.3125,271.3906 1209.4375,271.3906 C1206.8125,271.3906 1204.8125,273.4688 1204.8125,276.1875 L1204.8125,277.3125 C1204.8125,279.8906 1206.9219,281.7813 1209.8125,281.7813 C1211.0313,281.7813 1212.1875,281.4844 1212.9375,280.9375 C1213.5156,280.5313 1213.8438,280.0781 1213.8438,279.6875 C1213.8438,279.2344 1213.4531,278.8438 1212.9844,278.8438 C1212.7656,278.8438 1212.5625,278.9219 1212.375,279.1094 C1211.9219,279.5938 1211.9219,279.5938 1211.7344,279.6875 C1211.3125,279.9531 1210.625,280.0781 1209.8594,280.0781 C1207.8125,280.0781 1206.5156,278.9844 1206.5156,277.2813 L1206.5156,276.1875 C1206.5156,274.4063 1207.7656,273.0938 1209.5,273.0938 C1210.0781,273.0938 1210.6875,273.25 1211.1563,273.5 C1211.6406,273.7813 1211.8125,274 1211.9063,274.4063 C1211.9688,274.8125 1212,274.9375 1212.1406,275.0625 C1212.2813,275.2031 1212.5156,275.3125 1212.7344,275.3125 C1213,275.3125 1213.2656,275.1719 1213.4375,274.9531 C1213.5469,274.7969 1213.5781,274.6094 1213.5781,274.1875 L1213.5781,272.7656 C1213.5781,272.3281 1213.5625,272.2031 1213.4688,272.0469 C1213.3125,271.7813 1213.0313,271.6406 1212.7344,271.6406 C1212.4375,271.6406 1212.2344,271.7344 1212.0156,272.0469 L1211.8438,271.9688 Z " fill="#000000"/><text fill="#000000" font-family="sans-serif" font-size="14" lengthAdjust="spacing" textLength="63" x="1223.5" y="281.1436">exportar</text><line style="stroke:#181818;stroke-width:0.5;" x1="1195.5" x2="1288.5" y1="292.2969" y2="292.2969"/><line style="stroke:#181818;stroke-width:0.5;" x1="1195.5" x2="1288.5" y1="300.2969" y2="300.2969"/></g><!--class perfil--><g id="elem_perfil"><rect fill="#F1F1F1" height="48" id="perfil" rx="2.5" ry="2.5" style="stroke:#181818;stroke-width:0.5;" width="71" x="1324.5" y="260.2969"/><ellipse cx="1339.5" cy="276.2969" fill="#ADD1B2" rx="11" ry="11" style="stroke:#181818;stroke-width:1.0;"/><path d="M1341.8438,271.9688 C1340.9063,271.5313 1340.3125,271.3906 1339.4375,271.3906 C1336.8125,271.3906 1334.8125,273.4688 1334.8125,276.1875 L1334.8125,277.3125 C1334.8125,279.8906 1336.9219,281.7813 1339.8125,281.7813 C1341.0313,281.7813 1342.1875,281.4844 1342.9375,280.9375 C1343.5156,280.5313 1343.8438,280.0781 1343.8438,279.6875 C1343.8438,279.2344 1343.4531,278.8438 1342.9844,278.8438 C1342.7656,278.8438 1342.5625,278.9219 1342.375,279.1094 C1341.9219,279.5938 1341.9219,279.5938 1341.7344,279.6875 C1341.3125,279.9531 1340.625,280.0781 1339.8594,280.0781 C1337.8125,280.0781 1336.5156,278.9844 1336.5156,277.2813 L1336.5156,276.1875 C1336.5156,274.4063 1337.7656,273.0938 1339.5,273.0938 C1340.0781,273.0938 1340.6875,273.25 1341.1563,273.5 C1341.6406,273.7813 1341.8125,274 1341.9063,274.4063 C1341.9688,274.8125 1342,274.9375 1342.1406,275.0625 C1342.2813,275.2031 1342.5156,275.3125 1342.7344,275.3125 C1343,275.3125 1343.2656,275.1719 1343.4375,274.9531 C1343.5469,274.7969 1343.5781,274.6094 1343.5781,274.1875 L1343.5781,272.7656 C1343.5781,272.3281 1343.5625,272.2031 1343.4688,272.0469 C1343.3125,271.7813 1343.0313,271.6406 1342.7344,271.6406 C1342.4375,271.6406 1342.2344,271.7344 1342.0156,272.0469 L1341.8438,271.9688 Z " fill="#000000"/><text fill="#000000" font-family="sans-serif" font-size="14" lengthAdjust="spacing" textLength="39" x="1353.5" y="281.1436">perfil</text><line style="stroke:#181818;stroke-width:0.5;" x1="1325.5" x2="1394.5" y1="292.2969" y2="292.2969"/><line style="stroke:#181818;stroke-width:0.5;" x1="1325.5" x2="1394.5" y1="300.2969" y2="300.2969"/></g><!--class seguimiento--><g id="elem_seguimiento"><rect fill="#F1F1F1" height="48" id="seguimiento" rx="2.5" ry="2.5" style="stroke:#181818;stroke-width:0.5;" width="121" x="1430.5" y="260.2969"/><ellipse cx="1445.5" cy="276.2969" fill="#ADD1B2" rx="11" ry="11" style="stroke:#181818;stroke-width:1.0;"/><path d="M1447.8438,271.9688 C1446.9063,271.5313 1446.3125,271.3906 1445.4375,271.3906 C1442.8125,271.3906 1440.8125,273.4688 1440.8125,276.1875 L1440.8125,277.3125 C1440.8125,279.8906 1442.9219,281.7813 1445.8125,281.7813 C1447.0313,281.7813 1448.1875,281.4844 1448.9375,280.9375 C1449.5156,280.5313 1449.8438,280.0781 1449.8438,279.6875 C1449.8438,279.2344 1449.4531,278.8438 1448.9844,278.8438 C1448.7656,278.8438 1448.5625,278.9219 1448.375,279.1094 C1447.9219,279.5938 1447.9219,279.5938 1447.7344,279.6875 C1447.3125,279.9531 1446.625,280.0781 1445.8594,280.0781 C1443.8125,280.0781 1442.5156,278.9844 1442.5156,277.2813 L1442.5156,276.1875 C1442.5156,274.4063 1443.7656,273.0938 1445.5,273.0938 C1446.0781,273.0938 1446.6875,273.25 1447.1563,273.5 C1447.6406,273.7813 1447.8125,274 1447.9063,274.4063 C1447.9688,274.8125 1448,274.9375 1448.1406,275.0625 C1448.2813,275.2031 1448.5156,275.3125 1448.7344,275.3125 C1449,275.3125 1449.2656,275.1719 1449.4375,274.9531 C1449.5469,274.7969 1449.5781,274.6094 1449.5781,274.1875 L1449.5781,272.7656 C1449.5781,272.3281 1449.5625,272.2031 1449.4688,272.0469 C1449.3125,271.7813 1449.0313,271.6406 1448.7344,271.6406 C1448.4375,271.6406 1448.2344,271.7344 1448.0156,272.0469 L1447.8438,271.9688 Z " fill="#000000"/><text fill="#000000" font-family="sans-serif" font-size="14" lengthAdjust="spacing" textLength="89" x="1459.5" y="281.1436">seguimiento</text><line style="stroke:#181818;stroke-width:0.5;" x1="1431.5" x2="1550.5" y1="292.2969" y2="292.2969"/><line style="stroke:#181818;stroke-width:0.5;" x1="1431.5" x2="1550.5" y1="300.2969" y2="300.2969"/></g><!--class asignar--><g id="elem_asignar"><rect fill="#F1F1F1" height="48" id="asignar" rx="2.5" ry="2.5" style="stroke:#181818;stroke-width:0.5;" width="83" x="496.5" y="260.2969"/><ellipse cx="511.5" cy="276.2969" fill="#ADD1B2" rx="11" ry="11" style="stroke:#181818;stroke-width:1.0;"/><path d="M513.8438,271.9688 C512.9063,271.5313 512.3125,271.3906 511.4375,271.3906 C508.8125,271.3906 506.8125,273.4688 506.8125,276.1875 L506.8125,277.3125 C506.8125,279.8906 508.9219,281.7813 511.8125,281.7813 C513.0313,281.7813 514.1875,281.4844 514.9375,280.9375 C515.5156,280.5313 515.8438,280.0781 515.8438,279.6875 C515.8438,279.2344 515.4531,278.8438 514.9844,278.8438 C514.7656,278.8438 514.5625,278.9219 514.375,279.1094 C513.9219,279.5938 513.9219,279.5938 513.7344,279.6875 C513.3125,279.9531 512.625,280.0781 511.8594,280.0781 C509.8125,280.0781 508.5156,278.9844 508.5156,277.2813 L508.5156,276.1875 C508.5156,274.4063 509.7656,273.0938 511.5,273.0938 C512.0781,273.0938 512.6875,273.25 513.1563,273.5 C513.6406,273.7813 513.8125,274 513.9063,274.4063 C513.9688,274.8125 514,274.9375 514.1406,275.0625 C514.2813,275.2031 514.5156,275.3125 514.7344,275.3125 C515,275.3125 515.2656,275.1719 515.4375,274.9531 C515.5469,274.7969 515.5781,274.6094 515.5781,274.1875 L515.5781,272.7656 C515.5781,272.3281 515.5625,272.2031 515.4688,272.0469 C515.3125,271.7813 515.0313,271.6406 514.7344,271.6406 C514.4375,271.6406 514.2344,271.7344 514.0156,272.0469 L513.8438,271.9688 Z " fill="#000000"/><text fill="#000000" font-family="sans-serif" font-size="14" lengthAdjust="spacing" textLength="51" x="525.5" y="281.1436">asignar</text><line style="stroke:#181818;stroke-width:0.5;" x1="497.5" x2="578.5" y1="292.2969" y2="292.2969"/><line style="stroke:#181818;stroke-width:0.5;" x1="497.5" x2="578.5" y1="300.2969" y2="300.2969"/></g><!--class desasignar--><g id="elem_desasignar"><rect fill="#F1F1F1" height="48" id="desasignar" rx="2.5" ry="2.5" style="stroke:#181818;stroke-width:0.5;" width="108" x="615" y="260.2969"/><ellipse cx="630" cy="276.2969" fill="#ADD1B2" rx="11" ry="11" style="stroke:#181818;stroke-width:1.0;"/><path d="M632.3438,271.9688 C631.4063,271.5313 630.8125,271.3906 629.9375,271.3906 C627.3125,271.3906 625.3125,273.4688 625.3125,276.1875 L625.3125,277.3125 C625.3125,279.8906 627.4219,281.7813 630.3125,281.7813 C631.5313,281.7813 632.6875,281.4844 633.4375,280.9375 C634.0156,280.5313 634.3438,280.0781 634.3438,279.6875 C634.3438,279.2344 633.9531,278.8438 633.4844,278.8438 C633.2656,278.8438 633.0625,278.9219 632.875,279.1094 C632.4219,279.5938 632.4219,279.5938 632.2344,279.6875 C631.8125,279.9531 631.125,280.0781 630.3594,280.0781 C628.3125,280.0781 627.0156,278.9844 627.0156,277.2813 L627.0156,276.1875 C627.0156,274.4063 628.2656,273.0938 630,273.0938 C630.5781,273.0938 631.1875,273.25 631.6563,273.5 C632.1406,273.7813 632.3125,274 632.4063,274.4063 C632.4688,274.8125 632.5,274.9375 632.6406,275.0625 C632.7813,275.2031 633.0156,275.3125 633.2344,275.3125 C633.5,275.3125 633.7656,275.1719 633.9375,274.9531 C634.0469,274.7969 634.0781,274.6094 634.0781,274.1875 L634.0781,272.7656 C634.0781,272.3281 634.0625,272.2031 633.9688,272.0469 C633.8125,271.7813 633.5313,271.6406 633.2344,271.6406 C632.9375,271.6406 632.7344,271.7344 632.5156,272.0469 L632.3438,271.9688 Z " fill="#000000"/><text fill="#000000" font-family="sans-serif" font-size="14" lengthAdjust="spacing" textLength="76" x="644" y="281.1436">desasignar</text><line style="stroke:#181818;stroke-width:0.5;" x1="616" x2="722" y1="292.2969" y2="292.2969"/><line style="stroke:#181818;stroke-width:0.5;" x1="616" x2="722" y1="300.2969" y2="300.2969"/></g><!--class temporal--><g id="elem_temporal"><rect fill="#F1F1F1" height="48" id="temporal" rx="2.5" ry="2.5" style="stroke:#181818;stroke-width:0.5;" width="99" x="23.5" y="260.2969"/><ellipse cx="38.5" cy="276.2969" fill="#ADD1B2" rx="11" ry="11" style="stroke:#181818;stroke-width:1.0;"/><path d="M40.8438,271.9688 C39.9063,271.5313 39.3125,271.3906 38.4375,271.3906 C35.8125,271.3906 33.8125,273.4688 33.8125,276.1875 L33.8125,277.3125 C33.8125,279.8906 35.9219,281.7813 38.8125,281.7813 C40.0313,281.7813 41.1875,281.4844 41.9375,280.9375 C42.5156,280.5313 42.8438,280.0781 42.8438,279.6875 C42.8438,279.2344 42.4531,278.8438 41.9844,278.8438 C41.7656,278.8438 41.5625,278.9219 41.375,279.1094 C40.9219,279.5938 40.9219,279.5938 40.7344,279.6875 C40.3125,279.9531 39.625,280.0781 38.8594,280.0781 C36.8125,280.0781 35.5156,278.9844 35.5156,277.2813 L35.5156,276.1875 C35.5156,274.4063 36.7656,273.0938 38.5,273.0938 C39.0781,273.0938 39.6875,273.25 40.1563,273.5 C40.6406,273.7813 40.8125,274 40.9063,274.4063 C40.9688,274.8125 41,274.9375 41.1406,275.0625 C41.2813,275.2031 41.5156,275.3125 41.7344,275.3125 C42,275.3125 42.2656,275.1719 42.4375,274.9531 C42.5469,274.7969 42.5781,274.6094 42.5781,274.1875 L42.5781,272.7656 C42.5781,272.3281 42.5625,272.2031 42.4688,272.0469 C42.3125,271.7813 42.0313,271.6406 41.7344,271.6406 C41.4375,271.6406 41.2344,271.7344 41.0156,272.0469 L40.8438,271.9688 Z " fill="#000000"/><text fill="#000000" font-family="sans-serif" font-size="14" lengthAdjust="spacing" textLength="67" x="52.5" y="281.1436">temporal</text><line style="stroke:#181818;stroke-width:0.5;" x1="24.5" x2="121.5" y1="292.2969" y2="292.2969"/><line style="stroke:#181818;stroke-width:0.5;" x1="24.5" x2="121.5" y1="300.2969" y2="300.2969"/></g><!--class permanente--><g id="elem_permanente"><rect fill="#F1F1F1" height="48" id="permanente" rx="2.5" ry="2.5" style="stroke:#181818;stroke-width:0.5;" width="122" x="158" y="260.2969"/><ellipse cx="173" cy="276.2969" fill="#ADD1B2" rx="11" ry="11" style="stroke:#181818;stroke-width:1.0;"/><path d="M175.3438,271.9688 C174.4063,271.5313 173.8125,271.3906 172.9375,271.3906 C170.3125,271.3906 168.3125,273.4688 168.3125,276.1875 L168.3125,277.3125 C168.3125,279.8906 170.4219,281.7813 173.3125,281.7813 C174.5313,281.7813 175.6875,281.4844 176.4375,280.9375 C177.0156,280.5313 177.3438,280.0781 177.3438,279.6875 C177.3438,279.2344 176.9531,278.8438 176.4844,278.8438 C176.2656,278.8438 176.0625,278.9219 175.875,279.1094 C175.4219,279.5938 175.4219,279.5938 175.2344,279.6875 C174.8125,279.9531 174.125,280.0781 173.3594,280.0781 C171.3125,280.0781 170.0156,278.9844 170.0156,277.2813 L170.0156,276.1875 C170.0156,274.4063 171.2656,273.0938 173,273.0938 C173.5781,273.0938 174.1875,273.25 174.6563,273.5 C175.1406,273.7813 175.3125,274 175.4063,274.4063 C175.4688,274.8125 175.5,274.9375 175.6406,275.0625 C175.7813,275.2031 176.0156,275.3125 176.2344,275.3125 C176.5,275.3125 176.7656,275.1719 176.9375,274.9531 C177.0469,274.7969 177.0781,274.6094 177.0781,274.1875 L177.0781,272.7656 C177.0781,272.3281 177.0625,272.2031 176.9688,272.0469 C176.8125,271.7813 176.5313,271.6406 176.2344,271.6406 C175.9375,271.6406 175.7344,271.7344 175.5156,272.0469 L175.3438,271.9688 Z " fill="#000000"/><text fill="#000000" font-family="sans-serif" font-size="14" lengthAdjust="spacing" textLength="90" x="187" y="281.1436">permanente</text><line style="stroke:#181818;stroke-width:0.5;" x1="159" x2="279" y1="292.2969" y2="292.2969"/><line style="stroke:#181818;stroke-width:0.5;" x1="159" x2="279" y1="300.2969" y2="300.2969"/></g><!--class reincorporacion--><g id="elem_reincorporacion"><rect fill="#F1F1F1" height="48" id="reincorporacion" rx="2.5" ry="2.5" style="stroke:#181818;stroke-width:0.5;" width="146" x="315" y="260.2969"/><ellipse cx="330" cy="276.2969" fill="#ADD1B2" rx="11" ry="11" style="stroke:#181818;stroke-width:1.0;"/><path d="M332.3438,271.9688 C331.4063,271.5313 330.8125,271.3906 329.9375,271.3906 C327.3125,271.3906 325.3125,273.4688 325.3125,276.1875 L325.3125,277.3125 C325.3125,279.8906 327.4219,281.7813 330.3125,281.7813 C331.5313,281.7813 332.6875,281.4844 333.4375,280.9375 C334.0156,280.5313 334.3438,280.0781 334.3438,279.6875 C334.3438,279.2344 333.9531,278.8438 333.4844,278.8438 C333.2656,278.8438 333.0625,278.9219 332.875,279.1094 C332.4219,279.5938 332.4219,279.5938 332.2344,279.6875 C331.8125,279.9531 331.125,280.0781 330.3594,280.0781 C328.3125,280.0781 327.0156,278.9844 327.0156,277.2813 L327.0156,276.1875 C327.0156,274.4063 328.2656,273.0938 330,273.0938 C330.5781,273.0938 331.1875,273.25 331.6563,273.5 C332.1406,273.7813 332.3125,274 332.4063,274.4063 C332.4688,274.8125 332.5,274.9375 332.6406,275.0625 C332.7813,275.2031 333.0156,275.3125 333.2344,275.3125 C333.5,275.3125 333.7656,275.1719 333.9375,274.9531 C334.0469,274.7969 334.0781,274.6094 334.0781,274.1875 L334.0781,272.7656 C334.0781,272.3281 334.0625,272.2031 333.9688,272.0469 C333.8125,271.7813 333.5313,271.6406 333.2344,271.6406 C332.9375,271.6406 332.7344,271.7344 332.5156,272.0469 L332.3438,271.9688 Z " fill="#000000"/><text fill="#000000" font-family="sans-serif" font-size="14" lengthAdjust="spacing" textLength="114" x="344" y="281.1436">reincorporacion</text><line style="stroke:#181818;stroke-width:0.5;" x1="316" x2="460" y1="292.2969" y2="292.2969"/><line style="stroke:#181818;stroke-width:0.5;" x1="316" x2="460" y1="300.2969" y2="300.2969"/></g><!--class admin--><g id="elem_admin"><rect codeLine="4" fill="#F1F1F1" height="48" id="admin" rx="2.5" ry="2.5" style="stroke:#181818;stroke-width:0.5;" width="76" x="663" y="44.2969"/><ellipse cx="678" cy="60.2969" fill="#ADD1B2" rx="11" ry="11" style="stroke:#181818;stroke-width:1.0;"/><path d="M680.3438,55.9688 C679.4063,55.5313 678.8125,55.3906 677.9375,55.3906 C675.3125,55.3906 673.3125,57.4688 673.3125,60.1875 L673.3125,61.3125 C673.3125,63.8906 675.4219,65.7813 678.3125,65.7813 C679.5313,65.7813 680.6875,65.4844 681.4375,64.9375 C682.0156,64.5313 682.3438,64.0781 682.3438,63.6875 C682.3438,63.2344 681.9531,62.8438 681.4844,62.8438 C681.2656,62.8438 681.0625,62.9219 680.875,63.1094 C680.4219,63.5938 680.4219,63.5938 680.2344,63.6875 C679.8125,63.9531 679.125,64.0781 678.3594,64.0781 C676.3125,64.0781 675.0156,62.9844 675.0156,61.2813 L675.0156,60.1875 C675.0156,58.4063 676.2656,57.0938 678,57.0938 C678.5781,57.0938 679.1875,57.25 679.6563,57.5 C680.1406,57.7813 680.3125,58 680.4063,58.4063 C680.4688,58.8125 680.5,58.9375 680.6406,59.0625 C680.7813,59.2031 681.0156,59.3125 681.2344,59.3125 C681.5,59.3125 681.7656,59.1719 681.9375,58.9531 C682.0469,58.7969 682.0781,58.6094 682.0781,58.1875 L682.0781,56.7656 C682.0781,56.3281 682.0625,56.2031 681.9688,56.0469 C681.8125,55.7813 681.5313,55.6406 681.2344,55.6406 C680.9375,55.6406 680.7344,55.7344 680.5156,56.0469 L680.3438,55.9688 Z " fill="#000000"/><text fill="#000000" font-family="sans-serif" font-size="14" lengthAdjust="spacing" textLength="44" x="692" y="65.1436">admin</text><line style="stroke:#181818;stroke-width:0.5;" x1="664" x2="738" y1="76.2969" y2="76.2969"/><line style="stroke:#181818;stroke-width:0.5;" x1="664" x2="738" y1="84.2969" y2="84.2969"/></g><!--class ticket--><g id="elem_ticket"><rect codeLine="5" fill="#F1F1F1" height="48" id="ticket" rx="2.5" ry="2.5" style="stroke:#181818;stroke-width:0.5;" width="76" x="1220" y="44.2969"/><ellipse cx="1235" cy="60.2969" fill="#ADD1B2" rx="11" ry="11" style="stroke:#181818;stroke-width:1.0;"/><path d="M1237.3438,55.9688 C1236.4063,55.5313 1235.8125,55.3906 1234.9375,55.3906 C1232.3125,55.3906 1230.3125,57.4688 1230.3125,60.1875 L1230.3125,61.3125 C1230.3125,63.8906 1232.4219,65.7813 1235.3125,65.7813 C1236.5313,65.7813 1237.6875,65.4844 1238.4375,64.9375 C1239.0156,64.5313 1239.3438,64.0781 1239.3438,63.6875 C1239.3438,63.2344 1238.9531,62.8438 1238.4844,62.8438 C1238.2656,62.8438 1238.0625,62.9219 1237.875,63.1094 C1237.4219,63.5938 1237.4219,63.5938 1237.2344,63.6875 C1236.8125,63.9531 1236.125,64.0781 1235.3594,64.0781 C1233.3125,64.0781 1232.0156,62.9844 1232.0156,61.2813 L1232.0156,60.1875 C1232.0156,58.4063 1233.2656,57.0938 1235,57.0938 C1235.5781,57.0938 1236.1875,57.25 1236.6563,57.5 C1237.1406,57.7813 1237.3125,58 1237.4063,58.4063 C1237.4688,58.8125 1237.5,58.9375 1237.6406,59.0625 C1237.7813,59.2031 1238.0156,59.3125 1238.2344,59.3125 C1238.5,59.3125 1238.7656,59.1719 1238.9375,58.9531 C1239.0469,58.7969 1239.0781,58.6094 1239.0781,58.1875 L1239.0781,56.7656 C1239.0781,56.3281 1239.0625,56.2031 1238.9688,56.0469 C1238.8125,55.7813 1238.5313,55.6406 1238.2344,55.6406 C1237.9375,55.6406 1237.7344,55.7344 1237.5156,56.0469 L1237.3438,55.9688 Z " fill="#000000"/><text fill="#000000" font-family="sans-serif" font-size="14" lengthAdjust="spacing" textLength="44" x="1249" y="65.1436">ticket</text><line style="stroke:#181818;stroke-width:0.5;" x1="1221" x2="1295" y1="76.2969" y2="76.2969"/><line style="stroke:#181818;stroke-width:0.5;" x1="1221" x2="1295" y1="84.2969" y2="84.2969"/></g><!--class usuario--><g id="elem_usuario"><rect codeLine="6" fill="#F1F1F1" height="48" id="usuario" rx="2.5" ry="2.5" style="stroke:#181818;stroke-width:0.5;" width="82" x="1103" y="44.2969"/><ellipse cx="1118" cy="60.2969" fill="#ADD1B2" rx="11" ry="11" style="stroke:#181818;stroke-width:1.0;"/><path d="M1120.3438,55.9688 C1119.4063,55.5313 1118.8125,55.3906 1117.9375,55.3906 C1115.3125,55.3906 1113.3125,57.4688 1113.3125,60.1875 L1113.3125,61.3125 C1113.3125,63.8906 1115.4219,65.7813 1118.3125,65.7813 C1119.5313,65.7813 1120.6875,65.4844 1121.4375,64.9375 C1122.0156,64.5313 1122.3438,64.0781 1122.3438,63.6875 C1122.3438,63.2344 1121.9531,62.8438 1121.4844,62.8438 C1121.2656,62.8438 1121.0625,62.9219 1120.875,63.1094 C1120.4219,63.5938 1120.4219,63.5938 1120.2344,63.6875 C1119.8125,63.9531 1119.125,64.0781 1118.3594,64.0781 C1116.3125,64.0781 1115.0156,62.9844 1115.0156,61.2813 L1115.0156,60.1875 C1115.0156,58.4063 1116.2656,57.0938 1118,57.0938 C1118.5781,57.0938 1119.1875,57.25 1119.6563,57.5 C1120.1406,57.7813 1120.3125,58 1120.4063,58.4063 C1120.4688,58.8125 1120.5,58.9375 1120.6406,59.0625 C1120.7813,59.2031 1121.0156,59.3125 1121.2344,59.3125 C1121.5,59.3125 1121.7656,59.1719 1121.9375,58.9531 C1122.0469,58.7969 1122.0781,58.6094 1122.0781,58.1875 L1122.0781,56.7656 C1122.0781,56.3281 1122.0625,56.2031 1121.9688,56.0469 C1121.8125,55.7813 1121.5313,55.6406 1121.2344,55.6406 C1120.9375,55.6406 1120.7344,55.7344 1120.5156,56.0469 L1120.3438,55.9688 Z " fill="#000000"/><text fill="#000000" font-family="sans-serif" font-size="14" lengthAdjust="spacing" textLength="50" x="1132" y="65.1436">usuario</text><line style="stroke:#181818;stroke-width:0.5;" x1="1104" x2="1184" y1="76.2969" y2="76.2969"/><line style="stroke:#181818;stroke-width:0.5;" x1="1104" x2="1184" y1="84.2969" y2="84.2969"/></g><!--link usuario to dashboard--><g id="link_usuario_dashboard"><path codeLine="9" d="M1144,92.2969 C1144,109.9549 1144,134.2379 1144,151.9749 " fill="none" id="usuario-dashboard" style="stroke:#181818;stroke-width:1.0;"/></g><!--link admin to dashboard--><g id="link_admin_dashboard"><path codeLine="10" d="M739.058,70.3629 C821.546,73.1569 1014.13,82.4369 1073,109.2969 C1093.98,118.8669 1112.84,137.0959 1125.84,151.9749 " fill="none" id="admin-dashboard" style="stroke:#181818;stroke-width:1.0;"/></g><!--link admin to docente--><g id="link_admin_docente"><path codeLine="11" d="M739.046,73.3749 C779.116,78.5189 843.55,89.2259 896,109.2969 C924.433,120.1769 954.061,137.7499 975.842,152.0289 " fill="none" id="admin-docente" style="stroke:#181818;stroke-width:1.0;"/></g><!--link admin to notificacion--><g id="link_admin_notificacion"><path codeLine="12" d="M726.821,92.2969 C746.645,109.9549 773.905,134.2379 793.818,151.9749 " fill="none" id="admin-notificacion" style="stroke:#181818;stroke-width:1.0;"/></g><!--link admin to rol--><g id="link_admin_rol"><path codeLine="13" d="M701,92.2969 C701,109.9549 701,134.2379 701,151.9749 " fill="none" id="admin-rol" style="stroke:#181818;stroke-width:1.0;"/></g><!--link admin to asignacion--><g id="link_admin_asignacion"><path codeLine="14" d="M676.264,92.2969 C657.273,109.9549 631.158,134.2379 612.082,151.9749 " fill="none" id="admin-asignacion" style="stroke:#181818;stroke-width:1.0;"/></g><!--link admin to bajas--><g id="link_admin_bajas"><path codeLine="15" d="M662.986,74.5179 C625.007,80.4249 565.333,91.5959 516,109.2969 C483.053,121.1189 447.861,139.7489 422.732,154.2059 " fill="none" id="admin-bajas" style="stroke:#181818;stroke-width:1.0;"/></g><!--link admin to configuracion--><g id="link_admin_configuracion"><path codeLine="16" d="M662.874,70.7729 C581.7,74.3519 394.436,85.0419 336,109.2969 C312.877,118.8949 291.018,137.1219 275.693,151.9929 " fill="none" id="admin-configuracion" style="stroke:#181818;stroke-width:1.0;"/></g><!--link docente to crear--><g id="link_docente_crear"><path codeLine="19" d="M962.928,199.9069 C922.412,219.7889 864.335,248.2898 827.655,266.2903 " fill="none" id="docente-crear" style="stroke:#181818;stroke-width:1.0;"/></g><!--link docente to editar--><g id="link_docente_editar"><path codeLine="20" d="M985.349,200.2969 C967.191,217.9549 942.221,242.2377 923.982,259.9753 " fill="none" id="docente-editar" style="stroke:#181818;stroke-width:1.0;"/></g><!--link docente to filtrar--><g id="link_docente_filtrar"><path codeLine="21" d="M1009,200.2969 C1009,217.9549 1009,242.2377 1009,259.9753 " fill="none" id="docente-filtrar" style="stroke:#181818;stroke-width:1.0;"/></g><!--link docente to buscar--><g id="link_docente_buscar"><path codeLine="22" d="M1033.09,200.2969 C1051.58,217.9549 1077,242.2377 1095.58,259.9753 " fill="none" id="docente-buscar" style="stroke:#181818;stroke-width:1.0;"/></g><!--link docente to exportar--><g id="link_docente_exportar"><path codeLine="23" d="M1055.03,198.2389 C1095.35,216.5809 1153.7,243.1281 1194.46,261.6705 " fill="none" id="docente-exportar" style="stroke:#181818;stroke-width:1.0;"/></g><!--link docente to perfil--><g id="link_docente_perfil"><path codeLine="24" d="M1055.32,194.5209 C1061.24,196.5529 1067.24,198.5289 1073,200.2969 C1175.63,231.8199 1205.44,225.4839 1307,260.2969 C1312.69,262.2483 1318.63,264.5485 1324.38,266.9266 " fill="none" id="docente-perfil" style="stroke:#181818;stroke-width:1.0;"/></g><!--link docente to seguimiento--><g id="link_docente_seguimiento"><path codeLine="25" d="M1055.2,194.9459 C1061.14,196.9059 1067.18,198.7499 1073,200.2969 C1221.3,239.7209 1263.62,225.2089 1413,260.2969 C1418.64,261.6205 1424.47,263.1101 1430.29,264.6786 " fill="none" id="docente-seguimiento" style="stroke:#181818;stroke-width:1.0;"/></g><!--link asignacion to asignar--><g id="link_asignacion_asignar"><path codeLine="27" d="M576.368,200.2969 C568.205,217.9549 556.98,242.2377 548.781,259.9753 " fill="none" id="asignacion-asignar" style="stroke:#181818;stroke-width:1.0;"/></g><!--link asignacion to desasignar--><g id="link_asignacion_desasignar"><path codeLine="28" d="M604.793,200.2969 C618.453,217.9549 637.237,242.2377 650.959,259.9753 " fill="none" id="asignacion-desasignar" style="stroke:#181818;stroke-width:1.0;"/></g><!--link bajas to temporal--><g id="link_bajas_temporal"><path codeLine="30" d="M353.272,193.3409 C347.548,195.7869 341.642,198.1939 336,200.2969 C250.635,232.1129 226.651,232.1699 140,260.2969 C134.385,262.1195 128.521,264.0672 122.697,266.029 " fill="none" id="bajas-temporal" style="stroke:#181818;stroke-width:1.0;"/></g><!--link bajas to permanente--><g id="link_bajas_permanente"><path codeLine="31" d="M353.393,199.0029 C325.001,216.8109 284.903,241.9614 255.903,260.1504 " fill="none" id="bajas-permanente" style="stroke:#181818;stroke-width:1.0;"/></g><!--link bajas to reincorporacion--><g id="link_bajas_reincorporacion"><path codeLine="32" d="M388,200.2969 C388,217.9549 388,242.2377 388,259.9753 " fill="none" id="bajas-reincorporacion" style="stroke:#181818;stroke-width:1.0;"/></g><!--SRC=[TP6nJiKm34NtV4KsfjATbPc9Bt0Jjy-GnCLs92J4lvE-LqZx99Oez_Z6LtOUBcQhFetZcg1OpUanS1uLFogMW4CaM0IoCxA4_eKZ9lRjy94p5MB_p8BEXGIg7c9Z-zqelAFjece58NPEC1YKfRLw9JNCuB_SNlJ3u2FePMAGwAwj_aCSi1ZwJWeRpHGW49TEXLCNeBIKEyC4Rw1T1YupBLLkhjCOxZTpimc2-2F1I7Q7Paec84SqLGrdWfyhYvtPYjBU7edYKYbJass1VOnMkeaMVABjU_IlugupRhHjkwL1wgH5PIXRJ6U2L0BBvhnkuVi7]--></g></svg>