<?xml version="1.0" encoding="us-ascii" standalone="no"?><svg xmlns="http://www.w3.org/2000/svg" xmlns:xlink="http://www.w3.org/1999/xlink" contentStyleType="text/css" height="755px" preserveAspectRatio="none" style="width:1413px;height:755px;background:#FFFFFF;" version="1.1" viewBox="0 0 1413 755" width="1413px" zoomAndPan="magnify"><defs/><g><text fill="#000000" font-family="sans-serif" font-size="14" font-weight="bold" lengthAdjust="spacing" textLength="198" x="600.75" y="22.9951">Modelo del dominio Core</text><!--class usuario--><g id="elem_usuario"><rect fill="#F1F1F1" height="48" id="usuario" rx="2.5" ry="2.5" style="stroke:#181818;stroke-width:0.5;" width="82" x="728.5" y="169.2969"/><ellipse cx="743.5" cy="185.2969" fill="#ADD1B2" rx="11" ry="11" style="stroke:#181818;stroke-width:1.0;"/><path d="M745.8438,180.9688 C744.9063,180.5313 744.3125,180.3906 743.4375,180.3906 C740.8125,180.3906 738.8125,182.4688 738.8125,185.1875 L738.8125,186.3125 C738.8125,188.8906 740.9219,190.7813 743.8125,190.7813 C745.0313,190.7813 746.1875,190.4844 746.9375,189.9375 C747.5156,189.5313 747.8438,189.0781 747.8438,188.6875 C747.8438,188.2344 747.4531,187.8438 746.9844,187.8438 C746.7656,187.8438 746.5625,187.9219 746.375,188.1094 C745.9219,188.5938 745.9219,188.5938 745.7344,188.6875 C745.3125,188.9531 744.625,189.0781 743.8594,189.0781 C741.8125,189.0781 740.5156,187.9844 740.5156,186.2813 L740.5156,185.1875 C740.5156,183.4063 741.7656,182.0938 743.5,182.0938 C744.0781,182.0938 744.6875,182.25 745.1563,182.5 C745.6406,182.7813 745.8125,183 745.9063,183.4063 C745.9688,183.8125 746,183.9375 746.1406,184.0625 C746.2813,184.2031 746.5156,184.3125 746.7344,184.3125 C747,184.3125 747.2656,184.1719 747.4375,183.9531 C747.5469,183.7969 747.5781,183.6094 747.5781,183.1875 L747.5781,181.7656 C747.5781,181.3281 747.5625,181.2031 747.4688,181.0469 C747.3125,180.7813 747.0313,180.6406 746.7344,180.6406 C746.4375,180.6406 746.2344,180.7344 746.0156,181.0469 L745.8438,180.9688 Z " fill="#000000"/><text fill="#000000" font-family="sans-serif" font-size="14" lengthAdjust="spacing" textLength="50" x="757.5" y="190.1436">usuario</text><line style="stroke:#181818;stroke-width:0.5;" x1="729.5" x2="809.5" y1="201.2969" y2="201.2969"/><line style="stroke:#181818;stroke-width:0.5;" x1="729.5" x2="809.5" y1="209.2969" y2="209.2969"/></g><!--class core--><g id="elem_core"><rect fill="#F1F1F1" height="48" id="core" rx="2.5" ry="2.5" style="stroke:#181818;stroke-width:0.5;" width="64" x="595.5" y="44.2969"/><ellipse cx="610.5" cy="60.2969" fill="#ADD1B2" rx="11" ry="11" style="stroke:#181818;stroke-width:1.0;"/><path d="M612.8438,55.9688 C611.9063,55.5313 611.3125,55.3906 610.4375,55.3906 C607.8125,55.3906 605.8125,57.4688 605.8125,60.1875 L605.8125,61.3125 C605.8125,63.8906 607.9219,65.7813 610.8125,65.7813 C612.0313,65.7813 613.1875,65.4844 613.9375,64.9375 C614.5156,64.5313 614.8438,64.0781 614.8438,63.6875 C614.8438,63.2344 614.4531,62.8438 613.9844,62.8438 C613.7656,62.8438 613.5625,62.9219 613.375,63.1094 C612.9219,63.5938 612.9219,63.5938 612.7344,63.6875 C612.3125,63.9531 611.625,64.0781 610.8594,64.0781 C608.8125,64.0781 607.5156,62.9844 607.5156,61.2813 L607.5156,60.1875 C607.5156,58.4063 608.7656,57.0938 610.5,57.0938 C611.0781,57.0938 611.6875,57.25 612.1563,57.5 C612.6406,57.7813 612.8125,58 612.9063,58.4063 C612.9688,58.8125 613,58.9375 613.1406,59.0625 C613.2813,59.2031 613.5156,59.3125 613.7344,59.3125 C614,59.3125 614.2656,59.1719 614.4375,58.9531 C614.5469,58.7969 614.5781,58.6094 614.5781,58.1875 L614.5781,56.7656 C614.5781,56.3281 614.5625,56.2031 614.4688,56.0469 C614.3125,55.7813 614.0313,55.6406 613.7344,55.6406 C613.4375,55.6406 613.2344,55.7344 613.0156,56.0469 L612.8438,55.9688 Z " fill="#000000"/><text fill="#000000" font-family="sans-serif" font-size="14" lengthAdjust="spacing" textLength="32" x="624.5" y="65.1436">core</text><line style="stroke:#181818;stroke-width:0.5;" x1="596.5" x2="658.5" y1="76.2969" y2="76.2969"/><line style="stroke:#181818;stroke-width:0.5;" x1="596.5" x2="658.5" y1="84.2969" y2="84.2969"/></g><!--class admin--><g id="elem_admin"><rect fill="#F1F1F1" height="48" id="admin" rx="2.5" ry="2.5" style="stroke:#181818;stroke-width:0.5;" width="76" x="587.5" y="247.2969"/><ellipse cx="602.5" cy="263.2969" fill="#ADD1B2" rx="11" ry="11" style="stroke:#181818;stroke-width:1.0;"/><path d="M604.8438,258.9688 C603.9063,258.5313 603.3125,258.3906 602.4375,258.3906 C599.8125,258.3906 597.8125,260.4688 597.8125,263.1875 L597.8125,264.3125 C597.8125,266.8906 599.9219,268.7813 602.8125,268.7813 C604.0313,268.7813 605.1875,268.4844 605.9375,267.9375 C606.5156,267.5313 606.8438,267.0781 606.8438,266.6875 C606.8438,266.2344 606.4531,265.8438 605.9844,265.8438 C605.7656,265.8438 605.5625,265.9219 605.375,266.1094 C604.9219,266.5938 604.9219,266.5938 604.7344,266.6875 C604.3125,266.9531 603.625,267.0781 602.8594,267.0781 C600.8125,267.0781 599.5156,265.9844 599.5156,264.2813 L599.5156,263.1875 C599.5156,261.4063 600.7656,260.0938 602.5,260.0938 C603.0781,260.0938 603.6875,260.25 604.1563,260.5 C604.6406,260.7813 604.8125,261 604.9063,261.4063 C604.9688,261.8125 605,261.9375 605.1406,262.0625 C605.2813,262.2031 605.5156,262.3125 605.7344,262.3125 C606,262.3125 606.2656,262.1719 606.4375,261.9531 C606.5469,261.7969 606.5781,261.6094 606.5781,261.1875 L606.5781,259.7656 C606.5781,259.3281 606.5625,259.2031 606.4688,259.0469 C606.3125,258.7813 606.0313,258.6406 605.7344,258.6406 C605.4375,258.6406 605.2344,258.7344 605.0156,259.0469 L604.8438,258.9688 Z " fill="#000000"/><text fill="#000000" font-family="sans-serif" font-size="14" lengthAdjust="spacing" textLength="44" x="616.5" y="268.1436">admin</text><line style="stroke:#181818;stroke-width:0.5;" x1="588.5" x2="662.5" y1="279.2969" y2="279.2969"/><line style="stroke:#181818;stroke-width:0.5;" x1="588.5" x2="662.5" y1="287.2969" y2="287.2969"/></g><!--class developer--><g id="elem_developer"><rect fill="#F1F1F1" height="48" id="developer" rx="2.5" ry="2.5" style="stroke:#181818;stroke-width:0.5;" width="105" x="434" y="247.2969"/><ellipse cx="449" cy="263.2969" fill="#ADD1B2" rx="11" ry="11" style="stroke:#181818;stroke-width:1.0;"/><path d="M451.3438,258.9688 C450.4063,258.5313 449.8125,258.3906 448.9375,258.3906 C446.3125,258.3906 444.3125,260.4688 444.3125,263.1875 L444.3125,264.3125 C444.3125,266.8906 446.4219,268.7813 449.3125,268.7813 C450.5313,268.7813 451.6875,268.4844 452.4375,267.9375 C453.0156,267.5313 453.3438,267.0781 453.3438,266.6875 C453.3438,266.2344 452.9531,265.8438 452.4844,265.8438 C452.2656,265.8438 452.0625,265.9219 451.875,266.1094 C451.4219,266.5938 451.4219,266.5938 451.2344,266.6875 C450.8125,266.9531 450.125,267.0781 449.3594,267.0781 C447.3125,267.0781 446.0156,265.9844 446.0156,264.2813 L446.0156,263.1875 C446.0156,261.4063 447.2656,260.0938 449,260.0938 C449.5781,260.0938 450.1875,260.25 450.6563,260.5 C451.1406,260.7813 451.3125,261 451.4063,261.4063 C451.4688,261.8125 451.5,261.9375 451.6406,262.0625 C451.7813,262.2031 452.0156,262.3125 452.2344,262.3125 C452.5,262.3125 452.7656,262.1719 452.9375,261.9531 C453.0469,261.7969 453.0781,261.6094 453.0781,261.1875 L453.0781,259.7656 C453.0781,259.3281 453.0625,259.2031 452.9688,259.0469 C452.8125,258.7813 452.5313,258.6406 452.2344,258.6406 C451.9375,258.6406 451.7344,258.7344 451.5156,259.0469 L451.3438,258.9688 Z " fill="#000000"/><text fill="#000000" font-family="sans-serif" font-size="14" lengthAdjust="spacing" textLength="73" x="463" y="268.1436">developer</text><line style="stroke:#181818;stroke-width:0.5;" x1="435" x2="538" y1="279.2969" y2="279.2969"/><line style="stroke:#181818;stroke-width:0.5;" x1="435" x2="538" y1="287.2969" y2="287.2969"/></g><!--class funiber--><g id="elem_funiber"><rect fill="#F1F1F1" height="48" id="funiber" rx="2.5" ry="2.5" style="stroke:#181818;stroke-width:0.5;" width="84" x="729.5" y="325.2969"/><ellipse cx="744.5" cy="341.2969" fill="#ADD1B2" rx="11" ry="11" style="stroke:#181818;stroke-width:1.0;"/><path d="M746.8438,336.9688 C745.9063,336.5313 745.3125,336.3906 744.4375,336.3906 C741.8125,336.3906 739.8125,338.4688 739.8125,341.1875 L739.8125,342.3125 C739.8125,344.8906 741.9219,346.7813 744.8125,346.7813 C746.0313,346.7813 747.1875,346.4844 747.9375,345.9375 C748.5156,345.5313 748.8438,345.0781 748.8438,344.6875 C748.8438,344.2344 748.4531,343.8438 747.9844,343.8438 C747.7656,343.8438 747.5625,343.9219 747.375,344.1094 C746.9219,344.5938 746.9219,344.5938 746.7344,344.6875 C746.3125,344.9531 745.625,345.0781 744.8594,345.0781 C742.8125,345.0781 741.5156,343.9844 741.5156,342.2813 L741.5156,341.1875 C741.5156,339.4063 742.7656,338.0938 744.5,338.0938 C745.0781,338.0938 745.6875,338.25 746.1563,338.5 C746.6406,338.7813 746.8125,339 746.9063,339.4063 C746.9688,339.8125 747,339.9375 747.1406,340.0625 C747.2813,340.2031 747.5156,340.3125 747.7344,340.3125 C748,340.3125 748.2656,340.1719 748.4375,339.9531 C748.5469,339.7969 748.5781,339.6094 748.5781,339.1875 L748.5781,337.7656 C748.5781,337.3281 748.5625,337.2031 748.4688,337.0469 C748.3125,336.7813 748.0313,336.6406 747.7344,336.6406 C747.4375,336.6406 747.2344,336.7344 747.0156,337.0469 L746.8438,336.9688 Z " fill="#000000"/><text fill="#000000" font-family="sans-serif" font-size="14" lengthAdjust="spacing" textLength="52" x="758.5" y="346.1436">funiber</text><line style="stroke:#181818;stroke-width:0.5;" x1="730.5" x2="812.5" y1="357.2969" y2="357.2969"/><line style="stroke:#181818;stroke-width:0.5;" x1="730.5" x2="812.5" y1="365.2969" y2="365.2969"/></g><!--class modulo--><g id="elem_modulo"><rect fill="#F1F1F1" height="48" id="modulo" rx="2.5" ry="2.5" style="stroke:#181818;stroke-width:0.5;" width="85" x="581" y="450.2969"/><ellipse cx="596" cy="466.2969" fill="#ADD1B2" rx="11" ry="11" style="stroke:#181818;stroke-width:1.0;"/><path d="M598.3438,461.9688 C597.4063,461.5313 596.8125,461.3906 595.9375,461.3906 C593.3125,461.3906 591.3125,463.4688 591.3125,466.1875 L591.3125,467.3125 C591.3125,469.8906 593.4219,471.7813 596.3125,471.7813 C597.5313,471.7813 598.6875,471.4844 599.4375,470.9375 C600.0156,470.5313 600.3438,470.0781 600.3438,469.6875 C600.3438,469.2344 599.9531,468.8438 599.4844,468.8438 C599.2656,468.8438 599.0625,468.9219 598.875,469.1094 C598.4219,469.5938 598.4219,469.5938 598.2344,469.6875 C597.8125,469.9531 597.125,470.0781 596.3594,470.0781 C594.3125,470.0781 593.0156,468.9844 593.0156,467.2813 L593.0156,466.1875 C593.0156,464.4063 594.2656,463.0938 596,463.0938 C596.5781,463.0938 597.1875,463.25 597.6563,463.5 C598.1406,463.7813 598.3125,464 598.4063,464.4063 C598.4688,464.8125 598.5,464.9375 598.6406,465.0625 C598.7813,465.2031 599.0156,465.3125 599.2344,465.3125 C599.5,465.3125 599.7656,465.1719 599.9375,464.9531 C600.0469,464.7969 600.0781,464.6094 600.0781,464.1875 L600.0781,462.7656 C600.0781,462.3281 600.0625,462.2031 599.9688,462.0469 C599.8125,461.7813 599.5313,461.6406 599.2344,461.6406 C598.9375,461.6406 598.7344,461.7344 598.5156,462.0469 L598.3438,461.9688 Z " fill="#000000"/><text fill="#000000" font-family="sans-serif" font-size="14" lengthAdjust="spacing" textLength="53" x="610" y="471.1436">modulo</text><line style="stroke:#181818;stroke-width:0.5;" x1="582" x2="665" y1="482.2969" y2="482.2969"/><line style="stroke:#181818;stroke-width:0.5;" x1="582" x2="665" y1="490.2969" y2="490.2969"/></g><!--class privado--><g id="elem_privado"><rect fill="#F1F1F1" height="48" id="privado" rx="2.5" ry="2.5" style="stroke:#181818;stroke-width:0.5;" width="86" x="391.5" y="575.2969"/><ellipse cx="406.5" cy="591.2969" fill="#ADD1B2" rx="11" ry="11" style="stroke:#181818;stroke-width:1.0;"/><path d="M408.8438,586.9688 C407.9063,586.5313 407.3125,586.3906 406.4375,586.3906 C403.8125,586.3906 401.8125,588.4688 401.8125,591.1875 L401.8125,592.3125 C401.8125,594.8906 403.9219,596.7813 406.8125,596.7813 C408.0313,596.7813 409.1875,596.4844 409.9375,595.9375 C410.5156,595.5313 410.8438,595.0781 410.8438,594.6875 C410.8438,594.2344 410.4531,593.8438 409.9844,593.8438 C409.7656,593.8438 409.5625,593.9219 409.375,594.1094 C408.9219,594.5938 408.9219,594.5938 408.7344,594.6875 C408.3125,594.9531 407.625,595.0781 406.8594,595.0781 C404.8125,595.0781 403.5156,593.9844 403.5156,592.2813 L403.5156,591.1875 C403.5156,589.4063 404.7656,588.0938 406.5,588.0938 C407.0781,588.0938 407.6875,588.25 408.1563,588.5 C408.6406,588.7813 408.8125,589 408.9063,589.4063 C408.9688,589.8125 409,589.9375 409.1406,590.0625 C409.2813,590.2031 409.5156,590.3125 409.7344,590.3125 C410,590.3125 410.2656,590.1719 410.4375,589.9531 C410.5469,589.7969 410.5781,589.6094 410.5781,589.1875 L410.5781,587.7656 C410.5781,587.3281 410.5625,587.2031 410.4688,587.0469 C410.3125,586.7813 410.0313,586.6406 409.7344,586.6406 C409.4375,586.6406 409.2344,586.7344 409.0156,587.0469 L408.8438,586.9688 Z " fill="#000000"/><text fill="#000000" font-family="sans-serif" font-size="14" lengthAdjust="spacing" textLength="54" x="420.5" y="596.1436">privado</text><line style="stroke:#181818;stroke-width:0.5;" x1="392.5" x2="476.5" y1="607.2969" y2="607.2969"/><line style="stroke:#181818;stroke-width:0.5;" x1="392.5" x2="476.5" y1="615.2969" y2="615.2969"/></g><!--class publico--><g id="elem_publico"><rect fill="#F1F1F1" height="48" id="publico" rx="2.5" ry="2.5" style="stroke:#181818;stroke-width:0.5;" width="85" x="964" y="575.2969"/><ellipse cx="979" cy="591.2969" fill="#ADD1B2" rx="11" ry="11" style="stroke:#181818;stroke-width:1.0;"/><path d="M981.3438,586.9688 C980.4063,586.5313 979.8125,586.3906 978.9375,586.3906 C976.3125,586.3906 974.3125,588.4688 974.3125,591.1875 L974.3125,592.3125 C974.3125,594.8906 976.4219,596.7813 979.3125,596.7813 C980.5313,596.7813 981.6875,596.4844 982.4375,595.9375 C983.0156,595.5313 983.3438,595.0781 983.3438,594.6875 C983.3438,594.2344 982.9531,593.8438 982.4844,593.8438 C982.2656,593.8438 982.0625,593.9219 981.875,594.1094 C981.4219,594.5938 981.4219,594.5938 981.2344,594.6875 C980.8125,594.9531 980.125,595.0781 979.3594,595.0781 C977.3125,595.0781 976.0156,593.9844 976.0156,592.2813 L976.0156,591.1875 C976.0156,589.4063 977.2656,588.0938 979,588.0938 C979.5781,588.0938 980.1875,588.25 980.6563,588.5 C981.1406,588.7813 981.3125,589 981.4063,589.4063 C981.4688,589.8125 981.5,589.9375 981.6406,590.0625 C981.7813,590.2031 982.0156,590.3125 982.2344,590.3125 C982.5,590.3125 982.7656,590.1719 982.9375,589.9531 C983.0469,589.7969 983.0781,589.6094 983.0781,589.1875 L983.0781,587.7656 C983.0781,587.3281 983.0625,587.2031 982.9688,587.0469 C982.8125,586.7813 982.5313,586.6406 982.2344,586.6406 C981.9375,586.6406 981.7344,586.7344 981.5156,587.0469 L981.3438,586.9688 Z " fill="#000000"/><text fill="#000000" font-family="sans-serif" font-size="14" lengthAdjust="spacing" textLength="53" x="993" y="596.1436">publico</text><line style="stroke:#181818;stroke-width:0.5;" x1="965" x2="1048" y1="607.2969" y2="607.2969"/><line style="stroke:#181818;stroke-width:0.5;" x1="965" x2="1048" y1="615.2969" y2="615.2969"/></g><!--class login--><g id="elem_login"><rect fill="#F1F1F1" height="48" id="login" rx="2.5" ry="2.5" style="stroke:#181818;stroke-width:0.5;" width="67" x="814" y="700.2969"/><ellipse cx="829" cy="716.2969" fill="#ADD1B2" rx="11" ry="11" style="stroke:#181818;stroke-width:1.0;"/><path d="M831.3438,711.9688 C830.4063,711.5313 829.8125,711.3906 828.9375,711.3906 C826.3125,711.3906 824.3125,713.4688 824.3125,716.1875 L824.3125,717.3125 C824.3125,719.8906 826.4219,721.7813 829.3125,721.7813 C830.5313,721.7813 831.6875,721.4844 832.4375,720.9375 C833.0156,720.5313 833.3438,720.0781 833.3438,719.6875 C833.3438,719.2344 832.9531,718.8438 832.4844,718.8438 C832.2656,718.8438 832.0625,718.9219 831.875,719.1094 C831.4219,719.5938 831.4219,719.5938 831.2344,719.6875 C830.8125,719.9531 830.125,720.0781 829.3594,720.0781 C827.3125,720.0781 826.0156,718.9844 826.0156,717.2813 L826.0156,716.1875 C826.0156,714.4063 827.2656,713.0938 829,713.0938 C829.5781,713.0938 830.1875,713.25 830.6563,713.5 C831.1406,713.7813 831.3125,714 831.4063,714.4063 C831.4688,714.8125 831.5,714.9375 831.6406,715.0625 C831.7813,715.2031 832.0156,715.3125 832.2344,715.3125 C832.5,715.3125 832.7656,715.1719 832.9375,714.9531 C833.0469,714.7969 833.0781,714.6094 833.0781,714.1875 L833.0781,712.7656 C833.0781,712.3281 833.0625,712.2031 832.9688,712.0469 C832.8125,711.7813 832.5313,711.6406 832.2344,711.6406 C831.9375,711.6406 831.7344,711.7344 831.5156,712.0469 L831.3438,711.9688 Z " fill="#000000"/><text fill="#000000" font-family="sans-serif" font-size="14" lengthAdjust="spacing" textLength="35" x="843" y="721.1436">login</text><line style="stroke:#181818;stroke-width:0.5;" x1="815" x2="880" y1="732.2969" y2="732.2969"/><line style="stroke:#181818;stroke-width:0.5;" x1="815" x2="880" y1="740.2969" y2="740.2969"/></g><!--class dashboard--><g id="elem_dashboard"><rect fill="#F1F1F1" height="48" id="dashboard" rx="2.5" ry="2.5" style="stroke:#181818;stroke-width:0.5;" width="107" x="953" y="700.2969"/><ellipse cx="968" cy="716.2969" fill="#ADD1B2" rx="11" ry="11" style="stroke:#181818;stroke-width:1.0;"/><path d="M970.3438,711.9688 C969.4063,711.5313 968.8125,711.3906 967.9375,711.3906 C965.3125,711.3906 963.3125,713.4688 963.3125,716.1875 L963.3125,717.3125 C963.3125,719.8906 965.4219,721.7813 968.3125,721.7813 C969.5313,721.7813 970.6875,721.4844 971.4375,720.9375 C972.0156,720.5313 972.3438,720.0781 972.3438,719.6875 C972.3438,719.2344 971.9531,718.8438 971.4844,718.8438 C971.2656,718.8438 971.0625,718.9219 970.875,719.1094 C970.4219,719.5938 970.4219,719.5938 970.2344,719.6875 C969.8125,719.9531 969.125,720.0781 968.3594,720.0781 C966.3125,720.0781 965.0156,718.9844 965.0156,717.2813 L965.0156,716.1875 C965.0156,714.4063 966.2656,713.0938 968,713.0938 C968.5781,713.0938 969.1875,713.25 969.6563,713.5 C970.1406,713.7813 970.3125,714 970.4063,714.4063 C970.4688,714.8125 970.5,714.9375 970.6406,715.0625 C970.7813,715.2031 971.0156,715.3125 971.2344,715.3125 C971.5,715.3125 971.7656,715.1719 971.9375,714.9531 C972.0469,714.7969 972.0781,714.6094 972.0781,714.1875 L972.0781,712.7656 C972.0781,712.3281 972.0625,712.2031 971.9688,712.0469 C971.8125,711.7813 971.5313,711.6406 971.2344,711.6406 C970.9375,711.6406 970.7344,711.7344 970.5156,712.0469 L970.3438,711.9688 Z " fill="#000000"/><text fill="#000000" font-family="sans-serif" font-size="14" lengthAdjust="spacing" textLength="75" x="982" y="721.1436">dashboard</text><line style="stroke:#181818;stroke-width:0.5;" x1="954" x2="1059" y1="732.2969" y2="732.2969"/><line style="stroke:#181818;stroke-width:0.5;" x1="954" x2="1059" y1="740.2969" y2="740.2969"/></g><!--class docente--><g id="elem_docente"><rect fill="#F1F1F1" height="48" id="docente" rx="2.5" ry="2.5" style="stroke:#181818;stroke-width:0.5;" width="92" x="1119.5" y="700.2969"/><ellipse cx="1134.5" cy="716.2969" fill="#ADD1B2" rx="11" ry="11" style="stroke:#181818;stroke-width:1.0;"/><path d="M1136.8438,711.9688 C1135.9063,711.5313 1135.3125,711.3906 1134.4375,711.3906 C1131.8125,711.3906 1129.8125,713.4688 1129.8125,716.1875 L1129.8125,717.3125 C1129.8125,719.8906 1131.9219,721.7813 1134.8125,721.7813 C1136.0313,721.7813 1137.1875,721.4844 1137.9375,720.9375 C1138.5156,720.5313 1138.8438,720.0781 1138.8438,719.6875 C1138.8438,719.2344 1138.4531,718.8438 1137.9844,718.8438 C1137.7656,718.8438 1137.5625,718.9219 1137.375,719.1094 C1136.9219,719.5938 1136.9219,719.5938 1136.7344,719.6875 C1136.3125,719.9531 1135.625,720.0781 1134.8594,720.0781 C1132.8125,720.0781 1131.5156,718.9844 1131.5156,717.2813 L1131.5156,716.1875 C1131.5156,714.4063 1132.7656,713.0938 1134.5,713.0938 C1135.0781,713.0938 1135.6875,713.25 1136.1563,713.5 C1136.6406,713.7813 1136.8125,714 1136.9063,714.4063 C1136.9688,714.8125 1137,714.9375 1137.1406,715.0625 C1137.2813,715.2031 1137.5156,715.3125 1137.7344,715.3125 C1138,715.3125 1138.2656,715.1719 1138.4375,714.9531 C1138.5469,714.7969 1138.5781,714.6094 1138.5781,714.1875 L1138.5781,712.7656 C1138.5781,712.3281 1138.5625,712.2031 1138.4688,712.0469 C1138.3125,711.7813 1138.0313,711.6406 1137.7344,711.6406 C1137.4375,711.6406 1137.2344,711.7344 1137.0156,712.0469 L1136.8438,711.9688 Z " fill="#000000"/><text fill="#000000" font-family="sans-serif" font-size="14" lengthAdjust="spacing" textLength="60" x="1148.5" y="721.1436">docente</text><line style="stroke:#181818;stroke-width:0.5;" x1="1120.5" x2="1210.5" y1="732.2969" y2="732.2969"/><line style="stroke:#181818;stroke-width:0.5;" x1="1120.5" x2="1210.5" y1="740.2969" y2="740.2969"/></g><!--class notificacion--><g id="elem_notificacion"><rect fill="#F1F1F1" height="48" id="notificacion" rx="2.5" ry="2.5" style="stroke:#181818;stroke-width:0.5;" width="117" x="1266" y="700.2969"/><ellipse cx="1281" cy="716.2969" fill="#ADD1B2" rx="11" ry="11" style="stroke:#181818;stroke-width:1.0;"/><path d="M1283.3438,711.9688 C1282.4063,711.5313 1281.8125,711.3906 1280.9375,711.3906 C1278.3125,711.3906 1276.3125,713.4688 1276.3125,716.1875 L1276.3125,717.3125 C1276.3125,719.8906 1278.4219,721.7813 1281.3125,721.7813 C1282.5313,721.7813 1283.6875,721.4844 1284.4375,720.9375 C1285.0156,720.5313 1285.3438,720.0781 1285.3438,719.6875 C1285.3438,719.2344 1284.9531,718.8438 1284.4844,718.8438 C1284.2656,718.8438 1284.0625,718.9219 1283.875,719.1094 C1283.4219,719.5938 1283.4219,719.5938 1283.2344,719.6875 C1282.8125,719.9531 1282.125,720.0781 1281.3594,720.0781 C1279.3125,720.0781 1278.0156,718.9844 1278.0156,717.2813 L1278.0156,716.1875 C1278.0156,714.4063 1279.2656,713.0938 1281,713.0938 C1281.5781,713.0938 1282.1875,713.25 1282.6563,713.5 C1283.1406,713.7813 1283.3125,714 1283.4063,714.4063 C1283.4688,714.8125 1283.5,714.9375 1283.6406,715.0625 C1283.7813,715.2031 1284.0156,715.3125 1284.2344,715.3125 C1284.5,715.3125 1284.7656,715.1719 1284.9375,714.9531 C1285.0469,714.7969 1285.0781,714.6094 1285.0781,714.1875 L1285.0781,712.7656 C1285.0781,712.3281 1285.0625,712.2031 1284.9688,712.0469 C1284.8125,711.7813 1284.5313,711.6406 1284.2344,711.6406 C1283.9375,711.6406 1283.7344,711.7344 1283.5156,712.0469 L1283.3438,711.9688 Z " fill="#000000"/><text fill="#000000" font-family="sans-serif" font-size="14" lengthAdjust="spacing" textLength="85" x="1295" y="721.1436">notificacion</text><line style="stroke:#181818;stroke-width:0.5;" x1="1267" x2="1382" y1="732.2969" y2="732.2969"/><line style="stroke:#181818;stroke-width:0.5;" x1="1267" x2="1382" y1="740.2969" y2="740.2969"/></g><!--class permiso--><g id="elem_permiso"><rect fill="#F1F1F1" height="48" id="permiso" rx="2.5" ry="2.5" style="stroke:#181818;stroke-width:0.5;" width="91" x="7" y="700.2969"/><ellipse cx="22" cy="716.2969" fill="#ADD1B2" rx="11" ry="11" style="stroke:#181818;stroke-width:1.0;"/><path d="M24.3438,711.9688 C23.4063,711.5313 22.8125,711.3906 21.9375,711.3906 C19.3125,711.3906 17.3125,713.4688 17.3125,716.1875 L17.3125,717.3125 C17.3125,719.8906 19.4219,721.7813 22.3125,721.7813 C23.5313,721.7813 24.6875,721.4844 25.4375,720.9375 C26.0156,720.5313 26.3438,720.0781 26.3438,719.6875 C26.3438,719.2344 25.9531,718.8438 25.4844,718.8438 C25.2656,718.8438 25.0625,718.9219 24.875,719.1094 C24.4219,719.5938 24.4219,719.5938 24.2344,719.6875 C23.8125,719.9531 23.125,720.0781 22.3594,720.0781 C20.3125,720.0781 19.0156,718.9844 19.0156,717.2813 L19.0156,716.1875 C19.0156,714.4063 20.2656,713.0938 22,713.0938 C22.5781,713.0938 23.1875,713.25 23.6563,713.5 C24.1406,713.7813 24.3125,714 24.4063,714.4063 C24.4688,714.8125 24.5,714.9375 24.6406,715.0625 C24.7813,715.2031 25.0156,715.3125 25.2344,715.3125 C25.5,715.3125 25.7656,715.1719 25.9375,714.9531 C26.0469,714.7969 26.0781,714.6094 26.0781,714.1875 L26.0781,712.7656 C26.0781,712.3281 26.0625,712.2031 25.9688,712.0469 C25.8125,711.7813 25.5313,711.6406 25.2344,711.6406 C24.9375,711.6406 24.7344,711.7344 24.5156,712.0469 L24.3438,711.9688 Z " fill="#000000"/><text fill="#000000" font-family="sans-serif" font-size="14" lengthAdjust="spacing" textLength="59" x="36" y="721.1436">permiso</text><line style="stroke:#181818;stroke-width:0.5;" x1="8" x2="97" y1="732.2969" y2="732.2969"/><line style="stroke:#181818;stroke-width:0.5;" x1="8" x2="97" y1="740.2969" y2="740.2969"/></g><!--class asignacion--><g id="elem_asignacion"><rect fill="#F1F1F1" height="48" id="asignacion" rx="2.5" ry="2.5" style="stroke:#181818;stroke-width:0.5;" width="107" x="158" y="700.2969"/><ellipse cx="173" cy="716.2969" fill="#ADD1B2" rx="11" ry="11" style="stroke:#181818;stroke-width:1.0;"/><path d="M175.3438,711.9688 C174.4063,711.5313 173.8125,711.3906 172.9375,711.3906 C170.3125,711.3906 168.3125,713.4688 168.3125,716.1875 L168.3125,717.3125 C168.3125,719.8906 170.4219,721.7813 173.3125,721.7813 C174.5313,721.7813 175.6875,721.4844 176.4375,720.9375 C177.0156,720.5313 177.3438,720.0781 177.3438,719.6875 C177.3438,719.2344 176.9531,718.8438 176.4844,718.8438 C176.2656,718.8438 176.0625,718.9219 175.875,719.1094 C175.4219,719.5938 175.4219,719.5938 175.2344,719.6875 C174.8125,719.9531 174.125,720.0781 173.3594,720.0781 C171.3125,720.0781 170.0156,718.9844 170.0156,717.2813 L170.0156,716.1875 C170.0156,714.4063 171.2656,713.0938 173,713.0938 C173.5781,713.0938 174.1875,713.25 174.6563,713.5 C175.1406,713.7813 175.3125,714 175.4063,714.4063 C175.4688,714.8125 175.5,714.9375 175.6406,715.0625 C175.7813,715.2031 176.0156,715.3125 176.2344,715.3125 C176.5,715.3125 176.7656,715.1719 176.9375,714.9531 C177.0469,714.7969 177.0781,714.6094 177.0781,714.1875 L177.0781,712.7656 C177.0781,712.3281 177.0625,712.2031 176.9688,712.0469 C176.8125,711.7813 176.5313,711.6406 176.2344,711.6406 C175.9375,711.6406 175.7344,711.7344 175.5156,712.0469 L175.3438,711.9688 Z " fill="#000000"/><text fill="#000000" font-family="sans-serif" font-size="14" lengthAdjust="spacing" textLength="75" x="187" y="721.1436">asignacion</text><line style="stroke:#181818;stroke-width:0.5;" x1="159" x2="264" y1="732.2969" y2="732.2969"/><line style="stroke:#181818;stroke-width:0.5;" x1="159" x2="264" y1="740.2969" y2="740.2969"/></g><!--class bajas--><g id="elem_bajas"><rect fill="#F1F1F1" height="48" id="bajas" rx="2.5" ry="2.5" style="stroke:#181818;stroke-width:0.5;" width="69" x="336" y="700.2969"/><ellipse cx="351" cy="716.2969" fill="#ADD1B2" rx="11" ry="11" style="stroke:#181818;stroke-width:1.0;"/><path d="M353.3438,711.9688 C352.4063,711.5313 351.8125,711.3906 350.9375,711.3906 C348.3125,711.3906 346.3125,713.4688 346.3125,716.1875 L346.3125,717.3125 C346.3125,719.8906 348.4219,721.7813 351.3125,721.7813 C352.5313,721.7813 353.6875,721.4844 354.4375,720.9375 C355.0156,720.5313 355.3438,720.0781 355.3438,719.6875 C355.3438,719.2344 354.9531,718.8438 354.4844,718.8438 C354.2656,718.8438 354.0625,718.9219 353.875,719.1094 C353.4219,719.5938 353.4219,719.5938 353.2344,719.6875 C352.8125,719.9531 352.125,720.0781 351.3594,720.0781 C349.3125,720.0781 348.0156,718.9844 348.0156,717.2813 L348.0156,716.1875 C348.0156,714.4063 349.2656,713.0938 351,713.0938 C351.5781,713.0938 352.1875,713.25 352.6563,713.5 C353.1406,713.7813 353.3125,714 353.4063,714.4063 C353.4688,714.8125 353.5,714.9375 353.6406,715.0625 C353.7813,715.2031 354.0156,715.3125 354.2344,715.3125 C354.5,715.3125 354.7656,715.1719 354.9375,714.9531 C355.0469,714.7969 355.0781,714.6094 355.0781,714.1875 L355.0781,712.7656 C355.0781,712.3281 355.0625,712.2031 354.9688,712.0469 C354.8125,711.7813 354.5313,711.6406 354.2344,711.6406 C353.9375,711.6406 353.7344,711.7344 353.5156,712.0469 L353.3438,711.9688 Z " fill="#000000"/><text fill="#000000" font-family="sans-serif" font-size="14" lengthAdjust="spacing" textLength="37" x="365" y="721.1436">bajas</text><line style="stroke:#181818;stroke-width:0.5;" x1="337" x2="404" y1="732.2969" y2="732.2969"/><line style="stroke:#181818;stroke-width:0.5;" x1="337" x2="404" y1="740.2969" y2="740.2969"/></g><!--class configuracion--><g id="elem_configuracion"><rect fill="#F1F1F1" height="48" id="configuracion" rx="2.5" ry="2.5" style="stroke:#181818;stroke-width:0.5;" width="129" x="465" y="700.2969"/><ellipse cx="480" cy="716.2969" fill="#ADD1B2" rx="11" ry="11" style="stroke:#181818;stroke-width:1.0;"/><path d="M482.3438,711.9688 C481.4063,711.5313 480.8125,711.3906 479.9375,711.3906 C477.3125,711.3906 475.3125,713.4688 475.3125,716.1875 L475.3125,717.3125 C475.3125,719.8906 477.4219,721.7813 480.3125,721.7813 C481.5313,721.7813 482.6875,721.4844 483.4375,720.9375 C484.0156,720.5313 484.3438,720.0781 484.3438,719.6875 C484.3438,719.2344 483.9531,718.8438 483.4844,718.8438 C483.2656,718.8438 483.0625,718.9219 482.875,719.1094 C482.4219,719.5938 482.4219,719.5938 482.2344,719.6875 C481.8125,719.9531 481.125,720.0781 480.3594,720.0781 C478.3125,720.0781 477.0156,718.9844 477.0156,717.2813 L477.0156,716.1875 C477.0156,714.4063 478.2656,713.0938 480,713.0938 C480.5781,713.0938 481.1875,713.25 481.6563,713.5 C482.1406,713.7813 482.3125,714 482.4063,714.4063 C482.4688,714.8125 482.5,714.9375 482.6406,715.0625 C482.7813,715.2031 483.0156,715.3125 483.2344,715.3125 C483.5,715.3125 483.7656,715.1719 483.9375,714.9531 C484.0469,714.7969 484.0781,714.6094 484.0781,714.1875 L484.0781,712.7656 C484.0781,712.3281 484.0625,712.2031 483.9688,712.0469 C483.8125,711.7813 483.5313,711.6406 483.2344,711.6406 C482.9375,711.6406 482.7344,711.7344 482.5156,712.0469 L482.3438,711.9688 Z " fill="#000000"/><text fill="#000000" font-family="sans-serif" font-size="14" lengthAdjust="spacing" textLength="97" x="494" y="721.1436">configuracion</text><line style="stroke:#181818;stroke-width:0.5;" x1="466" x2="593" y1="732.2969" y2="732.2969"/><line style="stroke:#181818;stroke-width:0.5;" x1="466" x2="593" y1="740.2969" y2="740.2969"/></g><!--class migracion--><g id="elem_migracion"><rect fill="#F1F1F1" height="48" id="migracion" rx="2.5" ry="2.5" style="stroke:#181818;stroke-width:0.5;" width="103" x="637" y="700.2969"/><ellipse cx="652" cy="716.2969" fill="#ADD1B2" rx="11" ry="11" style="stroke:#181818;stroke-width:1.0;"/><path d="M654.3438,711.9688 C653.4063,711.5313 652.8125,711.3906 651.9375,711.3906 C649.3125,711.3906 647.3125,713.4688 647.3125,716.1875 L647.3125,717.3125 C647.3125,719.8906 649.4219,721.7813 652.3125,721.7813 C653.5313,721.7813 654.6875,721.4844 655.4375,720.9375 C656.0156,720.5313 656.3438,720.0781 656.3438,719.6875 C656.3438,719.2344 655.9531,718.8438 655.4844,718.8438 C655.2656,718.8438 655.0625,718.9219 654.875,719.1094 C654.4219,719.5938 654.4219,719.5938 654.2344,719.6875 C653.8125,719.9531 653.125,720.0781 652.3594,720.0781 C650.3125,720.0781 649.0156,718.9844 649.0156,717.2813 L649.0156,716.1875 C649.0156,714.4063 650.2656,713.0938 652,713.0938 C652.5781,713.0938 653.1875,713.25 653.6563,713.5 C654.1406,713.7813 654.3125,714 654.4063,714.4063 C654.4688,714.8125 654.5,714.9375 654.6406,715.0625 C654.7813,715.2031 655.0156,715.3125 655.2344,715.3125 C655.5,715.3125 655.7656,715.1719 655.9375,714.9531 C656.0469,714.7969 656.0781,714.6094 656.0781,714.1875 L656.0781,712.7656 C656.0781,712.3281 656.0625,712.2031 655.9688,712.0469 C655.8125,711.7813 655.5313,711.6406 655.2344,711.6406 C654.9375,711.6406 654.7344,711.7344 654.5156,712.0469 L654.3438,711.9688 Z " fill="#000000"/><text fill="#000000" font-family="sans-serif" font-size="14" lengthAdjust="spacing" textLength="71" x="666" y="721.1436">migracion</text><line style="stroke:#181818;stroke-width:0.5;" x1="638" x2="739" y1="732.2969" y2="732.2969"/><line style="stroke:#181818;stroke-width:0.5;" x1="638" x2="739" y1="740.2969" y2="740.2969"/></g><!--link core to usuario--><g id="link_core_usuario"><path codeLine="4" d="M659.878,80.5359 C681.553,89.3059 709.642,103.2159 729.5,122.2969 C743.226,135.4859 753.658,154.4179 760.421,169.2679 " fill="none" id="core-usuario" style="stroke:#181818;stroke-width:1.0;"/><text fill="#000000" font-family="sans-serif" font-size="13" lengthAdjust="spacing" textLength="99" x="745.5" y="135.3638">Es ocupado por</text></g><!--link core to admin--><g id="link_core_admin"><path codeLine="5" d="M623.771,92.4509 C622.457,101.7059 621.145,112.4799 620.5,122.2969 C617.599,166.4209 620.853,218.0629 623.301,247.2019 " fill="none" id="core-admin" style="stroke:#181818;stroke-width:1.0;"/><text fill="#000000" font-family="sans-serif" font-size="13" lengthAdjust="spacing" textLength="99" x="621.5" y="135.3638">Es ocupado por</text></g><!--link core to developer--><g id="link_core_developer"><path codeLine="6" d="M595.24,75.3479 C568.56,82.1039 531.86,95.7779 511.5,122.2969 C483.412,158.8809 482.213,215.6269 484.148,247.1649 " fill="none" id="core-developer" style="stroke:#181818;stroke-width:1.0;"/><text fill="#000000" font-family="sans-serif" font-size="13" lengthAdjust="spacing" textLength="99" x="512.5" y="135.3638">Es ocupado por</text></g><!--link usuario to funiber--><g id="link_usuario_funiber"><path codeLine="7" d="M769.799,217.3519 C770.176,246.3839 770.821,295.9779 771.199,325.0839 " fill="none" id="usuario-funiber" style="stroke:#181818;stroke-width:1.0;"/><text fill="#000000" font-family="sans-serif" font-size="13" lengthAdjust="spacing" textLength="94" x="772.5" y="275.8638">Los cuales son</text></g><!--link admin to modulo--><g id="link_admin_modulo"><path codeLine="8" d="M625.271,295.3539 C624.886,334.0229 624.115,411.5039 623.73,450.1999 " fill="none" id="admin-modulo" style="stroke:#181818;stroke-width:1.0;"/><text fill="#000000" font-family="sans-serif" font-size="13" lengthAdjust="spacing" textLength="69" x="626.5" y="353.8638">Administra</text></g><!--link developer to modulo--><g id="link_developer_modulo"><path codeLine="9" d="M500.251,295.4939 C512.685,316.1829 531.715,347.1539 549.5,373.2969 C567.844,400.2609 590.294,430.2079 605.623,450.2369 " fill="none" id="developer-modulo" style="stroke:#181818;stroke-width:1.0;"/><text fill="#000000" font-family="sans-serif" font-size="13" lengthAdjust="spacing" textLength="65" x="550.5" y="353.8638">Desarrolla</text></g><!--link funiber to modulo--><g id="link_funiber_modulo"><path codeLine="10" d="M743.662,373.4319 C717.202,395.4229 677.632,428.3089 651.213,450.2649 " fill="none" id="funiber-modulo" style="stroke:#181818;stroke-width:1.0;"/><text fill="#000000" font-family="sans-serif" font-size="13" lengthAdjust="spacing" textLength="41" x="707.5" y="416.3638">Ocupa</text></g><!--link modulo to privado--><g id="link_modulo_privado"><path codeLine="11" d="M587.951,498.4319 C554.16,520.4229 503.627,553.3089 469.89,575.2649 " fill="none" id="modulo-privado" style="stroke:#181818;stroke-width:1.0;"/><text fill="#000000" font-family="sans-serif" font-size="13" lengthAdjust="spacing" textLength="78" x="541.5" y="541.3638">Se divide en</text></g><!--link modulo to publico--><g id="link_modulo_publico"><path codeLine="12" d="M666.32,489.0489 C740.106,512.7449 890.36,560.9989 963.955,584.6339 " fill="none" id="modulo-publico" style="stroke:#181818;stroke-width:1.0;"/><text fill="#000000" font-family="sans-serif" font-size="13" lengthAdjust="spacing" textLength="78" x="839.5" y="541.3638">Se divide en</text></g><!--link publico to login--><g id="link_publico_login"><path codeLine="13" d="M963.999,608.6629 C936.003,616.1309 900.264,629.6669 876.5,653.2969 C863.721,666.0041 856.314,685.158 852.189,700.2195 " fill="none" id="publico-login" style="stroke:#181818;stroke-width:1.0;"/><text fill="#000000" font-family="sans-serif" font-size="13" lengthAdjust="spacing" textLength="117" x="877.5" y="666.3638">permite acceder a</text></g><!--link publico to dashboard--><g id="link_publico_dashboard"><path codeLine="14" d="M1004.69,623.3059 C1003.822,636.9599 1003.056,654.6117 1003.5,670.2969 C1003.776,680.0621 1004.338,690.8272 1004.902,700.09 " fill="none" id="publico-dashboard" style="stroke:#181818;stroke-width:1.0;"/><text fill="#000000" font-family="sans-serif" font-size="13" lengthAdjust="spacing" textLength="117" x="1004.5" y="666.3638">permite acceder a</text></g><!--link publico to docente--><g id="link_publico_docente"><path codeLine="15" d="M1049.19,611.6799 C1074.02,619.9949 1104.62,633.3509 1126.5,653.2969 C1140.48,666.0431 1150.61,685.0023 1157.04,699.9759 " fill="none" id="publico-docente" style="stroke:#181818;stroke-width:1.0;"/><text fill="#000000" font-family="sans-serif" font-size="13" lengthAdjust="spacing" textLength="117" x="1142.5" y="666.3638">permite acceder a</text></g><!--link publico to notificacion--><g id="link_publico_notificacion"><path codeLine="16" d="M1049.18,600.1969 C1103.86,601.9239 1199.77,611.3609 1268.5,653.2969 C1287.1,664.645 1302.1,684.5162 1311.88,700.1944 " fill="none" id="publico-notificacion" style="stroke:#181818;stroke-width:1.0;"/><text fill="#000000" font-family="sans-serif" font-size="13" lengthAdjust="spacing" textLength="117" x="1288.5" y="666.3638">permite acceder a</text></g><!--link privado to permiso--><g id="link_privado_permiso"><path codeLine="17" d="M391.243,602.7949 C311.75,608.0799 146.201,622.5239 98.5,653.2969 C81.3923,664.3333 69.2388,684.2337 61.7373,700.0024 " fill="none" id="privado-permiso" style="stroke:#181818;stroke-width:1.0;"/><text fill="#000000" font-family="sans-serif" font-size="13" lengthAdjust="spacing" textLength="117" x="99.5" y="666.3638">permite acceder a</text></g><!--link privado to asignacion--><g id="link_privado_asignacion"><path codeLine="18" d="M391.163,600.6839 C346.919,603.3819 278.89,614.2279 236.5,653.2969 C223.405,665.366 217.164,684.7643 214.192,700.0828 " fill="none" id="privado-asignacion" style="stroke:#181818;stroke-width:1.0;"/><text fill="#000000" font-family="sans-serif" font-size="13" lengthAdjust="spacing" textLength="117" x="237.5" y="666.3638">permite acceder a</text></g><!--link privado to bajas--><g id="link_privado_bajas"><path codeLine="19" d="M393.505,623.3649 C383.101,631.3899 373.251,641.4159 367.5,653.2969 C360.505,667.7495 361.521,685.9086 364.147,700.1095 " fill="none" id="privado-bajas" style="stroke:#181818;stroke-width:1.0;"/><text fill="#000000" font-family="sans-serif" font-size="13" lengthAdjust="spacing" textLength="117" x="368.5" y="666.3638">permite acceder a</text></g><!--link privado to configuracion--><g id="link_privado_configuracion"><path codeLine="20" d="M462.104,623.3169 C471.738,632.1199 482.204,642.6209 490.5,653.2969 C501.768,667.7969 511.785,685.9546 518.845,700.1429 " fill="none" id="privado-configuracion" style="stroke:#181818;stroke-width:1.0;"/><text fill="#000000" font-family="sans-serif" font-size="13" lengthAdjust="spacing" textLength="117" x="503.5" y="666.3638">permite acceder a</text></g><!--link privado to migracion--><g id="link_privado_migracion"><path codeLine="21" d="M477.807,604.5429 C519.444,610.2809 582.771,623.4819 629.5,653.2969 C648.124,665.18 663.918,684.7958 674.464,700.2438 " fill="none" id="privado-migracion" style="stroke:#181818;stroke-width:1.0;"/><text fill="#000000" font-family="sans-serif" font-size="13" lengthAdjust="spacing" textLength="117" x="650.5" y="666.3638">permite acceder a</text></g><!--SRC=[ZT2_JiGm30RmlKzXTM4wRhyD0Hk8WITm4r_FA8b3dFJvSO-B-2DqTAbQvzTyNt9pgZNhOR_F0LDjCTmwYNkbzqR9qSuppWNZKBa6WcVn50Ji0LuY9nQubqB3qBHXiQ_ThcLmDe83Z8yAubf6Bv2bZ0Dw- -KwyRHOGAPodHrRugcZdctkIHHSmq0AAcaSelWMBgq-qmtThI-ijU1Fy9Ljw84KIv4GVg6UREHbRJGEkV2o5ZilNwYjlX9uNjWJa1N9RGhi_a51vdu_tPknGf4h0Jf7tf8jqgEU9i7YDs5nb6oqWIQfV6I7ZcLJZ_D8BwVgz_0tHUKvVT_ugfxm3NKBT9AEFBUoUUV8ysRy0G00]--></g></svg>