<?xml version="1.0" encoding="us-ascii" standalone="no"?><svg xmlns="http://www.w3.org/2000/svg" xmlns:xlink="http://www.w3.org/1999/xlink" contentStyleType="text/css" height="364px" preserveAspectRatio="none" style="width:338px;height:364px;background:#FFFFFF;" version="1.1" viewBox="0 0 338 364" width="338px" zoomAndPan="magnify"><defs/><g><text fill="#000000" font-family="sans-serif" font-size="14" font-weight="bold" lengthAdjust="spacing" textLength="156" x="84" y="22.9951">Modelo del entorno</text><!--class profesor--><g id="elem_profesor"><rect fill="#F1F1F1" height="48" id="profesor" rx="2.5" ry="2.5" style="stroke:#181818;stroke-width:0.5;" width="94" x="7" y="44.2969"/><ellipse cx="22" cy="60.2969" fill="#ADD1B2" rx="11" ry="11" style="stroke:#181818;stroke-width:1.0;"/><path d="M24.3438,55.9688 C23.4063,55.5313 22.8125,55.3906 21.9375,55.3906 C19.3125,55.3906 17.3125,57.4688 17.3125,60.1875 L17.3125,61.3125 C17.3125,63.8906 19.4219,65.7813 22.3125,65.7813 C23.5313,65.7813 24.6875,65.4844 25.4375,64.9375 C26.0156,64.5313 26.3438,64.0781 26.3438,63.6875 C26.3438,63.2344 25.9531,62.8438 25.4844,62.8438 C25.2656,62.8438 25.0625,62.9219 24.875,63.1094 C24.4219,63.5938 24.4219,63.5938 24.2344,63.6875 C23.8125,63.9531 23.125,64.0781 22.3594,64.0781 C20.3125,64.0781 19.0156,62.9844 19.0156,61.2813 L19.0156,60.1875 C19.0156,58.4063 20.2656,57.0938 22,57.0938 C22.5781,57.0938 23.1875,57.25 23.6563,57.5 C24.1406,57.7813 24.3125,58 24.4063,58.4063 C24.4688,58.8125 24.5,58.9375 24.6406,59.0625 C24.7813,59.2031 25.0156,59.3125 25.2344,59.3125 C25.5,59.3125 25.7656,59.1719 25.9375,58.9531 C26.0469,58.7969 26.0781,58.6094 26.0781,58.1875 L26.0781,56.7656 C26.0781,56.3281 26.0625,56.2031 25.9688,56.0469 C25.8125,55.7813 25.5313,55.6406 25.2344,55.6406 C24.9375,55.6406 24.7344,55.7344 24.5156,56.0469 L24.3438,55.9688 Z " fill="#000000"/><text fill="#000000" font-family="sans-serif" font-size="14" lengthAdjust="spacing" textLength="62" x="36" y="65.1436">profesor</text><line style="stroke:#181818;stroke-width:0.5;" x1="8" x2="100" y1="76.2969" y2="76.2969"/><line style="stroke:#181818;stroke-width:0.5;" x1="8" x2="100" y1="84.2969" y2="84.2969"/></g><!--class core--><g id="elem_core"><rect fill="#F1F1F1" height="48" id="core" rx="2.5" ry="2.5" style="stroke:#181818;stroke-width:0.5;" width="64" x="106" y="169.2969"/><ellipse cx="121" cy="185.2969" fill="#ADD1B2" rx="11" ry="11" style="stroke:#181818;stroke-width:1.0;"/><path d="M123.3438,180.9688 C122.4063,180.5313 121.8125,180.3906 120.9375,180.3906 C118.3125,180.3906 116.3125,182.4688 116.3125,185.1875 L116.3125,186.3125 C116.3125,188.8906 118.4219,190.7813 121.3125,190.7813 C122.5313,190.7813 123.6875,190.4844 124.4375,189.9375 C125.0156,189.5313 125.3438,189.0781 125.3438,188.6875 C125.3438,188.2344 124.9531,187.8438 124.4844,187.8438 C124.2656,187.8438 124.0625,187.9219 123.875,188.1094 C123.4219,188.5938 123.4219,188.5938 123.2344,188.6875 C122.8125,188.9531 122.125,189.0781 121.3594,189.0781 C119.3125,189.0781 118.0156,187.9844 118.0156,186.2813 L118.0156,185.1875 C118.0156,183.4063 119.2656,182.0938 121,182.0938 C121.5781,182.0938 122.1875,182.25 122.6563,182.5 C123.1406,182.7813 123.3125,183 123.4063,183.4063 C123.4688,183.8125 123.5,183.9375 123.6406,184.0625 C123.7813,184.2031 124.0156,184.3125 124.2344,184.3125 C124.5,184.3125 124.7656,184.1719 124.9375,183.9531 C125.0469,183.7969 125.0781,183.6094 125.0781,183.1875 L125.0781,181.7656 C125.0781,181.3281 125.0625,181.2031 124.9688,181.0469 C124.8125,180.7813 124.5313,180.6406 124.2344,180.6406 C123.9375,180.6406 123.7344,180.7344 123.5156,181.0469 L123.3438,180.9688 Z " fill="#000000"/><text fill="#000000" font-family="sans-serif" font-size="14" lengthAdjust="spacing" textLength="32" x="135" y="190.1436">core</text><line style="stroke:#181818;stroke-width:0.5;" x1="107" x2="169" y1="201.2969" y2="201.2969"/><line style="stroke:#181818;stroke-width:0.5;" x1="107" x2="169" y1="209.2969" y2="209.2969"/></g><!--class secretariaAcademica--><g id="elem_secretariaAcademica"><rect fill="#F1F1F1" height="48" id="secretariaAcademica" rx="2.5" ry="2.5" style="stroke:#181818;stroke-width:0.5;" width="182" x="149" y="44.2969"/><ellipse cx="164" cy="60.2969" fill="#ADD1B2" rx="11" ry="11" style="stroke:#181818;stroke-width:1.0;"/><path d="M166.3438,55.9688 C165.4063,55.5313 164.8125,55.3906 163.9375,55.3906 C161.3125,55.3906 159.3125,57.4688 159.3125,60.1875 L159.3125,61.3125 C159.3125,63.8906 161.4219,65.7813 164.3125,65.7813 C165.5313,65.7813 166.6875,65.4844 167.4375,64.9375 C168.0156,64.5313 168.3438,64.0781 168.3438,63.6875 C168.3438,63.2344 167.9531,62.8438 167.4844,62.8438 C167.2656,62.8438 167.0625,62.9219 166.875,63.1094 C166.4219,63.5938 166.4219,63.5938 166.2344,63.6875 C165.8125,63.9531 165.125,64.0781 164.3594,64.0781 C162.3125,64.0781 161.0156,62.9844 161.0156,61.2813 L161.0156,60.1875 C161.0156,58.4063 162.2656,57.0938 164,57.0938 C164.5781,57.0938 165.1875,57.25 165.6563,57.5 C166.1406,57.7813 166.3125,58 166.4063,58.4063 C166.4688,58.8125 166.5,58.9375 166.6406,59.0625 C166.7813,59.2031 167.0156,59.3125 167.2344,59.3125 C167.5,59.3125 167.7656,59.1719 167.9375,58.9531 C168.0469,58.7969 168.0781,58.6094 168.0781,58.1875 L168.0781,56.7656 C168.0781,56.3281 168.0625,56.2031 167.9688,56.0469 C167.8125,55.7813 167.5313,55.6406 167.2344,55.6406 C166.9375,55.6406 166.7344,55.7344 166.5156,56.0469 L166.3438,55.9688 Z " fill="#000000"/><text fill="#000000" font-family="sans-serif" font-size="14" lengthAdjust="spacing" textLength="150" x="178" y="65.1436">secretariaAcademica</text><line style="stroke:#181818;stroke-width:0.5;" x1="150" x2="330" y1="76.2969" y2="76.2969"/><line style="stroke:#181818;stroke-width:0.5;" x1="150" x2="330" y1="84.2969" y2="84.2969"/></g><!--class ticket--><g id="elem_ticket"><rect fill="#F1F1F1" height="48" id="ticket" rx="2.5" ry="2.5" style="stroke:#181818;stroke-width:0.5;" width="76" x="98" y="309.2969"/><ellipse cx="113" cy="325.2969" fill="#ADD1B2" rx="11" ry="11" style="stroke:#181818;stroke-width:1.0;"/><path d="M115.3438,320.9688 C114.4063,320.5313 113.8125,320.3906 112.9375,320.3906 C110.3125,320.3906 108.3125,322.4688 108.3125,325.1875 L108.3125,326.3125 C108.3125,328.8906 110.4219,330.7813 113.3125,330.7813 C114.5313,330.7813 115.6875,330.4844 116.4375,329.9375 C117.0156,329.5313 117.3438,329.0781 117.3438,328.6875 C117.3438,328.2344 116.9531,327.8438 116.4844,327.8438 C116.2656,327.8438 116.0625,327.9219 115.875,328.1094 C115.4219,328.5938 115.4219,328.5938 115.2344,328.6875 C114.8125,328.9531 114.125,329.0781 113.3594,329.0781 C111.3125,329.0781 110.0156,327.9844 110.0156,326.2813 L110.0156,325.1875 C110.0156,323.4063 111.2656,322.0938 113,322.0938 C113.5781,322.0938 114.1875,322.25 114.6563,322.5 C115.1406,322.7813 115.3125,323 115.4063,323.4063 C115.4688,323.8125 115.5,323.9375 115.6406,324.0625 C115.7813,324.2031 116.0156,324.3125 116.2344,324.3125 C116.5,324.3125 116.7656,324.1719 116.9375,323.9531 C117.0469,323.7969 117.0781,323.6094 117.0781,323.1875 L117.0781,321.7656 C117.0781,321.3281 117.0625,321.2031 116.9688,321.0469 C116.8125,320.7813 116.5313,320.6406 116.2344,320.6406 C115.9375,320.6406 115.7344,320.7344 115.5156,321.0469 L115.3438,320.9688 Z " fill="#000000"/><text fill="#000000" font-family="sans-serif" font-size="14" lengthAdjust="spacing" textLength="44" x="127" y="330.1436">ticket</text><line style="stroke:#181818;stroke-width:0.5;" x1="99" x2="173" y1="341.2969" y2="341.2969"/><line style="stroke:#181818;stroke-width:0.5;" x1="99" x2="173" y1="349.2969" y2="349.2969"/></g><!--link profesor to core--><g id="link_profesor_core"><path codeLine="3" d="M60.9364,92.5579 C65.8149,106.7869 73.2195,124.9499 83,139.2969 C90.3946,150.1439 95.8898,156.4545 105.2526,165.1115 " fill="none" id="profesor-to-core" style="stroke:#181818;stroke-width:1.0;"/><polygon fill="#181818" points="109.658,169.1849,105.7654,160.1379,105.9868,165.7904,100.3343,166.0118,109.658,169.1849" style="stroke:#181818;stroke-width:1.0;"/><polygon fill="#000000" points="90.6063,135.1303,88.3995,125.8793,83.3834,128.9432,90.6063,135.1303" style="stroke:#000000;stroke-width:1.0;"/><text fill="#000000" font-family="sans-serif" font-size="13" lengthAdjust="spacing" textLength="37" x="97" y="135.3638">utiliza</text></g><!--link secretariaAcademica to core--><g id="link_secretariaAcademica_core"><path codeLine="4" d="M206.619,92.3299 C195.69,100.9059 184.044,111.2599 175,122.2969 C163.412,136.4379 156.348,149.3108 149.861,163.6718 " fill="none" id="secretariaAcademica-to-core" style="stroke:#181818;stroke-width:1.0;"/><polygon fill="#181818" points="147.391,169.1399,154.7413,162.5845,149.4493,164.5832,147.4506,159.2912,147.391,169.1399" style="stroke:#181818;stroke-width:1.0;"/><polygon fill="#000000" points="176.8871,134.7761,184.8183,129.5275,180.2185,125.8681,176.8871,134.7761" style="stroke:#000000;stroke-width:1.0;"/><text fill="#000000" font-family="sans-serif" font-size="13" lengthAdjust="spacing" textLength="37" x="189" y="135.3638">utiliza</text></g><!--link profesor to ticket--><g id="link_profesor_ticket"><path codeLine="5" d="M47.509,92.3519 C40.2952,122.1139 31.4477,175.0899 46,217.2969 C58.6437,253.9679 88.3216,287.8827 110.156,309.2373 " fill="none" id="profesor-ticket" style="stroke:#181818;stroke-width:1.0;"/><polygon fill="#000000" points="52.3875,198.1669,52.701,188.6615,47.054,190.2926,52.3875,198.1669" style="stroke:#000000;stroke-width:1.0;"/><text fill="#000000" font-family="sans-serif" font-size="13" lengthAdjust="spacing" textLength="28" x="60" y="197.8638">crea</text></g><!--link secretariaAcademica to ticket--><g id="link_secretariaAcademica_ticket"><path codeLine="6" d="M245.839,92.5289 C254.782,133.6439 267.285,220.4289 231,279.2969 C218.415,299.7153 194.936,312.9186 174.47,321.0403 " fill="none" id="secretariaAcademica-ticket" style="stroke:#181818;stroke-width:1.0;"/><polygon fill="#000000" points="258.5094,198.1359,264.0112,190.3783,258.4006,188.626,258.5094,198.1359" style="stroke:#000000;stroke-width:1.0;"/><text fill="#000000" font-family="sans-serif" font-size="13" lengthAdjust="spacing" textLength="28" x="269" y="197.8638">crea</text></g><!--link core to ticket--><g id="link_core_ticket"><path codeLine="7" d="M135.336,217.4829 C134.397,226.7419 133.461,237.5109 133,247.2969 C132.014,268.2416 133.045,292.1034 134.159,309.202 " fill="none" id="core-ticket" style="stroke:#181818;stroke-width:1.0;stroke-dasharray:7.0,7.0;"/><polygon fill="#000000" points="153.9358,260.8629,156.9906,251.8562,151.1132,251.7808,153.9358,260.8629" style="stroke:#000000;stroke-width:1.0;"/><text fill="#000000" font-family="sans-serif" font-size="13" lengthAdjust="spacing" textLength="49" x="162" y="260.3638">registra</text><text fill="#000000" font-family="sans-serif" font-size="13" lengthAdjust="spacing" textLength="92" x="134" y="275.4966">sus errores en</text></g><!--SRC=[TOun3i9030JxlC8TLPAU8X8Fu0SqbcE2nTqvsBw6rtD424L8DBQqEzxruHQn-d4SruGbQau3QHwT7vKBSJyBBeQv2ud4SDQPaq8Rm2NKYdQhwPLT3Vf-0b9ZEC84DIJ94pjdCWuqmHFXp5a8l-2UswL02Dqvtcwx_HVnIstDm_2Hjn-C5_4ml1Il3cpMaBRB2m00]--></g></svg>