<?xml version="1.0" encoding="us-ascii" standalone="no"?><svg xmlns="http://www.w3.org/2000/svg" xmlns:xlink="http://www.w3.org/1999/xlink" contentStyleType="text/css" height="447px" preserveAspectRatio="none" style="width:385px;height:447px;background:#FFFFFF;" version="1.1" viewBox="0 0 385 447" width="385px" zoomAndPan="magnify"><defs/><g><text fill="#000000" font-family="sans-serif" font-size="14" font-weight="bold" lengthAdjust="spacing" textLength="213" x="79" y="22.9951">Modelo del dominio Ticket</text><!--class usuario--><g id="elem_usuario"><rect codeLine="4" fill="#F1F1F1" height="96.8906" id="usuario" rx="2.5" ry="2.5" style="stroke:#181818;stroke-width:0.5;" width="106" x="64" y="44.2969"/><ellipse cx="89.8" cy="60.2969" fill="#ADD1B2" rx="11" ry="11" style="stroke:#181818;stroke-width:1.0;"/><path d="M92.1438,55.9688 C91.2063,55.5313 90.6125,55.3906 89.7375,55.3906 C87.1125,55.3906 85.1125,57.4688 85.1125,60.1875 L85.1125,61.3125 C85.1125,63.8906 87.2219,65.7813 90.1125,65.7813 C91.3313,65.7813 92.4875,65.4844 93.2375,64.9375 C93.8156,64.5313 94.1438,64.0781 94.1438,63.6875 C94.1438,63.2344 93.7531,62.8438 93.2844,62.8438 C93.0656,62.8438 92.8625,62.9219 92.675,63.1094 C92.2219,63.5938 92.2219,63.5938 92.0344,63.6875 C91.6125,63.9531 90.925,64.0781 90.1594,64.0781 C88.1125,64.0781 86.8156,62.9844 86.8156,61.2813 L86.8156,60.1875 C86.8156,58.4063 88.0656,57.0938 89.8,57.0938 C90.3781,57.0938 90.9875,57.25 91.4563,57.5 C91.9406,57.7813 92.1125,58 92.2063,58.4063 C92.2688,58.8125 92.3,58.9375 92.4406,59.0625 C92.5813,59.2031 92.8156,59.3125 93.0344,59.3125 C93.3,59.3125 93.5656,59.1719 93.7375,58.9531 C93.8469,58.7969 93.8781,58.6094 93.8781,58.1875 L93.8781,56.7656 C93.8781,56.3281 93.8625,56.2031 93.7688,56.0469 C93.6125,55.7813 93.3313,55.6406 93.0344,55.6406 C92.7375,55.6406 92.5344,55.7344 92.3156,56.0469 L92.1438,55.9688 Z " fill="#000000"/><text fill="#000000" font-family="sans-serif" font-size="14" lengthAdjust="spacing" textLength="50" x="106.2" y="65.1436">usuario</text><line style="stroke:#181818;stroke-width:0.5;" x1="65" x2="169" y1="76.2969" y2="76.2969"/><ellipse cx="75" cy="89.9453" fill="none" rx="3" ry="3" style="stroke:#038048;stroke-width:1.0;"/><text fill="#000000" font-family="sans-serif" font-size="14" lengthAdjust="spacing" textLength="50" x="84" y="93.292">usuario</text><ellipse cx="75" cy="106.2422" fill="none" rx="3" ry="3" style="stroke:#038048;stroke-width:1.0;"/><text fill="#000000" font-family="sans-serif" font-size="14" lengthAdjust="spacing" textLength="80" x="84" y="109.5889">contrase&#241;a</text><ellipse cx="75" cy="122.5391" fill="none" rx="3" ry="3" style="stroke:#038048;stroke-width:1.0;"/><text fill="#000000" font-family="sans-serif" font-size="14" lengthAdjust="spacing" textLength="47" x="84" y="125.8857">correo</text><line style="stroke:#181818;stroke-width:0.5;" x1="65" x2="169" y1="133.1875" y2="133.1875"/></g><!--class rol--><g id="elem_rol"><rect codeLine="10" fill="#F1F1F1" height="64.2969" id="rol" rx="2.5" ry="2.5" style="stroke:#181818;stroke-width:0.5;" width="56" x="52" y="218.7969"/><ellipse cx="69.25" cy="234.7969" fill="#ADD1B2" rx="11" ry="11" style="stroke:#181818;stroke-width:1.0;"/><path d="M71.5938,230.4688 C70.6563,230.0313 70.0625,229.8906 69.1875,229.8906 C66.5625,229.8906 64.5625,231.9688 64.5625,234.6875 L64.5625,235.8125 C64.5625,238.3906 66.6719,240.2813 69.5625,240.2813 C70.7813,240.2813 71.9375,239.9844 72.6875,239.4375 C73.2656,239.0313 73.5938,238.5781 73.5938,238.1875 C73.5938,237.7344 73.2031,237.3438 72.7344,237.3438 C72.5156,237.3438 72.3125,237.4219 72.125,237.6094 C71.6719,238.0938 71.6719,238.0938 71.4844,238.1875 C71.0625,238.4531 70.375,238.5781 69.6094,238.5781 C67.5625,238.5781 66.2656,237.4844 66.2656,235.7813 L66.2656,234.6875 C66.2656,232.9063 67.5156,231.5938 69.25,231.5938 C69.8281,231.5938 70.4375,231.75 70.9063,232 C71.3906,232.2813 71.5625,232.5 71.6563,232.9063 C71.7188,233.3125 71.75,233.4375 71.8906,233.5625 C72.0313,233.7031 72.2656,233.8125 72.4844,233.8125 C72.75,233.8125 73.0156,233.6719 73.1875,233.4531 C73.2969,233.2969 73.3281,233.1094 73.3281,232.6875 L73.3281,231.2656 C73.3281,230.8281 73.3125,230.7031 73.2188,230.5469 C73.0625,230.2813 72.7813,230.1406 72.4844,230.1406 C72.1875,230.1406 71.9844,230.2344 71.7656,230.5469 L71.5938,230.4688 Z " fill="#000000"/><text fill="#000000" font-family="sans-serif" font-size="14" lengthAdjust="spacing" textLength="19" x="83.75" y="239.6436">rol</text><line style="stroke:#181818;stroke-width:0.5;" x1="53" x2="107" y1="250.7969" y2="250.7969"/><ellipse cx="63" cy="264.4453" fill="none" rx="3" ry="3" style="stroke:#038048;stroke-width:1.0;"/><text fill="#000000" font-family="sans-serif" font-size="14" lengthAdjust="spacing" textLength="30" x="72" y="267.792">tipo</text><line style="stroke:#181818;stroke-width:0.5;" x1="53" x2="107" y1="275.0938" y2="275.0938"/></g><!--class ticket--><g id="elem_ticket"><rect codeLine="14" fill="#F1F1F1" height="96.8906" id="ticket" rx="2.5" ry="2.5" style="stroke:#181818;stroke-width:0.5;" width="87" x="143.5" y="202.2969"/><ellipse cx="163.45" cy="218.2969" fill="#ADD1B2" rx="11" ry="11" style="stroke:#181818;stroke-width:1.0;"/><path d="M165.7938,213.9688 C164.8563,213.5313 164.2625,213.3906 163.3875,213.3906 C160.7625,213.3906 158.7625,215.4688 158.7625,218.1875 L158.7625,219.3125 C158.7625,221.8906 160.8719,223.7813 163.7625,223.7813 C164.9813,223.7813 166.1375,223.4844 166.8875,222.9375 C167.4656,222.5313 167.7938,222.0781 167.7938,221.6875 C167.7938,221.2344 167.4031,220.8438 166.9344,220.8438 C166.7156,220.8438 166.5125,220.9219 166.325,221.1094 C165.8719,221.5938 165.8719,221.5938 165.6844,221.6875 C165.2625,221.9531 164.575,222.0781 163.8094,222.0781 C161.7625,222.0781 160.4656,220.9844 160.4656,219.2813 L160.4656,218.1875 C160.4656,216.4063 161.7156,215.0938 163.45,215.0938 C164.0281,215.0938 164.6375,215.25 165.1063,215.5 C165.5906,215.7813 165.7625,216 165.8563,216.4063 C165.9188,216.8125 165.95,216.9375 166.0906,217.0625 C166.2313,217.2031 166.4656,217.3125 166.6844,217.3125 C166.95,217.3125 167.2156,217.1719 167.3875,216.9531 C167.4969,216.7969 167.5281,216.6094 167.5281,216.1875 L167.5281,214.7656 C167.5281,214.3281 167.5125,214.2031 167.4188,214.0469 C167.2625,213.7813 166.9813,213.6406 166.6844,213.6406 C166.3875,213.6406 166.1844,213.7344 165.9656,214.0469 L165.7938,213.9688 Z " fill="#000000"/><text fill="#000000" font-family="sans-serif" font-size="14" lengthAdjust="spacing" textLength="44" x="178.55" y="223.1436">ticket</text><line style="stroke:#181818;stroke-width:0.5;" x1="144.5" x2="229.5" y1="234.2969" y2="234.2969"/><ellipse cx="154.5" cy="247.9453" fill="none" rx="3" ry="3" style="stroke:#038048;stroke-width:1.0;"/><text fill="#000000" font-family="sans-serif" font-size="14" lengthAdjust="spacing" textLength="61" x="163.5" y="251.292">etiqueta</text><ellipse cx="154.5" cy="264.2422" fill="none" rx="3" ry="3" style="stroke:#038048;stroke-width:1.0;"/><text fill="#000000" font-family="sans-serif" font-size="14" lengthAdjust="spacing" textLength="40" x="163.5" y="267.5889">fecha</text><ellipse cx="154.5" cy="280.5391" fill="none" rx="3" ry="3" style="stroke:#038048;stroke-width:1.0;"/><text fill="#000000" font-family="sans-serif" font-size="14" lengthAdjust="spacing" textLength="49" x="163.5" y="283.8857">estado</text><line style="stroke:#181818;stroke-width:0.5;" x1="144.5" x2="229.5" y1="291.1875" y2="291.1875"/></g><!--class historial--><g id="elem_historial"><rect codeLine="20" fill="#F1F1F1" height="64.2969" id="historial" rx="2.5" ry="2.5" style="stroke:#181818;stroke-width:0.5;" width="90" x="7" y="376.2969"/><ellipse cx="22" cy="392.2969" fill="#ADD1B2" rx="11" ry="11" style="stroke:#181818;stroke-width:1.0;"/><path d="M24.3438,387.9688 C23.4063,387.5313 22.8125,387.3906 21.9375,387.3906 C19.3125,387.3906 17.3125,389.4688 17.3125,392.1875 L17.3125,393.3125 C17.3125,395.8906 19.4219,397.7813 22.3125,397.7813 C23.5313,397.7813 24.6875,397.4844 25.4375,396.9375 C26.0156,396.5313 26.3438,396.0781 26.3438,395.6875 C26.3438,395.2344 25.9531,394.8438 25.4844,394.8438 C25.2656,394.8438 25.0625,394.9219 24.875,395.1094 C24.4219,395.5938 24.4219,395.5938 24.2344,395.6875 C23.8125,395.9531 23.125,396.0781 22.3594,396.0781 C20.3125,396.0781 19.0156,394.9844 19.0156,393.2813 L19.0156,392.1875 C19.0156,390.4063 20.2656,389.0938 22,389.0938 C22.5781,389.0938 23.1875,389.25 23.6563,389.5 C24.1406,389.7813 24.3125,390 24.4063,390.4063 C24.4688,390.8125 24.5,390.9375 24.6406,391.0625 C24.7813,391.2031 25.0156,391.3125 25.2344,391.3125 C25.5,391.3125 25.7656,391.1719 25.9375,390.9531 C26.0469,390.7969 26.0781,390.6094 26.0781,390.1875 L26.0781,388.7656 C26.0781,388.3281 26.0625,388.2031 25.9688,388.0469 C25.8125,387.7813 25.5313,387.6406 25.2344,387.6406 C24.9375,387.6406 24.7344,387.7344 24.5156,388.0469 L24.3438,387.9688 Z " fill="#000000"/><text fill="#000000" font-family="sans-serif" font-size="14" lengthAdjust="spacing" textLength="58" x="36" y="397.1436">historial</text><line style="stroke:#181818;stroke-width:0.5;" x1="8" x2="96" y1="408.2969" y2="408.2969"/><ellipse cx="18" cy="421.9453" fill="none" rx="3" ry="3" style="stroke:#038048;stroke-width:1.0;"/><text fill="#000000" font-family="sans-serif" font-size="14" lengthAdjust="spacing" textLength="40" x="27" y="425.292">fecha</text><line style="stroke:#181818;stroke-width:0.5;" x1="8" x2="96" y1="432.5938" y2="432.5938"/></g><!--class informe--><g id="elem_informe"><rect codeLine="24" fill="#F1F1F1" height="64.2969" id="informe" rx="2.5" ry="2.5" style="stroke:#181818;stroke-width:0.5;" width="109" x="132.5" y="376.2969"/><ellipse cx="156.5" cy="392.2969" fill="#ADD1B2" rx="11" ry="11" style="stroke:#181818;stroke-width:1.0;"/><path d="M158.8438,387.9688 C157.9063,387.5313 157.3125,387.3906 156.4375,387.3906 C153.8125,387.3906 151.8125,389.4688 151.8125,392.1875 L151.8125,393.3125 C151.8125,395.8906 153.9219,397.7813 156.8125,397.7813 C158.0313,397.7813 159.1875,397.4844 159.9375,396.9375 C160.5156,396.5313 160.8438,396.0781 160.8438,395.6875 C160.8438,395.2344 160.4531,394.8438 159.9844,394.8438 C159.7656,394.8438 159.5625,394.9219 159.375,395.1094 C158.9219,395.5938 158.9219,395.5938 158.7344,395.6875 C158.3125,395.9531 157.625,396.0781 156.8594,396.0781 C154.8125,396.0781 153.5156,394.9844 153.5156,393.2813 L153.5156,392.1875 C153.5156,390.4063 154.7656,389.0938 156.5,389.0938 C157.0781,389.0938 157.6875,389.25 158.1563,389.5 C158.6406,389.7813 158.8125,390 158.9063,390.4063 C158.9688,390.8125 159,390.9375 159.1406,391.0625 C159.2813,391.2031 159.5156,391.3125 159.7344,391.3125 C160,391.3125 160.2656,391.1719 160.4375,390.9531 C160.5469,390.7969 160.5781,390.6094 160.5781,390.1875 L160.5781,388.7656 C160.5781,388.3281 160.5625,388.2031 160.4688,388.0469 C160.3125,387.7813 160.0313,387.6406 159.7344,387.6406 C159.4375,387.6406 159.2344,387.7344 159.0156,388.0469 L158.8438,387.9688 Z " fill="#000000"/><text fill="#000000" font-family="sans-serif" font-size="14" lengthAdjust="spacing" textLength="57" x="172.5" y="397.1436">informe</text><line style="stroke:#181818;stroke-width:0.5;" x1="133.5" x2="240.5" y1="408.2969" y2="408.2969"/><ellipse cx="143.5" cy="421.9453" fill="none" rx="3" ry="3" style="stroke:#038048;stroke-width:1.0;"/><text fill="#000000" font-family="sans-serif" font-size="14" lengthAdjust="spacing" textLength="83" x="152.5" y="425.292">descripcion</text><line style="stroke:#181818;stroke-width:0.5;" x1="133.5" x2="240.5" y1="432.5938" y2="432.5938"/></g><!--class proyecto--><g id="elem_proyecto"><rect codeLine="28" fill="#F1F1F1" height="48" id="proyecto" rx="2.5" ry="2.5" style="stroke:#181818;stroke-width:0.5;" width="98" x="280" y="384.2969"/><ellipse cx="295" cy="400.2969" fill="#ADD1B2" rx="11" ry="11" style="stroke:#181818;stroke-width:1.0;"/><path d="M297.3438,395.9688 C296.4063,395.5313 295.8125,395.3906 294.9375,395.3906 C292.3125,395.3906 290.3125,397.4688 290.3125,400.1875 L290.3125,401.3125 C290.3125,403.8906 292.4219,405.7813 295.3125,405.7813 C296.5313,405.7813 297.6875,405.4844 298.4375,404.9375 C299.0156,404.5313 299.3438,404.0781 299.3438,403.6875 C299.3438,403.2344 298.9531,402.8438 298.4844,402.8438 C298.2656,402.8438 298.0625,402.9219 297.875,403.1094 C297.4219,403.5938 297.4219,403.5938 297.2344,403.6875 C296.8125,403.9531 296.125,404.0781 295.3594,404.0781 C293.3125,404.0781 292.0156,402.9844 292.0156,401.2813 L292.0156,400.1875 C292.0156,398.4063 293.2656,397.0938 295,397.0938 C295.5781,397.0938 296.1875,397.25 296.6563,397.5 C297.1406,397.7813 297.3125,398 297.4063,398.4063 C297.4688,398.8125 297.5,398.9375 297.6406,399.0625 C297.7813,399.2031 298.0156,399.3125 298.2344,399.3125 C298.5,399.3125 298.7656,399.1719 298.9375,398.9531 C299.0469,398.7969 299.0781,398.6094 299.0781,398.1875 L299.0781,396.7656 C299.0781,396.3281 299.0625,396.2031 298.9688,396.0469 C298.8125,395.7813 298.5313,395.6406 298.2344,395.6406 C297.9375,395.6406 297.7344,395.7344 297.5156,396.0469 L297.3438,395.9688 Z " fill="#000000"/><text fill="#000000" font-family="sans-serif" font-size="14" lengthAdjust="spacing" textLength="66" x="309" y="405.1436">proyecto</text><line style="stroke:#181818;stroke-width:0.5;" x1="281" x2="377" y1="416.2969" y2="416.2969"/><line style="stroke:#181818;stroke-width:0.5;" x1="281" x2="377" y1="424.2969" y2="424.2969"/></g><!--reverse link usuario to rol--><g id="link_usuario_rol"><path codeLine="30" d="M102.9284,153.126 C96.9779,178.215 92.6196,196.5899 87.3819,218.6729 " fill="none" id="usuario-backto-rol" style="stroke:#181818;stroke-width:1.0;"/><polygon fill="#181818" points="105.6977,141.4499,100.421,146.3648,102.9284,153.126,108.2051,148.211,105.6977,141.4499" style="stroke:#181818;stroke-width:1.0;"/></g><!--link usuario to ticket--><g id="link_usuario_ticket"><path codeLine="31" d="M138.383,141.4499 C147.027,160.7139 156.984,182.9049 165.628,202.1669 " fill="none" id="usuario-ticket" style="stroke:#181818;stroke-width:1.0;"/></g><!--link ticket to proyecto--><g id="link_ticket_proyecto"><path codeLine="32" d="M230.792,270.3439 C256.492,283.3319 287.625,303.0629 307,329.2969 C318.87,345.3683 324.34,367.6094 326.859,384.2309 " fill="none" id="ticket-proyecto" style="stroke:#181818;stroke-width:1.0;stroke-dasharray:7.0,7.0;"/></g><!--reverse link ticket to historial--><g id="link_ticket_historial"><path codeLine="33" d="M137.8951,308.3584 C116.1841,333.3664 98.0443,354.2606 78.9341,376.2728 " fill="none" id="ticket-backto-historial" style="stroke:#181818;stroke-width:1.0;"/><polygon fill="#181818" points="145.762,299.2969,138.808,301.2054,137.8951,308.3584,144.8491,306.45,145.762,299.2969" style="stroke:#181818;stroke-width:1.0;"/></g><!--link ticket to informe--><g id="link_ticket_informe"><path codeLine="35" d="M184.444,299.3829 C183.918,314.3919 183.625,331.0359 184,346.2969 C184.24,356.0488 184.695,366.6697 185.179,376.2755 " fill="none" id="ticket-informe" style="stroke:#181818;stroke-width:1.0;"/><polygon fill="#000000" points="189.0478,342.8631,191.9001,333.7903,186.0225,333.8465,189.0478,342.8631" style="stroke:#000000;stroke-width:1.0;"/><text fill="#000000" font-family="sans-serif" font-size="13" lengthAdjust="spacing" textLength="104" x="198" y="342.3638">permite generar</text></g><!--SRC=[JKynSWCX3EnvXRhCECDTxo8_I9SFC23xD054XAxmUFAel24Vozd0NIY0tTKkoykYMkfvdajqMTSK9yzfhlYrOlPe0xchk6IKD2AySy38i6qGE54cXW_odwZ6-EXgXRMkJeZlO61Rhnqsu3chk8g_FsuG8iW0vdlOXUEmAXK-17s-ScyIActjjATSq2_zYbLTu7zv2rLb8RUdjk5TftnXIJZKWDKB5K-SZvaYV4ElR4p_3PoiVJJTyGPRFzCEcAR3rQc7PszZ1ck37HtW36zGK18fmXKpYfC_]--></g></svg>