<?xml version="1.0" encoding="us-ascii" standalone="no"?><svg xmlns="http://www.w3.org/2000/svg" xmlns:xlink="http://www.w3.org/1999/xlink" contentStyleType="text/css" height="235px" preserveAspectRatio="none" style="width:337px;height:235px;background:#FFFFFF;" version="1.1" viewBox="0 0 337 235" width="337px" zoomAndPan="magnify"><defs/><g><!--class SistemaAsignacionAulas--><g id="elem_SistemaAsignacionAulas"><rect codeLine="1" fill="#F1F1F1" height="80.5938" id="SistemaAsignacionAulas" rx="2.5" ry="2.5" style="stroke:#181818;stroke-width:0.5;" width="204" x="44.5" y="7"/><ellipse cx="59.5" cy="23" fill="#ADD1B2" rx="11" ry="11" style="stroke:#181818;stroke-width:1.0;"/><path d="M61.8438,18.6719 C60.9063,18.2344 60.3125,18.0938 59.4375,18.0938 C56.8125,18.0938 54.8125,20.1719 54.8125,22.8906 L54.8125,24.0156 C54.8125,26.5938 56.9219,28.4844 59.8125,28.4844 C61.0313,28.4844 62.1875,28.1875 62.9375,27.6406 C63.5156,27.2344 63.8438,26.7813 63.8438,26.3906 C63.8438,25.9375 63.4531,25.5469 62.9844,25.5469 C62.7656,25.5469 62.5625,25.625 62.375,25.8125 C61.9219,26.2969 61.9219,26.2969 61.7344,26.3906 C61.3125,26.6563 60.625,26.7813 59.8594,26.7813 C57.8125,26.7813 56.5156,25.6875 56.5156,23.9844 L56.5156,22.8906 C56.5156,21.1094 57.7656,19.7969 59.5,19.7969 C60.0781,19.7969 60.6875,19.9531 61.1563,20.2031 C61.6406,20.4844 61.8125,20.7031 61.9063,21.1094 C61.9688,21.5156 62,21.6406 62.1406,21.7656 C62.2813,21.9063 62.5156,22.0156 62.7344,22.0156 C63,22.0156 63.2656,21.875 63.4375,21.6563 C63.5469,21.5 63.5781,21.3125 63.5781,20.8906 L63.5781,19.4688 C63.5781,19.0313 63.5625,18.9063 63.4688,18.75 C63.3125,18.4844 63.0313,18.3438 62.7344,18.3438 C62.4375,18.3438 62.2344,18.4375 62.0156,18.75 L61.8438,18.6719 Z " fill="#000000"/><text fill="#000000" font-family="sans-serif" font-size="14" lengthAdjust="spacing" textLength="172" x="73.5" y="27.8467">SistemaAsignacionAulas</text><line style="stroke:#181818;stroke-width:0.5;" x1="45.5" x2="247.5" y1="39" y2="39"/><rect fill="none" height="6" style="stroke:#C82930;stroke-width:1.0;" width="6" x="52.5" y="49.6484"/><text fill="#000000" font-family="sans-serif" font-size="14" lengthAdjust="spacing" textLength="35" x="64.5" y="55.9951">aulas</text><rect fill="none" height="6" style="stroke:#C82930;stroke-width:1.0;" width="6" x="52.5" y="65.9453"/><text fill="#000000" font-family="sans-serif" font-size="14" lengthAdjust="spacing" textLength="106" x="64.5" y="72.292">aulasAsignadas</text><line style="stroke:#181818;stroke-width:0.5;" x1="45.5" x2="247.5" y1="79.5938" y2="79.5938"/></g><!--class Aula--><g id="elem_Aula"><rect codeLine="6" fill="#F1F1F1" height="80.5938" id="Aula" rx="2.5" ry="2.5" style="stroke:#181818;stroke-width:0.5;" width="101" x="7" y="148"/><ellipse cx="39.55" cy="164" fill="#ADD1B2" rx="11" ry="11" style="stroke:#181818;stroke-width:1.0;"/><path d="M41.8938,159.6719 C40.9563,159.2344 40.3625,159.0938 39.4875,159.0938 C36.8625,159.0938 34.8625,161.1719 34.8625,163.8906 L34.8625,165.0156 C34.8625,167.5938 36.9719,169.4844 39.8625,169.4844 C41.0813,169.4844 42.2375,169.1875 42.9875,168.6406 C43.5656,168.2344 43.8938,167.7813 43.8938,167.3906 C43.8938,166.9375 43.5031,166.5469 43.0344,166.5469 C42.8156,166.5469 42.6125,166.625 42.425,166.8125 C41.9719,167.2969 41.9719,167.2969 41.7844,167.3906 C41.3625,167.6563 40.675,167.7813 39.9094,167.7813 C37.8625,167.7813 36.5656,166.6875 36.5656,164.9844 L36.5656,163.8906 C36.5656,162.1094 37.8156,160.7969 39.55,160.7969 C40.1281,160.7969 40.7375,160.9531 41.2063,161.2031 C41.6906,161.4844 41.8625,161.7031 41.9563,162.1094 C42.0188,162.5156 42.05,162.6406 42.1906,162.7656 C42.3313,162.9063 42.5656,163.0156 42.7844,163.0156 C43.05,163.0156 43.3156,162.875 43.4875,162.6563 C43.5969,162.5 43.6281,162.3125 43.6281,161.8906 L43.6281,160.4688 C43.6281,160.0313 43.6125,159.9063 43.5188,159.75 C43.3625,159.4844 43.0813,159.3438 42.7844,159.3438 C42.4875,159.3438 42.2844,159.4375 42.0656,159.75 L41.8938,159.6719 Z " fill="#000000"/><text fill="#000000" font-family="sans-serif" font-size="14" lengthAdjust="spacing" textLength="30" x="57.45" y="168.8467">Aula</text><line style="stroke:#181818;stroke-width:0.5;" x1="8" x2="107" y1="180" y2="180"/><rect fill="none" height="6" style="stroke:#C82930;stroke-width:1.0;" width="6" x="15" y="190.6484"/><text fill="#000000" font-family="sans-serif" font-size="14" lengthAdjust="spacing" textLength="57" x="27" y="196.9951">nombre</text><rect fill="none" height="6" style="stroke:#C82930;stroke-width:1.0;" width="6" x="15" y="206.9453"/><text fill="#000000" font-family="sans-serif" font-size="14" lengthAdjust="spacing" textLength="75" x="27" y="213.292">disponible</text><line style="stroke:#181818;stroke-width:0.5;" x1="8" x2="107" y1="220.5938" y2="220.5938"/></g><!--class AsignadorDeAulas--><g id="elem_AsignadorDeAulas"><rect codeLine="11" fill="#F1F1F1" height="80.5938" id="AsignadorDeAulas" rx="2.5" ry="2.5" style="stroke:#181818;stroke-width:0.5;" width="187" x="143" y="148"/><ellipse cx="170.15" cy="164" fill="#ADD1B2" rx="11" ry="11" style="stroke:#181818;stroke-width:1.0;"/><path d="M172.4938,159.6719 C171.5563,159.2344 170.9625,159.0938 170.0875,159.0938 C167.4625,159.0938 165.4625,161.1719 165.4625,163.8906 L165.4625,165.0156 C165.4625,167.5938 167.5719,169.4844 170.4625,169.4844 C171.6813,169.4844 172.8375,169.1875 173.5875,168.6406 C174.1656,168.2344 174.4938,167.7813 174.4938,167.3906 C174.4938,166.9375 174.1031,166.5469 173.6344,166.5469 C173.4156,166.5469 173.2125,166.625 173.025,166.8125 C172.5719,167.2969 172.5719,167.2969 172.3844,167.3906 C171.9625,167.6563 171.275,167.7813 170.5094,167.7813 C168.4625,167.7813 167.1656,166.6875 167.1656,164.9844 L167.1656,163.8906 C167.1656,162.1094 168.4156,160.7969 170.15,160.7969 C170.7281,160.7969 171.3375,160.9531 171.8063,161.2031 C172.2906,161.4844 172.4625,161.7031 172.5563,162.1094 C172.6188,162.5156 172.65,162.6406 172.7906,162.7656 C172.9313,162.9063 173.1656,163.0156 173.3844,163.0156 C173.65,163.0156 173.9156,162.875 174.0875,162.6563 C174.1969,162.5 174.2281,162.3125 174.2281,161.8906 L174.2281,160.4688 C174.2281,160.0313 174.2125,159.9063 174.1188,159.75 C173.9625,159.4844 173.6813,159.3438 173.3844,159.3438 C173.0875,159.3438 172.8844,159.4375 172.6656,159.75 L172.4938,159.6719 Z " fill="#000000"/><text fill="#000000" font-family="sans-serif" font-size="14" lengthAdjust="spacing" textLength="128" x="186.85" y="168.8467">AsignadorDeAulas</text><line style="stroke:#181818;stroke-width:0.5;" x1="144" x2="329" y1="180" y2="180"/><ellipse cx="154" cy="193.6484" fill="none" rx="3" ry="3" style="stroke:#038048;stroke-width:1.0;"/><text fill="#000000" font-family="sans-serif" font-size="14" lengthAdjust="spacing" textLength="88" x="163" y="196.9951">asignarAulas</text><ellipse cx="154" cy="209.9453" fill="none" rx="3" ry="3" style="stroke:#038048;stroke-width:1.0;"/><text fill="#000000" font-family="sans-serif" font-size="14" lengthAdjust="spacing" textLength="161" x="163" y="213.292">verificarDisponibilidad</text><line style="stroke:#181818;stroke-width:0.5;" x1="144" x2="329" y1="220.5938" y2="220.5938"/></g><!--link SistemaAsignacionAulas to Aula--><g id="link_SistemaAsignacionAulas_Aula"><path codeLine="16" d="M120.996,88.332 C109.079,106.944 98.1602,123.9969 86.2429,142.6094 " fill="none" id="SistemaAsignacionAulas-to-Aula" style="stroke:#181818;stroke-width:1.0;"/><polygon fill="#181818" points="83.0076,147.6624,91.2293,142.2398,85.7037,143.4516,84.492,137.926,83.0076,147.6624" style="stroke:#181818;stroke-width:1.0;"/></g><!--link SistemaAsignacionAulas to AsignadorDeAulas--><g id="link_SistemaAsignacionAulas_AsignadorDeAulas"><path codeLine="17" d="M172.29,88.332 C184.341,106.944 195.394,124.0134 207.445,142.6259 " fill="none" id="SistemaAsignacionAulas-to-AsignadorDeAulas" style="stroke:#181818;stroke-width:1.0;"/><polygon fill="#181818" points="210.706,147.6624,209.1722,137.9337,207.9885,143.4653,202.4569,142.2817,210.706,147.6624" style="stroke:#181818;stroke-width:1.0;"/></g><!--SRC=[VKxB2SCm3Brx2js3LoWOia4dK6or21oxI4al9Rl7ZaCmXLOdwUdzV4HLkBCkDADJVYRqd9DR2muV0sKiOBtwlH530JTZ_65H5PSWvNaIEe_0-ig9fqWTknba6QcF6W2FXxWhSO0t2J_Oeuod4KSE6AhPZzvWxGrQex-KxnOx]--></g></svg>