<?xml version="1.0" encoding="us-ascii" standalone="no"?><svg xmlns="http://www.w3.org/2000/svg" xmlns:xlink="http://www.w3.org/1999/xlink" contentStyleType="text/css" height="877px" preserveAspectRatio="none" style="width:468px;height:877px;background:#FFFFFF;" version="1.1" viewBox="0 0 468 877" width="468px" zoomAndPan="magnify"><defs/><g><ellipse cx="103.5" cy="16" fill="#222222" rx="10" ry="10" style="stroke:#222222;stroke-width:1.0;"/><g id="AulasNoRecibidas"><rect fill="#F1F1F1" height="50" rx="12.5" ry="12.5" style="stroke:#181818;stroke-width:0.5;" width="145" x="31" y="103"/><line style="stroke:#181818;stroke-width:0.5;" x1="31" x2="176" y1="129.2969" y2="129.2969"/><text fill="#000000" font-family="sans-serif" font-size="14" lengthAdjust="spacing" textLength="125" x="41" y="120.9951">AulasNoRecibidas</text></g><g id="AulasRecibidas"><rect fill="#F1F1F1" height="50" rx="12.5" ry="12.5" style="stroke:#181818;stroke-width:0.5;" width="126" x="40.5" y="230"/><line style="stroke:#181818;stroke-width:0.5;" x1="40.5" x2="166.5" y1="256.2969" y2="256.2969"/><text fill="#000000" font-family="sans-serif" font-size="14" lengthAdjust="spacing" textLength="106" x="50.5" y="247.9951">AulasRecibidas</text></g><g id="VerificacionAulas"><rect fill="#F1F1F1" height="50" rx="12.5" ry="12.5" style="stroke:#181818;stroke-width:0.5;" width="142" x="32.5" y="357"/><line style="stroke:#181818;stroke-width:0.5;" x1="32.5" x2="174.5" y1="383.2969" y2="383.2969"/><text fill="#000000" font-family="sans-serif" font-size="14" lengthAdjust="spacing" textLength="122" x="42.5" y="374.9951">VerificacionAulas</text></g><g id="AsignandoAulas"><rect fill="#F1F1F1" height="50" rx="12.5" ry="12.5" style="stroke:#181818;stroke-width:0.5;" width="131" x="38" y="484"/><line style="stroke:#181818;stroke-width:0.5;" x1="38" x2="169" y1="510.2969" y2="510.2969"/><text fill="#000000" font-family="sans-serif" font-size="14" lengthAdjust="spacing" textLength="111" x="48" y="501.9951">AsignandoAulas</text></g><g id="TodasLasAulasAsignadas"><rect fill="#F1F1F1" height="50" rx="12.5" ry="12.5" style="stroke:#181818;stroke-width:0.5;" width="193" x="7" y="738"/><line style="stroke:#181818;stroke-width:0.5;" x1="7" x2="200" y1="764.2969" y2="764.2969"/><text fill="#000000" font-family="sans-serif" font-size="14" lengthAdjust="spacing" textLength="173" x="17" y="755.9951">TodasLasAulasAsignadas</text></g><g id="AulasNoAsignadas"><rect fill="#F1F1F1" height="50" rx="12.5" ry="12.5" style="stroke:#181818;stroke-width:0.5;" width="147" x="281" y="611"/><line style="stroke:#181818;stroke-width:0.5;" x1="281" x2="428" y1="637.2969" y2="637.2969"/><text fill="#000000" font-family="sans-serif" font-size="14" lengthAdjust="spacing" textLength="127" x="291" y="628.9951">AulasNoAsignadas</text></g><ellipse cx="103.5" cy="860" fill="none" rx="11" ry="11" style="stroke:#222222;stroke-width:1.0;"/><ellipse cx="103.5" cy="860" fill="#222222" rx="6" ry="6" style="stroke:#222222;stroke-width:1.0;"/><!--link *start* to AulasNoRecibidas--><g id="link_*start*_AulasNoRecibidas"><path d="M103.5,26.002 C103.5,42.627 103.5,72.655 103.5,96.873 " fill="none" id="*start*-to-AulasNoRecibidas" style="stroke:#181818;stroke-width:1.0;"/><polygon fill="#181818" points="103.5,102.873,107.5,93.873,103.5,97.873,99.5,93.873,103.5,102.873" style="stroke:#181818;stroke-width:1.0;"/><text fill="#000000" font-family="sans-serif" font-size="13" lengthAdjust="spacing" textLength="110" x="104.5" y="69.0669">Inicio del proceso</text></g><!--link AulasNoRecibidas to AulasRecibidas--><g id="link_AulasNoRecibidas_AulasRecibidas"><path d="M103.5,153.101 C103.5,175.236 103.5,201.861 103.5,223.973 " fill="none" id="AulasNoRecibidas-to-AulasRecibidas" style="stroke:#181818;stroke-width:1.0;"/><polygon fill="#181818" points="103.5,229.973,107.5,220.973,103.5,224.973,99.5,220.973,103.5,229.973" style="stroke:#181818;stroke-width:1.0;"/><text fill="#000000" font-family="sans-serif" font-size="13" lengthAdjust="spacing" textLength="124" x="104.5" y="196.0669">Recepci&#243;n de aulas</text></g><!--link AulasRecibidas to VerificacionAulas--><g id="link_AulasRecibidas_VerificacionAulas"><path d="M103.5,280.101 C103.5,302.236 103.5,328.861 103.5,350.973 " fill="none" id="AulasRecibidas-to-VerificacionAulas" style="stroke:#181818;stroke-width:1.0;"/><polygon fill="#181818" points="103.5,356.973,107.5,347.973,103.5,351.973,99.5,347.973,103.5,356.973" style="stroke:#181818;stroke-width:1.0;"/><text fill="#000000" font-family="sans-serif" font-size="13" lengthAdjust="spacing" textLength="138" x="104.5" y="323.0669">Comenzar asignaci&#243;n</text></g><!--link VerificacionAulas to AsignandoAulas--><g id="link_VerificacionAulas_AsignandoAulas"><path d="M103.5,407.101 C103.5,429.236 103.5,455.861 103.5,477.973 " fill="none" id="VerificacionAulas-to-AsignandoAulas" style="stroke:#181818;stroke-width:1.0;"/><polygon fill="#181818" points="103.5,483.973,107.5,474.973,103.5,478.973,99.5,474.973,103.5,483.973" style="stroke:#181818;stroke-width:1.0;"/><text fill="#000000" font-family="sans-serif" font-size="13" lengthAdjust="spacing" textLength="145" x="104.5" y="450.0669">Verificar Disponibilidad</text></g><!--link AsignandoAulas to AsignandoAulas--><g id="link_AsignandoAulas_AsignandoAulas"><path d="M169.228,497.401 C188.784,497.747 204,501.613 204,509 C204,516.387 194.7831,520.1469 175.2271,520.4929 " fill="none" id="AsignandoAulas-to-AsignandoAulas" style="stroke:#181818;stroke-width:1.0;"/><polygon fill="#181818" points="169.228,520.599,178.2974,524.4392,174.2272,520.5105,178.1558,516.4404,169.228,520.599" style="stroke:#181818;stroke-width:1.0;"/></g><!--link AsignandoAulas to TodasLasAulasAsignadas--><g id="link_AsignandoAulas_TodasLasAulasAsignadas"><path d="M74.5798,534.06 C54.5856,552.696 29.6528,580.427 18.5,611 C10.8844,631.877 10.8844,640.123 18.5,661 C29.6528,691.573 50.1965,715.2131 70.1907,733.8491 " fill="none" id="AsignandoAulas-to-TodasLasAulasAsignadas" style="stroke:#181818;stroke-width:1.0;"/><polygon fill="#181818" points="74.5798,737.94,70.7235,728.8775,70.9222,734.5309,65.2689,734.7296,74.5798,737.94" style="stroke:#181818;stroke-width:1.0;"/><text fill="#000000" font-family="sans-serif" font-size="13" lengthAdjust="spacing" textLength="243" x="19.5" y="640.5669">Aulas no disponibles, todas asignadas</text></g><!--link AsignandoAulas to AulasNoAsignadas--><g id="link_AsignandoAulas_AulasNoAsignadas"><path d="M151.895,534.101 C196.342,556.236 256.4832,586.1862 300.8822,608.2982 " fill="none" id="AsignandoAulas-to-AulasNoAsignadas" style="stroke:#181818;stroke-width:1.0;"/><polygon fill="#181818" points="306.253,610.973,299.98,603.3803,301.7773,608.744,296.4136,610.5413,306.253,610.973" style="stroke:#181818;stroke-width:1.0;"/><text fill="#000000" font-family="sans-serif" font-size="13" lengthAdjust="spacing" textLength="112" x="244.5" y="577.0669">Aulas Disponibles</text></g><!--link AulasNoAsignadas to TodasLasAulasAsignadas--><g id="link_AulasNoAsignadas_TodasLasAulasAsignadas"><path d="M306.105,661.101 C261.658,683.236 201.5168,713.1862 157.1178,735.2982 " fill="none" id="AulasNoAsignadas-to-TodasLasAulasAsignadas" style="stroke:#181818;stroke-width:1.0;"/><polygon fill="#181818" points="151.747,737.973,161.5864,737.5413,156.2227,735.744,158.02,730.3803,151.747,737.973" style="stroke:#181818;stroke-width:1.0;"/><text fill="#000000" font-family="sans-serif" font-size="13" lengthAdjust="spacing" textLength="216" x="244.5" y="704.0669">Completar todas las asignaciones</text></g><!--link TodasLasAulasAsignadas to *end*--><g id="link_TodasLasAulasAsignadas_*end*"><path d="M103.5,788.4649 C103.5,808.0364 103.5,828.4921 103.5,842.7967 " fill="none" id="TodasLasAulasAsignadas-to-*end*" style="stroke:#181818;stroke-width:1.0;"/><polygon fill="#181818" points="103.5,848.7967,107.5,839.7967,103.5,843.7967,99.5,839.7967,103.5,848.7967" style="stroke:#181818;stroke-width:1.0;"/></g><!--SRC=[VP1B2i8m48RtESMiYxr05qAn6q5SYBWfNSGaoa1CIb8tNiiZU34dIMdj0tTXylsFcJfh8C-tK3urzqTxKWAlABalO6zGe0MfDBJE2kKjcqEZyaT7JzKA_BmDQO67NpPbekoY7DvGSCemyRk0dNqey-8EkCUxuT63BRYWBYDWf4qJA0Ox1nNwrXfAqfGbsGoDZQUZDUHigUU1-pX9_t6vH1WwIv-YbTz05-Y-jGphhcIcqosigj67pPb_HUXMhLOTxPl2zL0W78hCreMnIvqrNm00]--></g></svg>