<svg xmlns="http://www.w3.org/2000/svg" xmlns:xlink="http://www.w3.org/1999/xlink" contentStyleType="text/css" height="943px" preserveAspectRatio="none" style="width:475px;height:943px;background:#FFFFFF;" version="1.1" viewBox="0 0 475 943" width="475px" zoomAndPan="magnify"><defs/><g><text fill="#000000" font-family="sans-serif" font-size="14" font-weight="bold" lengthAdjust="spacing" textLength="318" x="68.5" y="22.9951">Detalle Caso de Uso Iniciar Sesi&#243;n - FISC</text><g id="INICIO"><rect fill="#FAF4B4" height="50" rx="12.5" ry="12.5" style="stroke:#C90000;stroke-width:0.5;" width="60" x="204.5" y="44.2969"/><line style="stroke:#C90000;stroke-width:0.5;" x1="204.5" x2="264.5" y1="70.5938" y2="70.5938"/><text fill="#000000" font-family="sans-serif" font-size="14" lengthAdjust="spacing" textLength="40" x="214.5" y="62.292">INICIO</text></g><path d="M19.5,204.2969 L449.5,204.2969 A12.5,12.5 0 0 1 462,216.7969 L462,230.5938 L7,230.5938 L7,216.7969 A12.5,12.5 0 0 1 19.5,204.2969 " fill="#FAF4B4" style="stroke:#FAF4B4;stroke-width:1.0;"/><rect fill="none" height="513.2969" rx="12.5" ry="12.5" style="stroke:#C90000;stroke-width:0.5;" width="455" x="7" y="204.2969"/><line style="stroke:#C90000;stroke-width:0.5;" x1="7" x2="462" y1="230.5938" y2="230.5938"/><text fill="#000000" font-family="sans-serif" font-size="14" lengthAdjust="spacing" textLength="92" x="188.5" y="222.292">iniciar_sesi&#243;n</text><g id="iniciar_sesi&#243;n.1"><rect fill="#FAF4B4" height="50" rx="12.5" ry="12.5" style="stroke:#C90000;stroke-width:0.5;" width="50" x="102" y="297.5938"/><line style="stroke:#C90000;stroke-width:0.5;" x1="102" x2="152" y1="323.8906" y2="323.8906"/><text fill="#000000" font-family="sans-serif" font-size="14" lengthAdjust="spacing" textLength="4" x="125" y="315.5889">&#160;</text></g><g id="iniciar_sesi&#243;n.2"><rect fill="#FAF4B4" height="50" rx="12.5" ry="12.5" style="stroke:#C90000;stroke-width:0.5;" width="50" x="19" y="448.5938"/><line style="stroke:#C90000;stroke-width:0.5;" x1="19" x2="69" y1="474.8906" y2="474.8906"/><text fill="#000000" font-family="sans-serif" font-size="14" lengthAdjust="spacing" textLength="4" x="42" y="466.5889">&#160;</text></g><g id="iniciar_sesi&#243;n.3"><rect fill="#FAF4B4" height="50" rx="12.5" ry="12.5" style="stroke:#C90000;stroke-width:0.5;" width="50" x="107" y="599.5938"/><line style="stroke:#C90000;stroke-width:0.5;" x1="107" x2="157" y1="625.8906" y2="625.8906"/><text fill="#000000" font-family="sans-serif" font-size="14" lengthAdjust="spacing" textLength="4" x="130" y="617.5889">&#160;</text></g><ellipse cx="127" cy="251.5938" fill="#222222" rx="10" ry="10" style="stroke:#222222;stroke-width:1.0;"/><ellipse cx="132" cy="696.5938" fill="none" rx="11" ry="11" style="stroke:#222222;stroke-width:1.0;"/><ellipse cx="132" cy="696.5938" fill="#222222" rx="6" ry="6" style="stroke:#222222;stroke-width:1.0;"/><!--link *start*iniciar_sesi?n to 1--><g id="link_*start*iniciar_sesi&#243;n_1"><path d="M127,261.9038 C127,270.9438 127,279.0838 127,291.3238 " fill="none" id="*start*iniciar_sesi&#243;n-to-1" style="stroke:#008000;stroke-width:1.0;"/><polygon fill="#008000" points="127,297.3238,131,288.3238,127,292.3238,123,288.3238,127,297.3238" style="stroke:#008000;stroke-width:1.0;"/></g><!--link 1 to 2--><g id="link_1_2"><path d="M101.84,335.7438 C76.14,348.1438 40,365.5938 40,365.5938 C40,365.5938 40,430.5938 40,430.5938 C40,430.5938 40.2211,432.9508 41.1011,442.1908 " fill="none" id="1-to-2" style="stroke:#008000;stroke-width:1.0;"/><polygon fill="#008000" points="41.67,448.1638,44.7987,438.8251,41.196,443.1863,36.8347,439.5835,41.67,448.1638" style="stroke:#008000;stroke-width:1.0;"/><path d="M45,370.5938 L45,425.5938 L197,425.5938 L197,380.5938 L187,370.5938 L45,370.5938 " fill="#F5F5F5" style="stroke:#181818;stroke-width:0.5;"/><path d="M187,370.5938 L187,380.5938 L197,380.5938 L187,370.5938 " fill="#F5F5F5" style="stroke:#181818;stroke-width:0.5;"/><text fill="#000000" font-family="sans-serif" font-size="13" font-weight="bold" lengthAdjust="spacing" textLength="131" x="51" y="387.6606">Sistema requiere:</text><text fill="#000000" font-family="sans-serif" font-size="13" lengthAdjust="spacing" textLength="58" x="51" y="402.7935">- Usuario</text><text fill="#000000" font-family="sans-serif" font-size="13" lengthAdjust="spacing" textLength="83" x="51" y="417.9263">- Contrase&#241;a</text></g><!--link 2 to 3--><g id="link_2_3"><path d="M46.95,498.8738 C50.79,530.4438 57,581.5938 57,581.5938 C57,581.5938 79.6144,594.2632 101.3744,606.4432 " fill="none" id="2-to-3" style="stroke:#008000;stroke-width:1.0;"/><polygon fill="#008000" points="106.61,609.3738,100.7103,601.4875,102.247,606.9316,96.8029,608.4683,106.61,609.3738" style="stroke:#008000;stroke-width:1.0;"/><path d="M62,521.5938 L62,576.5938 L197,576.5938 L197,531.5938 L187,521.5938 L62,521.5938 " fill="#F5F5F5" style="stroke:#181818;stroke-width:0.5;"/><path d="M187,521.5938 L187,531.5938 L197,531.5938 L187,521.5938 " fill="#F5F5F5" style="stroke:#181818;stroke-width:0.5;"/><text fill="#000000" font-family="sans-serif" font-size="13" font-weight="bold" lengthAdjust="spacing" textLength="114" x="68" y="538.6606">Usuario aporta:</text><text fill="#000000" font-family="sans-serif" font-size="13" lengthAdjust="spacing" textLength="58" x="68" y="553.7935">- Usuario</text><text fill="#000000" font-family="sans-serif" font-size="13" lengthAdjust="spacing" textLength="83" x="68" y="568.9263">- Contrase&#241;a</text></g><!--link 3 to 1--><g id="link_3_1"><path d="M157.27,608.4338 C177.32,596.4038 202,581.5938 202,581.5938 C202,581.5938 202,365.5938 202,365.5938 C202,365.5938 179.3856,352.9243 157.6256,340.7443 " fill="none" id="3-to-1" style="stroke:#FF0000;stroke-width:1.0;"/><polygon fill="#FF0000" points="152.39,337.8138,158.2897,345.7,156.753,340.2559,162.1971,338.7192,152.39,337.8138" style="stroke:#FF0000;stroke-width:1.0;"/><path d="M207,461.0938 L207,486.0938 L453,486.0938 L453,471.0938 L443,461.0938 L207,461.0938 " fill="#F5F5F5" style="stroke:#181818;stroke-width:0.5;"/><path d="M443,461.0938 L443,471.0938 L453,471.0938 L443,461.0938 " fill="#F5F5F5" style="stroke:#181818;stroke-width:0.5;"/><text fill="#000000" font-family="sans-serif" font-size="13" lengthAdjust="spacing" textLength="225" x="213" y="478.1606">[usuario y contrase&#241;a inexistentes]</text></g><!--link 3 to *end*iniciar_sesi?n--><g id="link_3_*end*iniciar_sesi&#243;n"><path d="M132,650.0738 C132,662.0638 132,669.8638 132,679.0938 " fill="none" id="3-to-*end*iniciar_sesi&#243;n" style="stroke:#008000;stroke-width:1.0;"/><polygon fill="#008000" points="132,685.0938,136,676.0938,132,680.0938,128,676.0938,132,685.0938" style="stroke:#008000;stroke-width:1.0;"/></g><g id=":abrirEstadoPrincipal"><rect fill="#FAF4B4" height="50" rx="12.5" ry="12.5" style="stroke:#C90000;stroke-width:0.5;" width="160" x="154.5" y="777.5969"/><line style="stroke:#C90000;stroke-width:0.5;" x1="154.5" x2="314.5" y1="803.8938" y2="803.8938"/><text fill="#000000" font-family="sans-serif" font-size="14" lengthAdjust="spacing" textLength="140" x="164.5" y="795.592">:abrirEstadoPrincipal</text></g><g id="ESTADO_PRINCIPAL"><rect fill="#FAF4B4" height="50" rx="12.5" ry="12.5" style="stroke:#C90000;stroke-width:0.5;" width="155" x="157" y="887.5969"/><line style="stroke:#C90000;stroke-width:0.5;" x1="157" x2="312" y1="913.8938" y2="913.8938"/><text fill="#000000" font-family="sans-serif" font-size="14" lengthAdjust="spacing" textLength="135" x="167" y="905.592">ESTADO_PRINCIPAL</text></g><!--link INICIO to iniciar_sesi?n--><g id="link_INICIO_iniciar_sesi&#243;n"><path d="M234.5,94.6769 C234.5,118.9969 234.5,153.1569 234.5,198.1269 " fill="none" id="INICIO-to-iniciar_sesi&#243;n" style="stroke:#008000;stroke-width:1.0;"/><polygon fill="#008000" points="234.5,204.1269,238.5,195.1269,234.5,199.1269,230.5,195.1269,234.5,204.1269" style="stroke:#008000;stroke-width:1.0;"/><path d="M239.5,129.2969 L239.5,169.2969 L377.5,169.2969 L377.5,139.2969 L367.5,129.2969 L239.5,129.2969 " fill="#F5F5F5" style="stroke:#181818;stroke-width:0.5;"/><path d="M367.5,129.2969 L367.5,139.2969 L377.5,139.2969 L367.5,129.2969 " fill="#F5F5F5" style="stroke:#181818;stroke-width:0.5;"/><text fill="#000000" font-family="sans-serif" font-size="13" font-weight="bold" lengthAdjust="spacing" textLength="117" x="245.5" y="146.3638">Usuario solicita:</text><text fill="#000000" font-family="sans-serif" font-size="13" lengthAdjust="spacing" textLength="91" x="245.5" y="161.4966">- Iniciar sesi&#243;n</text></g><!--link iniciar_sesi?n to :abrirEstadoPrincipal--><g id="link_iniciar_sesi&#243;n_:abrirEstadoPrincipal"><path d="M234.5,718.0769 C234.5,741.7169 234.5,756.3169 234.5,771.1469 " fill="none" id="iniciar_sesi&#243;n-to-:abrirEstadoPrincipal" style="stroke:#008000;stroke-width:1.0;"/><polygon fill="#008000" points="234.5,777.1469,238.5,768.1469,234.5,772.1469,230.5,768.1469,234.5,777.1469" style="stroke:#008000;stroke-width:1.0;"/></g><!--link :abrirEstadoPrincipal to ESTADO_PRINCIPAL--><g id="link_:abrirEstadoPrincipal_ESTADO_PRINCIPAL"><path d="M234.5,827.8369 C234.5,845.6169 234.5,863.6769 234.5,881.4369 " fill="none" id=":abrirEstadoPrincipal-to-ESTADO_PRINCIPAL" style="stroke:#008000;stroke-width:1.0;"/><polygon fill="#008000" points="234.5,887.4369,238.5,878.4369,234.5,882.4369,230.5,878.4369,234.5,887.4369" style="stroke:#008000;stroke-width:1.0;"/></g><!--SRC=[VLBRQW8n47tFLmpwjh1GBtse3mMxMbWeAhK-YSYuEqfmJRQJ29NIZohz17-iYMvNtTfE0Y4dapddJ6BMKkN8k05ZqHAy2u07JDOhrbkLHZhJ3FKbBjkBjZ_Hd18NQ79tuq9y267A8ah_MUFMZyliJ2gokvmWrzdERuImqcO4FRAOkJL2eo4bcBWbLZAHo30c8_TV2a9uZCUH428Un54yX71QNp6HceNt88-vSrFaYeCkhJpZsgaBWedP8aiDHcSkrM8d21mUbYp5JK4gFPXoiW_zgLRsNeyd3K03DQYLGBCAj4w0czDWTg6vuR361T9qI4MuZo0OIsDfWy3qkfN4T1Jl8uJ2MBcFjBACXlQVwB3I3ZXvvrojQrodDc6k-QT9LPP_E5gUWodzyVUBORej27QGd8guBjERzwWicTcLagLirqJ_fQglSfxImGLBxhidIFM8fKfaZfaGL-6BY_tnIxStd8-Uuq4KZxfFtm00]--></g></svg>