<?xml version="1.0" encoding="us-ascii" standalone="no"?><svg xmlns="http://www.w3.org/2000/svg" xmlns:xlink="http://www.w3.org/1999/xlink" contentStyleType="text/css" height="944px" preserveAspectRatio="none" style="width:600px;height:944px;background:#FFFFFF;" version="1.1" viewBox="0 0 600 944" width="600px" zoomAndPan="magnify"><defs/><g><text fill="#000000" font-family="sans-serif" font-size="14" font-weight="bold" lengthAdjust="spacing" textLength="360" x="109.7585" y="22.9951">Detalle Caso de Uso Iniciar Simulaci&#243;n - FISC</text><g id="CONFIGURACI&#211;N_DE_SIMULACI&#211;N"><rect fill="#FAF4B4" height="50" rx="12.5" ry="12.5" style="stroke:#C90000;stroke-width:0.5;" width="259" x="167.5" y="44.2969"/><line style="stroke:#C90000;stroke-width:0.5;" x1="167.5" x2="426.5" y1="70.5938" y2="70.5938"/><text fill="#000000" font-family="sans-serif" font-size="14" lengthAdjust="spacing" textLength="239" x="177.5" y="62.292">CONFIGURACI&#211;N_DE_SIMULACI&#211;N</text></g><path d="M19.5,154.2969 L574.0171,154.2969 A12.5,12.5 0 0 1 586.5171,166.7969 L586.5171,180.5938 L7,180.5938 L7,166.7969 A12.5,12.5 0 0 1 19.5,154.2969 " fill="#FAF4B4" style="stroke:#FAF4B4;stroke-width:1.0;"/><rect fill="none" height="564.2969" rx="12.5" ry="12.5" style="stroke:#C90000;stroke-width:0.5;" width="579.5171" x="7" y="154.2969"/><line style="stroke:#C90000;stroke-width:0.5;" x1="7" x2="586.5171" y1="180.5938" y2="180.5938"/><text fill="#000000" font-family="sans-serif" font-size="14" lengthAdjust="spacing" textLength="176" x="208.7585" y="172.292">configurando_simulaci&#243;n</text><g id="configurando_simulaci&#243;n.1"><rect fill="#FAF4B4" height="50" rx="12.5" ry="12.5" style="stroke:#C90000;stroke-width:0.5;" width="50" x="155.5171" y="248.5938"/><line style="stroke:#C90000;stroke-width:0.5;" x1="155.5171" x2="205.5171" y1="274.8906" y2="274.8906"/><text fill="#000000" font-family="sans-serif" font-size="14" lengthAdjust="spacing" textLength="4" x="178.5171" y="266.5889">&#160;</text></g><g id="configurando_simulaci&#243;n.2"><rect fill="#FAF4B4" height="50" rx="12.5" ry="12.5" style="stroke:#C90000;stroke-width:0.5;" width="50" x="23.5171" y="399.5938"/><line style="stroke:#C90000;stroke-width:0.5;" x1="23.5171" x2="73.5171" y1="425.8906" y2="425.8906"/><text fill="#000000" font-family="sans-serif" font-size="14" lengthAdjust="spacing" textLength="4" x="46.5171" y="417.5889">&#160;</text></g><g id="configurando_simulaci&#243;n.3"><rect fill="#FAF4B4" height="50" rx="12.5" ry="12.5" style="stroke:#C90000;stroke-width:0.5;" width="50" x="189.5171" y="550.5938"/><line style="stroke:#C90000;stroke-width:0.5;" x1="189.5171" x2="239.5171" y1="576.8906" y2="576.8906"/><text fill="#000000" font-family="sans-serif" font-size="14" lengthAdjust="spacing" textLength="4" x="212.5171" y="568.5889">&#160;</text></g><ellipse cx="180.5171" cy="201.5938" fill="#222222" rx="10" ry="10" style="stroke:#222222;stroke-width:1.0;"/><ellipse cx="214.5171" cy="697.5938" fill="none" rx="11" ry="11" style="stroke:#222222;stroke-width:1.0;"/><ellipse cx="214.5171" cy="697.5938" fill="#222222" rx="6" ry="6" style="stroke:#222222;stroke-width:1.0;"/><!--link *start*configurando_simulaci?n to 1--><g id="link_*start*configurando_simulaci&#243;n_1"><path d="M180.5171,211.7448 C180.5171,221.0098 180.5171,229.7348 180.5171,242.3778 " fill="none" id="*start*configurando_simulaci&#243;n-to-1" style="stroke:#008000;stroke-width:1.0;"/><polygon fill="#008000" points="180.5171,248.3778,184.5171,239.3778,180.5171,243.3778,176.5171,239.3778,180.5171,248.3778" style="stroke:#008000;stroke-width:1.0;"/></g><!--link 1 to 2--><g id="link_1_2"><path d="M155.4311,281.4358 C111.7939,293.3368 26.5171,316.5938 26.5171,316.5938 C26.5171,316.5938 26.5171,381.5938 26.5171,381.5938 C26.5171,381.5938 28.0955,384.6078 32.9354,393.8468 " fill="none" id="1-to-2" style="stroke:#008000;stroke-width:1.0;"/><polygon fill="#008000" points="35.7196,399.1618,35.0865,389.3333,33.3994,394.7327,28,393.0455,35.7196,399.1618" style="stroke:#008000;stroke-width:1.0;"/><path d="M31.5171,321.5938 L31.5171,376.5938 L317.5171,376.5938 L317.5171,331.5938 L307.5171,321.5938 L31.5171,321.5938 " fill="#F5F5F5" style="stroke:#181818;stroke-width:0.5;"/><path d="M307.5171,321.5938 L307.5171,331.5938 L317.5171,331.5938 L307.5171,321.5938 " fill="#F5F5F5" style="stroke:#181818;stroke-width:0.5;"/><text fill="#000000" font-family="sans-serif" font-size="13" font-weight="bold" lengthAdjust="spacing" textLength="134" x="37.5171" y="338.6606">Sistema requiere:</text><text fill="#000000" font-family="sans-serif" font-size="13" lengthAdjust="spacing" textLength="167" x="37.5171" y="353.7935">- Nombre de la simulaci&#243;n</text><text fill="#000000" font-family="sans-serif" font-size="13" lengthAdjust="spacing" textLength="265" x="37.5171" y="368.9263">- Par&#225;metros introducidos correctamente</text></g><!--link 2 to 3--><g id="link_2_3"><path d="M63.7776,449.6068 C83.8263,481.1538 116.5171,532.5938 116.5171,532.5938 C116.5171,532.5938 154.7282,548.9703 183.7652,561.4143 " fill="none" id="2-to-3" style="stroke:#008000;stroke-width:1.0;"/><polygon fill="#008000" points="189.2801,563.7778,182.5834,556.556,184.6843,561.8082,179.4321,563.9092,189.2801,563.7778" style="stroke:#008000;stroke-width:1.0;"/><path d="M121.5171,472.5938 L121.5171,527.5938 L317.5171,527.5938 L317.5171,482.5938 L307.5171,472.5938 L121.5171,472.5938 " fill="#F5F5F5" style="stroke:#181818;stroke-width:0.5;"/><path d="M307.5171,472.5938 L307.5171,482.5938 L317.5171,482.5938 L307.5171,472.5938 " fill="#F5F5F5" style="stroke:#181818;stroke-width:0.5;"/><text fill="#000000" font-family="sans-serif" font-size="13" font-weight="bold" lengthAdjust="spacing" textLength="119" x="127.5171" y="489.6606">Usuario aporta:</text><text fill="#000000" font-family="sans-serif" font-size="13" lengthAdjust="spacing" textLength="167" x="135.5171" y="504.7935">- Nombre de la simulaci&#243;n</text><text fill="#000000" font-family="sans-serif" font-size="13" lengthAdjust="spacing" textLength="84" x="135.5171" y="519.9263">- Par&#225;metros</text></g><!--link 3 to 1--><g id="link_3_1"><path d="M239.5661,564.8528 C271.4701,552.4458 322.5171,532.5938 322.5171,532.5938 C322.5171,532.5938 322.5171,316.5938 322.5171,316.5938 C322.5171,316.5938 252.0957,295.7645 211.3307,283.7075 " fill="none" id="3-to-1" style="stroke:#FF0000;stroke-width:1.0;"/><polygon fill="#FF0000" points="205.5771,282.0058,213.073,288.3941,210.3718,283.4239,215.342,280.7226,205.5771,282.0058" style="stroke:#FF0000;stroke-width:1.0;"/><path d="M327.5171,404.5938 L327.5171,444.5938 L577.5171,444.5938 L577.5171,414.5938 L567.5171,404.5938 L327.5171,404.5938 " fill="#F5F5F5" style="stroke:#181818;stroke-width:0.5;"/><path d="M567.5171,404.5938 L567.5171,414.5938 L577.5171,414.5938 L567.5171,404.5938 " fill="#F5F5F5" style="stroke:#181818;stroke-width:0.5;"/><text fill="#000000" font-family="sans-serif" font-size="13" lengthAdjust="spacing" textLength="130" x="333.5171" y="421.6606">[parametros vac&#237;os]</text><text fill="#000000" font-family="sans-serif" font-size="13" lengthAdjust="spacing" textLength="229" x="333.5171" y="436.7935">[formato de par&#225;metros incorrecto]</text></g><!--link 3 to *end*configurando_simulaci?n--><g id="link_3_*end*configurando_simulaci&#243;n"><path d="M214.5171,600.8778 C214.5171,627.1759 214.5171,661.8671 214.5171,680.5691 " fill="none" id="3-to-*end*configurando_simulaci&#243;n" style="stroke:#008000;stroke-width:1.0;"/><polygon fill="#008000" points="214.5171,686.5691,218.5171,677.5691,214.5171,681.5691,210.5171,677.5691,214.5171,686.5691" style="stroke:#008000;stroke-width:1.0;"/><path d="M219.5171,623.5938 L219.5171,663.5938 L362.5171,663.5938 L362.5171,633.5938 L352.5171,623.5938 L219.5171,623.5938 " fill="#F5F5F5" style="stroke:#181818;stroke-width:0.5;"/><path d="M352.5171,623.5938 L352.5171,633.5938 L362.5171,633.5938 L352.5171,623.5938 " fill="#F5F5F5" style="stroke:#181818;stroke-width:0.5;"/><text fill="#000000" font-family="sans-serif" font-size="13" font-weight="bold" lengthAdjust="spacing" textLength="122" x="225.5171" y="640.6606">Usuario solicita:</text><text fill="#000000" font-family="sans-serif" font-size="13" lengthAdjust="spacing" textLength="118" x="225.5171" y="655.7935">- Iniciar simulaci&#243;n</text></g><g id=":iniciar_simulaci&#243;n"><rect fill="#FAF4B4" height="50" rx="12.5" ry="12.5" style="stroke:#C90000;stroke-width:0.5;" width="150" x="222" y="778.2969"/><line style="stroke:#C90000;stroke-width:0.5;" x1="222" x2="372" y1="804.5938" y2="804.5938"/><text fill="#000000" font-family="sans-serif" font-size="14" lengthAdjust="spacing" textLength="130" x="232" y="796.292">:iniciar_simulaci&#243;n</text></g><g id="SIMULANDO"><rect fill="#FAF4B4" height="50" rx="12.5" ry="12.5" style="stroke:#C90000;stroke-width:0.5;" width="104" x="245" y="888.2969"/><line style="stroke:#C90000;stroke-width:0.5;" x1="245" x2="349" y1="914.5938" y2="914.5938"/><text fill="#000000" font-family="sans-serif" font-size="14" lengthAdjust="spacing" textLength="84" x="255" y="906.292">SIMULANDO</text></g><!--link CONFIGURACI?N_DE_SIMULACI?N to configurando_simulaci?n--><g id="link_CONFIGURACI&#211;N_DE_SIMULACI&#211;N_configurando_simulaci&#243;n"><path d="M297,94.5279 C297,109.3359 297,124.0069 297,147.9239 " fill="none" id="CONFIGURACI&#211;N_DE_SIMULACI&#211;N-to-configurando_simulaci&#243;n" style="stroke:#008000;stroke-width:1.0;"/><polygon fill="#008000" points="297,153.9239,301,144.9239,297,148.9239,293,144.9239,297,153.9239" style="stroke:#008000;stroke-width:1.0;"/></g><!--link configurando_simulaci?n to :iniciar_simulaci?n--><g id="link_configurando_simulaci&#243;n_:iniciar_simulaci&#243;n"><path d="M297,718.5589 C297,742.6379 297,757.4349 297,772.2799 " fill="none" id="configurando_simulaci&#243;n-to-:iniciar_simulaci&#243;n" style="stroke:#008000;stroke-width:1.0;"/><polygon fill="#008000" points="297,778.2799,301,769.2799,297,773.2799,293,769.2799,297,778.2799" style="stroke:#008000;stroke-width:1.0;"/></g><!--link :iniciar_simulaci?n to SIMULANDO--><g id="link_:iniciar_simulaci&#243;n_SIMULANDO"><path d="M297,828.5339 C297,846.3209 297,864.3728 297,882.1405 " fill="none" id=":iniciar_simulaci&#243;n-to-SIMULANDO" style="stroke:#008000;stroke-width:1.0;"/><polygon fill="#008000" points="297,888.1405,301,879.1405,297,883.1405,293,879.1405,297,888.1405" style="stroke:#008000;stroke-width:1.0;"/></g><!--SRC=[dLB1Qjj04BtlLmp9JI2exUIG70gft0H1wvGQdumnazNOB9PsbDbL88H-HR-W7z1JFy4_rfNaAb9YNxeIhERjxBnve-TsnfOeM83pw0bU5C0drBkjS6MpX7CMED_WvkBXeZvXoKWEgBxw49RwePJhYbW-MUEoVeRPkR7adqk2alFdEb3A6vyJJCbZ7lO47KD6i0XRQeqsA30tHPMZDli_5cAuJUU9KYgvdzscTullDqcw_pbRJp-lv-dNnPSsZ9VdMo6og_WZQBORiwq4RSPhroiL-ce6S3AXLjMcZ00TdC5P1upV0fDN8BpBQ0Nz7aO16msGSK2QqR6jXx8BORsYQ6wSfm91wB4o97GTHOUp66PSF0ZLuyaHUfrs2TzGzhyAyi8EZ0rRLccJXK2p26cF1LbF8Prirj27p_6Whycnlg9euIeKmu0bYyV_xcd8FAcPXR9_4th7ksnCqrvzGht_pMxL7cnO2lIDKyg1veDGNXsXwaI6trENUJ__Lw6Eys2-djIui-CRaHrBCFf9A_NPhqrRg9-Wr36qVwjrzsnw_nS0]--></g></svg>