<svg xmlns="http://www.w3.org/2000/svg" xmlns:xlink="http://www.w3.org/1999/xlink" contentStyleType="text/css" height="913px" preserveAspectRatio="none" style="width:384px;height:913px;background:#FFFFFF;" version="1.1" viewBox="0 0 384 913" width="384px" zoomAndPan="magnify"><defs/><g><text fill="#000000" font-family="sans-serif" font-size="14" font-weight="bold" lengthAdjust="spacing" textLength="356" x="10" y="22.9951">Detalle Caso de Uso Importar Proyecto - FISC</text><g id="ESTADO_PRINCIPAL"><rect fill="#FAF4B4" height="50" rx="12.5" ry="12.5" style="stroke:#C90000;stroke-width:0.5;" width="155" x="117.5" y="44.2969"/><line style="stroke:#C90000;stroke-width:0.5;" x1="117.5" x2="272.5" y1="70.5938" y2="70.5938"/><text fill="#000000" font-family="sans-serif" font-size="14" lengthAdjust="spacing" textLength="135" x="127.5" y="62.292">ESTADO_PRINCIPAL</text></g><path d="M31,204.2969 L359,204.2969 A12.5,12.5 0 0 1 371.5,216.7969 L371.5,230.5938 L18.5,230.5938 L18.5,216.7969 A12.5,12.5 0 0 1 31,204.2969 " fill="#FAF4B4" style="stroke:#FAF4B4;stroke-width:1.0;"/><rect fill="none" height="483.2969" rx="12.5" ry="12.5" style="stroke:#C90000;stroke-width:0.5;" width="353" x="18.5" y="204.2969"/><line style="stroke:#C90000;stroke-width:0.5;" x1="18.5" x2="371.5" y1="230.5938" y2="230.5938"/><text fill="#000000" font-family="sans-serif" font-size="14" lengthAdjust="spacing" textLength="125" x="132.5" y="222.292">importar_proyecto</text><g id="importar_proyecto.1"><rect fill="#FAF4B4" height="50" rx="12.5" ry="12.5" style="stroke:#C90000;stroke-width:0.5;" width="50" x="123.5" y="297.5938"/><line style="stroke:#C90000;stroke-width:0.5;" x1="123.5" x2="173.5" y1="323.8906" y2="323.8906"/><text fill="#000000" font-family="sans-serif" font-size="14" lengthAdjust="spacing" textLength="4" x="146.5" y="315.5889">&#160;</text></g><g id="importar_proyecto.2"><rect fill="#FAF4B4" height="50" rx="12.5" ry="12.5" style="stroke:#C90000;stroke-width:0.5;" width="50" x="30.5" y="433.5938"/><line style="stroke:#C90000;stroke-width:0.5;" x1="30.5" x2="80.5" y1="459.8906" y2="459.8906"/><text fill="#000000" font-family="sans-serif" font-size="14" lengthAdjust="spacing" textLength="4" x="53.5" y="451.5889">&#160;</text></g><g id="importar_proyecto.3"><rect fill="#FAF4B4" height="50" rx="12.5" ry="12.5" style="stroke:#C90000;stroke-width:0.5;" width="50" x="121.5" y="569.5938"/><line style="stroke:#C90000;stroke-width:0.5;" x1="121.5" x2="171.5" y1="595.8906" y2="595.8906"/><text fill="#000000" font-family="sans-serif" font-size="14" lengthAdjust="spacing" textLength="4" x="144.5" y="587.5889">&#160;</text></g><ellipse cx="148.5" cy="251.5938" fill="#222222" rx="10" ry="10" style="stroke:#222222;stroke-width:1.0;"/><ellipse cx="146.5" cy="666.5938" fill="none" rx="11" ry="11" style="stroke:#222222;stroke-width:1.0;"/><ellipse cx="146.5" cy="666.5938" fill="#222222" rx="6" ry="6" style="stroke:#222222;stroke-width:1.0;"/><!--link *start*importar_proyecto to 1--><g id="link_*start*importar_proyecto_1"><path d="M148.5,261.9038 C148.5,270.9438 148.5,279.0838 148.5,291.3238 " fill="none" id="*start*importar_proyecto-to-1" style="stroke:#008000;stroke-width:1.0;"/><polygon fill="#008000" points="148.5,297.3238,152.5,288.3238,148.5,292.3238,144.5,288.3238,148.5,297.3238" style="stroke:#008000;stroke-width:1.0;"/></g><!--link 1 to 2--><g id="link_1_2"><path d="M123.05,335.7438 C97.06,348.1438 60.5,365.5938 60.5,365.5938 C60.5,365.5938 58.6275,400.1727 57.1375,427.4327 " fill="none" id="1-to-2" style="stroke:#008000;stroke-width:1.0;"/><polygon fill="#008000" points="56.81,433.4238,61.2952,424.6555,57.0829,428.4312,53.3072,424.2189,56.81,433.4238" style="stroke:#008000;stroke-width:1.0;"/><path d="M65.5,370.5938 L65.5,410.5938 L222.5,410.5938 L222.5,380.5938 L212.5,370.5938 L65.5,370.5938 " fill="#F5F5F5" style="stroke:#181818;stroke-width:0.5;"/><path d="M212.5,370.5938 L212.5,380.5938 L222.5,380.5938 L212.5,370.5938 " fill="#F5F5F5" style="stroke:#181818;stroke-width:0.5;"/><text fill="#000000" font-family="sans-serif" font-size="13" font-weight="bold" lengthAdjust="spacing" textLength="131" x="71.5" y="387.6606">Sistema requiere:</text><text fill="#000000" font-family="sans-serif" font-size="13" lengthAdjust="spacing" textLength="136" x="71.5" y="402.7935">- Archivo de proyecto</text></g><!--link 2 to 3--><g id="link_2_3"><path d="M54.34,484.0238 C53.9,493.2637 53.5,501.5938 53.5,501.5938 C53.5,501.5938 53.5,551.5938 53.5,551.5938 C53.5,551.5938 88.0812,567.2155 115.6212,579.6455 " fill="none" id="2-to-3" style="stroke:#008000;stroke-width:1.0;"/><polygon fill="#008000" points="121.09,582.1138,114.5324,574.7655,116.5327,580.0568,111.2413,582.0572,121.09,582.1138" style="stroke:#008000;stroke-width:1.0;"/><path d="M58.5,506.5938 L58.5,546.5938 L222.5,546.5938 L222.5,516.5938 L212.5,506.5938 L58.5,506.5938 " fill="#F5F5F5" style="stroke:#181818;stroke-width:0.5;"/><path d="M212.5,506.5938 L212.5,516.5938 L222.5,516.5938 L212.5,506.5938 " fill="#F5F5F5" style="stroke:#181818;stroke-width:0.5;"/><text fill="#000000" font-family="sans-serif" font-size="13" font-weight="bold" lengthAdjust="spacing" textLength="143" x="64.5" y="523.6606">Usuario Selecciona:</text><text fill="#000000" font-family="sans-serif" font-size="13" lengthAdjust="spacing" textLength="136" x="64.5" y="538.7935">- Archivo de proyecto</text></g><!--link 3 to 1--><g id="link_3_1"><path d="M171.68,580.5338 C195.46,568.2038 227.5,551.5938 227.5,551.5938 C227.5,551.5938 227.5,365.5938 227.5,365.5938 C227.5,365.5938 202.3279,352.2101 179.2279,339.9301 " fill="none" id="3-to-1" style="stroke:#FF0000;stroke-width:1.0;"/><polygon fill="#FF0000" points="173.93,337.1138,179.9993,344.8703,178.3449,339.4607,183.7545,337.8064,173.93,337.1138" style="stroke:#FF0000;stroke-width:1.0;"/><path d="M232.5,446.0938 L232.5,471.0938 L362.5,471.0938 L362.5,456.0938 L352.5,446.0938 L232.5,446.0938 " fill="#F5F5F5" style="stroke:#181818;stroke-width:0.5;"/><path d="M352.5,446.0938 L352.5,456.0938 L362.5,456.0938 L352.5,446.0938 " fill="#F5F5F5" style="stroke:#181818;stroke-width:0.5;"/><text fill="#000000" font-family="sans-serif" font-size="13" lengthAdjust="spacing" textLength="109" x="238.5" y="463.1606">[Archivo inv&#225;lido]</text></g><!--link 3 to *end*importar_proyecto--><g id="link_3_*end*importar_proyecto"><path d="M146.5,620.0738 C146.5,632.0638 146.5,639.8638 146.5,649.0938 " fill="none" id="3-to-*end*importar_proyecto" style="stroke:#008000;stroke-width:1.0;"/><polygon fill="#008000" points="146.5,655.0938,150.5,646.0938,146.5,650.0938,142.5,646.0938,146.5,655.0938" style="stroke:#008000;stroke-width:1.0;"/></g><g id=":abrirEstadoProyecto"><rect fill="#FAF4B4" height="50" rx="12.5" ry="12.5" style="stroke:#C90000;stroke-width:0.5;" width="164" x="113" y="747.5969"/><line style="stroke:#C90000;stroke-width:0.5;" x1="113" x2="277" y1="773.8938" y2="773.8938"/><text fill="#000000" font-family="sans-serif" font-size="14" lengthAdjust="spacing" textLength="144" x="123" y="765.592">:abrirEstadoProyecto</text></g><g id="ESTADO_PROYECTO"><rect fill="#FAF4B4" height="50" rx="12.5" ry="12.5" style="stroke:#C90000;stroke-width:0.5;" width="163" x="113.5" y="857.5969"/><line style="stroke:#C90000;stroke-width:0.5;" x1="113.5" x2="276.5" y1="883.8938" y2="883.8938"/><text fill="#000000" font-family="sans-serif" font-size="14" lengthAdjust="spacing" textLength="143" x="123.5" y="875.592">ESTADO_PROYECTO</text></g><!--link ESTADO_PRINCIPAL to importar_proyecto--><g id="link_ESTADO_PRINCIPAL_importar_proyecto"><path d="M195,94.5969 C195,118.9969 195,153.3269 195,198.1069 " fill="none" id="ESTADO_PRINCIPAL-to-importar_proyecto" style="stroke:#008000;stroke-width:1.0;"/><polygon fill="#008000" points="195,204.1069,199,195.1069,195,199.1069,191,195.1069,195,204.1069" style="stroke:#008000;stroke-width:1.0;"/><path d="M200,129.2969 L200,169.2969 L345,169.2969 L345,139.2969 L335,129.2969 L200,129.2969 " fill="#F5F5F5" style="stroke:#181818;stroke-width:0.5;"/><path d="M335,129.2969 L335,139.2969 L345,139.2969 L335,129.2969 " fill="#F5F5F5" style="stroke:#181818;stroke-width:0.5;"/><text fill="#000000" font-family="sans-serif" font-size="13" font-weight="bold" lengthAdjust="spacing" textLength="117" x="206" y="146.3638">Usuario solicita:</text><text fill="#000000" font-family="sans-serif" font-size="13" lengthAdjust="spacing" textLength="124" x="206" y="161.4966">- Importar proyecto</text></g><!--link importar_proyecto to :abrirEstadoProyecto--><g id="link_importar_proyecto_:abrirEstadoProyecto"><path d="M195,687.9969 C195,711.7169 195,726.4769 195,741.3769 " fill="none" id="importar_proyecto-to-:abrirEstadoProyecto" style="stroke:#008000;stroke-width:1.0;"/><polygon fill="#008000" points="195,747.3769,199,738.3769,195,742.3769,191,738.3769,195,747.3769" style="stroke:#008000;stroke-width:1.0;"/></g><!--link :abrirEstadoProyecto to ESTADO_PROYECTO--><g id="link_:abrirEstadoProyecto_ESTADO_PROYECTO"><path d="M195,797.8369 C195,815.6169 195,833.6769 195,851.4369 " fill="none" id=":abrirEstadoProyecto-to-ESTADO_PROYECTO" style="stroke:#008000;stroke-width:1.0;"/><polygon fill="#008000" points="195,857.4369,199,848.4369,195,852.4369,191,848.4369,195,857.4369" style="stroke:#008000;stroke-width:1.0;"/></g><!--SRC=[ZLBTQi8m5BxFKnpcNQ4mVtOnBmQkEYYCAQjU3169xT45OzATH4767cRFiXTRKctz7ImjX7p9-NuEnoo5oZdn5HZBBS8d0tZawN91UgsoI4jDK9lpUMlMyZUQCgGzcjxVkiM-63CLYT9_Sjpvx_Ir50hjDaV8jTpw0sDMM8dGHSkbsoDkD6G88xV5groJvGG3qbjChOOGdk8aOeprac6dsvyENkENA1vqdY4SrnQ4g2RX0uXztJGlwrZXKYklltHUWs1arfo41gEbI8NbxI1mU7ZGB6iPggm8wM8K_Rfaz-btTtNW1cxWfW8Qvq3p0BX_74nEdDSTLZz16WuvC-zN42J2M5nn8FnO2oJS1V0hX0wbxs9JzB6A0L050MVhMADvJUFGeWGbfgdGYfSQ_r1eUWN2h4nrmJykAOJQ_7nBaUd95ORAe-kKdwJBvXy_QlCP2UgvJcUwd1d6hg4dPTKmzTzwqR3_2m00]--></g></svg>