<?xml version="1.0" encoding="us-ascii" standalone="no"?><svg xmlns="http://www.w3.org/2000/svg" xmlns:xlink="http://www.w3.org/1999/xlink" contentStyleType="text/css" height="917px" preserveAspectRatio="none" style="width:360px;height:917px;background:#FFFFFF;" version="1.1" viewBox="0 0 360 917" width="360px" zoomAndPan="magnify"><defs/><g><text fill="#000000" font-family="sans-serif" font-size="14" font-weight="bold" lengthAdjust="spacing" textLength="332" x="10" y="22.9951">Detalle Caso de Uso Abrir Proyecto - FISC</text><g id="P&#193;GINA_PRINCIPAL"><rect fill="#FAF4B4" height="50" rx="12.5" ry="12.5" style="stroke:#C90000;stroke-width:0.5;" width="155" x="99.25" y="44.2969"/><line style="stroke:#C90000;stroke-width:0.5;" x1="99.25" x2="254.25" y1="70.5938" y2="70.5938"/><text fill="#000000" font-family="sans-serif" font-size="14" lengthAdjust="spacing" textLength="135" x="109.25" y="62.292">P&#193;GINA_PRINCIPAL</text></g><path d="M53.75,204.2969 L299.75,204.2969 A12.5,12.5 0 0 1 312.25,216.7969 L312.25,230.5938 L41.25,230.5938 L41.25,216.7969 A12.5,12.5 0 0 1 53.75,204.2969 " fill="#FAF4B4" style="stroke:#FAF4B4;stroke-width:1.0;"/><rect fill="none" height="485.2969" rx="12.5" ry="12.5" style="stroke:#C90000;stroke-width:0.5;" width="271" x="41.25" y="204.2969"/><line style="stroke:#C90000;stroke-width:0.5;" x1="41.25" x2="312.25" y1="230.5938" y2="230.5938"/><text fill="#000000" font-family="sans-serif" font-size="14" lengthAdjust="spacing" textLength="107" x="123.25" y="222.292">abrir_proyecto</text><g id="abrir_proyecto.1"><rect fill="#FAF4B4" height="50" rx="12.5" ry="12.5" style="stroke:#C90000;stroke-width:0.5;" width="50" x="53.25" y="298.5938"/><line style="stroke:#C90000;stroke-width:0.5;" x1="53.25" x2="103.25" y1="324.8906" y2="324.8906"/><text fill="#000000" font-family="sans-serif" font-size="14" lengthAdjust="spacing" textLength="4" x="76.25" y="316.5889">&#160;</text></g><g id="abrir_proyecto.2"><rect fill="#FAF4B4" height="50" rx="12.5" ry="12.5" style="stroke:#C90000;stroke-width:0.5;" width="50" x="53.25" y="434.5938"/><line style="stroke:#C90000;stroke-width:0.5;" x1="53.25" x2="103.25" y1="460.8906" y2="460.8906"/><text fill="#000000" font-family="sans-serif" font-size="14" lengthAdjust="spacing" textLength="4" x="76.25" y="452.5889">&#160;</text></g><g id="abrir_proyecto.3"><rect fill="#FAF4B4" height="50" rx="12.5" ry="12.5" style="stroke:#C90000;stroke-width:0.5;" width="50" x="53.25" y="570.5938"/><line style="stroke:#C90000;stroke-width:0.5;" x1="53.25" x2="103.25" y1="596.8906" y2="596.8906"/><text fill="#000000" font-family="sans-serif" font-size="14" lengthAdjust="spacing" textLength="4" x="76.25" y="588.5889">&#160;</text></g><ellipse cx="78.25" cy="251.5938" fill="#222222" rx="10" ry="10" style="stroke:#222222;stroke-width:1.0;"/><ellipse cx="78.25" cy="668.5938" fill="none" rx="11" ry="11" style="stroke:#222222;stroke-width:1.0;"/><ellipse cx="78.25" cy="668.5938" fill="#222222" rx="6" ry="6" style="stroke:#222222;stroke-width:1.0;"/><!--link *start*abrir_proyecto to 1--><g id="link_*start*abrir_proyecto_1"><path d="M78.25,261.7448 C78.25,271.0098 78.25,279.7348 78.25,292.3778 " fill="none" id="*start*abrir_proyecto-to-1" style="stroke:#008000;stroke-width:1.0;"/><polygon fill="#008000" points="78.25,298.3778,82.25,289.3778,78.25,293.3778,74.25,289.3778,78.25,298.3778" style="stroke:#008000;stroke-width:1.0;"/></g><!--link 1 to 2--><g id="link_1_2"><path d="M78.25,348.8598 C78.25,373.1458 78.25,404.2868 78.25,428.5078 " fill="none" id="1-to-2" style="stroke:#008000;stroke-width:1.0;"/><polygon fill="#008000" points="78.25,434.5078,82.25,425.5078,78.25,429.5078,74.25,425.5078,78.25,434.5078" style="stroke:#008000;stroke-width:1.0;"/><path d="M83.25,371.5938 L83.25,411.5938 L303.25,411.5938 L303.25,381.5938 L293.25,371.5938 L83.25,371.5938 " fill="#F5F5F5" style="stroke:#181818;stroke-width:0.5;"/><path d="M293.25,371.5938 L293.25,381.5938 L303.25,381.5938 L293.25,371.5938 " fill="#F5F5F5" style="stroke:#181818;stroke-width:0.5;"/><text fill="#000000" font-family="sans-serif" font-size="13" font-weight="bold" lengthAdjust="spacing" textLength="134" x="89.25" y="388.6606">Sistema requiere:</text><text fill="#000000" font-family="sans-serif" font-size="13" lengthAdjust="spacing" textLength="199" x="89.25" y="403.7935">- Archivo de proyecto conocido</text></g><!--link 2 to 3--><g id="link_2_3"><path d="M78.25,484.8597 C78.25,509.1458 78.25,540.2868 78.25,564.5078 " fill="none" id="2-to-3" style="stroke:#008000;stroke-width:1.0;"/><polygon fill="#008000" points="78.25,570.5078,82.25,561.5078,78.25,565.5078,74.25,561.5078,78.25,570.5078" style="stroke:#008000;stroke-width:1.0;"/><path d="M83.25,507.5938 L83.25,547.5938 L303.25,547.5938 L303.25,517.5938 L293.25,507.5938 L83.25,507.5938 " fill="#F5F5F5" style="stroke:#181818;stroke-width:0.5;"/><path d="M293.25,507.5938 L293.25,517.5938 L303.25,517.5938 L293.25,507.5938 " fill="#F5F5F5" style="stroke:#181818;stroke-width:0.5;"/><text fill="#000000" font-family="sans-serif" font-size="13" font-weight="bold" lengthAdjust="spacing" textLength="146" x="89.25" y="524.6606">Usuario Selecciona:</text><text fill="#000000" font-family="sans-serif" font-size="13" lengthAdjust="spacing" textLength="199" x="89.25" y="539.7935">- Archivo de proyecto conocido</text></g><!--link 3 to *end*abrir_proyecto--><g id="link_3_*end*abrir_proyecto"><path d="M78.25,620.6311 C78.25,633.1829 78.25,641.8762 78.25,651.44 " fill="none" id="3-to-*end*abrir_proyecto" style="stroke:#008000;stroke-width:1.0;"/><polygon fill="#008000" points="78.25,657.44,82.25,648.44,78.25,652.44,74.25,648.44,78.25,657.44" style="stroke:#008000;stroke-width:1.0;"/></g><g id=":abrirP&#225;ginaProyecto"><rect fill="#FAF4B4" height="50" rx="12.5" ry="12.5" style="stroke:#C90000;stroke-width:0.5;" width="171" x="91.25" y="750.2969"/><line style="stroke:#C90000;stroke-width:0.5;" x1="91.25" x2="262.25" y1="776.5938" y2="776.5938"/><text fill="#000000" font-family="sans-serif" font-size="14" lengthAdjust="spacing" textLength="151" x="101.25" y="768.292">:abrirP&#225;ginaProyecto</text></g><g id="P&#193;GINA_PROYECTO"><rect fill="#FAF4B4" height="50" rx="12.5" ry="12.5" style="stroke:#C90000;stroke-width:0.5;" width="159" x="97.25" y="861.2969"/><line style="stroke:#C90000;stroke-width:0.5;" x1="97.25" x2="256.25" y1="887.5938" y2="887.5938"/><text fill="#000000" font-family="sans-serif" font-size="14" lengthAdjust="spacing" textLength="139" x="107.25" y="879.292">P&#193;GINA_PROYECTO</text></g><!--link P?GINA_PRINCIPAL to abrir_proyecto--><g id="link_P&#193;GINA_PRINCIPAL_abrir_proyecto"><path d="M176.75,94.3569 C176.75,118.7189 176.75,153.1239 176.75,198.0359 " fill="none" id="P&#193;GINA_PRINCIPAL-to-abrir_proyecto" style="stroke:#008000;stroke-width:1.0;"/><polygon fill="#008000" points="176.75,204.0359,180.75,195.0359,176.75,199.0359,172.75,195.0359,176.75,204.0359" style="stroke:#008000;stroke-width:1.0;"/><path d="M181.75,129.2969 L181.75,169.2969 L324.75,169.2969 L324.75,139.2969 L314.75,129.2969 L181.75,129.2969 " fill="#F5F5F5" style="stroke:#181818;stroke-width:0.5;"/><path d="M314.75,129.2969 L314.75,139.2969 L324.75,139.2969 L314.75,129.2969 " fill="#F5F5F5" style="stroke:#181818;stroke-width:0.5;"/><text fill="#000000" font-family="sans-serif" font-size="13" font-weight="bold" lengthAdjust="spacing" textLength="122" x="187.75" y="146.3638">Usuario solicita:</text><text fill="#000000" font-family="sans-serif" font-size="13" lengthAdjust="spacing" textLength="100" x="187.75" y="161.4966">- Abrir proyecto</text></g><!--link abrir_proyecto to :abrirP?ginaProyecto--><g id="link_abrir_proyecto_:abrirP&#225;ginaProyecto"><path d="M176.75,689.3649 C176.75,713.6209 176.75,728.8539 176.75,744.0229 " fill="none" id="abrir_proyecto-to-:abrirP&#225;ginaProyecto" style="stroke:#008000;stroke-width:1.0;"/><polygon fill="#008000" points="176.75,750.0229,180.75,741.0229,176.75,745.0229,172.75,741.0229,176.75,750.0229" style="stroke:#008000;stroke-width:1.0;"/></g><!--link :abrirP?ginaProyecto to P?GINA_PROYECTO--><g id="link_:abrirP&#225;ginaProyecto_P&#193;GINA_PROYECTO"><path d="M176.75,800.4879 C176.75,818.5507 176.75,837.127 176.75,855.1739 " fill="none" id=":abrirP&#225;ginaProyecto-to-P&#193;GINA_PROYECTO" style="stroke:#008000;stroke-width:1.0;"/><polygon fill="#008000" points="176.75,861.1739,180.75,852.1739,176.75,856.1739,172.75,852.1739,176.75,861.1739" style="stroke:#008000;stroke-width:1.0;"/></g><!--SRC=[bLBDQW8n4BxdAGQzBIpKdnxgeM2tFomKNMezY8Z4x6Y3QsQRn8AK7leeVHPVhCcggolsq4aWvClCVDzCnYobohdcAp2MMuHF1d37nNAXQQtIY3BIK9_pUNlMzY-aKzHxLDnSEMDVZ9aoYQ8_SrpxLVNEf4AxoH5ooZR-mfYLDaEuHyipTqRS4AG8GtTqPrfgI3HjK5Y241xZGSGOIxRVJt6lEqrUubuK9zrd2CVrXKPKa_0Mk8-QvlieLkWZvPcNJcKG3CsQQqbWA9D2Mju90eU7UxOo3bLQrERK5ssgflK5x_06S0Crg9L0ynne7G6tny6a8hVXi4O5QJhaJBMt81X8Ot75GUFxMgB6dN9lJhqMR_AZQDr18mXI96HApgci1fo-KxBM9R9ZamQOeH2I53-G_OFANLeLCbUx7uTgAqyTEiLJilrPICKF7y_OHRYI-JWI_T53zDh_1G00]--></g></svg>