<?xml version="1.0" encoding="us-ascii" standalone="no"?><svg xmlns="http://www.w3.org/2000/svg" xmlns:xlink="http://www.w3.org/1999/xlink" contentStyleType="text/css" height="947px" preserveAspectRatio="none" style="width:569px;height:947px;background:#FFFFFF;" version="1.1" viewBox="0 0 569 947" width="569px" zoomAndPan="magnify"><defs/><g><text fill="#000000" font-family="sans-serif" font-size="14" font-weight="bold" lengthAdjust="spacing" textLength="335" x="107" y="22.9951">Detalle Caso de Uso Crear Proyecto - FISC</text><g id="ESTADO_PRINCIPAL"><rect fill="#FAF4B4" height="50" rx="12.5" ry="12.5" style="stroke:#C90000;stroke-width:0.5;" width="160" x="201.5" y="44.2969"/><line style="stroke:#C90000;stroke-width:0.5;" x1="201.5" x2="361.5" y1="70.5938" y2="70.5938"/><text fill="#000000" font-family="sans-serif" font-size="14" lengthAdjust="spacing" textLength="140" x="211.5" y="62.292">ESTADO_PRINCIPAL</text></g><path d="M19.5,204.2969 L543.5,204.2969 A12.5,12.5 0 0 1 556,216.7969 L556,230.5938 L7,230.5938 L7,216.7969 A12.5,12.5 0 0 1 19.5,204.2969 " fill="#FAF4B4" style="stroke:#FAF4B4;stroke-width:1.0;"/><rect fill="none" height="515.2969" rx="12.5" ry="12.5" style="stroke:#C90000;stroke-width:0.5;" width="549" x="7" y="204.2969"/><line style="stroke:#C90000;stroke-width:0.5;" x1="7" x2="556" y1="230.5938" y2="230.5938"/><text fill="#000000" font-family="sans-serif" font-size="14" lengthAdjust="spacing" textLength="110" x="226.5" y="222.292">crear_proyecto</text><g id="crear_proyecto.1"><rect fill="#FAF4B4" height="50" rx="12.5" ry="12.5" style="stroke:#C90000;stroke-width:0.5;" width="50" x="167" y="298.5938"/><line style="stroke:#C90000;stroke-width:0.5;" x1="167" x2="217" y1="324.8906" y2="324.8906"/><text fill="#000000" font-family="sans-serif" font-size="14" lengthAdjust="spacing" textLength="4" x="190" y="316.5889">&#160;</text></g><g id="crear_proyecto.2"><rect fill="#FAF4B4" height="50" rx="12.5" ry="12.5" style="stroke:#C90000;stroke-width:0.5;" width="50" x="19" y="449.5938"/><line style="stroke:#C90000;stroke-width:0.5;" x1="19" x2="69" y1="475.8906" y2="475.8906"/><text fill="#000000" font-family="sans-serif" font-size="14" lengthAdjust="spacing" textLength="4" x="42" y="467.5889">&#160;</text></g><g id="crear_proyecto.3"><rect fill="#FAF4B4" height="50" rx="12.5" ry="12.5" style="stroke:#C90000;stroke-width:0.5;" width="50" x="161" y="600.5938"/><line style="stroke:#C90000;stroke-width:0.5;" x1="161" x2="211" y1="626.8906" y2="626.8906"/><text fill="#000000" font-family="sans-serif" font-size="14" lengthAdjust="spacing" textLength="4" x="184" y="618.5889">&#160;</text></g><ellipse cx="192" cy="251.5938" fill="#222222" rx="10" ry="10" style="stroke:#222222;stroke-width:1.0;"/><ellipse cx="186" cy="698.5938" fill="none" rx="11" ry="11" style="stroke:#222222;stroke-width:1.0;"/><ellipse cx="186" cy="698.5938" fill="#222222" rx="6" ry="6" style="stroke:#222222;stroke-width:1.0;"/><!--link *start*crear_proyecto to 1--><g id="link_*start*crear_proyecto_1"><path d="M192,261.7448 C192,271.0098 192,279.7348 192,292.3778 " fill="none" id="*start*crear_proyecto-to-1" style="stroke:#008000;stroke-width:1.0;"/><polygon fill="#008000" points="192,298.3778,196,289.3778,192,293.3778,188,289.3778,192,298.3778" style="stroke:#008000;stroke-width:1.0;"/></g><!--link 1 to 2--><g id="link_1_2"><path d="M166.792,332.1028 C126.235,344.1828 51,366.5938 51,366.5938 C51,366.5938 48.0265,412.0465 45.9626,443.5935 " fill="none" id="1-to-2" style="stroke:#008000;stroke-width:1.0;"/><polygon fill="#008000" points="45.5709,449.5808,50.1499,440.8611,45.8973,444.5914,42.167,440.3388,45.5709,449.5808" style="stroke:#008000;stroke-width:1.0;"/><path d="M56,371.5938 L56,426.5938 L311,426.5938 L311,381.5938 L301,371.5938 L56,371.5938 " fill="#F5F5F5" style="stroke:#181818;stroke-width:0.5;"/><path d="M301,371.5938 L301,381.5938 L311,381.5938 L301,371.5938 " fill="#F5F5F5" style="stroke:#181818;stroke-width:0.5;"/><text fill="#000000" font-family="sans-serif" font-size="13" font-weight="bold" lengthAdjust="spacing" textLength="134" x="62" y="388.6606">Sistema requiere:</text><text fill="#000000" font-family="sans-serif" font-size="13" lengthAdjust="spacing" textLength="144" x="62" y="403.7935">- Nombre del proyecto</text><text fill="#000000" font-family="sans-serif" font-size="13" lengthAdjust="spacing" textLength="234" x="62" y="418.9263">- Descripci&#243;n del proyecto (opcional)</text></g><!--link 2 to 3--><g id="link_2_3"><path d="M43.4183,500.0258 C43.1983,509.2648 43,517.5938 43,517.5938 C43,517.5938 43,582.5938 43,582.5938 C43,582.5938 113.9541,603.434 155.0071,615.4909 " fill="none" id="2-to-3" style="stroke:#008000;stroke-width:1.0;"/><polygon fill="#008000" points="160.764,617.1817,153.2559,610.8076,155.9666,615.7727,151.0016,618.4834,160.764,617.1817" style="stroke:#008000;stroke-width:1.0;"/><path d="M48,522.5938 L48,577.5938 L311,577.5938 L311,532.5938 L301,522.5938 L48,522.5938 " fill="#F5F5F5" style="stroke:#181818;stroke-width:0.5;"/><path d="M301,522.5938 L301,532.5938 L311,532.5938 L301,522.5938 " fill="#F5F5F5" style="stroke:#181818;stroke-width:0.5;"/><text fill="#000000" font-family="sans-serif" font-size="13" font-weight="bold" lengthAdjust="spacing" textLength="119" x="54" y="539.6606">Usuario aporta:</text><text fill="#000000" font-family="sans-serif" font-size="13" lengthAdjust="spacing" textLength="144" x="62" y="554.7935">- Nombre del proyecto</text><text fill="#000000" font-family="sans-serif" font-size="13" lengthAdjust="spacing" textLength="234" x="62" y="569.9263">- Descripci&#243;n del proyecto (opcional)</text></g><!--link 3 to 1--><g id="link_3_1"><path d="M211.065,616.4958 C248.842,604.2908 316,582.5938 316,582.5938 C316,582.5938 316,366.5938 316,366.5938 C316,366.5938 259.0088,347.2907 222.7758,335.0177 " fill="none" id="3-to-1" style="stroke:#FF0000;stroke-width:1.0;"/><polygon fill="#FF0000" points="217.093,333.0928,224.334,339.7687,221.8287,334.6968,226.9005,332.1916,217.093,333.0928" style="stroke:#FF0000;stroke-width:1.0;"/><path d="M321,462.0938 L321,487.0938 L547,487.0938 L547,472.0938 L537,462.0938 L321,462.0938 " fill="#F5F5F5" style="stroke:#181818;stroke-width:0.5;"/><path d="M537,462.0938 L537,472.0938 L547,472.0938 L537,462.0938 " fill="#F5F5F5" style="stroke:#181818;stroke-width:0.5;"/><text fill="#000000" font-family="sans-serif" font-size="13" lengthAdjust="spacing" textLength="205" x="327" y="479.1606">[nombre de proyecto existente]</text></g><!--link 3 to *end*crear_proyecto--><g id="link_3_*end*crear_proyecto"><path d="M186,650.6311 C186,663.1829 186,671.8762 186,681.44 " fill="none" id="3-to-*end*crear_proyecto" style="stroke:#008000;stroke-width:1.0;"/><polygon fill="#008000" points="186,687.44,190,678.44,186,682.44,182,678.44,186,687.44" style="stroke:#008000;stroke-width:1.0;"/></g><g id=":crearNuevoProyecto"><rect fill="#FAF4B4" height="50" rx="12.5" ry="12.5" style="stroke:#C90000;stroke-width:0.5;" width="171" x="196" y="780.2969"/><line style="stroke:#C90000;stroke-width:0.5;" x1="196" x2="367" y1="806.5938" y2="806.5938"/><text fill="#000000" font-family="sans-serif" font-size="14" lengthAdjust="spacing" textLength="151" x="206" y="798.292">:crearNuevoProyecto</text></g><g id="ESTADO_PROYECTO"><rect fill="#FAF4B4" height="50" rx="12.5" ry="12.5" style="stroke:#C90000;stroke-width:0.5;" width="164" x="199.5" y="891.2969"/><line style="stroke:#C90000;stroke-width:0.5;" x1="199.5" x2="363.5" y1="917.5938" y2="917.5938"/><text fill="#000000" font-family="sans-serif" font-size="14" lengthAdjust="spacing" textLength="144" x="209.5" y="909.292">ESTADO_PROYECTO</text></g><!--link ESTADO_PRINCIPAL to crear_proyecto--><g id="link_ESTADO_PRINCIPAL_crear_proyecto"><path d="M281.5,94.4299 C281.5,118.7069 281.5,152.9299 281.5,198.0299 " fill="none" id="ESTADO_PRINCIPAL-to-crear_proyecto" style="stroke:#008000;stroke-width:1.0;"/><polygon fill="#008000" points="281.5,204.0299,285.5,195.0299,281.5,199.0299,277.5,195.0299,281.5,204.0299" style="stroke:#008000;stroke-width:1.0;"/><path d="M286.5,129.2969 L286.5,169.2969 L429.5,169.2969 L429.5,139.2969 L419.5,129.2969 L286.5,129.2969 " fill="#F5F5F5" style="stroke:#181818;stroke-width:0.5;"/><path d="M419.5,129.2969 L419.5,139.2969 L429.5,139.2969 L419.5,129.2969 " fill="#F5F5F5" style="stroke:#181818;stroke-width:0.5;"/><text fill="#000000" font-family="sans-serif" font-size="13" font-weight="bold" lengthAdjust="spacing" textLength="122" x="292.5" y="146.3638">Usuario solicita:</text><text fill="#000000" font-family="sans-serif" font-size="13" lengthAdjust="spacing" textLength="105" x="292.5" y="161.4966">- Crear Proyecto</text></g><!--link crear_proyecto to :crearNuevoProyecto--><g id="link_crear_proyecto_:crearNuevoProyecto"><path d="M281.5,719.4419 C281.5,743.8129 281.5,759.0259 281.5,774.1469 " fill="none" id="crear_proyecto-to-:crearNuevoProyecto" style="stroke:#008000;stroke-width:1.0;"/><polygon fill="#008000" points="281.5,780.1469,285.5,771.1469,281.5,775.1469,277.5,771.1469,281.5,780.1469" style="stroke:#008000;stroke-width:1.0;"/></g><!--link :crearNuevoProyecto to ESTADO_PROYECTO--><g id="link_:crearNuevoProyecto_ESTADO_PROYECTO"><path d="M281.5,830.4879 C281.5,848.5507 281.5,867.127 281.5,885.1739 " fill="none" id=":crearNuevoProyecto-to-ESTADO_PROYECTO" style="stroke:#008000;stroke-width:1.0;"/><polygon fill="#008000" points="281.5,891.1739,285.5,882.1739,281.5,886.1739,277.5,882.1739,281.5,891.1739" style="stroke:#008000;stroke-width:1.0;"/></g><!--SRC=[jLB1Qi904BtlLmprqWO2ZTf3FHHij20KbQg78Y9hCifYt4btDwLI-bNzXFvOTwF6HD9Z9u5btyw-UMzsz5R8b2k-0ssuGVXa08yyscuKPJ8EAI45ZJLVjrTjTq8gHdL4e_jR6-oBCLsGIFgJuyvzrUn4I3Jx526bPEysZ1bX4eGU6fxODUIQ84QOsILKo1MC5UqnCWG-F0qc8MEiFvbsUwFb-6Km30VZxhC_RsmKebpu3n2vEylqU8VbwaYwkbkhqVDcEkDA46XAH2GCxtYUnVsBMWnbd3kpslCcLMcTtGCU0DTm1LS5qBm4McV0_dDl0IMvWOM2CW1DYro8Tk5v4w4DxZWeVCi4AZm8T-73a7OhXRPj2HJEJsSzr94IQIH-lcKb0wx9eYHvScEJ2yDWBPG5jUe4dVl8KrAdBlw7c9OJep1sKe8wANDvgdScmm_NB6bmKKDMEBDluOQp-hJbX4v-DCpmdOh1O3LWXRKOpj5hFvoEVW40]--></g></svg>