<?xml version="1.0" encoding="us-ascii" standalone="no"?><svg xmlns="http://www.w3.org/2000/svg" xmlns:xlink="http://www.w3.org/1999/xlink" contentStyleType="text/css" height="633px" preserveAspectRatio="none" style="width:1042px;height:633px;background:#FFFFFF;" version="1.1" viewBox="0 0 1042 633" width="1042px" zoomAndPan="magnify"><defs/><g><text fill="#000000" font-family="sans-serif" font-size="14" font-weight="bold" lengthAdjust="spacing" textLength="279" x="374.75" y="22.9951">Caso de Uso Inicio de Sesi&#243;n - FISC</text><!--cluster iniciar_sesi?n--><g id="cluster_iniciar_sesi&#243;n"><path d="M352.5,165.2969 L705.5,165.2969 A12.5,12.5 0 0 1 718,177.7969 L718,186.5938 L340,186.5938 L340,177.7969 A12.5,12.5 0 0 1 352.5,165.2969 " fill="#F1F1F1" style="stroke:#F1F1F1;stroke-width:1.0;"/><rect fill="none" height="341" rx="12.5" ry="12.5" style="stroke:#181818;stroke-width:0.5;" width="378" x="340" y="165.2969"/><line style="stroke:#181818;stroke-width:0.5;" x1="340" x2="718" y1="186.5938" y2="186.5938"/><text fill="#000000" font-family="sans-serif" font-size="14" lengthAdjust="spacing" textLength="95" x="481.5" y="182.292">iniciar_sesi&#243;n</text></g><ellipse cx="488" cy="218.2969" fill="#222222" rx="10" ry="10" style="stroke:#222222;stroke-width:1.0;"/><g id="iniciar_sesi&#243;n.InicioSesi&#243;n"><rect fill="#F1F1F1" height="50" rx="12.5" ry="12.5" style="stroke:#181818;stroke-width:0.5;" width="105" x="471.5" y="432.2969"/><line style="stroke:#181818;stroke-width:0.5;" x1="471.5" x2="576.5" y1="458.5938" y2="458.5938"/><text fill="#000000" font-family="sans-serif" font-size="14" lengthAdjust="spacing" textLength="85" x="481.5" y="450.292">InicioSesi&#243;n</text></g><g id="iniciar_sesi&#243;n.Registro"><rect fill="#F1F1F1" height="50" rx="12.5" ry="12.5" style="stroke:#181818;stroke-width:0.5;" width="81" x="372.5" y="305.2969"/><line style="stroke:#181818;stroke-width:0.5;" x1="372.5" x2="453.5" y1="331.5938" y2="331.5938"/><text fill="#000000" font-family="sans-serif" font-size="14" lengthAdjust="spacing" textLength="61" x="382.5" y="323.292">Registro</text></g><g id="INICIO"><rect fill="#F1F1F1" height="50" rx="12.5" ry="12.5" style="stroke:#181818;stroke-width:0.5;" width="63" x="316.5" y="44.2969"/><line style="stroke:#181818;stroke-width:0.5;" x1="316.5" x2="379.5" y1="70.5938" y2="70.5938"/><text fill="#000000" font-family="sans-serif" font-size="14" lengthAdjust="spacing" textLength="43" x="326.5" y="62.292">INICIO</text></g><g id="DASHBOARD_ABIERTO"><rect fill="#F1F1F1" height="50" rx="12.5" ry="12.5" style="stroke:#181818;stroke-width:0.5;" width="182" x="433" y="577.2969"/><line style="stroke:#181818;stroke-width:0.5;" x1="433" x2="615" y1="603.5938" y2="603.5938"/><text fill="#000000" font-family="sans-serif" font-size="14" lengthAdjust="spacing" textLength="162" x="443" y="595.292">DASHBOARD_ABIERTO</text></g><g id="elem_GMN13"><path d="M6,310.2969 L6,350.5625 A0,0 0 0 0 6,350.5625 L316,350.5625 A0,0 0 0 0 316,350.5625 L316,334.2969 L372.473,330.2969 L316,326.2969 L316,320.2969 L306,310.2969 L6,310.2969 A0,0 0 0 0 6,310.2969 " fill="#FEFFDD" style="stroke:#181818;stroke-width:0.5;"/><path d="M306,310.2969 L306,320.2969 L316,320.2969 L306,310.2969 " fill="#FEFFDD" style="stroke:#181818;stroke-width:0.5;"/><text fill="#000000" font-family="sans-serif" font-size="13" lengthAdjust="spacing" textLength="248" x="12" y="327.3638">- El sistema reconoce al nuevo usuario</text><text fill="#000000" font-family="sans-serif" font-size="13" lengthAdjust="spacing" textLength="289" x="12" y="342.4966">- Pasa de "usuario_no_registrado" a "usuario"</text></g><g id="elem_GMN16"><path d="M742.5,444.7969 L742.5,453.2969 L576.754,457.2969 L742.5,461.2969 L742.5,469.9297 A0,0 0 0 0 742.5,469.9297 L1035.5,469.9297 A0,0 0 0 0 1035.5,469.9297 L1035.5,454.7969 L1025.5,444.7969 L742.5,444.7969 A0,0 0 0 0 742.5,444.7969 " fill="#FEFFDD" style="stroke:#181818;stroke-width:0.5;"/><path d="M1025.5,444.7969 L1025.5,454.7969 L1035.5,454.7969 L1025.5,444.7969 " fill="#FEFFDD" style="stroke:#181818;stroke-width:0.5;"/><text fill="#000000" font-family="sans-serif" font-size="13" lengthAdjust="spacing" textLength="272" x="748.5" y="461.8638">- Se inicia sesi&#243;n con usuario y contrase&#241;a</text></g><!--link INICIO to iniciar_sesi?n--><g id="link_INICIO_iniciar_sesi&#243;n"><path d="M348,94.5709 C348,104.8459 348,117.4962 348,130.7304 C348,137.3476 348,144.1107 348,150.7958 C348,154.1384 348,157.4615 348,160.7372 C348,161.5561 348,162.372 348,163.1845 C348,163.5908 348,163.9962 348,164.4007 C348,164.603 348,158.805 348,159.0068 " fill="none" id="INICIO-to-iniciar_sesi&#243;n" style="stroke:#181818;stroke-width:1.0;"/><polygon fill="#181818" points="348,165.0068,352,156.0068,348,160.0068,344,156.0068,348,165.0068" style="stroke:#181818;stroke-width:1.0;"/><text fill="#000000" font-family="sans-serif" font-size="13" lengthAdjust="spacing" textLength="110" x="349" y="137.3638">el usuario solicita</text></g><!--link *start*iniciar_sesi?n to InicioSesi?n--><g id="link_*start*iniciar_sesi&#243;n_InicioSesi&#243;n"><path d="M497.743,220.8999 C514.899,224.3059 550.094,234.0389 565,258.2969 C599.091,313.7779 565.2661,387.6306 542.3891,426.9556 " fill="none" id="*start*iniciar_sesi&#243;n-to-InicioSesi&#243;n" style="stroke:#181818;stroke-width:1.0;"/><polygon fill="#181818" points="539.372,432.1419,547.3551,426.3739,541.8862,427.82,540.4401,422.3511,539.372,432.1419" style="stroke:#181818;stroke-width:1.0;"/><text fill="#000000" font-family="sans-serif" font-size="13" lengthAdjust="spacing" textLength="168" x="579" y="334.8638">Usuario elige iniciar sesi&#243;n</text></g><!--link *start*iniciar_sesi?n to Registro--><g id="link_*start*iniciar_sesi&#243;n_Registro"><path d="M480.142,224.6719 C478.174,225.9279 476.042,227.2129 474,228.2969 C444.105,244.1699 422.633,230.0389 404,258.2969 C394.971,271.9889 395.8107,284.7255 400.5207,299.3855 " fill="none" id="*start*iniciar_sesi&#243;n-to-Registro" style="stroke:#181818;stroke-width:1.0;"/><polygon fill="#181818" points="402.356,305.0979,403.4113,295.3057,400.8266,300.3375,395.7948,297.7528,402.356,305.0979" style="stroke:#181818;stroke-width:1.0;"/><text fill="#000000" font-family="sans-serif" font-size="13" lengthAdjust="spacing" textLength="155" x="405" y="271.3638">Usuario elige registrarse</text></g><!--link Registro to InicioSesi?n--><g id="link_Registro_InicioSesi&#243;n"><path d="M415.23,355.3629 C417.633,370.1529 422.626,388.7889 433,402.2969 C442.959,415.2639 451.8004,422.7339 465.8704,430.8859 " fill="none" id="Registro-to-InicioSesi&#243;n" style="stroke:#181818;stroke-width:1.0;"/><polygon fill="#181818" points="471.062,433.8939,465.2799,425.9209,466.7357,431.3873,461.2694,432.843,471.062,433.8939" style="stroke:#181818;stroke-width:1.0;"/><text fill="#000000" font-family="sans-serif" font-size="13" lengthAdjust="spacing" textLength="80" x="434" y="398.3638">puede pasar</text></g><!--link InicioSesi?n to DASHBOARD_ABIERTO--><g id="link_InicioSesi&#243;n_DASHBOARD_ABIERTO"><path d="M524,482.5549 C524,508.8509 524,544.5775 524,570.9199 " fill="none" id="InicioSesi&#243;n-to-DASHBOARD_ABIERTO" style="stroke:#181818;stroke-width:1.0;"/><polygon fill="#181818" points="524,576.9199,528,567.9199,524,571.9199,520,567.9199,524,576.9199" style="stroke:#181818;stroke-width:1.0;"/><text fill="#000000" font-family="sans-serif" font-size="13" lengthAdjust="spacing" textLength="106" x="525" y="543.3638">registro correcto</text></g><!--SRC=[PL7DQiCm3BxxAKIEWxn03eCqxLWkwqYsqnZ196fcyAnYEuDH-b1ZZz0NcvBOOMrEYQJlJx9NNYCKqX5q2A_yAOrgrLJLwDJbrq0A3sLT2E6yz0ZbKrcKUv0Ealat2ODjNZzkzdcrRV9DkQjUPiogcmWH9DBq7jJe9ctZWbS6g65mWxISmP7cgPVH-XPy4W1lT- -Jq1mxHCvuara2jUeN8WJYFrg5lNBUqYt3pdrf7GB38snjnOcF0_ArZjAn0sElnoDXVPai6X2qP2ssdiHP24EyfSQ31peidYoPmaw3ume_9JDRCjGYI0rcm2-Azvg0pnnZVBmaD1j3JLocemJaCaa4cWv6os1iLVynELzjS9fawtZ4U4FERPQ7-XuhDd1u-P7Y_0S0]--></g></svg>