<?xml version="1.0" encoding="us-ascii" standalone="no"?><svg xmlns="http://www.w3.org/2000/svg" xmlns:xlink="http://www.w3.org/1999/xlink" contentStyleType="text/css" height="917px" preserveAspectRatio="none" style="width:411px;height:917px;background:#FFFFFF;" version="1.1" viewBox="0 0 411 917" width="411px" zoomAndPan="magnify"><defs/><g><text fill="#000000" font-family="sans-serif" font-size="14" font-weight="bold" lengthAdjust="spacing" textLength="379" x="10" y="22.9951">Detalle Caso de Uso Cancelar Simulaci&#243;n - FISC</text><g id="SIMULANDO"><rect fill="#FAF4B4" height="50" rx="12.5" ry="12.5" style="stroke:#C90000;stroke-width:0.5;" width="104" x="182.5" y="44.2969"/><line style="stroke:#C90000;stroke-width:0.5;" x1="182.5" x2="286.5" y1="70.5938" y2="70.5938"/><text fill="#000000" font-family="sans-serif" font-size="14" lengthAdjust="spacing" textLength="84" x="192.5" y="62.292">SIMULANDO</text></g><path d="M47.5,204.2969 L231.5,204.2969 A12.5,12.5 0 0 1 244,216.7969 L244,230.5938 L35,230.5938 L35,216.7969 A12.5,12.5 0 0 1 47.5,204.2969 " fill="#FAF4B4" style="stroke:#FAF4B4;stroke-width:1.0;"/><rect fill="none" height="485.2969" rx="12.5" ry="12.5" style="stroke:#C90000;stroke-width:0.5;" width="209" x="35" y="204.2969"/><line style="stroke:#C90000;stroke-width:0.5;" x1="35" x2="244" y1="230.5938" y2="230.5938"/><text fill="#000000" font-family="sans-serif" font-size="14" lengthAdjust="spacing" textLength="142" x="68.5" y="222.292">cancelar_simulaci&#243;n</text><g id="cancelar_simulaci&#243;n.1"><rect fill="#FAF4B4" height="50" rx="12.5" ry="12.5" style="stroke:#C90000;stroke-width:0.5;" width="50" x="47" y="298.5938"/><line style="stroke:#C90000;stroke-width:0.5;" x1="47" x2="97" y1="324.8906" y2="324.8906"/><text fill="#000000" font-family="sans-serif" font-size="14" lengthAdjust="spacing" textLength="4" x="70" y="316.5889">&#160;</text></g><g id="cancelar_simulaci&#243;n.2"><rect fill="#FAF4B4" height="50" rx="12.5" ry="12.5" style="stroke:#C90000;stroke-width:0.5;" width="50" x="47" y="434.5938"/><line style="stroke:#C90000;stroke-width:0.5;" x1="47" x2="97" y1="460.8906" y2="460.8906"/><text fill="#000000" font-family="sans-serif" font-size="14" lengthAdjust="spacing" textLength="4" x="70" y="452.5889">&#160;</text></g><g id="cancelar_simulaci&#243;n.3"><rect fill="#FAF4B4" height="50" rx="12.5" ry="12.5" style="stroke:#C90000;stroke-width:0.5;" width="50" x="47" y="570.5938"/><line style="stroke:#C90000;stroke-width:0.5;" x1="47" x2="97" y1="596.8906" y2="596.8906"/><text fill="#000000" font-family="sans-serif" font-size="14" lengthAdjust="spacing" textLength="4" x="70" y="588.5889">&#160;</text></g><ellipse cx="72" cy="251.5938" fill="#222222" rx="10" ry="10" style="stroke:#222222;stroke-width:1.0;"/><ellipse cx="72" cy="668.5938" fill="none" rx="11" ry="11" style="stroke:#222222;stroke-width:1.0;"/><ellipse cx="72" cy="668.5938" fill="#222222" rx="6" ry="6" style="stroke:#222222;stroke-width:1.0;"/><!--link *start*cancelar_simulaci?n to 1--><g id="link_*start*cancelar_simulaci&#243;n_1"><path d="M72,261.7448 C72,271.0098 72,279.7348 72,292.3778 " fill="none" id="*start*cancelar_simulaci&#243;n-to-1" style="stroke:#008000;stroke-width:1.0;"/><polygon fill="#008000" points="72,298.3778,76,289.3778,72,293.3778,68,289.3778,72,298.3778" style="stroke:#008000;stroke-width:1.0;"/></g><!--link 1 to 2--><g id="link_1_2"><path d="M72,348.8598 C72,373.1458 72,404.2868 72,428.5078 " fill="none" id="1-to-2" style="stroke:#008000;stroke-width:1.0;"/><polygon fill="#008000" points="72,434.5078,76,425.5078,72,429.5078,68,425.5078,72,434.5078" style="stroke:#008000;stroke-width:1.0;"/><path d="M77,371.5938 L77,411.5938 L235,411.5938 L235,381.5938 L225,371.5938 L77,371.5938 " fill="#F5F5F5" style="stroke:#181818;stroke-width:0.5;"/><path d="M225,371.5938 L225,381.5938 L235,381.5938 L225,371.5938 " fill="#F5F5F5" style="stroke:#181818;stroke-width:0.5;"/><text fill="#000000" font-family="sans-serif" font-size="13" font-weight="bold" lengthAdjust="spacing" textLength="137" x="83" y="388.6606">Sistema Requiere:</text><text fill="#000000" font-family="sans-serif" font-size="13" lengthAdjust="spacing" textLength="100" x="83" y="403.7935">- Estas Seguro?</text></g><!--link 2 to 3--><g id="link_2_3"><path d="M72,484.8597 C72,509.1458 72,540.2868 72,564.5078 " fill="none" id="2-to-3" style="stroke:#008000;stroke-width:1.0;"/><polygon fill="#008000" points="72,570.5078,76,561.5078,72,565.5078,68,561.5078,72,570.5078" style="stroke:#008000;stroke-width:1.0;"/><path d="M77,507.5938 L77,547.5938 L218,547.5938 L218,517.5938 L208,507.5938 L77,507.5938 " fill="#F5F5F5" style="stroke:#181818;stroke-width:0.5;"/><path d="M208,507.5938 L208,517.5938 L218,517.5938 L208,507.5938 " fill="#F5F5F5" style="stroke:#181818;stroke-width:0.5;"/><text fill="#000000" font-family="sans-serif" font-size="13" font-weight="bold" lengthAdjust="spacing" textLength="120" x="83" y="524.6606">Usuario Aporta:</text><text fill="#000000" font-family="sans-serif" font-size="13" lengthAdjust="spacing" textLength="49" x="83" y="539.7935">- Si / No</text></g><!--link 3 to *end*cancelar_simulaci?n--><g id="link_3_*end*cancelar_simulaci&#243;n"><path d="M72,620.6311 C72,633.1829 72,641.8762 72,651.44 " fill="none" id="3-to-*end*cancelar_simulaci&#243;n" style="stroke:#008000;stroke-width:1.0;"/><polygon fill="#008000" points="72,657.44,76,648.44,72,652.44,68,648.44,72,657.44" style="stroke:#008000;stroke-width:1.0;"/></g><g id=":cancelar_simulaci&#243;n"><rect fill="#FAF4B4" height="50" rx="12.5" ry="12.5" style="stroke:#C90000;stroke-width:0.5;" width="167" x="55" y="750.2969"/><line style="stroke:#C90000;stroke-width:0.5;" x1="55" x2="222" y1="776.5938" y2="776.5938"/><text fill="#000000" font-family="sans-serif" font-size="14" lengthAdjust="spacing" textLength="147" x="65" y="768.292">:cancelar_simulaci&#243;n</text></g><g id=":seguir_simulando"><rect fill="#FAF4B4" height="50" rx="12.5" ry="12.5" style="stroke:#C90000;stroke-width:0.5;" width="147" x="257" y="750.2969"/><line style="stroke:#C90000;stroke-width:0.5;" x1="257" x2="404" y1="776.5938" y2="776.5938"/><text fill="#000000" font-family="sans-serif" font-size="14" lengthAdjust="spacing" textLength="127" x="267" y="768.292">:seguir_simulando</text></g><g id="CONFIGURACI&#211;N_DE_SIMULACI&#211;N"><rect fill="#FAF4B4" height="50" rx="12.5" ry="12.5" style="stroke:#C90000;stroke-width:0.5;" width="259" x="9" y="861.2969"/><line style="stroke:#C90000;stroke-width:0.5;" x1="9" x2="268" y1="887.5938" y2="887.5938"/><text fill="#000000" font-family="sans-serif" font-size="14" lengthAdjust="spacing" textLength="239" x="19" y="879.292">CONFIGURACI&#211;N_DE_SIMULACI&#211;N</text></g><!--link SIMULANDO to cancelar_simulaci?n--><g id="link_SIMULANDO_cancelar_simulaci&#243;n"><path d="M190.659,94.4539 C164.566,108.8319 136.5,124.2969 136.5,124.2969 C136.5,124.2969 136.5,174.2969 136.5,174.2969 C136.5,174.2969 136.5605,179.8242 136.7635,198.1292 " fill="none" id="SIMULANDO-to-cancelar_simulaci&#243;n" style="stroke:#008000;stroke-width:1.0;"/><polygon fill="#008000" points="136.83,204.1289,140.73,195.0851,136.7746,199.1292,132.7304,195.1738,136.83,204.1289" style="stroke:#008000;stroke-width:1.0;"/><path d="M141.5,129.2969 L141.5,169.2969 L299.5,169.2969 L299.5,139.2969 L289.5,129.2969 L141.5,129.2969 " fill="#F5F5F5" style="stroke:#181818;stroke-width:0.5;"/><path d="M289.5,129.2969 L289.5,139.2969 L299.5,139.2969 L289.5,129.2969 " fill="#F5F5F5" style="stroke:#181818;stroke-width:0.5;"/><text fill="#000000" font-family="sans-serif" font-size="13" font-weight="bold" lengthAdjust="spacing" textLength="122" x="147.5" y="146.3638">Usuario solicita:</text><text fill="#000000" font-family="sans-serif" font-size="13" lengthAdjust="spacing" textLength="137" x="147.5" y="161.4966">- Cancelar simulaci&#243;n</text></g><!--link cancelar_simulaci?n to :cancelar_simulaci?n--><g id="link_cancelar_simulaci&#243;n_:cancelar_simulaci&#243;n"><path d="M138.76,689.3649 C138.686,713.6209 138.6396,728.8539 138.5926,744.0229 " fill="none" id="cancelar_simulaci&#243;n-to-:cancelar_simulaci&#243;n" style="stroke:#008000;stroke-width:1.0;"/><polygon fill="#008000" points="138.574,750.0229,142.6019,741.0353,138.5895,745.0229,134.6019,741.0105,138.574,750.0229" style="stroke:#008000;stroke-width:1.0;"/></g><!--link cancelar_simulaci?n to :seguir_simulando--><g id="link_cancelar_simulaci&#243;n_:seguir_simulando"><path d="M244.22,626.8079 C272.893,675.8229 297.4173,717.745 313.3843,745.038 " fill="none" id="cancelar_simulaci&#243;n-to-:seguir_simulando" style="stroke:#008000;stroke-width:1.0;"/><polygon fill="#008000" points="316.414,750.2169,315.322,740.4287,313.8892,745.9012,308.4168,744.4684,316.414,750.2169" style="stroke:#008000;stroke-width:1.0;"/></g><!--link :seguir_simulando to SIMULANDO--><g id="link_:seguir_simulando_SIMULANDO"><path d="M329.678,750.0029 C325.684,632.0009 308.5,124.2969 308.5,124.2969 C308.5,124.2969 292.1537,112.3687 272.4507,97.9907 " fill="none" id=":seguir_simulando-to-SIMULANDO" style="stroke:#008000;stroke-width:1.0;"/><polygon fill="#008000" points="267.604,94.4539,272.5162,102.9903,271.6429,97.4012,277.232,96.528,267.604,94.4539" style="stroke:#008000;stroke-width:1.0;"/></g><!--link :cancelar_simulaci?n to CONFIGURACI?N_DE_SIMULACI?N--><g id="link_:cancelar_simulaci&#243;n_CONFIGURACI&#211;N_DE_SIMULACI&#211;N"><path d="M138.5,800.4879 C138.5,818.5507 138.5,837.127 138.5,855.1739 " fill="none" id=":cancelar_simulaci&#243;n-to-CONFIGURACI&#211;N_DE_SIMULACI&#211;N" style="stroke:#008000;stroke-width:1.0;"/><polygon fill="#008000" points="138.5,861.1739,142.5,852.1739,138.5,856.1739,134.5,852.1739,138.5,861.1739" style="stroke:#008000;stroke-width:1.0;"/></g><!--SRC=[XP9DRi8m48NtFiK8Tf6Ybfykog8L3L15QeD4b1L2o4q6P67ir7OMgEefUfGUWOlL3WH80U4iB7-UUJDl7BrY8gUAha4RQX2-2C0BJLTB9GkH1P9B1Sq5NNG_kkv6gWpLdgQFztQHRqBqGKJ8gneFxgj7SoRGR7A4NFADEn1YcE480pIKspsWMaA6aDWje295JXN4R5rmchBjhm0VHc4S44BYy3rvwqU3iJzjBXMYcFbFaEvJvlgOGieMfN35LxPHpqjqGHMJe2LdAJEqvtcM-yU2fzaeijAajL7Ewr89vty_pXPG3Gre74dxZ7Gguj3Kcy6fXPQ5hHffM_BFWrkU5pDjS4rXWfy5GuKx7sxvCBIbDCIuB9HyjlHW0sn3f-gTQ-hLbFgvLDMCTjenWpk8P5srKrErheXz-al3giNrBhxOxJHjZR7gNcIId95Q_E5d8QHtKpmOHwFmDPdqWt3x4yq7m_aklJp-0G00]--></g></svg>