<?xml version="1.0" encoding="us-ascii" standalone="no"?><svg xmlns="http://www.w3.org/2000/svg" xmlns:xlink="http://www.w3.org/1999/xlink" contentStyleType="text/css" height="917px" preserveAspectRatio="none" style="width:351px;height:917px;background:#FFFFFF;" version="1.1" viewBox="0 0 351 917" width="351px" zoomAndPan="magnify"><defs/><g><text fill="#000000" font-family="sans-serif" font-size="14" font-weight="bold" lengthAdjust="spacing" textLength="323" x="10" y="22.9951">Detalle Caso de Uso Cerrar Sesi&#243;n - FISC</text><g id="FISC"><rect fill="#FAF4B4" height="50" rx="12.5" ry="12.5" style="stroke:#C90000;stroke-width:0.5;" width="51" x="131.25" y="44.2969"/><line style="stroke:#C90000;stroke-width:0.5;" x1="131.25" x2="182.25" y1="70.5938" y2="70.5938"/><text fill="#000000" font-family="sans-serif" font-size="14" lengthAdjust="spacing" textLength="31" x="141.25" y="62.292">FISC</text></g><path d="M64.75,204.2969 L248.75,204.2969 A12.5,12.5 0 0 1 261.25,216.7969 L261.25,230.5938 L52.25,230.5938 L52.25,216.7969 A12.5,12.5 0 0 1 64.75,204.2969 " fill="#FAF4B4" style="stroke:#FAF4B4;stroke-width:1.0;"/><rect fill="none" height="485.2969" rx="12.5" ry="12.5" style="stroke:#C90000;stroke-width:0.5;" width="209" x="52.25" y="204.2969"/><line style="stroke:#C90000;stroke-width:0.5;" x1="52.25" x2="261.25" y1="230.5938" y2="230.5938"/><text fill="#000000" font-family="sans-serif" font-size="14" lengthAdjust="spacing" textLength="95" x="109.25" y="222.292">cerrar_sesi&#243;n</text><g id="cerrar_sesi&#243;n.1"><rect fill="#FAF4B4" height="50" rx="12.5" ry="12.5" style="stroke:#C90000;stroke-width:0.5;" width="50" x="64.25" y="298.5938"/><line style="stroke:#C90000;stroke-width:0.5;" x1="64.25" x2="114.25" y1="324.8906" y2="324.8906"/><text fill="#000000" font-family="sans-serif" font-size="14" lengthAdjust="spacing" textLength="4" x="87.25" y="316.5889">&#160;</text></g><g id="cerrar_sesi&#243;n.2"><rect fill="#FAF4B4" height="50" rx="12.5" ry="12.5" style="stroke:#C90000;stroke-width:0.5;" width="50" x="64.25" y="434.5938"/><line style="stroke:#C90000;stroke-width:0.5;" x1="64.25" x2="114.25" y1="460.8906" y2="460.8906"/><text fill="#000000" font-family="sans-serif" font-size="14" lengthAdjust="spacing" textLength="4" x="87.25" y="452.5889">&#160;</text></g><g id="cerrar_sesi&#243;n.3"><rect fill="#FAF4B4" height="50" rx="12.5" ry="12.5" style="stroke:#C90000;stroke-width:0.5;" width="50" x="64.25" y="570.5938"/><line style="stroke:#C90000;stroke-width:0.5;" x1="64.25" x2="114.25" y1="596.8906" y2="596.8906"/><text fill="#000000" font-family="sans-serif" font-size="14" lengthAdjust="spacing" textLength="4" x="87.25" y="588.5889">&#160;</text></g><ellipse cx="89.25" cy="251.5938" fill="#222222" rx="10" ry="10" style="stroke:#222222;stroke-width:1.0;"/><ellipse cx="89.25" cy="668.5938" fill="none" rx="11" ry="11" style="stroke:#222222;stroke-width:1.0;"/><ellipse cx="89.25" cy="668.5938" fill="#222222" rx="6" ry="6" style="stroke:#222222;stroke-width:1.0;"/><!--link *start*cerrar_sesi?n to 1--><g id="link_*start*cerrar_sesi&#243;n_1"><path d="M89.25,261.7448 C89.25,271.0098 89.25,279.7348 89.25,292.3778 " fill="none" id="*start*cerrar_sesi&#243;n-to-1" style="stroke:#008000;stroke-width:1.0;"/><polygon fill="#008000" points="89.25,298.3778,93.25,289.3778,89.25,293.3778,85.25,289.3778,89.25,298.3778" style="stroke:#008000;stroke-width:1.0;"/></g><!--link 1 to 2--><g id="link_1_2"><path d="M89.25,348.8598 C89.25,373.1458 89.25,404.2868 89.25,428.5078 " fill="none" id="1-to-2" style="stroke:#008000;stroke-width:1.0;"/><polygon fill="#008000" points="89.25,434.5078,93.25,425.5078,89.25,429.5078,85.25,425.5078,89.25,434.5078" style="stroke:#008000;stroke-width:1.0;"/><path d="M94.25,371.5938 L94.25,411.5938 L252.25,411.5938 L252.25,381.5938 L242.25,371.5938 L94.25,371.5938 " fill="#F5F5F5" style="stroke:#181818;stroke-width:0.5;"/><path d="M242.25,371.5938 L242.25,381.5938 L252.25,381.5938 L242.25,371.5938 " fill="#F5F5F5" style="stroke:#181818;stroke-width:0.5;"/><text fill="#000000" font-family="sans-serif" font-size="13" font-weight="bold" lengthAdjust="spacing" textLength="137" x="100.25" y="388.6606">Sistema Requiere:</text><text fill="#000000" font-family="sans-serif" font-size="13" lengthAdjust="spacing" textLength="128" x="100.25" y="403.7935">- Guardar Cambios?</text></g><!--link 2 to 3--><g id="link_2_3"><path d="M89.25,484.8597 C89.25,509.1458 89.25,540.2868 89.25,564.5078 " fill="none" id="2-to-3" style="stroke:#008000;stroke-width:1.0;"/><polygon fill="#008000" points="89.25,570.5078,93.25,561.5078,89.25,565.5078,85.25,561.5078,89.25,570.5078" style="stroke:#008000;stroke-width:1.0;"/><path d="M94.25,507.5938 L94.25,547.5938 L235.25,547.5938 L235.25,517.5938 L225.25,507.5938 L94.25,507.5938 " fill="#F5F5F5" style="stroke:#181818;stroke-width:0.5;"/><path d="M225.25,507.5938 L225.25,517.5938 L235.25,517.5938 L225.25,507.5938 " fill="#F5F5F5" style="stroke:#181818;stroke-width:0.5;"/><text fill="#000000" font-family="sans-serif" font-size="13" font-weight="bold" lengthAdjust="spacing" textLength="120" x="100.25" y="524.6606">Usuario Aporta:</text><text fill="#000000" font-family="sans-serif" font-size="13" lengthAdjust="spacing" textLength="49" x="100.25" y="539.7935">- Si / No</text></g><!--link 3 to *end*cerrar_sesi?n--><g id="link_3_*end*cerrar_sesi&#243;n"><path d="M89.25,620.6311 C89.25,633.1829 89.25,641.8762 89.25,651.44 " fill="none" id="3-to-*end*cerrar_sesi&#243;n" style="stroke:#008000;stroke-width:1.0;"/><polygon fill="#008000" points="89.25,657.44,93.25,648.44,89.25,652.44,85.25,648.44,89.25,657.44" style="stroke:#008000;stroke-width:1.0;"/></g><g id=":abrirInicio"><rect fill="#FAF4B4" height="50" rx="12.5" ry="12.5" style="stroke:#C90000;stroke-width:0.5;" width="97" x="108.25" y="750.2969"/><line style="stroke:#C90000;stroke-width:0.5;" x1="108.25" x2="205.25" y1="776.5938" y2="776.5938"/><text fill="#000000" font-family="sans-serif" font-size="14" lengthAdjust="spacing" textLength="77" x="118.25" y="768.292">:abrirInicio</text></g><g id="INICIO"><rect fill="#FAF4B4" height="50" rx="12.5" ry="12.5" style="stroke:#C90000;stroke-width:0.5;" width="63" x="125.25" y="861.2969"/><line style="stroke:#C90000;stroke-width:0.5;" x1="125.25" x2="188.25" y1="887.5938" y2="887.5938"/><text fill="#000000" font-family="sans-serif" font-size="14" lengthAdjust="spacing" textLength="43" x="135.25" y="879.292">INICIO</text></g><!--link FISC to cerrar_sesi?n--><g id="link_FISC_cerrar_sesi&#243;n"><path d="M156.75,94.3569 C156.75,118.7189 156.75,153.1239 156.75,198.0359 " fill="none" id="FISC-to-cerrar_sesi&#243;n" style="stroke:#008000;stroke-width:1.0;"/><polygon fill="#008000" points="156.75,204.0359,160.75,195.0359,156.75,199.0359,152.75,195.0359,156.75,204.0359" style="stroke:#008000;stroke-width:1.0;"/><path d="M161.75,129.2969 L161.75,169.2969 L304.75,169.2969 L304.75,139.2969 L294.75,129.2969 L161.75,129.2969 " fill="#F5F5F5" style="stroke:#181818;stroke-width:0.5;"/><path d="M294.75,129.2969 L294.75,139.2969 L304.75,139.2969 L294.75,129.2969 " fill="#F5F5F5" style="stroke:#181818;stroke-width:0.5;"/><text fill="#000000" font-family="sans-serif" font-size="13" font-weight="bold" lengthAdjust="spacing" textLength="122" x="167.75" y="146.3638">Usuario solicita:</text><text fill="#000000" font-family="sans-serif" font-size="13" lengthAdjust="spacing" textLength="94" x="167.75" y="161.4966">- Cerrar sesi&#243;n</text></g><!--link cerrar_sesi?n to :abrirInicio--><g id="link_cerrar_sesi&#243;n_:abrirInicio"><path d="M156.75,689.3649 C156.75,713.6209 156.75,728.8539 156.75,744.0229 " fill="none" id="cerrar_sesi&#243;n-to-:abrirInicio" style="stroke:#008000;stroke-width:1.0;"/><polygon fill="#008000" points="156.75,750.0229,160.75,741.0229,156.75,745.0229,152.75,741.0229,156.75,750.0229" style="stroke:#008000;stroke-width:1.0;"/></g><!--link :abrirInicio to INICIO--><g id="link_:abrirInicio_INICIO"><path d="M156.75,800.4879 C156.75,818.5507 156.75,837.127 156.75,855.1739 " fill="none" id=":abrirInicio-to-INICIO" style="stroke:#008000;stroke-width:1.0;"/><polygon fill="#008000" points="156.75,861.1739,160.75,852.1739,156.75,856.1739,152.75,852.1739,156.75,861.1739" style="stroke:#008000;stroke-width:1.0;"/></g><!--SRC=[TL7BJiCm4BpxArRjBL84VN200mY2GBaKYQYdgaBRP5jPJRt1TWyLuglu17wCTTgK6bH7YkNnP7PcujRQD6Xn0ywZ9_XG00zOhbUMjwRAk6OB_IKknujnk65RaJsWvVMbBFMfb3kA63whSHMUc5rhGtxN43HSxy91AQzzJV187clPCtGC5S5KjeoiHGi5EVtzPI25fxp8b0flI6VzbIKoy_GMofRtvlOyrJfY4sQjnLUIJDqMhMPmNEjIUxn94i7JJh_xZapLfX6_RJ6nR8XuQ6m0wA07lLza-0yPTKY0PiayCZmGS10XGq7- -0uhIGhjF6qGNkbzgydItdjOAJnBh4e2PBXPQ7PtSd7C0EBfTC3et82kdFk6RLVDNhxGS04JZbL7aQe4K-47gxYhY7E32wjjRgHw1g56vrDYFicp_EK7]--></g></svg>