<?xml version="1.0" encoding="us-ascii" standalone="no"?><svg xmlns="http://www.w3.org/2000/svg" xmlns:xlink="http://www.w3.org/1999/xlink" contentStyleType="text/css" height="917px" preserveAspectRatio="none" style="width:307px;height:917px;background:#FFFFFF;" version="1.1" viewBox="0 0 307 917" width="307px" zoomAndPan="magnify"><defs/><g><text fill="#000000" font-family="sans-serif" font-size="14" font-weight="bold" lengthAdjust="spacing" textLength="279" x="10" y="22.9951">Detalle Caso de Uso Log Out - FISC</text><g id="FISC"><rect fill="#FAF4B4" height="50" rx="12.5" ry="12.5" style="stroke:#C90000;stroke-width:0.5;" width="51" x="109.25" y="44.2969"/><line style="stroke:#C90000;stroke-width:0.5;" x1="109.25" x2="160.25" y1="70.5938" y2="70.5938"/><text fill="#000000" font-family="sans-serif" font-size="14" lengthAdjust="spacing" textLength="31" x="119.25" y="62.292">FISC</text></g><path d="M42.75,204.2969 L226.75,204.2969 A12.5,12.5 0 0 1 239.25,216.7969 L239.25,230.5938 L30.25,230.5938 L30.25,216.7969 A12.5,12.5 0 0 1 42.75,204.2969 " fill="#FAF4B4" style="stroke:#FAF4B4;stroke-width:1.0;"/><rect fill="none" height="485.2969" rx="12.5" ry="12.5" style="stroke:#C90000;stroke-width:0.5;" width="209" x="30.25" y="204.2969"/><line style="stroke:#C90000;stroke-width:0.5;" x1="30.25" x2="239.25" y1="230.5938" y2="230.5938"/><text fill="#000000" font-family="sans-serif" font-size="14" lengthAdjust="spacing" textLength="95" x="87.25" y="222.292">cerrar_sesi&#243;n</text><g id="cerrar_sesi&#243;n.1"><rect fill="#FAF4B4" height="50" rx="12.5" ry="12.5" style="stroke:#C90000;stroke-width:0.5;" width="50" x="42.25" y="298.5938"/><line style="stroke:#C90000;stroke-width:0.5;" x1="42.25" x2="92.25" y1="324.8906" y2="324.8906"/><text fill="#000000" font-family="sans-serif" font-size="14" lengthAdjust="spacing" textLength="4" x="65.25" y="316.5889">&#160;</text></g><g id="cerrar_sesi&#243;n.2"><rect fill="#FAF4B4" height="50" rx="12.5" ry="12.5" style="stroke:#C90000;stroke-width:0.5;" width="50" x="42.25" y="434.5938"/><line style="stroke:#C90000;stroke-width:0.5;" x1="42.25" x2="92.25" y1="460.8906" y2="460.8906"/><text fill="#000000" font-family="sans-serif" font-size="14" lengthAdjust="spacing" textLength="4" x="65.25" y="452.5889">&#160;</text></g><g id="cerrar_sesi&#243;n.3"><rect fill="#FAF4B4" height="50" rx="12.5" ry="12.5" style="stroke:#C90000;stroke-width:0.5;" width="50" x="42.25" y="570.5938"/><line style="stroke:#C90000;stroke-width:0.5;" x1="42.25" x2="92.25" y1="596.8906" y2="596.8906"/><text fill="#000000" font-family="sans-serif" font-size="14" lengthAdjust="spacing" textLength="4" x="65.25" y="588.5889">&#160;</text></g><ellipse cx="67.25" cy="251.5938" fill="#222222" rx="10" ry="10" style="stroke:#222222;stroke-width:1.0;"/><ellipse cx="67.25" cy="668.5938" fill="none" rx="11" ry="11" style="stroke:#222222;stroke-width:1.0;"/><ellipse cx="67.25" cy="668.5938" fill="#222222" rx="6" ry="6" style="stroke:#222222;stroke-width:1.0;"/><!--link *start*cerrar_sesi?n to 1--><g id="link_*start*cerrar_sesi&#243;n_1"><path d="M67.25,261.7448 C67.25,271.0098 67.25,279.7348 67.25,292.3778 " fill="none" id="*start*cerrar_sesi&#243;n-to-1" style="stroke:#008000;stroke-width:1.0;"/><polygon fill="#008000" points="67.25,298.3778,71.25,289.3778,67.25,293.3778,63.25,289.3778,67.25,298.3778" style="stroke:#008000;stroke-width:1.0;"/></g><!--link 1 to 2--><g id="link_1_2"><path d="M67.25,348.8598 C67.25,373.1458 67.25,404.2868 67.25,428.5078 " fill="none" id="1-to-2" style="stroke:#008000;stroke-width:1.0;"/><polygon fill="#008000" points="67.25,434.5078,71.25,425.5078,67.25,429.5078,63.25,425.5078,67.25,434.5078" style="stroke:#008000;stroke-width:1.0;"/><path d="M72.25,371.5938 L72.25,411.5938 L230.25,411.5938 L230.25,381.5938 L220.25,371.5938 L72.25,371.5938 " fill="#F5F5F5" style="stroke:#181818;stroke-width:0.5;"/><path d="M220.25,371.5938 L220.25,381.5938 L230.25,381.5938 L220.25,371.5938 " fill="#F5F5F5" style="stroke:#181818;stroke-width:0.5;"/><text fill="#000000" font-family="sans-serif" font-size="13" font-weight="bold" lengthAdjust="spacing" textLength="137" x="78.25" y="388.6606">Sistema Requiere:</text><text fill="#000000" font-family="sans-serif" font-size="13" lengthAdjust="spacing" textLength="128" x="78.25" y="403.7935">- Guardar Cambios?</text></g><!--link 2 to 3--><g id="link_2_3"><path d="M67.25,484.8597 C67.25,509.1458 67.25,540.2868 67.25,564.5078 " fill="none" id="2-to-3" style="stroke:#008000;stroke-width:1.0;"/><polygon fill="#008000" points="67.25,570.5078,71.25,561.5078,67.25,565.5078,63.25,561.5078,67.25,570.5078" style="stroke:#008000;stroke-width:1.0;"/><path d="M72.25,507.5938 L72.25,547.5938 L213.25,547.5938 L213.25,517.5938 L203.25,507.5938 L72.25,507.5938 " fill="#F5F5F5" style="stroke:#181818;stroke-width:0.5;"/><path d="M203.25,507.5938 L203.25,517.5938 L213.25,517.5938 L203.25,507.5938 " fill="#F5F5F5" style="stroke:#181818;stroke-width:0.5;"/><text fill="#000000" font-family="sans-serif" font-size="13" font-weight="bold" lengthAdjust="spacing" textLength="120" x="78.25" y="524.6606">Usuario Aporta:</text><text fill="#000000" font-family="sans-serif" font-size="13" lengthAdjust="spacing" textLength="49" x="78.25" y="539.7935">- Si / No</text></g><!--link 3 to *end*cerrar_sesi?n--><g id="link_3_*end*cerrar_sesi&#243;n"><path d="M67.25,620.6311 C67.25,633.1829 67.25,641.8762 67.25,651.44 " fill="none" id="3-to-*end*cerrar_sesi&#243;n" style="stroke:#008000;stroke-width:1.0;"/><polygon fill="#008000" points="67.25,657.44,71.25,648.44,67.25,652.44,63.25,648.44,67.25,657.44" style="stroke:#008000;stroke-width:1.0;"/></g><g id=":abrirInicio"><rect fill="#FAF4B4" height="50" rx="12.5" ry="12.5" style="stroke:#C90000;stroke-width:0.5;" width="97" x="86.25" y="750.2969"/><line style="stroke:#C90000;stroke-width:0.5;" x1="86.25" x2="183.25" y1="776.5938" y2="776.5938"/><text fill="#000000" font-family="sans-serif" font-size="14" lengthAdjust="spacing" textLength="77" x="96.25" y="768.292">:abrirInicio</text></g><g id="INICIO"><rect fill="#FAF4B4" height="50" rx="12.5" ry="12.5" style="stroke:#C90000;stroke-width:0.5;" width="63" x="103.25" y="861.2969"/><line style="stroke:#C90000;stroke-width:0.5;" x1="103.25" x2="166.25" y1="887.5938" y2="887.5938"/><text fill="#000000" font-family="sans-serif" font-size="14" lengthAdjust="spacing" textLength="43" x="113.25" y="879.292">INICIO</text></g><!--link FISC to cerrar_sesi?n--><g id="link_FISC_cerrar_sesi&#243;n"><path d="M134.75,94.3569 C134.75,118.7189 134.75,153.1239 134.75,198.0359 " fill="none" id="FISC-to-cerrar_sesi&#243;n" style="stroke:#008000;stroke-width:1.0;"/><polygon fill="#008000" points="134.75,204.0359,138.75,195.0359,134.75,199.0359,130.75,195.0359,134.75,204.0359" style="stroke:#008000;stroke-width:1.0;"/><path d="M139.75,129.2969 L139.75,169.2969 L282.75,169.2969 L282.75,139.2969 L272.75,129.2969 L139.75,129.2969 " fill="#F5F5F5" style="stroke:#181818;stroke-width:0.5;"/><path d="M272.75,129.2969 L272.75,139.2969 L282.75,139.2969 L272.75,129.2969 " fill="#F5F5F5" style="stroke:#181818;stroke-width:0.5;"/><text fill="#000000" font-family="sans-serif" font-size="13" font-weight="bold" lengthAdjust="spacing" textLength="122" x="145.75" y="146.3638">Usuario solicita:</text><text fill="#000000" font-family="sans-serif" font-size="13" lengthAdjust="spacing" textLength="59" x="145.75" y="161.4966">- Log Out</text></g><!--link cerrar_sesi?n to :abrirInicio--><g id="link_cerrar_sesi&#243;n_:abrirInicio"><path d="M134.75,689.3649 C134.75,713.6209 134.75,728.8539 134.75,744.0229 " fill="none" id="cerrar_sesi&#243;n-to-:abrirInicio" style="stroke:#008000;stroke-width:1.0;"/><polygon fill="#008000" points="134.75,750.0229,138.75,741.0229,134.75,745.0229,130.75,741.0229,134.75,750.0229" style="stroke:#008000;stroke-width:1.0;"/></g><!--link :abrirInicio to INICIO--><g id="link_:abrirInicio_INICIO"><path d="M134.75,800.4879 C134.75,818.5507 134.75,837.127 134.75,855.1739 " fill="none" id=":abrirInicio-to-INICIO" style="stroke:#008000;stroke-width:1.0;"/><polygon fill="#008000" points="134.75,861.1739,138.75,852.1739,134.75,856.1739,130.75,852.1739,134.75,861.1739" style="stroke:#008000;stroke-width:1.0;"/></g><!--SRC=[TL5DImCn4BtdLmpjRM7HVdZGWw8hoeAqOEcf54btfoLqcradsKCHVvK_mJ_cfEtMHka4CipByERDYriRMslM6t1UUuGF1V2WY_MAgR5bHXKnT9TwELmCmmjnYNn0Y-jB2VMfb3kIM3hBSHLEt5qPYtvR8zHKRKEXb3U-GdX4hol9cNO49S9KqWkjODnuIE4fdsHAXHlIMNV5Y7QUtaA1p9hV73hp_MNLJWhPC6GjWf9awXhDXi1HPGhZzKsI29wsn0fjkTCl2dTMn7nXgOD7FT0EEj3vHVh_a46B16YMp2EbFG5x4T8Nv8_W44aoCSxZHiChlZS66VUYGwJmBFkKciMbpSAGkvE7umuWcau73CuDQ5svhubRJ_Rq4mCNCAAOTH2noc8gVAcAlOfwRlI23UTMF2UGrgW-RSn7UPQFVm00]--></g></svg>