<?xml version="1.0" encoding="us-ascii" standalone="no"?><svg xmlns="http://www.w3.org/2000/svg" xmlns:xlink="http://www.w3.org/1999/xlink" contentStyleType="text/css" height="896px" preserveAspectRatio="none" style="width:515px;height:896px;background:#FFFFFF;" version="1.1" viewBox="0 0 515 896" width="515px" zoomAndPan="magnify"><defs/><g><text fill="#000000" font-family="sans-serif" font-size="14" font-weight="bold" lengthAdjust="spacing" textLength="358" x="71.75" y="22.9951">Detalle Caso de Uso Registrar Usuario - FISC</text><g id="INICIO"><rect fill="#FAF4B4" height="50" rx="12.5" ry="12.5" style="stroke:#C90000;stroke-width:0.5;" width="63" x="343" y="44.2969"/><line style="stroke:#C90000;stroke-width:0.5;" x1="343" x2="406" y1="70.5938" y2="70.5938"/><text fill="#000000" font-family="sans-serif" font-size="14" lengthAdjust="spacing" textLength="43" x="353" y="62.292">INICIO</text></g><path d="M19.5,204.2969 L449.5,204.2969 A12.5,12.5 0 0 1 462,216.7969 L462,230.5938 L7,230.5938 L7,216.7969 A12.5,12.5 0 0 1 19.5,204.2969 " fill="#FAF4B4" style="stroke:#FAF4B4;stroke-width:1.0;"/><rect fill="none" height="575.2969" rx="12.5" ry="12.5" style="stroke:#C90000;stroke-width:0.5;" width="455" x="7" y="204.2969"/><line style="stroke:#C90000;stroke-width:0.5;" x1="7" x2="462" y1="230.5938" y2="230.5938"/><text fill="#000000" font-family="sans-serif" font-size="14" lengthAdjust="spacing" textLength="119" x="175" y="222.292">registrar_usuario</text><g id="registrar_usuario.1"><rect fill="#FAF4B4" height="50" rx="12.5" ry="12.5" style="stroke:#C90000;stroke-width:0.5;" width="50" x="203" y="298.5938"/><line style="stroke:#C90000;stroke-width:0.5;" x1="203" x2="253" y1="324.8906" y2="324.8906"/><text fill="#000000" font-family="sans-serif" font-size="14" lengthAdjust="spacing" textLength="4" x="226" y="316.5889">&#160;</text></g><g id="registrar_usuario.2"><rect fill="#FAF4B4" height="50" rx="12.5" ry="12.5" style="stroke:#C90000;stroke-width:0.5;" width="50" x="19" y="479.5938"/><line style="stroke:#C90000;stroke-width:0.5;" x1="19" x2="69" y1="505.8906" y2="505.8906"/><text fill="#000000" font-family="sans-serif" font-size="14" lengthAdjust="spacing" textLength="4" x="42" y="497.5889">&#160;</text></g><g id="registrar_usuario.3"><rect fill="#FAF4B4" height="50" rx="12.5" ry="12.5" style="stroke:#C90000;stroke-width:0.5;" width="50" x="133" y="660.5938"/><line style="stroke:#C90000;stroke-width:0.5;" x1="133" x2="183" y1="686.8906" y2="686.8906"/><text fill="#000000" font-family="sans-serif" font-size="14" lengthAdjust="spacing" textLength="4" x="156" y="678.5889">&#160;</text></g><ellipse cx="228" cy="251.5938" fill="#222222" rx="10" ry="10" style="stroke:#222222;stroke-width:1.0;"/><ellipse cx="158" cy="758.5938" fill="none" rx="11" ry="11" style="stroke:#222222;stroke-width:1.0;"/><ellipse cx="158" cy="758.5938" fill="#222222" rx="6" ry="6" style="stroke:#222222;stroke-width:1.0;"/><!--link *start*registrar_usuario to 1--><g id="link_*start*registrar_usuario_1"><path d="M228,261.7448 C228,271.0098 228,279.7348 228,292.3778 " fill="none" id="*start*registrar_usuario-to-1" style="stroke:#008000;stroke-width:1.0;"/><polygon fill="#008000" points="228,298.3778,232,289.3778,228,293.3778,224,289.3778,228,298.3778" style="stroke:#008000;stroke-width:1.0;"/></g><!--link 1 to 2--><g id="link_1_2"><path d="M202.865,334.0198 C169.844,346.4028 116,366.5938 116,366.5938 C116,366.5938 80.1675,434.7756 59.4977,474.1056 " fill="none" id="1-to-2" style="stroke:#008000;stroke-width:1.0;"/><polygon fill="#008000" points="56.7064,479.4168,64.4341,473.3108,59.0325,474.9908,57.3525,469.5891,56.7064,479.4168" style="stroke:#008000;stroke-width:1.0;"/><path d="M121,371.5938 L121,456.5938 L276,456.5938 L276,381.5938 L266,371.5938 L121,371.5938 " fill="#F5F5F5" style="stroke:#181818;stroke-width:0.5;"/><path d="M266,371.5938 L266,381.5938 L276,381.5938 L266,371.5938 " fill="#F5F5F5" style="stroke:#181818;stroke-width:0.5;"/><text fill="#000000" font-family="sans-serif" font-size="13" font-weight="bold" lengthAdjust="spacing" textLength="134" x="127" y="388.6606">Sistema requiere:</text><text fill="#000000" font-family="sans-serif" font-size="13" lengthAdjust="spacing" textLength="60" x="127" y="403.7935">- Nombre</text><text fill="#000000" font-family="sans-serif" font-size="13" lengthAdjust="spacing" textLength="126" x="127" y="418.9263">- Correo Electr&#243;nico</text><text fill="#000000" font-family="sans-serif" font-size="13" lengthAdjust="spacing" textLength="57" x="127" y="434.0591">- Usuario</text><text fill="#000000" font-family="sans-serif" font-size="13" lengthAdjust="spacing" textLength="83" x="127" y="449.1919">- Contrase&#241;a</text></g><!--link 2 to 3--><g id="link_2_3"><path d="M31.2025,530.0258 C26.3627,539.2648 22,547.5938 22,547.5938 C22,547.5938 22,642.5938 22,642.5938 C22,642.5938 87.6752,662.8752 127.0052,675.0218 " fill="none" id="2-to-3" style="stroke:#008000;stroke-width:1.0;"/><polygon fill="#008000" points="132.738,676.7923,125.3191,670.3147,127.9606,675.3169,122.9584,677.9585,132.738,676.7923" style="stroke:#008000;stroke-width:1.0;"/><path d="M27,552.5938 L27,637.5938 L276,637.5938 L276,562.5938 L266,552.5938 L27,552.5938 " fill="#F5F5F5" style="stroke:#181818;stroke-width:0.5;"/><path d="M266,552.5938 L266,562.5938 L276,562.5938 L266,552.5938 " fill="#F5F5F5" style="stroke:#181818;stroke-width:0.5;"/><text fill="#000000" font-family="sans-serif" font-size="13" font-weight="bold" lengthAdjust="spacing" textLength="228" x="33" y="569.6606">Usuario no registrado aporta:</text><text fill="#000000" font-family="sans-serif" font-size="13" lengthAdjust="spacing" textLength="60" x="33" y="584.7935">- Nombre</text><text fill="#000000" font-family="sans-serif" font-size="13" lengthAdjust="spacing" textLength="126" x="33" y="599.9263">- Correo Electr&#243;nico</text><text fill="#000000" font-family="sans-serif" font-size="13" lengthAdjust="spacing" textLength="57" x="33" y="615.0591">- Usuario</text><text fill="#000000" font-family="sans-serif" font-size="13" lengthAdjust="spacing" textLength="83" x="33" y="630.1919">- Contrase&#241;a</text></g><!--link 3 to 1--><g id="link_3_1"><path d="M183.188,675.9931 C219.173,663.7058 281,642.5938 281,642.5938 C281,642.5938 281,366.5938 281,366.5938 C281,366.5938 271.6116,359.1531 257.9606,348.3361 " fill="none" id="3-to-1" style="stroke:#FF0000;stroke-width:1.0;"/><polygon fill="#FF0000" points="253.258,344.6098,257.8277,353.3343,257.1768,347.715,262.7961,347.0642,253.258,344.6098" style="stroke:#FF0000;stroke-width:1.0;"/><path d="M286,484.5938 L286,524.5938 L453,524.5938 L453,494.5938 L443,484.5938 L286,484.5938 " fill="#F5F5F5" style="stroke:#181818;stroke-width:0.5;"/><path d="M443,484.5938 L443,494.5938 L453,494.5938 L443,484.5938 " fill="#F5F5F5" style="stroke:#181818;stroke-width:0.5;"/><text fill="#000000" font-family="sans-serif" font-size="13" lengthAdjust="spacing" textLength="146" x="292" y="501.6606">[Usuario no disponible]</text><text fill="#000000" font-family="sans-serif" font-size="13" lengthAdjust="spacing" textLength="137" x="292" y="516.7935">[Correo ya existente]</text></g><!--link 3 to *end*registrar_usuario--><g id="link_3_*end*registrar_usuario"><path d="M158,710.6311 C158,723.1829 158,731.8762 158,741.4401 " fill="none" id="3-to-*end*registrar_usuario" style="stroke:#008000;stroke-width:1.0;"/><polygon fill="#008000" points="158,747.4401,162,738.4401,158,742.4401,154,738.4401,158,747.4401" style="stroke:#008000;stroke-width:1.0;"/></g><g id=":registrar_usuario"><rect fill="#FAF4B4" height="50" rx="12.5" ry="12.5" style="stroke:#C90000;stroke-width:0.5;" width="144" x="364.5" y="840.2969"/><line style="stroke:#C90000;stroke-width:0.5;" x1="364.5" x2="508.5" y1="866.5938" y2="866.5938"/><text fill="#000000" font-family="sans-serif" font-size="14" lengthAdjust="spacing" textLength="124" x="374.5" y="858.292">:registrar_usuario</text></g><!--link INICIO to registrar_usuario--><g id="link_INICIO_registrar_usuario"><path d="M342.679,82.1479 C299.996,98.0429 229.5,124.2969 229.5,124.2969 C229.5,124.2969 229.5,174.2969 229.5,174.2969 C229.5,174.2969 229.5842,179.6576 229.8752,198.0736 " fill="none" id="INICIO-to-registrar_usuario" style="stroke:#008000;stroke-width:1.0;"/><polygon fill="#008000" points="229.97,204.0729,233.8273,195.0108,229.891,199.0735,225.8283,195.1372,229.97,204.0729" style="stroke:#008000;stroke-width:1.0;"/><path d="M234.5,129.2969 L234.5,169.2969 L486.5,169.2969 L486.5,139.2969 L476.5,129.2969 L234.5,129.2969 " fill="#F5F5F5" style="stroke:#181818;stroke-width:0.5;"/><path d="M476.5,129.2969 L476.5,139.2969 L486.5,139.2969 L476.5,129.2969 " fill="#F5F5F5" style="stroke:#181818;stroke-width:0.5;"/><text fill="#000000" font-family="sans-serif" font-size="13" font-weight="bold" lengthAdjust="spacing" textLength="231" x="240.5" y="146.3638">Usuario no registrado solicita:</text><text fill="#000000" font-family="sans-serif" font-size="13" lengthAdjust="spacing" textLength="119" x="240.5" y="161.4966">- Registrar Usuario</text></g><!--link registrar_usuario to :registrar_usuario--><g id="link_registrar_usuario_:registrar_usuario"><path d="M390.41,779.5329 C403.672,803.9218 412.2518,819.7023 420.4208,834.7256 " fill="none" id="registrar_usuario-to-:registrar_usuario" style="stroke:#008000;stroke-width:1.0;"/><polygon fill="#008000" points="423.287,839.9968,422.5018,830.1793,420.8985,835.6042,415.4736,834.0009,423.287,839.9968" style="stroke:#008000;stroke-width:1.0;"/></g><!--link :registrar_usuario to INICIO--><g id="link_:registrar_usuario_INICIO"><path d="M448.707,840.1667 C461.42,815.037 479.5,779.2969 479.5,779.2969 C479.5,779.2969 495.5,174.2969 495.5,174.2969 C495.5,174.2969 495.5,124.2969 495.5,124.2969 C495.5,124.2969 447.6212,102.929 411.7702,86.93 " fill="none" id=":registrar_usuario-to-INICIO" style="stroke:#008000;stroke-width:1.0;"/><polygon fill="#008000" points="406.291,84.4849,412.8796,91.8054,410.857,86.5225,416.1398,84.4998,406.291,84.4849" style="stroke:#008000;stroke-width:1.0;"/></g><!--SRC=[VL9DIyD04BtlhnZiBH2m7nximODH8PSA5a-bo3QPbgNfJfpTW4NyKU9Fw1zpjsdIV5WtWMNUlCoyDncpLJgNB7TWhBG8dmBWNYRR3LEXquWoOXYivNgoclWCSOfyGfFRQtV4bn2cBgBfOeqR_xJPcT9ezpb2JjdU1q9OPJE41xGoStSa3K6AyEgk5zmeOrcoYmh9YY24ftWU2I7YMHp5pn0k1Xj6rClm3hXYlnKdjZXg8-sxRft28AZgQAhfAO6XJ2NAocaGE5ROxojGfqUZpifnPlrUVW9bRWZIm1LSrS2e2upFW7iNmRBbO-YmOGiPEQHZnPyWc3iHk9DEpdkXaB4qu4y8Czgj6Eim8cOaUCmmiNpuqIgXEbUvF7ErysRmy2qTLdi7vwGfQ_oNh4ipbZbnDU6ElClYsjB-4JRsmXZJQduzMOk6gbIPdBHQPRWiSwVsUmduuIUgxJ7JhLyRTt_CRtL_2PgaQIyjH1zhVb7kz2y0]--></g></svg>