<svg xmlns="http://www.w3.org/2000/svg" xmlns:xlink="http://www.w3.org/1999/xlink" contentStyleType="text/css" height="913px" preserveAspectRatio="none" style="width:337px;height:913px;background:#FFFFFF;" version="1.1" viewBox="0 0 337 913" width="337px" zoomAndPan="magnify"><defs/><g><text fill="#000000" font-family="sans-serif" font-size="14" font-weight="bold" lengthAdjust="spacing" textLength="309" x="10" y="22.9951">Detalle Caso de Uso Ver Reporte - FISC</text><g id="ESTADO_PROYECTO"><rect fill="#FAF4B4" height="50" rx="12.5" ry="12.5" style="stroke:#C90000;stroke-width:0.5;" width="163" x="72" y="44.2969"/><line style="stroke:#C90000;stroke-width:0.5;" x1="72" x2="235" y1="70.5938" y2="70.5938"/><text fill="#000000" font-family="sans-serif" font-size="14" lengthAdjust="spacing" textLength="143" x="82" y="62.292">ESTADO_PROYECTO</text></g><path d="M59,204.2969 L248,204.2969 A12.5,12.5 0 0 1 260.5,216.7969 L260.5,230.5938 L46.5,230.5938 L46.5,216.7969 A12.5,12.5 0 0 1 59,204.2969 " fill="#FAF4B4" style="stroke:#FAF4B4;stroke-width:1.0;"/><rect fill="none" height="483.2969" rx="12.5" ry="12.5" style="stroke:#C90000;stroke-width:0.5;" width="214" x="46.5" y="204.2969"/><line style="stroke:#C90000;stroke-width:0.5;" x1="46.5" x2="260.5" y1="230.5938" y2="230.5938"/><text fill="#000000" font-family="sans-serif" font-size="14" lengthAdjust="spacing" textLength="79" x="114" y="222.292">ver_reporte</text><g id="ver_reporte.1"><rect fill="#FAF4B4" height="50" rx="12.5" ry="12.5" style="stroke:#C90000;stroke-width:0.5;" width="50" x="58.5" y="297.5938"/><line style="stroke:#C90000;stroke-width:0.5;" x1="58.5" x2="108.5" y1="323.8906" y2="323.8906"/><text fill="#000000" font-family="sans-serif" font-size="14" lengthAdjust="spacing" textLength="4" x="81.5" y="315.5889">&#160;</text></g><g id="ver_reporte.2"><rect fill="#FAF4B4" height="50" rx="12.5" ry="12.5" style="stroke:#C90000;stroke-width:0.5;" width="50" x="58.5" y="433.5938"/><line style="stroke:#C90000;stroke-width:0.5;" x1="58.5" x2="108.5" y1="459.8906" y2="459.8906"/><text fill="#000000" font-family="sans-serif" font-size="14" lengthAdjust="spacing" textLength="4" x="81.5" y="451.5889">&#160;</text></g><g id="ver_reporte.3"><rect fill="#FAF4B4" height="50" rx="12.5" ry="12.5" style="stroke:#C90000;stroke-width:0.5;" width="50" x="58.5" y="569.5938"/><line style="stroke:#C90000;stroke-width:0.5;" x1="58.5" x2="108.5" y1="595.8906" y2="595.8906"/><text fill="#000000" font-family="sans-serif" font-size="14" lengthAdjust="spacing" textLength="4" x="81.5" y="587.5889">&#160;</text></g><ellipse cx="83.5" cy="251.5938" fill="#222222" rx="10" ry="10" style="stroke:#222222;stroke-width:1.0;"/><ellipse cx="83.5" cy="666.5938" fill="none" rx="11" ry="11" style="stroke:#222222;stroke-width:1.0;"/><ellipse cx="83.5" cy="666.5938" fill="#222222" rx="6" ry="6" style="stroke:#222222;stroke-width:1.0;"/><!--link *start*ver_reporte to 1--><g id="link_*start*ver_reporte_1"><path d="M83.5,261.9038 C83.5,270.9438 83.5,279.0838 83.5,291.3238 " fill="none" id="*start*ver_reporte-to-1" style="stroke:#008000;stroke-width:1.0;"/><polygon fill="#008000" points="83.5,297.3238,87.5,288.3238,83.5,292.3238,79.5,288.3238,83.5,297.3238" style="stroke:#008000;stroke-width:1.0;"/></g><!--link 1 to 2--><g id="link_1_2"><path d="M83.5,347.8638 C83.5,372.1438 83.5,403.2838 83.5,427.5037 " fill="none" id="1-to-2" style="stroke:#008000;stroke-width:1.0;"/><polygon fill="#008000" points="83.5,433.5037,87.5,424.5037,83.5,428.5037,79.5,424.5037,83.5,433.5037" style="stroke:#008000;stroke-width:1.0;"/><path d="M88.5,370.5938 L88.5,410.5938 L250.5,410.5938 L250.5,380.5938 L240.5,370.5938 L88.5,370.5938 " fill="#F5F5F5" style="stroke:#181818;stroke-width:0.5;"/><path d="M240.5,370.5938 L240.5,380.5938 L250.5,380.5938 L240.5,370.5938 " fill="#F5F5F5" style="stroke:#181818;stroke-width:0.5;"/><text fill="#000000" font-family="sans-serif" font-size="13" font-weight="bold" lengthAdjust="spacing" textLength="131" x="94.5" y="387.6606">Sistema requiere:</text><text fill="#000000" font-family="sans-serif" font-size="13" lengthAdjust="spacing" textLength="141" x="94.5" y="402.7935">- Selecci&#243;n de reporte</text></g><!--link 2 to 3--><g id="link_2_3"><path d="M83.5,483.8638 C83.5,508.1438 83.5,539.2838 83.5,563.5038 " fill="none" id="2-to-3" style="stroke:#008000;stroke-width:1.0;"/><polygon fill="#008000" points="83.5,569.5038,87.5,560.5038,83.5,564.5038,79.5,560.5038,83.5,569.5038" style="stroke:#008000;stroke-width:1.0;"/><path d="M88.5,506.5938 L88.5,546.5938 L251.5,546.5938 L251.5,516.5938 L241.5,506.5938 L88.5,506.5938 " fill="#F5F5F5" style="stroke:#181818;stroke-width:0.5;"/><path d="M241.5,506.5938 L241.5,516.5938 L251.5,516.5938 L241.5,506.5938 " fill="#F5F5F5" style="stroke:#181818;stroke-width:0.5;"/><text fill="#000000" font-family="sans-serif" font-size="13" font-weight="bold" lengthAdjust="spacing" textLength="142" x="94.5" y="523.6606">Usuario selecciona:</text><text fill="#000000" font-family="sans-serif" font-size="13" lengthAdjust="spacing" textLength="59" x="94.5" y="538.7935">- Reporte</text></g><!--link 3 to *end*ver_reporte--><g id="link_3_*end*ver_reporte"><path d="M83.5,620.0738 C83.5,632.0638 83.5,639.8638 83.5,649.0938 " fill="none" id="3-to-*end*ver_reporte" style="stroke:#008000;stroke-width:1.0;"/><polygon fill="#008000" points="83.5,655.0938,87.5,646.0938,83.5,650.0938,79.5,646.0938,83.5,655.0938" style="stroke:#008000;stroke-width:1.0;"/></g><g id=":abrirReporte"><rect fill="#FAF4B4" height="50" rx="12.5" ry="12.5" style="stroke:#C90000;stroke-width:0.5;" width="111" x="98" y="747.5969"/><line style="stroke:#C90000;stroke-width:0.5;" x1="98" x2="209" y1="773.8938" y2="773.8938"/><text fill="#000000" font-family="sans-serif" font-size="14" lengthAdjust="spacing" textLength="91" x="108" y="765.592">:abrirReporte</text></g><g id="REPORTE"><rect fill="#FAF4B4" height="50" rx="12.5" ry="12.5" style="stroke:#C90000;stroke-width:0.5;" width="87" x="110" y="857.5969"/><line style="stroke:#C90000;stroke-width:0.5;" x1="110" x2="197" y1="883.8938" y2="883.8938"/><text fill="#000000" font-family="sans-serif" font-size="14" lengthAdjust="spacing" textLength="67" x="120" y="875.592">REPORTE</text></g><!--link ESTADO_PROYECTO to ver_reporte--><g id="link_ESTADO_PROYECTO_ver_reporte"><path d="M153.5,94.5969 C153.5,118.9969 153.5,153.3269 153.5,198.1069 " fill="none" id="ESTADO_PROYECTO-to-ver_reporte" style="stroke:#008000;stroke-width:1.0;"/><polygon fill="#008000" points="153.5,204.1069,157.5,195.1069,153.5,199.1069,149.5,195.1069,153.5,204.1069" style="stroke:#008000;stroke-width:1.0;"/><path d="M158.5,129.2969 L158.5,169.2969 L296.5,169.2969 L296.5,139.2969 L286.5,129.2969 L158.5,129.2969 " fill="#F5F5F5" style="stroke:#181818;stroke-width:0.5;"/><path d="M286.5,129.2969 L286.5,139.2969 L296.5,139.2969 L286.5,129.2969 " fill="#F5F5F5" style="stroke:#181818;stroke-width:0.5;"/><text fill="#000000" font-family="sans-serif" font-size="13" font-weight="bold" lengthAdjust="spacing" textLength="117" x="164.5" y="146.3638">Usuario solicita:</text><text fill="#000000" font-family="sans-serif" font-size="13" lengthAdjust="spacing" textLength="82" x="164.5" y="161.4966">- Ver reporte</text></g><!--link ver_reporte to :abrirReporte--><g id="link_ver_reporte_:abrirReporte"><path d="M153.5,687.9969 C153.5,711.7169 153.5,726.4769 153.5,741.3769 " fill="none" id="ver_reporte-to-:abrirReporte" style="stroke:#008000;stroke-width:1.0;"/><polygon fill="#008000" points="153.5,747.3769,157.5,738.3769,153.5,742.3769,149.5,738.3769,153.5,747.3769" style="stroke:#008000;stroke-width:1.0;"/></g><!--link :abrirReporte to REPORTE--><g id="link_:abrirReporte_REPORTE"><path d="M153.5,797.8369 C153.5,815.6169 153.5,833.6769 153.5,851.4369 " fill="none" id=":abrirReporte-to-REPORTE" style="stroke:#008000;stroke-width:1.0;"/><polygon fill="#008000" points="153.5,857.4369,157.5,848.4369,153.5,852.4369,149.5,848.4369,153.5,857.4369" style="stroke:#008000;stroke-width:1.0;"/></g><!--SRC=[TL7BQiCm4BphAvRaPZ0qZnwQGw5rNEZ9mKuA9OIWs9iWeaZkIYc4qg_g9_J7AjbnQeTsBH0QhMTcHsOlLCc97y1ORX4-6C0Zp_SxqaTLH5fgWlwMRyURiR_HL22TqVpknXNxPCnSI9J-b-FMVzrkAHJQKubGQddo1yQii19XYfPBjqVSQ2WG5cvxGO8KIqrE8OIdvonYZCNP_66Qh6TfyXf7yoHSzdU4g5RXFRmZhQdkPvKjhRpWtfaBWeKvSX8QZ9OY5vPFWi3XOILo_WaOgg8Qo5ckican-X5hS03SG0zw5s1u3On-0RUMmGhQDWSE6tIGeKEk3FiAWamOYmVk3BuT1HBMfds5aA74F1VVNyhdrSmDS9a1dB6sokWlbLOmDPzMl549c_IxhACEgvlEFt4hgSxrX6z8KCF3EiTsNnhFadGU_m00]--></g></svg>