<?xml version="1.0" encoding="us-ascii" standalone="no"?><svg xmlns="http://www.w3.org/2000/svg" xmlns:xlink="http://www.w3.org/1999/xlink" contentStyleType="text/css" height="917px" preserveAspectRatio="none" style="width:339px;height:917px;background:#FFFFFF;" version="1.1" viewBox="0 0 339 917" width="339px" zoomAndPan="magnify"><defs/><g><text fill="#000000" font-family="sans-serif" font-size="14" font-weight="bold" lengthAdjust="spacing" textLength="311" x="10" y="22.9951">Detalle Caso de Uso Ver Reporte - FISC</text><g id="P&#193;GINA_PROYECTO"><rect fill="#FAF4B4" height="50" rx="12.5" ry="12.5" style="stroke:#C90000;stroke-width:0.5;" width="159" x="73.25" y="44.2969"/><line style="stroke:#C90000;stroke-width:0.5;" x1="73.25" x2="232.25" y1="70.5938" y2="70.5938"/><text fill="#000000" font-family="sans-serif" font-size="14" lengthAdjust="spacing" textLength="139" x="83.25" y="62.292">P&#193;GINA_PROYECTO</text></g><path d="M56.75,204.2969 L248.75,204.2969 A12.5,12.5 0 0 1 261.25,216.7969 L261.25,230.5938 L44.25,230.5938 L44.25,216.7969 A12.5,12.5 0 0 1 56.75,204.2969 " fill="#FAF4B4" style="stroke:#FAF4B4;stroke-width:1.0;"/><rect fill="none" height="485.2969" rx="12.5" ry="12.5" style="stroke:#C90000;stroke-width:0.5;" width="217" x="44.25" y="204.2969"/><line style="stroke:#C90000;stroke-width:0.5;" x1="44.25" x2="261.25" y1="230.5938" y2="230.5938"/><text fill="#000000" font-family="sans-serif" font-size="14" lengthAdjust="spacing" textLength="86" x="109.75" y="222.292">ver_reporte</text><g id="ver_reporte.1"><rect fill="#FAF4B4" height="50" rx="12.5" ry="12.5" style="stroke:#C90000;stroke-width:0.5;" width="50" x="56.25" y="298.5938"/><line style="stroke:#C90000;stroke-width:0.5;" x1="56.25" x2="106.25" y1="324.8906" y2="324.8906"/><text fill="#000000" font-family="sans-serif" font-size="14" lengthAdjust="spacing" textLength="4" x="79.25" y="316.5889">&#160;</text></g><g id="ver_reporte.2"><rect fill="#FAF4B4" height="50" rx="12.5" ry="12.5" style="stroke:#C90000;stroke-width:0.5;" width="50" x="56.25" y="434.5938"/><line style="stroke:#C90000;stroke-width:0.5;" x1="56.25" x2="106.25" y1="460.8906" y2="460.8906"/><text fill="#000000" font-family="sans-serif" font-size="14" lengthAdjust="spacing" textLength="4" x="79.25" y="452.5889">&#160;</text></g><g id="ver_reporte.3"><rect fill="#FAF4B4" height="50" rx="12.5" ry="12.5" style="stroke:#C90000;stroke-width:0.5;" width="50" x="56.25" y="570.5938"/><line style="stroke:#C90000;stroke-width:0.5;" x1="56.25" x2="106.25" y1="596.8906" y2="596.8906"/><text fill="#000000" font-family="sans-serif" font-size="14" lengthAdjust="spacing" textLength="4" x="79.25" y="588.5889">&#160;</text></g><ellipse cx="81.25" cy="251.5938" fill="#222222" rx="10" ry="10" style="stroke:#222222;stroke-width:1.0;"/><ellipse cx="81.25" cy="668.5938" fill="none" rx="11" ry="11" style="stroke:#222222;stroke-width:1.0;"/><ellipse cx="81.25" cy="668.5938" fill="#222222" rx="6" ry="6" style="stroke:#222222;stroke-width:1.0;"/><!--link *start*ver_reporte to 1--><g id="link_*start*ver_reporte_1"><path d="M81.25,261.7448 C81.25,271.0098 81.25,279.7348 81.25,292.3778 " fill="none" id="*start*ver_reporte-to-1" style="stroke:#008000;stroke-width:1.0;"/><polygon fill="#008000" points="81.25,298.3778,85.25,289.3778,81.25,293.3778,77.25,289.3778,81.25,298.3778" style="stroke:#008000;stroke-width:1.0;"/></g><!--link 1 to 2--><g id="link_1_2"><path d="M81.25,348.8598 C81.25,373.1458 81.25,404.2868 81.25,428.5078 " fill="none" id="1-to-2" style="stroke:#008000;stroke-width:1.0;"/><polygon fill="#008000" points="81.25,434.5078,85.25,425.5078,81.25,429.5078,77.25,425.5078,81.25,434.5078" style="stroke:#008000;stroke-width:1.0;"/><path d="M86.25,371.5938 L86.25,411.5938 L247.25,411.5938 L247.25,381.5938 L237.25,371.5938 L86.25,371.5938 " fill="#F5F5F5" style="stroke:#181818;stroke-width:0.5;"/><path d="M237.25,371.5938 L237.25,381.5938 L247.25,381.5938 L237.25,371.5938 " fill="#F5F5F5" style="stroke:#181818;stroke-width:0.5;"/><text fill="#000000" font-family="sans-serif" font-size="13" font-weight="bold" lengthAdjust="spacing" textLength="134" x="92.25" y="388.6606">Sistema requiere:</text><text fill="#000000" font-family="sans-serif" font-size="13" lengthAdjust="spacing" textLength="140" x="92.25" y="403.7935">- Selecci&#243;n de reporte</text></g><!--link 2 to 3--><g id="link_2_3"><path d="M81.25,484.8597 C81.25,509.1458 81.25,540.2868 81.25,564.5078 " fill="none" id="2-to-3" style="stroke:#008000;stroke-width:1.0;"/><polygon fill="#008000" points="81.25,570.5078,85.25,561.5078,81.25,565.5078,77.25,561.5078,81.25,570.5078" style="stroke:#008000;stroke-width:1.0;"/><path d="M86.25,507.5938 L86.25,547.5938 L252.25,547.5938 L252.25,517.5938 L242.25,507.5938 L86.25,507.5938 " fill="#F5F5F5" style="stroke:#181818;stroke-width:0.5;"/><path d="M242.25,507.5938 L242.25,517.5938 L252.25,517.5938 L242.25,507.5938 " fill="#F5F5F5" style="stroke:#181818;stroke-width:0.5;"/><text fill="#000000" font-family="sans-serif" font-size="13" font-weight="bold" lengthAdjust="spacing" textLength="145" x="92.25" y="524.6606">Usuario selecciona:</text><text fill="#000000" font-family="sans-serif" font-size="13" lengthAdjust="spacing" textLength="60" x="92.25" y="539.7935">- Reporte</text></g><!--link 3 to *end*ver_reporte--><g id="link_3_*end*ver_reporte"><path d="M81.25,620.6311 C81.25,633.1829 81.25,641.8762 81.25,651.44 " fill="none" id="3-to-*end*ver_reporte" style="stroke:#008000;stroke-width:1.0;"/><polygon fill="#008000" points="81.25,657.44,85.25,648.44,81.25,652.44,77.25,648.44,81.25,657.44" style="stroke:#008000;stroke-width:1.0;"/></g><g id=":abrirReporte"><rect fill="#FAF4B4" height="50" rx="12.5" ry="12.5" style="stroke:#C90000;stroke-width:0.5;" width="119" x="93.25" y="750.2969"/><line style="stroke:#C90000;stroke-width:0.5;" x1="93.25" x2="212.25" y1="776.5938" y2="776.5938"/><text fill="#000000" font-family="sans-serif" font-size="14" lengthAdjust="spacing" textLength="99" x="103.25" y="768.292">:abrirReporte</text></g><g id="REPORTE"><rect fill="#FAF4B4" height="50" rx="12.5" ry="12.5" style="stroke:#C90000;stroke-width:0.5;" width="87" x="109.25" y="861.2969"/><line style="stroke:#C90000;stroke-width:0.5;" x1="109.25" x2="196.25" y1="887.5938" y2="887.5938"/><text fill="#000000" font-family="sans-serif" font-size="14" lengthAdjust="spacing" textLength="67" x="119.25" y="879.292">REPORTE</text></g><!--link P?GINA_PROYECTO to ver_reporte--><g id="link_P&#193;GINA_PROYECTO_ver_reporte"><path d="M152.75,94.3569 C152.75,118.7189 152.75,153.1239 152.75,198.0359 " fill="none" id="P&#193;GINA_PROYECTO-to-ver_reporte" style="stroke:#008000;stroke-width:1.0;"/><polygon fill="#008000" points="152.75,204.0359,156.75,195.0359,152.75,199.0359,148.75,195.0359,152.75,204.0359" style="stroke:#008000;stroke-width:1.0;"/><path d="M157.75,129.2969 L157.75,169.2969 L300.75,169.2969 L300.75,139.2969 L290.75,129.2969 L157.75,129.2969 " fill="#F5F5F5" style="stroke:#181818;stroke-width:0.5;"/><path d="M290.75,129.2969 L290.75,139.2969 L300.75,139.2969 L290.75,129.2969 " fill="#F5F5F5" style="stroke:#181818;stroke-width:0.5;"/><text fill="#000000" font-family="sans-serif" font-size="13" font-weight="bold" lengthAdjust="spacing" textLength="122" x="163.75" y="146.3638">Usuario solicita:</text><text fill="#000000" font-family="sans-serif" font-size="13" lengthAdjust="spacing" textLength="82" x="163.75" y="161.4966">- Ver reporte</text></g><!--link ver_reporte to :abrirReporte--><g id="link_ver_reporte_:abrirReporte"><path d="M152.75,689.3649 C152.75,713.6209 152.75,728.8539 152.75,744.0229 " fill="none" id="ver_reporte-to-:abrirReporte" style="stroke:#008000;stroke-width:1.0;"/><polygon fill="#008000" points="152.75,750.0229,156.75,741.0229,152.75,745.0229,148.75,741.0229,152.75,750.0229" style="stroke:#008000;stroke-width:1.0;"/></g><!--link :abrirReporte to REPORTE--><g id="link_:abrirReporte_REPORTE"><path d="M152.75,800.4879 C152.75,818.5507 152.75,837.127 152.75,855.1739 " fill="none" id=":abrirReporte-to-REPORTE" style="stroke:#008000;stroke-width:1.0;"/><polygon fill="#008000" points="152.75,861.1739,156.75,852.1739,152.75,856.1739,148.75,852.1739,152.75,861.1739" style="stroke:#008000;stroke-width:1.0;"/></g><!--SRC=[TL7TQi8m5BxFKnpqhb2OFxkO5uEjwuOtKweEXeZ4zYZ1c7GdSI1Z5tkcFO8ljgIrhfNj913o9Vb-JinMg9mJtu6nt29yC81xdcutfFSgYxJK1EqrN_TNVN-YAKCweUdDbIlsoPWvaoZzByUr7ytRKYYqXnmXr_BWDunPOIN20rektHfneo53cBdb1GaIp3KvXH0UXvE8CJO-VZqDd- -MusJq6aVJKJXlRmXHBS9RU4TQKlc05RwqyefRvou8PcRFIMWmMefKM3u80eU7XShf4J1KMP78UIwQKsFq6Kkm0zn02rfde7i9z7u1D-V10kesEmxhD92kGouC-mg2YJ0MTzmPVDiB92nD-mfXWXBJL1o_bMzObHlWd06SiRfAxo-LMcDAFgrufH9MxM-ozXgiBft_urgd6iS3lY915GzhREltadWyIgRn3m00]--></g></svg>