<?xml version="1.0" encoding="us-ascii" standalone="no"?><svg xmlns="http://www.w3.org/2000/svg" xmlns:xlink="http://www.w3.org/1999/xlink" contentStyleType="text/css" height="1007px" preserveAspectRatio="none" style="width:498px;height:1007px;background:#FFFFFF;" version="1.1" viewBox="0 0 498 1007" width="498px" zoomAndPan="magnify"><defs/><g><text fill="#000000" font-family="sans-serif" font-size="14" font-weight="bold" lengthAdjust="spacing" textLength="358" x="63.25" y="22.9951">Detalle Caso de Uso Registrar Usuario - FISC</text><g id="INICIO"><rect fill="#FAF4B4" height="50" rx="12.5" ry="12.5" style="stroke:#C90000;stroke-width:0.5;" width="63" x="203" y="44.2969"/><line style="stroke:#C90000;stroke-width:0.5;" x1="203" x2="266" y1="70.5938" y2="70.5938"/><text fill="#000000" font-family="sans-serif" font-size="14" lengthAdjust="spacing" textLength="43" x="213" y="62.292">INICIO</text></g><path d="M19.5,204.2969 L449.5,204.2969 A12.5,12.5 0 0 1 462,216.7969 L462,230.5938 L7,230.5938 L7,216.7969 A12.5,12.5 0 0 1 19.5,204.2969 " fill="#FAF4B4" style="stroke:#FAF4B4;stroke-width:1.0;"/><rect fill="none" height="575.2969" rx="12.5" ry="12.5" style="stroke:#C90000;stroke-width:0.5;" width="455" x="7" y="204.2969"/><line style="stroke:#C90000;stroke-width:0.5;" x1="7" x2="462" y1="230.5938" y2="230.5938"/><text fill="#000000" font-family="sans-serif" font-size="14" lengthAdjust="spacing" textLength="119" x="175" y="222.292">registrar_usuario</text><g id="registrar_usuario.1"><rect fill="#FAF4B4" height="50" rx="12.5" ry="12.5" style="stroke:#C90000;stroke-width:0.5;" width="50" x="203" y="298.5938"/><line style="stroke:#C90000;stroke-width:0.5;" x1="203" x2="253" y1="324.8906" y2="324.8906"/><text fill="#000000" font-family="sans-serif" font-size="14" lengthAdjust="spacing" textLength="4" x="226" y="316.5889">&#160;</text></g><g id="registrar_usuario.2"><rect fill="#FAF4B4" height="50" rx="12.5" ry="12.5" style="stroke:#C90000;stroke-width:0.5;" width="50" x="19" y="479.5938"/><line style="stroke:#C90000;stroke-width:0.5;" x1="19" x2="69" y1="505.8906" y2="505.8906"/><text fill="#000000" font-family="sans-serif" font-size="14" lengthAdjust="spacing" textLength="4" x="42" y="497.5889">&#160;</text></g><g id="registrar_usuario.3"><rect fill="#FAF4B4" height="50" rx="12.5" ry="12.5" style="stroke:#C90000;stroke-width:0.5;" width="50" x="133" y="660.5938"/><line style="stroke:#C90000;stroke-width:0.5;" x1="133" x2="183" y1="686.8906" y2="686.8906"/><text fill="#000000" font-family="sans-serif" font-size="14" lengthAdjust="spacing" textLength="4" x="156" y="678.5889">&#160;</text></g><ellipse cx="228" cy="251.5938" fill="#222222" rx="10" ry="10" style="stroke:#222222;stroke-width:1.0;"/><ellipse cx="158" cy="758.5938" fill="none" rx="11" ry="11" style="stroke:#222222;stroke-width:1.0;"/><ellipse cx="158" cy="758.5938" fill="#222222" rx="6" ry="6" style="stroke:#222222;stroke-width:1.0;"/><!--link *start*registrar_usuario to 1--><g id="link_*start*registrar_usuario_1"><path d="M228,261.7448 C228,271.0098 228,279.7348 228,292.3778 " fill="none" id="*start*registrar_usuario-to-1" style="stroke:#008000;stroke-width:1.0;"/><polygon fill="#008000" points="228,298.3778,232,289.3778,228,293.3778,224,289.3778,228,298.3778" style="stroke:#008000;stroke-width:1.0;"/></g><!--link 1 to 2--><g id="link_1_2"><path d="M202.865,334.0198 C169.844,346.4028 116,366.5938 116,366.5938 C116,366.5938 80.1675,434.7756 59.4977,474.1056 " fill="none" id="1-to-2" style="stroke:#008000;stroke-width:1.0;"/><polygon fill="#008000" points="56.7064,479.4168,64.4341,473.3108,59.0325,474.9908,57.3525,469.5891,56.7064,479.4168" style="stroke:#008000;stroke-width:1.0;"/><path d="M121,371.5938 L121,456.5938 L276,456.5938 L276,381.5938 L266,371.5938 L121,371.5938 " fill="#F5F5F5" style="stroke:#181818;stroke-width:0.5;"/><path d="M266,371.5938 L266,381.5938 L276,381.5938 L266,371.5938 " fill="#F5F5F5" style="stroke:#181818;stroke-width:0.5;"/><text fill="#000000" font-family="sans-serif" font-size="13" font-weight="bold" lengthAdjust="spacing" textLength="134" x="127" y="388.6606">Sistema requiere:</text><text fill="#000000" font-family="sans-serif" font-size="13" lengthAdjust="spacing" textLength="60" x="127" y="403.7935">- Nombre</text><text fill="#000000" font-family="sans-serif" font-size="13" lengthAdjust="spacing" textLength="126" x="127" y="418.9263">- Correo Electr&#243;nico</text><text fill="#000000" font-family="sans-serif" font-size="13" lengthAdjust="spacing" textLength="57" x="127" y="434.0591">- Usuario</text><text fill="#000000" font-family="sans-serif" font-size="13" lengthAdjust="spacing" textLength="83" x="127" y="449.1919">- Contrase&#241;a</text></g><!--link 2 to 3--><g id="link_2_3"><path d="M31.2025,530.0258 C26.3627,539.2648 22,547.5938 22,547.5938 C22,547.5938 22,642.5938 22,642.5938 C22,642.5938 87.6752,662.8752 127.0052,675.0218 " fill="none" id="2-to-3" style="stroke:#008000;stroke-width:1.0;"/><polygon fill="#008000" points="132.738,676.7923,125.3191,670.3147,127.9606,675.3169,122.9584,677.9585,132.738,676.7923" style="stroke:#008000;stroke-width:1.0;"/><path d="M27,552.5938 L27,637.5938 L276,637.5938 L276,562.5938 L266,552.5938 L27,552.5938 " fill="#F5F5F5" style="stroke:#181818;stroke-width:0.5;"/><path d="M266,552.5938 L266,562.5938 L276,562.5938 L266,552.5938 " fill="#F5F5F5" style="stroke:#181818;stroke-width:0.5;"/><text fill="#000000" font-family="sans-serif" font-size="13" font-weight="bold" lengthAdjust="spacing" textLength="228" x="33" y="569.6606">Usuario no registrado aporta:</text><text fill="#000000" font-family="sans-serif" font-size="13" lengthAdjust="spacing" textLength="60" x="33" y="584.7935">- Nombre</text><text fill="#000000" font-family="sans-serif" font-size="13" lengthAdjust="spacing" textLength="126" x="33" y="599.9263">- Correo Electr&#243;nico</text><text fill="#000000" font-family="sans-serif" font-size="13" lengthAdjust="spacing" textLength="57" x="33" y="615.0591">- Usuario</text><text fill="#000000" font-family="sans-serif" font-size="13" lengthAdjust="spacing" textLength="83" x="33" y="630.1919">- Contrase&#241;a</text></g><!--link 3 to 1--><g id="link_3_1"><path d="M183.188,675.9931 C219.173,663.7058 281,642.5938 281,642.5938 C281,642.5938 281,366.5938 281,366.5938 C281,366.5938 271.6116,359.1531 257.9606,348.3361 " fill="none" id="3-to-1" style="stroke:#FF0000;stroke-width:1.0;"/><polygon fill="#FF0000" points="253.258,344.6098,257.8277,353.3343,257.1768,347.715,262.7961,347.0642,253.258,344.6098" style="stroke:#FF0000;stroke-width:1.0;"/><path d="M286,484.5938 L286,524.5938 L453,524.5938 L453,494.5938 L443,484.5938 L286,484.5938 " fill="#F5F5F5" style="stroke:#181818;stroke-width:0.5;"/><path d="M443,484.5938 L443,494.5938 L453,494.5938 L443,484.5938 " fill="#F5F5F5" style="stroke:#181818;stroke-width:0.5;"/><text fill="#000000" font-family="sans-serif" font-size="13" lengthAdjust="spacing" textLength="146" x="292" y="501.6606">[Usuario no disponible]</text><text fill="#000000" font-family="sans-serif" font-size="13" lengthAdjust="spacing" textLength="137" x="292" y="516.7935">[Correo ya existente]</text></g><!--link 3 to *end*registrar_usuario--><g id="link_3_*end*registrar_usuario"><path d="M158,710.6311 C158,723.1829 158,731.8762 158,741.4401 " fill="none" id="3-to-*end*registrar_usuario" style="stroke:#008000;stroke-width:1.0;"/><polygon fill="#008000" points="158,747.4401,162,738.4401,158,742.4401,154,738.4401,158,747.4401" style="stroke:#008000;stroke-width:1.0;"/></g><g id=":abrirPaginaLogin"><rect fill="#FAF4B4" height="50" rx="12.5" ry="12.5" style="stroke:#C90000;stroke-width:0.5;" width="145" x="162" y="840.2969"/><line style="stroke:#C90000;stroke-width:0.5;" x1="162" x2="307" y1="866.5938" y2="866.5938"/><text fill="#000000" font-family="sans-serif" font-size="14" lengthAdjust="spacing" textLength="125" x="172" y="858.292">:abrirPaginaLogin</text></g><g id="PAGINA_LOGIN"><rect fill="#FAF4B4" height="50" rx="12.5" ry="12.5" style="stroke:#C90000;stroke-width:0.5;" width="125" x="172" y="951.2969"/><line style="stroke:#C90000;stroke-width:0.5;" x1="172" x2="297" y1="977.5938" y2="977.5938"/><text fill="#000000" font-family="sans-serif" font-size="14" lengthAdjust="spacing" textLength="105" x="182" y="969.292">PAGINA_LOGIN</text></g><!--link INICIO to registrar_usuario--><g id="link_INICIO_registrar_usuario"><path d="M234.5,94.4149 C234.5,118.4979 234.5,152.3949 234.5,197.8309 " fill="none" id="INICIO-to-registrar_usuario" style="stroke:#008000;stroke-width:1.0;"/><polygon fill="#008000" points="234.5,203.8309,238.5,194.8309,234.5,198.8309,230.5,194.8309,234.5,203.8309" style="stroke:#008000;stroke-width:1.0;"/><path d="M239.5,129.2969 L239.5,169.2969 L491.5,169.2969 L491.5,139.2969 L481.5,129.2969 L239.5,129.2969 " fill="#F5F5F5" style="stroke:#181818;stroke-width:0.5;"/><path d="M481.5,129.2969 L481.5,139.2969 L491.5,139.2969 L481.5,129.2969 " fill="#F5F5F5" style="stroke:#181818;stroke-width:0.5;"/><text fill="#000000" font-family="sans-serif" font-size="13" font-weight="bold" lengthAdjust="spacing" textLength="231" x="245.5" y="146.3638">Usuario no registrado solicita:</text><text fill="#000000" font-family="sans-serif" font-size="13" lengthAdjust="spacing" textLength="119" x="245.5" y="161.4966">- Registrar Usuario</text></g><!--link registrar_usuario to :abrirPaginaLogin--><g id="link_registrar_usuario_:abrirPaginaLogin"><path d="M234.5,779.5329 C234.5,803.9219 234.5,818.9739 234.5,833.9969 " fill="none" id="registrar_usuario-to-:abrirPaginaLogin" style="stroke:#008000;stroke-width:1.0;"/><polygon fill="#008000" points="234.5,839.9969,238.5,830.9969,234.5,834.9969,230.5,830.9969,234.5,839.9969" style="stroke:#008000;stroke-width:1.0;"/></g><!--link :abrirPaginaLogin to PAGINA_LOGIN--><g id="link_:abrirPaginaLogin_PAGINA_LOGIN"><path d="M234.5,890.4879 C234.5,908.5507 234.5,927.127 234.5,945.1739 " fill="none" id=":abrirPaginaLogin-to-PAGINA_LOGIN" style="stroke:#008000;stroke-width:1.0;"/><polygon fill="#008000" points="234.5,951.1739,238.5,942.1739,234.5,946.1739,230.5,942.1739,234.5,951.1739" style="stroke:#008000;stroke-width:1.0;"/></g><!--SRC=[VLBHIkj047tVhnZqBH2mLX_qGV3ctYi1gNB5fr9acenbQReJPxTW4JzAxYVuOywsJMoQsxi96VRCoSmvi-ldrjKek00VC12y6O0VMCndmajNPbonmF4pFfzDpsA6fIJPeiN5YIxpRenlYpW-MECyFbrsPHs5LKrGSxMA6sE23HN1JmfOQSpGCvG4Znh-qCpw82YwMw9OXXH-vm-PCIOVvLb-1-duU2P4Rf9UWJJif-MMRTRQsCMkSrMO94qTnoszPF1SsS86l4mIPQNzlePSkJQgLjOpw_UA4zZa1e0UZk2e1KxtWU4teEyucNHy31GRT91JHVQin9Ka3og25gXoNfQMX3O6uafXn8kfKBlDM8GOVbLK1Fdywsp1RQvn-SrrwitJvmSgrde7TR8hQ_WlMOTcZ3LBC-4zUOV5TQNzHzWm2XCgc_drP8rtL9NMr-pijAB99hTjlqAWrpXH5zQP_VgjSJsnUAlxbs2NT8bJiNAFC-lmblLhJ0_g_71_VPEFhfzkxpHy0G00]--></g></svg>