<?xml version="1.0" encoding="us-ascii" standalone="no"?><svg xmlns="http://www.w3.org/2000/svg" xmlns:xlink="http://www.w3.org/1999/xlink" contentStyleType="text/css" height="546px" preserveAspectRatio="none" style="width:525px;height:546px;background:#FFFFFF;" version="1.1" viewBox="0 0 525 546" width="525px" zoomAndPan="magnify"><defs/><g><text fill="#000000" font-family="sans-serif" font-size="14" font-weight="bold" lengthAdjust="spacing" textLength="464" x="23.75" y="22.9951">Detalle Caso de Uso Verificar Estado de Simulaci&#243;n - FISC</text><g id="SIMULANDO"><rect fill="#FAF4B4" height="50" rx="12.5" ry="12.5" style="stroke:#C90000;stroke-width:0.5;" width="104" x="360.5" y="44.2969"/><line style="stroke:#C90000;stroke-width:0.5;" x1="360.5" x2="464.5" y1="70.5938" y2="70.5938"/><text fill="#000000" font-family="sans-serif" font-size="14" lengthAdjust="spacing" textLength="84" x="370.5" y="62.292">SIMULANDO</text></g><g id=":verificar_estado_simulacion"><rect fill="#FAF4B4" height="50" rx="12.5" ry="12.5" style="stroke:#C90000;stroke-width:0.5;" width="222" x="173.5" y="204.2969"/><line style="stroke:#C90000;stroke-width:0.5;" x1="173.5" x2="395.5" y1="230.5938" y2="230.5938"/><text fill="#000000" font-family="sans-serif" font-size="14" lengthAdjust="spacing" textLength="202" x="183.5" y="222.292">:verificar_estado_simulacion</text></g><g id=":actualizar_barra"><rect fill="#FAF4B4" height="50" rx="12.5" ry="12.5" style="stroke:#C90000;stroke-width:0.5;" width="139" x="355" y="379.2969"/><line style="stroke:#C90000;stroke-width:0.5;" x1="355" x2="494" y1="405.5938" y2="405.5938"/><text fill="#000000" font-family="sans-serif" font-size="14" lengthAdjust="spacing" textLength="119" x="365" y="397.292">:actualizar_barra</text></g><g id=":generarReporte"><rect fill="#FAF4B4" height="50" rx="12.5" ry="12.5" style="stroke:#C90000;stroke-width:0.5;" width="141" x="7" y="379.2969"/><line style="stroke:#C90000;stroke-width:0.5;" x1="7" x2="148" y1="405.5938" y2="405.5938"/><text fill="#000000" font-family="sans-serif" font-size="14" lengthAdjust="spacing" textLength="121" x="17" y="397.292">:generarReporte</text></g><g id="REPORTE"><rect fill="#FAF4B4" height="50" rx="12.5" ry="12.5" style="stroke:#C90000;stroke-width:0.5;" width="87" x="34" y="490.2969"/><line style="stroke:#C90000;stroke-width:0.5;" x1="34" x2="121" y1="516.5938" y2="516.5938"/><text fill="#000000" font-family="sans-serif" font-size="14" lengthAdjust="spacing" textLength="67" x="44" y="508.292">REPORTE</text></g><!--link SIMULANDO to :verificar_estado_simulacion--><g id="link_SIMULANDO_:verificar_estado_simulacion"><path d="M360.349,91.7939 C323.817,106.8529 281.5,124.2969 281.5,124.2969 C281.5,124.2969 281.5,174.2969 281.5,174.2969 C281.5,174.2969 282.0261,183.7711 282.8251,198.1491 " fill="none" id="SIMULANDO-to-:verificar_estado_simulacion" style="stroke:#008000;stroke-width:1.0;"/><polygon fill="#008000" points="283.158,204.1399,286.6525,194.9318,282.8806,199.1476,278.6648,195.3757,283.158,204.1399" style="stroke:#008000;stroke-width:1.0;"/><path d="M286.5,129.2969 L286.5,169.2969 L509.5,169.2969 L509.5,139.2969 L499.5,129.2969 L286.5,129.2969 " fill="#F5F5F5" style="stroke:#181818;stroke-width:0.5;"/><path d="M499.5,129.2969 L499.5,139.2969 L509.5,139.2969 L499.5,129.2969 " fill="#F5F5F5" style="stroke:#181818;stroke-width:0.5;"/><text fill="#000000" font-family="sans-serif" font-size="13" font-weight="bold" lengthAdjust="spacing" textLength="122" x="292.5" y="146.3638">Tiempo solicita:</text><text fill="#000000" font-family="sans-serif" font-size="13" lengthAdjust="spacing" textLength="202" x="292.5" y="161.4966">- Verificar estado de simulaci&#243;n</text></g><!--link :verificar_estado_simulacion to :actualizar_barra--><g id="link_:verificar_estado_simulacion_:actualizar_barra"><path d="M288.75,254.3779 C294.886,289.1509 305.5,349.2969 305.5,349.2969 C305.5,349.2969 334.1173,362.2825 365.8013,376.6605 " fill="none" id=":verificar_estado_simulacion-to-:actualizar_barra" style="stroke:#008000;stroke-width:1.0;"/><polygon fill="#008000" points="371.265,379.1399,364.7223,371.7783,366.7119,377.0737,361.4164,379.0633,371.265,379.1399" style="stroke:#008000;stroke-width:1.0;"/><path d="M310.5,289.2969 L310.5,344.2969 L509.5,344.2969 L509.5,299.2969 L499.5,289.2969 L310.5,289.2969 " fill="#F5F5F5" style="stroke:#181818;stroke-width:0.5;"/><path d="M499.5,289.2969 L499.5,299.2969 L509.5,299.2969 L499.5,289.2969 " fill="#F5F5F5" style="stroke:#181818;stroke-width:0.5;"/><text fill="#000000" font-family="sans-serif" font-size="13" font-weight="bold" lengthAdjust="spacing" textLength="178" x="316.5" y="306.3638">Simulaci&#243;n en Progreso</text><text fill="#000000" font-family="sans-serif" font-size="13" lengthAdjust="spacing" textLength="154" x="316.5" y="321.4966">- [Se estima el progreso</text><text fill="#000000" font-family="sans-serif" font-size="13" lengthAdjust="spacing" textLength="108" x="324.5" y="336.6294">de la simulaci&#243;n]</text></g><!--link :actualizar_barra to SIMULANDO--><g id="link_:actualizar_barra_SIMULANDO"><path d="M466.551,379.1399 C491.579,364.7619 518.5,349.2969 518.5,349.2969 C518.5,349.2969 518.5,124.2969 518.5,124.2969 C518.5,124.2969 493.4882,111.5555 465.2652,97.1775 " fill="none" id=":actualizar_barra-to-SIMULANDO" style="stroke:#008000;stroke-width:1.0;"/><polygon fill="#008000" points="459.919,94.4539,466.1226,102.1034,464.3742,96.7235,469.7541,94.9751,459.919,94.4539" style="stroke:#008000;stroke-width:1.0;"/></g><!--link :verificar_estado_simulacion to :generarReporte--><g id="link_:verificar_estado_simulacion_:generarReporte"><path d="M199.78,254.3749 C149.113,268.7749 94.5,284.2969 94.5,284.2969 C94.5,284.2969 86.7562,338.5032 81.7887,373.2762 " fill="none" id=":verificar_estado_simulacion-to-:generarReporte" style="stroke:#008000;stroke-width:1.0;"/><polygon fill="#008000" points="80.9402,379.2159,86.1728,370.872,81.6473,374.2661,78.2532,369.7406,80.9402,379.2159" style="stroke:#008000;stroke-width:1.0;"/><path d="M99.5,296.7969 L99.5,336.7969 L280.5,336.7969 L280.5,306.7969 L270.5,296.7969 L99.5,296.7969 " fill="#F5F5F5" style="stroke:#181818;stroke-width:0.5;"/><path d="M270.5,296.7969 L270.5,306.7969 L280.5,306.7969 L270.5,296.7969 " fill="#F5F5F5" style="stroke:#181818;stroke-width:0.5;"/><text fill="#000000" font-family="sans-serif" font-size="13" font-weight="bold" lengthAdjust="spacing" textLength="159" x="105.5" y="313.8638">Simulaci&#243;n Finalizada</text><text fill="#000000" font-family="sans-serif" font-size="13" lengthAdjust="spacing" textLength="160" x="105.5" y="328.9966">- [La simulaci&#243;n termin&#243;]</text></g><!--link :generarReporte to REPORTE--><g id="link_:generarReporte_REPORTE"><path d="M77.5,429.4879 C77.5,447.5507 77.5,466.127 77.5,484.1739 " fill="none" id=":generarReporte-to-REPORTE" style="stroke:#008000;stroke-width:1.0;"/><polygon fill="#008000" points="77.5,490.1739,81.5,481.1739,77.5,485.1739,73.5,481.1739,77.5,490.1739" style="stroke:#008000;stroke-width:1.0;"/></g><!--SRC=[bP3FQW8n4CRlUOe1RmiBFTX3FHHQ_u1WgxZQYuYCkwC4iyaoYGLR-bG-WY_MxBBgfgL2aqF8p7pp_MRiJke26NEm3Xt1fm1undItPRFNMTSemz3QuAQzRfSPmnbn7KqVxlmHNqBOInDj_knnNzwmMabDxb0G54OToeyGJZf5q2E7ohzTj0OoWhb_teZbHgR8qFUeMHLFPBvNcChJKKCCWs7I5I8Plin7Jw-zSRneRPb8B-D7wBoVrIkgr2jRIuqM5RJH9SxEeqVHJ59U6B16oLGwx4IH3ySD0heGs2k189rL2n3YbXq4N9YwFIhvuIlNo8o_OPepaeO96w-sfcPQ95JIo1o151HrqgUWf5FO15ms2NyQ1rYN7Oh_pB8bJOmyfSAmzxWvoK3goZt3yo2ZW1KSSIxrwHX0Xmw1-xG_6Kzd_My0]--></g></svg>