<svg xmlns="http://www.w3.org/2000/svg" xmlns:xlink="http://www.w3.org/1999/xlink" contentStyleType="text/css" height="385px" preserveAspectRatio="none" style="width:676px;height:385px;background:#FFFFFF;" version="1.1" viewBox="0 0 676 385" width="676px" zoomAndPan="magnify"><defs/><g><text fill="#000000" font-family="sans-serif" font-size="14" font-weight="bold" lengthAdjust="spacing" textLength="360" x="151.25" y="22.9951">Detalle Caso de Uso Listar Simulaciones- FISC</text><g id="ESTADO_PRINCIPAL"><rect fill="#FAF4B4" height="50" rx="12.5" ry="12.5" style="stroke:#C90000;stroke-width:0.5;" width="155" x="7" y="44.2969"/><line style="stroke:#C90000;stroke-width:0.5;" x1="7" x2="162" y1="70.5938" y2="70.5938"/><text fill="#000000" font-family="sans-serif" font-size="14" lengthAdjust="spacing" textLength="135" x="17" y="62.292">ESTADO_PRINCIPAL</text></g><g id=":listar_simulaciones"><rect fill="#FAF4B4" height="50" rx="12.5" ry="12.5" style="stroke:#C90000;stroke-width:0.5;" width="154" x="247.5" y="219.2969"/><line style="stroke:#C90000;stroke-width:0.5;" x1="247.5" x2="401.5" y1="245.5938" y2="245.5938"/><text fill="#000000" font-family="sans-serif" font-size="14" lengthAdjust="spacing" textLength="134" x="257.5" y="237.292">:listar_simulaciones</text></g><g id="CONFIGURACI&#211;N_DE_SIMULACI&#211;N"><rect fill="#FAF4B4" height="50" rx="12.5" ry="12.5" style="stroke:#C90000;stroke-width:0.5;" width="254" x="197.5" y="44.2969"/><line style="stroke:#C90000;stroke-width:0.5;" x1="197.5" x2="451.5" y1="70.5938" y2="70.5938"/><text fill="#000000" font-family="sans-serif" font-size="14" lengthAdjust="spacing" textLength="234" x="207.5" y="62.292">CONFIGURACI&#211;N_DE_SIMULACI&#211;N</text></g><g id="REPORTE"><rect fill="#FAF4B4" height="50" rx="12.5" ry="12.5" style="stroke:#C90000;stroke-width:0.5;" width="87" x="486" y="44.2969"/><line style="stroke:#C90000;stroke-width:0.5;" x1="486" x2="573" y1="70.5938" y2="70.5938"/><text fill="#000000" font-family="sans-serif" font-size="14" lengthAdjust="spacing" textLength="67" x="496" y="62.292">REPORTE</text></g><g id="ESTADO_PROYECTO"><rect fill="#FAF4B4" height="50" rx="12.5" ry="12.5" style="stroke:#C90000;stroke-width:0.5;" width="163" x="243" y="329.2969"/><line style="stroke:#C90000;stroke-width:0.5;" x1="243" x2="406" y1="355.5938" y2="355.5938"/><text fill="#000000" font-family="sans-serif" font-size="14" lengthAdjust="spacing" textLength="143" x="253" y="347.292">ESTADO_PROYECTO</text></g><!--link ESTADO_PRINCIPAL to :listar_simulaciones--><g id="link_ESTADO_PRINCIPAL_:listar_simulaciones"><path d="M98.02,94.6669 C117.32,129.4769 150.5,189.2969 150.5,189.2969 C150.5,189.2969 194.9696,203.0987 241.4396,217.5187 " fill="none" id="ESTADO_PRINCIPAL-to-:listar_simulaciones" style="stroke:#008000;stroke-width:1.0;"/><polygon fill="#008000" points="247.17,219.2969,239.7598,212.8093,242.3946,217.815,237.3889,220.4499,247.17,219.2969" style="stroke:#008000;stroke-width:1.0;"/><path d="M155.5,136.7969 L155.5,176.7969 L309.5,176.7969 L309.5,146.7969 L299.5,136.7969 L155.5,136.7969 " fill="#F5F5F5" style="stroke:#181818;stroke-width:0.5;"/><path d="M299.5,136.7969 L299.5,146.7969 L309.5,146.7969 L299.5,136.7969 " fill="#F5F5F5" style="stroke:#181818;stroke-width:0.5;"/><text fill="#000000" font-family="sans-serif" font-size="13" font-weight="bold" lengthAdjust="spacing" textLength="131" x="161.5" y="153.8638">Sistema requiere:</text><text fill="#000000" font-family="sans-serif" font-size="13" lengthAdjust="spacing" textLength="133" x="161.5" y="168.9966">- Listar Simulaciones</text></g><!--link CONFIGURACI?N_DE_SIMULACI?N to :listar_simulaciones--><g id="link_CONFIGURACI&#211;N_DE_SIMULACI&#211;N_:listar_simulaciones"><path d="M323.59,94.7669 C323.06,109.0569 322.5,124.2969 322.5,124.2969 C322.5,124.2969 322.5,189.2969 322.5,189.2969 C322.5,189.2969 322.8376,198.541 323.3676,212.831 " fill="none" id="CONFIGURACI&#211;N_DE_SIMULACI&#211;N-to-:listar_simulaciones" style="stroke:#008000;stroke-width:1.0;"/><polygon fill="#008000" points="323.59,218.8269,327.2537,209.6848,323.4047,213.8303,319.2592,209.9813,323.59,218.8269" style="stroke:#008000;stroke-width:1.0;"/><path d="M327.5,136.7969 L327.5,176.7969 L481.5,176.7969 L481.5,146.7969 L471.5,136.7969 L327.5,136.7969 " fill="#F5F5F5" style="stroke:#181818;stroke-width:0.5;"/><path d="M471.5,136.7969 L471.5,146.7969 L481.5,146.7969 L471.5,136.7969 " fill="#F5F5F5" style="stroke:#181818;stroke-width:0.5;"/><text fill="#000000" font-family="sans-serif" font-size="13" font-weight="bold" lengthAdjust="spacing" textLength="131" x="333.5" y="153.8638">Sistema requiere:</text><text fill="#000000" font-family="sans-serif" font-size="13" lengthAdjust="spacing" textLength="133" x="333.5" y="168.9966">- Listar Simulaciones</text></g><!--link REPORTE to :listar_simulaciones--><g id="link_REPORTE_:listar_simulaciones"><path d="M521.51,94.6669 C510.1,129.4769 490.5,189.2969 490.5,189.2969 C490.5,189.2969 449.3556,202.6805 405.4356,216.9705 " fill="none" id="REPORTE-to-:listar_simulaciones" style="stroke:#008000;stroke-width:1.0;"/><polygon fill="#008000" points="399.73,218.8269,409.526,219.846,404.4847,217.2799,407.0508,212.2386,399.73,218.8269" style="stroke:#008000;stroke-width:1.0;"/><path d="M515.5,129.2969 L515.5,184.2969 L669.5,184.2969 L669.5,139.2969 L659.5,129.2969 L515.5,129.2969 " fill="#F5F5F5" style="stroke:#181818;stroke-width:0.5;"/><path d="M659.5,129.2969 L659.5,139.2969 L669.5,139.2969 L659.5,129.2969 " fill="#F5F5F5" style="stroke:#181818;stroke-width:0.5;"/><text fill="#000000" font-family="sans-serif" font-size="13" font-weight="bold" lengthAdjust="spacing" textLength="131" x="521.5" y="146.3638">Sistema requiere:</text><text fill="#000000" font-family="sans-serif" font-size="13" lengthAdjust="spacing" textLength="115" x="521.5" y="161.4966">- Guardar Reporte</text><text fill="#000000" font-family="sans-serif" font-size="13" lengthAdjust="spacing" textLength="133" x="521.5" y="176.6294">- Listar Simulaciones</text></g><!--link :listar_simulaciones to ESTADO_PROYECTO--><g id="link_:listar_simulaciones_ESTADO_PROYECTO"><path d="M324.5,269.5369 C324.5,287.3169 324.5,305.3769 324.5,323.1369 " fill="none" id=":listar_simulaciones-to-ESTADO_PROYECTO" style="stroke:#008000;stroke-width:1.0;"/><polygon fill="#008000" points="324.5,329.1369,328.5,320.1369,324.5,324.1369,320.5,320.1369,324.5,329.1369" style="stroke:#008000;stroke-width:1.0;"/></g><!--SRC=[lP7DQiCm3CVlVWf1Ru703jrXFGmo9os1B0dvE8mnWjUenSInCzivbB6ds2FjnUPaexJGiSkOTH2I9Vr_GgRZSc2QzM0iimYl1E2ERRkzLgDigH9AmsB7TildvVIZT8lwExkzkNAFl15YZaEa-d76zMJdrO9Bj8S1OL3YC0M4M6u5GeYM2USfCmfQXDgvX3j23INlHy6sN4aqFgpZaX8IbLKGParUn2cDyo3n7nTxZIYV_5jOYRclCITzPCPKSWBe7ApdbQu8UmOQNqQE6bUUv_B-9L62iftt93HBr_6cBW8QVxodJHWrPNnV9r_XFp4KKPuLLVHtQfkHwTR95JWexGH-9I2Nz4vvZjV97Y9QPPy0]--></g></svg>