<?xml version="1.0" encoding="us-ascii" standalone="no"?><svg xmlns="http://www.w3.org/2000/svg" xmlns:xlink="http://www.w3.org/1999/xlink" contentStyleType="text/css" height="806px" preserveAspectRatio="none" style="width:475px;height:806px;background:#FFFFFF;" version="1.1" viewBox="0 0 475 806" width="475px" zoomAndPan="magnify"><defs/><g><text fill="#000000" font-family="sans-serif" font-size="14" font-weight="bold" lengthAdjust="spacing" textLength="379" x="41" y="22.9951">Detalle Caso de Uso Exportar Simulaci&#243;n - FISC</text><g id="P&#193;GINA_PROYECTO"><rect fill="#FAF4B4" height="50" rx="12.5" ry="12.5" style="stroke:#C90000;stroke-width:0.5;" width="159" x="280.5" y="44.2969"/><line style="stroke:#C90000;stroke-width:0.5;" x1="280.5" x2="439.5" y1="70.5938" y2="70.5938"/><text fill="#000000" font-family="sans-serif" font-size="14" lengthAdjust="spacing" textLength="139" x="290.5" y="62.292">P&#193;GINA_PROYECTO</text></g><path d="M19.5,204.2969 L390.5,204.2969 A12.5,12.5 0 0 1 403,216.7969 L403,230.5938 L7,230.5938 L7,216.7969 A12.5,12.5 0 0 1 19.5,204.2969 " fill="#FAF4B4" style="stroke:#FAF4B4;stroke-width:1.0;"/><rect fill="none" height="485.2969" rx="12.5" ry="12.5" style="stroke:#C90000;stroke-width:0.5;" width="396" x="7" y="204.2969"/><line style="stroke:#C90000;stroke-width:0.5;" x1="7" x2="403" y1="230.5938" y2="230.5938"/><text fill="#000000" font-family="sans-serif" font-size="14" lengthAdjust="spacing" textLength="145" x="132.5" y="222.292">exportar_simulacion</text><g id="exportar_simulacion.1"><rect fill="#FAF4B4" height="50" rx="12.5" ry="12.5" style="stroke:#C90000;stroke-width:0.5;" width="50" x="121" y="298.5938"/><line style="stroke:#C90000;stroke-width:0.5;" x1="121" x2="171" y1="324.8906" y2="324.8906"/><text fill="#000000" font-family="sans-serif" font-size="14" lengthAdjust="spacing" textLength="4" x="144" y="316.5889">&#160;</text></g><g id="exportar_simulacion.2"><rect fill="#FAF4B4" height="50" rx="12.5" ry="12.5" style="stroke:#C90000;stroke-width:0.5;" width="50" x="19" y="434.5938"/><line style="stroke:#C90000;stroke-width:0.5;" x1="19" x2="69" y1="460.8906" y2="460.8906"/><text fill="#000000" font-family="sans-serif" font-size="14" lengthAdjust="spacing" textLength="4" x="42" y="452.5889">&#160;</text></g><g id="exportar_simulacion.3"><rect fill="#FAF4B4" height="50" rx="12.5" ry="12.5" style="stroke:#C90000;stroke-width:0.5;" width="50" x="112" y="570.5938"/><line style="stroke:#C90000;stroke-width:0.5;" x1="112" x2="162" y1="596.8906" y2="596.8906"/><text fill="#000000" font-family="sans-serif" font-size="14" lengthAdjust="spacing" textLength="4" x="135" y="588.5889">&#160;</text></g><ellipse cx="146" cy="251.5938" fill="#222222" rx="10" ry="10" style="stroke:#222222;stroke-width:1.0;"/><ellipse cx="137" cy="668.5938" fill="none" rx="11" ry="11" style="stroke:#222222;stroke-width:1.0;"/><ellipse cx="137" cy="668.5938" fill="#222222" rx="6" ry="6" style="stroke:#222222;stroke-width:1.0;"/><!--link *start*exportar_simulacion to 1--><g id="link_*start*exportar_simulacion_1"><path d="M146,261.7448 C146,271.0098 146,279.7348 146,292.3778 " fill="none" id="*start*exportar_simulacion-to-1" style="stroke:#008000;stroke-width:1.0;"/><polygon fill="#008000" points="146,298.3778,150,289.3778,146,293.3778,142,289.3778,146,298.3778" style="stroke:#008000;stroke-width:1.0;"/></g><!--link 1 to 2--><g id="link_1_2"><path d="M120.861,336.0708 C93.6211,348.5058 54,366.5938 54,366.5938 C54,366.5938 50.2385,401.1989 47.2757,428.4569 " fill="none" id="1-to-2" style="stroke:#008000;stroke-width:1.0;"/><polygon fill="#008000" points="46.6274,434.4218,51.5765,425.9067,47.1677,429.451,43.6233,425.0422,46.6274,434.4218" style="stroke:#008000;stroke-width:1.0;"/><path d="M59,371.5938 L59,411.5938 L214,411.5938 L214,381.5938 L204,371.5938 L59,371.5938 " fill="#F5F5F5" style="stroke:#181818;stroke-width:0.5;"/><path d="M204,371.5938 L204,381.5938 L214,381.5938 L204,371.5938 " fill="#F5F5F5" style="stroke:#181818;stroke-width:0.5;"/><text fill="#000000" font-family="sans-serif" font-size="13" font-weight="bold" lengthAdjust="spacing" textLength="134" x="65" y="388.6606">Sistema requiere:</text><text fill="#000000" font-family="sans-serif" font-size="13" lengthAdjust="spacing" textLength="78" x="65" y="403.7935">- Simulacion</text></g><!--link 2 to 3--><g id="link_2_3"><path d="M42.8366,485.0258 C42.3966,494.2648 42,502.5938 42,502.5938 C42,502.5938 42,552.5938 42,552.5938 C42,552.5938 77.914,568.4717 106.0541,580.9125 " fill="none" id="2-to-3" style="stroke:#008000;stroke-width:1.0;"/><polygon fill="#008000" points="111.5417,583.3385,104.9277,576.041,106.9687,581.3168,101.6929,583.3578,111.5417,583.3385" style="stroke:#008000;stroke-width:1.0;"/><path d="M47,507.5938 L47,547.5938 L214,547.5938 L214,517.5938 L204,507.5938 L47,507.5938 " fill="#F5F5F5" style="stroke:#181818;stroke-width:0.5;"/><path d="M204,507.5938 L204,517.5938 L214,517.5938 L204,507.5938 " fill="#F5F5F5" style="stroke:#181818;stroke-width:0.5;"/><text fill="#000000" font-family="sans-serif" font-size="13" font-weight="bold" lengthAdjust="spacing" textLength="146" x="53" y="524.6606">Usuario Selecciona:</text><text fill="#000000" font-family="sans-serif" font-size="13" lengthAdjust="spacing" textLength="77" x="53" y="539.7935">- simulacion</text></g><!--link 3 to 1--><g id="link_3_1"><path d="M162.048,581.7642 C186.163,569.4128 219,552.5938 219,552.5938 C219,552.5938 219,366.5938 219,366.5938 C219,366.5938 197.4397,354.1888 176.3227,342.0398 " fill="none" id="3-to-1" style="stroke:#FF0000;stroke-width:1.0;"/><polygon fill="#FF0000" points="171.122,339.0478,176.9284,347.003,175.4559,341.5411,180.9178,340.0687,171.122,339.0478" style="stroke:#FF0000;stroke-width:1.0;"/><path d="M224,447.0938 L224,472.0938 L394,472.0938 L394,457.0938 L384,447.0938 L224,447.0938 " fill="#F5F5F5" style="stroke:#181818;stroke-width:0.5;"/><path d="M384,447.0938 L384,457.0938 L394,457.0938 L384,447.0938 " fill="#F5F5F5" style="stroke:#181818;stroke-width:0.5;"/><text fill="#000000" font-family="sans-serif" font-size="13" lengthAdjust="spacing" textLength="149" x="230" y="464.1606">[Simulacion est&#225; vac&#237;a]</text></g><!--link 3 to *end*exportar_simulacion--><g id="link_3_*end*exportar_simulacion"><path d="M137,620.6311 C137,633.1829 137,641.8762 137,651.44 " fill="none" id="3-to-*end*exportar_simulacion" style="stroke:#008000;stroke-width:1.0;"/><polygon fill="#008000" points="137,657.44,141,648.44,137,652.44,133,648.44,137,657.44" style="stroke:#008000;stroke-width:1.0;"/></g><g id=":exportar_simulacion"><rect fill="#FAF4B4" height="50" rx="12.5" ry="12.5" style="stroke:#C90000;stroke-width:0.5;" width="170" x="298" y="750.2969"/><line style="stroke:#C90000;stroke-width:0.5;" x1="298" x2="468" y1="776.5938" y2="776.5938"/><text fill="#000000" font-family="sans-serif" font-size="14" lengthAdjust="spacing" textLength="150" x="308" y="768.292">:exportar_simulacion</text></g><!--link P?GINA_PROYECTO to exportar_simulacion--><g id="link_P&#193;GINA_PROYECTO_exportar_simulacion"><path d="M316.607,94.4539 C290.78,108.8319 263,124.2969 263,124.2969 C263,124.2969 257.9312,152.3912 249.6532,198.2772 " fill="none" id="P&#193;GINA_PROYECTO-to-exportar_simulacion" style="stroke:#008000;stroke-width:1.0;"/><polygon fill="#008000" points="248.588,204.1819,254.1223,196.035,249.4757,199.2613,246.2494,194.6147,248.588,204.1819" style="stroke:#008000;stroke-width:1.0;"/><path d="M268,129.2969 L268,169.2969 L425,169.2969 L425,139.2969 L415,129.2969 L268,129.2969 " fill="#F5F5F5" style="stroke:#181818;stroke-width:0.5;"/><path d="M415,129.2969 L415,139.2969 L425,139.2969 L415,129.2969 " fill="#F5F5F5" style="stroke:#181818;stroke-width:0.5;"/><text fill="#000000" font-family="sans-serif" font-size="13" font-weight="bold" lengthAdjust="spacing" textLength="122" x="274" y="146.3638">Usuario solicita:</text><text fill="#000000" font-family="sans-serif" font-size="13" lengthAdjust="spacing" textLength="136" x="274" y="161.4966">- Exportar simulacion</text></g><!--link exportar_simulacion to :exportar_simulacion--><g id="link_exportar_simulacion_:exportar_simulacion"><path d="M336.697,689.3649 C349.921,713.6212 358.6252,729.5861 366.8942,744.755 " fill="none" id="exportar_simulacion-to-:exportar_simulacion" style="stroke:#008000;stroke-width:1.0;"/><polygon fill="#008000" points="369.766,750.0231,368.9704,740.2064,367.3728,745.633,361.9463,744.0355,369.766,750.0231" style="stroke:#008000;stroke-width:1.0;"/></g><!--link :exportar_simulacion to P?GINA_PROYECTO--><g id="link_:exportar_simulacion_P&#193;GINA_PROYECTO"><path d="M393.788,750.1667 C405.022,725.037 421,689.2969 421,689.2969 C421,689.2969 434,174.2969 434,174.2969 C434,174.2969 434,124.2969 434,124.2969 C434,124.2969 417.6537,112.3687 397.9507,97.9907 " fill="none" id=":exportar_simulacion-to-P&#193;GINA_PROYECTO" style="stroke:#008000;stroke-width:1.0;"/><polygon fill="#008000" points="393.104,94.4539,398.0162,102.9903,397.1429,97.4012,402.732,96.528,393.104,94.4539" style="stroke:#008000;stroke-width:1.0;"/></g><!--SRC=[XLBBJiCm4BpxArRjBL8aIik17f0W5DGBhGWzeAggbcHRMNNjO3k82d7WK_W0Jdn2VmoxZwGfGJYHd8ntPsT6DWikCzIu16FH4hmnW2jC5dEjSfb6IYWDpHdEEayTVw9qIdg79kSdRh5tnan18jMV76V-gLOBBickCe9CYPN_OSnoAmYkoQ9mUuH6GKemSbllDLFQeeQOBtE12Lz_ImZXfXz7ZB7X-kEsVtSv7TuF7dlHmm32SNEkYUGal03QjKxDhbL9O1kfxiFDNJZ1GJ0oEMgkm2Z14swn6mGE3yl1PJSZcMwyEZURsEec-1Ysfor00mre5C3fCT0k0VUEWqb5VyjXhGfowf0Z0tu5GSoDfIM2fkUSawQj2R_28ZYd7w1m04xD8NMxZhfC9oP1YUV0FNLu64o5kEs9DQLx3xzenwKa86FNd_22oVeB9pKyXK2NZhz6TP4VbdLh2XZh_jTsV95-0000]--></g></svg>