<?xml version="1.0" encoding="us-ascii" standalone="no"?><svg xmlns="http://www.w3.org/2000/svg" xmlns:xlink="http://www.w3.org/1999/xlink" contentStyleType="text/css" height="386px" preserveAspectRatio="none" style="width:689px;height:386px;background:#FFFFFF;" version="1.1" viewBox="0 0 689 386" width="689px" zoomAndPan="magnify"><defs/><g><text fill="#000000" font-family="sans-serif" font-size="14" font-weight="bold" lengthAdjust="spacing" textLength="370" x="152.5" y="22.9951">Detalle Caso de Uso Listar Simulaciones- FISC</text><g id="ESTADO_PRINCIPAL"><rect fill="#FAF4B4" height="50" rx="12.5" ry="12.5" style="stroke:#C90000;stroke-width:0.5;" width="160" x="7" y="44.2969"/><line style="stroke:#C90000;stroke-width:0.5;" x1="7" x2="167" y1="70.5938" y2="70.5938"/><text fill="#000000" font-family="sans-serif" font-size="14" lengthAdjust="spacing" textLength="140" x="17" y="62.292">ESTADO_PRINCIPAL</text></g><g id=":listar_simulaciones"><rect fill="#FAF4B4" height="50" rx="12.5" ry="12.5" style="stroke:#C90000;stroke-width:0.5;" width="159" x="252.5" y="219.2969"/><line style="stroke:#C90000;stroke-width:0.5;" x1="252.5" x2="411.5" y1="245.5938" y2="245.5938"/><text fill="#000000" font-family="sans-serif" font-size="14" lengthAdjust="spacing" textLength="139" x="262.5" y="237.292">:listar_simulaciones</text></g><g id="CONFIGURACI&#211;N_DE_SIMUALCI&#211;N"><rect fill="#FAF4B4" height="50" rx="12.5" ry="12.5" style="stroke:#C90000;stroke-width:0.5;" width="259" x="202.5" y="44.2969"/><line style="stroke:#C90000;stroke-width:0.5;" x1="202.5" x2="461.5" y1="70.5938" y2="70.5938"/><text fill="#000000" font-family="sans-serif" font-size="14" lengthAdjust="spacing" textLength="239" x="212.5" y="62.292">CONFIGURACI&#211;N_DE_SIMUALCI&#211;N</text></g><g id="REPORTE"><rect fill="#FAF4B4" height="50" rx="12.5" ry="12.5" style="stroke:#C90000;stroke-width:0.5;" width="87" x="496.5" y="44.2969"/><line style="stroke:#C90000;stroke-width:0.5;" x1="496.5" x2="583.5" y1="70.5938" y2="70.5938"/><text fill="#000000" font-family="sans-serif" font-size="14" lengthAdjust="spacing" textLength="67" x="506.5" y="62.292">REPORTE</text></g><g id="ESTADO_PROYECTO"><rect fill="#FAF4B4" height="50" rx="12.5" ry="12.5" style="stroke:#C90000;stroke-width:0.5;" width="164" x="250" y="330.2969"/><line style="stroke:#C90000;stroke-width:0.5;" x1="250" x2="414" y1="356.5938" y2="356.5938"/><text fill="#000000" font-family="sans-serif" font-size="14" lengthAdjust="spacing" textLength="144" x="260" y="348.292">ESTADO_PROYECTO</text></g><!--link ESTADO_PRINCIPAL to :listar_simulaciones--><g id="link_ESTADO_PRINCIPAL_:listar_simulaciones"><path d="M101.5703,94.3779 C122.609,129.1509 159,189.2969 159,189.2969 C159,189.2969 202.9995,203.0311 249.1325,217.4311 " fill="none" id="ESTADO_PRINCIPAL-to-:listar_simulaciones" style="stroke:#008000;stroke-width:1.0;"/><polygon fill="#008000" points="254.86,219.2189,247.4607,212.7189,250.0871,217.7291,245.077,220.3555,254.86,219.2189" style="stroke:#008000;stroke-width:1.0;"/><path d="M164,136.7969 L164,176.7969 L319,176.7969 L319,146.7969 L309,136.7969 L164,136.7969 " fill="#F5F5F5" style="stroke:#181818;stroke-width:0.5;"/><path d="M309,136.7969 L309,146.7969 L319,146.7969 L309,136.7969 " fill="#F5F5F5" style="stroke:#181818;stroke-width:0.5;"/><text fill="#000000" font-family="sans-serif" font-size="13" font-weight="bold" lengthAdjust="spacing" textLength="134" x="170" y="153.8638">Sisteme requiere:</text><text fill="#000000" font-family="sans-serif" font-size="13" lengthAdjust="spacing" textLength="132" x="170" y="168.9966">- Listar Simulaciones</text></g><!--link CONFIGURACI?N_DE_SIMUALCI?N to :listar_simulaciones--><g id="link_CONFIGURACI&#211;N_DE_SIMUALCI&#211;N_:listar_simulaciones"><path d="M332,94.3519 C332,127.3109 332,180.1699 332,213.1679 " fill="none" id="CONFIGURACI&#211;N_DE_SIMUALCI&#211;N-to-:listar_simulaciones" style="stroke:#008000;stroke-width:1.0;"/><polygon fill="#008000" points="332,219.1679,336,210.1679,332,214.1679,328,210.1679,332,219.1679" style="stroke:#008000;stroke-width:1.0;"/><path d="M337,136.7969 L337,176.7969 L492,176.7969 L492,146.7969 L482,136.7969 L337,136.7969 " fill="#F5F5F5" style="stroke:#181818;stroke-width:0.5;"/><path d="M482,136.7969 L482,146.7969 L492,146.7969 L482,136.7969 " fill="#F5F5F5" style="stroke:#181818;stroke-width:0.5;"/><text fill="#000000" font-family="sans-serif" font-size="13" font-weight="bold" lengthAdjust="spacing" textLength="134" x="343" y="153.8638">Sisteme requiere:</text><text fill="#000000" font-family="sans-serif" font-size="13" lengthAdjust="spacing" textLength="132" x="343" y="168.9966">- Listar Simulaciones</text></g><!--link REPORTE to :listar_simulaciones--><g id="link_REPORTE_:listar_simulaciones"><path d="M532.108,94.3779 C520.712,129.1509 501,189.2969 501,189.2969 C501,189.2969 458.3153,202.9356 413.3183,217.3136 " fill="none" id="REPORTE-to-:listar_simulaciones" style="stroke:#008000;stroke-width:1.0;"/><polygon fill="#008000" points="407.603,219.1399,417.3935,220.2107,412.3658,217.618,414.9585,212.5903,407.603,219.1399" style="stroke:#008000;stroke-width:1.0;"/><path d="M527,129.2969 L527,184.2969 L682,184.2969 L682,139.2969 L672,129.2969 L527,129.2969 " fill="#F5F5F5" style="stroke:#181818;stroke-width:0.5;"/><path d="M672,129.2969 L672,139.2969 L682,139.2969 L672,129.2969 " fill="#F5F5F5" style="stroke:#181818;stroke-width:0.5;"/><text fill="#000000" font-family="sans-serif" font-size="13" font-weight="bold" lengthAdjust="spacing" textLength="134" x="533" y="146.3638">Sisteme requiere:</text><text fill="#000000" font-family="sans-serif" font-size="13" lengthAdjust="spacing" textLength="116" x="533" y="161.4966">- Guardar Reporte</text><text fill="#000000" font-family="sans-serif" font-size="13" lengthAdjust="spacing" textLength="132" x="533" y="176.6294">- Listar Simulaciones</text></g><!--link :listar_simulaciones to ESTADO_PROYECTO--><g id="link_:listar_simulaciones_ESTADO_PROYECTO"><path d="M332,269.4879 C332,287.5507 332,306.127 332,324.1739 " fill="none" id=":listar_simulaciones-to-ESTADO_PROYECTO" style="stroke:#008000;stroke-width:1.0;"/><polygon fill="#008000" points="332,330.1739,336,321.1739,332,325.1739,328,321.1739,332,330.1739" style="stroke:#008000;stroke-width:1.0;"/></g><!--SRC=[lP7DQiCm3CVlVWf1Ru703jrXFGmo9os1B0dvE8mnWfUenSInCzivbB6ds2FjnUQ4KJhes6NCEWZ9alu_8TDpEJBD1Z2MMOHN0d37slwWrIGxgeJIiDgp_VfvFVyetQ7-ohOtL-wHDqBCQOXKFywudkrxjU0IxN5469KupW4Xbbk14A9bmddAZ88EeNOkuOvGGyc7IR2MAud6XsrSKaAYiWh2hCcBEALn7YJ-u-gW4UMJVmiRiVGrvgoFB9XApW2zW_MyqXNXWA3nPUAeSUDvBkzV4YKeksLFGhDq6-_g8g3nntlQX55JnlTra2pXFp4KKPuLLVHtQhk9wSx95JWgxGH-9I2NzCvvJjV97Y9QPPy0]--></g></svg>