<?xml version="1.0" encoding="us-ascii" standalone="no"?><svg xmlns="http://www.w3.org/2000/svg" xmlns:xlink="http://www.w3.org/1999/xlink" contentStyleType="text/css" height="917px" preserveAspectRatio="none" style="width:404px;height:917px;background:#FFFFFF;" version="1.1" viewBox="0 0 404 917" width="404px" zoomAndPan="magnify"><defs/><g><text fill="#000000" font-family="sans-serif" font-size="14" font-weight="bold" lengthAdjust="spacing" textLength="362" x="11" y="22.9951">Detalle Caso de Uso Exportar Proyecto - FISC</text><g id="P&#193;GINA_PRINCIPAL"><rect fill="#FAF4B4" height="50" rx="12.5" ry="12.5" style="stroke:#C90000;stroke-width:0.5;" width="155" x="121.5" y="44.2969"/><line style="stroke:#C90000;stroke-width:0.5;" x1="121.5" x2="276.5" y1="70.5938" y2="70.5938"/><text fill="#000000" font-family="sans-serif" font-size="14" lengthAdjust="spacing" textLength="135" x="131.5" y="62.292">P&#193;GINA_PRINCIPAL</text></g><path d="M19.5,204.2969 L378.5,204.2969 A12.5,12.5 0 0 1 391,216.7969 L391,230.5938 L7,230.5938 L7,216.7969 A12.5,12.5 0 0 1 19.5,204.2969 " fill="#FAF4B4" style="stroke:#FAF4B4;stroke-width:1.0;"/><rect fill="none" height="485.2969" rx="12.5" ry="12.5" style="stroke:#C90000;stroke-width:0.5;" width="384" x="7" y="204.2969"/><line style="stroke:#C90000;stroke-width:0.5;" x1="7" x2="391" y1="230.5938" y2="230.5938"/><text fill="#000000" font-family="sans-serif" font-size="14" lengthAdjust="spacing" textLength="136" x="131" y="222.292">exportar_proyecto</text><g id="exportar_proyecto.1"><rect fill="#FAF4B4" height="50" rx="12.5" ry="12.5" style="stroke:#C90000;stroke-width:0.5;" width="50" x="121" y="298.5938"/><line style="stroke:#C90000;stroke-width:0.5;" x1="121" x2="171" y1="324.8906" y2="324.8906"/><text fill="#000000" font-family="sans-serif" font-size="14" lengthAdjust="spacing" textLength="4" x="144" y="316.5889">&#160;</text></g><g id="exportar_proyecto.2"><rect fill="#FAF4B4" height="50" rx="12.5" ry="12.5" style="stroke:#C90000;stroke-width:0.5;" width="50" x="19" y="434.5938"/><line style="stroke:#C90000;stroke-width:0.5;" x1="19" x2="69" y1="460.8906" y2="460.8906"/><text fill="#000000" font-family="sans-serif" font-size="14" lengthAdjust="spacing" textLength="4" x="42" y="452.5889">&#160;</text></g><g id="exportar_proyecto.3"><rect fill="#FAF4B4" height="50" rx="12.5" ry="12.5" style="stroke:#C90000;stroke-width:0.5;" width="50" x="112" y="570.5938"/><line style="stroke:#C90000;stroke-width:0.5;" x1="112" x2="162" y1="596.8906" y2="596.8906"/><text fill="#000000" font-family="sans-serif" font-size="14" lengthAdjust="spacing" textLength="4" x="135" y="588.5889">&#160;</text></g><ellipse cx="146" cy="251.5938" fill="#222222" rx="10" ry="10" style="stroke:#222222;stroke-width:1.0;"/><ellipse cx="137" cy="668.5938" fill="none" rx="11" ry="11" style="stroke:#222222;stroke-width:1.0;"/><ellipse cx="137" cy="668.5938" fill="#222222" rx="6" ry="6" style="stroke:#222222;stroke-width:1.0;"/><!--link *start*exportar_proyecto to 1--><g id="link_*start*exportar_proyecto_1"><path d="M146,261.7448 C146,271.0098 146,279.7348 146,292.3778 " fill="none" id="*start*exportar_proyecto-to-1" style="stroke:#008000;stroke-width:1.0;"/><polygon fill="#008000" points="146,298.3778,150,289.3778,146,293.3778,142,289.3778,146,298.3778" style="stroke:#008000;stroke-width:1.0;"/></g><!--link 1 to 2--><g id="link_1_2"><path d="M120.861,336.0708 C93.6211,348.5058 54,366.5938 54,366.5938 C54,366.5938 50.2385,401.1989 47.2757,428.4569 " fill="none" id="1-to-2" style="stroke:#008000;stroke-width:1.0;"/><polygon fill="#008000" points="46.6274,434.4218,51.5765,425.9067,47.1677,429.451,43.6233,425.0422,46.6274,434.4218" style="stroke:#008000;stroke-width:1.0;"/><path d="M59,371.5938 L59,411.5938 L214,411.5938 L214,381.5938 L204,371.5938 L59,371.5938 " fill="#F5F5F5" style="stroke:#181818;stroke-width:0.5;"/><path d="M204,371.5938 L204,381.5938 L214,381.5938 L204,371.5938 " fill="#F5F5F5" style="stroke:#181818;stroke-width:0.5;"/><text fill="#000000" font-family="sans-serif" font-size="13" font-weight="bold" lengthAdjust="spacing" textLength="134" x="65" y="388.6606">Sistema requiere:</text><text fill="#000000" font-family="sans-serif" font-size="13" lengthAdjust="spacing" textLength="66" x="65" y="403.7935">- Proyecto</text></g><!--link 2 to 3--><g id="link_2_3"><path d="M42.8366,485.0258 C42.3966,494.2648 42,502.5938 42,502.5938 C42,502.5938 42,552.5938 42,552.5938 C42,552.5938 77.914,568.4717 106.0541,580.9125 " fill="none" id="2-to-3" style="stroke:#008000;stroke-width:1.0;"/><polygon fill="#008000" points="111.5417,583.3385,104.9277,576.041,106.9687,581.3168,101.6929,583.3578,111.5417,583.3385" style="stroke:#008000;stroke-width:1.0;"/><path d="M47,507.5938 L47,547.5938 L214,547.5938 L214,517.5938 L204,507.5938 L47,507.5938 " fill="#F5F5F5" style="stroke:#181818;stroke-width:0.5;"/><path d="M204,507.5938 L204,517.5938 L214,517.5938 L204,507.5938 " fill="#F5F5F5" style="stroke:#181818;stroke-width:0.5;"/><text fill="#000000" font-family="sans-serif" font-size="13" font-weight="bold" lengthAdjust="spacing" textLength="146" x="53" y="524.6606">Usuario Selecciona:</text><text fill="#000000" font-family="sans-serif" font-size="13" lengthAdjust="spacing" textLength="66" x="53" y="539.7935">- Proyecto</text></g><!--link 3 to 1--><g id="link_3_1"><path d="M162.048,581.7642 C186.163,569.4128 219,552.5938 219,552.5938 C219,552.5938 219,366.5938 219,366.5938 C219,366.5938 197.4397,354.1888 176.3227,342.0398 " fill="none" id="3-to-1" style="stroke:#FF0000;stroke-width:1.0;"/><polygon fill="#FF0000" points="171.122,339.0478,176.9284,347.003,175.4559,341.5411,180.9178,340.0687,171.122,339.0478" style="stroke:#FF0000;stroke-width:1.0;"/><path d="M224,447.0938 L224,472.0938 L382,472.0938 L382,457.0938 L372,447.0938 L224,447.0938 " fill="#F5F5F5" style="stroke:#181818;stroke-width:0.5;"/><path d="M372,447.0938 L372,457.0938 L382,457.0938 L372,447.0938 " fill="#F5F5F5" style="stroke:#181818;stroke-width:0.5;"/><text fill="#000000" font-family="sans-serif" font-size="13" lengthAdjust="spacing" textLength="137" x="230" y="464.1606">[Proyecto est&#225; vac&#237;o]</text></g><!--link 3 to *end*exportar_proyecto--><g id="link_3_*end*exportar_proyecto"><path d="M137,620.6311 C137,633.1829 137,641.8762 137,651.44 " fill="none" id="3-to-*end*exportar_proyecto" style="stroke:#008000;stroke-width:1.0;"/><polygon fill="#008000" points="137,657.44,141,648.44,137,652.44,133,648.44,137,657.44" style="stroke:#008000;stroke-width:1.0;"/></g><g id=":exportar_proyecto"><rect fill="#FAF4B4" height="50" rx="12.5" ry="12.5" style="stroke:#C90000;stroke-width:0.5;" width="161" x="118.5" y="750.2969"/><line style="stroke:#C90000;stroke-width:0.5;" x1="118.5" x2="279.5" y1="776.5938" y2="776.5938"/><text fill="#000000" font-family="sans-serif" font-size="14" lengthAdjust="spacing" textLength="141" x="128.5" y="768.292">:exportar_proyecto</text></g><g id="PAGINA_PRINCIPAL"><rect fill="#FAF4B4" height="50" rx="12.5" ry="12.5" style="stroke:#C90000;stroke-width:0.5;" width="155" x="121.5" y="861.2969"/><line style="stroke:#C90000;stroke-width:0.5;" x1="121.5" x2="276.5" y1="887.5938" y2="887.5938"/><text fill="#000000" font-family="sans-serif" font-size="14" lengthAdjust="spacing" textLength="135" x="131.5" y="879.292">PAGINA_PRINCIPAL</text></g><!--link P?GINA_PRINCIPAL to exportar_proyecto--><g id="link_P&#193;GINA_PRINCIPAL_exportar_proyecto"><path d="M199,94.3569 C199,118.7189 199,153.1239 199,198.0359 " fill="none" id="P&#193;GINA_PRINCIPAL-to-exportar_proyecto" style="stroke:#008000;stroke-width:1.0;"/><polygon fill="#008000" points="199,204.0359,203,195.0359,199,199.0359,195,195.0359,199,204.0359" style="stroke:#008000;stroke-width:1.0;"/><path d="M204,129.2969 L204,169.2969 L350,169.2969 L350,139.2969 L340,129.2969 L204,129.2969 " fill="#F5F5F5" style="stroke:#181818;stroke-width:0.5;"/><path d="M340,129.2969 L340,139.2969 L350,139.2969 L340,129.2969 " fill="#F5F5F5" style="stroke:#181818;stroke-width:0.5;"/><text fill="#000000" font-family="sans-serif" font-size="13" font-weight="bold" lengthAdjust="spacing" textLength="122" x="210" y="146.3638">Usuario solicita:</text><text fill="#000000" font-family="sans-serif" font-size="13" lengthAdjust="spacing" textLength="125" x="210" y="161.4966">- Exportar proyecto</text></g><!--link exportar_proyecto to :exportar_proyecto--><g id="link_exportar_proyecto_:exportar_proyecto"><path d="M199,689.3649 C199,713.6209 199,728.8539 199,744.0229 " fill="none" id="exportar_proyecto-to-:exportar_proyecto" style="stroke:#008000;stroke-width:1.0;"/><polygon fill="#008000" points="199,750.0229,203,741.0229,199,745.0229,195,741.0229,199,750.0229" style="stroke:#008000;stroke-width:1.0;"/></g><!--link :exportar_proyecto to PAGINA_PRINCIPAL--><g id="link_:exportar_proyecto_PAGINA_PRINCIPAL"><path d="M199,800.4879 C199,818.5507 199,837.127 199,855.1739 " fill="none" id=":exportar_proyecto-to-PAGINA_PRINCIPAL" style="stroke:#008000;stroke-width:1.0;"/><polygon fill="#008000" points="199,861.1739,203,852.1739,199,856.1739,195,852.1739,199,861.1739" style="stroke:#008000;stroke-width:1.0;"/></g><!--SRC=[VPBDQi904CVl-nI3tWA1-j53FHHi-a6WIAXu4f7jPfJ5k9FkhgLIUkYZz07w5BvOTzL4OxIJm9B_xFpsFvCr2wbohlaIZEKMuPC1t76nc6jQgJIYZ3GqPtpMVUtw3EaKzLuLDrSks1TZfeGekiYuzazrToOLsdMEa5EszX-CMMapX7kqF7Dhn0r1YZ1ooyD7Jjfo3OccDGfB4C9ZF8mOOydc-oaUzAV9Ipo8ugJ_3E6uETU8QXBU0kuBftbHoBOsINa32sSs24PcnRKaC9H98Itl1O7JmyEXHIr3bMwxT7ri1rQd-_PtkHPm0mreb4BxLEWS1FUEWqd5USjfhOhITig9UHz1C9J6ufA3nhULH8sx1do4vS2SKBe7v-KOt3a7FinbY1aA8Kdn0dm9s_5OZMdXlmOTb_yFZTtym3iNcr-QdA6KvjnS_CMfZ_fuKw-MPgptVqdIhrwRFm00]--></g></svg>