<?xml version="1.0" encoding="us-ascii" standalone="no"?><svg xmlns="http://www.w3.org/2000/svg" xmlns:xlink="http://www.w3.org/1999/xlink" contentStyleType="text/css" height="382px" preserveAspectRatio="none" style="width:2931px;height:382px;background:#FFFFFF;" version="1.1" viewBox="0 0 2931 382" width="2931px" zoomAndPan="magnify"><defs/><g><text fill="#000000" font-family="sans-serif" font-size="14" font-weight="bold" lengthAdjust="spacing" textLength="524" x="1196.5" y="22.9951">Diagrama de Objetos - Time Guardian (Enfoque en Asignaciones)</text><g id="elem_gestorDeHorarios"><rect fill="#F1F1F1" height="44.5938" style="stroke:#181818;stroke-width:0.5;" width="232" x="1443" y="154.2749"/><text fill="#000000" font-family="sans-serif" font-size="14" lengthAdjust="spacing" textLength="179" x="1469.5" y="169.27">gestorDeHorarios : David</text><line style="stroke:#181818;stroke-width:0.5;" x1="1444" x2="1674" y1="174.5718" y2="174.5718"/><text fill="#000000" font-family="sans-serif" font-size="14" lengthAdjust="spacing" textLength="220" x="1449" y="191.5669">rol = "Gestor de Asignaciones"</text></g><g id="elem_asignatura1"><rect fill="#F1F1F1" height="44.5938" style="stroke:#181818;stroke-width:0.5;" width="194" x="7" y="154.2749"/><text fill="#000000" font-family="sans-serif" font-size="14" lengthAdjust="spacing" textLength="172" x="18" y="169.27">asignatura1 : Asignatura</text><line style="stroke:#181818;stroke-width:0.5;" x1="8" x2="200" y1="174.5718" y2="174.5718"/><text fill="#000000" font-family="sans-serif" font-size="14" lengthAdjust="spacing" textLength="182" x="13" y="191.5669">nombre = "Matem&#225;ticas"</text></g><g id="elem_asignatura2"><rect fill="#F1F1F1" height="44.5938" style="stroke:#181818;stroke-width:0.5;" width="209" x="463.5" y="154.2749"/><text fill="#000000" font-family="sans-serif" font-size="14" lengthAdjust="spacing" textLength="171" x="482.5" y="169.27">asignatura2 : Asignatura</text><line style="stroke:#181818;stroke-width:0.5;" x1="464.5" x2="671.5" y1="174.5718" y2="174.5718"/><text fill="#000000" font-family="sans-serif" font-size="14" lengthAdjust="spacing" textLength="197" x="469.5" y="191.5669">nombre = "Programaci&#243;n I"</text></g><g id="elem_docente1"><rect fill="#F1F1F1" height="44.5938" style="stroke:#181818;stroke-width:0.5;" width="194" x="708" y="154.2749"/><text fill="#000000" font-family="sans-serif" font-size="14" lengthAdjust="spacing" textLength="144" x="733" y="169.27">docente1 : Docente</text><line style="stroke:#181818;stroke-width:0.5;" x1="709" x2="901" y1="174.5718" y2="174.5718"/><text fill="#000000" font-family="sans-serif" font-size="14" lengthAdjust="spacing" textLength="182" x="714" y="191.5669">nombre = "Jorge Crespo"</text></g><g id="elem_docente2"><rect fill="#F1F1F1" height="44.5938" style="stroke:#181818;stroke-width:0.5;" width="202" x="1148" y="154.2749"/><text fill="#000000" font-family="sans-serif" font-size="14" lengthAdjust="spacing" textLength="143" x="1177.5" y="169.27">docente2 : Docente</text><line style="stroke:#181818;stroke-width:0.5;" x1="1149" x2="1349" y1="174.5718" y2="174.5718"/><text fill="#000000" font-family="sans-serif" font-size="14" lengthAdjust="spacing" textLength="190" x="1154" y="191.5669">nombre = "Manuel Masias"</text></g><g id="elem_aula1"><rect fill="#F1F1F1" height="60.8906" style="stroke:#181818;stroke-width:0.5;" width="128" x="1313" y="314.2749"/><text fill="#000000" font-family="sans-serif" font-size="14" lengthAdjust="spacing" textLength="80" x="1337" y="329.27">aula1 : Aula</text><line style="stroke:#181818;stroke-width:0.5;" x1="1314" x2="1440" y1="334.5718" y2="334.5718"/><text fill="#000000" font-family="sans-serif" font-size="14" lengthAdjust="spacing" textLength="116" x="1319" y="351.5669">numero = "-2.6"</text><text fill="#000000" font-family="sans-serif" font-size="14" lengthAdjust="spacing" textLength="107" x="1319" y="367.8637">disponible = Si</text></g><g id="elem_aula2"><rect fill="#F1F1F1" height="60.8906" style="stroke:#181818;stroke-width:0.5;" width="123" x="1679.5" y="314.2749"/><text fill="#000000" font-family="sans-serif" font-size="14" lengthAdjust="spacing" textLength="79" x="1701.5" y="329.27">aula2 : Aula</text><line style="stroke:#181818;stroke-width:0.5;" x1="1680.5" x2="1801.5" y1="334.5718" y2="334.5718"/><text fill="#000000" font-family="sans-serif" font-size="14" lengthAdjust="spacing" textLength="111" x="1685.5" y="351.5669">numero = "1.3"</text><text fill="#000000" font-family="sans-serif" font-size="14" lengthAdjust="spacing" textLength="107" x="1685.5" y="367.8637">disponible = Si</text></g><g id="elem_asignacionDocenteAsignatura"><rect fill="#F1F1F1" height="60.8906" style="stroke:#181818;stroke-width:0.5;" width="317" x="2355.5" y="146.2749"/><text fill="#000000" font-family="sans-serif" font-size="14" lengthAdjust="spacing" textLength="303" x="2362.5" y="161.27">asignacionDocenteAsignatura : Asignacion</text><line style="stroke:#181818;stroke-width:0.5;" x1="2356.5" x2="2671.5" y1="166.5718" y2="166.5718"/><text fill="#000000" font-family="sans-serif" font-size="14" lengthAdjust="spacing" textLength="193" x="2361.5" y="183.5669">docente = "Manuel Mas&#237;as"</text><text fill="#000000" font-family="sans-serif" font-size="14" lengthAdjust="spacing" textLength="214" x="2361.5" y="199.8637">asignatura = "Programaci&#243;n I"</text></g><g id="elem_asignacionAulaAsignatura"><rect fill="#F1F1F1" height="60.8906" style="stroke:#181818;stroke-width:0.5;" width="285" x="1767.5" y="146.2749"/><text fill="#000000" font-family="sans-serif" font-size="14" lengthAdjust="spacing" textLength="271" x="1774.5" y="161.27">asignacionAulaAsignatura : Asignacion</text><line style="stroke:#181818;stroke-width:0.5;" x1="1768.5" x2="2051.5" y1="166.5718" y2="166.5718"/><text fill="#000000" font-family="sans-serif" font-size="14" lengthAdjust="spacing" textLength="206" x="1773.5" y="183.5669">asignatura = "Programaci&#243;n"</text><text fill="#000000" font-family="sans-serif" font-size="14" lengthAdjust="spacing" textLength="89" x="1773.5" y="199.8637">aula = "-2.6"</text></g><g id="elem_nota1"><path d="M236,156.7749 L236,197.0405 L428,197.0405 L428,166.7749 L418,156.7749 L236,156.7749 " fill="#FEFFDD" style="stroke:#181818;stroke-width:0.5;"/><path d="M418,156.7749 L418,166.7749 L428,166.7749 L418,156.7749 " fill="#FEFFDD" style="stroke:#181818;stroke-width:1.0;"/><text fill="#000000" font-family="sans-serif" font-size="13" lengthAdjust="spacing" textLength="129" x="242" y="173.8418">Se reciben todas las</text><text fill="#000000" font-family="sans-serif" font-size="13" lengthAdjust="spacing" textLength="171" x="242" y="188.9746">asignaturas de cada grado</text></g><g id="elem_nota2"><path d="M937,156.7749 L937,197.0405 L1113,197.0405 L1113,166.7749 L1103,156.7749 L937,156.7749 " fill="#FEFFDD" style="stroke:#181818;stroke-width:0.5;"/><path d="M1103,156.7749 L1103,166.7749 L1113,166.7749 L1103,156.7749 " fill="#FEFFDD" style="stroke:#181818;stroke-width:1.0;"/><text fill="#000000" font-family="sans-serif" font-size="13" lengthAdjust="spacing" textLength="129" x="943" y="173.8418">Se reciben todos los</text><text fill="#000000" font-family="sans-serif" font-size="13" lengthAdjust="spacing" textLength="155" x="943" y="188.9746">docentes de cada grado</text></g><g id="elem_nota3"><path d="M1476,324.7749 L1476,365.0405 L1644,365.0405 L1644,334.7749 L1634,324.7749 L1476,324.7749 " fill="#FEFFDD" style="stroke:#181818;stroke-width:0.5;"/><path d="M1634,324.7749 L1634,334.7749 L1644,334.7749 L1634,324.7749 " fill="#FEFFDD" style="stroke:#181818;stroke-width:1.0;"/><text fill="#000000" font-family="sans-serif" font-size="13" lengthAdjust="spacing" textLength="110" x="1482" y="341.8418">Verifica todas las</text><text fill="#000000" font-family="sans-serif" font-size="13" lengthAdjust="spacing" textLength="147" x="1482" y="356.9746">aulas de la universidad</text></g><g id="elem_nota4"><path d="M2088,156.7749 L2088,172.7749 L2052.69,176.7749 L2088,180.7749 L2088,197.0405 A0,0 0 0 0 2088,197.0405 L2320,197.0405 A0,0 0 0 0 2320,197.0405 L2320,166.7749 L2310,156.7749 L2088,156.7749 A0,0 0 0 0 2088,156.7749 " fill="#FEFFDD" style="stroke:#181818;stroke-width:0.5;"/><path d="M2310,156.7749 L2310,166.7749 L2320,166.7749 L2310,156.7749 " fill="#FEFFDD" style="stroke:#181818;stroke-width:0.5;"/><text fill="#000000" font-family="sans-serif" font-size="13" lengthAdjust="spacing" textLength="211" x="2094" y="173.8418">Se asignan todas las asignaturas</text><text fill="#000000" font-family="sans-serif" font-size="13" lengthAdjust="spacing" textLength="68" x="2094" y="188.9746">a las aulas</text></g><g id="elem_nota5"><path d="M2708,156.7749 L2708,172.7749 L2672.67,176.7749 L2708,180.7749 L2708,197.0405 A0,0 0 0 0 2708,197.0405 L2924,197.0405 A0,0 0 0 0 2924,197.0405 L2924,166.7749 L2914,156.7749 L2708,156.7749 A0,0 0 0 0 2708,156.7749 " fill="#FEFFDD" style="stroke:#181818;stroke-width:0.5;"/><path d="M2914,156.7749 L2914,166.7749 L2924,166.7749 L2914,156.7749 " fill="#FEFFDD" style="stroke:#181818;stroke-width:0.5;"/><text fill="#000000" font-family="sans-serif" font-size="13" lengthAdjust="spacing" textLength="195" x="2714" y="173.8418">Se asignan todos los docentes</text><text fill="#000000" font-family="sans-serif" font-size="13" lengthAdjust="spacing" textLength="109" x="2714" y="188.9746">a las asignaturas</text></g><!--link asignatura1 to gestorDeHorarios--><g id="link_asignatura1_gestorDeHorarios"><path codeLine="30" d="M179.575,154.2689 C192.308,151.1379 205.461,148.3029 218,146.2749 C684.765,70.7869 807.378,97.2809 1280,83.2749 C1305.77,82.5109 1312.74,78.1509 1338,83.2749 C1404.55,96.7739 1470.6608,128.1562 1513.7508,151.2332 " fill="none" id="asignatura1-to-gestorDeHorarios" style="stroke:#181818;stroke-width:1.0;"/><polygon fill="#181818" points="1519.04,154.0659,1512.9946,146.2907,1514.6323,151.7053,1509.2177,153.343,1519.04,154.0659" style="stroke:#181818;stroke-width:1.0;"/><polygon fill="#000000" points="1291,77.8299,1281.9482,74.9116,1281.9616,80.7894,1291,77.8299" style="stroke:#000000;stroke-width:1.0;"/><text fill="#000000" font-family="sans-serif" font-size="13" lengthAdjust="spacing" textLength="43" x="1294" y="82.3418">Recibe</text><text fill="#000000" font-family="sans-serif" font-size="13" lengthAdjust="spacing" textLength="4" x="1307" y="97.4746">&#160;</text><text fill="#000000" font-family="sans-serif" font-size="13" lengthAdjust="spacing" textLength="4" x="1307" y="112.6074">&#160;</text></g><!--link asignatura2 to gestorDeHorarios--><g id="link_asignatura2_gestorDeHorarios"><path codeLine="31" d="M611.215,154.2639 C658.177,131.1709 736.145,96.7769 808,83.2749 C927.686,60.7839 1261.9379,118.7592 1440.4979,153.0852 " fill="none" id="asignatura2-to-gestorDeHorarios" style="stroke:#181818;stroke-width:1.0;"/><polygon fill="#181818" points="1446.39,154.2179,1438.307,148.5908,1441.4799,153.274,1436.7967,156.4469,1446.39,154.2179" style="stroke:#181818;stroke-width:1.0;"/><polygon fill="#000000" points="819,77.8342,809.9507,74.9081,809.9591,80.786,819,77.8342" style="stroke:#000000;stroke-width:1.0;"/><text fill="#000000" font-family="sans-serif" font-size="13" lengthAdjust="spacing" textLength="43" x="822" y="82.3418">Recibe</text><text fill="#000000" font-family="sans-serif" font-size="13" lengthAdjust="spacing" textLength="4" x="835" y="97.4746">&#160;</text><text fill="#000000" font-family="sans-serif" font-size="13" lengthAdjust="spacing" textLength="4" x="835" y="112.6074">&#160;</text></g><!--link docente1 to gestorDeHorarios--><g id="link_docente1_gestorDeHorarios"><path codeLine="32" d="M841.251,154.0849 C880.412,131.0229 945.484,96.8219 1007,83.2749 C1188.54,43.2969 1401.3276,113.0355 1500.1876,151.9845 " fill="none" id="docente1-to-gestorDeHorarios" style="stroke:#181818;stroke-width:1.0;"/><polygon fill="#181818" points="1505.77,154.1839,1498.8627,147.1633,1501.118,152.3511,1495.9302,154.6064,1505.77,154.1839" style="stroke:#181818;stroke-width:1.0;"/><polygon fill="#000000" points="1018,77.8253,1008.9456,74.9153,1008.9643,80.7931,1018,77.8253" style="stroke:#000000;stroke-width:1.0;"/><text fill="#000000" font-family="sans-serif" font-size="13" lengthAdjust="spacing" textLength="43" x="1021" y="82.3418">Recibe</text><text fill="#000000" font-family="sans-serif" font-size="13" lengthAdjust="spacing" textLength="4" x="1034" y="97.4746">&#160;</text><text fill="#000000" font-family="sans-serif" font-size="13" lengthAdjust="spacing" textLength="4" x="1034" y="112.6074">&#160;</text></g><!--link docente2 to gestorDeHorarios--><g id="link_docente2_gestorDeHorarios"><path codeLine="33" d="M1350.08,176.7749 C1379.76,176.7749 1406.46,176.7749 1437,176.7749 " fill="none" id="docente2-to-gestorDeHorarios" style="stroke:#181818;stroke-width:1.0;"/><polygon fill="#181818" points="1443,176.7749,1434,172.7749,1438,176.7749,1434,180.7749,1443,176.7749" style="stroke:#181818;stroke-width:1.0;"/><polygon fill="#000000" points="1378.5,135.3413,1369.4549,132.4024,1369.4549,138.2802,1378.5,135.3413" style="stroke:#000000;stroke-width:1.0;"/><text fill="#000000" font-family="sans-serif" font-size="13" lengthAdjust="spacing" textLength="43" x="1381.5" y="139.8418">Recibe</text><text fill="#000000" font-family="sans-serif" font-size="13" lengthAdjust="spacing" textLength="4" x="1394.5" y="154.9746">&#160;</text><text fill="#000000" font-family="sans-serif" font-size="13" lengthAdjust="spacing" textLength="4" x="1394.5" y="170.1074">&#160;</text></g><!--link gestorDeHorarios to aula1--><g id="link_gestorDeHorarios_aula1"><path codeLine="35" d="M1535.21,199.4769 C1503.02,228.8299 1449.9328,277.249 1413.8328,310.1794 " fill="none" id="gestorDeHorarios-to-aula1" style="stroke:#181818;stroke-width:1.0;"/><polygon fill="#181818" points="1409.4,314.223,1418.7449,311.1128,1413.094,310.8533,1413.3534,305.2024,1409.4,314.223" style="stroke:#181818;stroke-width:1.0;"/><polygon fill="#000000" points="1492.3058,249.2106,1500.9692,245.2868,1497.0083,240.944,1492.3058,249.2106" style="stroke:#000000;stroke-width:1.0;"/><text fill="#000000" font-family="sans-serif" font-size="13" lengthAdjust="spacing" textLength="48" x="1504" y="250.3418">Verifica</text><text fill="#000000" font-family="sans-serif" font-size="13" lengthAdjust="spacing" textLength="4" x="1519.5" y="265.4746">&#160;</text><text fill="#000000" font-family="sans-serif" font-size="13" lengthAdjust="spacing" textLength="4" x="1519.5" y="280.6074">&#160;</text></g><!--link gestorDeHorarios to aula2--><g id="link_gestorDeHorarios_aula2"><path codeLine="36" d="M1582.79,199.4769 C1614.98,228.8299 1668.0672,277.249 1704.1672,310.1794 " fill="none" id="gestorDeHorarios-to-aula2" style="stroke:#181818;stroke-width:1.0;"/><polygon fill="#181818" points="1708.6,314.223,1704.6466,305.2024,1704.906,310.8533,1699.2551,311.1128,1708.6,314.223" style="stroke:#181818;stroke-width:1.0;"/><polygon fill="#000000" points="1681.6942,249.2106,1676.9917,240.944,1673.0308,245.2868,1681.6942,249.2106" style="stroke:#000000;stroke-width:1.0;"/><text fill="#000000" font-family="sans-serif" font-size="13" lengthAdjust="spacing" textLength="48" x="1686" y="250.3418">Verifica</text><text fill="#000000" font-family="sans-serif" font-size="13" lengthAdjust="spacing" textLength="4" x="1701.5" y="265.4746">&#160;</text><text fill="#000000" font-family="sans-serif" font-size="13" lengthAdjust="spacing" textLength="4" x="1701.5" y="280.6074">&#160;</text></g><!--link gestorDeHorarios to asignacionDocenteAsignatura--><g id="link_gestorDeHorarios_asignacionDocenteAsignatura"><path codeLine="42" d="M1637.64,154.2029 C1722.68,131.0599 1862.64,96.6229 1986,83.2749 C2142.88,66.2999 2317.766,110.9626 2421.906,144.3196 " fill="none" id="gestorDeHorarios-to-asignacionDocenteAsignatura" style="stroke:#181818;stroke-width:1.0;"/><polygon fill="#181818" points="2427.62,146.1499,2420.2691,139.5951,2422.8583,144.6247,2417.8288,147.2138,2427.62,146.1499" style="stroke:#181818;stroke-width:1.0;"/><polygon fill="#000000" points="1996.9996,77.7783,1987.9182,74.9536,1987.9923,80.8309,1996.9996,77.7783" style="stroke:#000000;stroke-width:1.0;"/><text fill="#000000" font-family="sans-serif" font-size="13" lengthAdjust="spacing" textLength="43" x="2000" y="82.3418">Asigna</text><text fill="#000000" font-family="sans-serif" font-size="13" lengthAdjust="spacing" textLength="4" x="2013" y="97.4746">&#160;</text><text fill="#000000" font-family="sans-serif" font-size="13" lengthAdjust="spacing" textLength="4" x="2013" y="112.6074">&#160;</text></g><!--link gestorDeHorarios to asignacionAulaAsignatura--><g id="link_gestorDeHorarios_asignacionAulaAsignatura"><path codeLine="48" d="M1675.39,176.7749 C1704.82,176.7749 1730.77,176.7749 1761.34,176.7749 " fill="none" id="gestorDeHorarios-to-asignacionAulaAsignatura" style="stroke:#181818;stroke-width:1.0;"/><polygon fill="#181818" points="1767.34,176.7749,1758.34,172.7749,1762.34,176.7749,1758.34,180.7749,1767.34,176.7749" style="stroke:#181818;stroke-width:1.0;"/><polygon fill="#000000" points="1703.25,135.3413,1694.2049,132.4024,1694.2049,138.2802,1703.25,135.3413" style="stroke:#000000;stroke-width:1.0;"/><text fill="#000000" font-family="sans-serif" font-size="13" lengthAdjust="spacing" textLength="43" x="1706.25" y="139.8418">Asigna</text><text fill="#000000" font-family="sans-serif" font-size="13" lengthAdjust="spacing" textLength="4" x="1719.25" y="154.9746">&#160;</text><text fill="#000000" font-family="sans-serif" font-size="13" lengthAdjust="spacing" textLength="4" x="1719.25" y="170.1074">&#160;</text></g><!--link asignatura1 to nota1--><g id="link_asignatura1_nota1"><path codeLine="51" d="M201.078,176.7749 C212.67,176.7749 224.262,176.7749 235.854,176.7749 " fill="none" id="asignatura1-nota1" style="stroke:#181818;stroke-width:1.0;stroke-dasharray:7.0,7.0;"/></g><!--link nota1 to asignatura2--><g id="link_nota1_asignatura2"><path codeLine="52" d="M428.336,176.7749 C439.975,176.7749 451.613,176.7749 463.252,176.7749 " fill="none" id="nota1-asignatura2" style="stroke:#181818;stroke-width:1.0;stroke-dasharray:7.0,7.0;"/></g><!--link docente1 to nota2--><g id="link_docente1_nota2"><path codeLine="55" d="M902.109,176.7749 C913.63,176.7749 925.151,176.7749 936.672,176.7749 " fill="none" id="docente1-nota2" style="stroke:#181818;stroke-width:1.0;stroke-dasharray:7.0,7.0;"/></g><!--link nota2 to docente2--><g id="link_nota2_docente2"><path codeLine="56" d="M1113.38,176.7749 C1124.85,176.7749 1136.33,176.7749 1147.81,176.7749 " fill="none" id="nota2-docente2" style="stroke:#181818;stroke-width:1.0;stroke-dasharray:7.0,7.0;"/></g><!--link aula1 to nota3--><g id="link_aula1_nota3"><path codeLine="59" d="M1441.34,344.7749 C1452.77,344.7749 1464.2,344.7749 1475.64,344.7749 " fill="none" id="aula1-nota3" style="stroke:#181818;stroke-width:1.0;stroke-dasharray:7.0,7.0;"/></g><!--link nota3 to aula2--><g id="link_nota3_aula2"><path codeLine="60" d="M1644.14,344.7749 C1655.87,344.7749 1667.6,344.7749 1679.33,344.7749 " fill="none" id="nota3-aula2" style="stroke:#181818;stroke-width:1.0;stroke-dasharray:7.0,7.0;"/></g><!--SRC=[bLJBRXCn5DtFLrnv1Oj4YjEoGA9IHQeMf0f44QjidF5jP3HZWyVJJSN7y06i-8Jy6DVsF9nvf25I7hRlFUUUupDnoXK86oNsLfG29CAdtNTqfe85V5Kbmcqjh5H2mwiR_MX-rWYeuRfIUoroPJHMhxFCK4lkWEsnSiPkyCvOOHLXl8MDU5AIWQXWTFYS0RsiAU0TiDjmwlbJR9Rzwj55E72r5Ii2lkvM0JqzZC3Qb3kB7ljUE2mFlvtAHK0S0_9JW7m4-DcQO5Uk3dyrV3YQKfeSjKC_uYR-373TzX3hex5xXFSMgnyc7QvfuDCuV4Aahh60UvfR37ohY-WOVKTfOQC1g4kqnWCi-F8D2tjIqInQxGeF_A1InwYJ3w7u26grNCyXPUb5BUpY2YP2mxvWhdO8LrkzrInBh-BCbixk_wi_6pyRbImaDRPMiszerIFbhQsVB-TJvOE8-eUX2K6VqYwo_ZI9x7HnlA96vd5U3dzyOFnnR_HCoiSol5sdXsHnTKAQJzDvkWQLpozDtSYYhZxXBwiOpJEKe0rvo1uGR0Y51cSapLdGUwlxSIh_TvOBAO0caYPeeLQnEde8bdRPx8RFi4uIFyr6GnUcskhcGkUOUFyWj3GyqF2mRbFVSdGnxFIGdBg8GiZ3Mgidj9MIGdOKwoo6liLV1_nrbE7pdGY8ibAx4hE8AcvvmWx-8fkzbvRnOfeXMjHgxE5xnexaCZiLuPRdyXy0]--></g></svg>