<?xml version="1.0" encoding="us-ascii" standalone="no"?><svg xmlns="http://www.w3.org/2000/svg" xmlns:xlink="http://www.w3.org/1999/xlink" contentStyleType="text/css" height="274px" preserveAspectRatio="none" style="width:2360px;height:274px;background:#FFFFFF;" version="1.1" viewBox="0 0 2360 274" width="2360px" zoomAndPan="magnify"><defs/><g><g id="elem_gestorDeHorarios"><rect fill="#F1F1F1" height="44.5938" style="stroke:#181818;stroke-width:0.5;" width="193" x="289" y="215"/><text fill="#000000" font-family="sans-serif" font-size="14" lengthAdjust="spacing" textLength="179" x="296" y="229.9951">gestorDeHorarios : David</text><line style="stroke:#181818;stroke-width:0.5;" x1="290" x2="481" y1="235.2969" y2="235.2969"/><text fill="#000000" font-family="sans-serif" font-size="14" lengthAdjust="spacing" textLength="147" x="295" y="252.292">rol = "Crear Horario"</text></g><g id="elem_asignatura1"><rect fill="#F1F1F1" height="44.5938" style="stroke:#181818;stroke-width:0.5;" width="194" x="485.5" y="31"/><text fill="#000000" font-family="sans-serif" font-size="14" lengthAdjust="spacing" textLength="172" x="496.5" y="45.9951">asignatura1 : Asignatura</text><line style="stroke:#181818;stroke-width:0.5;" x1="486.5" x2="678.5" y1="51.2969" y2="51.2969"/><text fill="#000000" font-family="sans-serif" font-size="14" lengthAdjust="spacing" textLength="182" x="491.5" y="68.292">nombre = "Matem&#225;ticas"</text></g><g id="elem_asignatura2"><rect fill="#F1F1F1" height="44.5938" style="stroke:#181818;stroke-width:0.5;" width="209" x="942" y="31"/><text fill="#000000" font-family="sans-serif" font-size="14" lengthAdjust="spacing" textLength="171" x="961" y="45.9951">asignatura2 : Asignatura</text><line style="stroke:#181818;stroke-width:0.5;" x1="943" x2="1150" y1="51.2969" y2="51.2969"/><text fill="#000000" font-family="sans-serif" font-size="14" lengthAdjust="spacing" textLength="197" x="948" y="68.292">nombre = "Programaci&#243;n I"</text></g><g id="elem_docente1"><rect fill="#F1F1F1" height="44.5938" style="stroke:#181818;stroke-width:0.5;" width="194" x="1186.5" y="31"/><text fill="#000000" font-family="sans-serif" font-size="14" lengthAdjust="spacing" textLength="144" x="1211.5" y="45.9951">docente1 : Docente</text><line style="stroke:#181818;stroke-width:0.5;" x1="1187.5" x2="1379.5" y1="51.2969" y2="51.2969"/><text fill="#000000" font-family="sans-serif" font-size="14" lengthAdjust="spacing" textLength="182" x="1192.5" y="68.292">nombre = "Jorge Crespo"</text></g><g id="elem_docente2"><rect fill="#F1F1F1" height="44.5938" style="stroke:#181818;stroke-width:0.5;" width="202" x="1626.5" y="31"/><text fill="#000000" font-family="sans-serif" font-size="14" lengthAdjust="spacing" textLength="143" x="1656" y="45.9951">docente2 : Docente</text><line style="stroke:#181818;stroke-width:0.5;" x1="1627.5" x2="1827.5" y1="51.2969" y2="51.2969"/><text fill="#000000" font-family="sans-serif" font-size="14" lengthAdjust="spacing" textLength="190" x="1632.5" y="68.292">nombre = "Manuel Masias"</text></g><g id="elem_aula1"><rect fill="#F1F1F1" height="60.8906" style="stroke:#181818;stroke-width:0.5;" width="128" x="1863.5" y="23"/><text fill="#000000" font-family="sans-serif" font-size="14" lengthAdjust="spacing" textLength="80" x="1887.5" y="37.9951">aula1 : Aula</text><line style="stroke:#181818;stroke-width:0.5;" x1="1864.5" x2="1990.5" y1="43.2969" y2="43.2969"/><text fill="#000000" font-family="sans-serif" font-size="14" lengthAdjust="spacing" textLength="116" x="1869.5" y="60.292">numero = "-2.6"</text><text fill="#000000" font-family="sans-serif" font-size="14" lengthAdjust="spacing" textLength="107" x="1869.5" y="76.5889">disponible = Si</text></g><g id="elem_aula2"><rect fill="#F1F1F1" height="60.8906" style="stroke:#181818;stroke-width:0.5;" width="123" x="2230" y="23"/><text fill="#000000" font-family="sans-serif" font-size="14" lengthAdjust="spacing" textLength="79" x="2252" y="37.9951">aula2 : Aula</text><line style="stroke:#181818;stroke-width:0.5;" x1="2231" x2="2352" y1="43.2969" y2="43.2969"/><text fill="#000000" font-family="sans-serif" font-size="14" lengthAdjust="spacing" textLength="111" x="2236" y="60.292">numero = "1.3"</text><text fill="#000000" font-family="sans-serif" font-size="14" lengthAdjust="spacing" textLength="107" x="2236" y="76.5889">disponible = Si</text></g><g id="elem_asignacionDocenteAsignatura"><rect fill="#F1F1F1" height="60.8906" style="stroke:#181818;stroke-width:0.5;" width="317" x="1163" y="207"/><text fill="#000000" font-family="sans-serif" font-size="14" lengthAdjust="spacing" textLength="303" x="1170" y="221.9951">asignacionDocenteAsignatura : Asignacion</text><line style="stroke:#181818;stroke-width:0.5;" x1="1164" x2="1479" y1="227.2969" y2="227.2969"/><text fill="#000000" font-family="sans-serif" font-size="14" lengthAdjust="spacing" textLength="93" x="1169" y="244.292">docente = ""</text><text fill="#000000" font-family="sans-serif" font-size="14" lengthAdjust="spacing" textLength="107" x="1169" y="260.5889">asignatura = ""</text></g><g id="elem_asignacionAulaAsignatura"><rect fill="#F1F1F1" height="60.8906" style="stroke:#181818;stroke-width:0.5;" width="285" x="575" y="207"/><text fill="#000000" font-family="sans-serif" font-size="14" lengthAdjust="spacing" textLength="271" x="582" y="221.9951">asignacionAulaAsignatura : Asignacion</text><line style="stroke:#181818;stroke-width:0.5;" x1="576" x2="859" y1="227.2969" y2="227.2969"/><text fill="#000000" font-family="sans-serif" font-size="14" lengthAdjust="spacing" textLength="107" x="581" y="244.292">asignatura = ""</text><text fill="#000000" font-family="sans-serif" font-size="14" lengthAdjust="spacing" textLength="61" x="581" y="260.5889">aula = ""</text></g><g id="elem_horario"><rect fill="#F1F1F1" height="93.4844" style="stroke:#181818;stroke-width:0.5;" width="130" x="320.5" y="7"/><text fill="#000000" font-family="sans-serif" font-size="14" lengthAdjust="spacing" textLength="116" x="327.5" y="21.9951">horario : Horario</text><line style="stroke:#181818;stroke-width:0.5;" x1="321.5" x2="449.5" y1="27.2969" y2="27.2969"/><text fill="#000000" font-family="sans-serif" font-size="14" lengthAdjust="spacing" textLength="54" x="326.5" y="44.292">dia = ""</text><text fill="#000000" font-family="sans-serif" font-size="14" lengthAdjust="spacing" textLength="103" x="326.5" y="60.5889">horaInicio = ""</text><text fill="#000000" font-family="sans-serif" font-size="14" lengthAdjust="spacing" textLength="86" x="326.5" y="76.8857">horaFin = ""</text><text fill="#000000" font-family="sans-serif" font-size="14" lengthAdjust="spacing" textLength="107" x="326.5" y="93.1826">asignatura = ""</text></g><g id="elem_nota1"><path d="M714.5,33.5 L714.5,73.7656 L906.5,73.7656 L906.5,43.5 L896.5,33.5 L714.5,33.5 " fill="#FEFFDD" style="stroke:#181818;stroke-width:0.5;"/><path d="M896.5,33.5 L896.5,43.5 L906.5,43.5 L896.5,33.5 " fill="#FEFFDD" style="stroke:#181818;stroke-width:1.0;"/><text fill="#000000" font-family="sans-serif" font-size="13" lengthAdjust="spacing" textLength="129" x="720.5" y="50.5669">Se reciben todas las</text><text fill="#000000" font-family="sans-serif" font-size="13" lengthAdjust="spacing" textLength="171" x="720.5" y="65.6997">asignaturas de cada grado</text></g><g id="elem_nota2"><path d="M1415.5,33.5 L1415.5,73.7656 L1591.5,73.7656 L1591.5,43.5 L1581.5,33.5 L1415.5,33.5 " fill="#FEFFDD" style="stroke:#181818;stroke-width:0.5;"/><path d="M1581.5,33.5 L1581.5,43.5 L1591.5,43.5 L1581.5,33.5 " fill="#FEFFDD" style="stroke:#181818;stroke-width:1.0;"/><text fill="#000000" font-family="sans-serif" font-size="13" lengthAdjust="spacing" textLength="129" x="1421.5" y="50.5669">Se reciben todos los</text><text fill="#000000" font-family="sans-serif" font-size="13" lengthAdjust="spacing" textLength="155" x="1421.5" y="65.6997">docentes de cada grado</text></g><g id="elem_nota3"><path d="M2026.5,33.5 L2026.5,73.7656 L2194.5,73.7656 L2194.5,43.5 L2184.5,33.5 L2026.5,33.5 " fill="#FEFFDD" style="stroke:#181818;stroke-width:0.5;"/><path d="M2184.5,33.5 L2184.5,43.5 L2194.5,43.5 L2184.5,33.5 " fill="#FEFFDD" style="stroke:#181818;stroke-width:1.0;"/><text fill="#000000" font-family="sans-serif" font-size="13" lengthAdjust="spacing" textLength="110" x="2032.5" y="50.5669">Verifica todas las</text><text fill="#000000" font-family="sans-serif" font-size="13" lengthAdjust="spacing" textLength="147" x="2032.5" y="65.6997">aulas de la universidad</text></g><g id="elem_nota4"><path d="M895.5,217.5 L895.5,233.5 L860.193,237.5 L895.5,241.5 L895.5,257.7656 A0,0 0 0 0 895.5,257.7656 L1127.5,257.7656 A0,0 0 0 0 1127.5,257.7656 L1127.5,227.5 L1117.5,217.5 L895.5,217.5 A0,0 0 0 0 895.5,217.5 " fill="#FEFFDD" style="stroke:#181818;stroke-width:0.5;"/><path d="M1117.5,217.5 L1117.5,227.5 L1127.5,227.5 L1117.5,217.5 " fill="#FEFFDD" style="stroke:#181818;stroke-width:0.5;"/><text fill="#000000" font-family="sans-serif" font-size="13" lengthAdjust="spacing" textLength="211" x="901.5" y="234.5669">Se asignan todas las asignaturas</text><text fill="#000000" font-family="sans-serif" font-size="13" lengthAdjust="spacing" textLength="68" x="901.5" y="249.6997">a las aulas</text></g><g id="elem_nota5"><path d="M1515.5,217.5 L1515.5,233.5 L1480.17,237.5 L1515.5,241.5 L1515.5,257.7656 A0,0 0 0 0 1515.5,257.7656 L1731.5,257.7656 A0,0 0 0 0 1731.5,257.7656 L1731.5,227.5 L1721.5,217.5 L1515.5,217.5 A0,0 0 0 0 1515.5,217.5 " fill="#FEFFDD" style="stroke:#181818;stroke-width:0.5;"/><path d="M1721.5,217.5 L1721.5,227.5 L1731.5,227.5 L1721.5,217.5 " fill="#FEFFDD" style="stroke:#181818;stroke-width:0.5;"/><text fill="#000000" font-family="sans-serif" font-size="13" lengthAdjust="spacing" textLength="195" x="1521.5" y="234.5669">Se asignan todos los docentes</text><text fill="#000000" font-family="sans-serif" font-size="13" lengthAdjust="spacing" textLength="109" x="1521.5" y="249.6997">a las asignaturas</text></g><g id="elem_note6"><path d="M6,33.5 L6,73.7656 A0,0 0 0 0 6,73.7656 L285,73.7656 A0,0 0 0 0 285,73.7656 L285,57.5 L320.454,53.5 L285,49.5 L285,43.5 L275,33.5 L6,33.5 A0,0 0 0 0 6,33.5 " fill="#FEFFDD" style="stroke:#181818;stroke-width:0.5;"/><path d="M275,33.5 L275,43.5 L285,43.5 L275,33.5 " fill="#FEFFDD" style="stroke:#181818;stroke-width:0.5;"/><text fill="#000000" font-family="sans-serif" font-size="13" lengthAdjust="spacing" textLength="182" x="12" y="50.5669">Se elige el d&#237;a y las horas en</text><text fill="#000000" font-family="sans-serif" font-size="13" lengthAdjust="spacing" textLength="258" x="12" y="65.6997">en las que se va a impartir la asignatura</text></g><!--link gestorDeHorarios to asignacionDocenteAsignatura--><g id="link_gestorDeHorarios_asignacionDocenteAsignatura"><path codeLine="32" d="M460.567,214.9308 C541.758,191.7898 675.438,157.355 793.5,144 C950.755,126.212 1126.281,171.4343 1230.301,205.0658 " fill="none" id="gestorDeHorarios-to-asignacionDocenteAsignatura" style="stroke:#181818;stroke-width:1.0;"/><polygon fill="#181818" points="1236.01,206.9116,1228.677,200.3368,1231.2525,205.3734,1226.2159,207.9489,1236.01,206.9116" style="stroke:#181818;stroke-width:1.0;"/><polygon fill="#000000" points="804.4996,138.5023,795.4176,135.6796,795.4929,141.5569,804.4996,138.5023" style="stroke:#000000;stroke-width:1.0;"/><text fill="#000000" font-family="sans-serif" font-size="13" lengthAdjust="spacing" textLength="43" x="807.5" y="143.0669">Asigna</text><text fill="#000000" font-family="sans-serif" font-size="13" lengthAdjust="spacing" textLength="4" x="820.5" y="158.1997">&#160;</text><text fill="#000000" font-family="sans-serif" font-size="13" lengthAdjust="spacing" textLength="4" x="820.5" y="173.3325">&#160;</text></g><!--link gestorDeHorarios to asignacionAulaAsignatura--><g id="link_gestorDeHorarios_asignacionAulaAsignatura"><path codeLine="38" d="M482.421,237.5 C511.321,237.5 537.622,237.5 568.804,237.5 " fill="none" id="gestorDeHorarios-to-asignacionAulaAsignatura" style="stroke:#181818;stroke-width:1.0;"/><polygon fill="#181818" points="574.804,237.5,565.804,233.5,569.804,237.5,565.804,241.5,574.804,237.5" style="stroke:#181818;stroke-width:1.0;"/><polygon fill="#000000" points="510.5,196.0664,501.4549,193.1275,501.4549,199.0053,510.5,196.0664" style="stroke:#000000;stroke-width:1.0;"/><text fill="#000000" font-family="sans-serif" font-size="13" lengthAdjust="spacing" textLength="43" x="513.5" y="200.5669">Asigna</text><text fill="#000000" font-family="sans-serif" font-size="13" lengthAdjust="spacing" textLength="4" x="526.5" y="215.6997">&#160;</text><text fill="#000000" font-family="sans-serif" font-size="13" lengthAdjust="spacing" textLength="4" x="526.5" y="230.8325">&#160;</text></g><!--link asignatura1 to nota1--><g id="link_asignatura1_nota1"><path codeLine="48" d="M679.578,53.5 C691.17,53.5 702.762,53.5 714.354,53.5 " fill="none" id="asignatura1-nota1" style="stroke:#181818;stroke-width:1.0;stroke-dasharray:7.0,7.0;"/></g><!--link nota1 to asignatura2--><g id="link_nota1_asignatura2"><path codeLine="49" d="M906.836,53.5 C918.475,53.5 930.113,53.5 941.752,53.5 " fill="none" id="nota1-asignatura2" style="stroke:#181818;stroke-width:1.0;stroke-dasharray:7.0,7.0;"/></g><!--link docente1 to nota2--><g id="link_docente1_nota2"><path codeLine="52" d="M1380.61,53.5 C1392.13,53.5 1403.65,53.5 1415.17,53.5 " fill="none" id="docente1-nota2" style="stroke:#181818;stroke-width:1.0;stroke-dasharray:7.0,7.0;"/></g><!--link nota2 to docente2--><g id="link_nota2_docente2"><path codeLine="53" d="M1591.88,53.5 C1603.35,53.5 1614.83,53.5 1626.31,53.5 " fill="none" id="nota2-docente2" style="stroke:#181818;stroke-width:1.0;stroke-dasharray:7.0,7.0;"/></g><!--link aula1 to nota3--><g id="link_aula1_nota3"><path codeLine="56" d="M1991.84,53.5 C2003.27,53.5 2014.7,53.5 2026.14,53.5 " fill="none" id="aula1-nota3" style="stroke:#181818;stroke-width:1.0;stroke-dasharray:7.0,7.0;"/></g><!--link nota3 to aula2--><g id="link_nota3_aula2"><path codeLine="57" d="M2194.64,53.5 C2206.37,53.5 2218.1,53.5 2229.83,53.5 " fill="none" id="nota3-aula2" style="stroke:#181818;stroke-width:1.0;stroke-dasharray:7.0,7.0;"/></g><!--reverse link horario to gestorDeHorarios--><g id="link_horario_gestorDeHorarios"><path codeLine="68" d="M385.5,106.426 C385.5,143.072 385.5,186.7653 385.5,214.84 " fill="none" id="horario-backto-gestorDeHorarios" style="stroke:#181818;stroke-width:1.0;"/><polygon fill="#181818" points="385.5,100.426,381.5,109.426,385.5,105.426,389.5,109.426,385.5,100.426" style="stroke:#181818;stroke-width:1.0;"/><polygon fill="#000000" points="390.5,148.5664,387.5611,157.6115,393.4389,157.6115,390.5,148.5664" style="stroke:#000000;stroke-width:1.0;"/><text fill="#000000" font-family="sans-serif" font-size="13" lengthAdjust="spacing" textLength="30" x="399.5" y="158.0669">Crea</text></g><!--SRC=[ZLNDYjim4BxhAGRV4uYocqEXWT9GkeM5ma9FkKpigQjYIrlP3fHb7wOFq5CV8I_MqOzj9NR21Y978-dx6Squvl2JyXQoafhMs1rzDXQjCWsyWnqULP41DZ1PV1707sigU0_PHqje8QvbubK84q6nKQN6jhEuOhmFmyo3fei1JvlwOCb1Fc9BzUbFgt9i7E8KKDu2b1F0hzQK5clCrUcVXeSpbON9IRVa9Ex2JmytX2-nlXXR4h3hvjcauk81EOyZPqpgZYfuPDt1vMYpgqB6-1ci-K04w6gonW4iv7AJ-LYXM8jMXye1FwaqOtnINaB92THgkRw6T97yN1aTxOtv7ox3hIQNCRyvaCUyEFP0FTvVYBsAITqjx68BjtLaOGRRlTxhR4wzIyNRf5_iV9cLwMEyyQsY9_JN5Fy80BoZxosdhe_69Af4XLjwq8f9pcEVbBwLPQ4DNqFsH60fLmVIq9g2cIh-xlMudqkP8CS2WLkf26huAAv4sifBkunHF_fvqfdpR9oboZHx7MlY6fCKGrFsDDBJI3_lEwtd-4PMVUTNoEY7xNHLCC8Nrcbr9Dke0ek1OYr2h_NuQu-_3ZPSwoG6WgqqNKcoc2g47E40VoUk5aBFU3VF45BKUnpXHyQ1v5xSQf6UvpxXeKgLReJYz1VXjqTsbTC0tyzUy-0Ylpg2Xk28WA3gPxIjiYwFUFuUTgWRZxtnPB5YnKndTDmPOvdxVnBOPly1]--></g></svg>