<?xml version="1.0" encoding="UTF-8" standalone="no"?><svg xmlns="http://www.w3.org/2000/svg" xmlns:xlink="http://www.w3.org/1999/xlink" contentStyleType="text/css" height="901px" preserveAspectRatio="none" style="width:544px;height:901px;background:#FFFFFF;" version="1.1" viewBox="0 0 544 901" width="544px" zoomAndPan="magnify"><defs/><g><rect fill="none" height="29.0679" id="_title" style="stroke:none;stroke-width:1.0;" width="102" x="214" y="5"/><text fill="#000000" font-family="sans-serif" font-size="14" font-weight="bold" lengthAdjust="spacing" textLength="92" x="219" y="24.9659">Iniciar Sesión</text><!--MD5=[bd2b5909dc958a2ecb2ee0d31b46061d]
cluster IniciarSesión--><g id="cluster_IniciarSesión"><path d="M24.5,175.0679 L473.5,175.0679 A12.5,12.5 0 0 1 486,187.5679 L486,204.1358 L12,204.1358 L12,187.5679 A12.5,12.5 0 0 1 24.5,175.0679 " fill="#F1F1F1" style="stroke:#F1F1F1;stroke-width:1.0;"/><rect fill="none" height="571" rx="12.5" ry="12.5" style="stroke:#181818;stroke-width:0.5;" width="474" x="12" y="175.0679"/><line style="stroke:#181818;stroke-width:0.5;" x1="12" x2="486" y1="204.1358" y2="204.1358"/><text fill="#000000" font-family="sans-serif" font-size="14" lengthAdjust="spacing" textLength="87" x="205.5" y="194.0339">IniciarSesión</text></g><rect fill="#F1F1F1" height="40" rx="12.5" ry="12.5" style="stroke:#181818;stroke-width:0.5;" width="50" x="149" y="302.0679"/><text fill="#000000" font-family="sans-serif" font-size="14" lengthAdjust="spacing" textLength="4" x="172" y="327.4999"> </text><rect fill="#F1F1F1" height="40" rx="12.5" ry="12.5" style="stroke:#181818;stroke-width:0.5;" width="50" x="44" y="517.5679"/><text fill="#000000" font-family="sans-serif" font-size="14" lengthAdjust="spacing" textLength="4" x="67" y="542.9999"> </text><g id="elem_4"><polygon fill="#F1F1F1" points="157,698.0679,169,710.0679,157,722.0679,145,710.0679,157,698.0679" style="stroke:#181818;stroke-width:0.5;"/></g><ellipse cx="174" cy="231.0679" fill="#222222" rx="10" ry="10" style="stroke:none;stroke-width:1.0;"/><rect fill="#F1F1F1" height="40" rx="12.5" ry="12.5" style="stroke:#181818;stroke-width:0.5;" width="56" x="129" y="855.0679"/><text fill="#000000" font-family="sans-serif" font-size="14" lengthAdjust="spacing" textLength="46" x="134" y="880.4999">INICIO</text><ellipse cx="20" cy="56.0679" fill="#222222" rx="10" ry="10" style="stroke:none;stroke-width:1.0;"/><!--MD5=[0fc7956bfde7a84a782669c725f638cd]
link *start to IniciarSesión--><g id="link_*start_IniciarSesión"><path d="M20,66.3679 C20,84.0529 20,123.9854 20,159.9817 C20,164.4812 20,168.9192 20,173.2446 C20,173.7853 20,174.3242 20,174.8612 " fill="none" id="*start-to-IniciarSesión" style="stroke:#008000;stroke-width:1.0;"/><polygon fill="#008000" points="20,174.8612,24,165.8612,20,169.8612,16,165.8612,20,174.8612" style="stroke:#008000;stroke-width:1.0;"/><path d="M25,101.0679 L25,146.0679 L199,146.0679 L199,111.0679 L189,101.0679 L25,101.0679 " fill="#F5F5F5" style="stroke:#181818;stroke-width:0.5;"/><path d="M189,101.0679 L189,111.0679 L199,111.0679 L189,101.0679 " fill="#F5F5F5" style="stroke:#181818;stroke-width:0.5;"/><text fill="#000000" font-family="sans-serif" font-size="13" font-weight="bold" lengthAdjust="spacing" textLength="102" x="31" y="119.9649">Usuario Solicita</text><ellipse cx="36.5" cy="133.9799" fill="#000000" rx="2.5" ry="2.5" style="stroke:#000000;stroke-width:0.0;"/><text fill="#000000" font-family="sans-serif" font-size="13" lengthAdjust="spacing" textLength="141" x="43" y="137.6709">Iniciar Sesión en Alumni</text></g><!--MD5=[a1a96358ec7b0fc84030231bbf435d3a]
link *start*IniciarSesión to 2--><g id="link_*start*IniciarSesión_2"><path d="M174,241.2579 C174,253.9179 174,277.2079 174,295.3779 " fill="none" id="*start*IniciarSesión-to-2" style="stroke:#008000;stroke-width:1.0;"/><polygon fill="#008000" points="174,300.2979,178,291.2979,174,295.2979,170,291.2979,174,300.2979" style="stroke:#008000;stroke-width:1.0;"/></g><!--MD5=[eeb69082328d10abd3b14fdeede0d8a3]
link 2 to 3--><g id="link_2_3"><path d="M148.51,335.8179 C119.47,350.3279 76,372.0679 76,372.0679 C76,372.0679 72.06,464.6479 70.09,510.9079 " fill="none" id="2-to-3" style="stroke:#008000;stroke-width:1.0;"/><polygon fill="#008000" points="69.88,515.8679,74.2375,507.0355,70.0804,510.8719,66.244,506.7148,69.88,515.8679" style="stroke:#008000;stroke-width:1.0;"/><path d="M81,377.0679 L81,475.0679 L255,475.0679 L255,387.0679 L245,377.0679 L81,377.0679 " fill="#F5F5F5" style="stroke:#181818;stroke-width:0.5;"/><path d="M245,377.0679 L245,387.0679 L255,387.0679 L245,377.0679 " fill="#F5F5F5" style="stroke:#181818;stroke-width:0.5;"/><text fill="#000000" font-family="sans-serif" font-size="13" font-weight="bold" lengthAdjust="spacing" textLength="103" x="87" y="395.9649">Sistema Solicita</text><ellipse cx="92.5" cy="409.9799" fill="#000000" rx="2.5" ry="2.5" style="stroke:#000000;stroke-width:0.0;"/><text fill="#000000" font-family="sans-serif" font-size="13" lengthAdjust="spacing" textLength="32" x="99" y="413.6709">Email</text><ellipse cx="92.5" cy="427.686" fill="#000000" rx="2.5" ry="2.5" style="stroke:#000000;stroke-width:0.0;"/><text fill="#000000" font-family="sans-serif" font-size="13" lengthAdjust="spacing" textLength="69" x="99" y="431.377">Contraseña</text><text fill="#000000" font-family="sans-serif" font-size="13" font-weight="bold" lengthAdjust="spacing" textLength="108" x="87" y="449.083">Sistema Permite</text><ellipse cx="92.5" cy="463.098" fill="#000000" rx="2.5" ry="2.5" style="stroke:#000000;stroke-width:0.0;"/><text fill="#000000" font-family="sans-serif" font-size="13" lengthAdjust="spacing" textLength="141" x="99" y="466.789">Iniciar Sesión en Alumni</text></g><!--MD5=[b1f22f0c97e7f2b556a5a2d67c42ac53]
link 3 to 4--><g id="link_3_4"><path d="M70.05,557.9579 C72,594.0779 76,668.0679 76,668.0679 C76,668.0679 120.63,690.6579 143.63,702.2979 " fill="none" id="3-to-4" style="stroke:#008000;stroke-width:1.0;"/><polygon fill="#008000" points="147.88,704.4579,141.658,696.8234,143.4194,702.199,138.0437,703.9604,147.88,704.4579" style="stroke:#008000;stroke-width:1.0;"/><path d="M81,600.0679 L81,663.0679 L221,663.0679 L221,610.0679 L211,600.0679 L81,600.0679 " fill="#F5F5F5" style="stroke:#181818;stroke-width:0.5;"/><path d="M211,600.0679 L211,610.0679 L221,610.0679 L211,600.0679 " fill="#F5F5F5" style="stroke:#181818;stroke-width:0.5;"/><text fill="#000000" font-family="sans-serif" font-size="13" font-weight="bold" lengthAdjust="spacing" textLength="119" x="87" y="618.9649">Usuario introduce</text><ellipse cx="92.5" cy="632.9799" fill="#000000" rx="2.5" ry="2.5" style="stroke:#000000;stroke-width:0.0;"/><text fill="#000000" font-family="sans-serif" font-size="13" lengthAdjust="spacing" textLength="32" x="99" y="636.6709">Email</text><ellipse cx="92.5" cy="650.686" fill="#000000" rx="2.5" ry="2.5" style="stroke:#000000;stroke-width:0.0;"/><text fill="#000000" font-family="sans-serif" font-size="13" lengthAdjust="spacing" textLength="69" x="99" y="654.377">Contraseña</text></g><!--MD5=[c2a1291977e9a94aab45a8674c128810]
link 4 to INICIO--><g id="link_4_INICIO"><path d="M157,722.5279 C157,748.5179 157,812.4679 157,848.4279 " fill="none" id="4-to-INICIO" style="stroke:#008000;stroke-width:1.0;"/><polygon fill="#008000" points="157,853.2879,161,844.2879,157,848.2879,153,844.2879,157,853.2879" style="stroke:#008000;stroke-width:1.0;"/><path d="M162,775.0679 L162,820.0679 L367,820.0679 L367,785.0679 L357,775.0679 L162,775.0679 " fill="#F5F5F5" style="stroke:#181818;stroke-width:0.5;"/><path d="M357,775.0679 L357,785.0679 L367,785.0679 L357,775.0679 " fill="#F5F5F5" style="stroke:#181818;stroke-width:0.5;"/><text fill="#000000" font-family="sans-serif" font-size="13" font-weight="bold" lengthAdjust="spacing" textLength="110" x="168" y="793.9649">Sistema Muestra</text><ellipse cx="173.5" cy="807.9799" fill="#000000" rx="2.5" ry="2.5" style="stroke:#000000;stroke-width:0.0;"/><text fill="#000000" font-family="sans-serif" font-size="13" lengthAdjust="spacing" textLength="172" x="180" y="811.6709">Pantalla de Inicio del Usuario</text></g><!--MD5=[d5d43b3f3dfddbfb6ca65af0419a6a54]
link 4 to 2--><g id="link_4_2"><path d="M164.27,704.9879 C182.73,694.6179 230,668.0679 230,668.0679 C230,668.0679 244,510.0679 244,510.0679 C244,510.0679 264,480.0679 264,480.0679 C264,480.0679 264,372.0679 264,372.0679 C264,372.0679 230.62,353.8979 204.52,339.6779 " fill="none" id="4-to-2" style="stroke:#FF0000;stroke-width:1.0;"/><polygon fill="#FF0000" points="200.4,337.4379,206.3749,345.2674,204.7862,339.8382,210.2154,338.2494,200.4,337.4379" style="stroke:#FF0000;stroke-width:1.0;"/><path d="M249,515.0679 L249,560.0679 L537,560.0679 L537,525.0679 L527,515.0679 L249,515.0679 " fill="#F5F5F5" style="stroke:#181818;stroke-width:0.5;"/><path d="M527,515.0679 L527,525.0679 L537,525.0679 L527,515.0679 " fill="#F5F5F5" style="stroke:#181818;stroke-width:0.5;"/><text fill="#000000" font-family="sans-serif" font-size="13" font-weight="bold" lengthAdjust="spacing" textLength="110" x="255" y="533.9649">Sistema Muestra</text><ellipse cx="260.5" cy="547.9799" fill="#000000" rx="2.5" ry="2.5" style="stroke:#000000;stroke-width:0.0;"/><text fill="#000000" font-family="sans-serif" font-size="13" lengthAdjust="spacing" textLength="255" x="267" y="551.6709">Mensaje de error en los datos introducidos</text></g><!--MD5=[2eaa190e18d9d29832f15e621918e260]
@startuml

title Iniciar Sesión

skinparam {
    NoteBackgroundColor #whiteSmoke
    ArrowColor #green
    NoteBorderColor #green
    linetype polyline
}

hide empty description

state INICIO

[*] - -> IniciarSesión
note on link
    <b>Usuario Solicita</b>
    * Iniciar Sesión en Alumni
end note

state IniciarSesión {
state 2 as " "
state 3 as " "
state 4 <<choice>>

[*] -down-> 2

2 -down-> 3
note on link
<b>Sistema Solicita</b>
* Email
* Contraseña
<b>Sistema Permite</b>
* Iniciar Sesión en Alumni
end note

3 -down-> 4
note on link
<b>Usuario introduce</b>
* Email
* Contraseña
end note

4 -down-> INICIO
note on link
<b>Sistema Muestra</b>
* Pantalla de Inicio del Usuario
end note

4 -[#red]-> 2
note on link
<b>Sistema Muestra</b>
* Mensaje de error en los datos introducidos
end note

}

@enduml

PlantUML version 1.2022.7(Mon Aug 22 19:01:30 CEST 2022)
(GPL source distribution)
Java Runtime: OpenJDK Runtime Environment
JVM: OpenJDK 64-Bit Server VM
Default Encoding: UTF-8
Language: es
Country: ES
--></g></svg>