<?xml version="1.0" encoding="UTF-8" standalone="no"?><svg xmlns="http://www.w3.org/2000/svg" xmlns:xlink="http://www.w3.org/1999/xlink" contentStyleType="text/css" height="691px" preserveAspectRatio="none" style="width:362px;height:691px;background:#FFFFFF;" version="1.1" viewBox="0 0 362 691" width="362px" zoomAndPan="magnify"><defs/><g><rect fill="none" height="27.6094" id="_title" style="stroke:none;stroke-width:1.0;" width="342" x="5" y="5"/><text fill="#000000" font-family="sans-serif" font-size="14" font-weight="bold" lengthAdjust="spacing" textLength="332" x="10" y="24.5332">Estructura de los Casos de Uso (Administrador)</text><!--MD5=[3efe4913bb7606f0a928d99050ddabc6]
cluster CRUDEgresados--><g id="cluster_CRUDEgresados"><path d="M154,44.6094 L274,44.6094 A3.75,3.75 0 0 1 276.5,47.1094 L283.5,68.2188 L342,68.2188 A2.5,2.5 0 0 1 344.5,70.7188 L344.5,342.1094 A2.5,2.5 0 0 1 342,344.6094 L154,344.6094 A2.5,2.5 0 0 1 151.5,342.1094 L151.5,47.1094 A2.5,2.5 0 0 1 154,44.6094 " fill="none" style="stroke:#000000;stroke-width:1.5;"/><line style="stroke:#000000;stroke-width:1.5;" x1="151.5" x2="283.5" y1="68.2188" y2="68.2188"/><text fill="#000000" font-family="sans-serif" font-size="14" font-weight="bold" lengthAdjust="spacing" textLength="119" x="155.5" y="61.1426">CRUD Egresados</text></g><!--MD5=[10af996e2ffe433c81f0f63a8782af60]
cluster CRUDAdministradores--><g id="cluster_CRUDAdministradores"><path d="M143,368.6094 L303,368.6094 A3.75,3.75 0 0 1 305.5,371.1094 L312.5,392.2188 L353,392.2188 A2.5,2.5 0 0 1 355.5,394.7188 L355.5,682.1094 A2.5,2.5 0 0 1 353,684.6094 L143,684.6094 A2.5,2.5 0 0 1 140.5,682.1094 L140.5,371.1094 A2.5,2.5 0 0 1 143,368.6094 " fill="none" style="stroke:#000000;stroke-width:1.5;"/><line style="stroke:#000000;stroke-width:1.5;" x1="140.5" x2="312.5" y1="392.2188" y2="392.2188"/><text fill="#000000" font-family="sans-serif" font-size="14" font-weight="bold" lengthAdjust="spacing" textLength="159" x="144.5" y="385.1426">CRUD Administradores</text></g><g id="elem_Crear Egresado"><ellipse cx="247.8525" cy="98.4799" fill="#F1F1F1" rx="74.8525" ry="17.3705" style="stroke:#181818;stroke-width:0.5;"/><text fill="#000000" font-family="sans-serif" font-size="14" lengthAdjust="spacing" textLength="101" x="194.3525" y="102.9965">Crear Egresado</text></g><g id="elem_Listar Egresado"><ellipse cx="247.981" cy="168.4056" fill="#F1F1F1" rx="74.481" ry="17.2962" style="stroke:#181818;stroke-width:0.5;"/><text fill="#000000" font-family="sans-serif" font-size="14" lengthAdjust="spacing" textLength="100" x="194.981" y="172.9222">Listar Egresado</text></g><g id="elem_Editar Egresado"><ellipse cx="248.2256" cy="238.5545" fill="#F1F1F1" rx="75.2256" ry="17.4451" style="stroke:#181818;stroke-width:0.5;"/><text fill="#000000" font-family="sans-serif" font-size="14" lengthAdjust="spacing" textLength="102" x="194.2256" y="243.0711">Editar Egresado</text></g><g id="elem_Eliminar Egresado"><ellipse cx="247.7827" cy="309.5659" fill="#F1F1F1" rx="80.2827" ry="18.4565" style="stroke:#181818;stroke-width:0.5;"/><text fill="#000000" font-family="sans-serif" font-size="14" lengthAdjust="spacing" textLength="115" x="189.4192" y="313.5435">Eliminar Egresado</text></g><g id="elem_Crear Administrador"><ellipse cx="247.7698" cy="424.5633" fill="#F1F1F1" rx="85.2698" ry="19.454" style="stroke:#181818;stroke-width:0.5;"/><text fill="#000000" font-family="sans-serif" font-size="14" lengthAdjust="spacing" textLength="127" x="184.2698" y="428.2918">Crear Administrador</text></g><g id="elem_Listar Administrador"><ellipse cx="247.8478" cy="498.4789" fill="#F1F1F1" rx="84.8478" ry="19.3696" style="stroke:#181818;stroke-width:0.5;"/><text fill="#000000" font-family="sans-serif" font-size="14" lengthAdjust="spacing" textLength="126" x="184.8478" y="502.2075">Listar Administrador</text></g><g id="elem_Editar Administrador"><ellipse cx="248.1926" cy="572.6479" fill="#F1F1F1" rx="85.6926" ry="19.5385" style="stroke:#181818;stroke-width:0.5;"/><text fill="#000000" font-family="sans-serif" font-size="14" lengthAdjust="spacing" textLength="128" x="184.1926" y="576.3764">Editar Administrador</text></g><g id="elem_Eliminar Administrador"><ellipse cx="247.7628" cy="647.7619" fill="#F1F1F1" rx="91.2628" ry="20.6526" style="stroke:#181818;stroke-width:0.5;"/><text fill="#000000" font-family="sans-serif" font-size="14" lengthAdjust="spacing" textLength="141" x="177.2628" y="651.4904">Eliminar Administrador</text></g><!--MD5=[2e903384ba6a94be9c906ea46910cc3f]
entity Administrador--><g id="elem_Administrador"><ellipse cx="53" cy="337.1094" fill="#F1F1F1" rx="8" ry="8" style="stroke:#181818;stroke-width:0.5;"/><path d="M53,345.1094 L53,372.1094 M40,353.1094 L66,353.1094 M53,372.1094 L40,387.1094 M53,372.1094 L66,387.1094 " fill="none" style="stroke:#181818;stroke-width:0.5;"/><text fill="#000000" font-family="sans-serif" font-size="14" lengthAdjust="spacing" textLength="87" x="9.5" y="403.1426">Administrador</text></g><!--MD5=[a93f01c194319dfb49e3355441268a94]
link Administrador to Crear Egresado--><g id="link_Administrador_Crear Egresado"><path d="M67.14,328.4394 C89.49,261.8294 132.5,133.6094 132.5,133.6094 C132.5,133.6094 166.06,123.3494 196.84,113.9394 " fill="none" id="Administrador-to-Crear Egresado" style="stroke:#181818;stroke-width:1.0;"/><polygon fill="#181818" points="201.75,112.4394,191.9719,111.261,196.9708,113.9088,194.323,118.9077,201.75,112.4394" style="stroke:#181818;stroke-width:1.0;"/></g><!--MD5=[5c0273a74de74f95df81ec3eeaab63dd]
link Administrador to Listar Egresado--><g id="link_Administrador_Listar Egresado"><path d="M72.8,328.3294 C96.03,279.8094 132.5,203.6094 132.5,203.6094 C132.5,203.6094 166.06,193.3494 196.84,183.9394 " fill="none" id="Administrador-to-Listar Egresado" style="stroke:#181818;stroke-width:1.0;"/><polygon fill="#181818" points="201.75,182.4394,191.9719,181.261,196.9708,183.9088,194.323,188.9077,201.75,182.4394" style="stroke:#181818;stroke-width:1.0;"/></g><!--MD5=[dbcbc0ef6bf6d103d4816ad826883c25]
link Administrador to Editar Egresado--><g id="link_Administrador_Editar Egresado"><path d="M86.61,328.5594 C108.18,302.7394 132.5,273.6094 132.5,273.6094 C132.5,273.6094 166.06,263.3494 196.84,253.9394 " fill="none" id="Administrador-to-Editar Egresado" style="stroke:#181818;stroke-width:1.0;"/><polygon fill="#181818" points="201.75,252.4394,191.9719,251.261,196.9708,253.9088,194.323,258.9077,201.75,252.4394" style="stroke:#181818;stroke-width:1.0;"/></g><!--MD5=[9a712af60ae8cd7b3120e34b06a9e7ed]
link Administrador to Eliminar Egresado--><g id="link_Administrador_Eliminar Egresado"><path d="M96.83,354.7394 C125.29,346.1794 162.89,334.8894 193.34,325.7394 " fill="none" id="Administrador-to-Eliminar Egresado" style="stroke:#181818;stroke-width:1.0;"/><polygon fill="#181818" points="198.17,324.2894,188.3985,323.0576,193.3828,325.7327,190.7077,330.717,198.17,324.2894" style="stroke:#181818;stroke-width:1.0;"/></g><!--MD5=[5342176c0b2eeb0ed7ec732db39e7700]
link Administrador to Crear Administrador--><g id="link_Administrador_Crear Administrador"><path d="M96.83,380.2594 C124.23,388.3494 160.1,398.9394 189.9,407.7494 " fill="none" id="Administrador-to-Crear Administrador" style="stroke:#181818;stroke-width:1.0;"/><polygon fill="#181818" points="195.01,409.2594,187.5075,402.8788,190.2139,407.8462,185.2464,410.5526,195.01,409.2594" style="stroke:#181818;stroke-width:1.0;"/></g><!--MD5=[2b934f00abb2bcc9123730b057bb5b4b]
link Administrador to Listar Administrador--><g id="link_Administrador_Listar Administrador"><path d="M86.61,406.6594 C108.18,432.4794 132.5,461.6094 132.5,461.6094 C132.5,461.6094 163.57,471.6494 193.35,481.2694 " fill="none" id="Administrador-to-Listar Administrador" style="stroke:#181818;stroke-width:1.0;"/><polygon fill="#181818" points="198.11,482.8094,190.783,476.2279,193.3539,481.2669,188.315,483.8377,198.11,482.8094" style="stroke:#181818;stroke-width:1.0;"/></g><!--MD5=[2f716b311059773e423aaf609326297d]
link Administrador to Editar Administrador--><g id="link_Administrador_Editar Administrador"><path d="M72.4,406.9994 C95.61,456.6494 132.5,535.6094 132.5,535.6094 C132.5,535.6094 163.1,545.4994 192.66,555.0494 " fill="none" id="Administrador-to-Editar Administrador" style="stroke:#181818;stroke-width:1.0;"/><polygon fill="#181818" points="197.78,556.6994,190.453,550.1179,193.0239,555.1569,187.985,557.7277,197.78,556.6994" style="stroke:#181818;stroke-width:1.0;"/></g><!--MD5=[b0eded1e2fcccd6bdbdb5b28e0aa437c]
link Administrador to Eliminar Administrador--><g id="link_Administrador_Eliminar Administrador"><path d="M66.7,406.7594 C88.92,475.2494 132.5,609.6094 132.5,609.6094 C132.5,609.6094 162.02,619.4094 191.08,629.0494 " fill="none" id="Administrador-to-Eliminar Administrador" style="stroke:#181818;stroke-width:1.0;"/><polygon fill="#181818" points="196.11,630.7194,188.8248,624.0918,191.3637,629.1468,186.3087,631.6858,196.11,630.7194" style="stroke:#181818;stroke-width:1.0;"/></g><!--MD5=[90ece78d22e5741d87a842623c03dcdc]
@startuml Diagrama_CdU

title Estructura de los Casos de Uso (Administrador)

skinparam {
    NoteBackgroundColor #whiteSmoke
    NoteBorderColor #green
    linetype polyline
}

left to right direction

actor Administrador

folder "CRUD Egresados" as CRUDEgresados {
    Administrador - -> (Crear Egresado)
    Administrador - -> (Listar Egresado)
    Administrador - -> (Editar Egresado)
    Administrador - -> (Eliminar Egresado)
}



folder "CRUD Administradores" as CRUDAdministradores {
    Administrador - -> (Crear Administrador)
    Administrador - -> (Listar Administrador)
    Administrador - -> (Editar Administrador)
    Administrador - -> (Eliminar Administrador)
}


@enduml

PlantUML version 1.2022.7(Mon Aug 22 19:01:30 CEST 2022)
(GPL source distribution)
Java Runtime: Java(TM) SE Runtime Environment
JVM: Java HotSpot(TM) 64-Bit Server VM
Default Encoding: Cp1252
Language: es
Country: ES
--></g></svg>