<?xml version="1.0" encoding="UTF-8" standalone="no"?><svg xmlns="http://www.w3.org/2000/svg" xmlns:xlink="http://www.w3.org/1999/xlink" contentStyleType="text/css" height="679px" preserveAspectRatio="none" style="width:714px;height:679px;background:#FFFFFF;" version="1.1" viewBox="0 0 714 679" width="714px" zoomAndPan="magnify"><defs/><g><rect fill="#FFFFFF" height="29.0679" id="_title" style="stroke:none;stroke-width:1.0;" width="145" x="277.5" y="5"/><text fill="#000000" font-family="Arial" font-size="14" font-weight="bold" lengthAdjust="spacing" textLength="135" x="282.5" y="24.9659">Diagrama de Clases</text><!--MD5=[afbc64ec85fee769d333cf1533205623]
class PLATAFORMA--><g id="elem_PLATAFORMA"><rect codeLine="10" fill="#F1F1F1" height="59.0679" id="PLATAFORMA" rx="2.5" ry="2.5" style="stroke:#181818;stroke-width:0.5;" width="122" x="285" y="47.0679"/><ellipse cx="300" cy="63.0679" fill="#ADD1B2" rx="11" ry="11" style="stroke:#181818;stroke-width:1.0;"/><path d="M299.4688,69.9898 Q297.7188,69.9898 296.5781,69.2554 Q295.4531,68.5054 294.8906,67.1617 Q294.3438,65.8023 294.3438,64.0054 Q294.3438,61.9742 295,60.521 Q295.6563,59.0679 296.9375,58.2867 Q298.2188,57.5054 300.0938,57.5054 Q300.9844,57.5054 301.6563,57.6929 Q302.3281,57.8648 303.0156,58.2085 L302.2031,60.2242 Q301.5781,59.9117 301.0313,59.7867 Q300.5,59.6617 300.0156,59.6617 Q298.8438,59.6617 298.1406,60.1929 Q297.4375,60.7242 297.1406,61.6773 Q296.8438,62.6304 296.8438,63.896 Q296.8438,65.9117 297.5625,66.8804 Q298.2813,67.8335 299.875,67.8335 Q300.4688,67.8335 301.0938,67.6773 Q301.7188,67.521 302.5469,67.146 L302.5469,69.3648 Q301.8125,69.6773 301.0156,69.8335 Q300.2344,69.9898 299.4688,69.9898 Z " fill="#000000"/><text fill="#000000" font-family="Arial" font-size="14" lengthAdjust="spacing" textLength="90" x="314" y="68.4999">PLATAFORMA</text><line style="stroke:#181818;stroke-width:0.5;" x1="286" x2="406" y1="79.0679" y2="79.0679"/><text fill="#000000" font-family="Arial" font-size="14" lengthAdjust="spacing" textLength="48" x="291" y="98.0339">Alumni</text></g><!--MD5=[d487106a069dbf8887c3866d5775fb0b]
class SERVICIO EXTERNO--><g id="elem_SERVICIO EXTERNO"><rect codeLine="15" fill="#F1F1F1" height="32" id="SERVICIO EXTERNO" rx="2.5" ry="2.5" style="stroke:#181818;stroke-width:0.5;" width="150" x="543" y="60.6079"/><ellipse cx="558" cy="76.6079" fill="#A9DCDF" rx="11" ry="11" style="stroke:#181818;stroke-width:1.0;"/><path d="M553.1719,82.3579 L556.5156,70.1704 L559.6563,70.1704 L563.0313,82.3579 L560.5625,82.3579 L559.8281,79.3423 L556.3125,79.3423 L555.5625,82.3579 L553.1719,82.3579 Z M557.5781,74.311 L556.8281,77.311 L559.3438,77.311 L558.625,74.311 Q558.4844,73.7329 558.3594,73.186 Q558.2344,72.6235 558.0938,72.0454 Q557.9844,72.6235 557.8438,73.186 Q557.7031,73.7329 557.5781,74.311 Z " fill="#000000"/><text fill="#000000" font-family="Arial" font-size="14" font-style="italic" lengthAdjust="spacing" textLength="118" x="572" y="82.0399">SERVICIO EXTERNO</text></g><!--MD5=[9fb774ed7ae05b667c8401cd383f5fbb]
class USUARIO--><g id="elem_USUARIO"><rect codeLine="17" fill="#F1F1F1" height="154.4075" id="USUARIO" rx="2.5" ry="2.5" style="stroke:#181818;stroke-width:0.5;" width="153" x="72.5" y="185.1379"/><ellipse cx="116.75" cy="201.1379" fill="#A9DCDF" rx="11" ry="11" style="stroke:#181818;stroke-width:1.0;"/><path d="M111.9219,206.8879 L115.2656,194.7004 L118.4063,194.7004 L121.7813,206.8879 L119.3125,206.8879 L118.5781,203.8723 L115.0625,203.8723 L114.3125,206.8879 L111.9219,206.8879 Z M116.3281,198.841 L115.5781,201.841 L118.0938,201.841 L117.375,198.841 Q117.2344,198.2629 117.1094,197.716 Q116.9844,197.1535 116.8438,196.5754 Q116.7344,197.1535 116.5938,197.716 Q116.4531,198.2629 116.3281,198.841 Z " fill="#000000"/><text fill="#000000" font-family="Arial" font-size="14" font-style="italic" lengthAdjust="spacing" textLength="56" x="137.25" y="206.5699">USUARIO</text><line style="stroke:#181818;stroke-width:0.5;" x1="73.5" x2="224.5" y1="217.1379" y2="217.1379"/><text fill="#000000" font-family="Arial" font-size="14" lengthAdjust="spacing" textLength="15" x="78.5" y="236.1039">ID</text><text fill="#000000" font-family="Arial" font-size="14" lengthAdjust="spacing" textLength="55" x="78.5" y="255.1718">Nombre</text><text fill="#000000" font-family="Arial" font-size="14" lengthAdjust="spacing" textLength="55" x="78.5" y="274.2397">Apellido</text><text fill="#000000" font-family="Arial" font-size="14" lengthAdjust="spacing" textLength="141" x="78.5" y="293.3076">Fecha de Nacimiento</text><text fill="#000000" font-family="Arial" font-size="14" lengthAdjust="spacing" textLength="37" x="78.5" y="312.3755">Email</text><text fill="#000000" font-family="Arial" font-size="14" lengthAdjust="spacing" textLength="88" x="78.5" y="331.4434">Foto de Perfil</text></g><!--MD5=[2ab7582ab6c49ef72aa094ce2439025d]
class EGRESADO--><g id="elem_EGRESADO"><rect codeLine="27" fill="#F1F1F1" height="97.2038" id="EGRESADO" rx="2.5" ry="2.5" style="stroke:#181818;stroke-width:0.5;" width="154" x="7" y="428.0779"/><ellipse cx="44.05" cy="444.0779" fill="#ADD1B2" rx="11" ry="11" style="stroke:#181818;stroke-width:1.0;"/><path d="M43.5188,450.9998 Q41.7688,450.9998 40.6281,450.2654 Q39.5031,449.5154 38.9406,448.1717 Q38.3938,446.8123 38.3938,445.0154 Q38.3938,442.9842 39.05,441.531 Q39.7063,440.0779 40.9875,439.2967 Q42.2688,438.5154 44.1438,438.5154 Q45.0344,438.5154 45.7063,438.7029 Q46.3781,438.8748 47.0656,439.2185 L46.2531,441.2342 Q45.6281,440.9217 45.0813,440.7967 Q44.55,440.6717 44.0656,440.6717 Q42.8938,440.6717 42.1906,441.2029 Q41.4875,441.7342 41.1906,442.6873 Q40.8938,443.6404 40.8938,444.906 Q40.8938,446.9217 41.6125,447.8904 Q42.3313,448.8435 43.925,448.8435 Q44.5188,448.8435 45.1438,448.6873 Q45.7688,448.531 46.5969,448.156 L46.5969,450.3748 Q45.8625,450.6873 45.0656,450.8435 Q44.2844,450.9998 43.5188,450.9998 Z " fill="#000000"/><text fill="#000000" font-family="Arial" font-size="14" lengthAdjust="spacing" textLength="73" x="62.95" y="449.5099">EGRESADO</text><line style="stroke:#181818;stroke-width:0.5;" x1="8" x2="160" y1="460.0779" y2="460.0779"/><text fill="#000000" font-family="Arial" font-size="14" lengthAdjust="spacing" textLength="66" x="13" y="479.0439">Ubicacion</text><text fill="#000000" font-family="Arial" font-size="14" lengthAdjust="spacing" textLength="72" x="13" y="498.1118">Ocupación</text><text fill="#000000" font-family="Arial" font-size="14" lengthAdjust="spacing" textLength="142" x="13" y="517.1797">Carnet de Estudiante</text></g><!--MD5=[4c1736d2acf393d1932c4bd71ed8c52b]
class ADMINISTRADOR--><g id="elem_ADMINISTRADOR"><rect codeLine="34" fill="#F1F1F1" height="32" id="ADMINISTRADOR" rx="2.5" ry="2.5" style="stroke:#181818;stroke-width:0.5;" width="149" x="195.5" y="460.6879"/><ellipse cx="210.5" cy="476.6879" fill="#ADD1B2" rx="11" ry="11" style="stroke:#181818;stroke-width:1.0;"/><path d="M209.9688,483.6098 Q208.2188,483.6098 207.0781,482.8754 Q205.9531,482.1254 205.3906,480.7817 Q204.8438,479.4223 204.8438,477.6254 Q204.8438,475.5942 205.5,474.141 Q206.1563,472.6879 207.4375,471.9067 Q208.7188,471.1254 210.5938,471.1254 Q211.4844,471.1254 212.1563,471.3129 Q212.8281,471.4848 213.5156,471.8285 L212.7031,473.8442 Q212.0781,473.5317 211.5313,473.4067 Q211,473.2817 210.5156,473.2817 Q209.3438,473.2817 208.6406,473.8129 Q207.9375,474.3442 207.6406,475.2973 Q207.3438,476.2504 207.3438,477.516 Q207.3438,479.5317 208.0625,480.5004 Q208.7813,481.4535 210.375,481.4535 Q210.9688,481.4535 211.5938,481.2973 Q212.2188,481.141 213.0469,480.766 L213.0469,482.9848 Q212.3125,483.2973 211.5156,483.4535 Q210.7344,483.6098 209.9688,483.6098 Z " fill="#000000"/><text fill="#000000" font-family="Arial" font-size="14" lengthAdjust="spacing" textLength="117" x="224.5" y="482.1199">ADMINISTRADOR</text></g><!--MD5=[a63780b95c376d0ca261608ab8f4ee8f]
class REQUISITO--><g id="elem_REQUISITO"><rect codeLine="38" fill="#F1F1F1" height="59.0679" id="REQUISITO" rx="2.5" ry="2.5" style="stroke:#181818;stroke-width:0.5;" width="149" x="9.5" y="613.8179"/><ellipse cx="43.4" cy="629.8179" fill="#ADD1B2" rx="11" ry="11" style="stroke:#181818;stroke-width:1.0;"/><path d="M42.8688,636.7398 Q41.1188,636.7398 39.9781,636.0054 Q38.8531,635.2554 38.2906,633.9117 Q37.7438,632.5523 37.7438,630.7554 Q37.7438,628.7242 38.4,627.271 Q39.0563,625.8179 40.3375,625.0367 Q41.6188,624.2554 43.4938,624.2554 Q44.3844,624.2554 45.0563,624.4429 Q45.7281,624.6148 46.4156,624.9585 L45.6031,626.9742 Q44.9781,626.6617 44.4313,626.5367 Q43.9,626.4117 43.4156,626.4117 Q42.2438,626.4117 41.5406,626.9429 Q40.8375,627.4742 40.5406,628.4273 Q40.2438,629.3804 40.2438,630.646 Q40.2438,632.6617 40.9625,633.6304 Q41.6813,634.5835 43.275,634.5835 Q43.8688,634.5835 44.4938,634.4273 Q45.1188,634.271 45.9469,633.896 L45.9469,636.1148 Q45.2125,636.4273 44.4156,636.5835 Q43.6344,636.7398 42.8688,636.7398 Z " fill="#000000"/><text fill="#000000" font-family="Arial" font-size="14" lengthAdjust="spacing" textLength="75" x="61.6" y="635.2499">REQUISITO</text><line style="stroke:#181818;stroke-width:0.5;" x1="10.5" x2="157.5" y1="645.8179" y2="645.8179"/><text fill="#000000" font-family="Arial" font-size="14" lengthAdjust="spacing" textLength="137" x="15.5" y="664.7839">Titulación de UNEAT</text></g><!--MD5=[4fba4a15a69a30bd8d74d766c660e0fd]
class ESTADISTICA--><g id="elem_ESTADISTICA"><rect codeLine="43" fill="#F1F1F1" height="32" id="ESTADISTICA" rx="2.5" ry="2.5" style="stroke:#181818;stroke-width:0.5;" width="119" x="87.5" y="60.6079"/><ellipse cx="102.5" cy="76.6079" fill="#ADD1B2" rx="11" ry="11" style="stroke:#181818;stroke-width:1.0;"/><path d="M101.9688,83.5298 Q100.2188,83.5298 99.0781,82.7954 Q97.9531,82.0454 97.3906,80.7017 Q96.8438,79.3423 96.8438,77.5454 Q96.8438,75.5142 97.5,74.061 Q98.1563,72.6079 99.4375,71.8267 Q100.7188,71.0454 102.5938,71.0454 Q103.4844,71.0454 104.1563,71.2329 Q104.8281,71.4048 105.5156,71.7485 L104.7031,73.7642 Q104.0781,73.4517 103.5313,73.3267 Q103,73.2017 102.5156,73.2017 Q101.3438,73.2017 100.6406,73.7329 Q99.9375,74.2642 99.6406,75.2173 Q99.3438,76.1704 99.3438,77.436 Q99.3438,79.4517 100.0625,80.4204 Q100.7813,81.3735 102.375,81.3735 Q102.9688,81.3735 103.5938,81.2173 Q104.2188,81.061 105.0469,80.686 L105.0469,82.9048 Q104.3125,83.2173 103.5156,83.3735 Q102.7344,83.5298 101.9688,83.5298 Z " fill="#000000"/><text fill="#000000" font-family="Arial" font-size="14" lengthAdjust="spacing" textLength="87" x="116.5" y="82.0399">ESTADISTICA</text></g><!--MD5=[19899f9ca578ac9ce8c1dbc8b9bc3638]
class SUSCRIPCIÓN--><g id="elem_SUSCRIPCIÓN"><rect codeLine="47" fill="#F1F1F1" height="97.2038" id="SUSCRIPCIÓN" rx="2.5" ry="2.5" style="stroke:#181818;stroke-width:0.5;" width="139" x="397.5" y="213.7379"/><ellipse cx="418.8" cy="229.7379" fill="#ADD1B2" rx="11" ry="11" style="stroke:#181818;stroke-width:1.0;"/><path d="M418.2688,236.6598 Q416.5188,236.6598 415.3781,235.9254 Q414.2531,235.1754 413.6906,233.8317 Q413.1438,232.4723 413.1438,230.6754 Q413.1438,228.6442 413.8,227.191 Q414.4563,225.7379 415.7375,224.9567 Q417.0188,224.1754 418.8938,224.1754 Q419.7844,224.1754 420.4563,224.3629 Q421.1281,224.5348 421.8156,224.8785 L421.0031,226.8942 Q420.3781,226.5817 419.8313,226.4567 Q419.3,226.3317 418.8156,226.3317 Q417.6438,226.3317 416.9406,226.8629 Q416.2375,227.3942 415.9406,228.3473 Q415.6438,229.3004 415.6438,230.566 Q415.6438,232.5817 416.3625,233.5504 Q417.0813,234.5035 418.675,234.5035 Q419.2688,234.5035 419.8938,234.3473 Q420.5188,234.191 421.3469,233.816 L421.3469,236.0348 Q420.6125,236.3473 419.8156,236.5035 Q419.0344,236.6598 418.2688,236.6598 Z " fill="#000000"/><text fill="#000000" font-family="Arial" font-size="14" lengthAdjust="spacing" textLength="93" x="434.2" y="235.1699">SUSCRIPCIÓN</text><line style="stroke:#181818;stroke-width:0.5;" x1="398.5" x2="535.5" y1="245.7379" y2="245.7379"/><text fill="#000000" font-family="Arial" font-size="14" lengthAdjust="spacing" textLength="127" x="403.5" y="264.7039">Paquetes Suscritos</text><text fill="#000000" font-family="Arial" font-size="14" lengthAdjust="spacing" textLength="124" x="403.5" y="283.7718">Servicios Suscritos</text><text fill="#000000" font-family="Arial" font-size="14" lengthAdjust="spacing" textLength="78" x="403.5" y="302.8397">Precio Total</text></g><!--MD5=[400228ae5d671c1e1fdff589fc59b7ba]
class PAQUETE--><g id="elem_PAQUETE"><rect codeLine="54" fill="#F1F1F1" height="116.2717" id="PAQUETE" rx="2.5" ry="2.5" style="stroke:#181818;stroke-width:0.5;" width="136" x="379" y="418.5479"/><ellipse cx="412.9" cy="434.5479" fill="#ADD1B2" rx="11" ry="11" style="stroke:#181818;stroke-width:1.0;"/><path d="M412.3688,441.4698 Q410.6188,441.4698 409.4781,440.7354 Q408.3531,439.9854 407.7906,438.6417 Q407.2438,437.2823 407.2438,435.4854 Q407.2438,433.4542 407.9,432.001 Q408.5563,430.5479 409.8375,429.7667 Q411.1188,428.9854 412.9938,428.9854 Q413.8844,428.9854 414.5563,429.1729 Q415.2281,429.3448 415.9156,429.6885 L415.1031,431.7042 Q414.4781,431.3917 413.9313,431.2667 Q413.4,431.1417 412.9156,431.1417 Q411.7438,431.1417 411.0406,431.6729 Q410.3375,432.2042 410.0406,433.1573 Q409.7438,434.1104 409.7438,435.376 Q409.7438,437.3917 410.4625,438.3604 Q411.1813,439.3135 412.775,439.3135 Q413.3688,439.3135 413.9938,439.1573 Q414.6188,439.001 415.4469,438.626 L415.4469,440.8448 Q414.7125,441.1573 413.9156,441.3135 Q413.1344,441.4698 412.3688,441.4698 Z " fill="#000000"/><text fill="#000000" font-family="Arial" font-size="14" lengthAdjust="spacing" textLength="62" x="431.1" y="439.9799">PAQUETE</text><line style="stroke:#181818;stroke-width:0.5;" x1="380" x2="514" y1="450.5479" y2="450.5479"/><text fill="#000000" font-family="Arial" font-size="14" lengthAdjust="spacing" textLength="55" x="385" y="469.5139">Nombre</text><text fill="#000000" font-family="Arial" font-size="14" lengthAdjust="spacing" textLength="79" x="385" y="488.5818">Descripción</text><text fill="#000000" font-family="Arial" font-size="14" lengthAdjust="spacing" textLength="124" x="385" y="507.6497">Servicios incluidos</text><text fill="#000000" font-family="Arial" font-size="14" lengthAdjust="spacing" textLength="41" x="385" y="526.7176">Precio</text></g><!--MD5=[30a145389985b39b0bce1272ac991c13]
class SERVICIO--><g id="elem_SERVICIO"><rect codeLine="62" fill="#F1F1F1" height="116.2717" id="SERVICIO" rx="2.5" ry="2.5" style="stroke:#181818;stroke-width:0.5;" width="114" x="593" y="418.5479"/><ellipse cx="618.8" cy="434.5479" fill="#A9DCDF" rx="11" ry="11" style="stroke:#181818;stroke-width:1.0;"/><path d="M613.9719,440.2979 L617.3156,428.1104 L620.4563,428.1104 L623.8313,440.2979 L621.3625,440.2979 L620.6281,437.2823 L617.1125,437.2823 L616.3625,440.2979 L613.9719,440.2979 Z M618.3781,432.251 L617.6281,435.251 L620.1438,435.251 L619.425,432.251 Q619.2844,431.6729 619.1594,431.126 Q619.0344,430.5635 618.8938,429.9854 Q618.7844,430.5635 618.6438,431.126 Q618.5031,431.6729 618.3781,432.251 Z " fill="#000000"/><text fill="#000000" font-family="Arial" font-size="14" font-style="italic" lengthAdjust="spacing" textLength="58" x="635.2" y="439.9799">SERVICIO</text><line style="stroke:#181818;stroke-width:0.5;" x1="594" x2="706" y1="450.5479" y2="450.5479"/><text fill="#000000" font-family="Arial" font-size="14" lengthAdjust="spacing" textLength="55" x="599" y="469.5139">Nombre</text><text fill="#000000" font-family="Arial" font-size="14" lengthAdjust="spacing" textLength="79" x="599" y="488.5818">Descripción</text><text fill="#000000" font-family="Arial" font-size="14" lengthAdjust="spacing" textLength="42" x="599" y="507.6497">precio</text><text fill="#000000" font-family="Arial" font-size="14" lengthAdjust="spacing" textLength="102" x="599" y="526.7176">tipo de servicio</text></g><!--MD5=[aee84f5e9adb0dacda05fef5b14305a9]
link PLATAFORMA to USUARIO--><g id="link_PLATAFORMA_USUARIO"><path codeLine="70" d="M284.54,104.6779 C268.43,113.3879 251.73,123.9779 238,136.1379 C222.13,150.1979 207.53,167.5979 194.95,184.9079 " fill="none" id="PLATAFORMA-USUARIO" style="stroke:#181818;stroke-width:1.0;"/><text fill="#000000" font-family="Arial" font-size="13" lengthAdjust="spacing" textLength="30" x="239" y="151.0349">tiene</text></g><!--MD5=[4ce2dad9ce5e9d7d6fabe6fa93b0d06b]
link ESTADISTICA to PLATAFORMA--><g id="link_ESTADISTICA_PLATAFORMA"><path codeLine="71" d="M206.98,76.6079 C231.58,76.6079 260.04,76.6079 284.77,76.6079 " fill="none" id="ESTADISTICA-PLATAFORMA" style="stroke:#181818;stroke-width:1.0;"/><text fill="#000000" font-family="Arial" font-size="13" lengthAdjust="spacing" textLength="42" x="224.75" y="69.5049">genera</text></g><!--MD5=[0ac78335b74149db01d155f83d2f6f8a]
link PLATAFORMA to SERVICIO EXTERNO--><g id="link_PLATAFORMA_SERVICIO EXTERNO"><path codeLine="72" d="M407.38,76.6079 C447.41,76.6079 499.94,76.6079 542.52,76.6079 " fill="none" id="PLATAFORMA-SERVICIO EXTERNO" style="stroke:#181818;stroke-width:1.0;"/><text fill="#000000" font-family="Arial" font-size="13" lengthAdjust="spacing" textLength="74" x="438" y="69.5049">se comunica</text></g><!--MD5=[7073acf3b9b6d3a2af23efe4bf029300]
reverse link SERVICIO EXTERNO to SERVICIO--><g id="link_SERVICIO EXTERNO_SERVICIO"><path codeLine="73" d="M620.92,113.9279 C626.5,183.3279 638.71,335.2279 645.4,418.4179 " fill="none" id="SERVICIO EXTERNO-backto-SERVICIO" style="stroke:#181818;stroke-width:1.0;stroke-dasharray:7.0,7.0;"/><polygon fill="none" points="613.96,114.7279,619.34,94.2379,627.92,113.6079,613.96,114.7279" style="stroke:#181818;stroke-width:1.0;"/></g><!--MD5=[5bd0185b5c810bbfd8214df6d4a3435e]
link PLATAFORMA to SUSCRIPCIÓN--><g id="link_PLATAFORMA_SUSCRIPCIÓN"><path codeLine="74" d="M364.91,106.3179 C383.78,134.9779 413.13,179.5479 435.52,213.5479 " fill="none" id="PLATAFORMA-SUSCRIPCIÓN" style="stroke:#181818;stroke-width:1.0;"/><text fill="#000000" font-family="Arial" font-size="13" lengthAdjust="spacing" textLength="30" x="397" y="151.0349">tiene</text></g><!--MD5=[7a78beded7e279d7942fce86d4482847]
link SUSCRIPCIÓN to SERVICIO--><g id="link_SUSCRIPCIÓN_SERVICIO"><path codeLine="75" d="M507.28,311.4079 C526.98,334.7879 551.11,363.2379 573,388.5479 C581.32,398.1679 590.21,408.3279 598.88,418.1879 " fill="none" id="SUSCRIPCIÓN-SERVICIO" style="stroke:#181818;stroke-width:1.0;"/><text fill="#000000" font-family="Arial" font-size="13" lengthAdjust="spacing" textLength="42" x="574" y="384.4449">incluye</text></g><!--MD5=[dddc89fd371c160f93cf11b7ec7e78d6]
link EGRESADO to REQUISITO--><g id="link_EGRESADO_REQUISITO"><path codeLine="76" d="M84,525.7579 C84,554.2379 84,589.3679 84,613.5879 " fill="none" id="EGRESADO-REQUISITO" style="stroke:#181818;stroke-width:1.0;"/><text fill="#000000" font-family="Arial" font-size="13" lengthAdjust="spacing" textLength="44" x="85" y="579.7149">cumple</text></g><!--MD5=[0ae76caab6403afd96ace9cd4635e9a5]
link SUSCRIPCIÓN to PAQUETE--><g id="link_SUSCRIPCIÓN_PAQUETE"><path codeLine="77" d="M462.49,311.2579 C459.5,342.9479 455.57,384.6479 452.42,418.1279 " fill="none" id="SUSCRIPCIÓN-PAQUETE" style="stroke:#181818;stroke-width:1.0;"/><text fill="#000000" font-family="Arial" font-size="13" lengthAdjust="spacing" textLength="42" x="458" y="384.4449">incluye</text></g><!--MD5=[b7918388a681f58c4ca22ddee4ca86c3]
link PAQUETE to SERVICIO--><g id="link_PAQUETE_SERVICIO"><path codeLine="78" d="M515.44,476.6879 C540.54,476.6879 568.65,476.6879 592.67,476.6879 " fill="none" id="PAQUETE-SERVICIO" style="stroke:#181818;stroke-width:1.0;"/><text fill="#000000" font-family="Arial" font-size="13" lengthAdjust="spacing" textLength="42" x="533" y="469.5849">incluye</text></g><!--MD5=[db839ad93d3aba4fedf50576859f9ea2]
reverse link USUARIO to EGRESADO--><g id="link_USUARIO_EGRESADO"><path codeLine="79" d="M119.31,360.3379 C112.13,383.7779 104.77,407.8179 98.64,427.8479 " fill="none" id="USUARIO-backto-EGRESADO" style="stroke:#181818;stroke-width:1.0;"/><polygon fill="none" points="112.54,358.5279,125.09,341.4479,125.93,362.6279,112.54,358.5279" style="stroke:#181818;stroke-width:1.0;"/></g><!--MD5=[85e57e957508214e429ff6fec829f4bc]
reverse link USUARIO to ADMINISTRADOR--><g id="link_USUARIO_ADMINISTRADOR"><path codeLine="80" d="M203.29,358.6179 C225.55,397.6779 248.93,438.7179 261.24,460.3079 " fill="none" id="USUARIO-backto-ADMINISTRADOR" style="stroke:#181818;stroke-width:1.0;"/><polygon fill="none" points="197.25,362.1579,193.43,341.3179,209.42,355.2279,197.25,362.1579" style="stroke:#181818;stroke-width:1.0;"/></g><!--MD5=[a6613485fba98ffe85dc90fc5392f614]
link PLATAFORMA to ADMINISTRADOR--><g id="link_PLATAFORMA_ADMINISTRADOR"><path codeLine="81" d="M336.2,106.5279 C329.22,128.0179 320.03,158.1479 314,185.1379 C290.76,289.1979 276.14,417.0079 271.55,460.4279 " fill="none" id="PLATAFORMA-ADMINISTRADOR" style="stroke:#181818;stroke-width:1.0;"/><text fill="#000000" font-family="Arial" font-size="13" lengthAdjust="spacing" textLength="64" x="315" y="267.7449">administra</text></g><!--MD5=[4799649b4421be345942a4b3f1ade8f2]
@startuml AumniClasses

title Diagrama de Clases

'!theme amiga
skinparam backgroundColor white
skinparam defaultFontName Arial

hide empty members

class PLATAFORMA 
{
   Alumni
}

abstract "SERVICIO EXTERNO"

abstract USUARIO 
{
    ID
    Nombre 
    Apellido
    Fecha de Nacimiento
    Email
    Foto de Perfil
}

class EGRESADO 
{
    Ubicacion
    Ocupación
    Carnet de Estudiante
}

class ADMINISTRADOR 
{
}

class REQUISITO 
{
    Titulación de UNEAT
}

class ESTADISTICA 
{
}

class SUSCRIPCIÓN 
{
    Paquetes Suscritos
    Servicios Suscritos
    Precio Total
}

class PAQUETE
{
    Nombre
    Descripción
    Servicios incluidos
    Precio
}

abstract SERVICIO 
{
    Nombre 
    Descripción
    precio
    tipo de servicio
}

PLATAFORMA - - USUARIO : tiene
PLATAFORMA -left ESTADISTICA : genera
PLATAFORMA -right- "SERVICIO EXTERNO" : se comunica
SERVICIO .up..|> "SERVICIO EXTERNO"
SUSCRIPCIÓN -up- PLATAFORMA : tiene
SUSCRIPCIÓN - - SERVICIO : incluye
EGRESADO - - REQUISITO : cumple
SUSCRIPCIÓN - - PAQUETE : incluye
PAQUETE - SERVICIO : incluye
USUARIO <|- - EGRESADO
USUARIO <|- - ADMINISTRADOR
ADMINISTRADOR -up- PLATAFORMA : administra

@enduml

@startuml AumniClasses

title Diagrama de Clases

skinparam backgroundColor white
skinparam defaultFontName Arial

hide empty members

class PLATAFORMA 
{
   Alumni
}

abstract "SERVICIO EXTERNO"

abstract USUARIO 
{
    ID
    Nombre 
    Apellido
    Fecha de Nacimiento
    Email
    Foto de Perfil
}

class EGRESADO 
{
    Ubicacion
    Ocupación
    Carnet de Estudiante
}

class ADMINISTRADOR 
{
}

class REQUISITO 
{
    Titulación de UNEAT
}

class ESTADISTICA 
{
}

class SUSCRIPCIÓN 
{
    Paquetes Suscritos
    Servicios Suscritos
    Precio Total
}

class PAQUETE
{
    Nombre
    Descripción
    Servicios incluidos
    Precio
}

abstract SERVICIO 
{
    Nombre 
    Descripción
    precio
    tipo de servicio
}

PLATAFORMA - - USUARIO : tiene
PLATAFORMA -left ESTADISTICA : genera
PLATAFORMA -right- "SERVICIO EXTERNO" : se comunica
SERVICIO .up..|> "SERVICIO EXTERNO"
SUSCRIPCIÓN -up- PLATAFORMA : tiene
SUSCRIPCIÓN - - SERVICIO : incluye
EGRESADO - - REQUISITO : cumple
SUSCRIPCIÓN - - PAQUETE : incluye
PAQUETE - SERVICIO : incluye
USUARIO <|- - EGRESADO
USUARIO <|- - ADMINISTRADOR
ADMINISTRADOR -up- PLATAFORMA : administra

@enduml

PlantUML version 1.2022.7(Mon Aug 22 19:01:30 CEST 2022)
(GPL source distribution)
Java Runtime: OpenJDK Runtime Environment
JVM: OpenJDK 64-Bit Server VM
Default Encoding: UTF-8
Language: es
Country: ES
--></g></svg>