<?xml version="1.0" encoding="UTF-8" standalone="no"?><svg xmlns="http://www.w3.org/2000/svg" xmlns:xlink="http://www.w3.org/1999/xlink" contentStyleType="text/css" height="660px" preserveAspectRatio="none" style="width:714px;height:660px;background:#FFFFFF;" version="1.1" viewBox="0 0 714 660" width="714px" zoomAndPan="magnify"><defs/><g><rect fill="#FFFFFF" height="29.0679" id="_title" style="stroke:none;stroke-width:1.0;" width="145" x="277.5" y="5"/><text fill="#000000" font-family="Arial" font-size="14" font-weight="bold" lengthAdjust="spacing" textLength="135" x="282.5" y="24.9659">Diagrama de Clases</text><!--MD5=[afbc64ec85fee769d333cf1533205623]
class PLATAFORMA--><g id="elem_PLATAFORMA"><rect codeLine="10" fill="#F1F1F1" height="59.0679" id="PLATAFORMA" rx="2.5" ry="2.5" style="stroke:#181818;stroke-width:0.5;" width="122" x="285" y="47.0679"/><ellipse cx="300" cy="63.0679" fill="#ADD1B2" rx="11" ry="11" style="stroke:#181818;stroke-width:1.0;"/><path d="M299.4688,69.9898 Q297.7188,69.9898 296.5781,69.2554 Q295.4531,68.5054 294.8906,67.1617 Q294.3438,65.8023 294.3438,64.0054 Q294.3438,61.9742 295,60.521 Q295.6563,59.0679 296.9375,58.2867 Q298.2188,57.5054 300.0938,57.5054 Q300.9844,57.5054 301.6563,57.6929 Q302.3281,57.8648 303.0156,58.2085 L302.2031,60.2242 Q301.5781,59.9117 301.0313,59.7867 Q300.5,59.6617 300.0156,59.6617 Q298.8438,59.6617 298.1406,60.1929 Q297.4375,60.7242 297.1406,61.6773 Q296.8438,62.6304 296.8438,63.896 Q296.8438,65.9117 297.5625,66.8804 Q298.2813,67.8335 299.875,67.8335 Q300.4688,67.8335 301.0938,67.6773 Q301.7188,67.521 302.5469,67.146 L302.5469,69.3648 Q301.8125,69.6773 301.0156,69.8335 Q300.2344,69.9898 299.4688,69.9898 Z " fill="#000000"/><text fill="#000000" font-family="Arial" font-size="14" lengthAdjust="spacing" textLength="90" x="314" y="68.4999">PLATAFORMA</text><line style="stroke:#181818;stroke-width:0.5;" x1="286" x2="406" y1="79.0679" y2="79.0679"/><text fill="#000000" font-family="Arial" font-size="14" lengthAdjust="spacing" textLength="48" x="291" y="98.0339">Alumni</text></g><!--MD5=[d487106a069dbf8887c3866d5775fb0b]
class SERVICIO EXTERNO--><g id="elem_SERVICIO EXTERNO"><rect codeLine="15" fill="#F1F1F1" height="32" id="SERVICIO EXTERNO" rx="2.5" ry="2.5" style="stroke:#181818;stroke-width:0.5;" width="150" x="543" y="60.6079"/><ellipse cx="558" cy="76.6079" fill="#A9DCDF" rx="11" ry="11" style="stroke:#181818;stroke-width:1.0;"/><path d="M553.1719,82.3579 L556.5156,70.1704 L559.6563,70.1704 L563.0313,82.3579 L560.5625,82.3579 L559.8281,79.3423 L556.3125,79.3423 L555.5625,82.3579 L553.1719,82.3579 Z M557.5781,74.311 L556.8281,77.311 L559.3438,77.311 L558.625,74.311 Q558.4844,73.7329 558.3594,73.186 Q558.2344,72.6235 558.0938,72.0454 Q557.9844,72.6235 557.8438,73.186 Q557.7031,73.7329 557.5781,74.311 Z " fill="#000000"/><text fill="#000000" font-family="Arial" font-size="14" font-style="italic" lengthAdjust="spacing" textLength="118" x="572" y="82.0399">SERVICIO EXTERNO</text></g><!--MD5=[9fb774ed7ae05b667c8401cd383f5fbb]
class USUARIO--><g id="elem_USUARIO"><rect codeLine="17" fill="#F1F1F1" height="135.3396" id="USUARIO" rx="2.5" ry="2.5" style="stroke:#181818;stroke-width:0.5;" width="153" x="72.5" y="185.1379"/><ellipse cx="116.75" cy="201.1379" fill="#A9DCDF" rx="11" ry="11" style="stroke:#181818;stroke-width:1.0;"/><path d="M111.9219,206.8879 L115.2656,194.7004 L118.4063,194.7004 L121.7813,206.8879 L119.3125,206.8879 L118.5781,203.8723 L115.0625,203.8723 L114.3125,206.8879 L111.9219,206.8879 Z M116.3281,198.841 L115.5781,201.841 L118.0938,201.841 L117.375,198.841 Q117.2344,198.2629 117.1094,197.716 Q116.9844,197.1535 116.8438,196.5754 Q116.7344,197.1535 116.5938,197.716 Q116.4531,198.2629 116.3281,198.841 Z " fill="#000000"/><text fill="#000000" font-family="Arial" font-size="14" font-style="italic" lengthAdjust="spacing" textLength="56" x="137.25" y="206.5699">USUARIO</text><line style="stroke:#181818;stroke-width:0.5;" x1="73.5" x2="224.5" y1="217.1379" y2="217.1379"/><text fill="#000000" font-family="Arial" font-size="14" lengthAdjust="spacing" textLength="15" x="78.5" y="236.1039">ID</text><text fill="#000000" font-family="Arial" font-size="14" lengthAdjust="spacing" textLength="55" x="78.5" y="255.1718">Nombre</text><text fill="#000000" font-family="Arial" font-size="14" lengthAdjust="spacing" textLength="55" x="78.5" y="274.2397">Apellido</text><text fill="#000000" font-family="Arial" font-size="14" lengthAdjust="spacing" textLength="141" x="78.5" y="293.3076">Fecha de Nacimiento</text><text fill="#000000" font-family="Arial" font-size="14" lengthAdjust="spacing" textLength="37" x="78.5" y="312.3755">Email</text></g><!--MD5=[2ab7582ab6c49ef72aa094ce2439025d]
class EGRESADO--><g id="elem_EGRESADO"><rect codeLine="26" fill="#F1F1F1" height="97.2038" id="EGRESADO" rx="2.5" ry="2.5" style="stroke:#181818;stroke-width:0.5;" width="154" x="7" y="409.0079"/><ellipse cx="44.05" cy="425.0079" fill="#ADD1B2" rx="11" ry="11" style="stroke:#181818;stroke-width:1.0;"/><path d="M43.5188,431.9298 Q41.7688,431.9298 40.6281,431.1954 Q39.5031,430.4454 38.9406,429.1017 Q38.3938,427.7423 38.3938,425.9454 Q38.3938,423.9142 39.05,422.461 Q39.7063,421.0079 40.9875,420.2267 Q42.2688,419.4454 44.1438,419.4454 Q45.0344,419.4454 45.7063,419.6329 Q46.3781,419.8048 47.0656,420.1485 L46.2531,422.1642 Q45.6281,421.8517 45.0813,421.7267 Q44.55,421.6017 44.0656,421.6017 Q42.8938,421.6017 42.1906,422.1329 Q41.4875,422.6642 41.1906,423.6173 Q40.8938,424.5704 40.8938,425.836 Q40.8938,427.8517 41.6125,428.8204 Q42.3313,429.7735 43.925,429.7735 Q44.5188,429.7735 45.1438,429.6173 Q45.7688,429.461 46.5969,429.086 L46.5969,431.3048 Q45.8625,431.6173 45.0656,431.7735 Q44.2844,431.9298 43.5188,431.9298 Z " fill="#000000"/><text fill="#000000" font-family="Arial" font-size="14" lengthAdjust="spacing" textLength="73" x="62.95" y="430.4399">EGRESADO</text><line style="stroke:#181818;stroke-width:0.5;" x1="8" x2="160" y1="441.0079" y2="441.0079"/><text fill="#000000" font-family="Arial" font-size="14" lengthAdjust="spacing" textLength="66" x="13" y="459.9739">Ubicacion</text><text fill="#000000" font-family="Arial" font-size="14" lengthAdjust="spacing" textLength="72" x="13" y="479.0418">Ocupación</text><text fill="#000000" font-family="Arial" font-size="14" lengthAdjust="spacing" textLength="142" x="13" y="498.1097">Carnet de Estudiante</text></g><!--MD5=[4c1736d2acf393d1932c4bd71ed8c52b]
class ADMINISTRADOR--><g id="elem_ADMINISTRADOR"><rect codeLine="33" fill="#F1F1F1" height="32" id="ADMINISTRADOR" rx="2.5" ry="2.5" style="stroke:#181818;stroke-width:0.5;" width="149" x="195.5" y="441.6179"/><ellipse cx="210.5" cy="457.6179" fill="#ADD1B2" rx="11" ry="11" style="stroke:#181818;stroke-width:1.0;"/><path d="M209.9688,464.5398 Q208.2188,464.5398 207.0781,463.8054 Q205.9531,463.0554 205.3906,461.7117 Q204.8438,460.3523 204.8438,458.5554 Q204.8438,456.5242 205.5,455.071 Q206.1563,453.6179 207.4375,452.8367 Q208.7188,452.0554 210.5938,452.0554 Q211.4844,452.0554 212.1563,452.2429 Q212.8281,452.4148 213.5156,452.7585 L212.7031,454.7742 Q212.0781,454.4617 211.5313,454.3367 Q211,454.2117 210.5156,454.2117 Q209.3438,454.2117 208.6406,454.7429 Q207.9375,455.2742 207.6406,456.2273 Q207.3438,457.1804 207.3438,458.446 Q207.3438,460.4617 208.0625,461.4304 Q208.7813,462.3835 210.375,462.3835 Q210.9688,462.3835 211.5938,462.2273 Q212.2188,462.071 213.0469,461.696 L213.0469,463.9148 Q212.3125,464.2273 211.5156,464.3835 Q210.7344,464.5398 209.9688,464.5398 Z " fill="#000000"/><text fill="#000000" font-family="Arial" font-size="14" lengthAdjust="spacing" textLength="117" x="224.5" y="463.0499">ADMINISTRADOR</text></g><!--MD5=[a63780b95c376d0ca261608ab8f4ee8f]
class REQUISITO--><g id="elem_REQUISITO"><rect codeLine="37" fill="#F1F1F1" height="59.0679" id="REQUISITO" rx="2.5" ry="2.5" style="stroke:#181818;stroke-width:0.5;" width="149" x="9.5" y="594.7479"/><ellipse cx="43.4" cy="610.7479" fill="#ADD1B2" rx="11" ry="11" style="stroke:#181818;stroke-width:1.0;"/><path d="M42.8688,617.6698 Q41.1188,617.6698 39.9781,616.9354 Q38.8531,616.1854 38.2906,614.8417 Q37.7438,613.4823 37.7438,611.6854 Q37.7438,609.6542 38.4,608.201 Q39.0563,606.7479 40.3375,605.9667 Q41.6188,605.1854 43.4938,605.1854 Q44.3844,605.1854 45.0563,605.3729 Q45.7281,605.5448 46.4156,605.8885 L45.6031,607.9042 Q44.9781,607.5917 44.4313,607.4667 Q43.9,607.3417 43.4156,607.3417 Q42.2438,607.3417 41.5406,607.8729 Q40.8375,608.4042 40.5406,609.3573 Q40.2438,610.3104 40.2438,611.576 Q40.2438,613.5917 40.9625,614.5604 Q41.6813,615.5135 43.275,615.5135 Q43.8688,615.5135 44.4938,615.3573 Q45.1188,615.201 45.9469,614.826 L45.9469,617.0448 Q45.2125,617.3573 44.4156,617.5135 Q43.6344,617.6698 42.8688,617.6698 Z " fill="#000000"/><text fill="#000000" font-family="Arial" font-size="14" lengthAdjust="spacing" textLength="75" x="61.6" y="616.1799">REQUISITO</text><line style="stroke:#181818;stroke-width:0.5;" x1="10.5" x2="157.5" y1="626.7479" y2="626.7479"/><text fill="#000000" font-family="Arial" font-size="14" lengthAdjust="spacing" textLength="137" x="15.5" y="645.7139">Titulación de UNEAT</text></g><!--MD5=[4fba4a15a69a30bd8d74d766c660e0fd]
class ESTADISTICA--><g id="elem_ESTADISTICA"><rect codeLine="42" fill="#F1F1F1" height="32" id="ESTADISTICA" rx="2.5" ry="2.5" style="stroke:#181818;stroke-width:0.5;" width="119" x="87.5" y="60.6079"/><ellipse cx="102.5" cy="76.6079" fill="#ADD1B2" rx="11" ry="11" style="stroke:#181818;stroke-width:1.0;"/><path d="M101.9688,83.5298 Q100.2188,83.5298 99.0781,82.7954 Q97.9531,82.0454 97.3906,80.7017 Q96.8438,79.3423 96.8438,77.5454 Q96.8438,75.5142 97.5,74.061 Q98.1563,72.6079 99.4375,71.8267 Q100.7188,71.0454 102.5938,71.0454 Q103.4844,71.0454 104.1563,71.2329 Q104.8281,71.4048 105.5156,71.7485 L104.7031,73.7642 Q104.0781,73.4517 103.5313,73.3267 Q103,73.2017 102.5156,73.2017 Q101.3438,73.2017 100.6406,73.7329 Q99.9375,74.2642 99.6406,75.2173 Q99.3438,76.1704 99.3438,77.436 Q99.3438,79.4517 100.0625,80.4204 Q100.7813,81.3735 102.375,81.3735 Q102.9688,81.3735 103.5938,81.2173 Q104.2188,81.061 105.0469,80.686 L105.0469,82.9048 Q104.3125,83.2173 103.5156,83.3735 Q102.7344,83.5298 101.9688,83.5298 Z " fill="#000000"/><text fill="#000000" font-family="Arial" font-size="14" lengthAdjust="spacing" textLength="87" x="116.5" y="82.0399">ESTADISTICA</text></g><!--MD5=[19899f9ca578ac9ce8c1dbc8b9bc3638]
class SUSCRIPCIÓN--><g id="elem_SUSCRIPCIÓN"><rect codeLine="46" fill="#F1F1F1" height="97.2038" id="SUSCRIPCIÓN" rx="2.5" ry="2.5" style="stroke:#181818;stroke-width:0.5;" width="139" x="397.5" y="204.2079"/><ellipse cx="418.8" cy="220.2079" fill="#ADD1B2" rx="11" ry="11" style="stroke:#181818;stroke-width:1.0;"/><path d="M418.2688,227.1298 Q416.5188,227.1298 415.3781,226.3954 Q414.2531,225.6454 413.6906,224.3017 Q413.1438,222.9423 413.1438,221.1454 Q413.1438,219.1142 413.8,217.661 Q414.4563,216.2079 415.7375,215.4267 Q417.0188,214.6454 418.8938,214.6454 Q419.7844,214.6454 420.4563,214.8329 Q421.1281,215.0048 421.8156,215.3485 L421.0031,217.3642 Q420.3781,217.0517 419.8313,216.9267 Q419.3,216.8017 418.8156,216.8017 Q417.6438,216.8017 416.9406,217.3329 Q416.2375,217.8642 415.9406,218.8173 Q415.6438,219.7704 415.6438,221.036 Q415.6438,223.0517 416.3625,224.0204 Q417.0813,224.9735 418.675,224.9735 Q419.2688,224.9735 419.8938,224.8173 Q420.5188,224.661 421.3469,224.286 L421.3469,226.5048 Q420.6125,226.8173 419.8156,226.9735 Q419.0344,227.1298 418.2688,227.1298 Z " fill="#000000"/><text fill="#000000" font-family="Arial" font-size="14" lengthAdjust="spacing" textLength="93" x="434.2" y="225.6399">SUSCRIPCIÓN</text><line style="stroke:#181818;stroke-width:0.5;" x1="398.5" x2="535.5" y1="236.2079" y2="236.2079"/><text fill="#000000" font-family="Arial" font-size="14" lengthAdjust="spacing" textLength="127" x="403.5" y="255.1739">Paquetes Suscritos</text><text fill="#000000" font-family="Arial" font-size="14" lengthAdjust="spacing" textLength="124" x="403.5" y="274.2418">Servicios Suscritos</text><text fill="#000000" font-family="Arial" font-size="14" lengthAdjust="spacing" textLength="78" x="403.5" y="293.3097">Precio Total</text></g><!--MD5=[400228ae5d671c1e1fdff589fc59b7ba]
class PAQUETE--><g id="elem_PAQUETE"><rect codeLine="53" fill="#F1F1F1" height="116.2717" id="PAQUETE" rx="2.5" ry="2.5" style="stroke:#181818;stroke-width:0.5;" width="136" x="379" y="399.4779"/><ellipse cx="412.9" cy="415.4779" fill="#ADD1B2" rx="11" ry="11" style="stroke:#181818;stroke-width:1.0;"/><path d="M412.3688,422.3998 Q410.6188,422.3998 409.4781,421.6654 Q408.3531,420.9154 407.7906,419.5717 Q407.2438,418.2123 407.2438,416.4154 Q407.2438,414.3842 407.9,412.931 Q408.5563,411.4779 409.8375,410.6967 Q411.1188,409.9154 412.9938,409.9154 Q413.8844,409.9154 414.5563,410.1029 Q415.2281,410.2748 415.9156,410.6185 L415.1031,412.6342 Q414.4781,412.3217 413.9313,412.1967 Q413.4,412.0717 412.9156,412.0717 Q411.7438,412.0717 411.0406,412.6029 Q410.3375,413.1342 410.0406,414.0873 Q409.7438,415.0404 409.7438,416.306 Q409.7438,418.3217 410.4625,419.2904 Q411.1813,420.2435 412.775,420.2435 Q413.3688,420.2435 413.9938,420.0873 Q414.6188,419.931 415.4469,419.556 L415.4469,421.7748 Q414.7125,422.0873 413.9156,422.2435 Q413.1344,422.3998 412.3688,422.3998 Z " fill="#000000"/><text fill="#000000" font-family="Arial" font-size="14" lengthAdjust="spacing" textLength="62" x="431.1" y="420.9099">PAQUETE</text><line style="stroke:#181818;stroke-width:0.5;" x1="380" x2="514" y1="431.4779" y2="431.4779"/><text fill="#000000" font-family="Arial" font-size="14" lengthAdjust="spacing" textLength="55" x="385" y="450.4439">Nombre</text><text fill="#000000" font-family="Arial" font-size="14" lengthAdjust="spacing" textLength="79" x="385" y="469.5118">Descripción</text><text fill="#000000" font-family="Arial" font-size="14" lengthAdjust="spacing" textLength="124" x="385" y="488.5797">Servicios incluidos</text><text fill="#000000" font-family="Arial" font-size="14" lengthAdjust="spacing" textLength="41" x="385" y="507.6476">Precio</text></g><!--MD5=[30a145389985b39b0bce1272ac991c13]
class SERVICIO--><g id="elem_SERVICIO"><rect codeLine="61" fill="#F1F1F1" height="116.2717" id="SERVICIO" rx="2.5" ry="2.5" style="stroke:#181818;stroke-width:0.5;" width="114" x="593" y="399.4779"/><ellipse cx="618.8" cy="415.4779" fill="#A9DCDF" rx="11" ry="11" style="stroke:#181818;stroke-width:1.0;"/><path d="M613.9719,421.2279 L617.3156,409.0404 L620.4563,409.0404 L623.8313,421.2279 L621.3625,421.2279 L620.6281,418.2123 L617.1125,418.2123 L616.3625,421.2279 L613.9719,421.2279 Z M618.3781,413.181 L617.6281,416.181 L620.1438,416.181 L619.425,413.181 Q619.2844,412.6029 619.1594,412.056 Q619.0344,411.4935 618.8938,410.9154 Q618.7844,411.4935 618.6438,412.056 Q618.5031,412.6029 618.3781,413.181 Z " fill="#000000"/><text fill="#000000" font-family="Arial" font-size="14" font-style="italic" lengthAdjust="spacing" textLength="58" x="635.2" y="420.9099">SERVICIO</text><line style="stroke:#181818;stroke-width:0.5;" x1="594" x2="706" y1="431.4779" y2="431.4779"/><text fill="#000000" font-family="Arial" font-size="14" lengthAdjust="spacing" textLength="55" x="599" y="450.4439">Nombre</text><text fill="#000000" font-family="Arial" font-size="14" lengthAdjust="spacing" textLength="79" x="599" y="469.5118">Descripción</text><text fill="#000000" font-family="Arial" font-size="14" lengthAdjust="spacing" textLength="42" x="599" y="488.5797">precio</text><text fill="#000000" font-family="Arial" font-size="14" lengthAdjust="spacing" textLength="102" x="599" y="507.6476">tipo de servicio</text></g><!--MD5=[aee84f5e9adb0dacda05fef5b14305a9]
link PLATAFORMA to USUARIO--><g id="link_PLATAFORMA_USUARIO"><path codeLine="69" d="M284.56,105.1679 C268.53,113.8579 251.88,124.3079 238,136.1379 C221.51,150.1879 206.11,167.7579 192.91,184.9279 " fill="none" id="PLATAFORMA-USUARIO" style="stroke:#181818;stroke-width:1.0;"/><text fill="#000000" font-family="Arial" font-size="13" lengthAdjust="spacing" textLength="30" x="239" y="151.0349">tiene</text></g><!--MD5=[4ce2dad9ce5e9d7d6fabe6fa93b0d06b]
link ESTADISTICA to PLATAFORMA--><g id="link_ESTADISTICA_PLATAFORMA"><path codeLine="70" d="M206.98,76.6079 C231.58,76.6079 260.04,76.6079 284.77,76.6079 " fill="none" id="ESTADISTICA-PLATAFORMA" style="stroke:#181818;stroke-width:1.0;"/><text fill="#000000" font-family="Arial" font-size="13" lengthAdjust="spacing" textLength="42" x="224.75" y="69.5049">genera</text></g><!--MD5=[0ac78335b74149db01d155f83d2f6f8a]
link PLATAFORMA to SERVICIO EXTERNO--><g id="link_PLATAFORMA_SERVICIO EXTERNO"><path codeLine="71" d="M407.38,76.6079 C447.41,76.6079 499.94,76.6079 542.52,76.6079 " fill="none" id="PLATAFORMA-SERVICIO EXTERNO" style="stroke:#181818;stroke-width:1.0;"/><text fill="#000000" font-family="Arial" font-size="13" lengthAdjust="spacing" textLength="74" x="438" y="69.5049">se comunica</text></g><!--MD5=[7073acf3b9b6d3a2af23efe4bf029300]
reverse link SERVICIO EXTERNO to SERVICIO--><g id="link_SERVICIO EXTERNO_SERVICIO"><path codeLine="72" d="M621.07,114.0179 C626.65,180.1079 638.49,320.2779 645.16,399.3079 " fill="none" id="SERVICIO EXTERNO-backto-SERVICIO" style="stroke:#181818;stroke-width:1.0;stroke-dasharray:7.0,7.0;"/><polygon fill="none" points="614.13,114.9579,619.42,94.4379,628.08,113.7779,614.13,114.9579" style="stroke:#181818;stroke-width:1.0;"/></g><!--MD5=[5bd0185b5c810bbfd8214df6d4a3435e]
link PLATAFORMA to SUSCRIPCIÓN--><g id="link_PLATAFORMA_SUSCRIPCIÓN"><path codeLine="73" d="M365.98,106.3679 C384.37,132.8479 412.01,172.6379 433.73,203.9079 " fill="none" id="PLATAFORMA-SUSCRIPCIÓN" style="stroke:#181818;stroke-width:1.0;"/><text fill="#000000" font-family="Arial" font-size="13" lengthAdjust="spacing" textLength="30" x="401" y="151.0349">tiene</text></g><!--MD5=[7a78beded7e279d7942fce86d4482847]
link SUSCRIPCIÓN to SERVICIO--><g id="link_SUSCRIPCIÓN_SERVICIO"><path codeLine="74" d="M510.37,301.8679 C536.69,331.0379 570.43,368.4379 598.15,399.1579 " fill="none" id="SUSCRIPCIÓN-SERVICIO" style="stroke:#181818;stroke-width:1.0;"/><text fill="#000000" font-family="Arial" font-size="13" lengthAdjust="spacing" textLength="42" x="570" y="365.3749">incluye</text></g><!--MD5=[dddc89fd371c160f93cf11b7ec7e78d6]
link EGRESADO to REQUISITO--><g id="link_EGRESADO_REQUISITO"><path codeLine="75" d="M84,506.6879 C84,535.1679 84,570.2979 84,594.5179 " fill="none" id="EGRESADO-REQUISITO" style="stroke:#181818;stroke-width:1.0;"/><text fill="#000000" font-family="Arial" font-size="13" lengthAdjust="spacing" textLength="44" x="85" y="560.6449">cumple</text></g><!--MD5=[0ae76caab6403afd96ace9cd4635e9a5]
link SUSCRIPCIÓN to PAQUETE--><g id="link_SUSCRIPCIÓN_PAQUETE"><path codeLine="76" d="M462.26,301.8679 C459.38,331.0379 455.7,368.4379 452.67,399.1579 " fill="none" id="SUSCRIPCIÓN-PAQUETE" style="stroke:#181818;stroke-width:1.0;"/><text fill="#000000" font-family="Arial" font-size="13" lengthAdjust="spacing" textLength="42" x="458" y="365.3749">incluye</text></g><!--MD5=[b7918388a681f58c4ca22ddee4ca86c3]
link PAQUETE to SERVICIO--><g id="link_PAQUETE_SERVICIO"><path codeLine="77" d="M515.44,457.6179 C540.54,457.6179 568.65,457.6179 592.67,457.6179 " fill="none" id="PAQUETE-SERVICIO" style="stroke:#181818;stroke-width:1.0;"/><text fill="#000000" font-family="Arial" font-size="13" lengthAdjust="spacing" textLength="42" x="533" y="450.5149">incluye</text></g><!--MD5=[db839ad93d3aba4fedf50576859f9ea2]
reverse link USUARIO to EGRESADO--><g id="link_USUARIO_EGRESADO"><path codeLine="78" d="M121,341.1779 C113.58,364.3179 105.84,388.4679 99.37,408.6479 " fill="none" id="USUARIO-backto-EGRESADO" style="stroke:#181818;stroke-width:1.0;"/><polygon fill="none" points="114.3,339.1279,127.07,322.2179,127.64,343.3979,114.3,339.1279" style="stroke:#181818;stroke-width:1.0;"/></g><!--MD5=[85e57e957508214e429ff6fec829f4bc]
reverse link USUARIO to ADMINISTRADOR--><g id="link_USUARIO_ADMINISTRADOR"><path codeLine="79" d="M199.87,339.0779 C222.9,377.6779 247.84,419.4779 260.88,441.3279 " fill="none" id="USUARIO-backto-ADMINISTRADOR" style="stroke:#181818;stroke-width:1.0;"/><polygon fill="none" points="193.97,342.8379,189.73,322.0779,205.99,335.6679,193.97,342.8379" style="stroke:#181818;stroke-width:1.0;"/></g><!--MD5=[a6613485fba98ffe85dc90fc5392f614]
link PLATAFORMA to ADMINISTRADOR--><g id="link_PLATAFORMA_ADMINISTRADOR"><path codeLine="80" d="M336.28,106.5479 C329.34,128.0379 320.17,158.1779 314,185.1379 C291.95,281.4879 276.79,399.5179 271.8,441.1779 " fill="none" id="PLATAFORMA-ADMINISTRADOR" style="stroke:#181818;stroke-width:1.0;"/><text fill="#000000" font-family="Arial" font-size="13" lengthAdjust="spacing" textLength="64" x="315" y="258.2049">administra</text></g><!--MD5=[eb9fe9e64593da0e26b839b77f0f51ee]
@startuml AumniClasses

title Diagrama de Clases

'!theme amiga
skinparam backgroundColor white
skinparam defaultFontName Arial

hide empty members

class PLATAFORMA 
{
   Alumni
}

abstract "SERVICIO EXTERNO"

abstract USUARIO 
{
    ID
    Nombre 
    Apellido
    Fecha de Nacimiento
    Email
}

class EGRESADO 
{
    Ubicacion
    Ocupación
    Carnet de Estudiante
}

class ADMINISTRADOR 
{
}

class REQUISITO 
{
    Titulación de UNEAT
}

class ESTADISTICA 
{
}

class SUSCRIPCIÓN 
{
    Paquetes Suscritos
    Servicios Suscritos
    Precio Total
}

class PAQUETE
{
    Nombre
    Descripción
    Servicios incluidos
    Precio
}

abstract SERVICIO 
{
    Nombre 
    Descripción
    precio
    tipo de servicio
}

PLATAFORMA - - USUARIO : tiene
PLATAFORMA -left ESTADISTICA : genera
PLATAFORMA -right- "SERVICIO EXTERNO" : se comunica
SERVICIO .up..|> "SERVICIO EXTERNO"
SUSCRIPCIÓN -up- PLATAFORMA : tiene
SUSCRIPCIÓN - - SERVICIO : incluye
EGRESADO - - REQUISITO : cumple
SUSCRIPCIÓN - - PAQUETE : incluye
PAQUETE - SERVICIO : incluye
USUARIO <|- - EGRESADO
USUARIO <|- - ADMINISTRADOR
ADMINISTRADOR -up- PLATAFORMA : administra

@enduml

@startuml AumniClasses

title Diagrama de Clases

skinparam backgroundColor white
skinparam defaultFontName Arial

hide empty members

class PLATAFORMA 
{
   Alumni
}

abstract "SERVICIO EXTERNO"

abstract USUARIO 
{
    ID
    Nombre 
    Apellido
    Fecha de Nacimiento
    Email
}

class EGRESADO 
{
    Ubicacion
    Ocupación
    Carnet de Estudiante
}

class ADMINISTRADOR 
{
}

class REQUISITO 
{
    Titulación de UNEAT
}

class ESTADISTICA 
{
}

class SUSCRIPCIÓN 
{
    Paquetes Suscritos
    Servicios Suscritos
    Precio Total
}

class PAQUETE
{
    Nombre
    Descripción
    Servicios incluidos
    Precio
}

abstract SERVICIO 
{
    Nombre 
    Descripción
    precio
    tipo de servicio
}

PLATAFORMA - - USUARIO : tiene
PLATAFORMA -left ESTADISTICA : genera
PLATAFORMA -right- "SERVICIO EXTERNO" : se comunica
SERVICIO .up..|> "SERVICIO EXTERNO"
SUSCRIPCIÓN -up- PLATAFORMA : tiene
SUSCRIPCIÓN - - SERVICIO : incluye
EGRESADO - - REQUISITO : cumple
SUSCRIPCIÓN - - PAQUETE : incluye
PAQUETE - SERVICIO : incluye
USUARIO <|- - EGRESADO
USUARIO <|- - ADMINISTRADOR
ADMINISTRADOR -up- PLATAFORMA : administra

@enduml

PlantUML version 1.2022.7(Mon Aug 22 19:01:30 CEST 2022)
(GPL source distribution)
Java Runtime: OpenJDK Runtime Environment
JVM: OpenJDK 64-Bit Server VM
Default Encoding: UTF-8
Language: es
Country: ES
--></g></svg>