<svg xmlns="http://www.w3.org/2000/svg" xmlns:xlink="http://www.w3.org/1999/xlink" contentStyleType="text/css" height="366px" preserveAspectRatio="none" style="width:502px;height:366px;background:#FFFFFF;" version="1.1" viewBox="0 0 502 366" width="502px" zoomAndPan="magnify"><defs/><g><text fill="#000000" font-family="sans-serif" font-size="14" font-weight="bold" lengthAdjust="spacing" textLength="190" x="149.4233" y="22.9951">Registro en plataforma</text><!--entity Egresado--><g id="elem_Egresado"><ellipse cx="229.5" cy="51.2969" fill="#F1F1F1" rx="8" ry="8" style="stroke:#181818;stroke-width:0.5;"/><path d="M229.5,59.2969 L229.5,86.2969 M216.5,67.2969 L242.5,67.2969 M229.5,86.2969 L216.5,101.2969 M229.5,86.2969 L242.5,101.2969 " fill="none" style="stroke:#181818;stroke-width:0.5;"/><text fill="#000000" font-family="sans-serif" font-size="14" lengthAdjust="spacing" textLength="66" x="196.5" y="115.792">Egresado</text></g><g id="elem_Registro en plataforma"><ellipse cx="229.3371" cy="202.4643" fill="#F1F1F1" rx="101.3371" ry="22.6674" style="stroke:#181818;stroke-width:0.5;"/><text fill="#000000" font-family="sans-serif" font-size="14" lengthAdjust="spacing" textLength="167" x="145.8371" y="205.311">Registro en plataforma</text></g><g id="elem_Suscipción a servicio"><ellipse cx="98.3318" cy="331.1632" fill="#F1F1F1" rx="92.3318" ry="20.8664" style="stroke:#181818;stroke-width:0.5;"/><text fill="#000000" font-family="sans-serif" font-size="14" lengthAdjust="spacing" textLength="147" x="24.8318" y="334.0099">Suscipción a servicio</text></g><g id="elem_Suscipción a paquete de servicios"><ellipse cx="361.4233" cy="331.2815" fill="#F1F1F1" rx="135.4233" ry="29.4847" style="stroke:#181818;stroke-width:0.5;"/><text fill="#000000" font-family="sans-serif" font-size="14" lengthAdjust="spacing" textLength="240" x="241.4233" y="334.1282">Suscipción a paquete de servicios</text></g><!--link Egresado to Registro en plataforma--><g id="link_Egresado_Registro en plataforma"><path d="M229.5,118.9519 C229.5,138.8219 229.5,156.5999 229.5,173.4849 " fill="none" id="Egresado-to-Registro en plataforma" style="stroke:#181818;stroke-width:1.0;"/><polygon fill="#181818" points="229.5,179.4849,233.5,170.4849,229.5,174.4849,225.5,170.4849,229.5,179.4849" style="stroke:#181818;stroke-width:1.0;"/></g><!--link Registro en plataforma to Suscipci?n a servicio--><g id="link_Registro en plataforma_Suscipción a servicio"><path d="M207.574,224.5539 C182.809,248.5619 147.144,283.1386 123.081,306.4662 " fill="none" id="Registro en plataforma-to-Suscipción a servicio" style="stroke:#181818;stroke-width:1.0;"/><polygon fill="#181818" points="118.773,310.6425,128.0191,307.25,122.363,307.1622,122.4507,301.5061,118.773,310.6425" style="stroke:#181818;stroke-width:1.0;"/><text fill="#000000" font-family="sans-serif" font-size="13" lengthAdjust="spacing" textLength="61" x="177.5" y="267.8638">«include»</text></g><!--link Registro en plataforma to Suscipci?n a paquete de servicios--><g id="link_Registro en plataforma_Suscipción a paquete de servicios"><path d="M251.594,224.5539 C273.758,245.8789 303.6903,274.6767 328.0613,298.125 " fill="none" id="Registro en plataforma-to-Suscipción a paquete de servicios" style="stroke:#181818;stroke-width:1.0;"/><polygon fill="#181818" points="332.385,302.285,328.6728,293.1625,328.7819,298.8183,323.1261,298.9274,332.385,302.285" style="stroke:#181818;stroke-width:1.0;"/><text fill="#000000" font-family="sans-serif" font-size="13" lengthAdjust="spacing" textLength="61" x="299.5" y="267.8638">«include»</text></g><!--SRC=[bSon3G8n38NXFbEyaYjk0NHAnm8mWUMOawMG1CTXCKPWiIiG50WAkYSz_P-hPy5HLkrk5LBGCZcTgrqe16AlXiDgqYdL45uBynon-rvDuTVnh4wZipRMnxs0qCLkobedxB4iMZYF937-PJIw3d51aZVNFxmD]--></g><script xmlns=""/></svg>