<?xml version="1.0" encoding="UTF-8" standalone="no"?><svg xmlns="http://www.w3.org/2000/svg" xmlns:xlink="http://www.w3.org/1999/xlink" contentStyleType="text/css" height="387px" preserveAspectRatio="none" style="width:513px;height:387px;background:#FFFFFF;" version="1.1" viewBox="0 0 513 387" width="513px" zoomAndPan="magnify"><defs/><g><rect fill="none" height="27.6094" id="_title" style="stroke:none;stroke-width:1.0;" width="176" x="161.75" y="5"/><text fill="#000000" font-family="sans-serif" font-size="14" font-weight="bold" lengthAdjust="spacing" textLength="166" x="166.75" y="24.5332">Contexto Administrador</text><ellipse cx="64.5" cy="54.6094" fill="#222222" rx="10" ry="10" style="stroke:none;stroke-width:1.0;"/><rect fill="#F1F1F1" height="40" rx="12.5" ry="12.5" style="stroke:#181818;stroke-width:0.5;" width="115" x="7" y="125.6094"/><text fill="#000000" font-family="sans-serif" font-size="14" lengthAdjust="spacing" textLength="105" x="12" y="151.3379">INICIAR_SESIÓN</text><rect fill="#F1F1F1" height="40" rx="12.5" ry="12.5" style="stroke:#181818;stroke-width:0.5;" width="50" x="39.5" y="243.6094"/><text fill="#000000" font-family="sans-serif" font-size="14" lengthAdjust="spacing" textLength="39" x="45" y="269.3379">INICIO</text><rect fill="#F1F1F1" height="40" rx="12.5" ry="12.5" style="stroke:#181818;stroke-width:0.5;" width="200" x="307.5" y="243.6094"/><text fill="#000000" font-family="sans-serif" font-size="14" lengthAdjust="spacing" textLength="190" x="312.5" y="269.3379">CONSULTAR_ESTADÍSTICAS</text><rect fill="#F1F1F1" height="40" rx="12.5" ry="12.5" style="stroke:#181818;stroke-width:0.5;" width="147" x="125" y="243.6094"/><text fill="#000000" font-family="sans-serif" font-size="14" lengthAdjust="spacing" textLength="137" x="130" y="269.3379">REALIZAR_PETICIÓN</text><ellipse cx="64.5" cy="371.6094" fill="none" rx="10" ry="10" style="stroke:#222222;stroke-width:1.0;"/><ellipse cx="65" cy="372.1094" fill="#222222" rx="6" ry="6" style="stroke:none;stroke-width:1.0;"/><!--MD5=[fffa5c9a6c2a3d9bbcf62492fefaaec1]
link *start to INICIAR_SESIÓN--><g id="link_*start_INICIAR_SESIÓN"><path d="M64.5,64.7994 C64.5,77.7894 64.5,101.9894 64.5,120.3394 " fill="none" id="*start-to-INICIAR_SESIÓN" style="stroke:#181818;stroke-width:1.0;"/><polygon fill="#181818" points="64.5,125.3494,68.5,116.3494,64.5,120.3494,60.5,116.3494,64.5,125.3494" style="stroke:#181818;stroke-width:1.0;"/></g><!--MD5=[66837f7cee128dc6ca7363ed13e0752f]
link INICIAR_SESIÓN to INICIO--><g id="link_INICIAR_SESIÓN_INICIO"><path d="M64.5,165.7694 C64.5,185.5794 64.5,216.5894 64.5,238.1594 " fill="none" id="INICIAR_SESIÓN-to-INICIO" style="stroke:#181818;stroke-width:1.0;"/><polygon fill="#181818" points="64.5,243.4294,68.5,234.4294,64.5,238.4294,60.5,234.4294,64.5,243.4294" style="stroke:#181818;stroke-width:1.0;"/><text fill="#000000" font-family="sans-serif" font-size="13" lengthAdjust="spacing" textLength="78" x="65.5" y="210.1045">Iniciar Sesión</text></g><!--MD5=[9f818b5dacd1eec9e1cf781a2ec84515]
link INICIO to CONSULTAR_ESTADÍSTICAS--><g id="link_INICIO_CONSULTAR_ESTADÍSTICAS"><path d="M88.32,243.5694 C103.05,231.1694 119.17,217.6094 119.17,217.6094 C119.17,217.6094 277.83,217.6094 277.83,217.6094 C277.83,217.6094 312.56,229.9294 346.07,241.8194 " fill="none" id="INICIO-to-CONSULTAR_ESTADÍSTICAS" style="stroke:#181818;stroke-width:1.0;"/><polygon fill="#181818" points="351,243.5694,343.854,236.7918,346.2874,241.8986,341.1807,244.332,351,243.5694" style="stroke:#181818;stroke-width:1.0;"/></g><!--MD5=[deae13f62dae285be55277b7d3ca542e]
reverse link INICIO to CONSULTAR_ESTADÍSTICAS--><g id="link_INICIO_CONSULTAR_ESTADÍSTICAS"><path d="M86.51,239.7194 C105.82,218.7594 130.83,191.6094 130.83,191.6094 C130.83,191.6094 266.17,191.6094 266.17,191.6094 C266.17,191.6094 326.31,222.2494 368.13,243.5494 " fill="none" id="INICIO-backto-CONSULTAR_ESTADÍSTICAS" style="stroke:#181818;stroke-width:1.0;"/><polygon fill="#181818" points="82.98,243.5494,92.0218,239.6449,86.3696,239.8737,86.1408,234.2215,82.98,243.5494" style="stroke:#181818;stroke-width:1.0;"/></g><!--MD5=[54daac3723ac904cae19f5aa971c4eb4]
link INICIO to REALIZAR_PETICIÓN--><g id="link_INICIO_REALIZAR_PETICIÓN"><path d="M89.71,274.8994 C99.84,279.4294 109.17,283.6094 109.17,283.6094 C109.17,283.6094 113.49,283.6094 119.46,283.6094 " fill="none" id="INICIO-to-REALIZAR_PETICIÓN" style="stroke:#181818;stroke-width:1.0;"/><polygon fill="#181818" points="124.79,283.6094,115.79,279.6094,119.79,283.6094,115.79,287.6094,124.79,283.6094" style="stroke:#181818;stroke-width:1.0;"/></g><!--MD5=[872c84babf2c185a47c8ce16a9fecf8b]
reverse link INICIO to REALIZAR_PETICIÓN--><g id="link_INICIO_REALIZAR_PETICIÓN"><path d="M94.36,250.2394 C102.52,246.5794 109.17,243.6094 109.17,243.6094 C109.17,243.6094 116.26,243.6094 124.79,243.6094 " fill="none" id="INICIO-backto-REALIZAR_PETICIÓN" style="stroke:#181818;stroke-width:1.0;"/><polygon fill="#181818" points="89.71,252.3194,99.5588,252.2994,94.2749,250.2794,96.2949,244.9955,89.71,252.3194" style="stroke:#181818;stroke-width:1.0;"/></g><!--MD5=[0876ba8a88d8bbcf732e506fae106d5c]
link INICIO to *end--><g id="link_INICIO_*end"><path d="M64.5,284.0494 C64.5,304.8494 64.5,337.3594 64.5,356.0594 " fill="none" id="INICIO-to-*end" style="stroke:#181818;stroke-width:1.0;"/><polygon fill="#181818" points="64.5,361.3894,68.5,352.3894,64.5,356.3894,60.5,352.3894,64.5,361.3894" style="stroke:#181818;stroke-width:1.0;"/><text fill="#000000" font-family="sans-serif" font-size="13" lengthAdjust="spacing" textLength="79" x="65.5" y="328.1045">Cerrar Sesión</text></g><!--MD5=[f7b3749c417a34da85024afc6eb44f22]
@startuml Contexto
title Contexto Administrador

skinparam {
    NoteBackgroundColor #whiteSmoke
    NoteBorderColor #green
    linetype polyline
}

hide empty description

[*] - -> INICIAR_SESIÓN
INICIAR_SESIÓN - -> INICIO : Iniciar Sesión

INICIO -> CONSULTAR_ESTADÍSTICAS
INICIO <- CONSULTAR_ESTADÍSTICAS
INICIO -> REALIZAR_PETICIÓN
INICIO <- REALIZAR_PETICIÓN

INICIO - -> [*] : Cerrar Sesión

@enduml

PlantUML version 1.2022.7(Mon Aug 22 19:01:30 CEST 2022)
(GPL source distribution)
Java Runtime: OpenJDK Runtime Environment
JVM: OpenJDK 64-Bit Server VM
Default Encoding: Cp1252
Language: es
Country: ES
--></g></svg>