<?xml version="1.0" encoding="UTF-8" standalone="no"?><svg xmlns="http://www.w3.org/2000/svg" xmlns:xlink="http://www.w3.org/1999/xlink" contentStyleType="text/css" height="391px" preserveAspectRatio="none" style="width:509px;height:391px;background:#FFFFFF;" version="1.1" viewBox="0 0 509 391" width="509px" zoomAndPan="magnify"><defs/><g><rect fill="none" height="29.0679" id="_title" style="stroke:none;stroke-width:1.0;" width="179" x="158.25" y="5"/><text fill="#000000" font-family="sans-serif" font-size="14" font-weight="bold" lengthAdjust="spacing" textLength="169" x="163.25" y="24.9659">Contexto Administrador</text><ellipse cx="67" cy="56.0679" fill="#222222" rx="10" ry="10" style="stroke:none;stroke-width:1.0;"/><rect fill="#F1F1F1" height="40" rx="12.5" ry="12.5" style="stroke:#181818;stroke-width:0.5;" width="120" x="7" y="127.0679"/><text fill="#000000" font-family="sans-serif" font-size="14" lengthAdjust="spacing" textLength="110" x="12" y="152.4999">INICIAR_SESIÓN</text><rect fill="#F1F1F1" height="40" rx="12.5" ry="12.5" style="stroke:#181818;stroke-width:0.5;" width="56" x="39" y="246.0679"/><text fill="#000000" font-family="sans-serif" font-size="14" lengthAdjust="spacing" textLength="46" x="44" y="271.4999">INICIO</text><rect fill="#F1F1F1" height="40" rx="12.5" ry="12.5" style="stroke:#181818;stroke-width:0.5;" width="193" x="310.5" y="246.0679"/><text fill="#000000" font-family="sans-serif" font-size="14" lengthAdjust="spacing" textLength="183" x="315.5" y="271.4999">CONSULTAR_ESTADISTICAS</text><rect fill="#F1F1F1" height="40" rx="12.5" ry="12.5" style="stroke:#181818;stroke-width:0.5;" width="145" x="130.5" y="246.0679"/><text fill="#000000" font-family="sans-serif" font-size="14" lengthAdjust="spacing" textLength="135" x="135.5" y="271.4999">REALIZAR_PETICION</text><ellipse cx="67" cy="375.0679" fill="none" rx="10" ry="10" style="stroke:#222222;stroke-width:1.0;"/><ellipse cx="67.5" cy="375.5679" fill="#222222" rx="6" ry="6" style="stroke:none;stroke-width:1.0;"/><!--MD5=[fffa5c9a6c2a3d9bbcf62492fefaaec1]
link *start to INICIAR_SESIÓN--><g id="link_*start_INICIAR_SESIÓN"><path d="M67,66.2579 C67,78.9179 67,102.2079 67,120.3779 " fill="none" id="*start-to-INICIAR_SESIÓN" style="stroke:#181818;stroke-width:1.0;"/><polygon fill="#181818" points="67,125.2979,71,116.2979,67,120.2979,63,116.2979,67,125.2979" style="stroke:#181818;stroke-width:1.0;"/></g><!--MD5=[66837f7cee128dc6ca7363ed13e0752f]
link INICIAR_SESIÓN to INICIO--><g id="link_INICIAR_SESIÓN_INICIO"><path d="M67,167.3879 C67,187.0379 67,217.5879 67,239.2879 " fill="none" id="INICIAR_SESIÓN-to-INICIO" style="stroke:#181818;stroke-width:1.0;"/><polygon fill="#181818" points="67,244.2079,71,235.2079,67,239.2079,63,235.2079,67,244.2079" style="stroke:#181818;stroke-width:1.0;"/><text fill="#000000" font-family="sans-serif" font-size="13" lengthAdjust="spacing" textLength="78" x="68" y="211.9649">Iniciar Sesión</text></g><!--MD5=[add242ad4ecb6ff8f77c02a52914f5e8]
link INICIO to CONSULTAR_ESTADISTICAS--><g id="link_INICIO_CONSULTAR_ESTADISTICAS"><path d="M92.46,245.6079 C107.91,233.1979 124.67,219.7379 124.67,219.7379 C124.67,219.7379 281.33,219.7379 281.33,219.7379 C281.33,219.7379 313.7,231.6679 345.58,243.4179 " fill="none" id="INICIO-to-CONSULTAR_ESTADISTICAS" style="stroke:#181818;stroke-width:1.0;"/><polygon fill="#181818" points="350.09,245.0879,343.0306,238.2202,345.399,243.3574,340.2618,245.7258,350.09,245.0879" style="stroke:#181818;stroke-width:1.0;"/></g><!--MD5=[bd1c98ae8a3ec5210dc09a299a4fb49d]
reverse link INICIO to CONSULTAR_ESTADISTICAS--><g id="link_INICIO_CONSULTAR_ESTADISTICAS"><path d="M90.76,241.1679 C110.83,220.1279 136.33,193.3979 136.33,193.3979 C136.33,193.3979 269.67,193.3979 269.67,193.3979 C269.67,193.3979 327.76,224.1379 368.38,245.6279 " fill="none" id="INICIO-backto-CONSULTAR_ESTADISTICAS" style="stroke:#181818;stroke-width:1.0;"/><polygon fill="#181818" points="87.36,244.7279,96.4564,240.9523,90.8015,241.1008,90.653,235.4459,87.36,244.7279" style="stroke:#181818;stroke-width:1.0;"/></g><!--MD5=[74c536f2fd072e549a0dfd499ee42aa8]
link INICIO to REALIZAR_PETICION--><g id="link_INICIO_REALIZAR_PETICION"><path d="M95.45,278.6179 C104.56,282.6379 112.33,286.0679 112.33,286.0679 C112.33,286.0679 117.24,286.0679 123.82,286.0679 " fill="none" id="INICIO-to-REALIZAR_PETICION" style="stroke:#181818;stroke-width:1.0;"/><polygon fill="#181818" points="128.74,286.0679,119.74,282.0679,123.74,286.0679,119.74,290.0679,128.74,286.0679" style="stroke:#181818;stroke-width:1.0;"/></g><!--MD5=[e7e6a61b615f7f8a73ef87547db8c28a]
reverse link INICIO to REALIZAR_PETICION--><g id="link_INICIO_REALIZAR_PETICION"><path d="M101.17,250.9879 C107.59,248.1579 112.33,246.0679 112.33,246.0679 C112.33,246.0679 120.7,246.0679 130.25,246.0679 " fill="none" id="INICIO-backto-REALIZAR_PETICION" style="stroke:#181818;stroke-width:1.0;"/><polygon fill="#181818" points="96.84,252.9079,106.6888,252.9394,101.4155,250.8918,103.4631,245.6185,96.84,252.9079" style="stroke:#181818;stroke-width:1.0;"/></g><!--MD5=[0876ba8a88d8bbcf732e506fae106d5c]
link INICIO to *end--><g id="link_INICIO_*end"><path d="M67,286.1979 C67,306.7579 67,339.0579 67,358.2379 " fill="none" id="INICIO-to-*end" style="stroke:#181818;stroke-width:1.0;"/><polygon fill="#181818" points="67,363.1479,71,354.1479,67,358.1479,63,354.1479,67,363.1479" style="stroke:#181818;stroke-width:1.0;"/><text fill="#000000" font-family="sans-serif" font-size="13" lengthAdjust="spacing" textLength="74" x="68" y="330.9649">Cerar Sesión</text></g><!--MD5=[2a4cdc8d066a794cc941ff95f9f28d21]
@startuml Contexto
title Contexto Administrador

skinparam {
    NoteBackgroundColor #whiteSmoke
    NoteBorderColor #green
    linetype polyline
}

hide empty description

[*] - -> INICIAR_SESIÓN
INICIAR_SESIÓN - -> INICIO : Iniciar Sesión

INICIO -> CONSULTAR_ESTADISTICAS
INICIO <- CONSULTAR_ESTADISTICAS
INICIO -> REALIZAR_PETICION
INICIO <- REALIZAR_PETICION

INICIO - -> [*] : Cerar Sesión

@enduml

PlantUML version 1.2022.7(Mon Aug 22 19:01:30 CEST 2022)
(GPL source distribution)
Java Runtime: OpenJDK Runtime Environment
JVM: OpenJDK 64-Bit Server VM
Default Encoding: UTF-8
Language: es
Country: ES
--></g></svg>