<?xml version="1.0" encoding="us-ascii" standalone="no"?><svg xmlns="http://www.w3.org/2000/svg" xmlns:xlink="http://www.w3.org/1999/xlink" contentStyleType="text/css" height="170px" preserveAspectRatio="none" style="width:417px;height:170px;background:#FFFFFF;" version="1.1" viewBox="0 0 417 170" width="417px" zoomAndPan="magnify"><defs/><g><!--class Contrato--><g id="elem_Contrato"><rect codeLine="1" fill="#F1F1F1" height="48" id="Contrato" rx="2.5" ry="2.5" style="stroke:#181818;stroke-width:0.5;" width="97" x="33" y="7"/><ellipse cx="48" cy="23" fill="#ADD1B2" rx="11" ry="11" style="stroke:#181818;stroke-width:1.0;"/><path d="M50.3438,18.6719 C49.4063,18.2344 48.8125,18.0938 47.9375,18.0938 C45.3125,18.0938 43.3125,20.1719 43.3125,22.8906 L43.3125,24.0156 C43.3125,26.5938 45.4219,28.4844 48.3125,28.4844 C49.5313,28.4844 50.6875,28.1875 51.4375,27.6406 C52.0156,27.2344 52.3438,26.7813 52.3438,26.3906 C52.3438,25.9375 51.9531,25.5469 51.4844,25.5469 C51.2656,25.5469 51.0625,25.625 50.875,25.8125 C50.4219,26.2969 50.4219,26.2969 50.2344,26.3906 C49.8125,26.6563 49.125,26.7813 48.3594,26.7813 C46.3125,26.7813 45.0156,25.6875 45.0156,23.9844 L45.0156,22.8906 C45.0156,21.1094 46.2656,19.7969 48,19.7969 C48.5781,19.7969 49.1875,19.9531 49.6563,20.2031 C50.1406,20.4844 50.3125,20.7031 50.4063,21.1094 C50.4688,21.5156 50.5,21.6406 50.6406,21.7656 C50.7813,21.9063 51.0156,22.0156 51.2344,22.0156 C51.5,22.0156 51.7656,21.875 51.9375,21.6563 C52.0469,21.5 52.0781,21.3125 52.0781,20.8906 L52.0781,19.4688 C52.0781,19.0313 52.0625,18.9063 51.9688,18.75 C51.8125,18.4844 51.5313,18.3438 51.2344,18.3438 C50.9375,18.3438 50.7344,18.4375 50.5156,18.75 L50.3438,18.6719 Z " fill="#000000"/><text fill="#000000" font-family="sans-serif" font-size="14" lengthAdjust="spacing" textLength="65" x="62" y="27.8467">Contrato</text><line style="stroke:#181818;stroke-width:0.5;" x1="34" x2="129" y1="39" y2="39"/><line style="stroke:#181818;stroke-width:0.5;" x1="34" x2="129" y1="47" y2="47"/></g><!--class Horario--><g id="elem_Horario"><rect codeLine="5" fill="#F1F1F1" height="48" id="Horario" rx="2.5" ry="2.5" style="stroke:#181818;stroke-width:0.5;" width="84" x="165.5" y="7"/><ellipse cx="180.5" cy="23" fill="#ADD1B2" rx="11" ry="11" style="stroke:#181818;stroke-width:1.0;"/><path d="M182.8438,18.6719 C181.9063,18.2344 181.3125,18.0938 180.4375,18.0938 C177.8125,18.0938 175.8125,20.1719 175.8125,22.8906 L175.8125,24.0156 C175.8125,26.5938 177.9219,28.4844 180.8125,28.4844 C182.0313,28.4844 183.1875,28.1875 183.9375,27.6406 C184.5156,27.2344 184.8438,26.7813 184.8438,26.3906 C184.8438,25.9375 184.4531,25.5469 183.9844,25.5469 C183.7656,25.5469 183.5625,25.625 183.375,25.8125 C182.9219,26.2969 182.9219,26.2969 182.7344,26.3906 C182.3125,26.6563 181.625,26.7813 180.8594,26.7813 C178.8125,26.7813 177.5156,25.6875 177.5156,23.9844 L177.5156,22.8906 C177.5156,21.1094 178.7656,19.7969 180.5,19.7969 C181.0781,19.7969 181.6875,19.9531 182.1563,20.2031 C182.6406,20.4844 182.8125,20.7031 182.9063,21.1094 C182.9688,21.5156 183,21.6406 183.1406,21.7656 C183.2813,21.9063 183.5156,22.0156 183.7344,22.0156 C184,22.0156 184.2656,21.875 184.4375,21.6563 C184.5469,21.5 184.5781,21.3125 184.5781,20.8906 L184.5781,19.4688 C184.5781,19.0313 184.5625,18.9063 184.4688,18.75 C184.3125,18.4844 184.0313,18.3438 183.7344,18.3438 C183.4375,18.3438 183.2344,18.4375 183.0156,18.75 L182.8438,18.6719 Z " fill="#000000"/><text fill="#000000" font-family="sans-serif" font-size="14" lengthAdjust="spacing" textLength="52" x="194.5" y="27.8467">Horario</text><line style="stroke:#181818;stroke-width:0.5;" x1="166.5" x2="248.5" y1="39" y2="39"/><line style="stroke:#181818;stroke-width:0.5;" x1="166.5" x2="248.5" y1="47" y2="47"/></g><!--class Trabajadores--><g id="elem_Trabajadores"><rect codeLine="9" fill="#F1F1F1" height="48" id="Trabajadores" rx="2.5" ry="2.5" style="stroke:#181818;stroke-width:0.5;" width="125" x="285" y="7"/><ellipse cx="300" cy="23" fill="#ADD1B2" rx="11" ry="11" style="stroke:#181818;stroke-width:1.0;"/><path d="M302.3438,18.6719 C301.4063,18.2344 300.8125,18.0938 299.9375,18.0938 C297.3125,18.0938 295.3125,20.1719 295.3125,22.8906 L295.3125,24.0156 C295.3125,26.5938 297.4219,28.4844 300.3125,28.4844 C301.5313,28.4844 302.6875,28.1875 303.4375,27.6406 C304.0156,27.2344 304.3438,26.7813 304.3438,26.3906 C304.3438,25.9375 303.9531,25.5469 303.4844,25.5469 C303.2656,25.5469 303.0625,25.625 302.875,25.8125 C302.4219,26.2969 302.4219,26.2969 302.2344,26.3906 C301.8125,26.6563 301.125,26.7813 300.3594,26.7813 C298.3125,26.7813 297.0156,25.6875 297.0156,23.9844 L297.0156,22.8906 C297.0156,21.1094 298.2656,19.7969 300,19.7969 C300.5781,19.7969 301.1875,19.9531 301.6563,20.2031 C302.1406,20.4844 302.3125,20.7031 302.4063,21.1094 C302.4688,21.5156 302.5,21.6406 302.6406,21.7656 C302.7813,21.9063 303.0156,22.0156 303.2344,22.0156 C303.5,22.0156 303.7656,21.875 303.9375,21.6563 C304.0469,21.5 304.0781,21.3125 304.0781,20.8906 L304.0781,19.4688 C304.0781,19.0313 304.0625,18.9063 303.9688,18.75 C303.8125,18.4844 303.5313,18.3438 303.2344,18.3438 C302.9375,18.3438 302.7344,18.4375 302.5156,18.75 L302.3438,18.6719 Z " fill="#000000"/><text fill="#000000" font-family="sans-serif" font-size="14" lengthAdjust="spacing" textLength="93" x="314" y="27.8467">Trabajadores</text><line style="stroke:#181818;stroke-width:0.5;" x1="286" x2="409" y1="39" y2="39"/><line style="stroke:#181818;stroke-width:0.5;" x1="286" x2="409" y1="47" y2="47"/></g><!--class LectorDeHuellas--><g id="elem_LectorDeHuellas"><rect codeLine="13" fill="#F1F1F1" height="48" id="LectorDeHuellas" rx="2.5" ry="2.5" style="stroke:#181818;stroke-width:0.5;" width="149" x="7" y="115"/><ellipse cx="22" cy="131" fill="#ADD1B2" rx="11" ry="11" style="stroke:#181818;stroke-width:1.0;"/><path d="M24.3438,126.6719 C23.4063,126.2344 22.8125,126.0938 21.9375,126.0938 C19.3125,126.0938 17.3125,128.1719 17.3125,130.8906 L17.3125,132.0156 C17.3125,134.5938 19.4219,136.4844 22.3125,136.4844 C23.5313,136.4844 24.6875,136.1875 25.4375,135.6406 C26.0156,135.2344 26.3438,134.7813 26.3438,134.3906 C26.3438,133.9375 25.9531,133.5469 25.4844,133.5469 C25.2656,133.5469 25.0625,133.625 24.875,133.8125 C24.4219,134.2969 24.4219,134.2969 24.2344,134.3906 C23.8125,134.6563 23.125,134.7813 22.3594,134.7813 C20.3125,134.7813 19.0156,133.6875 19.0156,131.9844 L19.0156,130.8906 C19.0156,129.1094 20.2656,127.7969 22,127.7969 C22.5781,127.7969 23.1875,127.9531 23.6563,128.2031 C24.1406,128.4844 24.3125,128.7031 24.4063,129.1094 C24.4688,129.5156 24.5,129.6406 24.6406,129.7656 C24.7813,129.9063 25.0156,130.0156 25.2344,130.0156 C25.5,130.0156 25.7656,129.875 25.9375,129.6563 C26.0469,129.5 26.0781,129.3125 26.0781,128.8906 L26.0781,127.4688 C26.0781,127.0313 26.0625,126.9063 25.9688,126.75 C25.8125,126.4844 25.5313,126.3438 25.2344,126.3438 C24.9375,126.3438 24.7344,126.4375 24.5156,126.75 L24.3438,126.6719 Z " fill="#000000"/><text fill="#000000" font-family="sans-serif" font-size="14" lengthAdjust="spacing" textLength="117" x="36" y="135.8467">LectorDeHuellas</text><line style="stroke:#181818;stroke-width:0.5;" x1="8" x2="155" y1="147" y2="147"/><line style="stroke:#181818;stroke-width:0.5;" x1="8" x2="155" y1="155" y2="155"/></g><!--class Fichaje--><g id="elem_Fichaje"><rect codeLine="17" fill="#F1F1F1" height="48" id="Fichaje" rx="2.5" ry="2.5" style="stroke:#181818;stroke-width:0.5;" width="82" x="191.5" y="115"/><ellipse cx="206.5" cy="131" fill="#ADD1B2" rx="11" ry="11" style="stroke:#181818;stroke-width:1.0;"/><path d="M208.8438,126.6719 C207.9063,126.2344 207.3125,126.0938 206.4375,126.0938 C203.8125,126.0938 201.8125,128.1719 201.8125,130.8906 L201.8125,132.0156 C201.8125,134.5938 203.9219,136.4844 206.8125,136.4844 C208.0313,136.4844 209.1875,136.1875 209.9375,135.6406 C210.5156,135.2344 210.8438,134.7813 210.8438,134.3906 C210.8438,133.9375 210.4531,133.5469 209.9844,133.5469 C209.7656,133.5469 209.5625,133.625 209.375,133.8125 C208.9219,134.2969 208.9219,134.2969 208.7344,134.3906 C208.3125,134.6563 207.625,134.7813 206.8594,134.7813 C204.8125,134.7813 203.5156,133.6875 203.5156,131.9844 L203.5156,130.8906 C203.5156,129.1094 204.7656,127.7969 206.5,127.7969 C207.0781,127.7969 207.6875,127.9531 208.1563,128.2031 C208.6406,128.4844 208.8125,128.7031 208.9063,129.1094 C208.9688,129.5156 209,129.6406 209.1406,129.7656 C209.2813,129.9063 209.5156,130.0156 209.7344,130.0156 C210,130.0156 210.2656,129.875 210.4375,129.6563 C210.5469,129.5 210.5781,129.3125 210.5781,128.8906 L210.5781,127.4688 C210.5781,127.0313 210.5625,126.9063 210.4688,126.75 C210.3125,126.4844 210.0313,126.3438 209.7344,126.3438 C209.4375,126.3438 209.2344,126.4375 209.0156,126.75 L208.8438,126.6719 Z " fill="#000000"/><text fill="#000000" font-family="sans-serif" font-size="14" lengthAdjust="spacing" textLength="50" x="220.5" y="135.8467">Fichaje</text><line style="stroke:#181818;stroke-width:0.5;" x1="192.5" x2="272.5" y1="147" y2="147"/><line style="stroke:#181818;stroke-width:0.5;" x1="192.5" x2="272.5" y1="155" y2="155"/></g><!--class Informe--><g id="elem_Informe"><rect codeLine="21" fill="#F1F1F1" height="48" id="Informe" rx="2.5" ry="2.5" style="stroke:#181818;stroke-width:0.5;" width="89" x="309" y="115"/><ellipse cx="324" cy="131" fill="#ADD1B2" rx="11" ry="11" style="stroke:#181818;stroke-width:1.0;"/><path d="M326.3438,126.6719 C325.4063,126.2344 324.8125,126.0938 323.9375,126.0938 C321.3125,126.0938 319.3125,128.1719 319.3125,130.8906 L319.3125,132.0156 C319.3125,134.5938 321.4219,136.4844 324.3125,136.4844 C325.5313,136.4844 326.6875,136.1875 327.4375,135.6406 C328.0156,135.2344 328.3438,134.7813 328.3438,134.3906 C328.3438,133.9375 327.9531,133.5469 327.4844,133.5469 C327.2656,133.5469 327.0625,133.625 326.875,133.8125 C326.4219,134.2969 326.4219,134.2969 326.2344,134.3906 C325.8125,134.6563 325.125,134.7813 324.3594,134.7813 C322.3125,134.7813 321.0156,133.6875 321.0156,131.9844 L321.0156,130.8906 C321.0156,129.1094 322.2656,127.7969 324,127.7969 C324.5781,127.7969 325.1875,127.9531 325.6563,128.2031 C326.1406,128.4844 326.3125,128.7031 326.4063,129.1094 C326.4688,129.5156 326.5,129.6406 326.6406,129.7656 C326.7813,129.9063 327.0156,130.0156 327.2344,130.0156 C327.5,130.0156 327.7656,129.875 327.9375,129.6563 C328.0469,129.5 328.0781,129.3125 328.0781,128.8906 L328.0781,127.4688 C328.0781,127.0313 328.0625,126.9063 327.9688,126.75 C327.8125,126.4844 327.5313,126.3438 327.2344,126.3438 C326.9375,126.3438 326.7344,126.4375 326.5156,126.75 L326.3438,126.6719 Z " fill="#000000"/><text fill="#000000" font-family="sans-serif" font-size="14" lengthAdjust="spacing" textLength="57" x="338" y="135.8467">Informe</text><line style="stroke:#181818;stroke-width:0.5;" x1="310" x2="397" y1="147" y2="147"/><line style="stroke:#181818;stroke-width:0.5;" x1="310" x2="397" y1="155" y2="155"/></g><!--SRC=[LSan2e0m3030FQ_eNnIfuEW7OepOKXj8wYJ-NT4fwnqLD0kTrARO95m0Dm1z64LHaxTPSS6CgoYRYucfYVOSJoulk1iIxPZPsLWtqUEt1m00]--></g></svg>