<?xml version="1.0" encoding="UTF-8" standalone="no"?><svg xmlns="http://www.w3.org/2000/svg" xmlns:xlink="http://www.w3.org/1999/xlink" contentStyleType="text/css" height="278px" preserveAspectRatio="none" style="width:393px;height:278px;background:#FFFFFF;" version="1.1" viewBox="0 0 393 278" width="393px" zoomAndPan="magnify"><defs/><g><!--MD5=[6b7a62471407deb59c55c968440c7380]
class Contrato--><g id="elem_Contrato"><rect codeLine="2" fill="#F1F1F1" height="48" id="Contrato" rx="2.5" ry="2.5" style="stroke:#181818;stroke-width:0.5;" width="87" x="33.5" y="7"/><ellipse cx="48.5" cy="23" fill="#ADD1B2" rx="11" ry="11" style="stroke:#181818;stroke-width:1.0;"/><path d="M51.2656,18.875 Q51.4219,18.6563 51.6094,18.5469 Q51.7969,18.4375 52.0156,18.4375 Q52.3906,18.4375 52.625,18.7031 Q52.8594,18.9531 52.8594,19.5625 L52.8594,21.0156 Q52.8594,21.625 52.625,21.8906 Q52.3906,22.1563 52.0156,22.1563 Q51.6719,22.1563 51.4688,21.9531 Q51.2656,21.7656 51.1563,21.25 Q51.1094,20.8906 50.9219,20.7031 Q50.5938,20.3281 49.9844,20.1094 Q49.375,19.8906 48.75,19.8906 Q47.9844,19.8906 47.3438,20.2188 Q46.7188,20.5469 46.2188,21.2969 Q45.7344,22.0469 45.7344,23.0781 L45.7344,24.1719 Q45.7344,25.4063 46.625,26.2344 Q47.5156,27.0469 49.1094,27.0469 Q50.0469,27.0469 50.7031,26.7969 Q51.0938,26.6406 51.5156,26.2031 Q51.7813,25.9375 51.9219,25.8594 Q52.0781,25.7813 52.2813,25.7813 Q52.6094,25.7813 52.8594,26.0469 Q53.125,26.2969 53.125,26.6406 Q53.125,26.9844 52.7813,27.3906 Q52.2813,27.9688 51.4844,28.2969 Q50.4063,28.75 49.1094,28.75 Q47.5938,28.75 46.3906,28.125 Q45.4063,27.625 44.7188,26.5625 Q44.0313,25.4844 44.0313,24.2031 L44.0313,23.0469 Q44.0313,21.7188 44.6406,20.5781 Q45.2656,19.4219 46.3594,18.8125 Q47.4531,18.1875 48.6875,18.1875 Q49.4219,18.1875 50.0625,18.3594 Q50.7188,18.5156 51.2656,18.875 Z " fill="#000000"/><text fill="#000000" font-family="sans-serif" font-size="14" lengthAdjust="spacing" textLength="55" x="62.5" y="28.7285">Contrato</text><line style="stroke:#181818;stroke-width:0.5;" x1="34.5" x2="119.5" y1="39" y2="39"/><line style="stroke:#181818;stroke-width:0.5;" x1="34.5" x2="119.5" y1="47" y2="47"/></g><!--MD5=[74438b4bcd0b343607a1e9b7af88b110]
class Horario--><g id="elem_Horario"><rect codeLine="6" fill="#F1F1F1" height="48" id="Horario" rx="2.5" ry="2.5" style="stroke:#181818;stroke-width:0.5;" width="78" x="156" y="7"/><ellipse cx="171" cy="23" fill="#ADD1B2" rx="11" ry="11" style="stroke:#181818;stroke-width:1.0;"/><path d="M173.7656,18.875 Q173.9219,18.6563 174.1094,18.5469 Q174.2969,18.4375 174.5156,18.4375 Q174.8906,18.4375 175.125,18.7031 Q175.3594,18.9531 175.3594,19.5625 L175.3594,21.0156 Q175.3594,21.625 175.125,21.8906 Q174.8906,22.1563 174.5156,22.1563 Q174.1719,22.1563 173.9688,21.9531 Q173.7656,21.7656 173.6563,21.25 Q173.6094,20.8906 173.4219,20.7031 Q173.0938,20.3281 172.4844,20.1094 Q171.875,19.8906 171.25,19.8906 Q170.4844,19.8906 169.8438,20.2188 Q169.2188,20.5469 168.7188,21.2969 Q168.2344,22.0469 168.2344,23.0781 L168.2344,24.1719 Q168.2344,25.4063 169.125,26.2344 Q170.0156,27.0469 171.6094,27.0469 Q172.5469,27.0469 173.2031,26.7969 Q173.5938,26.6406 174.0156,26.2031 Q174.2813,25.9375 174.4219,25.8594 Q174.5781,25.7813 174.7813,25.7813 Q175.1094,25.7813 175.3594,26.0469 Q175.625,26.2969 175.625,26.6406 Q175.625,26.9844 175.2813,27.3906 Q174.7813,27.9688 173.9844,28.2969 Q172.9063,28.75 171.6094,28.75 Q170.0938,28.75 168.8906,28.125 Q167.9063,27.625 167.2188,26.5625 Q166.5313,25.4844 166.5313,24.2031 L166.5313,23.0469 Q166.5313,21.7188 167.1406,20.5781 Q167.7656,19.4219 168.8594,18.8125 Q169.9531,18.1875 171.1875,18.1875 Q171.9219,18.1875 172.5625,18.3594 Q173.2188,18.5156 173.7656,18.875 Z " fill="#000000"/><text fill="#000000" font-family="sans-serif" font-size="14" lengthAdjust="spacing" textLength="46" x="185" y="28.7285">Horario</text><line style="stroke:#181818;stroke-width:0.5;" x1="157" x2="233" y1="39" y2="39"/><line style="stroke:#181818;stroke-width:0.5;" x1="157" x2="233" y1="47" y2="47"/></g><!--MD5=[72b3b7cc39d049a8e03c765d0ad412e1]
class Trabajadores--><g id="elem_Trabajadores"><rect codeLine="10" fill="#F1F1F1" height="48" id="Trabajadores" rx="2.5" ry="2.5" style="stroke:#181818;stroke-width:0.5;" width="117" x="269.5" y="7"/><ellipse cx="284.5" cy="23" fill="#ADD1B2" rx="11" ry="11" style="stroke:#181818;stroke-width:1.0;"/><path d="M287.2656,18.875 Q287.4219,18.6563 287.6094,18.5469 Q287.7969,18.4375 288.0156,18.4375 Q288.3906,18.4375 288.625,18.7031 Q288.8594,18.9531 288.8594,19.5625 L288.8594,21.0156 Q288.8594,21.625 288.625,21.8906 Q288.3906,22.1563 288.0156,22.1563 Q287.6719,22.1563 287.4688,21.9531 Q287.2656,21.7656 287.1563,21.25 Q287.1094,20.8906 286.9219,20.7031 Q286.5938,20.3281 285.9844,20.1094 Q285.375,19.8906 284.75,19.8906 Q283.9844,19.8906 283.3438,20.2188 Q282.7188,20.5469 282.2188,21.2969 Q281.7344,22.0469 281.7344,23.0781 L281.7344,24.1719 Q281.7344,25.4063 282.625,26.2344 Q283.5156,27.0469 285.1094,27.0469 Q286.0469,27.0469 286.7031,26.7969 Q287.0938,26.6406 287.5156,26.2031 Q287.7813,25.9375 287.9219,25.8594 Q288.0781,25.7813 288.2813,25.7813 Q288.6094,25.7813 288.8594,26.0469 Q289.125,26.2969 289.125,26.6406 Q289.125,26.9844 288.7813,27.3906 Q288.2813,27.9688 287.4844,28.2969 Q286.4063,28.75 285.1094,28.75 Q283.5938,28.75 282.3906,28.125 Q281.4063,27.625 280.7188,26.5625 Q280.0313,25.4844 280.0313,24.2031 L280.0313,23.0469 Q280.0313,21.7188 280.6406,20.5781 Q281.2656,19.4219 282.3594,18.8125 Q283.4531,18.1875 284.6875,18.1875 Q285.4219,18.1875 286.0625,18.3594 Q286.7188,18.5156 287.2656,18.875 Z " fill="#000000"/><text fill="#000000" font-family="sans-serif" font-size="14" lengthAdjust="spacing" textLength="85" x="298.5" y="28.7285">Trabajadores</text><line style="stroke:#181818;stroke-width:0.5;" x1="270.5" x2="385.5" y1="39" y2="39"/><line style="stroke:#181818;stroke-width:0.5;" x1="270.5" x2="385.5" y1="47" y2="47"/></g><!--MD5=[321b69ba50a575523e459a9da179a232]
class LectorDeHuellas--><g id="elem_LectorDeHuellas"><rect codeLine="14" fill="#F1F1F1" height="48" id="LectorDeHuellas" rx="2.5" ry="2.5" style="stroke:#181818;stroke-width:0.5;" width="136" x="9" y="115"/><ellipse cx="24" cy="131" fill="#ADD1B2" rx="11" ry="11" style="stroke:#181818;stroke-width:1.0;"/><path d="M26.7656,126.875 Q26.9219,126.6563 27.1094,126.5469 Q27.2969,126.4375 27.5156,126.4375 Q27.8906,126.4375 28.125,126.7031 Q28.3594,126.9531 28.3594,127.5625 L28.3594,129.0156 Q28.3594,129.625 28.125,129.8906 Q27.8906,130.1563 27.5156,130.1563 Q27.1719,130.1563 26.9688,129.9531 Q26.7656,129.7656 26.6563,129.25 Q26.6094,128.8906 26.4219,128.7031 Q26.0938,128.3281 25.4844,128.1094 Q24.875,127.8906 24.25,127.8906 Q23.4844,127.8906 22.8438,128.2188 Q22.2188,128.5469 21.7188,129.2969 Q21.2344,130.0469 21.2344,131.0781 L21.2344,132.1719 Q21.2344,133.4063 22.125,134.2344 Q23.0156,135.0469 24.6094,135.0469 Q25.5469,135.0469 26.2031,134.7969 Q26.5938,134.6406 27.0156,134.2031 Q27.2813,133.9375 27.4219,133.8594 Q27.5781,133.7813 27.7813,133.7813 Q28.1094,133.7813 28.3594,134.0469 Q28.625,134.2969 28.625,134.6406 Q28.625,134.9844 28.2813,135.3906 Q27.7813,135.9688 26.9844,136.2969 Q25.9063,136.75 24.6094,136.75 Q23.0938,136.75 21.8906,136.125 Q20.9063,135.625 20.2188,134.5625 Q19.5313,133.4844 19.5313,132.2031 L19.5313,131.0469 Q19.5313,129.7188 20.1406,128.5781 Q20.7656,127.4219 21.8594,126.8125 Q22.9531,126.1875 24.1875,126.1875 Q24.9219,126.1875 25.5625,126.3594 Q26.2188,126.5156 26.7656,126.875 Z " fill="#000000"/><text fill="#000000" font-family="sans-serif" font-size="14" lengthAdjust="spacing" textLength="104" x="38" y="136.7285">LectorDeHuellas</text><line style="stroke:#181818;stroke-width:0.5;" x1="10" x2="144" y1="147" y2="147"/><line style="stroke:#181818;stroke-width:0.5;" x1="10" x2="144" y1="155" y2="155"/></g><!--MD5=[f03614d62e157a5cf111308c833381a2]
class Fichaje--><g id="elem_Fichaje"><rect codeLine="18" fill="#F1F1F1" height="48" id="Fichaje" rx="2.5" ry="2.5" style="stroke:#181818;stroke-width:0.5;" width="78" x="180" y="115"/><ellipse cx="195" cy="131" fill="#ADD1B2" rx="11" ry="11" style="stroke:#181818;stroke-width:1.0;"/><path d="M197.7656,126.875 Q197.9219,126.6563 198.1094,126.5469 Q198.2969,126.4375 198.5156,126.4375 Q198.8906,126.4375 199.125,126.7031 Q199.3594,126.9531 199.3594,127.5625 L199.3594,129.0156 Q199.3594,129.625 199.125,129.8906 Q198.8906,130.1563 198.5156,130.1563 Q198.1719,130.1563 197.9688,129.9531 Q197.7656,129.7656 197.6563,129.25 Q197.6094,128.8906 197.4219,128.7031 Q197.0938,128.3281 196.4844,128.1094 Q195.875,127.8906 195.25,127.8906 Q194.4844,127.8906 193.8438,128.2188 Q193.2188,128.5469 192.7188,129.2969 Q192.2344,130.0469 192.2344,131.0781 L192.2344,132.1719 Q192.2344,133.4063 193.125,134.2344 Q194.0156,135.0469 195.6094,135.0469 Q196.5469,135.0469 197.2031,134.7969 Q197.5938,134.6406 198.0156,134.2031 Q198.2813,133.9375 198.4219,133.8594 Q198.5781,133.7813 198.7813,133.7813 Q199.1094,133.7813 199.3594,134.0469 Q199.625,134.2969 199.625,134.6406 Q199.625,134.9844 199.2813,135.3906 Q198.7813,135.9688 197.9844,136.2969 Q196.9063,136.75 195.6094,136.75 Q194.0938,136.75 192.8906,136.125 Q191.9063,135.625 191.2188,134.5625 Q190.5313,133.4844 190.5313,132.2031 L190.5313,131.0469 Q190.5313,129.7188 191.1406,128.5781 Q191.7656,127.4219 192.8594,126.8125 Q193.9531,126.1875 195.1875,126.1875 Q195.9219,126.1875 196.5625,126.3594 Q197.2188,126.5156 197.7656,126.875 Z " fill="#000000"/><text fill="#000000" font-family="sans-serif" font-size="14" lengthAdjust="spacing" textLength="46" x="209" y="136.7285">Fichaje</text><line style="stroke:#181818;stroke-width:0.5;" x1="181" x2="257" y1="147" y2="147"/><line style="stroke:#181818;stroke-width:0.5;" x1="181" x2="257" y1="155" y2="155"/></g><!--MD5=[df1837eb2b2a8a561ce45404d2e859f6]
class Informe--><g id="elem_Informe"><rect codeLine="22" fill="#F1F1F1" height="48" id="Informe" rx="2.5" ry="2.5" style="stroke:#181818;stroke-width:0.5;" width="79" x="293.5" y="115"/><ellipse cx="308.5" cy="131" fill="#ADD1B2" rx="11" ry="11" style="stroke:#181818;stroke-width:1.0;"/><path d="M311.2656,126.875 Q311.4219,126.6563 311.6094,126.5469 Q311.7969,126.4375 312.0156,126.4375 Q312.3906,126.4375 312.625,126.7031 Q312.8594,126.9531 312.8594,127.5625 L312.8594,129.0156 Q312.8594,129.625 312.625,129.8906 Q312.3906,130.1563 312.0156,130.1563 Q311.6719,130.1563 311.4688,129.9531 Q311.2656,129.7656 311.1563,129.25 Q311.1094,128.8906 310.9219,128.7031 Q310.5938,128.3281 309.9844,128.1094 Q309.375,127.8906 308.75,127.8906 Q307.9844,127.8906 307.3438,128.2188 Q306.7188,128.5469 306.2188,129.2969 Q305.7344,130.0469 305.7344,131.0781 L305.7344,132.1719 Q305.7344,133.4063 306.625,134.2344 Q307.5156,135.0469 309.1094,135.0469 Q310.0469,135.0469 310.7031,134.7969 Q311.0938,134.6406 311.5156,134.2031 Q311.7813,133.9375 311.9219,133.8594 Q312.0781,133.7813 312.2813,133.7813 Q312.6094,133.7813 312.8594,134.0469 Q313.125,134.2969 313.125,134.6406 Q313.125,134.9844 312.7813,135.3906 Q312.2813,135.9688 311.4844,136.2969 Q310.4063,136.75 309.1094,136.75 Q307.5938,136.75 306.3906,136.125 Q305.4063,135.625 304.7188,134.5625 Q304.0313,133.4844 304.0313,132.2031 L304.0313,131.0469 Q304.0313,129.7188 304.6406,128.5781 Q305.2656,127.4219 306.3594,126.8125 Q307.4531,126.1875 308.6875,126.1875 Q309.4219,126.1875 310.0625,126.3594 Q310.7188,126.5156 311.2656,126.875 Z " fill="#000000"/><text fill="#000000" font-family="sans-serif" font-size="14" lengthAdjust="spacing" textLength="47" x="322.5" y="136.7285">Informe</text><line style="stroke:#181818;stroke-width:0.5;" x1="294.5" x2="371.5" y1="147" y2="147"/><line style="stroke:#181818;stroke-width:0.5;" x1="294.5" x2="371.5" y1="155" y2="155"/></g><!--MD5=[3d1b04b166250ef09a7920ba19a1f474]
class EquipoDeControl--><g id="elem_EquipoDeControl"><rect codeLine="26" fill="#F1F1F1" height="48" id="EquipoDeControl" rx="2.5" ry="2.5" style="stroke:#181818;stroke-width:0.5;" width="140" x="7" y="223"/><ellipse cx="22" cy="239" fill="#ADD1B2" rx="11" ry="11" style="stroke:#181818;stroke-width:1.0;"/><path d="M24.7656,234.875 Q24.9219,234.6563 25.1094,234.5469 Q25.2969,234.4375 25.5156,234.4375 Q25.8906,234.4375 26.125,234.7031 Q26.3594,234.9531 26.3594,235.5625 L26.3594,237.0156 Q26.3594,237.625 26.125,237.8906 Q25.8906,238.1563 25.5156,238.1563 Q25.1719,238.1563 24.9688,237.9531 Q24.7656,237.7656 24.6563,237.25 Q24.6094,236.8906 24.4219,236.7031 Q24.0938,236.3281 23.4844,236.1094 Q22.875,235.8906 22.25,235.8906 Q21.4844,235.8906 20.8438,236.2188 Q20.2188,236.5469 19.7188,237.2969 Q19.2344,238.0469 19.2344,239.0781 L19.2344,240.1719 Q19.2344,241.4063 20.125,242.2344 Q21.0156,243.0469 22.6094,243.0469 Q23.5469,243.0469 24.2031,242.7969 Q24.5938,242.6406 25.0156,242.2031 Q25.2813,241.9375 25.4219,241.8594 Q25.5781,241.7813 25.7813,241.7813 Q26.1094,241.7813 26.3594,242.0469 Q26.625,242.2969 26.625,242.6406 Q26.625,242.9844 26.2813,243.3906 Q25.7813,243.9688 24.9844,244.2969 Q23.9063,244.75 22.6094,244.75 Q21.0938,244.75 19.8906,244.125 Q18.9063,243.625 18.2188,242.5625 Q17.5313,241.4844 17.5313,240.2031 L17.5313,239.0469 Q17.5313,237.7188 18.1406,236.5781 Q18.7656,235.4219 19.8594,234.8125 Q20.9531,234.1875 22.1875,234.1875 Q22.9219,234.1875 23.5625,234.3594 Q24.2188,234.5156 24.7656,234.875 Z " fill="#000000"/><text fill="#000000" font-family="sans-serif" font-size="14" lengthAdjust="spacing" textLength="108" x="36" y="244.7285">EquipoDeControl</text><line style="stroke:#181818;stroke-width:0.5;" x1="8" x2="146" y1="255" y2="255"/><line style="stroke:#181818;stroke-width:0.5;" x1="8" x2="146" y1="263" y2="263"/></g><!--MD5=[1ddabde387edfd372319272dd681b217]
@startuml

class Contrato {

}

class Horario {

}

class Trabajadores {

}

class LectorDeHuellas {

}

class Fichaje {

}

class Informe {

}

class EquipoDeControl {

}

@enduml

PlantUML version 1.2022.7(Mon Aug 22 19:01:30 CEST 2022)
(GPL source distribution)
Java Runtime: Java(TM) SE Runtime Environment
JVM: Java HotSpot(TM) 64-Bit Server VM
Default Encoding: UTF-8
Language: en
Country: US
--></g></svg>
