<?xml version="1.0" encoding="us-ascii" standalone="no"?><svg xmlns="http://www.w3.org/2000/svg" xmlns:xlink="http://www.w3.org/1999/xlink" contentStyleType="text/css" height="562px" preserveAspectRatio="none" style="width:430px;height:562px;background:#FFFFFF;" version="1.1" viewBox="0 0 430 562" width="430px" zoomAndPan="magnify"><defs/><g><!--class Trabajadores--><g id="elem_Trabajadores"><rect codeLine="1" fill="#F1F1F1" height="48" id="Trabajadores" rx="2.5" ry="2.5" style="stroke:#181818;stroke-width:0.5;" width="125" x="70.8374" y="7"/><ellipse cx="85.8374" cy="23" fill="#ADD1B2" rx="11" ry="11" style="stroke:#181818;stroke-width:1.0;"/><path d="M88.1812,18.6719 C87.2437,18.2344 86.6499,18.0938 85.7749,18.0938 C83.1499,18.0938 81.1499,20.1719 81.1499,22.8906 L81.1499,24.0156 C81.1499,26.5938 83.2593,28.4844 86.1499,28.4844 C87.3687,28.4844 88.5249,28.1875 89.2749,27.6406 C89.853,27.2344 90.1812,26.7813 90.1812,26.3906 C90.1812,25.9375 89.7905,25.5469 89.3218,25.5469 C89.103,25.5469 88.8999,25.625 88.7124,25.8125 C88.2593,26.2969 88.2593,26.2969 88.0718,26.3906 C87.6499,26.6563 86.9624,26.7813 86.1968,26.7813 C84.1499,26.7813 82.853,25.6875 82.853,23.9844 L82.853,22.8906 C82.853,21.1094 84.103,19.7969 85.8374,19.7969 C86.4155,19.7969 87.0249,19.9531 87.4937,20.2031 C87.978,20.4844 88.1499,20.7031 88.2437,21.1094 C88.3062,21.5156 88.3374,21.6406 88.478,21.7656 C88.6187,21.9063 88.853,22.0156 89.0718,22.0156 C89.3374,22.0156 89.603,21.875 89.7749,21.6563 C89.8843,21.5 89.9155,21.3125 89.9155,20.8906 L89.9155,19.4688 C89.9155,19.0313 89.8999,18.9063 89.8062,18.75 C89.6499,18.4844 89.3687,18.3438 89.0718,18.3438 C88.7749,18.3438 88.5718,18.4375 88.353,18.75 L88.1812,18.6719 Z " fill="#000000"/><text fill="#000000" font-family="sans-serif" font-size="14" lengthAdjust="spacing" textLength="93" x="99.8374" y="27.8467">Trabajadores</text><line style="stroke:#181818;stroke-width:0.5;" x1="71.8374" x2="194.8374" y1="39" y2="39"/><line style="stroke:#181818;stroke-width:0.5;" x1="71.8374" x2="194.8374" y1="47" y2="47"/></g><!--class LectorDeHuellas--><g id="elem_LectorDeHuellas"><rect codeLine="2" fill="#F1F1F1" height="48" id="LectorDeHuellas" rx="2.5" ry="2.5" style="stroke:#181818;stroke-width:0.5;" width="149" x="58.8374" y="132"/><ellipse cx="73.8374" cy="148" fill="#ADD1B2" rx="11" ry="11" style="stroke:#181818;stroke-width:1.0;"/><path d="M76.1812,143.6719 C75.2437,143.2344 74.6499,143.0938 73.7749,143.0938 C71.1499,143.0938 69.1499,145.1719 69.1499,147.8906 L69.1499,149.0156 C69.1499,151.5938 71.2593,153.4844 74.1499,153.4844 C75.3687,153.4844 76.5249,153.1875 77.2749,152.6406 C77.853,152.2344 78.1812,151.7813 78.1812,151.3906 C78.1812,150.9375 77.7905,150.5469 77.3218,150.5469 C77.103,150.5469 76.8999,150.625 76.7124,150.8125 C76.2593,151.2969 76.2593,151.2969 76.0718,151.3906 C75.6499,151.6563 74.9624,151.7813 74.1968,151.7813 C72.1499,151.7813 70.853,150.6875 70.853,148.9844 L70.853,147.8906 C70.853,146.1094 72.103,144.7969 73.8374,144.7969 C74.4155,144.7969 75.0249,144.9531 75.4937,145.2031 C75.978,145.4844 76.1499,145.7031 76.2437,146.1094 C76.3062,146.5156 76.3374,146.6406 76.478,146.7656 C76.6187,146.9063 76.853,147.0156 77.0718,147.0156 C77.3374,147.0156 77.603,146.875 77.7749,146.6563 C77.8843,146.5 77.9155,146.3125 77.9155,145.8906 L77.9155,144.4688 C77.9155,144.0313 77.8999,143.9063 77.8062,143.75 C77.6499,143.4844 77.3687,143.3438 77.0718,143.3438 C76.7749,143.3438 76.5718,143.4375 76.353,143.75 L76.1812,143.6719 Z " fill="#000000"/><text fill="#000000" font-family="sans-serif" font-size="14" lengthAdjust="spacing" textLength="117" x="87.8374" y="152.8467">LectorDeHuellas</text><line style="stroke:#181818;stroke-width:0.5;" x1="59.8374" x2="206.8374" y1="164" y2="164"/><line style="stroke:#181818;stroke-width:0.5;" x1="59.8374" x2="206.8374" y1="172" y2="172"/></g><!--class Fichaje--><g id="elem_Fichaje"><rect codeLine="3" fill="#F1F1F1" height="48" id="Fichaje" rx="2.5" ry="2.5" style="stroke:#181818;stroke-width:0.5;" width="82" x="87.3374" y="257"/><ellipse cx="102.3374" cy="273" fill="#ADD1B2" rx="11" ry="11" style="stroke:#181818;stroke-width:1.0;"/><path d="M104.6812,268.6719 C103.7437,268.2344 103.1499,268.0938 102.2749,268.0938 C99.6499,268.0938 97.6499,270.1719 97.6499,272.8906 L97.6499,274.0156 C97.6499,276.5938 99.7593,278.4844 102.6499,278.4844 C103.8687,278.4844 105.0249,278.1875 105.7749,277.6406 C106.353,277.2344 106.6812,276.7813 106.6812,276.3906 C106.6812,275.9375 106.2905,275.5469 105.8218,275.5469 C105.603,275.5469 105.3999,275.625 105.2124,275.8125 C104.7593,276.2969 104.7593,276.2969 104.5718,276.3906 C104.1499,276.6563 103.4624,276.7813 102.6968,276.7813 C100.6499,276.7813 99.353,275.6875 99.353,273.9844 L99.353,272.8906 C99.353,271.1094 100.603,269.7969 102.3374,269.7969 C102.9155,269.7969 103.5249,269.9531 103.9937,270.2031 C104.478,270.4844 104.6499,270.7031 104.7437,271.1094 C104.8062,271.5156 104.8374,271.6406 104.978,271.7656 C105.1187,271.9063 105.353,272.0156 105.5718,272.0156 C105.8374,272.0156 106.103,271.875 106.2749,271.6563 C106.3843,271.5 106.4155,271.3125 106.4155,270.8906 L106.4155,269.4688 C106.4155,269.0313 106.3999,268.9063 106.3062,268.75 C106.1499,268.4844 105.8687,268.3438 105.5718,268.3438 C105.2749,268.3438 105.0718,268.4375 104.853,268.75 L104.6812,268.6719 Z " fill="#000000"/><text fill="#000000" font-family="sans-serif" font-size="14" lengthAdjust="spacing" textLength="50" x="116.3374" y="277.8467">Fichaje</text><line style="stroke:#181818;stroke-width:0.5;" x1="88.3374" x2="168.3374" y1="289" y2="289"/><line style="stroke:#181818;stroke-width:0.5;" x1="88.3374" x2="168.3374" y1="297" y2="297"/></g><!--class Informe--><g id="elem_Informe"><rect codeLine="4" fill="#F1F1F1" height="48" id="Informe" rx="2.5" ry="2.5" style="stroke:#181818;stroke-width:0.5;" width="89" x="83.8374" y="382"/><ellipse cx="98.8374" cy="398" fill="#ADD1B2" rx="11" ry="11" style="stroke:#181818;stroke-width:1.0;"/><path d="M101.1812,393.6719 C100.2437,393.2344 99.6499,393.0938 98.7749,393.0938 C96.1499,393.0938 94.1499,395.1719 94.1499,397.8906 L94.1499,399.0156 C94.1499,401.5938 96.2593,403.4844 99.1499,403.4844 C100.3687,403.4844 101.5249,403.1875 102.2749,402.6406 C102.853,402.2344 103.1812,401.7813 103.1812,401.3906 C103.1812,400.9375 102.7905,400.5469 102.3218,400.5469 C102.103,400.5469 101.8999,400.625 101.7124,400.8125 C101.2593,401.2969 101.2593,401.2969 101.0718,401.3906 C100.6499,401.6563 99.9624,401.7813 99.1968,401.7813 C97.1499,401.7813 95.853,400.6875 95.853,398.9844 L95.853,397.8906 C95.853,396.1094 97.103,394.7969 98.8374,394.7969 C99.4155,394.7969 100.0249,394.9531 100.4937,395.2031 C100.978,395.4844 101.1499,395.7031 101.2437,396.1094 C101.3062,396.5156 101.3374,396.6406 101.478,396.7656 C101.6187,396.9063 101.853,397.0156 102.0718,397.0156 C102.3374,397.0156 102.603,396.875 102.7749,396.6563 C102.8843,396.5 102.9155,396.3125 102.9155,395.8906 L102.9155,394.4688 C102.9155,394.0313 102.8999,393.9063 102.8062,393.75 C102.6499,393.4844 102.3687,393.3438 102.0718,393.3438 C101.7749,393.3438 101.5718,393.4375 101.353,393.75 L101.1812,393.6719 Z " fill="#000000"/><text fill="#000000" font-family="sans-serif" font-size="14" lengthAdjust="spacing" textLength="57" x="112.8374" y="402.8467">Informe</text><line style="stroke:#181818;stroke-width:0.5;" x1="84.8374" x2="171.8374" y1="414" y2="414"/><line style="stroke:#181818;stroke-width:0.5;" x1="84.8374" x2="171.8374" y1="422" y2="422"/></g><!--class Horario--><g id="elem_Horario"><rect codeLine="5" fill="#F1F1F1" height="48" id="Horario" rx="2.5" ry="2.5" style="stroke:#181818;stroke-width:0.5;" width="84" x="213.3379" y="507"/><ellipse cx="228.3379" cy="523" fill="#ADD1B2" rx="11" ry="11" style="stroke:#181818;stroke-width:1.0;"/><path d="M230.6817,518.6719 C229.7442,518.2344 229.1504,518.0938 228.2754,518.0938 C225.6504,518.0938 223.6504,520.1719 223.6504,522.8906 L223.6504,524.0156 C223.6504,526.5938 225.7598,528.4844 228.6504,528.4844 C229.8692,528.4844 231.0254,528.1875 231.7754,527.6406 C232.3535,527.2344 232.6817,526.7813 232.6817,526.3906 C232.6817,525.9375 232.291,525.5469 231.8223,525.5469 C231.6035,525.5469 231.4004,525.625 231.2129,525.8125 C230.7598,526.2969 230.7598,526.2969 230.5723,526.3906 C230.1504,526.6563 229.4629,526.7813 228.6973,526.7813 C226.6504,526.7813 225.3535,525.6875 225.3535,523.9844 L225.3535,522.8906 C225.3535,521.1094 226.6035,519.7969 228.3379,519.7969 C228.916,519.7969 229.5254,519.9531 229.9942,520.2031 C230.4785,520.4844 230.6504,520.7031 230.7442,521.1094 C230.8067,521.5156 230.8379,521.6406 230.9785,521.7656 C231.1192,521.9063 231.3535,522.0156 231.5723,522.0156 C231.8379,522.0156 232.1035,521.875 232.2754,521.6563 C232.3848,521.5 232.416,521.3125 232.416,520.8906 L232.416,519.4688 C232.416,519.0313 232.4004,518.9063 232.3067,518.75 C232.1504,518.4844 231.8692,518.3438 231.5723,518.3438 C231.2754,518.3438 231.0723,518.4375 230.8535,518.75 L230.6817,518.6719 Z " fill="#000000"/><text fill="#000000" font-family="sans-serif" font-size="14" lengthAdjust="spacing" textLength="52" x="242.3379" y="527.8467">Horario</text><line style="stroke:#181818;stroke-width:0.5;" x1="214.3379" x2="296.3379" y1="539" y2="539"/><line style="stroke:#181818;stroke-width:0.5;" x1="214.3379" x2="296.3379" y1="547" y2="547"/></g><!--class Contrato--><g id="elem_Contrato"><rect codeLine="6" fill="#F1F1F1" height="48" id="Contrato" rx="2.5" ry="2.5" style="stroke:#181818;stroke-width:0.5;" width="97" x="242.8379" y="132"/><ellipse cx="257.8379" cy="148" fill="#ADD1B2" rx="11" ry="11" style="stroke:#181818;stroke-width:1.0;"/><path d="M260.1817,143.6719 C259.2442,143.2344 258.6504,143.0938 257.7754,143.0938 C255.1504,143.0938 253.1504,145.1719 253.1504,147.8906 L253.1504,149.0156 C253.1504,151.5938 255.2598,153.4844 258.1504,153.4844 C259.3692,153.4844 260.5254,153.1875 261.2754,152.6406 C261.8535,152.2344 262.1817,151.7813 262.1817,151.3906 C262.1817,150.9375 261.791,150.5469 261.3223,150.5469 C261.1035,150.5469 260.9004,150.625 260.7129,150.8125 C260.2598,151.2969 260.2598,151.2969 260.0723,151.3906 C259.6504,151.6563 258.9629,151.7813 258.1973,151.7813 C256.1504,151.7813 254.8535,150.6875 254.8535,148.9844 L254.8535,147.8906 C254.8535,146.1094 256.1035,144.7969 257.8379,144.7969 C258.416,144.7969 259.0254,144.9531 259.4942,145.2031 C259.9785,145.4844 260.1504,145.7031 260.2442,146.1094 C260.3067,146.5156 260.3379,146.6406 260.4785,146.7656 C260.6192,146.9063 260.8535,147.0156 261.0723,147.0156 C261.3379,147.0156 261.6035,146.875 261.7754,146.6563 C261.8848,146.5 261.916,146.3125 261.916,145.8906 L261.916,144.4688 C261.916,144.0313 261.9004,143.9063 261.8067,143.75 C261.6504,143.4844 261.3692,143.3438 261.0723,143.3438 C260.7754,143.3438 260.5723,143.4375 260.3535,143.75 L260.1817,143.6719 Z " fill="#000000"/><text fill="#000000" font-family="sans-serif" font-size="14" lengthAdjust="spacing" textLength="65" x="271.8379" y="152.8467">Contrato</text><line style="stroke:#181818;stroke-width:0.5;" x1="243.8379" x2="338.8379" y1="164" y2="164"/><line style="stroke:#181818;stroke-width:0.5;" x1="243.8379" x2="338.8379" y1="172" y2="172"/></g><!--link Trabajadores to Contrato--><g id="link_Trabajadores_Contrato"><path codeLine="8" d="M163.0559,55.135 C191.3039,77.126 233.5479,110.012 261.7519,131.968 " fill="none" id="Trabajadores-Contrato" style="stroke:#181818;stroke-width:1.0;"/><text fill="#000000" font-family="sans-serif" font-size="13" lengthAdjust="spacing" textLength="35" x="223.3379" y="98.0669">Tiene</text></g><!--link Trabajadores to LectorDeHuellas--><g id="link_Trabajadores_LectorDeHuellas"><path codeLine="9" d="M133.3379,55.135 C133.3379,77.126 133.3379,110.012 133.3379,131.968 " fill="none" id="Trabajadores-LectorDeHuellas" style="stroke:#181818;stroke-width:1.0;"/><text fill="#000000" font-family="sans-serif" font-size="13" lengthAdjust="spacing" textLength="24" x="134.3379" y="98.0669">Usa</text></g><!--link LectorDeHuellas to Fichaje--><g id="link_LectorDeHuellas_Fichaje"><path codeLine="10" d="M119.6765,180.208 C115.1225,189.198 110.6281,199.775 108.3374,210 C104.801,225.787 109.801,243.287 115.6851,256.84 " fill="none" id="LectorDeHuellas-Fichaje" style="stroke:#181818;stroke-width:1.0;"/><text fill="#000000" font-family="sans-serif" font-size="13" lengthAdjust="spacing" textLength="76" x="109.3374" y="223.0669">Se usa para</text></g><!--link Fichaje to Informe--><g id="link_Fichaje_Informe"><path codeLine="11" d="M128.3374,305.135 C128.3374,327.126 128.3374,360.012 128.3374,381.968 " fill="none" id="Fichaje-Informe" style="stroke:#181818;stroke-width:1.0;"/><text fill="#000000" font-family="sans-serif" font-size="13" lengthAdjust="spacing" textLength="102" x="129.3374" y="348.0669">Se describen en</text></g><!--link Informe to Horario--><g id="link_Informe_Horario"><path codeLine="12" d="M140.7069,430.12 C149.1999,444.642 161.4249,463.1731 175.3379,477 C186.6819,488.2744 200.7679,498.5461 213.9439,506.9817 " fill="none" id="Informe-Horario" style="stroke:#181818;stroke-width:1.0;stroke-dasharray:7.0,7.0;"/><text fill="#000000" font-family="sans-serif" font-size="13" lengthAdjust="spacing" textLength="146" x="176.3379" y="473.0669">Verifica que se cumpla</text></g><!--link Trabajadores to Informe--><g id="link_Trabajadores_Informe"><path codeLine="13" d="M102.0956,55.263 C80.4848,73.437 53.5097,100.791 41.3374,132 C6,222.603 75.3729,334.036 110.1361,381.646 " fill="none" id="Trabajadores-Informe" style="stroke:#181818;stroke-width:1.0;"/><text fill="#000000" font-family="sans-serif" font-size="13" lengthAdjust="spacing" textLength="43" x="37.3374" y="223.0669">Revisa</text></g><!--link Contrato to Horario--><g id="link_Contrato_Horario"><path codeLine="14" d="M310.1739,180.122 C316.2319,188.935 322.1889,199.417 325.3379,210 C359.1799,323.742 380.8829,371.097 327.3379,477 C320.7539,490.0205 309.2979,500.6249 297.4349,508.832 " fill="none" id="Contrato-Horario" style="stroke:#181818;stroke-width:1.0;"/><text fill="#000000" font-family="sans-serif" font-size="13" lengthAdjust="spacing" textLength="62" x="360.3379" y="348.0669">Establece</text></g><!--link Contrato to Fichaje--><g id="link_Contrato_Fichaje"><path codeLine="15" d="M260.6779,180.135 C231.5369,202.126 187.9549,235.012 158.8589,256.968 " fill="none" id="Contrato-Fichaje" style="stroke:#181818;stroke-width:1.0;stroke-dasharray:7.0,7.0;"/><text fill="#000000" font-family="sans-serif" font-size="13" lengthAdjust="spacing" textLength="95" x="221.3379" y="223.0669">Define normas</text></g><!--SRC=[POyv3W8n34NxdC8NW0FGiWWaAhRU4_w8e241UuO6SNVCCWa2AOt_Vx9VVCEgj16k-CZx9D3RtVbNk8Hlaqmmxz1OaFDPy0S-8i-BM2SvbNcUX2MaF8zJR8NRP-2-3z5Wa3iQqIOWuW_uaJ1kg-n-KmC_LWQiGPqodLdOzQa17yqti8Tw2HKYsNDzDHpsyaRj8A4EdkdIWHJakzEvuJ_1idQ5Qp2t_2KhoxQfjbmry2YzNIlI4zGXWgBjOdq0]--></g></svg>