<?xml version="1.0" encoding="us-ascii" standalone="no"?><svg xmlns="http://www.w3.org/2000/svg" xmlns:xlink="http://www.w3.org/1999/xlink" contentStyleType="text/css" height="562px" preserveAspectRatio="none" style="width:383px;height:562px;background:#FFFFFF;" version="1.1" viewBox="0 0 383 562" width="383px" zoomAndPan="magnify"><defs/><g><!--class Trabajadores--><g id="elem_Trabajadores"><rect codeLine="1" fill="#F1F1F1" height="48" id="Trabajadores" rx="2.5" ry="2.5" style="stroke:#181818;stroke-width:0.5;" width="125" x="70.745" y="7"/><ellipse cx="85.745" cy="23" fill="#ADD1B2" rx="11" ry="11" style="stroke:#181818;stroke-width:1.0;"/><path d="M88.0888,18.6719 C87.1513,18.2344 86.5575,18.0938 85.6825,18.0938 C83.0575,18.0938 81.0575,20.1719 81.0575,22.8906 L81.0575,24.0156 C81.0575,26.5938 83.1669,28.4844 86.0575,28.4844 C87.2763,28.4844 88.4325,28.1875 89.1825,27.6406 C89.7606,27.2344 90.0888,26.7813 90.0888,26.3906 C90.0888,25.9375 89.6981,25.5469 89.2294,25.5469 C89.0106,25.5469 88.8075,25.625 88.62,25.8125 C88.1669,26.2969 88.1669,26.2969 87.9794,26.3906 C87.5575,26.6563 86.87,26.7813 86.1044,26.7813 C84.0575,26.7813 82.7606,25.6875 82.7606,23.9844 L82.7606,22.8906 C82.7606,21.1094 84.0106,19.7969 85.745,19.7969 C86.3231,19.7969 86.9325,19.9531 87.4013,20.2031 C87.8856,20.4844 88.0575,20.7031 88.1513,21.1094 C88.2138,21.5156 88.245,21.6406 88.3856,21.7656 C88.5263,21.9063 88.7606,22.0156 88.9794,22.0156 C89.245,22.0156 89.5106,21.875 89.6825,21.6563 C89.7919,21.5 89.8231,21.3125 89.8231,20.8906 L89.8231,19.4688 C89.8231,19.0313 89.8075,18.9063 89.7138,18.75 C89.5575,18.4844 89.2763,18.3438 88.9794,18.3438 C88.6825,18.3438 88.4794,18.4375 88.2606,18.75 L88.0888,18.6719 Z " fill="#000000"/><text fill="#000000" font-family="sans-serif" font-size="14" lengthAdjust="spacing" textLength="93" x="99.745" y="27.8467">Trabajadores</text><line style="stroke:#181818;stroke-width:0.5;" x1="71.745" x2="194.745" y1="39" y2="39"/><line style="stroke:#181818;stroke-width:0.5;" x1="71.745" x2="194.745" y1="47" y2="47"/></g><!--class LectorDeHuellas--><g id="elem_LectorDeHuellas"><rect codeLine="3" fill="#F1F1F1" height="48" id="LectorDeHuellas" rx="2.5" ry="2.5" style="stroke:#181818;stroke-width:0.5;" width="149" x="58.745" y="132"/><ellipse cx="73.745" cy="148" fill="#ADD1B2" rx="11" ry="11" style="stroke:#181818;stroke-width:1.0;"/><path d="M76.0888,143.6719 C75.1513,143.2344 74.5575,143.0938 73.6825,143.0938 C71.0575,143.0938 69.0575,145.1719 69.0575,147.8906 L69.0575,149.0156 C69.0575,151.5938 71.1669,153.4844 74.0575,153.4844 C75.2763,153.4844 76.4325,153.1875 77.1825,152.6406 C77.7606,152.2344 78.0888,151.7813 78.0888,151.3906 C78.0888,150.9375 77.6981,150.5469 77.2294,150.5469 C77.0106,150.5469 76.8075,150.625 76.62,150.8125 C76.1669,151.2969 76.1669,151.2969 75.9794,151.3906 C75.5575,151.6563 74.87,151.7813 74.1044,151.7813 C72.0575,151.7813 70.7606,150.6875 70.7606,148.9844 L70.7606,147.8906 C70.7606,146.1094 72.0106,144.7969 73.745,144.7969 C74.3231,144.7969 74.9325,144.9531 75.4013,145.2031 C75.8856,145.4844 76.0575,145.7031 76.1513,146.1094 C76.2138,146.5156 76.245,146.6406 76.3856,146.7656 C76.5263,146.9063 76.7606,147.0156 76.9794,147.0156 C77.245,147.0156 77.5106,146.875 77.6825,146.6563 C77.7919,146.5 77.8231,146.3125 77.8231,145.8906 L77.8231,144.4688 C77.8231,144.0313 77.8075,143.9063 77.7138,143.75 C77.5575,143.4844 77.2763,143.3438 76.9794,143.3438 C76.6825,143.3438 76.4794,143.4375 76.2606,143.75 L76.0888,143.6719 Z " fill="#000000"/><text fill="#000000" font-family="sans-serif" font-size="14" lengthAdjust="spacing" textLength="117" x="87.745" y="152.8467">LectorDeHuellas</text><line style="stroke:#181818;stroke-width:0.5;" x1="59.745" x2="206.745" y1="164" y2="164"/><line style="stroke:#181818;stroke-width:0.5;" x1="59.745" x2="206.745" y1="172" y2="172"/></g><!--class Fichaje--><g id="elem_Fichaje"><rect codeLine="5" fill="#F1F1F1" height="48" id="Fichaje" rx="2.5" ry="2.5" style="stroke:#181818;stroke-width:0.5;" width="82" x="82.245" y="257"/><ellipse cx="97.245" cy="273" fill="#ADD1B2" rx="11" ry="11" style="stroke:#181818;stroke-width:1.0;"/><path d="M99.5888,268.6719 C98.6513,268.2344 98.0575,268.0938 97.1825,268.0938 C94.5575,268.0938 92.5575,270.1719 92.5575,272.8906 L92.5575,274.0156 C92.5575,276.5938 94.6669,278.4844 97.5575,278.4844 C98.7763,278.4844 99.9325,278.1875 100.6825,277.6406 C101.2606,277.2344 101.5888,276.7813 101.5888,276.3906 C101.5888,275.9375 101.1981,275.5469 100.7294,275.5469 C100.5106,275.5469 100.3075,275.625 100.12,275.8125 C99.6669,276.2969 99.6669,276.2969 99.4794,276.3906 C99.0575,276.6563 98.37,276.7813 97.6044,276.7813 C95.5575,276.7813 94.2606,275.6875 94.2606,273.9844 L94.2606,272.8906 C94.2606,271.1094 95.5106,269.7969 97.245,269.7969 C97.8231,269.7969 98.4325,269.9531 98.9013,270.2031 C99.3856,270.4844 99.5575,270.7031 99.6513,271.1094 C99.7138,271.5156 99.745,271.6406 99.8856,271.7656 C100.0263,271.9063 100.2606,272.0156 100.4794,272.0156 C100.745,272.0156 101.0106,271.875 101.1825,271.6563 C101.2919,271.5 101.3231,271.3125 101.3231,270.8906 L101.3231,269.4688 C101.3231,269.0313 101.3075,268.9063 101.2138,268.75 C101.0575,268.4844 100.7763,268.3438 100.4794,268.3438 C100.1825,268.3438 99.9794,268.4375 99.7606,268.75 L99.5888,268.6719 Z " fill="#000000"/><text fill="#000000" font-family="sans-serif" font-size="14" lengthAdjust="spacing" textLength="50" x="111.245" y="277.8467">Fichaje</text><line style="stroke:#181818;stroke-width:0.5;" x1="83.245" x2="163.245" y1="289" y2="289"/><line style="stroke:#181818;stroke-width:0.5;" x1="83.245" x2="163.245" y1="297" y2="297"/></g><!--class Informe--><g id="elem_Informe"><rect codeLine="7" fill="#F1F1F1" height="48" id="Informe" rx="2.5" ry="2.5" style="stroke:#181818;stroke-width:0.5;" width="89" x="78.745" y="382"/><ellipse cx="93.745" cy="398" fill="#ADD1B2" rx="11" ry="11" style="stroke:#181818;stroke-width:1.0;"/><path d="M96.0888,393.6719 C95.1513,393.2344 94.5575,393.0938 93.6825,393.0938 C91.0575,393.0938 89.0575,395.1719 89.0575,397.8906 L89.0575,399.0156 C89.0575,401.5938 91.1669,403.4844 94.0575,403.4844 C95.2763,403.4844 96.4325,403.1875 97.1825,402.6406 C97.7606,402.2344 98.0888,401.7813 98.0888,401.3906 C98.0888,400.9375 97.6981,400.5469 97.2294,400.5469 C97.0106,400.5469 96.8075,400.625 96.62,400.8125 C96.1669,401.2969 96.1669,401.2969 95.9794,401.3906 C95.5575,401.6563 94.87,401.7813 94.1044,401.7813 C92.0575,401.7813 90.7606,400.6875 90.7606,398.9844 L90.7606,397.8906 C90.7606,396.1094 92.0106,394.7969 93.745,394.7969 C94.3231,394.7969 94.9325,394.9531 95.4013,395.2031 C95.8856,395.4844 96.0575,395.7031 96.1513,396.1094 C96.2138,396.5156 96.245,396.6406 96.3856,396.7656 C96.5263,396.9063 96.7606,397.0156 96.9794,397.0156 C97.245,397.0156 97.5106,396.875 97.6825,396.6563 C97.7919,396.5 97.8231,396.3125 97.8231,395.8906 L97.8231,394.4688 C97.8231,394.0313 97.8075,393.9063 97.7138,393.75 C97.5575,393.4844 97.2763,393.3438 96.9794,393.3438 C96.6825,393.3438 96.4794,393.4375 96.2606,393.75 L96.0888,393.6719 Z " fill="#000000"/><text fill="#000000" font-family="sans-serif" font-size="14" lengthAdjust="spacing" textLength="57" x="107.745" y="402.8467">Informe</text><line style="stroke:#181818;stroke-width:0.5;" x1="79.745" x2="166.745" y1="414" y2="414"/><line style="stroke:#181818;stroke-width:0.5;" x1="79.745" x2="166.745" y1="422" y2="422"/></g><!--class Horario--><g id="elem_Horario"><rect codeLine="9" fill="#F1F1F1" height="48" id="Horario" rx="2.5" ry="2.5" style="stroke:#181818;stroke-width:0.5;" width="84" x="175.2451" y="507"/><ellipse cx="190.2451" cy="523" fill="#ADD1B2" rx="11" ry="11" style="stroke:#181818;stroke-width:1.0;"/><path d="M192.5889,518.6719 C191.6514,518.2344 191.0576,518.0938 190.1826,518.0938 C187.5576,518.0938 185.5576,520.1719 185.5576,522.8906 L185.5576,524.0156 C185.5576,526.5938 187.667,528.4844 190.5576,528.4844 C191.7764,528.4844 192.9326,528.1875 193.6826,527.6406 C194.2607,527.2344 194.5889,526.7813 194.5889,526.3906 C194.5889,525.9375 194.1982,525.5469 193.7295,525.5469 C193.5107,525.5469 193.3076,525.625 193.1201,525.8125 C192.667,526.2969 192.667,526.2969 192.4795,526.3906 C192.0576,526.6563 191.3701,526.7813 190.6045,526.7813 C188.5576,526.7813 187.2607,525.6875 187.2607,523.9844 L187.2607,522.8906 C187.2607,521.1094 188.5107,519.7969 190.2451,519.7969 C190.8232,519.7969 191.4326,519.9531 191.9014,520.2031 C192.3857,520.4844 192.5576,520.7031 192.6514,521.1094 C192.7139,521.5156 192.7451,521.6406 192.8857,521.7656 C193.0264,521.9063 193.2607,522.0156 193.4795,522.0156 C193.7451,522.0156 194.0107,521.875 194.1826,521.6563 C194.292,521.5 194.3232,521.3125 194.3232,520.8906 L194.3232,519.4688 C194.3232,519.0313 194.3076,518.9063 194.2139,518.75 C194.0576,518.4844 193.7764,518.3438 193.4795,518.3438 C193.1826,518.3438 192.9795,518.4375 192.7607,518.75 L192.5889,518.6719 Z " fill="#000000"/><text fill="#000000" font-family="sans-serif" font-size="14" lengthAdjust="spacing" textLength="52" x="204.2451" y="527.8467">Horario</text><line style="stroke:#181818;stroke-width:0.5;" x1="176.2451" x2="258.2451" y1="539" y2="539"/><line style="stroke:#181818;stroke-width:0.5;" x1="176.2451" x2="258.2451" y1="547" y2="547"/></g><!--class Contrato--><g id="elem_Contrato"><rect codeLine="11" fill="#F1F1F1" height="48" id="Contrato" rx="2.5" ry="2.5" style="stroke:#181818;stroke-width:0.5;" width="97" x="242.7451" y="132"/><ellipse cx="257.7451" cy="148" fill="#ADD1B2" rx="11" ry="11" style="stroke:#181818;stroke-width:1.0;"/><path d="M260.0889,143.6719 C259.1514,143.2344 258.5576,143.0938 257.6826,143.0938 C255.0576,143.0938 253.0576,145.1719 253.0576,147.8906 L253.0576,149.0156 C253.0576,151.5938 255.167,153.4844 258.0576,153.4844 C259.2764,153.4844 260.4326,153.1875 261.1826,152.6406 C261.7607,152.2344 262.0889,151.7813 262.0889,151.3906 C262.0889,150.9375 261.6982,150.5469 261.2295,150.5469 C261.0107,150.5469 260.8076,150.625 260.6201,150.8125 C260.167,151.2969 260.167,151.2969 259.9795,151.3906 C259.5576,151.6563 258.8701,151.7813 258.1045,151.7813 C256.0576,151.7813 254.7607,150.6875 254.7607,148.9844 L254.7607,147.8906 C254.7607,146.1094 256.0107,144.7969 257.7451,144.7969 C258.3232,144.7969 258.9326,144.9531 259.4014,145.2031 C259.8857,145.4844 260.0576,145.7031 260.1514,146.1094 C260.2139,146.5156 260.2451,146.6406 260.3857,146.7656 C260.5264,146.9063 260.7607,147.0156 260.9795,147.0156 C261.2451,147.0156 261.5107,146.875 261.6826,146.6563 C261.792,146.5 261.8232,146.3125 261.8232,145.8906 L261.8232,144.4688 C261.8232,144.0313 261.8076,143.9063 261.7139,143.75 C261.5576,143.4844 261.2764,143.3438 260.9795,143.3438 C260.6826,143.3438 260.4795,143.4375 260.2607,143.75 L260.0889,143.6719 Z " fill="#000000"/><text fill="#000000" font-family="sans-serif" font-size="14" lengthAdjust="spacing" textLength="65" x="271.7451" y="152.8467">Contrato</text><line style="stroke:#181818;stroke-width:0.5;" x1="243.7451" x2="338.7451" y1="164" y2="164"/><line style="stroke:#181818;stroke-width:0.5;" x1="243.7451" x2="338.7451" y1="172" y2="172"/></g><!--link Trabajadores to Contrato--><g id="link_Trabajadores_Contrato"><path codeLine="14" d="M162.9631,55.135 C191.2111,77.126 233.4561,110.012 261.6601,131.968 " fill="none" id="Trabajadores-Contrato" style="stroke:#181818;stroke-width:1.0;"/><text fill="#000000" font-family="sans-serif" font-size="13" lengthAdjust="spacing" textLength="35" x="223.2451" y="98.0669">Tiene</text></g><!--link Trabajadores to LectorDeHuellas--><g id="link_Trabajadores_LectorDeHuellas"><path codeLine="15" d="M133.2451,55.135 C133.2451,77.126 133.2451,110.012 133.2451,131.968 " fill="none" id="Trabajadores-LectorDeHuellas" style="stroke:#181818;stroke-width:1.0;"/><text fill="#000000" font-family="sans-serif" font-size="13" lengthAdjust="spacing" textLength="24" x="134.2451" y="98.0669">Usa</text></g><!--link LectorDeHuellas to Fichaje--><g id="link_LectorDeHuellas_Fichaje"><path codeLine="16" d="M124.1155,180.103 C120.955,189.258 117.8133,199.976 116.245,210 C113.8097,225.566 115.6061,243.219 117.9879,256.903 " fill="none" id="LectorDeHuellas-Fichaje" style="stroke:#181818;stroke-width:1.0;"/><text fill="#000000" font-family="sans-serif" font-size="13" lengthAdjust="spacing" textLength="76" x="117.245" y="223.0669">Se usa para</text></g><!--link Fichaje to Informe--><g id="link_Fichaje_Informe"><path codeLine="17" d="M123.245,305.135 C123.245,327.126 123.245,360.012 123.245,381.968 " fill="none" id="Fichaje-Informe" style="stroke:#181818;stroke-width:1.0;"/><text fill="#000000" font-family="sans-serif" font-size="13" lengthAdjust="spacing" textLength="102" x="124.245" y="348.0669">Se describen en</text></g><!--link Informe to Horario--><g id="link_Informe_Horario"><path codeLine="18" d="M120.5603,430.103 C120.0193,444.619 121.5287,463.1483 130.245,477 C140.7001,493.6157 158.4451,505.7867 175.1931,514.2435 " fill="none" id="Informe-Horario" style="stroke:#181818;stroke-width:1.0;stroke-dasharray:7.0,7.0;"/><text fill="#000000" font-family="sans-serif" font-size="13" lengthAdjust="spacing" textLength="146" x="131.245" y="473.0669">Verifica que se cumpla</text></g><!--link Trabajadores to Informe--><g id="link_Trabajadores_Informe"><path codeLine="19" d="M102.0032,55.263 C80.3923,73.437 53.4173,100.791 41.245,132 C6,222.366 72.7908,334.387 106.035,381.932 " fill="none" id="Trabajadores-Informe" style="stroke:#181818;stroke-width:1.0;"/><text fill="#000000" font-family="sans-serif" font-size="13" lengthAdjust="spacing" textLength="43" x="36.245" y="223.0669">Revisa</text></g><!--link Contrato to Horario--><g id="link_Contrato_Horario"><path codeLine="20" d="M296.8311,180.263 C308.7661,235.269 331.8271,376.276 282.2451,477 C276.4571,488.7572 266.7051,498.7983 256.4921,506.8767 " fill="none" id="Contrato-Horario" style="stroke:#181818;stroke-width:1.0;"/><text fill="#000000" font-family="sans-serif" font-size="13" lengthAdjust="spacing" textLength="62" x="313.2451" y="348.0669">Establece</text></g><!--link Contrato to Fichaje--><g id="link_Contrato_Fichaje"><path codeLine="21" d="M260.8401,180.247 C242.7561,193.983 219.3061,211.637 198.2451,227 C184.5911,236.96 169.3851,247.758 156.2541,256.993 " fill="none" id="Contrato-Fichaje" style="stroke:#181818;stroke-width:1.0;stroke-dasharray:7.0,7.0;"/><text fill="#000000" font-family="sans-serif" font-size="13" lengthAdjust="spacing" textLength="42" x="220.2451" y="223.0669">Define</text></g><!--SRC=[POzD3e8m44RtFSLS00_WrfzWuahH_L0-OWcqEWKtnhixKR46agxUzzA-sfPZf4Auv8Qh88WFypJsJVUmVP0ryW6jWZHidRrmWmHslWxI_O4y28iB2Qo2xuNxDp7_pr6M_KPQKk7WCHCc9UgT8fifLV5Rfi8HD4IcAmkRaQhmBVq85Q8LLyAJ7ZDEYyMOhzOPucfdcMu3A8Biq5rRdWMcQm-uEstxVKd7TDiczbosi4YxlfQYrwYTnmi0]--></g></svg>