<?xml version="1.0" encoding="us-ascii" standalone="no"?><svg xmlns="http://www.w3.org/2000/svg" xmlns:xlink="http://www.w3.org/1999/xlink" contentStyleType="text/css" height="494px" preserveAspectRatio="none" style="width:325px;height:494px;background:#FFFFFF;" version="1.1" viewBox="0 0 325 494" width="325px" zoomAndPan="magnify"><defs/><g><!--class Contrato--><g id="elem_Contrato"><rect codeLine="1" fill="#F1F1F1" height="48" id="Contrato" rx="2.5" ry="2.5" style="stroke:#181818;stroke-width:0.5;" width="97" x="17.7088" y="223"/><ellipse cx="32.7088" cy="239" fill="#ADD1B2" rx="11" ry="11" style="stroke:#181818;stroke-width:1.0;"/><path d="M35.0525,234.6719 C34.115,234.2344 33.5213,234.0938 32.6463,234.0938 C30.0213,234.0938 28.0213,236.1719 28.0213,238.8906 L28.0213,240.0156 C28.0213,242.5938 30.1306,244.4844 33.0213,244.4844 C34.24,244.4844 35.3963,244.1875 36.1463,243.6406 C36.7244,243.2344 37.0525,242.7813 37.0525,242.3906 C37.0525,241.9375 36.6619,241.5469 36.1931,241.5469 C35.9744,241.5469 35.7713,241.625 35.5838,241.8125 C35.1306,242.2969 35.1306,242.2969 34.9431,242.3906 C34.5213,242.6563 33.8338,242.7813 33.0681,242.7813 C31.0213,242.7813 29.7244,241.6875 29.7244,239.9844 L29.7244,238.8906 C29.7244,237.1094 30.9744,235.7969 32.7088,235.7969 C33.2869,235.7969 33.8963,235.9531 34.365,236.2031 C34.8494,236.4844 35.0213,236.7031 35.115,237.1094 C35.1775,237.5156 35.2088,237.6406 35.3494,237.7656 C35.49,237.9063 35.7244,238.0156 35.9431,238.0156 C36.2088,238.0156 36.4744,237.875 36.6463,237.6563 C36.7556,237.5 36.7869,237.3125 36.7869,236.8906 L36.7869,235.4688 C36.7869,235.0313 36.7713,234.9063 36.6775,234.75 C36.5213,234.4844 36.24,234.3438 35.9431,234.3438 C35.6463,234.3438 35.4431,234.4375 35.2244,234.75 L35.0525,234.6719 Z " fill="#000000"/><text fill="#000000" font-family="sans-serif" font-size="14" lengthAdjust="spacing" textLength="65" x="46.7088" y="243.8467">Contrato</text><line style="stroke:#181818;stroke-width:0.5;" x1="18.7088" x2="113.7088" y1="255" y2="255"/><line style="stroke:#181818;stroke-width:0.5;" x1="18.7088" x2="113.7088" y1="263" y2="263"/></g><!--class Horario--><g id="elem_Horario"><rect codeLine="5" fill="#F1F1F1" height="48" id="Horario" rx="2.5" ry="2.5" style="stroke:#181818;stroke-width:0.5;" width="84" x="93.2087" y="439"/><ellipse cx="108.2087" cy="455" fill="#ADD1B2" rx="11" ry="11" style="stroke:#181818;stroke-width:1.0;"/><path d="M110.5525,450.6719 C109.615,450.2344 109.0212,450.0938 108.1462,450.0938 C105.5212,450.0938 103.5212,452.1719 103.5212,454.8906 L103.5212,456.0156 C103.5212,458.5938 105.6306,460.4844 108.5212,460.4844 C109.74,460.4844 110.8962,460.1875 111.6462,459.6406 C112.2244,459.2344 112.5525,458.7813 112.5525,458.3906 C112.5525,457.9375 112.1619,457.5469 111.6931,457.5469 C111.4744,457.5469 111.2712,457.625 111.0837,457.8125 C110.6306,458.2969 110.6306,458.2969 110.4431,458.3906 C110.0212,458.6563 109.3337,458.7813 108.5681,458.7813 C106.5212,458.7813 105.2244,457.6875 105.2244,455.9844 L105.2244,454.8906 C105.2244,453.1094 106.4744,451.7969 108.2087,451.7969 C108.7869,451.7969 109.3962,451.9531 109.865,452.2031 C110.3494,452.4844 110.5212,452.7031 110.615,453.1094 C110.6775,453.5156 110.7087,453.6406 110.8494,453.7656 C110.99,453.9063 111.2244,454.0156 111.4431,454.0156 C111.7087,454.0156 111.9744,453.875 112.1462,453.6563 C112.2556,453.5 112.2869,453.3125 112.2869,452.8906 L112.2869,451.4688 C112.2869,451.0313 112.2712,450.9063 112.1775,450.75 C112.0212,450.4844 111.74,450.3438 111.4431,450.3438 C111.1462,450.3438 110.9431,450.4375 110.7244,450.75 L110.5525,450.6719 Z " fill="#000000"/><text fill="#000000" font-family="sans-serif" font-size="14" lengthAdjust="spacing" textLength="52" x="122.2087" y="459.8467">Horario</text><line style="stroke:#181818;stroke-width:0.5;" x1="94.2087" x2="176.2087" y1="471" y2="471"/><line style="stroke:#181818;stroke-width:0.5;" x1="94.2087" x2="176.2087" y1="479" y2="479"/></g><!--class Trabajadores--><g id="elem_Trabajadores"><rect codeLine="9" fill="#F1F1F1" height="48" id="Trabajadores" rx="2.5" ry="2.5" style="stroke:#181818;stroke-width:0.5;" width="125" x="129.7083" y="7"/><ellipse cx="144.7083" cy="23" fill="#ADD1B2" rx="11" ry="11" style="stroke:#181818;stroke-width:1.0;"/><path d="M147.0521,18.6719 C146.1146,18.2344 145.5208,18.0938 144.6458,18.0938 C142.0208,18.0938 140.0208,20.1719 140.0208,22.8906 L140.0208,24.0156 C140.0208,26.5938 142.1302,28.4844 145.0208,28.4844 C146.2396,28.4844 147.3958,28.1875 148.1458,27.6406 C148.724,27.2344 149.0521,26.7813 149.0521,26.3906 C149.0521,25.9375 148.6615,25.5469 148.1927,25.5469 C147.974,25.5469 147.7708,25.625 147.5833,25.8125 C147.1302,26.2969 147.1302,26.2969 146.9427,26.3906 C146.5208,26.6563 145.8333,26.7813 145.0677,26.7813 C143.0208,26.7813 141.724,25.6875 141.724,23.9844 L141.724,22.8906 C141.724,21.1094 142.974,19.7969 144.7083,19.7969 C145.2865,19.7969 145.8958,19.9531 146.3646,20.2031 C146.849,20.4844 147.0208,20.7031 147.1146,21.1094 C147.1771,21.5156 147.2083,21.6406 147.349,21.7656 C147.4896,21.9063 147.724,22.0156 147.9427,22.0156 C148.2083,22.0156 148.474,21.875 148.6458,21.6563 C148.7552,21.5 148.7865,21.3125 148.7865,20.8906 L148.7865,19.4688 C148.7865,19.0313 148.7708,18.9063 148.6771,18.75 C148.5208,18.4844 148.2396,18.3438 147.9427,18.3438 C147.6458,18.3438 147.4427,18.4375 147.224,18.75 L147.0521,18.6719 Z " fill="#000000"/><text fill="#000000" font-family="sans-serif" font-size="14" lengthAdjust="spacing" textLength="93" x="158.7083" y="27.8467">Trabajadores</text><line style="stroke:#181818;stroke-width:0.5;" x1="130.7083" x2="253.7083" y1="39" y2="39"/><line style="stroke:#181818;stroke-width:0.5;" x1="130.7083" x2="253.7083" y1="47" y2="47"/></g><!--class LectorDeHuellas--><g id="elem_LectorDeHuellas"><rect codeLine="13" fill="#F1F1F1" height="48" id="LectorDeHuellas" rx="2.5" ry="2.5" style="stroke:#181818;stroke-width:0.5;" width="149" x="117.7083" y="115"/><ellipse cx="132.7083" cy="131" fill="#ADD1B2" rx="11" ry="11" style="stroke:#181818;stroke-width:1.0;"/><path d="M135.0521,126.6719 C134.1146,126.2344 133.5208,126.0938 132.6458,126.0938 C130.0208,126.0938 128.0208,128.1719 128.0208,130.8906 L128.0208,132.0156 C128.0208,134.5938 130.1302,136.4844 133.0208,136.4844 C134.2396,136.4844 135.3958,136.1875 136.1458,135.6406 C136.724,135.2344 137.0521,134.7813 137.0521,134.3906 C137.0521,133.9375 136.6615,133.5469 136.1927,133.5469 C135.974,133.5469 135.7708,133.625 135.5833,133.8125 C135.1302,134.2969 135.1302,134.2969 134.9427,134.3906 C134.5208,134.6563 133.8333,134.7813 133.0677,134.7813 C131.0208,134.7813 129.724,133.6875 129.724,131.9844 L129.724,130.8906 C129.724,129.1094 130.974,127.7969 132.7083,127.7969 C133.2865,127.7969 133.8958,127.9531 134.3646,128.2031 C134.849,128.4844 135.0208,128.7031 135.1146,129.1094 C135.1771,129.5156 135.2083,129.6406 135.349,129.7656 C135.4896,129.9063 135.724,130.0156 135.9427,130.0156 C136.2083,130.0156 136.474,129.875 136.6458,129.6563 C136.7552,129.5 136.7865,129.3125 136.7865,128.8906 L136.7865,127.4688 C136.7865,127.0313 136.7708,126.9063 136.6771,126.75 C136.5208,126.4844 136.2396,126.3438 135.9427,126.3438 C135.6458,126.3438 135.4427,126.4375 135.224,126.75 L135.0521,126.6719 Z " fill="#000000"/><text fill="#000000" font-family="sans-serif" font-size="14" lengthAdjust="spacing" textLength="117" x="146.7083" y="135.8467">LectorDeHuellas</text><line style="stroke:#181818;stroke-width:0.5;" x1="118.7083" x2="265.7083" y1="147" y2="147"/><line style="stroke:#181818;stroke-width:0.5;" x1="118.7083" x2="265.7083" y1="155" y2="155"/></g><!--class Fichaje--><g id="elem_Fichaje"><rect codeLine="17" fill="#F1F1F1" height="48" id="Fichaje" rx="2.5" ry="2.5" style="stroke:#181818;stroke-width:0.5;" width="82" x="151.2083" y="223"/><ellipse cx="166.2083" cy="239" fill="#ADD1B2" rx="11" ry="11" style="stroke:#181818;stroke-width:1.0;"/><path d="M168.5521,234.6719 C167.6146,234.2344 167.0208,234.0938 166.1458,234.0938 C163.5208,234.0938 161.5208,236.1719 161.5208,238.8906 L161.5208,240.0156 C161.5208,242.5938 163.6302,244.4844 166.5208,244.4844 C167.7396,244.4844 168.8958,244.1875 169.6458,243.6406 C170.224,243.2344 170.5521,242.7813 170.5521,242.3906 C170.5521,241.9375 170.1615,241.5469 169.6927,241.5469 C169.474,241.5469 169.2708,241.625 169.0833,241.8125 C168.6302,242.2969 168.6302,242.2969 168.4427,242.3906 C168.0208,242.6563 167.3333,242.7813 166.5677,242.7813 C164.5208,242.7813 163.224,241.6875 163.224,239.9844 L163.224,238.8906 C163.224,237.1094 164.474,235.7969 166.2083,235.7969 C166.7865,235.7969 167.3958,235.9531 167.8646,236.2031 C168.349,236.4844 168.5208,236.7031 168.6146,237.1094 C168.6771,237.5156 168.7083,237.6406 168.849,237.7656 C168.9896,237.9063 169.224,238.0156 169.4427,238.0156 C169.7083,238.0156 169.974,237.875 170.1458,237.6563 C170.2552,237.5 170.2865,237.3125 170.2865,236.8906 L170.2865,235.4688 C170.2865,235.0313 170.2708,234.9063 170.1771,234.75 C170.0208,234.4844 169.7396,234.3438 169.4427,234.3438 C169.1458,234.3438 168.9427,234.4375 168.724,234.75 L168.5521,234.6719 Z " fill="#000000"/><text fill="#000000" font-family="sans-serif" font-size="14" lengthAdjust="spacing" textLength="50" x="180.2083" y="243.8467">Fichaje</text><line style="stroke:#181818;stroke-width:0.5;" x1="152.2083" x2="232.2083" y1="255" y2="255"/><line style="stroke:#181818;stroke-width:0.5;" x1="152.2083" x2="232.2083" y1="263" y2="263"/></g><!--class Informe--><g id="elem_Informe"><rect codeLine="21" fill="#F1F1F1" height="48" id="Informe" rx="2.5" ry="2.5" style="stroke:#181818;stroke-width:0.5;" width="89" x="147.7083" y="331"/><ellipse cx="162.7083" cy="347" fill="#ADD1B2" rx="11" ry="11" style="stroke:#181818;stroke-width:1.0;"/><path d="M165.0521,342.6719 C164.1146,342.2344 163.5208,342.0938 162.6458,342.0938 C160.0208,342.0938 158.0208,344.1719 158.0208,346.8906 L158.0208,348.0156 C158.0208,350.5938 160.1302,352.4844 163.0208,352.4844 C164.2396,352.4844 165.3958,352.1875 166.1458,351.6406 C166.724,351.2344 167.0521,350.7813 167.0521,350.3906 C167.0521,349.9375 166.6615,349.5469 166.1927,349.5469 C165.974,349.5469 165.7708,349.625 165.5833,349.8125 C165.1302,350.2969 165.1302,350.2969 164.9427,350.3906 C164.5208,350.6563 163.8333,350.7813 163.0677,350.7813 C161.0208,350.7813 159.724,349.6875 159.724,347.9844 L159.724,346.8906 C159.724,345.1094 160.974,343.7969 162.7083,343.7969 C163.2865,343.7969 163.8958,343.9531 164.3646,344.2031 C164.849,344.4844 165.0208,344.7031 165.1146,345.1094 C165.1771,345.5156 165.2083,345.6406 165.349,345.7656 C165.4896,345.9063 165.724,346.0156 165.9427,346.0156 C166.2083,346.0156 166.474,345.875 166.6458,345.6563 C166.7552,345.5 166.7865,345.3125 166.7865,344.8906 L166.7865,343.4688 C166.7865,343.0313 166.7708,342.9063 166.6771,342.75 C166.5208,342.4844 166.2396,342.3438 165.9427,342.3438 C165.6458,342.3438 165.4427,342.4375 165.224,342.75 L165.0521,342.6719 Z " fill="#000000"/><text fill="#000000" font-family="sans-serif" font-size="14" lengthAdjust="spacing" textLength="57" x="176.7083" y="351.8467">Informe</text><line style="stroke:#181818;stroke-width:0.5;" x1="148.7083" x2="235.7083" y1="363" y2="363"/><line style="stroke:#181818;stroke-width:0.5;" x1="148.7083" x2="235.7083" y1="371" y2="371"/></g><!--link Contrato to Horario--><g id="link_Contrato_Horario"><path codeLine="27" d="M73.7243,271.309 C86.9971,312.474 114.4363,397.5753 127.7023,438.7196 " fill="none" id="Contrato-Horario" style="stroke:#181818;stroke-width:1.0;"/><text fill="#000000" font-family="sans-serif" font-size="13" lengthAdjust="spacing" textLength="62" x="6" y="291.1455">Establece</text></g><!--link Trabajadores to Contrato--><g id="link_Trabajadores_Contrato"><path codeLine="28" d="M157.8293,55.152 C138.2123,70.062 114.7153,91.091 100.2087,115 C79.6105,148.949 71.391,195.165 68.1832,222.657 " fill="none" id="Trabajadores-Contrato" style="stroke:#181818;stroke-width:1.0;"/><text fill="#000000" font-family="sans-serif" font-size="13" lengthAdjust="spacing" textLength="35" x="110.1838" y="74.9503">Tiene</text></g><!--link Trabajadores to LectorDeHuellas--><g id="link_Trabajadores_LectorDeHuellas"><path codeLine="29" d="M192.2083,55 C192.2083,72.658 192.2083,96.941 192.2083,114.678 " fill="none" id="Trabajadores-LectorDeHuellas" style="stroke:#181818;stroke-width:1.0;"/><text fill="#000000" font-family="sans-serif" font-size="13" lengthAdjust="spacing" textLength="24" x="165.1333" y="75.1558">Usa</text></g><!--link LectorDeHuellas to Fichaje--><g id="link_LectorDeHuellas_Fichaje"><path codeLine="30" d="M192.2083,163 C192.2083,180.658 192.2083,204.941 192.2083,222.678 " fill="none" id="LectorDeHuellas-Fichaje" style="stroke:#181818;stroke-width:1.0;"/><text fill="#000000" font-family="sans-serif" font-size="13" lengthAdjust="spacing" textLength="29" x="159.4927" y="183.1558">Para</text></g><!--link Fichaje to Informe--><g id="link_Fichaje_Informe"><path codeLine="31" d="M192.2083,271 C192.2083,288.658 192.2083,312.941 192.2083,330.678 " fill="none" id="Fichaje-Informe" style="stroke:#181818;stroke-width:1.0;"/><text fill="#000000" font-family="sans-serif" font-size="13" lengthAdjust="spacing" textLength="83" x="120.4421" y="291.0141">Se usa en un</text></g><!--link Trabajadores to Informe--><g id="link_Trabajadores_Informe"><path codeLine="32" d="M230.7673,55.313 C250.7373,69.74 273.1963,90.233 284.2083,115 C318.8013,192.799 250.1593,287.942 213.3743,330.946 " fill="none" id="Trabajadores-Informe" style="stroke:#181818;stroke-width:1.0;"/><text fill="#000000" font-family="sans-serif" font-size="13" lengthAdjust="spacing" textLength="62" x="247.7223" y="75.1505">Revisa su</text></g><!--link Informe to Horario--><g id="link_Informe_Horario"><path codeLine="33" d="M179.8403,379 C170.3453,396.6584 157.2873,420.9408 147.7493,438.6784 " fill="none" id="Informe-Horario" style="stroke:#181818;stroke-width:1.0;stroke-dasharray:7.0,7.0;"/><text fill="#000000" font-family="sans-serif" font-size="13" lengthAdjust="spacing" textLength="104" x="59.3464" y="399.1558">Ayuda a cumplir</text></g><!--SRC=[NOzD2i8m44RtSueX-te7yOSABaJh0QRfY2bj8fD44F7kbhOffDltFPWtkYFlSUTi40eElm0_03t2qWc9oLabL5DBZHFssN1c7PpikOpS3I3RZaO_gUMCdUp3IPyOm5AW3ZvGtR5cXKMH8Y0xh2h3TjgNz9LnzpJkgovOTweBoMJEbP1grOqnUaAs6ErepCtP9NNbjnai7pCblQUsdzWG4khOlpeZ2ZURzDCV]--></g></svg>
