<?xml version="1.0" encoding="UTF-8" standalone="no"?><svg xmlns="http://www.w3.org/2000/svg" xmlns:xlink="http://www.w3.org/1999/xlink" contentStyleType="text/css" height="386px" preserveAspectRatio="none" style="width:439px;height:386px;background:#FFFFFF;" version="1.1" viewBox="0 0 439 386" width="439px" zoomAndPan="magnify"><defs/><g><!--MD5=[6b7a62471407deb59c55c968440c7380]
class Contrato--><g id="elem_Contrato"><rect codeLine="2" fill="#F1F1F1" height="48" id="Contrato" rx="2.5" ry="2.5" style="stroke:#181818;stroke-width:0.5;" width="87" x="27.5688" y="115"/><ellipse cx="42.5688" cy="131" fill="#ADD1B2" rx="11" ry="11" style="stroke:#181818;stroke-width:1.0;"/><path d="M45.3344,126.875 Q45.4906,126.6563 45.6781,126.5469 Q45.8656,126.4375 46.0844,126.4375 Q46.4594,126.4375 46.6938,126.7031 Q46.9281,126.9531 46.9281,127.5625 L46.9281,129.0156 Q46.9281,129.625 46.6938,129.8906 Q46.4594,130.1563 46.0844,130.1563 Q45.7406,130.1563 45.5375,129.9531 Q45.3344,129.7656 45.225,129.25 Q45.1781,128.8906 44.9906,128.7031 Q44.6625,128.3281 44.0531,128.1094 Q43.4438,127.8906 42.8188,127.8906 Q42.0531,127.8906 41.4125,128.2188 Q40.7875,128.5469 40.2875,129.2969 Q39.8031,130.0469 39.8031,131.0781 L39.8031,132.1719 Q39.8031,133.4063 40.6938,134.2344 Q41.5844,135.0469 43.1781,135.0469 Q44.1156,135.0469 44.7719,134.7969 Q45.1625,134.6406 45.5844,134.2031 Q45.85,133.9375 45.9906,133.8594 Q46.1469,133.7813 46.35,133.7813 Q46.6781,133.7813 46.9281,134.0469 Q47.1938,134.2969 47.1938,134.6406 Q47.1938,134.9844 46.85,135.3906 Q46.35,135.9688 45.5531,136.2969 Q44.475,136.75 43.1781,136.75 Q41.6625,136.75 40.4594,136.125 Q39.475,135.625 38.7875,134.5625 Q38.1,133.4844 38.1,132.2031 L38.1,131.0469 Q38.1,129.7188 38.7094,128.5781 Q39.3344,127.4219 40.4281,126.8125 Q41.5219,126.1875 42.7563,126.1875 Q43.4906,126.1875 44.1313,126.3594 Q44.7875,126.5156 45.3344,126.875 Z " fill="#000000"/><text fill="#000000" font-family="sans-serif" font-size="14" lengthAdjust="spacing" textLength="55" x="56.5688" y="136.7285">Contrato</text><line style="stroke:#181818;stroke-width:0.5;" x1="28.5688" x2="113.5688" y1="147" y2="147"/><line style="stroke:#181818;stroke-width:0.5;" x1="28.5688" x2="113.5688" y1="155" y2="155"/></g><!--MD5=[74438b4bcd0b343607a1e9b7af88b110]
class Horario--><g id="elem_Horario"><rect codeLine="6" fill="#F1F1F1" height="48" id="Horario" rx="2.5" ry="2.5" style="stroke:#181818;stroke-width:0.5;" width="78" x="32.0688" y="223"/><ellipse cx="47.0688" cy="239" fill="#ADD1B2" rx="11" ry="11" style="stroke:#181818;stroke-width:1.0;"/><path d="M49.8344,234.875 Q49.9906,234.6563 50.1781,234.5469 Q50.3656,234.4375 50.5844,234.4375 Q50.9594,234.4375 51.1938,234.7031 Q51.4281,234.9531 51.4281,235.5625 L51.4281,237.0156 Q51.4281,237.625 51.1938,237.8906 Q50.9594,238.1563 50.5844,238.1563 Q50.2406,238.1563 50.0375,237.9531 Q49.8344,237.7656 49.725,237.25 Q49.6781,236.8906 49.4906,236.7031 Q49.1625,236.3281 48.5531,236.1094 Q47.9438,235.8906 47.3188,235.8906 Q46.5531,235.8906 45.9125,236.2188 Q45.2875,236.5469 44.7875,237.2969 Q44.3031,238.0469 44.3031,239.0781 L44.3031,240.1719 Q44.3031,241.4063 45.1938,242.2344 Q46.0844,243.0469 47.6781,243.0469 Q48.6156,243.0469 49.2719,242.7969 Q49.6625,242.6406 50.0844,242.2031 Q50.35,241.9375 50.4906,241.8594 Q50.6469,241.7813 50.85,241.7813 Q51.1781,241.7813 51.4281,242.0469 Q51.6938,242.2969 51.6938,242.6406 Q51.6938,242.9844 51.35,243.3906 Q50.85,243.9688 50.0531,244.2969 Q48.975,244.75 47.6781,244.75 Q46.1625,244.75 44.9594,244.125 Q43.975,243.625 43.2875,242.5625 Q42.6,241.4844 42.6,240.2031 L42.6,239.0469 Q42.6,237.7188 43.2094,236.5781 Q43.8344,235.4219 44.9281,234.8125 Q46.0219,234.1875 47.2563,234.1875 Q47.9906,234.1875 48.6313,234.3594 Q49.2875,234.5156 49.8344,234.875 Z " fill="#000000"/><text fill="#000000" font-family="sans-serif" font-size="14" lengthAdjust="spacing" textLength="46" x="61.0688" y="244.7285">Horario</text><line style="stroke:#181818;stroke-width:0.5;" x1="33.0688" x2="109.0688" y1="255" y2="255"/><line style="stroke:#181818;stroke-width:0.5;" x1="33.0688" x2="109.0688" y1="263" y2="263"/></g><!--MD5=[72b3b7cc39d049a8e03c765d0ad412e1]
class Trabajadores--><g id="elem_Trabajadores"><rect codeLine="10" fill="#F1F1F1" height="48" id="Trabajadores" rx="2.5" ry="2.5" style="stroke:#181818;stroke-width:0.5;" width="117" x="85.5688" y="7"/><ellipse cx="100.5688" cy="23" fill="#ADD1B2" rx="11" ry="11" style="stroke:#181818;stroke-width:1.0;"/><path d="M103.3344,18.875 Q103.4906,18.6563 103.6781,18.5469 Q103.8656,18.4375 104.0844,18.4375 Q104.4594,18.4375 104.6938,18.7031 Q104.9281,18.9531 104.9281,19.5625 L104.9281,21.0156 Q104.9281,21.625 104.6938,21.8906 Q104.4594,22.1563 104.0844,22.1563 Q103.7406,22.1563 103.5375,21.9531 Q103.3344,21.7656 103.225,21.25 Q103.1781,20.8906 102.9906,20.7031 Q102.6625,20.3281 102.0531,20.1094 Q101.4438,19.8906 100.8188,19.8906 Q100.0531,19.8906 99.4125,20.2188 Q98.7875,20.5469 98.2875,21.2969 Q97.8031,22.0469 97.8031,23.0781 L97.8031,24.1719 Q97.8031,25.4063 98.6938,26.2344 Q99.5844,27.0469 101.1781,27.0469 Q102.1156,27.0469 102.7719,26.7969 Q103.1625,26.6406 103.5844,26.2031 Q103.85,25.9375 103.9906,25.8594 Q104.1469,25.7813 104.35,25.7813 Q104.6781,25.7813 104.9281,26.0469 Q105.1938,26.2969 105.1938,26.6406 Q105.1938,26.9844 104.85,27.3906 Q104.35,27.9688 103.5531,28.2969 Q102.475,28.75 101.1781,28.75 Q99.6625,28.75 98.4594,28.125 Q97.475,27.625 96.7875,26.5625 Q96.1,25.4844 96.1,24.2031 L96.1,23.0469 Q96.1,21.7188 96.7094,20.5781 Q97.3344,19.4219 98.4281,18.8125 Q99.5219,18.1875 100.7563,18.1875 Q101.4906,18.1875 102.1313,18.3594 Q102.7875,18.5156 103.3344,18.875 Z " fill="#000000"/><text fill="#000000" font-family="sans-serif" font-size="14" lengthAdjust="spacing" textLength="85" x="114.5688" y="28.7285">Trabajadores</text><line style="stroke:#181818;stroke-width:0.5;" x1="86.5688" x2="201.5688" y1="39" y2="39"/><line style="stroke:#181818;stroke-width:0.5;" x1="86.5688" x2="201.5688" y1="47" y2="47"/></g><!--MD5=[321b69ba50a575523e459a9da179a232]
class LectorDeHuellas--><g id="elem_LectorDeHuellas"><rect codeLine="14" fill="#F1F1F1" height="48" id="LectorDeHuellas" rx="2.5" ry="2.5" style="stroke:#181818;stroke-width:0.5;" width="136" x="150.0688" y="115"/><ellipse cx="165.0688" cy="131" fill="#ADD1B2" rx="11" ry="11" style="stroke:#181818;stroke-width:1.0;"/><path d="M167.8344,126.875 Q167.9906,126.6563 168.1781,126.5469 Q168.3656,126.4375 168.5844,126.4375 Q168.9594,126.4375 169.1938,126.7031 Q169.4281,126.9531 169.4281,127.5625 L169.4281,129.0156 Q169.4281,129.625 169.1938,129.8906 Q168.9594,130.1563 168.5844,130.1563 Q168.2406,130.1563 168.0375,129.9531 Q167.8344,129.7656 167.725,129.25 Q167.6781,128.8906 167.4906,128.7031 Q167.1625,128.3281 166.5531,128.1094 Q165.9438,127.8906 165.3188,127.8906 Q164.5531,127.8906 163.9125,128.2188 Q163.2875,128.5469 162.7875,129.2969 Q162.3031,130.0469 162.3031,131.0781 L162.3031,132.1719 Q162.3031,133.4063 163.1938,134.2344 Q164.0844,135.0469 165.6781,135.0469 Q166.6156,135.0469 167.2719,134.7969 Q167.6625,134.6406 168.0844,134.2031 Q168.35,133.9375 168.4906,133.8594 Q168.6469,133.7813 168.85,133.7813 Q169.1781,133.7813 169.4281,134.0469 Q169.6938,134.2969 169.6938,134.6406 Q169.6938,134.9844 169.35,135.3906 Q168.85,135.9688 168.0531,136.2969 Q166.975,136.75 165.6781,136.75 Q164.1625,136.75 162.9594,136.125 Q161.975,135.625 161.2875,134.5625 Q160.6,133.4844 160.6,132.2031 L160.6,131.0469 Q160.6,129.7188 161.2094,128.5781 Q161.8344,127.4219 162.9281,126.8125 Q164.0219,126.1875 165.2563,126.1875 Q165.9906,126.1875 166.6313,126.3594 Q167.2875,126.5156 167.8344,126.875 Z " fill="#000000"/><text fill="#000000" font-family="sans-serif" font-size="14" lengthAdjust="spacing" textLength="104" x="179.0688" y="136.7285">LectorDeHuellas</text><line style="stroke:#181818;stroke-width:0.5;" x1="151.0688" x2="285.0688" y1="147" y2="147"/><line style="stroke:#181818;stroke-width:0.5;" x1="151.0688" x2="285.0688" y1="155" y2="155"/></g><!--MD5=[f03614d62e157a5cf111308c833381a2]
class Fichaje--><g id="elem_Fichaje"><rect codeLine="18" fill="#F1F1F1" height="48" id="Fichaje" rx="2.5" ry="2.5" style="stroke:#181818;stroke-width:0.5;" width="78" x="179.0688" y="223"/><ellipse cx="194.0688" cy="239" fill="#ADD1B2" rx="11" ry="11" style="stroke:#181818;stroke-width:1.0;"/><path d="M196.8344,234.875 Q196.9906,234.6563 197.1781,234.5469 Q197.3656,234.4375 197.5844,234.4375 Q197.9594,234.4375 198.1938,234.7031 Q198.4281,234.9531 198.4281,235.5625 L198.4281,237.0156 Q198.4281,237.625 198.1938,237.8906 Q197.9594,238.1563 197.5844,238.1563 Q197.2406,238.1563 197.0375,237.9531 Q196.8344,237.7656 196.725,237.25 Q196.6781,236.8906 196.4906,236.7031 Q196.1625,236.3281 195.5531,236.1094 Q194.9438,235.8906 194.3188,235.8906 Q193.5531,235.8906 192.9125,236.2188 Q192.2875,236.5469 191.7875,237.2969 Q191.3031,238.0469 191.3031,239.0781 L191.3031,240.1719 Q191.3031,241.4063 192.1938,242.2344 Q193.0844,243.0469 194.6781,243.0469 Q195.6156,243.0469 196.2719,242.7969 Q196.6625,242.6406 197.0844,242.2031 Q197.35,241.9375 197.4906,241.8594 Q197.6469,241.7813 197.85,241.7813 Q198.1781,241.7813 198.4281,242.0469 Q198.6938,242.2969 198.6938,242.6406 Q198.6938,242.9844 198.35,243.3906 Q197.85,243.9688 197.0531,244.2969 Q195.975,244.75 194.6781,244.75 Q193.1625,244.75 191.9594,244.125 Q190.975,243.625 190.2875,242.5625 Q189.6,241.4844 189.6,240.2031 L189.6,239.0469 Q189.6,237.7188 190.2094,236.5781 Q190.8344,235.4219 191.9281,234.8125 Q193.0219,234.1875 194.2563,234.1875 Q194.9906,234.1875 195.6313,234.3594 Q196.2875,234.5156 196.8344,234.875 Z " fill="#000000"/><text fill="#000000" font-family="sans-serif" font-size="14" lengthAdjust="spacing" textLength="46" x="208.0688" y="244.7285">Fichaje</text><line style="stroke:#181818;stroke-width:0.5;" x1="180.0688" x2="256.0688" y1="255" y2="255"/><line style="stroke:#181818;stroke-width:0.5;" x1="180.0688" x2="256.0688" y1="263" y2="263"/></g><!--MD5=[df1837eb2b2a8a561ce45404d2e859f6]
class Informe--><g id="elem_Informe"><rect codeLine="22" fill="#F1F1F1" height="48" id="Informe" rx="2.5" ry="2.5" style="stroke:#181818;stroke-width:0.5;" width="79" x="250.5688" y="331"/><ellipse cx="265.5688" cy="347" fill="#ADD1B2" rx="11" ry="11" style="stroke:#181818;stroke-width:1.0;"/><path d="M268.3344,342.875 Q268.4906,342.6563 268.6781,342.5469 Q268.8656,342.4375 269.0844,342.4375 Q269.4594,342.4375 269.6938,342.7031 Q269.9281,342.9531 269.9281,343.5625 L269.9281,345.0156 Q269.9281,345.625 269.6938,345.8906 Q269.4594,346.1563 269.0844,346.1563 Q268.7406,346.1563 268.5375,345.9531 Q268.3344,345.7656 268.225,345.25 Q268.1781,344.8906 267.9906,344.7031 Q267.6625,344.3281 267.0531,344.1094 Q266.4438,343.8906 265.8188,343.8906 Q265.0531,343.8906 264.4125,344.2188 Q263.7875,344.5469 263.2875,345.2969 Q262.8031,346.0469 262.8031,347.0781 L262.8031,348.1719 Q262.8031,349.4063 263.6938,350.2344 Q264.5844,351.0469 266.1781,351.0469 Q267.1156,351.0469 267.7719,350.7969 Q268.1625,350.6406 268.5844,350.2031 Q268.85,349.9375 268.9906,349.8594 Q269.1469,349.7813 269.35,349.7813 Q269.6781,349.7813 269.9281,350.0469 Q270.1938,350.2969 270.1938,350.6406 Q270.1938,350.9844 269.85,351.3906 Q269.35,351.9688 268.5531,352.2969 Q267.475,352.75 266.1781,352.75 Q264.6625,352.75 263.4594,352.125 Q262.475,351.625 261.7875,350.5625 Q261.1,349.4844 261.1,348.2031 L261.1,347.0469 Q261.1,345.7188 261.7094,344.5781 Q262.3344,343.4219 263.4281,342.8125 Q264.5219,342.1875 265.7563,342.1875 Q266.4906,342.1875 267.1313,342.3594 Q267.7875,342.5156 268.3344,342.875 Z " fill="#000000"/><text fill="#000000" font-family="sans-serif" font-size="14" lengthAdjust="spacing" textLength="47" x="279.5688" y="352.7285">Informe</text><line style="stroke:#181818;stroke-width:0.5;" x1="251.5688" x2="328.5688" y1="363" y2="363"/><line style="stroke:#181818;stroke-width:0.5;" x1="251.5688" x2="328.5688" y1="371" y2="371"/></g><!--MD5=[3d1b04b166250ef09a7920ba19a1f474]
class EquipoDeControl--><g id="elem_EquipoDeControl"><rect codeLine="26" fill="#F1F1F1" height="48" id="EquipoDeControl" rx="2.5" ry="2.5" style="stroke:#181818;stroke-width:0.5;" width="140" x="292.0688" y="223"/><ellipse cx="307.0688" cy="239" fill="#ADD1B2" rx="11" ry="11" style="stroke:#181818;stroke-width:1.0;"/><path d="M309.8344,234.875 Q309.9906,234.6563 310.1781,234.5469 Q310.3656,234.4375 310.5844,234.4375 Q310.9594,234.4375 311.1938,234.7031 Q311.4281,234.9531 311.4281,235.5625 L311.4281,237.0156 Q311.4281,237.625 311.1938,237.8906 Q310.9594,238.1563 310.5844,238.1563 Q310.2406,238.1563 310.0375,237.9531 Q309.8344,237.7656 309.725,237.25 Q309.6781,236.8906 309.4906,236.7031 Q309.1625,236.3281 308.5531,236.1094 Q307.9438,235.8906 307.3188,235.8906 Q306.5531,235.8906 305.9125,236.2188 Q305.2875,236.5469 304.7875,237.2969 Q304.3031,238.0469 304.3031,239.0781 L304.3031,240.1719 Q304.3031,241.4063 305.1938,242.2344 Q306.0844,243.0469 307.6781,243.0469 Q308.6156,243.0469 309.2719,242.7969 Q309.6625,242.6406 310.0844,242.2031 Q310.35,241.9375 310.4906,241.8594 Q310.6469,241.7813 310.85,241.7813 Q311.1781,241.7813 311.4281,242.0469 Q311.6938,242.2969 311.6938,242.6406 Q311.6938,242.9844 311.35,243.3906 Q310.85,243.9688 310.0531,244.2969 Q308.975,244.75 307.6781,244.75 Q306.1625,244.75 304.9594,244.125 Q303.975,243.625 303.2875,242.5625 Q302.6,241.4844 302.6,240.2031 L302.6,239.0469 Q302.6,237.7188 303.2094,236.5781 Q303.8344,235.4219 304.9281,234.8125 Q306.0219,234.1875 307.2563,234.1875 Q307.9906,234.1875 308.6313,234.3594 Q309.2875,234.5156 309.8344,234.875 Z " fill="#000000"/><text fill="#000000" font-family="sans-serif" font-size="14" lengthAdjust="spacing" textLength="108" x="321.0688" y="244.7285">EquipoDeControl</text><line style="stroke:#181818;stroke-width:0.5;" x1="293.0688" x2="431.0688" y1="255" y2="255"/><line style="stroke:#181818;stroke-width:0.5;" x1="293.0688" x2="431.0688" y1="263" y2="263"/></g><!--MD5=[2e1bf6797f9272c8a3e79d31a9223edb]
link Contrato to Horario--><g id="link_Contrato_Horario"><path codeLine="30" d="M71.0688,163 C71.0688,180.66 71.0688,204.94 71.0688,222.68 " fill="none" id="Contrato-Horario" style="stroke:#181818;stroke-width:1.0;"/><text fill="#000000" font-family="sans-serif" font-size="13" lengthAdjust="spacing" textLength="58" x="6" y="184.338">Establece</text></g><!--MD5=[767864c0a0ba89e50029405531d5df77]
link Trabajadores to Contrato--><g id="link_Trabajadores_Contrato"><path codeLine="31" d="M128.2288,55 C116.0688,72.66 99.3488,96.94 87.1288,114.68 " fill="none" id="Trabajadores-Contrato" style="stroke:#181818;stroke-width:1.0;"/><text fill="#000000" font-family="sans-serif" font-size="13" lengthAdjust="spacing" textLength="31" x="89.5896" y="76.338">Tiene</text></g><!--MD5=[23c39337048f72c5417b1e49849d961c]
link Trabajadores to LectorDeHuellas--><g id="link_Trabajadores_LectorDeHuellas"><path codeLine="32" d="M160.1288,55 C172.4488,72.66 189.4088,96.94 201.7888,114.68 " fill="none" id="Trabajadores-LectorDeHuellas" style="stroke:#181818;stroke-width:1.0;"/><text fill="#000000" font-family="sans-serif" font-size="13" lengthAdjust="spacing" textLength="23" x="138.2403" y="76.338">Usa</text></g><!--MD5=[c6c2ed6bcfee8515bffdb2ca243e4297]
link LectorDeHuellas to Fichaje--><g id="link_LectorDeHuellas_Fichaje"><path codeLine="33" d="M218.0688,163 C218.0688,180.66 218.0688,204.94 218.0688,222.68 " fill="none" id="LectorDeHuellas-Fichaje" style="stroke:#181818;stroke-width:1.0;"/><text fill="#000000" font-family="sans-serif" font-size="13" lengthAdjust="spacing" textLength="27" x="187.7781" y="184.338">Para</text></g><!--MD5=[bf6e667e263c1cc4245f39c4c96351dc]
link Fichaje to Informe--><g id="link_Fichaje_Informe"><path codeLine="34" d="M233.6888,271 C245.6888,288.66 262.1788,312.94 274.2288,330.68 " fill="none" id="Fichaje-Informe" style="stroke:#181818;stroke-width:1.0;"/><text fill="#000000" font-family="sans-serif" font-size="13" lengthAdjust="spacing" textLength="77" x="151.1118" y="292.338">Se usa en un</text></g><!--MD5=[80adc26a8f980c7db9d2558df8f5c5a7]
link EquipoDeControl to Informe--><g id="link_EquipoDeControl_Informe"><path codeLine="35" d="M346.4488,271 C334.4488,288.66 317.9588,312.94 305.9088,330.68 " fill="none" id="EquipoDeControl-Informe" style="stroke:#181818;stroke-width:1.0;"/><text fill="#000000" font-family="sans-serif" font-size="13" lengthAdjust="spacing" textLength="38" x="300.0101" y="292.338">Revisa</text></g><!--MD5=[86a0ffddd232ef359deda09cf8d8189a]
@startuml

class Contrato {

}

class Horario {

}

class Trabajadores {

}

class LectorDeHuellas {

}

class Fichaje {

}

class Informe {

}

class EquipoDeControl {

}

Contrato "Establece" - - Horario
Trabajadores "Tiene" - -  Contrato
Trabajadores "Usa" - - LectorDeHuellas
LectorDeHuellas "Para" - - Fichaje
Fichaje "Se usa en un" - - Informe
EquipoDeControl "Revisa" - - Informe

@enduml

PlantUML version 1.2022.7(Mon Aug 22 19:01:30 CEST 2022)
(GPL source distribution)
Java Runtime: Java(TM) SE Runtime Environment
JVM: Java HotSpot(TM) 64-Bit Server VM
Default Encoding: UTF-8
Language: en
Country: US
--></g></svg>