<?xml version="1.0" encoding="UTF-8" standalone="no"?><svg xmlns="http://www.w3.org/2000/svg" xmlns:xlink="http://www.w3.org/1999/xlink" contentStyleType="text/css" height="386px" preserveAspectRatio="none" style="width:418px;height:386px;background:#FFFFFF;" version="1.1" viewBox="0 0 418 386" width="418px" zoomAndPan="magnify"><defs/><g><!--MD5=[6b7a62471407deb59c55c968440c7380]
class Contrato--><g id="elem_Contrato"><rect codeLine="2" fill="#F1F1F1" height="48" id="Contrato" rx="2.5" ry="2.5" style="stroke:#181818;stroke-width:0.5;" width="87" x="7" y="115"/><ellipse cx="22" cy="131" fill="#ADD1B2" rx="11" ry="11" style="stroke:#181818;stroke-width:1.0;"/><path d="M24.7656,126.875 Q24.9219,126.6563 25.1094,126.5469 Q25.2969,126.4375 25.5156,126.4375 Q25.8906,126.4375 26.125,126.7031 Q26.3594,126.9531 26.3594,127.5625 L26.3594,129.0156 Q26.3594,129.625 26.125,129.8906 Q25.8906,130.1563 25.5156,130.1563 Q25.1719,130.1563 24.9688,129.9531 Q24.7656,129.7656 24.6563,129.25 Q24.6094,128.8906 24.4219,128.7031 Q24.0938,128.3281 23.4844,128.1094 Q22.875,127.8906 22.25,127.8906 Q21.4844,127.8906 20.8438,128.2188 Q20.2188,128.5469 19.7188,129.2969 Q19.2344,130.0469 19.2344,131.0781 L19.2344,132.1719 Q19.2344,133.4063 20.125,134.2344 Q21.0156,135.0469 22.6094,135.0469 Q23.5469,135.0469 24.2031,134.7969 Q24.5938,134.6406 25.0156,134.2031 Q25.2813,133.9375 25.4219,133.8594 Q25.5781,133.7813 25.7813,133.7813 Q26.1094,133.7813 26.3594,134.0469 Q26.625,134.2969 26.625,134.6406 Q26.625,134.9844 26.2813,135.3906 Q25.7813,135.9688 24.9844,136.2969 Q23.9063,136.75 22.6094,136.75 Q21.0938,136.75 19.8906,136.125 Q18.9063,135.625 18.2188,134.5625 Q17.5313,133.4844 17.5313,132.2031 L17.5313,131.0469 Q17.5313,129.7188 18.1406,128.5781 Q18.7656,127.4219 19.8594,126.8125 Q20.9531,126.1875 22.1875,126.1875 Q22.9219,126.1875 23.5625,126.3594 Q24.2188,126.5156 24.7656,126.875 Z " fill="#000000"/><text fill="#000000" font-family="sans-serif" font-size="14" lengthAdjust="spacing" textLength="55" x="36" y="136.7285">Contrato</text><line style="stroke:#181818;stroke-width:0.5;" x1="8" x2="93" y1="147" y2="147"/><line style="stroke:#181818;stroke-width:0.5;" x1="8" x2="93" y1="155" y2="155"/></g><!--MD5=[74438b4bcd0b343607a1e9b7af88b110]
class Horario--><g id="elem_Horario"><rect codeLine="6" fill="#F1F1F1" height="48" id="Horario" rx="2.5" ry="2.5" style="stroke:#181818;stroke-width:0.5;" width="78" x="11.5" y="223"/><ellipse cx="26.5" cy="239" fill="#ADD1B2" rx="11" ry="11" style="stroke:#181818;stroke-width:1.0;"/><path d="M29.2656,234.875 Q29.4219,234.6563 29.6094,234.5469 Q29.7969,234.4375 30.0156,234.4375 Q30.3906,234.4375 30.625,234.7031 Q30.8594,234.9531 30.8594,235.5625 L30.8594,237.0156 Q30.8594,237.625 30.625,237.8906 Q30.3906,238.1563 30.0156,238.1563 Q29.6719,238.1563 29.4688,237.9531 Q29.2656,237.7656 29.1563,237.25 Q29.1094,236.8906 28.9219,236.7031 Q28.5938,236.3281 27.9844,236.1094 Q27.375,235.8906 26.75,235.8906 Q25.9844,235.8906 25.3438,236.2188 Q24.7188,236.5469 24.2188,237.2969 Q23.7344,238.0469 23.7344,239.0781 L23.7344,240.1719 Q23.7344,241.4063 24.625,242.2344 Q25.5156,243.0469 27.1094,243.0469 Q28.0469,243.0469 28.7031,242.7969 Q29.0938,242.6406 29.5156,242.2031 Q29.7813,241.9375 29.9219,241.8594 Q30.0781,241.7813 30.2813,241.7813 Q30.6094,241.7813 30.8594,242.0469 Q31.125,242.2969 31.125,242.6406 Q31.125,242.9844 30.7813,243.3906 Q30.2813,243.9688 29.4844,244.2969 Q28.4063,244.75 27.1094,244.75 Q25.5938,244.75 24.3906,244.125 Q23.4063,243.625 22.7188,242.5625 Q22.0313,241.4844 22.0313,240.2031 L22.0313,239.0469 Q22.0313,237.7188 22.6406,236.5781 Q23.2656,235.4219 24.3594,234.8125 Q25.4531,234.1875 26.6875,234.1875 Q27.4219,234.1875 28.0625,234.3594 Q28.7188,234.5156 29.2656,234.875 Z " fill="#000000"/><text fill="#000000" font-family="sans-serif" font-size="14" lengthAdjust="spacing" textLength="46" x="40.5" y="244.7285">Horario</text><line style="stroke:#181818;stroke-width:0.5;" x1="12.5" x2="88.5" y1="255" y2="255"/><line style="stroke:#181818;stroke-width:0.5;" x1="12.5" x2="88.5" y1="263" y2="263"/></g><!--MD5=[72b3b7cc39d049a8e03c765d0ad412e1]
class Trabajadores--><g id="elem_Trabajadores"><rect codeLine="10" fill="#F1F1F1" height="48" id="Trabajadores" rx="2.5" ry="2.5" style="stroke:#181818;stroke-width:0.5;" width="117" x="65" y="7"/><ellipse cx="80" cy="23" fill="#ADD1B2" rx="11" ry="11" style="stroke:#181818;stroke-width:1.0;"/><path d="M82.7656,18.875 Q82.9219,18.6563 83.1094,18.5469 Q83.2969,18.4375 83.5156,18.4375 Q83.8906,18.4375 84.125,18.7031 Q84.3594,18.9531 84.3594,19.5625 L84.3594,21.0156 Q84.3594,21.625 84.125,21.8906 Q83.8906,22.1563 83.5156,22.1563 Q83.1719,22.1563 82.9688,21.9531 Q82.7656,21.7656 82.6563,21.25 Q82.6094,20.8906 82.4219,20.7031 Q82.0938,20.3281 81.4844,20.1094 Q80.875,19.8906 80.25,19.8906 Q79.4844,19.8906 78.8438,20.2188 Q78.2188,20.5469 77.7188,21.2969 Q77.2344,22.0469 77.2344,23.0781 L77.2344,24.1719 Q77.2344,25.4063 78.125,26.2344 Q79.0156,27.0469 80.6094,27.0469 Q81.5469,27.0469 82.2031,26.7969 Q82.5938,26.6406 83.0156,26.2031 Q83.2813,25.9375 83.4219,25.8594 Q83.5781,25.7813 83.7813,25.7813 Q84.1094,25.7813 84.3594,26.0469 Q84.625,26.2969 84.625,26.6406 Q84.625,26.9844 84.2813,27.3906 Q83.7813,27.9688 82.9844,28.2969 Q81.9063,28.75 80.6094,28.75 Q79.0938,28.75 77.8906,28.125 Q76.9063,27.625 76.2188,26.5625 Q75.5313,25.4844 75.5313,24.2031 L75.5313,23.0469 Q75.5313,21.7188 76.1406,20.5781 Q76.7656,19.4219 77.8594,18.8125 Q78.9531,18.1875 80.1875,18.1875 Q80.9219,18.1875 81.5625,18.3594 Q82.2188,18.5156 82.7656,18.875 Z " fill="#000000"/><text fill="#000000" font-family="sans-serif" font-size="14" lengthAdjust="spacing" textLength="85" x="94" y="28.7285">Trabajadores</text><line style="stroke:#181818;stroke-width:0.5;" x1="66" x2="181" y1="39" y2="39"/><line style="stroke:#181818;stroke-width:0.5;" x1="66" x2="181" y1="47" y2="47"/></g><!--MD5=[321b69ba50a575523e459a9da179a232]
class LectorDeHuellas--><g id="elem_LectorDeHuellas"><rect codeLine="14" fill="#F1F1F1" height="48" id="LectorDeHuellas" rx="2.5" ry="2.5" style="stroke:#181818;stroke-width:0.5;" width="136" x="129.5" y="115"/><ellipse cx="144.5" cy="131" fill="#ADD1B2" rx="11" ry="11" style="stroke:#181818;stroke-width:1.0;"/><path d="M147.2656,126.875 Q147.4219,126.6563 147.6094,126.5469 Q147.7969,126.4375 148.0156,126.4375 Q148.3906,126.4375 148.625,126.7031 Q148.8594,126.9531 148.8594,127.5625 L148.8594,129.0156 Q148.8594,129.625 148.625,129.8906 Q148.3906,130.1563 148.0156,130.1563 Q147.6719,130.1563 147.4688,129.9531 Q147.2656,129.7656 147.1563,129.25 Q147.1094,128.8906 146.9219,128.7031 Q146.5938,128.3281 145.9844,128.1094 Q145.375,127.8906 144.75,127.8906 Q143.9844,127.8906 143.3438,128.2188 Q142.7188,128.5469 142.2188,129.2969 Q141.7344,130.0469 141.7344,131.0781 L141.7344,132.1719 Q141.7344,133.4063 142.625,134.2344 Q143.5156,135.0469 145.1094,135.0469 Q146.0469,135.0469 146.7031,134.7969 Q147.0938,134.6406 147.5156,134.2031 Q147.7813,133.9375 147.9219,133.8594 Q148.0781,133.7813 148.2813,133.7813 Q148.6094,133.7813 148.8594,134.0469 Q149.125,134.2969 149.125,134.6406 Q149.125,134.9844 148.7813,135.3906 Q148.2813,135.9688 147.4844,136.2969 Q146.4063,136.75 145.1094,136.75 Q143.5938,136.75 142.3906,136.125 Q141.4063,135.625 140.7188,134.5625 Q140.0313,133.4844 140.0313,132.2031 L140.0313,131.0469 Q140.0313,129.7188 140.6406,128.5781 Q141.2656,127.4219 142.3594,126.8125 Q143.4531,126.1875 144.6875,126.1875 Q145.4219,126.1875 146.0625,126.3594 Q146.7188,126.5156 147.2656,126.875 Z " fill="#000000"/><text fill="#000000" font-family="sans-serif" font-size="14" lengthAdjust="spacing" textLength="104" x="158.5" y="136.7285">LectorDeHuellas</text><line style="stroke:#181818;stroke-width:0.5;" x1="130.5" x2="264.5" y1="147" y2="147"/><line style="stroke:#181818;stroke-width:0.5;" x1="130.5" x2="264.5" y1="155" y2="155"/></g><!--MD5=[f03614d62e157a5cf111308c833381a2]
class Fichaje--><g id="elem_Fichaje"><rect codeLine="18" fill="#F1F1F1" height="48" id="Fichaje" rx="2.5" ry="2.5" style="stroke:#181818;stroke-width:0.5;" width="78" x="158.5" y="223"/><ellipse cx="173.5" cy="239" fill="#ADD1B2" rx="11" ry="11" style="stroke:#181818;stroke-width:1.0;"/><path d="M176.2656,234.875 Q176.4219,234.6563 176.6094,234.5469 Q176.7969,234.4375 177.0156,234.4375 Q177.3906,234.4375 177.625,234.7031 Q177.8594,234.9531 177.8594,235.5625 L177.8594,237.0156 Q177.8594,237.625 177.625,237.8906 Q177.3906,238.1563 177.0156,238.1563 Q176.6719,238.1563 176.4688,237.9531 Q176.2656,237.7656 176.1563,237.25 Q176.1094,236.8906 175.9219,236.7031 Q175.5938,236.3281 174.9844,236.1094 Q174.375,235.8906 173.75,235.8906 Q172.9844,235.8906 172.3438,236.2188 Q171.7188,236.5469 171.2188,237.2969 Q170.7344,238.0469 170.7344,239.0781 L170.7344,240.1719 Q170.7344,241.4063 171.625,242.2344 Q172.5156,243.0469 174.1094,243.0469 Q175.0469,243.0469 175.7031,242.7969 Q176.0938,242.6406 176.5156,242.2031 Q176.7813,241.9375 176.9219,241.8594 Q177.0781,241.7813 177.2813,241.7813 Q177.6094,241.7813 177.8594,242.0469 Q178.125,242.2969 178.125,242.6406 Q178.125,242.9844 177.7813,243.3906 Q177.2813,243.9688 176.4844,244.2969 Q175.4063,244.75 174.1094,244.75 Q172.5938,244.75 171.3906,244.125 Q170.4063,243.625 169.7188,242.5625 Q169.0313,241.4844 169.0313,240.2031 L169.0313,239.0469 Q169.0313,237.7188 169.6406,236.5781 Q170.2656,235.4219 171.3594,234.8125 Q172.4531,234.1875 173.6875,234.1875 Q174.4219,234.1875 175.0625,234.3594 Q175.7188,234.5156 176.2656,234.875 Z " fill="#000000"/><text fill="#000000" font-family="sans-serif" font-size="14" lengthAdjust="spacing" textLength="46" x="187.5" y="244.7285">Fichaje</text><line style="stroke:#181818;stroke-width:0.5;" x1="159.5" x2="235.5" y1="255" y2="255"/><line style="stroke:#181818;stroke-width:0.5;" x1="159.5" x2="235.5" y1="263" y2="263"/></g><!--MD5=[df1837eb2b2a8a561ce45404d2e859f6]
class Informe--><g id="elem_Informe"><rect codeLine="22" fill="#F1F1F1" height="48" id="Informe" rx="2.5" ry="2.5" style="stroke:#181818;stroke-width:0.5;" width="79" x="230" y="331"/><ellipse cx="245" cy="347" fill="#ADD1B2" rx="11" ry="11" style="stroke:#181818;stroke-width:1.0;"/><path d="M247.7656,342.875 Q247.9219,342.6563 248.1094,342.5469 Q248.2969,342.4375 248.5156,342.4375 Q248.8906,342.4375 249.125,342.7031 Q249.3594,342.9531 249.3594,343.5625 L249.3594,345.0156 Q249.3594,345.625 249.125,345.8906 Q248.8906,346.1563 248.5156,346.1563 Q248.1719,346.1563 247.9688,345.9531 Q247.7656,345.7656 247.6563,345.25 Q247.6094,344.8906 247.4219,344.7031 Q247.0938,344.3281 246.4844,344.1094 Q245.875,343.8906 245.25,343.8906 Q244.4844,343.8906 243.8438,344.2188 Q243.2188,344.5469 242.7188,345.2969 Q242.2344,346.0469 242.2344,347.0781 L242.2344,348.1719 Q242.2344,349.4063 243.125,350.2344 Q244.0156,351.0469 245.6094,351.0469 Q246.5469,351.0469 247.2031,350.7969 Q247.5938,350.6406 248.0156,350.2031 Q248.2813,349.9375 248.4219,349.8594 Q248.5781,349.7813 248.7813,349.7813 Q249.1094,349.7813 249.3594,350.0469 Q249.625,350.2969 249.625,350.6406 Q249.625,350.9844 249.2813,351.3906 Q248.7813,351.9688 247.9844,352.2969 Q246.9063,352.75 245.6094,352.75 Q244.0938,352.75 242.8906,352.125 Q241.9063,351.625 241.2188,350.5625 Q240.5313,349.4844 240.5313,348.2031 L240.5313,347.0469 Q240.5313,345.7188 241.1406,344.5781 Q241.7656,343.4219 242.8594,342.8125 Q243.9531,342.1875 245.1875,342.1875 Q245.9219,342.1875 246.5625,342.3594 Q247.2188,342.5156 247.7656,342.875 Z " fill="#000000"/><text fill="#000000" font-family="sans-serif" font-size="14" lengthAdjust="spacing" textLength="47" x="259" y="352.7285">Informe</text><line style="stroke:#181818;stroke-width:0.5;" x1="231" x2="308" y1="363" y2="363"/><line style="stroke:#181818;stroke-width:0.5;" x1="231" x2="308" y1="371" y2="371"/></g><!--MD5=[3d1b04b166250ef09a7920ba19a1f474]
class EquipoDeControl--><g id="elem_EquipoDeControl"><rect codeLine="26" fill="#F1F1F1" height="48" id="EquipoDeControl" rx="2.5" ry="2.5" style="stroke:#181818;stroke-width:0.5;" width="140" x="271.5" y="223"/><ellipse cx="286.5" cy="239" fill="#ADD1B2" rx="11" ry="11" style="stroke:#181818;stroke-width:1.0;"/><path d="M289.2656,234.875 Q289.4219,234.6563 289.6094,234.5469 Q289.7969,234.4375 290.0156,234.4375 Q290.3906,234.4375 290.625,234.7031 Q290.8594,234.9531 290.8594,235.5625 L290.8594,237.0156 Q290.8594,237.625 290.625,237.8906 Q290.3906,238.1563 290.0156,238.1563 Q289.6719,238.1563 289.4688,237.9531 Q289.2656,237.7656 289.1563,237.25 Q289.1094,236.8906 288.9219,236.7031 Q288.5938,236.3281 287.9844,236.1094 Q287.375,235.8906 286.75,235.8906 Q285.9844,235.8906 285.3438,236.2188 Q284.7188,236.5469 284.2188,237.2969 Q283.7344,238.0469 283.7344,239.0781 L283.7344,240.1719 Q283.7344,241.4063 284.625,242.2344 Q285.5156,243.0469 287.1094,243.0469 Q288.0469,243.0469 288.7031,242.7969 Q289.0938,242.6406 289.5156,242.2031 Q289.7813,241.9375 289.9219,241.8594 Q290.0781,241.7813 290.2813,241.7813 Q290.6094,241.7813 290.8594,242.0469 Q291.125,242.2969 291.125,242.6406 Q291.125,242.9844 290.7813,243.3906 Q290.2813,243.9688 289.4844,244.2969 Q288.4063,244.75 287.1094,244.75 Q285.5938,244.75 284.3906,244.125 Q283.4063,243.625 282.7188,242.5625 Q282.0313,241.4844 282.0313,240.2031 L282.0313,239.0469 Q282.0313,237.7188 282.6406,236.5781 Q283.2656,235.4219 284.3594,234.8125 Q285.4531,234.1875 286.6875,234.1875 Q287.4219,234.1875 288.0625,234.3594 Q288.7188,234.5156 289.2656,234.875 Z " fill="#000000"/><text fill="#000000" font-family="sans-serif" font-size="14" lengthAdjust="spacing" textLength="108" x="300.5" y="244.7285">EquipoDeControl</text><line style="stroke:#181818;stroke-width:0.5;" x1="272.5" x2="410.5" y1="255" y2="255"/><line style="stroke:#181818;stroke-width:0.5;" x1="272.5" x2="410.5" y1="263" y2="263"/></g><!--MD5=[2e1bf6797f9272c8a3e79d31a9223edb]
link Contrato to Horario--><g id="link_Contrato_Horario"><path codeLine="30" d="M50.5,163 C50.5,180.66 50.5,204.94 50.5,222.68 " fill="none" id="Contrato-Horario" style="stroke:#181818;stroke-width:1.0;"/></g><!--MD5=[767864c0a0ba89e50029405531d5df77]
link Trabajadores to Contrato--><g id="link_Trabajadores_Contrato"><path codeLine="31" d="M107.66,55 C95.5,72.66 78.78,96.94 66.56,114.68 " fill="none" id="Trabajadores-Contrato" style="stroke:#181818;stroke-width:1.0;"/></g><!--MD5=[23c39337048f72c5417b1e49849d961c]
link Trabajadores to LectorDeHuellas--><g id="link_Trabajadores_LectorDeHuellas"><path codeLine="32" d="M139.56,55 C151.88,72.66 168.84,96.94 181.22,114.68 " fill="none" id="Trabajadores-LectorDeHuellas" style="stroke:#181818;stroke-width:1.0;"/></g><!--MD5=[c6c2ed6bcfee8515bffdb2ca243e4297]
link LectorDeHuellas to Fichaje--><g id="link_LectorDeHuellas_Fichaje"><path codeLine="33" d="M197.5,163 C197.5,180.66 197.5,204.94 197.5,222.68 " fill="none" id="LectorDeHuellas-Fichaje" style="stroke:#181818;stroke-width:1.0;"/></g><!--MD5=[bf6e667e263c1cc4245f39c4c96351dc]
link Fichaje to Informe--><g id="link_Fichaje_Informe"><path codeLine="34" d="M213.12,271 C225.12,288.66 241.61,312.94 253.66,330.68 " fill="none" id="Fichaje-Informe" style="stroke:#181818;stroke-width:1.0;"/></g><!--MD5=[80adc26a8f980c7db9d2558df8f5c5a7]
link EquipoDeControl to Informe--><g id="link_EquipoDeControl_Informe"><path codeLine="35" d="M325.88,271 C313.88,288.66 297.39,312.94 285.34,330.68 " fill="none" id="EquipoDeControl-Informe" style="stroke:#181818;stroke-width:1.0;"/></g><!--MD5=[068e41a37a52ac289548d4736bb42fa1]
@startuml

class Contrato {

}

class Horario {

}

class Trabajadores {

}

class LectorDeHuellas {

}

class Fichaje {

}

class Informe {

}

class EquipoDeControl {

}

Contrato - - Horario
Trabajadores - -  Contrato
Trabajadores - - LectorDeHuellas
LectorDeHuellas - - Fichaje
Fichaje - - Informe
EquipoDeControl - - Informe

@enduml

PlantUML version 1.2022.7(Mon Aug 22 19:01:30 CEST 2022)
(GPL source distribution)
Java Runtime: Java(TM) SE Runtime Environment
JVM: Java HotSpot(TM) 64-Bit Server VM
Default Encoding: UTF-8
Language: en
Country: US
--></g></svg>