<?xml version="1.0" encoding="UTF-8" standalone="no"?><svg xmlns="http://www.w3.org/2000/svg" xmlns:xlink="http://www.w3.org/1999/xlink" contentStyleType="text/css" height="727px" preserveAspectRatio="none" style="width:502px;height:727px;background:#FFFFFF;" version="1.1" viewBox="0 0 502 727" width="502px" zoomAndPan="magnify"><defs/><g><rect fill="none" height="29.0679" id="_title" style="stroke:none;stroke-width:1.0;" width="135" x="173.5" y="5"/><text fill="#000000" font-family="sans-serif" font-size="14" font-weight="bold" lengthAdjust="spacing" textLength="125" x="178.5" y="24.9659">Eliminar Egresado</text><rect fill="#F1F1F1" height="40" rx="12.5" ry="12.5" style="stroke:#181818;stroke-width:0.5;" width="60" x="218" y="47.0679"/><text fill="#000000" font-family="sans-serif" font-size="14" lengthAdjust="spacing" textLength="50" x="223" y="72.4999">INITIAL</text><path d="M19.5,202.0679 L476.5,202.0679 A12.5,12.5 0 0 1 489,214.5679 L489,231.1358 L7,231.1358 L7,214.5679 A12.5,12.5 0 0 1 19.5,202.0679 " fill="#F1F1F1" style="stroke:#F1F1F1;stroke-width:1.0;"/><rect fill="none" height="519.0679" rx="12.5" ry="12.5" style="stroke:#181818;stroke-width:0.5;" width="482" x="7" y="202.0679"/><line style="stroke:#181818;stroke-width:0.5;" x1="7" x2="489" y1="231.1358" y2="231.1358"/><text fill="#000000" font-family="sans-serif" font-size="14" lengthAdjust="spacing" textLength="119" x="188.5" y="222.0339">EliminarEgresado</text><rect fill="#F1F1F1" height="40" rx="12.5" ry="12.5" style="stroke:#181818;stroke-width:0.5;" width="50" x="113" y="299.1358"/><text fill="#000000" font-family="sans-serif" font-size="14" lengthAdjust="spacing" textLength="4" x="136" y="324.5678"> </text><rect fill="#F1F1F1" height="40" rx="12.5" ry="12.5" style="stroke:#181818;stroke-width:0.5;" width="50" x="19" y="437.6358"/><text fill="#000000" font-family="sans-serif" font-size="14" lengthAdjust="spacing" textLength="4" x="42" y="463.0678"> </text><g id="elem_4"><polygon fill="#F1F1F1" points="127,576.1358,139,588.1358,127,600.1358,115,588.1358,127,576.1358" style="stroke:#181818;stroke-width:0.5;"/></g><ellipse cx="138" cy="252.1358" fill="#222222" rx="10" ry="10" style="stroke:none;stroke-width:1.0;"/><ellipse cx="127" cy="701.1358" fill="none" rx="10" ry="10" style="stroke:#222222;stroke-width:1.0;"/><ellipse cx="127.5" cy="701.6358" fill="#222222" rx="6" ry="6" style="stroke:none;stroke-width:1.0;"/><!--MD5=[f95b17fc43db3a5db8e3764589440ed7]
link *start*EliminarEgresado to 2--><g id="link_*start*EliminarEgresado_2"><path d="M138,262.4458 C138,270.2358 138,281.7358 138,292.2658 " fill="none" id="*start*EliminarEgresado-to-2" style="stroke:#008000;stroke-width:1.0;"/><polygon fill="#008000" points="138,297.1458,142,288.1458,138,292.1458,134,288.1458,138,297.1458" style="stroke:#008000;stroke-width:1.0;"/></g><!--MD5=[eeb69082328d10abd3b14fdeede0d8a3]
link 2 to 3--><g id="link_2_3"><path d="M112.73,333.4958 C92.68,344.0958 68,357.1358 68,357.1358 C68,357.1358 57.19,401.9358 50.08,431.4158 " fill="none" id="2-to-3" style="stroke:#008000;stroke-width:1.0;"/><polygon fill="#008000" points="48.98,435.9758,54.9734,428.1605,50.149,431.1144,47.1951,426.2901,48.98,435.9758" style="stroke:#008000;stroke-width:1.0;"/><path d="M73,362.1358 L73,407.1358 L213,407.1358 L213,372.1358 L203,362.1358 L73,362.1358 " fill="#F5F5F5" style="stroke:#181818;stroke-width:0.5;"/><path d="M203,362.1358 L203,372.1358 L213,372.1358 L203,362.1358 " fill="#F5F5F5" style="stroke:#181818;stroke-width:0.5;"/><text fill="#000000" font-family="sans-serif" font-size="13" font-weight="bold" lengthAdjust="spacing" textLength="108" x="79" y="381.0328">Sistema Permite</text><ellipse cx="84.5" cy="395.0479" fill="#000000" rx="2.5" ry="2.5" style="stroke:#000000;stroke-width:0.0;"/><text fill="#000000" font-family="sans-serif" font-size="13" lengthAdjust="spacing" textLength="107" x="91" y="398.7389">Eliminar Egresado</text></g><!--MD5=[b1f22f0c97e7f2b556a5a2d67c42ac53]
link 3 to 4--><g id="link_3_4"><path d="M34.85,478.0258 C29.19,490.0158 23,503.1358 23,503.1358 C23,503.1358 23,558.1358 23,558.1358 C23,558.1358 83.49,575.0058 112.2,583.0058 " fill="none" id="3-to-4" style="stroke:#008000;stroke-width:1.0;"/><polygon fill="#008000" points="116.68,584.2558,109.0856,577.9848,111.8638,582.9125,106.9362,585.6907,116.68,584.2558" style="stroke:#008000;stroke-width:1.0;"/><path d="M28,508.1358 L28,553.1358 L213,553.1358 L213,518.1358 L203,508.1358 L28,508.1358 " fill="#F5F5F5" style="stroke:#181818;stroke-width:0.5;"/><path d="M203,508.1358 L203,518.1358 L213,518.1358 L203,508.1358 " fill="#F5F5F5" style="stroke:#181818;stroke-width:0.5;"/><text fill="#000000" font-family="sans-serif" font-size="13" font-weight="bold" lengthAdjust="spacing" textLength="164" x="34" y="527.0328">Administrador Introduce</text><ellipse cx="39.5" cy="541.0479" fill="#000000" rx="2.5" ry="2.5" style="stroke:#000000;stroke-width:0.0;"/><text fill="#000000" font-family="sans-serif" font-size="13" lengthAdjust="spacing" textLength="112" x="46" y="544.7389">Email del egresado</text></g><!--MD5=[bd9a9800bb618613588cadd16671ac66]
link 4 to *end*EliminarEgresado--><g id="link_4_*end*EliminarEgresado"><path d="M127,600.5958 C127,620.5758 127,661.8058 127,684.4258 " fill="none" id="4-to-*end*EliminarEgresado" style="stroke:#008000;stroke-width:1.0;"/><polygon fill="#008000" points="127,689.2958,131,680.2958,127,684.2958,123,680.2958,127,689.2958" style="stroke:#008000;stroke-width:1.0;"/><path d="M132,623.1358 L132,668.1358 L316,668.1358 L316,633.1358 L306,623.1358 L132,623.1358 " fill="#F5F5F5" style="stroke:#181818;stroke-width:0.5;"/><path d="M306,623.1358 L306,633.1358 L316,633.1358 L306,623.1358 " fill="#F5F5F5" style="stroke:#181818;stroke-width:0.5;"/><text fill="#000000" font-family="sans-serif" font-size="13" font-weight="bold" lengthAdjust="spacing" textLength="110" x="138" y="642.0328">Sistema Muestra</text><ellipse cx="143.5" cy="656.0479" fill="#000000" rx="2.5" ry="2.5" style="stroke:#000000;stroke-width:0.0;"/><text fill="#000000" font-family="sans-serif" font-size="13" lengthAdjust="spacing" textLength="151" x="150" y="659.7389">Mensaje de Confirmación</text></g><!--MD5=[d5d43b3f3dfddbfb6ca65af0419a6a54]
link 4 to 2--><g id="link_4_2"><path d="M135.73,584.3558 C158.5,577.0958 218,558.1358 218,558.1358 C218,558.1358 218,357.1358 218,357.1358 C218,357.1358 191.67,344.9558 169.22,334.5758 " fill="none" id="4-to-2" style="stroke:#FF0000;stroke-width:1.0;"/><polygon fill="#FF0000" points="164.69,332.4758,171.181,339.8831,169.2285,334.5738,174.5378,332.6214,164.69,332.4758" style="stroke:#FF0000;stroke-width:1.0;"/><path d="M223,435.1358 L223,480.1358 L480,480.1358 L480,445.1358 L470,435.1358 L223,435.1358 " fill="#F5F5F5" style="stroke:#181818;stroke-width:0.5;"/><path d="M470,435.1358 L470,445.1358 L480,445.1358 L470,435.1358 " fill="#F5F5F5" style="stroke:#181818;stroke-width:0.5;"/><text fill="#000000" font-family="sans-serif" font-size="13" font-weight="bold" lengthAdjust="spacing" textLength="110" x="229" y="454.0328">Sistema Muestra</text><ellipse cx="234.5" cy="468.0479" fill="#000000" rx="2.5" ry="2.5" style="stroke:#000000;stroke-width:0.0;"/><text fill="#000000" font-family="sans-serif" font-size="13" lengthAdjust="spacing" textLength="224" x="241" y="471.7389">Mensaje de error al eliminar egresado</text></g><!--MD5=[cbdbdbee1210daca33268f4e9a40ad83]
link startState to EliminarEgresado--><g id="link_startState_EliminarEgresado"><path d="M248,87.5379 C248,110.0679 248,149.9679 248,195.5379 " fill="none" id="startState-to-EliminarEgresado" style="stroke:#008000;stroke-width:1.0;"/><polygon fill="#008000" points="248,200.4879,252,191.4879,248,195.4879,244,191.4879,248,200.4879" style="stroke:#008000;stroke-width:1.0;"/><path d="M253,122.0679 L253,167.0679 L420,167.0679 L420,132.0679 L410,122.0679 L253,122.0679 " fill="#F5F5F5" style="stroke:#181818;stroke-width:0.5;"/><path d="M410,122.0679 L410,132.0679 L420,132.0679 L410,122.0679 " fill="#F5F5F5" style="stroke:#181818;stroke-width:0.5;"/><text fill="#000000" font-family="sans-serif" font-size="13" font-weight="bold" lengthAdjust="spacing" textLength="146" x="259" y="140.9649">Administrador Solicita</text><ellipse cx="264.5" cy="154.9799" fill="#000000" rx="2.5" ry="2.5" style="stroke:#000000;stroke-width:0.0;"/><text fill="#000000" font-family="sans-serif" font-size="13" lengthAdjust="spacing" textLength="107" x="271" y="158.6709">Eliminar Egresado</text></g><!--MD5=[dfdddbab53026bf4b94e2bdab2efccb4]
@startuml

title Eliminar Egresado

skinparam {
    NoteBackgroundColor #whiteSmoke
    ArrowColor #green
    NoteBorderColor #green
    linetype polyline
}

hide empty description

state startState as "INITIAL"

startState - -> EliminarEgresado
note on link
    <b>Administrador Solicita</b>
    * Eliminar Egresado
end note

state EliminarEgresado {
state 2 as " "
state 3 as " "
state 4 <<choice>>

[*] -down-> 2

2 -down-> 3
note on link
<b>Sistema Permite</b>
* Eliminar Egresado
end note

3 -down-> 4
note on link
<b>Administrador Introduce</b>
* Email del egresado
end note

4 -down-> [*]
note on link
<b>Sistema Muestra</b>
* Mensaje de Confirmación
end note

4 -[#red]-> 2
note on link
<b>Sistema Muestra</b>
* Mensaje de error al eliminar egresado
end note

}

@enduml

PlantUML version 1.2022.7(Mon Aug 22 19:01:30 CEST 2022)
(GPL source distribution)
Java Runtime: OpenJDK Runtime Environment
JVM: OpenJDK 64-Bit Server VM
Default Encoding: UTF-8
Language: es
Country: ES
--></g></svg>