<?xml version="1.0" encoding="UTF-8" standalone="no"?><svg xmlns="http://www.w3.org/2000/svg" xmlns:xlink="http://www.w3.org/1999/xlink" contentStyleType="text/css" height="292px" preserveAspectRatio="none" style="width:351px;height:292px;background:#FFFFFF;" version="1.1" viewBox="0 0 351 292" width="351px" zoomAndPan="magnify"><defs/><g><rect fill="none" height="29.0679" id="_title" style="stroke:none;stroke-width:1.0;" width="176" x="80.615" y="5"/><text fill="#000000" font-family="sans-serif" font-size="14" font-weight="bold" lengthAdjust="spacing" textLength="166" x="85.615" y="24.9659">Casos de Uso(Egresado)</text><!--MD5=[a86b8758458e11e030fd076d8ea1e0f1]
cluster ingreso--><g id="cluster_ingreso"><path d="M115.5,46.6699 L262.5,46.6699 A3.75,3.75 0 0 1 265,49.1699 L272,71.7378 L341.73,71.7378 A2.5,2.5 0 0 1 344.23,74.2378 L344.23,283.1699 A2.5,2.5 0 0 1 341.73,285.6699 L115.5,285.6699 A2.5,2.5 0 0 1 113,283.1699 L113,49.1699 A2.5,2.5 0 0 1 115.5,46.6699 " fill="none" style="stroke:#000000;stroke-width:1.5;"/><line style="stroke:#000000;stroke-width:1.5;" x1="113" x2="272" y1="71.7378" y2="71.7378"/><text fill="#000000" font-family="sans-serif" font-size="14" font-weight="bold" lengthAdjust="spacing" textLength="146" x="117" y="63.6358">Ingreso a Plataforma</text></g><g id="elem_Registro en Plataforma"><ellipse cx="228.6173" cy="106.6734" fill="#F1F1F1" rx="99.6173" ry="22.3235" style="stroke:#181818;stroke-width:0.5;"/><text fill="#000000" font-family="sans-serif" font-size="14" lengthAdjust="spacing" textLength="154" x="148.6173" y="111.4063">Registro en Plataforma</text></g><g id="elem_Iniciar Sesión"><ellipse cx="228.6228" cy="181.6725" fill="#F1F1F1" rx="75.7128" ry="17.5426" style="stroke:#181818;stroke-width:0.5;"/><text fill="#000000" font-family="sans-serif" font-size="14" lengthAdjust="spacing" textLength="91" x="180.1228" y="186.4054">Iniciar Sesión</text></g><g id="elem_Cerrar Sesión"><ellipse cx="228.6228" cy="251.6725" fill="#F1F1F1" rx="75.7128" ry="17.5426" style="stroke:#181818;stroke-width:0.5;"/><text fill="#000000" font-family="sans-serif" font-size="14" lengthAdjust="spacing" textLength="91" x="180.1228" y="256.4054">Cerrar Sesión</text></g><!--MD5=[886f27c4ce1bf6d1eb714be2c81d3749]
entity Egresado--><g id="elem_Egresado"><ellipse cx="37.5" cy="150.6399" fill="#F1F1F1" rx="8" ry="8" style="stroke:#181818;stroke-width:0.5;"/><path d="M37.5,158.6399 L37.5,185.6399 M24.5,166.6399 L50.5,166.6399 M37.5,185.6399 L24.5,200.6399 M37.5,185.6399 L50.5,200.6399 " fill="none" style="stroke:#181818;stroke-width:0.5;"/><text fill="#000000" font-family="sans-serif" font-size="14" lengthAdjust="spacing" textLength="63" x="6" y="217.1058">Egresado</text></g><!--MD5=[8426604bda2913588765e14bdbd0d807]
link Egresado to Registro en Plataforma--><g id="link_Egresado_Registro en Plataforma"><path d="M69.41,165.3999 C86.78,156.2599 105,146.6699 105,146.6699 C105,146.6699 134.53,137.0399 164.6,127.2299 " fill="none" id="Egresado-to-Registro en Plataforma" style="stroke:#181818;stroke-width:1.0;"/><polygon fill="#181818" points="169.18,125.7299,159.3822,124.7281,164.4281,127.2853,161.8709,132.3312,169.18,125.7299" style="stroke:#181818;stroke-width:1.0;"/></g><!--MD5=[ef5c86e107dd7797e98a702c34242b76]
link Egresado to Iniciar Sesión--><g id="link_Egresado_Iniciar Sesión"><path d="M69.31,181.6699 C90.32,181.6699 119.21,181.6699 146.55,181.6699 " fill="none" id="Egresado-to-Iniciar Sesión" style="stroke:#181818;stroke-width:1.0;"/><polygon fill="#181818" points="151.22,181.6699,142.22,177.6699,146.22,181.6699,142.22,185.6699,151.22,181.6699" style="stroke:#181818;stroke-width:1.0;"/></g><!--MD5=[c3fdc675c661717c8269a33081e99514]
link Egresado to Cerrar Sesión--><g id="link_Egresado_Cerrar Sesión"><path d="M69.41,197.9399 C86.78,207.0799 105,216.6699 105,216.6699 C105,216.6699 140.59,226.8299 173.42,236.1999 " fill="none" id="Egresado-to-Cerrar Sesión" style="stroke:#181818;stroke-width:1.0;"/><polygon fill="#181818" points="178.05,237.5199,170.4952,231.2013,173.2424,236.1463,168.2974,238.8935,178.05,237.5199" style="stroke:#181818;stroke-width:1.0;"/></g><!--MD5=[5d73dbf868c3a4785569ebf5c9009ae5]
@startuml Diagrama_CdU

title Casos de Uso(Egresado)

skinparam {
    NoteBackgroundColor #whiteSmoke
    NoteBorderColor #green
    linetype polyline
}

left to right direction

actor Egresado


folder "Ingreso a Plataforma" as ingreso {
    Egresado - -> (Registro en Plataforma)
    Egresado - -> (Iniciar Sesión)
    Egresado - -> (Cerrar Sesión)
}


@enduml

PlantUML version 1.2022.7(Mon Aug 22 19:01:30 CEST 2022)
(GPL source distribution)
Java Runtime: OpenJDK Runtime Environment
JVM: OpenJDK 64-Bit Server VM
Default Encoding: UTF-8
Language: es
Country: ES
--></g></svg>