<?xml version="1.0" encoding="UTF-8" standalone="no"?><svg xmlns="http://www.w3.org/2000/svg" xmlns:xlink="http://www.w3.org/1999/xlink" contentStyleType="text/css" height="281px" preserveAspectRatio="none" style="width:336px;height:281px;background:#FFFFFF;" version="1.1" viewBox="0 0 336 281" width="336px" zoomAndPan="magnify"><defs/><g><rect fill="none" height="27.6094" id="_title" style="stroke:none;stroke-width:1.0;" width="307" x="7.5" y="5"/><text fill="#000000" font-family="sans-serif" font-size="14" font-weight="bold" lengthAdjust="spacing" textLength="297" x="12.5" y="24.5332">Estructura de los Casos de Uso(Egresado)</text><!--MD5=[a86b8758458e11e030fd076d8ea1e0f1]
cluster ingreso--><g id="cluster_ingreso"><path d="M113.5,44.6094 L258.5,44.6094 A3.75,3.75 0 0 1 261,47.1094 L268,68.2188 L326.5,68.2188 A2.5,2.5 0 0 1 329,70.7188 L329,272.1094 A2.5,2.5 0 0 1 326.5,274.6094 L113.5,274.6094 A2.5,2.5 0 0 1 111,272.1094 L111,47.1094 A2.5,2.5 0 0 1 113.5,44.6094 " fill="none" style="stroke:#000000;stroke-width:1.5;"/><line style="stroke:#000000;stroke-width:1.5;" x1="111" x2="268" y1="68.2188" y2="68.2188"/><text fill="#000000" font-family="sans-serif" font-size="14" font-weight="bold" lengthAdjust="spacing" textLength="144" x="115" y="61.1426">Ingreso a Plataforma</text></g><g id="elem_Registro en Plataforma"><ellipse cx="220.0017" cy="101.6097" fill="#F1F1F1" rx="93.0017" ry="21.0003" style="stroke:#181818;stroke-width:0.5;"/><text fill="#000000" font-family="sans-serif" font-size="14" lengthAdjust="spacing" textLength="145" x="147.5017" y="105.3382">Registro en Plataforma</text></g><g id="elem_Iniciar Sesión"><ellipse cx="219.7688" cy="173.7631" fill="#F1F1F1" rx="68.7688" ry="16.1538" style="stroke:#181818;stroke-width:0.5;"/><text fill="#000000" font-family="sans-serif" font-size="14" lengthAdjust="spacing" textLength="84" x="174.7688" y="178.2797">Iniciar Sesión</text></g><g id="elem_Cerrar Sesión"><ellipse cx="220.1531" cy="241.54" fill="#F1F1F1" rx="70.1531" ry="16.4306" style="stroke:#181818;stroke-width:0.5;"/><text fill="#000000" font-family="sans-serif" font-size="14" lengthAdjust="spacing" textLength="88" x="173.1531" y="246.0566">Cerrar Sesión</text></g><!--MD5=[886f27c4ce1bf6d1eb714be2c81d3749]
entity Egresado--><g id="elem_Egresado"><ellipse cx="36.5" cy="143.1094" fill="#F1F1F1" rx="8" ry="8" style="stroke:#181818;stroke-width:0.5;"/><path d="M36.5,151.1094 L36.5,178.1094 M23.5,159.1094 L49.5,159.1094 M36.5,178.1094 L23.5,193.1094 M36.5,178.1094 L49.5,193.1094 " fill="none" style="stroke:#181818;stroke-width:0.5;"/><text fill="#000000" font-family="sans-serif" font-size="14" lengthAdjust="spacing" textLength="61" x="6" y="209.1426">Egresado</text></g><!--MD5=[8426604bda2913588765e14bdbd0d807]
link Egresado to Registro en Plataforma--><g id="link_Egresado_Registro en Plataforma"><path d="M67.18,158.1994 C84.51,149.2094 103,139.6094 103,139.6094 C103,139.6094 132.26,130.0294 161.38,120.4794 " fill="none" id="Egresado-to-Registro en Plataforma" style="stroke:#181818;stroke-width:1.0;"/><polygon fill="#181818" points="166.43,118.8294,156.6322,117.8276,161.6781,120.3848,159.1209,125.4307,166.43,118.8294" style="stroke:#181818;stroke-width:1.0;"/></g><!--MD5=[ef5c86e107dd7797e98a702c34242b76]
link Egresado to Iniciar Sesión--><g id="link_Egresado_Iniciar Sesión"><path d="M67.07,173.6094 C88.44,173.6094 118.28,173.6094 145.87,173.6094 " fill="none" id="Egresado-to-Iniciar Sesión" style="stroke:#181818;stroke-width:1.0;"/><polygon fill="#181818" points="150.99,173.6094,141.99,169.6094,145.99,173.6094,141.99,177.6094,150.99,173.6094" style="stroke:#181818;stroke-width:1.0;"/></g><!--MD5=[c3fdc675c661717c8269a33081e99514]
link Egresado to Cerrar Sesión--><g id="link_Egresado_Cerrar Sesión"><path d="M67.18,188.5694 C84.51,197.2994 103,206.6094 103,206.6094 C103,206.6094 139.12,217.5094 171.05,227.1394 " fill="none" id="Egresado-to-Cerrar Sesión" style="stroke:#181818;stroke-width:1.0;"/><polygon fill="#181818" points="176.14,228.6794,168.6777,222.2517,171.3528,227.2361,166.3685,229.9112,176.14,228.6794" style="stroke:#181818;stroke-width:1.0;"/></g><!--MD5=[cff67b25df86fcbc814d6c48a6c7f6c6]
@startuml Diagrama_CdU

title Estructura de los Casos de Uso(Egresado)

skinparam {
    NoteBackgroundColor #whiteSmoke
    NoteBorderColor #green
    linetype polyline
}

left to right direction

actor Egresado


folder "Ingreso a Plataforma" as ingreso {
    Egresado - -> (Registro en Plataforma)
    Egresado - -> (Iniciar Sesión)
    Egresado - -> (Cerrar Sesión)
}


@enduml

PlantUML version 1.2022.7(Mon Aug 22 19:01:30 CEST 2022)
(GPL source distribution)
Java Runtime: Java(TM) SE Runtime Environment
JVM: Java HotSpot(TM) 64-Bit Server VM
Default Encoding: Cp1252
Language: es
Country: ES
--></g></svg>