<?xml version="1.0" encoding="UTF-8" standalone="no"?><svg xmlns="http://www.w3.org/2000/svg" xmlns:xlink="http://www.w3.org/1999/xlink" contentStyleType="text/css" height="576px" preserveAspectRatio="none" style="width:640px;height:576px;background:#FFFFFF;" version="1.1" viewBox="0 0 640 576" width="640px" zoomAndPan="magnify"><defs/><g><text fill="#000000" font-family="Arial" font-size="14" font-weight="bold" lengthAdjust="spacing" textLength="311" x="154.5" y="22.9951">Listar Servicios / Paquetes de servicios</text><rect fill="#F1F1F1" height="40" rx="12.5" ry="12.5" style="stroke:#181818;stroke-width:0.5;" width="168" x="233" y="44.2969"/><text fill="#000000" font-family="Arial" font-size="14" lengthAdjust="spacing" textLength="158" x="238" y="69.1436">DASHBOARD_ABIERTO</text><path d="M19.5,194.2969 L614.5,194.2969 A12.5,12.5 0 0 1 627,206.7969 L627,220.5938 L7,220.5938 L7,206.7969 A12.5,12.5 0 0 1 19.5,194.2969 " fill="#F1F1F1" style="stroke:#F1F1F1;stroke-width:1.0;"/><rect fill="none" height="376.2969" rx="12.5" ry="12.5" style="stroke:#181818;stroke-width:0.5;" width="620" x="7" y="194.2969"/><line style="stroke:#181818;stroke-width:0.5;" x1="7" x2="627" y1="220.5938" y2="220.5938"/><text fill="#000000" font-family="Arial" font-size="14" lengthAdjust="spacing" textLength="172" x="231" y="212.292">ListarServiciosYPaquetes</text><rect fill="#F1F1F1" height="40" rx="12.5" ry="12.5" style="stroke:#181818;stroke-width:0.5;" width="50" x="118" y="288.5938"/><text fill="#000000" font-family="Arial" font-size="14" lengthAdjust="spacing" textLength="4" x="141" y="313.4404"> </text><ellipse cx="143" cy="241.5938" fill="#222222" rx="10" ry="10" style="stroke:none;stroke-width:1.0;"/><rect fill="#F1F1F1" height="40" rx="12.5" ry="12.5" style="stroke:#181818;stroke-width:0.5;" width="177" x="54.5" y="414.5938"/><text fill="#000000" font-family="Arial" font-size="14" lengthAdjust="spacing" textLength="167" x="59.5" y="439.4404">ListaServiciosYPaquetes</text><ellipse cx="143" cy="550.5938" fill="none" rx="10" ry="10" style="stroke:#222222;stroke-width:1.0;"/><ellipse cx="143.5" cy="551.0938" fill="#222222" rx="6" ry="6" style="stroke:none;stroke-width:1.0;"/><!--link *start*ListarServiciosYPaquetes to 1--><g id="link_*start*ListarServiciosYPaquetes_1"><path d="M143,251.6338 C143,259.7838 143,272.1538 143,283.1938 " fill="none" id="*start*ListarServiciosYPaquetes-to-1" style="stroke:#008000;stroke-width:1.0;"/><polygon fill="#008000" points="143,288.4838,147,279.4838,143,283.4838,139,279.4838,143,288.4838" style="stroke:#008000;stroke-width:1.0;"/></g><!--link 1 to ListaServiciosYPaquetes--><g id="link_1_ListaServiciosYPaquetes"><path d="M117.7,317.0838 C81.18,327.8938 18,346.5938 18,346.5938 C18,346.5938 18,396.5938 18,396.5938 C18,396.5938 44.85,404.5438 73.65,413.0638 " fill="none" id="1-to-ListaServiciosYPaquetes" style="stroke:#008000;stroke-width:1.0;"/><polygon fill="#008000" points="78.67,414.5538,71.1675,408.1732,73.8739,413.1406,68.9064,415.847,78.67,414.5538" style="stroke:#008000;stroke-width:1.0;"/><path d="M23,351.5938 L23,391.5938 L242,391.5938 L242,361.5938 L232,351.5938 L23,351.5938 " fill="#F5F5F5" style="stroke:#181818;stroke-width:0.5;"/><path d="M232,351.5938 L232,361.5938 L242,361.5938 L232,351.5938 " fill="#F5F5F5" style="stroke:#181818;stroke-width:0.5;"/><text fill="#000000" font-family="Arial" font-size="13" font-weight="bold" lengthAdjust="spacing" textLength="198" x="29" y="368.6606">Sistema permite introducir</text><text fill="#000000" font-family="Arial" font-size="13" lengthAdjust="spacing" textLength="118" x="29" y="383.7935">Filtro de búsqueda</text></g><!--link ListaServiciosYPaquetes to 1--><g id="link_ListaServiciosYPaquetes_1"><path d="M196.52,414.5538 C222.01,405.4838 247,396.5938 247,396.5938 C247,396.5938 247,346.5938 247,346.5938 C247,346.5938 203.71,331.1938 172.99,320.2637 " fill="none" id="ListaServiciosYPaquetes-to-1" style="stroke:#FF0000;stroke-width:1.0;"/><polygon fill="#FF0000" points="168.18,318.5538,175.326,325.3313,172.8926,320.2246,177.9993,317.7912,168.18,318.5538" style="stroke:#FF0000;stroke-width:1.0;"/><path d="M252,351.5938 L252,391.5938 L618,391.5938 L618,361.5938 L608,351.5938 L252,351.5938 " fill="#F5F5F5" style="stroke:#181818;stroke-width:0.5;"/><path d="M608,351.5938 L608,361.5938 L618,361.5938 L608,351.5938 " fill="#F5F5F5" style="stroke:#181818;stroke-width:0.5;"/><text fill="#000000" font-family="Arial" font-size="13" font-weight="bold" lengthAdjust="spacing" textLength="125" x="258" y="368.6606">Sistema muestra</text><text fill="#000000" font-family="Arial" font-size="13" lengthAdjust="spacing" textLength="345" x="258" y="383.7935">Mensaje de error en caso de que el filtro no sea válido</text></g><!--link ListaServiciosYPaquetes to *end*ListarServiciosYPaquetes--><g id="link_ListaServiciosYPaquetes_*end*ListarServiciosYPaquetes"><path d="M143,454.6738 C143,477.4838 143,515.1138 143,535.4738 " fill="none" id="ListaServiciosYPaquetes-to-*end*ListarServiciosYPaquetes" style="stroke:#008000;stroke-width:1.0;"/><polygon fill="#008000" points="143,540.4938,147,531.4938,143,535.4938,139,531.4938,143,540.4938" style="stroke:#008000;stroke-width:1.0;"/><path d="M148,477.5938 L148,517.5938 L460,517.5938 L460,487.5938 L450,477.5938 L148,477.5938 " fill="#F5F5F5" style="stroke:#181818;stroke-width:0.5;"/><path d="M450,477.5938 L450,487.5938 L460,487.5938 L450,477.5938 " fill="#F5F5F5" style="stroke:#181818;stroke-width:0.5;"/><text fill="#000000" font-family="Arial" font-size="13" font-weight="bold" lengthAdjust="spacing" textLength="125" x="154" y="494.6606">Sistema muestra</text><text fill="#000000" font-family="Arial" font-size="13" lengthAdjust="spacing" textLength="291" x="154" y="509.7935">Listado de servicios y/o paquetes de servicios</text></g><!--link DASHBOARD_ABIERTO to ListarServiciosYPaquetes--><g id="link_DASHBOARD_ABIERTO_ListarServiciosYPaquetes"><path d="M317,84.5869 C317,106.9269 317,146.1869 317,188.9669 " fill="none" id="DASHBOARD_ABIERTO-to-ListarServiciosYPaquetes" style="stroke:#008000;stroke-width:1.0;"/><polygon fill="#008000" points="317,194.1969,321,185.1969,317,189.1969,313,185.1969,317,194.1969" style="stroke:#008000;stroke-width:1.0;"/><path d="M322,119.2969 L322,159.2969 L603,159.2969 L603,129.2969 L593,119.2969 L322,119.2969 " fill="#F5F5F5" style="stroke:#181818;stroke-width:0.5;"/><path d="M593,119.2969 L593,129.2969 L603,129.2969 L593,119.2969 " fill="#F5F5F5" style="stroke:#181818;stroke-width:0.5;"/><text fill="#000000" font-family="Arial" font-size="13" font-weight="bold" lengthAdjust="spacing" textLength="112" x="328" y="136.3638">Usuario solicita</text><text fill="#000000" font-family="Arial" font-size="13" lengthAdjust="spacing" textLength="260" x="328" y="151.4966">Listar servicios y/o paquetes de servicios</text></g><!--SRC=[bPB1QXin48RlUegVv5OmnlTWM3SDBJH9YTj32Q6CLvD4iLQpbMPZJEd3z3LwpOjrlDaO1-pItgHV_yx_pSoMPKWjPMhW-PQwg6UIz88QHfK3HLUsxnUYFADwUPUbI_wjHCauNjq7vNaZIzvnLZdBQZ3SPUQqy_On9DProsWbhgDTd4eB5In4LOmYPAurI7BkFdW6DwskZQtKERIzha4ZMvsYb37d_1Zg80LZVABl7IiNSwEyw6udUt-71_DFg_dxsMLrTVgjcdruT_Nv4YClgpIQ3k7RxAyloIxPZ209rjZIdIocNqf7EGYAH7CgdOmNKpUWRn6n7WlQlV2SF3OrhGibvOF1Fnpmx9Y02evmPCBrcnkCZ7PYvqb_wZ_VWmsy0WSCVMvURWWjvyPsZ90qY-_gaFicWBCGJTdmBfv-5wlaoTGjCGwbONHzdDdV36I7avkEYsOQuiuv5NhWJHxR_vKj2JML7i0AWoDkducIpPi9Zq-_Ol3oZqn6O_Fw3vw-afTN-_hB9dSeVlu1]--></g></svg>