<?xml version="1.0" encoding="UTF-8" standalone="no"?><svg xmlns="http://www.w3.org/2000/svg" xmlns:xlink="http://www.w3.org/1999/xlink" contentStyleType="text/css" height="391px" preserveAspectRatio="none" style="width:1176px;height:391px;background:#FFFFFF;" version="1.1" viewBox="0 0 1176 391" width="1176px" zoomAndPan="magnify"><defs/><g><rect fill="none" height="29.0679" id="_title" style="stroke:none;stroke-width:1.0;" width="179" x="491.75" y="5"/><text fill="#000000" font-family="sans-serif" font-size="14" font-weight="bold" lengthAdjust="spacing" textLength="169" x="496.75" y="24.9659">Contexto Administrador</text><ellipse cx="67" cy="56.0679" fill="#222222" rx="10" ry="10" style="stroke:none;stroke-width:1.0;"/><rect fill="#F1F1F1" height="40" rx="12.5" ry="12.5" style="stroke:#181818;stroke-width:0.5;" width="120" x="7" y="127.0679"/><text fill="#000000" font-family="sans-serif" font-size="14" lengthAdjust="spacing" textLength="110" x="12" y="152.4999">INICIAR_SESIÓN</text><rect fill="#F1F1F1" height="40" rx="12.5" ry="12.5" style="stroke:#181818;stroke-width:0.5;" width="56" x="39" y="246.0679"/><text fill="#000000" font-family="sans-serif" font-size="14" lengthAdjust="spacing" textLength="46" x="44" y="271.4999">INICIO</text><rect fill="#F1F1F1" height="40" rx="12.5" ry="12.5" style="stroke:#181818;stroke-width:0.5;" width="158" x="130" y="246.0679"/><text fill="#000000" font-family="sans-serif" font-size="14" lengthAdjust="spacing" textLength="148" x="135" y="271.4999">GESTIÓN_EGRESADOS</text><rect fill="#F1F1F1" height="40" rx="12.5" ry="12.5" style="stroke:#181818;stroke-width:0.5;" width="133" x="1037.5" y="246.0679"/><text fill="#000000" font-family="sans-serif" font-size="14" lengthAdjust="spacing" textLength="123" x="1042.5" y="271.4999">CREAR_EGRESADO</text><rect fill="#F1F1F1" height="40" rx="12.5" ry="12.5" style="stroke:#181818;stroke-width:0.5;" width="138" x="864" y="246.0679"/><text fill="#000000" font-family="sans-serif" font-size="14" lengthAdjust="spacing" textLength="128" x="869" y="271.4999">EDITAR_EGRESADO</text><rect fill="#F1F1F1" height="40" rx="12.5" ry="12.5" style="stroke:#181818;stroke-width:0.5;" width="156" x="673" y="246.0679"/><text fill="#000000" font-family="sans-serif" font-size="14" lengthAdjust="spacing" textLength="146" x="678" y="271.4999">ELIMINAR_EGRESADO</text><rect fill="#F1F1F1" height="40" rx="12.5" ry="12.5" style="stroke:#181818;stroke-width:0.5;" width="135" x="502.5" y="246.0679"/><text fill="#000000" font-family="sans-serif" font-size="14" lengthAdjust="spacing" textLength="125" x="507.5" y="271.4999">LISTAR_EGRESADO</text><rect fill="#F1F1F1" height="40" rx="12.5" ry="12.5" style="stroke:#181818;stroke-width:0.5;" width="145" x="322.5" y="246.0679"/><text fill="#000000" font-family="sans-serif" font-size="14" lengthAdjust="spacing" textLength="135" x="327.5" y="271.4999">REALIZAR_PETICION</text><ellipse cx="138" cy="375.0679" fill="none" rx="10" ry="10" style="stroke:#222222;stroke-width:1.0;"/><ellipse cx="138.5" cy="375.5679" fill="#222222" rx="6" ry="6" style="stroke:none;stroke-width:1.0;"/><!--MD5=[fffa5c9a6c2a3d9bbcf62492fefaaec1]
link *start to INICIAR_SESIÓN--><g id="link_*start_INICIAR_SESIÓN"><path d="M67,66.2579 C67,78.9179 67,102.2079 67,120.3779 " fill="none" id="*start-to-INICIAR_SESIÓN" style="stroke:#181818;stroke-width:1.0;"/><polygon fill="#181818" points="67,125.2979,71,116.2979,67,120.2979,63,116.2979,67,125.2979" style="stroke:#181818;stroke-width:1.0;"/></g><!--MD5=[66837f7cee128dc6ca7363ed13e0752f]
link INICIAR_SESIÓN to INICIO--><g id="link_INICIAR_SESIÓN_INICIO"><path d="M67,167.3879 C67,187.0379 67,217.5879 67,239.2879 " fill="none" id="INICIAR_SESIÓN-to-INICIO" style="stroke:#181818;stroke-width:1.0;"/><polygon fill="#181818" points="67,244.2079,71,235.2079,67,239.2079,63,235.2079,67,244.2079" style="stroke:#181818;stroke-width:1.0;"/><text fill="#000000" font-family="sans-serif" font-size="13" lengthAdjust="spacing" textLength="78" x="68" y="211.9649">Iniciar Sesión</text></g><!--MD5=[924a5f2c07eecafe54ec1a392292cfcb]
link INICIO to GESTIÓN_EGRESADOS--><g id="link_INICIO_GESTIÓN_EGRESADOS"><path d="M95.35,278.0479 C105.43,282.3079 114.33,286.0679 114.33,286.0679 C114.33,286.0679 118,286.0679 123.29,286.0679 " fill="none" id="INICIO-to-GESTIÓN_EGRESADOS" style="stroke:#181818;stroke-width:1.0;"/><polygon fill="#181818" points="128.06,286.0679,119.06,282.0679,123.06,286.0679,119.06,290.0679,128.06,286.0679" style="stroke:#181818;stroke-width:1.0;"/></g><!--MD5=[07bad1bbb0ab526be7c56fe5971851f4]
reverse link INICIO to GESTIÓN_EGRESADOS--><g id="link_INICIO_GESTIÓN_EGRESADOS"><path d="M101.29,251.5779 C108.68,248.4579 114.33,246.0679 114.33,246.0679 C114.33,246.0679 121.13,246.0679 129.57,246.0679 " fill="none" id="INICIO-backto-GESTIÓN_EGRESADOS" style="stroke:#181818;stroke-width:1.0;"/><polygon fill="#181818" points="96.75,253.4979,106.5969,253.6919,101.3582,251.5576,103.4925,246.3189,96.75,253.4979" style="stroke:#181818;stroke-width:1.0;"/></g><!--MD5=[dcf685896d5be2c41b361dc25bb291c8]
link GESTIÓN_EGRESADOS to CREAR_EGRESADO--><g id="link_GESTIÓN_EGRESADOS_CREAR_EGRESADO"><path d="M256.54,245.6079 C285.38,233.1979 316.67,219.7379 316.67,219.7379 C316.67,219.7379 1008.33,219.7379 1008.33,219.7379 C1008.33,219.7379 1032.16,231.2779 1056.03,242.8379 " fill="none" id="GESTIÓN_EGRESADOS-to-CREAR_EGRESADO" style="stroke:#181818;stroke-width:1.0;"/><polygon fill="#181818" points="1060.4,244.9479,1054.0327,237.4341,1055.8969,242.775,1050.556,244.6391,1060.4,244.9479" style="stroke:#181818;stroke-width:1.0;"/></g><!--MD5=[054b3516f7cd67aac5bc4889501df6e6]
reverse link GESTIÓN_EGRESADOS to CREAR_EGRESADO--><g id="link_GESTIÓN_EGRESADOS_CREAR_EGRESADO"><path d="M248.04,242.2879 C282.85,221.0979 328.33,193.3979 328.33,193.3979 C328.33,193.3979 996.67,193.3979 996.67,193.3979 C996.67,193.3979 1042.07,224.1379 1073.82,245.6279 " fill="none" id="GESTIÓN_EGRESADOS-backto-CREAR_EGRESADO" style="stroke:#181818;stroke-width:1.0;"/><polygon fill="#181818" points="243.85,244.8479,253.6176,243.5852,248.121,242.2482,249.458,236.7516,243.85,244.8479" style="stroke:#181818;stroke-width:1.0;"/></g><!--MD5=[e27e001583fd2a7baeb1d1cad11dc97e]
link GESTIÓN_EGRESADOS to EDITAR_EGRESADO--><g id="link_GESTIÓN_EGRESADOS_EDITAR_EGRESADO"><path d="M256.54,245.6079 C285.38,233.1979 316.67,219.7379 316.67,219.7379 C316.67,219.7379 835.33,219.7379 835.33,219.7379 C835.33,219.7379 859.66,231.2779 884.03,242.8379 " fill="none" id="GESTIÓN_EGRESADOS-to-EDITAR_EGRESADO" style="stroke:#181818;stroke-width:1.0;"/><polygon fill="#181818" points="888.51,244.9579,882.0948,237.485,883.9931,242.8138,878.6642,244.7121,888.51,244.9579" style="stroke:#181818;stroke-width:1.0;"/></g><!--MD5=[bcaca8999c8a7b585c0d98df10bcd34f]
reverse link GESTIÓN_EGRESADOS to EDITAR_EGRESADO--><g id="link_GESTIÓN_EGRESADOS_EDITAR_EGRESADO"><path d="M248.04,242.2879 C282.85,221.0979 328.33,193.3979 328.33,193.3979 C328.33,193.3979 823.67,193.3979 823.67,193.3979 C823.67,193.3979 869.92,224.1379 902.25,245.6279 " fill="none" id="GESTIÓN_EGRESADOS-backto-EDITAR_EGRESADO" style="stroke:#181818;stroke-width:1.0;"/><polygon fill="#181818" points="243.85,244.8479,253.6176,243.5852,248.121,242.2482,249.458,236.7516,243.85,244.8479" style="stroke:#181818;stroke-width:1.0;"/></g><!--MD5=[87182b4d244b04c0742c4752aced28e5]
link GESTIÓN_EGRESADOS to ELIMINAR_EGRESADO--><g id="link_GESTIÓN_EGRESADOS_ELIMINAR_EGRESADO"><path d="M256.54,245.6079 C285.38,233.1979 316.67,219.7379 316.67,219.7379 C316.67,219.7379 643.33,219.7379 643.33,219.7379 C643.33,219.7379 670.6,231.4679 697.69,243.1279 " fill="none" id="GESTIÓN_EGRESADOS-to-ELIMINAR_EGRESADO" style="stroke:#181818;stroke-width:1.0;"/><polygon fill="#181818" points="702.07,245.0079,695.3734,237.7861,697.4743,243.0383,692.222,245.1392,702.07,245.0079" style="stroke:#181818;stroke-width:1.0;"/></g><!--MD5=[a8f15291b822ec7c160ddcf1f7e4723c]
reverse link GESTIÓN_EGRESADOS to ELIMINAR_EGRESADO--><g id="link_GESTIÓN_EGRESADOS_ELIMINAR_EGRESADO"><path d="M248.04,242.2879 C282.85,221.0979 328.33,193.3979 328.33,193.3979 C328.33,193.3979 631.67,193.3979 631.67,193.3979 C631.67,193.3979 682.15,224.1379 717.44,245.6279 " fill="none" id="GESTIÓN_EGRESADOS-backto-ELIMINAR_EGRESADO" style="stroke:#181818;stroke-width:1.0;"/><polygon fill="#181818" points="243.85,244.8479,253.6176,243.5852,248.121,242.2482,249.458,236.7516,243.85,244.8479" style="stroke:#181818;stroke-width:1.0;"/></g><!--MD5=[d9b277a36fc5cdcc6896841d7794f9df]
link GESTIÓN_EGRESADOS to LISTAR_EGRESADO--><g id="link_GESTIÓN_EGRESADOS_LISTAR_EGRESADO"><path d="M256.54,245.6079 C285.38,233.1979 316.67,219.7379 316.67,219.7379 C316.67,219.7379 473.33,219.7379 473.33,219.7379 C473.33,219.7379 497.41,231.2779 521.53,242.8379 " fill="none" id="GESTIÓN_EGRESADOS-to-LISTAR_EGRESADO" style="stroke:#181818;stroke-width:1.0;"/><polygon fill="#181818" points="525.95,244.9579,519.5541,237.4684,521.4386,242.8022,516.1049,244.6867,525.95,244.9579" style="stroke:#181818;stroke-width:1.0;"/></g><!--MD5=[10082d2525f709e611f890433c870e72]
reverse link GESTIÓN_EGRESADOS to LISTAR_EGRESADO--><g id="link_GESTIÓN_EGRESADOS_LISTAR_EGRESADO"><path d="M248.04,242.2879 C282.85,221.0979 328.33,193.3979 328.33,193.3979 C328.33,193.3979 461.67,193.3979 461.67,193.3979 C461.67,193.3979 507.49,224.1379 539.53,245.6279 " fill="none" id="GESTIÓN_EGRESADOS-backto-LISTAR_EGRESADO" style="stroke:#181818;stroke-width:1.0;"/><polygon fill="#181818" points="243.85,244.8479,253.6176,243.5852,248.121,242.2482,249.458,236.7516,243.85,244.8479" style="stroke:#181818;stroke-width:1.0;"/></g><!--MD5=[f8e65b88021f5be401a4f4ca270197a2]
link GESTIÓN_EGRESADOS to REALIZAR_PETICION--><g id="link_GESTIÓN_EGRESADOS_REALIZAR_PETICION"><path d="M288.27,286.0679 C296.87,286.0679 307.22,286.0679 315.81,286.0679 " fill="none" id="GESTIÓN_EGRESADOS-to-REALIZAR_PETICION" style="stroke:#181818;stroke-width:1.0;"/><polygon fill="#181818" points="320.73,286.0679,311.73,282.0679,315.73,286.0679,311.73,290.0679,320.73,286.0679" style="stroke:#181818;stroke-width:1.0;"/></g><!--MD5=[6ffedce790e8a5706e0899eee2455912]
reverse link GESTIÓN_EGRESADOS to REALIZAR_PETICION--><g id="link_GESTIÓN_EGRESADOS_REALIZAR_PETICION"><path d="M294.65,246.0679 C304.16,246.0679 314.64,246.0679 322.24,246.0679 " fill="none" id="GESTIÓN_EGRESADOS-backto-REALIZAR_PETICION" style="stroke:#181818;stroke-width:1.0;"/><polygon fill="#181818" points="289.78,246.0679,298.78,250.0679,294.78,246.0679,298.78,242.0679,289.78,246.0679" style="stroke:#181818;stroke-width:1.0;"/></g><!--MD5=[0876ba8a88d8bbcf732e506fae106d5c]
link INICIO to *end--><g id="link_INICIO_*end"><path d="M71.54,286.3679 C76.27,306.4779 83,335.0679 83,335.0679 C83,335.0679 109.02,353.5179 125.27,365.0379 " fill="none" id="INICIO-to-*end" style="stroke:#181818;stroke-width:1.0;"/><polygon fill="#181818" points="129.12,367.7679,124.0763,359.3085,125.036,364.8834,119.4611,365.843,129.12,367.7679" style="stroke:#181818;stroke-width:1.0;"/><text fill="#000000" font-family="sans-serif" font-size="13" lengthAdjust="spacing" textLength="74" x="84" y="330.9649">Cerar Sesión</text></g><!--MD5=[68cf946387aa7a9d6ab5098896bcd071]
link GESTIÓN_EGRESADOS to *end--><g id="link_GESTIÓN_EGRESADOS_*end"><path d="M196.31,286.1979 C181.99,307.7679 159.1,342.2679 146.69,360.9779 " fill="none" id="GESTIÓN_EGRESADOS-to-*end" style="stroke:#181818;stroke-width:1.0;"/><polygon fill="#181818" points="144.03,364.9879,152.3422,359.7051,146.7969,360.8233,145.6787,355.278,144.03,364.9879" style="stroke:#181818;stroke-width:1.0;"/><text fill="#000000" font-family="sans-serif" font-size="13" lengthAdjust="spacing" textLength="74" x="177" y="330.9649">Cerar Sesión</text></g><!--MD5=[43e575d238f05f2fd66ff2c5b9f7a031]
@startuml Contexto
title Contexto Administrador

skinparam {
    NoteBackgroundColor #whiteSmoke
    NoteBorderColor #green
    linetype polyline
}

hide empty description

[*] - -> INICIAR_SESIÓN
INICIAR_SESIÓN - -> INICIO : Iniciar Sesión

INICIO -> GESTIÓN_EGRESADOS
INICIO <- GESTIÓN_EGRESADOS

GESTIÓN_EGRESADOS -> CREAR_EGRESADO
GESTIÓN_EGRESADOS <- CREAR_EGRESADO
GESTIÓN_EGRESADOS -> EDITAR_EGRESADO
GESTIÓN_EGRESADOS <- EDITAR_EGRESADO
GESTIÓN_EGRESADOS -> ELIMINAR_EGRESADO
GESTIÓN_EGRESADOS <- ELIMINAR_EGRESADO
GESTIÓN_EGRESADOS -> LISTAR_EGRESADO
GESTIÓN_EGRESADOS <- LISTAR_EGRESADO
GESTIÓN_EGRESADOS -> REALIZAR_PETICION
GESTIÓN_EGRESADOS <- REALIZAR_PETICION

INICIO - -> [*] : Cerar Sesión
GESTIÓN_EGRESADOS - -> [*] : Cerar Sesión


@enduml

PlantUML version 1.2022.7(Mon Aug 22 19:01:30 CEST 2022)
(GPL source distribution)
Java Runtime: OpenJDK Runtime Environment
JVM: OpenJDK 64-Bit Server VM
Default Encoding: UTF-8
Language: es
Country: ES
--></g></svg>