<?xml version="1.0" encoding="UTF-8" standalone="no"?><svg xmlns="http://www.w3.org/2000/svg" xmlns:xlink="http://www.w3.org/1999/xlink" contentStyleType="text/css" height="387px" preserveAspectRatio="none" style="width:1211px;height:387px;background:#FFFFFF;" version="1.1" viewBox="0 0 1211 387" width="1211px" zoomAndPan="magnify"><defs/><g><rect fill="none" height="27.6094" id="_title" style="stroke:none;stroke-width:1.0;" width="176" x="510.75" y="5"/><text fill="#000000" font-family="sans-serif" font-size="14" font-weight="bold" lengthAdjust="spacing" textLength="166" x="515.75" y="24.5332">Contexto Administrador</text><ellipse cx="64.5" cy="54.6094" fill="#222222" rx="10" ry="10" style="stroke:none;stroke-width:1.0;"/><rect fill="#F1F1F1" height="40" rx="12.5" ry="12.5" style="stroke:#181818;stroke-width:0.5;" width="115" x="7" y="125.6094"/><text fill="#000000" font-family="sans-serif" font-size="14" lengthAdjust="spacing" textLength="105" x="12" y="151.3379">INICIAR_SESIÓN</text><rect fill="#F1F1F1" height="40" rx="12.5" ry="12.5" style="stroke:#181818;stroke-width:0.5;" width="50" x="39.5" y="243.6094"/><text fill="#000000" font-family="sans-serif" font-size="14" lengthAdjust="spacing" textLength="39" x="45" y="269.3379">INICIO</text><rect fill="#F1F1F1" height="40" rx="12.5" ry="12.5" style="stroke:#181818;stroke-width:0.5;" width="166" x="124.5" y="243.6094"/><text fill="#000000" font-family="sans-serif" font-size="14" lengthAdjust="spacing" textLength="156" x="129.5" y="269.3379">GESTIÓN_EGRESADOS</text><rect fill="#F1F1F1" height="40" rx="12.5" ry="12.5" style="stroke:#181818;stroke-width:0.5;" width="144" x="1061.5" y="243.6094"/><text fill="#000000" font-family="sans-serif" font-size="14" lengthAdjust="spacing" textLength="134" x="1066.5" y="269.3379">CREAR_EGRESADO</text><rect fill="#F1F1F1" height="40" rx="12.5" ry="12.5" style="stroke:#181818;stroke-width:0.5;" width="146" x="880.5" y="243.6094"/><text fill="#000000" font-family="sans-serif" font-size="14" lengthAdjust="spacing" textLength="136" x="885.5" y="269.3379">EDITAR_EGRESADO</text><rect fill="#F1F1F1" height="40" rx="12.5" ry="12.5" style="stroke:#181818;stroke-width:0.5;" width="158" x="687.5" y="243.6094"/><text fill="#000000" font-family="sans-serif" font-size="14" lengthAdjust="spacing" textLength="148" x="692.5" y="269.3379">ELIMINAR_EGRESADO</text><rect fill="#F1F1F1" height="40" rx="12.5" ry="12.5" style="stroke:#181818;stroke-width:0.5;" width="144" x="508.5" y="243.6094"/><text fill="#000000" font-family="sans-serif" font-size="14" lengthAdjust="spacing" textLength="134" x="513.5" y="269.3379">LISTAR_EGRESADO</text><rect fill="#F1F1F1" height="40" rx="12.5" ry="12.5" style="stroke:#181818;stroke-width:0.5;" width="147" x="326" y="243.6094"/><text fill="#000000" font-family="sans-serif" font-size="14" lengthAdjust="spacing" textLength="137" x="331" y="269.3379">REALIZAR_PETICIÓN</text><ellipse cx="135.5" cy="371.6094" fill="none" rx="10" ry="10" style="stroke:#222222;stroke-width:1.0;"/><ellipse cx="136" cy="372.1094" fill="#222222" rx="6" ry="6" style="stroke:none;stroke-width:1.0;"/><!--MD5=[fffa5c9a6c2a3d9bbcf62492fefaaec1]
link *start to INICIAR_SESIÓN--><g id="link_*start_INICIAR_SESIÓN"><path d="M64.5,64.7994 C64.5,77.7894 64.5,101.9894 64.5,120.3394 " fill="none" id="*start-to-INICIAR_SESIÓN" style="stroke:#181818;stroke-width:1.0;"/><polygon fill="#181818" points="64.5,125.3494,68.5,116.3494,64.5,120.3494,60.5,116.3494,64.5,125.3494" style="stroke:#181818;stroke-width:1.0;"/></g><!--MD5=[66837f7cee128dc6ca7363ed13e0752f]
link INICIAR_SESIÓN to INICIO--><g id="link_INICIAR_SESIÓN_INICIO"><path d="M64.5,165.7694 C64.5,185.5794 64.5,216.5894 64.5,238.1594 " fill="none" id="INICIAR_SESIÓN-to-INICIO" style="stroke:#181818;stroke-width:1.0;"/><polygon fill="#181818" points="64.5,243.4294,68.5,234.4294,64.5,238.4294,60.5,234.4294,64.5,243.4294" style="stroke:#181818;stroke-width:1.0;"/><text fill="#000000" font-family="sans-serif" font-size="13" lengthAdjust="spacing" textLength="78" x="65.5" y="210.1045">Iniciar Sesión</text></g><!--MD5=[924a5f2c07eecafe54ec1a392292cfcb]
link INICIO to GESTIÓN_EGRESADOS--><g id="link_INICIO_GESTIÓN_EGRESADOS"><path d="M89.73,274.1994 C101.16,278.9894 112.17,283.6094 112.17,283.6094 C112.17,283.6094 114.93,283.6094 119.14,283.6094 " fill="none" id="INICIO-to-GESTIÓN_EGRESADOS" style="stroke:#181818;stroke-width:1.0;"/><polygon fill="#181818" points="124.19,283.6094,115.2015,279.5837,119.19,283.5951,115.1786,287.5836,124.19,283.6094" style="stroke:#181818;stroke-width:1.0;"/></g><!--MD5=[07bad1bbb0ab526be7c56fe5971851f4]
reverse link INICIO to GESTIÓN_EGRESADOS--><g id="link_INICIO_GESTIÓN_EGRESADOS"><path d="M94.5,251.0194 C104.04,247.0194 112.17,243.6094 112.17,243.6094 C112.17,243.6094 117.3,243.6094 124.19,243.6094 " fill="none" id="INICIO-backto-GESTIÓN_EGRESADOS" style="stroke:#181818;stroke-width:1.0;"/><polygon fill="#181818" points="89.73,253.0194,99.5772,253.2025,94.336,251.074,96.4645,245.8328,89.73,253.0194" style="stroke:#181818;stroke-width:1.0;"/></g><!--MD5=[dcf685896d5be2c41b361dc25bb291c8]
link GESTIÓN_EGRESADOS to CREAR_EGRESADO--><g id="link_GESTIÓN_EGRESADOS_CREAR_EGRESADO"><path d="M256.59,243.5694 C286.95,231.1694 320.17,217.6094 320.17,217.6094 C320.17,217.6094 1032.83,217.6094 1032.83,217.6094 C1032.83,217.6094 1059.14,229.6294 1084.85,241.3794 " fill="none" id="GESTIÓN_EGRESADOS-to-CREAR_EGRESADO" style="stroke:#181818;stroke-width:1.0;"/><polygon fill="#181818" points="1089.64,243.5694,1083.1298,236.179,1085.096,241.4831,1079.7919,243.4493,1089.64,243.5694" style="stroke:#181818;stroke-width:1.0;"/></g><!--MD5=[054b3516f7cd67aac5bc4889501df6e6]
reverse link GESTIÓN_EGRESADOS to CREAR_EGRESADO--><g id="link_GESTIÓN_EGRESADOS_CREAR_EGRESADO"><path d="M246.51,241.0194 C282.98,219.8994 331.83,191.6094 331.83,191.6094 C331.83,191.6094 1021.17,191.6094 1021.17,191.6094 C1021.17,191.6094 1068.97,222.2494 1102.21,243.5494 " fill="none" id="GESTIÓN_EGRESADOS-backto-CREAR_EGRESADO" style="stroke:#181818;stroke-width:1.0;"/><polygon fill="#181818" points="242.13,243.5494,251.9215,242.4878,246.4535,241.038,247.9033,235.5701,242.13,243.5494" style="stroke:#181818;stroke-width:1.0;"/></g><!--MD5=[e27e001583fd2a7baeb1d1cad11dc97e]
link GESTIÓN_EGRESADOS to EDITAR_EGRESADO--><g id="link_GESTIÓN_EGRESADOS_EDITAR_EGRESADO"><path d="M256.59,243.5694 C286.95,231.1694 320.17,217.6094 320.17,217.6094 C320.17,217.6094 851.83,217.6094 851.83,217.6094 C851.83,217.6094 878.4,229.6294 904.37,241.3794 " fill="none" id="GESTIÓN_EGRESADOS-to-EDITAR_EGRESADO" style="stroke:#181818;stroke-width:1.0;"/><polygon fill="#181818" points="909.2,243.5694,902.6428,236.2207,904.6428,241.5122,899.3513,243.5122,909.2,243.5694" style="stroke:#181818;stroke-width:1.0;"/></g><!--MD5=[bcaca8999c8a7b585c0d98df10bcd34f]
reverse link GESTIÓN_EGRESADOS to EDITAR_EGRESADO--><g id="link_GESTIÓN_EGRESADOS_EDITAR_EGRESADO"><path d="M246.51,241.0194 C282.98,219.8994 331.83,191.6094 331.83,191.6094 C331.83,191.6094 840.17,191.6094 840.17,191.6094 C840.17,191.6094 888.4,222.2494 921.93,243.5494 " fill="none" id="GESTIÓN_EGRESADOS-backto-EDITAR_EGRESADO" style="stroke:#181818;stroke-width:1.0;"/><polygon fill="#181818" points="242.13,243.5494,251.9215,242.4878,246.4535,241.038,247.9033,235.5701,242.13,243.5494" style="stroke:#181818;stroke-width:1.0;"/></g><!--MD5=[87182b4d244b04c0742c4752aced28e5]
link GESTIÓN_EGRESADOS to ELIMINAR_EGRESADO--><g id="link_GESTIÓN_EGRESADOS_ELIMINAR_EGRESADO"><path d="M256.59,243.5694 C286.95,231.1694 320.17,217.6094 320.17,217.6094 C320.17,217.6094 658.83,217.6094 658.83,217.6094 C658.83,217.6094 687.2,229.7294 714.81,241.5294 " fill="none" id="GESTIÓN_EGRESADOS-to-ELIMINAR_EGRESADO" style="stroke:#181818;stroke-width:1.0;"/><polygon fill="#181818" points="719.59,243.5694,712.8934,236.3475,714.9943,241.5998,709.742,243.7007,719.59,243.5694" style="stroke:#181818;stroke-width:1.0;"/></g><!--MD5=[a8f15291b822ec7c160ddcf1f7e4723c]
reverse link GESTIÓN_EGRESADOS to ELIMINAR_EGRESADO--><g id="link_GESTIÓN_EGRESADOS_ELIMINAR_EGRESADO"><path d="M246.51,241.0194 C282.98,219.8994 331.83,191.6094 331.83,191.6094 C331.83,191.6094 647.17,191.6094 647.17,191.6094 C647.17,191.6094 697.95,222.2494 733.26,243.5494 " fill="none" id="GESTIÓN_EGRESADOS-backto-ELIMINAR_EGRESADO" style="stroke:#181818;stroke-width:1.0;"/><polygon fill="#181818" points="242.13,243.5494,251.9215,242.4878,246.4535,241.038,247.9033,235.5701,242.13,243.5494" style="stroke:#181818;stroke-width:1.0;"/></g><!--MD5=[d9b277a36fc5cdcc6896841d7794f9df]
link GESTIÓN_EGRESADOS to LISTAR_EGRESADO--><g id="link_GESTIÓN_EGRESADOS_LISTAR_EGRESADO"><path d="M256.59,243.5694 C286.95,231.1694 320.17,217.6094 320.17,217.6094 C320.17,217.6094 478.83,217.6094 478.83,217.6094 C478.83,217.6094 505.4,229.6294 531.37,241.3794 " fill="none" id="GESTIÓN_EGRESADOS-to-LISTAR_EGRESADO" style="stroke:#181818;stroke-width:1.0;"/><polygon fill="#181818" points="536.2,243.5694,529.6428,236.2207,531.6428,241.5122,526.3513,243.5122,536.2,243.5694" style="stroke:#181818;stroke-width:1.0;"/></g><!--MD5=[10082d2525f709e611f890433c870e72]
reverse link GESTIÓN_EGRESADOS to LISTAR_EGRESADO--><g id="link_GESTIÓN_EGRESADOS_LISTAR_EGRESADO"><path d="M246.51,241.0194 C282.98,219.8994 331.83,191.6094 331.83,191.6094 C331.83,191.6094 467.17,191.6094 467.17,191.6094 C467.17,191.6094 515.4,222.2494 548.93,243.5494 " fill="none" id="GESTIÓN_EGRESADOS-backto-LISTAR_EGRESADO" style="stroke:#181818;stroke-width:1.0;"/><polygon fill="#181818" points="242.13,243.5494,251.9215,242.4878,246.4535,241.038,247.9033,235.5701,242.13,243.5494" style="stroke:#181818;stroke-width:1.0;"/></g><!--MD5=[25f5a8fd1257cff86f2df9a70d2933bb]
link GESTIÓN_EGRESADOS to REALIZAR_PETICIÓN--><g id="link_GESTIÓN_EGRESADOS_REALIZAR_PETICIÓN"><path d="M290.7,283.6094 C300.34,283.6094 311.83,283.6094 320.76,283.6094 " fill="none" id="GESTIÓN_EGRESADOS-to-REALIZAR_PETICIÓN" style="stroke:#181818;stroke-width:1.0;"/><polygon fill="#181818" points="325.95,283.6094,316.95,279.6094,320.95,283.6094,316.95,287.6094,325.95,283.6094" style="stroke:#181818;stroke-width:1.0;"/></g><!--MD5=[a67f2319a6e3e6e3996204f9be268c2b]
reverse link GESTIÓN_EGRESADOS to REALIZAR_PETICIÓN--><g id="link_GESTIÓN_EGRESADOS_REALIZAR_PETICIÓN"><path d="M295.75,243.6094 C306.27,243.6094 317.98,243.6094 325.95,243.6094 " fill="none" id="GESTIÓN_EGRESADOS-backto-REALIZAR_PETICIÓN" style="stroke:#181818;stroke-width:1.0;"/><polygon fill="#181818" points="290.7,243.6094,299.7,247.6094,295.7,243.6094,299.7,239.6094,290.7,243.6094" style="stroke:#181818;stroke-width:1.0;"/></g><!--MD5=[0876ba8a88d8bbcf732e506fae106d5c]
link INICIO to *end--><g id="link_INICIO_*end"><path d="M68.19,283.6294 C72.03,303.4394 77.5,331.6094 77.5,331.6094 C77.5,331.6094 105.91,350.7094 122.96,362.1794 " fill="none" id="INICIO-to-*end" style="stroke:#181818;stroke-width:1.0;"/><polygon fill="#181818" points="127.44,365.1894,122.1901,356.8564,123.2863,362.406,117.7367,363.5022,127.44,365.1894" style="stroke:#181818;stroke-width:1.0;"/><text fill="#000000" font-family="sans-serif" font-size="13" lengthAdjust="spacing" textLength="79" x="78.5" y="328.1045">Cerrar Sesión</text></g><!--MD5=[68cf946387aa7a9d6ab5098896bcd071]
link GESTIÓN_EGRESADOS to *end--><g id="link_GESTIÓN_EGRESADOS_*end"><path d="M194.73,283.6294 C181.42,303.4394 162.5,331.6094 162.5,331.6094 C162.5,331.6094 151.86,346.9694 143.94,358.4094 " fill="none" id="GESTIÓN_EGRESADOS-to-*end" style="stroke:#181818;stroke-width:1.0;"/><polygon fill="#181818" points="140.96,362.7194,149.367,357.5889,143.8023,358.6058,142.7854,353.0412,140.96,362.7194" style="stroke:#181818;stroke-width:1.0;"/><text fill="#000000" font-family="sans-serif" font-size="13" lengthAdjust="spacing" textLength="79" x="176.5" y="328.1045">Cerrar Sesión</text></g><!--MD5=[7e952d8c57d21a0ea871e22cca1215df]
@startuml Contexto
title Contexto Administrador

skinparam {
    NoteBackgroundColor #whiteSmoke
    NoteBorderColor #green
    linetype polyline
}

hide empty description

[*] - -> INICIAR_SESIÓN
INICIAR_SESIÓN - -> INICIO : Iniciar Sesión

INICIO -> GESTIÓN_EGRESADOS
INICIO <- GESTIÓN_EGRESADOS

GESTIÓN_EGRESADOS -> CREAR_EGRESADO
GESTIÓN_EGRESADOS <- CREAR_EGRESADO
GESTIÓN_EGRESADOS -> EDITAR_EGRESADO
GESTIÓN_EGRESADOS <- EDITAR_EGRESADO
GESTIÓN_EGRESADOS -> ELIMINAR_EGRESADO
GESTIÓN_EGRESADOS <- ELIMINAR_EGRESADO
GESTIÓN_EGRESADOS -> LISTAR_EGRESADO
GESTIÓN_EGRESADOS <- LISTAR_EGRESADO
GESTIÓN_EGRESADOS -> REALIZAR_PETICIÓN
GESTIÓN_EGRESADOS <- REALIZAR_PETICIÓN

INICIO - -> [*] : Cerrar Sesión
GESTIÓN_EGRESADOS - -> [*] : Cerrar Sesión


@enduml

PlantUML version 1.2022.7(Mon Aug 22 19:01:30 CEST 2022)
(GPL source distribution)
Java Runtime: OpenJDK Runtime Environment
JVM: OpenJDK 64-Bit Server VM
Default Encoding: Cp1252
Language: es
Country: ES
--></g></svg>