<svg width="401" height="178" viewBox="0 0 401 178" fill="none" xmlns="http://www.w3.org/2000/svg">
<rect width="401" height="178" fill="#D9D9D9"/>
<rect width="401" height="178" rx="15" fill="#F6F8FF"/>
<g filter="url(#filter0_d_0_1)">
<rect x="33" y="40" width="336" height="98" rx="6" fill="white"/>
<rect x="33.5" y="40.5" width="335" height="97" rx="5.5" stroke="#FF5053"/>
<rect width="32" height="66" transform="translate(45 52)" fill="white"/>
<path d="M59.6665 90.9998H62.3332V93.6665H59.6665V90.9998ZM59.6665 80.3332H62.3332V88.3332H59.6665V80.3332ZM60.9998 73.6665C53.6265 73.6665 47.6665 79.6665 47.6665 86.9998C47.6665 90.5361 49.0713 93.9274 51.5717 96.4279C52.8099 97.666 54.2797 98.6482 55.8974 99.3182C57.5151 99.9883 59.2489 100.333 60.9998 100.333C64.5361 100.333 67.9274 98.9284 70.4279 96.4279C72.9284 93.9274 74.3332 90.5361 74.3332 86.9998C74.3332 85.2489 73.9883 83.5151 73.3182 81.8974C72.6482 80.2797 71.666 78.8099 70.4279 77.5717C69.1898 76.3336 67.72 75.3515 66.1023 74.6814C64.4846 74.0114 62.7508 73.6665 60.9998 73.6665ZM60.9998 97.6665C58.1709 97.6665 55.4578 96.5427 53.4574 94.5423C51.457 92.5419 50.3332 89.8288 50.3332 86.9998C50.3332 84.1709 51.457 81.4578 53.4574 79.4574C55.4578 77.457 58.1709 76.3332 60.9998 76.3332C63.8288 76.3332 66.5419 77.457 68.5423 79.4574C70.5427 81.4578 71.6665 84.1709 71.6665 86.9998C71.6665 89.8288 70.5427 92.5419 68.5423 94.5423C66.5419 96.5427 63.8288 97.6665 60.9998 97.6665Z" fill="#FF5053"/>
<path d="M90.924 72.456H96.492V74.168H90.924V72.456ZM91.084 77.256H97.404V79H89.004V67.8H97.18V69.544H91.084V77.256ZM99.5308 79V70.456H101.435V72.808L101.211 72.12C101.467 71.544 101.867 71.1067 102.411 70.808C102.965 70.5093 103.653 70.36 104.475 70.36V72.264C104.389 72.2427 104.309 72.232 104.235 72.232C104.16 72.2213 104.085 72.216 104.011 72.216C103.253 72.216 102.651 72.44 102.203 72.888C101.755 73.3253 101.531 73.9813 101.531 74.856V79H99.5308ZM106.171 79V70.456H108.075V72.808L107.851 72.12C108.107 71.544 108.507 71.1067 109.051 70.808C109.606 70.5093 110.294 70.36 111.115 70.36V72.264C111.03 72.2427 110.95 72.232 110.875 72.232C110.801 72.2213 110.726 72.216 110.651 72.216C109.894 72.216 109.291 72.44 108.843 72.888C108.395 73.3253 108.171 73.9813 108.171 74.856V79H106.171ZM116.574 79.112C115.699 79.112 114.921 78.9253 114.238 78.552C113.555 78.168 113.017 77.6453 112.622 76.984C112.227 76.3227 112.03 75.5707 112.03 74.728C112.03 73.8747 112.227 73.1227 112.622 72.472C113.017 71.8107 113.555 71.2933 114.238 70.92C114.921 70.5467 115.699 70.36 116.574 70.36C117.459 70.36 118.243 70.5467 118.926 70.92C119.619 71.2933 120.158 71.8053 120.542 72.456C120.937 73.1067 121.134 73.864 121.134 74.728C121.134 75.5707 120.937 76.3227 120.542 76.984C120.158 77.6453 119.619 78.168 118.926 78.552C118.243 78.9253 117.459 79.112 116.574 79.112ZM116.574 77.4C117.065 77.4 117.502 77.2933 117.886 77.08C118.27 76.8667 118.569 76.5573 118.782 76.152C119.006 75.7467 119.118 75.272 119.118 74.728C119.118 74.1733 119.006 73.6987 118.782 73.304C118.569 72.8987 118.27 72.5893 117.886 72.376C117.502 72.1627 117.07 72.056 116.59 72.056C116.099 72.056 115.662 72.1627 115.278 72.376C114.905 72.5893 114.606 72.8987 114.382 73.304C114.158 73.6987 114.046 74.1733 114.046 74.728C114.046 75.272 114.158 75.7467 114.382 76.152C114.606 76.5573 114.905 76.8667 115.278 77.08C115.662 77.2933 116.094 77.4 116.574 77.4ZM123.046 79V70.456H124.95V72.808L124.726 72.12C124.982 71.544 125.382 71.1067 125.926 70.808C126.481 70.5093 127.169 70.36 127.99 70.36V72.264C127.905 72.2427 127.825 72.232 127.75 72.232C127.676 72.2213 127.601 72.216 127.526 72.216C126.769 72.216 126.166 72.44 125.718 72.888C125.27 73.3253 125.046 73.9813 125.046 74.856V79H123.046Z" fill="#333333"/>
<path d="M97.516 102.8H98.684V114H97.516V102.8ZM90.508 114H89.324V102.8H90.508V114ZM97.628 108.832H90.38V107.792H97.628V108.832ZM105.572 114.08C104.857 114.08 104.233 113.947 103.7 113.68C103.166 113.413 102.75 113.013 102.452 112.48C102.164 111.947 102.02 111.28 102.02 110.48V105.6H103.156V110.352C103.156 111.248 103.374 111.925 103.812 112.384C104.26 112.832 104.884 113.056 105.684 113.056C106.27 113.056 106.777 112.939 107.204 112.704C107.641 112.459 107.972 112.107 108.196 111.648C108.43 111.189 108.548 110.64 108.548 110V105.6H109.684V114H108.596V111.696L108.772 112.112C108.505 112.731 108.089 113.216 107.524 113.568C106.969 113.909 106.318 114.08 105.572 114.08ZM117.186 114.08C116.45 114.08 115.788 113.915 115.202 113.584C114.615 113.243 114.151 112.752 113.81 112.112C113.468 111.472 113.298 110.699 113.298 109.792C113.298 108.875 113.468 108.101 113.81 107.472C114.162 106.832 114.631 106.347 115.218 106.016C115.804 105.685 116.46 105.52 117.186 105.52C117.986 105.52 118.7 105.701 119.33 106.064C119.97 106.416 120.471 106.912 120.834 107.552C121.196 108.192 121.378 108.939 121.378 109.792C121.378 110.635 121.196 111.381 120.834 112.032C120.471 112.672 119.97 113.173 119.33 113.536C118.7 113.899 117.986 114.08 117.186 114.08ZM112.85 114V102.128H113.986V108.08L113.826 109.776L113.938 111.472V114H112.85ZM117.106 113.072C117.703 113.072 118.236 112.939 118.706 112.672C119.175 112.395 119.548 112.011 119.826 111.52C120.103 111.019 120.242 110.443 120.242 109.792C120.242 109.131 120.103 108.555 119.826 108.064C119.548 107.573 119.175 107.195 118.706 106.928C118.236 106.651 117.703 106.512 117.106 106.512C116.508 106.512 115.97 106.651 115.49 106.928C115.02 107.195 114.647 107.573 114.37 108.064C114.103 108.555 113.97 109.131 113.97 109.792C113.97 110.443 114.103 111.019 114.37 111.52C114.647 112.011 115.02 112.395 115.49 112.672C115.97 112.939 116.508 113.072 117.106 113.072ZM127.117 114.08C126.307 114.08 125.576 113.899 124.925 113.536C124.285 113.163 123.779 112.656 123.405 112.016C123.032 111.365 122.845 110.624 122.845 109.792C122.845 108.949 123.032 108.208 123.405 107.568C123.779 106.928 124.285 106.427 124.925 106.064C125.565 105.701 126.296 105.52 127.117 105.52C127.949 105.52 128.685 105.701 129.325 106.064C129.976 106.427 130.483 106.928 130.845 107.568C131.219 108.208 131.405 108.949 131.405 109.792C131.405 110.624 131.219 111.365 130.845 112.016C130.483 112.656 129.976 113.163 129.325 113.536C128.675 113.899 127.939 114.08 127.117 114.08ZM127.117 113.072C127.725 113.072 128.264 112.939 128.733 112.672C129.203 112.395 129.571 112.011 129.837 111.52C130.115 111.019 130.253 110.443 130.253 109.792C130.253 109.131 130.115 108.555 129.837 108.064C129.571 107.573 129.203 107.195 128.733 106.928C128.264 106.651 127.731 106.512 127.133 106.512C126.536 106.512 126.003 106.651 125.533 106.928C125.064 107.195 124.691 107.573 124.413 108.064C124.136 108.555 123.997 109.131 123.997 109.792C123.997 110.443 124.136 111.019 124.413 111.52C124.691 112.011 125.064 112.395 125.533 112.672C126.003 112.939 126.531 113.072 127.117 113.072ZM141.384 114.08C140.669 114.08 140.045 113.947 139.512 113.68C138.979 113.413 138.563 113.013 138.264 112.48C137.976 111.947 137.832 111.28 137.832 110.48V105.6H138.968V110.352C138.968 111.248 139.187 111.925 139.624 112.384C140.072 112.832 140.696 113.056 141.496 113.056C142.083 113.056 142.589 112.939 143.016 112.704C143.453 112.459 143.784 112.107 144.008 111.648C144.243 111.189 144.36 110.64 144.36 110V105.6H145.496V114H144.408V111.696L144.584 112.112C144.317 112.731 143.901 113.216 143.336 113.568C142.781 113.909 142.131 114.08 141.384 114.08ZM152.95 105.52C153.633 105.52 154.23 105.653 154.742 105.92C155.265 106.176 155.67 106.571 155.958 107.104C156.257 107.637 156.406 108.309 156.406 109.12V114H155.27V109.232C155.27 108.347 155.046 107.68 154.598 107.232C154.161 106.773 153.542 106.544 152.742 106.544C152.145 106.544 151.622 106.667 151.174 106.912C150.737 107.147 150.395 107.493 150.15 107.952C149.915 108.4 149.798 108.944 149.798 109.584V114H148.662V105.6H149.75V107.904L149.574 107.472C149.841 106.864 150.267 106.389 150.854 106.048C151.441 105.696 152.139 105.52 152.95 105.52ZM167.23 114.08C166.355 114.08 165.587 113.899 164.926 113.536C164.265 113.163 163.747 112.656 163.374 112.016C163.001 111.365 162.814 110.624 162.814 109.792C162.814 108.96 162.99 108.224 163.342 107.584C163.705 106.944 164.195 106.443 164.814 106.08C165.443 105.707 166.147 105.52 166.926 105.52C167.715 105.52 168.414 105.701 169.022 106.064C169.641 106.416 170.126 106.917 170.478 107.568C170.83 108.208 171.006 108.949 171.006 109.792C171.006 109.845 171.001 109.904 170.99 109.968C170.99 110.021 170.99 110.08 170.99 110.144H163.678V109.296H170.382L169.934 109.632C169.934 109.024 169.801 108.485 169.534 108.016C169.278 107.536 168.926 107.163 168.478 106.896C168.03 106.629 167.513 106.496 166.926 106.496C166.35 106.496 165.833 106.629 165.374 106.896C164.915 107.163 164.558 107.536 164.302 108.016C164.046 108.496 163.918 109.045 163.918 109.664V109.84C163.918 110.48 164.057 111.045 164.334 111.536C164.622 112.016 165.017 112.395 165.518 112.672C166.03 112.939 166.611 113.072 167.262 113.072C167.774 113.072 168.249 112.981 168.686 112.8C169.134 112.619 169.518 112.341 169.838 111.968L170.478 112.704C170.105 113.152 169.635 113.493 169.07 113.728C168.515 113.963 167.902 114.08 167.23 114.08ZM173.318 114V105.6H174.406V107.888L174.294 107.488C174.529 106.848 174.924 106.363 175.478 106.032C176.033 105.691 176.721 105.52 177.542 105.52V106.624C177.5 106.624 177.457 106.624 177.414 106.624C177.372 106.613 177.329 106.608 177.286 106.608C176.401 106.608 175.708 106.88 175.206 107.424C174.705 107.957 174.454 108.72 174.454 109.712V114H173.318ZM179.615 114V105.6H180.703V107.888L180.591 107.488C180.826 106.848 181.221 106.363 181.775 106.032C182.33 105.691 183.018 105.52 183.839 105.52V106.624C183.797 106.624 183.754 106.624 183.711 106.624C183.669 106.613 183.626 106.608 183.583 106.608C182.698 106.608 182.005 106.88 181.503 107.424C181.002 107.957 180.751 108.72 180.751 109.712V114H179.615ZM189.258 114.08C188.447 114.08 187.717 113.899 187.066 113.536C186.426 113.163 185.919 112.656 185.546 112.016C185.173 111.365 184.986 110.624 184.986 109.792C184.986 108.949 185.173 108.208 185.546 107.568C185.919 106.928 186.426 106.427 187.066 106.064C187.706 105.701 188.437 105.52 189.258 105.52C190.09 105.52 190.826 105.701 191.466 106.064C192.117 106.427 192.623 106.928 192.986 107.568C193.359 108.208 193.546 108.949 193.546 109.792C193.546 110.624 193.359 111.365 192.986 112.016C192.623 112.656 192.117 113.163 191.466 113.536C190.815 113.899 190.079 114.08 189.258 114.08ZM189.258 113.072C189.866 113.072 190.405 112.939 190.874 112.672C191.343 112.395 191.711 112.011 191.978 111.52C192.255 111.019 192.394 110.443 192.394 109.792C192.394 109.131 192.255 108.555 191.978 108.064C191.711 107.573 191.343 107.195 190.874 106.928C190.405 106.651 189.871 106.512 189.274 106.512C188.677 106.512 188.143 106.651 187.674 106.928C187.205 107.195 186.831 107.573 186.554 108.064C186.277 108.555 186.138 109.131 186.138 109.792C186.138 110.443 186.277 111.019 186.554 111.52C186.831 112.011 187.205 112.395 187.674 112.672C188.143 112.939 188.671 113.072 189.258 113.072ZM195.865 114V105.6H196.953V107.888L196.841 107.488C197.076 106.848 197.471 106.363 198.025 106.032C198.58 105.691 199.268 105.52 200.089 105.52V106.624C200.047 106.624 200.004 106.624 199.961 106.624C199.919 106.613 199.876 106.608 199.833 106.608C198.948 106.608 198.255 106.88 197.753 107.424C197.252 107.957 197.001 108.72 197.001 109.712V114H195.865ZM206.475 114V105.6H207.611V114H206.475ZM207.051 103.744C206.816 103.744 206.619 103.664 206.459 103.504C206.299 103.344 206.219 103.152 206.219 102.928C206.219 102.704 206.299 102.517 206.459 102.368C206.619 102.208 206.816 102.128 207.051 102.128C207.285 102.128 207.483 102.203 207.643 102.352C207.803 102.501 207.883 102.688 207.883 102.912C207.883 103.147 207.803 103.344 207.643 103.504C207.493 103.664 207.296 103.744 207.051 103.744ZM215.06 105.52C215.742 105.52 216.34 105.653 216.852 105.92C217.374 106.176 217.78 106.571 218.068 107.104C218.366 107.637 218.516 108.309 218.516 109.12V114H217.38V109.232C217.38 108.347 217.156 107.68 216.708 107.232C216.27 106.773 215.652 106.544 214.852 106.544C214.254 106.544 213.732 106.667 213.284 106.912C212.846 107.147 212.505 107.493 212.26 107.952C212.025 108.4 211.908 108.944 211.908 109.584V114H210.772V105.6H211.86V107.904L211.684 107.472C211.95 106.864 212.377 106.389 212.964 106.048C213.55 105.696 214.249 105.52 215.06 105.52ZM225.152 114.08C224.277 114.08 223.509 113.899 222.848 113.536C222.187 113.163 221.669 112.656 221.296 112.016C220.923 111.365 220.736 110.624 220.736 109.792C220.736 108.96 220.912 108.224 221.264 107.584C221.627 106.944 222.117 106.443 222.736 106.08C223.365 105.707 224.069 105.52 224.848 105.52C225.637 105.52 226.336 105.701 226.944 106.064C227.563 106.416 228.048 106.917 228.4 107.568C228.752 108.208 228.928 108.949 228.928 109.792C228.928 109.845 228.923 109.904 228.912 109.968C228.912 110.021 228.912 110.08 228.912 110.144H221.6V109.296H228.304L227.856 109.632C227.856 109.024 227.723 108.485 227.456 108.016C227.2 107.536 226.848 107.163 226.4 106.896C225.952 106.629 225.435 106.496 224.848 106.496C224.272 106.496 223.755 106.629 223.296 106.896C222.837 107.163 222.48 107.536 222.224 108.016C221.968 108.496 221.84 109.045 221.84 109.664V109.84C221.84 110.48 221.979 111.045 222.256 111.536C222.544 112.016 222.939 112.395 223.44 112.672C223.952 112.939 224.533 113.072 225.184 113.072C225.696 113.072 226.171 112.981 226.608 112.8C227.056 112.619 227.44 112.341 227.76 111.968L228.4 112.704C228.027 113.152 227.557 113.493 226.992 113.728C226.437 113.963 225.824 114.08 225.152 114.08ZM233.496 114.08C232.803 114.08 232.147 113.984 231.528 113.792C230.91 113.589 230.424 113.339 230.072 113.04L230.584 112.144C230.926 112.4 231.363 112.624 231.896 112.816C232.43 112.997 232.99 113.088 233.576 113.088C234.376 113.088 234.952 112.965 235.304 112.72C235.656 112.464 235.832 112.128 235.832 111.712C235.832 111.403 235.731 111.163 235.528 110.992C235.336 110.811 235.08 110.677 234.76 110.592C234.44 110.496 234.083 110.416 233.688 110.352C233.294 110.288 232.899 110.213 232.504 110.128C232.12 110.043 231.768 109.92 231.448 109.76C231.128 109.589 230.867 109.36 230.664 109.072C230.472 108.784 230.376 108.4 230.376 107.92C230.376 107.461 230.504 107.051 230.76 106.688C231.016 106.325 231.39 106.043 231.88 105.84C232.382 105.627 232.99 105.52 233.704 105.52C234.248 105.52 234.792 105.595 235.336 105.744C235.88 105.883 236.328 106.069 236.68 106.304L236.184 107.216C235.811 106.96 235.411 106.779 234.984 106.672C234.558 106.555 234.131 106.496 233.704 106.496C232.947 106.496 232.387 106.629 232.024 106.896C231.672 107.152 231.496 107.483 231.496 107.888C231.496 108.208 231.592 108.459 231.784 108.64C231.987 108.821 232.248 108.965 232.568 109.072C232.899 109.168 233.256 109.248 233.64 109.312C234.035 109.376 234.424 109.456 234.808 109.552C235.203 109.637 235.56 109.76 235.88 109.92C236.211 110.069 236.472 110.288 236.664 110.576C236.867 110.853 236.968 111.221 236.968 111.68C236.968 112.171 236.83 112.597 236.552 112.96C236.286 113.312 235.891 113.589 235.368 113.792C234.856 113.984 234.232 114.08 233.496 114.08ZM243.389 114.08C242.663 114.08 242.007 113.915 241.421 113.584C240.834 113.243 240.365 112.757 240.013 112.128C239.671 111.488 239.501 110.709 239.501 109.792C239.501 108.875 239.671 108.101 240.013 107.472C240.354 106.832 240.818 106.347 241.405 106.016C241.991 105.685 242.653 105.52 243.389 105.52C244.189 105.52 244.903 105.701 245.533 106.064C246.173 106.416 246.674 106.917 247.037 107.568C247.399 108.208 247.581 108.949 247.581 109.792C247.581 110.645 247.399 111.392 247.037 112.032C246.674 112.672 246.173 113.173 245.533 113.536C244.903 113.899 244.189 114.08 243.389 114.08ZM239.053 117.104V105.6H240.141V108.128L240.029 109.808L240.189 111.504V117.104H239.053ZM243.309 113.072C243.906 113.072 244.439 112.939 244.909 112.672C245.378 112.395 245.751 112.011 246.029 111.52C246.306 111.019 246.445 110.443 246.445 109.792C246.445 109.141 246.306 108.571 246.029 108.08C245.751 107.589 245.378 107.205 244.909 106.928C244.439 106.651 243.906 106.512 243.309 106.512C242.711 106.512 242.173 106.651 241.693 106.928C241.223 107.205 240.85 107.589 240.573 108.08C240.306 108.571 240.173 109.141 240.173 109.792C240.173 110.443 240.306 111.019 240.573 111.52C240.85 112.011 241.223 112.395 241.693 112.672C242.173 112.939 242.711 113.072 243.309 113.072ZM253.465 114.08C252.59 114.08 251.822 113.899 251.161 113.536C250.499 113.163 249.982 112.656 249.609 112.016C249.235 111.365 249.049 110.624 249.049 109.792C249.049 108.96 249.225 108.224 249.577 107.584C249.939 106.944 250.43 106.443 251.049 106.08C251.678 105.707 252.382 105.52 253.161 105.52C253.95 105.52 254.649 105.701 255.257 106.064C255.875 106.416 256.361 106.917 256.713 107.568C257.065 108.208 257.241 108.949 257.241 109.792C257.241 109.845 257.235 109.904 257.225 109.968C257.225 110.021 257.225 110.08 257.225 110.144H249.913V109.296H256.617L256.169 109.632C256.169 109.024 256.035 108.485 255.769 108.016C255.513 107.536 255.161 107.163 254.713 106.896C254.265 106.629 253.747 106.496 253.161 106.496C252.585 106.496 252.067 106.629 251.609 106.896C251.15 107.163 250.793 107.536 250.537 108.016C250.281 108.496 250.153 109.045 250.153 109.664V109.84C250.153 110.48 250.291 111.045 250.569 111.536C250.857 112.016 251.251 112.395 251.753 112.672C252.265 112.939 252.846 113.072 253.497 113.072C254.009 113.072 254.483 112.981 254.921 112.8C255.369 112.619 255.753 112.341 256.073 111.968L256.713 112.704C256.339 113.152 255.87 113.493 255.305 113.728C254.75 113.963 254.137 114.08 253.465 114.08ZM259.553 114V105.6H260.641V107.888L260.529 107.488C260.763 106.848 261.158 106.363 261.713 106.032C262.267 105.691 262.955 105.52 263.777 105.52V106.624C263.734 106.624 263.691 106.624 263.649 106.624C263.606 106.613 263.563 106.608 263.521 106.608C262.635 106.608 261.942 106.88 261.441 107.424C260.939 107.957 260.689 108.72 260.689 109.712V114H259.553ZM270.489 114V112.144L270.441 111.84V108.736C270.441 108.021 270.238 107.472 269.833 107.088C269.438 106.704 268.846 106.512 268.057 106.512C267.513 106.512 266.995 106.603 266.505 106.784C266.014 106.965 265.598 107.205 265.257 107.504L264.745 106.656C265.171 106.293 265.683 106.016 266.281 105.824C266.878 105.621 267.507 105.52 268.169 105.52C269.257 105.52 270.094 105.792 270.681 106.336C271.278 106.869 271.577 107.685 271.577 108.784V114H270.489ZM267.593 114.08C266.963 114.08 266.414 113.979 265.945 113.776C265.486 113.563 265.134 113.275 264.889 112.912C264.643 112.539 264.521 112.112 264.521 111.632C264.521 111.195 264.622 110.8 264.825 110.448C265.038 110.085 265.379 109.797 265.849 109.584C266.329 109.36 266.969 109.248 267.769 109.248H270.665V110.096H267.801C266.99 110.096 266.425 110.24 266.105 110.528C265.795 110.816 265.641 111.173 265.641 111.6C265.641 112.08 265.827 112.464 266.201 112.752C266.574 113.04 267.097 113.184 267.769 113.184C268.409 113.184 268.958 113.04 269.417 112.752C269.886 112.453 270.227 112.027 270.441 111.472L270.697 112.256C270.483 112.811 270.11 113.253 269.577 113.584C269.054 113.915 268.393 114.08 267.593 114.08ZM278.006 114.08C277.206 114.08 276.486 113.899 275.846 113.536C275.217 113.173 274.721 112.672 274.358 112.032C273.995 111.381 273.814 110.635 273.814 109.792C273.814 108.939 273.995 108.192 274.358 107.552C274.721 106.912 275.217 106.416 275.846 106.064C276.486 105.701 277.206 105.52 278.006 105.52C278.742 105.52 279.398 105.685 279.974 106.016C280.561 106.347 281.025 106.832 281.366 107.472C281.718 108.101 281.894 108.875 281.894 109.792C281.894 110.699 281.723 111.472 281.382 112.112C281.041 112.752 280.577 113.243 279.99 113.584C279.414 113.915 278.753 114.08 278.006 114.08ZM278.086 113.072C278.683 113.072 279.217 112.939 279.686 112.672C280.166 112.395 280.539 112.011 280.806 111.52C281.083 111.019 281.222 110.443 281.222 109.792C281.222 109.131 281.083 108.555 280.806 108.064C280.539 107.573 280.166 107.195 279.686 106.928C279.217 106.651 278.683 106.512 278.086 106.512C277.499 106.512 276.971 106.651 276.502 106.928C276.033 107.195 275.659 107.573 275.382 108.064C275.105 108.555 274.966 109.131 274.966 109.792C274.966 110.443 275.105 111.019 275.382 111.52C275.659 112.011 276.033 112.395 276.502 112.672C276.971 112.939 277.499 113.072 278.086 113.072ZM281.254 114V111.472L281.366 109.776L281.206 108.08V102.128H282.342V114H281.254ZM288.93 114.08C288.119 114.08 287.389 113.899 286.738 113.536C286.098 113.163 285.591 112.656 285.218 112.016C284.845 111.365 284.658 110.624 284.658 109.792C284.658 108.949 284.845 108.208 285.218 107.568C285.591 106.928 286.098 106.427 286.738 106.064C287.378 105.701 288.109 105.52 288.93 105.52C289.762 105.52 290.498 105.701 291.138 106.064C291.789 106.427 292.295 106.928 292.658 107.568C293.031 108.208 293.218 108.949 293.218 109.792C293.218 110.624 293.031 111.365 292.658 112.016C292.295 112.656 291.789 113.163 291.138 113.536C290.487 113.899 289.751 114.08 288.93 114.08ZM288.93 113.072C289.538 113.072 290.077 112.939 290.546 112.672C291.015 112.395 291.383 112.011 291.65 111.52C291.927 111.019 292.066 110.443 292.066 109.792C292.066 109.131 291.927 108.555 291.65 108.064C291.383 107.573 291.015 107.195 290.546 106.928C290.077 106.651 289.543 106.512 288.946 106.512C288.349 106.512 287.815 106.651 287.346 106.928C286.877 107.195 286.503 107.573 286.226 108.064C285.949 108.555 285.81 109.131 285.81 109.792C285.81 110.443 285.949 111.019 286.226 111.52C286.503 112.011 286.877 112.395 287.346 112.672C287.815 112.939 288.343 113.072 288.93 113.072Z" fill="#4D4D4D"/>
<path d="M349.94 60.0001L354.14 55.8068C354.265 55.6813 354.336 55.511 354.336 55.3335C354.336 55.1559 354.265 54.9857 354.14 54.8601C354.014 54.7346 353.844 54.6641 353.666 54.6641C353.489 54.6641 353.319 54.7346 353.193 54.8601L349 59.0601L344.806 54.8601C344.681 54.7346 344.511 54.6641 344.333 54.6641C344.156 54.6641 343.985 54.7346 343.86 54.8601C343.734 54.9857 343.664 55.1559 343.664 55.3335C343.664 55.511 343.734 55.6813 343.86 55.8068L348.06 60.0001L343.86 64.1935C343.797 64.2554 343.748 64.3292 343.714 64.4104C343.68 64.4916 343.663 64.5788 343.663 64.6668C343.663 64.7548 343.68 64.8419 343.714 64.9232C343.748 65.0044 343.797 65.0781 343.86 65.1401C343.922 65.2026 343.996 65.2522 344.077 65.2861C344.158 65.3199 344.245 65.3373 344.333 65.3373C344.421 65.3373 344.508 65.3199 344.59 65.2861C344.671 65.2522 344.744 65.2026 344.806 65.1401L349 60.9401L353.193 65.1401C353.255 65.2026 353.329 65.2522 353.41 65.2861C353.491 65.3199 353.578 65.3373 353.666 65.3373C353.754 65.3373 353.842 65.3199 353.923 65.2861C354.004 65.2522 354.078 65.2026 354.14 65.1401C354.202 65.0781 354.252 65.0044 354.286 64.9232C354.32 64.8419 354.337 64.7548 354.337 64.6668C354.337 64.5788 354.32 64.4916 354.286 64.4104C354.252 64.3292 354.202 64.2554 354.14 64.1935L349.94 60.0001Z" fill="#828282"/>
</g>
<defs>
<filter id="filter0_d_0_1" x="7" y="16" width="388" height="150" filterUnits="userSpaceOnUse" color-interpolation-filters="sRGB">
<feFlood flood-opacity="0" result="BackgroundImageFix"/>
<feColorMatrix in="SourceAlpha" type="matrix" values="0 0 0 0 0 0 0 0 0 0 0 0 0 0 0 0 0 0 127 0" result="hardAlpha"/>
<feOffset dy="2"/>
<feGaussianBlur stdDeviation="13"/>
<feColorMatrix type="matrix" values="0 0 0 0 0.319817 0 0 0 0 0.841623 0 0 0 0 0 0 0 0 0.1 0"/>
<feBlend mode="normal" in2="BackgroundImageFix" result="effect1_dropShadow_0_1"/>
<feBlend mode="normal" in="SourceGraphic" in2="effect1_dropShadow_0_1" result="shape"/>
</filter>
</defs>
</svg>
