<?xml version="1.0" encoding="us-ascii" standalone="no"?><svg xmlns="http://www.w3.org/2000/svg" xmlns:xlink="http://www.w3.org/1999/xlink" contentStyleType="text/css" height="989px" preserveAspectRatio="none" style="width:1235px;height:989px;background:#FFFFFF;" version="1.1" viewBox="0 0 1235 989" width="1235px" zoomAndPan="magnify"><defs/><g><!--cluster VerificarDisponibilidad--><g id="cluster_VerificarDisponibilidad"><path d="M713,81 L1209,81 A12.5,12.5 0 0 1 1221.5,93.5 L1221.5,102.2969 L700.5,102.2969 L700.5,93.5 A12.5,12.5 0 0 1 713,81 " fill="#F1F1F1" style="stroke:#F1F1F1;stroke-width:1.0;"/><rect fill="none" height="587" rx="12.5" ry="12.5" style="stroke:#181818;stroke-width:0.5;" width="521" x="700.5" y="81"/><line style="stroke:#181818;stroke-width:0.5;" x1="700.5" x2="1221.5" y1="102.2969" y2="102.2969"/><text fill="#000000" font-family="sans-serif" font-size="14" lengthAdjust="spacing" textLength="163" x="879.5" y="97.9951">VerificarDisponibilidad</text></g><ellipse cx="953.5" cy="134" fill="#222222" rx="10" ry="10" style="stroke:#222222;stroke-width:1.0;"/><g id="VerificarDisponibilidad.RevisarAula"><rect fill="#F1F1F1" height="50" rx="12.5" ry="12.5" style="stroke:#181818;stroke-width:0.5;" width="102" x="902.5" y="236"/><line style="stroke:#181818;stroke-width:0.5;" x1="902.5" x2="1004.5" y1="262.2969" y2="262.2969"/><text fill="#000000" font-family="sans-serif" font-size="14" lengthAdjust="spacing" textLength="82" x="912.5" y="253.9951">RevisarAula</text></g><g id="VerificarDisponibilidad.AulaDisponible"><rect fill="#F1F1F1" height="50" rx="12.5" ry="12.5" style="stroke:#181818;stroke-width:0.5;" width="127" x="733" y="415"/><line style="stroke:#181818;stroke-width:0.5;" x1="733" x2="860" y1="441.2969" y2="441.2969"/><text fill="#000000" font-family="sans-serif" font-size="14" lengthAdjust="spacing" textLength="107" x="743" y="432.9951">AulaDisponible</text></g><g id="VerificarDisponibilidad.ConflictoAula"><rect fill="#F1F1F1" height="50" rx="12.5" ry="12.5" style="stroke:#181818;stroke-width:0.5;" width="116" x="895.5" y="415"/><line style="stroke:#181818;stroke-width:0.5;" x1="895.5" x2="1011.5" y1="441.2969" y2="441.2969"/><text fill="#000000" font-family="sans-serif" font-size="14" lengthAdjust="spacing" textLength="96" x="905.5" y="432.9951">ConflictoAula</text></g><g id="VerificarDisponibilidad.NotificarConflicto"><rect fill="#F1F1F1" height="50" rx="12.5" ry="12.5" style="stroke:#181818;stroke-width:0.5;" width="148" x="947.5" y="594"/><line style="stroke:#181818;stroke-width:0.5;" x1="947.5" x2="1095.5" y1="620.2969" y2="620.2969"/><text fill="#000000" font-family="sans-serif" font-size="14" lengthAdjust="spacing" textLength="128" x="957.5" y="611.9951">NotificarConflicto</text></g><ellipse cx="341.5" cy="16" fill="#222222" rx="10" ry="10" style="stroke:#222222;stroke-width:1.0;"/><g id="InicioGestionAulas"><rect fill="#F1F1F1" height="50" rx="12.5" ry="12.5" style="stroke:#181818;stroke-width:0.5;" width="151" x="266" y="109"/><line style="stroke:#181818;stroke-width:0.5;" x1="266" x2="417" y1="135.2969" y2="135.2969"/><text fill="#000000" font-family="sans-serif" font-size="14" lengthAdjust="spacing" textLength="131" x="276" y="126.9951">InicioGestionAulas</text></g><g id="RecuentoAulas"><rect fill="#F1F1F1" height="50" rx="12.5" ry="12.5" style="stroke:#181818;stroke-width:0.5;" width="126" x="278.5" y="236"/><line style="stroke:#181818;stroke-width:0.5;" x1="278.5" x2="404.5" y1="262.2969" y2="262.2969"/><text fill="#000000" font-family="sans-serif" font-size="14" lengthAdjust="spacing" textLength="106" x="288.5" y="253.9951">RecuentoAulas</text></g><path d="M19.5,363 L663.5,363 A12.5,12.5 0 0 1 676,375.5 L676,389.2969 L7,389.2969 L7,375.5 A12.5,12.5 0 0 1 19.5,363 " fill="#F1F1F1" style="stroke:#F1F1F1;stroke-width:1.0;"/><rect fill="none" height="153.5625" rx="12.5" ry="12.5" style="stroke:#181818;stroke-width:0.5;" width="669" x="7" y="363"/><line style="stroke:#181818;stroke-width:0.5;" x1="7" x2="676" y1="389.2969" y2="389.2969"/><text fill="#000000" font-family="sans-serif" font-size="14" lengthAdjust="spacing" textLength="102" x="290.5" y="380.9951">ClasificarAulas</text><ellipse cx="358" cy="410.2969" fill="#222222" rx="10" ry="10" style="stroke:#222222;stroke-width:1.0;"/><g id="ClasificarAulas.AulasOrdenadores"><rect fill="#F1F1F1" height="50.2656" rx="12.5" ry="12.5" style="stroke:#181818;stroke-width:0.5;" width="172" x="19" y="456.2969"/><line style="stroke:#181818;stroke-width:0.5;" x1="19" x2="191" y1="482.5938" y2="482.5938"/><text fill="#000000" font-family="sans-serif" font-size="14" lengthAdjust="spacing" textLength="129" x="40.5" y="474.292">AulasOrdenadores</text><text fill="#000000" font-family="sans-serif" font-size="12" lengthAdjust="spacing" textLength="152" x="24" y="498.7324">5 aulas con ordenadores</text></g><g id="ClasificarAulas.SalonesActos"><rect fill="#F1F1F1" height="50.2656" rx="12.5" ry="12.5" style="stroke:#181818;stroke-width:0.5;" width="136" x="209" y="456.2969"/><line style="stroke:#181818;stroke-width:0.5;" x1="209" x2="345" y1="482.5938" y2="482.5938"/><text fill="#000000" font-family="sans-serif" font-size="14" lengthAdjust="spacing" textLength="96" x="229" y="474.292">SalonesActos</text><text fill="#000000" font-family="sans-serif" font-size="12" lengthAdjust="spacing" textLength="116" x="214" y="498.7324">2 salones de actos</text></g><g id="ClasificarAulas.AulasLaboratorio"><rect fill="#F1F1F1" height="50.2656" rx="12.5" ry="12.5" style="stroke:#181818;stroke-width:0.5;" width="153" x="363.5" y="456.2969"/><line style="stroke:#181818;stroke-width:0.5;" x1="363.5" x2="516.5" y1="482.5938" y2="482.5938"/><text fill="#000000" font-family="sans-serif" font-size="14" lengthAdjust="spacing" textLength="121" x="379.5" y="474.292">AulasLaboratorio</text><text fill="#000000" font-family="sans-serif" font-size="12" lengthAdjust="spacing" textLength="133" x="368.5" y="498.7324">5 aulas de laboratorio</text></g><g id="ClasificarAulas.AulasNormales"><rect fill="#F1F1F1" height="50.2656" rx="12.5" ry="12.5" style="stroke:#181818;stroke-width:0.5;" width="132" x="535" y="456.2969"/><line style="stroke:#181818;stroke-width:0.5;" x1="535" x2="667" y1="482.5938" y2="482.5938"/><text fill="#000000" font-family="sans-serif" font-size="14" lengthAdjust="spacing" textLength="104" x="549" y="474.292">AulasNormales</text><text fill="#000000" font-family="sans-serif" font-size="12" lengthAdjust="spacing" textLength="112" x="540" y="498.7324">38 aulas restantes</text></g><!--link *start*ClasificarAulas to AulasOrdenadores--><g id="link_*start*ClasificarAulas_AulasOrdenadores"><path d="M348.391,413.9175 C322.712,420.9209 256.2096,439.058 197.0356,455.1962 " fill="none" id="*start*ClasificarAulas-to-AulasOrdenadores" style="stroke:#181818;stroke-width:1.0;"/><polygon fill="#181818" points="191.247,456.7749,200.9823,458.2659,196.0708,455.4593,198.8774,450.5478,191.247,456.7749" style="stroke:#181818;stroke-width:1.0;"/></g><!--link *start*ClasificarAulas to SalonesActos--><g id="link_*start*ClasificarAulas_SalonesActos"><path d="M350.812,417.4202 C340.668,426.0615 326.1444,438.4327 309.9204,452.2535 " fill="none" id="*start*ClasificarAulas-to-SalonesActos" style="stroke:#181818;stroke-width:1.0;"/><polygon fill="#181818" points="305.353,456.1444,314.798,453.353,309.1592,452.902,309.6102,447.2631,305.353,456.1444" style="stroke:#181818;stroke-width:1.0;"/></g><!--link *start*ClasificarAulas to AulasLaboratorio--><g id="link_*start*ClasificarAulas_AulasLaboratorio"><path d="M365.277,417.4202 C375.546,426.0615 390.281,438.4605 406.706,452.2813 " fill="none" id="*start*ClasificarAulas-to-AulasLaboratorio" style="stroke:#181818;stroke-width:1.0;"/><polygon fill="#181818" points="411.297,456.1444,406.9859,447.2892,407.4712,452.9252,401.8352,453.4104,411.297,456.1444" style="stroke:#181818;stroke-width:1.0;"/></g><!--link *start*ClasificarAulas to AulasNormales--><g id="link_*start*ClasificarAulas_AulasNormales"><path d="M367.517,413.6756 C393.2,420.1313 466.03,438.6811 526,456.2969 C528.886,457.1446 526.0862,456.2859 529.0572,457.185 " fill="none" id="*start*ClasificarAulas-to-AulasNormales" style="stroke:#181818;stroke-width:1.0;"/><polygon fill="#181818" points="534.8,458.9229,527.3444,452.4875,530.0143,457.4746,525.0272,460.1445,534.8,458.9229" style="stroke:#181818;stroke-width:1.0;"/></g><g id="AsignarAulas"><rect fill="#F1F1F1" height="50" rx="12.5" ry="12.5" style="stroke:#181818;stroke-width:0.5;" width="110" x="653.5" y="739"/><line style="stroke:#181818;stroke-width:0.5;" x1="653.5" x2="763.5" y1="765.2969" y2="765.2969"/><text fill="#000000" font-family="sans-serif" font-size="14" lengthAdjust="spacing" textLength="90" x="663.5" y="756.9951">AsignarAulas</text></g><g id="AulasAsignadas"><rect fill="#F1F1F1" height="50" rx="12.5" ry="12.5" style="stroke:#181818;stroke-width:0.5;" width="128" x="644.5" y="850"/><line style="stroke:#181818;stroke-width:0.5;" x1="644.5" x2="772.5" y1="876.2969" y2="876.2969"/><text fill="#000000" font-family="sans-serif" font-size="14" lengthAdjust="spacing" textLength="108" x="654.5" y="867.9951">AulasAsignadas</text></g><ellipse cx="708.5" cy="972" fill="none" rx="11" ry="11" style="stroke:#222222;stroke-width:1.0;"/><ellipse cx="708.5" cy="972" fill="#222222" rx="6" ry="6" style="stroke:#222222;stroke-width:1.0;"/><!--link *start* to InicioGestionAulas--><g id="link_*start*_InicioGestionAulas"><path d="M341.5,26.102 C341.5,43.728 341.5,77.04 341.5,102.762 " fill="none" id="*start*-to-InicioGestionAulas" style="stroke:#181818;stroke-width:1.0;"/><polygon fill="#181818" points="341.5,108.762,345.5,99.762,341.5,103.762,337.5,99.762,341.5,108.762" style="stroke:#181818;stroke-width:1.0;"/></g><!--link InicioGestionAulas to RecuentoAulas--><g id="link_InicioGestionAulas_RecuentoAulas"><path d="M341.5,159.101 C341.5,181.236 341.5,207.861 341.5,229.973 " fill="none" id="InicioGestionAulas-to-RecuentoAulas" style="stroke:#181818;stroke-width:1.0;"/><polygon fill="#181818" points="341.5,235.973,345.5,226.973,341.5,230.973,337.5,226.973,341.5,235.973" style="stroke:#181818;stroke-width:1.0;"/><text fill="#000000" font-family="sans-serif" font-size="13" lengthAdjust="spacing" textLength="156" x="342.5" y="202.0669">Iniciar recuento de aulas</text></g><!--link RecuentoAulas to ClasificarAulas--><g id="link_RecuentoAulas_ClasificarAulas"><path d="M341.5,286.24 C341.5,306.028 341.5,329.115 341.5,356.613 " fill="none" id="RecuentoAulas-to-ClasificarAulas" style="stroke:#181818;stroke-width:1.0;"/><polygon fill="#181818" points="341.5,362.613,345.5,353.613,341.5,357.613,337.5,353.613,341.5,362.613" style="stroke:#181818;stroke-width:1.0;"/><text fill="#000000" font-family="sans-serif" font-size="13" lengthAdjust="spacing" textLength="117" x="342.5" y="329.0669">50 aulas contadas</text></g><!--link ClasificarAulas to VerificarDisponibilidad--><g id="link_ClasificarAulas_VerificarDisponibilidad"><path d="M499.271,517.091 C548.2285,540.703 599.679,565.517 639.3085,584.6298 C659.1233,594.1861 675.9828,602.3172 688.0977,608.16 C691.1265,609.6207 693.8587,610.9384 696.2664,612.0996 C697.4703,612.6802 698.5931,613.2217 699.6312,613.7224 C699.8907,613.8476 694.7406,611.3638 694.9895,611.4838 " fill="none" id="ClasificarAulas-to-VerificarDisponibilidad" style="stroke:#181818;stroke-width:1.0;"/><polygon fill="#181818" points="700.3939,614.0902,694.025,606.5777,695.8903,611.9182,690.5498,613.7835,700.3939,614.0902" style="stroke:#181818;stroke-width:1.0;"/><text fill="#000000" font-family="sans-serif" font-size="13" lengthAdjust="spacing" textLength="113" x="591.5" y="560.0669">Aulas clasificadas</text></g><!--link *start*VerificarDisponibilidad to RevisarAula--><g id="link_*start*VerificarDisponibilidad_RevisarAula"><path d="M953.5,144.395 C953.5,163.586 953.5,201.82 953.5,229.669 " fill="none" id="*start*VerificarDisponibilidad-to-RevisarAula" style="stroke:#181818;stroke-width:1.0;"/><polygon fill="#181818" points="953.5,235.669,957.5,226.669,953.5,230.669,949.5,226.669,953.5,235.669" style="stroke:#181818;stroke-width:1.0;"/></g><!--link RevisarAula to AulaDisponible--><g id="link_RevisarAula_AulaDisponible"><path d="M918.877,286.016 C907.34,294.798 894.812,305.235 884.5,316 C854.713,347.097 830.1351,383.729 814.0451,409.709 " fill="none" id="RevisarAula-to-AulaDisponible" style="stroke:#181818;stroke-width:1.0;"/><polygon fill="#181818" points="810.886,414.81,819.0254,409.2646,813.5186,410.5592,812.2241,405.0525,810.886,414.81" style="stroke:#181818;stroke-width:1.0;"/><text fill="#000000" font-family="sans-serif" font-size="13" lengthAdjust="spacing" textLength="59" x="885.5" y="329.0669">Aula libre</text></g><!--link RevisarAula to ConflictoAula--><g id="link_RevisarAula_ConflictoAula"><path d="M953.5,286.24 C953.5,320.041 953.5,374.974 953.5,408.769 " fill="none" id="RevisarAula-to-ConflictoAula" style="stroke:#181818;stroke-width:1.0;"/><polygon fill="#181818" points="953.5,414.769,957.5,405.769,953.5,409.769,949.5,405.769,953.5,414.769" style="stroke:#181818;stroke-width:1.0;"/><text fill="#000000" font-family="sans-serif" font-size="13" lengthAdjust="spacing" textLength="87" x="954.5" y="329.0669">Aula ocupada</text></g><!--link AulaDisponible to VerificarDisponibilidad--><g id="link_AulaDisponible_VerificarDisponibilidad"><path d="M782.377,465.059 C765.335,494.714 736.485,546.963 716.5,594 C712.378,603.702 710.5065,610.5103 710.0945,612.0483 " fill="none" id="AulaDisponible-to-VerificarDisponibilidad" style="stroke:#181818;stroke-width:1.0;"/><polygon fill="#181818" points="708.542,617.844,714.7346,610.1855,709.8358,613.0143,707.007,608.1155,708.542,617.844" style="stroke:#181818;stroke-width:1.0;"/></g><!--link ConflictoAula to NotificarConflicto--><g id="link_ConflictoAula_NotificarConflicto"><path d="M949.34,465.015 C946.042,490.845 944.202,532.451 959.5,564 C965.105,575.559 969.8529,581.7879 979.5919,590.0339 " fill="none" id="ConflictoAula-to-NotificarConflicto" style="stroke:#181818;stroke-width:1.0;"/><polygon fill="#181818" points="984.171,593.911,979.8871,585.0426,980.3551,590.6801,974.7176,591.1481,984.171,593.911" style="stroke:#181818;stroke-width:1.0;"/><text fill="#000000" font-family="sans-serif" font-size="13" lengthAdjust="spacing" textLength="111" x="960.5" y="560.0669">Notificar conflicto</text></g><!--link NotificarConflicto to RevisarAula--><g id="link_NotificarConflicto_RevisarAula"><path d="M1054.43,593.887 C1063.29,585.519 1071.74,575.352 1076.5,564 C1119.38,461.805 1111.92,408.247 1050.5,316 C1039.6,299.636 1027.3852,290.3652 1010.1402,281.9742 " fill="none" id="NotificarConflicto-to-RevisarAula" style="stroke:#181818;stroke-width:1.0;"/><polygon fill="#181818" points="1004.745,279.349,1011.0877,286.8836,1009.241,281.5367,1014.588,279.69,1004.745,279.349" style="stroke:#181818;stroke-width:1.0;"/><text fill="#000000" font-family="sans-serif" font-size="13" lengthAdjust="spacing" textLength="114" x="1104.5" y="444.5669">Resolver conflicto</text></g><!--link VerificarDisponibilidad to AsignarAulas--><g id="link_VerificarDisponibilidad_AsignarAulas"><path d="M708.5,668.5297 C708.5,668.722 708.5,668.9146 708.5,669.1075 C708.5,669.4931 708.5,669.8798 708.5,670.2673 C708.5,671.8175 708.5,673.3823 708.5,674.9585 C708.5,678.1108 708.5,681.3086 708.5,684.5253 C708.5,690.9588 708.5,697.4683 708.5,703.8428 C708.5,716.5919 708.5,722.801 708.5,732.782 " fill="none" id="VerificarDisponibilidad-to-AsignarAulas" style="stroke:#181818;stroke-width:1.0;"/><polygon fill="#181818" points="708.5,738.782,712.5,729.782,708.5,733.782,704.5,729.782,708.5,738.782" style="stroke:#181818;stroke-width:1.0;"/><text fill="#000000" font-family="sans-serif" font-size="13" lengthAdjust="spacing" textLength="110" x="709.5" y="705.0669">Aulas disponibles</text></g><!--link AsignarAulas to AulasAsignadas--><g id="link_AsignarAulas_AulasAsignadas"><path d="M708.5,789.191 C708.5,807.254 708.5,825.83 708.5,843.877 " fill="none" id="AsignarAulas-to-AulasAsignadas" style="stroke:#181818;stroke-width:1.0;"/><polygon fill="#181818" points="708.5,849.877,712.5,840.877,708.5,844.877,704.5,840.877,708.5,849.877" style="stroke:#181818;stroke-width:1.0;"/></g><!--link AulasAsignadas to *end*--><g id="link_AulasAsignadas_*end*"><path d="M708.5,900.4649 C708.5,920.0364 708.5,940.4921 708.5,954.7967 " fill="none" id="AulasAsignadas-to-*end*" style="stroke:#181818;stroke-width:1.0;"/><polygon fill="#181818" points="708.5,960.7967,712.5,951.7967,708.5,955.7967,704.5,951.7967,708.5,960.7967" style="stroke:#181818;stroke-width:1.0;"/></g><!--SRC=[VP9DImCn48Rl-HKv2mLH1F4Wb0eYI8KLl1GFsMGg0p5JahGNyRyxINRJxBPrBxlxvfbtFZARgq-vM3pA5uSQwHb2H7BBlLL1Y5CjenteFRX8HNaeeSfBF-ZIW5JPOKgcs1L_u1QrycFqtNM1fIONbKbvGrGHJj0V8VdP3FLcxSqRSCgGXv0FvsAoFxfBck6Zrxkov20iTQHoq0hiSID34N9dbPgKygfwyYgIHpgMqeXDAMnYP_J4Qat-MzcsfL5XazlxmOMRYCf5ndw5cCygUNs0Bz8JXXqvxD6YKOOz2gF7c6RcbsAci-_WWA6aodhpNxiO3ImC2QN5tiDPVaLkQr6NFHbnqliTbrQ7q1Z-qrt6ftw9NbCiT3tYD5LCor7K77u6ddNDmHq4iWTeO_aUBiqlJoNWbplkVNcRsbKG4w1kGr7vZgIO_IU4h-GF]--></g></svg>