<?xml version="1.0" encoding="UTF-8" standalone="no"?><svg xmlns="http://www.w3.org/2000/svg" xmlns:xlink="http://www.w3.org/1999/xlink" contentStyleType="text/css" height="409px" preserveAspectRatio="none" style="width:777px;height:409px;background:#FFFFFF;" version="1.1" viewBox="0 0 777 409" width="777px" zoomAndPan="magnify"><defs/><g><rect fill="none" height="29.0679" id="_title" style="stroke:none;stroke-width:1.0;" width="114" x="324.5" y="5"/><text fill="#000000" font-family="sans-serif" font-size="14" font-weight="bold" lengthAdjust="spacing" textLength="104" x="329.5" y="24.9659">CRUD Servicios</text><!--MD5=[ed2832396e64b97447d413cd78d52365]
cluster CRUD Servicio--><g id="cluster_CRUD Servicio"><path d="M8.5,46.6699 L106.5,46.6699 A3.75,3.75 0 0 1 109,49.1699 L116,71.7378 L767.5,71.7378 A2.5,2.5 0 0 1 770,74.2378 L770,400.2599 A2.5,2.5 0 0 1 767.5,402.7599 L8.5,402.7599 A2.5,2.5 0 0 1 6,400.2599 L6,49.1699 A2.5,2.5 0 0 1 8.5,46.6699 " fill="none" style="stroke:#000000;stroke-width:1.5;"/><line style="stroke:#000000;stroke-width:1.5;" x1="6" x2="116" y1="71.7378" y2="71.7378"/><text fill="#000000" font-family="sans-serif" font-size="14" font-weight="bold" lengthAdjust="spacing" textLength="97" x="10" y="63.6358">CRUD Servicio</text></g><!--MD5=[2e903384ba6a94be9c906ea46910cc3f]
entity Administrador--><g id="elem_Administrador"><ellipse cx="380" cy="93.1699" fill="#F1F1F1" rx="8" ry="8" style="stroke:#181818;stroke-width:0.5;"/><path d="M380,101.1699 L380,128.1699 M367,109.1699 L393,109.1699 M380,128.1699 L367,143.1699 M380,128.1699 L393,143.1699 " fill="none" style="stroke:#181818;stroke-width:0.5;"/><text fill="#000000" font-family="sans-serif" font-size="14" lengthAdjust="spacing" textLength="97" x="331.5" y="159.6358">Administrador</text></g><g id="elem_Crear Servicio"><ellipse cx="98.0036" cy="243.7566" fill="#F1F1F1" rx="76.3836" ry="17.6767" style="stroke:#181818;stroke-width:0.5;"/><text fill="#000000" font-family="sans-serif" font-size="14" lengthAdjust="spacing" textLength="93" x="48.5036" y="248.4896">Crear Servicio</text></g><g id="elem_Listar Servicio"><ellipse cx="286.0036" cy="243.7566" fill="#F1F1F1" rx="76.3836" ry="17.6767" style="stroke:#181818;stroke-width:0.5;"/><text fill="#000000" font-family="sans-serif" font-size="14" lengthAdjust="spacing" textLength="93" x="236.5036" y="248.4896">Listar Servicio</text></g><g id="elem_Editar Servicio"><ellipse cx="475.0037" cy="243.7606" fill="#F1F1F1" rx="77.4037" ry="17.8807" style="stroke:#181818;stroke-width:0.5;"/><text fill="#000000" font-family="sans-serif" font-size="14" lengthAdjust="spacing" textLength="96" x="424.0037" y="248.4936">Editar Servicio</text></g><g id="elem_Eliminar Servicio"><ellipse cx="670.9993" cy="243.7598" fill="#F1F1F1" rx="83.0993" ry="19.0199" style="stroke:#181818;stroke-width:0.5;"/><text fill="#000000" font-family="sans-serif" font-size="14" lengthAdjust="spacing" textLength="112" x="611.9993" y="248.4927">Eliminar Servicio</text></g><g id="elem_Cancelar Suscripciones"><ellipse cx="653.9969" cy="364.2693" fill="#F1F1F1" rx="100.4469" ry="22.4894" style="stroke:#181818;stroke-width:0.5;"/><text fill="#000000" font-family="sans-serif" font-size="14" lengthAdjust="spacing" textLength="156" x="572.9969" y="369.0023">Cancelar Suscripciones</text></g><!--MD5=[c3c47cad40e5695174e0e50470e08c10]
link Administrador to Crear Servicio--><g id="link_Administrador_Crear Servicio"><path d="M331.2,145.5499 C277.01,168.1399 190.47,204.2199 139.44,225.4899 " fill="none" id="Administrador-to-Crear Servicio" style="stroke:#181818;stroke-width:1.0;"/><polygon fill="#181818" points="135.1,227.2999,144.9464,227.5199,139.7133,225.3718,141.8614,220.1386,135.1,227.2999" style="stroke:#181818;stroke-width:1.0;"/></g><!--MD5=[7a9671ee40fc6bb343fb06ce8f92b8a5]
link Administrador to Listar Servicio--><g id="link_Administrador_Listar Servicio"><path d="M348.96,164.0199 C333.74,183.0599 315.99,205.2499 303.23,221.2199 " fill="none" id="Administrador-to-Listar Servicio" style="stroke:#181818;stroke-width:1.0;"/><polygon fill="#181818" points="300.38,224.7799,309.1237,220.247,303.5017,220.8742,302.8745,215.2522,300.38,224.7799" style="stroke:#181818;stroke-width:1.0;"/></g><!--MD5=[e84ee6232aaaa04a6fe6bb5c48256d2b]
link Administrador to Editar Servicio--><g id="link_Administrador_Editar Servicio"><path d="M411.37,164.0199 C426.75,183.0599 444.69,205.2499 457.59,221.2199 " fill="none" id="Administrador-to-Editar Servicio" style="stroke:#181818;stroke-width:1.0;"/><polygon fill="#181818" points="460.47,224.7899,457.9202,215.2768,457.3257,220.9023,451.7001,220.3078,460.47,224.7899" style="stroke:#181818;stroke-width:1.0;"/></g><!--MD5=[868a0cbea05833b562bab3bcd133c982]
link Administrador to Eliminar Servicio--><g id="link_Administrador_Eliminar Servicio"><path d="M428.71,144.8799 C483.39,166.9699 571.46,202.5499 625.01,224.1799 " fill="none" id="Administrador-to-Eliminar Servicio" style="stroke:#181818;stroke-width:1.0;"/><polygon fill="#181818" points="629.64,226.0499,622.8144,218.9499,625.0095,224.1634,619.796,226.3586,629.64,226.0499" style="stroke:#181818;stroke-width:1.0;"/></g><!--MD5=[246beb3330d6320a25a43b138bc473f7]
link Eliminar Servicio to Cancelar Suscripciones--><g id="link_Eliminar Servicio_Cancelar Suscripciones"><path d="M668.38,263.0199 C665.62,282.2799 661.23,312.8899 658.02,335.2199 " fill="none" id="Eliminar Servicio-to-Cancelar Suscripciones" style="stroke:#181818;stroke-width:1.0;"/><polygon fill="#181818" points="657.33,340.0699,662.5525,331.7197,658.0311,335.1193,654.6315,330.5979,657.33,340.0699" style="stroke:#181818;stroke-width:1.0;"/><text fill="#000000" font-family="sans-serif" font-size="13" lengthAdjust="spacing" textLength="57" x="665" y="307.6769">«include»</text></g><!--MD5=[2f32886e84bbf6ecd595cc13f033b8b9]
@startuml CRUD_Service

title CRUD Servicios

folder "CRUD Servicio" {

    actor Administrador

    Administrador - -> (Crear Servicio)
    Administrador - -> (Listar Servicio)
    Administrador - -> (Editar Servicio)
    Administrador - -> (Eliminar Servicio)
    (Eliminar Servicio) - -> (Cancelar Suscripciones) : <<include>>

}

@enduml

PlantUML version 1.2022.7(Mon Aug 22 19:01:30 CEST 2022)
(GPL source distribution)
Java Runtime: OpenJDK Runtime Environment
JVM: OpenJDK 64-Bit Server VM
Default Encoding: UTF-8
Language: es
Country: ES
--></g></svg>