<?xml version="1.0" encoding="us-ascii" standalone="no"?><svg xmlns="http://www.w3.org/2000/svg" xmlns:xlink="http://www.w3.org/1999/xlink" contentStyleType="text/css" height="137px" preserveAspectRatio="none" style="width:510px;height:137px;background:#FFFFFF;" version="1.1" viewBox="0 0 510 137" width="510px" zoomAndPan="magnify"><defs/><g><text fill="#000000" font-family="sans-serif" font-size="14" font-weight="bold" lengthAdjust="spacing" textLength="186" x="155" y="22.9951">Caso de Uso LOG - FISC</text><!--cluster Log acceso cualquier pantalla--><g id="cluster_Log acceso cualquier pantalla"><rect fill="none" height="81" rx="2.5" ry="2.5" style="stroke:#181818;stroke-width:1.0;" width="259" x="245" y="44.2969"/><text fill="#000000" font-family="sans-serif" font-size="14" font-weight="bold" lengthAdjust="spacing" textLength="243" x="253" y="59.292">Log acceso cualquier pantalla</text></g><g id="elem_log"><ellipse cx="374.6985" cy="94.3205" fill="#F1F1F1" rx="32.6985" ry="14.5236" style="stroke:#181818;stroke-width:0.5;"/><text fill="#000000" font-family="sans-serif" font-size="14" lengthAdjust="spacing" textLength="30" x="359.6709" y="97.1779">LOG</text></g><!--entity user--><g id="elem_user"><ellipse cx="72" cy="64.7969" fill="#F1F1F1" rx="8" ry="8" style="stroke:#181818;stroke-width:0.5;"/><path d="M72,72.7969 L72,99.7969 M59,80.7969 L85,80.7969 M72,99.7969 L59,114.7969 M72,99.7969 L85,114.7969 " fill="none" style="stroke:#181818;stroke-width:0.5;"/><text fill="#000000" font-family="sans-serif" font-size="14" lengthAdjust="spacing" textLength="132" x="6" y="129.292">Usuario_registrado</text></g><!--link user to log--><g id="link_user_log"><path d="M138.204,94.2969 C201.036,94.2969 287.455,94.2969 335.635,94.2969 " fill="none" id="user-to-log" style="stroke:#181818;stroke-width:1.0;"/><polygon fill="#181818" points="341.635,94.2969,332.635,90.2969,336.635,94.2969,332.635,98.2969,341.635,94.2969" style="stroke:#181818;stroke-width:1.0;"/><text fill="#000000" font-family="sans-serif" font-size="13" lengthAdjust="spacing" textLength="59" x="169" y="90.3638">Accede a</text></g><!--SRC=[5Ox12W8n34Jl-OgXz_q13u8ik0WB7iIpX6wjXRBHD3s9_swQoy3mvX4hLXDcRe8juUwnNXTCE5zkCr5DJuC9jEINOIkQeXNPYJYQgEETjSX3KoxDb3S1D_IMb8W6otjsUrWbWsDCRe-TwwUNf7ZpRbmh1tm9VZwBt0PzNSBmLCb4FwBXmpGTHt50EBd8N-Nm1m00]--></g></svg>