<?xml version="1.0" encoding="us-ascii" standalone="no"?><svg xmlns="http://www.w3.org/2000/svg" xmlns:xlink="http://www.w3.org/1999/xlink" contentStyleType="text/css" height="1007px" preserveAspectRatio="none" style="width:405px;height:1007px;background:#FFFFFF;" version="1.1" viewBox="0 0 405 1007" width="405px" zoomAndPan="magnify"><defs/><g><text fill="#000000" font-family="sans-serif" font-size="14" font-weight="bold" lengthAdjust="spacing" textLength="368" x="10" y="22.9951">Detalle Caso de Uso Registo de Usuario - FISC</text><g id="INICIO"><rect fill="#FAF4B4" height="50" rx="12.5" ry="12.5" style="stroke:#C90000;stroke-width:0.5;" width="63" x="169.5" y="44.2969"/><line style="stroke:#C90000;stroke-width:0.5;" x1="169.5" x2="232.5" y1="70.5938" y2="70.5938"/><text fill="#000000" font-family="sans-serif" font-size="14" lengthAdjust="spacing" textLength="43" x="179.5" y="62.292">INICIO</text></g><path d="M22.5,204.2969 L379.5,204.2969 A12.5,12.5 0 0 1 392,216.7969 L392,230.5938 L10,230.5938 L10,216.7969 A12.5,12.5 0 0 1 22.5,204.2969 " fill="#FAF4B4" style="stroke:#FAF4B4;stroke-width:1.0;"/><rect fill="none" height="575.2969" rx="12.5" ry="12.5" style="stroke:#C90000;stroke-width:0.5;" width="382" x="10" y="204.2969"/><line style="stroke:#C90000;stroke-width:0.5;" x1="10" x2="392" y1="230.5938" y2="230.5938"/><text fill="#000000" font-family="sans-serif" font-size="14" lengthAdjust="spacing" textLength="119" x="141.5" y="222.292">registrar_usuario</text><g id="registrar_usuario.1"><rect fill="#FAF4B4" height="50" rx="12.5" ry="12.5" style="stroke:#C90000;stroke-width:0.5;" width="50" x="110" y="298.5938"/><line style="stroke:#C90000;stroke-width:0.5;" x1="110" x2="160" y1="324.8906" y2="324.8906"/><text fill="#000000" font-family="sans-serif" font-size="14" lengthAdjust="spacing" textLength="4" x="133" y="316.5889">&#160;</text></g><g id="registrar_usuario.2"><rect fill="#FAF4B4" height="50" rx="12.5" ry="12.5" style="stroke:#C90000;stroke-width:0.5;" width="50" x="22" y="479.5938"/><line style="stroke:#C90000;stroke-width:0.5;" x1="22" x2="72" y1="505.8906" y2="505.8906"/><text fill="#000000" font-family="sans-serif" font-size="14" lengthAdjust="spacing" textLength="4" x="45" y="497.5889">&#160;</text></g><g id="registrar_usuario.3"><rect fill="#FAF4B4" height="50" rx="12.5" ry="12.5" style="stroke:#C90000;stroke-width:0.5;" width="50" x="113" y="660.5938"/><line style="stroke:#C90000;stroke-width:0.5;" x1="113" x2="163" y1="686.8906" y2="686.8906"/><text fill="#000000" font-family="sans-serif" font-size="14" lengthAdjust="spacing" textLength="4" x="136" y="678.5889">&#160;</text></g><ellipse cx="135" cy="251.5938" fill="#222222" rx="10" ry="10" style="stroke:#222222;stroke-width:1.0;"/><ellipse cx="138" cy="758.5938" fill="none" rx="11" ry="11" style="stroke:#222222;stroke-width:1.0;"/><ellipse cx="138" cy="758.5938" fill="#222222" rx="6" ry="6" style="stroke:#222222;stroke-width:1.0;"/><!--link *start*registrar_usuario to 1--><g id="link_*start*registrar_usuario_1"><path d="M135,261.7448 C135,271.0098 135,279.7348 135,292.3778 " fill="none" id="*start*registrar_usuario-to-1" style="stroke:#008000;stroke-width:1.0;"/><polygon fill="#008000" points="135,298.3778,139,289.3778,135,293.3778,131,289.3778,135,298.3778" style="stroke:#008000;stroke-width:1.0;"/></g><!--link 1 to 2--><g id="link_1_2"><path d="M109.7342,336.5168 C83.4219,348.9338 46,366.5938 46,366.5938 C46,366.5938 46,461.5938 46,461.5938 C46,461.5938 46.0555,463.9245 46.2755,473.1635 " fill="none" id="1-to-2" style="stroke:#008000;stroke-width:1.0;"/><polygon fill="#008000" points="46.4183,479.1618,50.2029,470.0691,46.2993,474.1632,42.2052,470.2595,46.4183,479.1618" style="stroke:#008000;stroke-width:1.0;"/><path d="M51,371.5938 L51,456.5938 L206,456.5938 L206,381.5938 L196,371.5938 L51,371.5938 " fill="#F5F5F5" style="stroke:#181818;stroke-width:0.5;"/><path d="M196,371.5938 L196,381.5938 L206,381.5938 L196,371.5938 " fill="#F5F5F5" style="stroke:#181818;stroke-width:0.5;"/><text fill="#000000" font-family="sans-serif" font-size="13" font-weight="bold" lengthAdjust="spacing" textLength="134" x="57" y="388.6606">Sistema requiere:</text><text fill="#000000" font-family="sans-serif" font-size="13" lengthAdjust="spacing" textLength="60" x="57" y="403.7935">- Nombre</text><text fill="#000000" font-family="sans-serif" font-size="13" lengthAdjust="spacing" textLength="126" x="57" y="418.9263">- Correo Electr&#243;nico</text><text fill="#000000" font-family="sans-serif" font-size="13" lengthAdjust="spacing" textLength="57" x="57" y="434.0591">- Usuario</text><text fill="#000000" font-family="sans-serif" font-size="13" lengthAdjust="spacing" textLength="83" x="57" y="449.1919">- Contrase&#241;a</text></g><!--link 2 to 3--><g id="link_2_3"><path d="M48.2353,529.7708 C50.2449,569.1008 54,642.5938 54,642.5938 C54,642.5938 82.688,656.9374 107.4307,669.309 " fill="none" id="2-to-3" style="stroke:#008000;stroke-width:1.0;"/><polygon fill="#008000" points="112.7972,671.9924,106.5363,664.3897,108.3251,669.7562,102.9585,671.5451,112.7972,671.9924" style="stroke:#008000;stroke-width:1.0;"/><path d="M59,552.5938 L59,637.5938 L206,637.5938 L206,562.5938 L196,552.5938 L59,552.5938 " fill="#F5F5F5" style="stroke:#181818;stroke-width:0.5;"/><path d="M196,552.5938 L196,562.5938 L206,562.5938 L196,552.5938 " fill="#F5F5F5" style="stroke:#181818;stroke-width:0.5;"/><text fill="#000000" font-family="sans-serif" font-size="13" font-weight="bold" lengthAdjust="spacing" textLength="119" x="65" y="569.6606">Usuario aporta:</text><text fill="#000000" font-family="sans-serif" font-size="13" lengthAdjust="spacing" textLength="60" x="65" y="584.7935">- Nombre</text><text fill="#000000" font-family="sans-serif" font-size="13" lengthAdjust="spacing" textLength="126" x="65" y="599.9263">- Correo Electr&#243;nico</text><text fill="#000000" font-family="sans-serif" font-size="13" lengthAdjust="spacing" textLength="57" x="65" y="615.0591">- Usuario</text><text fill="#000000" font-family="sans-serif" font-size="13" lengthAdjust="spacing" textLength="83" x="65" y="630.1919">- Contrase&#241;a</text></g><!--link 3 to 1--><g id="link_3_1"><path d="M163.122,670.1398 C184.239,657.9907 211,642.5938 211,642.5938 C211,642.5938 211,366.5938 211,366.5938 C211,366.5938 187.6664,353.6989 165.5584,341.4809 " fill="none" id="3-to-1" style="stroke:#FF0000;stroke-width:1.0;"/><polygon fill="#FF0000" points="160.307,338.5788,166.2493,346.433,164.6832,340.9972,170.1189,339.4311,160.307,338.5788" style="stroke:#FF0000;stroke-width:1.0;"/><path d="M216,484.5938 L216,524.5938 L383,524.5938 L383,494.5938 L373,484.5938 L216,484.5938 " fill="#F5F5F5" style="stroke:#181818;stroke-width:0.5;"/><path d="M373,484.5938 L373,494.5938 L383,494.5938 L373,484.5938 " fill="#F5F5F5" style="stroke:#181818;stroke-width:0.5;"/><text fill="#000000" font-family="sans-serif" font-size="13" lengthAdjust="spacing" textLength="146" x="222" y="501.6606">[Usuario no disponible]</text><text fill="#000000" font-family="sans-serif" font-size="13" lengthAdjust="spacing" textLength="137" x="222" y="516.7935">[Correo ya existente]</text></g><!--link 3 to *end*registrar_usuario--><g id="link_3_*end*registrar_usuario"><path d="M138,710.6311 C138,723.1829 138,731.8762 138,741.4401 " fill="none" id="3-to-*end*registrar_usuario" style="stroke:#008000;stroke-width:1.0;"/><polygon fill="#008000" points="138,747.4401,142,738.4401,138,742.4401,134,738.4401,138,747.4401" style="stroke:#008000;stroke-width:1.0;"/></g><g id=":abrirPaginaLogin"><rect fill="#FAF4B4" height="50" rx="12.5" ry="12.5" style="stroke:#C90000;stroke-width:0.5;" width="145" x="128.5" y="840.2969"/><line style="stroke:#C90000;stroke-width:0.5;" x1="128.5" x2="273.5" y1="866.5938" y2="866.5938"/><text fill="#000000" font-family="sans-serif" font-size="14" lengthAdjust="spacing" textLength="125" x="138.5" y="858.292">:abrirPaginaLogin</text></g><g id="PAGINA_LOGIN"><rect fill="#FAF4B4" height="50" rx="12.5" ry="12.5" style="stroke:#C90000;stroke-width:0.5;" width="125" x="138.5" y="951.2969"/><line style="stroke:#C90000;stroke-width:0.5;" x1="138.5" x2="263.5" y1="977.5938" y2="977.5938"/><text fill="#000000" font-family="sans-serif" font-size="14" lengthAdjust="spacing" textLength="105" x="148.5" y="969.292">PAGINA_LOGIN</text></g><!--link INICIO to registrar_usuario--><g id="link_INICIO_registrar_usuario"><path d="M201,94.4149 C201,118.4979 201,152.3949 201,197.8309 " fill="none" id="INICIO-to-registrar_usuario" style="stroke:#008000;stroke-width:1.0;"/><polygon fill="#008000" points="201,203.8309,205,194.8309,201,198.8309,197,194.8309,201,203.8309" style="stroke:#008000;stroke-width:1.0;"/><path d="M206,129.2969 L206,169.2969 L349,169.2969 L349,139.2969 L339,129.2969 L206,129.2969 " fill="#F5F5F5" style="stroke:#181818;stroke-width:0.5;"/><path d="M339,129.2969 L339,139.2969 L349,139.2969 L339,129.2969 " fill="#F5F5F5" style="stroke:#181818;stroke-width:0.5;"/><text fill="#000000" font-family="sans-serif" font-size="13" font-weight="bold" lengthAdjust="spacing" textLength="122" x="212" y="146.3638">Usuario solicita:</text><text fill="#000000" font-family="sans-serif" font-size="13" lengthAdjust="spacing" textLength="119" x="212" y="161.4966">- Registrar Usuario</text></g><!--link registrar_usuario to :abrirPaginaLogin--><g id="link_registrar_usuario_:abrirPaginaLogin"><path d="M201,779.5329 C201,803.9219 201,818.9739 201,833.9969 " fill="none" id="registrar_usuario-to-:abrirPaginaLogin" style="stroke:#008000;stroke-width:1.0;"/><polygon fill="#008000" points="201,839.9969,205,830.9969,201,834.9969,197,830.9969,201,839.9969" style="stroke:#008000;stroke-width:1.0;"/></g><!--link :abrirPaginaLogin to PAGINA_LOGIN--><g id="link_:abrirPaginaLogin_PAGINA_LOGIN"><path d="M201,890.4879 C201,908.5507 201,927.127 201,945.1739 " fill="none" id=":abrirPaginaLogin-to-PAGINA_LOGIN" style="stroke:#008000;stroke-width:1.0;"/><polygon fill="#008000" points="201,951.1739,205,942.1739,201,946.1739,197,942.1739,201,951.1739" style="stroke:#008000;stroke-width:1.0;"/></g><!--SRC=[VPB1Qjj048Rl-nH3SXC8uZWzD8T0gYP549oGa9CnPYnDp69vHvrTGqtfGvKyGbuiix8aHtRJbT2o_uncltzs_Sgw6WNNu0C6Wjy6u1iMgwNmnfKPLonm-e8l5ukB664fILgr-7gcm_mnnlT577zQuqjyXjcLTHIsDK7DrJOkZ0asL0JVAM2bSuQUeIHurkcHbjQ7Thb1iGmftEPFcJ4cd-HPVW_fz7GfH6wMNe4qwO8otxJPfe5Z5xTTAMAIT7KyLxQm0I-JHFMqtKh_xNOovCh6cz8tRJgk7atlOYD03oTmqWldXy9uB-WxJMO3yf5geu5ohie1V1n9ygGGj4R5-Rcn9BGp44SA4rulXFfbnYB4S5DH4UJjrTc2-rZdSf_hr9kdjx-eMkyTrCb7hF6_iFPTnPgbw-a1qESuGvZ_e8mZYb3PTUm8PDfnEBqprjVixAAYsIxMRhz5e5-nXouqaSFwlLKzetXrZu_zOz8bBiJA0owjmplMhp57qk27X-iV-UHwVdUlqpi0]--></g></svg>