<?xml version="1.0" encoding="us-ascii" standalone="no"?><svg xmlns="http://www.w3.org/2000/svg" xmlns:xlink="http://www.w3.org/1999/xlink" contentStyleType="text/css" height="1153px" preserveAspectRatio="none" style="width:844px;height:1153px;background:#FFFFFF;" version="1.1" viewBox="0 0 844 1153" width="844px" zoomAndPan="magnify"><defs/><g><ellipse cx="643" cy="16" fill="#222222" rx="10" ry="10" style="stroke:#222222;stroke-width:1.0;"/><g id="Inicial"><rect fill="#F1F1F1" height="50" rx="12.5" ry="12.5" style="stroke:#181818;stroke-width:0.5;" width="61" x="612.5" y="87"/><line style="stroke:#181818;stroke-width:0.5;" x1="612.5" x2="673.5" y1="113.2969" y2="113.2969"/><text fill="#000000" font-family="sans-serif" font-size="14" lengthAdjust="spacing" textLength="41" x="622.5" y="104.9951">Inicial</text></g><path d="M19.5,214 L624.6167,214 A12.5,12.5 0 0 1 637.1167,226.5 L637.1167,240.2969 L7,240.2969 L7,226.5 A12.5,12.5 0 0 1 19.5,214 " fill="#F1F1F1" style="stroke:#F1F1F1;stroke-width:1.0;"/><rect fill="none" height="806.2969" rx="12.5" ry="12.5" style="stroke:#181818;stroke-width:0.5;" width="630.1167" x="7" y="214"/><line style="stroke:#181818;stroke-width:0.5;" x1="7" x2="637.1167" y1="240.2969" y2="240.2969"/><text fill="#000000" font-family="sans-serif" font-size="14" lengthAdjust="spacing" textLength="31" x="306.5584" y="231.9951">FISC</text><ellipse cx="304.2827" cy="261.2969" fill="#222222" rx="10" ry="10" style="stroke:#222222;stroke-width:1.0;"/><g id="FISC.Project_List"><rect fill="#F1F1F1" height="50" rx="12.5" ry="12.5" style="stroke:#181818;stroke-width:0.5;" width="105" x="251.7827" y="308.2969"/><line style="stroke:#181818;stroke-width:0.5;" x1="251.7827" x2="356.7827" y1="334.5938" y2="334.5938"/><text fill="#000000" font-family="sans-serif" font-size="14" lengthAdjust="spacing" textLength="85" x="261.7827" y="326.292">Project_List</text></g><g id="FISC.Project_Dashboard"><rect fill="#F1F1F1" height="50" rx="12.5" ry="12.5" style="stroke:#181818;stroke-width:0.5;" width="156" x="227.2827" y="529.2969"/><line style="stroke:#181818;stroke-width:0.5;" x1="227.2827" x2="383.2827" y1="555.5938" y2="555.5938"/><text fill="#000000" font-family="sans-serif" font-size="14" lengthAdjust="spacing" textLength="136" x="237.2827" y="547.292">Project_Dashboard</text></g><g id="FISC.Configuraci&#243;n_de_Proyecto"><rect fill="#F1F1F1" height="50" rx="12.5" ry="12.5" style="stroke:#181818;stroke-width:0.5;" width="216" x="197.2827" y="426.2969"/><line style="stroke:#181818;stroke-width:0.5;" x1="197.2827" x2="413.2827" y1="452.5938" y2="452.5938"/><text fill="#000000" font-family="sans-serif" font-size="14" lengthAdjust="spacing" textLength="196" x="207.2827" y="444.292">Configuraci&#243;n_de_Proyecto</text></g><g id="FISC.Reporte_Abierto"><rect fill="#F1F1F1" height="50" rx="12.5" ry="12.5" style="stroke:#181818;stroke-width:0.5;" width="142" x="199.2827" y="960.2969"/><line style="stroke:#181818;stroke-width:0.5;" x1="199.2827" x2="341.2827" y1="986.5938" y2="986.5938"/><text fill="#000000" font-family="sans-serif" font-size="14" lengthAdjust="spacing" textLength="122" x="209.2827" y="978.292">Reporte_Abierto</text></g><g id="FISC.Configuraci&#243;n_de_Simulaci&#243;n"><rect fill="#F1F1F1" height="50" rx="12.5" ry="12.5" style="stroke:#181818;stroke-width:0.5;" width="228" x="174.2827" y="662.2969"/><line style="stroke:#181818;stroke-width:0.5;" x1="174.2827" x2="402.2827" y1="688.5938" y2="688.5938"/><text fill="#000000" font-family="sans-serif" font-size="14" lengthAdjust="spacing" textLength="208" x="184.2827" y="680.292">Configuraci&#243;n_de_Simulaci&#243;n</text></g><g id="FISC.Simulando"><rect fill="#F1F1F1" height="50" rx="12.5" ry="12.5" style="stroke:#181818;stroke-width:0.5;" width="94" x="223.2827" y="819.2969"/><line style="stroke:#181818;stroke-width:0.5;" x1="223.2827" x2="317.2827" y1="845.5938" y2="845.5938"/><text fill="#000000" font-family="sans-serif" font-size="14" lengthAdjust="spacing" textLength="74" x="233.2827" y="837.292">Simulando</text></g><!--link *start*FISC to Project_List--><g id="link_*start*FISC_Project_List"><path d="M304.2827,271.4479 C304.2827,280.7129 304.2827,289.4379 304.2827,302.0809 " fill="none" id="*start*FISC-to-Project_List" style="stroke:#181818;stroke-width:1.0;"/><polygon fill="#181818" points="304.2827,308.0809,308.2827,299.0809,304.2827,303.0809,300.2827,299.0809,304.2827,308.0809" style="stroke:#181818;stroke-width:1.0;"/></g><!--link Project_List to Project_Dashboard--><g id="link_Project_List_Project_Dashboard"><path d="M251.7567,343.8599 C167.8307,361.5119 18,404.1489 70.2824,476.2969 C105.8035,525.3149 167.5309,542.9597 221.1709,549.5817 " fill="none" id="Project_List-to-Project_Dashboard" style="stroke:#181818;stroke-width:1.0;"/><polygon fill="#181818" points="227.1257,550.3169,218.6836,545.2443,222.1634,549.7043,217.7034,553.184,227.1257,550.3169" style="stroke:#181818;stroke-width:1.0;"/><text fill="#000000" font-family="sans-serif" font-size="13" lengthAdjust="spacing" textLength="91" x="81.7824" y="448.3638">Abrir Proyecto</text><text fill="#000000" font-family="sans-serif" font-size="13" lengthAdjust="spacing" textLength="116" x="71.2824" y="463.4966">Importar Proyecto</text></g><!--link Project_List to Configuraci?n_de_Proyecto--><g id="link_Project_List_Configuraci&#243;n_de_Proyecto"><path d="M261.6147,358.3809 C255.8347,363.5239 250.7197,369.4949 247.2827,376.2969 C240.8677,388.9909 240.8157,395.6299 247.2827,408.2969 C250.7307,415.0509 251.3345,416.9967 257.1005,422.0967 " fill="none" id="Project_List-to-Configuraci&#243;n_de_Proyecto" style="stroke:#181818;stroke-width:1.0;"/><polygon fill="#181818" points="261.5947,426.0719,257.5034,417.113,257.8495,422.7593,252.2032,423.1053,261.5947,426.0719" style="stroke:#181818;stroke-width:1.0;"/><text fill="#000000" font-family="sans-serif" font-size="13" lengthAdjust="spacing" textLength="96" x="248.2827" y="389.3638">Crear Proyecto</text><text fill="#000000" font-family="sans-serif" font-size="13" lengthAdjust="spacing" textLength="98" x="249.2827" y="404.4966">Editar Proyecto</text></g><!--link Project_List to Project_List--><g id="link_Project_List_Project_List"><path d="M356.8577,325.7469 C367.3207,326.5969 374.7827,329.1129 374.7827,333.2969 C374.7827,337.4809 373.301,339.511 362.838,340.361 " fill="none" id="Project_List-to-Project_List" style="stroke:#181818;stroke-width:1.0;"/><polygon fill="#181818" points="356.8577,340.8469,366.152,344.105,361.8413,340.442,365.5043,336.1313,356.8577,340.8469" style="stroke:#181818;stroke-width:1.0;"/><text fill="#000000" font-family="sans-serif" font-size="13" lengthAdjust="spacing" textLength="100" x="386.7827" y="330.3638">Borrar Proyecto</text><text fill="#000000" font-family="sans-serif" font-size="13" lengthAdjust="spacing" textLength="116" x="380.7827" y="345.4966">Exportar Proyecto</text></g><!--link Configuraci?n_de_Proyecto to Project_Dashboard--><g id="link_Configuraci&#243;n_de_Proyecto_Project_Dashboard"><path d="M305.2827,476.4889 C305.2827,492.3629 305.2827,507.0479 305.2827,522.9519 " fill="none" id="Configuraci&#243;n_de_Proyecto-to-Project_Dashboard" style="stroke:#181818;stroke-width:1.0;"/><polygon fill="#181818" points="305.2827,528.9519,309.2827,519.9519,305.2827,523.9519,301.2827,519.9519,305.2827,528.9519" style="stroke:#181818;stroke-width:1.0;"/><text fill="#000000" font-family="sans-serif" font-size="13" lengthAdjust="spacing" textLength="50" x="306.2827" y="507.3638">Aceptar</text></g><!--link Configuraci?n_de_Proyecto to Project_List--><g id="link_Configuraci&#243;n_de_Proyecto_Project_List"><path d="M337.0477,426.2939 C342.0287,420.9569 346.4577,414.8989 349.2827,408.2969 C354.8777,395.2219 354.9507,389.3409 349.2827,376.2969 C346.4717,369.8279 346.2259,368.2768 341.3139,363.0458 " fill="none" id="Configuraci&#243;n_de_Proyecto-to-Project_List" style="stroke:#181818;stroke-width:1.0;"/><polygon fill="#181818" points="337.2067,358.6719,340.4515,367.9709,340.6293,362.3168,346.2834,362.4946,337.2067,358.6719" style="stroke:#181818;stroke-width:1.0;"/></g><!--link Configuraci?n_de_Proyecto to Configuraci?n_de_Proyecto--><g id="link_Configuraci&#243;n_de_Proyecto_Configuraci&#243;n_de_Proyecto"><path d="M413.7127,443.6529 C424.4517,445.1849 431.2827,447.7329 431.2827,451.2969 C431.2827,454.8609 430.3916,456.5615 419.6526,458.0935 " fill="none" id="Configuraci&#243;n_de_Proyecto-to-Configuraci&#243;n_de_Proyecto" style="stroke:#181818;stroke-width:1.0;"/><polygon fill="#181818" points="413.7127,458.9409,423.1874,461.6297,418.6626,458.2347,422.0576,453.7099,413.7127,458.9409" style="stroke:#181818;stroke-width:1.0;"/><text fill="#000000" font-family="sans-serif" font-size="13" lengthAdjust="spacing" textLength="116" x="437.2827" y="455.8638">Editar Par&#225;metros</text></g><!--link Project_Dashboard to Project_List--><g id="link_Project_Dashboard_Project_List"><path d="M383.4727,540.9459 C452.6417,528.2339 545.9607,506.0909 568.2827,476.2969 C628.1167,396.4329 456.1263,357.4961 363.0533,342.5031 " fill="none" id="Project_Dashboard-to-Project_List" style="stroke:#181818;stroke-width:1.0;"/><polygon fill="#181818" points="357.1297,341.5489,365.379,346.9293,362.0661,342.3441,366.6513,339.0311,357.1297,341.5489" style="stroke:#181818;stroke-width:1.0;"/></g><!--link Project_Dashboard to Reporte_Abierto--><g id="link_Project_Dashboard_Reporte_Abierto"><path d="M239.6927,579.4399 C195.8947,600.2689 146.2824,635.1509 146.2824,686.2969 C146.2824,686.2969 146.2824,686.2969 146.2824,915.7969 C146.2824,944.2032 165.8667,958.9211 193.5727,968.715 " fill="none" id="Project_Dashboard-to-Reporte_Abierto" style="stroke:#181818;stroke-width:1.0;"/><polygon fill="#181818" points="199.2297,970.7147,192.0774,963.9438,194.5156,969.0483,189.4111,971.4864,199.2297,970.7147" style="stroke:#181818;stroke-width:1.0;"/><text fill="#000000" font-family="sans-serif" font-size="13" lengthAdjust="spacing" textLength="95" x="147.2824" y="797.3638">Ver Simulaci&#243;n</text></g><!--link Project_Dashboard to Configuraci?n_de_Simulaci?n--><g id="link_Project_Dashboard_Configuraci&#243;n_de_Simulaci&#243;n"><path d="M250.2637,579.3909 C243.8877,584.4019 238.2557,590.3299 234.2827,597.2969 C223.9337,615.4419 225.1047,625.5319 234.2827,644.2969 C237.5697,651.0189 238.1053,652.9004 243.6853,658.0624 " fill="none" id="Project_Dashboard-to-Configuraci&#243;n_de_Simulaci&#243;n" style="stroke:#181818;stroke-width:1.0;"/><polygon fill="#181818" points="248.0897,662.1369,244.1994,653.0889,244.4194,658.7415,238.7668,658.9614,248.0897,662.1369" style="stroke:#181818;stroke-width:1.0;"/><text fill="#000000" font-family="sans-serif" font-size="13" lengthAdjust="spacing" textLength="113" x="240.2827" y="610.3638">Nueva simulaci&#243;n</text><text fill="#000000" font-family="sans-serif" font-size="13" lengthAdjust="spacing" textLength="109" x="242.2827" y="625.4966">Editar simulaci&#243;n</text><text fill="#000000" font-family="sans-serif" font-size="13" lengthAdjust="spacing" textLength="127" x="235.2827" y="640.6294">Importar simulaci&#243;n</text></g><!--link Project_Dashboard to Project_Dashboard--><g id="link_Project_Dashboard_Project_Dashboard"><path d="M383.6297,545.9799 C394.2267,547.3739 401.2827,550.1469 401.2827,554.2969 C401.2827,558.4469 400.1755,560.4373 389.5785,561.8313 " fill="none" id="Project_Dashboard-to-Project_Dashboard" style="stroke:#181818;stroke-width:1.0;"/><polygon fill="#181818" points="383.6297,562.6139,393.0745,565.4059,388.587,561.9618,392.0311,557.4742,383.6297,562.6139" style="stroke:#181818;stroke-width:1.0;"/><text fill="#000000" font-family="sans-serif" font-size="13" lengthAdjust="spacing" textLength="112" x="413.2827" y="551.3638">Borrar Simulaci&#243;n</text><text fill="#000000" font-family="sans-serif" font-size="13" lengthAdjust="spacing" textLength="128" x="407.2827" y="566.4966">Exportar Simulaci&#243;n</text></g><!--link Configuraci?n_de_Simulaci?n to Project_Dashboard--><g id="link_Configuraci&#243;n_de_Simulaci&#243;n_Project_Dashboard"><path d="M347.0677,662.1009 C353.5147,657.1379 359.2077,651.2489 363.2827,644.2969 C373.8447,626.2759 372.7807,615.9019 363.2827,597.2969 C359.8337,590.5429 359.2296,588.5974 353.4646,583.4974 " fill="none" id="Configuraci&#243;n_de_Simulaci&#243;n-to-Project_Dashboard" style="stroke:#181818;stroke-width:1.0;"/><polygon fill="#181818" points="348.9707,579.5219,353.0612,588.4811,352.7156,582.8348,358.3619,582.4892,348.9707,579.5219" style="stroke:#181818;stroke-width:1.0;"/></g><!--link Configuraci?n_de_Simulaci?n to Configuraci?n_de_Simulaci?n--><g id="link_Configuraci&#243;n_de_Simulaci&#243;n_Configuraci&#243;n_de_Simulaci&#243;n"><path d="M402.3367,680.9289 C413.3217,682.2209 420.2827,684.3439 420.2827,687.2969 C420.2827,690.2499 419.2806,691.672 408.2956,692.964 " fill="none" id="Configuraci&#243;n_de_Simulaci&#243;n-to-Configuraci&#243;n_de_Simulaci&#243;n" style="stroke:#181818;stroke-width:1.0;"/><polygon fill="#181818" points="402.3367,693.6649,411.7423,696.5862,407.3025,693.0808,410.8078,688.641,402.3367,693.6649" style="stroke:#181818;stroke-width:1.0;"/><text fill="#000000" font-family="sans-serif" font-size="13" lengthAdjust="spacing" textLength="116" x="426.2827" y="691.8638">Editar Par&#225;metros</text></g><!--link Configuraci?n_de_Simulaci?n to Simulando--><g id="link_Configuraci&#243;n_de_Simulaci&#243;n_Simulando"><path d="M283.3107,712.5479 C281.1787,723.6999 278.8287,737.1269 277.2827,749.2969 C274.2707,772.9989 272.7441,794.2488 271.7071,813.2828 " fill="none" id="Configuraci&#243;n_de_Simulaci&#243;n-to-Simulando" style="stroke:#181818;stroke-width:1.0;"/><polygon fill="#181818" points="271.3807,819.2739,275.8644,810.5048,271.6527,814.2813,267.8762,810.0696,271.3807,819.2739" style="stroke:#181818;stroke-width:1.0;"/><text fill="#000000" font-family="sans-serif" font-size="13" lengthAdjust="spacing" textLength="110" x="278.2827" y="762.3638">Iniciar Simulaci&#243;n</text></g><!--link Simulando to Configuraci?n_de_Simulaci?n--><g id="link_Simulando_Configuraci&#243;n_de_Simulaci&#243;n"><path d="M317.5807,825.9789 C343.7807,813.6649 374.0537,794.2889 389.2827,766.2969 C401.6167,743.6239 387.1353,728.1956 361.8843,715.1036 " fill="none" id="Simulando-to-Configuraci&#243;n_de_Simulaci&#243;n" style="stroke:#181818;stroke-width:1.0;"/><polygon fill="#181818" points="356.5577,712.3419,362.7065,720.0355,360.9966,714.6433,366.3888,712.9334,356.5577,712.3419" style="stroke:#181818;stroke-width:1.0;"/><text fill="#000000" font-family="sans-serif" font-size="13" lengthAdjust="spacing" textLength="129" x="393.2827" y="762.3638">Cancelar Simulaci&#243;n</text></g><!--link Simulando to Simulando--><g id="link_Simulando_Simulando"><path d="M317.3177,836.6339 C327.7117,837.3539 335.2827,839.9079 335.2827,844.2969 C335.2827,848.6859 333.6974,850.8252 323.3034,851.5452 " fill="none" id="Simulando-to-Simulando" style="stroke:#181818;stroke-width:1.0;"/><polygon fill="#181818" points="317.3177,851.9599,326.5726,855.3284,322.3057,851.6143,326.0198,847.3475,317.3177,851.9599" style="stroke:#181818;stroke-width:1.0;"/><text fill="#000000" font-family="sans-serif" font-size="13" lengthAdjust="spacing" textLength="194" x="341.2827" y="848.8638">Verificar Estado de Simulaci&#243;n</text></g><!--link Simulando to Reporte_Abierto--><g id="link_Simulando_Reporte_Abierto"><path d="M270.2827,869.5089 C270.2827,894.8659 270.2827,928.4686 270.2827,953.896 " fill="none" id="Simulando-to-Reporte_Abierto" style="stroke:#181818;stroke-width:1.0;"/><polygon fill="#181818" points="270.2827,959.896,274.2827,950.896,270.2827,954.896,266.2827,950.896,270.2827,959.896" style="stroke:#181818;stroke-width:1.0;"/><text fill="#000000" font-family="sans-serif" font-size="13" lengthAdjust="spacing" textLength="194" x="271.2827" y="919.3638">Verificar Estado de Simulaci&#243;n</text></g><!--link Reporte_Abierto to Reporte_Abierto--><g id="link_Reporte_Abierto_Reporte_Abierto"><path d="M341.5077,978.153 C352.1107,979.2652 359.2827,981.6465 359.2827,985.2969 C359.2827,988.9473 358.078,990.7026 347.475,991.8148 " fill="none" id="Reporte_Abierto-to-Reporte_Abierto" style="stroke:#181818;stroke-width:1.0;"/><polygon fill="#181818" points="341.5077,992.4408,350.8759,995.48,346.4804,991.9192,350.0413,987.5237,341.5077,992.4408" style="stroke:#181818;stroke-width:1.0;"/><text fill="#000000" font-family="sans-serif" font-size="13" lengthAdjust="spacing" textLength="110" x="365.2827" y="989.8638">Exportar Reporte</text></g><!--link Reporte_Abierto to Project_Dashboard--><g id="link_Reporte_Abierto_Project_Dashboard"><path d="M341.6397,982.4262 C432.0597,978.0747 576.2827,963.6359 576.2827,915.7969 C576.2827,686.2969 576.2827,686.2969 576.2827,686.2969 C576.2827,599.9419 469.3152,571.2327 389.2572,561.2027 " fill="none" id="Reporte_Abierto-to-Project_Dashboard" style="stroke:#181818;stroke-width:1.0;"/><polygon fill="#181818" points="383.3037,560.4569,391.7366,565.5447,388.2649,561.0784,392.7311,557.6067,383.3037,560.4569" style="stroke:#181818;stroke-width:1.0;"/></g><g id="Registrando_Usuario"><rect fill="#F1F1F1" height="50" rx="12.5" ry="12.5" style="stroke:#181818;stroke-width:0.5;" width="165" x="672.5" y="592"/><line style="stroke:#181818;stroke-width:0.5;" x1="672.5" x2="837.5" y1="618.2969" y2="618.2969"/><text fill="#000000" font-family="sans-serif" font-size="14" lengthAdjust="spacing" textLength="145" x="682.5" y="609.9951">Registrando_Usuario</text></g><g id="Log"><rect fill="#F1F1F1" height="50" rx="12.5" ry="12.5" style="stroke:#181818;stroke-width:0.5;" width="50" x="164" y="1097"/><line style="stroke:#181818;stroke-width:0.5;" x1="164" x2="214" y1="1123.2969" y2="1123.2969"/><text fill="#000000" font-family="sans-serif" font-size="14" lengthAdjust="spacing" textLength="26" x="176" y="1114.9951">Log</text></g><ellipse cx="372" cy="1122" fill="none" rx="11" ry="11" style="stroke:#222222;stroke-width:1.0;"/><ellipse cx="372" cy="1122" fill="#222222" rx="6" ry="6" style="stroke:#222222;stroke-width:1.0;"/><!--link *start* to Inicial--><g id="link_*start*_Inicial"><path d="M643,26.01 C643,39.89 643,60.97 643,80.84 " fill="none" id="*start*-to-Inicial" style="stroke:#181818;stroke-width:1.0;"/><polygon fill="#181818" points="643,86.84,647,77.84,643,81.84,639,77.84,643,86.84" style="stroke:#181818;stroke-width:1.0;"/></g><!--link Inicial to FISC--><g id="link_Inicial_FISC"><path d="M619.269,137.14 C610.883,146.18 601.644,156.75 594,167 C582.694,182.16 574.8701,192.8926 563.7221,208.8576 " fill="none" id="Inicial-to-FISC" style="stroke:#181818;stroke-width:1.0;"/><polygon fill="#181818" points="560.287,213.777,568.7192,208.688,563.1496,209.6775,562.16,204.1079,560.287,213.777" style="stroke:#181818;stroke-width:1.0;"/><text fill="#000000" font-family="sans-serif" font-size="13" lengthAdjust="spacing" textLength="34" x="595" y="180.0669">Login</text></g><!--link Inicial to Registrando_Usuario--><g id="link_Inicial_Registrando_Usuario"><path d="M638.897,137.26 C637.318,151.11 636.606,168.703 640,184 C643.187,198.364 649.074,200.135 654,214 C703.63,353.684 737.6795,522.9709 749.5195,586.0739 " fill="none" id="Inicial-to-Registrando_Usuario" style="stroke:#181818;stroke-width:1.0;"/><polygon fill="#181818" points="750.626,591.971,752.8977,582.3877,749.7039,587.0568,745.0349,583.863,750.626,591.971" style="stroke:#181818;stroke-width:1.0;"/><text fill="#000000" font-family="sans-serif" font-size="13" lengthAdjust="spacing" textLength="87" x="641" y="180.0669">Crear Usuario</text></g><!--link Registrando_Usuario to Inicial--><g id="link_Registrando_Usuario_Inicial"><path d="M761.162,591.847 C777.883,520.677 817.418,307.936 733,167 C719.891,145.12 699.7697,133.2611 679.1817,124.9711 " fill="none" id="Registrando_Usuario-to-Inicial" style="stroke:#181818;stroke-width:1.0;"/><polygon fill="#181818" points="673.616,122.73,680.4705,129.8022,678.2541,124.5976,683.4587,122.3812,673.616,122.73" style="stroke:#181818;stroke-width:1.0;"/></g><!--link Log to Log--><g id="link_Log_Log"><path d="M214.278,1111.5103 C231.773,1108.3315 249,1111.8281 249,1122 C249,1132.1719 237.6763,1136.7411 220.1813,1133.5623 " fill="none" id="Log-to-Log" style="stroke:#181818;stroke-width:1.0;"/><polygon fill="#181818" points="214.278,1132.4897,222.4179,1138.0342,219.1975,1133.3836,223.8481,1130.1631,214.278,1132.4897" style="stroke:#181818;stroke-width:1.0;"/><text fill="#000000" font-family="sans-serif" font-size="13" lengthAdjust="spacing" textLength="82" x="255" y="1126.5669">Exportar Log</text></g><!--link FISC to Log--><g id="link_FISC_Log"><path d="M215.675,1020.118 C207.225,1052.0722 201.6677,1073.0903 196.9257,1091.0247 " fill="none" id="FISC-to-Log" style="stroke:#181818;stroke-width:1.0;"/><polygon fill="#181818" points="195.392,1096.8254,201.5597,1089.1469,196.6701,1091.9915,193.8255,1087.1019,195.392,1096.8254" style="stroke:#181818;stroke-width:1.0;"/><text fill="#000000" font-family="sans-serif" font-size="13" lengthAdjust="spacing" textLength="57" x="207" y="1063.0669">Abrir Log</text></g><!--link FISC to *end*--><g id="link_FISC_*end*"><path d="M361.972,1020.118 C366.138,1062.029 368.8325,1089.1349 370.4015,1104.9184 " fill="none" id="FISC-to-*end*" style="stroke:#181818;stroke-width:1.0;"/><polygon fill="#181818" points="370.995,1110.889,374.0851,1101.5375,370.5004,1105.9135,366.1243,1102.3288,370.995,1110.889" style="stroke:#181818;stroke-width:1.0;"/><text fill="#000000" font-family="sans-serif" font-size="13" lengthAdjust="spacing" textLength="50" x="367" y="1063.0669">Log Out</text></g><!--SRC=[ZLHBJiCm4Dtx55uZvG9P89LGf4eLe4QmAIXoasanQkrguY0GuZ2SWIFqOappTL8xxIv-C-_DDxEyUkL1SCrdIgPIR1chFtYG4NetYoCUyhdUIDMtB60ZSuD2PJfvoWk1KfDZX22Grs_6N4ubkuqM6s6W2lFDbdKkZwZV8JN9dCYCsQ-AtI2t8dzRQO5Po2Shb7WqV951ynSrs-qr6j5X3fr8gxNS52XIUVXJIGP9uznKOWbECtb6paP2VgCH1mgVmvIOFmD_fIdiIUHYQjd4CUVWJ2UQmWKUVdTWKEVTJDgy734zFWiuTW6IoKe27lMV0NaiTyMs2kxZdQPeaK9-Ny27u7a7TIFhW-rYsB0hQE3kVptNk1-f6QrT21jDsJFWIqXdMk4Os0MY5K1_QbZ_dODYMhjlOtevH4Abi1re32IiYBG3SYrJyf_cHf131cDCrmwDyjc0uLd5TeornKqxdTaFOtGYgzpemnAY5oklMyaiRTMfwWo4q-4hZon_ACm_]--></g></svg>