<?xml version="1.0" encoding="us-ascii" standalone="no"?><svg xmlns="http://www.w3.org/2000/svg" xmlns:xlink="http://www.w3.org/1999/xlink" contentStyleType="text/css" height="1301px" preserveAspectRatio="none" style="width:619px;height:1301px;background:#FFFFFF;" version="1.1" viewBox="0 0 619 1301" width="619px" zoomAndPan="magnify"><defs/><g><text fill="#000000" font-family="sans-serif" font-size="14" font-weight="bold" lengthAdjust="spacing" textLength="353" x="131.5" y="32.9951">Diagrama de Contexto de la Aplicaci&#243;n FISC</text><ellipse cx="239.875" cy="57.2969" fill="#222222" rx="10" ry="10" style="stroke:#222222;stroke-width:1.0;"/><rect fill="#F1F1F1" height="33.9688" rx="12.5" ry="12.5" style="stroke:#181818;stroke-width:0.5;" width="120" x="179.875" y="87.2969"/><text fill="#000000" font-family="sans-serif" font-size="12" lengthAdjust="spacing" textLength="100" x="189.875" y="108.4355">Iniciar Aplicaci&#243;n</text><rect fill="#F1F1F1" height="61.9063" rx="12.5" ry="12.5" style="stroke:#181818;stroke-width:0.5;" width="152" x="163.875" y="141.2656"/><text fill="#000000" font-family="sans-serif" font-size="12" lengthAdjust="spacing" textLength="132" x="173.875" y="162.4043">Crear Nuevo Proyecto</text><text fill="#000000" font-family="sans-serif" font-size="12" lengthAdjust="spacing" textLength="100" x="173.875" y="176.373">o Abrir Existente</text><text fill="#000000" font-family="sans-serif" font-size="12" lengthAdjust="spacing" textLength="120" x="173.875" y="190.3418">o Importar Proyecto</text><polygon fill="#F1F1F1" points="189.875,223.1719,289.875,223.1719,301.875,235.1719,289.875,247.1719,189.875,247.1719,177.875,235.1719,189.875,223.1719" style="stroke:#181818;stroke-width:0.5;"/><text fill="#000000" font-family="sans-serif" font-size="11" lengthAdjust="spacing" textLength="100" x="189.875" y="238.98">Importar Proyecto</text><text fill="#000000" font-family="sans-serif" font-size="11" lengthAdjust="spacing" textLength="9" x="168.875" y="232.5776">si</text><text fill="#000000" font-family="sans-serif" font-size="11" lengthAdjust="spacing" textLength="14" x="301.875" y="232.5776">no</text><rect fill="#F1F1F1" height="33.9688" rx="12.5" ry="12.5" style="stroke:#181818;stroke-width:0.5;" width="148" x="11" y="257.1719"/><text fill="#000000" font-family="sans-serif" font-size="12" lengthAdjust="spacing" textLength="128" x="21" y="278.3105">Seleccionar Proyecto</text><polygon fill="#F1F1F1" points="349.75,257.1719,439.75,257.1719,451.75,269.1719,439.75,281.1719,349.75,281.1719,337.75,269.1719,349.75,257.1719" style="stroke:#181818;stroke-width:0.5;"/><text fill="#000000" font-family="sans-serif" font-size="11" lengthAdjust="spacing" textLength="90" x="349.75" y="272.98">Nuevo Proyecto</text><text fill="#000000" font-family="sans-serif" font-size="11" lengthAdjust="spacing" textLength="9" x="328.75" y="266.5776">s&#237;</text><text fill="#000000" font-family="sans-serif" font-size="11" lengthAdjust="spacing" textLength="14" x="451.75" y="266.5776">no</text><rect fill="#F1F1F1" height="33.9688" rx="12.5" ry="12.5" style="stroke:#181818;stroke-width:0.5;" width="181" x="194.5" y="291.1719"/><text fill="#000000" font-family="sans-serif" font-size="12" lengthAdjust="spacing" textLength="161" x="204.5" y="312.3105">Configurar Nuevo Proyecto</text><rect fill="#F1F1F1" height="33.9688" rx="12.5" ry="12.5" style="stroke:#181818;stroke-width:0.5;" width="150" x="210" y="345.1406"/><text fill="#000000" font-family="sans-serif" font-size="12" lengthAdjust="spacing" textLength="130" x="220" y="366.2793">Seleccionar Tipolog&#237;a</text><rect fill="#F1F1F1" height="33.9688" rx="12.5" ry="12.5" style="stroke:#181818;stroke-width:0.5;" width="133" x="218.5" y="399.1094"/><text fill="#000000" font-family="sans-serif" font-size="12" lengthAdjust="spacing" textLength="113" x="228.5" y="420.248">Configurar Material</text><rect fill="#F1F1F1" height="33.9688" rx="12.5" ry="12.5" style="stroke:#181818;stroke-width:0.5;" width="192" x="189" y="453.0781"/><text fill="#000000" font-family="sans-serif" font-size="12" lengthAdjust="spacing" textLength="172" x="199" y="474.2168">Configurar Agresi&#243;n T&#233;rmica</text><rect fill="#F1F1F1" height="33.9688" rx="12.5" ry="12.5" style="stroke:#181818;stroke-width:0.5;" width="207" x="401" y="291.1719"/><text fill="#000000" font-family="sans-serif" font-size="12" lengthAdjust="spacing" textLength="187" x="411" y="312.3105">Seleccionar Proyecto Existente</text><polygon fill="#F1F1F1" points="394.75,493.0469,406.75,505.0469,394.75,517.0469,382.75,505.0469,394.75,493.0469" style="stroke:#181818;stroke-width:0.5;"/><polygon fill="#F1F1F1" points="239.875,523.0469,251.875,535.0469,239.875,547.0469,227.875,535.0469,239.875,523.0469" style="stroke:#181818;stroke-width:0.5;"/><rect fill="#F1F1F1" height="33.9688" rx="12.5" ry="12.5" style="stroke:#181818;stroke-width:0.5;" width="176" x="151.875" y="567.0469"/><text fill="#000000" font-family="sans-serif" font-size="12" lengthAdjust="spacing" textLength="156" x="161.875" y="588.1855">Revisar y Confirmar Datos</text><rect fill="#F1F1F1" height="33.9688" rx="12.5" ry="12.5" style="stroke:#181818;stroke-width:0.5;" width="123" x="178.375" y="621.0156"/><text fill="#000000" font-family="sans-serif" font-size="12" lengthAdjust="spacing" textLength="103" x="188.375" y="642.1543">Iniciar Simulaci&#243;n</text><rect fill="#F1F1F1" height="33.9688" rx="12.5" ry="12.5" style="stroke:#181818;stroke-width:0.5;" width="115" x="182.375" y="723.3867"/><text fill="#000000" font-family="sans-serif" font-size="12" lengthAdjust="spacing" textLength="95" x="192.375" y="744.5254">Mostrar Errores</text><rect fill="#F1F1F1" height="33.9688" rx="12.5" ry="12.5" style="stroke:#181818;stroke-width:0.5;" width="109" x="185.375" y="777.3555"/><text fill="#000000" font-family="sans-serif" font-size="12" lengthAdjust="spacing" textLength="89" x="195.375" y="798.4941">Corregir Datos</text><rect fill="#F1F1F1" height="33.9688" rx="12.5" ry="12.5" style="stroke:#181818;stroke-width:0.5;" width="176" x="151.875" y="846.3242"/><text fill="#000000" font-family="sans-serif" font-size="12" lengthAdjust="spacing" textLength="156" x="161.875" y="867.4629">Revisar y Confirmar Datos</text><rect fill="#F1F1F1" height="33.9688" rx="12.5" ry="12.5" style="stroke:#181818;stroke-width:0.5;" width="123" x="178.375" y="900.293"/><text fill="#000000" font-family="sans-serif" font-size="12" lengthAdjust="spacing" textLength="103" x="188.375" y="921.4316">Iniciar Simulaci&#243;n</text><polygon fill="#F1F1F1" points="200.875,674.9844,278.875,674.9844,290.875,686.9844,278.875,698.9844,200.875,698.9844,188.875,686.9844,200.875,674.9844" style="stroke:#181818;stroke-width:0.5;"/><text fill="#000000" font-family="sans-serif" font-size="11" lengthAdjust="spacing" textLength="9" x="243.875" y="709.1948">s&#237;</text><text fill="#000000" font-family="sans-serif" font-size="11" lengthAdjust="spacing" textLength="78" x="200.875" y="690.7925">&#191;Hay Errores?</text><text fill="#000000" font-family="sans-serif" font-size="11" lengthAdjust="spacing" textLength="14" x="290.875" y="684.3901">no</text><polygon fill="#F1F1F1" points="239.875,954.2617,251.875,966.2617,239.875,978.2617,227.875,966.2617,239.875,954.2617" style="stroke:#181818;stroke-width:0.5;"/><rect fill="#F1F1F1" height="33.9688" rx="12.5" ry="12.5" style="stroke:#181818;stroke-width:0.5;" width="139" x="170.375" y="998.2617"/><text fill="#000000" font-family="sans-serif" font-size="12" lengthAdjust="spacing" textLength="119" x="180.375" y="1019.4004">Generar Resultados</text><rect fill="#F1F1F1" height="33.9688" rx="12.5" ry="12.5" style="stroke:#181818;stroke-width:0.5;" width="181" x="149.375" y="1052.2305"/><text fill="#000000" font-family="sans-serif" font-size="12" lengthAdjust="spacing" textLength="161" x="159.375" y="1073.3691">Visualizar Gr&#225;ficos y Datos</text><rect fill="#F1F1F1" height="33.9688" rx="12.5" ry="12.5" style="stroke:#181818;stroke-width:0.5;" width="121" x="179.375" y="1106.1992"/><text fill="#000000" font-family="sans-serif" font-size="12" lengthAdjust="spacing" textLength="101" x="189.375" y="1127.3379">Generar Reporte</text><rect fill="#F1F1F1" height="33.9688" rx="12.5" ry="12.5" style="stroke:#181818;stroke-width:0.5;" width="162" x="158.875" y="1160.168"/><text fill="#000000" font-family="sans-serif" font-size="12" lengthAdjust="spacing" textLength="142" x="168.875" y="1181.3066">Exportar Datos/Reporte</text><rect fill="#F1F1F1" height="33.9688" rx="12.5" ry="12.5" style="stroke:#181818;stroke-width:0.5;" width="125" x="177.375" y="1214.1367"/><text fill="#000000" font-family="sans-serif" font-size="12" lengthAdjust="spacing" textLength="105" x="187.375" y="1235.2754">Guardar Proyecto</text><ellipse cx="239.875" cy="1279.1055" fill="none" rx="11" ry="11" style="stroke:#222222;stroke-width:1.0;"/><ellipse cx="239.875" cy="1279.1055" fill="#222222" rx="6" ry="6" style="stroke:#222222;stroke-width:1.0;"/><line style="stroke:#181818;stroke-width:1.0;" x1="239.875" x2="239.875" y1="67.2969" y2="87.2969"/><polygon fill="#181818" points="235.875,77.2969,239.875,87.2969,243.875,77.2969,239.875,81.2969" style="stroke:#181818;stroke-width:1.0;"/><line style="stroke:#181818;stroke-width:1.0;" x1="239.875" x2="239.875" y1="121.2656" y2="141.2656"/><polygon fill="#181818" points="235.875,131.2656,239.875,141.2656,243.875,131.2656,239.875,135.2656" style="stroke:#181818;stroke-width:1.0;"/><line style="stroke:#181818;stroke-width:1.0;" x1="285" x2="285" y1="325.1406" y2="345.1406"/><polygon fill="#181818" points="281,335.1406,285,345.1406,289,335.1406,285,339.1406" style="stroke:#181818;stroke-width:1.0;"/><line style="stroke:#181818;stroke-width:1.0;" x1="285" x2="285" y1="379.1094" y2="399.1094"/><polygon fill="#181818" points="281,389.1094,285,399.1094,289,389.1094,285,393.1094" style="stroke:#181818;stroke-width:1.0;"/><line style="stroke:#181818;stroke-width:1.0;" x1="285" x2="285" y1="433.0781" y2="453.0781"/><polygon fill="#181818" points="281,443.0781,285,453.0781,289,443.0781,285,447.0781" style="stroke:#181818;stroke-width:1.0;"/><line style="stroke:#181818;stroke-width:1.0;" x1="337.75" x2="285" y1="269.1719" y2="269.1719"/><line style="stroke:#181818;stroke-width:1.0;" x1="285" x2="285" y1="269.1719" y2="291.1719"/><polygon fill="#181818" points="281,281.1719,285,291.1719,289,281.1719,285,285.1719" style="stroke:#181818;stroke-width:1.0;"/><line style="stroke:#181818;stroke-width:1.0;" x1="451.75" x2="504.5" y1="269.1719" y2="269.1719"/><line style="stroke:#181818;stroke-width:1.0;" x1="504.5" x2="504.5" y1="269.1719" y2="291.1719"/><polygon fill="#181818" points="500.5,281.1719,504.5,291.1719,508.5,281.1719,504.5,285.1719" style="stroke:#181818;stroke-width:1.0;"/><line style="stroke:#181818;stroke-width:1.0;" x1="285" x2="285" y1="487.0469" y2="505.0469"/><line style="stroke:#181818;stroke-width:1.0;" x1="285" x2="382.75" y1="505.0469" y2="505.0469"/><polygon fill="#181818" points="372.75,501.0469,382.75,505.0469,372.75,509.0469,376.75,505.0469" style="stroke:#181818;stroke-width:1.0;"/><line style="stroke:#181818;stroke-width:1.0;" x1="504.5" x2="504.5" y1="325.1406" y2="505.0469"/><line style="stroke:#181818;stroke-width:1.0;" x1="504.5" x2="406.75" y1="505.0469" y2="505.0469"/><polygon fill="#181818" points="416.75,501.0469,406.75,505.0469,416.75,509.0469,412.75,505.0469" style="stroke:#181818;stroke-width:1.0;"/><line style="stroke:#181818;stroke-width:1.0;" x1="177.875" x2="85" y1="235.1719" y2="235.1719"/><line style="stroke:#181818;stroke-width:1.0;" x1="85" x2="85" y1="235.1719" y2="257.1719"/><polygon fill="#181818" points="81,247.1719,85,257.1719,89,247.1719,85,251.1719" style="stroke:#181818;stroke-width:1.0;"/><line style="stroke:#181818;stroke-width:1.0;" x1="301.875" x2="394.75" y1="235.1719" y2="235.1719"/><line style="stroke:#181818;stroke-width:1.0;" x1="394.75" x2="394.75" y1="235.1719" y2="257.1719"/><polygon fill="#181818" points="390.75,247.1719,394.75,257.1719,398.75,247.1719,394.75,251.1719" style="stroke:#181818;stroke-width:1.0;"/><line style="stroke:#181818;stroke-width:1.0;" x1="85" x2="85" y1="291.1406" y2="535.0469"/><line style="stroke:#181818;stroke-width:1.0;" x1="85" x2="227.875" y1="535.0469" y2="535.0469"/><polygon fill="#181818" points="217.875,531.0469,227.875,535.0469,217.875,539.0469,221.875,535.0469" style="stroke:#181818;stroke-width:1.0;"/><line style="stroke:#181818;stroke-width:1.0;" x1="394.75" x2="394.75" y1="517.0469" y2="535.0469"/><line style="stroke:#181818;stroke-width:1.0;" x1="394.75" x2="251.875" y1="535.0469" y2="535.0469"/><polygon fill="#181818" points="261.875,531.0469,251.875,535.0469,261.875,539.0469,257.875,535.0469" style="stroke:#181818;stroke-width:1.0;"/><line style="stroke:#181818;stroke-width:1.0;" x1="239.875" x2="239.875" y1="203.1719" y2="223.1719"/><polygon fill="#181818" points="235.875,213.1719,239.875,223.1719,243.875,213.1719,239.875,217.1719" style="stroke:#181818;stroke-width:1.0;"/><line style="stroke:#181818;stroke-width:1.0;" x1="239.875" x2="239.875" y1="547.0469" y2="567.0469"/><polygon fill="#181818" points="235.875,557.0469,239.875,567.0469,243.875,557.0469,239.875,561.0469" style="stroke:#181818;stroke-width:1.0;"/><line style="stroke:#181818;stroke-width:1.0;" x1="239.875" x2="239.875" y1="601.0156" y2="621.0156"/><polygon fill="#181818" points="235.875,611.0156,239.875,621.0156,243.875,611.0156,239.875,615.0156" style="stroke:#181818;stroke-width:1.0;"/><line style="stroke:#181818;stroke-width:1.0;" x1="239.875" x2="239.875" y1="757.3555" y2="777.3555"/><polygon fill="#181818" points="235.875,767.3555,239.875,777.3555,243.875,767.3555,239.875,771.3555" style="stroke:#181818;stroke-width:1.0;"/><line style="stroke:#181818;stroke-width:1.0;" x1="239.875" x2="239.875" y1="811.3242" y2="846.3242"/><polygon fill="#181818" points="235.875,836.3242,239.875,846.3242,243.875,836.3242,239.875,840.3242" style="stroke:#181818;stroke-width:1.0;"/><line style="stroke:#181818;stroke-width:1.0;" x1="239.875" x2="239.875" y1="880.293" y2="900.293"/><polygon fill="#181818" points="235.875,890.293,239.875,900.293,243.875,890.293,239.875,894.293" style="stroke:#181818;stroke-width:1.0;"/><line style="stroke:#181818;stroke-width:1.0;" x1="239.875" x2="239.875" y1="698.9844" y2="723.3867"/><polygon fill="#181818" points="235.875,713.3867,239.875,723.3867,243.875,713.3867,239.875,717.3867" style="stroke:#181818;stroke-width:1.0;"/><line style="stroke:#181818;stroke-width:1.0;" x1="290.875" x2="337.875" y1="686.9844" y2="686.9844"/><polygon fill="#181818" points="333.875,818.8242,337.875,828.8242,341.875,818.8242,337.875,822.8242" style="stroke:#181818;stroke-width:1.0;"/><line style="stroke:#181818;stroke-width:1.0;" x1="337.875" x2="337.875" y1="686.9844" y2="966.2617"/><line style="stroke:#181818;stroke-width:1.0;" x1="337.875" x2="251.875" y1="966.2617" y2="966.2617"/><polygon fill="#181818" points="261.875,962.2617,251.875,966.2617,261.875,970.2617,257.875,966.2617" style="stroke:#181818;stroke-width:1.0;"/><line style="stroke:#181818;stroke-width:1.0;" x1="239.875" x2="239.875" y1="934.2617" y2="954.2617"/><polygon fill="#181818" points="235.875,944.2617,239.875,954.2617,243.875,944.2617,239.875,948.2617" style="stroke:#181818;stroke-width:1.0;"/><line style="stroke:#181818;stroke-width:1.0;" x1="239.875" x2="239.875" y1="654.9844" y2="674.9844"/><polygon fill="#181818" points="235.875,664.9844,239.875,674.9844,243.875,664.9844,239.875,668.9844" style="stroke:#181818;stroke-width:1.0;"/><line style="stroke:#181818;stroke-width:1.0;" x1="239.875" x2="239.875" y1="978.2617" y2="998.2617"/><polygon fill="#181818" points="235.875,988.2617,239.875,998.2617,243.875,988.2617,239.875,992.2617" style="stroke:#181818;stroke-width:1.0;"/><line style="stroke:#181818;stroke-width:1.0;" x1="239.875" x2="239.875" y1="1032.2305" y2="1052.2305"/><polygon fill="#181818" points="235.875,1042.2305,239.875,1052.2305,243.875,1042.2305,239.875,1046.2305" style="stroke:#181818;stroke-width:1.0;"/><line style="stroke:#181818;stroke-width:1.0;" x1="239.875" x2="239.875" y1="1086.1992" y2="1106.1992"/><polygon fill="#181818" points="235.875,1096.1992,239.875,1106.1992,243.875,1096.1992,239.875,1100.1992" style="stroke:#181818;stroke-width:1.0;"/><line style="stroke:#181818;stroke-width:1.0;" x1="239.875" x2="239.875" y1="1140.168" y2="1160.168"/><polygon fill="#181818" points="235.875,1150.168,239.875,1160.168,243.875,1150.168,239.875,1154.168" style="stroke:#181818;stroke-width:1.0;"/><line style="stroke:#181818;stroke-width:1.0;" x1="239.875" x2="239.875" y1="1194.1367" y2="1214.1367"/><polygon fill="#181818" points="235.875,1204.1367,239.875,1214.1367,243.875,1204.1367,239.875,1208.1367" style="stroke:#181818;stroke-width:1.0;"/><line style="stroke:#181818;stroke-width:1.0;" x1="239.875" x2="239.875" y1="1248.1055" y2="1268.1055"/><polygon fill="#181818" points="235.875,1258.1055,239.875,1268.1055,243.875,1258.1055,239.875,1262.1055" style="stroke:#181818;stroke-width:1.0;"/><!--SRC=[XL8zRy903DtlLzm8K_SmL0WePQ2g07NgSasSrDBb7Fak2FflEdPWwW-erFonNZu8IKFLcopxFVlvdHqw3NAEAc6LAXc1d95nS71Knbh9QQOnL24MdqRUhROp8QnJx8G8LWP3LDn5J4GmO_2vXnps91-PZX0wUZOafo-CB1S7j0xyW3ArIZDYtwp5JOJ0M8u6-R5qhs3aoE9OIF-2BMW8GoJJ8uEs84U6Qb3PgI-ZRLESQaZLo-yROvBpGBLVfZjdXnbfIegJceZVnBLomAZqi39D66nbtgxuuDGRLMFwMlzSwc9OGpCHng8AHHrNr0tiqNhQKLQZEVNnN3coZQ3pLsqnpVNvgrgNlh_krL4kcCbhlRtkqfgiA_TfK9EkVyoGO6_WFwAy-1PrLThGeSwoIp1GIjc0pRLJKRlb4zfSQNppjIKNxp66PFtqhX4NRdbYZQd1uj0SN0MzwHUNkUAeTsTbsZhAVW00]--></g></svg>