<?xml version="1.0" encoding="us-ascii" standalone="no"?><svg xmlns="http://www.w3.org/2000/svg" xmlns:xlink="http://www.w3.org/1999/xlink" contentStyleType="text/css" height="1176px" preserveAspectRatio="none" style="width:808px;height:1176px;background:#FFFFFF;" version="1.1" viewBox="0 0 808 1176" width="808px" zoomAndPan="magnify"><defs/><g><ellipse cx="401" cy="16" fill="#222222" rx="10" ry="10" style="stroke:#222222;stroke-width:1.0;"/><g id="Inicio"><rect fill="#FAF4B4" height="50" rx="12.5" ry="12.5" style="stroke:#C90000;stroke-width:0.5;" width="58" x="372" y="87"/><line style="stroke:#C90000;stroke-width:0.5;" x1="372" x2="430" y1="113.2969" y2="113.2969"/><text fill="#000000" font-family="sans-serif" font-size="14" lengthAdjust="spacing" textLength="38" x="382" y="104.9951">Inicio</text></g><path d="M19.5,232 L782,232 A12.5,12.5 0 0 1 794.5,244.5 L794.5,258.2969 L7,258.2969 L7,244.5 A12.5,12.5 0 0 1 19.5,232 " fill="#FAF4B4" style="stroke:#FAF4B4;stroke-width:1.0;"/><rect fill="none" height="793.2969" rx="12.5" ry="12.5" style="stroke:#C90000;stroke-width:0.5;" width="787.5" x="7" y="232"/><line style="stroke:#C90000;stroke-width:0.5;" x1="7" x2="794.5" y1="258.2969" y2="258.2969"/><text fill="#000000" font-family="sans-serif" font-size="14" lengthAdjust="spacing" textLength="31" x="385.25" y="249.9951">FISC</text><ellipse cx="561" cy="279.2969" fill="#222222" rx="10" ry="10" style="stroke:#222222;stroke-width:1.0;"/><g id="FISC.P&#225;ginaPrincipal"><rect fill="#FAF4B4" height="50" rx="12.5" ry="12.5" style="stroke:#C90000;stroke-width:0.5;" width="129" x="496.5" y="326.2969"/><line style="stroke:#C90000;stroke-width:0.5;" x1="496.5" x2="625.5" y1="352.5938" y2="352.5938"/><text fill="#000000" font-family="sans-serif" font-size="14" lengthAdjust="spacing" textLength="109" x="506.5" y="344.292">P&#225;ginaPrincipal</text></g><g id="FISC.P&#225;ginaProyecto"><rect fill="#FAF4B4" height="50" rx="12.5" ry="12.5" style="stroke:#C90000;stroke-width:0.5;" width="132" x="495" y="477.2969"/><line style="stroke:#C90000;stroke-width:0.5;" x1="495" x2="627" y1="503.5938" y2="503.5938"/><text fill="#000000" font-family="sans-serif" font-size="14" lengthAdjust="spacing" textLength="112" x="505" y="495.292">P&#225;ginaProyecto</text></g><g id="FISC.Configuraci&#243;nDeSimulaci&#243;n"><rect fill="#FAF4B4" height="50" rx="12.5" ry="12.5" style="stroke:#C90000;stroke-width:0.5;" width="216" x="127" y="613.2969"/><line style="stroke:#C90000;stroke-width:0.5;" x1="127" x2="343" y1="639.5938" y2="639.5938"/><text fill="#000000" font-family="sans-serif" font-size="14" lengthAdjust="spacing" textLength="196" x="137" y="631.292">Configuraci&#243;nDeSimulaci&#243;n</text></g><g id="FISC.Reporte"><rect fill="#FAF4B4" height="50" rx="12.5" ry="12.5" style="stroke:#C90000;stroke-width:0.5;" width="80" x="436" y="965.2969"/><line style="stroke:#C90000;stroke-width:0.5;" x1="436" x2="516" y1="991.5938" y2="991.5938"/><text fill="#000000" font-family="sans-serif" font-size="14" lengthAdjust="spacing" textLength="60" x="446" y="983.292">Reporte</text></g><g id="FISC.Simulando"><rect fill="#FAF4B4" height="50" rx="12.5" ry="12.5" style="stroke:#C90000;stroke-width:0.5;" width="94" x="19" y="806.2969"/><line style="stroke:#C90000;stroke-width:0.5;" x1="19" x2="113" y1="832.5938" y2="832.5938"/><text fill="#000000" font-family="sans-serif" font-size="14" lengthAdjust="spacing" textLength="74" x="29" y="824.292">Simulando</text></g><!--link *start*FISC to P?ginaPrincipal--><g id="link_*start*FISC_P&#225;ginaPrincipal"><path d="M561,289.4479 C561,298.7129 561,307.4379 561,320.0809 " fill="none" id="*start*FISC-to-P&#225;ginaPrincipal" style="stroke:#218C00;stroke-width:1.0;"/><polygon fill="#218C00" points="561,326.0809,565,317.0809,561,321.0809,557,317.0809,561,326.0809" style="stroke:#218C00;stroke-width:1.0;"/></g><!--link P?ginaPrincipal to P?ginaProyecto--><g id="link_P&#225;ginaPrincipal_P&#225;ginaProyecto"><path d="M561,376.5679 C561,404.2759 561,443.3329 561,471.0359 " fill="none" id="P&#225;ginaPrincipal-to-P&#225;ginaProyecto" style="stroke:#218C00;stroke-width:1.0;"/><polygon fill="#218C00" points="561,477.0359,565,468.0359,561,472.0359,557,468.0359,561,477.0359" style="stroke:#218C00;stroke-width:1.0;"/><path d="M566,399.2969 L566,454.2969 L703,454.2969 L703,409.2969 L693,399.2969 L566,399.2969 " fill="#F5F5F5" style="stroke:#C90000;stroke-width:0.5;"/><path d="M693,399.2969 L693,409.2969 L703,409.2969 L693,399.2969 " fill="#F5F5F5" style="stroke:#C90000;stroke-width:0.5;"/><text fill="#000000" font-family="sans-serif" font-size="13" lengthAdjust="spacing" textLength="91" x="572" y="416.3638">Abrir Proyecto</text><text fill="#000000" font-family="sans-serif" font-size="13" lengthAdjust="spacing" textLength="116" x="572" y="431.4966">Importar Proyecto</text><text fill="#000000" font-family="sans-serif" font-size="13" lengthAdjust="spacing" textLength="102" x="572" y="446.6294">Nuevo Proyecto</text></g><!--link P?ginaPrincipal to P?ginaPrincipal--><g id="link_P&#225;ginaPrincipal_P&#225;ginaPrincipal"><path d="M625.68,344.0109 C636.241,345.0539 643.5,347.4829 643.5,351.2969 C643.5,355.1109 642.212,356.9502 631.651,357.9932 " fill="none" id="P&#225;ginaPrincipal-to-P&#225;ginaPrincipal" style="stroke:#218C00;stroke-width:1.0;"/><polygon fill="#218C00" points="625.68,358.5829,635.0296,361.679,630.6558,358.0915,634.2433,353.7177,625.68,358.5829" style="stroke:#218C00;stroke-width:1.0;"/><path d="M648.5,338.7969 L648.5,363.7969 L785.5,363.7969 L785.5,348.7969 L775.5,338.7969 L648.5,338.7969 " fill="#F5F5F5" style="stroke:#C90000;stroke-width:0.5;"/><path d="M775.5,338.7969 L775.5,348.7969 L785.5,348.7969 L775.5,338.7969 " fill="#F5F5F5" style="stroke:#C90000;stroke-width:0.5;"/><text fill="#000000" font-family="sans-serif" font-size="13" lengthAdjust="spacing" textLength="116" x="654.5" y="355.8638">Exportar Proyecto</text></g><!--link P?ginaProyecto to Configuraci?nDeSimulaci?n--><g id="link_P&#225;ginaProyecto_Configuraci&#243;nDeSimulaci&#243;n"><path d="M494.951,520.7439 C451.266,532.2829 402,545.2969 402,545.2969 C402,545.2969 333.6123,582.9718 284.1323,610.2298 " fill="none" id="P&#225;ginaProyecto-to-Configuraci&#243;nDeSimulaci&#243;n" style="stroke:#218C00;stroke-width:1.0;"/><polygon fill="#218C00" points="278.877,613.1249,288.69,612.2858,283.2564,610.7123,284.8299,605.2787,278.877,613.1249" style="stroke:#218C00;stroke-width:1.0;"/><path d="M407,550.2969 L407,590.2969 L542,590.2969 L542,560.2969 L532,550.2969 L407,550.2969 " fill="#F5F5F5" style="stroke:#C90000;stroke-width:0.5;"/><path d="M532,550.2969 L532,560.2969 L542,560.2969 L532,550.2969 " fill="#F5F5F5" style="stroke:#C90000;stroke-width:0.5;"/><text fill="#000000" font-family="sans-serif" font-size="13" lengthAdjust="spacing" textLength="103" x="413" y="567.3638">Abrir Simulaci&#243;n</text><text fill="#000000" font-family="sans-serif" font-size="13" lengthAdjust="spacing" textLength="114" x="413" y="582.4966">Nueva Simulaci&#243;n</text></g><!--link P?ginaProyecto to Reporte--><g id="link_P&#225;ginaProyecto_Reporte"><path d="M561,527.5629 C561,566.1789 561,637.2969 561,637.2969 C561,637.2969 561,637.2969 561,911.7969 C561,911.7969 531.8147,938.4074 506.8627,961.1577 " fill="none" id="P&#225;ginaProyecto-to-Reporte" style="stroke:#218C00;stroke-width:1.0;"/><polygon fill="#218C00" points="502.429,965.2002,511.7746,962.0922,506.1238,961.8314,506.3846,956.1806,502.429,965.2002" style="stroke:#218C00;stroke-width:1.0;"/><path d="M566,758.2969 L566,783.2969 L664,783.2969 L664,768.2969 L654,758.2969 L566,758.2969 " fill="#F5F5F5" style="stroke:#C90000;stroke-width:0.5;"/><path d="M654,758.2969 L654,768.2969 L664,768.2969 L654,758.2969 " fill="#F5F5F5" style="stroke:#C90000;stroke-width:0.5;"/><text fill="#000000" font-family="sans-serif" font-size="13" lengthAdjust="spacing" textLength="77" x="572" y="775.3638">Ver Reporte</text></g><!--link Configuraci?nDeSimulaci?n to Simulando--><g id="link_Configuraci&#243;nDeSimulaci&#243;n_Simulando"><path d="M223.897,663.5219 C210.862,691.9609 191,735.2969 191,735.2969 C191,735.2969 139.678,774.3024 102.6432,802.4484 " fill="none" id="Configuraci&#243;nDeSimulaci&#243;n-to-Simulando" style="stroke:#218C00;stroke-width:1.0;"/><polygon fill="#218C00" points="97.8662,806.0789,107.452,803.8178,101.847,803.0535,102.6114,797.4485,97.8662,806.0789" style="stroke:#218C00;stroke-width:1.0;"/><path d="M211,705.2969 L211,730.2969 L342,730.2969 L342,715.2969 L332,705.2969 L211,705.2969 " fill="#F5F5F5" style="stroke:#C90000;stroke-width:0.5;"/><path d="M332,705.2969 L332,715.2969 L342,715.2969 L332,705.2969 " fill="#F5F5F5" style="stroke:#C90000;stroke-width:0.5;"/><text fill="#000000" font-family="sans-serif" font-size="13" lengthAdjust="spacing" textLength="110" x="217" y="722.3638">Iniciar Simulaci&#243;n</text></g><!--link Configuraci?nDeSimulaci?n to Configuraci?nDeSimulaci?n--><g id="link_Configuraci&#243;nDeSimulaci&#243;n_Configuraci&#243;nDeSimulaci&#243;n"><path d="M343.43,631.8759 C354.17,633.1629 361,635.3029 361,638.2969 C361,641.2909 360.1274,642.717 349.3874,644.004 " fill="none" id="Configuraci&#243;nDeSimulaci&#243;n-to-Configuraci&#243;nDeSimulaci&#243;n" style="stroke:#218C00;stroke-width:1.0;"/><polygon fill="#218C00" points="343.43,644.7179,352.842,647.6186,348.3945,644.123,351.8901,639.6755,343.43,644.7179" style="stroke:#218C00;stroke-width:1.0;"/><path d="M366,625.7969 L366,650.7969 L515,650.7969 L515,635.7969 L505,625.7969 L366,625.7969 " fill="#F5F5F5" style="stroke:#C90000;stroke-width:0.5;"/><path d="M505,625.7969 L505,635.7969 L515,635.7969 L505,625.7969 " fill="#F5F5F5" style="stroke:#C90000;stroke-width:0.5;"/><text fill="#000000" font-family="sans-serif" font-size="13" lengthAdjust="spacing" textLength="128" x="372" y="642.8638">Importar Simulaci&#243;n</text></g><!--link Simulando to Configuraci?nDeSimulaci?n--><g id="link_Simulando_Configuraci&#243;nDeSimulaci&#243;n"><path d="M55.9565,805.8319 C44.4011,777.6839 27,735.2969 27,735.2969 C27,735.2969 27,700.2969 27,700.2969 C27,700.2969 89.1277,682.0764 147.3335,665.0064 " fill="none" id="Simulando-to-Configuraci&#243;nDeSimulaci&#243;n" style="stroke:#218C00;stroke-width:1.0;"/><polygon fill="#218C00" points="153.091,663.3179,143.3291,662.0123,148.2931,664.725,145.5804,669.689,153.091,663.3179" style="stroke:#218C00;stroke-width:1.0;"/><path d="M32,705.2969 L32,730.2969 L182,730.2969 L182,715.2969 L172,705.2969 L32,705.2969 " fill="#F5F5F5" style="stroke:#C90000;stroke-width:0.5;"/><path d="M172,705.2969 L172,715.2969 L182,715.2969 L172,705.2969 " fill="#F5F5F5" style="stroke:#C90000;stroke-width:0.5;"/><text fill="#000000" font-family="sans-serif" font-size="13" lengthAdjust="spacing" textLength="129" x="38" y="722.3638">Cancelar Simulaci&#243;n</text></g><!--link Simulando to Simulando--><g id="link_Simulando_Simulando"><path d="M113.0355,823.6339 C123.43,824.3539 131,826.9079 131,831.2969 C131,835.6859 129.4157,837.8253 119.0212,838.5453 " fill="none" id="Simulando-to-Simulando" style="stroke:#218C00;stroke-width:1.0;"/><polygon fill="#218C00" points="113.0355,838.9599,122.2904,842.3284,118.0235,838.6144,121.7376,834.3475,113.0355,838.9599" style="stroke:#218C00;stroke-width:1.0;"/><path d="M136,818.7969 L136,843.7969 L351,843.7969 L351,828.7969 L341,818.7969 L136,818.7969 " fill="#F5F5F5" style="stroke:#C90000;stroke-width:0.5;"/><path d="M341,818.7969 L341,828.7969 L351,828.7969 L341,818.7969 " fill="#F5F5F5" style="stroke:#C90000;stroke-width:0.5;"/><text fill="#000000" font-family="sans-serif" font-size="13" lengthAdjust="spacing" textLength="194" x="142" y="835.8638">Verificar Estado de Simulaci&#243;n</text></g><!--link Simulando to Reporte--><g id="link_Simulando_Reporte"><path d="M87.9538,856.5219 C113.7268,884.9609 153,928.2969 153,928.2969 C153,928.2969 343.2632,964.2289 429.8492,980.581 " fill="none" id="Simulando-to-Reporte" style="stroke:#218C00;stroke-width:1.0;"/><polygon fill="#218C00" points="435.745,981.6945,427.6436,976.0938,430.8318,980.7666,426.159,983.9548,435.745,981.6945" style="stroke:#218C00;stroke-width:1.0;"/><path d="M158,898.2969 L158,923.2969 L373,923.2969 L373,908.2969 L363,898.2969 L158,898.2969 " fill="#F5F5F5" style="stroke:#C90000;stroke-width:0.5;"/><path d="M363,898.2969 L363,908.2969 L373,908.2969 L363,898.2969 " fill="#F5F5F5" style="stroke:#C90000;stroke-width:0.5;"/><text fill="#000000" font-family="sans-serif" font-size="13" lengthAdjust="spacing" textLength="194" x="164" y="915.3638">Verificar Estado de Simulaci&#243;n</text></g><!--link Reporte to Reporte--><g id="link_Reporte_Reporte"><path d="M516.119,982.5161 C526.332,983.0275 534,985.6211 534,990.2969 C534,994.9727 532.3245,997.2662 522.1115,997.7776 " fill="none" id="Reporte-to-Reporte" style="stroke:#218C00;stroke-width:1.0;"/><polygon fill="#218C00" points="516.119,998.0777,525.3078,1001.6226,521.1127,997.8276,524.9077,993.6326,516.119,998.0777" style="stroke:#218C00;stroke-width:1.0;"/><path d="M539,970.2969 L539,1010.2969 L678,1010.2969 L678,980.2969 L668,970.2969 L539,970.2969 " fill="#F5F5F5" style="stroke:#C90000;stroke-width:0.5;"/><path d="M668,970.2969 L668,980.2969 L678,980.2969 L668,970.2969 " fill="#F5F5F5" style="stroke:#C90000;stroke-width:0.5;"/><text fill="#000000" font-family="sans-serif" font-size="13" lengthAdjust="spacing" textLength="110" x="545" y="987.3638">Exportar Reporte</text><text fill="#000000" font-family="sans-serif" font-size="13" lengthAdjust="spacing" textLength="108" x="545" y="1002.4966">Imprimir Reporte</text></g><!--link Reporte to P?ginaProyecto--><g id="link_Reporte_P&#225;ginaProyecto"><path d="M516.122,974.9014 C578.587,952.489 692,911.7969 692,911.7969 C692,637.2969 692,637.2969 692,637.2969 C692,637.2969 626.6683,570.4693 588.9173,531.8533 " fill="none" id="Reporte-to-P&#225;ginaProyecto" style="stroke:#218C00;stroke-width:1.0;"/><polygon fill="#218C00" points="584.723,527.5629,588.1542,536.7947,588.2183,531.1382,593.8748,531.2023,584.723,527.5629" style="stroke:#218C00;stroke-width:1.0;"/><path d="M697,758.2969 L697,783.2969 L770,783.2969 L770,768.2969 L760,758.2969 L697,758.2969 " fill="#F5F5F5" style="stroke:#C90000;stroke-width:0.5;"/><path d="M760,758.2969 L760,768.2969 L770,768.2969 L760,758.2969 " fill="#F5F5F5" style="stroke:#C90000;stroke-width:0.5;"/><text fill="#000000" font-family="sans-serif" font-size="13" lengthAdjust="spacing" textLength="52" x="703" y="775.3638">Guardar</text></g><!--link Reporte to Configuraci?nDeSimulaci?n--><g id="link_Reporte_Configuraci&#243;nDeSimulaci&#243;n"><path d="M449.882,965.2002 C425.224,942.4499 392,911.7969 392,911.7969 C392,716.7969 392,716.7969 392,716.7969 C392,716.7969 335.2832,688.7997 289.1952,666.0497 " fill="none" id="Reporte-to-Configuraci&#243;nDeSimulaci&#243;n" style="stroke:#218C00;stroke-width:1.0;"/><polygon fill="#218C00" points="283.815,663.3939,290.1148,670.9644,288.2985,665.607,293.6559,663.7907,283.815,663.3939" style="stroke:#218C00;stroke-width:1.0;"/><path d="M397,818.7969 L397,843.7969 L528,843.7969 L528,828.7969 L518,818.7969 L397,818.7969 " fill="#F5F5F5" style="stroke:#C90000;stroke-width:0.5;"/><path d="M518,818.7969 L518,828.7969 L528,828.7969 L518,818.7969 " fill="#F5F5F5" style="stroke:#C90000;stroke-width:0.5;"/><text fill="#000000" font-family="sans-serif" font-size="13" lengthAdjust="spacing" textLength="110" x="403" y="835.8638">Editar Simulaci&#243;n</text></g><g id="Log"><rect fill="#FAF4B4" height="50" rx="12.5" ry="12.5" style="stroke:#C90000;stroke-width:0.5;" width="50" x="268" y="1120"/><line style="stroke:#C90000;stroke-width:0.5;" x1="268" x2="318" y1="1146.2969" y2="1146.2969"/><text fill="#000000" font-family="sans-serif" font-size="14" lengthAdjust="spacing" textLength="26" x="280" y="1137.9951">Log</text></g><ellipse cx="466" cy="1145" fill="none" rx="11" ry="11" style="stroke:#222222;stroke-width:1.0;"/><ellipse cx="466" cy="1145" fill="#222222" rx="6" ry="6" style="stroke:#222222;stroke-width:1.0;"/><!--link *start* to Inicio--><g id="link_*start*_Inicio"><path d="M401,26.01 C401,39.89 401,60.97 401,80.84 " fill="none" id="*start*-to-Inicio" style="stroke:#218C00;stroke-width:1.0;"/><polygon fill="#218C00" points="401,86.84,405,77.84,401,81.84,397,77.84,401,86.84" style="stroke:#218C00;stroke-width:1.0;"/></g><!--link Inicio to FISC--><g id="link_Inicio_FISC"><path d="M401,137.13 C401,158.28 401,185.857 401,225.765 " fill="none" id="Inicio-to-FISC" style="stroke:#218C00;stroke-width:1.0;"/><polygon fill="#218C00" points="401,231.765,405,222.765,401,226.765,397,222.765,401,231.765" style="stroke:#218C00;stroke-width:1.0;"/><path d="M406,172 L406,197 L461,197 L461,182 L451,172 L406,172 " fill="#F5F5F5" style="stroke:#C90000;stroke-width:0.5;"/><path d="M451,172 L451,182 L461,182 L451,172 " fill="#F5F5F5" style="stroke:#C90000;stroke-width:0.5;"/><text fill="#000000" font-family="sans-serif" font-size="13" lengthAdjust="spacing" textLength="34" x="412" y="189.0669">Login</text></g><!--link Inicio to Inicio--><g id="link_Inicio_Inicio"><path d="M430.293,102.55 C448.124,100.36 465,103.51 465,112 C465,120.49 454.0793,124.3714 436.2483,122.1814 " fill="none" id="Inicio-to-Inicio" style="stroke:#218C00;stroke-width:1.0;"/><polygon fill="#218C00" points="430.293,121.45,438.7383,126.5173,435.2557,122.0595,439.7135,118.577,430.293,121.45" style="stroke:#218C00;stroke-width:1.0;"/><path d="M470,99.5 L470,124.5 L601,124.5 L601,109.5 L591,99.5 L470,99.5 " fill="#F5F5F5" style="stroke:#C90000;stroke-width:0.5;"/><path d="M591,99.5 L591,109.5 L601,109.5 L591,99.5 " fill="#F5F5F5" style="stroke:#C90000;stroke-width:0.5;"/><text fill="#000000" font-family="sans-serif" font-size="13" lengthAdjust="spacing" textLength="110" x="476" y="116.5669">Registrar Usuario</text></g><!--link Log to Log--><g id="link_Log_Log"><path d="M318.278,1132.8184 C335.773,1129.127 353,1133.1875 353,1145 C353,1156.8125 341.6437,1162.1118 324.1487,1158.4203 " fill="none" id="Log-to-Log" style="stroke:#218C00;stroke-width:1.0;"/><polygon fill="#218C00" points="318.278,1157.1816,326.2583,1162.9535,323.1703,1158.2139,327.9099,1155.1259,318.278,1157.1816" style="stroke:#218C00;stroke-width:1.0;"/><path d="M358,1132.5 L358,1157.5 L432,1157.5 L432,1142.5 L422,1132.5 L358,1132.5 " fill="#F5F5F5" style="stroke:#C90000;stroke-width:0.5;"/><path d="M422,1132.5 L422,1142.5 L432,1142.5 L422,1132.5 " fill="#F5F5F5" style="stroke:#C90000;stroke-width:0.5;"/><text fill="#000000" font-family="sans-serif" font-size="13" lengthAdjust="spacing" textLength="53" x="364" y="1149.5669">Imprimir</text></g><!--link FISC to Log--><g id="link_FISC_Log"><path d="M317.913,1025.317 C309.57,1065.065 303.7797,1092.6492 299.3387,1113.8041 " fill="none" id="FISC-to-Log" style="stroke:#218C00;stroke-width:1.0;"/><polygon fill="#218C00" points="298.106,1119.6761,303.8697,1111.6899,299.1332,1114.7828,296.0404,1110.0463,298.106,1119.6761" style="stroke:#218C00;stroke-width:1.0;"/><path d="M317,1060 L317,1085 L395,1085 L395,1070 L385,1060 L317,1060 " fill="#F5F5F5" style="stroke:#C90000;stroke-width:0.5;"/><path d="M385,1060 L385,1070 L395,1070 L385,1060 " fill="#F5F5F5" style="stroke:#C90000;stroke-width:0.5;"/><text fill="#000000" font-family="sans-serif" font-size="13" lengthAdjust="spacing" textLength="57" x="323" y="1077.0669">Abrir Log</text></g><!--link FISC to *end*--><g id="link_FISC_*end*"><path d="M451.006,1025.317 C457.385,1075.8071 461.7291,1110.1937 463.9861,1128.0615 " fill="none" id="FISC-to-*end*" style="stroke:#218C00;stroke-width:1.0;"/><polygon fill="#218C00" points="464.738,1134.0142,467.5786,1124.5839,464.1114,1129.0536,459.6416,1125.5864,464.738,1134.0142" style="stroke:#218C00;stroke-width:1.0;"/><path d="M462,1060 L462,1085 L533,1085 L533,1070 L523,1060 L462,1060 " fill="#F5F5F5" style="stroke:#C90000;stroke-width:0.5;"/><path d="M523,1060 L523,1070 L533,1070 L523,1060 " fill="#F5F5F5" style="stroke:#C90000;stroke-width:0.5;"/><text fill="#000000" font-family="sans-serif" font-size="13" lengthAdjust="spacing" textLength="50" x="468" y="1077.0669">Log Out</text></g><!--SRC=[bLHBJiCm4Dtx52EnGwf4KP5WWmIbe4e8gXRO81QkuvHH4ZkQ9425E0ndu0Yz64wSfldsaoxIZD-yzsRiSUIX2Zdn09IEvJKNte9qefoXzZN1aNkM_bXKHMbo9EK8SN5YdXA24-dFVF6qVougYr7CsrIuEvWF6h2jCZug6Iz32Q7sb-b7tSBJEmfFoIY2FcElns_Gwrt2MA50pPXzGyyniTlnR0WiBGoqIdaz1d2l5wYOL4vMSGMVSzGIfdA1KKoSu3bAE1b0aSncQJbMvxkmCbdz6Wa-8LG2G-u3OurGfbT4zLAAk25yDISaMA-2YOo3K5FCDq4JUqZaXowXrkPWbsWUhQkElkeQ6qPMSsmPXrgvk4Y82rpzgHivmo3nxKTxIMM0BO1NOYqbhFNI_avbwb3MkLya5KiborlSMVise9n6_xFZmAd3saxU0zfIx6khb2cYy6WxS03ra2iX_SugQiITlJ3DHHU5uHcP4JPmH-x7sBrPU_AndC4sjOEkEBHhS3ujX06sdOeAvuunl3D3xt3goZvWBqOETcuo-s7CN4ssQUPFon79YYbbPDTEvg45RoSjNQWd6BovgLgkHNXCuWBz3m00]--></g></svg>