<?xml version="1.0" encoding="UTF-8" standalone="no"?><svg xmlns="http://www.w3.org/2000/svg" xmlns:xlink="http://www.w3.org/1999/xlink" contentStyleType="text/css" height="365px" preserveAspectRatio="none" style="width:626px;height:365px;background:#FFFFFF;" version="1.1" viewBox="0 0 626 365" width="626px" zoomAndPan="magnify"><defs/><g><rect fill="#FFFFFF" height="26.0986" id="_title" style="stroke:none;stroke-width:1.0;" width="317" x="147.5" y="5"/><text fill="#000000" font-family="Arial" font-size="14" font-weight="bold" lengthAdjust="spacing" textLength="307" x="152.5" y="23.1318">Interacción con el Servicio de Instalaciones</text><!--MD5=[f6060afd6ce144f47bd96961c50c8411]
class INSTALACIONES : SERVICIO EXTERNO--><g id="elem_INSTALACIONES : SERVICIO EXTERNO"><rect codeLine="7" fill="#F1F1F1" height="138.6904" id="INSTALACIONES : SERVICIO EXTERNO" rx="2.5" ry="2.5" style="stroke:#181818;stroke-width:0.5;" width="265" x="354" y="44.0986"/><text fill="#000000" font-family="Arial" font-size="14" lengthAdjust="spacing" textLength="252" x="360.5" y="62.2305">INSTALACIONES : SERVICIO EXTERNO</text><line style="stroke:#181818;stroke-width:0.5;" x1="355" x2="618" y1="70.1973" y2="70.1973"/><text fill="#000000" font-family="Arial" font-size="14" lengthAdjust="spacing" textLength="161" x="360" y="87.3291">Nombre: "Instalaciones +"</text><text fill="#000000" font-family="Arial" font-size="14" lengthAdjust="spacing" textLength="82" x="360" y="103.4277">Precio: "13€"</text><text fill="#000000" font-family="Arial" font-size="14" lengthAdjust="spacing" textLength="244" x="360" y="119.5264">Descripción: "Con este servicio podrás</text><text fill="#000000" font-family="Arial" font-size="14" lengthAdjust="spacing" textLength="249" x="360" y="135.625">alquilar instalaciones como las canchas</text><text fill="#000000" font-family="Arial" font-size="14" lengthAdjust="spacing" textLength="60" x="360" y="151.7236">de fútbol"</text><text fill="#000000" font-family="Arial" font-size="14" lengthAdjust="spacing" textLength="157" x="360" y="167.8223">Url: "https://ejemplo.com"</text><line style="stroke:#181818;stroke-width:0.5;" x1="355" x2="618" y1="174.7891" y2="174.7891"/></g><!--MD5=[323ba90a26c4e524b04170f873ba0060]
class BEN : EGRESADO--><g id="elem_BEN : EGRESADO"><rect codeLine="16" fill="#F1F1F1" height="42.0986" id="BEN : EGRESADO" rx="2.5" ry="2.5" style="stroke:#181818;stroke-width:0.5;" width="123" x="230" y="288.0986"/><text fill="#000000" font-family="Arial" font-size="14" lengthAdjust="spacing" textLength="117" x="233" y="306.2305">BEN : EGRESADO</text><line style="stroke:#181818;stroke-width:0.5;" x1="231" x2="352" y1="314.1973" y2="314.1973"/><line style="stroke:#181818;stroke-width:0.5;" x1="231" x2="352" y1="322.1973" y2="322.1973"/></g><!--MD5=[86a46607765088d6bc16607347922e0b]
class ALUMNI--><g id="elem_ALUMNI"><rect fill="#F1F1F1" height="42.0986" id="ALUMNI" rx="2.5" ry="2.5" style="stroke:#181818;stroke-width:0.5;" width="55" x="264" y="92.5986"/><text fill="#000000" font-family="Arial" font-size="14" lengthAdjust="spacing" textLength="49" x="267" y="110.7305">ALUMNI</text><line style="stroke:#181818;stroke-width:0.5;" x1="265" x2="318" y1="118.6973" y2="118.6973"/><line style="stroke:#181818;stroke-width:0.5;" x1="265" x2="318" y1="126.6973" y2="126.6973"/></g><g id="elem_GMN7"><path d="M6,71.0986 L6,155.8423 A0,0 0 0 0 6,155.8423 L229,155.8423 A0,0 0 0 0 229,155.8423 L229,117.5986 L263.81,113.5986 L229,109.5986 L229,81.0986 L219,71.0986 L6,71.0986 A0,0 0 0 0 6,71.0986 " fill="#FEFFDD" style="stroke:#181818;stroke-width:0.5;"/><path d="M219,71.0986 L219,81.0986 L229,81.0986 L219,71.0986 " fill="#FEFFDD" style="stroke:#181818;stroke-width:0.5;"/><text fill="#000000" font-family="Arial" font-size="13" lengthAdjust="spacing" textLength="156" x="12" y="88.2925">La plataforma se comunica</text><text fill="#000000" font-family="Arial" font-size="13" lengthAdjust="spacing" textLength="161" x="12" y="103.2412">con el servicio y pasa todos</text><text fill="#000000" font-family="Arial" font-size="13" lengthAdjust="spacing" textLength="198" x="12" y="118.1899">los datos necesarios del egresado</text><text fill="#000000" font-family="Arial" font-size="13" lengthAdjust="spacing" textLength="183" x="12" y="133.1387">para iniciar sesión del egresado</text><text fill="#000000" font-family="Arial" font-size="13" lengthAdjust="spacing" textLength="75" x="12" y="148.0874">en el servicio</text></g><g id="elem_GMN11"><path d="M388,259.0986 L388,305.0986 L353.19,309.0986 L388,313.0986 L388,358.791 A0,0 0 0 0 388,358.791 L571,358.791 A0,0 0 0 0 571,358.791 L571,269.0986 L561,259.0986 L388,259.0986 A0,0 0 0 0 388,259.0986 " fill="#FEFFDD" style="stroke:#181818;stroke-width:0.5;"/><path d="M561,259.0986 L561,269.0986 L571,269.0986 L561,259.0986 " fill="#FEFFDD" style="stroke:#181818;stroke-width:0.5;"/><text fill="#000000" font-family="Arial" font-size="13" lengthAdjust="spacing" textLength="141" x="394" y="276.2925">Es el que usa el servicio</text><text fill="#000000" font-family="Arial" font-size="13" lengthAdjust="spacing" textLength="158" x="394" y="291.2412">para reservar la instalación.</text><text fill="#000000" font-family="Arial" font-size="13" lengthAdjust="spacing" textLength="4" x="394" y="306.1899"> </text><text fill="#000000" font-family="Arial" font-size="13" lengthAdjust="spacing" textLength="152" x="394" y="321.1387">Se dan por echo todos los</text><text fill="#000000" font-family="Arial" font-size="13" lengthAdjust="spacing" textLength="154" x="394" y="336.0874">datos que debería tener un</text><text fill="#000000" font-family="Arial" font-size="13" lengthAdjust="spacing" textLength="53" x="394" y="351.0361">egresado</text></g><!--MD5=[1d03cd2e49d300ceb9acb8d9555444ca]
link ALUMNI to INSTALACIONES : SERVICIO EXTERNO--><g id="link_ALUMNI_INSTALACIONES : SERVICIO EXTERNO"><path codeLine="21" d="M319.3,113.5986 C330.84,113.5986 342.38,113.5986 353.92,113.5986 " fill="none" id="ALUMNI-INSTALACIONES : SERVICIO EXTERNO" style="stroke:#181818;stroke-width:1.0;"/></g><!--MD5=[04e2bb442b4e7bab52f124b62a631f30]
link ALUMNI to BEN : EGRESADO--><g id="link_ALUMNI_BEN : EGRESADO"><path codeLine="23" d="M291.5,134.9386 C291.5,172.1986 291.5,250.9686 291.5,288.0286 " fill="none" id="ALUMNI-BEN : EGRESADO" style="stroke:#181818;stroke-width:1.0;"/><text fill="#000000" font-family="Arial" font-size="13" lengthAdjust="spacing" textLength="56" x="292.5" y="226.2925">comunica</text></g><!--MD5=[bcab0add73207aff54d2b9ef765bf967]
@startuml Diagrama_de_Objetos-Servicio_Externo
title Interacción con el Servicio de Instalaciones

skinparam backgroundColor white
skinparam defaultFontName Arial
hide circle

class "INSTALACIONES : SERVICIO EXTERNO"  
{
    Nombre: "Instalaciones +"
    Precio: "13€"
    Descripción: "Con este servicio podrás\nalquilar instalaciones como las canchas \nde fútbol"
    Url: "https://ejemplo.com"
}


class "BEN : EGRESADO"
{
    
}

"INSTALACIONES : SERVICIO EXTERNO" -left- "ALUMNI"
note left: La plataforma se comunica \ncon el servicio y pasa todos \nlos datos necesarios del egresado \npara iniciar sesión del egresado \nen el servicio
"ALUMNI" - - "BEN : EGRESADO" : comunica
note right: Es el que usa el servicio\npara reservar la instalación. \n\nSe dan por echo todos los \ndatos que debería tener un \negresado  
@enduml

PlantUML version 1.2022.7(Mon Aug 22 19:01:30 CEST 2022)
(GPL source distribution)
Java Runtime: OpenJDK Runtime Environment
JVM: OpenJDK 64-Bit Server VM
Default Encoding: Cp1252
Language: es
Country: ES
--></g></svg>