<?xml version="1.0" encoding="UTF-8" standalone="no"?><svg xmlns="http://www.w3.org/2000/svg" xmlns:xlink="http://www.w3.org/1999/xlink" contentStyleType="text/css" height="899px" preserveAspectRatio="none" style="width:553px;height:899px;background:#FFFFFF;" version="1.1" viewBox="0 0 553 899" width="553px" zoomAndPan="magnify"><defs/><g><rect fill="#F1F1F1" height="40" rx="12.5" ry="12.5" style="stroke:#181818;stroke-width:0.5;" width="54" x="246.5" y="7"/><text fill="#000000" font-family="sans-serif" font-size="14" lengthAdjust="spacing" textLength="44" x="251.5" y="32.7285">INITIAL</text><path d="M19.5,159 L527.5,159 A12.5,12.5 0 0 1 540,171.5 L540,186.6094 L7,186.6094 L7,171.5 A12.5,12.5 0 0 1 19.5,159 " fill="#F1F1F1" style="stroke:#F1F1F1;stroke-width:1.0;"/><rect fill="none" height="734.6094" rx="12.5" ry="12.5" style="stroke:#181818;stroke-width:0.5;" width="533" x="7" y="159"/><line style="stroke:#181818;stroke-width:0.5;" x1="7" x2="540" y1="186.6094" y2="186.6094"/><text fill="#000000" font-family="sans-serif" font-size="14" lengthAdjust="spacing" textLength="144" x="201.5" y="178.5332">ActualizarDatosCuenta</text><rect fill="#F1F1F1" height="40" rx="12.5" ry="12.5" style="stroke:#181818;stroke-width:0.5;" width="50" x="121" y="254.6094"/><text fill="#000000" font-family="sans-serif" font-size="14" lengthAdjust="spacing" textLength="4" x="144" y="280.3379"> </text><rect fill="#F1F1F1" height="40" rx="12.5" ry="12.5" style="stroke:#181818;stroke-width:0.5;" width="50" x="19" y="519.6094"/><text fill="#000000" font-family="sans-serif" font-size="14" lengthAdjust="spacing" textLength="4" x="42" y="545.3379"> </text><g id="elem_4"><polygon fill="#F1F1F1" points="158,751.6094,170,763.6094,158,775.6094,146,763.6094,158,751.6094" style="stroke:#181818;stroke-width:0.5;"/></g><ellipse cx="146" cy="207.6094" fill="#222222" rx="10" ry="10" style="stroke:none;stroke-width:1.0;"/><ellipse cx="158" cy="873.6094" fill="none" rx="10" ry="10" style="stroke:#222222;stroke-width:1.0;"/><ellipse cx="158.5" cy="874.1094" fill="#222222" rx="6" ry="6" style="stroke:none;stroke-width:1.0;"/><!--MD5=[b4932895df9f4b3c5bd55b6a777709f4]
link *start*ActualizarDatosCuenta to 2--><g id="link_*start*ActualizarDatosCuenta_2"><path d="M146,217.6494 C146,225.7994 146,238.1694 146,249.2094 " fill="none" id="*start*ActualizarDatosCuenta-to-2" style="stroke:#008000;stroke-width:1.0;"/><polygon fill="#008000" points="146,254.4994,150,245.4994,146,249.4994,142,245.4994,146,254.4994" style="stroke:#008000;stroke-width:1.0;"/></g><!--MD5=[eeb69082328d10abd3b14fdeede0d8a3]
link 2 to 3--><g id="link_2_3"><path d="M120.92,283.8194 C87.63,294.7194 33,312.6094 33,312.6094 C33,312.6094 33,495.6094 33,495.6094 C33,495.6094 35.33,504.6994 37.84,514.5294 " fill="none" id="2-to-3" style="stroke:#008000;stroke-width:1.0;"/><polygon fill="#008000" points="39.08,519.3694,40.7509,509.6633,37.8539,514.522,32.9952,511.625,39.08,519.3694" style="stroke:#008000;stroke-width:1.0;"/><path d="M38,317.6094 L38,490.6094 L241,490.6094 L241,327.6094 L231,317.6094 L38,317.6094 " fill="#F5F5F5" style="stroke:#181818;stroke-width:0.5;"/><path d="M231,317.6094 L231,327.6094 L241,327.6094 L231,317.6094 " fill="#F5F5F5" style="stroke:#181818;stroke-width:0.5;"/><text fill="#000000" font-family="sans-serif" font-size="13" font-weight="bold" lengthAdjust="spacing" textLength="103" x="44" y="336.1045">Sistema Solicita</text><ellipse cx="49.5" cy="347.8125" fill="#000000" rx="2.5" ry="2.5" style="stroke:#000000;stroke-width:0.0;"/><text fill="#000000" font-family="sans-serif" font-size="13" lengthAdjust="spacing" textLength="45" x="57" y="352.4561">Nombre</text><ellipse cx="49.5" cy="364.1641" fill="#000000" rx="2.5" ry="2.5" style="stroke:#000000;stroke-width:0.0;"/><text fill="#000000" font-family="sans-serif" font-size="13" lengthAdjust="spacing" textLength="46" x="57" y="368.8076">Apellido</text><ellipse cx="49.5" cy="380.5156" fill="#000000" rx="2.5" ry="2.5" style="stroke:#000000;stroke-width:0.0;"/><text fill="#000000" font-family="sans-serif" font-size="13" lengthAdjust="spacing" textLength="121" x="57" y="385.1592">Fecha de nacimiento</text><ellipse cx="49.5" cy="396.8672" fill="#000000" rx="2.5" ry="2.5" style="stroke:#000000;stroke-width:0.0;"/><text fill="#000000" font-family="sans-serif" font-size="13" lengthAdjust="spacing" textLength="33" x="57" y="401.5107">Email</text><ellipse cx="49.5" cy="413.2188" fill="#000000" rx="2.5" ry="2.5" style="stroke:#000000;stroke-width:0.0;"/><text fill="#000000" font-family="sans-serif" font-size="13" lengthAdjust="spacing" textLength="66" x="57" y="417.8623">Contraseña</text><ellipse cx="49.5" cy="429.5703" fill="#000000" rx="2.5" ry="2.5" style="stroke:#000000;stroke-width:0.0;"/><text fill="#000000" font-family="sans-serif" font-size="13" lengthAdjust="spacing" textLength="57" x="57" y="434.2139">Ubicación</text><ellipse cx="49.5" cy="445.9219" fill="#000000" rx="2.5" ry="2.5" style="stroke:#000000;stroke-width:0.0;"/><text fill="#000000" font-family="sans-serif" font-size="13" lengthAdjust="spacing" textLength="62" x="57" y="450.5654">Ocupación</text><text fill="#000000" font-family="sans-serif" font-size="13" font-weight="bold" lengthAdjust="spacing" textLength="105" x="44" y="466.917">Sistema Permite</text><ellipse cx="49.5" cy="478.625" fill="#000000" rx="2.5" ry="2.5" style="stroke:#000000;stroke-width:0.0;"/><text fill="#000000" font-family="sans-serif" font-size="13" lengthAdjust="spacing" textLength="169" x="57" y="483.2686">Actualizar datos de la cuenta</text></g><!--MD5=[b1f22f0c97e7f2b556a5a2d67c42ac53]
link 3 to 4--><g id="link_3_4"><path d="M47.68,559.8194 C57.04,608.6394 81,733.6094 81,733.6094 C81,733.6094 122.91,749.3894 144.89,757.6694 " fill="none" id="3-to-4" style="stroke:#008000;stroke-width:1.0;"/><polygon fill="#008000" points="149.76,759.5094,142.763,752.5781,145.0848,757.7365,139.9265,760.0584,149.76,759.5094" style="stroke:#008000;stroke-width:1.0;"/><path d="M86,588.6094 L86,728.6094 L241,728.6094 L241,598.6094 L231,588.6094 L86,588.6094 " fill="#F5F5F5" style="stroke:#181818;stroke-width:0.5;"/><path d="M231,588.6094 L231,598.6094 L241,598.6094 L231,588.6094 " fill="#F5F5F5" style="stroke:#181818;stroke-width:0.5;"/><text fill="#000000" font-family="sans-serif" font-size="13" font-weight="bold" lengthAdjust="spacing" textLength="112" x="92" y="607.1045">Usuario introduce</text><ellipse cx="97.5" cy="618.8125" fill="#000000" rx="2.5" ry="2.5" style="stroke:#000000;stroke-width:0.0;"/><text fill="#000000" font-family="sans-serif" font-size="13" lengthAdjust="spacing" textLength="45" x="105" y="623.4561">Nombre</text><ellipse cx="97.5" cy="635.1641" fill="#000000" rx="2.5" ry="2.5" style="stroke:#000000;stroke-width:0.0;"/><text fill="#000000" font-family="sans-serif" font-size="13" lengthAdjust="spacing" textLength="46" x="105" y="639.8076">Apellido</text><ellipse cx="97.5" cy="651.5156" fill="#000000" rx="2.5" ry="2.5" style="stroke:#000000;stroke-width:0.0;"/><text fill="#000000" font-family="sans-serif" font-size="13" lengthAdjust="spacing" textLength="121" x="105" y="656.1592">Fecha de nacimiento</text><ellipse cx="97.5" cy="667.8672" fill="#000000" rx="2.5" ry="2.5" style="stroke:#000000;stroke-width:0.0;"/><text fill="#000000" font-family="sans-serif" font-size="13" lengthAdjust="spacing" textLength="33" x="105" y="672.5107">Email</text><ellipse cx="97.5" cy="684.2188" fill="#000000" rx="2.5" ry="2.5" style="stroke:#000000;stroke-width:0.0;"/><text fill="#000000" font-family="sans-serif" font-size="13" lengthAdjust="spacing" textLength="66" x="105" y="688.8623">Contraseña</text><ellipse cx="97.5" cy="700.5703" fill="#000000" rx="2.5" ry="2.5" style="stroke:#000000;stroke-width:0.0;"/><text fill="#000000" font-family="sans-serif" font-size="13" lengthAdjust="spacing" textLength="57" x="105" y="705.2139">Ubicación</text><ellipse cx="97.5" cy="716.9219" fill="#000000" rx="2.5" ry="2.5" style="stroke:#000000;stroke-width:0.0;"/><text fill="#000000" font-family="sans-serif" font-size="13" lengthAdjust="spacing" textLength="62" x="105" y="721.5654">Ocupación</text></g><!--MD5=[42e524c433abfb8abcc9f49d926fa8cc]
link 4 to *end*ActualizarDatosCuenta--><g id="link_4_*end*ActualizarDatosCuenta"><path d="M158,775.7594 C158,795.5394 158,836.6994 158,858.4494 " fill="none" id="4-to-*end*ActualizarDatosCuenta" style="stroke:#008000;stroke-width:1.0;"/><polygon fill="#008000" points="158,863.5294,162,854.5294,158,858.5294,154,854.5294,158,863.5294" style="stroke:#008000;stroke-width:1.0;"/><path d="M163,798.6094 L163,840.6094 L311,840.6094 L311,808.6094 L301,798.6094 L163,798.6094 " fill="#F5F5F5" style="stroke:#181818;stroke-width:0.5;"/><path d="M301,798.6094 L301,808.6094 L311,808.6094 L301,798.6094 " fill="#F5F5F5" style="stroke:#181818;stroke-width:0.5;"/><text fill="#000000" font-family="sans-serif" font-size="13" font-weight="bold" lengthAdjust="spacing" textLength="105" x="169" y="817.1045">Sistema Muestra</text><ellipse cx="174.5" cy="828.8125" fill="#000000" rx="2.5" ry="2.5" style="stroke:#000000;stroke-width:0.0;"/><text fill="#000000" font-family="sans-serif" font-size="13" lengthAdjust="spacing" textLength="114" x="182" y="833.4561">Cambios realizados</text></g><!--MD5=[d5d43b3f3dfddbfb6ca65af0419a6a54]
link 4 to 2--><g id="link_4_2"><path d="M166.44,759.8294 C188.46,752.5694 246,733.6094 246,733.6094 C246,733.6094 246,312.6094 246,312.6094 C246,312.6094 205.66,297.6794 176.22,286.7894 " fill="none" id="4-to-2" style="stroke:#FF0000;stroke-width:1.0;"/><polygon fill="#FF0000" points="171.23,284.9494,178.2894,291.8171,175.921,286.6799,181.0582,284.3115,171.23,284.9494" style="stroke:#FF0000;stroke-width:1.0;"/><path d="M251,518.6094 L251,560.6094 L531,560.6094 L531,528.6094 L521,518.6094 L251,518.6094 " fill="#F5F5F5" style="stroke:#181818;stroke-width:0.5;"/><path d="M521,518.6094 L521,528.6094 L531,528.6094 L521,518.6094 " fill="#F5F5F5" style="stroke:#181818;stroke-width:0.5;"/><text fill="#000000" font-family="sans-serif" font-size="13" font-weight="bold" lengthAdjust="spacing" textLength="105" x="257" y="537.1045">Sistema Muestra</text><ellipse cx="262.5" cy="548.8125" fill="#000000" rx="2.5" ry="2.5" style="stroke:#000000;stroke-width:0.0;"/><text fill="#000000" font-family="sans-serif" font-size="13" lengthAdjust="spacing" textLength="246" x="270" y="553.4561">Mensaje de error en los datos introducidos</text></g><!--MD5=[24de30e7a6e6a7c30ed8228fbf375dc7]
link startState to ActualizarDatosCuenta--><g id="link_startState_ActualizarDatosCuenta"><path d="M273.5,47.2 C273.5,68.99 273.5,107.58 273.5,153.71 " fill="none" id="startState-to-ActualizarDatosCuenta" style="stroke:#008000;stroke-width:1.0;"/><polygon fill="#008000" points="273.5,158.78,277.5,149.78,273.5,153.78,269.5,149.78,273.5,158.78" style="stroke:#008000;stroke-width:1.0;"/><path d="M278.5,82 L278.5,124 L481.5,124 L481.5,92 L471.5,82 L278.5,82 " fill="#F5F5F5" style="stroke:#181818;stroke-width:0.5;"/><path d="M471.5,82 L471.5,92 L481.5,92 L471.5,82 " fill="#F5F5F5" style="stroke:#181818;stroke-width:0.5;"/><text fill="#000000" font-family="sans-serif" font-size="13" font-weight="bold" lengthAdjust="spacing" textLength="100" x="284.5" y="100.4951">Usuario Solicita</text><ellipse cx="290" cy="112.2031" fill="#000000" rx="2.5" ry="2.5" style="stroke:#000000;stroke-width:0.0;"/><text fill="#000000" font-family="sans-serif" font-size="13" lengthAdjust="spacing" textLength="169" x="297.5" y="116.8467">Actualizar datos de la cuenta</text></g><!--MD5=[a6b7e4e4a5877306265d9890658acdaa]
@startuml
skinparam {
    NoteBackgroundColor #whiteSmoke
    ArrowColor #green
    NoteBorderColor #green
    linetype polyline
}

hide empty description

state startState as "INITIAL"

startState - -> ActualizarDatosCuenta
note on link
    <b>Usuario Solicita</b>
    * Actualizar datos de la cuenta
end note

state ActualizarDatosCuenta {
state 2 as " "
state 3 as " "
state 4 <<choice>>

[*] -down-> 2

2 -down-> 3
note on link
<b>Sistema Solicita</b>
* Nombre
* Apellido
* Fecha de nacimiento
* Email
* Contraseña
* Ubicación
* Ocupación
<b>Sistema Permite</b>
* Actualizar datos de la cuenta
end note

3 -down-> 4
note on link
<b>Usuario introduce</b>
* Nombre
* Apellido
* Fecha de nacimiento
* Email
* Contraseña
* Ubicación
* Ocupación
end note

4 -down-> [*]
note on link
<b>Sistema Muestra</b>
* Cambios realizados
end note

4 -[#red]-> 2
note on link
<b>Sistema Muestra</b>
* Mensaje de error en los datos introducidos
end note

}

@enduml

PlantUML version 1.2022.7(Mon Aug 22 19:01:30 CEST 2022)
(GPL source distribution)
Java Runtime: Java(TM) SE Runtime Environment
JVM: Java HotSpot(TM) Client VM
Default Encoding: Cp1252
Language: es
Country: ES
--></g></svg>