<?xml version="1.0" encoding="UTF-8" standalone="no"?><svg xmlns="http://www.w3.org/2000/svg" xmlns:xlink="http://www.w3.org/1999/xlink" contentStyleType="text/css" height="938px" preserveAspectRatio="none" style="width:553px;height:938px;background:#FFFFFF;" version="1.1" viewBox="0 0 553 938" width="553px" zoomAndPan="magnify"><defs/><g><rect fill="none" height="27.6094" id="_title" style="stroke:none;stroke-width:1.0;" width="211" x="161" y="5"/><text fill="#000000" font-family="sans-serif" font-size="14" font-weight="bold" lengthAdjust="spacing" textLength="201" x="166" y="24.5332">Actualizar datos de la cuenta</text><rect fill="#F1F1F1" height="40" rx="12.5" ry="12.5" style="stroke:#181818;stroke-width:0.5;" width="54" x="246.5" y="45.6094"/><text fill="#000000" font-family="sans-serif" font-size="14" lengthAdjust="spacing" textLength="44" x="251.5" y="71.3379">INITIAL</text><path d="M19.5,197.6094 L527.5,197.6094 A12.5,12.5 0 0 1 540,210.1094 L540,225.2188 L7,225.2188 L7,210.1094 A12.5,12.5 0 0 1 19.5,197.6094 " fill="#F1F1F1" style="stroke:#F1F1F1;stroke-width:1.0;"/><rect fill="none" height="734.6094" rx="12.5" ry="12.5" style="stroke:#181818;stroke-width:0.5;" width="533" x="7" y="197.6094"/><line style="stroke:#181818;stroke-width:0.5;" x1="7" x2="540" y1="225.2188" y2="225.2188"/><text fill="#000000" font-family="sans-serif" font-size="14" lengthAdjust="spacing" textLength="144" x="201.5" y="217.1426">ActualizarDatosCuenta</text><rect fill="#F1F1F1" height="40" rx="12.5" ry="12.5" style="stroke:#181818;stroke-width:0.5;" width="50" x="121" y="293.2188"/><text fill="#000000" font-family="sans-serif" font-size="14" lengthAdjust="spacing" textLength="4" x="144" y="318.9473"> </text><rect fill="#F1F1F1" height="40" rx="12.5" ry="12.5" style="stroke:#181818;stroke-width:0.5;" width="50" x="19" y="558.2188"/><text fill="#000000" font-family="sans-serif" font-size="14" lengthAdjust="spacing" textLength="4" x="42" y="583.9473"> </text><g id="elem_4"><polygon fill="#F1F1F1" points="158,790.2188,170,802.2188,158,814.2188,146,802.2188,158,790.2188" style="stroke:#181818;stroke-width:0.5;"/></g><ellipse cx="146" cy="246.2188" fill="#222222" rx="10" ry="10" style="stroke:none;stroke-width:1.0;"/><ellipse cx="158" cy="912.2188" fill="none" rx="10" ry="10" style="stroke:#222222;stroke-width:1.0;"/><ellipse cx="158.5" cy="912.7188" fill="#222222" rx="6" ry="6" style="stroke:none;stroke-width:1.0;"/><!--MD5=[b4932895df9f4b3c5bd55b6a777709f4]
link *start*ActualizarDatosCuenta to 2--><g id="link_*start*ActualizarDatosCuenta_2"><path d="M146,256.2587 C146,264.4088 146,276.7787 146,287.8188 " fill="none" id="*start*ActualizarDatosCuenta-to-2" style="stroke:#008000;stroke-width:1.0;"/><polygon fill="#008000" points="146,293.1088,150,284.1088,146,288.1088,142,284.1088,146,293.1088" style="stroke:#008000;stroke-width:1.0;"/></g><!--MD5=[eeb69082328d10abd3b14fdeede0d8a3]
link 2 to 3--><g id="link_2_3"><path d="M120.92,322.4288 C87.63,333.3288 33,351.2188 33,351.2188 C33,351.2188 33,534.2188 33,534.2188 C33,534.2188 35.33,543.3087 37.84,553.1388 " fill="none" id="2-to-3" style="stroke:#008000;stroke-width:1.0;"/><polygon fill="#008000" points="39.08,557.9788,40.7509,548.2727,37.8539,553.1314,32.9952,550.2344,39.08,557.9788" style="stroke:#008000;stroke-width:1.0;"/><path d="M38,356.2188 L38,529.2188 L241,529.2188 L241,366.2188 L231,356.2188 L38,356.2188 " fill="#F5F5F5" style="stroke:#181818;stroke-width:0.5;"/><path d="M231,356.2188 L231,366.2188 L241,366.2188 L231,356.2188 " fill="#F5F5F5" style="stroke:#181818;stroke-width:0.5;"/><text fill="#000000" font-family="sans-serif" font-size="13" font-weight="bold" lengthAdjust="spacing" textLength="103" x="44" y="374.7139">Sistema Solicita</text><ellipse cx="49.5" cy="386.4219" fill="#000000" rx="2.5" ry="2.5" style="stroke:#000000;stroke-width:0.0;"/><text fill="#000000" font-family="sans-serif" font-size="13" lengthAdjust="spacing" textLength="45" x="57" y="391.0654">Nombre</text><ellipse cx="49.5" cy="402.7734" fill="#000000" rx="2.5" ry="2.5" style="stroke:#000000;stroke-width:0.0;"/><text fill="#000000" font-family="sans-serif" font-size="13" lengthAdjust="spacing" textLength="46" x="57" y="407.417">Apellido</text><ellipse cx="49.5" cy="419.125" fill="#000000" rx="2.5" ry="2.5" style="stroke:#000000;stroke-width:0.0;"/><text fill="#000000" font-family="sans-serif" font-size="13" lengthAdjust="spacing" textLength="121" x="57" y="423.7686">Fecha de nacimiento</text><ellipse cx="49.5" cy="435.4766" fill="#000000" rx="2.5" ry="2.5" style="stroke:#000000;stroke-width:0.0;"/><text fill="#000000" font-family="sans-serif" font-size="13" lengthAdjust="spacing" textLength="33" x="57" y="440.1201">Email</text><ellipse cx="49.5" cy="451.8281" fill="#000000" rx="2.5" ry="2.5" style="stroke:#000000;stroke-width:0.0;"/><text fill="#000000" font-family="sans-serif" font-size="13" lengthAdjust="spacing" textLength="66" x="57" y="456.4717">Contraseña</text><ellipse cx="49.5" cy="468.1797" fill="#000000" rx="2.5" ry="2.5" style="stroke:#000000;stroke-width:0.0;"/><text fill="#000000" font-family="sans-serif" font-size="13" lengthAdjust="spacing" textLength="57" x="57" y="472.8232">Ubicación</text><ellipse cx="49.5" cy="484.5313" fill="#000000" rx="2.5" ry="2.5" style="stroke:#000000;stroke-width:0.0;"/><text fill="#000000" font-family="sans-serif" font-size="13" lengthAdjust="spacing" textLength="62" x="57" y="489.1748">Ocupación</text><text fill="#000000" font-family="sans-serif" font-size="13" font-weight="bold" lengthAdjust="spacing" textLength="105" x="44" y="505.5264">Sistema Permite</text><ellipse cx="49.5" cy="517.2344" fill="#000000" rx="2.5" ry="2.5" style="stroke:#000000;stroke-width:0.0;"/><text fill="#000000" font-family="sans-serif" font-size="13" lengthAdjust="spacing" textLength="169" x="57" y="521.8779">Actualizar datos de la cuenta</text></g><!--MD5=[b1f22f0c97e7f2b556a5a2d67c42ac53]
link 3 to 4--><g id="link_3_4"><path d="M47.68,598.4288 C57.04,647.2488 81,772.2188 81,772.2188 C81,772.2188 122.91,787.9988 144.89,796.2788 " fill="none" id="3-to-4" style="stroke:#008000;stroke-width:1.0;"/><polygon fill="#008000" points="149.76,798.1188,142.763,791.1875,145.0848,796.3459,139.9265,798.6678,149.76,798.1188" style="stroke:#008000;stroke-width:1.0;"/><path d="M86,627.2188 L86,767.2188 L241,767.2188 L241,637.2188 L231,627.2188 L86,627.2188 " fill="#F5F5F5" style="stroke:#181818;stroke-width:0.5;"/><path d="M231,627.2188 L231,637.2188 L241,637.2188 L231,627.2188 " fill="#F5F5F5" style="stroke:#181818;stroke-width:0.5;"/><text fill="#000000" font-family="sans-serif" font-size="13" font-weight="bold" lengthAdjust="spacing" textLength="112" x="92" y="645.7139">Usuario introduce</text><ellipse cx="97.5" cy="657.4219" fill="#000000" rx="2.5" ry="2.5" style="stroke:#000000;stroke-width:0.0;"/><text fill="#000000" font-family="sans-serif" font-size="13" lengthAdjust="spacing" textLength="45" x="105" y="662.0654">Nombre</text><ellipse cx="97.5" cy="673.7734" fill="#000000" rx="2.5" ry="2.5" style="stroke:#000000;stroke-width:0.0;"/><text fill="#000000" font-family="sans-serif" font-size="13" lengthAdjust="spacing" textLength="46" x="105" y="678.417">Apellido</text><ellipse cx="97.5" cy="690.125" fill="#000000" rx="2.5" ry="2.5" style="stroke:#000000;stroke-width:0.0;"/><text fill="#000000" font-family="sans-serif" font-size="13" lengthAdjust="spacing" textLength="121" x="105" y="694.7686">Fecha de nacimiento</text><ellipse cx="97.5" cy="706.4766" fill="#000000" rx="2.5" ry="2.5" style="stroke:#000000;stroke-width:0.0;"/><text fill="#000000" font-family="sans-serif" font-size="13" lengthAdjust="spacing" textLength="33" x="105" y="711.1201">Email</text><ellipse cx="97.5" cy="722.8281" fill="#000000" rx="2.5" ry="2.5" style="stroke:#000000;stroke-width:0.0;"/><text fill="#000000" font-family="sans-serif" font-size="13" lengthAdjust="spacing" textLength="66" x="105" y="727.4717">Contraseña</text><ellipse cx="97.5" cy="739.1797" fill="#000000" rx="2.5" ry="2.5" style="stroke:#000000;stroke-width:0.0;"/><text fill="#000000" font-family="sans-serif" font-size="13" lengthAdjust="spacing" textLength="57" x="105" y="743.8232">Ubicación</text><ellipse cx="97.5" cy="755.5313" fill="#000000" rx="2.5" ry="2.5" style="stroke:#000000;stroke-width:0.0;"/><text fill="#000000" font-family="sans-serif" font-size="13" lengthAdjust="spacing" textLength="62" x="105" y="760.1748">Ocupación</text></g><!--MD5=[42e524c433abfb8abcc9f49d926fa8cc]
link 4 to *end*ActualizarDatosCuenta--><g id="link_4_*end*ActualizarDatosCuenta"><path d="M158,814.3688 C158,834.1488 158,875.3088 158,897.0588 " fill="none" id="4-to-*end*ActualizarDatosCuenta" style="stroke:#008000;stroke-width:1.0;"/><polygon fill="#008000" points="158,902.1388,162,893.1388,158,897.1388,154,893.1388,158,902.1388" style="stroke:#008000;stroke-width:1.0;"/><path d="M163,837.2188 L163,879.2188 L311,879.2188 L311,847.2188 L301,837.2188 L163,837.2188 " fill="#F5F5F5" style="stroke:#181818;stroke-width:0.5;"/><path d="M301,837.2188 L301,847.2188 L311,847.2188 L301,837.2188 " fill="#F5F5F5" style="stroke:#181818;stroke-width:0.5;"/><text fill="#000000" font-family="sans-serif" font-size="13" font-weight="bold" lengthAdjust="spacing" textLength="105" x="169" y="855.7139">Sistema Muestra</text><ellipse cx="174.5" cy="867.4219" fill="#000000" rx="2.5" ry="2.5" style="stroke:#000000;stroke-width:0.0;"/><text fill="#000000" font-family="sans-serif" font-size="13" lengthAdjust="spacing" textLength="114" x="182" y="872.0654">Cambios realizados</text></g><!--MD5=[d5d43b3f3dfddbfb6ca65af0419a6a54]
link 4 to 2--><g id="link_4_2"><path d="M166.44,798.4388 C188.46,791.1788 246,772.2188 246,772.2188 C246,772.2188 246,351.2188 246,351.2188 C246,351.2188 205.66,336.2888 176.22,325.3987 " fill="none" id="4-to-2" style="stroke:#FF0000;stroke-width:1.0;"/><polygon fill="#FF0000" points="171.23,323.5588,178.2894,330.4265,175.921,325.2893,181.0582,322.9209,171.23,323.5588" style="stroke:#FF0000;stroke-width:1.0;"/><path d="M251,557.2188 L251,599.2188 L531,599.2188 L531,567.2188 L521,557.2188 L251,557.2188 " fill="#F5F5F5" style="stroke:#181818;stroke-width:0.5;"/><path d="M521,557.2188 L521,567.2188 L531,567.2188 L521,557.2188 " fill="#F5F5F5" style="stroke:#181818;stroke-width:0.5;"/><text fill="#000000" font-family="sans-serif" font-size="13" font-weight="bold" lengthAdjust="spacing" textLength="105" x="257" y="575.7139">Sistema Muestra</text><ellipse cx="262.5" cy="587.4219" fill="#000000" rx="2.5" ry="2.5" style="stroke:#000000;stroke-width:0.0;"/><text fill="#000000" font-family="sans-serif" font-size="13" lengthAdjust="spacing" textLength="246" x="270" y="592.0654">Mensaje de error en los datos introducidos</text></g><!--MD5=[24de30e7a6e6a7c30ed8228fbf375dc7]
link startState to ActualizarDatosCuenta--><g id="link_startState_ActualizarDatosCuenta"><path d="M273.5,85.8094 C273.5,107.5994 273.5,146.1894 273.5,192.3194 " fill="none" id="startState-to-ActualizarDatosCuenta" style="stroke:#008000;stroke-width:1.0;"/><polygon fill="#008000" points="273.5,197.3894,277.5,188.3894,273.5,192.3894,269.5,188.3894,273.5,197.3894" style="stroke:#008000;stroke-width:1.0;"/><path d="M278.5,120.6094 L278.5,162.6094 L481.5,162.6094 L481.5,130.6094 L471.5,120.6094 L278.5,120.6094 " fill="#F5F5F5" style="stroke:#181818;stroke-width:0.5;"/><path d="M471.5,120.6094 L471.5,130.6094 L481.5,130.6094 L471.5,120.6094 " fill="#F5F5F5" style="stroke:#181818;stroke-width:0.5;"/><text fill="#000000" font-family="sans-serif" font-size="13" font-weight="bold" lengthAdjust="spacing" textLength="100" x="284.5" y="139.1045">Usuario Solicita</text><ellipse cx="290" cy="150.8125" fill="#000000" rx="2.5" ry="2.5" style="stroke:#000000;stroke-width:0.0;"/><text fill="#000000" font-family="sans-serif" font-size="13" lengthAdjust="spacing" textLength="169" x="297.5" y="155.4561">Actualizar datos de la cuenta</text></g><!--MD5=[e7f5277be64a2583cf125e6c2e82e6f9]
@startuml

title Actualizar datos de la cuenta

skinparam {
    NoteBackgroundColor #whiteSmoke
    ArrowColor #green
    NoteBorderColor #green
    linetype polyline
}

hide empty description

state startState as "INITIAL"

startState - -> ActualizarDatosCuenta
note on link
    <b>Usuario Solicita</b>
    * Actualizar datos de la cuenta
end note

state ActualizarDatosCuenta {
state 2 as " "
state 3 as " "
state 4 <<choice>>

[*] -down-> 2

2 -down-> 3
note on link
<b>Sistema Solicita</b>
* Nombre
* Apellido
* Fecha de nacimiento
* Email
* Contraseña
* Ubicación
* Ocupación
<b>Sistema Permite</b>
* Actualizar datos de la cuenta
end note

3 -down-> 4
note on link
<b>Usuario introduce</b>
* Nombre
* Apellido
* Fecha de nacimiento
* Email
* Contraseña
* Ubicación
* Ocupación
end note

4 -down-> [*]
note on link
<b>Sistema Muestra</b>
* Cambios realizados
end note

4 -[#red]-> 2
note on link
<b>Sistema Muestra</b>
* Mensaje de error en los datos introducidos
end note

}

@enduml

PlantUML version 1.2022.7(Mon Aug 22 19:01:30 CEST 2022)
(GPL source distribution)
Java Runtime: Java(TM) SE Runtime Environment
JVM: Java HotSpot(TM) Client VM
Default Encoding: Cp1252
Language: es
Country: ES
--></g></svg>