<?xml version="1.0" encoding="UTF-8" standalone="no"?><svg xmlns="http://www.w3.org/2000/svg" xmlns:xlink="http://www.w3.org/1999/xlink" contentStyleType="text/css" height="369px" preserveAspectRatio="none" style="width:339px;height:369px;background:#FFFFFF;" version="1.1" viewBox="0 0 339 369" width="339px" zoomAndPan="magnify"><defs/><g><ellipse cx="165" cy="16" fill="#222222" rx="10" ry="10" style="stroke:none;stroke-width:1.0;"/><g id="ActualizarDatosCuenta"><rect fill="#F1F1F1" height="50" rx="12.5" ry="12.5" style="stroke:#181818;stroke-width:0.5;" width="164" x="83" y="102"/><line style="stroke:#181818;stroke-width:0.5;" x1="83" x2="247" y1="128.0986" y2="128.0986"/><text fill="#000000" font-family="Arial" font-size="14" lengthAdjust="spacing" textLength="144" x="93" y="120.3608">ActualizarDatosCuenta</text></g><g id="elem_ComprobarDatos"><polygon fill="#F1F1F1" points="165,228,177,240,165,252,153,240,165,228" style="stroke:#181818;stroke-width:0.5;"/></g><g id="DatosActualizados"><rect fill="#F1F1F1" height="50" rx="12.5" ry="12.5" style="stroke:#181818;stroke-width:0.5;" width="136" x="7" y="313"/><line style="stroke:#181818;stroke-width:0.5;" x1="7" x2="143" y1="339.0986" y2="339.0986"/><text fill="#000000" font-family="Arial" font-size="14" lengthAdjust="spacing" textLength="116" x="17" y="331.3608">DatosActualizados</text></g><g id="DatosNoActualizados"><rect fill="#F1F1F1" height="50" rx="12.5" ry="12.5" style="stroke:#181818;stroke-width:0.5;" width="153" x="178.5" y="313"/><line style="stroke:#181818;stroke-width:0.5;" x1="178.5" x2="331.5" y1="339.0986" y2="339.0986"/><text fill="#000000" font-family="Arial" font-size="14" lengthAdjust="spacing" textLength="133" x="188.5" y="331.3608">DatosNoActualizados</text></g><!--MD5=[89684d8fdb86750093fe225c64233d03]
link *start to ActualizarDatosCuenta--><g id="link_*start_ActualizarDatosCuenta"><path d="M165,26.29 C165,41.71 165,73.18 165,96.67 " fill="none" id="*start-to-ActualizarDatosCuenta" style="stroke:#181818;stroke-width:1.0;"/><polygon fill="#181818" points="165,101.85,169,92.85,165,96.85,161,92.85,165,101.85" style="stroke:#181818;stroke-width:1.0;"/><text fill="#000000" font-family="Arial" font-size="13" lengthAdjust="spacing" textLength="105" x="166" y="69.4065">Datos a actualizar</text></g><!--MD5=[fadf779267465f81e3262487a315d85d]
link ActualizarDatosCuenta to ComprobarDatos--><g id="link_ActualizarDatosCuenta_ComprobarDatos"><path d="M165,152.09 C165,173.35 165,203.79 165,222.43 " fill="none" id="ActualizarDatosCuenta-to-ComprobarDatos" style="stroke:#181818;stroke-width:1.0;"/><polygon fill="#181818" points="165,227.81,169,218.81,165,222.81,161,218.81,165,227.81" style="stroke:#181818;stroke-width:1.0;"/><text fill="#000000" font-family="Arial" font-size="13" lengthAdjust="spacing" textLength="165" x="166" y="195.4065">Se comprueban los cambios</text></g><!--MD5=[8a42092e6ad20166ec0156ddf053d215]
link ComprobarDatos to DatosActualizados--><g id="link_ComprobarDatos_DatosActualizados"><path d="M159.64,246.72 C148.41,258.7 121.75,287.13 101.33,308.91 " fill="none" id="ComprobarDatos-to-DatosActualizados" style="stroke:#181818;stroke-width:1.0;"/><polygon fill="#181818" points="97.85,312.62,106.9231,308.7887,101.2692,308.9719,101.0861,303.318,97.85,312.62" style="stroke:#181818;stroke-width:1.0;"/></g><!--MD5=[0133ccae2cfa5e54fb758e01d39fc2e4]
link ComprobarDatos to DatosNoActualizados--><g id="link_ComprobarDatos_DatosNoActualizados"><path d="M170.36,246.72 C181.59,258.7 208.25,287.13 228.67,308.91 " fill="none" id="ComprobarDatos-to-DatosNoActualizados" style="stroke:#181818;stroke-width:1.0;"/><polygon fill="#181818" points="232.15,312.62,228.9139,303.318,228.7308,308.9719,223.0769,308.7887,232.15,312.62" style="stroke:#181818;stroke-width:1.0;"/></g><!--MD5=[660c5f5a017b8b5aacb85bbb4a681fb5]
@startuml
skinparam defaultFontName Arial
top to bottom direction

[*] - -> ActualizarDatosCuenta: Datos a actualizar
state ComprobarDatos <<choice>>
ActualizarDatosCuenta - -> ComprobarDatos: Se comprueban los cambios
ComprobarDatos - -> DatosActualizados
ComprobarDatos - -> DatosNoActualizados
@enduml

PlantUML version 1.2022.7(Mon Aug 22 19:01:30 CEST 2022)
(GPL source distribution)
Java Runtime: Java(TM) SE Runtime Environment
JVM: Java HotSpot(TM) Client VM
Default Encoding: Cp1252
Language: es
Country: ES
--></g></svg>