<?xml version="1.0" encoding="UTF-8" standalone="no"?><svg xmlns="http://www.w3.org/2000/svg" xmlns:xlink="http://www.w3.org/1999/xlink" contentStyleType="text/css" height="969px" preserveAspectRatio="none" style="width:564px;height:969px;background:#FFFFFF;" version="1.1" viewBox="0 0 564 969" width="564px" zoomAndPan="magnify"><defs/><g><rect fill="none" height="29.0679" id="_title" style="stroke:none;stroke-width:1.0;" width="109" x="217.5" y="5"/><text fill="#000000" font-family="sans-serif" font-size="14" font-weight="bold" lengthAdjust="spacing" textLength="99" x="222.5" y="24.9659">Editar Servicio</text><rect fill="#F1F1F1" height="40" rx="12.5" ry="12.5" style="stroke:#181818;stroke-width:0.5;" width="148" x="205" y="47.0679"/><text fill="#000000" font-family="sans-serif" font-size="14" lengthAdjust="spacing" textLength="138" x="210" y="72.4999">GESTIÓN_SERVICIOS</text><rect fill="#F1F1F1" height="40" rx="12.5" ry="12.5" style="stroke:#181818;stroke-width:0.5;" width="148" x="205" y="923.1379"/><text fill="#000000" font-family="sans-serif" font-size="14" lengthAdjust="spacing" textLength="138" x="210" y="948.5699">GESTIÓN_SERVICIOS</text><path d="M19.5,202.0679 L538.5,202.0679 A12.5,12.5 0 0 1 551,214.5679 L551,231.1358 L7,231.1358 L7,214.5679 A12.5,12.5 0 0 1 19.5,202.0679 " fill="#F1F1F1" style="stroke:#F1F1F1;stroke-width:1.0;"/><rect fill="none" height="660.0679" rx="12.5" ry="12.5" style="stroke:#181818;stroke-width:0.5;" width="544" x="7" y="202.0679"/><line style="stroke:#181818;stroke-width:0.5;" x1="7" x2="551" y1="231.1358" y2="231.1358"/><text fill="#000000" font-family="sans-serif" font-size="14" lengthAdjust="spacing" textLength="92" x="233" y="222.0339">EditarServicio</text><rect fill="#F1F1F1" height="40" rx="12.5" ry="12.5" style="stroke:#181818;stroke-width:0.5;" width="50" x="126" y="299.1358"/><text fill="#000000" font-family="sans-serif" font-size="14" lengthAdjust="spacing" textLength="4" x="149" y="324.5678"> </text><rect fill="#F1F1F1" height="40" rx="12.5" ry="12.5" style="stroke:#181818;stroke-width:0.5;" width="50" x="19" y="525.6358"/><text fill="#000000" font-family="sans-serif" font-size="14" lengthAdjust="spacing" textLength="4" x="42" y="551.0678"> </text><g id="elem_4"><polygon fill="#F1F1F1" points="155,717.1358,167,729.1358,155,741.1358,143,729.1358,155,717.1358" style="stroke:#181818;stroke-width:0.5;"/></g><ellipse cx="151" cy="252.1358" fill="#222222" rx="10" ry="10" style="stroke:none;stroke-width:1.0;"/><ellipse cx="155" cy="842.1358" fill="none" rx="10" ry="10" style="stroke:#222222;stroke-width:1.0;"/><ellipse cx="155.5" cy="842.6358" fill="#222222" rx="6" ry="6" style="stroke:none;stroke-width:1.0;"/><!--MD5=[3529f60009354ecb31393deffee1e1e9]
link *start*EditarServicio to 2--><g id="link_*start*EditarServicio_2"><path d="M151,262.4458 C151,270.2358 151,281.7358 151,292.2658 " fill="none" id="*start*EditarServicio-to-2" style="stroke:#008000;stroke-width:1.0;"/><polygon fill="#008000" points="151,297.1458,155,288.1458,151,292.1458,147,288.1458,151,297.1458" style="stroke:#008000;stroke-width:1.0;"/></g><!--MD5=[eeb69082328d10abd3b14fdeede0d8a3]
link 2 to 3--><g id="link_2_3"><path d="M125.76,328.6258 C93.29,339.5458 41,357.1358 41,357.1358 C41,357.1358 41,500.1358 41,500.1358 C41,500.1358 41.6,508.9658 42.26,518.7558 " fill="none" id="2-to-3" style="stroke:#008000;stroke-width:1.0;"/><polygon fill="#008000" points="42.59,523.7358,45.9631,514.4826,42.247,518.7476,37.982,515.0315,42.59,523.7358" style="stroke:#008000;stroke-width:1.0;"/><path d="M46,362.1358 L46,495.1358 L244,495.1358 L244,372.1358 L234,362.1358 L46,362.1358 " fill="#F5F5F5" style="stroke:#181818;stroke-width:0.5;"/><path d="M234,362.1358 L234,372.1358 L244,372.1358 L234,362.1358 " fill="#F5F5F5" style="stroke:#181818;stroke-width:0.5;"/><text fill="#000000" font-family="sans-serif" font-size="13" font-weight="bold" lengthAdjust="spacing" textLength="103" x="52" y="381.0328">Sistema Solicita</text><ellipse cx="57.5" cy="395.0479" fill="#000000" rx="2.5" ry="2.5" style="stroke:#000000;stroke-width:0.0;"/><text fill="#000000" font-family="sans-serif" font-size="13" lengthAdjust="spacing" textLength="50" x="64" y="398.7389">Nombre</text><ellipse cx="57.5" cy="412.7539" fill="#000000" rx="2.5" ry="2.5" style="stroke:#000000;stroke-width:0.0;"/><text fill="#000000" font-family="sans-serif" font-size="13" lengthAdjust="spacing" textLength="37" x="64" y="416.4449">Precio</text><ellipse cx="57.5" cy="430.4599" fill="#000000" rx="2.5" ry="2.5" style="stroke:#000000;stroke-width:0.0;"/><text fill="#000000" font-family="sans-serif" font-size="13" lengthAdjust="spacing" textLength="88" x="64" y="434.1509">Url del Servicio</text><ellipse cx="57.5" cy="448.1659" fill="#000000" rx="2.5" ry="2.5" style="stroke:#000000;stroke-width:0.0;"/><text fill="#000000" font-family="sans-serif" font-size="13" lengthAdjust="spacing" textLength="69" x="64" y="451.8569">Descripción</text><text fill="#000000" font-family="sans-serif" font-size="13" font-weight="bold" lengthAdjust="spacing" textLength="108" x="52" y="469.5629">Sistema Permite</text><ellipse cx="57.5" cy="483.5779" fill="#000000" rx="2.5" ry="2.5" style="stroke:#000000;stroke-width:0.0;"/><text fill="#000000" font-family="sans-serif" font-size="13" lengthAdjust="spacing" textLength="165" x="64" y="487.2689">Actualizar datos del Servicio</text></g><!--MD5=[b1f22f0c97e7f2b556a5a2d67c42ac53]
link 3 to 4--><g id="link_3_4"><path d="M45.39,565.9458 C48.35,606.9858 55,699.1358 55,699.1358 C55,699.1358 112.13,715.7058 140.02,723.7958 " fill="none" id="3-to-4" style="stroke:#008000;stroke-width:1.0;"/><polygon fill="#008000" points="144.67,725.1358,137.15,718.7758,139.87,723.7358,134.91,726.4558,144.67,725.1358" style="stroke:#008000;stroke-width:1.0;"/><path d="M60,596.1358 L60,694.1358 L244,694.1358 L244,606.1358 L234,596.1358 L60,596.1358 " fill="#F5F5F5" style="stroke:#181818;stroke-width:0.5;"/><path d="M234,596.1358 L234,606.1358 L244,606.1358 L234,596.1358 " fill="#F5F5F5" style="stroke:#181818;stroke-width:0.5;"/><text fill="#000000" font-family="sans-serif" font-size="13" font-weight="bold" lengthAdjust="spacing" textLength="163" x="66" y="615.0328">Administrador introduce</text><ellipse cx="71.5" cy="629.0479" fill="#000000" rx="2.5" ry="2.5" style="stroke:#000000;stroke-width:0.0;"/><text fill="#000000" font-family="sans-serif" font-size="13" lengthAdjust="spacing" textLength="50" x="78" y="632.7389">Nombre</text><ellipse cx="71.5" cy="646.7539" fill="#000000" rx="2.5" ry="2.5" style="stroke:#000000;stroke-width:0.0;"/><text fill="#000000" font-family="sans-serif" font-size="13" lengthAdjust="spacing" textLength="37" x="78" y="650.4449">Precio</text><ellipse cx="71.5" cy="664.4599" fill="#000000" rx="2.5" ry="2.5" style="stroke:#000000;stroke-width:0.0;"/><text fill="#000000" font-family="sans-serif" font-size="13" lengthAdjust="spacing" textLength="88" x="78" y="668.1509">Url del Servicio</text><ellipse cx="71.5" cy="682.1659" fill="#000000" rx="2.5" ry="2.5" style="stroke:#000000;stroke-width:0.0;"/><text fill="#000000" font-family="sans-serif" font-size="13" lengthAdjust="spacing" textLength="69" x="78" y="685.8569">Descripción</text></g><!--MD5=[900f53852d075f0fcd0dc61221a3d23f]
link 4 to *end*EditarServicio--><g id="link_4_*end*EditarServicio"><path d="M155,741.5958 C155,761.5758 155,802.8058 155,825.4258 " fill="none" id="4-to-*end*EditarServicio" style="stroke:#008000;stroke-width:1.0;"/><polygon fill="#008000" points="155,830.2958,159,821.2958,155,825.2958,151,821.2958,155,830.2958" style="stroke:#008000;stroke-width:1.0;"/><path d="M160,764.1358 L160,809.1358 L308,809.1358 L308,774.1358 L298,764.1358 L160,764.1358 " fill="#F5F5F5" style="stroke:#181818;stroke-width:0.5;"/><path d="M298,764.1358 L298,774.1358 L308,774.1358 L298,764.1358 " fill="#F5F5F5" style="stroke:#181818;stroke-width:0.5;"/><text fill="#000000" font-family="sans-serif" font-size="13" font-weight="bold" lengthAdjust="spacing" textLength="110" x="166" y="783.0328">Sistema Muestra</text><ellipse cx="171.5" cy="797.0479" fill="#000000" rx="2.5" ry="2.5" style="stroke:#000000;stroke-width:0.0;"/><text fill="#000000" font-family="sans-serif" font-size="13" lengthAdjust="spacing" textLength="115" x="178" y="800.7389">Cambios realizados</text></g><!--MD5=[d5d43b3f3dfddbfb6ca65af0419a6a54]
link 4 to 2--><g id="link_4_2"><path d="M163.67,725.4558 C186.95,718.2758 249,699.1358 249,699.1358 C249,699.1358 249,357.1358 249,357.1358 C249,357.1358 211.11,342.8358 182.45,332.0058 " fill="none" id="4-to-2" style="stroke:#FF0000;stroke-width:1.0;"/><polygon fill="#FF0000" points="177.91,330.2958,184.9255,337.2083,182.5899,332.0562,187.742,329.7205,177.91,330.2958" style="stroke:#FF0000;stroke-width:1.0;"/><path d="M254,523.1358 L254,568.1358 L542,568.1358 L542,533.1358 L532,523.1358 L254,523.1358 " fill="#F5F5F5" style="stroke:#181818;stroke-width:0.5;"/><path d="M532,523.1358 L532,533.1358 L542,533.1358 L532,523.1358 " fill="#F5F5F5" style="stroke:#181818;stroke-width:0.5;"/><text fill="#000000" font-family="sans-serif" font-size="13" font-weight="bold" lengthAdjust="spacing" textLength="110" x="260" y="542.0328">Sistema Muestra</text><ellipse cx="265.5" cy="556.0479" fill="#000000" rx="2.5" ry="2.5" style="stroke:#000000;stroke-width:0.0;"/><text fill="#000000" font-family="sans-serif" font-size="13" lengthAdjust="spacing" textLength="255" x="272" y="559.7389">Mensaje de error en los datos introducidos</text></g><!--MD5=[b835ca2b009e28051d4f2cfb8dcd1fa8]
link startState to EditarServicio--><g id="link_startState_EditarServicio"><path d="M279,87.3779 C279,109.5679 279,148.9879 279,195.4779 " fill="none" id="startState-to-EditarServicio" style="stroke:#008000;stroke-width:1.0;"/><polygon fill="#008000" points="279,200.2679,283,191.2679,279,195.2679,275,191.2679,279,200.2679" style="stroke:#008000;stroke-width:1.0;"/><path d="M284,122.0679 L284,167.0679 L451,167.0679 L451,132.0679 L441,122.0679 L284,122.0679 " fill="#F5F5F5" style="stroke:#181818;stroke-width:0.5;"/><path d="M441,122.0679 L441,132.0679 L451,132.0679 L441,122.0679 " fill="#F5F5F5" style="stroke:#181818;stroke-width:0.5;"/><text fill="#000000" font-family="sans-serif" font-size="13" font-weight="bold" lengthAdjust="spacing" textLength="146" x="290" y="140.9649">Administrador Solicita</text><ellipse cx="295.5" cy="154.9799" fill="#000000" rx="2.5" ry="2.5" style="stroke:#000000;stroke-width:0.0;"/><text fill="#000000" font-family="sans-serif" font-size="13" lengthAdjust="spacing" textLength="84" x="302" y="158.6709">Editar Servicio</text></g><!--MD5=[68459608351fa80ed66615edfbdd82d9]
link EditarServicio to endState--><g id="link_EditarServicio_endState"><path d="M279,862.2979 C279,883.9279 279,902.5479 279,916.3579 " fill="none" id="EditarServicio-to-endState" style="stroke:#008000;stroke-width:1.0;"/><polygon fill="#008000" points="279,921.2279,283,912.2279,279,916.2279,275,912.2279,279,921.2279" style="stroke:#008000;stroke-width:1.0;"/></g><!--MD5=[2353a044bf068b931d59be1631fa6364]
@startuml

title Editar Servicio

skinparam {
    NoteBackgroundColor #whiteSmoke
    ArrowColor #green
    NoteBorderColor #green
    linetype polyline
}

hide empty description

state startState as "GESTIÓN_SERVICIOS"
state endState as "GESTIÓN_SERVICIOS"

startState - -> EditarServicio
note on link
    <b>Administrador Solicita</b>
    * Editar Servicio
end note

EditarServicio - -> endState

state EditarServicio {
state 2 as " "
state 3 as " "
state 4 <<choice>>

[*] -down-> 2

2 -down-> 3
note on link
<b>Sistema Solicita</b>
* Nombre
* Precio
* Url del Servicio
* Descripción
<b>Sistema Permite</b>
* Actualizar datos del Servicio
end note

3 -down-> 4
note on link
<b>Administrador introduce</b>
* Nombre
* Precio
* Url del Servicio
* Descripción
end note

4 -down-> [*]
note on link
<b>Sistema Muestra</b>
* Cambios realizados
end note

4 -[#red]-> 2
note on link
<b>Sistema Muestra</b>
* Mensaje de error en los datos introducidos
end note

}

@enduml

PlantUML version 1.2022.7(Mon Aug 22 19:01:30 CEST 2022)
(GPL source distribution)
Java Runtime: OpenJDK Runtime Environment
JVM: OpenJDK 64-Bit Server VM
Default Encoding: UTF-8
Language: es
Country: ES
--></g></svg>