<?xml version="1.0" encoding="UTF-8" standalone="no"?><svg xmlns="http://www.w3.org/2000/svg" xmlns:xlink="http://www.w3.org/1999/xlink" contentStyleType="text/css" height="2051px" preserveAspectRatio="none" style="width:479px;height:2051px;background:#FFFFFF;" version="1.1" viewBox="0 0 479 2051" width="479px" zoomAndPan="magnify"><defs/><g><rect fill="none" height="29.0679" id="_title" style="stroke:none;stroke-width:1.0;" width="338" x="63.64" y="5"/><text fill="#000000" font-family="sans-serif" font-size="14" font-weight="bold" lengthAdjust="spacing" textLength="328" x="68.64" y="24.9659">Estructura de los Casos de Uso (Administrador)</text><!--MD5=[0da457cd346282cb9ffbbcbb0652be17]
cluster cuentas--><g id="cluster_cuentas"><path d="M161.69,178.8979 L292.69,178.8979 A3.75,3.75 0 0 1 295.19,181.3979 L302.19,203.9658 L457.59,203.9658 A2.5,2.5 0 0 1 460.09,206.4658 L460.09,369.3979 A2.5,2.5 0 0 1 457.59,371.8979 L161.69,371.8979 A2.5,2.5 0 0 1 159.19,369.3979 L159.19,181.3979 A2.5,2.5 0 0 1 161.69,178.8979 " fill="none" style="stroke:#000000;stroke-width:1.5;"/><line style="stroke:#000000;stroke-width:1.5;" x1="159.19" x2="302.19" y1="203.9658" y2="203.9658"/><text fill="#000000" font-family="sans-serif" font-size="14" font-weight="bold" lengthAdjust="spacing" textLength="130" x="163.19" y="195.8639">Manejo de Usuario</text></g><!--MD5=[a86b8758458e11e030fd076d8ea1e0f1]
cluster ingreso--><g id="cluster_ingreso"><path d="M220.43,395.8979 L367.43,395.8979 A3.75,3.75 0 0 1 369.93,398.3979 L376.93,420.9658 L398.85,420.9658 A2.5,2.5 0 0 1 401.35,423.4658 L401.35,553.3979 A2.5,2.5 0 0 1 398.85,555.8979 L220.43,555.8979 A2.5,2.5 0 0 1 217.93,553.3979 L217.93,398.3979 A2.5,2.5 0 0 1 220.43,395.8979 " fill="none" style="stroke:#000000;stroke-width:1.5;"/><line style="stroke:#000000;stroke-width:1.5;" x1="217.93" x2="376.93" y1="420.9658" y2="420.9658"/><text fill="#000000" font-family="sans-serif" font-size="14" font-weight="bold" lengthAdjust="spacing" textLength="146" x="221.93" y="412.8639">Ingreso a Plataforma</text></g><!--MD5=[a2e01a3d20edbfd1dfe88f1aa873f491]
cluster CRDSuscripciones--><g id="cluster_CRDSuscripciones"><path d="M149.5,579.8979 L276.5,579.8979 A3.75,3.75 0 0 1 279,582.3979 L286,604.9658 L469.78,604.9658 A2.5,2.5 0 0 1 472.28,607.4658 L472.28,695.3979 A2.5,2.5 0 0 1 469.78,697.8979 L149.5,697.8979 A2.5,2.5 0 0 1 147,695.3979 L147,582.3979 A2.5,2.5 0 0 1 149.5,579.8979 " fill="none" style="stroke:#000000;stroke-width:1.5;"/><line style="stroke:#000000;stroke-width:1.5;" x1="147" x2="286" y1="604.9658" y2="604.9658"/><text fill="#000000" font-family="sans-serif" font-size="14" font-weight="bold" lengthAdjust="spacing" textLength="126" x="151" y="596.8639">CRD Suscripciones</text></g><!--MD5=[3558f5497e9d89aef061cf9bb7df249a]
cluster CRUDServicios--><g id="cluster_CRUDServicios"><path d="M213.04,721.8979 L318.04,721.8979 A3.75,3.75 0 0 1 320.54,724.3979 L327.54,746.9658 L406.24,746.9658 A2.5,2.5 0 0 1 408.74,749.4658 L408.74,1024.3979 A2.5,2.5 0 0 1 406.24,1026.8979 L213.04,1026.8979 A2.5,2.5 0 0 1 210.54,1024.3979 L210.54,724.3979 A2.5,2.5 0 0 1 213.04,721.8979 " fill="none" style="stroke:#000000;stroke-width:1.5;"/><line style="stroke:#000000;stroke-width:1.5;" x1="210.54" x2="327.54" y1="746.9658" y2="746.9658"/><text fill="#000000" font-family="sans-serif" font-size="14" font-weight="bold" lengthAdjust="spacing" textLength="104" x="214.54" y="738.8639">CRUD Servicios</text></g><!--MD5=[3efe4913bb7606f0a928d99050ddabc6]
cluster CRUDEgresados--><g id="cluster_CRUDEgresados"><path d="M208.91,1050.8979 L323.91,1050.8979 A3.75,3.75 0 0 1 326.41,1053.3979 L333.41,1075.9658 L410.37,1075.9658 A2.5,2.5 0 0 1 412.87,1078.4658 L412.87,1358.3979 A2.5,2.5 0 0 1 410.37,1360.8979 L208.91,1360.8979 A2.5,2.5 0 0 1 206.41,1358.3979 L206.41,1053.3979 A2.5,2.5 0 0 1 208.91,1050.8979 " fill="none" style="stroke:#000000;stroke-width:1.5;"/><line style="stroke:#000000;stroke-width:1.5;" x1="206.41" x2="333.41" y1="1075.9658" y2="1075.9658"/><text fill="#000000" font-family="sans-serif" font-size="14" font-weight="bold" lengthAdjust="spacing" textLength="114" x="210.41" y="1067.8639">CRUD Egresados</text></g><!--MD5=[6a030e930e55ab3fed80196992fe8282]
cluster CRUDPaquetes--><g id="cluster_CRUDPaquetes"><path d="M211.93,1384.8979 L319.93,1384.8979 A3.75,3.75 0 0 1 322.43,1387.3979 L329.43,1409.9658 L407.35,1409.9658 A2.5,2.5 0 0 1 409.85,1412.4658 L409.85,1687.3979 A2.5,2.5 0 0 1 407.35,1689.8979 L211.93,1689.8979 A2.5,2.5 0 0 1 209.43,1687.3979 L209.43,1387.3979 A2.5,2.5 0 0 1 211.93,1384.8979 " fill="none" style="stroke:#000000;stroke-width:1.5;"/><line style="stroke:#000000;stroke-width:1.5;" x1="209.43" x2="329.43" y1="1409.9658" y2="1409.9658"/><text fill="#000000" font-family="sans-serif" font-size="14" font-weight="bold" lengthAdjust="spacing" textLength="107" x="213.43" y="1401.8639">CRUD Paquetes</text></g><!--MD5=[10af996e2ffe433c81f0f63a8782af60]
cluster CRUDAdministradores--><g id="cluster_CRUDAdministradores"><path d="M195.28,1713.8979 L355.28,1713.8979 A3.75,3.75 0 0 1 357.78,1716.3979 L364.78,1738.9658 L424,1738.9658 A2.5,2.5 0 0 1 426.5,1741.4658 L426.5,2042.3979 A2.5,2.5 0 0 1 424,2044.8979 L195.28,2044.8979 A2.5,2.5 0 0 1 192.78,2042.3979 L192.78,1716.3979 A2.5,2.5 0 0 1 195.28,1713.8979 " fill="none" style="stroke:#000000;stroke-width:1.5;"/><line style="stroke:#000000;stroke-width:1.5;" x1="192.78" x2="364.78" y1="1738.9658" y2="1738.9658"/><text fill="#000000" font-family="sans-serif" font-size="14" font-weight="bold" lengthAdjust="spacing" textLength="159" x="196.78" y="1730.8639">CRUD Administradores</text></g><g id="elem_Actualización de Datos del Usuario"><ellipse cx="309.6383" cy="245.8976" fill="#F1F1F1" rx="134.4483" ry="29.2897" style="stroke:#181818;stroke-width:0.5;"/><text fill="#000000" font-family="sans-serif" font-size="14" lengthAdjust="spacing" textLength="233" x="193.1383" y="249.3296">Actualización de Datos del Usuario</text></g><g id="elem_Listar Datos del Usuario"><ellipse cx="309.6356" cy="332.901" fill="#F1F1F1" rx="102.1156" ry="22.8231" style="stroke:#181818;stroke-width:0.5;"/><text fill="#000000" font-family="sans-serif" font-size="14" lengthAdjust="spacing" textLength="160" x="226.6356" y="337.634">Listar Datos del Usuario</text></g><g id="elem_Iniciar Sesión"><ellipse cx="309.6428" cy="451.9005" fill="#F1F1F1" rx="75.7128" ry="17.5426" style="stroke:#181818;stroke-width:0.5;"/><text fill="#000000" font-family="sans-serif" font-size="14" lengthAdjust="spacing" textLength="91" x="261.1428" y="456.6334">Iniciar Sesión</text></g><g id="elem_Cerrar Sesión"><ellipse cx="309.6428" cy="521.9005" fill="#F1F1F1" rx="75.7128" ry="17.5426" style="stroke:#181818;stroke-width:0.5;"/><text fill="#000000" font-family="sans-serif" font-size="14" lengthAdjust="spacing" textLength="91" x="261.1428" y="526.6334">Cerrar Sesión</text></g><g id="elem_Listar Servicios / Paquetes de Servicios"><ellipse cx="309.6407" cy="649.8961" fill="#F1F1F1" rx="146.6407" ry="31.7281" style="stroke:#181818;stroke-width:0.5;"/><text fill="#000000" font-family="sans-serif" font-size="14" lengthAdjust="spacing" textLength="259" x="180.1407" y="653.328">Listar Servicios / Paquetes de Servicios</text></g><g id="elem_Crear Servicio"><ellipse cx="309.6436" cy="777.8946" fill="#F1F1F1" rx="76.3836" ry="17.6767" style="stroke:#181818;stroke-width:0.5;"/><text fill="#000000" font-family="sans-serif" font-size="14" lengthAdjust="spacing" textLength="93" x="260.1436" y="782.6276">Crear Servicio</text></g><g id="elem_Listar Servicios"><ellipse cx="309.6385" cy="848.8956" fill="#F1F1F1" rx="78.7885" ry="18.1577" style="stroke:#181818;stroke-width:0.5;"/><text fill="#000000" font-family="sans-serif" font-size="14" lengthAdjust="spacing" textLength="100" x="256.6385" y="853.6286">Listar Servicios</text></g><g id="elem_Editar Servicio"><ellipse cx="309.6437" cy="919.8986" fill="#F1F1F1" rx="77.4037" ry="17.8807" style="stroke:#181818;stroke-width:0.5;"/><text fill="#000000" font-family="sans-serif" font-size="14" lengthAdjust="spacing" textLength="96" x="258.6437" y="924.6316">Editar Servicio</text></g><g id="elem_Eliminar Servicio"><ellipse cx="309.6393" cy="991.8978" fill="#F1F1F1" rx="83.0993" ry="19.0199" style="stroke:#181818;stroke-width:0.5;"/><text fill="#000000" font-family="sans-serif" font-size="14" lengthAdjust="spacing" textLength="112" x="250.6393" y="996.6308">Eliminar Servicio</text></g><g id="elem_Crear Egresado"><ellipse cx="309.6404" cy="1106.898" fill="#F1F1F1" rx="80.2004" ry="18.4401" style="stroke:#181818;stroke-width:0.5;"/><text fill="#000000" font-family="sans-serif" font-size="14" lengthAdjust="spacing" textLength="104" x="254.6404" y="1111.631">Crear Egresado</text></g><g id="elem_Listar Egresado"><ellipse cx="309.6404" cy="1178.898" fill="#F1F1F1" rx="80.2004" ry="18.4401" style="stroke:#181818;stroke-width:0.5;"/><text fill="#000000" font-family="sans-serif" font-size="14" lengthAdjust="spacing" textLength="104" x="254.6404" y="1183.631">Listar Egresado</text></g><g id="elem_Editar Egresado"><ellipse cx="309.6361" cy="1250.8931" fill="#F1F1F1" rx="81.2761" ry="18.6552" style="stroke:#181818;stroke-width:0.5;"/><text fill="#000000" font-family="sans-serif" font-size="14" lengthAdjust="spacing" textLength="107" x="253.1361" y="1255.6261">Editar Egresado</text></g><g id="elem_Eliminar Egresado"><ellipse cx="309.6427" cy="1324.8945" fill="#F1F1F1" rx="87.2327" ry="19.8465" style="stroke:#181818;stroke-width:0.5;"/><text fill="#000000" font-family="sans-serif" font-size="14" lengthAdjust="spacing" textLength="123" x="245.1427" y="1329.6274">Eliminar Egresado</text></g><g id="elem_Crear Paquete"><ellipse cx="309.6437" cy="1440.8986" fill="#F1F1F1" rx="77.4037" ry="17.8807" style="stroke:#181818;stroke-width:0.5;"/><text fill="#000000" font-family="sans-serif" font-size="14" lengthAdjust="spacing" textLength="96" x="258.6437" y="1445.6316">Crear Paquete</text></g><g id="elem_Listar Paquete"><ellipse cx="309.6437" cy="1511.8986" fill="#F1F1F1" rx="77.4037" ry="17.8807" style="stroke:#181818;stroke-width:0.5;"/><text fill="#000000" font-family="sans-serif" font-size="14" lengthAdjust="spacing" textLength="96" x="258.6437" y="1516.6316">Listar Paquete</text></g><g id="elem_Editar Paquete"><ellipse cx="309.6397" cy="1582.8959" fill="#F1F1F1" rx="78.4397" ry="18.0879" style="stroke:#181818;stroke-width:0.5;"/><text fill="#000000" font-family="sans-serif" font-size="14" lengthAdjust="spacing" textLength="99" x="257.1397" y="1587.6288">Editar Paquete</text></g><g id="elem_Eliminar Paquete"><ellipse cx="309.6405" cy="1654.9" fill="#F1F1F1" rx="84.2105" ry="19.2421" style="stroke:#181818;stroke-width:0.5;"/><text fill="#000000" font-family="sans-serif" font-size="14" lengthAdjust="spacing" textLength="115" x="249.1405" y="1659.633">Eliminar Paquete</text></g><g id="elem_Crear Administrador"><ellipse cx="309.645" cy="1772.8989" fill="#F1F1F1" rx="93.105" ry="21.021" style="stroke:#181818;stroke-width:0.5;"/><text fill="#000000" font-family="sans-serif" font-size="14" lengthAdjust="spacing" textLength="138" x="237.645" y="1777.6319">Crear Administrador</text></g><g id="elem_Listar Administrador"><ellipse cx="309.645" cy="1849.8989" fill="#F1F1F1" rx="93.105" ry="21.021" style="stroke:#181818;stroke-width:0.5;"/><text fill="#000000" font-family="sans-serif" font-size="14" lengthAdjust="spacing" textLength="138" x="237.645" y="1854.6319">Listar Administrador</text></g><g id="elem_Editar Administrador"><ellipse cx="309.638" cy="1926.8995" fill="#F1F1F1" rx="94.308" ry="21.2616" style="stroke:#181818;stroke-width:0.5;"/><text fill="#000000" font-family="sans-serif" font-size="14" lengthAdjust="spacing" textLength="141" x="236.138" y="1931.6325">Editar Administrador</text></g><g id="elem_Eliminar Administrador"><ellipse cx="309.6429" cy="2005.9005" fill="#F1F1F1" rx="100.8629" ry="22.5726" style="stroke:#181818;stroke-width:0.5;"/><text fill="#000000" font-family="sans-serif" font-size="14" lengthAdjust="spacing" textLength="157" x="228.1429" y="2010.6335">Eliminar Administrador</text></g><!--MD5=[2e903384ba6a94be9c906ea46910cc3f]
entity Administrador--><g id="elem_Administrador"><ellipse cx="54.5" cy="1075.8679" fill="#F1F1F1" rx="8" ry="8" style="stroke:#181818;stroke-width:0.5;"/><path d="M54.5,1083.8679 L54.5,1110.8679 M41.5,1091.8679 L67.5,1091.8679 M54.5,1110.8679 L41.5,1125.8679 M54.5,1110.8679 L67.5,1125.8679 " fill="none" style="stroke:#181818;stroke-width:0.5;"/><text fill="#000000" font-family="sans-serif" font-size="14" lengthAdjust="spacing" textLength="97" x="6" y="1142.3339">Administrador</text></g><g id="elem_Consultar Estadisticas"><ellipse cx="309.6383" cy="67.8976" fill="#F1F1F1" rx="97.1483" ry="21.8297" style="stroke:#181818;stroke-width:0.5;"/><text fill="#000000" font-family="sans-serif" font-size="14" lengthAdjust="spacing" textLength="148" x="232.6383" y="72.6305">Consultar Estadisticas</text></g><g id="elem_Realizar Petición"><ellipse cx="309.6418" cy="143.8943" fill="#F1F1F1" rx="82.7318" ry="18.9464" style="stroke:#181818;stroke-width:0.5;"/><text fill="#000000" font-family="sans-serif" font-size="14" lengthAdjust="spacing" textLength="111" x="251.1418" y="148.6272">Realizar Petición</text></g><!--MD5=[f7e95fb4e1b692b886a3e413815da830]
link Administrador to Consultar Estadisticas--><g id="link_Administrador_Consultar Estadisticas"><path d="M58.82,1067.1179 C74.35,881.3179 139,107.8979 139,107.8979 C139,107.8979 189.54,95.9779 235.44,85.1579 " fill="none" id="Administrador-to-Consultar Estadisticas" style="stroke:#181818;stroke-width:1.0;"/><polygon fill="#181818" points="240.12,84.0579,230.4392,82.2462,235.2554,85.2134,232.2881,90.0296,240.12,84.0579" style="stroke:#181818;stroke-width:1.0;"/></g><!--MD5=[5806e705b525d5d406cb5815149d3ab6]
link Administrador to Actualización de Datos del Usuario--><g id="link_Administrador_Actualización de Datos del Usuario"><path d="M59.58,1067.0879 C76.35,903.6579 139,292.8979 139,292.8979 C139,292.8979 178.44,281.9679 219.28,270.6579 " fill="none" id="Administrador-to-Actualización de Datos del Usuario" style="stroke:#181818;stroke-width:1.0;"/><polygon fill="#181818" points="223.85,269.3879,214.1102,267.9262,219.0302,270.718,216.2384,275.638,223.85,269.3879" style="stroke:#181818;stroke-width:1.0;"/></g><!--MD5=[369aa146724f41c27aef463534bdfb98]
link Administrador to Listar Datos del Usuario--><g id="link_Administrador_Listar Datos del Usuario"><path d="M60.35,1066.8779 C78.17,919.8279 139,417.8979 139,417.8979 C139,417.8979 210.83,381.9079 261.01,356.7679 " fill="none" id="Administrador-to-Listar Datos del Usuario" style="stroke:#181818;stroke-width:1.0;"/><polygon fill="#181818" points="265.35,354.5879,255.5119,355.0477,260.8807,356.8297,259.0987,362.1985,265.35,354.5879" style="stroke:#181818;stroke-width:1.0;"/></g><!--MD5=[86e092906742a2dece3fbb8b4e11e9cf]
link Administrador to Iniciar Sesión--><g id="link_Administrador_Iniciar Sesión"><path d="M60.85,1067.1679 C79.28,930.3279 139,486.8979 139,486.8979 C139,486.8979 197.68,474.7879 246.01,464.8179 " fill="none" id="Administrador-to-Iniciar Sesión" style="stroke:#181818;stroke-width:1.0;"/><polygon fill="#181818" points="250.67,463.8579,241.0448,461.7708,245.7744,464.8743,242.671,469.6038,250.67,463.8579" style="stroke:#181818;stroke-width:1.0;"/></g><!--MD5=[f551cdc4e6ffb60e1ebf0a4e22f92eb2]
link Administrador to Cerrar Sesión--><g id="link_Administrador_Cerrar Sesión"><path d="M62.05,1067.2679 C81.74,948.2179 139,601.8979 139,601.8979 C139,601.8979 218.93,564.1979 269.06,540.5579 " fill="none" id="Administrador-to-Cerrar Sesión" style="stroke:#181818;stroke-width:1.0;"/><polygon fill="#181818" points="273.35,538.5379,263.5033,538.7463,268.8249,540.6648,266.9064,545.9864,273.35,538.5379" style="stroke:#181818;stroke-width:1.0;"/></g><!--MD5=[16828ee9522033f75a1005d28bf51339]
link Administrador to Listar Servicios / Paquetes de Servicios--><g id="link_Administrador_Listar Servicios / Paquetes de Servicios"><path d="M64.67,1067.0079 C86.37,972.7179 139,743.8979 139,743.8979 C139,743.8979 200.44,709.8579 249.37,682.7379 " fill="none" id="Administrador-to-Listar Servicios / Paquetes de Servicios" style="stroke:#181818;stroke-width:1.0;"/><polygon fill="#181818" points="253.64,680.3779,243.83,681.2521,249.2692,682.8061,247.7152,688.2453,253.64,680.3779" style="stroke:#181818;stroke-width:1.0;"/></g><!--MD5=[c3c47cad40e5695174e0e50470e08c10]
link Administrador to Crear Servicio--><g id="link_Administrador_Crear Servicio"><path d="M66.85,1066.9379 C89.68,986.5579 139,812.8979 139,812.8979 C139,812.8979 197.3,800.8679 245.55,790.9179 " fill="none" id="Administrador-to-Crear Servicio" style="stroke:#181818;stroke-width:1.0;"/><polygon fill="#181818" points="250.2,789.9579,240.576,787.8653,245.3038,790.9714,242.1976,795.6992,250.2,789.9579" style="stroke:#181818;stroke-width:1.0;"/></g><!--MD5=[5ef79b88bcd6df8fd01df01b07582278]
link Administrador to Listar Servicios--><g id="link_Administrador_Listar Servicios"><path d="M70.52,1066.9479 C94.56,1003.0379 139,884.8979 139,884.8979 C139,884.8979 196.56,872.6779 244.62,862.4879 " fill="none" id="Administrador-to-Listar Servicios" style="stroke:#181818;stroke-width:1.0;"/><polygon fill="#181818" points="249.25,861.4979,239.6133,859.4648,244.3602,862.5417,241.2833,867.2885,249.25,861.4979" style="stroke:#181818;stroke-width:1.0;"/></g><!--MD5=[e84ee6232aaaa04a6fe6bb5c48256d2b]
link Administrador to Editar Servicio--><g id="link_Administrador_Editar Servicio"><path d="M77.44,1066.9579 C102.18,1021.9279 139,954.8979 139,954.8979 C139,954.8979 196.56,943.0179 244.62,933.1079 " fill="none" id="Administrador-to-Editar Servicio" style="stroke:#181818;stroke-width:1.0;"/><polygon fill="#181818" points="249.25,932.1479,239.626,930.0553,244.3538,933.1614,241.2476,937.8892,249.25,932.1479" style="stroke:#181818;stroke-width:1.0;"/></g><!--MD5=[868a0cbea05833b562bab3bcd133c982]
link Administrador to Eliminar Servicio--><g id="link_Administrador_Eliminar Servicio"><path d="M103.41,1085.1279 C149.91,1064.0079 219.89,1032.2179 264.92,1011.7579 " fill="none" id="Administrador-to-Eliminar Servicio" style="stroke:#181818;stroke-width:1.0;"/><polygon fill="#181818" points="269.45,1009.7079,259.6015,1009.7907,264.8982,1011.7769,262.9119,1017.0736,269.45,1009.7079" style="stroke:#181818;stroke-width:1.0;"/></g><!--MD5=[a93f01c194319dfb49e3355441268a94]
link Administrador to Crear Egresado--><g id="link_Administrador_Crear Egresado"><path d="M103.41,1106.8979 C137.02,1106.8979 182.88,1106.8979 222.73,1106.8979 " fill="none" id="Administrador-to-Crear Egresado" style="stroke:#181818;stroke-width:1.0;"/><polygon fill="#181818" points="227.56,1106.8979,218.56,1102.8979,222.56,1106.8979,218.56,1110.8979,227.56,1106.8979" style="stroke:#181818;stroke-width:1.0;"/></g><!--MD5=[5c0273a74de74f95df81ec3eeaab63dd]
link Administrador to Listar Egresado--><g id="link_Administrador_Listar Egresado"><path d="M103.1,1127.4179 C121.86,1135.5079 139,1142.8979 139,1142.8979 C139,1142.8979 195.82,1154.9579 243.7,1165.1179 " fill="none" id="Administrador-to-Listar Egresado" style="stroke:#181818;stroke-width:1.0;"/><polygon fill="#181818" points="248.3,1166.0979,240.3333,1160.3073,243.4102,1165.0542,238.6633,1168.1311,248.3,1166.0979" style="stroke:#181818;stroke-width:1.0;"/></g><!--MD5=[dbcbc0ef6bf6d103d4816ad826883c25]
link Administrador to Editar Egresado--><g id="link_Administrador_Editar Egresado"><path d="M86.36,1146.8079 C110.14,1177.5679 139,1214.8979 139,1214.8979 C139,1214.8979 194.86,1226.7479 242.47,1236.8579 " fill="none" id="Administrador-to-Editar Egresado" style="stroke:#181818;stroke-width:1.0;"/><polygon fill="#181818" points="247.35,1237.8879,239.3637,1232.1243,242.4566,1236.8607,237.7202,1239.9537,247.35,1237.8879" style="stroke:#181818;stroke-width:1.0;"/></g><!--MD5=[9a712af60ae8cd7b3120e34b06a9e7ed]
link Administrador to Eliminar Egresado--><g id="link_Administrador_Eliminar Egresado"><path d="M74.03,1146.8479 C98.63,1199.8779 139,1286.8979 139,1286.8979 C139,1286.8979 193.06,1299.0079 240.14,1309.5579 " fill="none" id="Administrador-to-Eliminar Egresado" style="stroke:#181818;stroke-width:1.0;"/><polygon fill="#181818" points="244.96,1310.6379,237.042,1304.7808,240.0791,1309.5533,235.3066,1312.5903,244.96,1310.6379" style="stroke:#181818;stroke-width:1.0;"/></g><!--MD5=[6c2f37c2b3424f647322ddcc3b45f7d4]
link Administrador to Crear Paquete--><g id="link_Administrador_Crear Paquete"><path d="M68.64,1146.8679 C92.15,1218.3979 139,1360.8979 139,1360.8979 C139,1360.8979 218.5,1398.3879 268.65,1422.0379 " fill="none" id="Administrador-to-Crear Paquete" style="stroke:#181818;stroke-width:1.0;"/><polygon fill="#181818" points="272.94,1424.0679,266.5157,1416.6028,268.4204,1421.9293,263.0939,1423.8341,272.94,1424.0679" style="stroke:#181818;stroke-width:1.0;"/></g><!--MD5=[7a2bf7fd7722348faae9965f407bcb34]
link Administrador to Listar Paquete--><g id="link_Administrador_Listar Paquete"><path d="M64.52,1146.7379 C86.11,1242.1579 139,1475.8979 139,1475.8979 C139,1475.8979 197.3,1488.2679 245.55,1498.5079 " fill="none" id="Administrador-to-Listar Paquete" style="stroke:#181818;stroke-width:1.0;"/><polygon fill="#181818" points="250.2,1499.4979,242.2171,1493.7296,245.3073,1498.4679,240.569,1501.558,250.2,1499.4979" style="stroke:#181818;stroke-width:1.0;"/></g><!--MD5=[a9d7abad8a4d656b57c3b3daebefe65c]
link Administrador to Editar Paquete--><g id="link_Administrador_Editar Paquete"><path d="M63.06,1146.7179 C83.61,1255.0279 139,1546.8979 139,1546.8979 C139,1546.8979 196.56,1559.1179 244.62,1569.3079 " fill="none" id="Administrador-to-Editar Paquete" style="stroke:#181818;stroke-width:1.0;"/><polygon fill="#181818" points="249.25,1570.2979,241.2833,1564.5073,244.3602,1569.2542,239.6133,1572.3311,249.25,1570.2979" style="stroke:#181818;stroke-width:1.0;"/></g><!--MD5=[f71c8a38419dd5fb211c82c893aaece2]
link Administrador to Eliminar Paquete--><g id="link_Administrador_Eliminar Paquete"><path d="M61.98,1146.6479 C81.6,1266.9479 139,1618.8979 139,1618.8979 C139,1618.8979 193.42,1630.4479 240.61,1640.4579 " fill="none" id="Administrador-to-Eliminar Paquete" style="stroke:#181818;stroke-width:1.0;"/><polygon fill="#181818" points="245.44,1641.4879,237.4733,1635.6973,240.5502,1640.4442,235.8033,1643.5211,245.44,1641.4879" style="stroke:#181818;stroke-width:1.0;"/></g><!--MD5=[5342176c0b2eeb0ed7ec732db39e7700]
link Administrador to Crear Administrador--><g id="link_Administrador_Crear Administrador"><path d="M61.17,1146.5079 C79.97,1277.7279 139,1689.8979 139,1689.8979 C139,1689.8979 213.34,1726.2679 263.6,1750.8579 " fill="none" id="Administrador-to-Crear Administrador" style="stroke:#181818;stroke-width:1.0;"/><polygon fill="#181818" points="267.94,1752.9779,261.592,1745.4477,263.4425,1750.7934,258.0968,1752.6438,267.94,1752.9779" style="stroke:#181818;stroke-width:1.0;"/></g><!--MD5=[2b934f00abb2bcc9123730b057bb5b4b]
link Administrador to Listar Administrador--><g id="link_Administrador_Listar Administrador"><path d="M60.23,1146.8179 C77.89,1295.9579 139,1811.8979 139,1811.8979 C139,1811.8979 190.23,1823.3779 236.39,1833.7079 " fill="none" id="Administrador-to-Listar Administrador" style="stroke:#181818;stroke-width:1.0;"/><polygon fill="#181818" points="241.09,1834.7679,233.1757,1828.9059,236.2097,1833.6802,231.4354,1836.7143,241.09,1834.7679" style="stroke:#181818;stroke-width:1.0;"/></g><!--MD5=[2f716b311059773e423aaf609326297d]
link Administrador to Editar Administrador--><g id="link_Administrador_Editar Administrador"><path d="M59.76,1146.7479 C76.77,1306.1079 139,1888.8979 139,1888.8979 C139,1888.8979 189.54,1900.2179 235.44,1910.4979 " fill="none" id="Administrador-to-Editar Administrador" style="stroke:#181818;stroke-width:1.0;"/><polygon fill="#181818" points="240.12,1911.5479,232.202,1905.6908,235.2391,1910.4633,230.4666,1913.5003,240.12,1911.5479" style="stroke:#181818;stroke-width:1.0;"/></g><!--MD5=[b0eded1e2fcccd6bdbdb5b28e0aa437c]
link Administrador to Eliminar Administrador--><g id="link_Administrador_Eliminar Administrador"><path d="M59.39,1146.8879 C75.85,1316.2779 139,1965.8979 139,1965.8979 C139,1965.8979 187.82,1977.4079 233.08,1988.0779 " fill="none" id="Administrador-to-Eliminar Administrador" style="stroke:#181818;stroke-width:1.0;"/><polygon fill="#181818" points="237.68,1989.1679,229.8354,1983.2129,232.8129,1988.0227,228.0031,1991.0002,237.68,1989.1679" style="stroke:#181818;stroke-width:1.0;"/></g><!--MD5=[d08544df0053c4cc895e366e4a0c15cf]
link Administrador to Realizar Petición--><g id="link_Administrador_Realizar Petición"><path d="M59.17,1067.0979 C75.28,892.2379 139,200.8979 139,200.8979 C139,200.8979 206.06,178.3679 255.86,161.6379 " fill="none" id="Administrador-to-Realizar Petición" style="stroke:#181818;stroke-width:1.0;"/><polygon fill="#181818" points="260.4,160.1079,250.5936,159.1946,255.6623,161.7062,253.1508,166.7749,260.4,160.1079" style="stroke:#181818;stroke-width:1.0;"/></g><!--MD5=[231520104b0ddc3fab34592f758479e5]
@startuml Estructura

title Estructura de los Casos de Uso (Administrador)

skinparam {
    NoteBackgroundColor #whiteSmoke
    NoteBorderColor #green
    linetype polyline
}

left to right direction

actor Administrador

Administrador - -> (Consultar Estadisticas)

folder "Manejo de Usuario" as cuentas {
    Administrador - -> (Actualización de Datos del Usuario)
    Administrador - -> (Listar Datos del Usuario)
}

folder "Ingreso a Plataforma" as ingreso {
    Administrador - -> (Iniciar Sesión)
    Administrador - -> (Cerrar Sesión)
}

folder "CRD Suscripciones" as CRDSuscripciones {
    Administrador - -> (Listar Servicios / Paquetes de Servicios)
}

folder "CRUD Servicios" as CRUDServicios {
    Administrador - -> (Crear Servicio)
    Administrador - -> (Listar Servicios)
    Administrador - -> (Editar Servicio)
    Administrador - -> (Eliminar Servicio)
}

folder "CRUD Egresados" as CRUDEgresados {
    Administrador - -> (Crear Egresado)
    Administrador - -> (Listar Egresado)
    Administrador - -> (Editar Egresado)
    Administrador - -> (Eliminar Egresado)
}

folder "CRUD Paquetes" as CRUDPaquetes {
    Administrador - -> (Crear Paquete)
    Administrador - -> (Listar Paquete)
    Administrador - -> (Editar Paquete)
    Administrador - -> (Eliminar Paquete)
}

folder "CRUD Administradores" as CRUDAdministradores {
    Administrador - -> (Crear Administrador)
    Administrador - -> (Listar Administrador)
    Administrador - -> (Editar Administrador)
    Administrador - -> (Eliminar Administrador)
}

Administrador - -> (Realizar Petición)

@enduml

PlantUML version 1.2022.7(Mon Aug 22 19:01:30 CEST 2022)
(GPL source distribution)
Java Runtime: OpenJDK Runtime Environment
JVM: OpenJDK 64-Bit Server VM
Default Encoding: UTF-8
Language: es
Country: ES
--></g></svg>