<?xml version="1.0" encoding="us-ascii" standalone="no"?><svg xmlns="http://www.w3.org/2000/svg" xmlns:xlink="http://www.w3.org/1999/xlink" contentStyleType="text/css" height="740px" preserveAspectRatio="none" style="width:1273px;height:740px;background:#FFFFFF;" version="1.1" viewBox="0 0 1273 740" width="1273px" zoomAndPan="magnify"><defs><filter height="300%" id="fjlsdu2zbdz39" width="300%" x="-1" y="-1"><feGaussianBlur result="blurOut" stdDeviation="2.0"/><feColorMatrix in="blurOut" result="blurOut2" type="matrix" values="0 0 0 0 0 0 0 0 0 0 0 0 0 0 0 0 0 0 .4 0"/><feOffset dx="4.0" dy="4.0" in="blurOut2" result="blurOut3"/><feBlend in="SourceGraphic" in2="blurOut3" mode="normal"/></filter></defs><g><text fill="#000000" font-family="sans-serif" font-size="14" font-weight="bold" lengthAdjust="spacing" textLength="219" x="519" y="22.9951">Caso de Uso: Crear Usuario</text><!--cluster crearUsuario--><g id="cluster_crearUsuario"><rect fill="none" filter="url(#fjlsdu2zbdz39)" height="577" rx="12.5" ry="12.5" style="stroke:#A80036;stroke-width:1.0;" width="587" x="247.5" y="149.2969"/><path d="M260,149.2969 L822,149.2969 A12.5,12.5 0 0 1 834.5,161.7969 L834.5,170.5938 L247.5,170.5938 L247.5,161.7969 A12.5,12.5 0 0 1 260,149.2969 " fill="#FEFECE" style="stroke:#FEFECE;stroke-width:1.0;"/><path d="M247.5,170.5938 L834.5,170.5938 L834.5,713.7969 A12.5,12.5 0 0 1 822,726.2969 L260,726.2969 A12.5,12.5 0 0 1 247.5,713.7969 L247.5,170.5938 " fill="#FEFECE" style="stroke:#FEFECE;stroke-width:1.0;"/><rect fill="none" height="577" rx="12.5" ry="12.5" style="stroke:#A80036;stroke-width:1.0;" width="587" x="247.5" y="149.2969"/><line style="stroke:#A80036;stroke-width:1.0;" x1="247.5" x2="834.5" y1="170.5938" y2="170.5938"/><text fill="#000000" font-family="sans-serif" font-size="14" lengthAdjust="spacing" textLength="88" x="497" y="166.292">crearUsuario</text></g><ellipse cx="645.5" cy="202.2969" fill="#000000" filter="url(#fjlsdu2zbdz39)" rx="10" ry="10" style="stroke:#000000;stroke-width:1.0;"/><g id="crearUsuario.seleccionarOpcionCrear"><rect fill="#FEFECE" filter="url(#fjlsdu2zbdz39)" height="50" rx="12.5" ry="12.5" style="stroke:#A80036;stroke-width:1.0;" width="262" x="514.5" y="273.2969"/><line style="stroke:#A80036;stroke-width:1.0;" x1="514.5" x2="776.5" y1="299.5938" y2="299.5938"/><text fill="#000000" font-family="sans-serif" font-size="14" lengthAdjust="spacing" textLength="242" x="524.5" y="291.292">Seleccionar opci&#243;n 'Crear Usuario'</text></g><g id="crearUsuario.ingresarDetallesUsuario"><rect fill="#FEFECE" filter="url(#fjlsdu2zbdz39)" height="50" rx="12.5" ry="12.5" style="stroke:#A80036;stroke-width:1.0;" width="266" x="312.5" y="402.2969"/><line style="stroke:#A80036;stroke-width:1.0;" x1="312.5" x2="578.5" y1="428.5938" y2="428.5938"/><text fill="#000000" font-family="sans-serif" font-size="14" lengthAdjust="spacing" textLength="246" x="322.5" y="420.292">Ingresar detalles del nuevo usuario</text></g><g id="crearUsuario.confirmarCreacionUsuario"><rect fill="#FEFECE" filter="url(#fjlsdu2zbdz39)" height="50" rx="12.5" ry="12.5" style="stroke:#A80036;stroke-width:1.0;" width="237" x="280" y="531.2969"/><line style="stroke:#A80036;stroke-width:1.0;" x1="280" x2="517" y1="557.5938" y2="557.5938"/><text fill="#000000" font-family="sans-serif" font-size="14" lengthAdjust="spacing" textLength="217" x="290" y="549.292">Confirmar creaci&#243;n del usuario</text></g><ellipse cx="468.5" cy="691.2969" fill="none" filter="url(#fjlsdu2zbdz39)" rx="11" ry="11" style="stroke:#000000;stroke-width:1.0;"/><ellipse cx="468.5" cy="691.2969" fill="#000000" rx="6" ry="6" style="stroke:#000000;stroke-width:1.0;"/><g id="DASHBOARD_ABIERTO"><rect fill="#FEFECE" filter="url(#fjlsdu2zbdz39)" height="50" rx="12.5" ry="12.5" style="stroke:#A80036;stroke-width:1.0;" width="182" x="164.5" y="44.2969"/><line style="stroke:#A80036;stroke-width:1.0;" x1="164.5" x2="346.5" y1="70.5938" y2="70.5938"/><text fill="#000000" font-family="sans-serif" font-size="14" lengthAdjust="spacing" textLength="162" x="174.5" y="62.292">DASHBOARD_ABIERTO</text></g><g id="elem_GMN15"><path d="M6,384.2969 L6,469.9609 A0,0 0 0 0 6,469.9609 L223,469.9609 A0,0 0 0 0 223,469.9609 L223,431.2969 L312.152,427.2969 L223,423.2969 L223,394.2969 L213,384.2969 L6,384.2969 A0,0 0 0 0 6,384.2969 " fill="#FBFB77" filter="url(#fjlsdu2zbdz39)" style="stroke:#A80036;stroke-width:1.0;"/><path d="M213,384.2969 L213,394.2969 L223,394.2969 L213,384.2969 " fill="#FBFB77" style="stroke:#A80036;stroke-width:1.0;"/><text fill="#000000" font-family="sans-serif" font-size="13" lengthAdjust="spacing" textLength="125" x="12" y="401.3638">El sistema permite:</text><text fill="#000000" font-family="sans-serif" font-size="13" lengthAdjust="spacing" textLength="196" x="12" y="416.4966">&#176; Introducir nombre de Usuario</text><text fill="#000000" font-family="sans-serif" font-size="13" lengthAdjust="spacing" textLength="184" x="12" y="431.6294">&#176; Introducir datos personales</text><text fill="#000000" font-family="sans-serif" font-size="13" lengthAdjust="spacing" textLength="154" x="12" y="446.7622">&#176; Introducir credenciales</text><text fill="#000000" font-family="sans-serif" font-size="13" lengthAdjust="spacing" textLength="176" x="12" y="461.895">&#176; Introducir tipo de contrato</text></g><g id="elem_GMN18"><path d="M859,278.2969 L859,294.2969 L776.719,298.2969 L859,302.2969 L859,318.5625 A0,0 0 0 0 859,318.5625 L1264,318.5625 A0,0 0 0 0 1264,318.5625 L1264,288.2969 L1254,278.2969 L859,278.2969 A0,0 0 0 0 859,278.2969 " fill="#FBFB77" filter="url(#fjlsdu2zbdz39)" style="stroke:#A80036;stroke-width:1.0;"/><path d="M1254,278.2969 L1254,288.2969 L1264,288.2969 L1254,278.2969 " fill="#FBFB77" style="stroke:#A80036;stroke-width:1.0;"/><text fill="#000000" font-family="sans-serif" font-size="13" lengthAdjust="spacing" textLength="128" x="865" y="295.3638">El sistema requiere:</text><text fill="#000000" font-family="sans-serif" font-size="13" lengthAdjust="spacing" textLength="384" x="865" y="310.4966">&#176; Seleccionar la opci&#243;n 'Crear Usuario' en la lista de usuarios</text></g><!--link DASHBOARD_ABIERTO to crearUsuario--><g id="link_DASHBOARD_ABIERTO_crearUsuario"><path d="M255.5,94.3239 C255.5,103.6309 255.5,114.8356 255.5,126.4404 C255.5,132.2428 255.5,138.1452 255.5,143.9604 C255.5,145.4142 255.5,146.8626 255.5,148.3026 C255.5,148.4826 255.5,142.6624 255.5,142.8422 " fill="none" id="DASHBOARD_ABIERTO-to-crearUsuario" style="stroke:#A80036;stroke-width:1.0;"/><polygon fill="#A80036" points="255.5,148.8422,259.5,139.8422,255.5,143.8422,251.5,139.8422,255.5,148.8422" style="stroke:#A80036;stroke-width:1.0;"/></g><!--link *start*crearUsuario to seleccionarOpcionCrear--><g id="link_*start*crearUsuario_seleccionarOpcionCrear"><path d="M645.5,212.3099 C645.5,226.1879 645.5,247.2619 645.5,267.1369 " fill="none" id="*start*crearUsuario-to-seleccionarOpcionCrear" style="stroke:#0000FF;stroke-width:1.0;"/><polygon fill="#0000FF" points="645.5,273.1369,649.5,264.1369,645.5,268.1369,641.5,264.1369,645.5,273.1369" style="stroke:#0000FF;stroke-width:1.0;"/></g><!--link seleccionarOpcionCrear to ingresarDetallesUsuario--><g id="link_seleccionarOpcionCrear_ingresarDetallesUsuario"><path d="M607.411,323.4839 C571.823,346.0819 524.0541,376.4146 488.5121,398.9836 " fill="none" id="seleccionarOpcionCrear-to-ingresarDetallesUsuario" style="stroke:#0000FF;stroke-width:1.0;"/><polygon fill="#0000FF" points="483.447,402.1999,493.1889,400.7521,487.6679,399.5196,488.9004,393.9987,483.447,402.1999" style="stroke:#0000FF;stroke-width:1.0;"/></g><!--link ingresarDetallesUsuario to confirmarCreacionUsuario--><g id="link_ingresarDetallesUsuario_confirmarCreacionUsuario"><path d="M436.549,452.4839 C428.186,475.0819 417.8524,503.0038 409.5004,525.5728 " fill="none" id="ingresarDetallesUsuario-to-confirmarCreacionUsuario" style="stroke:#0000FF;stroke-width:1.0;"/><polygon fill="#0000FF" points="407.418,531.1999,414.2929,524.1475,409.1533,526.5107,406.7902,521.371,407.418,531.1999" style="stroke:#0000FF;stroke-width:1.0;"/></g><!--link confirmarCreacionUsuario to *end*crearUsuario--><g id="link_confirmarCreacionUsuario_*end*crearUsuario"><path d="M370.013,581.5869 C350.815,600.9489 331.645,628.3569 347.5,650.2969 C373.418,686.1623 426.6921,690.3684 451.3841,690.5071 " fill="none" id="confirmarCreacionUsuario-to-*end*crearUsuario" style="stroke:#0000FF;stroke-width:1.0;"/><polygon fill="#0000FF" points="457.384,690.5408,448.4066,686.4903,452.3841,690.5127,448.3617,694.4902,457.384,690.5408" style="stroke:#0000FF;stroke-width:1.0;"/><path d="M352.5,616.2969 L352.5,641.2969 L569.5,641.2969 L569.5,626.2969 L559.5,616.2969 L352.5,616.2969 " fill="#FBFB77" filter="url(#fjlsdu2zbdz39)" style="stroke:#A80036;stroke-width:1.0;"/><path d="M559.5,616.2969 L559.5,626.2969 L569.5,626.2969 L559.5,616.2969 " fill="#FBFB77" style="stroke:#A80036;stroke-width:1.0;"/><text fill="#000000" font-family="sans-serif" font-size="13" lengthAdjust="spacing" textLength="196" x="358.5" y="633.3638">El usuario confirma la creaci&#243;n</text></g><!--link ingresarDetallesUsuario to *end*crearUsuario--><g id="link_ingresarDetallesUsuario_*end*crearUsuario"><path d="M473.287,452.3889 C507.726,484.4699 564.12,544.9379 582.5,611.2969 C587.127,628.0009 592.524,636.1559 582.5,650.2969 C558.482,684.1773 509.4193,689.3982 485.7023,690.1059 " fill="none" id="ingresarDetallesUsuario-to-*end*crearUsuario" style="stroke:#FF0000;stroke-width:1.0;"/><polygon fill="#FF0000" points="479.705,690.2849,488.8203,694.0147,484.7028,690.1357,488.5817,686.0182,479.705,690.2849" style="stroke:#FF0000;stroke-width:1.0;"/><path d="M575.5,541.7969 L575.5,566.7969 L784.5,566.7969 L784.5,551.7969 L774.5,541.7969 L575.5,541.7969 " fill="#FBFB77" filter="url(#fjlsdu2zbdz39)" style="stroke:#A80036;stroke-width:1.0;"/><path d="M774.5,541.7969 L774.5,551.7969 L784.5,551.7969 L774.5,541.7969 " fill="#FBFB77" style="stroke:#A80036;stroke-width:1.0;"/><text fill="#000000" font-family="sans-serif" font-size="13" lengthAdjust="spacing" textLength="188" x="581.5" y="558.8638">El usuario cancela la creaci&#243;n</text></g><!--SRC=[ZPDDQiCm48NtEiMGBWA5NC2BGlwWMGMITXL2KUH94L6aT2HtKtgdGc_GNgmZEtQK7vkkB3HldhvvblnEMo3dKGGT3C9OUWSvmhDt6Om99V6oaAIT43x8W30PBXz7y-5YyZ8SpQQBfxaGLrim63o0YjqNpUaUV0Y0rVqQ1gkxZIbmpJqU3IgbdPKqFyHlYS2wghstFDN1iU3tsqB_3BFV0-axV6uMKWHjNmczf0a6QGpwUeA6ONOKS4oLWXS6R87l3efAN3Aq6xLKKWhbx5RJNbBaYvnN6EDQKOPQHH51KeGEbxPI2i4_XvNMyN7EWj5sby6qEQ6n02DF3DpGFI5X_XzlQHMQ2-jF8Se6Wzi0RjkHC3jvxGCot05fhmDclFlp1JCRoEM5qiHdxpU4rMMl-yuLkGpEHmFFzuNzhmICbgDL-cOnw4Fvb3YcGEmaqERbm1TJjDxLP0Z2jq8ZrLEapu0JQda9W3PM3Nl827BCrZSWVm00]--></g></svg>