<?xml version="1.0" encoding="us-ascii" standalone="no"?><svg xmlns="http://www.w3.org/2000/svg" xmlns:xlink="http://www.w3.org/1999/xlink" contentStyleType="text/css" height="541px" preserveAspectRatio="none" style="width:1382px;height:541px;background:#FFFFFF;" version="1.1" viewBox="0 0 1382 541" width="1382px" zoomAndPan="magnify"><defs><filter height="300%" id="f179sm0dtgwjvb" width="300%" x="-1" y="-1"><feGaussianBlur result="blurOut" stdDeviation="2.0"/><feColorMatrix in="blurOut" result="blurOut2" type="matrix" values="0 0 0 0 0 0 0 0 0 0 0 0 0 0 0 0 0 0 .4 0"/><feOffset dx="4.0" dy="4.0" in="blurOut2" result="blurOut3"/><feBlend in="SourceGraphic" in2="blurOut3" mode="normal"/></filter></defs><g><text fill="#000000" font-family="sans-serif" font-size="14" font-weight="bold" lengthAdjust="spacing" textLength="245" x="561.5" y="22.9951">Caso de Uso: Baja de Usuarios</text><g id="DASHBOARD_ABIERTO"><rect fill="#FEFECE" filter="url(#f179sm0dtgwjvb)" height="50" rx="12.5" ry="12.5" style="stroke:#A80036;stroke-width:1.0;" width="182" x="423" y="124.2969"/><line style="stroke:#A80036;stroke-width:1.0;" x1="423" x2="605" y1="150.5938" y2="150.5938"/><text fill="#000000" font-family="sans-serif" font-size="14" lengthAdjust="spacing" textLength="162" x="433" y="142.292">DASHBOARD_ABIERTO</text></g><g id="ListaUsuariosBaja"><rect fill="#FEFECE" filter="url(#f179sm0dtgwjvb)" height="50" rx="12.5" ry="12.5" style="stroke:#A80036;stroke-width:1.0;" width="106" x="461" y="251.2969"/><line style="stroke:#A80036;stroke-width:1.0;" x1="461" x2="567" y1="277.5938" y2="277.5938"/><text fill="#000000" font-family="sans-serif" font-size="14" lengthAdjust="spacing" textLength="86" x="471" y="269.292">Ver usuarios</text></g><g id="elem_SeleccionarUsuarioBaja"><polygon fill="#FEFECE" filter="url(#f179sm0dtgwjvb)" points="273,393.7969,285,405.7969,273,417.7969,261,405.7969,273,393.7969" style="stroke:#A80036;stroke-width:1.5;"/></g><g id="ConfirmarEliminarUsuario"><rect fill="#FEFECE" filter="url(#f179sm0dtgwjvb)" height="50" rx="12.5" ry="12.5" style="stroke:#A80036;stroke-width:1.0;" width="259" x="530.5" y="380.7969"/><line style="stroke:#A80036;stroke-width:1.0;" x1="530.5" x2="789.5" y1="407.0938" y2="407.0938"/><text fill="#000000" font-family="sans-serif" font-size="14" lengthAdjust="spacing" textLength="239" x="540.5" y="398.792">Confirmar Eliminaci&#243;n del Usuario</text></g><g id="elem_BajaUsuarioFinalizada"><polygon fill="#FEFECE" filter="url(#f179sm0dtgwjvb)" points="1041,510.2969,1053,522.2969,1041,534.2969,1029,522.2969,1041,510.2969" style="stroke:#A80036;stroke-width:1.5;"/></g><ellipse cx="514" cy="53.2969" fill="#000000" filter="url(#f179sm0dtgwjvb)" rx="10" ry="10" style="stroke:#000000;stroke-width:1.0;"/><g id="elem_GMN18"><path d="M824.5,378.2969 L824.5,401.7969 L789.639,405.7969 L824.5,409.7969 L824.5,433.6953 A0,0 0 0 0 824.5,433.6953 L1203.5,433.6953 A0,0 0 0 0 1203.5,433.6953 L1203.5,388.2969 L1193.5,378.2969 L824.5,378.2969 A0,0 0 0 0 824.5,378.2969 " fill="#FBFB77" filter="url(#f179sm0dtgwjvb)" style="stroke:#A80036;stroke-width:1.0;"/><path d="M1193.5,378.2969 L1193.5,388.2969 L1203.5,388.2969 L1193.5,378.2969 " fill="#FBFB77" style="stroke:#A80036;stroke-width:1.0;"/><text fill="#000000" font-family="sans-serif" font-size="13" lengthAdjust="spacing" textLength="125" x="830.5" y="395.3638">El sistema permite:</text><text fill="#000000" font-family="sans-serif" font-size="13" lengthAdjust="spacing" textLength="193" x="830.5" y="410.4966">- Confirmar la baja del usuario</text><text fill="#000000" font-family="sans-serif" font-size="13" lengthAdjust="spacing" textLength="358" x="830.5" y="425.6294">- Mostrar ventana con la lista de usuarios dados de baja</text></g><g id="elem_GMN21"><path d="M6,378.2969 L6,433.6953 A0,0 0 0 0 6,433.6953 L226,433.6953 A0,0 0 0 0 226,433.6953 L226,409.7969 L260.904,405.7969 L226,401.7969 L226,388.2969 L216,378.2969 L6,378.2969 A0,0 0 0 0 6,378.2969 " fill="#FBFB77" filter="url(#f179sm0dtgwjvb)" style="stroke:#A80036;stroke-width:1.0;"/><path d="M216,378.2969 L216,388.2969 L226,388.2969 L216,378.2969 " fill="#FBFB77" style="stroke:#A80036;stroke-width:1.0;"/><text fill="#000000" font-family="sans-serif" font-size="13" lengthAdjust="spacing" textLength="128" x="12" y="395.3638">El sistema requiere:</text><text fill="#000000" font-family="sans-serif" font-size="13" lengthAdjust="spacing" textLength="183" x="12" y="410.4966">- Buscar Usuario por nombre</text><text fill="#000000" font-family="sans-serif" font-size="13" lengthAdjust="spacing" textLength="199" x="12" y="425.6294">- Seleccionar Usuario de la lista</text></g><!--link *start* to DASHBOARD_ABIERTO--><g id="link_*start*_DASHBOARD_ABIERTO"><path d="M514,63.3099 C514,77.1879 514,98.2619 514,118.1369 " fill="none" id="*start*-to-DASHBOARD_ABIERTO" style="stroke:#A80036;stroke-width:1.0;"/><polygon fill="#A80036" points="514,124.1369,518,115.1369,514,119.1369,510,115.1369,514,124.1369" style="stroke:#A80036;stroke-width:1.0;"/></g><!--link DASHBOARD_ABIERTO to ListaUsuariosBaja--><g id="link_DASHBOARD_ABIERTO_ListaUsuariosBaja"><path d="M514,174.3979 C514,196.5329 514,223.1579 514,245.2699 " fill="none" id="DASHBOARD_ABIERTO-to-ListaUsuariosBaja" style="stroke:#0000FF;stroke-width:1.0;"/><polygon fill="#0000FF" points="514,251.2699,518,242.2699,514,246.2699,510,242.2699,514,251.2699" style="stroke:#0000FF;stroke-width:1.0;"/><text fill="#000000" font-family="sans-serif" font-size="13" lengthAdjust="spacing" textLength="312" x="515" y="217.3638">El sistema muestra la lista de Usuarios para baja</text></g><!--link ListaUsuariosBaja to SeleccionarUsuarioBaja--><g id="link_ListaUsuariosBaja_SeleccionarUsuarioBaja"><path d="M468.386,301.4289 C408.616,333.0499 313.4235,383.4111 285.6225,398.1191 " fill="none" id="ListaUsuariosBaja-to-SeleccionarUsuarioBaja" style="stroke:#0000FF;stroke-width:1.0;"/><polygon fill="#0000FF" points="280.319,400.9249,290.1448,400.2518,284.7386,398.5867,286.4038,393.1805,280.319,400.9249" style="stroke:#0000FF;stroke-width:1.0;"/><text fill="#000000" font-family="sans-serif" font-size="13" lengthAdjust="spacing" textLength="238" x="409" y="344.3638">El usuario busca y selecciona usuario</text></g><!--link SeleccionarUsuarioBaja to ConfirmarEliminarUsuario--><g id="link_SeleccionarUsuarioBaja_ConfirmarEliminarUsuario"><path d="M285.007,405.7969 C321.941,405.7969 430.997,405.7969 524.022,405.7969 " fill="none" id="SeleccionarUsuarioBaja-to-ConfirmarEliminarUsuario" style="stroke:#0000FF;stroke-width:1.0;"/><polygon fill="#0000FF" points="530.022,405.7969,521.022,401.7969,525.022,405.7969,521.022,409.7969,530.022,405.7969" style="stroke:#0000FF;stroke-width:1.0;"/><text fill="#000000" font-family="sans-serif" font-size="13" lengthAdjust="spacing" textLength="209" x="303.25" y="398.8638">[Usuario seleccionado para baja]</text></g><!--reverse link SeleccionarUsuarioBaja to ConfirmarEliminarUsuario--><g id="link_SeleccionarUsuarioBaja_ConfirmarEliminarUsuario"><path d="M287.7664,411.2313 C301.2324,416.0633 321.688,422.6429 344.75,425.7969 C405.469,434.1009 473.25,431.3449 530.356,425.6009 " fill="none" id="SeleccionarUsuarioBaja-backto-ConfirmarEliminarUsuario" style="stroke:#FF0000;stroke-width:1.0;"/><polygon fill="#FF0000" points="282.119,409.2049,289.2392,416.0095,286.8252,410.8936,291.9411,408.4796,282.119,409.2049" style="stroke:#FF0000;stroke-width:1.0;"/><text fill="#000000" font-family="sans-serif" font-size="13" lengthAdjust="spacing" textLength="124" x="345.75" y="421.8638">[Edici&#243;n cancelada]</text></g><!--link ConfirmarEliminarUsuario to BajaUsuarioFinalizada--><g id="link_ConfirmarEliminarUsuario_BajaUsuarioFinalizada"><path d="M739.87,430.7999 C837.408,460.1125 988.4139,505.4935 1026.6439,516.9821 " fill="none" id="ConfirmarEliminarUsuario-to-BajaUsuarioFinalizada" style="stroke:#0000FF;stroke-width:1.0;"/><polygon fill="#0000FF" points="1032.39,518.7089,1024.922,512.2879,1027.6015,517.2699,1022.6196,519.9495,1032.39,518.7089" style="stroke:#0000FF;stroke-width:1.0;"/><text fill="#000000" font-family="sans-serif" font-size="13" lengthAdjust="spacing" textLength="243" x="897" y="476.3638">El usuario confirma la baja del usuario</text></g><!--link BajaUsuarioFinalizada to DASHBOARD_ABIERTO--><g id="link_BajaUsuarioFinalizada_DASHBOARD_ABIERTO"><path d="M1051.08,520.2541 C1083.59,516.2698 1185.56,498.7573 1221,433.2969 C1232.64,411.8009 1234.26,398.8349 1221,378.2969 C1119.17,220.5299 1015.65,258.9469 836,204.2969 C759.943,181.1599 676.5323,167.889 611.2673,159.965 " fill="none" id="BajaUsuarioFinalizada-to-DASHBOARD_ABIERTO" style="stroke:#0000FF;stroke-width:1.0;"/><polygon fill="#0000FF" points="605.311,159.2419,613.7633,164.2975,610.2745,159.8445,614.7275,156.3558,605.311,159.2419" style="stroke:#0000FF;stroke-width:1.0;"/><text fill="#000000" font-family="sans-serif" font-size="13" lengthAdjust="spacing" textLength="173" x="1201" y="344.3638">[Baja de usuario finalizada]</text></g><!--reverse link DASHBOARD_ABIERTO to SeleccionarUsuarioBaja--><g id="link_DASHBOARD_ABIERTO_SeleccionarUsuarioBaja"><path d="M417.2425,170.3524 C369.9785,184.7244 321.424,208.0839 290,251.2969 C257.2,296.4009 266.477,369.5449 271.109,395.3879 " fill="none" id="DASHBOARD_ABIERTO-backto-SeleccionarUsuarioBaja" style="stroke:#FF0000;stroke-width:1.0;"/><polygon fill="#FF0000" points="422.983,168.6069,413.2086,167.3982,418.1993,170.0615,415.536,175.0522,422.983,168.6069" style="stroke:#FF0000;stroke-width:1.0;"/><text fill="#000000" font-family="sans-serif" font-size="13" lengthAdjust="spacing" textLength="151" x="291" y="280.8638">[Eliminaci&#243;n cancelada]</text></g><!--SRC=[TLFRQkCm47tNLmpjMy4_44eWQRDqOKkXjnSJ5bcQjDgLhNHa5zhVwYViZ-t8bNp14HZYp9mvSsRcsFyr3P3pA5hJMeGhwHreX2VlLh2LV-JtdqwISLu8tyeMuNhpSBEzsznV_zviV-xk7-z0UZXRHCyY_9VXtyJHSmRuCn9qCPYG3sXHAUCQIH7VmoylrQip2jVhYBjopS5GBMbdJMr6T4yy925cbVdtrV0SDWsIsWNo6Fh1E6i-fPvr4-N57WfTh9SZY-KI2bsULxR3FUENCwzO3dWEOosXxj2t9C7o4v3JBSDHSgRY6h5acVR8RAjl53SBLUULX0_m0pQbHAQyeB53TiyhADFhoApTA7qlihNJ4KvVO3Q1YZnXLzMt8OUaE5q_7M5v9jQUZ9rw78RQVNOjjZmdr5dAcTUKR1JQdYw_Xf4mUyXofys2KJIElKlcvRK5TyZUIC3KS4UashIuucWnbfpSQK3Skc1FWdTiMicUuIFCl9e-ND1yTHyYlL-nqH3KHOqM3xt4q_FD1HA-TGOfAjm6srBw9E3eY7dhYh3FJlW624j80WSP_m40]--></g></svg>