<?xml version="1.0" encoding="us-ascii" standalone="no"?><svg xmlns="http://www.w3.org/2000/svg" xmlns:xlink="http://www.w3.org/1999/xlink" contentStyleType="text/css" height="649px" preserveAspectRatio="none" style="width:1108px;height:649px;background:#FFFFFF;" version="1.1" viewBox="0 0 1108 649" width="1108px" zoomAndPan="magnify"><defs><filter height="300%" id="fm35s00h1zpys" width="300%" x="-1" y="-1"><feGaussianBlur result="blurOut" stdDeviation="2.0"/><feColorMatrix in="blurOut" result="blurOut2" type="matrix" values="0 0 0 0 0 0 0 0 0 0 0 0 0 0 0 0 0 0 .4 0"/><feOffset dx="4.0" dy="4.0" in="blurOut2" result="blurOut3"/><feBlend in="SourceGraphic" in2="blurOut3" mode="normal"/></filter></defs><g><text fill="#000000" font-family="sans-serif" font-size="14" font-weight="bold" lengthAdjust="spacing" textLength="225" x="433.75" y="22.9951">Caso de Uso: Editar Usuario</text><!--cluster editarUsuario--><g id="cluster_editarUsuario"><rect fill="none" filter="url(#fm35s00h1zpys)" height="486" rx="12.5" ry="12.5" style="stroke:#A80036;stroke-width:1.0;" width="610" x="244" y="149.2969"/><path d="M256.5,149.2969 L841.5,149.2969 A12.5,12.5 0 0 1 854,161.7969 L854,170.5938 L244,170.5938 L244,161.7969 A12.5,12.5 0 0 1 256.5,149.2969 " fill="#FEFECE" style="stroke:#FEFECE;stroke-width:1.0;"/><path d="M244,170.5938 L854,170.5938 L854,622.7969 A12.5,12.5 0 0 1 841.5,635.2969 L256.5,635.2969 A12.5,12.5 0 0 1 244,622.7969 L244,170.5938 " fill="#FEFECE" style="stroke:#FEFECE;stroke-width:1.0;"/><rect fill="none" height="486" rx="12.5" ry="12.5" style="stroke:#A80036;stroke-width:1.0;" width="610" x="244" y="149.2969"/><line style="stroke:#A80036;stroke-width:1.0;" x1="244" x2="854" y1="170.5938" y2="170.5938"/><text fill="#000000" font-family="sans-serif" font-size="14" lengthAdjust="spacing" textLength="94" x="502" y="166.292">editarUsuario</text></g><ellipse cx="574" cy="202.2969" fill="#000000" filter="url(#fm35s00h1zpys)" rx="10" ry="10" style="stroke:#000000;stroke-width:1.0;"/><g id="editarUsuario.seleccionarUsuario"><rect fill="#FEFECE" filter="url(#fm35s00h1zpys)" height="50" rx="12.5" ry="12.5" style="stroke:#A80036;stroke-width:1.0;" width="216" x="466" y="275.7969"/><line style="stroke:#A80036;stroke-width:1.0;" x1="466" x2="682" y1="302.0938" y2="302.0938"/><text fill="#000000" font-family="sans-serif" font-size="14" lengthAdjust="spacing" textLength="196" x="476" y="293.792">Seleccionar usuario a editar</text></g><g id="editarUsuario.modificarDetallesUsuario"><rect fill="#FEFECE" filter="url(#fm35s00h1zpys)" height="50" rx="12.5" ry="12.5" style="stroke:#A80036;stroke-width:1.0;" width="227" x="276.5" y="414.7969"/><line style="stroke:#A80036;stroke-width:1.0;" x1="276.5" x2="503.5" y1="441.0938" y2="441.0938"/><text fill="#000000" font-family="sans-serif" font-size="14" lengthAdjust="spacing" textLength="207" x="286.5" y="432.792">Modificar detalles del usuario</text></g><ellipse cx="446" cy="600.2969" fill="none" filter="url(#fm35s00h1zpys)" rx="11" ry="11" style="stroke:#000000;stroke-width:1.0;"/><ellipse cx="446" cy="600.2969" fill="#000000" rx="6" ry="6" style="stroke:#000000;stroke-width:1.0;"/><g id="DASHBOARD_ABIERTO"><rect fill="#FEFECE" filter="url(#fm35s00h1zpys)" height="50" rx="12.5" ry="12.5" style="stroke:#A80036;stroke-width:1.0;" width="182" x="161" y="44.2969"/><line style="stroke:#A80036;stroke-width:1.0;" x1="161" x2="343" y1="70.5938" y2="70.5938"/><text fill="#000000" font-family="sans-serif" font-size="14" lengthAdjust="spacing" textLength="162" x="171" y="62.292">DASHBOARD_ABIERTO</text></g><g id="elem_GMN13"><path d="M6,389.2969 L6,490.0938 A0,0 0 0 0 6,490.0938 L220,490.0938 A0,0 0 0 0 220,490.0938 L220,443.7969 L276.194,439.7969 L220,435.7969 L220,399.2969 L210,389.2969 L6,389.2969 A0,0 0 0 0 6,389.2969 " fill="#FBFB77" filter="url(#fm35s00h1zpys)" style="stroke:#A80036;stroke-width:1.0;"/><path d="M210,389.2969 L210,399.2969 L220,399.2969 L210,389.2969 " fill="#FBFB77" style="stroke:#A80036;stroke-width:1.0;"/><text fill="#000000" font-family="sans-serif" font-size="13" lengthAdjust="spacing" textLength="125" x="12" y="406.3638">El sistema permite:</text><text fill="#000000" font-family="sans-serif" font-size="13" lengthAdjust="spacing" textLength="193" x="12" y="421.4966">&#176; Modificar nombre de Usuario</text><text fill="#000000" font-family="sans-serif" font-size="13" lengthAdjust="spacing" textLength="181" x="12" y="436.6294">&#176; Modificar datos personales</text><text fill="#000000" font-family="sans-serif" font-size="13" lengthAdjust="spacing" textLength="173" x="12" y="451.7622">&#176; Modificar tipo de contrato</text><text fill="#000000" font-family="sans-serif" font-size="13" lengthAdjust="spacing" textLength="151" x="12" y="466.895">&#176; Modificar credenciales</text><text fill="#000000" font-family="sans-serif" font-size="13" lengthAdjust="spacing" textLength="123" x="12" y="482.0278">&#176; Confirmar edici&#243;n</text></g><g id="elem_GMN16"><path d="M878.5,273.2969 L878.5,296.7969 L682.208,300.7969 L878.5,304.7969 L878.5,328.6953 A0,0 0 0 0 878.5,328.6953 L1099.5,328.6953 A0,0 0 0 0 1099.5,328.6953 L1099.5,283.2969 L1089.5,273.2969 L878.5,273.2969 A0,0 0 0 0 878.5,273.2969 " fill="#FBFB77" filter="url(#fm35s00h1zpys)" style="stroke:#A80036;stroke-width:1.0;"/><path d="M1089.5,273.2969 L1089.5,283.2969 L1099.5,283.2969 L1089.5,273.2969 " fill="#FBFB77" style="stroke:#A80036;stroke-width:1.0;"/><text fill="#000000" font-family="sans-serif" font-size="13" lengthAdjust="spacing" textLength="128" x="884.5" y="290.3638">El sistema requiere:</text><text fill="#000000" font-family="sans-serif" font-size="13" lengthAdjust="spacing" textLength="184" x="884.5" y="305.4966">&#176; Buscar Usuario por nombre</text><text fill="#000000" font-family="sans-serif" font-size="13" lengthAdjust="spacing" textLength="200" x="884.5" y="320.6294">&#176; Seleccionar Usuario de la lista</text></g><!--link DASHBOARD_ABIERTO to editarUsuario--><g id="link_DASHBOARD_ABIERTO_editarUsuario"><path d="M252,94.3239 C252,103.6309 252,114.8356 252,126.4404 C252,132.2428 252,138.1452 252,143.9604 C252,145.4142 252,146.8626 252,148.3026 C252,148.4826 252,142.6624 252,142.8422 " fill="none" id="DASHBOARD_ABIERTO-to-editarUsuario" style="stroke:#A80036;stroke-width:1.0;"/><polygon fill="#A80036" points="252,148.8422,256,139.8422,252,143.8422,248,139.8422,252,148.8422" style="stroke:#A80036;stroke-width:1.0;"/></g><!--link *start*editarUsuario to seleccionarUsuario--><g id="link_*start*editarUsuario_seleccionarUsuario"><path d="M574,212.5499 C574,226.8909 574,248.9599 574,269.3989 " fill="none" id="*start*editarUsuario-to-seleccionarUsuario" style="stroke:#0000FF;stroke-width:1.0;"/><polygon fill="#0000FF" points="574,275.3989,578,266.3989,574,270.3989,570,266.3989,574,275.3989" style="stroke:#0000FF;stroke-width:1.0;"/></g><!--link seleccionarUsuario to modificarDetallesUsuario--><g id="link_seleccionarUsuario_modificarDetallesUsuario"><path d="M541.528,325.9739 C507.998,350.9399 460.7936,386.0867 427.2686,411.0477 " fill="none" id="seleccionarUsuario-to-modificarDetallesUsuario" style="stroke:#0000FF;stroke-width:1.0;"/><polygon fill="#0000FF" points="422.456,414.6309,432.0636,412.4645,426.4665,411.6449,427.2861,406.0477,422.456,414.6309" style="stroke:#0000FF;stroke-width:1.0;"/></g><!--link modificarDetallesUsuario to *end*editarUsuario--><g id="link_modificarDetallesUsuario_*end*editarUsuario"><path d="M353.612,465.0169 C321.761,489.2449 284.031,527.3939 308,559.2969 C323.583,580.0377 399.0062,592.6262 428.9692,596.9383 " fill="none" id="modificarDetallesUsuario-to-*end*editarUsuario" style="stroke:#0000FF;stroke-width:1.0;"/><polygon fill="#0000FF" points="434.908,597.793,426.5696,592.5517,429.959,597.0807,425.43,600.4702,434.908,597.793" style="stroke:#0000FF;stroke-width:1.0;"/><path d="M313,525.2969 L313,550.2969 L563,550.2969 L563,535.2969 L553,525.2969 L313,525.2969 " fill="#FBFB77" filter="url(#fm35s00h1zpys)" style="stroke:#A80036;stroke-width:1.0;"/><path d="M553,525.2969 L553,535.2969 L563,535.2969 L553,525.2969 " fill="#FBFB77" style="stroke:#A80036;stroke-width:1.0;"/><text fill="#000000" font-family="sans-serif" font-size="13" lengthAdjust="spacing" textLength="229" x="319" y="542.3638">El administrador confirma la edici&#243;n</text></g><!--link seleccionarUsuario to *end*editarUsuario--><g id="link_seleccionarUsuario_*end*editarUsuario"><path d="M582.857,325.9859 C599.23,375.3159 628.058,488.8129 576,559.2969 C547.662,597.666 489.1026,600.5176 463.1286,599.959 " fill="none" id="seleccionarUsuario-to-*end*editarUsuario" style="stroke:#FF0000;stroke-width:1.0;"/><polygon fill="#FF0000" points="457.13,599.83,466.0419,604.0226,462.1288,599.9375,466.2139,596.0244,457.13,599.83" style="stroke:#FF0000;stroke-width:1.0;"/><path d="M610,425.2969 L610,450.2969 L852,450.2969 L852,435.2969 L842,425.2969 L610,425.2969 " fill="#FBFB77" filter="url(#fm35s00h1zpys)" style="stroke:#A80036;stroke-width:1.0;"/><path d="M842,425.2969 L842,435.2969 L852,435.2969 L842,425.2969 " fill="#FBFB77" style="stroke:#A80036;stroke-width:1.0;"/><text fill="#000000" font-family="sans-serif" font-size="13" lengthAdjust="spacing" textLength="221" x="616" y="442.3638">El administrador cancela la edici&#243;n</text></g><!--SRC=[ZLD1QiCm4Bph5KjwA_W3EHJY9D0UIY1fJo6KZRI69RAKIlAfz4-5_g3zM3TsN3jn4teJkpkpCyCgxjX1y95KucG9fXWz68BdwCSmDvmmoBl2m5wfc30Hp2Qh-tmnMSvU9ld3VFcqK6fGWYox0whXP-YJ8hmfWFNj1hBrpTPMj15K94jQitST5A31ZbPT3weZ1HufHu3n0dXGxEyhlU62DOOP9RIMuc3hOpiXmJGZyh2jW7hl5P9BhRu6YK0cdPTjte5bjvFmBQ0fsN5C0OqFeBqhE9G8jhQi-VlJ2UgYmK3c_zpeDDbJwdUbQfIb8e4lhdaKlYXS9EBs54fED9RgrmTqqJbVRWCrfzN2JWOC9XyFy2W-XFsydtXVNwR48ABJ0A_5BpdD7NPw32nqdiYPEeepQt-UJSzKeDUAARIkyYhgxb_0thVscdR_IjiP4Nw8L_ZmLyGF]--></g></svg>