<?xml version="1.0" encoding="UTF-8" standalone="no"?><svg xmlns="http://www.w3.org/2000/svg" xmlns:xlink="http://www.w3.org/1999/xlink" contentStyleType="text/css" height="582px" preserveAspectRatio="none" style="width:1003px;height:582px;background:#FFFFFF;" version="1.1" viewBox="0 0 1003 582" width="1003px" zoomAndPan="magnify"><defs><filter height="300%" id="f1faukfqnth4fr" width="300%" x="-1" y="-1"><feGaussianBlur result="blurOut" stdDeviation="2.0"/><feColorMatrix in="blurOut" result="blurOut2" type="matrix" values="0 0 0 0 0 0 0 0 0 0 0 0 0 0 0 0 0 0 .4 0"/><feOffset dx="4.0" dy="4.0" in="blurOut2" result="blurOut3"/><feBlend in="SourceGraphic" in2="blurOut3" mode="normal"/></filter></defs><g><rect fill="none" height="27.6094" id="_title" style="stroke:none;stroke-width:1.0;" width="205" x="392.25" y="5"/><text fill="#000000" font-family="sans-serif" font-size="14" font-weight="bold" lengthAdjust="spacing" textLength="195" x="397.25" y="24.5332">Caso de Uso: Editar Usuario</text><g id="DASHBOARD_ABIERTO"><rect fill="#FEFECE" filter="url(#f1faukfqnth4fr)" height="50" rx="12.5" ry="12.5" style="stroke:#A80036;stroke-width:1.0;" width="174" x="358.5" y="125.6094"/><line style="stroke:#A80036;stroke-width:1.0;" x1="358.5" x2="532.5" y1="153.2188" y2="153.2188"/><text fill="#000000" font-family="sans-serif" font-size="14" lengthAdjust="spacing" textLength="154" x="368.5" y="145.1426">DASHBOARD_ABIERTO</text></g><g id="ListaUsuarios"><rect fill="#FEFECE" filter="url(#f1faukfqnth4fr)" height="50" rx="12.5" ry="12.5" style="stroke:#A80036;stroke-width:1.0;" width="100" x="395.5" y="253.6094"/><line style="stroke:#A80036;stroke-width:1.0;" x1="395.5" x2="495.5" y1="281.2188" y2="281.2188"/><text fill="#000000" font-family="sans-serif" font-size="14" lengthAdjust="spacing" textLength="80" x="405.5" y="273.1426">Ver usuarios</text></g><g id="elem_SeleccionarUsuario"><polygon fill="#FEFECE" filter="url(#f1faukfqnth4fr)" points="244.5,415.6094,256.5,427.6094,244.5,439.6094,232.5,427.6094,244.5,415.6094" style="stroke:#A80036;stroke-width:1.5;"/></g><g id="ModificarDetallesUsuario"><rect fill="#FEFECE" filter="url(#f1faukfqnth4fr)" height="50" rx="12.5" ry="12.5" style="stroke:#A80036;stroke-width:1.0;" width="207" x="425" y="402.6094"/><line style="stroke:#A80036;stroke-width:1.0;" x1="425" x2="632" y1="430.2188" y2="430.2188"/><text fill="#000000" font-family="sans-serif" font-size="14" lengthAdjust="spacing" textLength="187" x="435" y="422.1426">Modificar Detalles del Usuario</text></g><g id="elem_ConfirmarCambios"><polygon fill="#FEFECE" filter="url(#f1faukfqnth4fr)" points="683.5,551.6094,695.5,563.6094,683.5,575.6094,671.5,563.6094,683.5,551.6094" style="stroke:#A80036;stroke-width:1.5;"/></g><ellipse cx="445.5" cy="54.6094" fill="#000000" filter="url(#f1faukfqnth4fr)" rx="10" ry="10" style="stroke:none;stroke-width:1.0;"/><g id="elem_GMN18"><path d="M667.5,381.6094 L667.5,423.6094 L632.23,427.6094 L667.5,431.6094 L667.5,473.3672 A0,0 0 0 0 667.5,473.3672 L859.5,473.3672 A0,0 0 0 0 859.5,473.3672 L859.5,391.6094 L849.5,381.6094 L667.5,381.6094 A0,0 0 0 0 667.5,381.6094 " fill="#FBFB77" filter="url(#f1faukfqnth4fr)" style="stroke:#A80036;stroke-width:1.0;"/><path d="M849.5,381.6094 L849.5,391.6094 L859.5,391.6094 L849.5,381.6094 " fill="#FBFB77" style="stroke:#A80036;stroke-width:1.0;"/><text fill="#000000" font-family="sans-serif" font-size="13" lengthAdjust="spacing" textLength="113" x="673.5" y="400.1045">El sistema permite:</text><text fill="#000000" font-family="sans-serif" font-size="13" lengthAdjust="spacing" textLength="171" x="673.5" y="416.4561">- Modificar nombre de usuario</text><text fill="#000000" font-family="sans-serif" font-size="13" lengthAdjust="spacing" textLength="163" x="673.5" y="432.8076">- Modificar datos personales</text><text fill="#000000" font-family="sans-serif" font-size="13" lengthAdjust="spacing" textLength="154" x="673.5" y="449.1592">- Modificar tipo de contrato</text><text fill="#000000" font-family="sans-serif" font-size="13" lengthAdjust="spacing" textLength="137" x="673.5" y="465.5107">- Modificar credenciales</text></g><g id="elem_GMN21"><path d="M6,381.6094 L6,473.3672 A0,0 0 0 0 6,473.3672 L197,473.3672 A0,0 0 0 0 197,473.3672 L197,431.6094 L232.26,427.6094 L197,423.6094 L197,391.6094 L187,381.6094 L6,381.6094 A0,0 0 0 0 6,381.6094 " fill="#FBFB77" filter="url(#f1faukfqnth4fr)" style="stroke:#A80036;stroke-width:1.0;"/><path d="M187,381.6094 L187,391.6094 L197,391.6094 L187,381.6094 " fill="#FBFB77" style="stroke:#A80036;stroke-width:1.0;"/><text fill="#000000" font-family="sans-serif" font-size="13" lengthAdjust="spacing" textLength="113" x="12" y="400.1045">El sistema permite:</text><text fill="#000000" font-family="sans-serif" font-size="13" lengthAdjust="spacing" textLength="163" x="12" y="416.4561">- Presentar lista de usuarios</text><text fill="#000000" font-family="sans-serif" font-size="13" lengthAdjust="spacing" textLength="170" x="12" y="432.8076">- Solicitar usuario por nombre</text><text fill="#000000" font-family="sans-serif" font-size="13" lengthAdjust="spacing" textLength="101" x="12" y="449.1592">- Solicitar usuario</text><text fill="#000000" font-family="sans-serif" font-size="13" lengthAdjust="spacing" textLength="59" x="12" y="465.5107">- Cancelar</text></g><!--MD5=[ff2718fb89033b390b228bef4b261bf9]
link *start to DASHBOARD_ABIERTO--><g id="link_*start_DASHBOARD_ABIERTO"><path d="M445.5,64.6194 C445.5,77.3094 445.5,101.0194 445.5,120.1794 " fill="none" id="*start-to-DASHBOARD_ABIERTO" style="stroke:#A80036;stroke-width:1.0;"/><polygon fill="#A80036" points="445.5,125.4494,449.5,116.4494,445.5,120.4494,441.5,116.4494,445.5,125.4494" style="stroke:#A80036;stroke-width:1.0;"/></g><!--MD5=[25fba716a67a8c4f9f9c6756a27f32ce]
link DASHBOARD_ABIERTO to ListaUsuarios--><g id="link_DASHBOARD_ABIERTO_ListaUsuarios"><path d="M445.5,175.8994 C445.5,196.5594 445.5,226.2794 445.5,248.2594 " fill="none" id="DASHBOARD_ABIERTO-to-ListaUsuarios" style="stroke:#0000FF;stroke-width:1.0;"/><polygon fill="#0000FF" points="445.5,253.3894,449.5,244.3894,445.5,248.3894,441.5,244.3894,445.5,253.3894" style="stroke:#0000FF;stroke-width:1.0;"/><text fill="#000000" font-family="sans-serif" font-size="13" lengthAdjust="spacing" textLength="228" x="446.5" y="220.1045">El sistema muestra la lista de Usuarios</text></g><!--MD5=[f76886e6060d9537a2448fe49c37f642]
link ListaUsuarios to SeleccionarUsuario--><g id="link_ListaUsuarios_SeleccionarUsuario"><path d="M412.31,303.8794 C365.95,337.7894 284.23,397.5494 255.14,418.8194 " fill="none" id="ListaUsuarios-to-SeleccionarUsuario" style="stroke:#0000FF;stroke-width:1.0;"/><polygon fill="#0000FF" points="250.94,421.8994,260.5704,419.8367,254.9824,418.9568,255.8624,413.3688,250.94,421.8994" style="stroke:#0000FF;stroke-width:1.0;"/><text fill="#000000" font-family="sans-serif" font-size="13" lengthAdjust="spacing" textLength="197" x="370.5" y="348.1045">El administrador introduce usuario</text></g><!--MD5=[56e5ad999bf254091469f77b95d52d73]
link SeleccionarUsuario to ModificarDetallesUsuario--><g id="link_SeleccionarUsuario_ModificarDetallesUsuario"><path d="M256.7,427.6094 C284.84,427.6094 356.69,427.6094 419.44,427.6094 " fill="none" id="SeleccionarUsuario-to-ModificarDetallesUsuario" style="stroke:#0000FF;stroke-width:1.0;"/><polygon fill="#0000FF" points="424.71,427.6094,415.71,423.6094,419.71,427.6094,415.71,431.6094,424.71,427.6094" style="stroke:#0000FF;stroke-width:1.0;"/><text fill="#000000" font-family="sans-serif" font-size="13" lengthAdjust="spacing" textLength="132" x="274.75" y="421.1045">[Usuario seleccionado]</text></g><!--MD5=[eef57dfa22e2fae2cf0dc0c15a40be93]
link ModificarDetallesUsuario to ConfirmarCambios--><g id="link_ModificarDetallesUsuario_ConfirmarCambios"><path d="M574.9,452.6394 C597.5,465.7694 624.13,483.4494 644.5,503.6094 C658.67,517.6394 670.56,537.6194 677.36,550.3494 " fill="none" id="ModificarDetallesUsuario-to-ConfirmarCambios" style="stroke:#0000FF;stroke-width:1.0;"/><polygon fill="#0000FF" points="679.79,555.0094,679.1797,545.1794,677.4801,550.5749,672.0846,548.8753,679.79,555.0094" style="stroke:#0000FF;stroke-width:1.0;"/><text fill="#000000" font-family="sans-serif" font-size="13" lengthAdjust="spacing" textLength="204" x="660.5" y="518.1045">El administrador introduce cambios</text></g><!--MD5=[dd34b48d925c0788deecc140f570f507]
reverse link ModificarDetallesUsuario to ConfirmarCambios--><g id="link_ModificarDetallesUsuario_ConfirmarCambios"><path d="M518.16,457.9194 C513.11,477.8894 510.72,503.8294 524.5,521.6094 C543.1,545.6094 640.82,558.0594 673.12,561.5594 " fill="none" id="ModificarDetallesUsuario-backto-ConfirmarCambios" style="stroke:#FF0000;stroke-width:1.0;"/><polygon fill="#FF0000" points="519.49,452.9794,513.2878,460.63,518.1901,457.8075,521.0127,462.7098,519.49,452.9794" style="stroke:#FF0000;stroke-width:1.0;"/><text fill="#000000" font-family="sans-serif" font-size="13" lengthAdjust="spacing" textLength="114" x="525.5" y="518.1045">[Edici贸n cancelada]</text></g><!--MD5=[5a4bdbf9532a2befb6bdc56a58da27f6]
link ConfirmarCambios to DASHBOARD_ABIERTO--><g id="link_ConfirmarCambios_DASHBOARD_ABIERTO"><path d="M694.2,561.9294 C730.72,559.3594 849.45,548.9894 873.5,521.6094 C914.58,474.8394 902.71,438.5194 877.5,381.6094 C830.35,275.1694 786.76,259.3594 683.5,205.6094 C638.45,182.1594 583.4,168.8294 537.59,161.2794 " fill="none" id="ConfirmarCambios-to-DASHBOARD_ABIERTO" style="stroke:#0000FF;stroke-width:1.0;"/><polygon fill="#0000FF" points="532.62,160.4794,540.8653,165.8659,537.5558,161.2782,542.1435,157.9687,532.62,160.4794" style="stroke:#0000FF;stroke-width:1.0;"/><text fill="#000000" font-family="sans-serif" font-size="13" lengthAdjust="spacing" textLength="133" x="862.5" y="348.1045">[Cambios confirmados]</text></g><!--MD5=[8b91f5baab5a3277681eca8d124fa928]
reverse link DASHBOARD_ABIERTO to SeleccionarUsuario--><g id="link_DASHBOARD_ABIERTO_SeleccionarUsuario"><path d="M361.74,177.8794 C324.92,193.8194 284.82,218.1194 261.5,253.6094 C226.53,306.8294 237.66,389.8494 242.65,417.3894 " fill="none" id="DASHBOARD_ABIERTO-backto-SeleccionarUsuario" style="stroke:#FF0000;stroke-width:1.0;"/><polygon fill="#FF0000" points="366.68,175.7794,356.8324,175.6222,362.0791,177.7369,359.9644,182.9836,366.68,175.7794" style="stroke:#FF0000;stroke-width:1.0;"/><text fill="#000000" font-family="sans-serif" font-size="13" lengthAdjust="spacing" textLength="114" x="262.5" y="284.1045">[Edici贸n cancelada]</text></g><!--MD5=[0ffd4ce10f7050c37dc065ab6a7f3129]
@startuml editarUsuario
skin rose
title Caso de Uso: Editar Usuario

state DASHBOARD_ABIERTO as "DASHBOARD_ABIERTO"
state ListaUsuarios as "Ver usuarios"
state SeleccionarUsuario <<choice>>
state ModificarDetallesUsuario as "Modificar Detalles del Usuario"
state ConfirmarCambios <<choice>>

[*] -d-> DASHBOARD_ABIERTO
DASHBOARD_ABIERTO -d[#blue]-> ListaUsuarios : El sistema muestra la lista de Usuarios
ListaUsuarios -d[#blue]-> SeleccionarUsuario : El administrador introduce usuario
SeleccionarUsuario -r[#blue]-> ModificarDetallesUsuario : [Usuario seleccionado]
ModificarDetallesUsuario -d[#blue]-> ConfirmarCambios : El administrador introduce cambios
ConfirmarCambios -r[#blue]-> DASHBOARD_ABIERTO : [Cambios confirmados]
ConfirmarCambios -l[#red]-> ModificarDetallesUsuario : [Edici贸n cancelada]
SeleccionarUsuario -l[#red]-> DASHBOARD_ABIERTO : [Edici贸n cancelada]

note right of ModificarDetallesUsuario
  El sistema permite:
  - Modificar nombre de usuario
  - Modificar datos personales
  - Modificar tipo de contrato
  - Modificar credenciales
end note

note left of SeleccionarUsuario
  El sistema permite:
  - Presentar lista de usuarios
  - Solicitar usuario por nombre
  - Solicitar usuario
  - Cancelar
end note


@enduml

PlantUML version 1.2022.7(Mon Aug 22 19:01:30 CEST 2022)
(GPL source distribution)
Java Runtime: Java(TM) SE Runtime Environment
JVM: Java HotSpot(TM) 64-Bit Server VM
Default Encoding: UTF-8
Language: es
Country: SV
--></g></svg>