<?xml version="1.0" encoding="us-ascii" standalone="no"?><svg xmlns="http://www.w3.org/2000/svg" xmlns:xlink="http://www.w3.org/1999/xlink" contentStyleType="text/css" height="603px" preserveAspectRatio="none" style="width:1311px;height:603px;background:#FFFFFF;" version="1.1" viewBox="0 0 1311 603" width="1311px" zoomAndPan="magnify"><defs><filter height="300%" id="f1dmwt9ar82jmm" width="300%" x="-1" y="-1"><feGaussianBlur result="blurOut" stdDeviation="2.0"/><feColorMatrix in="blurOut" result="blurOut2" type="matrix" values="0 0 0 0 0 0 0 0 0 0 0 0 0 0 0 0 0 0 .4 0"/><feOffset dx="4.0" dy="4.0" in="blurOut2" result="blurOut3"/><feBlend in="SourceGraphic" in2="blurOut3" mode="normal"/></filter></defs><g><text fill="#000000" font-family="sans-serif" font-size="14" font-weight="bold" lengthAdjust="spacing" textLength="242" x="526.5" y="22.9951">Caso de Uso: Eliminar Usuario</text><!--cluster eliminarUsuario--><g id="cluster_eliminarUsuario"><rect fill="none" filter="url(#f1dmwt9ar82jmm)" height="440" rx="12.5" ry="12.5" style="stroke:#A80036;stroke-width:1.0;" width="667" x="389.5" y="149.2969"/><path d="M402,149.2969 L1044,149.2969 A12.5,12.5 0 0 1 1056.5,161.7969 L1056.5,170.5938 L389.5,170.5938 L389.5,161.7969 A12.5,12.5 0 0 1 402,149.2969 " fill="#FEFECE" style="stroke:#FEFECE;stroke-width:1.0;"/><path d="M389.5,170.5938 L1056.5,170.5938 L1056.5,576.7969 A12.5,12.5 0 0 1 1044,589.2969 L402,589.2969 A12.5,12.5 0 0 1 389.5,576.7969 L389.5,170.5938 " fill="#FEFECE" style="stroke:#FEFECE;stroke-width:1.0;"/><rect fill="none" height="440" rx="12.5" ry="12.5" style="stroke:#A80036;stroke-width:1.0;" width="667" x="389.5" y="149.2969"/><line style="stroke:#A80036;stroke-width:1.0;" x1="389.5" x2="1056.5" y1="170.5938" y2="170.5938"/><text fill="#000000" font-family="sans-serif" font-size="14" lengthAdjust="spacing" textLength="109" x="668.5" y="166.292">eliminarUsuario</text></g><ellipse cx="749.5" cy="202.2969" fill="#000000" filter="url(#f1dmwt9ar82jmm)" rx="10" ry="10" style="stroke:#000000;stroke-width:1.0;"/><g id="eliminarUsuario.seleccionarUsuario"><rect fill="#FEFECE" filter="url(#f1dmwt9ar82jmm)" height="50" rx="12.5" ry="12.5" style="stroke:#A80036;stroke-width:1.0;" width="255" x="622" y="275.7969"/><line style="stroke:#A80036;stroke-width:1.0;" x1="622" x2="877" y1="302.0938" y2="302.0938"/><text fill="#000000" font-family="sans-serif" font-size="14" lengthAdjust="spacing" textLength="235" x="632" y="293.792">Seleccionar usuario para eliminar</text></g><g id="eliminarUsuario.confirmarEliminarUsuario"><rect fill="#FEFECE" filter="url(#f1dmwt9ar82jmm)" height="50" rx="12.5" ry="12.5" style="stroke:#A80036;stroke-width:1.0;" width="258" x="421.5" y="391.7969"/><line style="stroke:#A80036;stroke-width:1.0;" x1="421.5" x2="679.5" y1="418.0938" y2="418.0938"/><text fill="#000000" font-family="sans-serif" font-size="14" lengthAdjust="spacing" textLength="238" x="431.5" y="409.792">Confirmar eliminaci&#243;n del usuario</text></g><ellipse cx="604.5" cy="554.2969" fill="none" filter="url(#f1dmwt9ar82jmm)" rx="11" ry="11" style="stroke:#000000;stroke-width:1.0;"/><ellipse cx="604.5" cy="554.2969" fill="#000000" rx="6" ry="6" style="stroke:#000000;stroke-width:1.0;"/><g id="DASHBOARD_ABIERTO"><rect fill="#FEFECE" filter="url(#f1dmwt9ar82jmm)" height="50" rx="12.5" ry="12.5" style="stroke:#A80036;stroke-width:1.0;" width="182" x="306.5" y="44.2969"/><line style="stroke:#A80036;stroke-width:1.0;" x1="306.5" x2="488.5" y1="70.5938" y2="70.5938"/><text fill="#000000" font-family="sans-serif" font-size="14" lengthAdjust="spacing" textLength="162" x="316.5" y="62.292">DASHBOARD_ABIERTO</text></g><g id="elem_GMN13"><path d="M6,389.2969 L6,444.6953 A0,0 0 0 0 6,444.6953 L365,444.6953 A0,0 0 0 0 365,444.6953 L365,420.7969 L421.261,416.7969 L365,412.7969 L365,399.2969 L355,389.2969 L6,389.2969 A0,0 0 0 0 6,389.2969 " fill="#FBFB77" filter="url(#f1dmwt9ar82jmm)" style="stroke:#A80036;stroke-width:1.0;"/><path d="M355,389.2969 L355,399.2969 L365,399.2969 L355,389.2969 " fill="#FBFB77" style="stroke:#A80036;stroke-width:1.0;"/><text fill="#000000" font-family="sans-serif" font-size="13" lengthAdjust="spacing" textLength="125" x="12" y="406.3638">El sistema permite:</text><text fill="#000000" font-family="sans-serif" font-size="13" lengthAdjust="spacing" textLength="224" x="12" y="421.4966">&#176; Confirmar eliminaci&#243;n del usuario</text><text fill="#000000" font-family="sans-serif" font-size="13" lengthAdjust="spacing" textLength="338" x="12" y="436.6294">&#176; Mostrar ventana con la lista de usuarios eliminados</text></g><g id="elem_GMN16"><path d="M1081,273.2969 L1081,296.7969 L877.266,300.7969 L1081,304.7969 L1081,328.6953 A0,0 0 0 0 1081,328.6953 L1302,328.6953 A0,0 0 0 0 1302,328.6953 L1302,283.2969 L1292,273.2969 L1081,273.2969 A0,0 0 0 0 1081,273.2969 " fill="#FBFB77" filter="url(#f1dmwt9ar82jmm)" style="stroke:#A80036;stroke-width:1.0;"/><path d="M1292,273.2969 L1292,283.2969 L1302,283.2969 L1292,273.2969 " fill="#FBFB77" style="stroke:#A80036;stroke-width:1.0;"/><text fill="#000000" font-family="sans-serif" font-size="13" lengthAdjust="spacing" textLength="128" x="1087" y="290.3638">El sistema requiere:</text><text fill="#000000" font-family="sans-serif" font-size="13" lengthAdjust="spacing" textLength="184" x="1087" y="305.4966">&#176; Buscar Usuario por nombre</text><text fill="#000000" font-family="sans-serif" font-size="13" lengthAdjust="spacing" textLength="200" x="1087" y="320.6294">&#176; Seleccionar Usuario de la lista</text></g><!--link DASHBOARD_ABIERTO to eliminarUsuario--><g id="link_DASHBOARD_ABIERTO_eliminarUsuario"><path d="M397.5,94.3239 C397.5,103.6309 397.5,114.8356 397.5,126.4404 C397.5,132.2428 397.5,138.1452 397.5,143.9604 C397.5,145.4142 397.5,146.8626 397.5,148.3026 C397.5,148.4826 397.5,142.6624 397.5,142.8422 " fill="none" id="DASHBOARD_ABIERTO-to-eliminarUsuario" style="stroke:#A80036;stroke-width:1.0;"/><polygon fill="#A80036" points="397.5,148.8422,401.5,139.8422,397.5,143.8422,393.5,139.8422,397.5,148.8422" style="stroke:#A80036;stroke-width:1.0;"/></g><!--link *start*eliminarUsuario to seleccionarUsuario--><g id="link_*start*eliminarUsuario_seleccionarUsuario"><path d="M749.5,212.5499 C749.5,226.8909 749.5,248.9599 749.5,269.3989 " fill="none" id="*start*eliminarUsuario-to-seleccionarUsuario" style="stroke:#0000FF;stroke-width:1.0;"/><polygon fill="#0000FF" points="749.5,275.3989,753.5,266.3989,749.5,270.3989,745.5,266.3989,749.5,275.3989" style="stroke:#0000FF;stroke-width:1.0;"/></g><!--link seleccionarUsuario to confirmarEliminarUsuario--><g id="link_seleccionarUsuario_confirmarEliminarUsuario"><path d="M707.297,325.9729 C673.526,345.3199 631.6032,369.3354 597.8482,388.6724 " fill="none" id="seleccionarUsuario-to-confirmarEliminarUsuario" style="stroke:#0000FF;stroke-width:1.0;"/><polygon fill="#0000FF" points="592.642,391.6549,602.4397,390.652,596.9805,389.1695,598.463,383.7104,592.642,391.6549" style="stroke:#0000FF;stroke-width:1.0;"/></g><!--link confirmarEliminarUsuario to *end*eliminarUsuario--><g id="link_confirmarEliminarUsuario_*end*eliminarUsuario"><path d="M487.265,441.8729 C473.811,450.0609 461.318,460.6949 453.5,474.2969 C444.862,489.3249 442.929,499.5609 453.5,513.2969 C470.867,535.8633 555.3919,547.624 587.3489,551.3732 " fill="none" id="confirmarEliminarUsuario-to-*end*eliminarUsuario" style="stroke:#0000FF;stroke-width:1.0;"/><polygon fill="#0000FF" points="593.308,552.0724,584.8354,547.0509,588.3421,551.4898,583.9032,554.9964,593.308,552.0724" style="stroke:#0000FF;stroke-width:1.0;"/><path d="M458.5,479.2969 L458.5,504.2969 L735.5,504.2969 L735.5,489.2969 L725.5,479.2969 L458.5,479.2969 " fill="#FBFB77" filter="url(#f1dmwt9ar82jmm)" style="stroke:#A80036;stroke-width:1.0;"/><path d="M725.5,479.2969 L725.5,489.2969 L735.5,489.2969 L725.5,479.2969 " fill="#FBFB77" style="stroke:#A80036;stroke-width:1.0;"/><text fill="#000000" font-family="sans-serif" font-size="13" lengthAdjust="spacing" textLength="256" x="464.5" y="496.3638">El administrador confirma la eliminaci&#243;n</text></g><!--link seleccionarUsuario to *end*eliminarUsuario--><g id="link_seleccionarUsuario_*end*eliminarUsuario"><path d="M757.883,326.0029 C770.992,368.6779 790.737,457.9999 748.5,513.2969 C732.042,534.8444 652.4268,547.0878 621.5638,551.1442 " fill="none" id="seleccionarUsuario-to-*end*eliminarUsuario" style="stroke:#FF0000;stroke-width:1.0;"/><polygon fill="#FF0000" points="615.615,551.9261,625.0595,554.7192,620.5724,551.2745,624.017,546.7874,615.615,551.9261" style="stroke:#FF0000;stroke-width:1.0;"/><path d="M778.5,402.2969 L778.5,427.2969 L1047.5,427.2969 L1047.5,412.2969 L1037.5,402.2969 L778.5,402.2969 " fill="#FBFB77" filter="url(#f1dmwt9ar82jmm)" style="stroke:#A80036;stroke-width:1.0;"/><path d="M1037.5,402.2969 L1037.5,412.2969 L1047.5,412.2969 L1037.5,402.2969 " fill="#FBFB77" style="stroke:#A80036;stroke-width:1.0;"/><text fill="#000000" font-family="sans-serif" font-size="13" lengthAdjust="spacing" textLength="248" x="784.5" y="419.3638">El administrador cancela la eliminaci&#243;n</text></g><!--SRC=[ZP9DJiD038NtSmghx91wWIwG-YV10bLgOLLLo4rSQTJ9E7WcR11tGk86S36SjfE6b1QMyVYzzzbns5eFme5CjD4HZ34mv0IFWGSmTRQm7aM_AXJBneI8aM0oNDoEPiFvv6aukflE7sR6d9IWtxy1EXXqz9qol1g0vVKA-ikhjQjefSf0ZhBCSaiCi5Vt5iStg0uM9GeslZt0SCRXfDWEpTXlh1Geqmvt4prE7IahiryVNXVc4iak-uBHkQSsX-v2Eprh8djmrc_hVm6Ogy26A9YpD4RWy0UCAiyEAfJ_tnzzHkxK_isOdTBH9W9lBisgda7zI25Bai966cZrynt-NkE-xvvh6e4NyX4zrbarZrDJhA_qq1oIJSx1aCztetKmVps75g3GSsL94k6e2jdnyA7KXNWkraBxv_O9fXxbIMmDn3S0]--></g></svg>