<?xml version="1.0" encoding="us-ascii" standalone="no"?><svg xmlns="http://www.w3.org/2000/svg" xmlns:xlink="http://www.w3.org/1999/xlink" contentStyleType="text/css" height="646px" preserveAspectRatio="none" style="width:934px;height:646px;background:#FFFFFF;" version="1.1" viewBox="0 0 934 646" width="934px" zoomAndPan="magnify"><defs><filter height="300%" id="f1nlgtd51l0jzi" width="300%" x="-1" y="-1"><feGaussianBlur result="blurOut" stdDeviation="2.0"/><feColorMatrix in="blurOut" result="blurOut2" type="matrix" values="0 0 0 0 0 0 0 0 0 0 0 0 0 0 0 0 0 0 .4 0"/><feOffset dx="4.0" dy="4.0" in="blurOut2" result="blurOut3"/><feBlend in="SourceGraphic" in2="blurOut3" mode="normal"/></filter></defs><g><text fill="#000000" font-family="sans-serif" font-size="14" font-weight="bold" lengthAdjust="spacing" textLength="218" x="350.25" y="22.9951">Caso de Uso: Iniciar Sesi&#243;n</text><!--cluster iniciar_sesi?n--><g id="cluster_iniciar_sesi&#243;n"><rect fill="none" filter="url(#f1nlgtd51l0jzi)" height="346" rx="12.5" ry="12.5" style="stroke:#A80036;stroke-width:1.0;" width="428" x="237.5" y="165.2969"/><path d="M250,165.2969 L653,165.2969 A12.5,12.5 0 0 1 665.5,177.7969 L665.5,186.5938 L237.5,186.5938 L237.5,177.7969 A12.5,12.5 0 0 1 250,165.2969 " fill="#FEFECE" style="stroke:#FEFECE;stroke-width:1.0;"/><path d="M237.5,186.5938 L665.5,186.5938 L665.5,498.7969 A12.5,12.5 0 0 1 653,511.2969 L250,511.2969 A12.5,12.5 0 0 1 237.5,498.7969 L237.5,186.5938 " fill="#FEFECE" style="stroke:#FEFECE;stroke-width:1.0;"/><rect fill="none" height="346" rx="12.5" ry="12.5" style="stroke:#A80036;stroke-width:1.0;" width="428" x="237.5" y="165.2969"/><line style="stroke:#A80036;stroke-width:1.0;" x1="237.5" x2="665.5" y1="186.5938" y2="186.5938"/><text fill="#000000" font-family="sans-serif" font-size="14" lengthAdjust="spacing" textLength="95" x="404" y="182.292">iniciar_sesi&#243;n</text></g><ellipse cx="336.5" cy="218.2969" fill="#000000" filter="url(#f1nlgtd51l0jzi)" rx="10" ry="10" style="stroke:#000000;stroke-width:1.0;"/><g id="iniciar_sesi&#243;n.formularioLogin"><rect fill="#FEFECE" filter="url(#f1nlgtd51l0jzi)" height="50" rx="12.5" ry="12.5" style="stroke:#A80036;stroke-width:1.0;" width="133" x="270" y="307.7969"/><line style="stroke:#A80036;stroke-width:1.0;" x1="270" x2="403" y1="334.0938" y2="334.0938"/><text fill="#000000" font-family="sans-serif" font-size="14" lengthAdjust="spacing" textLength="113" x="280" y="325.792">formularioLogin</text></g><g id="iniciar_sesi&#243;n.validaci&#243;n"><rect fill="#FEFECE" filter="url(#f1nlgtd51l0jzi)" height="50" rx="12.5" ry="12.5" style="stroke:#A80036;stroke-width:1.0;" width="91" x="437" y="437.2969"/><line style="stroke:#A80036;stroke-width:1.0;" x1="437" x2="528" y1="463.5938" y2="463.5938"/><text fill="#000000" font-family="sans-serif" font-size="14" lengthAdjust="spacing" textLength="71" x="447" y="455.292">validaci&#243;n</text></g><g id="INICIO"><rect fill="#FEFECE" filter="url(#f1nlgtd51l0jzi)" height="50" rx="12.5" ry="12.5" style="stroke:#A80036;stroke-width:1.0;" width="63" x="214" y="44.2969"/><line style="stroke:#A80036;stroke-width:1.0;" x1="214" x2="277" y1="70.5938" y2="70.5938"/><text fill="#000000" font-family="sans-serif" font-size="14" lengthAdjust="spacing" textLength="43" x="224" y="62.292">INICIO</text></g><g id="DASHBOARD_ABIERTO"><rect fill="#FEFECE" filter="url(#f1nlgtd51l0jzi)" height="50" rx="12.5" ry="12.5" style="stroke:#A80036;stroke-width:1.0;" width="182" x="391.5" y="582.2969"/><line style="stroke:#A80036;stroke-width:1.0;" x1="391.5" x2="573.5" y1="608.5938" y2="608.5938"/><text fill="#000000" font-family="sans-serif" font-size="14" lengthAdjust="spacing" textLength="162" x="401.5" y="600.292">DASHBOARD_ABIERTO</text></g><g id="elem_GMN13"><path d="M6,305.2969 L6,360.6953 A0,0 0 0 0 6,360.6953 L213,360.6953 A0,0 0 0 0 213,360.6953 L213,336.7969 L269.577,332.7969 L213,328.7969 L213,315.2969 L203,305.2969 L6,305.2969 A0,0 0 0 0 6,305.2969 " fill="#FBFB77" filter="url(#f1nlgtd51l0jzi)" style="stroke:#A80036;stroke-width:1.0;"/><path d="M203,305.2969 L203,315.2969 L213,315.2969 L203,305.2969 " fill="#FBFB77" style="stroke:#A80036;stroke-width:1.0;"/><text fill="#000000" font-family="sans-serif" font-size="13" lengthAdjust="spacing" textLength="128" x="12" y="322.3638">El sistema requiere:</text><text fill="#000000" font-family="sans-serif" font-size="13" lengthAdjust="spacing" textLength="186" x="12" y="337.4966">- Ingresar nombre de usuario</text><text fill="#000000" font-family="sans-serif" font-size="13" lengthAdjust="spacing" textLength="137" x="12" y="352.6294">- Ingresar contrase&#241;a</text></g><g id="elem_GMN16"><path d="M689.5,442.2969 L689.5,458.2969 L528.203,462.2969 L689.5,466.2969 L689.5,482.5625 A0,0 0 0 0 689.5,482.5625 L925.5,482.5625 A0,0 0 0 0 925.5,482.5625 L925.5,452.2969 L915.5,442.2969 L689.5,442.2969 A0,0 0 0 0 689.5,442.2969 " fill="#FBFB77" filter="url(#f1nlgtd51l0jzi)" style="stroke:#A80036;stroke-width:1.0;"/><path d="M915.5,442.2969 L915.5,452.2969 L925.5,452.2969 L915.5,442.2969 " fill="#FBFB77" style="stroke:#A80036;stroke-width:1.0;"/><text fill="#000000" font-family="sans-serif" font-size="13" lengthAdjust="spacing" textLength="113" x="695.5" y="459.3638">El sistema valida:</text><text fill="#000000" font-family="sans-serif" font-size="13" lengthAdjust="spacing" textLength="215" x="695.5" y="474.4966">- Autenticidad de las credenciales</text></g><!--link INICIO to iniciar_sesi?n--><g id="link_INICIO_iniciar_sesi&#243;n"><path d="M245.5,94.5709 C245.5,104.8459 245.5,117.4962 245.5,130.7304 C245.5,137.3476 245.5,144.1107 245.5,150.7958 C245.5,154.1384 245.5,157.4615 245.5,160.7372 C245.5,161.5561 245.5,162.372 245.5,163.1845 C245.5,163.5908 245.5,163.9962 245.5,164.4007 C245.5,164.603 245.5,158.805 245.5,159.0068 " fill="none" id="INICIO-to-iniciar_sesi&#243;n" style="stroke:#A80036;stroke-width:1.0;"/><polygon fill="#A80036" points="245.5,165.0068,249.5,156.0068,245.5,160.0068,241.5,156.0068,245.5,165.0068" style="stroke:#A80036;stroke-width:1.0;"/><text fill="#000000" font-family="sans-serif" font-size="13" lengthAdjust="spacing" textLength="110" x="246.5" y="137.3638">el usuario solicita</text></g><!--link *start*iniciar_sesi?n to formularioLogin--><g id="link_*start*iniciar_sesi&#243;n_formularioLogin"><path d="M336.5,228.5029 C336.5,245.6109 336.5,276.8089 336.5,301.5789 " fill="none" id="*start*iniciar_sesi&#243;n-to-formularioLogin" style="stroke:#0000FF;stroke-width:1.0;"/><polygon fill="#0000FF" points="336.5,307.5789,340.5,298.5789,336.5,302.5789,332.5,298.5789,336.5,307.5789" style="stroke:#0000FF;stroke-width:1.0;"/><text fill="#000000" font-family="sans-serif" font-size="13" lengthAdjust="spacing" textLength="168" x="337.5" y="271.3638">Usuario elige iniciar sesi&#243;n</text></g><!--link formularioLogin to validaci?n--><g id="link_formularioLogin_validaci&#243;n"><path d="M312.246,357.9559 C300.154,372.9749 290.268,392.2249 301.5,407.2969 C317.715,429.0549 382.7084,444.1784 430.8084,452.9084 " fill="none" id="formularioLogin-to-validaci&#243;n" style="stroke:#0000FF;stroke-width:1.0;"/><polygon fill="#0000FF" points="436.712,453.9799,428.571,448.437,431.7924,453.087,427.1424,456.3084,436.712,453.9799" style="stroke:#0000FF;stroke-width:1.0;"/><text fill="#000000" font-family="sans-serif" font-size="13" lengthAdjust="spacing" textLength="136" x="302.5" y="403.3638">Ingresar credenciales</text></g><!--link validaci?n to formularioLogin--><g id="link_validaci&#243;n_formularioLogin"><path d="M473.524,437.2949 C466.991,422.3459 456.935,403.5119 443.5,390.2969 C430.171,377.1859 418.5063,369.1203 402.0063,360.5783 " fill="none" id="validaci&#243;n-to-formularioLogin" style="stroke:#FF0000;stroke-width:1.0;"/><polygon fill="#FF0000" points="396.678,357.8199,402.8315,365.5098,401.1183,360.1186,406.5094,358.4053,396.678,357.8199" style="stroke:#FF0000;stroke-width:1.0;"/><text fill="#000000" font-family="sans-serif" font-size="13" lengthAdjust="spacing" textLength="157" x="456.5" y="403.3638">Credenciales incorrectas</text></g><!--link validaci?n to DASHBOARD_ABIERTO--><g id="link_validaci&#243;n_DASHBOARD_ABIERTO"><path d="M482.5,487.5549 C482.5,513.8509 482.5,549.5775 482.5,575.9199 " fill="none" id="validaci&#243;n-to-DASHBOARD_ABIERTO" style="stroke:#0000FF;stroke-width:1.0;"/><polygon fill="#0000FF" points="482.5,581.9199,486.5,572.9199,482.5,576.9199,478.5,572.9199,482.5,581.9199" style="stroke:#0000FF;stroke-width:1.0;"/><text fill="#000000" font-family="sans-serif" font-size="13" lengthAdjust="spacing" textLength="146" x="483.5" y="548.3638">Credenciales correctas</text></g><!--SRC=[RP91QiCm44NtEiNWxWg-W1S5nmdKK1f8cbK8OMAFpL1PeXgvcz93bHuX5wkCdSPsiXEQ_z_Np4ZUsO2pGigprmGPYeMIO2SsWTnmmUXWIyBdNwEKUFG4-MkUvMj0WQW_HaDXcMwV5-jqipocYtorUUirDxUHKWCYZf-0-v2Zz26G06befKN75iJgKFLuYPwBlnJ0_l40yVxXf5iw15vbNTFgplrYQ-vukm56ckj_10o809WxHh1Fr5nYCJmiDxKZ2Tx2KKacO3H908nL8_FjE1B8Haueh7DKUBp32BBxpKm0RAw8RwMC3IFIL7cmrTmQ8bOQXCLJW-3eesLob8Jh-DgNiSt9KRV_OG7JSc6DToXq_a55feGkRvOwQcEQs1VwlBJrP7nOGubb5wR3DvcCz0B_0m00]--></g></svg>