<?xml version="1.0" encoding="us-ascii" standalone="no"?><svg xmlns="http://www.w3.org/2000/svg" xmlns:xlink="http://www.w3.org/1999/xlink" contentStyleType="text/css" height="315px" preserveAspectRatio="none" style="width:821px;height:315px;background:#FFFFFF;" version="1.1" viewBox="0 0 821 315" width="821px" zoomAndPan="magnify"><defs><filter height="300%" id="f14pl7ktpqe6d6" width="300%" x="-1" y="-1"><feGaussianBlur result="blurOut" stdDeviation="2.0"/><feColorMatrix in="blurOut" result="blurOut2" type="matrix" values="0 0 0 0 0 0 0 0 0 0 0 0 0 0 0 0 0 0 .4 0"/><feOffset dx="4.0" dy="4.0" in="blurOut2" result="blurOut3"/><feBlend in="SourceGraphic" in2="blurOut3" mode="normal"/></filter></defs><g><text fill="#000000" font-family="sans-serif" font-size="14" font-weight="bold" lengthAdjust="spacing" textLength="217" x="295.25" y="22.9951">Caso de Uso: Cerrar Sesi&#243;n</text><g id="DASHBOARD_ABIERTO"><rect fill="#FEFECE" filter="url(#f14pl7ktpqe6d6)" height="50" rx="12.5" ry="12.5" style="stroke:#A80036;stroke-width:1.0;" width="182" x="548.5" y="124.2969"/><line style="stroke:#A80036;stroke-width:1.0;" x1="548.5" x2="730.5" y1="150.5938" y2="150.5938"/><text fill="#000000" font-family="sans-serif" font-size="14" lengthAdjust="spacing" textLength="162" x="558.5" y="142.292">DASHBOARD_ABIERTO</text></g><g id="INICIO"><rect fill="#FEFECE" filter="url(#f14pl7ktpqe6d6)" height="50" rx="12.5" ry="12.5" style="stroke:#A80036;stroke-width:1.0;" width="63" x="7" y="251.2969"/><line style="stroke:#A80036;stroke-width:1.0;" x1="7" x2="70" y1="277.5938" y2="277.5938"/><text fill="#000000" font-family="sans-serif" font-size="14" lengthAdjust="spacing" textLength="43" x="17" y="269.292">INICIO</text></g><g id="elem_ConfirmarCierre"><polygon fill="#FEFECE" filter="url(#f14pl7ktpqe6d6)" points="136.5,137.2969,148.5,149.2969,136.5,161.2969,124.5,149.2969,136.5,137.2969" style="stroke:#A80036;stroke-width:1.5;"/></g><g id="CancelarCierre"><rect fill="#FEFECE" filter="url(#f14pl7ktpqe6d6)" height="50" rx="12.5" ry="12.5" style="stroke:#A80036;stroke-width:1.0;" width="50" x="302.5" y="124.2969"/><line style="stroke:#A80036;stroke-width:1.0;" x1="302.5" x2="352.5" y1="150.5938" y2="150.5938"/><text fill="#000000" font-family="sans-serif" font-size="14" lengthAdjust="spacing" textLength="4" x="325.5" y="142.292">&#160;</text></g><ellipse cx="639.5" cy="53.2969" fill="#000000" filter="url(#f14pl7ktpqe6d6)" rx="10" ry="10" style="stroke:#000000;stroke-width:1.0;"/><g id="Logout"><rect fill="#FEFECE" filter="url(#f14pl7ktpqe6d6)" height="50" rx="12.5" ry="12.5" style="stroke:#A80036;stroke-width:1.0;" width="70" x="387.5" y="251.2969"/><line style="stroke:#A80036;stroke-width:1.0;" x1="387.5" x2="457.5" y1="277.5938" y2="277.5938"/><text fill="#000000" font-family="sans-serif" font-size="14" lengthAdjust="spacing" textLength="50" x="397.5" y="269.292">Logout</text></g><!--link *start* to DASHBOARD_ABIERTO--><g id="link_*start*_DASHBOARD_ABIERTO"><path d="M639.5,63.3099 C639.5,77.1879 639.5,98.2619 639.5,118.1369 " fill="none" id="*start*-to-DASHBOARD_ABIERTO" style="stroke:#A80036;stroke-width:1.0;"/><polygon fill="#A80036" points="639.5,124.1369,643.5,115.1369,639.5,119.1369,635.5,115.1369,639.5,124.1369" style="stroke:#A80036;stroke-width:1.0;"/></g><!--link DASHBOARD_ABIERTO to Logout--><g id="link_DASHBOARD_ABIERTO_Logout"><path d="M631.617,174.5309 C625.432,189.9629 615.354,209.2477 600.5,221.2969 C558.868,255.0681 502.3387,267.0197 463.5507,271.7611 " fill="none" id="DASHBOARD_ABIERTO-to-Logout" style="stroke:#0000FF;stroke-width:1.0;"/><polygon fill="#0000FF" points="457.595,272.4891,467.0138,275.3675,462.5581,271.8824,466.0432,267.4266,457.595,272.4891" style="stroke:#0000FF;stroke-width:1.0;"/><text fill="#000000" font-family="sans-serif" font-size="13" lengthAdjust="spacing" textLength="197" x="616.5" y="217.3638">El usuario solicita cerrar sesi&#243;n</text></g><!--link Logout to ConfirmarCierre--><g id="link_Logout_ConfirmarCierre"><path d="M387.397,273.3952 C341.063,269.4881 258.372,257.5745 198.5,221.2969 C171.068,204.6754 152.3912,177.0281 143.6932,162.5711 " fill="none" id="Logout-to-ConfirmarCierre" style="stroke:#0000FF;stroke-width:1.0;"/><polygon fill="#0000FF" points="140.6,157.4299,141.8123,167.2038,143.1777,161.7142,148.6673,163.0796,140.6,157.4299" style="stroke:#0000FF;stroke-width:1.0;"/><text fill="#000000" font-family="sans-serif" font-size="13" lengthAdjust="spacing" textLength="392" x="199.5" y="217.3638">El sistema presenta opciones para confirmar cierre de sesi&#243;n</text></g><!--link ConfirmarCierre to INICIO--><g id="link_ConfirmarCierre_INICIO"><path d="M127.05,152.0219 C106.0891,156.4149 55.9425,170.1859 35.5,204.2969 C27.1284,218.2658 26.9826,230.8282 29.9729,245.4147 " fill="none" id="ConfirmarCierre-to-INICIO" style="stroke:#0000FF;stroke-width:1.0;"/><polygon fill="#0000FF" points="31.1779,251.2925,33.289,241.6725,30.1738,246.3943,25.4519,243.2791,31.1779,251.2925" style="stroke:#0000FF;stroke-width:1.0;"/><text fill="#000000" font-family="sans-serif" font-size="13" lengthAdjust="spacing" textLength="125" x="36.5" y="217.3638">[Cierre confirmado]</text></g><!--link ConfirmarCierre to CancelarCierre--><g id="link_ConfirmarCierre_CancelarCierre"><path d="M148.738,149.2969 C179.532,149.2969 254.722,149.2969 296.252,149.2969 " fill="none" id="ConfirmarCierre-to-CancelarCierre" style="stroke:#FF0000;stroke-width:1.0;"/><polygon fill="#FF0000" points="302.252,149.2969,293.252,145.2969,297.252,149.2969,293.252,153.2969,302.252,149.2969" style="stroke:#FF0000;stroke-width:1.0;"/><text fill="#000000" font-family="sans-serif" font-size="13" lengthAdjust="spacing" textLength="117" x="167" y="142.3638">[Cierre cancelado]</text></g><!--link CancelarCierre to DASHBOARD_ABIERTO--><g id="link_CancelarCierre_DASHBOARD_ABIERTO"><path d="M352.505,149.2969 C394.512,149.2969 475.241,149.2969 542.42,149.2969 " fill="none" id="CancelarCierre-to-DASHBOARD_ABIERTO" style="stroke:#FF0000;stroke-width:1.0;"/><polygon fill="#FF0000" points="548.42,149.2969,539.42,145.2969,543.42,149.2969,539.42,153.2969,548.42,149.2969" style="stroke:#FF0000;stroke-width:1.0;"/><text fill="#000000" font-family="sans-serif" font-size="13" lengthAdjust="spacing" textLength="159" x="371" y="142.3638">El sistema cancela cierre</text></g><!--SRC=[PL3RQeD047tVhnZCMy4Va20O4wXG4aZI9v6oNIVjKBCZE-kNzHFwOxMw5erlovxBd7FaYomu5bIUV8EGQs6e4Lw54yZHEUtWWa8_trOfyTeZxBFBy-wKdVTlsQuudAydq0BHwZSAzE9OvCN86PyJaBEzaRjhbrD_1s6xDPzC1jDq8cXhiFd7_nmWKgfygY2EqtKEfTRHuhhSl3STLhtWXJ-uyv30eO5EEks8GRWXGrw36RjAw1guS_bZti57I3pUDRGE1MtlmwqXjYZGQjUxJXemewYVTZhnw3U_5KPBe0pWP5HpjHQwSkEm7Z8k9vlfHs2GBpapzNg-HSVW4Qhy0W00]--></g></svg>