<?xml version="1.0" encoding="us-ascii" standalone="no"?><svg xmlns="http://www.w3.org/2000/svg" xmlns:xlink="http://www.w3.org/1999/xlink" contentStyleType="text/css" height="665px" preserveAspectRatio="none" style="width:1092px;height:665px;background:#FFFFFF;" version="1.1" viewBox="0 0 1092 665" width="1092px" zoomAndPan="magnify"><defs><filter height="300%" id="f1v8f83yucqme8" width="300%" x="-1" y="-1"><feGaussianBlur result="blurOut" stdDeviation="2.0"/><feColorMatrix in="blurOut" result="blurOut2" type="matrix" values="0 0 0 0 0 0 0 0 0 0 0 0 0 0 0 0 0 0 .4 0"/><feOffset dx="4.0" dy="4.0" in="blurOut2" result="blurOut3"/><feBlend in="SourceGraphic" in2="blurOut3" mode="normal"/></filter></defs><g><text fill="#000000" font-family="sans-serif" font-size="14" font-weight="bold" lengthAdjust="spacing" textLength="364" x="356.25" y="22.9951">Caso de Uso: Modificar Fichaje en Dashboard</text><!--cluster modificarFichaje--><g id="cluster_modificarFichaje"><rect fill="none" filter="url(#f1v8f83yucqme8)" height="502" rx="12.5" ry="12.5" style="stroke:#A80036;stroke-width:1.0;" width="602" x="234" y="149.2969"/><path d="M246.5,149.2969 L823.5,149.2969 A12.5,12.5 0 0 1 836,161.7969 L836,170.5938 L234,170.5938 L234,161.7969 A12.5,12.5 0 0 1 246.5,149.2969 " fill="#FEFECE" style="stroke:#FEFECE;stroke-width:1.0;"/><path d="M234,170.5938 L836,170.5938 L836,638.7969 A12.5,12.5 0 0 1 823.5,651.2969 L246.5,651.2969 A12.5,12.5 0 0 1 234,638.7969 L234,170.5938 " fill="#FEFECE" style="stroke:#FEFECE;stroke-width:1.0;"/><rect fill="none" height="502" rx="12.5" ry="12.5" style="stroke:#A80036;stroke-width:1.0;" width="602" x="234" y="149.2969"/><line style="stroke:#A80036;stroke-width:1.0;" x1="234" x2="836" y1="170.5938" y2="170.5938"/><text fill="#000000" font-family="sans-serif" font-size="14" lengthAdjust="spacing" textLength="118" x="476" y="166.292">modificarFichaje</text></g><ellipse cx="562" cy="202.2969" fill="#000000" filter="url(#f1v8f83yucqme8)" rx="10" ry="10" style="stroke:#000000;stroke-width:1.0;"/><g id="modificarFichaje.seleccionarFichaje"><rect fill="#FEFECE" filter="url(#f1v8f83yucqme8)" height="50" rx="12.5" ry="12.5" style="stroke:#A80036;stroke-width:1.0;" width="239" x="442.5" y="291.2969"/><line style="stroke:#A80036;stroke-width:1.0;" x1="442.5" x2="681.5" y1="317.5938" y2="317.5938"/><text fill="#000000" font-family="sans-serif" font-size="14" lengthAdjust="spacing" textLength="219" x="452.5" y="309.292">Seleccionar fichaje a modificar</text></g><g id="modificarFichaje.modificarDetallesFichaje"><rect fill="#FEFECE" filter="url(#f1v8f83yucqme8)" height="50" rx="12.5" ry="12.5" style="stroke:#A80036;stroke-width:1.0;" width="225" x="266.5" y="438.2969"/><line style="stroke:#A80036;stroke-width:1.0;" x1="266.5" x2="491.5" y1="464.5938" y2="464.5938"/><text fill="#000000" font-family="sans-serif" font-size="14" lengthAdjust="spacing" textLength="205" x="276.5" y="456.292">Modificar detalles del fichaje</text></g><ellipse cx="446" cy="616.2969" fill="none" filter="url(#f1v8f83yucqme8)" rx="11" ry="11" style="stroke:#000000;stroke-width:1.0;"/><ellipse cx="446" cy="616.2969" fill="#000000" rx="6" ry="6" style="stroke:#000000;stroke-width:1.0;"/><g id="DASHBOARD_ABIERTO"><rect fill="#FEFECE" filter="url(#f1v8f83yucqme8)" height="50" rx="12.5" ry="12.5" style="stroke:#A80036;stroke-width:1.0;" width="182" x="151" y="44.2969"/><line style="stroke:#A80036;stroke-width:1.0;" x1="151" x2="333" y1="70.5938" y2="70.5938"/><text fill="#000000" font-family="sans-serif" font-size="14" lengthAdjust="spacing" textLength="162" x="161" y="62.292">DASHBOARD_ABIERTO</text></g><g id="elem_GMN13"><path d="M6,420.2969 L6,505.9609 A0,0 0 0 0 6,505.9609 L210,505.9609 A0,0 0 0 0 210,505.9609 L210,467.2969 L266.216,463.2969 L210,459.2969 L210,430.2969 L200,420.2969 L6,420.2969 A0,0 0 0 0 6,420.2969 " fill="#FBFB77" filter="url(#f1v8f83yucqme8)" style="stroke:#A80036;stroke-width:1.0;"/><path d="M200,420.2969 L200,430.2969 L210,430.2969 L200,420.2969 " fill="#FBFB77" style="stroke:#A80036;stroke-width:1.0;"/><text fill="#000000" font-family="sans-serif" font-size="13" lengthAdjust="spacing" textLength="125" x="12" y="437.3638">El sistema permite:</text><text fill="#000000" font-family="sans-serif" font-size="13" lengthAdjust="spacing" textLength="155" x="12" y="452.4966">&#176; Modificar Fecha y Hora</text><text fill="#000000" font-family="sans-serif" font-size="13" lengthAdjust="spacing" textLength="183" x="12" y="467.6294">&#176; Guardar fichaje modificado</text><text fill="#000000" font-family="sans-serif" font-size="13" lengthAdjust="spacing" textLength="100" x="12" y="482.7622">&#176; Volver a atr&#225;s</text><text fill="#000000" font-family="sans-serif" font-size="13" lengthAdjust="spacing" textLength="166" x="12" y="497.895">&#176; Cancelar la modificaci&#243;n</text></g><g id="elem_GMN16"><path d="M860.5,273.2969 L860.5,312.2969 L681.717,316.2969 L860.5,320.2969 L860.5,358.9609 A0,0 0 0 0 860.5,358.9609 L1083.5,358.9609 A0,0 0 0 0 1083.5,358.9609 L1083.5,283.2969 L1073.5,273.2969 L860.5,273.2969 A0,0 0 0 0 860.5,273.2969 " fill="#FBFB77" filter="url(#f1v8f83yucqme8)" style="stroke:#A80036;stroke-width:1.0;"/><path d="M1073.5,273.2969 L1073.5,283.2969 L1083.5,283.2969 L1073.5,273.2969 " fill="#FBFB77" style="stroke:#A80036;stroke-width:1.0;"/><text fill="#000000" font-family="sans-serif" font-size="13" lengthAdjust="spacing" textLength="128" x="866.5" y="290.3638">El sistema requiere:</text><text fill="#000000" font-family="sans-serif" font-size="13" lengthAdjust="spacing" textLength="135" x="866.5" y="305.4966">&#176; Seleccionar Usuario</text><text fill="#000000" font-family="sans-serif" font-size="13" lengthAdjust="spacing" textLength="171" x="866.5" y="320.6294">&#176; Seleccionar Fecha y Hora</text><text fill="#000000" font-family="sans-serif" font-size="13" lengthAdjust="spacing" textLength="202" x="866.5" y="335.7622">&#176; Facilitar al cliente la b&#250;squeda</text><text fill="#000000" font-family="sans-serif" font-size="13" lengthAdjust="spacing" textLength="148" x="866.5" y="350.895">&#176; Cancelar la b&#250;squeda</text></g><!--link DASHBOARD_ABIERTO to modificarFichaje--><g id="link_DASHBOARD_ABIERTO_modificarFichaje"><path d="M242,94.3239 C242,103.6309 242,114.8356 242,126.4404 C242,132.2428 242,138.1452 242,143.9604 C242,145.4142 242,146.8626 242,148.3026 C242,148.4826 242,142.6624 242,142.8422 " fill="none" id="DASHBOARD_ABIERTO-to-modificarFichaje" style="stroke:#A80036;stroke-width:1.0;"/><polygon fill="#A80036" points="242,148.8422,246,139.8422,242,143.8422,238,139.8422,242,148.8422" style="stroke:#A80036;stroke-width:1.0;"/></g><!--link *start*modificarFichaje to seleccionarFichaje--><g id="link_*start*modificarFichaje_seleccionarFichaje"><path d="M562,212.4619 C562,229.4939 562,260.5269 562,285.1859 " fill="none" id="*start*modificarFichaje-to-seleccionarFichaje" style="stroke:#0000FF;stroke-width:1.0;"/><polygon fill="#0000FF" points="562,291.1859,566,282.1859,562,286.1859,558,282.1859,562,291.1859" style="stroke:#0000FF;stroke-width:1.0;"/></g><!--link seleccionarFichaje to modificarDetallesFichaje--><g id="link_seleccionarFichaje_modificarDetallesFichaje"><path d="M531.37,341.5669 C497.487,368.4139 447.9277,407.6816 414.1277,434.4636 " fill="none" id="seleccionarFichaje-to-modificarDetallesFichaje" style="stroke:#0000FF;stroke-width:1.0;"/><polygon fill="#0000FF" points="409.425,438.1899,418.9632,435.7356,413.3439,435.0847,413.9948,429.4654,409.425,438.1899" style="stroke:#0000FF;stroke-width:1.0;"/></g><!--link modificarDetallesFichaje to *end*modificarFichaje--><g id="link_modificarDetallesFichaje_*end*modificarFichaje"><path d="M353.345,488.6399 C331.782,512.1119 307.374,547.9959 327,575.2969 C352.316,610.5151 404.1815,615.0726 428.6945,615.3909 " fill="none" id="modificarDetallesFichaje-to-*end*modificarFichaje" style="stroke:#0000FF;stroke-width:1.0;"/><polygon fill="#0000FF" points="434.694,615.4688,425.7467,611.3523,429.6944,615.4039,425.6428,619.3516,434.694,615.4688" style="stroke:#0000FF;stroke-width:1.0;"/><path d="M332,541.2969 L332,566.2969 L544,566.2969 L544,551.2969 L534,541.2969 L332,541.2969 " fill="#FBFB77" filter="url(#f1v8f83yucqme8)" style="stroke:#A80036;stroke-width:1.0;"/><path d="M534,541.2969 L534,551.2969 L544,551.2969 L534,541.2969 " fill="#FBFB77" style="stroke:#A80036;stroke-width:1.0;"/><text fill="#000000" font-family="sans-serif" font-size="13" lengthAdjust="spacing" textLength="191" x="338" y="558.3638">El usuario guarda los cambios</text></g><!--link seleccionarFichaje to *end*modificarFichaje--><g id="link_seleccionarFichaje_*end*modificarFichaje"><path d="M569.738,341.4119 C583.918,390.6139 608.173,503.9419 557,575.2969 C533.483,608.0891 486.4221,613.8335 463.2171,614.862 " fill="none" id="seleccionarFichaje-to-*end*modificarFichaje" style="stroke:#FF0000;stroke-width:1.0;"/><polygon fill="#FF0000" points="457.223,615.1277,466.3913,618.7252,462.2181,614.9063,466.0371,610.7331,457.223,615.1277" style="stroke:#FF0000;stroke-width:1.0;"/><path d="M593,448.7969 L593,473.7969 L829,473.7969 L829,458.7969 L819,448.7969 L593,448.7969 " fill="#FBFB77" filter="url(#f1v8f83yucqme8)" style="stroke:#A80036;stroke-width:1.0;"/><path d="M819,448.7969 L819,458.7969 L829,458.7969 L819,448.7969 " fill="#FBFB77" style="stroke:#A80036;stroke-width:1.0;"/><text fill="#000000" font-family="sans-serif" font-size="13" lengthAdjust="spacing" textLength="215" x="599" y="465.8638">El usuario cancela la modificaci&#243;n</text></g><!--SRC=[ZPB1JiCm38RlUGeBRaXxWHsGjdLZ7D2aZN6P9kGcBWjB4vQaI0ZnCBm14ZUExCK8pKghTPkGMhNoRt_-xSIjfGPh734llI8Oe3CW2ERETE7629b9ZXP6ag_maO0q9EXMgK4h67CUFK7IcutxazuqkU_rhuVJsmbZhH1qEfUGLxWThGBin-6L0Imkbj1PdAUge6MeTQI8SsbqNGqGoyzcjGRP3e4rzGpG7Qbl1Pij_m09ULIANAjnlH-nIma_gl9GzZq1EIP1qqHOGqZL9hGp6fJKwouC5HIkG2iDF8IFG5360SSybSQ5xFWS7iwI-0UMe-Qa0hTU8vVRJnt9uMLlZ9NLYZ8F9ZirP-0wwJpb24zaS-cf6wBV7ythHI4PNc1iB4RjgXoiFi-ABqpKxunw9XkE6RtTlhiO74JRjksRj2YdtNDzy5Oq_5hQ599iPRXvqUPnLMsXFSiec53I1mqLS2L9_rf0IBTVRbEGmBRxMggS_m00]--></g></svg>