<?xml version="1.0" encoding="UTF-8" standalone="no"?><svg xmlns="http://www.w3.org/2000/svg" xmlns:xlink="http://www.w3.org/1999/xlink" contentStyleType="text/css" height="573px" preserveAspectRatio="none" style="width:887px;height:573px;background:#FFFFFF;" version="1.1" viewBox="0 0 887 573" width="887px" zoomAndPan="magnify"><defs><filter height="300%" id="f73flfzih880b" width="300%" x="-1" y="-1"><feGaussianBlur result="blurOut" stdDeviation="2.0"/><feColorMatrix in="blurOut" result="blurOut2" type="matrix" values="0 0 0 0 0 0 0 0 0 0 0 0 0 0 0 0 0 0 .4 0"/><feOffset dx="4.0" dy="4.0" in="blurOut2" result="blurOut3"/><feBlend in="SourceGraphic" in2="blurOut3" mode="normal"/></filter></defs><g><rect fill="none" height="27.6094" id="_title" style="stroke:none;stroke-width:1.0;" width="232" x="319.5" y="5"/><text fill="#000000" font-family="sans-serif" font-size="14" font-weight="bold" lengthAdjust="spacing" textLength="222" x="324.5" y="24.5332">Caso de Uso: Ver Fichaje Admin</text><!--MD5=[3ee5c8aa7d88ea19e1dfb9b4525d18b8]
cluster verFichajeAdmin--><g id="cluster_verFichajeAdmin"><rect fill="none" filter="url(#f73flfzih880b)" height="409" rx="12.5" ry="12.5" style="stroke:#A80036;stroke-width:1.0;" width="409" x="233.5" y="150.6094"/><path d="M246,150.6094 L630,150.6094 A12.5,12.5 0 0 1 642.5,163.1094 L642.5,178.2188 L233.5,178.2188 L233.5,163.1094 A12.5,12.5 0 0 1 246,150.6094 " fill="#FEFECE" style="stroke:#FEFECE;stroke-width:1.0;"/><path d="M233.5,178.2188 L642.5,178.2188 L642.5,547.1094 A12.5,12.5 0 0 1 630,559.6094 L246,559.6094 A12.5,12.5 0 0 1 233.5,547.1094 L233.5,178.2188 " fill="#FEFECE" style="stroke:#FEFECE;stroke-width:1.0;"/><rect fill="none" height="409" rx="12.5" ry="12.5" style="stroke:#A80036;stroke-width:1.0;" width="409" x="233.5" y="150.6094"/><line style="stroke:#A80036;stroke-width:1.0;" x1="233.5" x2="642.5" y1="178.2188" y2="178.2188"/><text fill="#000000" font-family="sans-serif" font-size="14" lengthAdjust="spacing" textLength="105" x="385.5" y="169.1426">verFichajeAdmin</text></g><ellipse cx="290.5" cy="204.6094" fill="#000000" filter="url(#f73flfzih880b)" rx="10" ry="10" style="stroke:none;stroke-width:1.0;"/><g id="verFichajeAdmin.seleccionarUsuario"><rect fill="#FEFECE" filter="url(#f73flfzih880b)" height="50" rx="12.5" ry="12.5" style="stroke:#A80036;stroke-width:1.0;" width="50" x="265.5" y="280.1094"/><line style="stroke:#A80036;stroke-width:1.0;" x1="265.5" x2="315.5" y1="307.7188" y2="307.7188"/><text fill="#000000" font-family="sans-serif" font-size="14" lengthAdjust="spacing" textLength="4" x="288.5" y="299.6426"> </text></g><g id="verFichajeAdmin.mostrarFichaje"><rect fill="#FEFECE" filter="url(#f73flfzih880b)" height="50" rx="12.5" ry="12.5" style="stroke:#A80036;stroke-width:1.0;" width="50" x="265.5" y="400.1094"/><line style="stroke:#A80036;stroke-width:1.0;" x1="265.5" x2="315.5" y1="427.7188" y2="427.7188"/><text fill="#000000" font-family="sans-serif" font-size="14" lengthAdjust="spacing" textLength="4" x="288.5" y="419.6426"> </text></g><ellipse cx="338.5" cy="525.6094" fill="none" filter="url(#f73flfzih880b)" rx="10" ry="10" style="stroke:#000000;stroke-width:1.0;"/><ellipse cx="339" cy="526.1094" fill="#000000" rx="6" ry="6" style="stroke:none;stroke-width:1.0;"/><g id="DASHBOARD_ABIERTO"><rect fill="#FEFECE" filter="url(#f73flfzih880b)" height="50" rx="12.5" ry="12.5" style="stroke:#A80036;stroke-width:1.0;" width="174" x="154.5" y="45.6094"/><line style="stroke:#A80036;stroke-width:1.0;" x1="154.5" x2="328.5" y1="73.2188" y2="73.2188"/><text fill="#000000" font-family="sans-serif" font-size="14" lengthAdjust="spacing" textLength="154" x="164.5" y="65.1426">DASHBOARD_ABIERTO</text></g><g id="elem_GMN13"><path d="M6,275.6094 L6,334.6641 A0,0 0 0 0 6,334.6641 L209,334.6641 A0,0 0 0 0 209,334.6641 L209,309.1094 L265.35,305.1094 L209,301.1094 L209,285.6094 L199,275.6094 L6,275.6094 A0,0 0 0 0 6,275.6094 " fill="#FBFB77" filter="url(#f73flfzih880b)" style="stroke:#A80036;stroke-width:1.0;"/><path d="M199,275.6094 L199,285.6094 L209,285.6094 L199,275.6094 " fill="#FBFB77" style="stroke:#A80036;stroke-width:1.0;"/><text fill="#000000" font-family="sans-serif" font-size="13" lengthAdjust="spacing" textLength="116" x="12" y="294.1045">El sistema requiere:</text><text fill="#000000" font-family="sans-serif" font-size="13" lengthAdjust="spacing" textLength="164" x="12" y="310.4561">- Buscar usuario por nombre</text><text fill="#000000" font-family="sans-serif" font-size="13" lengthAdjust="spacing" textLength="182" x="12" y="326.8076">- Seleccionar usuario de la lista</text></g><g id="elem_GMN16"><path d="M667,395.6094 L667,454.6641 L878,454.6641 L878,405.6094 L868,395.6094 L667,395.6094 " fill="#FBFB77" filter="url(#f73flfzih880b)" style="stroke:#A80036;stroke-width:1.0;"/><path d="M868,395.6094 L868,405.6094 L878,405.6094 L868,395.6094 " fill="#FBFB77" style="stroke:#A80036;stroke-width:1.0;"/><text fill="#000000" font-family="sans-serif" font-size="13" lengthAdjust="spacing" textLength="113" x="673" y="414.1045">El sistema permite:</text><text fill="#000000" font-family="sans-serif" font-size="13" lengthAdjust="spacing" textLength="190" x="673" y="430.4561">- Revisar los fichajes del usuario.</text><text fill="#000000" font-family="sans-serif" font-size="13" lengthAdjust="spacing" textLength="182" x="673" y="446.8076">- Editar los fichajes del usuario.</text></g><!--MD5=[0da5653f7f3234866358d7cbe2fae15f]
link DASHBOARD_ABIERTO to verFichajeAdmin--><g id="link_DASHBOARD_ABIERTO_verFichajeAdmin"><path d="M241.5,95.8194 C241.5,105.1969 241.5,116.4869 241.5,128.1802 C241.5,134.0268 241.5,139.9743 241.5,145.8339 C241.5,147.2988 241.5,148.7582 241.5,150.2092 " fill="none" id="DASHBOARD_ABIERTO-to-verFichajeAdmin" style="stroke:#A80036;stroke-width:1.0;"/><polygon fill="#A80036" points="241.5,150.2092,245.5,141.2092,241.5,145.2092,237.5,141.2092,241.5,150.2092" style="stroke:#A80036;stroke-width:1.0;"/></g><!--MD5=[0532b65f04a6647078c83104352a6fb7]
link *start*verFichajeAdmin to seleccionarUsuario--><g id="link_*start*verFichajeAdmin_seleccionarUsuario"><path d="M290.5,214.6994 C290.5,228.2194 290.5,254.2394 290.5,274.7394 " fill="none" id="*start*verFichajeAdmin-to-seleccionarUsuario" style="stroke:#0000FF;stroke-width:1.0;"/><polygon fill="#0000FF" points="290.5,279.8194,294.5,270.8194,290.5,274.8194,286.5,270.8194,290.5,279.8194" style="stroke:#0000FF;stroke-width:1.0;"/></g><!--MD5=[a25af29091ab3faae3204a63411fda93]
link seleccionarUsuario to mostrarFichaje--><g id="link_seleccionarUsuario_mostrarFichaje"><path d="M290.5,330.2694 C290.5,348.9694 290.5,374.9294 290.5,394.7994 " fill="none" id="seleccionarUsuario-to-mostrarFichaje" style="stroke:#0000FF;stroke-width:1.0;"/><polygon fill="#0000FF" points="290.5,399.9794,294.5,390.9794,290.5,394.9794,286.5,390.9794,290.5,399.9794" style="stroke:#0000FF;stroke-width:1.0;"/></g><!--MD5=[d2211f3065fcc29846be95ffa408ce2e]
link mostrarFichaje to *end*verFichajeAdmin--><g id="link_mostrarFichaje_*end*verFichajeAdmin"><path d="M302.24,450.2094 C311.62,469.4494 324.41,495.6894 332.02,511.3194 " fill="none" id="mostrarFichaje-to-*end*verFichajeAdmin" style="stroke:#0000FF;stroke-width:1.0;"/><polygon fill="#0000FF" points="334.39,516.1794,334.0559,506.3362,332.2055,511.6818,326.8598,509.8314,334.39,516.1794" style="stroke:#0000FF;stroke-width:1.0;"/></g><!--MD5=[58767d4f47684559edf0e7796a9a9641]
link seleccionarUsuario to *end*verFichajeAdmin--><g id="link_seleccionarUsuario_*end*verFichajeAdmin"><path d="M305.4,330.1594 C315.37,347.6194 327.69,372.1894 333.5,395.6094 C343.59,436.2594 341.61,486.2994 339.81,510.3594 " fill="none" id="seleccionarUsuario-to-*end*verFichajeAdmin" style="stroke:#FF0000;stroke-width:1.0;"/><polygon fill="#FF0000" points="339.41,515.3594,344.1189,506.7092,339.811,510.3755,336.1447,506.0676,339.41,515.3594" style="stroke:#FF0000;stroke-width:1.0;"/><path d="M345.5,410.1094 L345.5,436.1094 L564.5,436.1094 L564.5,420.1094 L554.5,410.1094 L345.5,410.1094 " fill="#FBFB77" filter="url(#f73flfzih880b)" style="stroke:#A80036;stroke-width:1.0;"/><path d="M554.5,410.1094 L554.5,420.1094 L564.5,420.1094 L554.5,410.1094 " fill="#FBFB77" style="stroke:#A80036;stroke-width:1.0;"/><text fill="#000000" font-family="sans-serif" font-size="13" lengthAdjust="spacing" textLength="198" x="351.5" y="428.6045">El usuario cancela la visualización</text></g><!--MD5=[8f48a760a13141c78f3165ec0630aefe]
link GMN16 to mostrarFichaje--><g id="link_GMN16_mostrarFichaje"><path d="M711.24,395.4594 C683.21,383.4894 649.15,371.0994 617,365.1094 C504.71,344.1994 467.06,325.2894 360,365.1094 C341.18,372.1094 324.04,386.7594 311.5,399.8194 " fill="none" id="GMN16-mostrarFichaje" style="stroke:#A80036;stroke-width:1.0;stroke-dasharray:7.0,7.0;"/></g><!--MD5=[12ea93dacaeac4f3f6a853d3819940b4]
@startuml
skin rose
title Caso de Uso: Ver Fichaje Admin
state DASHBOARD_ABIERTO
DASHBOARD_ABIERTO - -> verFichajeAdmin

state verFichajeAdmin {
    [*] -[#blue]-> seleccionarUsuario
    state " " as seleccionarUsuario
    seleccionarUsuario -[#blue]-> mostrarFichaje
    state " " as mostrarFichaje
    mostrarFichaje -[#blue]-> [*]

    seleccionarUsuario -[#red]-> [*]
    note on link: El usuario cancela la visualización

}

note left of seleccionarUsuario
    El sistema requiere:
    - Buscar usuario por nombre
    - Seleccionar usuario de la lista
end note

note left of mostrarFichaje
    El sistema permite:
    - Revisar los fichajes del usuario.
    - Editar los fichajes del usuario.
end note

@enduml

PlantUML version 1.2022.7(Mon Aug 22 19:01:30 CEST 2022)
(GPL source distribution)
Java Runtime: Java(TM) SE Runtime Environment
JVM: Java HotSpot(TM) 64-Bit Server VM
Default Encoding: UTF-8
Language: es
Country: ES
--></g></svg>