<?xml version="1.0" encoding="UTF-8" standalone="no"?><svg xmlns="http://www.w3.org/2000/svg" xmlns:xlink="http://www.w3.org/1999/xlink" contentStyleType="text/css" height="525px" preserveAspectRatio="none" style="width:680px;height:525px;background:#FFFFFF;" version="1.1" viewBox="0 0 680 525" width="680px" zoomAndPan="magnify"><defs><filter height="300%" id="fji3zqfxtn5iv" width="300%" x="-1" y="-1"><feGaussianBlur result="blurOut" stdDeviation="2.0"/><feColorMatrix in="blurOut" result="blurOut2" type="matrix" values="0 0 0 0 0 0 0 0 0 0 0 0 0 0 0 0 0 0 .4 0"/><feOffset dx="4.0" dy="4.0" in="blurOut2" result="blurOut3"/><feBlend in="SourceGraphic" in2="blurOut3" mode="normal"/></filter></defs><g><rect fill="none" height="27.6094" id="_title" style="stroke:none;stroke-width:1.0;" width="185" x="240.75" y="5"/><text fill="#000000" font-family="sans-serif" font-size="14" font-weight="bold" lengthAdjust="spacing" textLength="175" x="245.75" y="24.5332">Caso de Uso: Ver Fichaje</text><!--MD5=[d8ed73aeef9ff73df3b4b5d9b1081001]
cluster verFichaje--><g id="cluster_verFichaje"><rect fill="none" filter="url(#fji3zqfxtn5iv)" height="361" rx="12.5" ry="12.5" style="stroke:#A80036;stroke-width:1.0;" width="315" x="351.5" y="150.6094"/><path d="M364,150.6094 L654,150.6094 A12.5,12.5 0 0 1 666.5,163.1094 L666.5,178.2188 L351.5,178.2188 L351.5,163.1094 A12.5,12.5 0 0 1 364,150.6094 " fill="#FEFECE" style="stroke:#FEFECE;stroke-width:1.0;"/><path d="M351.5,178.2188 L666.5,178.2188 L666.5,499.1094 A12.5,12.5 0 0 1 654,511.6094 L364,511.6094 A12.5,12.5 0 0 1 351.5,499.1094 L351.5,178.2188 " fill="#FEFECE" style="stroke:#FEFECE;stroke-width:1.0;"/><rect fill="none" height="361" rx="12.5" ry="12.5" style="stroke:#A80036;stroke-width:1.0;" width="315" x="351.5" y="150.6094"/><line style="stroke:#A80036;stroke-width:1.0;" x1="351.5" x2="666.5" y1="178.2188" y2="178.2188"/><text fill="#000000" font-family="sans-serif" font-size="14" lengthAdjust="spacing" textLength="66" x="476" y="169.1426">verFichaje</text></g><ellipse cx="408.5" cy="204.6094" fill="#000000" filter="url(#fji3zqfxtn5iv)" rx="10" ry="10" style="stroke:none;stroke-width:1.0;"/><g id="verFichaje.mostrarFichaje"><rect fill="#FEFECE" filter="url(#fji3zqfxtn5iv)" height="50" rx="12.5" ry="12.5" style="stroke:#A80036;stroke-width:1.0;" width="50" x="383.5" y="296.6094"/><line style="stroke:#A80036;stroke-width:1.0;" x1="383.5" x2="433.5" y1="324.2188" y2="324.2188"/><text fill="#000000" font-family="sans-serif" font-size="14" lengthAdjust="spacing" textLength="4" x="406.5" y="316.1426"> </text></g><ellipse cx="409.5" cy="477.6094" fill="none" filter="url(#fji3zqfxtn5iv)" rx="10" ry="10" style="stroke:#000000;stroke-width:1.0;"/><ellipse cx="410" cy="478.1094" fill="#000000" rx="6" ry="6" style="stroke:none;stroke-width:1.0;"/><g id="DASHBOARD_ABIERTO"><rect fill="#FEFECE" filter="url(#fji3zqfxtn5iv)" height="50" rx="12.5" ry="12.5" style="stroke:#A80036;stroke-width:1.0;" width="174" x="272.5" y="45.6094"/><line style="stroke:#A80036;stroke-width:1.0;" x1="272.5" x2="446.5" y1="73.2188" y2="73.2188"/><text fill="#000000" font-family="sans-serif" font-size="14" lengthAdjust="spacing" textLength="154" x="282.5" y="65.1426">DASHBOARD_ABIERTO</text></g><g id="elem_GMN11"><path d="M6,275.6094 L6,367.3672 A0,0 0 0 0 6,367.3672 L327,367.3672 A0,0 0 0 0 327,367.3672 L327,325.6094 L383.41,321.6094 L327,317.6094 L327,285.6094 L317,275.6094 L6,275.6094 A0,0 0 0 0 6,275.6094 " fill="#FBFB77" filter="url(#fji3zqfxtn5iv)" style="stroke:#A80036;stroke-width:1.0;"/><path d="M317,275.6094 L317,285.6094 L327,285.6094 L317,275.6094 " fill="#FBFB77" style="stroke:#A80036;stroke-width:1.0;"/><text fill="#000000" font-family="sans-serif" font-size="13" lengthAdjust="spacing" textLength="113" x="12" y="294.1045">El sistema permite:</text><text fill="#000000" font-family="sans-serif" font-size="13" lengthAdjust="spacing" textLength="229" x="12" y="310.4561">- Visualizar las horas totales trabajadas</text><text fill="#000000" font-family="sans-serif" font-size="13" lengthAdjust="spacing" textLength="300" x="12" y="326.8076">- Visualizar las horas restantes de la jornada laboral</text><text fill="#000000" font-family="sans-serif" font-size="13" lengthAdjust="spacing" textLength="263" x="12" y="343.1592">- Visualizar el número total de fichajes diarios</text><text fill="#000000" font-family="sans-serif" font-size="13" lengthAdjust="spacing" textLength="127" x="12" y="359.5107">- Descargar el informe</text></g><!--MD5=[0198eb9ea1239d453c5be3d2a6bf6d80]
link DASHBOARD_ABIERTO to verFichaje--><g id="link_DASHBOARD_ABIERTO_verFichaje"><path d="M359.5,95.8194 C359.5,105.1969 359.5,116.4869 359.5,128.1802 C359.5,134.0268 359.5,139.9743 359.5,145.8339 C359.5,147.2988 359.5,148.7582 359.5,150.2092 " fill="none" id="DASHBOARD_ABIERTO-to-verFichaje" style="stroke:#A80036;stroke-width:1.0;"/><polygon fill="#A80036" points="359.5,150.2092,363.5,141.2092,359.5,145.2092,355.5,141.2092,359.5,150.2092" style="stroke:#A80036;stroke-width:1.0;"/></g><!--MD5=[d2d48f21362cbe14c188b0fb0dc92c51]
link *start*verFichaje to mostrarFichaje--><g id="link_*start*verFichaje_mostrarFichaje"><path d="M408.5,214.6294 C408.5,230.9494 408.5,265.9994 408.5,291.3294 " fill="none" id="*start*verFichaje-to-mostrarFichaje" style="stroke:#0000FF;stroke-width:1.0;"/><polygon fill="#0000FF" points="408.5,296.5794,412.5,287.5794,408.5,291.5794,404.5,287.5794,408.5,296.5794" style="stroke:#0000FF;stroke-width:1.0;"/></g><!--MD5=[bc252ac952d5e0e9304d76ec7924bf5a]
link mostrarFichaje to *end*verFichaje--><g id="link_mostrarFichaje_*end*verFichaje"><path d="M398.83,347.0494 C390.88,370.4694 382.04,406.7294 389.5,437.6094 C391.84,447.2894 397.01,457.2594 401.51,464.6994 " fill="none" id="mostrarFichaje-to-*end*verFichaje" style="stroke:#0000FF;stroke-width:1.0;"/><polygon fill="#0000FF" points="404.19,468.9794,402.8032,459.2286,401.5362,464.7418,396.023,463.4748,404.19,468.9794" style="stroke:#0000FF;stroke-width:1.0;"/></g><!--MD5=[bc252ac952d5e0e9304d76ec7924bf5a]
link mostrarFichaje to *end*verFichaje--><g id="link_mostrarFichaje_*end*verFichaje"><path d="M408.66,346.6694 C408.87,379.0494 409.23,435.6394 409.41,462.1394 " fill="none" id="mostrarFichaje-to-*end*verFichaje-1" style="stroke:#FF0000;stroke-width:1.0;"/><polygon fill="#FF0000" points="409.44,467.3194,413.3885,458.2967,409.4114,462.3195,405.3886,458.3424,409.44,467.3194" style="stroke:#FF0000;stroke-width:1.0;"/><path d="M413.5,402.6094 L413.5,428.6094 L616.5,428.6094 L616.5,412.6094 L606.5,402.6094 L413.5,402.6094 " fill="#FBFB77" filter="url(#fji3zqfxtn5iv)" style="stroke:#A80036;stroke-width:1.0;"/><path d="M606.5,402.6094 L606.5,412.6094 L616.5,412.6094 L606.5,402.6094 " fill="#FBFB77" style="stroke:#A80036;stroke-width:1.0;"/><text fill="#000000" font-family="sans-serif" font-size="13" lengthAdjust="spacing" textLength="182" x="419.5" y="421.1045">El usuario cancela el ver fichaje</text></g><!--MD5=[bb3c86250580f3a4dbd2b5b0e9954f2e]
@startuml

skin rose
title Caso de Uso: Ver Fichaje
state DASHBOARD_ABIERTO

DASHBOARD_ABIERTO - -> verFichaje

state verFichaje {
[*] -[#blue]-> mostrarFichaje
state " " as mostrarFichaje
mostrarFichaje -[#blue]-> [*]

mostrarFichaje -[#red]-> [*]
note on link: El usuario cancela el ver fichaje
}

note left of mostrarFichaje
    El sistema permite:
    - Visualizar las horas totales trabajadas
    - Visualizar las horas restantes de la jornada laboral
    - Visualizar el número total de fichajes diarios
    - Descargar el informe
end note

@enduml

PlantUML version 1.2022.7(Mon Aug 22 19:01:30 CEST 2022)
(GPL source distribution)
Java Runtime: Java(TM) SE Runtime Environment
JVM: Java HotSpot(TM) 64-Bit Server VM
Default Encoding: UTF-8
Language: es
Country: ES
--></g></svg>