<?xml version="1.0" encoding="UTF-8" standalone="no"?><svg xmlns="http://www.w3.org/2000/svg" xmlns:xlink="http://www.w3.org/1999/xlink" contentStyleType="text/css" height="702px" preserveAspectRatio="none" style="width:556px;height:702px;background:#EAEAEA;" version="1.1" viewBox="0 0 556 702" width="556px" zoomAndPan="magnify"><defs/><g><rect fill="#EAEAEA" height="26.0986" id="_title" style="stroke:none;stroke-width:1.0;" width="185" x="184.375" y="15"/><text fill="#000000" font-family="Arial" font-size="14" font-weight="bold" lengthAdjust="spacing" textLength="175" x="189.375" y="33.1318">Caso de Uso: Ver Fichaje</text><ellipse cx="225.75" cy="57.0986" fill="#222222" rx="10" ry="10" style="stroke:#222222;stroke-width:1.0;"/><rect fill="#F1F1F1" height="36.0986" rx="12.5" ry="12.5" style="stroke:#181818;stroke-width:0.5;" width="170" x="140.75" y="87.0986"/><text fill="#000000" font-family="Arial" font-size="14" lengthAdjust="spacing" textLength="150" x="150.75" y="110.2305">DASHBOARD ABIERTO</text><polygon fill="#F1F1F1" points="162.25,143.1973,289.25,143.1973,301.25,155.1973,289.25,167.1973,162.25,167.1973,150.25,155.1973,162.25,143.1973" style="stroke:#181818;stroke-width:0.5;"/><text fill="#000000" font-family="Arial" font-size="14" lengthAdjust="spacing" textLength="127" x="162.25" y="160.2798">¿Usuario es Admin?</text><text fill="#000000" font-family="Arial" font-size="14" lengthAdjust="spacing" textLength="10" x="140.25" y="152.2305">sí</text><text fill="#000000" font-family="Arial" font-size="14" lengthAdjust="spacing" textLength="16" x="301.25" y="152.2305">no</text><rect fill="#F1F1F1" height="36.0986" rx="12.5" ry="12.5" style="stroke:#181818;stroke-width:0.5;" width="217" x="11" y="177.1973"/><text fill="#000000" font-family="Arial" font-size="14" lengthAdjust="spacing" textLength="197" x="21" y="200.3291">ADMIN SELECCIONA USUARIO</text><rect fill="#F1F1F1" height="36.0986" rx="12.5" ry="12.5" style="stroke:#181818;stroke-width:0.5;" width="168" x="248" y="177.1973"/><text fill="#000000" font-family="Arial" font-size="14" lengthAdjust="spacing" textLength="144" x="262" y="200.3291">VER FICHAJE PROPIO</text><polygon fill="#F1F1F1" points="225.75,219.2959,237.75,231.2959,225.75,243.2959,213.75,231.2959,225.75,219.2959" style="stroke:#181818;stroke-width:0.5;"/><rect fill="#F1F1F1" height="36.0986" rx="12.5" ry="12.5" style="stroke:#181818;stroke-width:0.5;" width="157" x="147.25" y="288.3613"/><text fill="#000000" font-family="Arial" font-size="14" lengthAdjust="spacing" textLength="137" x="157.25" y="311.4932">VER FICHAJE DIARIO</text><rect fill="#F1F1F1" height="36.0986" rx="12.5" ry="12.5" style="stroke:#181818;stroke-width:0.5;" width="132" x="159.75" y="369.5254"/><text fill="#000000" font-family="Arial" font-size="14" lengthAdjust="spacing" textLength="112" x="169.75" y="392.6572">                            </text><rect fill="#F1F1F1" height="36.0986" rx="12.5" ry="12.5" style="stroke:#181818;stroke-width:0.5;" width="132" x="159.75" y="450.6895"/><text fill="#000000" font-family="Arial" font-size="14" lengthAdjust="spacing" textLength="112" x="169.75" y="473.8213">                            </text><rect fill="#F1F1F1" height="36.0986" rx="12.5" ry="12.5" style="stroke:#181818;stroke-width:0.5;" width="132" x="159.75" y="531.8535"/><text fill="#000000" font-family="Arial" font-size="14" lengthAdjust="spacing" textLength="112" x="169.75" y="554.9854">                            </text><rect fill="#F1F1F1" height="36.0986" rx="12.5" ry="12.5" style="stroke:#181818;stroke-width:0.5;" width="132" x="159.75" y="613.0176"/><text fill="#000000" font-family="Arial" font-size="14" lengthAdjust="spacing" textLength="112" x="169.75" y="636.1494">                            </text><ellipse cx="225.75" cy="680.1162" fill="none" rx="11" ry="11" style="stroke:#222222;stroke-width:1.0;"/><ellipse cx="225.75" cy="680.1162" fill="#222222" rx="6" ry="6" style="stroke:#111111;stroke-width:1.0;"/><line style="stroke:#181818;stroke-width:1.0;" x1="225.75" x2="225.75" y1="67.0986" y2="87.0986"/><polygon fill="#181818" points="221.75,77.0986,225.75,87.0986,229.75,77.0986,225.75,81.0986" style="stroke:#181818;stroke-width:1.0;"/><line style="stroke:#181818;stroke-width:1.0;" x1="150.25" x2="119.5" y1="155.1973" y2="155.1973"/><line style="stroke:#181818;stroke-width:1.0;" x1="119.5" x2="119.5" y1="155.1973" y2="177.1973"/><polygon fill="#181818" points="115.5,167.1973,119.5,177.1973,123.5,167.1973,119.5,171.1973" style="stroke:#181818;stroke-width:1.0;"/><line style="stroke:#181818;stroke-width:1.0;" x1="301.25" x2="332" y1="155.1973" y2="155.1973"/><line style="stroke:#181818;stroke-width:1.0;" x1="332" x2="332" y1="155.1973" y2="177.1973"/><polygon fill="#181818" points="328,167.1973,332,177.1973,336,167.1973,332,171.1973" style="stroke:#181818;stroke-width:1.0;"/><line style="stroke:#181818;stroke-width:1.0;" x1="119.5" x2="119.5" y1="213.2959" y2="231.2959"/><line style="stroke:#181818;stroke-width:1.0;" x1="119.5" x2="213.75" y1="231.2959" y2="231.2959"/><polygon fill="#181818" points="203.75,227.2959,213.75,231.2959,203.75,235.2959,207.75,231.2959" style="stroke:#181818;stroke-width:1.0;"/><line style="stroke:#181818;stroke-width:1.0;" x1="332" x2="332" y1="213.2959" y2="231.2959"/><line style="stroke:#181818;stroke-width:1.0;" x1="332" x2="237.75" y1="231.2959" y2="231.2959"/><polygon fill="#181818" points="247.75,227.2959,237.75,231.2959,247.75,235.2959,243.75,231.2959" style="stroke:#181818;stroke-width:1.0;"/><line style="stroke:#181818;stroke-width:1.0;" x1="225.75" x2="225.75" y1="123.1973" y2="143.1973"/><polygon fill="#181818" points="221.75,133.1973,225.75,143.1973,229.75,133.1973,225.75,137.1973" style="stroke:#181818;stroke-width:1.0;"/><line style="stroke:#181818;stroke-width:1.0;" x1="225.75" x2="225.75" y1="243.2959" y2="288.3613"/><polygon fill="#181818" points="221.75,278.3613,225.75,288.3613,229.75,278.3613,225.75,282.3613" style="stroke:#181818;stroke-width:1.0;"/><text fill="#000000" font-family="Arial" font-size="14" lengthAdjust="spacing" textLength="218" x="229.75" y="267.8945">El sistema muestra el fichaje diario</text><line style="stroke:#181818;stroke-width:1.0;" x1="225.75" x2="225.75" y1="324.46" y2="369.5254"/><polygon fill="#181818" points="221.75,359.5254,225.75,369.5254,229.75,359.5254,225.75,363.5254" style="stroke:#181818;stroke-width:1.0;"/><text fill="#000000" font-family="Arial" font-size="14" lengthAdjust="spacing" textLength="224" x="229.75" y="349.0586">El sistema muestra horas de fichaje</text><line style="stroke:#181818;stroke-width:1.0;" x1="225.75" x2="225.75" y1="405.624" y2="450.6895"/><polygon fill="#181818" points="221.75,440.6895,225.75,450.6895,229.75,440.6895,225.75,444.6895" style="stroke:#181818;stroke-width:1.0;"/><text fill="#000000" font-family="Arial" font-size="14" lengthAdjust="spacing" textLength="223" x="229.75" y="430.2227">El sistema calcula horas trabajadas</text><line style="stroke:#181818;stroke-width:1.0;" x1="225.75" x2="225.75" y1="486.7881" y2="531.8535"/><polygon fill="#181818" points="221.75,521.8535,225.75,531.8535,229.75,521.8535,225.75,525.8535" style="stroke:#181818;stroke-width:1.0;"/><text fill="#000000" font-family="Arial" font-size="14" lengthAdjust="spacing" textLength="315" x="229.75" y="511.3867">El sistema calcula horas restantes para la jornada</text><line style="stroke:#181818;stroke-width:1.0;" x1="225.75" x2="225.75" y1="567.9521" y2="613.0176"/><polygon fill="#181818" points="221.75,603.0176,225.75,613.0176,229.75,603.0176,225.75,607.0176" style="stroke:#181818;stroke-width:1.0;"/><text fill="#000000" font-family="Arial" font-size="14" lengthAdjust="spacing" textLength="225" x="229.75" y="592.5508">Usuario/Admin revisa la información</text><line style="stroke:#181818;stroke-width:1.0;" x1="225.75" x2="225.75" y1="649.1162" y2="669.1162"/><polygon fill="#181818" points="221.75,659.1162,225.75,669.1162,229.75,659.1162,225.75,663.1162" style="stroke:#181818;stroke-width:1.0;"/><!--MD5=[0d8ec21ef66123cb97a264440da9e2ab]
@startuml Caso de Uso: Ver Fichaje
skinparam backgroundColor #EEEBDC
skinparam defaultFontName Arial
skinparam defaultFontSize 14
skinparam monochrome true

title Caso de Uso: Ver Fichaje

start
:DASHBOARD ABIERTO;
if (¿Usuario es Admin?) then (sí)
    :ADMIN SELECCIONA USUARIO;
else (no)
    : VER FICHAJE PROPIO;
endif
-> El sistema muestra el fichaje diario;
:VER FICHAJE DIARIO;
-> El sistema muestra horas de fichaje;
:                            ;
-> El sistema calcula horas trabajadas;
:                            ;
-> El sistema calcula horas restantes para la jornada;
:                            ;
-> Usuario/Admin revisa la información;
:                            ;
stop

@enduml

PlantUML version 1.2022.7(Mon Aug 22 19:01:30 CEST 2022)
(GPL source distribution)
Java Runtime: Java(TM) SE Runtime Environment
JVM: Java HotSpot(TM) 64-Bit Server VM
Default Encoding: UTF-8
Language: en
Country: US
--></g></svg>