<?xml version="1.0" encoding="UTF-8" standalone="no"?><svg xmlns="http://www.w3.org/2000/svg" xmlns:xlink="http://www.w3.org/1999/xlink" contentStyleType="text/css" height="688px" preserveAspectRatio="none" style="width:432px;height:688px;background:#EAEAEA;" version="1.1" viewBox="0 0 432 688" width="432px" zoomAndPan="magnify"><defs/><g><rect fill="#EAEAEA" height="26.0986" id="_title" style="stroke:none;stroke-width:1.0;" width="232" x="98.75" y="15"/><text fill="#000000" font-family="Arial" font-size="14" font-weight="bold" lengthAdjust="spacing" textLength="222" x="103.75" y="33.1318">Caso de Uso: Ver Fichaje Admin</text><ellipse cx="101.5" cy="57.0986" fill="#222222" rx="10" ry="10" style="stroke:#222222;stroke-width:1.0;"/><rect fill="#F1F1F1" height="36.0986" rx="12.5" ry="12.5" style="stroke:#181818;stroke-width:0.5;" width="170" x="16.5" y="87.0986"/><text fill="#000000" font-family="Arial" font-size="14" lengthAdjust="spacing" textLength="150" x="26.5" y="110.2305">DASHBOARD ABIERTO</text><rect fill="#F1F1F1" height="36.0986" rx="12.5" ry="12.5" style="stroke:#181818;stroke-width:0.5;" width="121" x="41" y="168.2627"/><text fill="#000000" font-family="Arial" font-size="14" lengthAdjust="spacing" textLength="101" x="51" y="191.3945">VER USUARIOS</text><rect fill="#F1F1F1" height="36.0986" rx="12.5" ry="12.5" style="stroke:#181818;stroke-width:0.5;" width="181" x="11" y="249.4268"/><text fill="#000000" font-family="Arial" font-size="14" lengthAdjust="spacing" textLength="161" x="21" y="272.5586">SELECCIONAR USUARIO</text><rect fill="#F1F1F1" height="36.0986" rx="12.5" ry="12.5" style="stroke:#181818;stroke-width:0.5;" width="107" x="48" y="330.5908"/><text fill="#000000" font-family="Arial" font-size="14" lengthAdjust="spacing" textLength="87" x="58" y="353.7227">VER FICHAJE</text><rect fill="#F1F1F1" height="36.0986" rx="12.5" ry="12.5" style="stroke:#181818;stroke-width:0.5;" width="132" x="35.5" y="411.7549"/><text fill="#000000" font-family="Arial" font-size="14" lengthAdjust="spacing" textLength="112" x="45.5" y="434.8867">                            </text><rect fill="#F1F1F1" height="36.0986" rx="12.5" ry="12.5" style="stroke:#181818;stroke-width:0.5;" width="132" x="35.5" y="492.9189"/><text fill="#000000" font-family="Arial" font-size="14" lengthAdjust="spacing" textLength="112" x="45.5" y="516.0508">                            </text><rect fill="#F1F1F1" height="36.0986" rx="12.5" ry="12.5" style="stroke:#181818;stroke-width:0.5;" width="132" x="35.5" y="574.083"/><text fill="#000000" font-family="Arial" font-size="14" lengthAdjust="spacing" textLength="112" x="45.5" y="597.2148">                            </text><ellipse cx="101.5" cy="666.2471" fill="none" rx="11" ry="11" style="stroke:#222222;stroke-width:1.0;"/><ellipse cx="101.5" cy="666.2471" fill="#222222" rx="6" ry="6" style="stroke:#111111;stroke-width:1.0;"/><line style="stroke:#181818;stroke-width:1.0;" x1="101.5" x2="101.5" y1="67.0986" y2="87.0986"/><polygon fill="#181818" points="97.5,77.0986,101.5,87.0986,105.5,77.0986,101.5,81.0986" style="stroke:#181818;stroke-width:1.0;"/><line style="stroke:#181818;stroke-width:1.0;" x1="101.5" x2="101.5" y1="123.1973" y2="168.2627"/><polygon fill="#181818" points="97.5,158.2627,101.5,168.2627,105.5,158.2627,101.5,162.2627" style="stroke:#181818;stroke-width:1.0;"/><text fill="#000000" font-family="Arial" font-size="14" lengthAdjust="spacing" textLength="206" x="105.5" y="147.7959">el admin mira la lista de usuarios</text><line style="stroke:#181818;stroke-width:1.0;" x1="101.5" x2="101.5" y1="204.3613" y2="249.4268"/><polygon fill="#181818" points="97.5,239.4268,101.5,249.4268,105.5,239.4268,101.5,243.4268" style="stroke:#181818;stroke-width:1.0;"/><text fill="#000000" font-family="Arial" font-size="14" lengthAdjust="spacing" textLength="175" x="105.5" y="228.96">el admin selecciona usuario</text><line style="stroke:#181818;stroke-width:1.0;" x1="101.5" x2="101.5" y1="285.5254" y2="330.5908"/><polygon fill="#181818" points="97.5,320.5908,101.5,330.5908,105.5,320.5908,101.5,324.5908" style="stroke:#181818;stroke-width:1.0;"/><text fill="#000000" font-family="Arial" font-size="14" lengthAdjust="spacing" textLength="229" x="105.5" y="310.124">el admin revisa el fichaje del usuario</text><line style="stroke:#181818;stroke-width:1.0;" x1="101.5" x2="101.5" y1="366.6895" y2="411.7549"/><polygon fill="#181818" points="97.5,401.7549,101.5,411.7549,105.5,401.7549,101.5,405.7549" style="stroke:#181818;stroke-width:1.0;"/><text fill="#000000" font-family="Arial" font-size="14" lengthAdjust="spacing" textLength="224" x="105.5" y="391.2881">El sistema muestra horas de fichaje</text><line style="stroke:#181818;stroke-width:1.0;" x1="101.5" x2="101.5" y1="447.8535" y2="492.9189"/><polygon fill="#181818" points="97.5,482.9189,101.5,492.9189,105.5,482.9189,101.5,486.9189" style="stroke:#181818;stroke-width:1.0;"/><text fill="#000000" font-family="Arial" font-size="14" lengthAdjust="spacing" textLength="223" x="105.5" y="472.4521">El sistema calcula horas trabajadas</text><line style="stroke:#181818;stroke-width:1.0;" x1="101.5" x2="101.5" y1="529.0176" y2="574.083"/><polygon fill="#181818" points="97.5,564.083,101.5,574.083,105.5,564.083,101.5,568.083" style="stroke:#181818;stroke-width:1.0;"/><text fill="#000000" font-family="Arial" font-size="14" lengthAdjust="spacing" textLength="315" x="105.5" y="553.6162">El sistema calcula horas restantes para la jornada</text><line style="stroke:#181818;stroke-width:1.0;" x1="101.5" x2="101.5" y1="610.1816" y2="655.2471"/><polygon fill="#181818" points="97.5,645.2471,101.5,655.2471,105.5,645.2471,101.5,649.2471" style="stroke:#181818;stroke-width:1.0;"/><text fill="#000000" font-family="Arial" font-size="14" lengthAdjust="spacing" textLength="225" x="105.5" y="634.7803">Usuario/Admin revisa la información</text><!--MD5=[0d0f75ba21ac6d2a6aa66b5cedeeeea5]
@startuml
skinparam backgroundColor #EEEBDC
skinparam defaultFontName Arial
skinparam defaultFontSize 14
skinparam monochrome true


title Caso de Uso: Ver Fichaje Admin
start
:DASHBOARD ABIERTO;
-> el admin mira la lista de usuarios;
:VER USUARIOS;
-> el admin selecciona usuario;
:SELECCIONAR USUARIO;
-> el admin revisa el fichaje del usuario;
:VER FICHAJE;
-> El sistema muestra horas de fichaje;
:                            ;
-> El sistema calcula horas trabajadas;
:                            ;
-> El sistema calcula horas restantes para la jornada;
:                            ;
-> Usuario/Admin revisa la información;

stop



@enduml

PlantUML version 1.2022.7(Mon Aug 22 19:01:30 CEST 2022)
(GPL source distribution)
Java Runtime: Java(TM) SE Runtime Environment
JVM: Java HotSpot(TM) 64-Bit Server VM
Default Encoding: UTF-8
Language: es
Country: ES
--></g></svg>