<?xml version="1.0" encoding="UTF-8" standalone="no"?><svg xmlns="http://www.w3.org/2000/svg" xmlns:xlink="http://www.w3.org/1999/xlink" contentStyleType="text/css" height="582px" preserveAspectRatio="none" style="width:427px;height:582px;background:#EAEAEA;" version="1.1" viewBox="0 0 427 582" width="427px" zoomAndPan="magnify"><defs/><g><rect fill="#EAEAEA" height="26.0986" id="_title" style="stroke:none;stroke-width:1.0;" width="185" x="119.5" y="15"/><text fill="#000000" font-family="Arial" font-size="14" font-weight="bold" lengthAdjust="spacing" textLength="175" x="124.5" y="33.1318">Caso de Uso: Ver Fichaje</text><ellipse cx="96" cy="57.0986" fill="#222222" rx="10" ry="10" style="stroke:#222222;stroke-width:1.0;"/><rect fill="#F1F1F1" height="36.0986" rx="12.5" ry="12.5" style="stroke:#181818;stroke-width:0.5;" width="170" x="11" y="87.0986"/><text fill="#000000" font-family="Arial" font-size="14" lengthAdjust="spacing" textLength="150" x="21" y="110.2305">DASHBOARD ABIERTO</text><rect fill="#F1F1F1" height="36.0986" rx="12.5" ry="12.5" style="stroke:#181818;stroke-width:0.5;" width="157" x="17.5" y="168.2627"/><text fill="#000000" font-family="Arial" font-size="14" lengthAdjust="spacing" textLength="137" x="27.5" y="191.3945">VER FICHAJE DIARIO</text><rect fill="#F1F1F1" height="36.0986" rx="12.5" ry="12.5" style="stroke:#181818;stroke-width:0.5;" width="132" x="30" y="249.4268"/><text fill="#000000" font-family="Arial" font-size="14" lengthAdjust="spacing" textLength="112" x="40" y="272.5586">                            </text><rect fill="#F1F1F1" height="36.0986" rx="12.5" ry="12.5" style="stroke:#181818;stroke-width:0.5;" width="132" x="30" y="330.5908"/><text fill="#000000" font-family="Arial" font-size="14" lengthAdjust="spacing" textLength="112" x="40" y="353.7227">                            </text><rect fill="#F1F1F1" height="36.0986" rx="12.5" ry="12.5" style="stroke:#181818;stroke-width:0.5;" width="132" x="30" y="411.7549"/><text fill="#000000" font-family="Arial" font-size="14" lengthAdjust="spacing" textLength="112" x="40" y="434.8867">                            </text><rect fill="#F1F1F1" height="36.0986" rx="12.5" ry="12.5" style="stroke:#181818;stroke-width:0.5;" width="132" x="30" y="492.9189"/><text fill="#000000" font-family="Arial" font-size="14" lengthAdjust="spacing" textLength="112" x="40" y="516.0508">                            </text><ellipse cx="96" cy="560.0176" fill="none" rx="11" ry="11" style="stroke:#222222;stroke-width:1.0;"/><ellipse cx="96" cy="560.0176" fill="#222222" rx="6" ry="6" style="stroke:#111111;stroke-width:1.0;"/><line style="stroke:#181818;stroke-width:1.0;" x1="96" x2="96" y1="67.0986" y2="87.0986"/><polygon fill="#181818" points="92,77.0986,96,87.0986,100,77.0986,96,81.0986" style="stroke:#181818;stroke-width:1.0;"/><line style="stroke:#181818;stroke-width:1.0;" x1="96" x2="96" y1="123.1973" y2="168.2627"/><polygon fill="#181818" points="92,158.2627,96,168.2627,100,158.2627,96,162.2627" style="stroke:#181818;stroke-width:1.0;"/><text fill="#000000" font-family="Arial" font-size="14" lengthAdjust="spacing" textLength="218" x="100" y="147.7959">El sistema muestra el fichaje diario</text><line style="stroke:#181818;stroke-width:1.0;" x1="96" x2="96" y1="204.3613" y2="249.4268"/><polygon fill="#181818" points="92,239.4268,96,249.4268,100,239.4268,96,243.4268" style="stroke:#181818;stroke-width:1.0;"/><text fill="#000000" font-family="Arial" font-size="14" lengthAdjust="spacing" textLength="224" x="100" y="228.96">El sistema muestra horas de fichaje</text><line style="stroke:#181818;stroke-width:1.0;" x1="96" x2="96" y1="285.5254" y2="330.5908"/><polygon fill="#181818" points="92,320.5908,96,330.5908,100,320.5908,96,324.5908" style="stroke:#181818;stroke-width:1.0;"/><text fill="#000000" font-family="Arial" font-size="14" lengthAdjust="spacing" textLength="223" x="100" y="310.124">El sistema calcula horas trabajadas</text><line style="stroke:#181818;stroke-width:1.0;" x1="96" x2="96" y1="366.6895" y2="411.7549"/><polygon fill="#181818" points="92,401.7549,96,411.7549,100,401.7549,96,405.7549" style="stroke:#181818;stroke-width:1.0;"/><text fill="#000000" font-family="Arial" font-size="14" lengthAdjust="spacing" textLength="315" x="100" y="391.2881">El sistema calcula horas restantes para la jornada</text><line style="stroke:#181818;stroke-width:1.0;" x1="96" x2="96" y1="447.8535" y2="492.9189"/><polygon fill="#181818" points="92,482.9189,96,492.9189,100,482.9189,96,486.9189" style="stroke:#181818;stroke-width:1.0;"/><text fill="#000000" font-family="Arial" font-size="14" lengthAdjust="spacing" textLength="225" x="100" y="472.4521">Usuario/Admin revisa la información</text><line style="stroke:#181818;stroke-width:1.0;" x1="96" x2="96" y1="529.0176" y2="549.0176"/><polygon fill="#181818" points="92,539.0176,96,549.0176,100,539.0176,96,543.0176" style="stroke:#181818;stroke-width:1.0;"/><!--MD5=[74455966f23bca4d1bcd8ee7a613ccee]
@startuml Caso de Uso: Ver Fichaje
skinparam backgroundColor #EEEBDC
skinparam defaultFontName Arial
skinparam defaultFontSize 14
skinparam monochrome true

title Caso de Uso: Ver Fichaje

start
:DASHBOARD ABIERTO;

-> El sistema muestra el fichaje diario;
:VER FICHAJE DIARIO;
-> El sistema muestra horas de fichaje;
:                            ;
-> El sistema calcula horas trabajadas;
:                            ;
-> El sistema calcula horas restantes para la jornada;
:                            ;
-> Usuario/Admin revisa la información;
:                            ;
stop

@enduml

PlantUML version 1.2022.7(Mon Aug 22 19:01:30 CEST 2022)
(GPL source distribution)
Java Runtime: Java(TM) SE Runtime Environment
JVM: Java HotSpot(TM) 64-Bit Server VM
Default Encoding: UTF-8
Language: es
Country: ES
--></g></svg>