<?xml version="1.0" encoding="us-ascii" standalone="no"?><svg xmlns="http://www.w3.org/2000/svg" xmlns:xlink="http://www.w3.org/1999/xlink" contentStyleType="text/css" height="457px" preserveAspectRatio="none" style="width:702px;height:457px;background:#FFFFFF;" version="1.1" viewBox="0 0 702 457" width="702px" zoomAndPan="magnify"><defs><filter height="300%" id="f1q2tb08ykadns" width="300%" x="-1" y="-1"><feGaussianBlur result="blurOut" stdDeviation="2.0"/><feColorMatrix in="blurOut" result="blurOut2" type="matrix" values="0 0 0 0 0 0 0 0 0 0 0 0 0 0 0 0 0 0 .4 0"/><feOffset dx="4.0" dy="4.0" in="blurOut2" result="blurOut3"/><feBlend in="SourceGraphic" in2="blurOut3" mode="normal"/></filter></defs><g><text fill="#000000" font-family="sans-serif" font-size="14" font-weight="bold" lengthAdjust="spacing" textLength="198" x="245.25" y="22.9951">Caso de Uso: Ver Fichaje</text><g id="DASHBOARD_ABIERTO"><rect fill="#FEFECE" filter="url(#f1q2tb08ykadns)" height="50" rx="12.5" ry="12.5" style="stroke:#A80036;stroke-width:1.0;" width="182" x="243.5" y="124.2969"/><line style="stroke:#A80036;stroke-width:1.0;" x1="243.5" x2="425.5" y1="150.5938" y2="150.5938"/><text fill="#000000" font-family="sans-serif" font-size="14" lengthAdjust="spacing" textLength="162" x="253.5" y="142.292">DASHBOARD_ABIERTO</text></g><g id="VerFichaje"><rect fill="#FEFECE" filter="url(#f1q2tb08ykadns)" height="50" rx="12.5" ry="12.5" style="stroke:#A80036;stroke-width:1.0;" width="99" x="7" y="251.2969"/><line style="stroke:#A80036;stroke-width:1.0;" x1="7" x2="106" y1="277.5938" y2="277.5938"/><text fill="#000000" font-family="sans-serif" font-size="14" lengthAdjust="spacing" textLength="79" x="17" y="269.292">Ver Fichaje</text></g><g id="MostrarFichaje"><rect fill="#FEFECE" filter="url(#f1q2tb08ykadns)" height="50" rx="12.5" ry="12.5" style="stroke:#A80036;stroke-width:1.0;" width="50" x="328.5" y="388.7969"/><line style="stroke:#A80036;stroke-width:1.0;" x1="328.5" x2="378.5" y1="415.0938" y2="415.0938"/><text fill="#000000" font-family="sans-serif" font-size="14" lengthAdjust="spacing" textLength="4" x="351.5" y="406.792">&#160;</text></g><g id="ErrorVisualizacion"><rect fill="#FEFECE" filter="url(#f1q2tb08ykadns)" height="50" rx="12.5" ry="12.5" style="stroke:#A80036;stroke-width:1.0;" width="173" x="275" y="251.2969"/><line style="stroke:#A80036;stroke-width:1.0;" x1="275" x2="448" y1="277.5938" y2="277.5938"/><text fill="#000000" font-family="sans-serif" font-size="14" lengthAdjust="spacing" textLength="153" x="285" y="269.292">Error en Visualizaci&#243;n</text></g><ellipse cx="334.5" cy="53.2969" fill="#000000" filter="url(#f1q2tb08ykadns)" rx="10" ry="10" style="stroke:#000000;stroke-width:1.0;"/><g id="elem_GMN14"><path d="M414,378.2969 L414,409.7969 L378.734,413.7969 L414,417.7969 L414,448.8281 A0,0 0 0 0 414,448.8281 L633,448.8281 A0,0 0 0 0 633,448.8281 L633,388.2969 L623,378.2969 L414,378.2969 A0,0 0 0 0 414,378.2969 " fill="#FBFB77" filter="url(#f1q2tb08ykadns)" style="stroke:#A80036;stroke-width:1.0;"/><path d="M623,378.2969 L623,388.2969 L633,388.2969 L623,378.2969 " fill="#FBFB77" style="stroke:#A80036;stroke-width:1.0;"/><text fill="#000000" font-family="sans-serif" font-size="13" lengthAdjust="spacing" textLength="129" x="420" y="395.3638">El sistema muestra:</text><text fill="#000000" font-family="sans-serif" font-size="13" lengthAdjust="spacing" textLength="166" x="420" y="410.4966">- Horas totales trabajadas</text><text fill="#000000" font-family="sans-serif" font-size="13" lengthAdjust="spacing" textLength="198" x="420" y="425.6294">- Horas restantes de la jornada</text><text fill="#000000" font-family="sans-serif" font-size="13" lengthAdjust="spacing" textLength="106" x="420" y="440.7622">- Fichajes diarios</text></g><!--link *start* to DASHBOARD_ABIERTO--><g id="link_*start*_DASHBOARD_ABIERTO"><path d="M334.5,63.3099 C334.5,77.1879 334.5,98.2619 334.5,118.1369 " fill="none" id="*start*-to-DASHBOARD_ABIERTO" style="stroke:#A80036;stroke-width:1.0;"/><polygon fill="#A80036" points="334.5,124.1369,338.5,115.1369,334.5,119.1369,330.5,115.1369,334.5,124.1369" style="stroke:#A80036;stroke-width:1.0;"/></g><!--link DASHBOARD_ABIERTO to VerFichaje--><g id="link_DASHBOARD_ABIERTO_VerFichaje"><path d="M243.492,166.4889 C209.283,174.8229 170.867,186.9819 138.5,204.2969 C115.918,216.3779 98.428,231.4166 83.0168,246.8396 " fill="none" id="DASHBOARD_ABIERTO-to-VerFichaje" style="stroke:#0000FF;stroke-width:1.0;"/><polygon fill="#0000FF" points="78.7758,251.0839,87.9668,247.5448,82.31,247.547,82.3078,241.8901,78.7758,251.0839" style="stroke:#0000FF;stroke-width:1.0;"/><text fill="#000000" font-family="sans-serif" font-size="13" lengthAdjust="spacing" textLength="181" x="139.5" y="217.3638">El usuario solicita ver fichaje</text></g><!--link VerFichaje to MostrarFichaje--><g id="link_VerFichaje_MostrarFichaje"><path d="M106.2111,299.9769 C170.283,329.2079 273.8003,376.4355 322.8273,398.8031 " fill="none" id="VerFichaje-to-MostrarFichaje" style="stroke:#0000FF;stroke-width:1.0;"/><polygon fill="#0000FF" points="328.286,401.2936,321.7582,393.9188,323.7371,399.2182,318.4376,401.1971,328.286,401.2936" style="stroke:#0000FF;stroke-width:1.0;"/><text fill="#000000" font-family="sans-serif" font-size="13" lengthAdjust="spacing" textLength="173" x="206.5" y="344.3638">El sistema presenta fichaje</text></g><!--link MostrarFichaje to DASHBOARD_ABIERTO--><g id="link_MostrarFichaje_DASHBOARD_ABIERTO"><path d="M378.809,393.0226 C403.743,372.4161 441.491,338.0499 465.5,301.2969 C510.731,232.0579 514.193,228.8449 496.5,204.2969 C479.859,181.2089 458.6904,169.4764 431.5144,161.7874 " fill="none" id="MostrarFichaje-to-DASHBOARD_ABIERTO" style="stroke:#0000FF;stroke-width:1.0;"/><polygon fill="#0000FF" points="425.741,160.1539,433.3121,166.453,430.5521,161.5151,435.49,158.7552,425.741,160.1539" style="stroke:#0000FF;stroke-width:1.0;"/><text fill="#000000" font-family="sans-serif" font-size="13" lengthAdjust="spacing" textLength="196" x="498.5" y="280.8638">El usuario finaliza visualizaci&#243;n</text></g><!--link VerFichaje to ErrorVisualizacion--><g id="link_VerFichaje_ErrorVisualizacion"><path d="M106.1823,276.2969 C151.758,276.2969 214.267,276.2969 268.848,276.2969 " fill="none" id="VerFichaje-to-ErrorVisualizacion" style="stroke:#FF0000;stroke-width:1.0;"/><polygon fill="#FF0000" points="274.848,276.2969,265.848,272.2969,269.848,276.2969,265.848,280.2969,274.848,276.2969" style="stroke:#FF0000;stroke-width:1.0;"/><text fill="#000000" font-family="sans-serif" font-size="13" lengthAdjust="spacing" textLength="132" x="124.5" y="269.3638">[Error en la solicitud]</text></g><!--reverse link DASHBOARD_ABIERTO to ErrorVisualizacion--><g id="link_DASHBOARD_ABIERTO_ErrorVisualizacion"><path d="M329.2852,180.2856 C327.5452,194.2136 327.539,206.0099 331.5,221.2969 C334.19,231.6789 339.356,242.1889 344.654,251.1439 " fill="none" id="DASHBOARD_ABIERTO-backto-ErrorVisualizacion" style="stroke:#FF0000;stroke-width:1.0;"/><polygon fill="#FF0000" points="330.029,174.3319,324.9442,182.7666,329.4092,179.2933,332.8825,183.7583,330.029,174.3319" style="stroke:#FF0000;stroke-width:1.0;"/><text fill="#000000" font-family="sans-serif" font-size="13" lengthAdjust="spacing" textLength="159" x="332.5" y="217.3638">El sistema muestra error</text></g><!--SRC=[TP91Ri8m44NtFiK8TfLoWImgGQ6YYmg9jcmYL0raAAR6hcOS5hrMZz2BTH8bo25q5Sd_v-N_xyYdzS11o4GR7S43Ie2Iu4r23cjYUBIx0nx968aO2MQJbyLqELdDtYVJf_dgTGaeC1gSZbgx4bf0uqk0dUCvI6JikQ3Jvio1rrOgTFORTpRuHc-EWJmaqk-F7nbJt6qWAxFxOKmp39wLnNZhAjgeFycPmzn1fM2s0IGukxCHuQp9z-qKYJbbN3LfE68bqWdXYqd8AwTZN9bJpZ1fBzBU-gOpd7ljUwcu63ELDUp6X3aKbmKTTXMhScDkcBFgWledLrVnL55T2QY66EE3NY3RZqE4iB_Qni2D5tCzpM0HMAyuXeYEzCcunIEMA8ceKqRqKMNzJxN0CR1NI-DeFw2IhSSIGxw4EieV]--></g></svg>