<?xml version="1.0" encoding="us-ascii" standalone="no"?><svg xmlns="http://www.w3.org/2000/svg" xmlns:xlink="http://www.w3.org/1999/xlink" contentStyleType="text/css" height="457px" preserveAspectRatio="none" style="width:640px;height:457px;background:#FFFFFF;" version="1.1" viewBox="0 0 640 457" width="640px" zoomAndPan="magnify"><defs><filter height="300%" id="f1xxughvpxns30" width="300%" x="-1" y="-1"><feGaussianBlur result="blurOut" stdDeviation="2.0"/><feColorMatrix in="blurOut" result="blurOut2" type="matrix" values="0 0 0 0 0 0 0 0 0 0 0 0 0 0 0 0 0 0 .4 0"/><feOffset dx="4.0" dy="4.0" in="blurOut2" result="blurOut3"/><feBlend in="SourceGraphic" in2="blurOut3" mode="normal"/></filter></defs><g><text fill="#000000" font-family="sans-serif" font-size="14" font-weight="bold" lengthAdjust="spacing" textLength="198" x="214.25" y="22.9951">Caso de Uso: Ver Fichaje</text><g id="DASHBOARD_ABIERTO"><rect fill="#FEFECE" filter="url(#f1xxughvpxns30)" height="50" rx="12.5" ry="12.5" style="stroke:#A80036;stroke-width:1.0;" width="182" x="188.5" y="124.2969"/><line style="stroke:#A80036;stroke-width:1.0;" x1="188.5" x2="370.5" y1="150.5938" y2="150.5938"/><text fill="#000000" font-family="sans-serif" font-size="14" lengthAdjust="spacing" textLength="162" x="198.5" y="142.292">DASHBOARD_ABIERTO</text></g><g id="VerFichaje"><rect fill="#FEFECE" filter="url(#f1xxughvpxns30)" height="50" rx="12.5" ry="12.5" style="stroke:#A80036;stroke-width:1.0;" width="99" x="7" y="251.2969"/><line style="stroke:#A80036;stroke-width:1.0;" x1="7" x2="106" y1="277.5938" y2="277.5938"/><text fill="#000000" font-family="sans-serif" font-size="14" lengthAdjust="spacing" textLength="79" x="17" y="269.292">Ver Fichaje</text></g><g id="MostrarFichaje"><rect fill="#FEFECE" filter="url(#f1xxughvpxns30)" height="50" rx="12.5" ry="12.5" style="stroke:#A80036;stroke-width:1.0;" width="50" x="287.5" y="388.7969"/><line style="stroke:#A80036;stroke-width:1.0;" x1="287.5" x2="337.5" y1="415.0938" y2="415.0938"/><text fill="#000000" font-family="sans-serif" font-size="14" lengthAdjust="spacing" textLength="4" x="310.5" y="406.792">&#160;</text></g><g id="ErrorVisualizacion"><rect fill="#FEFECE" filter="url(#f1xxughvpxns30)" height="50" rx="12.5" ry="12.5" style="stroke:#A80036;stroke-width:1.0;" width="50" x="274.5" y="251.2969"/><line style="stroke:#A80036;stroke-width:1.0;" x1="274.5" x2="324.5" y1="277.5938" y2="277.5938"/><text fill="#000000" font-family="sans-serif" font-size="14" lengthAdjust="spacing" textLength="4" x="297.5" y="269.292">&#160;</text></g><ellipse cx="279.5" cy="53.2969" fill="#000000" filter="url(#f1xxughvpxns30)" rx="10" ry="10" style="stroke:#000000;stroke-width:1.0;"/><g id="elem_GMN14"><path d="M373,378.2969 L373,409.7969 L337.734,413.7969 L373,417.7969 L373,448.8281 A0,0 0 0 0 373,448.8281 L592,448.8281 A0,0 0 0 0 592,448.8281 L592,388.2969 L582,378.2969 L373,378.2969 A0,0 0 0 0 373,378.2969 " fill="#FBFB77" filter="url(#f1xxughvpxns30)" style="stroke:#A80036;stroke-width:1.0;"/><path d="M582,378.2969 L582,388.2969 L592,388.2969 L582,378.2969 " fill="#FBFB77" style="stroke:#A80036;stroke-width:1.0;"/><text fill="#000000" font-family="sans-serif" font-size="13" lengthAdjust="spacing" textLength="129" x="379" y="395.3638">El sistema muestra:</text><text fill="#000000" font-family="sans-serif" font-size="13" lengthAdjust="spacing" textLength="166" x="379" y="410.4966">- Horas totales trabajadas</text><text fill="#000000" font-family="sans-serif" font-size="13" lengthAdjust="spacing" textLength="198" x="379" y="425.6294">- Horas restantes de la jornada</text><text fill="#000000" font-family="sans-serif" font-size="13" lengthAdjust="spacing" textLength="106" x="379" y="440.7622">- Fichajes diarios</text></g><!--link *start* to DASHBOARD_ABIERTO--><g id="link_*start*_DASHBOARD_ABIERTO"><path d="M279.5,63.3099 C279.5,77.1879 279.5,98.2619 279.5,118.1369 " fill="none" id="*start*-to-DASHBOARD_ABIERTO" style="stroke:#A80036;stroke-width:1.0;"/><polygon fill="#A80036" points="279.5,124.1369,283.5,115.1369,279.5,119.1369,275.5,115.1369,279.5,124.1369" style="stroke:#A80036;stroke-width:1.0;"/></g><!--link DASHBOARD_ABIERTO to VerFichaje--><g id="link_DASHBOARD_ABIERTO_VerFichaje"><path d="M188.111,158.0309 C152.179,165.2209 112.834,178.8049 84.5,204.2969 C71.1036,216.3499 65.4303,229.7985 61.7504,245.2295 " fill="none" id="DASHBOARD_ABIERTO-to-VerFichaje" style="stroke:#0000FF;stroke-width:1.0;"/><polygon fill="#0000FF" points="60.3586,251.0659,66.3372,243.2392,61.5184,246.2023,58.5554,241.3835,60.3586,251.0659" style="stroke:#0000FF;stroke-width:1.0;"/><text fill="#000000" font-family="sans-serif" font-size="13" lengthAdjust="spacing" textLength="181" x="85.5" y="217.3638">El usuario solicita ver fichaje</text></g><!--link VerFichaje to MostrarFichaje--><g id="link_VerFichaje_MostrarFichaje"><path d="M101.9727,301.3659 C155.996,329.9599 238.909,373.8451 281.961,396.6327 " fill="none" id="VerFichaje-to-MostrarFichaje" style="stroke:#0000FF;stroke-width:1.0;"/><polygon fill="#0000FF" points="287.264,399.4396,281.1808,391.6939,282.8449,397.1005,277.4383,398.7646,287.264,399.4396" style="stroke:#0000FF;stroke-width:1.0;"/><text fill="#000000" font-family="sans-serif" font-size="13" lengthAdjust="spacing" textLength="173" x="185.5" y="344.3638">El sistema presenta fichaje</text></g><!--link MostrarFichaje to DASHBOARD_ABIERTO--><g id="link_MostrarFichaje_DASHBOARD_ABIERTO"><path d="M335.116,388.6587 C378.217,341.3169 465.767,237.9649 441.5,204.2969 C424.859,181.2089 403.6904,169.4764 376.5144,161.7874 " fill="none" id="MostrarFichaje-to-DASHBOARD_ABIERTO" style="stroke:#0000FF;stroke-width:1.0;"/><polygon fill="#0000FF" points="370.741,160.1539,378.3121,166.453,375.5521,161.5151,380.49,158.7552,370.741,160.1539" style="stroke:#0000FF;stroke-width:1.0;"/><text fill="#000000" font-family="sans-serif" font-size="13" lengthAdjust="spacing" textLength="196" x="436.5" y="280.8638">El usuario finaliza visualizaci&#243;n</text></g><!--link VerFichaje to ErrorVisualizacion--><g id="link_VerFichaje_ErrorVisualizacion"><path d="M106.2611,276.2969 C157.359,276.2969 228.831,276.2969 268.367,276.2969 " fill="none" id="VerFichaje-to-ErrorVisualizacion" style="stroke:#FF0000;stroke-width:1.0;"/><polygon fill="#FF0000" points="274.367,276.2969,265.367,272.2969,269.367,276.2969,265.367,280.2969,274.367,276.2969" style="stroke:#FF0000;stroke-width:1.0;"/><text fill="#000000" font-family="sans-serif" font-size="13" lengthAdjust="spacing" textLength="132" x="124.25" y="269.3638">[Error en la solicitud]</text></g><!--reverse link DASHBOARD_ABIERTO to ErrorVisualizacion--><g id="link_DASHBOARD_ABIERTO_ErrorVisualizacion"><path d="M274.9428,180.4822 C273.4278,194.3152 273.367,205.9449 276.5,221.2969 C278.578,231.4809 282.652,242.1219 286.801,251.2389 " fill="none" id="DASHBOARD_ABIERTO-backto-ErrorVisualizacion" style="stroke:#FF0000;stroke-width:1.0;"/><polygon fill="#FF0000" points="275.596,174.5179,270.6399,183.0289,275.0517,179.4882,278.5924,183.8999,275.596,174.5179" style="stroke:#FF0000;stroke-width:1.0;"/><text fill="#000000" font-family="sans-serif" font-size="13" lengthAdjust="spacing" textLength="159" x="277.5" y="217.3638">El sistema muestra error</text></g><!--SRC=[TP91Ri8m44NtFiK8TfLoWImgGQ6YYmg9jcmYL0ruA4wDNSquB7gj7g4NwoHAsa3eAjByxvV_nvPt5u2Za4akUO8xb0YMu4LY3cjYk7Ux0vPaZ2HC1BF9qsAwdAnchvFfmtprl0GK60scezQkX1RG-7h0pl4O9J6UkQ3JvioHrqugzEuJTow6JZV5pGOoczqE0vbXnCmMuwslQAF-Ng8SvXugfREB8D6xdKi89ysuRqltp7t6HUQ68quI7H4-c8I2SZh6XRdF6IOzYxHteIaEfxyLV7-5irHSZ9bi3Rkoh1oAPWeKm6DNiR8RSyMSLR-eVt9r5OyLrPM0QeWn8UfLiNix98ZxYzqOk78mrsa6YyXwcIaczAHVnYsMQ55weguoOKWgwulK0cNae9R6qVv09LSlImm52tMK7m00]--></g></svg>