<?xml version="1.0" encoding="us-ascii" standalone="no"?><svg xmlns="http://www.w3.org/2000/svg" xmlns:xlink="http://www.w3.org/1999/xlink" contentStyleType="text/css" height="476px" preserveAspectRatio="none" style="width:428px;height:476px;background:#FFFFFF;" version="1.1" viewBox="0 0 428 476" width="428px" zoomAndPan="magnify"><defs><filter height="300%" id="f1rlfkxsucad4y" width="300%" x="-1" y="-1"><feGaussianBlur result="blurOut" stdDeviation="2.0"/><feColorMatrix in="blurOut" result="blurOut2" type="matrix" values="0 0 0 0 0 0 0 0 0 0 0 0 0 0 0 0 0 0 .4 0"/><feOffset dx="4.0" dy="4.0" in="blurOut2" result="blurOut3"/><feBlend in="SourceGraphic" in2="blurOut3" mode="normal"/></filter></defs><g><text fill="#000000" font-family="sans-serif" font-size="14" font-weight="bold" lengthAdjust="spacing" textLength="204" x="110.75" y="32.9951">Caso de Uso: Ver Informe</text><ellipse cx="95.5" cy="57.2969" fill="#000000" filter="url(#f1rlfkxsucad4y)" rx="10" ry="10" style="stroke:#000000;stroke-width:1.0;"/><rect fill="#FEFECE" filter="url(#f1rlfkxsucad4y)" height="33.9688" rx="12.5" ry="12.5" style="stroke:#A80036;stroke-width:1.5;" width="72" x="59.5" y="162.7622"/><text fill="#000000" font-family="sans-serif" font-size="12" lengthAdjust="spacing" textLength="52" x="69.5" y="183.9009">INFORME</text><rect fill="#FEFECE" filter="url(#f1rlfkxsucad4y)" height="33.9688" rx="12.5" ry="12.5" style="stroke:#A80036;stroke-width:1.5;" width="152" x="19.5" y="87.2969"/><text fill="#000000" font-family="sans-serif" font-size="12" lengthAdjust="spacing" textLength="132" x="29.5" y="108.4355">DASHBOARD_ABIERTO</text><polygon fill="#FEFECE" filter="url(#f1rlfkxsucad4y)" points="32,243.2432,159,243.2432,171,255.2432,159,267.2432,32,267.2432,20,255.2432,32,243.2432" style="stroke:#A80036;stroke-width:1.5;"/><text fill="#000000" font-family="sans-serif" font-size="11" lengthAdjust="spacing" textLength="127" x="32" y="259.0513">&#191;Deseas ver informe?</text><text fill="#000000" font-family="sans-serif" font-size="11" lengthAdjust="spacing" textLength="14" x="171" y="252.6489">no</text><rect fill="#FEFECE" filter="url(#f1rlfkxsucad4y)" height="33.9688" rx="12.5" ry="12.5" style="stroke:#A80036;stroke-width:1.5;" width="92" x="195.5" y="157.7778"/><text fill="#000000" font-family="sans-serif" font-size="12" lengthAdjust="spacing" textLength="72" x="205.5" y="178.9165">&#160;&#160;&#160;&#160;&#160;&#160;&#160;&#160;&#160;&#160;&#160;&#160;&#160;&#160;&#160;&#160;&#160;&#160;</text><rect fill="#FEFECE" filter="url(#f1rlfkxsucad4y)" height="33.9688" rx="12.5" ry="12.5" style="stroke:#A80036;stroke-width:1.5;" width="88" x="51.5" y="308.6421"/><text fill="#000000" font-family="sans-serif" font-size="12" lengthAdjust="spacing" textLength="68" x="61.5" y="329.7808">&#160;&#160;&#160;&#160;&#160;&#160;&#160;&#160;&#160;&#160;&#160;&#160;&#160;&#160;&#160;&#160;&#160;</text><rect fill="#FEFECE" filter="url(#f1rlfkxsucad4y)" height="33.9688" rx="12.5" ry="12.5" style="stroke:#A80036;stroke-width:1.5;" width="135" x="28" y="384.0098"/><text fill="#000000" font-family="sans-serif" font-size="12" lengthAdjust="spacing" textLength="115" x="38" y="405.1484">MOSTRAR_INFORME</text><ellipse cx="95.5" cy="448.9785" fill="none" filter="url(#f1rlfkxsucad4y)" rx="11" ry="11" style="stroke:#000000;stroke-width:1.0;"/><ellipse cx="95.5" cy="448.9785" fill="#000000" rx="6" ry="6" style="stroke:#000000;stroke-width:1.0;"/><line style="stroke:#A80036;stroke-width:1.5;" x1="95.5" x2="95.5" y1="121.2656" y2="162.7622"/><polygon fill="#A80036" points="91.5,152.7622,95.5,162.7622,99.5,152.7622,95.5,156.7622" style="stroke:#A80036;stroke-width:1.0;"/><text fill="#000000" font-family="sans-serif" font-size="11" lengthAdjust="spacing" textLength="240" x="99.5" y="142.5703">El sistema da la opci&#243;n de ver un informe</text><line style="stroke:#A80036;stroke-width:1.5;" x1="171" x2="241.5" y1="255.2432" y2="255.2432"/><line style="stroke:#A80036;stroke-width:1.5;" x1="241.5" x2="241.5" y1="191.7466" y2="255.2432"/><polygon fill="#A80036" points="237.5,201.7466,241.5,191.7466,245.5,201.7466,241.5,197.7466" style="stroke:#A80036;stroke-width:1.0;"/><line style="stroke:#A80036;stroke-width:1.5;" x1="241.5" x2="241.5" y1="104.2813" y2="157.7778"/><line style="stroke:#A80036;stroke-width:1.5;" x1="241.5" x2="171.5" y1="104.2813" y2="104.2813"/><polygon fill="#A80036" points="181.5,100.2813,171.5,104.2813,181.5,108.2813,177.5,104.2813" style="stroke:#A80036;stroke-width:1.0;"/><line style="stroke:#A80036;stroke-width:1.5;" x1="95.5" x2="95.5" y1="196.731" y2="243.2432"/><polygon fill="#A80036" points="91.5,233.2432,95.5,243.2432,99.5,233.2432,95.5,237.2432" style="stroke:#A80036;stroke-width:1.0;"/><text fill="#000000" font-family="sans-serif" font-size="11" lengthAdjust="spacing" textLength="228" x="99.5" y="223.0513">El usuario puede volver a la vista inicial</text><line style="stroke:#A80036;stroke-width:1.5;" x1="95.5" x2="95.5" y1="67.2969" y2="87.2969"/><polygon fill="#A80036" points="91.5,77.2969,95.5,87.2969,99.5,77.2969,95.5,81.2969" style="stroke:#A80036;stroke-width:1.0;"/><line style="stroke:#A80036;stroke-width:1.5;" x1="95.5" x2="95.5" y1="267.2432" y2="308.6421"/><polygon fill="#A80036" points="91.5,298.6421,95.5,308.6421,99.5,298.6421,95.5,302.6421" style="stroke:#A80036;stroke-width:1.0;"/><text fill="#000000" font-family="sans-serif" font-size="11" lengthAdjust="spacing" textLength="248" x="99.5" y="288.5479">El usuario elige el tipo de informe y fechas</text><line style="stroke:#A80036;stroke-width:1.5;" x1="95.5" x2="95.5" y1="342.6108" y2="384.0098"/><polygon fill="#A80036" points="91.5,374.0098,95.5,384.0098,99.5,374.0098,95.5,378.0098" style="stroke:#A80036;stroke-width:1.0;"/><text fill="#000000" font-family="sans-serif" font-size="11" lengthAdjust="spacing" textLength="317" x="99.5" y="363.9155">El sistema le muestra el informe elegido por el usuario</text><line style="stroke:#A80036;stroke-width:1.5;" x1="95.5" x2="95.5" y1="417.9785" y2="437.9785"/><polygon fill="#A80036" points="91.5,427.9785,95.5,437.9785,99.5,427.9785,95.5,431.9785" style="stroke:#A80036;stroke-width:1.0;"/><!--SRC=[RP1DJiCm48NtESKismKNI2HGIeB8eaHA2zjgIARjg4viUUnMd8i38C75i4DG-QaNbZNM-zwR9mSUm6gXnB5J1BSe6Zg2Hz4fF965QjXgsrCY3grB02mPGWTfaQ_k5tNU59jyKPNDkix2vzKrb0g4nL6Fq24e16rQ_dWT8lGOU7u0_a96GLeztDNDieplPsmF9xHT2l_EcUt5esKDnbC4QXMPeyynk69WSykeidFIqvx3NhFtjuA4KCOGKuARER30RD3p9BhyTY35EmetE3PZ9PC8Nc1BxHub6qNfnR1_gmW9Ua_YB4RYDuaKxRWBosWRnvFpn5tMgtMJDviV3OdJvXC0]--></g></svg>