<?xml version="1.0" encoding="us-ascii" standalone="no"?><svg xmlns="http://www.w3.org/2000/svg" xmlns:xlink="http://www.w3.org/1999/xlink" contentStyleType="text/css" height="576px" preserveAspectRatio="none" style="width:1060px;height:576px;background:#FFFFFF;" version="1.1" viewBox="0 0 1060 576" width="1060px" zoomAndPan="magnify"><defs><filter height="300%" id="fxwscdmv2690t" width="300%" x="-1" y="-1"><feGaussianBlur result="blurOut" stdDeviation="2.0"/><feColorMatrix in="blurOut" result="blurOut2" type="matrix" values="0 0 0 0 0 0 0 0 0 0 0 0 0 0 0 0 0 0 .4 0"/><feOffset dx="4.0" dy="4.0" in="blurOut2" result="blurOut3"/><feBlend in="SourceGraphic" in2="blurOut3" mode="normal"/></filter></defs><g><text fill="#000000" font-family="sans-serif" font-size="14" font-weight="bold" lengthAdjust="spacing" textLength="273" x="385.75" y="22.9951">Caso de Uso: Ver Informe (Admin)</text><g id="DASHBOARD_ABIERTO"><rect fill="#FEFECE" filter="url(#fxwscdmv2690t)" height="50" rx="12.5" ry="12.5" style="stroke:#A80036;stroke-width:1.0;" width="182" x="337" y="124.2969"/><line style="stroke:#A80036;stroke-width:1.0;" x1="337" x2="519" y1="150.5938" y2="150.5938"/><text fill="#000000" font-family="sans-serif" font-size="14" lengthAdjust="spacing" textLength="162" x="347" y="142.292">DASHBOARD_ABIERTO</text></g><g id="ListaUsuarios"><rect fill="#FEFECE" filter="url(#fxwscdmv2690t)" height="50" rx="12.5" ry="12.5" style="stroke:#A80036;stroke-width:1.0;" width="100" x="7" y="251.2969"/><line style="stroke:#A80036;stroke-width:1.0;" x1="7" x2="107" y1="277.5938" y2="277.5938"/><text fill="#000000" font-family="sans-serif" font-size="14" lengthAdjust="spacing" textLength="80" x="17" y="269.292">Ver Usuario</text></g><g id="elem_SeleccionarUsuario"><polygon fill="#FEFECE" filter="url(#fxwscdmv2690t)" points="310,393.7969,322,405.7969,310,417.7969,298,405.7969,310,393.7969" style="stroke:#A80036;stroke-width:1.5;"/></g><g id="elem_TipoInforme"><polygon fill="#FEFECE" filter="url(#fxwscdmv2690t)" points="516,393.7969,528,405.7969,516,417.7969,504,405.7969,516,393.7969" style="stroke:#A80036;stroke-width:1.5;"/></g><g id="MostrarInforme"><rect fill="#FEFECE" filter="url(#fxwscdmv2690t)" height="50" rx="12.5" ry="12.5" style="stroke:#A80036;stroke-width:1.0;" width="136" x="597" y="512.7969"/><line style="stroke:#A80036;stroke-width:1.0;" x1="597" x2="733" y1="539.0938" y2="539.0938"/><text fill="#000000" font-family="sans-serif" font-size="14" lengthAdjust="spacing" textLength="116" x="607" y="530.792">Mostrar Informe</text></g><ellipse cx="428" cy="53.2969" fill="#000000" filter="url(#fxwscdmv2690t)" rx="10" ry="10" style="stroke:#000000;stroke-width:1.0;"/><g id="elem_GMN18"><path d="M563,378.2969 L563,401.7969 L528.262,405.7969 L563,409.7969 L563,433.6953 A0,0 0 0 0 563,433.6953 L761,433.6953 A0,0 0 0 0 761,433.6953 L761,388.2969 L751,378.2969 L563,378.2969 A0,0 0 0 0 563,378.2969 " fill="#FBFB77" filter="url(#fxwscdmv2690t)" style="stroke:#A80036;stroke-width:1.0;"/><path d="M751,378.2969 L751,388.2969 L761,388.2969 L751,378.2969 " fill="#FBFB77" style="stroke:#A80036;stroke-width:1.0;"/><text fill="#000000" font-family="sans-serif" font-size="13" lengthAdjust="spacing" textLength="125" x="569" y="395.3638">El sistema permite:</text><text fill="#000000" font-family="sans-serif" font-size="13" lengthAdjust="spacing" textLength="171" x="569" y="410.4966">- Introducir tipo de informe</text><text fill="#000000" font-family="sans-serif" font-size="13" lengthAdjust="spacing" textLength="177" x="569" y="425.6294">- Introducir rango de fechas</text></g><g id="elem_GMN21"><path d="M768.5,510.2969 L768.5,533.7969 L733.428,537.7969 L768.5,541.7969 L768.5,565.6953 A0,0 0 0 0 768.5,565.6953 L1051.5,565.6953 A0,0 0 0 0 1051.5,565.6953 L1051.5,520.2969 L1041.5,510.2969 L768.5,510.2969 A0,0 0 0 0 768.5,510.2969 " fill="#FBFB77" filter="url(#fxwscdmv2690t)" style="stroke:#A80036;stroke-width:1.0;"/><path d="M1041.5,510.2969 L1041.5,520.2969 L1051.5,520.2969 L1041.5,510.2969 " fill="#FBFB77" style="stroke:#A80036;stroke-width:1.0;"/><text fill="#000000" font-family="sans-serif" font-size="13" lengthAdjust="spacing" textLength="71" x="774.5" y="527.3638">El sistema:</text><text fill="#000000" font-family="sans-serif" font-size="13" lengthAdjust="spacing" textLength="135" x="774.5" y="542.4966">- Presenta el informe</text><text fill="#000000" font-family="sans-serif" font-size="13" lengthAdjust="spacing" textLength="262" x="774.5" y="557.6294">- Permite solicitar dejar de ver el informe</text></g><!--link *start* to DASHBOARD_ABIERTO--><g id="link_*start*_DASHBOARD_ABIERTO"><path d="M428,63.3099 C428,77.1879 428,98.2619 428,118.1369 " fill="none" id="*start*-to-DASHBOARD_ABIERTO" style="stroke:#A80036;stroke-width:1.0;"/><polygon fill="#A80036" points="428,124.1369,432,115.1369,428,119.1369,424,115.1369,428,124.1369" style="stroke:#A80036;stroke-width:1.0;"/></g><!--link DASHBOARD_ABIERTO to ListaUsuarios--><g id="link_DASHBOARD_ABIERTO_ListaUsuarios"><path d="M336.578,151.2999 C240.779,154.4449 99.2365,165.7189 63,204.2969 C51.4818,216.5589 49.8803,229.8638 51.4985,245.2368 " fill="none" id="DASHBOARD_ABIERTO-to-ListaUsuarios" style="stroke:#0000FF;stroke-width:1.0;"/><polygon fill="#0000FF" points="52.1266,251.2039,55.1625,241.8346,51.6032,246.2313,47.2064,242.6721,52.1266,251.2039" style="stroke:#0000FF;stroke-width:1.0;"/><text fill="#000000" font-family="sans-serif" font-size="13" lengthAdjust="spacing" textLength="232" x="64" y="217.3638">El sistema muestra lista de usuarios</text></g><!--link ListaUsuarios to SeleccionarUsuario--><g id="link_ListaUsuarios_SeleccionarUsuario"><path d="M47.1267,301.5069 C42.734,316.5389 40.6027,335.3869 51,348.2969 C83.115,388.1729 249.0667,401.0391 293.5167,403.8211 " fill="none" id="ListaUsuarios-to-SeleccionarUsuario" style="stroke:#0000FF;stroke-width:1.0;"/><polygon fill="#0000FF" points="299.505,404.1959,290.7724,399.6415,294.5148,403.8836,290.2727,407.6259,299.505,404.1959" style="stroke:#0000FF;stroke-width:1.0;"/><text fill="#000000" font-family="sans-serif" font-size="13" lengthAdjust="spacing" textLength="244" x="52" y="344.3638">El sistema permite solicitar un usuario</text></g><!--link SeleccionarUsuario to TipoInforme--><g id="link_SeleccionarUsuario_TipoInforme"><path d="M322.269,405.7969 C358.908,405.7969 461.24,405.7969 497.795,405.7969 " fill="none" id="SeleccionarUsuario-to-TipoInforme" style="stroke:#0000FF;stroke-width:1.0;"/><polygon fill="#0000FF" points="503.795,405.7969,494.795,401.7969,498.795,405.7969,494.795,409.7969,503.795,405.7969" style="stroke:#0000FF;stroke-width:1.0;"/><text fill="#000000" font-family="sans-serif" font-size="13" lengthAdjust="spacing" textLength="145" x="340.5" y="398.8638">[Usuario seleccionado]</text></g><!--link TipoInforme to MostrarInforme--><g id="link_TipoInforme_MostrarInforme"><path d="M512.583,414.5059 C506.783,428.8859 496.941,460.1629 511,480.2969 C530.484,508.1994 559.4836,521.0366 591.1086,528.2086 " fill="none" id="TipoInforme-to-MostrarInforme" style="stroke:#0000FF;stroke-width:1.0;"/><polygon fill="#0000FF" points="596.96,529.5356,589.0675,523.6441,592.0838,528.4297,587.2982,531.446,596.96,529.5356" style="stroke:#0000FF;stroke-width:1.0;"/><text fill="#000000" font-family="sans-serif" font-size="13" lengthAdjust="spacing" textLength="277" x="512" y="476.3638">El admin introduce Tipo de informe y rango</text></g><!--reverse link DASHBOARD_ABIERTO to SeleccionarUsuario--><g id="link_DASHBOARD_ABIERTO_SeleccionarUsuario"><path d="M386.9408,178.0309 C362.9918,196.1259 338.123,219.5579 323,251.2969 C299.302,301.0339 305.325,370.1199 308.582,395.2099 " fill="none" id="DASHBOARD_ABIERTO-backto-SeleccionarUsuario" style="stroke:#FF0000;stroke-width:1.0;"/><polygon fill="#FF0000" points="391.728,174.4139,382.1359,176.648,387.7387,177.4281,386.9586,183.0309,391.728,174.4139" style="stroke:#FF0000;stroke-width:1.0;"/><text fill="#000000" font-family="sans-serif" font-size="13" lengthAdjust="spacing" textLength="139" x="324" y="280.8638">[Selecci&#243;n cancelada]</text></g><!--reverse link DASHBOARD_ABIERTO to TipoInforme--><g id="link_DASHBOARD_ABIERTO_TipoInforme"><path d="M442.1227,179.8609 C451.5777,200.0989 462.362,224.4779 472,251.2969 C491.314,305.0399 508.036,371.6849 513.831,395.6679 " fill="none" id="DASHBOARD_ABIERTO-backto-TipoInforme" style="stroke:#FF0000;stroke-width:1.0;"/><polygon fill="#FF0000" points="439.583,174.4249,439.7685,184.272,441.6994,178.9549,447.0165,180.8858,439.583,174.4249" style="stroke:#FF0000;stroke-width:1.0;"/><text fill="#000000" font-family="sans-serif" font-size="13" lengthAdjust="spacing" textLength="213" x="489" y="280.8638">[Selecci&#243;n de informe cancelada]</text></g><!--link MostrarInforme to DASHBOARD_ABIERTO--><g id="link_MostrarInforme_DASHBOARD_ABIERTO"><path d="M733.001,514.6978 C759.959,504.4418 786.374,491.9619 794,480.2969 C853.236,389.6839 792.81,322.1959 711,251.2969 C656.892,204.4049 585.3074,180.0944 525.1114,166.3944 " fill="none" id="MostrarInforme-to-DASHBOARD_ABIERTO" style="stroke:#0000FF;stroke-width:1.0;"/><polygon fill="#0000FF" points="519.261,165.0629,527.1489,170.9604,524.1363,166.1725,528.9243,163.1598,519.261,165.0629" style="stroke:#0000FF;stroke-width:1.0;"/><text fill="#000000" font-family="sans-serif" font-size="13" lengthAdjust="spacing" textLength="149" x="801" y="344.3638">El admin cierra informe</text></g><!--SRC=[ZLFRQW8n47tFLmpwqXRs1nOHrbQeqA9uwOj8IPDHqsOJIRA5VbS_eJ_MHBCsUtdeYmipPywPSoRQ3w70Q8l42ISHxgdLm14sLkVmWWPcQgzDYN1Jy5AeMqAiemxXeLWzJkR5yk6rcCoco_KSg8L1fpg8y2VXlnjRKIEqFKC3TopKe1LAP4neHKtim6Z4Zbem78yZPYrEkbwfqtpMrXbgwdwGYQNQne2GxTqECfwDknP8rrJ6jyCtMU7EuviUSfXAiBw49OMomY03Ca12V5M4aUPGIjVZji5vGbCARyfgAPXmtaEbQbxICvoPF-uqfHosDSHUfxZUaHIKBjPAyRmK3SS7ePpHl6ANCmIV8eA-m51rwDzBReS6-QulyR1S7FdvLi2eOYWffwtb_i-Gh9IGjHobPli8htwPGEEl6Xa9KThVmuZ3qO7Ufo4JwBbSxgkPVtYNp8G1rmojtJud6FfxP4Tg2IeEGR6jstJJaBv8BWnQLFuXecneBJelYkFx-HS-_RynGTVIlm00]--></g></svg>