<?xml version="1.0" encoding="us-ascii" standalone="no"?><svg xmlns="http://www.w3.org/2000/svg" xmlns:xlink="http://www.w3.org/1999/xlink" contentStyleType="text/css" height="789px" preserveAspectRatio="none" style="width:1024px;height:789px;background:#FFFFFF;" version="1.1" viewBox="0 0 1024 789" width="1024px" zoomAndPan="magnify"><defs><filter height="300%" id="fmgk900amx2tq" width="300%" x="-1" y="-1"><feGaussianBlur result="blurOut" stdDeviation="2.0"/><feColorMatrix in="blurOut" result="blurOut2" type="matrix" values="0 0 0 0 0 0 0 0 0 0 0 0 0 0 0 0 0 0 .4 0"/><feOffset dx="4.0" dy="4.0" in="blurOut2" result="blurOut3"/><feBlend in="SourceGraphic" in2="blurOut3" mode="normal"/></filter></defs><g><text fill="#000000" font-family="sans-serif" font-size="14" font-weight="bold" lengthAdjust="spacing" textLength="259" x="374.5" y="22.9951">Caso de Uso: Ver Informe admin</text><!--cluster verInforme--><g id="cluster_verInforme"><rect fill="none" filter="url(#fmgk900amx2tq)" height="626" rx="12.5" ry="12.5" style="stroke:#A80036;stroke-width:1.0;" width="450" x="301.5" y="149.2969"/><path d="M314,149.2969 L739,149.2969 A12.5,12.5 0 0 1 751.5,161.7969 L751.5,170.5938 L301.5,170.5938 L301.5,161.7969 A12.5,12.5 0 0 1 314,149.2969 " fill="#FEFECE" style="stroke:#FEFECE;stroke-width:1.0;"/><path d="M301.5,170.5938 L751.5,170.5938 L751.5,762.7969 A12.5,12.5 0 0 1 739,775.2969 L314,775.2969 A12.5,12.5 0 0 1 301.5,762.7969 L301.5,170.5938 " fill="#FEFECE" style="stroke:#FEFECE;stroke-width:1.0;"/><rect fill="none" height="626" rx="12.5" ry="12.5" style="stroke:#A80036;stroke-width:1.0;" width="450" x="301.5" y="149.2969"/><line style="stroke:#A80036;stroke-width:1.0;" x1="301.5" x2="751.5" y1="170.5938" y2="170.5938"/><text fill="#000000" font-family="sans-serif" font-size="14" lengthAdjust="spacing" textLength="80" x="486.5" y="166.292">verInforme</text></g><ellipse cx="702.5" cy="202.2969" fill="#000000" filter="url(#fmgk900amx2tq)" rx="10" ry="10" style="stroke:#000000;stroke-width:1.0;"/><g id="verInforme.seleccionarUsuario"><rect fill="#FEFECE" filter="url(#fmgk900amx2tq)" height="50" rx="12.5" ry="12.5" style="stroke:#A80036;stroke-width:1.0;" width="50" x="677.5" y="291.2969"/><line style="stroke:#A80036;stroke-width:1.0;" x1="677.5" x2="727.5" y1="317.5938" y2="317.5938"/><text fill="#000000" font-family="sans-serif" font-size="14" lengthAdjust="spacing" textLength="4" x="700.5" y="309.292">&#160;</text></g><g id="verInforme.tipoInforme"><rect fill="#FEFECE" filter="url(#fmgk900amx2tq)" height="50" rx="12.5" ry="12.5" style="stroke:#A80036;stroke-width:1.0;" width="50" x="428.5" y="445.7969"/><line style="stroke:#A80036;stroke-width:1.0;" x1="428.5" x2="478.5" y1="472.0938" y2="472.0938"/><text fill="#000000" font-family="sans-serif" font-size="14" lengthAdjust="spacing" textLength="4" x="451.5" y="463.792">&#160;</text></g><ellipse cx="453.5" cy="740.2969" fill="none" filter="url(#fmgk900amx2tq)" rx="11" ry="11" style="stroke:#000000;stroke-width:1.0;"/><ellipse cx="453.5" cy="740.2969" fill="#000000" rx="6" ry="6" style="stroke:#000000;stroke-width:1.0;"/><g id="verInforme.mostrarInforme"><rect fill="#FEFECE" filter="url(#fmgk900amx2tq)" height="50" rx="12.5" ry="12.5" style="stroke:#A80036;stroke-width:1.0;" width="50" x="333.5" y="600.2969"/><line style="stroke:#A80036;stroke-width:1.0;" x1="333.5" x2="383.5" y1="626.5938" y2="626.5938"/><text fill="#000000" font-family="sans-serif" font-size="14" lengthAdjust="spacing" textLength="4" x="356.5" y="618.292">&#160;</text></g><g id="DASHBOARD_ABIERTO"><rect fill="#FEFECE" filter="url(#fmgk900amx2tq)" height="50" rx="12.5" ry="12.5" style="stroke:#A80036;stroke-width:1.0;" width="182" x="218.5" y="44.2969"/><line style="stroke:#A80036;stroke-width:1.0;" x1="218.5" x2="400.5" y1="70.5938" y2="70.5938"/><text fill="#000000" font-family="sans-serif" font-size="14" lengthAdjust="spacing" textLength="162" x="228.5" y="62.292">DASHBOARD_ABIERTO</text></g><g id="elem_GMN18"><path d="M6,582.2969 L6,667.9609 A0,0 0 0 0 6,667.9609 L277,667.9609 A0,0 0 0 0 277,667.9609 L277,629.2969 L333.388,625.2969 L277,621.2969 L277,592.2969 L267,582.2969 L6,582.2969 A0,0 0 0 0 6,582.2969 " fill="#FBFB77" filter="url(#fmgk900amx2tq)" style="stroke:#A80036;stroke-width:1.0;"/><path d="M267,582.2969 L267,592.2969 L277,592.2969 L267,582.2969 " fill="#FBFB77" style="stroke:#A80036;stroke-width:1.0;"/><text fill="#000000" font-family="sans-serif" font-size="13" lengthAdjust="spacing" textLength="125" x="12" y="599.3638">El sistema permite:</text><text fill="#000000" font-family="sans-serif" font-size="13" lengthAdjust="spacing" textLength="145" x="12" y="614.4966">&#176; Descargar el informe</text><text fill="#000000" font-family="sans-serif" font-size="13" lengthAdjust="spacing" textLength="119" x="12" y="629.6294">&#176; Cerrar el informe</text><text fill="#000000" font-family="sans-serif" font-size="13" lengthAdjust="spacing" textLength="138" x="12" y="644.7622">&#176; Repetir la busqueda</text><text fill="#000000" font-family="sans-serif" font-size="13" lengthAdjust="spacing" textLength="250" x="12" y="659.895">El sistema muestra si existe el informe</text></g><g id="elem_GMN21"><path d="M776,420.2969 L776,466.7969 L478.535,470.7969 L776,474.7969 L776,521.0938 A0,0 0 0 0 776,521.0938 L1015,521.0938 A0,0 0 0 0 1015,521.0938 L1015,430.2969 L1005,420.2969 L776,420.2969 A0,0 0 0 0 776,420.2969 " fill="#FBFB77" filter="url(#fmgk900amx2tq)" style="stroke:#A80036;stroke-width:1.0;"/><path d="M1005,420.2969 L1005,430.2969 L1015,430.2969 L1005,420.2969 " fill="#FBFB77" style="stroke:#A80036;stroke-width:1.0;"/><text fill="#000000" font-family="sans-serif" font-size="13" lengthAdjust="spacing" textLength="128" x="782" y="437.3638">El sistema requiere:</text><text fill="#000000" font-family="sans-serif" font-size="13" lengthAdjust="spacing" textLength="111" x="782" y="452.4966">&#176; Tipo de informe</text><text fill="#000000" font-family="sans-serif" font-size="13" lengthAdjust="spacing" textLength="118" x="782" y="467.6294">&#176; Rango de fechas</text><text fill="#000000" font-family="sans-serif" font-size="13" lengthAdjust="spacing" textLength="120" x="782" y="482.7622">El sistema permite</text><text fill="#000000" font-family="sans-serif" font-size="13" lengthAdjust="spacing" textLength="218" x="782" y="497.895">&#176; Facilitar la busqueda del informe</text><text fill="#000000" font-family="sans-serif" font-size="13" lengthAdjust="spacing" textLength="148" x="782" y="513.0278">&#176; Cancelar la busqueda</text></g><g id="elem_GMN24"><path d="M775.5,273.2969 L775.5,312.2969 L727.867,316.2969 L775.5,320.2969 L775.5,358.9609 A0,0 0 0 0 775.5,358.9609 L1011.5,358.9609 A0,0 0 0 0 1011.5,358.9609 L1011.5,283.2969 L1001.5,273.2969 L775.5,273.2969 A0,0 0 0 0 775.5,273.2969 " fill="#FBFB77" filter="url(#fmgk900amx2tq)" style="stroke:#A80036;stroke-width:1.0;"/><path d="M1001.5,273.2969 L1001.5,283.2969 L1011.5,283.2969 L1001.5,273.2969 " fill="#FBFB77" style="stroke:#A80036;stroke-width:1.0;"/><text fill="#000000" font-family="sans-serif" font-size="13" lengthAdjust="spacing" textLength="128" x="781.5" y="290.3638">El sistema requiere:</text><text fill="#000000" font-family="sans-serif" font-size="13" lengthAdjust="spacing" textLength="134" x="781.5" y="305.4966">&#176; Seleccionar usuario</text><text fill="#000000" font-family="sans-serif" font-size="13" lengthAdjust="spacing" textLength="125" x="781.5" y="320.6294">El sistema permite:</text><text fill="#000000" font-family="sans-serif" font-size="13" lengthAdjust="spacing" textLength="215" x="781.5" y="335.7622">&#176; Facilitar la busqueda del usuario</text><text fill="#000000" font-family="sans-serif" font-size="13" lengthAdjust="spacing" textLength="148" x="781.5" y="350.895">&#176; Cancelar la busqueda</text></g><!--link DASHBOARD_ABIERTO to verInforme--><g id="link_DASHBOARD_ABIERTO_verInforme"><path d="M309.5,94.3239 C309.5,103.6309 309.5,114.8356 309.5,126.4404 C309.5,132.2428 309.5,138.1452 309.5,143.9604 C309.5,145.4142 309.5,146.8626 309.5,148.3026 C309.5,148.4826 309.5,142.6624 309.5,142.8422 " fill="none" id="DASHBOARD_ABIERTO-to-verInforme" style="stroke:#A80036;stroke-width:1.0;"/><polygon fill="#A80036" points="309.5,148.8422,313.5,139.8422,309.5,143.8422,305.5,139.8422,309.5,148.8422" style="stroke:#A80036;stroke-width:1.0;"/></g><!--link *start*verInforme to seleccionarUsuario--><g id="link_*start*verInforme_seleccionarUsuario"><path d="M702.5,212.4619 C702.5,229.4939 702.5,260.5269 702.5,285.1859 " fill="none" id="*start*verInforme-to-seleccionarUsuario" style="stroke:#0000FF;stroke-width:1.0;"/><polygon fill="#0000FF" points="702.5,291.1859,706.5,282.1859,702.5,286.1859,698.5,282.1859,702.5,291.1859" style="stroke:#0000FF;stroke-width:1.0;"/></g><!--link seleccionarUsuario to tipoInforme--><g id="link_seleccionarUsuario_tipoInforme"><path d="M677.254,332.7589 C629.53,361.9879 531.7057,421.9002 483.9297,451.1602 " fill="none" id="seleccionarUsuario-to-tipoInforme" style="stroke:#0000FF;stroke-width:1.0;"/><polygon fill="#0000FF" points="478.813,454.2939,488.5771,453.0045,483.0769,451.6825,484.3989,446.1823,478.813,454.2939" style="stroke:#0000FF;stroke-width:1.0;"/></g><!--link seleccionarUsuario to *end*verInforme--><g id="link_seleccionarUsuario_*end*verInforme"><path d="M711.09,341.6969 C731.192,403.5929 774.112,568.8469 698.5,668.2969 C668.883,707.2512 513.7577,731.0413 470.2697,737.0426 " fill="none" id="seleccionarUsuario-to-*end*verInforme" style="stroke:#FF0000;stroke-width:1.0;"/><polygon fill="#FF0000" points="464.326,737.8628,473.7883,740.5949,469.2791,737.1793,472.6947,732.67,464.326,737.8628" style="stroke:#FF0000;stroke-width:1.0;"/></g><!--link tipoInforme to mostrarInforme--><g id="link_tipoInforme_mostrarInforme"><path d="M428.835,495.9609 C406.857,524.5159 380.0209,566.3214 366.4639,594.8274 " fill="none" id="tipoInforme-to-mostrarInforme" style="stroke:#0000FF;stroke-width:1.0;"/><polygon fill="#0000FF" points="363.887,600.2459,371.3647,593.8362,366.0344,595.7305,364.1401,590.4003,363.887,600.2459" style="stroke:#0000FF;stroke-width:1.0;"/></g><!--reverse link tipoInforme to mostrarInforme--><g id="link_tipoInforme_mostrarInforme"><path d="M446.0826,501.3961 C432.7306,529.9511 405.848,571.7399 383.643,600.2459 " fill="none" id="tipoInforme-backto-mostrarInforme" style="stroke:#FF0000;stroke-width:1.0;"/><polygon fill="#FF0000" points="448.624,495.9609,441.1884,502.4194,446.5061,500.4902,448.4353,505.8079,448.624,495.9609" style="stroke:#FF0000;stroke-width:1.0;"/></g><!--link mostrarInforme to *end*verInforme--><g id="link_mostrarInforme_*end*verInforme"><path d="M378.88,650.5379 C400.361,676.0889 429.1091,710.2837 442.9981,726.8052 " fill="none" id="mostrarInforme-to-*end*verInforme" style="stroke:#0000FF;stroke-width:1.0;"/><polygon fill="#0000FF" points="446.859,731.398,444.1294,721.9349,443.6416,727.5707,438.0058,727.0828,446.859,731.398" style="stroke:#0000FF;stroke-width:1.0;"/></g><!--link tipoInforme to *end*verInforme--><g id="link_tipoInforme_*end*verInforme"><path d="M453.5,496.0079 C453.5,552.3379 453.5,684.3359 453.5,723.0496 " fill="none" id="tipoInforme-to-*end*verInforme" style="stroke:#FF0000;stroke-width:1.0;"/><polygon fill="#FF0000" points="453.5,729.0496,457.5,720.0496,453.5,724.0496,449.5,720.0496,453.5,729.0496" style="stroke:#FF0000;stroke-width:1.0;"/><path d="M458.5,610.7969 L458.5,635.7969 L681.5,635.7969 L681.5,620.7969 L671.5,610.7969 L458.5,610.7969 " fill="#FBFB77" filter="url(#fmgk900amx2tq)" style="stroke:#A80036;stroke-width:1.0;"/><path d="M671.5,610.7969 L671.5,620.7969 L681.5,620.7969 L671.5,610.7969 " fill="#FBFB77" style="stroke:#A80036;stroke-width:1.0;"/><text fill="#000000" font-family="sans-serif" font-size="13" lengthAdjust="spacing" textLength="202" x="464.5" y="627.8638">El admin cancela el ver informe</text></g><!--SRC=[XP9BQiCm48RtEiNGxWg-G1Q5l4gp2kJHJGXbOayI4LboHd8fbDwfP-Z9AjjvM7vGjDAlV-R_Hf8zIGriB0addI8OepMG4Aoj6S0RCSpqtd1AW4agjH3MeIEO39Ule_bmCNaVZcRJnMekH4k2A7g63-9BWslfNO4l0R1vsaAqUTofdBRURqbH74kZaTSsHvR6Uwh21x_GzZXQOhsfavcvKlHvcPB2wd6QWM5rRLUFI8rrZ5nBgRTedOO2H7bs8mZZ6iPwP8NQu0d6qCOZ60rAwjC0fgfwGuXHnwGGI1MF0V8IzYrAlwAz0xDlC_jwAwsZ524ZJgMZWLT_Vs12DaO-81STvStlJyR4t24lA2Cd6Jp3BhVdd18C-wSv5U5-3_HPQFKMf9DoCX7oXlTMQyPqpYNnbNRbVSK73ubG7qfrJ_4HRUUqbVC5Owcamu3ULpOdh-uudB51pl9mBD4xltJ_1Ckx7V8kV_Wy_SJtul-8_m00]--></g></svg>