<?xml version="1.0" encoding="us-ascii" standalone="no"?><svg xmlns="http://www.w3.org/2000/svg" xmlns:xlink="http://www.w3.org/1999/xlink" contentStyleType="text/css" height="590px" preserveAspectRatio="none" style="width:859px;height:590px;background:#FFFFFF;" version="1.1" viewBox="0 0 859 590" width="859px" zoomAndPan="magnify"><defs><filter height="300%" id="fsyor5r8qfip1" width="300%" x="-1" y="-1"><feGaussianBlur result="blurOut" stdDeviation="2.0"/><feColorMatrix in="blurOut" result="blurOut2" type="matrix" values="0 0 0 0 0 0 0 0 0 0 0 0 0 0 0 0 0 0 .4 0"/><feOffset dx="4.0" dy="4.0" in="blurOut2" result="blurOut3"/><feBlend in="SourceGraphic" in2="blurOut3" mode="normal"/></filter></defs><g><text fill="#000000" font-family="sans-serif" font-size="14" font-weight="bold" lengthAdjust="spacing" textLength="204" x="320.75" y="22.9951">Caso de Uso: Ver Informe</text><g id="DASHBOARD_ABIERTO"><rect fill="#FEFECE" filter="url(#fsyor5r8qfip1)" height="50" rx="12.5" ry="12.5" style="stroke:#A80036;stroke-width:1.0;" width="182" x="372.5" y="124.2969"/><line style="stroke:#A80036;stroke-width:1.0;" x1="372.5" x2="554.5" y1="150.5938" y2="150.5938"/><text fill="#000000" font-family="sans-serif" font-size="14" lengthAdjust="spacing" textLength="162" x="382.5" y="142.292">DASHBOARD_ABIERTO</text></g><g id="VerInforme"><rect fill="#FEFECE" filter="url(#fsyor5r8qfip1)" height="50" rx="12.5" ry="12.5" style="stroke:#A80036;stroke-width:1.0;" width="50" x="169.5" y="251.2969"/><line style="stroke:#A80036;stroke-width:1.0;" x1="169.5" x2="219.5" y1="277.5938" y2="277.5938"/><text fill="#000000" font-family="sans-serif" font-size="14" lengthAdjust="spacing" textLength="4" x="192.5" y="269.292">&#160;</text></g><g id="elem_SeleccionarInforme"><polygon fill="#FEFECE" filter="url(#fsyor5r8qfip1)" points="264.5,401.7969,276.5,413.7969,264.5,425.7969,252.5,413.7969,264.5,401.7969" style="stroke:#A80036;stroke-width:1.5;"/></g><g id="MostrarInforme"><rect fill="#FEFECE" filter="url(#fsyor5r8qfip1)" height="50" rx="12.5" ry="12.5" style="stroke:#A80036;stroke-width:1.0;" width="106" x="481.5" y="526.2969"/><line style="stroke:#A80036;stroke-width:1.0;" x1="481.5" x2="587.5" y1="552.5938" y2="552.5938"/><text fill="#000000" font-family="sans-serif" font-size="14" lengthAdjust="spacing" textLength="86" x="491.5" y="544.292">Ver Informe</text></g><g id="CancelarInforme"><rect fill="#FEFECE" filter="url(#fsyor5r8qfip1)" height="50" rx="12.5" ry="12.5" style="stroke:#A80036;stroke-width:1.0;" width="50" x="438.5" y="388.7969"/><line style="stroke:#A80036;stroke-width:1.0;" x1="438.5" x2="488.5" y1="415.0938" y2="415.0938"/><text fill="#000000" font-family="sans-serif" font-size="14" lengthAdjust="spacing" textLength="4" x="461.5" y="406.792">&#160;</text></g><ellipse cx="463.5" cy="53.2969" fill="#000000" filter="url(#fsyor5r8qfip1)" rx="10" ry="10" style="stroke:#000000;stroke-width:1.0;"/><g id="elem_GMN16"><path d="M6,378.2969 L6,448.8281 A0,0 0 0 0 6,448.8281 L217,448.8281 A0,0 0 0 0 217,448.8281 L217,417.7969 L252.327,413.7969 L217,409.7969 L217,388.2969 L207,378.2969 L6,378.2969 A0,0 0 0 0 6,378.2969 " fill="#FBFB77" filter="url(#fsyor5r8qfip1)" style="stroke:#A80036;stroke-width:1.0;"/><path d="M207,378.2969 L207,388.2969 L217,388.2969 L207,378.2969 " fill="#FBFB77" style="stroke:#A80036;stroke-width:1.0;"/><text fill="#000000" font-family="sans-serif" font-size="13" lengthAdjust="spacing" textLength="125" x="12" y="395.3638">El sistema permite:</text><text fill="#000000" font-family="sans-serif" font-size="13" lengthAdjust="spacing" textLength="184" x="12" y="410.4966">- Seleccionar tipo de informe</text><text fill="#000000" font-family="sans-serif" font-size="13" lengthAdjust="spacing" textLength="190" x="12" y="425.6294">- Seleccionar rango de fechas</text><text fill="#000000" font-family="sans-serif" font-size="13" lengthAdjust="spacing" textLength="143" x="12" y="440.7622">- Cancelar la selecci&#243;n</text></g><!--link *start* to DASHBOARD_ABIERTO--><g id="link_*start*_DASHBOARD_ABIERTO"><path d="M463.5,63.3099 C463.5,77.1879 463.5,98.2619 463.5,118.1369 " fill="none" id="*start*-to-DASHBOARD_ABIERTO" style="stroke:#A80036;stroke-width:1.0;"/><polygon fill="#A80036" points="463.5,124.1369,467.5,115.1369,463.5,119.1369,459.5,115.1369,463.5,124.1369" style="stroke:#A80036;stroke-width:1.0;"/></g><!--link DASHBOARD_ABIERTO to VerInforme--><g id="link_DASHBOARD_ABIERTO_VerInforme"><path d="M372.261,158.7469 C331.121,165.9859 283.566,179.4099 246.5,204.2969 C229.122,215.9649 218.4348,230.2724 209.4808,245.8934 " fill="none" id="DASHBOARD_ABIERTO-to-VerInforme" style="stroke:#0000FF;stroke-width:1.0;"/><polygon fill="#0000FF" points="206.497,251.0989,214.443,245.2799,208.9835,246.761,207.5024,241.3015,206.497,251.0989" style="stroke:#0000FF;stroke-width:1.0;"/><text fill="#000000" font-family="sans-serif" font-size="13" lengthAdjust="spacing" textLength="189" x="247.5" y="217.3638">El usuario solicita ver informe</text></g><!--link VerInforme to SeleccionarInforme--><g id="link_VerInforme_SeleccionarInforme"><path d="M178.003,301.3249 C170.308,315.7449 164.6,334.0019 173.5,348.2969 C189.468,373.9449 210.56,359.8669 234.5,378.2969 C244.941,386.3339 250.9578,393.5795 256.3578,401.1075 " fill="none" id="VerInforme-to-SeleccionarInforme" style="stroke:#0000FF;stroke-width:1.0;"/><polygon fill="#0000FF" points="259.855,405.9829,257.8594,396.3383,256.9406,401.9201,251.3589,401.0013,259.855,405.9829" style="stroke:#0000FF;stroke-width:1.0;"/><text fill="#000000" font-family="sans-serif" font-size="13" lengthAdjust="spacing" textLength="262" x="174.5" y="344.3638">El sistema presenta opciones de informe</text></g><!--link SeleccionarInforme to MostrarInforme--><g id="link_SeleccionarInforme_MostrarInforme"><path d="M272.003,418.5619 C302.622,433.9279 414.2944,489.9715 481.2964,523.5965 " fill="none" id="SeleccionarInforme-to-MostrarInforme" style="stroke:#0000FF;stroke-width:1.0;"/><polygon fill="#0000FF" points="486.659,526.2877,480.4093,518.6758,482.1902,524.045,476.821,525.8259,486.659,526.2877" style="stroke:#0000FF;stroke-width:1.0;"/><text fill="#000000" font-family="sans-serif" font-size="13" lengthAdjust="spacing" textLength="207" x="425.5" y="492.3638">El usuario introduce tipo y rango</text></g><!--link SeleccionarInforme to CancelarInforme--><g id="link_SeleccionarInforme_CancelarInforme"><path d="M276.649,413.7969 C308.547,413.7969 389.19,413.7969 432.358,413.7969 " fill="none" id="SeleccionarInforme-to-CancelarInforme" style="stroke:#FF0000;stroke-width:1.0;"/><polygon fill="#FF0000" points="438.358,413.7969,429.358,409.7969,433.358,413.7969,429.358,417.7969,438.358,413.7969" style="stroke:#FF0000;stroke-width:1.0;"/><text fill="#000000" font-family="sans-serif" font-size="13" lengthAdjust="spacing" textLength="125" x="295" y="406.8638">[El usuario cancela]</text></g><!--reverse link DASHBOARD_ABIERTO to CancelarInforme--><g id="link_DASHBOARD_ABIERTO_CancelarInforme"><path d="M463.5,180.5219 C463.5,230.5289 463.5,338.6729 463.5,388.6309 " fill="none" id="DASHBOARD_ABIERTO-backto-CancelarInforme" style="stroke:#FF0000;stroke-width:1.0;"/><polygon fill="#FF0000" points="463.5,174.5219,459.5,183.5219,463.5,179.5219,467.5,183.5219,463.5,174.5219" style="stroke:#FF0000;stroke-width:1.0;"/><text fill="#000000" font-family="sans-serif" font-size="13" lengthAdjust="spacing" textLength="184" x="464.5" y="280.8638">El sistema cancela y regresa</text></g><!--link MostrarInforme to DASHBOARD_ABIERTO--><g id="link_MostrarInforme_DASHBOARD_ABIERTO"><path d="M587.572,535.825 C607.748,527.5764 628.89,515.0235 641.5,496.2969 C731.141,363.1779 686.324,298.7999 657.5,251.2969 C634.798,213.8839 598.801,191.8847 559.941,176.5867 " fill="none" id="MostrarInforme-to-DASHBOARD_ABIERTO" style="stroke:#0000FF;stroke-width:1.0;"/><polygon fill="#0000FF" points="554.358,174.3889,561.2672,181.4076,559.0105,176.2204,564.1977,173.9637,554.358,174.3889" style="stroke:#0000FF;stroke-width:1.0;"/><text fill="#000000" font-family="sans-serif" font-size="13" lengthAdjust="spacing" textLength="156" x="695.5" y="344.3638">El usuario cierra informe</text></g><!--SRC=[TP9DQiCm48NtEiNGx0g-W0c1_46pA86axSQ4eihZH5JH18rSwBbwX5wiicCR-QVRcQTFxps9FxK5Hup2QsyGrf89SeHNfXJUqC7E5kIkA0HxwH4so-FJQhyyRDwNgztsyB87oV0mcZuqya1e0BKEslaH3IgboSfkFv-h2sc5YqMZUIRsJlREHuPQqbfQXKOEhn7PumcIF5cC7OjnXYJFPX-cn5FGHvPJs1eekPHE4p0PhRINy1LCwAQLI1mp9kBLBDRiyIhXvf3H1XRTAXLoLNdBd3WSimUrz3ngwntbfKBm-aRm3KxQCqqINJPpc5V0OOCfP15ItRSdCPGbPKSO5zfBso0gEtWEoQKOP8ZZ_SFgx6XqJdPT2KlX3nWiF50nKRk0NktehjfZ6gP9BBwt5Jt1S5_NM0aAL1V9zRxj0q8olcj_Vwn0cqDbwWy0]--></g></svg>