<?xml version="1.0" encoding="us-ascii" standalone="no"?><svg xmlns="http://www.w3.org/2000/svg" xmlns:xlink="http://www.w3.org/1999/xlink" contentStyleType="text/css" height="447px" preserveAspectRatio="none" style="width:454px;height:447px;background:#FFFFFF;" version="1.1" viewBox="0 0 454 447" width="454px" zoomAndPan="magnify"><defs><filter height="300%" id="f1qaze74c3mq2z" width="300%" x="-1" y="-1"><feGaussianBlur result="blurOut" stdDeviation="2.0"/><feColorMatrix in="blurOut" result="blurOut2" type="matrix" values="0 0 0 0 0 0 0 0 0 0 0 0 0 0 0 0 0 0 .4 0"/><feOffset dx="4.0" dy="4.0" in="blurOut2" result="blurOut3"/><feBlend in="SourceGraphic" in2="blurOut3" mode="normal"/></filter></defs><g><rect fill="#FEFECE" filter="url(#f1qaze74c3mq2z)" height="33.9688" rx="12.5" ry="12.5" style="stroke:#A80036;stroke-width:1.5;" width="152" x="144" y="11"/><text fill="#000000" font-family="sans-serif" font-size="12" lengthAdjust="spacing" textLength="132" x="154" y="32.1387">DASHBOARD_ABIERTO</text><rect fill="#FEFECE" filter="url(#f1qaze74c3mq2z)" height="33.9688" rx="12.5" ry="12.5" style="stroke:#A80036;stroke-width:1.5;" width="72" x="184" y="64.9688"/><text fill="#000000" font-family="sans-serif" font-size="12" lengthAdjust="spacing" textLength="52" x="194" y="86.1074">INFORME</text><rect fill="none" filter="url(#f1qaze74c3mq2z)" height="321.8438" style="stroke:#000000;stroke-width:1.0;" width="426" x="11" y="108.9375"/><path d="M105,108.9375 L105,118.2344 L95,128.2344 L11,128.2344 " fill="none" style="stroke:#000000;stroke-width:1.0;"/><text fill="#000000" font-family="sans-serif" font-size="14" lengthAdjust="spacing" textLength="84" x="14" y="122.9326">ver informe</text><ellipse cx="220" cy="155.2344" fill="#000000" filter="url(#f1qaze74c3mq2z)" rx="10" ry="10" style="stroke:#000000;stroke-width:1.0;"/><polygon fill="#FEFECE" filter="url(#f1qaze74c3mq2z)" points="181,185.2344,259,185.2344,271,197.2344,259,209.2344,181,209.2344,169,197.2344,181,185.2344" style="stroke:#A80036;stroke-width:1.5;"/><text fill="#000000" font-family="sans-serif" font-size="11" lengthAdjust="spacing" textLength="78" x="181" y="201.0425">TIPO INFORME</text><rect fill="#FEFECE" filter="url(#f1qaze74c3mq2z)" height="33.9688" rx="12.5" ry="12.5" style="stroke:#A80036;stroke-width:1.5;" width="113" x="21" y="244.8438"/><text fill="#000000" font-family="sans-serif" font-size="12" lengthAdjust="spacing" textLength="93" x="31" y="265.9824">Seleccionar dia</text><rect fill="#FEFECE" filter="url(#f1qaze74c3mq2z)" height="33.9688" rx="12.5" ry="12.5" style="stroke:#A80036;stroke-width:1.5;" width="142" x="145" y="244.8438"/><text fill="#000000" font-family="sans-serif" font-size="12" lengthAdjust="spacing" textLength="122" x="155" y="265.9824">Seleccionar semana</text><rect fill="#FEFECE" filter="url(#f1qaze74c3mq2z)" height="33.9688" rx="12.5" ry="12.5" style="stroke:#A80036;stroke-width:1.5;" width="121" x="306" y="244.8438"/><text fill="#000000" font-family="sans-serif" font-size="12" lengthAdjust="spacing" textLength="101" x="316" y="265.9824">Seleccionar mes</text><polygon fill="#FEFECE" filter="url(#f1qaze74c3mq2z)" points="220,298.8125,220,298.8125,232,310.8125,220,322.8125,220,322.8125,208,310.8125,220,298.8125" style="stroke:#A80036;stroke-width:1.5;"/><rect fill="#FEFECE" filter="url(#f1qaze74c3mq2z)" height="33.9688" rx="12.5" ry="12.5" style="stroke:#A80036;stroke-width:1.5;" width="113" x="163.5" y="342.8125"/><text fill="#000000" font-family="sans-serif" font-size="12" lengthAdjust="spacing" textLength="93" x="173.5" y="363.9512">mostrarInforme</text><ellipse cx="220" cy="407.7813" fill="none" filter="url(#f1qaze74c3mq2z)" rx="11" ry="11" style="stroke:#000000;stroke-width:1.0;"/><ellipse cx="220" cy="407.7813" fill="#000000" rx="6" ry="6" style="stroke:#000000;stroke-width:1.0;"/><line style="stroke:#A80036;stroke-width:1.5;" x1="220" x2="220" y1="44.9688" y2="64.9688"/><polygon fill="#A80036" points="216,54.9688,220,64.9688,224,54.9688,220,58.9688" style="stroke:#A80036;stroke-width:1.0;"/><line style="stroke:#A80036;stroke-width:1.5;" x1="169" x2="77.5" y1="197.2344" y2="197.2344"/><line style="stroke:#A80036;stroke-width:1.5;" x1="77.5" x2="77.5" y1="197.2344" y2="244.8438"/><polygon fill="#A80036" points="73.5,234.8438,77.5,244.8438,81.5,234.8438,77.5,238.8438" style="stroke:#A80036;stroke-width:1.0;"/><text fill="#000000" font-family="sans-serif" font-size="11" lengthAdjust="spacing" textLength="20" x="77.5" y="224.8472">DIA</text><line style="stroke:#A80036;stroke-width:1.5;" x1="271" x2="366.5" y1="197.2344" y2="197.2344"/><line style="stroke:#A80036;stroke-width:1.5;" x1="366.5" x2="366.5" y1="197.2344" y2="244.8438"/><polygon fill="#A80036" points="362.5,234.8438,366.5,244.8438,370.5,234.8438,366.5,238.8438" style="stroke:#A80036;stroke-width:1.0;"/><text fill="#000000" font-family="sans-serif" font-size="11" lengthAdjust="spacing" textLength="24" x="366.5" y="224.8472">MES</text><line style="stroke:#A80036;stroke-width:1.5;" x1="220" x2="220" y1="209.2344" y2="221.1042"/><line style="stroke:#A80036;stroke-width:1.5;" x1="220" x2="216" y1="221.1042" y2="221.1042"/><line style="stroke:#A80036;stroke-width:1.5;" x1="216" x2="216" y1="221.1042" y2="244.8438"/><polygon fill="#A80036" points="212,234.8438,216,244.8438,220,234.8438,216,238.8438" style="stroke:#A80036;stroke-width:1.0;"/><text fill="#000000" font-family="sans-serif" font-size="11" lengthAdjust="spacing" textLength="48" x="216" y="225.8472">SEMANA</text><line style="stroke:#A80036;stroke-width:1.5;" x1="77.5" x2="77.5" y1="278.8125" y2="310.8125"/><line style="stroke:#A80036;stroke-width:1.5;" x1="77.5" x2="208" y1="310.8125" y2="310.8125"/><polygon fill="#A80036" points="198,306.8125,208,310.8125,198,314.8125,202,310.8125" style="stroke:#A80036;stroke-width:1.0;"/><line style="stroke:#A80036;stroke-width:1.5;" x1="366.5" x2="366.5" y1="278.8125" y2="310.8125"/><line style="stroke:#A80036;stroke-width:1.5;" x1="366.5" x2="232" y1="310.8125" y2="310.8125"/><polygon fill="#A80036" points="242,306.8125,232,310.8125,242,314.8125,238,310.8125" style="stroke:#A80036;stroke-width:1.0;"/><line style="stroke:#A80036;stroke-width:1.5;" x1="216" x2="216" y1="278.8125" y2="283.8125"/><line style="stroke:#A80036;stroke-width:1.5;" x1="216" x2="220" y1="283.8125" y2="283.8125"/><line style="stroke:#A80036;stroke-width:1.5;" x1="220" x2="220" y1="283.8125" y2="298.8125"/><polygon fill="#A80036" points="216,288.8125,220,298.8125,224,288.8125,220,292.8125" style="stroke:#A80036;stroke-width:1.0;"/><line style="stroke:#A80036;stroke-width:1.5;" x1="220" x2="220" y1="165.2344" y2="185.2344"/><polygon fill="#A80036" points="216,175.2344,220,185.2344,224,175.2344,220,179.2344" style="stroke:#A80036;stroke-width:1.0;"/><line style="stroke:#A80036;stroke-width:1.5;" x1="220" x2="220" y1="322.8125" y2="342.8125"/><polygon fill="#A80036" points="216,332.8125,220,342.8125,224,332.8125,220,336.8125" style="stroke:#A80036;stroke-width:1.0;"/><line style="stroke:#A80036;stroke-width:1.5;" x1="220" x2="220" y1="376.7813" y2="396.7813"/><polygon fill="#A80036" points="216,386.7813,220,396.7813,224,386.7813,220,390.7813" style="stroke:#A80036;stroke-width:1.0;"/><line style="stroke:#A80036;stroke-width:1.5;" x1="220" x2="220" y1="98.9375" y2="145.2344"/><polygon fill="#A80036" points="216,135.2344,220,145.2344,224,135.2344,220,139.2344" style="stroke:#A80036;stroke-width:1.0;"/><!--SRC=[RO_13i8W38RlUufcf_aAsubb63bicB6x8Qn6ei02H0_6TnSs4pruQll_Nvk_uQejU1UmA03gZeX3oydOdKZBw3Zn9gjisFEnfxal5kcZZjfPAE_eGTkpymPBU2Opn6Jc-j1HNQg97JbyTdT91b0oODKniarG2xoXKkcOz31hsNmXGNio_EK26cb_qPwAVvp1a26qynPd_S-u4BtqR4lTh9dTKhpU]--></g></svg>