<?xml version="1.0" encoding="us-ascii" standalone="no"?><svg xmlns="http://www.w3.org/2000/svg" xmlns:xlink="http://www.w3.org/1999/xlink" contentStyleType="text/css" height="789px" preserveAspectRatio="none" style="width:1027px;height:789px;background:#FFFFFF;" version="1.1" viewBox="0 0 1027 789" width="1027px" zoomAndPan="magnify"><defs><filter height="300%" id="foa30csg1mgxe" width="300%" x="-1" y="-1"><feGaussianBlur result="blurOut" stdDeviation="2.0"/><feColorMatrix in="blurOut" result="blurOut2" type="matrix" values="0 0 0 0 0 0 0 0 0 0 0 0 0 0 0 0 0 0 .4 0"/><feOffset dx="4.0" dy="4.0" in="blurOut2" result="blurOut3"/><feBlend in="SourceGraphic" in2="blurOut3" mode="normal"/></filter></defs><g><text fill="#000000" font-family="sans-serif" font-size="14" font-weight="bold" lengthAdjust="spacing" textLength="259" x="376.25" y="22.9951">Caso de Uso: Ver Informe admin</text><!--cluster verInforme--><g id="cluster_verInforme"><rect fill="none" filter="url(#foa30csg1mgxe)" height="626" rx="12.5" ry="12.5" style="stroke:#A80036;stroke-width:1.0;" width="457" x="301.5" y="149.2969"/><path d="M314,149.2969 L746,149.2969 A12.5,12.5 0 0 1 758.5,161.7969 L758.5,170.5938 L301.5,170.5938 L301.5,161.7969 A12.5,12.5 0 0 1 314,149.2969 " fill="#FEFECE" style="stroke:#FEFECE;stroke-width:1.0;"/><path d="M301.5,170.5938 L758.5,170.5938 L758.5,762.7969 A12.5,12.5 0 0 1 746,775.2969 L314,775.2969 A12.5,12.5 0 0 1 301.5,762.7969 L301.5,170.5938 " fill="#FEFECE" style="stroke:#FEFECE;stroke-width:1.0;"/><rect fill="none" height="626" rx="12.5" ry="12.5" style="stroke:#A80036;stroke-width:1.0;" width="457" x="301.5" y="149.2969"/><line style="stroke:#A80036;stroke-width:1.0;" x1="301.5" x2="758.5" y1="170.5938" y2="170.5938"/><text fill="#000000" font-family="sans-serif" font-size="14" lengthAdjust="spacing" textLength="80" x="490" y="166.292">verInforme</text></g><ellipse cx="709.5" cy="202.2969" fill="#000000" filter="url(#foa30csg1mgxe)" rx="10" ry="10" style="stroke:#000000;stroke-width:1.0;"/><g id="verInforme.seleccionarUsuario"><rect fill="#FEFECE" filter="url(#foa30csg1mgxe)" height="50" rx="12.5" ry="12.5" style="stroke:#A80036;stroke-width:1.0;" width="50" x="684.5" y="291.2969"/><line style="stroke:#A80036;stroke-width:1.0;" x1="684.5" x2="734.5" y1="317.5938" y2="317.5938"/><text fill="#000000" font-family="sans-serif" font-size="14" lengthAdjust="spacing" textLength="4" x="707.5" y="309.292">&#160;</text></g><g id="verInforme.inicioInforme"><rect fill="#FEFECE" filter="url(#foa30csg1mgxe)" height="50" rx="12.5" ry="12.5" style="stroke:#A80036;stroke-width:1.0;" width="50" x="492.5" y="445.7969"/><line style="stroke:#A80036;stroke-width:1.0;" x1="492.5" x2="542.5" y1="472.0938" y2="472.0938"/><text fill="#000000" font-family="sans-serif" font-size="14" lengthAdjust="spacing" textLength="4" x="515.5" y="463.792">&#160;</text></g><ellipse cx="453.5" cy="740.2969" fill="none" filter="url(#foa30csg1mgxe)" rx="11" ry="11" style="stroke:#000000;stroke-width:1.0;"/><ellipse cx="453.5" cy="740.2969" fill="#000000" rx="6" ry="6" style="stroke:#000000;stroke-width:1.0;"/><g id="verInforme.mostrarInforme"><rect fill="#FEFECE" filter="url(#foa30csg1mgxe)" height="50" rx="12.5" ry="12.5" style="stroke:#A80036;stroke-width:1.0;" width="50" x="333.5" y="600.2969"/><line style="stroke:#A80036;stroke-width:1.0;" x1="333.5" x2="383.5" y1="626.5938" y2="626.5938"/><text fill="#000000" font-family="sans-serif" font-size="14" lengthAdjust="spacing" textLength="4" x="356.5" y="618.292">&#160;</text></g><g id="DASHBOARD_ABIERTO"><rect fill="#FEFECE" filter="url(#foa30csg1mgxe)" height="50" rx="12.5" ry="12.5" style="stroke:#A80036;stroke-width:1.0;" width="182" x="218.5" y="44.2969"/><line style="stroke:#A80036;stroke-width:1.0;" x1="218.5" x2="400.5" y1="70.5938" y2="70.5938"/><text fill="#000000" font-family="sans-serif" font-size="14" lengthAdjust="spacing" textLength="162" x="228.5" y="62.292">DASHBOARD_ABIERTO</text></g><g id="elem_GMN16"><path d="M6,582.2969 L6,667.9609 A0,0 0 0 0 6,667.9609 L277,667.9609 A0,0 0 0 0 277,667.9609 L277,629.2969 L333.388,625.2969 L277,621.2969 L277,592.2969 L267,582.2969 L6,582.2969 A0,0 0 0 0 6,582.2969 " fill="#FBFB77" filter="url(#foa30csg1mgxe)" style="stroke:#A80036;stroke-width:1.0;"/><path d="M267,582.2969 L267,592.2969 L277,592.2969 L267,582.2969 " fill="#FBFB77" style="stroke:#A80036;stroke-width:1.0;"/><text fill="#000000" font-family="sans-serif" font-size="13" lengthAdjust="spacing" textLength="125" x="12" y="599.3638">El sistema permite:</text><text fill="#000000" font-family="sans-serif" font-size="13" lengthAdjust="spacing" textLength="211" x="12" y="614.4966">&#176; Confirmar descargar el informe</text><text fill="#000000" font-family="sans-serif" font-size="13" lengthAdjust="spacing" textLength="100" x="12" y="629.6294">&#176; Volver a atr&#225;s</text><text fill="#000000" font-family="sans-serif" font-size="13" lengthAdjust="spacing" textLength="148" x="12" y="644.7622">&#176; Cancelar la busqueda</text><text fill="#000000" font-family="sans-serif" font-size="13" lengthAdjust="spacing" textLength="250" x="12" y="659.895">El sistema muestra si existe el informe</text></g><g id="elem_GMN19"><path d="M783,420.2969 L783,466.7969 L542.535,470.7969 L783,474.7969 L783,521.0938 A0,0 0 0 0 783,521.0938 L1006,521.0938 A0,0 0 0 0 1006,521.0938 L1006,430.2969 L996,420.2969 L783,420.2969 A0,0 0 0 0 783,420.2969 " fill="#FBFB77" filter="url(#foa30csg1mgxe)" style="stroke:#A80036;stroke-width:1.0;"/><path d="M996,420.2969 L996,430.2969 L1006,430.2969 L996,420.2969 " fill="#FBFB77" style="stroke:#A80036;stroke-width:1.0;"/><text fill="#000000" font-family="sans-serif" font-size="13" lengthAdjust="spacing" textLength="128" x="789" y="437.3638">El sistema requiere:</text><text fill="#000000" font-family="sans-serif" font-size="13" lengthAdjust="spacing" textLength="111" x="789" y="452.4966">&#176; Tipo de informe</text><text fill="#000000" font-family="sans-serif" font-size="13" lengthAdjust="spacing" textLength="118" x="789" y="467.6294">&#176; Rango de fechas</text><text fill="#000000" font-family="sans-serif" font-size="13" lengthAdjust="spacing" textLength="120" x="789" y="482.7622">El sistema permite</text><text fill="#000000" font-family="sans-serif" font-size="13" lengthAdjust="spacing" textLength="202" x="789" y="497.895">&#176; Facilitar al cliente la busqueda</text><text fill="#000000" font-family="sans-serif" font-size="13" lengthAdjust="spacing" textLength="148" x="789" y="513.0278">&#176; Cancelar la busqueda</text></g><g id="elem_GMN22"><path d="M782.5,273.2969 L782.5,312.2969 L734.867,316.2969 L782.5,320.2969 L782.5,358.9609 A0,0 0 0 0 782.5,358.9609 L1018.5,358.9609 A0,0 0 0 0 1018.5,358.9609 L1018.5,283.2969 L1008.5,273.2969 L782.5,273.2969 A0,0 0 0 0 782.5,273.2969 " fill="#FBFB77" filter="url(#foa30csg1mgxe)" style="stroke:#A80036;stroke-width:1.0;"/><path d="M1008.5,273.2969 L1008.5,283.2969 L1018.5,283.2969 L1008.5,273.2969 " fill="#FBFB77" style="stroke:#A80036;stroke-width:1.0;"/><text fill="#000000" font-family="sans-serif" font-size="13" lengthAdjust="spacing" textLength="128" x="788.5" y="290.3638">El sistema requiere:</text><text fill="#000000" font-family="sans-serif" font-size="13" lengthAdjust="spacing" textLength="135" x="788.5" y="305.4966">&#176; Nombre del usuario</text><text fill="#000000" font-family="sans-serif" font-size="13" lengthAdjust="spacing" textLength="125" x="788.5" y="320.6294">El sistema permite:</text><text fill="#000000" font-family="sans-serif" font-size="13" lengthAdjust="spacing" textLength="215" x="788.5" y="335.7622">&#176; Facilitar la busqueda del usuario</text><text fill="#000000" font-family="sans-serif" font-size="13" lengthAdjust="spacing" textLength="148" x="788.5" y="350.895">&#176; Cancelar la busqueda</text></g><!--link DASHBOARD_ABIERTO to verInforme--><g id="link_DASHBOARD_ABIERTO_verInforme"><path d="M309.5,94.3239 C309.5,103.6309 309.5,114.8356 309.5,126.4404 C309.5,132.2428 309.5,138.1452 309.5,143.9604 C309.5,145.4142 309.5,146.8626 309.5,148.3026 C309.5,148.4826 309.5,142.6624 309.5,142.8422 " fill="none" id="DASHBOARD_ABIERTO-to-verInforme" style="stroke:#A80036;stroke-width:1.0;"/><polygon fill="#A80036" points="309.5,148.8422,313.5,139.8422,309.5,143.8422,305.5,139.8422,309.5,148.8422" style="stroke:#A80036;stroke-width:1.0;"/></g><!--link *start*verInforme to seleccionarUsuario--><g id="link_*start*verInforme_seleccionarUsuario"><path d="M709.5,212.4619 C709.5,229.4939 709.5,260.5269 709.5,285.1859 " fill="none" id="*start*verInforme-to-seleccionarUsuario" style="stroke:#0000FF;stroke-width:1.0;"/><polygon fill="#0000FF" points="709.5,291.1859,713.5,282.1859,709.5,286.1859,705.5,282.1859,709.5,291.1859" style="stroke:#0000FF;stroke-width:1.0;"/></g><!--link seleccionarUsuario to inicioInforme--><g id="link_seleccionarUsuario_inicioInforme"><path d="M684.399,337.2339 C647.603,366.4599 584.1053,416.8942 547.3053,446.1232 " fill="none" id="seleccionarUsuario-to-inicioInforme" style="stroke:#0000FF;stroke-width:1.0;"/><polygon fill="#0000FF" points="542.607,449.8549,552.1423,447.3895,546.5223,446.7451,547.1667,441.1251,542.607,449.8549" style="stroke:#0000FF;stroke-width:1.0;"/></g><!--link seleccionarUsuario to *end*verInforme--><g id="link_seleccionarUsuario_*end*verInforme"><path d="M714.71,341.3029 C729.454,411.9559 767.927,617.3979 728.5,668.2969 C694.832,711.7614 517.117,732.7591 470.32,737.6098 " fill="none" id="seleccionarUsuario-to-*end*verInforme" style="stroke:#FF0000;stroke-width:1.0;"/><polygon fill="#FF0000" points="464.352,738.2284,473.7164,741.2791,469.3254,737.7129,472.8916,733.3218,464.352,738.2284" style="stroke:#FF0000;stroke-width:1.0;"/></g><!--link inicioInforme to mostrarInforme--><g id="link_inicioInforme_mostrarInforme"><path d="M492.306,495.9609 C462.534,524.5159 417.6272,567.5867 387.9062,596.0927 " fill="none" id="inicioInforme-to-mostrarInforme" style="stroke:#0000FF;stroke-width:1.0;"/><polygon fill="#0000FF" points="383.576,600.2459,392.8401,596.9029,387.1845,596.7849,387.3025,591.1292,383.576,600.2459" style="stroke:#0000FF;stroke-width:1.0;"/></g><!--link mostrarInforme to *end*verInforme--><g id="link_mostrarInforme_*end*verInforme"><path d="M378.88,650.5379 C400.361,676.0889 429.1091,710.2837 442.9981,726.8052 " fill="none" id="mostrarInforme-to-*end*verInforme" style="stroke:#0000FF;stroke-width:1.0;"/><polygon fill="#0000FF" points="446.859,731.398,444.1294,721.9349,443.6416,727.5707,438.0058,727.0828,446.859,731.398" style="stroke:#0000FF;stroke-width:1.0;"/></g><!--link inicioInforme to *end*verInforme--><g id="link_inicioInforme_*end*verInforme"><path d="M508.183,496.0559 C499.953,518.2339 488.109,552.0849 480.5,582.2969 C466.721,637.0089 458.4877,698.2648 455.4147,723.312 " fill="none" id="inicioInforme-to-*end*verInforme" style="stroke:#FF0000;stroke-width:1.0;"/><polygon fill="#FF0000" points="454.684,729.2674,459.7502,720.8215,455.2929,724.3046,451.8097,719.8473,454.684,729.2674" style="stroke:#FF0000;stroke-width:1.0;"/><path d="M485.5,610.7969 L485.5,635.7969 L715.5,635.7969 L715.5,620.7969 L705.5,610.7969 L485.5,610.7969 " fill="#FBFB77" filter="url(#foa30csg1mgxe)" style="stroke:#A80036;stroke-width:1.0;"/><path d="M705.5,610.7969 L705.5,620.7969 L715.5,620.7969 L705.5,610.7969 " fill="#FBFB77" style="stroke:#A80036;stroke-width:1.0;"/><text fill="#000000" font-family="sans-serif" font-size="13" lengthAdjust="spacing" textLength="209" x="491.5" y="627.8638">El usuario cancela el ver informe</text></g><!--SRC=[XP91JiCm44NtFiK8TaYzG1T8RG711gHIs5G8JPD96U7OxTX1I8Z3S0FE01TZahGGDwrGDlRu_pzlOeTdTY0-a8aSBS44WuUSu2xu8ToJm9Khl9G4c9ViZ0aH8y7PwFPoV3EQdZsEnbVdqzcDCRqI30Qdy4Ao2TXQ_ohmPW3c9mymc1ylR4KFgWzaASlOEvIxKA6mLqrhFD8Fmm55hzWDPSTwjkKuf1RAQx42xRRSzIVxRgFIXoWedKxTcDvfMe1kKalHQvGmEg_Pte5bzpo4SmlLPfWCNKOMWMpzjpMbRVXk6eUb8e8l-ZYQ43X4AX5M92L76chrwnCctXKi9Oe-Z92XB7MbsVphLCszjtKl18po_H4snXP4G64MLLXNb6FQgAoefj0zq6jTwmQJoviXJGg-UnsTEA5rnIHRy1clciUSa4xHBPjgGTaJXhs3jyeBpDXoL7wqa5acLrCaenmQSWTTUFdKiEzxlVlvDVdQbmiXHVszMhF_aXBM3aPg_O_r1m00]--></g></svg>