<?xml version="1.0" encoding="us-ascii" standalone="no"?><svg xmlns="http://www.w3.org/2000/svg" xmlns:xlink="http://www.w3.org/1999/xlink" contentStyleType="text/css" height="642px" preserveAspectRatio="none" style="width:978px;height:642px;background:#FFFFFF;" version="1.1" viewBox="0 0 978 642" width="978px" zoomAndPan="magnify"><defs><filter height="300%" id="fsgbw14cfv0tm" width="300%" x="-1" y="-1"><feGaussianBlur result="blurOut" stdDeviation="2.0"/><feColorMatrix in="blurOut" result="blurOut2" type="matrix" values="0 0 0 0 0 0 0 0 0 0 0 0 0 0 0 0 0 0 .4 0"/><feOffset dx="4.0" dy="4.0" in="blurOut2" result="blurOut3"/><feBlend in="SourceGraphic" in2="blurOut3" mode="normal"/></filter></defs><g><text fill="#000000" font-family="sans-serif" font-size="14" font-weight="bold" lengthAdjust="spacing" textLength="204" x="379" y="22.9951">Caso de Uso: Ver Informe</text><!--cluster verInforme--><g id="cluster_verInforme"><rect fill="none" filter="url(#fsgbw14cfv0tm)" height="479" rx="12.5" ry="12.5" style="stroke:#A80036;stroke-width:1.0;" width="420" x="301.5" y="149.2969"/><path d="M314,149.2969 L709,149.2969 A12.5,12.5 0 0 1 721.5,161.7969 L721.5,170.5938 L301.5,170.5938 L301.5,161.7969 A12.5,12.5 0 0 1 314,149.2969 " fill="#FEFECE" style="stroke:#FEFECE;stroke-width:1.0;"/><path d="M301.5,170.5938 L721.5,170.5938 L721.5,615.7969 A12.5,12.5 0 0 1 709,628.2969 L314,628.2969 A12.5,12.5 0 0 1 301.5,615.7969 L301.5,170.5938 " fill="#FEFECE" style="stroke:#FEFECE;stroke-width:1.0;"/><rect fill="none" height="479" rx="12.5" ry="12.5" style="stroke:#A80036;stroke-width:1.0;" width="420" x="301.5" y="149.2969"/><line style="stroke:#A80036;stroke-width:1.0;" x1="301.5" x2="721.5" y1="170.5938" y2="170.5938"/><text fill="#000000" font-family="sans-serif" font-size="14" lengthAdjust="spacing" textLength="80" x="471.5" y="166.292">verInforme</text></g><ellipse cx="453.5" cy="202.2969" fill="#000000" filter="url(#fsgbw14cfv0tm)" rx="10" ry="10" style="stroke:#000000;stroke-width:1.0;"/><g id="verInforme.inicioInforme"><rect fill="#FEFECE" filter="url(#fsgbw14cfv0tm)" height="50" rx="12.5" ry="12.5" style="stroke:#A80036;stroke-width:1.0;" width="50" x="428.5" y="298.7969"/><line style="stroke:#A80036;stroke-width:1.0;" x1="428.5" x2="478.5" y1="325.0938" y2="325.0938"/><text fill="#000000" font-family="sans-serif" font-size="14" lengthAdjust="spacing" textLength="4" x="451.5" y="316.792">&#160;</text></g><g id="verInforme.mostrarInforme"><rect fill="#FEFECE" filter="url(#fsgbw14cfv0tm)" height="50" rx="12.5" ry="12.5" style="stroke:#A80036;stroke-width:1.0;" width="50" x="333.5" y="453.2969"/><line style="stroke:#A80036;stroke-width:1.0;" x1="333.5" x2="383.5" y1="479.5938" y2="479.5938"/><text fill="#000000" font-family="sans-serif" font-size="14" lengthAdjust="spacing" textLength="4" x="356.5" y="471.292">&#160;</text></g><ellipse cx="429.5" cy="593.2969" fill="none" filter="url(#fsgbw14cfv0tm)" rx="11" ry="11" style="stroke:#000000;stroke-width:1.0;"/><ellipse cx="429.5" cy="593.2969" fill="#000000" rx="6" ry="6" style="stroke:#000000;stroke-width:1.0;"/><g id="DASHBOARD_ABIERTO"><rect fill="#FEFECE" filter="url(#fsgbw14cfv0tm)" height="50" rx="12.5" ry="12.5" style="stroke:#A80036;stroke-width:1.0;" width="182" x="218.5" y="44.2969"/><line style="stroke:#A80036;stroke-width:1.0;" x1="218.5" x2="400.5" y1="70.5938" y2="70.5938"/><text fill="#000000" font-family="sans-serif" font-size="14" lengthAdjust="spacing" textLength="162" x="228.5" y="62.292">DASHBOARD_ABIERTO</text></g><g id="elem_GMN13"><path d="M6,435.2969 L6,520.9609 A0,0 0 0 0 6,520.9609 L277,520.9609 A0,0 0 0 0 277,520.9609 L277,482.2969 L333.388,478.2969 L277,474.2969 L277,445.2969 L267,435.2969 L6,435.2969 A0,0 0 0 0 6,435.2969 " fill="#FBFB77" filter="url(#fsgbw14cfv0tm)" style="stroke:#A80036;stroke-width:1.0;"/><path d="M267,435.2969 L267,445.2969 L277,445.2969 L267,435.2969 " fill="#FBFB77" style="stroke:#A80036;stroke-width:1.0;"/><text fill="#000000" font-family="sans-serif" font-size="13" lengthAdjust="spacing" textLength="125" x="12" y="452.3638">El sistema permite:</text><text fill="#000000" font-family="sans-serif" font-size="13" lengthAdjust="spacing" textLength="211" x="12" y="467.4966">&#176; Confirmar descargar el informe</text><text fill="#000000" font-family="sans-serif" font-size="13" lengthAdjust="spacing" textLength="100" x="12" y="482.6294">&#176; Volver a atr&#225;s</text><text fill="#000000" font-family="sans-serif" font-size="13" lengthAdjust="spacing" textLength="148" x="12" y="497.7622">&#176; Cancelar la busqueda</text><text fill="#000000" font-family="sans-serif" font-size="13" lengthAdjust="spacing" textLength="250" x="12" y="512.895">El sistema muestra si existe el informe</text></g><g id="elem_GMN16"><path d="M746,273.2969 L746,319.7969 L478.75,323.7969 L746,327.7969 L746,374.0938 A0,0 0 0 0 746,374.0938 L969,374.0938 A0,0 0 0 0 969,374.0938 L969,283.2969 L959,273.2969 L746,273.2969 A0,0 0 0 0 746,273.2969 " fill="#FBFB77" filter="url(#fsgbw14cfv0tm)" style="stroke:#A80036;stroke-width:1.0;"/><path d="M959,273.2969 L959,283.2969 L969,283.2969 L959,273.2969 " fill="#FBFB77" style="stroke:#A80036;stroke-width:1.0;"/><text fill="#000000" font-family="sans-serif" font-size="13" lengthAdjust="spacing" textLength="128" x="752" y="290.3638">El sistema requiere:</text><text fill="#000000" font-family="sans-serif" font-size="13" lengthAdjust="spacing" textLength="111" x="752" y="305.4966">&#176; Tipo de informe</text><text fill="#000000" font-family="sans-serif" font-size="13" lengthAdjust="spacing" textLength="118" x="752" y="320.6294">&#176; Rango de fechas</text><text fill="#000000" font-family="sans-serif" font-size="13" lengthAdjust="spacing" textLength="120" x="752" y="335.7622">El sistema permite</text><text fill="#000000" font-family="sans-serif" font-size="13" lengthAdjust="spacing" textLength="202" x="752" y="350.895">&#176; Facilitar al cliente la busqueda</text><text fill="#000000" font-family="sans-serif" font-size="13" lengthAdjust="spacing" textLength="148" x="752" y="366.0278">&#176; Cancelar la busqueda</text></g><!--link DASHBOARD_ABIERTO to verInforme--><g id="link_DASHBOARD_ABIERTO_verInforme"><path d="M309.5,94.3239 C309.5,103.6309 309.5,114.8356 309.5,126.4404 C309.5,132.2428 309.5,138.1452 309.5,143.9604 C309.5,145.4142 309.5,146.8626 309.5,148.3026 C309.5,148.4826 309.5,142.6624 309.5,142.8422 " fill="none" id="DASHBOARD_ABIERTO-to-verInforme" style="stroke:#A80036;stroke-width:1.0;"/><polygon fill="#A80036" points="309.5,148.8422,313.5,139.8422,309.5,143.8422,305.5,139.8422,309.5,148.8422" style="stroke:#A80036;stroke-width:1.0;"/></g><!--link *start*verInforme to inicioInforme--><g id="link_*start*verInforme_inicioInforme"><path d="M453.5,212.6739 C453.5,231.0509 453.5,266.3149 453.5,292.7849 " fill="none" id="*start*verInforme-to-inicioInforme" style="stroke:#0000FF;stroke-width:1.0;"/><polygon fill="#0000FF" points="453.5,298.7849,457.5,289.7849,453.5,293.7849,449.5,289.7849,453.5,298.7849" style="stroke:#0000FF;stroke-width:1.0;"/></g><!--link inicioInforme to mostrarInforme--><g id="link_inicioInforme_mostrarInforme"><path d="M438.447,348.9609 C420.658,377.5159 394.4124,419.6471 376.6554,448.1531 " fill="none" id="inicioInforme-to-mostrarInforme" style="stroke:#0000FF;stroke-width:1.0;"/><polygon fill="#0000FF" points="373.483,453.2459,381.6367,447.7217,376.1266,449.0019,374.8464,443.4918,373.483,453.2459" style="stroke:#0000FF;stroke-width:1.0;"/></g><!--link mostrarInforme to *end*verInforme--><g id="link_mostrarInforme_*end*verInforme"><path d="M373.731,503.5379 C389.541,528.6999 410.2239,561.6179 420.8609,578.5474 " fill="none" id="mostrarInforme-to-*end*verInforme" style="stroke:#0000FF;stroke-width:1.0;"/><polygon fill="#0000FF" points="424.053,583.6278,422.6518,573.8791,421.3929,579.3941,415.8779,578.1352,424.053,583.6278" style="stroke:#0000FF;stroke-width:1.0;"/></g><!--link inicioInforme to *end*verInforme--><g id="link_inicioInforme_*end*verInforme"><path d="M451.328,349.0079 C446.262,405.4669 434.3721,537.9909 430.9321,576.3373 " fill="none" id="inicioInforme-to-*end*verInforme" style="stroke:#FF0000;stroke-width:1.0;"/><polygon fill="#FF0000" points="430.396,582.3133,435.1841,573.7067,430.8427,577.3333,427.2161,572.9919,430.396,582.3133" style="stroke:#FF0000;stroke-width:1.0;"/><path d="M447.5,463.7969 L447.5,488.7969 L677.5,488.7969 L677.5,473.7969 L667.5,463.7969 L447.5,463.7969 " fill="#FBFB77" filter="url(#fsgbw14cfv0tm)" style="stroke:#A80036;stroke-width:1.0;"/><path d="M667.5,463.7969 L667.5,473.7969 L677.5,473.7969 L667.5,463.7969 " fill="#FBFB77" style="stroke:#A80036;stroke-width:1.0;"/><text fill="#000000" font-family="sans-serif" font-size="13" lengthAdjust="spacing" textLength="209" x="453.5" y="480.8638">El usuario cancela el ver informe</text></g><!--SRC=[TP9DJiCm48NtFiK8TaYzG1T8_KDqLQcKRgeAJPD96TMnsx63a127uGQS0Ix69A4qQQYyiP_dlVb6TjYn0_61JEHe2KOOFAG4Zy7tOKa2KvTvoScO434IZ0SFzyFPO3v-6Woda_bYPan7Wbxl5bv8pgmd1TuCmEfc3RtLzSOMjDPwTfomFre0Qi-LBWoTozQvcPBx40NbGapdjYr0CqdnjE2_NaBfgS1vZVSEBBjT7oOMYb2Wi8S4NK8MWMmvkARKFT-DgIoMiWW-wo9fHE0GAKVOa-GSgQ_groUClCjOSXHzdf2WR7MduVpdr9gbjsKp18po_H5-ZJM9WD9iYd0eACLsexoWaaBFGA-brWmcbrPJde6VFqaZJkXGCCaHVC7xwakrIEVejfMQKVACuT_1wyexJDXoL7wqa5WcLrAqHhaqv17z1m00]--></g></svg>