<?xml version="1.0" encoding="us-ascii" standalone="no"?><svg xmlns="http://www.w3.org/2000/svg" xmlns:xlink="http://www.w3.org/1999/xlink" contentStyleType="text/css" height="619px" preserveAspectRatio="none" style="width:1209px;height:619px;background:#FFFFFF;" version="1.1" viewBox="0 0 1209 619" width="1209px" zoomAndPan="magnify"><defs><filter height="300%" id="fjzojle12d2wy" width="300%" x="-1" y="-1"><feGaussianBlur result="blurOut" stdDeviation="2.0"/><feColorMatrix in="blurOut" result="blurOut2" type="matrix" values="0 0 0 0 0 0 0 0 0 0 0 0 0 0 0 0 0 0 .4 0"/><feOffset dx="4.0" dy="4.0" in="blurOut2" result="blurOut3"/><feBlend in="SourceGraphic" in2="blurOut3" mode="normal"/></filter></defs><g><text fill="#000000" font-family="sans-serif" font-size="14" font-weight="bold" lengthAdjust="spacing" textLength="210" x="491.5" y="22.9951">Caso de Uso: Leer Usuario</text><!--cluster verUsuarios--><g id="cluster_verUsuarios"><rect fill="none" filter="url(#fjzojle12d2wy)" height="456" rx="12.5" ry="12.5" style="stroke:#A80036;stroke-width:1.0;" width="586" x="264" y="149.2969"/><path d="M276.5,149.2969 L837.5,149.2969 A12.5,12.5 0 0 1 850,161.7969 L850,170.5938 L264,170.5938 L264,161.7969 A12.5,12.5 0 0 1 276.5,149.2969 " fill="#FEFECE" style="stroke:#FEFECE;stroke-width:1.0;"/><path d="M264,170.5938 L850,170.5938 L850,592.7969 A12.5,12.5 0 0 1 837.5,605.2969 L276.5,605.2969 A12.5,12.5 0 0 1 264,592.7969 L264,170.5938 " fill="#FEFECE" style="stroke:#FEFECE;stroke-width:1.0;"/><rect fill="none" height="456" rx="12.5" ry="12.5" style="stroke:#A80036;stroke-width:1.0;" width="586" x="264" y="149.2969"/><line style="stroke:#A80036;stroke-width:1.0;" x1="264" x2="850" y1="170.5938" y2="170.5938"/><text fill="#000000" font-family="sans-serif" font-size="14" lengthAdjust="spacing" textLength="81" x="516.5" y="166.292">verUsuarios</text></g><ellipse cx="576" cy="202.2969" fill="#000000" filter="url(#fjzojle12d2wy)" rx="10" ry="10" style="stroke:#000000;stroke-width:1.0;"/><g id="verUsuarios.seleccionarUsuario"><rect fill="#FEFECE" filter="url(#fjzojle12d2wy)" height="50" rx="12.5" ry="12.5" style="stroke:#A80036;stroke-width:1.0;" width="220" x="466" y="275.7969"/><line style="stroke:#A80036;stroke-width:1.0;" x1="466" x2="686" y1="302.0938" y2="302.0938"/><text fill="#000000" font-family="sans-serif" font-size="14" lengthAdjust="spacing" textLength="200" x="476" y="293.792">Seleccionar usuario para ver</text></g><g id="verUsuarios.visualizarPerfil"><rect fill="#FEFECE" filter="url(#fjzojle12d2wy)" height="50" rx="12.5" ry="12.5" style="stroke:#A80036;stroke-width:1.0;" width="210" x="296" y="399.7969"/><line style="stroke:#A80036;stroke-width:1.0;" x1="296" x2="506" y1="426.0938" y2="426.0938"/><text fill="#000000" font-family="sans-serif" font-size="14" lengthAdjust="spacing" textLength="190" x="306" y="417.792">Visualizar perfil del usuario</text></g><ellipse cx="493" cy="570.2969" fill="none" filter="url(#fjzojle12d2wy)" rx="11" ry="11" style="stroke:#000000;stroke-width:1.0;"/><ellipse cx="493" cy="570.2969" fill="#000000" rx="6" ry="6" style="stroke:#000000;stroke-width:1.0;"/><g id="DASHBOARD_ABIERTO"><rect fill="#FEFECE" filter="url(#fjzojle12d2wy)" height="50" rx="12.5" ry="12.5" style="stroke:#A80036;stroke-width:1.0;" width="182" x="181" y="44.2969"/><line style="stroke:#A80036;stroke-width:1.0;" x1="181" x2="363" y1="70.5938" y2="70.5938"/><text fill="#000000" font-family="sans-serif" font-size="14" lengthAdjust="spacing" textLength="162" x="191" y="62.292">DASHBOARD_ABIERTO</text></g><g id="elem_GMN13"><path d="M6,389.2969 L6,459.8281 A0,0 0 0 0 6,459.8281 L240,459.8281 A0,0 0 0 0 240,459.8281 L240,428.7969 L295.979,424.7969 L240,420.7969 L240,399.2969 L230,389.2969 L6,389.2969 A0,0 0 0 0 6,389.2969 " fill="#FBFB77" filter="url(#fjzojle12d2wy)" style="stroke:#A80036;stroke-width:1.0;"/><path d="M230,389.2969 L230,399.2969 L240,399.2969 L230,389.2969 " fill="#FBFB77" style="stroke:#A80036;stroke-width:1.0;"/><text fill="#000000" font-family="sans-serif" font-size="13" lengthAdjust="spacing" textLength="152" x="12" y="406.3638">El usuario selecciona si:</text><text fill="#000000" font-family="sans-serif" font-size="13" lengthAdjust="spacing" textLength="172" x="12" y="421.4966">&#176; Mostrar datos personales</text><text fill="#000000" font-family="sans-serif" font-size="13" lengthAdjust="spacing" textLength="164" x="12" y="436.6294">&#176; Mostrar tipo de contrato</text><text fill="#000000" font-family="sans-serif" font-size="13" lengthAdjust="spacing" textLength="213" x="12" y="451.7622">&#176; Editar, eliminar o a&#241;adir usuario</text></g><g id="elem_GMN16"><path d="M874,273.2969 L874,296.7969 L686.298,300.7969 L874,304.7969 L874,328.6953 A0,0 0 0 0 874,328.6953 L1200,328.6953 A0,0 0 0 0 1200,328.6953 L1200,283.2969 L1190,273.2969 L874,273.2969 A0,0 0 0 0 874,273.2969 " fill="#FBFB77" filter="url(#fjzojle12d2wy)" style="stroke:#A80036;stroke-width:1.0;"/><path d="M1190,273.2969 L1190,283.2969 L1200,283.2969 L1190,273.2969 " fill="#FBFB77" style="stroke:#A80036;stroke-width:1.0;"/><text fill="#000000" font-family="sans-serif" font-size="13" lengthAdjust="spacing" textLength="68" x="880" y="290.3638">El Usuario:</text><text fill="#000000" font-family="sans-serif" font-size="13" lengthAdjust="spacing" textLength="199" x="880" y="305.4966">&#176; Busca un Usuario por nombre</text><text fill="#000000" font-family="sans-serif" font-size="13" lengthAdjust="spacing" textLength="305" x="880" y="320.6294">&#176; Selecciona un Usuario directamente de la lista</text></g><!--link DASHBOARD_ABIERTO to verUsuarios--><g id="link_DASHBOARD_ABIERTO_verUsuarios"><path d="M272,94.3239 C272,103.6309 272,114.8356 272,126.4404 C272,132.2428 272,138.1452 272,143.9604 C272,145.4142 272,146.8626 272,148.3026 C272,148.4826 272,142.6624 272,142.8422 " fill="none" id="DASHBOARD_ABIERTO-to-verUsuarios" style="stroke:#A80036;stroke-width:1.0;"/><polygon fill="#A80036" points="272,148.8422,276,139.8422,272,143.8422,268,139.8422,272,148.8422" style="stroke:#A80036;stroke-width:1.0;"/></g><!--link *start*verUsuarios to seleccionarUsuario--><g id="link_*start*verUsuarios_seleccionarUsuario"><path d="M576,212.5499 C576,226.8909 576,248.9599 576,269.3989 " fill="none" id="*start*verUsuarios-to-seleccionarUsuario" style="stroke:#0000FF;stroke-width:1.0;"/><polygon fill="#0000FF" points="576,275.3989,580,266.3989,576,270.3989,572,266.3989,576,275.3989" style="stroke:#0000FF;stroke-width:1.0;"/></g><!--link seleccionarUsuario to visualizarPerfil--><g id="link_seleccionarUsuario_visualizarPerfil"><path d="M541.426,325.8999 C510.746,347.2889 471.083,374.9395 440.425,396.3125 " fill="none" id="seleccionarUsuario-to-visualizarPerfil" style="stroke:#0000FF;stroke-width:1.0;"/><polygon fill="#0000FF" points="435.503,399.7439,445.1735,397.8782,439.6047,396.8844,440.5984,391.3156,435.503,399.7439" style="stroke:#0000FF;stroke-width:1.0;"/></g><!--link visualizarPerfil to *end*verUsuarios--><g id="link_visualizarPerfil_*end*verUsuarios"><path d="M364.686,449.9459 C337.142,471.2569 307.269,502.9399 328,529.2969 C347.316,553.8548 441.8209,564.6138 475.7909,567.7781 " fill="none" id="visualizarPerfil-to-*end*verUsuarios" style="stroke:#0000FF;stroke-width:1.0;"/><polygon fill="#0000FF" points="481.765,568.3346,473.1748,563.5171,476.7866,567.8708,472.4328,571.4826,481.765,568.3346" style="stroke:#0000FF;stroke-width:1.0;"/><path d="M333,495.2969 L333,520.2969 L637,520.2969 L637,505.2969 L627,495.2969 L333,495.2969 " fill="#FBFB77" filter="url(#fjzojle12d2wy)" style="stroke:#A80036;stroke-width:1.0;"/><path d="M627,495.2969 L627,505.2969 L637,505.2969 L627,495.2969 " fill="#FBFB77" style="stroke:#A80036;stroke-width:1.0;"/><text fill="#000000" font-family="sans-serif" font-size="13" lengthAdjust="spacing" textLength="283" x="339" y="512.3638">Muestra datos personales y tipo de contrato</text></g><!--link seleccionarUsuario to *end*verUsuarios--><g id="link_seleccionarUsuario_*end*verUsuarios"><path d="M597.02,325.8849 C633.186,370.3479 698.807,466.4959 650,529.2969 C631.79,552.7276 542.9083,564.0729 510.1263,567.5607 " fill="none" id="seleccionarUsuario-to-*end*verUsuarios" style="stroke:#FF0000;stroke-width:1.0;"/><polygon fill="#FF0000" points="504.16,568.1955,513.5327,571.2209,509.1319,567.6665,512.6863,563.2658,504.16,568.1955" style="stroke:#FF0000;stroke-width:1.0;"/><path d="M671,410.2969 L671,435.2969 L907,435.2969 L907,420.2969 L897,410.2969 L671,410.2969 " fill="#FBFB77" filter="url(#fjzojle12d2wy)" style="stroke:#A80036;stroke-width:1.0;"/><path d="M897,410.2969 L897,420.2969 L907,420.2969 L897,410.2969 " fill="#FBFB77" style="stroke:#A80036;stroke-width:1.0;"/><text fill="#000000" font-family="sans-serif" font-size="13" lengthAdjust="spacing" textLength="215" x="677" y="427.3638">El usuario cancela la visualizaci&#243;n</text></g><!--SRC=[TLBRQW8n47tFLmpshTGVyA6WLMYXOj6sBo9bp8um69CboGfjwJ-rz0_gZtLsTI_g2lkGdJDdpZcPX3LRy2wGYXmDmHq61md1It0zU2JoSihGirCgH8m4m_xiVZ3fJuTl_S73QFeyKUgi1DtkBMp97wYXv3PAyAa0vjSBwCwlbYQZXJ026TAQdSMoJNhspCwinY3RWv2Yntnc1p1S89yLctfRbfhX3_HFv5TiQhNN2e6qWEHAJAbRoBLmJqjDAKag7TR9S6V1i5ttO9nHY98WmIZt8Jf1V1eAy0wHqs8BsbdfY7cKYsay9PSKHfLdq6Wr6GJvAf-QTxzMVIbLi0oj8hXLMxB6dDe31Eu9zlSDOvVdy6T1Zj6MJ8AE4exeRu0CRpXVhWFS_M32rPeLsQJ8TUApTU7YzF1py3R8WaR8R5c6r7cPjbbwsZVK3wlP9Vga8sx8YgAOpc-EvN5KPlu1]--></g></svg>
