<?xml version="1.0" encoding="us-ascii" standalone="no"?><svg xmlns="http://www.w3.org/2000/svg" xmlns:xlink="http://www.w3.org/1999/xlink" contentStyleType="text/css" height="619px" preserveAspectRatio="none" style="width:1186px;height:619px;background:#FFFFFF;" version="1.1" viewBox="0 0 1186 619" width="1186px" zoomAndPan="magnify"><defs><filter height="300%" id="f50i1sxgd4mvd" width="300%" x="-1" y="-1"><feGaussianBlur result="blurOut" stdDeviation="2.0"/><feColorMatrix in="blurOut" result="blurOut2" type="matrix" values="0 0 0 0 0 0 0 0 0 0 0 0 0 0 0 0 0 0 .4 0"/><feOffset dx="4.0" dy="4.0" in="blurOut2" result="blurOut3"/><feBlend in="SourceGraphic" in2="blurOut3" mode="normal"/></filter></defs><g><text fill="#000000" font-family="sans-serif" font-size="14" font-weight="bold" lengthAdjust="spacing" textLength="210" x="480" y="22.9951">Caso de Uso: Leer Usuario</text><!--cluster verUsuarios--><g id="cluster_verUsuarios"><rect fill="none" filter="url(#f50i1sxgd4mvd)" height="456" rx="12.5" ry="12.5" style="stroke:#A80036;stroke-width:1.0;" width="586" x="345.5" y="149.2969"/><path d="M358,149.2969 L919,149.2969 A12.5,12.5 0 0 1 931.5,161.7969 L931.5,170.5938 L345.5,170.5938 L345.5,161.7969 A12.5,12.5 0 0 1 358,149.2969 " fill="#FEFECE" style="stroke:#FEFECE;stroke-width:1.0;"/><path d="M345.5,170.5938 L931.5,170.5938 L931.5,592.7969 A12.5,12.5 0 0 1 919,605.2969 L358,605.2969 A12.5,12.5 0 0 1 345.5,592.7969 L345.5,170.5938 " fill="#FEFECE" style="stroke:#FEFECE;stroke-width:1.0;"/><rect fill="none" height="456" rx="12.5" ry="12.5" style="stroke:#A80036;stroke-width:1.0;" width="586" x="345.5" y="149.2969"/><line style="stroke:#A80036;stroke-width:1.0;" x1="345.5" x2="931.5" y1="170.5938" y2="170.5938"/><text fill="#000000" font-family="sans-serif" font-size="14" lengthAdjust="spacing" textLength="81" x="598" y="166.292">verUsuarios</text></g><ellipse cx="657.5" cy="202.2969" fill="#000000" filter="url(#f50i1sxgd4mvd)" rx="10" ry="10" style="stroke:#000000;stroke-width:1.0;"/><g id="verUsuarios.seleccionarUsuario"><rect fill="#FEFECE" filter="url(#f50i1sxgd4mvd)" height="50" rx="12.5" ry="12.5" style="stroke:#A80036;stroke-width:1.0;" width="220" x="547.5" y="275.7969"/><line style="stroke:#A80036;stroke-width:1.0;" x1="547.5" x2="767.5" y1="302.0938" y2="302.0938"/><text fill="#000000" font-family="sans-serif" font-size="14" lengthAdjust="spacing" textLength="200" x="557.5" y="293.792">Seleccionar usuario para ver</text></g><g id="verUsuarios.visualizarPerfil"><rect fill="#FEFECE" filter="url(#f50i1sxgd4mvd)" height="50" rx="12.5" ry="12.5" style="stroke:#A80036;stroke-width:1.0;" width="210" x="377.5" y="399.7969"/><line style="stroke:#A80036;stroke-width:1.0;" x1="377.5" x2="587.5" y1="426.0938" y2="426.0938"/><text fill="#000000" font-family="sans-serif" font-size="14" lengthAdjust="spacing" textLength="190" x="387.5" y="417.792">Visualizar perfil del usuario</text></g><ellipse cx="574.5" cy="570.2969" fill="none" filter="url(#f50i1sxgd4mvd)" rx="11" ry="11" style="stroke:#000000;stroke-width:1.0;"/><ellipse cx="574.5" cy="570.2969" fill="#000000" rx="6" ry="6" style="stroke:#000000;stroke-width:1.0;"/><g id="DASHBOARD_ABIERTO"><rect fill="#FEFECE" filter="url(#f50i1sxgd4mvd)" height="50" rx="12.5" ry="12.5" style="stroke:#A80036;stroke-width:1.0;" width="182" x="262.5" y="44.2969"/><line style="stroke:#A80036;stroke-width:1.0;" x1="262.5" x2="444.5" y1="70.5938" y2="70.5938"/><text fill="#000000" font-family="sans-serif" font-size="14" lengthAdjust="spacing" textLength="162" x="272.5" y="62.292">DASHBOARD_ABIERTO</text></g><g id="elem_GMN13"><path d="M6,389.2969 L6,459.8281 A0,0 0 0 0 6,459.8281 L321,459.8281 A0,0 0 0 0 321,459.8281 L321,428.7969 L377.232,424.7969 L321,420.7969 L321,399.2969 L311,389.2969 L6,389.2969 A0,0 0 0 0 6,389.2969 " fill="#FBFB77" filter="url(#f50i1sxgd4mvd)" style="stroke:#A80036;stroke-width:1.0;"/><path d="M311,389.2969 L311,399.2969 L321,399.2969 L311,389.2969 " fill="#FBFB77" style="stroke:#A80036;stroke-width:1.0;"/><text fill="#000000" font-family="sans-serif" font-size="13" lengthAdjust="spacing" textLength="125" x="12" y="406.3638">El sistema permite:</text><text fill="#000000" font-family="sans-serif" font-size="13" lengthAdjust="spacing" textLength="172" x="12" y="421.4966">&#176; Mostrar datos personales</text><text fill="#000000" font-family="sans-serif" font-size="13" lengthAdjust="spacing" textLength="164" x="12" y="436.6294">&#176; Mostrar tipo de contrato</text><text fill="#000000" font-family="sans-serif" font-size="13" lengthAdjust="spacing" textLength="294" x="12" y="451.7622">&#176; Opci&#243;n para editar, eliminar o a&#241;adir usuario</text></g><g id="elem_GMN16"><path d="M956,273.2969 L956,296.7969 L767.738,300.7969 L956,304.7969 L956,328.6953 A0,0 0 0 0 956,328.6953 L1177,328.6953 A0,0 0 0 0 1177,328.6953 L1177,283.2969 L1167,273.2969 L956,273.2969 A0,0 0 0 0 956,273.2969 " fill="#FBFB77" filter="url(#f50i1sxgd4mvd)" style="stroke:#A80036;stroke-width:1.0;"/><path d="M1167,273.2969 L1167,283.2969 L1177,283.2969 L1167,273.2969 " fill="#FBFB77" style="stroke:#A80036;stroke-width:1.0;"/><text fill="#000000" font-family="sans-serif" font-size="13" lengthAdjust="spacing" textLength="128" x="962" y="290.3638">El sistema requiere:</text><text fill="#000000" font-family="sans-serif" font-size="13" lengthAdjust="spacing" textLength="184" x="962" y="305.4966">&#176; Buscar Usuario por nombre</text><text fill="#000000" font-family="sans-serif" font-size="13" lengthAdjust="spacing" textLength="200" x="962" y="320.6294">&#176; Seleccionar Usuario de la lista</text></g><!--link DASHBOARD_ABIERTO to verUsuarios--><g id="link_DASHBOARD_ABIERTO_verUsuarios"><path d="M353.5,94.3239 C353.5,103.6309 353.5,114.8356 353.5,126.4404 C353.5,132.2428 353.5,138.1452 353.5,143.9604 C353.5,145.4142 353.5,146.8626 353.5,148.3026 C353.5,148.4826 353.5,142.6624 353.5,142.8422 " fill="none" id="DASHBOARD_ABIERTO-to-verUsuarios" style="stroke:#A80036;stroke-width:1.0;"/><polygon fill="#A80036" points="353.5,148.8422,357.5,139.8422,353.5,143.8422,349.5,139.8422,353.5,148.8422" style="stroke:#A80036;stroke-width:1.0;"/></g><!--link *start*verUsuarios to seleccionarUsuario--><g id="link_*start*verUsuarios_seleccionarUsuario"><path d="M657.5,212.5499 C657.5,226.8909 657.5,248.9599 657.5,269.3989 " fill="none" id="*start*verUsuarios-to-seleccionarUsuario" style="stroke:#0000FF;stroke-width:1.0;"/><polygon fill="#0000FF" points="657.5,275.3989,661.5,266.3989,657.5,270.3989,653.5,266.3989,657.5,275.3989" style="stroke:#0000FF;stroke-width:1.0;"/></g><!--link seleccionarUsuario to visualizarPerfil--><g id="link_seleccionarUsuario_visualizarPerfil"><path d="M622.926,325.8999 C592.246,347.2889 552.583,374.9395 521.925,396.3125 " fill="none" id="seleccionarUsuario-to-visualizarPerfil" style="stroke:#0000FF;stroke-width:1.0;"/><polygon fill="#0000FF" points="517.003,399.7439,526.6735,397.8782,521.1047,396.8844,522.0984,391.3156,517.003,399.7439" style="stroke:#0000FF;stroke-width:1.0;"/></g><!--link visualizarPerfil to *end*verUsuarios--><g id="link_visualizarPerfil_*end*verUsuarios"><path d="M446.186,449.9459 C418.642,471.2569 388.769,502.9399 409.5,529.2969 C428.816,553.8548 523.3209,564.6138 557.2909,567.7781 " fill="none" id="visualizarPerfil-to-*end*verUsuarios" style="stroke:#0000FF;stroke-width:1.0;"/><polygon fill="#0000FF" points="563.265,568.3346,554.6748,563.5171,558.2866,567.8708,553.9328,571.4826,563.265,568.3346" style="stroke:#0000FF;stroke-width:1.0;"/><path d="M414.5,495.2969 L414.5,520.2969 L718.5,520.2969 L718.5,505.2969 L708.5,495.2969 L414.5,495.2969 " fill="#FBFB77" filter="url(#f50i1sxgd4mvd)" style="stroke:#A80036;stroke-width:1.0;"/><path d="M708.5,495.2969 L708.5,505.2969 L718.5,505.2969 L708.5,495.2969 " fill="#FBFB77" style="stroke:#A80036;stroke-width:1.0;"/><text fill="#000000" font-family="sans-serif" font-size="13" lengthAdjust="spacing" textLength="283" x="420.5" y="512.3638">Muestra datos personales y tipo de contrato</text></g><!--link seleccionarUsuario to *end*verUsuarios--><g id="link_seleccionarUsuario_*end*verUsuarios"><path d="M678.52,325.8849 C714.686,370.3479 780.307,466.4959 731.5,529.2969 C713.29,552.7276 624.4083,564.0729 591.6263,567.5607 " fill="none" id="seleccionarUsuario-to-*end*verUsuarios" style="stroke:#FF0000;stroke-width:1.0;"/><polygon fill="#FF0000" points="585.66,568.1955,595.0327,571.2209,590.6319,567.6665,594.1863,563.2658,585.66,568.1955" style="stroke:#FF0000;stroke-width:1.0;"/><path d="M752.5,410.2969 L752.5,435.2969 L988.5,435.2969 L988.5,420.2969 L978.5,410.2969 L752.5,410.2969 " fill="#FBFB77" filter="url(#f50i1sxgd4mvd)" style="stroke:#A80036;stroke-width:1.0;"/><path d="M978.5,410.2969 L978.5,420.2969 L988.5,420.2969 L978.5,410.2969 " fill="#FBFB77" style="stroke:#A80036;stroke-width:1.0;"/><text fill="#000000" font-family="sans-serif" font-size="13" lengthAdjust="spacing" textLength="215" x="758.5" y="427.3638">El usuario cancela la visualizaci&#243;n</text></g><!--SRC=[TLB1IiD04BtlLmnw4_i3FGYjBIXOAgrwAKMccoaCtUp6tKr1nNzI_0FxOquIayOsXHp2l7dptflPi64BtWLIaQCXkCRW825u3AuFTqHU_dBqx9GA4IF1Q32_6Ku7iz7pO7WxdZrCbJegGQzt1LloVzHGSribU5S0Yuibz1RdAvFJKXY136dDpcBT9ZqLyso-no2lGCZGOp7p332S81yLstfRbfhXD_JtvDTizcfF3G9P2SbAJArRodLm3qjjAKag7TR9S6V1iDtqOP9JY98WmIZx49qWFWq5U8N8MNa5xQnqn2BAoJIUabCAuyOpQBIQ389yZK_Dks-hFfGgMORM4TowAvdC2HmYfLZOJ3bINwe_dp1nHG9_5E4_sf56q6bMwbTNf8GZ-aiWmoaNDtQ0kozCkBcs8fkKyGxiTjwzPTZJIyxaQyV3F6Xi7ZLapilGTEMfWjlFhEuHvyNYP1us9du1]--></g></svg>