<?xml version="1.0" encoding="UTF-8" standalone="no"?><svg xmlns="http://www.w3.org/2000/svg" xmlns:xlink="http://www.w3.org/1999/xlink" contentStyleType="text/css" height="727px" preserveAspectRatio="none" style="width:493px;height:727px;background:#FFFFFF;" version="1.1" viewBox="0 0 493 727" width="493px" zoomAndPan="magnify"><defs/><g><rect fill="none" height="29.0679" id="_title" style="stroke:none;stroke-width:1.0;" width="128" x="172.5" y="5"/><text fill="#000000" font-family="sans-serif" font-size="14" font-weight="bold" lengthAdjust="spacing" textLength="118" x="177.5" y="24.9659">Eliminar Paquete</text><rect fill="#F1F1F1" height="40" rx="12.5" ry="12.5" style="stroke:#181818;stroke-width:0.5;" width="60" x="213.5" y="47.0679"/><text fill="#000000" font-family="sans-serif" font-size="14" lengthAdjust="spacing" textLength="50" x="218.5" y="72.4999">INITIAL</text><path d="M19.5,202.0679 L467.5,202.0679 A12.5,12.5 0 0 1 480,214.5679 L480,231.1358 L7,231.1358 L7,214.5679 A12.5,12.5 0 0 1 19.5,202.0679 " fill="#F1F1F1" style="stroke:#F1F1F1;stroke-width:1.0;"/><rect fill="none" height="519.0679" rx="12.5" ry="12.5" style="stroke:#181818;stroke-width:0.5;" width="473" x="7" y="202.0679"/><line style="stroke:#181818;stroke-width:0.5;" x1="7" x2="480" y1="231.1358" y2="231.1358"/><text fill="#000000" font-family="sans-serif" font-size="14" lengthAdjust="spacing" textLength="111" x="188" y="222.0339">EliminarPaquete</text><rect fill="#F1F1F1" height="40" rx="12.5" ry="12.5" style="stroke:#181818;stroke-width:0.5;" width="50" x="111" y="299.1358"/><text fill="#000000" font-family="sans-serif" font-size="14" lengthAdjust="spacing" textLength="4" x="134" y="324.5678"> </text><rect fill="#F1F1F1" height="40" rx="12.5" ry="12.5" style="stroke:#181818;stroke-width:0.5;" width="50" x="19" y="437.6358"/><text fill="#000000" font-family="sans-serif" font-size="14" lengthAdjust="spacing" textLength="4" x="42" y="463.0678"> </text><g id="elem_4"><polygon fill="#F1F1F1" points="124,576.1358,136,588.1358,124,600.1358,112,588.1358,124,576.1358" style="stroke:#181818;stroke-width:0.5;"/></g><ellipse cx="136" cy="252.1358" fill="#222222" rx="10" ry="10" style="stroke:none;stroke-width:1.0;"/><ellipse cx="124" cy="701.1358" fill="none" rx="10" ry="10" style="stroke:#222222;stroke-width:1.0;"/><ellipse cx="124.5" cy="701.6358" fill="#222222" rx="6" ry="6" style="stroke:none;stroke-width:1.0;"/><!--MD5=[db68392c9f6c0259349168dc54a1d243]
link *start*EliminarPaquete to 2--><g id="link_*start*EliminarPaquete_2"><path d="M136,262.4458 C136,270.2358 136,281.7358 136,292.2658 " fill="none" id="*start*EliminarPaquete-to-2" style="stroke:#008000;stroke-width:1.0;"/><polygon fill="#008000" points="136,297.1458,140,288.1458,136,292.1458,132,288.1458,136,297.1458" style="stroke:#008000;stroke-width:1.0;"/></g><!--MD5=[eeb69082328d10abd3b14fdeede0d8a3]
link 2 to 3--><g id="link_2_3"><path d="M110.68,334.5458 C92.43,344.9358 71,357.1358 71,357.1358 C71,357.1358 58.84,401.9358 50.84,431.4158 " fill="none" id="2-to-3" style="stroke:#008000;stroke-width:1.0;"/><polygon fill="#008000" points="49.6,435.9858,55.8233,428.3523,50.9132,431.1614,48.1041,426.2512,49.6,435.9858" style="stroke:#008000;stroke-width:1.0;"/><path d="M76,362.1358 L76,407.1358 L210,407.1358 L210,372.1358 L200,362.1358 L76,362.1358 " fill="#F5F5F5" style="stroke:#181818;stroke-width:0.5;"/><path d="M200,362.1358 L200,372.1358 L210,372.1358 L200,362.1358 " fill="#F5F5F5" style="stroke:#181818;stroke-width:0.5;"/><text fill="#000000" font-family="sans-serif" font-size="13" font-weight="bold" lengthAdjust="spacing" textLength="108" x="82" y="381.0328">Sistema Permite</text><ellipse cx="87.5" cy="395.0479" fill="#000000" rx="2.5" ry="2.5" style="stroke:#000000;stroke-width:0.0;"/><text fill="#000000" font-family="sans-serif" font-size="13" lengthAdjust="spacing" textLength="101" x="94" y="398.7389">Eliminar Paquete</text></g><!--MD5=[b1f22f0c97e7f2b556a5a2d67c42ac53]
link 3 to 4--><g id="link_3_4"><path d="M33.54,478.0258 C27.08,490.0158 20,503.1358 20,503.1358 C20,503.1358 20,558.1358 20,558.1358 C20,558.1358 80.49,575.0058 109.2,583.0058 " fill="none" id="3-to-4" style="stroke:#008000;stroke-width:1.0;"/><polygon fill="#008000" points="113.68,584.2558,106.0856,577.9848,108.8638,582.9125,103.9362,585.6907,113.68,584.2558" style="stroke:#008000;stroke-width:1.0;"/><path d="M25,508.1358 L25,553.1358 L210,553.1358 L210,518.1358 L200,508.1358 L25,508.1358 " fill="#F5F5F5" style="stroke:#181818;stroke-width:0.5;"/><path d="M200,508.1358 L200,518.1358 L210,518.1358 L200,508.1358 " fill="#F5F5F5" style="stroke:#181818;stroke-width:0.5;"/><text fill="#000000" font-family="sans-serif" font-size="13" font-weight="bold" lengthAdjust="spacing" textLength="164" x="31" y="527.0328">Amdinistrador Introduce</text><ellipse cx="36.5" cy="541.0479" fill="#000000" rx="2.5" ry="2.5" style="stroke:#000000;stroke-width:0.0;"/><text fill="#000000" font-family="sans-serif" font-size="13" lengthAdjust="spacing" textLength="124" x="43" y="544.7389">Nombre del Paquete</text></g><!--MD5=[51cfe3d02ac0e53afc5c10a14fdfe22d]
link 4 to *end*EliminarPaquete--><g id="link_4_*end*EliminarPaquete"><path d="M124,600.5958 C124,620.5758 124,661.8058 124,684.4258 " fill="none" id="4-to-*end*EliminarPaquete" style="stroke:#008000;stroke-width:1.0;"/><polygon fill="#008000" points="124,689.2958,128,680.2958,124,684.2958,120,680.2958,124,689.2958" style="stroke:#008000;stroke-width:1.0;"/><path d="M129,623.1358 L129,668.1358 L313,668.1358 L313,633.1358 L303,623.1358 L129,623.1358 " fill="#F5F5F5" style="stroke:#181818;stroke-width:0.5;"/><path d="M303,623.1358 L303,633.1358 L313,633.1358 L303,623.1358 " fill="#F5F5F5" style="stroke:#181818;stroke-width:0.5;"/><text fill="#000000" font-family="sans-serif" font-size="13" font-weight="bold" lengthAdjust="spacing" textLength="110" x="135" y="642.0328">Sistema Muestra</text><ellipse cx="140.5" cy="656.0479" fill="#000000" rx="2.5" ry="2.5" style="stroke:#000000;stroke-width:0.0;"/><text fill="#000000" font-family="sans-serif" font-size="13" lengthAdjust="spacing" textLength="151" x="147" y="659.7389">Mensaje de Confirmacion</text></g><!--MD5=[d5d43b3f3dfddbfb6ca65af0419a6a54]
link 4 to 2--><g id="link_4_2"><path d="M132.73,584.3558 C155.5,577.0958 215,558.1358 215,558.1358 C215,558.1358 215,357.1358 215,357.1358 C215,357.1358 189.32,345.1058 167.24,334.7658 " fill="none" id="4-to-2" style="stroke:#FF0000;stroke-width:1.0;"/><polygon fill="#FF0000" points="162.8,332.6858,169.2628,340.1177,167.3306,334.801,172.6472,332.8688,162.8,332.6858" style="stroke:#FF0000;stroke-width:1.0;"/><path d="M220,435.1358 L220,480.1358 L471,480.1358 L471,445.1358 L461,435.1358 L220,435.1358 " fill="#F5F5F5" style="stroke:#181818;stroke-width:0.5;"/><path d="M461,435.1358 L461,445.1358 L471,445.1358 L461,435.1358 " fill="#F5F5F5" style="stroke:#181818;stroke-width:0.5;"/><text fill="#000000" font-family="sans-serif" font-size="13" font-weight="bold" lengthAdjust="spacing" textLength="110" x="226" y="454.0328">Sistema Muestra</text><ellipse cx="231.5" cy="468.0479" fill="#000000" rx="2.5" ry="2.5" style="stroke:#000000;stroke-width:0.0;"/><text fill="#000000" font-family="sans-serif" font-size="13" lengthAdjust="spacing" textLength="218" x="238" y="471.7389">Mensaje de error al eliminar Paquete</text></g><!--MD5=[3ee6ddda22734d2f41850e342f3e1ce6]
link startState to EliminarPaquete--><g id="link_startState_EliminarPaquete"><path d="M243.5,87.5379 C243.5,110.0679 243.5,149.9679 243.5,195.5379 " fill="none" id="startState-to-EliminarPaquete" style="stroke:#008000;stroke-width:1.0;"/><polygon fill="#008000" points="243.5,200.4879,247.5,191.4879,243.5,195.4879,239.5,191.4879,243.5,200.4879" style="stroke:#008000;stroke-width:1.0;"/><path d="M248.5,122.0679 L248.5,167.0679 L452.5,167.0679 L452.5,132.0679 L442.5,122.0679 L248.5,122.0679 " fill="#F5F5F5" style="stroke:#181818;stroke-width:0.5;"/><path d="M442.5,122.0679 L442.5,132.0679 L452.5,132.0679 L442.5,122.0679 " fill="#F5F5F5" style="stroke:#181818;stroke-width:0.5;"/><text fill="#000000" font-family="sans-serif" font-size="13" font-weight="bold" lengthAdjust="spacing" textLength="146" x="254.5" y="140.9649">Administrador Solicita</text><ellipse cx="260" cy="154.9799" fill="#000000" rx="2.5" ry="2.5" style="stroke:#000000;stroke-width:0.0;"/><text fill="#000000" font-family="sans-serif" font-size="13" lengthAdjust="spacing" textLength="171" x="266.5" y="158.6709">Elminar Paquete de Servicios</text></g><!--MD5=[ed5a725da896d790aa1dd4e9dca2e925]
@startuml
title Eliminar Paquete

skinparam {
    NoteBackgroundColor #whiteSmoke
    ArrowColor #green
    NoteBorderColor #green
    linetype polyline
}

hide empty description

state startState as "INITIAL"

startState - -> EliminarPaquete
note on link
    <b>Administrador Solicita</b>
    * Elminar Paquete de Servicios
end note

state EliminarPaquete{
state 2 as " "
state 3 as " "
state 4 <<choice>>

[*] -down-> 2

2 -down-> 3
note on link
<b>Sistema Permite</b>
* Eliminar Paquete
end note

3 -down-> 4
note on link
<b>Amdinistrador Introduce</b>
* Nombre del Paquete
end note

4 -down-> [*]
note on link
<b>Sistema Muestra</b>
* Mensaje de Confirmacion
end note

4 -[#red]-> 2
note on link
<b>Sistema Muestra</b>
* Mensaje de error al eliminar Paquete
end note

}
@enduml

PlantUML version 1.2022.7(Mon Aug 22 19:01:30 CEST 2022)
(GPL source distribution)
Java Runtime: OpenJDK Runtime Environment
JVM: OpenJDK 64-Bit Server VM
Default Encoding: UTF-8
Language: es
Country: ES
--></g></svg>