<?xml version="1.0" encoding="us-ascii" standalone="no"?><svg xmlns="http://www.w3.org/2000/svg" xmlns:xlink="http://www.w3.org/1999/xlink" contentStyleType="text/css" height="698px" preserveAspectRatio="none" style="width:542px;height:698px;background:#FFFFFF;" version="1.1" viewBox="0 0 542 698" width="542px" zoomAndPan="magnify"><defs/><g><text fill="#000000" font-family="sans-serif" font-size="14" font-weight="bold" lengthAdjust="spacing" textLength="137" x="192.5" y="22.9951">Eliminar Paquete</text><rect fill="#F1F1F1" height="40" rx="12.5" ry="12.5" style="stroke:#181818;stroke-width:0.5;" width="59" x="238.5" y="44.2969"/><text fill="#000000" font-family="sans-serif" font-size="14" lengthAdjust="spacing" textLength="49" x="243.5" y="69.1436">INITIAL</text><path d="M19.5,194.2969 L516.5,194.2969 A12.5,12.5 0 0 1 529,206.7969 L529,220.5938 L7,220.5938 L7,206.7969 A12.5,12.5 0 0 1 19.5,194.2969 " fill="#F1F1F1" style="stroke:#F1F1F1;stroke-width:1.0;"/><rect fill="none" height="498.2969" rx="12.5" ry="12.5" style="stroke:#181818;stroke-width:0.5;" width="522" x="7" y="194.2969"/><line style="stroke:#181818;stroke-width:0.5;" x1="7" x2="529" y1="220.5938" y2="220.5938"/><text fill="#000000" font-family="sans-serif" font-size="14" lengthAdjust="spacing" textLength="117" x="209.5" y="212.292">EliminarPaquete</text><rect fill="#F1F1F1" height="40" rx="12.5" ry="12.5" style="stroke:#181818;stroke-width:0.5;" width="50" x="165" y="288.5938"/><text fill="#000000" font-family="sans-serif" font-size="14" lengthAdjust="spacing" textLength="4" x="188" y="313.4404">&#160;</text><rect fill="#F1F1F1" height="40" rx="12.5" ry="12.5" style="stroke:#181818;stroke-width:0.5;" width="50" x="19" y="419.5938"/><text fill="#000000" font-family="sans-serif" font-size="14" lengthAdjust="spacing" textLength="4" x="42" y="444.4404">&#160;</text><g id="elem_4"><polygon fill="#F1F1F1" points="145,550.5938,157,562.5938,145,574.5938,133,562.5938,145,550.5938" style="stroke:#181818;stroke-width:0.5;"/></g><ellipse cx="190" cy="241.5938" fill="#222222" rx="10" ry="10" style="stroke:#222222;stroke-width:1.0;"/><ellipse cx="145" cy="671.5938" fill="none" rx="11" ry="11" style="stroke:#222222;stroke-width:1.0;"/><ellipse cx="145" cy="671.5938" fill="#222222" rx="6" ry="6" style="stroke:#222222;stroke-width:1.0;"/><!--link *start*EliminarPaquete to 2--><g id="link_*start*EliminarPaquete_2"><path d="M190,251.6318 C190,261.1198 190,270.3208 190,282.4868 " fill="none" id="*start*EliminarPaquete-to-2" style="stroke:#008000;stroke-width:1.0;"/><polygon fill="#008000" points="190,288.4868,194,279.4868,190,283.4868,186,279.4868,190,288.4868" style="stroke:#008000;stroke-width:1.0;"/></g><!--link 2 to 3--><g id="link_2_3"><path d="M164.766,318.9308 C135.142,329.8918 90,346.5938 90,346.5938 C90,346.5938 69.6881,387.2172 56.2144,414.1652 " fill="none" id="2-to-3" style="stroke:#008000;stroke-width:1.0;"/><polygon fill="#008000" points="53.5312,419.5318,61.1338,413.2707,55.7672,415.0596,53.9783,409.693,53.5312,419.5318" style="stroke:#008000;stroke-width:1.0;"/><path d="M95,351.5938 L95,391.5938 L243,391.5938 L243,361.5938 L233,351.5938 L95,351.5938 " fill="#F5F5F5" style="stroke:#008000;stroke-width:0.5;"/><path d="M233,351.5938 L233,361.5938 L243,361.5938 L233,351.5938 " fill="#F5F5F5" style="stroke:#008000;stroke-width:0.5;"/><text fill="#000000" font-family="sans-serif" font-size="13" font-weight="bold" lengthAdjust="spacing" textLength="127" x="101" y="368.6606">Sistema Permite</text><ellipse cx="106.5" cy="379.3594" fill="#000000" rx="2.5" ry="2.5" style="stroke:#000000;stroke-width:0.0;"/><text fill="#000000" font-family="sans-serif" font-size="13" lengthAdjust="spacing" textLength="108" x="113" y="383.7935">Eliminar Paquete</text></g><!--link 3 to 4--><g id="link_3_4"><path d="M37.6554,459.6278 C33.9512,470.7397 30,482.5938 30,482.5938 C30,482.5938 30,532.5938 30,532.5938 C30,532.5938 103.0481,551.0147 130.1581,557.8507 " fill="none" id="3-to-4" style="stroke:#008000;stroke-width:1.0;"/><polygon fill="#008000" points="135.976,559.3177,128.2272,553.2386,131.1278,558.0952,126.2711,560.9958,135.976,559.3177" style="stroke:#008000;stroke-width:1.0;"/><path d="M35,487.5938 L35,527.5938 L243,527.5938 L243,497.5938 L233,487.5938 L35,487.5938 " fill="#F5F5F5" style="stroke:#008000;stroke-width:0.5;"/><path d="M233,487.5938 L233,497.5938 L243,497.5938 L233,487.5938 " fill="#F5F5F5" style="stroke:#008000;stroke-width:0.5;"/><text fill="#000000" font-family="sans-serif" font-size="13" font-weight="bold" lengthAdjust="spacing" textLength="187" x="41" y="504.6606">Amdinistrador Introduce</text><ellipse cx="46.5" cy="515.3594" fill="#000000" rx="2.5" ry="2.5" style="stroke:#000000;stroke-width:0.0;"/><text fill="#000000" font-family="sans-serif" font-size="13" lengthAdjust="spacing" textLength="151" x="53" y="519.7935">Verificacion de Solicitud</text></g><!--link 4 to *end*EliminarPaquete--><g id="link_4_*end*EliminarPaquete"><path d="M145,574.6418 C145,595.4658 145,634.2386 145,654.3932 " fill="none" id="4-to-*end*EliminarPaquete" style="stroke:#008000;stroke-width:1.0;"/><polygon fill="#008000" points="145,660.3932,149,651.3932,145,655.3932,141,651.3932,145,660.3932" style="stroke:#008000;stroke-width:1.0;"/><path d="M150,597.5938 L150,637.5938 L344,637.5938 L344,607.5938 L334,597.5938 L150,597.5938 " fill="#F5F5F5" style="stroke:#008000;stroke-width:0.5;"/><path d="M334,597.5938 L334,607.5938 L344,607.5938 L334,597.5938 " fill="#F5F5F5" style="stroke:#008000;stroke-width:0.5;"/><text fill="#000000" font-family="sans-serif" font-size="13" font-weight="bold" lengthAdjust="spacing" textLength="129" x="156" y="614.6606">Sistema Muestra</text><ellipse cx="161.5" cy="625.3594" fill="#000000" rx="2.5" ry="2.5" style="stroke:#000000;stroke-width:0.0;"/><text fill="#000000" font-family="sans-serif" font-size="13" lengthAdjust="spacing" textLength="161" x="168" y="629.7935">Mensaje de Confirmacion</text></g><!--link 4 to 2--><g id="link_4_2"><path d="M153.782,559.1208 C178.69,552.1078 248,532.5938 248,532.5938 C248,532.5938 248,346.5938 248,346.5938 C248,346.5938 235.9594,338.9127 220.3294,328.9417 " fill="none" id="4-to-2" style="stroke:#FF0000;stroke-width:1.0;"/><polygon fill="#FF0000" points="215.271,325.7148,220.7072,333.9274,219.4863,328.4039,225.0098,327.1829,215.271,325.7148" style="stroke:#FF0000;stroke-width:1.0;"/><path d="M253,419.5938 L253,459.5938 L520,459.5938 L520,429.5938 L510,419.5938 L253,419.5938 " fill="#F5F5F5" style="stroke:#008000;stroke-width:0.5;"/><path d="M510,419.5938 L510,429.5938 L520,429.5938 L510,419.5938 " fill="#F5F5F5" style="stroke:#008000;stroke-width:0.5;"/><text fill="#000000" font-family="sans-serif" font-size="13" font-weight="bold" lengthAdjust="spacing" textLength="129" x="259" y="436.6606">Sistema Muestra</text><ellipse cx="264.5" cy="447.3594" fill="#000000" rx="2.5" ry="2.5" style="stroke:#000000;stroke-width:0.0;"/><text fill="#000000" font-family="sans-serif" font-size="13" lengthAdjust="spacing" textLength="234" x="271" y="451.7935">Mensaje de error al eliminar Paquete</text></g><!--link startState to EliminarPaquete--><g id="link_startState_EliminarPaquete"><path d="M268,84.5109 C268,107.3179 268,142.1169 268,188.2149 " fill="none" id="startState-to-EliminarPaquete" style="stroke:#008000;stroke-width:1.0;"/><polygon fill="#008000" points="268,194.2149,272,185.2149,268,189.2149,264,185.2149,268,194.2149" style="stroke:#008000;stroke-width:1.0;"/><path d="M273,119.2969 L273,159.2969 L492,159.2969 L492,129.2969 L482,119.2969 L273,119.2969 " fill="#F5F5F5" style="stroke:#008000;stroke-width:0.5;"/><path d="M482,119.2969 L482,129.2969 L492,129.2969 L482,119.2969 " fill="#F5F5F5" style="stroke:#008000;stroke-width:0.5;"/><text fill="#000000" font-family="sans-serif" font-size="13" font-weight="bold" lengthAdjust="spacing" textLength="169" x="279" y="136.3638">Administrador Solicita</text><ellipse cx="284.5" cy="147.0625" fill="#000000" rx="2.5" ry="2.5" style="stroke:#000000;stroke-width:0.0;"/><text fill="#000000" font-family="sans-serif" font-size="13" lengthAdjust="spacing" textLength="186" x="291" y="151.4966">Elminar Paquete de Servicios</text></g><!--SRC=[bP91Ru9048Nl-oicUZCnJTGZ8Q5D3oJLcD3qOZoixAXRO9SEIuqn_lSEMr2fyL0EX666zxvvYzCkHtZDTQ6D95ZAhneT2b5bsfIIP04d0NmjhCDdcMOxihLHBpQt1CF3NZjC2fkXduc8xA5jxGZHNB-qf93kMhasw8ubGcdpOrE8in1xhH2mADqH55OfwT9fQvZ8IOV0TtA9VvGL3E95_1v7RmFVxXhZSNZPg5l8C0LOqrXctZlOX97Y4Lqvaegv4flhL3iPF6r2Fp5YaLugp0C9qZUFsKgWKT2eTcH_74_jwuddX45RJllb388WtLkTOXWAiHgjOQpimV024o4cbsBQvsVsXBcnaB14AlWGFFJe_XolaDEBsEnEB2hKJH2nSMHLdNQY7qXwgrF9MniVmMzGjRfHdrtKUOU7iFCQ6vDMTuwcafy-rHThjfeARz5NNGq9rThdyMzLvF-HGEQ0ZsCv_m00]--></g></svg>