<?xml version="1.0" encoding="UTF-8" standalone="no"?><svg xmlns="http://www.w3.org/2000/svg" xmlns:xlink="http://www.w3.org/1999/xlink" contentStyleType="text/css" height="647px" preserveAspectRatio="none" style="width:694px;height:647px;background:#FFFFFF;" version="1.1" viewBox="0 0 694 647" width="694px" zoomAndPan="magnify"><defs/><g><rect fill="#FFFFFF" height="26.0986" id="_title" style="stroke:none;stroke-width:1.0;" width="148" x="266.25" y="5"/><text fill="#000000" font-family="Arial" font-size="14" font-weight="bold" lengthAdjust="spacing" textLength="138" x="271.25" y="23.3608">Diagrama de Clases</text><!--MD5=[afbc64ec85fee769d333cf1533205623]
class PLATAFORMA--><g id="elem_PLATAFORMA"><rect codeLine="8" fill="#F1F1F1" height="64.0986" id="PLATAFORMA" rx="2.5" ry="2.5" style="stroke:#181818;stroke-width:0.5;" width="126" x="263" y="44.0986"/><ellipse cx="278" cy="60.0986" fill="#ADD1B2" rx="11" ry="11" style="stroke:#181818;stroke-width:1.0;"/><path d="M280.7656,55.9736 Q280.9219,55.7549 281.1094,55.6455 Q281.2969,55.5361 281.5156,55.5361 Q281.8906,55.5361 282.125,55.7939 Q282.3594,56.0518 282.3594,56.6611 L282.3594,58.1143 Q282.3594,58.7236 282.125,58.9893 Q281.8906,59.2549 281.5156,59.2549 Q281.1719,59.2549 280.9688,59.0518 Q280.7656,58.8643 280.6563,58.3486 Q280.6094,57.9893 280.4219,57.8018 Q280.0938,57.4268 279.4844,57.208 Q278.875,56.9893 278.25,56.9893 Q277.4844,56.9893 276.8516,57.3174 Q276.2188,57.6455 275.7266,58.3955 Q275.2344,59.1455 275.2344,60.1768 L275.2344,61.2705 Q275.2344,62.5049 276.125,63.3252 Q277.0156,64.1455 278.6094,64.1455 Q279.5469,64.1455 280.2031,63.8955 Q280.5938,63.7393 281.0156,63.3018 Q281.2813,63.0361 281.4297,62.958 Q281.5781,62.8799 281.7813,62.8799 Q282.1094,62.8799 282.3672,63.1377 Q282.625,63.3955 282.625,63.7393 Q282.625,64.083 282.2813,64.4893 Q281.7813,65.0674 280.9844,65.3955 Q279.9063,65.8486 278.6094,65.8486 Q277.0938,65.8486 275.8906,65.2236 Q274.9063,64.7236 274.2188,63.6533 Q273.5313,62.583 273.5313,61.3018 L273.5313,60.1455 Q273.5313,58.8174 274.1484,57.6689 Q274.7656,56.5205 275.8594,55.9033 Q276.9531,55.2861 278.1875,55.2861 Q278.9219,55.2861 279.5703,55.4502 Q280.2188,55.6143 280.7656,55.9736 Z " fill="#000000"/><text fill="#000000" font-family="Arial" font-size="14" lengthAdjust="spacing" textLength="94" x="292" y="65.4102">PLATAFORMA</text><line style="stroke:#181818;stroke-width:0.5;" x1="264" x2="388" y1="76.0986" y2="76.0986"/><text fill="#000000" font-family="Arial" font-size="14" lengthAdjust="spacing" textLength="42" x="269" y="93.4595">Alumni</text><line style="stroke:#181818;stroke-width:0.5;" x1="264" x2="388" y1="100.1973" y2="100.1973"/></g><!--MD5=[d487106a069dbf8887c3866d5775fb0b]
class SERVICIO EXTERNO--><g id="elem_SERVICIO EXTERNO"><rect codeLine="13" fill="#F1F1F1" height="48" id="SERVICIO EXTERNO" rx="2.5" ry="2.5" style="stroke:#181818;stroke-width:0.5;" width="169" x="518.5" y="52.0986"/><ellipse cx="533.5" cy="68.0986" fill="#A9DCDF" rx="11" ry="11" style="stroke:#181818;stroke-width:1.0;"/><path d="M535.6875,69.8643 L531.5469,69.8643 L531.125,70.8955 L531.5469,70.8955 Q532.1563,70.8955 532.4219,71.1299 Q532.6875,71.3643 532.6875,71.7549 Q532.6875,72.1299 532.4219,72.3643 Q532.1563,72.5986 531.5469,72.5986 L529.25,72.5986 Q528.6406,72.5986 528.3828,72.3643 Q528.125,72.1299 528.125,71.7393 Q528.125,71.3643 528.3984,71.1221 Q528.6719,70.8799 529.2969,70.8955 L531.9688,64.2393 L530.8594,64.2393 Q530.25,64.2393 529.9844,64.0049 Q529.7188,63.7705 529.7188,63.3799 Q529.7188,63.0049 529.9844,62.7705 Q530.25,62.5361 530.8594,62.5361 L534.5313,62.5361 L537.9219,70.8955 Q538.5156,70.8955 538.7031,71.0361 Q539.0938,71.3018 539.0938,71.7549 Q539.0938,72.1299 538.8359,72.3643 Q538.5781,72.5986 537.9688,72.5986 L535.6719,72.5986 Q535.0625,72.5986 534.7969,72.3643 Q534.5313,72.1299 534.5313,71.7393 Q534.5313,71.3643 534.7969,71.1299 Q535.0625,70.8955 535.6719,70.8955 L536.0938,70.8955 L535.6875,69.8643 Z M534.9688,68.1611 L533.6094,64.7861 L532.2344,68.1611 L534.9688,68.1611 Z " fill="#000000"/><text fill="#000000" font-family="Arial" font-size="14" font-style="italic" lengthAdjust="spacing" textLength="137" x="547.5" y="73.4102">SERVICIO EXTERNO</text><line style="stroke:#181818;stroke-width:0.5;" x1="519.5" x2="686.5" y1="84.0986" y2="84.0986"/><line style="stroke:#181818;stroke-width:0.5;" x1="519.5" x2="686.5" y1="92.0986" y2="92.0986"/></g><!--MD5=[9fb774ed7ae05b667c8401cd383f5fbb]
class USUARIO--><g id="elem_USUARIO"><rect codeLine="15" fill="#F1F1F1" height="128.4932" id="USUARIO" rx="2.5" ry="2.5" style="stroke:#181818;stroke-width:0.5;" width="145" x="73.5" y="184.0986"/><ellipse cx="111" cy="200.0986" fill="#A9DCDF" rx="11" ry="11" style="stroke:#181818;stroke-width:1.0;"/><path d="M113.1875,201.8643 L109.0469,201.8643 L108.625,202.8955 L109.0469,202.8955 Q109.6563,202.8955 109.9219,203.1299 Q110.1875,203.3643 110.1875,203.7549 Q110.1875,204.1299 109.9219,204.3643 Q109.6563,204.5986 109.0469,204.5986 L106.75,204.5986 Q106.1406,204.5986 105.8828,204.3643 Q105.625,204.1299 105.625,203.7393 Q105.625,203.3643 105.8984,203.1221 Q106.1719,202.8799 106.7969,202.8955 L109.4688,196.2393 L108.3594,196.2393 Q107.75,196.2393 107.4844,196.0049 Q107.2188,195.7705 107.2188,195.3799 Q107.2188,195.0049 107.4844,194.7705 Q107.75,194.5361 108.3594,194.5361 L112.0313,194.5361 L115.4219,202.8955 Q116.0156,202.8955 116.2031,203.0361 Q116.5938,203.3018 116.5938,203.7549 Q116.5938,204.1299 116.3359,204.3643 Q116.0781,204.5986 115.4688,204.5986 L113.1719,204.5986 Q112.5625,204.5986 112.2969,204.3643 Q112.0313,204.1299 112.0313,203.7393 Q112.0313,203.3643 112.2969,203.1299 Q112.5625,202.8955 113.1719,202.8955 L113.5938,202.8955 L113.1875,201.8643 Z M112.4688,200.1611 L111.1094,196.7861 L109.7344,200.1611 L112.4688,200.1611 Z " fill="#000000"/><text fill="#000000" font-family="Arial" font-size="14" font-style="italic" lengthAdjust="spacing" textLength="63" x="130" y="205.4102">USUARIO</text><line style="stroke:#181818;stroke-width:0.5;" x1="74.5" x2="217.5" y1="216.0986" y2="216.0986"/><text fill="#000000" font-family="Arial" font-size="14" lengthAdjust="spacing" textLength="13" x="79.5" y="233.4595">ID</text><text fill="#000000" font-family="Arial" font-size="14" lengthAdjust="spacing" textLength="49" x="79.5" y="249.5581">Nombre</text><text fill="#000000" font-family="Arial" font-size="14" lengthAdjust="spacing" textLength="50" x="79.5" y="265.6567">Apellido</text><text fill="#000000" font-family="Arial" font-size="14" lengthAdjust="spacing" textLength="133" x="79.5" y="281.7554">Fecha de Nacimiento</text><text fill="#000000" font-family="Arial" font-size="14" lengthAdjust="spacing" textLength="34" x="79.5" y="297.854">Email</text><line style="stroke:#181818;stroke-width:0.5;" x1="74.5" x2="217.5" y1="304.5918" y2="304.5918"/></g><!--MD5=[2ab7582ab6c49ef72aa094ce2439025d]
class EGRESADO--><g id="elem_EGRESADO"><rect codeLine="24" fill="#F1F1F1" height="96.2959" id="EGRESADO" rx="2.5" ry="2.5" style="stroke:#181818;stroke-width:0.5;" width="146" x="7" y="396.0986"/><ellipse cx="38.2" cy="412.0986" fill="#ADD1B2" rx="11" ry="11" style="stroke:#181818;stroke-width:1.0;"/><path d="M40.9656,407.9736 Q41.1219,407.7549 41.3094,407.6455 Q41.4969,407.5361 41.7156,407.5361 Q42.0906,407.5361 42.325,407.7939 Q42.5594,408.0518 42.5594,408.6611 L42.5594,410.1143 Q42.5594,410.7236 42.325,410.9893 Q42.0906,411.2549 41.7156,411.2549 Q41.3719,411.2549 41.1688,411.0518 Q40.9656,410.8643 40.8563,410.3486 Q40.8094,409.9893 40.6219,409.8018 Q40.2938,409.4268 39.6844,409.208 Q39.075,408.9893 38.45,408.9893 Q37.6844,408.9893 37.0516,409.3174 Q36.4188,409.6455 35.9266,410.3955 Q35.4344,411.1455 35.4344,412.1768 L35.4344,413.2705 Q35.4344,414.5049 36.325,415.3252 Q37.2156,416.1455 38.8094,416.1455 Q39.7469,416.1455 40.4031,415.8955 Q40.7938,415.7393 41.2156,415.3018 Q41.4813,415.0361 41.6297,414.958 Q41.7781,414.8799 41.9813,414.8799 Q42.3094,414.8799 42.5672,415.1377 Q42.825,415.3955 42.825,415.7393 Q42.825,416.083 42.4813,416.4893 Q41.9813,417.0674 41.1844,417.3955 Q40.1063,417.8486 38.8094,417.8486 Q37.2938,417.8486 36.0906,417.2236 Q35.1063,416.7236 34.4188,415.6533 Q33.7313,414.583 33.7313,413.3018 L33.7313,412.1455 Q33.7313,410.8174 34.3484,409.6689 Q34.9656,408.5205 36.0594,407.9033 Q37.1531,407.2861 38.3875,407.2861 Q39.1219,407.2861 39.7703,407.4502 Q40.4188,407.6143 40.9656,407.9736 Z " fill="#000000"/><text fill="#000000" font-family="Arial" font-size="14" lengthAdjust="spacing" textLength="78" x="55.8" y="417.4102">EGRESADO</text><line style="stroke:#181818;stroke-width:0.5;" x1="8" x2="152" y1="428.0986" y2="428.0986"/><text fill="#000000" font-family="Arial" font-size="14" lengthAdjust="spacing" textLength="61" x="13" y="445.4595">Ubicacion</text><text fill="#000000" font-family="Arial" font-size="14" lengthAdjust="spacing" textLength="68" x="13" y="461.5581">Ocupación</text><text fill="#000000" font-family="Arial" font-size="14" lengthAdjust="spacing" textLength="134" x="13" y="477.6567">Carnet de Estudiante</text><line style="stroke:#181818;stroke-width:0.5;" x1="8" x2="152" y1="484.3945" y2="484.3945"/></g><!--MD5=[4c1736d2acf393d1932c4bd71ed8c52b]
class ADMINISTRADOR--><g id="elem_ADMINISTRADOR"><rect codeLine="31" fill="#F1F1F1" height="64.0986" id="ADMINISTRADOR" rx="2.5" ry="2.5" style="stroke:#181818;stroke-width:0.5;" width="145" x="188.5" y="412.0986"/><ellipse cx="203.5" cy="428.0986" fill="#ADD1B2" rx="11" ry="11" style="stroke:#181818;stroke-width:1.0;"/><path d="M206.2656,423.9736 Q206.4219,423.7549 206.6094,423.6455 Q206.7969,423.5361 207.0156,423.5361 Q207.3906,423.5361 207.625,423.7939 Q207.8594,424.0518 207.8594,424.6611 L207.8594,426.1143 Q207.8594,426.7236 207.625,426.9893 Q207.3906,427.2549 207.0156,427.2549 Q206.6719,427.2549 206.4688,427.0518 Q206.2656,426.8643 206.1563,426.3486 Q206.1094,425.9893 205.9219,425.8018 Q205.5938,425.4268 204.9844,425.208 Q204.375,424.9893 203.75,424.9893 Q202.9844,424.9893 202.3516,425.3174 Q201.7188,425.6455 201.2266,426.3955 Q200.7344,427.1455 200.7344,428.1768 L200.7344,429.2705 Q200.7344,430.5049 201.625,431.3252 Q202.5156,432.1455 204.1094,432.1455 Q205.0469,432.1455 205.7031,431.8955 Q206.0938,431.7393 206.5156,431.3018 Q206.7813,431.0361 206.9297,430.958 Q207.0781,430.8799 207.2813,430.8799 Q207.6094,430.8799 207.8672,431.1377 Q208.125,431.3955 208.125,431.7393 Q208.125,432.083 207.7813,432.4893 Q207.2813,433.0674 206.4844,433.3955 Q205.4063,433.8486 204.1094,433.8486 Q202.5938,433.8486 201.3906,433.2236 Q200.4063,432.7236 199.7188,431.6533 Q199.0313,430.583 199.0313,429.3018 L199.0313,428.1455 Q199.0313,426.8174 199.6484,425.6689 Q200.2656,424.5205 201.3594,423.9033 Q202.4531,423.2861 203.6875,423.2861 Q204.4219,423.2861 205.0703,423.4502 Q205.7188,423.6143 206.2656,423.9736 Z " fill="#000000"/><text fill="#000000" font-family="Arial" font-size="14" lengthAdjust="spacing" textLength="113" x="217.5" y="433.4102">ADMINISTRADOR</text><line style="stroke:#181818;stroke-width:0.5;" x1="189.5" x2="332.5" y1="444.0986" y2="444.0986"/><text fill="#000000" font-family="Arial" font-size="14" lengthAdjust="spacing" textLength="100" x="194.5" y="461.4595">Zona de trabajo</text><line style="stroke:#181818;stroke-width:0.5;" x1="189.5" x2="332.5" y1="468.1973" y2="468.1973"/></g><!--MD5=[a63780b95c376d0ca261608ab8f4ee8f]
class REQUISITO--><g id="elem_REQUISITO"><rect codeLine="36" fill="#F1F1F1" height="64.0986" id="REQUISITO" rx="2.5" ry="2.5" style="stroke:#181818;stroke-width:0.5;" width="142" x="9" y="576.0986"/><ellipse cx="40.2" cy="592.0986" fill="#ADD1B2" rx="11" ry="11" style="stroke:#181818;stroke-width:1.0;"/><path d="M42.9656,587.9736 Q43.1219,587.7549 43.3094,587.6455 Q43.4969,587.5361 43.7156,587.5361 Q44.0906,587.5361 44.325,587.7939 Q44.5594,588.0518 44.5594,588.6611 L44.5594,590.1143 Q44.5594,590.7236 44.325,590.9893 Q44.0906,591.2549 43.7156,591.2549 Q43.3719,591.2549 43.1688,591.0518 Q42.9656,590.8643 42.8563,590.3486 Q42.8094,589.9893 42.6219,589.8018 Q42.2938,589.4268 41.6844,589.208 Q41.075,588.9893 40.45,588.9893 Q39.6844,588.9893 39.0516,589.3174 Q38.4188,589.6455 37.9266,590.3955 Q37.4344,591.1455 37.4344,592.1768 L37.4344,593.2705 Q37.4344,594.5049 38.325,595.3252 Q39.2156,596.1455 40.8094,596.1455 Q41.7469,596.1455 42.4031,595.8955 Q42.7938,595.7393 43.2156,595.3018 Q43.4813,595.0361 43.6297,594.958 Q43.7781,594.8799 43.9813,594.8799 Q44.3094,594.8799 44.5672,595.1377 Q44.825,595.3955 44.825,595.7393 Q44.825,596.083 44.4813,596.4893 Q43.9813,597.0674 43.1844,597.3955 Q42.1063,597.8486 40.8094,597.8486 Q39.2938,597.8486 38.0906,597.2236 Q37.1063,596.7236 36.4188,595.6533 Q35.7313,594.583 35.7313,593.3018 L35.7313,592.1455 Q35.7313,590.8174 36.3484,589.6689 Q36.9656,588.5205 38.0594,587.9033 Q39.1531,587.2861 40.3875,587.2861 Q41.1219,587.2861 41.7703,587.4502 Q42.4188,587.6143 42.9656,587.9736 Z " fill="#000000"/><text fill="#000000" font-family="Arial" font-size="14" lengthAdjust="spacing" textLength="74" x="57.8" y="597.4102">REQUISITO</text><line style="stroke:#181818;stroke-width:0.5;" x1="10" x2="150" y1="608.0986" y2="608.0986"/><text fill="#000000" font-family="Arial" font-size="14" lengthAdjust="spacing" textLength="130" x="15" y="625.4595">Titulación de UNEAT</text><line style="stroke:#181818;stroke-width:0.5;" x1="10" x2="150" y1="632.1973" y2="632.1973"/></g><!--MD5=[4fba4a15a69a30bd8d74d766c660e0fd]
class ESTADISTICA--><g id="elem_ESTADISTICA"><rect codeLine="41" fill="#F1F1F1" height="48" id="ESTADISTICA" rx="2.5" ry="2.5" style="stroke:#181818;stroke-width:0.5;" width="121" x="66.5" y="52.0986"/><ellipse cx="81.5" cy="68.0986" fill="#ADD1B2" rx="11" ry="11" style="stroke:#181818;stroke-width:1.0;"/><path d="M84.2656,63.9736 Q84.4219,63.7549 84.6094,63.6455 Q84.7969,63.5361 85.0156,63.5361 Q85.3906,63.5361 85.625,63.7939 Q85.8594,64.0518 85.8594,64.6611 L85.8594,66.1143 Q85.8594,66.7236 85.625,66.9893 Q85.3906,67.2549 85.0156,67.2549 Q84.6719,67.2549 84.4688,67.0518 Q84.2656,66.8643 84.1563,66.3486 Q84.1094,65.9893 83.9219,65.8018 Q83.5938,65.4268 82.9844,65.208 Q82.375,64.9893 81.75,64.9893 Q80.9844,64.9893 80.3516,65.3174 Q79.7188,65.6455 79.2266,66.3955 Q78.7344,67.1455 78.7344,68.1768 L78.7344,69.2705 Q78.7344,70.5049 79.625,71.3252 Q80.5156,72.1455 82.1094,72.1455 Q83.0469,72.1455 83.7031,71.8955 Q84.0938,71.7393 84.5156,71.3018 Q84.7813,71.0361 84.9297,70.958 Q85.0781,70.8799 85.2813,70.8799 Q85.6094,70.8799 85.8672,71.1377 Q86.125,71.3955 86.125,71.7393 Q86.125,72.083 85.7813,72.4893 Q85.2813,73.0674 84.4844,73.3955 Q83.4063,73.8486 82.1094,73.8486 Q80.5938,73.8486 79.3906,73.2236 Q78.4063,72.7236 77.7188,71.6533 Q77.0313,70.583 77.0313,69.3018 L77.0313,68.1455 Q77.0313,66.8174 77.6484,65.6689 Q78.2656,64.5205 79.3594,63.9033 Q80.4531,63.2861 81.6875,63.2861 Q82.4219,63.2861 83.0703,63.4502 Q83.7188,63.6143 84.2656,63.9736 Z " fill="#000000"/><text fill="#000000" font-family="Arial" font-size="14" lengthAdjust="spacing" textLength="89" x="95.5" y="73.4102">ESTADISTICA</text><line style="stroke:#181818;stroke-width:0.5;" x1="67.5" x2="186.5" y1="84.0986" y2="84.0986"/><line style="stroke:#181818;stroke-width:0.5;" x1="67.5" x2="186.5" y1="92.0986" y2="92.0986"/></g><!--MD5=[19899f9ca578ac9ce8c1dbc8b9bc3638]
class SUSCRIPCIÓN--><g id="elem_SUSCRIPCIÓN"><rect codeLine="45" fill="#F1F1F1" height="96.2959" id="SUSCRIPCIÓN" rx="2.5" ry="2.5" style="stroke:#181818;stroke-width:0.5;" width="134" x="386" y="200.0986"/><ellipse cx="405.5" cy="216.0986" fill="#ADD1B2" rx="11" ry="11" style="stroke:#181818;stroke-width:1.0;"/><path d="M408.2656,211.9736 Q408.4219,211.7549 408.6094,211.6455 Q408.7969,211.5361 409.0156,211.5361 Q409.3906,211.5361 409.625,211.7939 Q409.8594,212.0518 409.8594,212.6611 L409.8594,214.1143 Q409.8594,214.7236 409.625,214.9893 Q409.3906,215.2549 409.0156,215.2549 Q408.6719,215.2549 408.4688,215.0518 Q408.2656,214.8643 408.1563,214.3486 Q408.1094,213.9893 407.9219,213.8018 Q407.5938,213.4268 406.9844,213.208 Q406.375,212.9893 405.75,212.9893 Q404.9844,212.9893 404.3516,213.3174 Q403.7188,213.6455 403.2266,214.3955 Q402.7344,215.1455 402.7344,216.1768 L402.7344,217.2705 Q402.7344,218.5049 403.625,219.3252 Q404.5156,220.1455 406.1094,220.1455 Q407.0469,220.1455 407.7031,219.8955 Q408.0938,219.7393 408.5156,219.3018 Q408.7813,219.0361 408.9297,218.958 Q409.0781,218.8799 409.2813,218.8799 Q409.6094,218.8799 409.8672,219.1377 Q410.125,219.3955 410.125,219.7393 Q410.125,220.083 409.7813,220.4893 Q409.2813,221.0674 408.4844,221.3955 Q407.4063,221.8486 406.1094,221.8486 Q404.5938,221.8486 403.3906,221.2236 Q402.4063,220.7236 401.7188,219.6533 Q401.0313,218.583 401.0313,217.3018 L401.0313,216.1455 Q401.0313,214.8174 401.6484,213.6689 Q402.2656,212.5205 403.3594,211.9033 Q404.4531,211.2861 405.6875,211.2861 Q406.4219,211.2861 407.0703,211.4502 Q407.7188,211.6143 408.2656,211.9736 Z " fill="#000000"/><text fill="#000000" font-family="Arial" font-size="14" lengthAdjust="spacing" textLength="92" x="420.5" y="221.4102">SUSCRIPCIÓN</text><line style="stroke:#181818;stroke-width:0.5;" x1="387" x2="519" y1="232.0986" y2="232.0986"/><text fill="#000000" font-family="Arial" font-size="14" lengthAdjust="spacing" textLength="122" x="392" y="249.4595">Paquetes Suscritos</text><text fill="#000000" font-family="Arial" font-size="14" lengthAdjust="spacing" textLength="119" x="392" y="265.5581">Servicios Suscritos</text><text fill="#000000" font-family="Arial" font-size="14" lengthAdjust="spacing" textLength="76" x="392" y="281.6567">Precio Total</text><line style="stroke:#181818;stroke-width:0.5;" x1="387" x2="519" y1="288.3945" y2="288.3945"/></g><!--MD5=[400228ae5d671c1e1fdff589fc59b7ba]
class PAQUETE--><g id="elem_PAQUETE"><rect codeLine="52" fill="#F1F1F1" height="112.3945" id="PAQUETE" rx="2.5" ry="2.5" style="stroke:#181818;stroke-width:0.5;" width="128" x="369" y="388.0986"/><ellipse cx="397.95" cy="404.0986" fill="#ADD1B2" rx="11" ry="11" style="stroke:#181818;stroke-width:1.0;"/><path d="M400.7156,399.9736 Q400.8719,399.7549 401.0594,399.6455 Q401.2469,399.5361 401.4656,399.5361 Q401.8406,399.5361 402.075,399.7939 Q402.3094,400.0518 402.3094,400.6611 L402.3094,402.1143 Q402.3094,402.7236 402.075,402.9893 Q401.8406,403.2549 401.4656,403.2549 Q401.1219,403.2549 400.9188,403.0518 Q400.7156,402.8643 400.6063,402.3486 Q400.5594,401.9893 400.3719,401.8018 Q400.0438,401.4268 399.4344,401.208 Q398.825,400.9893 398.2,400.9893 Q397.4344,400.9893 396.8016,401.3174 Q396.1688,401.6455 395.6766,402.3955 Q395.1844,403.1455 395.1844,404.1768 L395.1844,405.2705 Q395.1844,406.5049 396.075,407.3252 Q396.9656,408.1455 398.5594,408.1455 Q399.4969,408.1455 400.1531,407.8955 Q400.5438,407.7393 400.9656,407.3018 Q401.2313,407.0361 401.3797,406.958 Q401.5281,406.8799 401.7313,406.8799 Q402.0594,406.8799 402.3172,407.1377 Q402.575,407.3955 402.575,407.7393 Q402.575,408.083 402.2313,408.4893 Q401.7313,409.0674 400.9344,409.3955 Q399.8563,409.8486 398.5594,409.8486 Q397.0438,409.8486 395.8406,409.2236 Q394.8563,408.7236 394.1688,407.6533 Q393.4813,406.583 393.4813,405.3018 L393.4813,404.1455 Q393.4813,402.8174 394.0984,401.6689 Q394.7156,400.5205 395.8094,399.9033 Q396.9031,399.2861 398.1375,399.2861 Q398.8719,399.2861 399.5203,399.4502 Q400.1688,399.6143 400.7156,399.9736 Z " fill="#000000"/><text fill="#000000" font-family="Arial" font-size="14" lengthAdjust="spacing" textLength="65" x="415.05" y="409.4102">PAQUETE</text><line style="stroke:#181818;stroke-width:0.5;" x1="370" x2="496" y1="420.0986" y2="420.0986"/><text fill="#000000" font-family="Arial" font-size="14" lengthAdjust="spacing" textLength="49" x="375" y="437.4595">Nombre</text><text fill="#000000" font-family="Arial" font-size="14" lengthAdjust="spacing" textLength="74" x="375" y="453.5581">Descripción</text><text fill="#000000" font-family="Arial" font-size="14" lengthAdjust="spacing" textLength="116" x="375" y="469.6567">Servicios incluidos</text><text fill="#000000" font-family="Arial" font-size="14" lengthAdjust="spacing" textLength="40" x="375" y="485.7554">Precio</text><line style="stroke:#181818;stroke-width:0.5;" x1="370" x2="496" y1="492.4932" y2="492.4932"/></g><!--MD5=[30a145389985b39b0bce1272ac991c13]
class SERVICIO--><g id="elem_SERVICIO"><rect codeLine="60" fill="#F1F1F1" height="112.3945" id="SERVICIO" rx="2.5" ry="2.5" style="stroke:#181818;stroke-width:0.5;" width="107" x="574.5" y="388.0986"/><ellipse cx="593.55" cy="404.0986" fill="#A9DCDF" rx="11" ry="11" style="stroke:#181818;stroke-width:1.0;"/><path d="M595.7375,405.8643 L591.5969,405.8643 L591.175,406.8955 L591.5969,406.8955 Q592.2063,406.8955 592.4719,407.1299 Q592.7375,407.3643 592.7375,407.7549 Q592.7375,408.1299 592.4719,408.3643 Q592.2063,408.5986 591.5969,408.5986 L589.3,408.5986 Q588.6906,408.5986 588.4328,408.3643 Q588.175,408.1299 588.175,407.7393 Q588.175,407.3643 588.4484,407.1221 Q588.7219,406.8799 589.3469,406.8955 L592.0188,400.2393 L590.9094,400.2393 Q590.3,400.2393 590.0344,400.0049 Q589.7688,399.7705 589.7688,399.3799 Q589.7688,399.0049 590.0344,398.7705 Q590.3,398.5361 590.9094,398.5361 L594.5813,398.5361 L597.9719,406.8955 Q598.5656,406.8955 598.7531,407.0361 Q599.1438,407.3018 599.1438,407.7549 Q599.1438,408.1299 598.8859,408.3643 Q598.6281,408.5986 598.0188,408.5986 L595.7219,408.5986 Q595.1125,408.5986 594.8469,408.3643 Q594.5813,408.1299 594.5813,407.7393 Q594.5813,407.3643 594.8469,407.1299 Q595.1125,406.8955 595.7219,406.8955 L596.1438,406.8955 L595.7375,405.8643 Z M595.0188,404.1611 L593.6594,400.7861 L592.2844,404.1611 L595.0188,404.1611 Z " fill="#000000"/><text fill="#000000" font-family="Arial" font-size="14" font-style="italic" lengthAdjust="spacing" textLength="66" x="608.45" y="409.4102">SERVICIO</text><line style="stroke:#181818;stroke-width:0.5;" x1="575.5" x2="680.5" y1="420.0986" y2="420.0986"/><text fill="#000000" font-family="Arial" font-size="14" lengthAdjust="spacing" textLength="49" x="580.5" y="437.4595">Nombre</text><text fill="#000000" font-family="Arial" font-size="14" lengthAdjust="spacing" textLength="74" x="580.5" y="453.5581">Descripción</text><text fill="#000000" font-family="Arial" font-size="14" lengthAdjust="spacing" textLength="39" x="580.5" y="469.6567">precio</text><text fill="#000000" font-family="Arial" font-size="14" lengthAdjust="spacing" textLength="95" x="580.5" y="485.7554">tipo de servicio</text><line style="stroke:#181818;stroke-width:0.5;" x1="575.5" x2="680.5" y1="492.4932" y2="492.4932"/></g><!--MD5=[aee84f5e9adb0dacda05fef5b14305a9]
link PLATAFORMA to USUARIO--><g id="link_PLATAFORMA_USUARIO"><path codeLine="68" d="M272.22,108.2286 C258.79,117.0986 244.85,127.3086 233,138.0986 C218.05,151.7186 203.6,168.0386 190.91,183.8686 " fill="none" id="PLATAFORMA-USUARIO" style="stroke:#181818;stroke-width:1.0;"/><text fill="#000000" font-family="Arial" font-size="13" lengthAdjust="spacing" textLength="28" x="234" y="151.5051">tiene</text></g><!--MD5=[4ce2dad9ce5e9d7d6fabe6fa93b0d06b]
link ESTADISTICA to PLATAFORMA--><g id="link_ESTADISTICA_PLATAFORMA"><path codeLine="69" d="M187.52,76.0986 C211.3,76.0986 238.62,76.0986 262.67,76.0986 " fill="none" id="ESTADISTICA-PLATAFORMA" style="stroke:#181818;stroke-width:1.0;"/><text fill="#000000" font-family="Arial" font-size="13" lengthAdjust="spacing" textLength="39" x="205.75" y="70.5051">genera</text></g><!--MD5=[0ac78335b74149db01d155f83d2f6f8a]
link PLATAFORMA to SERVICIO EXTERNO--><g id="link_PLATAFORMA_SERVICIO EXTERNO"><path codeLine="70" d="M389.2,76.0986 C427.44,76.0986 476.69,76.0986 518.28,76.0986 " fill="none" id="PLATAFORMA-SERVICIO EXTERNO" style="stroke:#181818;stroke-width:1.0;"/><text fill="#000000" font-family="Arial" font-size="13" lengthAdjust="spacing" textLength="74" x="416.75" y="70.5051">se comunica</text></g><!--MD5=[7073acf3b9b6d3a2af23efe4bf029300]
reverse link SERVICIO EXTERNO to SERVICIO--><g id="link_SERVICIO EXTERNO_SERVICIO"><path codeLine="71" d="M605.96,120.3786 C610.51,187.0686 619.24,314.8886 624.24,388.0586 " fill="none" id="SERVICIO EXTERNO-backto-SERVICIO" style="stroke:#181818;stroke-width:1.0;stroke-dasharray:7.0,7.0;"/><polygon fill="none" points="598.96,120.6986,604.58,100.2686,612.93,119.7486,598.96,120.6986" style="stroke:#181818;stroke-width:1.0;"/></g><!--MD5=[5bd0185b5c810bbfd8214df6d4a3435e]
link PLATAFORMA to SUSCRIPCIÓN--><g id="link_PLATAFORMA_SUSCRIPCIÓN"><path codeLine="72" d="M349.29,108.2786 C368.48,133.9686 396,170.7986 417.87,200.0686 " fill="none" id="PLATAFORMA-SUSCRIPCIÓN" style="stroke:#181818;stroke-width:1.0;"/><text fill="#000000" font-family="Arial" font-size="13" lengthAdjust="spacing" textLength="28" x="383" y="151.5051">tiene</text></g><!--MD5=[7a78beded7e279d7942fce86d4482847]
link SUSCRIPCIÓN to SERVICIO--><g id="link_SUSCRIPCIÓN_SERVICIO"><path codeLine="73" d="M495.81,296.5586 C520.7,324.1486 552.19,359.0586 578.19,387.8786 " fill="none" id="SUSCRIPCIÓN-SERVICIO" style="stroke:#181818;stroke-width:1.0;"/><text fill="#000000" font-family="Arial" font-size="13" lengthAdjust="spacing" textLength="41" x="551" y="355.5051">incluye</text></g><!--MD5=[dddc89fd371c160f93cf11b7ec7e78d6]
link EGRESADO to REQUISITO--><g id="link_EGRESADO_REQUISITO"><path codeLine="74" d="M80,492.3886 C80,519.2886 80,552.2186 80,575.8886 " fill="none" id="EGRESADO-REQUISITO" style="stroke:#181818;stroke-width:1.0;"/><text fill="#000000" font-family="Arial" font-size="13" lengthAdjust="spacing" textLength="42" x="81" y="543.5051">cumple</text></g><!--MD5=[0ae76caab6403afd96ace9cd4635e9a5]
link SUSCRIPCIÓN to PAQUETE--><g id="link_SUSCRIPCIÓN_PAQUETE"><path codeLine="75" d="M448.11,296.5586 C445.26,324.1486 441.66,359.0586 438.69,387.8786 " fill="none" id="SUSCRIPCIÓN-PAQUETE" style="stroke:#181818;stroke-width:1.0;"/><text fill="#000000" font-family="Arial" font-size="13" lengthAdjust="spacing" textLength="41" x="444" y="355.5051">incluye</text></g><!--MD5=[b7918388a681f58c4ca22ddee4ca86c3]
link PAQUETE to SERVICIO--><g id="link_PAQUETE_SERVICIO"><path codeLine="76" d="M497.12,444.0986 C522.1,444.0986 550.4,444.0986 574.28,444.0986 " fill="none" id="PAQUETE-SERVICIO" style="stroke:#181818;stroke-width:1.0;"/><text fill="#000000" font-family="Arial" font-size="13" lengthAdjust="spacing" textLength="41" x="515.25" y="438.5051">incluye</text></g><!--MD5=[db839ad93d3aba4fedf50576859f9ea2]
reverse link USUARIO to EGRESADO--><g id="link_USUARIO_EGRESADO"><path codeLine="77" d="M118.02,331.3486 C110.52,353.3986 102.66,376.4886 96.05,395.9186 " fill="none" id="USUARIO-backto-EGRESADO" style="stroke:#181818;stroke-width:1.0;"/><polygon fill="none" points="111.41,329.0286,124.48,312.3486,124.67,333.5386,111.41,329.0286" style="stroke:#181818;stroke-width:1.0;"/></g><!--MD5=[85e57e957508214e429ff6fec829f4bc]
reverse link USUARIO to ADMINISTRADOR--><g id="link_USUARIO_ADMINISTRADOR"><path codeLine="78" d="M193.72,329.6086 C210.94,358.6486 229.36,389.7286 242.57,412.0086 " fill="none" id="USUARIO-backto-ADMINISTRADOR" style="stroke:#181818;stroke-width:1.0;"/><polygon fill="none" points="187.67,333.1286,183.5,312.3486,199.72,325.9886,187.67,333.1286" style="stroke:#181818;stroke-width:1.0;"/></g><!--MD5=[a6613485fba98ffe85dc90fc5392f614]
link PLATAFORMA to ADMINISTRADOR--><g id="link_PLATAFORMA_ADMINISTRADOR"><path codeLine="79" d="M320.03,108.4486 C316,129.7686 310.59,158.6186 306,184.0986 C291.18,266.2886 274.55,363.3286 266.27,411.9786 " fill="none" id="PLATAFORMA-ADMINISTRADOR" style="stroke:#181818;stroke-width:1.0;"/><text fill="#000000" font-family="Arial" font-size="13" lengthAdjust="spacing" textLength="60" x="307" y="253.5051">administra</text></g><!--MD5=[62b72bdbab7cd343275d23e4948dd38a]
@startuml AumniClasses

title Diagrama de Clases

'!theme amiga
skinparam backgroundColor white
skinparam defaultFontName Arial

class PLATAFORMA 
{
   Alumni
}

abstract "SERVICIO EXTERNO"

abstract USUARIO 
{
    ID
    Nombre 
    Apellido
    Fecha de Nacimiento
    Email
}

class EGRESADO 
{
    Ubicacion
    Ocupación
    Carnet de Estudiante
}

class ADMINISTRADOR 
{
    Zona de trabajo
}

class REQUISITO 
{
    Titulación de UNEAT
}

class ESTADISTICA 
{
}

class SUSCRIPCIÓN 
{
    Paquetes Suscritos
    Servicios Suscritos
    Precio Total
}

class PAQUETE
{
    Nombre
    Descripción
    Servicios incluidos
    Precio
}

abstract SERVICIO 
{
    Nombre 
    Descripción
    precio
    tipo de servicio
}

PLATAFORMA - - USUARIO : tiene
PLATAFORMA -left ESTADISTICA : genera
PLATAFORMA -right- "SERVICIO EXTERNO" : se comunica
SERVICIO .up..|> "SERVICIO EXTERNO"
SUSCRIPCIÓN -up- PLATAFORMA : tiene
SUSCRIPCIÓN - - SERVICIO : incluye
EGRESADO - - REQUISITO : cumple
SUSCRIPCIÓN - - PAQUETE : incluye
PAQUETE - SERVICIO : incluye
USUARIO <|- - EGRESADO
USUARIO <|- - ADMINISTRADOR
ADMINISTRADOR -up- PLATAFORMA : administra

@enduml

@startuml AumniClasses

title Diagrama de Clases

skinparam backgroundColor white
skinparam defaultFontName Arial

class PLATAFORMA 
{
   Alumni
}

abstract "SERVICIO EXTERNO"

abstract USUARIO 
{
    ID
    Nombre 
    Apellido
    Fecha de Nacimiento
    Email
}

class EGRESADO 
{
    Ubicacion
    Ocupación
    Carnet de Estudiante
}

class ADMINISTRADOR 
{
    Zona de trabajo
}

class REQUISITO 
{
    Titulación de UNEAT
}

class ESTADISTICA 
{
}

class SUSCRIPCIÓN 
{
    Paquetes Suscritos
    Servicios Suscritos
    Precio Total
}

class PAQUETE
{
    Nombre
    Descripción
    Servicios incluidos
    Precio
}

abstract SERVICIO 
{
    Nombre 
    Descripción
    precio
    tipo de servicio
}

PLATAFORMA - - USUARIO : tiene
PLATAFORMA -left ESTADISTICA : genera
PLATAFORMA -right- "SERVICIO EXTERNO" : se comunica
SERVICIO .up..|> "SERVICIO EXTERNO"
SUSCRIPCIÓN -up- PLATAFORMA : tiene
SUSCRIPCIÓN - - SERVICIO : incluye
EGRESADO - - REQUISITO : cumple
SUSCRIPCIÓN - - PAQUETE : incluye
PAQUETE - SERVICIO : incluye
USUARIO <|- - EGRESADO
USUARIO <|- - ADMINISTRADOR
ADMINISTRADOR -up- PLATAFORMA : administra

@enduml

PlantUML version 1.2022.7(Mon Aug 22 19:01:30 CEST 2022)
(GPL source distribution)
Java Runtime: Java(TM) SE Runtime Environment
JVM: Java HotSpot(TM) Client VM
Default Encoding: Cp1252
Language: es
Country: ES
--></g></svg>