<?xml version="1.0" encoding="us-ascii" standalone="no"?><svg xmlns="http://www.w3.org/2000/svg" xmlns:xlink="http://www.w3.org/1999/xlink" contentStyleType="text/css" height="524px" preserveAspectRatio="none" style="width:304px;height:524px;background:#FFFFFF;" version="1.1" viewBox="0 0 304 524" width="304px" zoomAndPan="magnify"><defs/><g><ellipse cx="75" cy="16" fill="#222222" rx="10" ry="10" style="stroke:#222222;stroke-width:1.0;"/><g id="NoRegistrado"><rect fill="#F1F1F1" height="50" rx="12.5" ry="12.5" style="stroke:#181818;stroke-width:0.5;" width="117" x="16.5" y="87"/><line style="stroke:#181818;stroke-width:0.5;" x1="16.5" x2="133.5" y1="113.2969" y2="113.2969"/><text fill="#000000" font-family="sans-serif" font-size="14" lengthAdjust="spacing" textLength="97" x="26.5" y="104.9951">NoRegistrado</text></g><ellipse cx="17" cy="239" fill="none" rx="11" ry="11" style="stroke:#222222;stroke-width:1.0;"/><ellipse cx="17" cy="239" fill="#222222" rx="6" ry="6" style="stroke:#222222;stroke-width:1.0;"/><g id="Registrado"><rect fill="#F1F1F1" height="50" rx="12.5" ry="12.5" style="stroke:#181818;stroke-width:0.5;" width="98" x="102" y="214"/><line style="stroke:#181818;stroke-width:0.5;" x1="102" x2="200" y1="240.2969" y2="240.2969"/><text fill="#000000" font-family="sans-serif" font-size="14" lengthAdjust="spacing" textLength="78" x="112" y="231.9951">Registrado</text></g><g id="Inscrito"><rect fill="#F1F1F1" height="50" rx="12.5" ry="12.5" style="stroke:#181818;stroke-width:0.5;" width="74" x="114" y="341"/><line style="stroke:#181818;stroke-width:0.5;" x1="114" x2="188" y1="367.2969" y2="367.2969"/><text fill="#000000" font-family="sans-serif" font-size="14" lengthAdjust="spacing" textLength="54" x="124" y="358.9951">Inscrito</text></g><g id="Suscrito"><rect fill="#F1F1F1" height="50" rx="12.5" ry="12.5" style="stroke:#181818;stroke-width:0.5;" width="78" x="112" y="468"/><line style="stroke:#181818;stroke-width:0.5;" x1="112" x2="190" y1="494.2969" y2="494.2969"/><text fill="#000000" font-family="sans-serif" font-size="14" lengthAdjust="spacing" textLength="58" x="122" y="485.9951">Suscrito</text></g><!--link *start* to NoRegistrado--><g id="link_*start*_NoRegistrado"><path d="M75,26.013 C75,39.891 75,60.965 75,80.84 " fill="none" id="*start*-to-NoRegistrado" style="stroke:#181818;stroke-width:1.0;"/><polygon fill="#181818" points="75,86.84,79,77.84,75,81.84,71,77.84,75,86.84" style="stroke:#181818;stroke-width:1.0;"/></g><!--link NoRegistrado to *end*--><g id="link_NoRegistrado_*end*"><path d="M56.768,137.116 C50.526,146.152 43.8908,156.725 39,167 C29.1281,187.741 23.6861,208.1151 20.4711,222.1701 " fill="none" id="NoRegistrado-to-*end*" style="stroke:#181818;stroke-width:1.0;"/><polygon fill="#181818" points="19.1332,228.019,25.0394,220.1375,20.2481,223.1449,17.2408,218.3537,19.1332,228.019" style="stroke:#181818;stroke-width:1.0;"/></g><!--link NoRegistrado to Registrado--><g id="link_NoRegistrado_Registrado"><path d="M68.1572,137.029 C65.4189,151.45 64.4566,169.706 72,184 C78.746,196.783 85.0571,203.7582 97.0166,211.8272 " fill="none" id="NoRegistrado-to-Registrado" style="stroke:#181818;stroke-width:1.0;"/><polygon fill="#181818" points="101.9904,215.183,96.7669,206.8334,97.8456,212.3865,92.2925,213.4652,101.9904,215.183" style="stroke:#181818;stroke-width:1.0;"/><text fill="#000000" font-family="sans-serif" font-size="13" lengthAdjust="spacing" textLength="73" x="73" y="180.0669">Registrarse</text></g><!--link Registrado to NoRegistrado--><g id="link_Registrado_NoRegistrado"><path d="M156.342,213.68 C158.235,199.326 158.35,181.239 151,167 C144.764,154.918 139.3112,148.4509 128.2502,140.5109 " fill="none" id="Registrado-to-NoRegistrado" style="stroke:#181818;stroke-width:1.0;"/><polygon fill="#181818" points="123.376,137.012,128.3547,145.5098,127.4378,139.9277,133.0199,139.0109,123.376,137.012" style="stroke:#181818;stroke-width:1.0;"/><text fill="#000000" font-family="sans-serif" font-size="13" lengthAdjust="spacing" textLength="104" x="157" y="180.0669">Eliminar registro</text></g><!--link Registrado to Inscrito--><g id="link_Registrado_Inscrito"><path d="M113.486,264.07 C98.5609,276.885 86.5049,293.575 94,311 C98.9015,322.395 103.0954,328.4615 112.1694,336.7685 " fill="none" id="Registrado-to-Inscrito" style="stroke:#181818;stroke-width:1.0;"/><polygon fill="#181818" points="116.595,340.82,112.6577,331.7924,112.907,337.4438,107.2557,337.6932,116.595,340.82" style="stroke:#181818;stroke-width:1.0;"/><text fill="#000000" font-family="sans-serif" font-size="13" lengthAdjust="spacing" textLength="66" x="95" y="307.0669">Darse alta</text></g><!--link Inscrito to Registrado--><g id="link_Inscrito_Registrado"><path d="M159.219,340.831 C161.954,331.611 164.646,320.93 166,311 C168.144,295.271 166.3109,283.5599 162.1009,269.8979 " fill="none" id="Inscrito-to-Registrado" style="stroke:#181818;stroke-width:1.0;"/><polygon fill="#181818" points="160.334,264.164,159.1618,273.9428,161.8064,268.9423,166.807,271.5869,160.334,264.164" style="stroke:#181818;stroke-width:1.0;"/><text fill="#000000" font-family="sans-serif" font-size="13" lengthAdjust="spacing" textLength="69" x="167" y="307.0669">Darse baja</text></g><!--link Inscrito to Suscrito--><g id="link_Inscrito_Suscrito"><path d="M127.981,391.18 C121.149,399.898 114.547,410.253 111,421 C105.5462,437.5253 110.7649,449.9196 121.6109,463.1605 " fill="none" id="Inscrito-to-Suscrito" style="stroke:#181818;stroke-width:1.0;"/><polygon fill="#181818" points="125.413,467.8021,122.8043,458.305,122.2446,463.9341,116.6155,463.3744,125.413,467.8021" style="stroke:#181818;stroke-width:1.0;"/><text fill="#000000" font-family="sans-serif" font-size="13" lengthAdjust="spacing" textLength="32" x="112" y="434.0669">Pago</text></g><!--link Suscrito to Inscrito--><g id="link_Suscrito_Inscrito"><path d="M151,467.9727 C151,445.8615 151,419.236 151,397.101 " fill="none" id="Suscrito-to-Inscrito" style="stroke:#181818;stroke-width:1.0;"/><polygon fill="#181818" points="151,391.101,147,400.101,151,396.101,155,400.101,151,391.101" style="stroke:#181818;stroke-width:1.0;"/><text fill="#000000" font-family="sans-serif" font-size="13" lengthAdjust="spacing" textLength="144" x="152" y="434.0669">Darse baja suscripci&#243;n</text></g><!--SRC=[YzQALT3LjLFmomzAJSyiBYbAJCddGkQ09AErOj7541m5AmKOfwWubGj55R8ce3hNdCpSpBp48eKYY6W-gchFlEBaeimIa4eNa5aAYJabYLmmKNHB8KgI4hDGb0INmiq8I4pFvuBniHaFqgjG35PGa9nvU7CU0000]--></g></svg>