<?xml version="1.0" encoding="UTF-8" standalone="no"?><svg xmlns="http://www.w3.org/2000/svg" xmlns:xlink="http://www.w3.org/1999/xlink" contentStyleType="text/css" height="859px" preserveAspectRatio="none" style="width:684px;height:859px;background:#FFFFFF;" version="1.1" viewBox="0 0 684 859" width="684px" zoomAndPan="magnify"><defs/><g><rect fill="#F1F1F1" height="40" rx="12.5" ry="12.5" style="stroke:#181818;stroke-width:0.5;" width="156" x="261" y="7"/><text fill="#000000" font-family="sans-serif" font-size="14" lengthAdjust="spacing" textLength="146" x="266" y="32.432">EXPLORAR_SERVICIOS</text><rect fill="#F1F1F1" height="40" rx="12.5" ry="12.5" style="stroke:#181818;stroke-width:0.5;" width="156" x="261" y="813.07"/><text fill="#000000" font-family="sans-serif" font-size="14" lengthAdjust="spacing" textLength="146" x="266" y="838.502">EXPLORAR_SERVICIOS</text><path d="M19.5,162 L658.5,162 A12.5,12.5 0 0 1 671,174.5 L671,191.0679 L7,191.0679 L7,174.5 A12.5,12.5 0 0 1 19.5,162 " fill="#F1F1F1" style="stroke:#F1F1F1;stroke-width:1.0;"/><rect fill="none" height="590.0679" rx="12.5" ry="12.5" style="stroke:#181818;stroke-width:0.5;" width="664" x="7" y="162"/><line style="stroke:#181818;stroke-width:0.5;" x1="7" x2="671" y1="191.0679" y2="191.0679"/><text fill="#000000" font-family="sans-serif" font-size="14" lengthAdjust="spacing" textLength="115" x="281.5" y="181.9659">CrearSuscripción</text><rect fill="#F1F1F1" height="40" rx="12.5" ry="12.5" style="stroke:#181818;stroke-width:0.5;" width="50" x="188" y="259.0679"/><text fill="#000000" font-family="sans-serif" font-size="14" lengthAdjust="spacing" textLength="4" x="211" y="284.4999"> </text><rect fill="#F1F1F1" height="40" rx="12.5" ry="12.5" style="stroke:#181818;stroke-width:0.5;" width="50" x="19" y="450.5679"/><text fill="#000000" font-family="sans-serif" font-size="14" lengthAdjust="spacing" textLength="4" x="42" y="475.9999"> </text><g id="elem_4"><polygon fill="#F1F1F1" points="213,607.0679,225,619.0679,213,631.0679,201,619.0679,213,607.0679" style="stroke:#181818;stroke-width:0.5;"/></g><ellipse cx="213" cy="212.0679" fill="#222222" rx="10" ry="10" style="stroke:none;stroke-width:1.0;"/><ellipse cx="213" cy="732.0679" fill="none" rx="10" ry="10" style="stroke:#222222;stroke-width:1.0;"/><ellipse cx="213.5" cy="732.5679" fill="#222222" rx="6" ry="6" style="stroke:none;stroke-width:1.0;"/><!--MD5=[e093919f104c00d299113b7539391ae7]
link *start*CrearSuscripción to 2--><g id="link_*start*CrearSuscripción_2"><path d="M213,222.3779 C213,230.1679 213,241.6679 213,252.1979 " fill="none" id="*start*CrearSuscripción-to-2" style="stroke:#008000;stroke-width:1.0;"/><polygon fill="#008000" points="213,257.0779,217,248.0779,213,252.0779,209,248.0779,213,257.0779" style="stroke:#008000;stroke-width:1.0;"/></g><!--MD5=[eeb69082328d10abd3b14fdeede0d8a3]
link 2 to 3--><g id="link_2_3"><path d="M187.85,285.6079 C140.98,295.9279 45,317.0679 45,317.0679 C45,317.0679 44.45,400.4379 44.17,443.8979 " fill="none" id="2-to-3" style="stroke:#008000;stroke-width:1.0;"/><polygon fill="#008000" points="44.14,448.7379,48.1914,439.7609,44.1686,443.738,40.1915,439.7152,44.14,448.7379" style="stroke:#008000;stroke-width:1.0;"/><path d="M50,322.0679 L50,420.0679 L364,420.0679 L364,332.0679 L354,322.0679 L50,322.0679 " fill="#F5F5F5" style="stroke:#181818;stroke-width:0.5;"/><path d="M354,322.0679 L354,332.0679 L364,332.0679 L354,322.0679 " fill="#F5F5F5" style="stroke:#181818;stroke-width:0.5;"/><text fill="#000000" font-family="sans-serif" font-size="13" font-weight="bold" lengthAdjust="spacing" textLength="103" x="56" y="340.9649">Sistema Solicita</text><ellipse cx="61.5" cy="354.9799" fill="#000000" rx="2.5" ry="2.5" style="stroke:#000000;stroke-width:0.0;"/><text fill="#000000" font-family="sans-serif" font-size="13" lengthAdjust="spacing" textLength="281" x="68" y="358.6709">Identificador del servicio o paquete de servicios</text><ellipse cx="61.5" cy="372.686" fill="#000000" rx="2.5" ry="2.5" style="stroke:#000000;stroke-width:0.0;"/><text fill="#000000" font-family="sans-serif" font-size="13" lengthAdjust="spacing" textLength="87" x="68" y="376.377">Datos de pago</text><text fill="#000000" font-family="sans-serif" font-size="13" font-weight="bold" lengthAdjust="spacing" textLength="108" x="56" y="394.083">Sistema Permite</text><ellipse cx="61.5" cy="408.098" fill="#000000" rx="2.5" ry="2.5" style="stroke:#000000;stroke-width:0.0;"/><text fill="#000000" font-family="sans-serif" font-size="13" lengthAdjust="spacing" textLength="261" x="68" y="411.789">Suscribirse al servicio o paquete de servicios</text></g><!--MD5=[b1f22f0c97e7f2b556a5a2d67c42ac53]
link 3 to 4--><g id="link_3_4"><path d="M44.17,490.9679 C44.45,524.3479 45,589.0679 45,589.0679 C45,589.0679 155.32,608.1079 197.17,615.3379 " fill="none" id="3-to-4" style="stroke:#008000;stroke-width:1.0;"/><polygon fill="#008000" points="201.99,616.1679,193.8112,610.681,197.0644,615.3088,192.4366,618.562,201.99,616.1679" style="stroke:#008000;stroke-width:1.0;"/><path d="M50,521.0679 L50,584.0679 L364,584.0679 L364,531.0679 L354,521.0679 L50,521.0679 " fill="#F5F5F5" style="stroke:#181818;stroke-width:0.5;"/><path d="M354,521.0679 L354,531.0679 L364,531.0679 L354,521.0679 " fill="#F5F5F5" style="stroke:#181818;stroke-width:0.5;"/><text fill="#000000" font-family="sans-serif" font-size="13" font-weight="bold" lengthAdjust="spacing" textLength="119" x="56" y="539.9649">Usuario introduce</text><ellipse cx="61.5" cy="553.9799" fill="#000000" rx="2.5" ry="2.5" style="stroke:#000000;stroke-width:0.0;"/><text fill="#000000" font-family="sans-serif" font-size="13" lengthAdjust="spacing" textLength="281" x="68" y="557.6709">Identificador del servicio o paquete de servicios</text><ellipse cx="61.5" cy="571.686" fill="#000000" rx="2.5" ry="2.5" style="stroke:#000000;stroke-width:0.0;"/><text fill="#000000" font-family="sans-serif" font-size="13" lengthAdjust="spacing" textLength="87" x="68" y="575.377">Datos de pago</text></g><!--MD5=[81cd8b53c8582f6983a5b2d9dfeca6a3]
link 4 to *end*CrearSuscripción--><g id="link_4_*end*CrearSuscripción"><path d="M213,631.5279 C213,651.5079 213,692.7379 213,715.3579 " fill="none" id="4-to-*end*CrearSuscripción" style="stroke:#008000;stroke-width:1.0;"/><polygon fill="#008000" points="213,720.2279,217,711.2279,213,715.2279,209,711.2279,213,720.2279" style="stroke:#008000;stroke-width:1.0;"/><path d="M218,654.0679 L218,699.0679 L433,699.0679 L433,664.0679 L423,654.0679 L218,654.0679 " fill="#F5F5F5" style="stroke:#181818;stroke-width:0.5;"/><path d="M423,654.0679 L423,664.0679 L433,664.0679 L423,654.0679 " fill="#F5F5F5" style="stroke:#181818;stroke-width:0.5;"/><text fill="#000000" font-family="sans-serif" font-size="13" font-weight="bold" lengthAdjust="spacing" textLength="110" x="224" y="672.9649">Sistema Muestra</text><ellipse cx="229.5" cy="686.9799" fill="#000000" rx="2.5" ry="2.5" style="stroke:#000000;stroke-width:0.0;"/><text fill="#000000" font-family="sans-serif" font-size="13" lengthAdjust="spacing" textLength="182" x="236" y="690.6709">Suscripción realizada con éxito</text></g><!--MD5=[d5d43b3f3dfddbfb6ca65af0419a6a54]
link 4 to 2--><g id="link_4_2"><path d="M222.76,616.2579 C256.91,609.9079 369,589.0679 369,589.0679 C369,589.0679 369,317.0679 369,317.0679 C369,317.0679 290.2,298.3779 244.61,287.5679 " fill="none" id="4-to-2" style="stroke:#FF0000;stroke-width:1.0;"/><polygon fill="#FF0000" points="239.88,286.4479,247.7246,292.4029,244.7471,287.5931,249.5569,284.6156,239.88,286.4479" style="stroke:#FF0000;stroke-width:1.0;"/><path d="M374,448.0679 L374,493.0679 L662,493.0679 L662,458.0679 L652,448.0679 L374,448.0679 " fill="#F5F5F5" style="stroke:#181818;stroke-width:0.5;"/><path d="M652,448.0679 L652,458.0679 L662,458.0679 L652,448.0679 " fill="#F5F5F5" style="stroke:#181818;stroke-width:0.5;"/><text fill="#000000" font-family="sans-serif" font-size="13" font-weight="bold" lengthAdjust="spacing" textLength="110" x="380" y="466.9649">Sistema Muestra</text><ellipse cx="385.5" cy="480.9799" fill="#000000" rx="2.5" ry="2.5" style="stroke:#000000;stroke-width:0.0;"/><text fill="#000000" font-family="sans-serif" font-size="13" lengthAdjust="spacing" textLength="255" x="392" y="484.6709">Mensaje de error en los datos introducidos</text></g><!--MD5=[9645e43d8a1ed92959e870db73ced8b0]
link startState to CrearSuscripción--><g id="link_startState_CrearSuscripción"><path d="M339,47.23 C339,69.53 339,109.2 339,155.33 " fill="none" id="startState-to-CrearSuscripción" style="stroke:#008000;stroke-width:1.0;"/><polygon fill="#008000" points="339,160.07,343,151.07,339,155.07,335,151.07,339,160.07" style="stroke:#008000;stroke-width:1.0;"/><path d="M344,82 L344,127 L642,127 L642,92 L632,82 L344,82 " fill="#F5F5F5" style="stroke:#181818;stroke-width:0.5;"/><path d="M632,82 L632,92 L642,92 L632,82 " fill="#F5F5F5" style="stroke:#181818;stroke-width:0.5;"/><text fill="#000000" font-family="sans-serif" font-size="13" font-weight="bold" lengthAdjust="spacing" textLength="102" x="350" y="100.897">Usuario Solicita</text><text fill="#000000" font-family="sans-serif" font-size="13" lengthAdjust="spacing" textLength="277" x="350" y="118.603">Suscribirse a un servicio o paquete de servicios</text></g><!--MD5=[a2b4140899e906ffb448687e049983c7]
link CrearSuscripción to endState--><g id="link_CrearSuscripción_endState"><path d="M339,752.29 C339,773.88 339,792.58 339,806.45 " fill="none" id="CrearSuscripción-to-endState" style="stroke:#008000;stroke-width:1.0;"/><polygon fill="#008000" points="339,811.34,343,802.34,339,806.34,335,802.34,339,811.34" style="stroke:#008000;stroke-width:1.0;"/></g><!--MD5=[f354f1ff853a7f585dff7a84d91c046d]
@startuml
skinparam {
    NoteBackgroundColor #whiteSmoke
    ArrowColor #green
    NoteBorderColor #green
    linetype polyline
}

hide empty description

state startState as "EXPLORAR_SERVICIOS"
state endState as "EXPLORAR_SERVICIOS"

startState - -> CrearSuscripción
note on link
    <b>Usuario Solicita</b>
    Suscribirse a un servicio o paquete de servicios
end note

CrearSuscripción - -> endState

state CrearSuscripción {
state 2 as " "
state 3 as " "
state 4 <<choice>>

[*] -down-> 2

2 -down-> 3
note on link
<b>Sistema Solicita</b>
* Identificador del servicio o paquete de servicios
* Datos de pago
<b>Sistema Permite</b>
* Suscribirse al servicio o paquete de servicios
end note

3 -down-> 4
note on link
<b>Usuario introduce</b>
* Identificador del servicio o paquete de servicios
* Datos de pago
end note

4 -down-> [*]
note on link
<b>Sistema Muestra</b>
* Suscripción realizada con éxito
end note

4 -[#red]-> 2
note on link
<b>Sistema Muestra</b>
* Mensaje de error en los datos introducidos
end note

}

@enduml

PlantUML version 1.2022.7(Mon Aug 22 19:01:30 CEST 2022)
(GPL source distribution)
Java Runtime: OpenJDK Runtime Environment
JVM: OpenJDK 64-Bit Server VM
Default Encoding: UTF-8
Language: es
Country: ES
--></g></svg>