<?xml version="1.0" encoding="UTF-8" standalone="no"?><svg xmlns="http://www.w3.org/2000/svg" xmlns:xlink="http://www.w3.org/1999/xlink" contentStyleType="text/css" height="391px" preserveAspectRatio="none" style="width:1120px;height:391px;background:#FFFFFF;" version="1.1" viewBox="0 0 1120 391" width="1120px" zoomAndPan="magnify"><defs/><g><rect fill="none" height="29.0679" id="_title" style="stroke:none;stroke-width:1.0;" width="179" x="463.5" y="5"/><text fill="#000000" font-family="sans-serif" font-size="14" font-weight="bold" lengthAdjust="spacing" textLength="169" x="468.5" y="24.9659">Contexto Administrador</text><ellipse cx="67" cy="56.0679" fill="#222222" rx="10" ry="10" style="stroke:none;stroke-width:1.0;"/><rect fill="#F1F1F1" height="40" rx="12.5" ry="12.5" style="stroke:#181818;stroke-width:0.5;" width="120" x="7" y="127.0679"/><text fill="#000000" font-family="sans-serif" font-size="14" lengthAdjust="spacing" textLength="110" x="12" y="152.4999">INICIAR_SESIÓN</text><rect fill="#F1F1F1" height="40" rx="12.5" ry="12.5" style="stroke:#181818;stroke-width:0.5;" width="56" x="39" y="246.0679"/><text fill="#000000" font-family="sans-serif" font-size="14" lengthAdjust="spacing" textLength="46" x="44" y="271.4999">INICIO</text><rect fill="#F1F1F1" height="40" rx="12.5" ry="12.5" style="stroke:#181818;stroke-width:0.5;" width="147" x="130.5" y="246.0679"/><text fill="#000000" font-family="sans-serif" font-size="14" lengthAdjust="spacing" textLength="137" x="135.5" y="271.4999">GESTIÓN_PAQUETES</text><rect fill="#F1F1F1" height="40" rx="12.5" ry="12.5" style="stroke:#181818;stroke-width:0.5;" width="122" x="992" y="246.0679"/><text fill="#000000" font-family="sans-serif" font-size="14" lengthAdjust="spacing" textLength="112" x="997" y="271.4999">CREAR_PAQUETE</text><rect fill="#F1F1F1" height="40" rx="12.5" ry="12.5" style="stroke:#181818;stroke-width:0.5;" width="127" x="830.5" y="246.0679"/><text fill="#000000" font-family="sans-serif" font-size="14" lengthAdjust="spacing" textLength="117" x="835.5" y="271.4999">EDITAR_PAQUETE</text><rect fill="#F1F1F1" height="40" rx="12.5" ry="12.5" style="stroke:#181818;stroke-width:0.5;" width="145" x="650.5" y="246.0679"/><text fill="#000000" font-family="sans-serif" font-size="14" lengthAdjust="spacing" textLength="135" x="655.5" y="271.4999">ELIMINAR_PAQUETE</text><rect fill="#F1F1F1" height="40" rx="12.5" ry="12.5" style="stroke:#181818;stroke-width:0.5;" width="124" x="492" y="246.0679"/><text fill="#000000" font-family="sans-serif" font-size="14" lengthAdjust="spacing" textLength="114" x="497" y="271.4999">LISTAR_PAQUETE</text><rect fill="#F1F1F1" height="40" rx="12.5" ry="12.5" style="stroke:#181818;stroke-width:0.5;" width="145" x="312.5" y="246.0679"/><text fill="#000000" font-family="sans-serif" font-size="14" lengthAdjust="spacing" textLength="135" x="317.5" y="271.4999">REALIZAR_PETICIÓN</text><ellipse cx="135" cy="375.0679" fill="none" rx="10" ry="10" style="stroke:#222222;stroke-width:1.0;"/><ellipse cx="135.5" cy="375.5679" fill="#222222" rx="6" ry="6" style="stroke:none;stroke-width:1.0;"/><!--MD5=[fffa5c9a6c2a3d9bbcf62492fefaaec1]
link *start to INICIAR_SESIÓN--><g id="link_*start_INICIAR_SESIÓN"><path d="M67,66.2579 C67,78.9179 67,102.2079 67,120.3779 " fill="none" id="*start-to-INICIAR_SESIÓN" style="stroke:#181818;stroke-width:1.0;"/><polygon fill="#181818" points="67,125.2979,71,116.2979,67,120.2979,63,116.2979,67,125.2979" style="stroke:#181818;stroke-width:1.0;"/></g><!--MD5=[66837f7cee128dc6ca7363ed13e0752f]
link INICIAR_SESIÓN to INICIO--><g id="link_INICIAR_SESIÓN_INICIO"><path d="M67,167.3879 C67,187.0379 67,217.5879 67,239.2879 " fill="none" id="INICIAR_SESIÓN-to-INICIO" style="stroke:#181818;stroke-width:1.0;"/><polygon fill="#181818" points="67,244.2079,71,235.2079,67,239.2079,63,235.2079,67,244.2079" style="stroke:#181818;stroke-width:1.0;"/><text fill="#000000" font-family="sans-serif" font-size="13" lengthAdjust="spacing" textLength="78" x="68" y="211.9649">Iniciar Sesión</text></g><!--MD5=[544181461a6ae2dedaf9572119c7d9e6]
link INICIO to GESTIÓN_PAQUETES--><g id="link_INICIO_GESTIÓN_PAQUETES"><path d="M95.4,278.5079 C104.69,282.5779 112.67,286.0679 112.67,286.0679 C112.67,286.0679 117.43,286.0679 123.88,286.0679 " fill="none" id="INICIO-to-GESTIÓN_PAQUETES" style="stroke:#181818;stroke-width:1.0;"/><polygon fill="#181818" points="128.68,286.0679,119.68,282.0679,123.68,286.0679,119.68,290.0679,128.68,286.0679" style="stroke:#181818;stroke-width:1.0;"/></g><!--MD5=[3f0810a6510995f05b80500b04f71fb2]
reverse link INICIO to GESTIÓN_PAQUETES--><g id="link_INICIO_GESTIÓN_PAQUETES"><path d="M101.24,251.0679 C107.8,248.1979 112.67,246.0679 112.67,246.0679 C112.67,246.0679 120.79,246.0679 130.19,246.0679 " fill="none" id="INICIO-backto-GESTIÓN_PAQUETES" style="stroke:#181818;stroke-width:1.0;"/><polygon fill="#181818" points="96.79,253.0179,106.6386,253.0864,101.3731,251.0191,103.4405,245.7535,96.79,253.0179" style="stroke:#181818;stroke-width:1.0;"/></g><!--MD5=[a983a3c5125ce085c4368c4c4475c0ac]
link GESTIÓN_PAQUETES to CREAR_PAQUETE--><g id="link_GESTIÓN_PAQUETES_CREAR_PAQUETE"><path d="M249.33,245.6079 C276.83,233.1979 306.67,219.7379 306.67,219.7379 C306.67,219.7379 963.33,219.7379 963.33,219.7379 C963.33,219.7379 985.48,231.1779 1007.76,242.6879 " fill="none" id="GESTIÓN_PAQUETES-to-CREAR_PAQUETE" style="stroke:#181818;stroke-width:1.0;"/><polygon fill="#181818" points="1012.07,244.9179,1005.9164,237.2281,1007.6297,242.6192,1002.2386,244.3325,1012.07,244.9179" style="stroke:#181818;stroke-width:1.0;"/></g><!--MD5=[623b2f763758d4282581ac2532080c7d]
reverse link GESTIÓN_PAQUETES to CREAR_PAQUETE--><g id="link_GESTIÓN_PAQUETES_CREAR_PAQUETE"><path d="M241.41,242.2879 C274.76,221.0979 318.33,193.3979 318.33,193.3979 C318.33,193.3979 951.67,193.3979 951.67,193.3979 C951.67,193.3979 994.53,224.1379 1024.5,245.6279 " fill="none" id="GESTIÓN_PAQUETES-backto-CREAR_PAQUETE" style="stroke:#181818;stroke-width:1.0;"/><polygon fill="#181818" points="237.43,244.8179,247.1717,243.3692,241.6507,242.1372,242.8826,236.6162,237.43,244.8179" style="stroke:#181818;stroke-width:1.0;"/></g><!--MD5=[061f406ceb66d7ec58248c0efb2d5afb]
link GESTIÓN_PAQUETES to EDITAR_PAQUETE--><g id="link_GESTIÓN_PAQUETES_EDITAR_PAQUETE"><path d="M249.33,245.6079 C276.83,233.1979 306.67,219.7379 306.67,219.7379 C306.67,219.7379 801.33,219.7379 801.33,219.7379 C801.33,219.7379 824.41,231.2779 847.54,242.8379 " fill="none" id="GESTIÓN_PAQUETES-to-EDITAR_PAQUETE" style="stroke:#181818;stroke-width:1.0;"/><polygon fill="#181818" points="851.73,244.9379,845.4593,237.3433,847.255,242.7076,841.8907,244.5033,851.73,244.9379" style="stroke:#181818;stroke-width:1.0;"/></g><!--MD5=[66a9e0e938822aa33240c5320d8c9883]
reverse link GESTIÓN_PAQUETES to EDITAR_PAQUETE--><g id="link_GESTIÓN_PAQUETES_EDITAR_PAQUETE"><path d="M241.41,242.2879 C274.76,221.0979 318.33,193.3979 318.33,193.3979 C318.33,193.3979 789.67,193.3979 789.67,193.3979 C789.67,193.3979 833.8,224.1379 864.66,245.6279 " fill="none" id="GESTIÓN_PAQUETES-backto-EDITAR_PAQUETE" style="stroke:#181818;stroke-width:1.0;"/><polygon fill="#181818" points="237.43,244.8179,247.1717,243.3692,241.6507,242.1372,242.8826,236.6162,237.43,244.8179" style="stroke:#181818;stroke-width:1.0;"/></g><!--MD5=[2bed159a093bb4fc308c5c44fcdf892d]
link GESTIÓN_PAQUETES to ELIMINAR_PAQUETE--><g id="link_GESTIÓN_PAQUETES_ELIMINAR_PAQUETE"><path d="M249.33,245.6079 C276.83,233.1979 306.67,219.7379 306.67,219.7379 C306.67,219.7379 621.33,219.7379 621.33,219.7379 C621.33,219.7379 646.87,231.3679 672.34,242.9779 " fill="none" id="GESTIÓN_PAQUETES-to-ELIMINAR_PAQUETE" style="stroke:#181818;stroke-width:1.0;"/><polygon fill="#181818" points="676.73,244.9779,670.2006,237.6045,672.1806,242.9035,666.8816,244.8835,676.73,244.9779" style="stroke:#181818;stroke-width:1.0;"/></g><!--MD5=[3780cf926667bb456372de6f9da2a9c7]
reverse link GESTIÓN_PAQUETES to ELIMINAR_PAQUETE--><g id="link_GESTIÓN_PAQUETES_ELIMINAR_PAQUETE"><path d="M241.41,242.2879 C274.76,221.0979 318.33,193.3979 318.33,193.3979 C318.33,193.3979 609.67,193.3979 609.67,193.3979 C609.67,193.3979 657.61,224.1379 691.13,245.6279 " fill="none" id="GESTIÓN_PAQUETES-backto-ELIMINAR_PAQUETE" style="stroke:#181818;stroke-width:1.0;"/><polygon fill="#181818" points="237.43,244.8179,247.1717,243.3692,241.6507,242.1372,242.8826,236.6162,237.43,244.8179" style="stroke:#181818;stroke-width:1.0;"/></g><!--MD5=[e1e51404e25c9ffb7639cdebf011f0e1]
link GESTIÓN_PAQUETES to LISTAR_PAQUETE--><g id="link_GESTIÓN_PAQUETES_LISTAR_PAQUETE"><path d="M249.33,245.6079 C276.83,233.1979 306.67,219.7379 306.67,219.7379 C306.67,219.7379 463.33,219.7379 463.33,219.7379 C463.33,219.7379 485.72,231.1779 508.25,242.6879 " fill="none" id="GESTIÓN_PAQUETES-to-LISTAR_PAQUETE" style="stroke:#181818;stroke-width:1.0;"/><polygon fill="#181818" points="512.62,244.9179,506.4174,237.2675,508.1651,242.6476,502.785,244.3953,512.62,244.9179" style="stroke:#181818;stroke-width:1.0;"/></g><!--MD5=[3734b6ca09f2d5787150db4d00843752]
reverse link GESTIÓN_PAQUETES to LISTAR_PAQUETE--><g id="link_GESTIÓN_PAQUETES_LISTAR_PAQUETE"><path d="M241.41,242.2879 C274.76,221.0979 318.33,193.3979 318.33,193.3979 C318.33,193.3979 451.67,193.3979 451.67,193.3979 C451.67,193.3979 494.95,224.1379 525.22,245.6279 " fill="none" id="GESTIÓN_PAQUETES-backto-LISTAR_PAQUETE" style="stroke:#181818;stroke-width:1.0;"/><polygon fill="#181818" points="237.43,244.8179,247.1717,243.3692,241.6507,242.1372,242.8826,236.6162,237.43,244.8179" style="stroke:#181818;stroke-width:1.0;"/></g><!--MD5=[84298db0ad1762dcefc94b8250dbe291]
link GESTIÓN_PAQUETES to REALIZAR_PETICIÓN--><g id="link_GESTIÓN_PAQUETES_REALIZAR_PETICIÓN"><path d="M277.72,286.0679 C285.99,286.0679 296.73,286.0679 305.84,286.0679 " fill="none" id="GESTIÓN_PAQUETES-to-REALIZAR_PETICIÓN" style="stroke:#181818;stroke-width:1.0;"/><polygon fill="#181818" points="310.62,286.0679,301.62,282.0679,305.62,286.0679,301.62,290.0679,310.62,286.0679" style="stroke:#181818;stroke-width:1.0;"/></g><!--MD5=[37cbcfecbfdee0ee82092a786f536dcc]
reverse link GESTIÓN_PAQUETES to REALIZAR_PETICIÓN--><g id="link_GESTIÓN_PAQUETES_REALIZAR_PETICIÓN"><path d="M284.12,246.0679 C293.35,246.0679 304.05,246.0679 312.14,246.0679 " fill="none" id="GESTIÓN_PAQUETES-backto-REALIZAR_PETICIÓN" style="stroke:#181818;stroke-width:1.0;"/><polygon fill="#181818" points="279.24,246.0679,288.24,250.0679,284.24,246.0679,288.24,242.0679,279.24,246.0679" style="stroke:#181818;stroke-width:1.0;"/></g><!--MD5=[0876ba8a88d8bbcf732e506fae106d5c]
link INICIO to *end--><g id="link_INICIO_*end"><path d="M70.41,286.3679 C73.95,306.4779 79,335.0679 79,335.0679 C79,335.0679 105.5,353.5179 122.04,365.0379 " fill="none" id="INICIO-to-*end" style="stroke:#181818;stroke-width:1.0;"/><polygon fill="#181818" points="125.97,367.7779,120.873,359.3506,121.8678,364.9192,116.2991,365.9141,125.97,367.7779" style="stroke:#181818;stroke-width:1.0;"/><text fill="#000000" font-family="sans-serif" font-size="13" lengthAdjust="spacing" textLength="74" x="80" y="330.9649">Cerar Sesión</text></g><!--MD5=[ebe559387794da29d51c1506eb8107be]
link GESTIÓN_PAQUETES to *end--><g id="link_GESTIÓN_PAQUETES_*end"><path d="M191.66,286.1979 C177.82,307.6579 155.73,341.9279 143.62,360.6979 " fill="none" id="GESTIÓN_PAQUETES-to-*end" style="stroke:#181818;stroke-width:1.0;"/><polygon fill="#181818" points="141.03,364.7179,149.2745,359.3301,143.7439,360.5185,142.5555,354.9879,141.03,364.7179" style="stroke:#181818;stroke-width:1.0;"/><text fill="#000000" font-family="sans-serif" font-size="13" lengthAdjust="spacing" textLength="74" x="173" y="330.9649">Cerar Sesión</text></g><!--MD5=[78b584c69221dec35d1fcb5163904ba0]
@startuml Contexto
title Contexto Administrador

skinparam {
    NoteBackgroundColor #whiteSmoke
    NoteBorderColor #green
    linetype polyline
}

hide empty description

[*] - -> INICIAR_SESIÓN
INICIAR_SESIÓN - -> INICIO : Iniciar Sesión

INICIO -> GESTIÓN_PAQUETES
INICIO <- GESTIÓN_PAQUETES

GESTIÓN_PAQUETES -> CREAR_PAQUETE
GESTIÓN_PAQUETES <- CREAR_PAQUETE
GESTIÓN_PAQUETES -> EDITAR_PAQUETE
GESTIÓN_PAQUETES <- EDITAR_PAQUETE
GESTIÓN_PAQUETES -> ELIMINAR_PAQUETE
GESTIÓN_PAQUETES <- ELIMINAR_PAQUETE
GESTIÓN_PAQUETES -> LISTAR_PAQUETE
GESTIÓN_PAQUETES <- LISTAR_PAQUETE
GESTIÓN_PAQUETES -> REALIZAR_PETICIÓN
GESTIÓN_PAQUETES <- REALIZAR_PETICIÓN

INICIO - -> [*] : Cerar Sesión
GESTIÓN_PAQUETES - -> [*] : Cerar Sesión


@enduml

PlantUML version 1.2022.7(Mon Aug 22 19:01:30 CEST 2022)
(GPL source distribution)
Java Runtime: OpenJDK Runtime Environment
JVM: OpenJDK 64-Bit Server VM
Default Encoding: UTF-8
Language: es
Country: ES
--></g></svg>