<?xml version="1.0" encoding="UTF-8" standalone="no"?><svg xmlns="http://www.w3.org/2000/svg" xmlns:xlink="http://www.w3.org/1999/xlink" contentStyleType="text/css" height="391px" preserveAspectRatio="none" style="width:1159px;height:391px;background:#FFFFFF;" version="1.1" viewBox="0 0 1159 391" width="1159px" zoomAndPan="magnify"><defs/><g><rect fill="none" height="29.0679" id="_title" style="stroke:none;stroke-width:1.0;" width="142" x="501.75" y="5"/><text fill="#000000" font-family="sans-serif" font-size="14" font-weight="bold" lengthAdjust="spacing" textLength="132" x="506.75" y="24.9659">Contexto Egresado</text><ellipse cx="155" cy="56.0679" fill="#222222" rx="10" ry="10" style="stroke:none;stroke-width:1.0;"/><rect fill="#F1F1F1" height="40" rx="12.5" ry="12.5" style="stroke:#181818;stroke-width:0.5;" width="120" x="7" y="127.0679"/><text fill="#000000" font-family="sans-serif" font-size="14" lengthAdjust="spacing" textLength="110" x="12" y="152.4999">INICIAR_SESIÓN</text><rect fill="#F1F1F1" height="40" rx="12.5" ry="12.5" style="stroke:#181818;stroke-width:0.5;" width="164" x="162" y="127.0679"/><text fill="#000000" font-family="sans-serif" font-size="14" lengthAdjust="spacing" textLength="154" x="167" y="152.4999">REGISTRAR_EGRESADO</text><rect fill="#F1F1F1" height="40" rx="12.5" ry="12.5" style="stroke:#181818;stroke-width:0.5;" width="56" x="127" y="246.0679"/><text fill="#000000" font-family="sans-serif" font-size="14" lengthAdjust="spacing" textLength="46" x="132" y="271.4999">INICIO</text><rect fill="#F1F1F1" height="40" rx="12.5" ry="12.5" style="stroke:#181818;stroke-width:0.5;" width="127" x="218.5" y="246.0679"/><text fill="#000000" font-family="sans-serif" font-size="14" lengthAdjust="spacing" textLength="117" x="223.5" y="271.4999">CONFIGURACIÓN</text><rect fill="#F1F1F1" height="40" rx="12.5" ry="12.5" style="stroke:#181818;stroke-width:0.5;" width="169" x="984.5" y="246.0679"/><text fill="#000000" font-family="sans-serif" font-size="14" lengthAdjust="spacing" textLength="159" x="989.5" y="271.4999">CANCELACIÓN_CUENTA</text><rect fill="#F1F1F1" height="40" rx="12.5" ry="12.5" style="stroke:#181818;stroke-width:0.5;" width="176" x="774" y="246.0679"/><text fill="#000000" font-family="sans-serif" font-size="14" lengthAdjust="spacing" textLength="166" x="779" y="271.4999">LISTAR_DATOS_USUARIO</text><rect fill="#F1F1F1" height="40" rx="12.5" ry="12.5" style="stroke:#181818;stroke-width:0.5;" width="179" x="560.5" y="246.0679"/><text fill="#000000" font-family="sans-serif" font-size="14" lengthAdjust="spacing" textLength="169" x="565.5" y="271.4999">EDITAR_DATOS_USUARIO</text><rect fill="#F1F1F1" height="40" rx="12.5" ry="12.5" style="stroke:#181818;stroke-width:0.5;" width="145" x="380.5" y="246.0679"/><text fill="#000000" font-family="sans-serif" font-size="14" lengthAdjust="spacing" textLength="135" x="385.5" y="271.4999">REALIZAR_PETICIÓN</text><ellipse cx="218" cy="375.0679" fill="none" rx="10" ry="10" style="stroke:#222222;stroke-width:1.0;"/><ellipse cx="218.5" cy="375.5679" fill="#222222" rx="6" ry="6" style="stroke:none;stroke-width:1.0;"/><!--MD5=[fffa5c9a6c2a3d9bbcf62492fefaaec1]
link *start to INICIAR_SESIÓN--><g id="link_*start_INICIAR_SESIÓN"><path d="M148.39,63.7579 C136.27,76.0079 109.98,102.5979 90.54,122.2579 " fill="none" id="*start-to-INICIAR_SESIÓN" style="stroke:#181818;stroke-width:1.0;"/><polygon fill="#181818" points="87.32,125.5179,96.4908,121.9267,90.834,121.961,90.7998,116.3043,87.32,125.5179" style="stroke:#181818;stroke-width:1.0;"/></g><!--MD5=[ef2c9c3cadb6f7eb859a57fbfd2a6d8e]
link *start to REGISTRAR_EGRESADO--><g id="link_*start_REGISTRAR_EGRESADO"><path d="M161.69,63.7579 C173.94,76.0079 200.53,102.5979 220.19,122.2579 " fill="none" id="*start-to-REGISTRAR_EGRESADO" style="stroke:#181818;stroke-width:1.0;"/><polygon fill="#181818" points="223.45,125.5179,219.9145,116.3255,219.9145,121.9824,214.2576,121.9824,223.45,125.5179" style="stroke:#181818;stroke-width:1.0;"/></g><!--MD5=[66837f7cee128dc6ca7363ed13e0752f]
link INICIAR_SESIÓN to INICIO--><g id="link_INICIAR_SESIÓN_INICIO"><path d="M78.07,167.3679 C89.6,187.4779 106,216.0679 106,216.0679 C106,216.0679 118.64,228.7079 131.08,241.1479 " fill="none" id="INICIAR_SESIÓN-to-INICIO" style="stroke:#181818;stroke-width:1.0;"/><polygon fill="#181818" points="134.56,244.6279,131.0245,235.4355,131.0245,241.0924,125.3676,241.0924,134.56,244.6279" style="stroke:#181818;stroke-width:1.0;"/><text fill="#000000" font-family="sans-serif" font-size="13" lengthAdjust="spacing" textLength="78" x="107" y="211.9649">Iniciar Sesión</text></g><!--MD5=[4eaddde1cee9389216769fe646f6a5a4]
link REGISTRAR_EGRESADO to INICIO--><g id="link_REGISTRAR_EGRESADO_INICIO"><path d="M229.3,167.3879 C214.04,187.4579 190.11,218.9079 173.55,240.6779 " fill="none" id="REGISTRAR_EGRESADO-to-INICIO" style="stroke:#181818;stroke-width:1.0;"/><polygon fill="#181818" points="170.63,244.5179,179.2682,239.7869,173.6619,240.5421,172.9068,234.9358,170.63,244.5179" style="stroke:#181818;stroke-width:1.0;"/><text fill="#000000" font-family="sans-serif" font-size="13" lengthAdjust="spacing" textLength="113" x="206" y="211.9649">Registrar Egresado</text></g><!--MD5=[4cc4cc43b11f3134bf32754e9a51a657]
link INICIO to CONFIGURACIÓN--><g id="link_INICIO_CONFIGURACIÓN"><path d="M183.47,279.5179 C191.13,283.1379 197.33,286.0679 197.33,286.0679 C197.33,286.0679 203.85,286.0679 211.76,286.0679 " fill="none" id="INICIO-to-CONFIGURACIÓN" style="stroke:#181818;stroke-width:1.0;"/><polygon fill="#181818" points="216.49,286.0679,207.49,282.0679,211.49,286.0679,207.49,290.0679,216.49,286.0679" style="stroke:#181818;stroke-width:1.0;"/></g><!--MD5=[0b6bd3b75ec5b2cd13b71c92fb5bba52]
reverse link INICIO to CONFIGURACIÓN--><g id="link_INICIO_CONFIGURACIÓN"><path d="M189.18,249.9179 C193.99,247.6479 197.33,246.0679 197.33,246.0679 C197.33,246.0679 207.59,246.0679 218,246.0679 " fill="none" id="INICIO-backto-CONFIGURACIÓN" style="stroke:#181818;stroke-width:1.0;"/><polygon fill="#181818" points="184.84,251.9679,194.6861,251.7341,189.3596,249.8293,191.2643,244.5028,184.84,251.9679" style="stroke:#181818;stroke-width:1.0;"/></g><!--MD5=[6552c566f34bfe77903c75be183d45e1]
link CONFIGURACIÓN to CANCELACIÓN_CUENTA--><g id="link_CONFIGURACIÓN_CANCELACIÓN_CUENTA"><path d="M322.91,245.6079 C347.74,233.1979 374.67,219.7379 374.67,219.7379 C374.67,219.7379 955.33,219.7379 955.33,219.7379 C955.33,219.7379 984.36,231.5679 1013.08,243.2779 " fill="none" id="CONFIGURACIÓN-to-CANCELACIÓN_CUENTA" style="stroke:#181818;stroke-width:1.0;"/><polygon fill="#181818" points="1017.41,245.0379,1010.5844,237.9379,1012.7795,243.1514,1007.566,245.3466,1017.41,245.0379" style="stroke:#181818;stroke-width:1.0;"/></g><!--MD5=[bb9c9149de9877dbc80120b840a597f4]
reverse link CONFIGURACIÓN to CANCELACIÓN_CUENTA--><g id="link_CONFIGURACIÓN_CANCELACIÓN_CUENTA"><path d="M316.51,242.0279 C346.89,220.8679 386.33,193.3979 386.33,193.3979 C386.33,193.3979 943.67,193.3979 943.67,193.3979 C943.67,193.3979 996.68,224.1379 1033.75,245.6279 " fill="none" id="CONFIGURACIÓN-backto-CANCELACIÓN_CUENTA" style="stroke:#181818;stroke-width:1.0;"/><polygon fill="#181818" points="312.58,244.7679,322.2509,242.9041,316.6822,241.9092,317.677,236.3406,312.58,244.7679" style="stroke:#181818;stroke-width:1.0;"/></g><!--MD5=[2b48973f0f4dab3fe086fe9341442b92]
link CONFIGURACIÓN to LISTAR_DATOS_USUARIO--><g id="link_CONFIGURACIÓN_LISTAR_DATOS_USUARIO"><path d="M322.91,245.6079 C347.74,233.1979 374.67,219.7379 374.67,219.7379 C374.67,219.7379 745.33,219.7379 745.33,219.7379 C745.33,219.7379 775.13,231.5679 804.61,243.2779 " fill="none" id="CONFIGURACIÓN-to-LISTAR_DATOS_USUARIO" style="stroke:#181818;stroke-width:1.0;"/><polygon fill="#181818" points="809.08,245.0479,802.1906,238.0098,804.4327,243.2033,799.2392,245.4454,809.08,245.0479" style="stroke:#181818;stroke-width:1.0;"/></g><!--MD5=[93948be5496bad843a37381033534260]
reverse link CONFIGURACIÓN to LISTAR_DATOS_USUARIO--><g id="link_CONFIGURACIÓN_LISTAR_DATOS_USUARIO"><path d="M316.51,242.0279 C346.89,220.8679 386.33,193.3979 386.33,193.3979 C386.33,193.3979 733.67,193.3979 733.67,193.3979 C733.67,193.3979 787.95,224.1379 825.91,245.6279 " fill="none" id="CONFIGURACIÓN-backto-LISTAR_DATOS_USUARIO" style="stroke:#181818;stroke-width:1.0;"/><polygon fill="#181818" points="312.58,244.7679,322.2509,242.9041,316.6822,241.9092,317.677,236.3406,312.58,244.7679" style="stroke:#181818;stroke-width:1.0;"/></g><!--MD5=[b2c27f7e4c0447cf73f2ec243833e5b9]
link CONFIGURACIÓN to EDITAR_DATOS_USUARIO--><g id="link_CONFIGURACIÓN_EDITAR_DATOS_USUARIO"><path d="M322.91,245.6079 C347.74,233.1979 374.67,219.7379 374.67,219.7379 C374.67,219.7379 531.33,219.7379 531.33,219.7379 C531.33,219.7379 561.64,231.5679 591.62,243.2779 " fill="none" id="CONFIGURACIÓN-to-EDITAR_DATOS_USUARIO" style="stroke:#181818;stroke-width:1.0;"/><polygon fill="#181818" points="596.2,245.0579,589.2659,238.0638,591.5411,243.2429,586.3619,245.5181,596.2,245.0579" style="stroke:#181818;stroke-width:1.0;"/></g><!--MD5=[708d238ced64878ce1f44dbfe65bcc05]
reverse link CONFIGURACIÓN to EDITAR_DATOS_USUARIO--><g id="link_CONFIGURACIÓN_EDITAR_DATOS_USUARIO"><path d="M316.51,242.0279 C346.89,220.8679 386.33,193.3979 386.33,193.3979 C386.33,193.3979 519.67,193.3979 519.67,193.3979 C519.67,193.3979 574.8,224.1379 613.35,245.6279 " fill="none" id="CONFIGURACIÓN-backto-EDITAR_DATOS_USUARIO" style="stroke:#181818;stroke-width:1.0;"/><polygon fill="#181818" points="312.58,244.7679,322.2509,242.9041,316.6822,241.9092,317.677,236.3406,312.58,244.7679" style="stroke:#181818;stroke-width:1.0;"/></g><!--MD5=[8054eeb7661c50c1d441750ccfdacb1f]
link CONFIGURACIÓN to REALIZAR_PETICIÓN--><g id="link_CONFIGURACIÓN_REALIZAR_PETICIÓN"><path d="M345.99,286.0679 C352.91,286.0679 363.89,286.0679 373.8,286.0679 " fill="none" id="CONFIGURACIÓN-to-REALIZAR_PETICIÓN" style="stroke:#181818;stroke-width:1.0;"/><polygon fill="#181818" points="378.59,286.0679,369.59,282.0679,373.59,286.0679,369.59,290.0679,378.59,286.0679" style="stroke:#181818;stroke-width:1.0;"/></g><!--MD5=[942ea4582faebbfa9f71e8ce6a8f42e1]
reverse link CONFIGURACIÓN to REALIZAR_PETICIÓN--><g id="link_CONFIGURACIÓN_REALIZAR_PETICIÓN"><path d="M352.3,246.0679 C360.6,246.0679 371.35,246.0679 380.1,246.0679 " fill="none" id="CONFIGURACIÓN-backto-REALIZAR_PETICIÓN" style="stroke:#181818;stroke-width:1.0;"/><polygon fill="#181818" points="347.5,246.0679,356.5,250.0679,352.5,246.0679,356.5,242.0679,347.5,246.0679" style="stroke:#181818;stroke-width:1.0;"/></g><!--MD5=[f281b6c48a71b2adc9bcfe8dff9d1342]
link CONFIGURACIÓN to *end--><g id="link_CONFIGURACIÓN_*end"><path d="M270.56,286.1979 C257.72,307.6579 237.23,341.9279 226,360.6979 " fill="none" id="CONFIGURACIÓN-to-*end" style="stroke:#181818;stroke-width:1.0;"/><polygon fill="#181818" points="223.61,364.6879,231.6482,358.9969,226.1657,360.3904,224.7722,354.9079,223.61,364.6879" style="stroke:#181818;stroke-width:1.0;"/><text fill="#000000" font-family="sans-serif" font-size="13" lengthAdjust="spacing" textLength="79" x="253" y="330.9649">Cerrar Sesión</text></g><!--MD5=[0876ba8a88d8bbcf732e506fae106d5c]
link INICIO to *end--><g id="link_INICIO_*end"><path d="M156.42,286.3679 C157.9,306.4779 160,335.0679 160,335.0679 C160,335.0679 187.44,353.5179 204.58,365.0379 " fill="none" id="INICIO-to-*end" style="stroke:#181818;stroke-width:1.0;"/><polygon fill="#181818" points="208.68,367.7979,203.4632,359.4442,204.5374,364.9981,198.9835,366.0723,208.68,367.7979" style="stroke:#181818;stroke-width:1.0;"/><text fill="#000000" font-family="sans-serif" font-size="13" lengthAdjust="spacing" textLength="74" x="161" y="330.9649">Cerar Sesión</text></g><!--MD5=[7a92c72686ee6c044f9ee09b9f6289f5]
@startuml Contexto
title Contexto Egresado

skinparam {
    NoteBackgroundColor #whiteSmoke
    NoteBorderColor #green
    linetype polyline
}

hide empty description

[*] - -> INICIAR_SESIÓN
[*] - -> REGISTRAR_EGRESADO
INICIAR_SESIÓN - -> INICIO : Iniciar Sesión
REGISTRAR_EGRESADO - -> INICIO : Registrar Egresado


INICIO -> CONFIGURACIÓN
INICIO <- CONFIGURACIÓN

CONFIGURACIÓN -> CANCELACIÓN_CUENTA
CONFIGURACIÓN <- CANCELACIÓN_CUENTA
CONFIGURACIÓN -> LISTAR_DATOS_USUARIO
CONFIGURACIÓN <- LISTAR_DATOS_USUARIO
CONFIGURACIÓN -> EDITAR_DATOS_USUARIO
CONFIGURACIÓN <- EDITAR_DATOS_USUARIO
CONFIGURACIÓN -> REALIZAR_PETICIÓN
CONFIGURACIÓN <- REALIZAR_PETICIÓN

CONFIGURACIÓN -> [*] : Cerrar Sesión
INICIO - -> [*] : Cerar Sesión

@enduml

PlantUML version 1.2022.7(Mon Aug 22 19:01:30 CEST 2022)
(GPL source distribution)
Java Runtime: OpenJDK Runtime Environment
JVM: OpenJDK 64-Bit Server VM
Default Encoding: UTF-8
Language: es
Country: ES
--></g></svg>