<?xml version="1.0" encoding="UTF-8" standalone="no"?><svg xmlns="http://www.w3.org/2000/svg" xmlns:xlink="http://www.w3.org/1999/xlink" contentStyleType="text/css" height="387px" preserveAspectRatio="none" style="width:1168px;height:387px;background:#FFFFFF;" version="1.1" viewBox="0 0 1168 387" width="1168px" zoomAndPan="magnify"><defs/><g><rect fill="none" height="27.6094" id="_title" style="stroke:none;stroke-width:1.0;" width="145" x="504.75" y="5"/><text fill="#000000" font-family="sans-serif" font-size="14" font-weight="bold" lengthAdjust="spacing" textLength="135" x="509.75" y="24.5332">Contexto Egresado</text><ellipse cx="154.5" cy="54.6094" fill="#222222" rx="10" ry="10" style="stroke:none;stroke-width:1.0;"/><rect fill="#F1F1F1" height="40" rx="12.5" ry="12.5" style="stroke:#181818;stroke-width:0.5;" width="115" x="7" y="125.6094"/><text fill="#000000" font-family="sans-serif" font-size="14" lengthAdjust="spacing" textLength="105" x="12" y="151.3379">INICIAR_SESIÓN</text><rect fill="#F1F1F1" height="40" rx="12.5" ry="12.5" style="stroke:#181818;stroke-width:0.5;" width="176" x="157.5" y="125.6094"/><text fill="#000000" font-family="sans-serif" font-size="14" lengthAdjust="spacing" textLength="166" x="162.5" y="151.3379">REGISTRAR_EGRESADO</text><rect fill="#F1F1F1" height="40" rx="12.5" ry="12.5" style="stroke:#181818;stroke-width:0.5;" width="50" x="129.5" y="243.6094"/><text fill="#000000" font-family="sans-serif" font-size="14" lengthAdjust="spacing" textLength="39" x="135" y="269.3379">INICIO</text><rect fill="#F1F1F1" height="40" rx="12.5" ry="12.5" style="stroke:#181818;stroke-width:0.5;" width="124" x="214.5" y="243.6094"/><text fill="#000000" font-family="sans-serif" font-size="14" lengthAdjust="spacing" textLength="114" x="219.5" y="269.3379">CONFIGURACIÓN</text><rect fill="#F1F1F1" height="40" rx="12.5" ry="12.5" style="stroke:#181818;stroke-width:0.5;" width="170" x="992.5" y="243.6094"/><text fill="#000000" font-family="sans-serif" font-size="14" lengthAdjust="spacing" textLength="160" x="997.5" y="269.3379">CANCELACIÓN_CUENTA</text><rect fill="#F1F1F1" height="40" rx="12.5" ry="12.5" style="stroke:#181818;stroke-width:0.5;" width="182" x="775.5" y="243.6094"/><text fill="#000000" font-family="sans-serif" font-size="14" lengthAdjust="spacing" textLength="172" x="780.5" y="269.3379">LISTAR_DATOS_USUARIO</text><rect fill="#F1F1F1" height="40" rx="12.5" ry="12.5" style="stroke:#181818;stroke-width:0.5;" width="184" x="556.5" y="243.6094"/><text fill="#000000" font-family="sans-serif" font-size="14" lengthAdjust="spacing" textLength="174" x="561.5" y="269.3379">EDITAR_DATOS_USUARIO</text><rect fill="#F1F1F1" height="40" rx="12.5" ry="12.5" style="stroke:#181818;stroke-width:0.5;" width="147" x="374" y="243.6094"/><text fill="#000000" font-family="sans-serif" font-size="14" lengthAdjust="spacing" textLength="137" x="379" y="269.3379">REALIZAR_PETICIÓN</text><ellipse cx="214.5" cy="371.6094" fill="none" rx="10" ry="10" style="stroke:#222222;stroke-width:1.0;"/><ellipse cx="215" cy="372.1094" fill="#222222" rx="6" ry="6" style="stroke:none;stroke-width:1.0;"/><!--MD5=[fffa5c9a6c2a3d9bbcf62492fefaaec1]
link *start to INICIAR_SESIÓN--><g id="link_*start_INICIAR_SESIÓN"><path d="M147.74,62.2994 C135.16,74.7294 107.67,101.9194 87.71,121.6594 " fill="none" id="*start-to-INICIAR_SESIÓN" style="stroke:#181818;stroke-width:1.0;"/><polygon fill="#181818" points="83.83,125.4994,93.0436,122.0196,87.3869,121.9853,87.4212,116.3286,83.83,125.4994" style="stroke:#181818;stroke-width:1.0;"/></g><!--MD5=[ef2c9c3cadb6f7eb859a57fbfd2a6d8e]
link *start to REGISTRAR_EGRESADO--><g id="link_*start_REGISTRAR_EGRESADO"><path d="M161.34,62.2994 C174.05,74.7294 201.85,101.9194 222.03,121.6594 " fill="none" id="*start-to-REGISTRAR_EGRESADO" style="stroke:#181818;stroke-width:1.0;"/><polygon fill="#181818" points="225.96,125.4994,222.3318,116.3432,222.3889,121.9997,216.7324,122.0569,225.96,125.4994" style="stroke:#181818;stroke-width:1.0;"/></g><!--MD5=[66837f7cee128dc6ca7363ed13e0752f]
link INICIAR_SESIÓN to INICIO--><g id="link_INICIAR_SESIÓN_INICIO"><path d="M76.42,165.6294 C88.84,185.4394 106.5,213.6094 106.5,213.6094 C106.5,213.6094 119.72,227.1094 132.29,239.9394 " fill="none" id="INICIAR_SESIÓN-to-INICIO" style="stroke:#181818;stroke-width:1.0;"/><polygon fill="#181818" points="135.8,243.5294,132.3575,234.3017,132.3004,239.9583,126.6438,239.9012,135.8,243.5294" style="stroke:#181818;stroke-width:1.0;"/><text fill="#000000" font-family="sans-serif" font-size="13" lengthAdjust="spacing" textLength="78" x="107.5" y="210.1045">Iniciar Sesión</text></g><!--MD5=[4eaddde1cee9389216769fe646f6a5a4]
link REGISTRAR_EGRESADO to INICIO--><g id="link_REGISTRAR_EGRESADO_INICIO"><path d="M230.47,165.7694 C214.67,185.9094 189.78,217.6394 172.83,239.2494 " fill="none" id="REGISTRAR_EGRESADO-to-INICIO" style="stroke:#181818;stroke-width:1.0;"/><polygon fill="#181818" points="169.55,243.4294,178.2549,238.8224,172.6385,239.4973,171.9636,233.8808,169.55,243.4294" style="stroke:#181818;stroke-width:1.0;"/><text fill="#000000" font-family="sans-serif" font-size="13" lengthAdjust="spacing" textLength="111" x="206.5" y="210.1045">Registrar Egresado</text></g><!--MD5=[4cc4cc43b11f3134bf32754e9a51a657]
link INICIO to CONFIGURACIÓN--><g id="link_INICIO_CONFIGURACIÓN"><path d="M179.56,275.9294 C187.93,280.0494 195.17,283.6094 195.17,283.6094 C195.17,283.6094 201.26,283.6094 208.74,283.6094 " fill="none" id="INICIO-to-CONFIGURACIÓN" style="stroke:#181818;stroke-width:1.0;"/><polygon fill="#181818" points="214.07,283.6094,205.07,279.6094,209.07,283.6094,205.07,287.6094,214.07,283.6094" style="stroke:#181818;stroke-width:1.0;"/></g><!--MD5=[0b6bd3b75ec5b2cd13b71c92fb5bba52]
reverse link INICIO to CONFIGURACIÓN--><g id="link_INICIO_CONFIGURACIÓN"><path d="M184.11,249.0494 C190.39,245.9594 195.17,243.6094 195.17,243.6094 C195.17,243.6094 204.4,243.6094 214.07,243.6094 " fill="none" id="INICIO-backto-CONFIGURACIÓN" style="stroke:#181818;stroke-width:1.0;"/><polygon fill="#181818" points="179.56,251.2894,189.4009,250.8924,184.0435,249.0762,185.8597,243.7188,179.56,251.2894" style="stroke:#181818;stroke-width:1.0;"/></g><!--MD5=[6552c566f34bfe77903c75be183d45e1]
link CONFIGURACIÓN to CANCELACIÓN_CUENTA--><g id="link_CONFIGURACIÓN_CANCELACIÓN_CUENTA"><path d="M316.44,243.5694 C341.14,231.1694 368.17,217.6094 368.17,217.6094 C368.17,217.6094 963.83,217.6094 963.83,217.6094 C963.83,217.6094 994.03,229.8294 1023.29,241.6694 " fill="none" id="CONFIGURACIÓN-to-CANCELACIÓN_CUENTA" style="stroke:#181818;stroke-width:1.0;"/><polygon fill="#181818" points="1027.97,243.5694,1021.1444,236.4693,1023.3395,241.6829,1018.126,243.8781,1027.97,243.5694" style="stroke:#181818;stroke-width:1.0;"/></g><!--MD5=[bb9c9149de9877dbc80120b840a597f4]
reverse link CONFIGURACIÓN to CANCELACIÓN_CUENTA--><g id="link_CONFIGURACIÓN_CANCELACIÓN_CUENTA"><path d="M309.67,240.4994 C339.89,219.4394 379.83,191.6094 379.83,191.6094 C379.83,191.6094 952.17,191.6094 952.17,191.6094 C952.17,191.6094 1005.5,222.2494 1042.59,243.5494 " fill="none" id="CONFIGURACIÓN-backto-CANCELACIÓN_CUENTA" style="stroke:#181818;stroke-width:1.0;"/><polygon fill="#181818" points="305.28,243.5494,314.9509,241.6855,309.3822,240.6907,310.377,235.122,305.28,243.5494" style="stroke:#181818;stroke-width:1.0;"/></g><!--MD5=[2b48973f0f4dab3fe086fe9341442b92]
link CONFIGURACIÓN to LISTAR_DATOS_USUARIO--><g id="link_CONFIGURACIÓN_LISTAR_DATOS_USUARIO"><path d="M316.44,243.5694 C341.14,231.1694 368.17,217.6094 368.17,217.6094 C368.17,217.6094 746.83,217.6094 746.83,217.6094 C746.83,217.6094 778.62,229.8294 809.43,241.6694 " fill="none" id="CONFIGURACIÓN-to-LISTAR_DATOS_USUARIO" style="stroke:#181818;stroke-width:1.0;"/><polygon fill="#181818" points="814.36,243.5694,807.3815,236.6195,809.6896,241.7841,804.525,244.0921,814.36,243.5694" style="stroke:#181818;stroke-width:1.0;"/></g><!--MD5=[93948be5496bad843a37381033534260]
reverse link CONFIGURACIÓN to LISTAR_DATOS_USUARIO--><g id="link_CONFIGURACIÓN_LISTAR_DATOS_USUARIO"><path d="M309.67,240.4994 C339.89,219.4394 379.83,191.6094 379.83,191.6094 C379.83,191.6094 735.17,191.6094 735.17,191.6094 C735.17,191.6094 791.06,222.2494 829.92,243.5494 " fill="none" id="CONFIGURACIÓN-backto-LISTAR_DATOS_USUARIO" style="stroke:#181818;stroke-width:1.0;"/><polygon fill="#181818" points="305.28,243.5494,314.9509,241.6855,309.3822,240.6907,310.377,235.122,305.28,243.5494" style="stroke:#181818;stroke-width:1.0;"/></g><!--MD5=[b2c27f7e4c0447cf73f2ec243833e5b9]
link CONFIGURACIÓN to EDITAR_DATOS_USUARIO--><g id="link_CONFIGURACIÓN_EDITAR_DATOS_USUARIO"><path d="M316.44,243.5694 C341.14,231.1694 368.17,217.6094 368.17,217.6094 C368.17,217.6094 526.83,217.6094 526.83,217.6094 C526.83,217.6094 559.15,229.8294 590.48,241.6694 " fill="none" id="CONFIGURACIÓN-to-EDITAR_DATOS_USUARIO" style="stroke:#181818;stroke-width:1.0;"/><polygon fill="#181818" points="595.49,243.5694,588.486,236.6452,590.8131,241.8013,585.657,244.1283,595.49,243.5694" style="stroke:#181818;stroke-width:1.0;"/></g><!--MD5=[708d238ced64878ce1f44dbfe65bcc05]
reverse link CONFIGURACIÓN to EDITAR_DATOS_USUARIO--><g id="link_CONFIGURACIÓN_EDITAR_DATOS_USUARIO"><path d="M309.67,240.4994 C339.89,219.4394 379.83,191.6094 379.83,191.6094 C379.83,191.6094 515.17,191.6094 515.17,191.6094 C515.17,191.6094 571.91,222.2494 611.36,243.5494 " fill="none" id="CONFIGURACIÓN-backto-EDITAR_DATOS_USUARIO" style="stroke:#181818;stroke-width:1.0;"/><polygon fill="#181818" points="305.28,243.5494,314.9509,241.6855,309.3822,240.6907,310.377,235.122,305.28,243.5494" style="stroke:#181818;stroke-width:1.0;"/></g><!--MD5=[8054eeb7661c50c1d441750ccfdacb1f]
link CONFIGURACIÓN to REALIZAR_PETICIÓN--><g id="link_CONFIGURACIÓN_REALIZAR_PETICIÓN"><path d="M338.76,283.6094 C345.53,283.6094 357.73,283.6094 368.58,283.6094 " fill="none" id="CONFIGURACIÓN-to-REALIZAR_PETICIÓN" style="stroke:#181818;stroke-width:1.0;"/><polygon fill="#181818" points="373.76,283.6094,364.76,279.6094,368.76,283.6094,364.76,287.6094,373.76,283.6094" style="stroke:#181818;stroke-width:1.0;"/></g><!--MD5=[942ea4582faebbfa9f71e8ce6a8f42e1]
reverse link CONFIGURACIÓN to REALIZAR_PETICIÓN--><g id="link_CONFIGURACIÓN_REALIZAR_PETICIÓN"><path d="M343.9,243.6094 C352.23,243.6094 364.09,243.6094 373.76,243.6094 " fill="none" id="CONFIGURACIÓN-backto-REALIZAR_PETICIÓN" style="stroke:#181818;stroke-width:1.0;"/><polygon fill="#181818" points="338.76,243.6094,347.76,247.6094,343.76,243.6094,347.76,239.6094,338.76,243.6094" style="stroke:#181818;stroke-width:1.0;"/></g><!--MD5=[f281b6c48a71b2adc9bcfe8dff9d1342]
link CONFIGURACIÓN to *end--><g id="link_CONFIGURACIÓN_*end"><path d="M265.13,284.0494 C252.54,305.5794 232.61,339.6494 221.9,357.9594 " fill="none" id="CONFIGURACIÓN-to-*end" style="stroke:#181818;stroke-width:1.0;"/><polygon fill="#181818" points="219.13,362.6894,227.1318,356.9473,221.6582,358.3757,220.2299,352.9021,219.13,362.6894" style="stroke:#181818;stroke-width:1.0;"/><text fill="#000000" font-family="sans-serif" font-size="13" lengthAdjust="spacing" textLength="79" x="248.5" y="328.1045">Cerrar Sesión</text></g><!--MD5=[0876ba8a88d8bbcf732e506fae106d5c]
link INICIO to *end--><g id="link_INICIO_*end"><path d="M153.33,283.6894 C152.49,297.4494 151.5,313.6094 151.5,313.6094 C151.5,313.6094 151.5,331.6094 151.5,331.6094 C151.5,331.6094 183.53,351.4394 201.91,362.8194 " fill="none" id="INICIO-to-*end" style="stroke:#181818;stroke-width:1.0;"/><polygon fill="#181818" points="206.26,365.5094,200.7036,357.3775,202.0056,362.8825,196.5007,364.1845,206.26,365.5094" style="stroke:#181818;stroke-width:1.0;"/><text fill="#000000" font-family="sans-serif" font-size="13" lengthAdjust="spacing" textLength="79" x="152.5" y="328.1045">Cerrar Sesión</text></g><!--MD5=[6db133c5bec84c99875f956ecf58a57b]
@startuml Contexto
title Contexto Egresado

skinparam {
    NoteBackgroundColor #whiteSmoke
    NoteBorderColor #green
    linetype polyline
}

hide empty description

[*] - -> INICIAR_SESIÓN
[*] - -> REGISTRAR_EGRESADO
INICIAR_SESIÓN - -> INICIO : Iniciar Sesión
REGISTRAR_EGRESADO - -> INICIO : Registrar Egresado


INICIO -> CONFIGURACIÓN
INICIO <- CONFIGURACIÓN

CONFIGURACIÓN -> CANCELACIÓN_CUENTA
CONFIGURACIÓN <- CANCELACIÓN_CUENTA
CONFIGURACIÓN -> LISTAR_DATOS_USUARIO
CONFIGURACIÓN <- LISTAR_DATOS_USUARIO
CONFIGURACIÓN -> EDITAR_DATOS_USUARIO
CONFIGURACIÓN <- EDITAR_DATOS_USUARIO
CONFIGURACIÓN -> REALIZAR_PETICIÓN
CONFIGURACIÓN <- REALIZAR_PETICIÓN

CONFIGURACIÓN -> [*] : Cerrar Sesión
INICIO - -> [*] : Cerrar Sesión

@enduml

PlantUML version 1.2022.7(Mon Aug 22 19:01:30 CEST 2022)
(GPL source distribution)
Java Runtime: OpenJDK Runtime Environment
JVM: OpenJDK 64-Bit Server VM
Default Encoding: Cp1252
Language: es
Country: ES
--></g></svg>