<?xml version="1.0" encoding="us-ascii" standalone="no"?><svg xmlns="http://www.w3.org/2000/svg" xmlns:xlink="http://www.w3.org/1999/xlink" contentStyleType="text/css" height="773px" preserveAspectRatio="none" style="width:367px;height:773px;background:#FFFFFF;" version="1.1" viewBox="0 0 367 773" width="367px" zoomAndPan="magnify"><defs/><g><!--class Trabajadores--><g id="elem_Trabajadores"><rect codeLine="1" fill="#F1F1F1" height="80.5938" id="Trabajadores" rx="2.5" ry="2.5" style="stroke:#181818;stroke-width:0.5;" width="125" x="147" y="7"/><ellipse cx="162" cy="23" fill="#ADD1B2" rx="11" ry="11" style="stroke:#181818;stroke-width:1.0;"/><path d="M164.3438,18.6719 C163.4063,18.2344 162.8125,18.0938 161.9375,18.0938 C159.3125,18.0938 157.3125,20.1719 157.3125,22.8906 L157.3125,24.0156 C157.3125,26.5938 159.4219,28.4844 162.3125,28.4844 C163.5313,28.4844 164.6875,28.1875 165.4375,27.6406 C166.0156,27.2344 166.3438,26.7813 166.3438,26.3906 C166.3438,25.9375 165.9531,25.5469 165.4844,25.5469 C165.2656,25.5469 165.0625,25.625 164.875,25.8125 C164.4219,26.2969 164.4219,26.2969 164.2344,26.3906 C163.8125,26.6563 163.125,26.7813 162.3594,26.7813 C160.3125,26.7813 159.0156,25.6875 159.0156,23.9844 L159.0156,22.8906 C159.0156,21.1094 160.2656,19.7969 162,19.7969 C162.5781,19.7969 163.1875,19.9531 163.6563,20.2031 C164.1406,20.4844 164.3125,20.7031 164.4063,21.1094 C164.4688,21.5156 164.5,21.6406 164.6406,21.7656 C164.7813,21.9063 165.0156,22.0156 165.2344,22.0156 C165.5,22.0156 165.7656,21.875 165.9375,21.6563 C166.0469,21.5 166.0781,21.3125 166.0781,20.8906 L166.0781,19.4688 C166.0781,19.0313 166.0625,18.9063 165.9688,18.75 C165.8125,18.4844 165.5313,18.3438 165.2344,18.3438 C164.9375,18.3438 164.7344,18.4375 164.5156,18.75 L164.3438,18.6719 Z " fill="#000000"/><text fill="#000000" font-family="sans-serif" font-size="14" lengthAdjust="spacing" textLength="93" x="176" y="27.8467">Trabajadores</text><line style="stroke:#181818;stroke-width:0.5;" x1="148" x2="271" y1="39" y2="39"/><ellipse cx="158" cy="52.6484" fill="none" rx="3" ry="3" style="stroke:#038048;stroke-width:1.0;"/><text fill="#000000" font-family="sans-serif" font-size="14" lengthAdjust="spacing" textLength="58" x="167" y="55.9951">Nombre</text><ellipse cx="158" cy="68.9453" fill="none" rx="3" ry="3" style="stroke:#038048;stroke-width:1.0;"/><text fill="#000000" font-family="sans-serif" font-size="14" lengthAdjust="spacing" textLength="92" x="167" y="72.292">Identificador</text><line style="stroke:#181818;stroke-width:0.5;" x1="148" x2="271" y1="79.5938" y2="79.5938"/></g><!--class LectorDeHuellas--><g id="elem_LectorDeHuellas"><rect codeLine="5" fill="#F1F1F1" height="64.2969" id="LectorDeHuellas" rx="2.5" ry="2.5" style="stroke:#181818;stroke-width:0.5;" width="149" x="7" y="165"/><ellipse cx="22" cy="181" fill="#ADD1B2" rx="11" ry="11" style="stroke:#181818;stroke-width:1.0;"/><path d="M24.3438,176.6719 C23.4063,176.2344 22.8125,176.0938 21.9375,176.0938 C19.3125,176.0938 17.3125,178.1719 17.3125,180.8906 L17.3125,182.0156 C17.3125,184.5938 19.4219,186.4844 22.3125,186.4844 C23.5313,186.4844 24.6875,186.1875 25.4375,185.6406 C26.0156,185.2344 26.3438,184.7813 26.3438,184.3906 C26.3438,183.9375 25.9531,183.5469 25.4844,183.5469 C25.2656,183.5469 25.0625,183.625 24.875,183.8125 C24.4219,184.2969 24.4219,184.2969 24.2344,184.3906 C23.8125,184.6563 23.125,184.7813 22.3594,184.7813 C20.3125,184.7813 19.0156,183.6875 19.0156,181.9844 L19.0156,180.8906 C19.0156,179.1094 20.2656,177.7969 22,177.7969 C22.5781,177.7969 23.1875,177.9531 23.6563,178.2031 C24.1406,178.4844 24.3125,178.7031 24.4063,179.1094 C24.4688,179.5156 24.5,179.6406 24.6406,179.7656 C24.7813,179.9063 25.0156,180.0156 25.2344,180.0156 C25.5,180.0156 25.7656,179.875 25.9375,179.6563 C26.0469,179.5 26.0781,179.3125 26.0781,178.8906 L26.0781,177.4688 C26.0781,177.0313 26.0625,176.9063 25.9688,176.75 C25.8125,176.4844 25.5313,176.3438 25.2344,176.3438 C24.9375,176.3438 24.7344,176.4375 24.5156,176.75 L24.3438,176.6719 Z " fill="#000000"/><text fill="#000000" font-family="sans-serif" font-size="14" lengthAdjust="spacing" textLength="117" x="36" y="185.8467">LectorDeHuellas</text><line style="stroke:#181818;stroke-width:0.5;" x1="8" x2="155" y1="197" y2="197"/><ellipse cx="18" cy="210.6484" fill="none" rx="3" ry="3" style="stroke:#038048;stroke-width:1.0;"/><text fill="#000000" font-family="sans-serif" font-size="14" lengthAdjust="spacing" textLength="43" x="27" y="213.9951">Huella</text><line style="stroke:#181818;stroke-width:0.5;" x1="8" x2="155" y1="221.2969" y2="221.2969"/></g><!--class Fichaje--><g id="elem_Fichaje"><rect codeLine="8" fill="#F1F1F1" height="96.8906" id="Fichaje" rx="2.5" ry="2.5" style="stroke:#181818;stroke-width:0.5;" width="115" x="25" y="306"/><ellipse cx="54.85" cy="322" fill="#ADD1B2" rx="11" ry="11" style="stroke:#181818;stroke-width:1.0;"/><path d="M57.1938,317.6719 C56.2563,317.2344 55.6625,317.0938 54.7875,317.0938 C52.1625,317.0938 50.1625,319.1719 50.1625,321.8906 L50.1625,323.0156 C50.1625,325.5938 52.2719,327.4844 55.1625,327.4844 C56.3813,327.4844 57.5375,327.1875 58.2875,326.6406 C58.8656,326.2344 59.1938,325.7813 59.1938,325.3906 C59.1938,324.9375 58.8031,324.5469 58.3344,324.5469 C58.1156,324.5469 57.9125,324.625 57.725,324.8125 C57.2719,325.2969 57.2719,325.2969 57.0844,325.3906 C56.6625,325.6563 55.975,325.7813 55.2094,325.7813 C53.1625,325.7813 51.8656,324.6875 51.8656,322.9844 L51.8656,321.8906 C51.8656,320.1094 53.1156,318.7969 54.85,318.7969 C55.4281,318.7969 56.0375,318.9531 56.5063,319.2031 C56.9906,319.4844 57.1625,319.7031 57.2563,320.1094 C57.3188,320.5156 57.35,320.6406 57.4906,320.7656 C57.6313,320.9063 57.8656,321.0156 58.0844,321.0156 C58.35,321.0156 58.6156,320.875 58.7875,320.6563 C58.8969,320.5 58.9281,320.3125 58.9281,319.8906 L58.9281,318.4688 C58.9281,318.0313 58.9125,317.9063 58.8188,317.75 C58.6625,317.4844 58.3813,317.3438 58.0844,317.3438 C57.7875,317.3438 57.5844,317.4375 57.3656,317.75 L57.1938,317.6719 Z " fill="#000000"/><text fill="#000000" font-family="sans-serif" font-size="14" lengthAdjust="spacing" textLength="50" x="72.15" y="326.8467">Fichaje</text><line style="stroke:#181818;stroke-width:0.5;" x1="26" x2="139" y1="338" y2="338"/><ellipse cx="36" cy="351.6484" fill="none" rx="3" ry="3" style="stroke:#038048;stroke-width:1.0;"/><text fill="#000000" font-family="sans-serif" font-size="14" lengthAdjust="spacing" textLength="42" x="45" y="354.9951">Fecha</text><ellipse cx="36" cy="367.9453" fill="none" rx="3" ry="3" style="stroke:#038048;stroke-width:1.0;"/><text fill="#000000" font-family="sans-serif" font-size="14" lengthAdjust="spacing" textLength="89" x="45" y="371.292">HoraEntrada</text><ellipse cx="36" cy="384.2422" fill="none" rx="3" ry="3" style="stroke:#038048;stroke-width:1.0;"/><text fill="#000000" font-family="sans-serif" font-size="14" lengthAdjust="spacing" textLength="75" x="45" y="387.5889">HoraSalida</text><line style="stroke:#181818;stroke-width:0.5;" x1="26" x2="139" y1="394.8906" y2="394.8906"/></g><!--class Informe--><g id="elem_Informe"><rect codeLine="13" fill="#F1F1F1" height="113.1875" id="Informe" rx="2.5" ry="2.5" style="stroke:#181818;stroke-width:0.5;" width="146" x="72.5" y="480"/><ellipse cx="113.15" cy="496" fill="#ADD1B2" rx="11" ry="11" style="stroke:#181818;stroke-width:1.0;"/><path d="M115.4938,491.6719 C114.5563,491.2344 113.9625,491.0938 113.0875,491.0938 C110.4625,491.0938 108.4625,493.1719 108.4625,495.8906 L108.4625,497.0156 C108.4625,499.5938 110.5719,501.4844 113.4625,501.4844 C114.6813,501.4844 115.8375,501.1875 116.5875,500.6406 C117.1656,500.2344 117.4938,499.7813 117.4938,499.3906 C117.4938,498.9375 117.1031,498.5469 116.6344,498.5469 C116.4156,498.5469 116.2125,498.625 116.025,498.8125 C115.5719,499.2969 115.5719,499.2969 115.3844,499.3906 C114.9625,499.6563 114.275,499.7813 113.5094,499.7813 C111.4625,499.7813 110.1656,498.6875 110.1656,496.9844 L110.1656,495.8906 C110.1656,494.1094 111.4156,492.7969 113.15,492.7969 C113.7281,492.7969 114.3375,492.9531 114.8063,493.2031 C115.2906,493.4844 115.4625,493.7031 115.5563,494.1094 C115.6188,494.5156 115.65,494.6406 115.7906,494.7656 C115.9313,494.9063 116.1656,495.0156 116.3844,495.0156 C116.65,495.0156 116.9156,494.875 117.0875,494.6563 C117.1969,494.5 117.2281,494.3125 117.2281,493.8906 L117.2281,492.4688 C117.2281,492.0313 117.2125,491.9063 117.1188,491.75 C116.9625,491.4844 116.6813,491.3438 116.3844,491.3438 C116.0875,491.3438 115.8844,491.4375 115.6656,491.75 L115.4938,491.6719 Z " fill="#000000"/><text fill="#000000" font-family="sans-serif" font-size="14" lengthAdjust="spacing" textLength="57" x="132.85" y="500.8467">Informe</text><line style="stroke:#181818;stroke-width:0.5;" x1="73.5" x2="217.5" y1="512" y2="512"/><ellipse cx="83.5" cy="525.6484" fill="none" rx="3" ry="3" style="stroke:#038048;stroke-width:1.0;"/><text fill="#000000" font-family="sans-serif" font-size="14" lengthAdjust="spacing" textLength="42" x="92.5" y="528.9951">Fecha</text><ellipse cx="83.5" cy="541.9453" fill="none" rx="3" ry="3" style="stroke:#038048;stroke-width:1.0;"/><text fill="#000000" font-family="sans-serif" font-size="14" lengthAdjust="spacing" textLength="63" x="92.5" y="545.292">HorasDia</text><ellipse cx="83.5" cy="558.2422" fill="none" rx="3" ry="3" style="stroke:#038048;stroke-width:1.0;"/><text fill="#000000" font-family="sans-serif" font-size="14" lengthAdjust="spacing" textLength="97" x="92.5" y="561.5889">HorasSemana</text><ellipse cx="83.5" cy="574.5391" fill="none" rx="3" ry="3" style="stroke:#038048;stroke-width:1.0;"/><text fill="#000000" font-family="sans-serif" font-size="14" lengthAdjust="spacing" textLength="120" x="92.5" y="577.8857">HorarioCumplido</text><line style="stroke:#181818;stroke-width:0.5;" x1="73.5" x2="217.5" y1="585.1875" y2="585.1875"/></g><!--class Horario--><g id="elem_Horario"><rect codeLine="19" fill="#F1F1F1" height="96.8906" id="Horario" rx="2.5" ry="2.5" style="stroke:#181818;stroke-width:0.5;" width="115" x="88" y="670"/><ellipse cx="116.95" cy="686" fill="#ADD1B2" rx="11" ry="11" style="stroke:#181818;stroke-width:1.0;"/><path d="M119.2938,681.6719 C118.3563,681.2344 117.7625,681.0938 116.8875,681.0938 C114.2625,681.0938 112.2625,683.1719 112.2625,685.8906 L112.2625,687.0156 C112.2625,689.5938 114.3719,691.4844 117.2625,691.4844 C118.4813,691.4844 119.6375,691.1875 120.3875,690.6406 C120.9656,690.2344 121.2938,689.7813 121.2938,689.3906 C121.2938,688.9375 120.9031,688.5469 120.4344,688.5469 C120.2156,688.5469 120.0125,688.625 119.825,688.8125 C119.3719,689.2969 119.3719,689.2969 119.1844,689.3906 C118.7625,689.6563 118.075,689.7813 117.3094,689.7813 C115.2625,689.7813 113.9656,688.6875 113.9656,686.9844 L113.9656,685.8906 C113.9656,684.1094 115.2156,682.7969 116.95,682.7969 C117.5281,682.7969 118.1375,682.9531 118.6063,683.2031 C119.0906,683.4844 119.2625,683.7031 119.3563,684.1094 C119.4188,684.5156 119.45,684.6406 119.5906,684.7656 C119.7313,684.9063 119.9656,685.0156 120.1844,685.0156 C120.45,685.0156 120.7156,684.875 120.8875,684.6563 C120.9969,684.5 121.0281,684.3125 121.0281,683.8906 L121.0281,682.4688 C121.0281,682.0313 121.0125,681.9063 120.9188,681.75 C120.7625,681.4844 120.4813,681.3438 120.1844,681.3438 C119.8875,681.3438 119.6844,681.4375 119.4656,681.75 L119.2938,681.6719 Z " fill="#000000"/><text fill="#000000" font-family="sans-serif" font-size="14" lengthAdjust="spacing" textLength="52" x="134.05" y="690.8467">Horario</text><line style="stroke:#181818;stroke-width:0.5;" x1="89" x2="202" y1="702" y2="702"/><ellipse cx="99" cy="715.6484" fill="none" rx="3" ry="3" style="stroke:#038048;stroke-width:1.0;"/><text fill="#000000" font-family="sans-serif" font-size="14" lengthAdjust="spacing" textLength="23" x="108" y="718.9951">Dia</text><ellipse cx="99" cy="731.9453" fill="none" rx="3" ry="3" style="stroke:#038048;stroke-width:1.0;"/><text fill="#000000" font-family="sans-serif" font-size="14" lengthAdjust="spacing" textLength="89" x="108" y="735.292">HoraEntrada</text><ellipse cx="99" cy="748.2422" fill="none" rx="3" ry="3" style="stroke:#038048;stroke-width:1.0;"/><text fill="#000000" font-family="sans-serif" font-size="14" lengthAdjust="spacing" textLength="75" x="108" y="751.5889">HoraSalida</text><line style="stroke:#181818;stroke-width:0.5;" x1="89" x2="202" y1="758.8906" y2="758.8906"/></g><!--class Contrato--><g id="elem_Contrato"><rect codeLine="24" fill="#F1F1F1" height="64.2969" id="Contrato" rx="2.5" ry="2.5" style="stroke:#181818;stroke-width:0.5;" width="97" x="263" y="165"/><ellipse cx="278" cy="181" fill="#ADD1B2" rx="11" ry="11" style="stroke:#181818;stroke-width:1.0;"/><path d="M280.3438,176.6719 C279.4063,176.2344 278.8125,176.0938 277.9375,176.0938 C275.3125,176.0938 273.3125,178.1719 273.3125,180.8906 L273.3125,182.0156 C273.3125,184.5938 275.4219,186.4844 278.3125,186.4844 C279.5313,186.4844 280.6875,186.1875 281.4375,185.6406 C282.0156,185.2344 282.3438,184.7813 282.3438,184.3906 C282.3438,183.9375 281.9531,183.5469 281.4844,183.5469 C281.2656,183.5469 281.0625,183.625 280.875,183.8125 C280.4219,184.2969 280.4219,184.2969 280.2344,184.3906 C279.8125,184.6563 279.125,184.7813 278.3594,184.7813 C276.3125,184.7813 275.0156,183.6875 275.0156,181.9844 L275.0156,180.8906 C275.0156,179.1094 276.2656,177.7969 278,177.7969 C278.5781,177.7969 279.1875,177.9531 279.6563,178.2031 C280.1406,178.4844 280.3125,178.7031 280.4063,179.1094 C280.4688,179.5156 280.5,179.6406 280.6406,179.7656 C280.7813,179.9063 281.0156,180.0156 281.2344,180.0156 C281.5,180.0156 281.7656,179.875 281.9375,179.6563 C282.0469,179.5 282.0781,179.3125 282.0781,178.8906 L282.0781,177.4688 C282.0781,177.0313 282.0625,176.9063 281.9688,176.75 C281.8125,176.4844 281.5313,176.3438 281.2344,176.3438 C280.9375,176.3438 280.7344,176.4375 280.5156,176.75 L280.3438,176.6719 Z " fill="#000000"/><text fill="#000000" font-family="sans-serif" font-size="14" lengthAdjust="spacing" textLength="65" x="292" y="185.8467">Contrato</text><line style="stroke:#181818;stroke-width:0.5;" x1="264" x2="359" y1="197" y2="197"/><ellipse cx="274" cy="210.6484" fill="none" rx="3" ry="3" style="stroke:#038048;stroke-width:1.0;"/><text fill="#000000" font-family="sans-serif" font-size="14" lengthAdjust="spacing" textLength="32" x="283" y="213.9951">Tipo</text><line style="stroke:#181818;stroke-width:0.5;" x1="264" x2="359" y1="221.2969" y2="221.2969"/></g><!--link Trabajadores to Contrato--><g id="link_Trabajadores_Contrato"><path codeLine="29" d="M236.834,88.027 C253.475,112.092 274.436,142.402 289.909,164.778 " fill="none" id="Trabajadores-Contrato" style="stroke:#181818;stroke-width:1.0;"/><text fill="#000000" font-family="sans-serif" font-size="13" lengthAdjust="spacing" textLength="35" x="268.5" y="131.0669">Tiene</text></g><!--link Trabajadores to LectorDeHuellas--><g id="link_Trabajadores_LectorDeHuellas"><path codeLine="30" d="M175.198,88.027 C154.315,112.092 128.012,142.402 108.594,164.778 " fill="none" id="Trabajadores-LectorDeHuellas" style="stroke:#181818;stroke-width:1.0;"/><text fill="#000000" font-family="sans-serif" font-size="13" lengthAdjust="spacing" textLength="24" x="146.5" y="131.0669">Usa</text></g><!--link LectorDeHuellas to Fichaje--><g id="link_LectorDeHuellas_Fichaje"><path codeLine="31" d="M81.7,229.094 C81.8413,251.074 82.0334,280.949 82.194,305.914 " fill="none" id="LectorDeHuellas-Fichaje" style="stroke:#181818;stroke-width:1.0;"/><text fill="#000000" font-family="sans-serif" font-size="13" lengthAdjust="spacing" textLength="76" x="83.5" y="272.0669">Se usa para</text></g><!--link Fichaje to Informe--><g id="link_Fichaje_Informe"><path codeLine="32" d="M74.4598,403.105 C73.5816,418.422 74.4662,435.241 79.5,450 C83.0109,460.294 88.3187,470.312 94.429,479.651 " fill="none" id="Fichaje-Informe" style="stroke:#181818;stroke-width:1.0;"/><text fill="#000000" font-family="sans-serif" font-size="13" lengthAdjust="spacing" textLength="102" x="80.5" y="446.0669">Se describen en</text></g><!--link Informe to Horario--><g id="link_Informe_Horario"><path codeLine="33" d="M145.5,593.466 C145.5,617.925 145.5,646.317 145.5,669.7598 " fill="none" id="Informe-Horario" style="stroke:#181818;stroke-width:1.0;stroke-dasharray:7.0,7.0;"/><text fill="#000000" font-family="sans-serif" font-size="13" lengthAdjust="spacing" textLength="146" x="146.5" y="636.0669">Verifica que se cumpla</text></g><!--link Trabajadores to Informe--><g id="link_Trabajadores_Informe"><path codeLine="35" d="M212.487,88.058 C216.87,160.994 221.22,320.998 187.5,450 C184.907,459.92 181.106,470.05 176.835,479.707 " fill="none" id="Trabajadores-Informe" style="stroke:#181818;stroke-width:1.0;"/><text fill="#000000" font-family="sans-serif" font-size="13" lengthAdjust="spacing" textLength="43" x="215.5" y="272.0669">Revisa</text></g><!--SRC=[XP7DJiCm48JlVegze_O1kFP7L48SIEbzOq-5gyHErmaNnBkpRkFqJmZVTlQRaJss3QT4M-6Q3-oY87qRqlD4Rx6j1UEmSGYzttkR6VDZxCds2jj7MU9bGAD2SPx7YLfx-ya7bEqQEXOo2gz2B-okbOeRxox-JTX7QV_qfwM_6Ikq74Ob2-BZOcWxZOnJvAYNoDk4Vo-qY9de9_lMTpdQcEiQQJQRG7fM1W4Fm5s1odqaDlUgWcE72bIW8J5rB6oAgi1OqXbmI5PyZK08fcpcy_9iXNQGqs_ISG0baCqDyUCBBh7l-FA9Vm40]--></g></svg>