<?xml version="1.0" encoding="us-ascii" standalone="no"?><svg xmlns="http://www.w3.org/2000/svg" xmlns:xlink="http://www.w3.org/1999/xlink" contentStyleType="text/css" height="681px" preserveAspectRatio="none" style="width:851px;height:681px;background:#FFFFFF;" version="1.1" viewBox="0 0 851 681" width="851px" zoomAndPan="magnify"><defs/><g><ellipse cx="411.5" cy="16" fill="#222222" rx="10" ry="10" style="stroke:#222222;stroke-width:1.0;"/><g id="Usuario"><rect fill="#F1F1F1" height="50" rx="12.5" ry="12.5" style="stroke:#181818;stroke-width:0.5;" width="71" x="376" y="103"/><line style="stroke:#181818;stroke-width:0.5;" x1="376" x2="447" y1="129.2969" y2="129.2969"/><text fill="#000000" font-family="sans-serif" font-size="14" lengthAdjust="spacing" textLength="51" x="386" y="120.9951">Usuario</text></g><g id="accion"><rect fill="#F1F1F1" height="50" rx="12.5" ry="12.5" style="stroke:#181818;stroke-width:0.5;" width="66" x="378.5" y="214"/><line style="stroke:#181818;stroke-width:0.5;" x1="378.5" x2="444.5" y1="240.2969" y2="240.2969"/><text fill="#000000" font-family="sans-serif" font-size="14" lengthAdjust="spacing" textLength="46" x="388.5" y="231.9951">accion</text></g><path d="M19.5,341 L371.5,341 A12.5,12.5 0 0 1 384,353.5 L384,367.2969 L7,367.2969 L7,353.5 A12.5,12.5 0 0 1 19.5,341 " fill="#F1F1F1" style="stroke:#F1F1F1;stroke-width:1.0;"/><rect fill="none" height="334.2969" rx="12.5" ry="12.5" style="stroke:#181818;stroke-width:0.5;" width="377" x="7" y="341"/><line style="stroke:#181818;stroke-width:0.5;" x1="7" x2="384" y1="367.2969" y2="367.2969"/><text fill="#000000" font-family="sans-serif" font-size="14" lengthAdjust="spacing" textLength="117" x="137" y="358.9951">UsuarioEgresado</text><g id="elem_accion1"><polygon fill="#F1F1F1" points="40,435.2969,52,447.2969,40,459.2969,28,447.2969,40,435.2969" style="stroke:#181818;stroke-width:0.5;"/></g><ellipse cx="40" cy="388.2969" fill="#222222" rx="10" ry="10" style="stroke:#222222;stroke-width:1.0;"/><ellipse cx="44" cy="640.2969" fill="none" rx="11" ry="11" style="stroke:#222222;stroke-width:1.0;"/><ellipse cx="44" cy="640.2969" fill="#222222" rx="6" ry="6" style="stroke:#222222;stroke-width:1.0;"/><g id="UsuarioEgresado.Egresado"><rect fill="#F1F1F1" height="50" rx="12.5" ry="12.5" style="stroke:#181818;stroke-width:0.5;" width="86" x="170" y="512.2969"/><line style="stroke:#181818;stroke-width:0.5;" x1="170" x2="256" y1="538.5938" y2="538.5938"/><text fill="#000000" font-family="sans-serif" font-size="14" lengthAdjust="spacing" textLength="66" x="180" y="530.292">Egresado</text></g><g id="UsuarioEgresado.Suscrito"><rect fill="#F1F1F1" height="50" rx="12.5" ry="12.5" style="stroke:#181818;stroke-width:0.5;" width="78" x="216" y="615.2969"/><line style="stroke:#181818;stroke-width:0.5;" x1="216" x2="294" y1="641.5938" y2="641.5938"/><text fill="#000000" font-family="sans-serif" font-size="14" lengthAdjust="spacing" textLength="58" x="226" y="633.292">Suscrito</text></g><!--link *start*UsuarioEgresado to accion1--><g id="link_*start*UsuarioEgresado_accion1"><path d="M40,398.4549 C40,408.3999 40,418.2929 40,429.0039 " fill="none" id="*start*UsuarioEgresado-to-accion1" style="stroke:#181818;stroke-width:1.0;"/><polygon fill="#181818" points="40,435.0039,44,426.0039,40,430.0039,36,426.0039,40,435.0039" style="stroke:#181818;stroke-width:1.0;"/></g><!--link accion1 to *end*UsuarioEgresado--><g id="link_accion1_*end*UsuarioEgresado"><path d="M38.5717,458.2459 C36.8468,470.8089 34.0467,493.0999 33,512.2969 C31.7901,534.4859 31.4247,540.1309 33,562.2969 C34.7231,586.5425 38.3865,608.8574 41.048,623.4748 " fill="none" id="accion1-to-*end*UsuarioEgresado" style="stroke:#181818;stroke-width:1.0;"/><polygon fill="#181818" points="42.1228,629.3778,44.4459,619.8068,41.2271,624.4587,36.5753,621.2399,42.1228,629.3778" style="stroke:#181818;stroke-width:1.0;"/><text fill="#000000" font-family="sans-serif" font-size="13" lengthAdjust="spacing" textLength="126" x="34" y="541.8638">no cumple requisito</text></g><!--link accion1 to Egresado--><g id="link_accion1_Egresado"><path d="M47.4336,452.0779 C68.1941,462.6379 122.6541,490.3405 164.3871,511.5695 " fill="none" id="accion1-to-Egresado" style="stroke:#181818;stroke-width:1.0;"/><polygon fill="#181818" points="169.735,514.2899,163.5268,506.6441,165.2785,512.0229,159.8996,513.7745,169.735,514.2899" style="stroke:#181818;stroke-width:1.0;"/><text fill="#000000" font-family="sans-serif" font-size="13" lengthAdjust="spacing" textLength="106" x="127" y="490.3638">cumple requisito</text></g><!--link Egresado to *end*UsuarioEgresado--><g id="link_Egresado_*end*UsuarioEgresado"><path d="M169.703,557.3689 C165.115,559.1369 160.487,560.8169 156,562.2969 C123.8552,572.8982 109.5754,560.6689 82,580.2969 C64.3318,592.8732 55.1124,610.9227 49.7632,624.1434 " fill="none" id="Egresado-to-*end*UsuarioEgresado" style="stroke:#181818;stroke-width:1.0;"/><polygon fill="#181818" points="47.5128,629.7054,54.5964,622.8627,49.3882,625.0704,47.1804,619.8621,47.5128,629.7054" style="stroke:#181818;stroke-width:1.0;"/><text fill="#000000" font-family="sans-serif" font-size="13" lengthAdjust="spacing" textLength="118" x="83" y="593.3638">se elimina registro</text></g><!--link Egresado to Suscrito--><g id="link_Egresado_Suscrito"><path d="M206.994,562.4309 C205.427,573.4747 205.299,586.4794 210,597.2969 C212.811,603.7657 213.0571,605.3164 217.9691,610.548 " fill="none" id="Egresado-to-Suscrito" style="stroke:#181818;stroke-width:1.0;"/><polygon fill="#181818" points="222.076,614.9222,218.8317,605.623,218.6536,611.2771,212.9995,611.0989,222.076,614.9222" style="stroke:#181818;stroke-width:1.0;"/><text fill="#000000" font-family="sans-serif" font-size="13" lengthAdjust="spacing" textLength="68" x="211" y="593.3638">se inscribe</text></g><!--link Suscrito to Egresado--><g id="link_Suscrito_Egresado"><path d="M275.21,615.2188 C281.854,604.3069 286.14,591.3933 280,580.2969 C274.549,570.4471 270.7585,565.8495 261.2695,559.7305 " fill="none" id="Suscrito-to-Egresado" style="stroke:#181818;stroke-width:1.0;"/><polygon fill="#181818" points="256.227,556.4789,261.623,564.718,260.4291,559.1886,265.9585,557.9947,256.227,556.4789" style="stroke:#181818;stroke-width:1.0;"/><text fill="#000000" font-family="sans-serif" font-size="13" lengthAdjust="spacing" textLength="91" x="283" y="593.3638">se desinscribe</text></g><path d="M431.5,423 L825.5,423 A12.5,12.5 0 0 1 838,435.5 L838,449.2969 L419,449.2969 L419,435.5 A12.5,12.5 0 0 1 431.5,423 " fill="#F1F1F1" style="stroke:#F1F1F1;stroke-width:1.0;"/><rect fill="none" height="170.2969" rx="12.5" ry="12.5" style="stroke:#181818;stroke-width:0.5;" width="419" x="419" y="423"/><line style="stroke:#181818;stroke-width:0.5;" x1="419" x2="838" y1="449.2969" y2="449.2969"/><text fill="#000000" font-family="sans-serif" font-size="14" lengthAdjust="spacing" textLength="153" x="552" y="440.9951">UsuarioAdministrador</text><ellipse cx="603" cy="470.2969" fill="#222222" rx="10" ry="10" style="stroke:#222222;stroke-width:1.0;"/><g id="UsuarioAdministrador.mirandoEstad&#237;sticas"><rect fill="#F1F1F1" height="50" rx="12.5" ry="12.5" style="stroke:#181818;stroke-width:0.5;" width="164" x="431" y="533.2969"/><line style="stroke:#181818;stroke-width:0.5;" x1="431" x2="595" y1="559.5938" y2="559.5938"/><text fill="#000000" font-family="sans-serif" font-size="14" lengthAdjust="spacing" textLength="144" x="441" y="551.292">mirandoEstad&#237;sticas</text></g><g id="UsuarioAdministrador.gestionandoServico"><rect fill="#F1F1F1" height="50" rx="12.5" ry="12.5" style="stroke:#181818;stroke-width:0.5;" width="162" x="613" y="533.2969"/><line style="stroke:#181818;stroke-width:0.5;" x1="613" x2="775" y1="559.5938" y2="559.5938"/><text fill="#000000" font-family="sans-serif" font-size="14" lengthAdjust="spacing" textLength="142" x="623" y="551.292">gestionandoServico</text></g><!--link *start*UsuarioAdministrador to mirandoEstad?sticas--><g id="link_*start*UsuarioAdministrador_mirandoEstad&#237;sticas"><path d="M593.422,473.2409 C580.124,476.3859 556.014,483.7612 541,498.2969 C531.225,507.7605 526.58,515.7022 522.1528,527.4339 " fill="none" id="*start*UsuarioAdministrador-to-mirandoEstad&#237;sticas" style="stroke:#181818;stroke-width:1.0;"/><polygon fill="#181818" points="520.0344,533.0475,526.9544,526.0394,521.7997,528.3695,519.4696,523.2148,520.0344,533.0475" style="stroke:#181818;stroke-width:1.0;"/><text fill="#000000" font-family="sans-serif" font-size="13" lengthAdjust="spacing" textLength="129" x="542" y="511.3638">llegan nuevos datos</text></g><!--link *start*UsuarioAdministrador to gestionandoServico--><g id="link_*start*UsuarioAdministrador_gestionandoServico"><path d="M612.847,472.5779 C627.632,475.0029 655.579,481.6099 672,498.2969 C681.278,507.7252 685.1604,515.6225 688.2994,527.4461 " fill="none" id="*start*UsuarioAdministrador-to-gestionandoServico" style="stroke:#181818;stroke-width:1.0;"/><polygon fill="#181818" points="689.839,533.2452,691.3957,523.5201,688.556,528.4126,683.6636,525.5729,689.839,533.2452" style="stroke:#181818;stroke-width:1.0;"/><text fill="#000000" font-family="sans-serif" font-size="13" lengthAdjust="spacing" textLength="144" x="684" y="511.3638">se crea nuevo servicio</text></g><!--link *start* to Usuario--><g id="link_*start*_Usuario"><path d="M411.5,26.002 C411.5,42.627 411.5,72.655 411.5,96.873 " fill="none" id="*start*-to-Usuario" style="stroke:#181818;stroke-width:1.0;"/><polygon fill="#181818" points="411.5,102.873,415.5,93.873,411.5,97.873,407.5,93.873,411.5,102.873" style="stroke:#181818;stroke-width:1.0;"/><text fill="#000000" font-family="sans-serif" font-size="13" lengthAdjust="spacing" textLength="98" x="412.5" y="69.0669">se crea usuario</text></g><!--link Usuario to accion--><g id="link_Usuario_accion"><path d="M411.5,153.191 C411.5,171.254 411.5,189.83 411.5,207.877 " fill="none" id="Usuario-to-accion" style="stroke:#181818;stroke-width:1.0;"/><polygon fill="#181818" points="411.5,213.877,415.5,204.877,411.5,208.877,407.5,204.877,411.5,213.877" style="stroke:#181818;stroke-width:1.0;"/></g><!--link accion to UsuarioEgresado--><g id="link_accion_UsuarioEgresado"><path d="M391.95,264.165 C376.789,282.907 358.0737,306.0413 333.6687,336.2083 " fill="none" id="accion-to-UsuarioEgresado" style="stroke:#181818;stroke-width:1.0;"/><polygon fill="#181818" points="329.895,340.873,338.6653,336.3918,333.0398,336.9858,332.4458,331.3602,329.895,340.873" style="stroke:#181818;stroke-width:1.0;"/><text fill="#000000" font-family="sans-serif" font-size="13" lengthAdjust="spacing" textLength="79" x="366.5" y="307.0669">es egresado</text></g><!--link accion to UsuarioAdministrador--><g id="link_accion_UsuarioAdministrador"><path d="M431.14,264.165 C460.039,299.723 511.6508,363.2279 556.4148,418.3059 " fill="none" id="accion-to-UsuarioAdministrador" style="stroke:#181818;stroke-width:1.0;"/><polygon fill="#181818" points="560.199,422.962,557.6268,413.455,557.0455,419.0819,551.4186,418.5006,560.199,422.962" style="stroke:#181818;stroke-width:1.0;"/><text fill="#000000" font-family="sans-serif" font-size="13" lengthAdjust="spacing" textLength="103" x="465.5" y="307.0669">es administador</text></g><!--SRC=[RP4zRiCm38LtdO9pW0nTYy10Xvp0w1HaO2N29M1BhIXb2NAadg8NAsN9gPrs4lZUnr-TTcVOxpjubOoH0po34DX82BagPd4AXTPoyAO-wxpZ44dGbNmIe1Rz0xwuYJrBYch7IcEJYcBqIVHOzMhwMQxbdk1miE-1BNMTEUtEMhqPPW5AGtMqlWzWy_Gn4aJwp2oSmePQ3Vw7ktk_vVGuDBBEYyeDPOy7hCzYeoPNbds9tiWiyhhbJ3YIEtJRRhyvrRLj2XD7z2uSoxs-loInHT5cuqW3Ul2PBa70OGhICWPIAFYIr5Eyi5r_yinhL7JzwziF]--></g></svg>