<?xml version="1.0" encoding="us-ascii" standalone="no"?><svg xmlns="http://www.w3.org/2000/svg" xmlns:xlink="http://www.w3.org/1999/xlink" contentStyleType="text/css" height="655px" preserveAspectRatio="none" style="width:1033px;height:655px;background:#FFFFFF;" version="1.1" viewBox="0 0 1033 655" width="1033px" zoomAndPan="magnify"><defs/><g><ellipse cx="457.5" cy="16" fill="#222222" rx="10" ry="10" style="stroke:#222222;stroke-width:1.0;"/><g id="Usuario"><rect fill="#F1F1F1" height="50" rx="12.5" ry="12.5" style="stroke:#181818;stroke-width:0.5;" width="71" x="422" y="103"/><line style="stroke:#181818;stroke-width:0.5;" x1="422" x2="493" y1="129.2969" y2="129.2969"/><text fill="#000000" font-family="sans-serif" font-size="14" lengthAdjust="spacing" textLength="51" x="432" y="120.9951">Usuario</text></g><g id="elem_accion"><polygon fill="#F1F1F1" points="457.5,214,469.5,226,457.5,238,445.5,226,457.5,214" style="stroke:#181818;stroke-width:0.5;"/></g><path d="M19.5,315 L371.5,315 A12.5,12.5 0 0 1 384,327.5 L384,341.2969 L7,341.2969 L7,327.5 A12.5,12.5 0 0 1 19.5,315 " fill="#F1F1F1" style="stroke:#F1F1F1;stroke-width:1.0;"/><rect fill="none" height="334.2969" rx="12.5" ry="12.5" style="stroke:#181818;stroke-width:0.5;" width="377" x="7" y="315"/><line style="stroke:#181818;stroke-width:0.5;" x1="7" x2="384" y1="341.2969" y2="341.2969"/><text fill="#000000" font-family="sans-serif" font-size="14" lengthAdjust="spacing" textLength="117" x="137" y="332.9951">UsuarioEgresado</text><g id="elem_accion1"><polygon fill="#F1F1F1" points="40,409.2969,52,421.2969,40,433.2969,28,421.2969,40,409.2969" style="stroke:#181818;stroke-width:0.5;"/></g><ellipse cx="40" cy="362.2969" fill="#222222" rx="10" ry="10" style="stroke:#222222;stroke-width:1.0;"/><ellipse cx="44" cy="614.2969" fill="none" rx="11" ry="11" style="stroke:#222222;stroke-width:1.0;"/><ellipse cx="44" cy="614.2969" fill="#222222" rx="6" ry="6" style="stroke:#222222;stroke-width:1.0;"/><g id="UsuarioEgresado.Egresado"><rect fill="#F1F1F1" height="50" rx="12.5" ry="12.5" style="stroke:#181818;stroke-width:0.5;" width="86" x="170" y="486.2969"/><line style="stroke:#181818;stroke-width:0.5;" x1="170" x2="256" y1="512.5938" y2="512.5938"/><text fill="#000000" font-family="sans-serif" font-size="14" lengthAdjust="spacing" textLength="66" x="180" y="504.292">Egresado</text></g><g id="UsuarioEgresado.Suscrito"><rect fill="#F1F1F1" height="50" rx="12.5" ry="12.5" style="stroke:#181818;stroke-width:0.5;" width="78" x="216" y="589.2969"/><line style="stroke:#181818;stroke-width:0.5;" x1="216" x2="294" y1="615.5938" y2="615.5938"/><text fill="#000000" font-family="sans-serif" font-size="14" lengthAdjust="spacing" textLength="58" x="226" y="607.292">Suscrito</text></g><!--link *start*UsuarioEgresado to accion1--><g id="link_*start*UsuarioEgresado_accion1"><path d="M40,372.4549 C40,382.3999 40,392.2929 40,403.0039 " fill="none" id="*start*UsuarioEgresado-to-accion1" style="stroke:#181818;stroke-width:1.0;"/><polygon fill="#181818" points="40,409.0039,44,400.0039,40,404.0039,36,400.0039,40,409.0039" style="stroke:#181818;stroke-width:1.0;"/></g><!--link accion1 to *end*UsuarioEgresado--><g id="link_accion1_*end*UsuarioEgresado"><path d="M38.5717,432.2459 C36.8468,444.8089 34.0467,467.0999 33,486.2969 C31.7901,508.4859 31.4247,514.1309 33,536.2969 C34.7231,560.5425 38.3865,582.8574 41.048,597.4748 " fill="none" id="accion1-to-*end*UsuarioEgresado" style="stroke:#181818;stroke-width:1.0;"/><polygon fill="#181818" points="42.1228,603.3778,44.4459,593.8068,41.2271,598.4587,36.5753,595.2399,42.1228,603.3778" style="stroke:#181818;stroke-width:1.0;"/><text fill="#000000" font-family="sans-serif" font-size="13" lengthAdjust="spacing" textLength="126" x="34" y="515.8638">no cumple requisito</text></g><!--link accion1 to Egresado--><g id="link_accion1_Egresado"><path d="M47.4336,426.0779 C68.1941,436.6379 122.6541,464.3405 164.3871,485.5695 " fill="none" id="accion1-to-Egresado" style="stroke:#181818;stroke-width:1.0;"/><polygon fill="#181818" points="169.735,488.2899,163.5268,480.6441,165.2785,486.0229,159.8996,487.7745,169.735,488.2899" style="stroke:#181818;stroke-width:1.0;"/><text fill="#000000" font-family="sans-serif" font-size="13" lengthAdjust="spacing" textLength="106" x="127" y="464.3638">cumple requisito</text></g><!--link Egresado to *end*UsuarioEgresado--><g id="link_Egresado_*end*UsuarioEgresado"><path d="M169.703,531.3689 C165.115,533.1369 160.487,534.8169 156,536.2969 C123.8552,546.8982 109.5754,534.6689 82,554.2969 C64.3318,566.8732 55.1124,584.9227 49.7632,598.1434 " fill="none" id="Egresado-to-*end*UsuarioEgresado" style="stroke:#181818;stroke-width:1.0;"/><polygon fill="#181818" points="47.5128,603.7054,54.5964,596.8627,49.3882,599.0704,47.1804,593.8621,47.5128,603.7054" style="stroke:#181818;stroke-width:1.0;"/><text fill="#000000" font-family="sans-serif" font-size="13" lengthAdjust="spacing" textLength="118" x="83" y="567.3638">se elimina registro</text></g><!--link Egresado to Suscrito--><g id="link_Egresado_Suscrito"><path d="M206.994,536.4309 C205.427,547.4747 205.299,560.4794 210,571.2969 C212.811,577.7657 213.0571,579.3164 217.9691,584.548 " fill="none" id="Egresado-to-Suscrito" style="stroke:#181818;stroke-width:1.0;"/><polygon fill="#181818" points="222.076,588.9222,218.8317,579.623,218.6536,585.2771,212.9995,585.0989,222.076,588.9222" style="stroke:#181818;stroke-width:1.0;"/><text fill="#000000" font-family="sans-serif" font-size="13" lengthAdjust="spacing" textLength="68" x="211" y="567.3638">se inscribe</text></g><!--link Suscrito to Egresado--><g id="link_Suscrito_Egresado"><path d="M275.21,589.2188 C281.854,578.3069 286.14,565.3933 280,554.2969 C274.549,544.4471 270.7585,539.8495 261.2695,533.7305 " fill="none" id="Suscrito-to-Egresado" style="stroke:#181818;stroke-width:1.0;"/><polygon fill="#181818" points="256.227,530.4789,261.623,538.718,260.4291,533.1886,265.9585,531.9947,256.227,530.4789" style="stroke:#181818;stroke-width:1.0;"/><text fill="#000000" font-family="sans-serif" font-size="13" lengthAdjust="spacing" textLength="91" x="283" y="567.3638">se desinscribe</text></g><path d="M431.5,397 L1007.5,397 A12.5,12.5 0 0 1 1020,409.5 L1020,423.2969 L419,423.2969 L419,409.5 A12.5,12.5 0 0 1 431.5,397 " fill="#F1F1F1" style="stroke:#F1F1F1;stroke-width:1.0;"/><rect fill="none" height="170.2969" rx="12.5" ry="12.5" style="stroke:#181818;stroke-width:0.5;" width="601" x="419" y="397"/><line style="stroke:#181818;stroke-width:0.5;" x1="419" x2="1020" y1="423.2969" y2="423.2969"/><text fill="#000000" font-family="sans-serif" font-size="14" lengthAdjust="spacing" textLength="153" x="643" y="414.9951">UsuarioAdministrador</text><ellipse cx="694" cy="444.2969" fill="#222222" rx="10" ry="10" style="stroke:#222222;stroke-width:1.0;"/><g id="UsuarioAdministrador.mirandoEstad&#237;sticas"><rect fill="#F1F1F1" height="50" rx="12.5" ry="12.5" style="stroke:#181818;stroke-width:0.5;" width="164" x="431" y="507.2969"/><line style="stroke:#181818;stroke-width:0.5;" x1="431" x2="595" y1="533.5938" y2="533.5938"/><text fill="#000000" font-family="sans-serif" font-size="14" lengthAdjust="spacing" textLength="144" x="441" y="525.292">mirandoEstad&#237;sticas</text></g><g id="UsuarioAdministrador.gestionandoServico"><rect fill="#F1F1F1" height="50" rx="12.5" ry="12.5" style="stroke:#181818;stroke-width:0.5;" width="162" x="613" y="507.2969"/><line style="stroke:#181818;stroke-width:0.5;" x1="613" x2="775" y1="533.5938" y2="533.5938"/><text fill="#000000" font-family="sans-serif" font-size="14" lengthAdjust="spacing" textLength="142" x="623" y="525.292">gestionandoServico</text></g><g id="UsuarioAdministrador.gestionandoPaquetes"><rect fill="#F1F1F1" height="50" rx="12.5" ry="12.5" style="stroke:#181818;stroke-width:0.5;" width="175" x="793.5" y="507.2969"/><line style="stroke:#181818;stroke-width:0.5;" x1="793.5" x2="968.5" y1="533.5938" y2="533.5938"/><text fill="#000000" font-family="sans-serif" font-size="14" lengthAdjust="spacing" textLength="155" x="803.5" y="525.292">gestionandoPaquetes</text></g><!--link *start*UsuarioAdministrador to mirandoEstad?sticas--><g id="link_*start*UsuarioAdministrador_mirandoEstad&#237;sticas"><path d="M683.998,445.0089 C660.387,444.7879 600.085,446.9379 559,472.2969 C545.295,480.7561 537.3247,489.8199 529.3971,502.1185 " fill="none" id="*start*UsuarioAdministrador-to-mirandoEstad&#237;sticas" style="stroke:#181818;stroke-width:1.0;"/><polygon fill="#181818" points="526.1464,507.1616,534.3846,501.7641,528.8553,502.959,527.6605,497.4298,526.1464,507.1616" style="stroke:#181818;stroke-width:1.0;"/><text fill="#000000" font-family="sans-serif" font-size="13" lengthAdjust="spacing" textLength="129" x="560" y="485.3638">llegan nuevos datos</text></g><!--link *start*UsuarioAdministrador to gestionandoServico--><g id="link_*start*UsuarioAdministrador_gestionandoServico"><path d="M694,454.5009 C694,466.9798 694,483.7188 694,501.2267 " fill="none" id="*start*UsuarioAdministrador-to-gestionandoServico" style="stroke:#181818;stroke-width:1.0;"/><polygon fill="#181818" points="694,507.2267,698,498.2267,694,502.2267,690,498.2267,694,507.2267" style="stroke:#181818;stroke-width:1.0;"/><text fill="#000000" font-family="sans-serif" font-size="13" lengthAdjust="spacing" textLength="144" x="695" y="485.3638">se crea nuevo servicio</text></g><!--link *start*UsuarioAdministrador to gestionandoPaquetes--><g id="link_*start*UsuarioAdministrador_gestionandoPaquetes"><path d="M704.131,446.0569 C733.969,448.4589 820.872,456.6639 844,472.2969 C856.421,480.6926 862.8441,489.4124 868.8941,501.7259 " fill="none" id="*start*UsuarioAdministrador-to-gestionandoPaquetes" style="stroke:#181818;stroke-width:1.0;"/><polygon fill="#181818" points="871.54,507.111,871.1613,497.2694,869.3351,502.6234,863.9811,500.7972,871.54,507.111" style="stroke:#181818;stroke-width:1.0;"/><text fill="#000000" font-family="sans-serif" font-size="13" lengthAdjust="spacing" textLength="148" x="862" y="485.3638">se crea nuevo paquete</text></g><!--link *start* to Usuario--><g id="link_*start*_Usuario"><path d="M457.5,26.002 C457.5,42.627 457.5,72.655 457.5,96.873 " fill="none" id="*start*-to-Usuario" style="stroke:#181818;stroke-width:1.0;"/><polygon fill="#181818" points="457.5,102.873,461.5,93.873,457.5,97.873,453.5,93.873,457.5,102.873" style="stroke:#181818;stroke-width:1.0;"/><text fill="#000000" font-family="sans-serif" font-size="13" lengthAdjust="spacing" textLength="98" x="458.5" y="69.0669">se crea usuario</text></g><!--link Usuario to accion--><g id="link_Usuario_accion"><path d="M457.5,153.225 C457.5,172.666 457.5,193.068 457.5,207.829 " fill="none" id="Usuario-to-accion" style="stroke:#181818;stroke-width:1.0;"/><polygon fill="#181818" points="457.5,213.829,461.5,204.829,457.5,208.829,453.5,204.829,457.5,213.829" style="stroke:#181818;stroke-width:1.0;"/></g><!--link accion to UsuarioEgresado--><g id="link_accion_UsuarioEgresado"><path d="M451.535,232.782 C438.434,245.483 409.5489,273.4867 371.2409,310.6247 " fill="none" id="accion-to-UsuarioEgresado" style="stroke:#181818;stroke-width:1.0;"/><polygon fill="#181818" points="366.933,314.801,376.1791,311.4084,370.5229,311.3207,370.6106,305.6645,366.933,314.801" style="stroke:#181818;stroke-width:1.0;"/><text fill="#000000" font-family="sans-serif" font-size="13" lengthAdjust="spacing" textLength="79" x="415.5" y="281.0669">es egresado</text></g><!--link accion to UsuarioAdministrador--><g id="link_accion_UsuarioAdministrador"><path d="M463.541,232.213 C472.418,239.91 489.453,254.829 503.5,268 C547.971,309.696 592.1365,352.9953 631.8365,392.5663 " fill="none" id="accion-to-UsuarioAdministrador" style="stroke:#181818;stroke-width:1.0;"/><polygon fill="#181818" points="636.086,396.802,632.5355,387.6154,632.5447,393.2722,626.8879,393.2814,636.086,396.802" style="stroke:#181818;stroke-width:1.0;"/><text fill="#000000" font-family="sans-serif" font-size="13" lengthAdjust="spacing" textLength="103" x="522.5" y="281.0669">es administador</text></g><!--SRC=[RP8zRiCm38LtdO9pW0nTYy10X-m5Z4v11bOcN0Asb8XIbY17wYboiL2sdDfnH_5zx_77FcoEiDrMy2K90tju1o6mWH3IM35rn4Y0rh9tiDlP7y-MgifCZkmULLEWMTw-3IJOv5mIeFBw1_neUdOiCQWSHXfBALUC35Eyf5uNmxtDfpjiZffU13C1kQ4gckyysDIVEe90vyJ2qI-esU0hxgdznUdHg6ET5vLhynulM9t41ZMFBBly-YOpbUSj1w8XUKAtvVQBKrtBfj1pGDVuVRxN_LSYMnHjrdNKeWENwE856enUYgCbXRpBffh2XUtyum-yld9T_u6LunFFYIB9od8Q1NDx0000]--></g></svg>