<?xml version="1.0" encoding="us-ascii" standalone="no"?><svg xmlns="http://www.w3.org/2000/svg" xmlns:xlink="http://www.w3.org/1999/xlink" contentStyleType="text/css" height="1010px" preserveAspectRatio="none" style="width:769px;height:1010px;" version="1.1" viewBox="0 0 769 1010" width="769px" zoomAndPan="magnify"><defs/><g><!--class Alumni_plataforma--><g id="elem_Alumni_plataforma"><rect codeLine="6" fill="#0B58A8" height="44" id="Alumni_plataforma" rx="2.5" ry="2.5" style="stroke:#FFFFFF;stroke-width:1.0;" width="164" x="12" y="166"/><ellipse cx="25" cy="180" fill="#0B58A8" rx="9" ry="9" style="stroke:#FFFFFF;stroke-width:1.0;"/><path d="M27.3438,175.6719 C26.4063,175.2344 25.8125,175.0938 24.9375,175.0938 C22.3125,175.0938 20.3125,177.1719 20.3125,179.8906 L20.3125,181.0156 C20.3125,183.5938 22.4219,185.4844 25.3125,185.4844 C26.5313,185.4844 27.6875,185.1875 28.4375,184.6406 C29.0156,184.2344 29.3438,183.7813 29.3438,183.3906 C29.3438,182.9375 28.9531,182.5469 28.4844,182.5469 C28.2656,182.5469 28.0625,182.625 27.875,182.8125 C27.4219,183.2969 27.4219,183.2969 27.2344,183.3906 C26.8125,183.6563 26.125,183.7813 25.3594,183.7813 C23.3125,183.7813 22.0156,182.6875 22.0156,180.9844 L22.0156,179.8906 C22.0156,178.1094 23.2656,176.7969 25,176.7969 C25.5781,176.7969 26.1875,176.9531 26.6563,177.2031 C27.1406,177.4844 27.3125,177.7031 27.4063,178.1094 C27.4688,178.5156 27.5,178.6406 27.6406,178.7656 C27.7813,178.9063 28.0156,179.0156 28.2344,179.0156 C28.5,179.0156 28.7656,178.875 28.9375,178.6563 C29.0469,178.5 29.0781,178.3125 29.0781,177.8906 L29.0781,176.4688 C29.0781,176.0313 29.0625,175.9063 28.9688,175.75 C28.8125,175.4844 28.5313,175.3438 28.2344,175.3438 C27.9375,175.3438 27.7344,175.4375 27.5156,175.75 L27.3438,175.6719 Z " fill="#FFFFFF"/><text fill="#FFFFFF" font-family="Arial" font-size="14" lengthAdjust="spacing" textLength="136" x="37" y="184.8467">Alumni_plataforma</text><line style="stroke:#FFFFFF;stroke-width:1.0;" x1="13" x2="175" y1="194" y2="194"/><line style="stroke:#FFFFFF;stroke-width:1.0;" x1="13" x2="175" y1="202" y2="202"/></g><!--class Alumni_usuario--><g id="elem_Alumni_usuario"><rect codeLine="7" fill="#0B58A8" height="141.7813" id="Alumni_usuario" rx="2.5" ry="2.5" style="stroke:#FFFFFF;stroke-width:1.0;" width="186" x="125" y="287"/><ellipse cx="161.4" cy="301" fill="#0B58A8" rx="9" ry="9" style="stroke:#FFFFFF;stroke-width:1.0;"/><path d="M163.7438,296.6719 C162.8063,296.2344 162.2125,296.0938 161.3375,296.0938 C158.7125,296.0938 156.7125,298.1719 156.7125,300.8906 L156.7125,302.0156 C156.7125,304.5938 158.8219,306.4844 161.7125,306.4844 C162.9313,306.4844 164.0875,306.1875 164.8375,305.6406 C165.4156,305.2344 165.7438,304.7813 165.7438,304.3906 C165.7438,303.9375 165.3531,303.5469 164.8844,303.5469 C164.6656,303.5469 164.4625,303.625 164.275,303.8125 C163.8219,304.2969 163.8219,304.2969 163.6344,304.3906 C163.2125,304.6563 162.525,304.7813 161.7594,304.7813 C159.7125,304.7813 158.4156,303.6875 158.4156,301.9844 L158.4156,300.8906 C158.4156,299.1094 159.6656,297.7969 161.4,297.7969 C161.9781,297.7969 162.5875,297.9531 163.0563,298.2031 C163.5406,298.4844 163.7125,298.7031 163.8063,299.1094 C163.8688,299.5156 163.9,299.6406 164.0406,299.7656 C164.1813,299.9063 164.4156,300.0156 164.6344,300.0156 C164.9,300.0156 165.1656,299.875 165.3375,299.6563 C165.4469,299.5 165.4781,299.3125 165.4781,298.8906 L165.4781,297.4688 C165.4781,297.0313 165.4625,296.9063 165.3688,296.75 C165.2125,296.4844 164.9313,296.3438 164.6344,296.3438 C164.3375,296.3438 164.1344,296.4375 163.9156,296.75 L163.7438,296.6719 Z " fill="#FFFFFF"/><text fill="#FFFFFF" font-family="Arial" font-size="14" lengthAdjust="spacing" textLength="106" x="178.6" y="305.8467">Alumni_usuario</text><line style="stroke:#FFFFFF;stroke-width:1.0;" x1="126" x2="310" y1="315" y2="315"/><rect fill="none" height="6" style="stroke:#FFFFFF;stroke-width:1.0;" width="6" x="133" y="325.6484"/><text fill="#FFFFFF" font-family="Arial" font-size="14" lengthAdjust="spacing" textLength="91" x="143" y="331.9951">alumniID: int</text><rect fill="none" height="6" style="stroke:#FFFFFF;stroke-width:1.0;" width="6" x="133" y="341.9453"/><text fill="#FFFFFF" font-family="Arial" font-size="14" lengthAdjust="spacing" textLength="108" x="143" y="348.292">nombre: string</text><rect fill="none" height="6" style="stroke:#FFFFFF;stroke-width:1.0;" width="6" x="133" y="358.2422"/><text fill="#FFFFFF" font-family="Arial" font-size="14" lengthAdjust="spacing" textLength="90" x="143" y="364.5889">email: string</text><rect fill="none" height="6" style="stroke:#FFFFFF;stroke-width:1.0;" width="6" x="133" y="374.5391"/><text fill="#FFFFFF" font-family="Arial" font-size="14" lengthAdjust="spacing" textLength="162" x="143" y="380.8857">fechaGraduacion: date</text><rect fill="none" height="6" style="stroke:#FFFFFF;stroke-width:1.0;" width="6" x="133" y="390.8359"/><text fill="#FFFFFF" font-family="Arial" font-size="14" lengthAdjust="spacing" textLength="142" x="143" y="397.1826">fechaDiploma: date</text><rect fill="none" height="6" style="stroke:#FFFFFF;stroke-width:1.0;" width="6" x="133" y="407.1328"/><text fill="#FFFFFF" font-family="Arial" font-size="14" lengthAdjust="spacing" textLength="91" x="143" y="413.4795">carnetID: int</text><line style="stroke:#FFFFFF;stroke-width:1.0;" x1="126" x2="310" y1="420.7813" y2="420.7813"/></g><!--class Universidad--><g id="elem_Universidad"><rect codeLine="16" fill="#0B58A8" height="76.5938" id="Universidad" rx="2.5" ry="2.5" style="stroke:#FFFFFF;stroke-width:1.0;" width="276" x="108" y="12"/><ellipse cx="201.25" cy="26" fill="#0B58A8" rx="9" ry="9" style="stroke:#FFFFFF;stroke-width:1.0;"/><path d="M203.5938,21.6719 C202.6563,21.2344 202.0625,21.0938 201.1875,21.0938 C198.5625,21.0938 196.5625,23.1719 196.5625,25.8906 L196.5625,27.0156 C196.5625,29.5938 198.6719,31.4844 201.5625,31.4844 C202.7813,31.4844 203.9375,31.1875 204.6875,30.6406 C205.2656,30.2344 205.5938,29.7813 205.5938,29.3906 C205.5938,28.9375 205.2031,28.5469 204.7344,28.5469 C204.5156,28.5469 204.3125,28.625 204.125,28.8125 C203.6719,29.2969 203.6719,29.2969 203.4844,29.3906 C203.0625,29.6563 202.375,29.7813 201.6094,29.7813 C199.5625,29.7813 198.2656,28.6875 198.2656,26.9844 L198.2656,25.8906 C198.2656,24.1094 199.5156,22.7969 201.25,22.7969 C201.8281,22.7969 202.4375,22.9531 202.9063,23.2031 C203.3906,23.4844 203.5625,23.7031 203.6563,24.1094 C203.7188,24.5156 203.75,24.6406 203.8906,24.7656 C204.0313,24.9063 204.2656,25.0156 204.4844,25.0156 C204.75,25.0156 205.0156,24.875 205.1875,24.6563 C205.2969,24.5 205.3281,24.3125 205.3281,23.8906 L205.3281,22.4688 C205.3281,22.0313 205.3125,21.9063 205.2188,21.75 C205.0625,21.4844 204.7813,21.3438 204.4844,21.3438 C204.1875,21.3438 203.9844,21.4375 203.7656,21.75 L203.5938,21.6719 Z " fill="#FFFFFF"/><text fill="#FFFFFF" font-family="Arial" font-size="14" lengthAdjust="spacing" textLength="82" x="218.75" y="30.8467">Universidad</text><line style="stroke:#FFFFFF;stroke-width:1.0;" x1="109" x2="383" y1="40" y2="40"/><rect fill="none" height="6" style="stroke:#FFFFFF;stroke-width:1.0;" width="6" x="116" y="50.6484"/><text fill="#FFFFFF" font-family="Arial" font-size="14" lengthAdjust="spacing" textLength="225" x="126" y="56.9951">gestionOfertasTrabajo: gestion</text><rect fill="none" height="6" style="stroke:#FFFFFF;stroke-width:1.0;" width="6" x="116" y="66.9453"/><text fill="#FFFFFF" font-family="Arial" font-size="14" lengthAdjust="spacing" textLength="252" x="126" y="73.292">gestionInformacionAlumni: gestion</text><line style="stroke:#FFFFFF;stroke-width:1.0;" x1="109" x2="383" y1="80.5938" y2="80.5938"/></g><!--class Suscripciones--><g id="elem_Suscripciones"><rect codeLine="21" fill="#0B58A8" height="92.8906" id="Suscripciones" rx="2.5" ry="2.5" style="stroke:#FFFFFF;stroke-width:1.0;" width="246" x="25" y="506"/><ellipse cx="95.25" cy="520" fill="#0B58A8" rx="9" ry="9" style="stroke:#FFFFFF;stroke-width:1.0;"/><path d="M97.5938,515.6719 C96.6563,515.2344 96.0625,515.0938 95.1875,515.0938 C92.5625,515.0938 90.5625,517.1719 90.5625,519.8906 L90.5625,521.0156 C90.5625,523.5938 92.6719,525.4844 95.5625,525.4844 C96.7813,525.4844 97.9375,525.1875 98.6875,524.6406 C99.2656,524.2344 99.5938,523.7813 99.5938,523.3906 C99.5938,522.9375 99.2031,522.5469 98.7344,522.5469 C98.5156,522.5469 98.3125,522.625 98.125,522.8125 C97.6719,523.2969 97.6719,523.2969 97.4844,523.3906 C97.0625,523.6563 96.375,523.7813 95.6094,523.7813 C93.5625,523.7813 92.2656,522.6875 92.2656,520.9844 L92.2656,519.8906 C92.2656,518.1094 93.5156,516.7969 95.25,516.7969 C95.8281,516.7969 96.4375,516.9531 96.9063,517.2031 C97.3906,517.4844 97.5625,517.7031 97.6563,518.1094 C97.7188,518.5156 97.75,518.6406 97.8906,518.7656 C98.0313,518.9063 98.2656,519.0156 98.4844,519.0156 C98.75,519.0156 99.0156,518.875 99.1875,518.6563 C99.2969,518.5 99.3281,518.3125 99.3281,517.8906 L99.3281,516.4688 C99.3281,516.0313 99.3125,515.9063 99.2188,515.75 C99.0625,515.4844 98.7813,515.3438 98.4844,515.3438 C98.1875,515.3438 97.9844,515.4375 97.7656,515.75 L97.5938,515.6719 Z " fill="#FFFFFF"/><text fill="#FFFFFF" font-family="Arial" font-size="14" lengthAdjust="spacing" textLength="98" x="112.75" y="524.8467">Suscripciones</text><line style="stroke:#FFFFFF;stroke-width:1.0;" x1="26" x2="270" y1="534" y2="534"/><rect fill="none" height="6" style="stroke:#FFFFFF;stroke-width:1.0;" width="6" x="33" y="544.6484"/><text fill="#FFFFFF" font-family="Arial" font-size="14" lengthAdjust="spacing" textLength="161" x="43" y="550.9951">modoPago: modoPago</text><rect fill="none" height="6" style="stroke:#FFFFFF;stroke-width:1.0;" width="6" x="33" y="560.9453"/><text fill="#FFFFFF" font-family="Arial" font-size="14" lengthAdjust="spacing" textLength="217" x="43" y="567.292">suscripcionTipo: suscripciones</text><rect fill="none" height="6" style="stroke:#FFFFFF;stroke-width:1.0;" width="6" x="33" y="577.2422"/><text fill="#FFFFFF" font-family="Arial" font-size="14" lengthAdjust="spacing" textLength="222" x="43" y="583.5889">serviciosAutorizados : servicios</text><line style="stroke:#FFFFFF;stroke-width:1.0;" x1="26" x2="270" y1="590.8906" y2="590.8906"/></g><!--class Servicios--><g id="elem_Servicios"><rect codeLine="26" fill="#0B58A8" height="125.4844" id="Servicios" rx="2.5" ry="2.5" style="stroke:#FFFFFF;stroke-width:1.0;" width="364" x="100" y="676"/><ellipse cx="246.25" cy="690" fill="#0B58A8" rx="9" ry="9" style="stroke:#FFFFFF;stroke-width:1.0;"/><path d="M248.5938,685.6719 C247.6563,685.2344 247.0625,685.0938 246.1875,685.0938 C243.5625,685.0938 241.5625,687.1719 241.5625,689.8906 L241.5625,691.0156 C241.5625,693.5938 243.6719,695.4844 246.5625,695.4844 C247.7813,695.4844 248.9375,695.1875 249.6875,694.6406 C250.2656,694.2344 250.5938,693.7813 250.5938,693.3906 C250.5938,692.9375 250.2031,692.5469 249.7344,692.5469 C249.5156,692.5469 249.3125,692.625 249.125,692.8125 C248.6719,693.2969 248.6719,693.2969 248.4844,693.3906 C248.0625,693.6563 247.375,693.7813 246.6094,693.7813 C244.5625,693.7813 243.2656,692.6875 243.2656,690.9844 L243.2656,689.8906 C243.2656,688.1094 244.5156,686.7969 246.25,686.7969 C246.8281,686.7969 247.4375,686.9531 247.9063,687.2031 C248.3906,687.4844 248.5625,687.7031 248.6563,688.1094 C248.7188,688.5156 248.75,688.6406 248.8906,688.7656 C249.0313,688.9063 249.2656,689.0156 249.4844,689.0156 C249.75,689.0156 250.0156,688.875 250.1875,688.6563 C250.2969,688.5 250.3281,688.3125 250.3281,687.8906 L250.3281,686.4688 C250.3281,686.0313 250.3125,685.9063 250.2188,685.75 C250.0625,685.4844 249.7813,685.3438 249.4844,685.3438 C249.1875,685.3438 248.9844,685.4375 248.7656,685.75 L248.5938,685.6719 Z " fill="#FFFFFF"/><text fill="#FFFFFF" font-family="Arial" font-size="14" lengthAdjust="spacing" textLength="64" x="263.75" y="694.8467">Servicios</text><line style="stroke:#FFFFFF;stroke-width:1.0;" x1="101" x2="463" y1="704" y2="704"/><rect fill="none" height="6" style="stroke:#FFFFFF;stroke-width:1.0;" width="6" x="108" y="714.6484"/><text fill="#FFFFFF" font-family="Arial" font-size="14" lengthAdjust="spacing" textLength="256" x="118" y="720.9951">acesoAInstalaciones: instalaciones[]</text><rect fill="none" height="6" style="stroke:#FFFFFF;stroke-width:1.0;" width="6" x="108" y="730.9453"/><text fill="#FFFFFF" font-family="Arial" font-size="14" lengthAdjust="spacing" textLength="182" x="118" y="737.292">acesoANewsLetters: bool</text><rect fill="none" height="6" style="stroke:#FFFFFF;stroke-width:1.0;" width="6" x="108" y="747.2422"/><text fill="#FFFFFF" font-family="Arial" font-size="14" lengthAdjust="spacing" textLength="184" x="118" y="753.5889">ofertasTrabajos: ofertas[]</text><rect fill="none" height="6" style="stroke:#FFFFFF;stroke-width:1.0;" width="6" x="108" y="763.5391"/><text fill="#FFFFFF" font-family="Arial" font-size="14" lengthAdjust="spacing" textLength="340" x="118" y="769.8857">informacionGeneralAlumni: informaciongeneral</text><rect fill="none" height="6" style="stroke:#FFFFFF;stroke-width:1.0;" width="6" x="108" y="779.8359"/><text fill="#FFFFFF" font-family="Arial" font-size="14" lengthAdjust="spacing" textLength="73" x="118" y="786.1826">chat: chat</text><line style="stroke:#FFFFFF;stroke-width:1.0;" x1="101" x2="463" y1="793.4844" y2="793.4844"/></g><!--class Ofertas--><g id="elem_Ofertas"><rect codeLine="33" fill="#0B58A8" height="76.5938" id="Ofertas" rx="2.5" ry="2.5" style="stroke:#FFFFFF;stroke-width:1.0;" width="235" x="500.5" y="902"/><ellipse cx="587.25" cy="916" fill="#0B58A8" rx="9" ry="9" style="stroke:#FFFFFF;stroke-width:1.0;"/><path d="M589.5938,911.6719 C588.6563,911.2344 588.0625,911.0938 587.1875,911.0938 C584.5625,911.0938 582.5625,913.1719 582.5625,915.8906 L582.5625,917.0156 C582.5625,919.5938 584.6719,921.4844 587.5625,921.4844 C588.7813,921.4844 589.9375,921.1875 590.6875,920.6406 C591.2656,920.2344 591.5938,919.7813 591.5938,919.3906 C591.5938,918.9375 591.2031,918.5469 590.7344,918.5469 C590.5156,918.5469 590.3125,918.625 590.125,918.8125 C589.6719,919.2969 589.6719,919.2969 589.4844,919.3906 C589.0625,919.6563 588.375,919.7813 587.6094,919.7813 C585.5625,919.7813 584.2656,918.6875 584.2656,916.9844 L584.2656,915.8906 C584.2656,914.1094 585.5156,912.7969 587.25,912.7969 C587.8281,912.7969 588.4375,912.9531 588.9063,913.2031 C589.3906,913.4844 589.5625,913.7031 589.6563,914.1094 C589.7188,914.5156 589.75,914.6406 589.8906,914.7656 C590.0313,914.9063 590.2656,915.0156 590.4844,915.0156 C590.75,915.0156 591.0156,914.875 591.1875,914.6563 C591.2969,914.5 591.3281,914.3125 591.3281,913.8906 L591.3281,912.4688 C591.3281,912.0313 591.3125,911.9063 591.2188,911.75 C591.0625,911.4844 590.7813,911.3438 590.4844,911.3438 C590.1875,911.3438 589.9844,911.4375 589.7656,911.75 L589.5938,911.6719 Z " fill="#FFFFFF"/><text fill="#FFFFFF" font-family="Arial" font-size="14" lengthAdjust="spacing" textLength="54" x="604.75" y="920.8467">Ofertas</text><line style="stroke:#FFFFFF;stroke-width:1.0;" x1="501.5" x2="734.5" y1="930" y2="930"/><rect fill="none" height="6" style="stroke:#FFFFFF;stroke-width:1.0;" width="6" x="508.5" y="940.6484"/><text fill="#FFFFFF" font-family="Arial" font-size="14" lengthAdjust="spacing" textLength="211" x="518.5" y="946.9951">empresaInteresada: empresa</text><rect fill="none" height="6" style="stroke:#FFFFFF;stroke-width:1.0;" width="6" x="508.5" y="956.9453"/><text fill="#FFFFFF" font-family="Arial" font-size="14" lengthAdjust="spacing" textLength="137" x="518.5" y="963.292">informacion: string</text><line style="stroke:#FFFFFF;stroke-width:1.0;" x1="501.5" x2="734.5" y1="970.5938" y2="970.5938"/></g><!--class Instalaciones--><g id="elem_Instalaciones"><rect codeLine="37" fill="#0B58A8" height="125.4844" id="Instalaciones" rx="2.5" ry="2.5" style="stroke:#FFFFFF;stroke-width:1.0;" width="276" x="144" y="878"/><ellipse cx="231.75" cy="892" fill="#0B58A8" rx="9" ry="9" style="stroke:#FFFFFF;stroke-width:1.0;"/><path d="M234.0938,887.6719 C233.1563,887.2344 232.5625,887.0938 231.6875,887.0938 C229.0625,887.0938 227.0625,889.1719 227.0625,891.8906 L227.0625,893.0156 C227.0625,895.5938 229.1719,897.4844 232.0625,897.4844 C233.2813,897.4844 234.4375,897.1875 235.1875,896.6406 C235.7656,896.2344 236.0938,895.7813 236.0938,895.3906 C236.0938,894.9375 235.7031,894.5469 235.2344,894.5469 C235.0156,894.5469 234.8125,894.625 234.625,894.8125 C234.1719,895.2969 234.1719,895.2969 233.9844,895.3906 C233.5625,895.6563 232.875,895.7813 232.1094,895.7813 C230.0625,895.7813 228.7656,894.6875 228.7656,892.9844 L228.7656,891.8906 C228.7656,890.1094 230.0156,888.7969 231.75,888.7969 C232.3281,888.7969 232.9375,888.9531 233.4063,889.2031 C233.8906,889.4844 234.0625,889.7031 234.1563,890.1094 C234.2188,890.5156 234.25,890.6406 234.3906,890.7656 C234.5313,890.9063 234.7656,891.0156 234.9844,891.0156 C235.25,891.0156 235.5156,890.875 235.6875,890.6563 C235.7969,890.5 235.8281,890.3125 235.8281,889.8906 L235.8281,888.4688 C235.8281,888.0313 235.8125,887.9063 235.7188,887.75 C235.5625,887.4844 235.2813,887.3438 234.9844,887.3438 C234.6875,887.3438 234.4844,887.4375 234.2656,887.75 L234.0938,887.6719 Z " fill="#FFFFFF"/><text fill="#FFFFFF" font-family="Arial" font-size="14" lengthAdjust="spacing" textLength="93" x="249.25" y="896.8467">Instalaciones</text><line style="stroke:#FFFFFF;stroke-width:1.0;" x1="145" x2="419" y1="906" y2="906"/><rect fill="none" height="6" style="stroke:#FFFFFF;stroke-width:1.0;" width="6" x="152" y="916.6484"/><text fill="#FFFFFF" font-family="Arial" font-size="14" lengthAdjust="spacing" textLength="155" x="162" y="922.9951">biblioteca: biblioteca</text><rect fill="none" height="6" style="stroke:#FFFFFF;stroke-width:1.0;" width="6" x="152" y="932.9453"/><text fill="#FFFFFF" font-family="Arial" font-size="14" lengthAdjust="spacing" textLength="252" x="162" y="939.292">laboratorioInform&#225;tica: laboratorio</text><rect fill="none" height="6" style="stroke:#FFFFFF;stroke-width:1.0;" width="6" x="152" y="949.2422"/><text fill="#FFFFFF" font-family="Arial" font-size="14" lengthAdjust="spacing" textLength="221" x="162" y="955.5889">laboratorioCiencia: laboratorio</text><rect fill="none" height="6" style="stroke:#FFFFFF;stroke-width:1.0;" width="6" x="152" y="965.5391"/><text fill="#FFFFFF" font-family="Arial" font-size="14" lengthAdjust="spacing" textLength="165" x="162" y="971.8857">salonActos: salonActos</text><rect fill="none" height="6" style="stroke:#FFFFFF;stroke-width:1.0;" width="6" x="152" y="981.8359"/><text fill="#FFFFFF" font-family="Arial" font-size="14" lengthAdjust="spacing" textLength="137" x="162" y="988.1826">gimnasio: gimnasio</text><line style="stroke:#FFFFFF;stroke-width:1.0;" x1="145" x2="419" y1="995.4844" y2="995.4844"/></g><!--class formasRegistro--><g id="elem_formasRegistro"><rect codeLine="45" fill="#0B58A8" height="92.8906" id="formasRegistro" rx="2.5" ry="2.5" style="stroke:#FFFFFF;stroke-width:1.0;" width="160" x="306" y="506"/><ellipse cx="328.45" cy="520" fill="#0B58A8" rx="9" ry="9" style="stroke:#FFFFFF;stroke-width:1.0;"/><path d="M330.7938,515.6719 C329.8563,515.2344 329.2625,515.0938 328.3875,515.0938 C325.7625,515.0938 323.7625,517.1719 323.7625,519.8906 L323.7625,521.0156 C323.7625,523.5938 325.8719,525.4844 328.7625,525.4844 C329.9813,525.4844 331.1375,525.1875 331.8875,524.6406 C332.4656,524.2344 332.7938,523.7813 332.7938,523.3906 C332.7938,522.9375 332.4031,522.5469 331.9344,522.5469 C331.7156,522.5469 331.5125,522.625 331.325,522.8125 C330.8719,523.2969 330.8719,523.2969 330.6844,523.3906 C330.2625,523.6563 329.575,523.7813 328.8094,523.7813 C326.7625,523.7813 325.4656,522.6875 325.4656,520.9844 L325.4656,519.8906 C325.4656,518.1094 326.7156,516.7969 328.45,516.7969 C329.0281,516.7969 329.6375,516.9531 330.1063,517.2031 C330.5906,517.4844 330.7625,517.7031 330.8563,518.1094 C330.9188,518.5156 330.95,518.6406 331.0906,518.7656 C331.2313,518.9063 331.4656,519.0156 331.6844,519.0156 C331.95,519.0156 332.2156,518.875 332.3875,518.6563 C332.4969,518.5 332.5281,518.3125 332.5281,517.8906 L332.5281,516.4688 C332.5281,516.0313 332.5125,515.9063 332.4188,515.75 C332.2625,515.4844 331.9813,515.3438 331.6844,515.3438 C331.3875,515.3438 331.1844,515.4375 330.9656,515.75 L330.7938,515.6719 Z " fill="#FFFFFF"/><text fill="#FFFFFF" font-family="Arial" font-size="14" lengthAdjust="spacing" textLength="111" x="342.55" y="524.8467">formasRegistro</text><line style="stroke:#FFFFFF;stroke-width:1.0;" x1="307" x2="465" y1="534" y2="534"/><rect fill="none" height="6" style="stroke:#FFFFFF;stroke-width:1.0;" width="6" x="314" y="544.6484"/><text fill="#FFFFFF" font-family="Arial" font-size="14" lengthAdjust="spacing" textLength="90" x="324" y="550.9951">email: string</text><rect fill="none" height="6" style="stroke:#FFFFFF;stroke-width:1.0;" width="6" x="314" y="560.9453"/><text fill="#FFFFFF" font-family="Arial" font-size="14" lengthAdjust="spacing" textLength="91" x="324" y="567.292">carnetID: int</text><rect fill="none" height="6" style="stroke:#FFFFFF;stroke-width:1.0;" width="6" x="314" y="577.2422"/><text fill="#FFFFFF" font-family="Arial" font-size="14" lengthAdjust="spacing" textLength="136" x="324" y="583.5889">nuevoAlumniID: int</text><line style="stroke:#FFFFFF;stroke-width:1.0;" x1="307" x2="465" y1="590.8906" y2="590.8906"/></g><!--class Empresa--><g id="elem_Empresa"><rect codeLine="50" fill="#0B58A8" height="44" id="Empresa" rx="2.5" ry="2.5" style="stroke:#FFFFFF;stroke-width:1.0;" width="91" x="671.5" y="716.5"/><ellipse cx="684.5" cy="730.5" fill="#0B58A8" rx="9" ry="9" style="stroke:#FFFFFF;stroke-width:1.0;"/><path d="M686.8438,726.1719 C685.9063,725.7344 685.3125,725.5938 684.4375,725.5938 C681.8125,725.5938 679.8125,727.6719 679.8125,730.3906 L679.8125,731.5156 C679.8125,734.0938 681.9219,735.9844 684.8125,735.9844 C686.0313,735.9844 687.1875,735.6875 687.9375,735.1406 C688.5156,734.7344 688.8438,734.2813 688.8438,733.8906 C688.8438,733.4375 688.4531,733.0469 687.9844,733.0469 C687.7656,733.0469 687.5625,733.125 687.375,733.3125 C686.9219,733.7969 686.9219,733.7969 686.7344,733.8906 C686.3125,734.1563 685.625,734.2813 684.8594,734.2813 C682.8125,734.2813 681.5156,733.1875 681.5156,731.4844 L681.5156,730.3906 C681.5156,728.6094 682.7656,727.2969 684.5,727.2969 C685.0781,727.2969 685.6875,727.4531 686.1563,727.7031 C686.6406,727.9844 686.8125,728.2031 686.9063,728.6094 C686.9688,729.0156 687,729.1406 687.1406,729.2656 C687.2813,729.4063 687.5156,729.5156 687.7344,729.5156 C688,729.5156 688.2656,729.375 688.4375,729.1563 C688.5469,729 688.5781,728.8125 688.5781,728.3906 L688.5781,726.9688 C688.5781,726.5313 688.5625,726.4063 688.4688,726.25 C688.3125,725.9844 688.0313,725.8438 687.7344,725.8438 C687.4375,725.8438 687.2344,725.9375 687.0156,726.25 L686.8438,726.1719 Z " fill="#FFFFFF"/><text fill="#FFFFFF" font-family="Arial" font-size="14" lengthAdjust="spacing" textLength="63" x="696.5" y="735.3467">Empresa</text><line style="stroke:#FFFFFF;stroke-width:1.0;" x1="672.5" x2="761.5" y1="744.5" y2="744.5"/><line style="stroke:#FFFFFF;stroke-width:1.0;" x1="672.5" x2="761.5" y1="752.5" y2="752.5"/></g><!--link Universidad to Alumni_plataforma--><g id="link_Universidad_Alumni_plataforma"><path codeLine="54" d="M139.178,89.111 C126.531,97.305 114.959,107.169 106,119 C95.9408,132.284 93.6924,133.195 93.3499,147.701 " fill="none" id="Universidad-to-Alumni_plataforma" style="stroke:#FFFFFF;stroke-width:1.0;"/><polygon fill="none" points="92.925,165.696,99.3482,147.8426,87.3515,147.5594,92.925,165.696" style="stroke:#FFFFFF;stroke-width:1.0;"/><text fill="#FFFFFF" font-family="Arial" font-size="13" lengthAdjust="spacing" textLength="112" x="107" y="132.0669">crea y administra</text></g><!--link Universidad to Alumni_usuario--><g id="link_Universidad_Alumni_usuario"><path codeLine="55" d="M242.539,89.267 C238.032,138.436 231.7098,207.4111 226.0788,268.8521 " fill="none" id="Universidad-to-Alumni_usuario" style="stroke:#FFFFFF;stroke-width:1.0;"/><polygon fill="none" points="224.436,286.777,232.0538,269.3997,220.1038,268.3045,224.436,286.777" style="stroke:#FFFFFF;stroke-width:1.0;"/><text fill="#FFFFFF" font-family="Arial" font-size="13" lengthAdjust="spacing" textLength="317" x="237" y="192.5669">pregunta (al inicio y fin de grado) si se quiere unir</text></g><!--link Alumni_plataforma to Alumni_usuario--><g id="link_Alumni_plataforma_Alumni_usuario"><path codeLine="56" d="M109.7047,210.277 C123.977,229.614 135.1637,244.7697 155.5277,272.3597 " fill="none" id="Alumni_plataforma-to-Alumni_usuario" style="stroke:#FFFFFF;stroke-width:1.0;"/><polygon fill="none" points="166.217,286.842,160.3551,268.7965,150.7002,275.9228,166.217,286.842" style="stroke:#FFFFFF;stroke-width:1.0;"/><text fill="#FFFFFF" font-family="Arial" font-size="13" lengthAdjust="spacing" textLength="32" x="143" y="253.0669">tiene</text></g><!--link Alumni_usuario to formasRegistro--><g id="link_Alumni_usuario_formasRegistro"><path codeLine="57" d="M279.127,429.041 C301.456,454.627 314.2837,469.3241 334.2857,492.2441 " fill="none" id="Alumni_usuario-to-formasRegistro" style="stroke:#FFFFFF;stroke-width:1.0;"/><polygon fill="none" points="346.121,505.806,338.8063,488.299,329.7651,496.1892,346.121,505.806" style="stroke:#FFFFFF;stroke-width:1.0;"/><text fill="#FFFFFF" font-family="Arial" font-size="13" lengthAdjust="spacing" textLength="205" x="319" y="472.0669">se registra en la plataforma con</text></g><!--link Alumni_usuario to Suscripciones--><g id="link_Alumni_usuario_Suscripciones"><path codeLine="58" d="M192.53,429.041 C183.227,454.627 179.101,465.9696 170.767,488.8896 " fill="none" id="Alumni_usuario-to-Suscripciones" style="stroke:#FFFFFF;stroke-width:1.0;"/><polygon fill="none" points="164.616,505.806,176.4058,490.9399,165.1282,486.8392,164.616,505.806" style="stroke:#FFFFFF;stroke-width:1.0;"/><text fill="#FFFFFF" font-family="Arial" font-size="13" lengthAdjust="spacing" textLength="79" x="182" y="472.0669">paga alguna</text></g><!--link Suscripciones to Servicios--><g id="link_Suscripciones_Servicios"><path codeLine="59" d="M181.468,599.456 C198.29,622.555 208.3148,636.3194 226.4928,661.2814 " fill="none" id="Suscripciones-to-Servicios" style="stroke:#FFFFFF;stroke-width:1.0;"/><polygon fill="none" points="237.089,675.832,231.343,657.7493,221.6426,664.8134,237.089,675.832" style="stroke:#FFFFFF;stroke-width:1.0;"/><text fill="#FFFFFF" font-family="Arial" font-size="13" lengthAdjust="spacing" textLength="49" x="216" y="642.0669">ofrecen</text></g><!--link Servicios to Instalaciones--><g id="link_Servicios_Instalaciones"><path codeLine="60" d="M282,801.139 C282,825.471 282,835.375 282,859.721 " fill="none" id="Servicios-to-Instalaciones" style="stroke:#FFFFFF;stroke-width:1.0;"/><polygon fill="none" points="282,877.721,288,859.721,276,859.721,282,877.721" style="stroke:#FFFFFF;stroke-width:1.0;"/><text fill="#FFFFFF" font-family="Arial" font-size="13" lengthAdjust="spacing" textLength="66" x="283" y="844.0669">dan aceso</text></g><!--link Servicios to Ofertas--><g id="link_Servicios_Ofertas"><path codeLine="61" d="M385.553,801.139 C440.893,834.079 491.7617,864.3584 539.3787,892.7014 " fill="none" id="Servicios-to-Ofertas" style="stroke:#FFFFFF;stroke-width:1.0;"/><polygon fill="none" points="554.846,901.908,542.4475,887.5456,536.3098,897.8572,554.846,901.908" style="stroke:#FFFFFF;stroke-width:1.0;"/><text fill="#FFFFFF" font-family="Arial" font-size="13" lengthAdjust="spacing" textLength="112" x="462" y="844.0669">permiten publicar</text></g><!--link Empresa to Ofertas--><g id="link_Empresa_Ofertas"><path codeLine="62" d="M706.592,760.525 C690.011,794.023 665.3483,843.8482 644.6513,885.6602 " fill="none" id="Empresa-to-Ofertas" style="stroke:#FFFFFF;stroke-width:1.0;"/><polygon fill="none" points="636.666,901.792,650.0285,888.3219,639.274,882.9984,636.666,901.792" style="stroke:#FFFFFF;stroke-width:1.0;"/><text fill="#FFFFFF" font-family="Arial" font-size="13" lengthAdjust="spacing" textLength="53" x="671" y="844.0669">publican</text></g><!--link Universidad to Ofertas--><g id="link_Universidad_Ofertas"><path codeLine="63" d="M384.255,75.385 C490.071,97.727 618,135.406 618,187 C618,187 618,187 618,739.5 C618,796.097 618,843.704 618,883.901 " fill="none" id="Universidad-to-Ofertas" style="stroke:#FFFFFF;stroke-width:1.0;"/><polygon fill="none" points="618,901.901,624,883.901,612,883.901,618,901.901" style="stroke:#FFFFFF;stroke-width:1.0;"/><text fill="#FFFFFF" font-family="Arial" font-size="13" lengthAdjust="spacing" textLength="76" x="619" y="472.0669">administran</text></g><!--SRC=[TLJDRjH03BxdASofSEWBv82qsaAr4Ygeb1D2o4cyMTE99ypF8YWy3C_2Y-5a9fjasrwIoUTl_FFPpejme8u0EswnyFSiFJhieCBwldKsIhErnZe83iMhYIGiM0tjCPhmraguGVMoSOocA2vWQz2JBsfzUTYOs0b_xGq6t5lNuHgFFg9ZMpmK09U08xYxAe4rr828xIf79VZWMDeHeWxPh90zrGUyTjX4hDbA2Gq6cYrNt1lRuGAkqGc5ASwVdD8duICvpmqsAPsMV51_x_Va0lexXnL-i-K4Boax6MiRegV2PjR9_SVeQyVzm26V0dIsiH-mLP_JQOJzpBpZNgr-UHKWaSWTMH6_YS4w_eMDzL3Ey1ntGhB6DNcxsOaFQ31v76HOV7x-iY3Uq0__Za9GOKgeh3MZpQuaKKi6ybMUvRWc8OTcKcLXQPCbDUI0eHoVfxIpwW-vvxqZZplHFFJTQ3CpT1xlD1YJdrMboLl5bM4Rg5Otytaq6Qoimq5Gcthwxs_WWRSmd1EtJ5BpcfDxX4O7eWw3GlCv3GvtWfw7SSedpJYdF1RZRwbbhSK-F3Frwo4UboNIqMwMEmGd6TuakTIPGXTmIvCanMBiuVBoz-l7AwkTSOJm4x3fM8QayDbRUQ5Bq71jb83m4escCaoWUjYpw8y3MbrM-meywxp2zyZQLOZ2hdWK-sddGIMdOeqcvbgxOH_0fGy44cqHB7pNkfzFELcjgfQ2BUg_ISl1OcNAx6d1XZLmL9CK9oWnphQjGKdRTSxBCwyHoNKSDDy-wdXgfulSltDUCilZTfmeSy_aFm00]--></g></svg>