<?xml version="1.0" encoding="UTF-8" standalone="no"?><svg xmlns="http://www.w3.org/2000/svg" xmlns:xlink="http://www.w3.org/1999/xlink" contentStyleType="text/css" height="498px" preserveAspectRatio="none" style="width:445px;height:498px;background:#FFFFFF;" version="1.1" viewBox="0 0 445 498" width="445px" zoomAndPan="magnify"><defs/><g><ellipse cx="219.5" cy="16" fill="#222222" rx="10" ry="10" style="stroke:none;stroke-width:1.0;"/><g id="ServicioInactivo"><rect fill="#F1F1F1" height="50" rx="12.5" ry="12.5" style="stroke:#181818;stroke-width:0.5;" width="118" x="160.5" y="442"/><line style="stroke:#181818;stroke-width:0.5;" x1="160.5" x2="278.5" y1="469.6094" y2="469.6094"/><text fill="#000000" font-family="sans-serif" font-size="14" lengthAdjust="spacing" textLength="98" x="170.5" y="461.5332">ServicioInactivo</text></g><path d="M19.5,104 L419.98,104 A12.5,12.5 0 0 1 432.48,116.5 L432.48,131.6094 L7,131.6094 L7,116.5 A12.5,12.5 0 0 1 19.5,104 " fill="#F1F1F1" style="stroke:#F1F1F1;stroke-width:1.0;"/><rect fill="none" height="259.6094" rx="12.5" ry="12.5" style="stroke:#181818;stroke-width:0.5;" width="425.48" x="7" y="104"/><line style="stroke:#181818;stroke-width:0.5;" x1="7" x2="432.48" y1="131.6094" y2="131.6094"/><text fill="#000000" font-family="sans-serif" font-size="14" lengthAdjust="spacing" textLength="88" x="175.74" y="123.5332">ServicioActivo</text><ellipse cx="140.48" cy="152.6094" fill="#222222" rx="10" ry="10" style="stroke:none;stroke-width:1.0;"/><g id="ServicioActivo.Servicio"><rect fill="#F1F1F1" height="50" rx="12.5" ry="12.5" style="stroke:#181818;stroke-width:0.5;" width="70" x="105.48" y="199.6094"/><line style="stroke:#181818;stroke-width:0.5;" x1="105.48" x2="175.48" y1="227.2188" y2="227.2188"/><text fill="#000000" font-family="sans-serif" font-size="14" lengthAdjust="spacing" textLength="50" x="115.48" y="219.1426">Servicio</text></g><g id="ServicioActivo.AñadidoaPaquete"><rect fill="#F1F1F1" height="50" rx="12.5" ry="12.5" style="stroke:#181818;stroke-width:0.5;" width="133" x="73.98" y="303.6094"/><line style="stroke:#181818;stroke-width:0.5;" x1="73.98" x2="206.98" y1="331.2188" y2="331.2188"/><text fill="#000000" font-family="sans-serif" font-size="14" lengthAdjust="spacing" textLength="113" x="83.98" y="323.1426">AñadidoaPaquete</text></g><!--MD5=[e15406439ad8a541bdbe6e0d9414910f]
link *start*ServicioActivo to Servicio--><g id="link_*start*ServicioActivo_Servicio"><path d="M140.48,162.7594 C140.48,170.7994 140.48,182.9394 140.48,194.2594 " fill="none" id="*start*ServicioActivo-to-Servicio" style="stroke:#181818;stroke-width:1.0;"/><polygon fill="#181818" points="140.48,199.3894,144.48,190.3894,140.48,194.3894,136.48,190.3894,140.48,199.3894" style="stroke:#181818;stroke-width:1.0;"/></g><!--MD5=[e019abfb84fd58b6ee2f0c0a4cbfa159]
link Servicio to AñadidoaPaquete--><g id="link_Servicio_AñadidoaPaquete"><path d="M105.43,229.0594 C80.52,233.5394 48.73,243.8694 32.48,267.6094 C18,288.7794 40.61,303.2594 68.83,312.6894 " fill="none" id="Servicio-to-AñadidoaPaquete" style="stroke:#181818;stroke-width:1.0;"/><polygon fill="#181818" points="73.77,314.2694,66.4194,307.7143,69.0084,312.7439,63.9787,315.3329,73.77,314.2694" style="stroke:#181818;stroke-width:1.0;"/><text fill="#000000" font-family="sans-serif" font-size="13" lengthAdjust="spacing" textLength="193" x="33.48" y="282.1045">se añade el servicio a un paquete</text></g><!--MD5=[96bd4ef0197c54dedc76db3192e193f3]
link AñadidoaPaquete to Servicio--><g id="link_AñadidoaPaquete_Servicio"><path d="M207.07,306.2194 C225.29,296.5794 237.58,283.6894 227.48,267.6094 C217.13,251.1194 198.28,240.9494 180.76,234.7594 " fill="none" id="AñadidoaPaquete-to-Servicio" style="stroke:#181818;stroke-width:1.0;"/><polygon fill="#181818" points="175.87,233.1094,183.1372,239.7567,180.612,234.6948,185.6739,232.1695,175.87,233.1094" style="stroke:#181818;stroke-width:1.0;"/><text fill="#000000" font-family="sans-serif" font-size="13" lengthAdjust="spacing" textLength="191" x="231.48" y="282.1045">se elimina el servicio del paquete</text></g><!--MD5=[459a3613f6f4db29ebfd57325c53ecc7]
link *start to ServicioActivo--><g id="link_*start_ServicioActivo"><path d="M219.5,26.01 C219.5,39.8 219.5,67.85 219.5,98.97 " fill="none" id="*start-to-ServicioActivo" style="stroke:#181818;stroke-width:1.0;"/><polygon fill="#181818" points="219.5,103.99,223.5,94.99,219.5,98.99,215.5,94.99,219.5,103.99" style="stroke:#181818;stroke-width:1.0;"/><text fill="#000000" font-family="sans-serif" font-size="13" lengthAdjust="spacing" textLength="108" x="220.5" y="70.4951">se crea un servicio</text></g><!--MD5=[14c0bc03bcae65816952be2b0528d60d]
link ServicioActivo to ServicioInactivo--><g id="link_ServicioActivo_ServicioInactivo"><path d="M137.72,364.07 C133.68,373.96 130.19,383.99 127.5,394 C125.43,401.73 123.52,405.06 127.5,412 C134.22,423.74 144.59,433.17 155.99,440.66 " fill="none" id="ServicioActivo-to-ServicioInactivo" style="stroke:#181818;stroke-width:1.0;"/><polygon fill="#181818" points="160.23,443.34,154.7378,435.1647,155.9964,440.6797,150.4814,441.9384,160.23,443.34" style="stroke:#181818;stroke-width:1.0;"/><text fill="#000000" font-family="sans-serif" font-size="13" lengthAdjust="spacing" textLength="137" x="128.5" y="408.4951">se desactiva un servicio</text></g><!--MD5=[62e145ab19ff54eb59fca4509d9cb831]
link ServicioInactivo to ServicioActivo--><g id="link_ServicioInactivo_ServicioActivo"><path d="M249.81,441.76 C258.13,433.32 266.07,423.14 270.5,412 C275.92,398.37 277.76,383.94 277.13,369.44 " fill="none" id="ServicioInactivo-to-ServicioActivo" style="stroke:#181818;stroke-width:1.0;"/><polygon fill="#181818" points="276.79,364.09,273.3905,373.3336,277.1188,369.0792,281.3732,372.8075,276.79,364.09" style="stroke:#181818;stroke-width:1.0;"/><text fill="#000000" font-family="sans-serif" font-size="13" lengthAdjust="spacing" textLength="127" x="275.5" y="408.4951">se reactiva un servicio</text></g><!--MD5=[784866421237d1cb68442db1ad190fce]
@startuml
[*] - -> ServicioActivo : se crea un servicio

ServicioActivo- -> ServicioInactivo : se desactiva un servicio
ServicioInactivo- -> ServicioActivo : se reactiva un servicio
State ServicioActivo{
[*]- ->Servicio
Servicio- ->AñadidoaPaquete :se añade el servicio a un paquete
AñadidoaPaquete - -> Servicio : se elimina el servicio del paquete
}


@enduml

PlantUML version 1.2022.7(Mon Aug 22 19:01:30 CEST 2022)
(GPL source distribution)
Java Runtime: Java(TM) SE Runtime Environment
JVM: Java HotSpot(TM) 64-Bit Server VM
Default Encoding: Cp1252
Language: es
Country: ES
--></g></svg>