<?xml version="1.0" encoding="us-ascii" standalone="no"?><svg xmlns="http://www.w3.org/2000/svg" xmlns:xlink="http://www.w3.org/1999/xlink" contentStyleType="text/css" height="638px" preserveAspectRatio="none" style="width:848px;height:638px;" version="1.1" viewBox="0 0 848 638" width="848px" zoomAndPan="magnify"><defs/><g><!--class ALUMNI--><g id="elem_ALUMNI"><rect codeLine="5" fill="#0B58A8" height="44" id="ALUMNI" rx="2.5" ry="2.5" style="stroke:#FFFFFF;stroke-width:1.0;" width="81" x="262" y="12"/><ellipse cx="275" cy="26" fill="#0B58A8" rx="9" ry="9" style="stroke:#FFFFFF;stroke-width:1.0;"/><path d="M277.3438,21.6719 C276.4063,21.2344 275.8125,21.0938 274.9375,21.0938 C272.3125,21.0938 270.3125,23.1719 270.3125,25.8906 L270.3125,27.0156 C270.3125,29.5938 272.4219,31.4844 275.3125,31.4844 C276.5313,31.4844 277.6875,31.1875 278.4375,30.6406 C279.0156,30.2344 279.3438,29.7813 279.3438,29.3906 C279.3438,28.9375 278.9531,28.5469 278.4844,28.5469 C278.2656,28.5469 278.0625,28.625 277.875,28.8125 C277.4219,29.2969 277.4219,29.2969 277.2344,29.3906 C276.8125,29.6563 276.125,29.7813 275.3594,29.7813 C273.3125,29.7813 272.0156,28.6875 272.0156,26.9844 L272.0156,25.8906 C272.0156,24.1094 273.2656,22.7969 275,22.7969 C275.5781,22.7969 276.1875,22.9531 276.6563,23.2031 C277.1406,23.4844 277.3125,23.7031 277.4063,24.1094 C277.4688,24.5156 277.5,24.6406 277.6406,24.7656 C277.7813,24.9063 278.0156,25.0156 278.2344,25.0156 C278.5,25.0156 278.7656,24.875 278.9375,24.6563 C279.0469,24.5 279.0781,24.3125 279.0781,23.8906 L279.0781,22.4688 C279.0781,22.0313 279.0625,21.9063 278.9688,21.75 C278.8125,21.4844 278.5313,21.3438 278.2344,21.3438 C277.9375,21.3438 277.7344,21.4375 277.5156,21.75 L277.3438,21.6719 Z " fill="#FFFFFF"/><text fill="#FFFFFF" font-family="Arial" font-size="14" lengthAdjust="spacing" textLength="53" x="287" y="30.8467">ALUMNI</text><line style="stroke:#FFFFFF;stroke-width:1.0;" x1="263" x2="342" y1="40" y2="40"/><line style="stroke:#FFFFFF;stroke-width:1.0;" x1="263" x2="342" y1="48" y2="48"/></g><!--class USUARIO--><g id="elem_USUARIO"><rect codeLine="7" fill="#0B58A8" height="158.0781" id="USUARIO" rx="2.5" ry="2.5" style="stroke:#FFFFFF;stroke-width:1.0;" width="174" x="151.5" y="133"/><ellipse cx="203.75" cy="147" fill="#0B58A8" rx="9" ry="9" style="stroke:#FFFFFF;stroke-width:1.0;"/><path d="M206.0938,142.6719 C205.1563,142.2344 204.5625,142.0938 203.6875,142.0938 C201.0625,142.0938 199.0625,144.1719 199.0625,146.8906 L199.0625,148.0156 C199.0625,150.5938 201.1719,152.4844 204.0625,152.4844 C205.2813,152.4844 206.4375,152.1875 207.1875,151.6406 C207.7656,151.2344 208.0938,150.7813 208.0938,150.3906 C208.0938,149.9375 207.7031,149.5469 207.2344,149.5469 C207.0156,149.5469 206.8125,149.625 206.625,149.8125 C206.1719,150.2969 206.1719,150.2969 205.9844,150.3906 C205.5625,150.6563 204.875,150.7813 204.1094,150.7813 C202.0625,150.7813 200.7656,149.6875 200.7656,147.9844 L200.7656,146.8906 C200.7656,145.1094 202.0156,143.7969 203.75,143.7969 C204.3281,143.7969 204.9375,143.9531 205.4063,144.2031 C205.8906,144.4844 206.0625,144.7031 206.1563,145.1094 C206.2188,145.5156 206.25,145.6406 206.3906,145.7656 C206.5313,145.9063 206.7656,146.0156 206.9844,146.0156 C207.25,146.0156 207.5156,145.875 207.6875,145.6563 C207.7969,145.5 207.8281,145.3125 207.8281,144.8906 L207.8281,143.4688 C207.8281,143.0313 207.8125,142.9063 207.7188,142.75 C207.5625,142.4844 207.2813,142.3438 206.9844,142.3438 C206.6875,142.3438 206.4844,142.4375 206.2656,142.75 L206.0938,142.6719 Z " fill="#FFFFFF"/><text fill="#FFFFFF" font-family="Arial" font-size="14" lengthAdjust="spacing" textLength="62" x="221.25" y="151.8467">USUARIO</text><line style="stroke:#FFFFFF;stroke-width:1.0;" x1="152.5" x2="324.5" y1="161" y2="161"/><rect fill="none" height="6" style="stroke:#FFFFFF;stroke-width:1.0;" width="6" x="159.5" y="171.6484"/><text fill="#FFFFFF" font-family="Arial" font-size="14" lengthAdjust="spacing" textLength="15" x="169.5" y="177.9951">ID</text><rect fill="none" height="6" style="stroke:#FFFFFF;stroke-width:1.0;" width="6" x="159.5" y="187.9453"/><text fill="#FFFFFF" font-family="Arial" font-size="14" lengthAdjust="spacing" textLength="58" x="169.5" y="194.292">Nombre</text><rect fill="none" height="6" style="stroke:#FFFFFF;stroke-width:1.0;" width="6" x="159.5" y="204.2422"/><text fill="#FFFFFF" font-family="Arial" font-size="14" lengthAdjust="spacing" textLength="59" x="169.5" y="210.5889">Apellido</text><rect fill="none" height="6" style="stroke:#FFFFFF;stroke-width:1.0;" width="6" x="159.5" y="220.5391"/><text fill="#FFFFFF" font-family="Arial" font-size="14" lengthAdjust="spacing" textLength="39" x="169.5" y="226.8857">Email</text><rect fill="none" height="6" style="stroke:#FFFFFF;stroke-width:1.0;" width="6" x="159.5" y="236.8359"/><text fill="#FFFFFF" font-family="Arial" font-size="14" lengthAdjust="spacing" textLength="68" x="169.5" y="243.1826">ubicacion</text><rect fill="none" height="6" style="stroke:#FFFFFF;stroke-width:1.0;" width="6" x="159.5" y="253.1328"/><text fill="#FFFFFF" font-family="Arial" font-size="14" lengthAdjust="spacing" textLength="150" x="169.5" y="259.4795">Fecha de Nacimiento</text><rect fill="none" height="6" style="stroke:#FFFFFF;stroke-width:1.0;" width="6" x="159.5" y="269.4297"/><text fill="#FFFFFF" font-family="Arial" font-size="14" lengthAdjust="spacing" textLength="53" x="169.5" y="275.7764">Trabaja</text><line style="stroke:#FFFFFF;stroke-width:1.0;" x1="152.5" x2="324.5" y1="283.0781" y2="283.0781"/></g><!--class SUSCRIPCION--><g id="elem_SUSCRIPCION"><rect codeLine="17" fill="#0B58A8" height="109.1875" id="SUSCRIPCION" rx="2.5" ry="2.5" style="stroke:#FFFFFF;stroke-width:1.0;" width="123" x="361" y="157.5"/><ellipse cx="374" cy="171.5" fill="#0B58A8" rx="9" ry="9" style="stroke:#FFFFFF;stroke-width:1.0;"/><path d="M376.3438,167.1719 C375.4063,166.7344 374.8125,166.5938 373.9375,166.5938 C371.3125,166.5938 369.3125,168.6719 369.3125,171.3906 L369.3125,172.5156 C369.3125,175.0938 371.4219,176.9844 374.3125,176.9844 C375.5313,176.9844 376.6875,176.6875 377.4375,176.1406 C378.0156,175.7344 378.3438,175.2813 378.3438,174.8906 C378.3438,174.4375 377.9531,174.0469 377.4844,174.0469 C377.2656,174.0469 377.0625,174.125 376.875,174.3125 C376.4219,174.7969 376.4219,174.7969 376.2344,174.8906 C375.8125,175.1563 375.125,175.2813 374.3594,175.2813 C372.3125,175.2813 371.0156,174.1875 371.0156,172.4844 L371.0156,171.3906 C371.0156,169.6094 372.2656,168.2969 374,168.2969 C374.5781,168.2969 375.1875,168.4531 375.6563,168.7031 C376.1406,168.9844 376.3125,169.2031 376.4063,169.6094 C376.4688,170.0156 376.5,170.1406 376.6406,170.2656 C376.7813,170.4063 377.0156,170.5156 377.2344,170.5156 C377.5,170.5156 377.7656,170.375 377.9375,170.1563 C378.0469,170 378.0781,169.8125 378.0781,169.3906 L378.0781,167.9688 C378.0781,167.5313 378.0625,167.4063 377.9688,167.25 C377.8125,166.9844 377.5313,166.8438 377.2344,166.8438 C376.9375,166.8438 376.7344,166.9375 376.5156,167.25 L376.3438,167.1719 Z " fill="#FFFFFF"/><text fill="#FFFFFF" font-family="Arial" font-size="14" lengthAdjust="spacing" textLength="95" x="386" y="176.3467">SUSCRIPCION</text><line style="stroke:#FFFFFF;stroke-width:1.0;" x1="362" x2="483" y1="185.5" y2="185.5"/><rect fill="none" height="6" style="stroke:#FFFFFF;stroke-width:1.0;" width="6" x="369" y="196.1484"/><text fill="#FFFFFF" font-family="Arial" font-size="14" lengthAdjust="spacing" textLength="15" x="379" y="202.4951">ID</text><rect fill="none" height="6" style="stroke:#FFFFFF;stroke-width:1.0;" width="6" x="369" y="212.4453"/><text fill="#FFFFFF" font-family="Arial" font-size="14" lengthAdjust="spacing" textLength="58" x="379" y="218.792">Nombre</text><rect fill="none" height="6" style="stroke:#FFFFFF;stroke-width:1.0;" width="6" x="369" y="228.7422"/><text fill="#FFFFFF" font-family="Arial" font-size="14" lengthAdjust="spacing" textLength="45" x="379" y="235.0889">Precio</text><rect fill="none" height="6" style="stroke:#FFFFFF;stroke-width:1.0;" width="6" x="369" y="245.0391"/><text fill="#FFFFFF" font-family="Arial" font-size="14" lengthAdjust="spacing" textLength="85" x="379" y="251.3857">Descripci&#243;n</text><line style="stroke:#FFFFFF;stroke-width:1.0;" x1="362" x2="483" y1="258.6875" y2="258.6875"/></g><!--class SERVICIO--><g id="elem_SERVICIO"><rect codeLine="24" fill="#0B58A8" height="92.8906" id="SERVICIO" rx="2.5" ry="2.5" style="stroke:#FFFFFF;stroke-width:1.0;" width="109" x="368" y="368"/><ellipse cx="387.3" cy="382" fill="#0B58A8" rx="9" ry="9" style="stroke:#FFFFFF;stroke-width:1.0;"/><path d="M389.6438,377.6719 C388.7063,377.2344 388.1125,377.0938 387.2375,377.0938 C384.6125,377.0938 382.6125,379.1719 382.6125,381.8906 L382.6125,383.0156 C382.6125,385.5938 384.7219,387.4844 387.6125,387.4844 C388.8313,387.4844 389.9875,387.1875 390.7375,386.6406 C391.3156,386.2344 391.6438,385.7813 391.6438,385.3906 C391.6438,384.9375 391.2531,384.5469 390.7844,384.5469 C390.5656,384.5469 390.3625,384.625 390.175,384.8125 C389.7219,385.2969 389.7219,385.2969 389.5344,385.3906 C389.1125,385.6563 388.425,385.7813 387.6594,385.7813 C385.6125,385.7813 384.3156,384.6875 384.3156,382.9844 L384.3156,381.8906 C384.3156,380.1094 385.5656,378.7969 387.3,378.7969 C387.8781,378.7969 388.4875,378.9531 388.9563,379.2031 C389.4406,379.4844 389.6125,379.7031 389.7063,380.1094 C389.7688,380.5156 389.8,380.6406 389.9406,380.7656 C390.0813,380.9063 390.3156,381.0156 390.5344,381.0156 C390.8,381.0156 391.0656,380.875 391.2375,380.6563 C391.3469,380.5 391.3781,380.3125 391.3781,379.8906 L391.3781,378.4688 C391.3781,378.0313 391.3625,377.9063 391.2688,377.75 C391.1125,377.4844 390.8313,377.3438 390.5344,377.3438 C390.2375,377.3438 390.0344,377.4375 389.8156,377.75 L389.6438,377.6719 Z " fill="#FFFFFF"/><text fill="#FFFFFF" font-family="Arial" font-size="14" lengthAdjust="spacing" textLength="67" x="400.7" y="386.8467">SERVICIO</text><line style="stroke:#FFFFFF;stroke-width:1.0;" x1="369" x2="476" y1="396" y2="396"/><rect fill="none" height="6" style="stroke:#FFFFFF;stroke-width:1.0;" width="6" x="376" y="406.6484"/><text fill="#FFFFFF" font-family="Arial" font-size="14" lengthAdjust="spacing" textLength="15" x="386" y="412.9951">ID</text><rect fill="none" height="6" style="stroke:#FFFFFF;stroke-width:1.0;" width="6" x="376" y="422.9453"/><text fill="#FFFFFF" font-family="Arial" font-size="14" lengthAdjust="spacing" textLength="58" x="386" y="429.292">Nombre</text><rect fill="none" height="6" style="stroke:#FFFFFF;stroke-width:1.0;" width="6" x="376" y="439.2422"/><text fill="#FFFFFF" font-family="Arial" font-size="14" lengthAdjust="spacing" textLength="85" x="386" y="445.5889">Descripci&#243;n</text><line style="stroke:#FFFFFF;stroke-width:1.0;" x1="369" x2="476" y1="452.8906" y2="452.8906"/></g><!--class COMUNICACI?N--><g id="elem_COMUNICACI&#211;N"><rect codeLine="30" fill="#0B58A8" height="76.5938" id="COMUNICACI&#211;N" rx="2.5" ry="2.5" style="stroke:#FFFFFF;stroke-width:1.0;" width="139" x="12" y="538"/><ellipse cx="25" cy="552" fill="#0B58A8" rx="9" ry="9" style="stroke:#FFFFFF;stroke-width:1.0;"/><path d="M27.3438,547.6719 C26.4063,547.2344 25.8125,547.0938 24.9375,547.0938 C22.3125,547.0938 20.3125,549.1719 20.3125,551.8906 L20.3125,553.0156 C20.3125,555.5938 22.4219,557.4844 25.3125,557.4844 C26.5313,557.4844 27.6875,557.1875 28.4375,556.6406 C29.0156,556.2344 29.3438,555.7813 29.3438,555.3906 C29.3438,554.9375 28.9531,554.5469 28.4844,554.5469 C28.2656,554.5469 28.0625,554.625 27.875,554.8125 C27.4219,555.2969 27.4219,555.2969 27.2344,555.3906 C26.8125,555.6563 26.125,555.7813 25.3594,555.7813 C23.3125,555.7813 22.0156,554.6875 22.0156,552.9844 L22.0156,551.8906 C22.0156,550.1094 23.2656,548.7969 25,548.7969 C25.5781,548.7969 26.1875,548.9531 26.6563,549.2031 C27.1406,549.4844 27.3125,549.7031 27.4063,550.1094 C27.4688,550.5156 27.5,550.6406 27.6406,550.7656 C27.7813,550.9063 28.0156,551.0156 28.2344,551.0156 C28.5,551.0156 28.7656,550.875 28.9375,550.6563 C29.0469,550.5 29.0781,550.3125 29.0781,549.8906 L29.0781,548.4688 C29.0781,548.0313 29.0625,547.9063 28.9688,547.75 C28.8125,547.4844 28.5313,547.3438 28.2344,547.3438 C27.9375,547.3438 27.7344,547.4375 27.5156,547.75 L27.3438,547.6719 Z " fill="#FFFFFF"/><text fill="#FFFFFF" font-family="Arial" font-size="14" lengthAdjust="spacing" textLength="111" x="37" y="556.8467">COMUNICACI&#211;N</text><line style="stroke:#FFFFFF;stroke-width:1.0;" x1="13" x2="150" y1="566" y2="566"/><rect fill="none" height="6" style="stroke:#FFFFFF;stroke-width:1.0;" width="6" x="20" y="576.6484"/><text fill="#FFFFFF" font-family="Arial" font-size="14" lengthAdjust="spacing" textLength="39" x="30" y="582.9951">Email</text><rect fill="none" height="6" style="stroke:#FFFFFF;stroke-width:1.0;" width="6" x="20" y="592.9453"/><text fill="#FFFFFF" font-family="Arial" font-size="14" lengthAdjust="spacing" textLength="34" x="30" y="599.292">Chat</text><line style="stroke:#FFFFFF;stroke-width:1.0;" x1="13" x2="150" y1="606.5938" y2="606.5938"/></g><!--class ALQUILER DE INSTALACIONES--><g id="elem_ALQUILER DE INSTALACIONES"><rect codeLine="35" fill="#0B58A8" height="92.8906" id="ALQUILER DE INSTALACIONES" rx="2.5" ry="2.5" style="stroke:#FFFFFF;stroke-width:1.0;" width="238" x="186.5" y="530"/><ellipse cx="199.5" cy="544" fill="#0B58A8" rx="9" ry="9" style="stroke:#FFFFFF;stroke-width:1.0;"/><path d="M201.8438,539.6719 C200.9063,539.2344 200.3125,539.0938 199.4375,539.0938 C196.8125,539.0938 194.8125,541.1719 194.8125,543.8906 L194.8125,545.0156 C194.8125,547.5938 196.9219,549.4844 199.8125,549.4844 C201.0313,549.4844 202.1875,549.1875 202.9375,548.6406 C203.5156,548.2344 203.8438,547.7813 203.8438,547.3906 C203.8438,546.9375 203.4531,546.5469 202.9844,546.5469 C202.7656,546.5469 202.5625,546.625 202.375,546.8125 C201.9219,547.2969 201.9219,547.2969 201.7344,547.3906 C201.3125,547.6563 200.625,547.7813 199.8594,547.7813 C197.8125,547.7813 196.5156,546.6875 196.5156,544.9844 L196.5156,543.8906 C196.5156,542.1094 197.7656,540.7969 199.5,540.7969 C200.0781,540.7969 200.6875,540.9531 201.1563,541.2031 C201.6406,541.4844 201.8125,541.7031 201.9063,542.1094 C201.9688,542.5156 202,542.6406 202.1406,542.7656 C202.2813,542.9063 202.5156,543.0156 202.7344,543.0156 C203,543.0156 203.2656,542.875 203.4375,542.6563 C203.5469,542.5 203.5781,542.3125 203.5781,541.8906 L203.5781,540.4688 C203.5781,540.0313 203.5625,539.9063 203.4688,539.75 C203.3125,539.4844 203.0313,539.3438 202.7344,539.3438 C202.4375,539.3438 202.2344,539.4375 202.0156,539.75 L201.8438,539.6719 Z " fill="#FFFFFF"/><text fill="#FFFFFF" font-family="Arial" font-size="14" lengthAdjust="spacing" textLength="210" x="211.5" y="548.8467">ALQUILER DE INSTALACIONES</text><line style="stroke:#FFFFFF;stroke-width:1.0;" x1="187.5" x2="423.5" y1="558" y2="558"/><rect fill="none" height="6" style="stroke:#FFFFFF;stroke-width:1.0;" width="6" x="194.5" y="568.6484"/><text fill="#FFFFFF" font-family="Arial" font-size="14" lengthAdjust="spacing" textLength="73" x="204.5" y="574.9951">Biblioteca</text><rect fill="none" height="6" style="stroke:#FFFFFF;stroke-width:1.0;" width="6" x="194.5" y="584.9453"/><text fill="#FFFFFF" font-family="Arial" font-size="14" lengthAdjust="spacing" textLength="145" x="204.5" y="591.292">Sala de ordenadores</text><rect fill="none" height="6" style="stroke:#FFFFFF;stroke-width:1.0;" width="6" x="194.5" y="601.2422"/><text fill="#FFFFFF" font-family="Arial" font-size="14" lengthAdjust="spacing" textLength="101" x="204.5" y="607.5889">Pista de padel</text><line style="stroke:#FFFFFF;stroke-width:1.0;" x1="187.5" x2="423.5" y1="614.8906" y2="614.8906"/></g><!--class NEWSLETTER--><g id="elem_NEWSLETTER"><rect codeLine="41" fill="#0B58A8" height="92.8906" id="NEWSLETTER" rx="2.5" ry="2.5" style="stroke:#FFFFFF;stroke-width:1.0;" width="159" x="460" y="530"/><ellipse cx="488.75" cy="544" fill="#0B58A8" rx="9" ry="9" style="stroke:#FFFFFF;stroke-width:1.0;"/><path d="M491.0938,539.6719 C490.1563,539.2344 489.5625,539.0938 488.6875,539.0938 C486.0625,539.0938 484.0625,541.1719 484.0625,543.8906 L484.0625,545.0156 C484.0625,547.5938 486.1719,549.4844 489.0625,549.4844 C490.2813,549.4844 491.4375,549.1875 492.1875,548.6406 C492.7656,548.2344 493.0938,547.7813 493.0938,547.3906 C493.0938,546.9375 492.7031,546.5469 492.2344,546.5469 C492.0156,546.5469 491.8125,546.625 491.625,546.8125 C491.1719,547.2969 491.1719,547.2969 490.9844,547.3906 C490.5625,547.6563 489.875,547.7813 489.1094,547.7813 C487.0625,547.7813 485.7656,546.6875 485.7656,544.9844 L485.7656,543.8906 C485.7656,542.1094 487.0156,540.7969 488.75,540.7969 C489.3281,540.7969 489.9375,540.9531 490.4063,541.2031 C490.8906,541.4844 491.0625,541.7031 491.1563,542.1094 C491.2188,542.5156 491.25,542.6406 491.3906,542.7656 C491.5313,542.9063 491.7656,543.0156 491.9844,543.0156 C492.25,543.0156 492.5156,542.875 492.6875,542.6563 C492.7969,542.5 492.8281,542.3125 492.8281,541.8906 L492.8281,540.4688 C492.8281,540.0313 492.8125,539.9063 492.7188,539.75 C492.5625,539.4844 492.2813,539.3438 491.9844,539.3438 C491.6875,539.3438 491.4844,539.4375 491.2656,539.75 L491.0938,539.6719 Z " fill="#FFFFFF"/><text fill="#FFFFFF" font-family="Arial" font-size="14" lengthAdjust="spacing" textLength="96" x="504.25" y="548.8467">NEWSLETTER</text><line style="stroke:#FFFFFF;stroke-width:1.0;" x1="461" x2="618" y1="558" y2="558"/><rect fill="none" height="6" style="stroke:#FFFFFF;stroke-width:1.0;" width="6" x="468" y="568.6484"/><text fill="#FFFFFF" font-family="Arial" font-size="14" lengthAdjust="spacing" textLength="57" x="478" y="574.9951">Noticias</text><rect fill="none" height="6" style="stroke:#FFFFFF;stroke-width:1.0;" width="6" x="468" y="584.9453"/><text fill="#FFFFFF" font-family="Arial" font-size="14" lengthAdjust="spacing" textLength="58" x="478" y="591.292">Eventos</text><rect fill="none" height="6" style="stroke:#FFFFFF;stroke-width:1.0;" width="6" x="468" y="601.2422"/><text fill="#FFFFFF" font-family="Arial" font-size="14" lengthAdjust="spacing" textLength="135" x="478" y="607.5889">Ofertas de empleo</text><line style="stroke:#FFFFFF;stroke-width:1.0;" x1="461" x2="618" y1="614.8906" y2="614.8906"/></g><!--class OFERTAS DE EMPLEO--><g id="elem_OFERTAS DE EMPLEO"><rect codeLine="47" fill="#0B58A8" height="109.1875" id="OFERTAS DE EMPLEO" rx="2.5" ry="2.5" style="stroke:#FFFFFF;stroke-width:1.0;" width="187" x="654" y="522"/><ellipse cx="670.15" cy="536" fill="#0B58A8" rx="9" ry="9" style="stroke:#FFFFFF;stroke-width:1.0;"/><path d="M672.4938,531.6719 C671.5563,531.2344 670.9625,531.0938 670.0875,531.0938 C667.4625,531.0938 665.4625,533.1719 665.4625,535.8906 L665.4625,537.0156 C665.4625,539.5938 667.5719,541.4844 670.4625,541.4844 C671.6813,541.4844 672.8375,541.1875 673.5875,540.6406 C674.1656,540.2344 674.4938,539.7813 674.4938,539.3906 C674.4938,538.9375 674.1031,538.5469 673.6344,538.5469 C673.4156,538.5469 673.2125,538.625 673.025,538.8125 C672.5719,539.2969 672.5719,539.2969 672.3844,539.3906 C671.9625,539.6563 671.275,539.7813 670.5094,539.7813 C668.4625,539.7813 667.1656,538.6875 667.1656,536.9844 L667.1656,535.8906 C667.1656,534.1094 668.4156,532.7969 670.15,532.7969 C670.7281,532.7969 671.3375,532.9531 671.8063,533.2031 C672.2906,533.4844 672.4625,533.7031 672.5563,534.1094 C672.6188,534.5156 672.65,534.6406 672.7906,534.7656 C672.9313,534.9063 673.1656,535.0156 673.3844,535.0156 C673.65,535.0156 673.9156,534.875 674.0875,534.6563 C674.1969,534.5 674.2281,534.3125 674.2281,533.8906 L674.2281,532.4688 C674.2281,532.0313 674.2125,531.9063 674.1188,531.75 C673.9625,531.4844 673.6813,531.3438 673.3844,531.3438 C673.0875,531.3438 672.8844,531.4375 672.6656,531.75 L672.4938,531.6719 Z " fill="#FFFFFF"/><text fill="#FFFFFF" font-family="Arial" font-size="14" lengthAdjust="spacing" textLength="152" x="682.85" y="540.8467">OFERTAS DE EMPLEO</text><line style="stroke:#FFFFFF;stroke-width:1.0;" x1="655" x2="840" y1="550" y2="550"/><rect fill="none" height="6" style="stroke:#FFFFFF;stroke-width:1.0;" width="6" x="662" y="560.6484"/><text fill="#FFFFFF" font-family="Arial" font-size="14" lengthAdjust="spacing" textLength="163" x="672" y="566.9951">Nombre de la empresa</text><rect fill="none" height="6" style="stroke:#FFFFFF;stroke-width:1.0;" width="6" x="662" y="576.9453"/><text fill="#FFFFFF" font-family="Arial" font-size="14" lengthAdjust="spacing" textLength="127" x="672" y="583.292">Puesto de trabajo</text><rect fill="none" height="6" style="stroke:#FFFFFF;stroke-width:1.0;" width="6" x="662" y="593.2422"/><text fill="#FFFFFF" font-family="Arial" font-size="14" lengthAdjust="spacing" textLength="48" x="672" y="599.5889">Salario</text><rect fill="none" height="6" style="stroke:#FFFFFF;stroke-width:1.0;" width="6" x="662" y="609.5391"/><text fill="#FFFFFF" font-family="Arial" font-size="14" lengthAdjust="spacing" textLength="69" x="672" y="615.8857">Ubicaci&#243;n</text><line style="stroke:#FFFFFF;stroke-width:1.0;" x1="655" x2="840" y1="623.1875" y2="623.1875"/></g><!--link ALUMNI to USUARIO--><g id="link_ALUMNI_USUARIO"><path codeLine="54" d="M294.78,56.23 C287.832,75.338 277.178,104.635 267.002,132.62 " fill="none" id="ALUMNI-USUARIO" style="stroke:#FFFFFF;stroke-width:1.0;"/><text fill="#FFFFFF" font-family="Arial" font-size="13" lengthAdjust="spacing" textLength="32" x="285.5" y="99.0669">tiene</text></g><!--link ALUMNI to SUSCRIPCION--><g id="link_ALUMNI_SUSCRIPCION"><path codeLine="55" d="M316.975,56.23 C333.93,81.098 362.653,123.224 385.854,157.253 " fill="none" id="ALUMNI-SUSCRIPCION" style="stroke:#FFFFFF;stroke-width:1.0;"/><text fill="#FFFFFF" font-family="Arial" font-size="13" lengthAdjust="spacing" textLength="41" x="349.5" y="99.0669">ofrece</text></g><!--link SUSCRIPCION to SERVICIO--><g id="link_SUSCRIPCION_SERVICIO"><path codeLine="56" d="M422.5,266.73 C422.5,298.282 422.5,337.732 422.5,367.784 " fill="none" id="SUSCRIPCION-SERVICIO" style="stroke:#FFFFFF;stroke-width:1.0;"/><text fill="#FFFFFF" font-family="Arial" font-size="13" lengthAdjust="spacing" textLength="45" x="423.5" y="334.0669">incluye</text></g><!--reverse link SERVICIO to COMUNICACI?N--><g id="link_SERVICIO_COMUNICACI&#211;N"><path codeLine="58" d="M351.0623,441.9816 C298.8653,461.8296 235.289,487.721 168.5,522 C159.035,526.858 149.228,532.3774 139.758,537.9816 " fill="none" id="SERVICIO-backto-COMUNICACI&#211;N" style="stroke:#FFFFFF;stroke-width:1.0;"/><polygon fill="none" points="367.887,435.584,348.9298,436.3734,353.1948,447.5899,367.887,435.584" style="stroke:#FFFFFF;stroke-width:1.0;"/></g><!--reverse link SERVICIO to ALQUILER DE INSTALACIONES--><g id="link_SERVICIO_ALQUILER DE INSTALACIONES"><path codeLine="59" d="M378.3474,475.8799 C362.6144,497.3959 354.539,508.439 338.83,529.921 " fill="none" id="SERVICIO-backto-ALQUILER DE INSTALACIONES" style="stroke:#FFFFFF;stroke-width:1.0;"/><polygon fill="none" points="388.972,461.35,373.5041,472.3384,383.1907,479.4214,388.972,461.35" style="stroke:#FFFFFF;stroke-width:1.0;"/></g><!--reverse link SERVICIO to NEWSLETTER--><g id="link_SERVICIO_NEWSLETTER"><path codeLine="60" d="M466.6526,475.8799 C482.3856,497.3959 490.461,508.439 506.17,529.921 " fill="none" id="SERVICIO-backto-NEWSLETTER" style="stroke:#FFFFFF;stroke-width:1.0;"/><polygon fill="none" points="456.028,461.35,461.8093,479.4214,471.4959,472.3384,456.028,461.35" style="stroke:#FFFFFF;stroke-width:1.0;"/></g><!--reverse link SERVICIO to OFERTAS DE EMPLEO--><g id="link_SERVICIO_OFERTAS DE EMPLEO"><path codeLine="61" d="M493.4132,450.4111 C541.6242,474.1451 596.712,501.266 653.943,529.441 " fill="none" id="SERVICIO-backto-OFERTAS DE EMPLEO" style="stroke:#FFFFFF;stroke-width:1.0;"/><polygon fill="none" points="477.264,442.461,490.7631,455.7942,496.0632,445.0281,477.264,442.461" style="stroke:#FFFFFF;stroke-width:1.0;"/></g><!--SRC=[ZL9BRjim4Dth5Apsle3HZIBJ005PSlH9rYDg7BEXI86a2XHkJv6Zv0YvM2dLbDK4GSiLv__UlFdYpjWZWLuyGMIVXHh0G4zQuCzFHe-gIxNKXZW3oleGAhVAwl04etHxhLmElajY1CWeuXAi9KdM7796Bh-2ewcQf6G5kKJ4lmrXEtBzvRfl3GOh6L1AqUbWqnw43CRO2WvSQ1KSU-Hdy4X8xjszy02Nmjf02z-0H0k4ggdIaXrJLkJ_X74qwES4QuUM6p5myVQgrWrf-S3I_o3rINrQ79gSfKdAtbvka6R6rtzw1dVBZvFilc4PBScE4fPNTP8b4njQnKlrdMYbq0uvN1qLo7b3sdIeeDC6RU0eh9j30tGeRsDo-bXbjAxzdCj2nmak85JIxzEcWrMSq3YmKoVi1ubwXRZOqx9EgWamFHmpMiIhdlEAV9K7w0izi83vEABrIlgGcrNKAov61AlvSmr-fzF0wyLjDikfROdp5u6hoFe2jaIVlCWOhPrJJX1rIuJYSlo1KRJullxq6V5VkiNlev-Bz3xpjkWFeOzx-mq0]--></g></svg>