<?xml version="1.0" encoding="UTF-8" standalone="no"?><svg xmlns="http://www.w3.org/2000/svg" xmlns:xlink="http://www.w3.org/1999/xlink" contentStyleType="text/css" height="387px" preserveAspectRatio="none" style="width:888px;height:387px;background:#FFFFFF;" version="1.1" viewBox="0 0 888 387" width="888px" zoomAndPan="magnify"><defs/><g><rect fill="none" height="27.6094" id="_title" style="stroke:none;stroke-width:1.0;" width="145" x="364.5" y="5"/><text fill="#000000" font-family="sans-serif" font-size="14" font-weight="bold" lengthAdjust="spacing" textLength="135" x="369.5" y="24.5332">Contexto Egresado</text><ellipse cx="154.5" cy="54.6094" fill="#222222" rx="10" ry="10" style="stroke:none;stroke-width:1.0;"/><rect fill="#F1F1F1" height="40" rx="12.5" ry="12.5" style="stroke:#181818;stroke-width:0.5;" width="115" x="7" y="125.6094"/><text fill="#000000" font-family="sans-serif" font-size="14" lengthAdjust="spacing" textLength="105" x="12" y="151.3379">INICIAR_SESIÓN</text><rect fill="#F1F1F1" height="40" rx="12.5" ry="12.5" style="stroke:#181818;stroke-width:0.5;" width="176" x="157.5" y="125.6094"/><text fill="#000000" font-family="sans-serif" font-size="14" lengthAdjust="spacing" textLength="166" x="162.5" y="151.3379">REGISTRAR_EGRESADO</text><rect fill="#F1F1F1" height="40" rx="12.5" ry="12.5" style="stroke:#181818;stroke-width:0.5;" width="50" x="129.5" y="243.6094"/><text fill="#000000" font-family="sans-serif" font-size="14" lengthAdjust="spacing" textLength="39" x="135" y="269.3379">INICIO</text><rect fill="#F1F1F1" height="40" rx="12.5" ry="12.5" style="stroke:#181818;stroke-width:0.5;" width="221" x="661" y="243.6094"/><text fill="#000000" font-family="sans-serif" font-size="14" lengthAdjust="spacing" textLength="211" x="666" y="269.3379">LISTAR_SERVICIOS_PAQUETES</text><rect fill="#F1F1F1" height="40" rx="12.5" ry="12.5" style="stroke:#181818;stroke-width:0.5;" width="229" x="397" y="243.6094"/><text fill="#000000" font-family="sans-serif" font-size="14" lengthAdjust="spacing" textLength="219" x="402" y="269.3379">CANCELAR_SERVICIO_PAQUETE</text><rect fill="#F1F1F1" height="40" rx="12.5" ry="12.5" style="stroke:#181818;stroke-width:0.5;" width="147" x="215" y="243.6094"/><text fill="#000000" font-family="sans-serif" font-size="14" lengthAdjust="spacing" textLength="137" x="220" y="269.3379">REALIZAR_PETICIÓN</text><ellipse cx="154.5" cy="371.6094" fill="none" rx="10" ry="10" style="stroke:#222222;stroke-width:1.0;"/><ellipse cx="155" cy="372.1094" fill="#222222" rx="6" ry="6" style="stroke:none;stroke-width:1.0;"/><!--MD5=[fffa5c9a6c2a3d9bbcf62492fefaaec1]
link *start to INICIAR_SESIÓN--><g id="link_*start_INICIAR_SESIÓN"><path d="M147.74,62.2994 C135.16,74.7294 107.67,101.9194 87.71,121.6594 " fill="none" id="*start-to-INICIAR_SESIÓN" style="stroke:#181818;stroke-width:1.0;"/><polygon fill="#181818" points="83.83,125.4994,93.0436,122.0196,87.3869,121.9853,87.4212,116.3286,83.83,125.4994" style="stroke:#181818;stroke-width:1.0;"/></g><!--MD5=[ef2c9c3cadb6f7eb859a57fbfd2a6d8e]
link *start to REGISTRAR_EGRESADO--><g id="link_*start_REGISTRAR_EGRESADO"><path d="M161.34,62.2994 C174.05,74.7294 201.85,101.9194 222.03,121.6594 " fill="none" id="*start-to-REGISTRAR_EGRESADO" style="stroke:#181818;stroke-width:1.0;"/><polygon fill="#181818" points="225.96,125.4994,222.3318,116.3432,222.3889,121.9997,216.7324,122.0569,225.96,125.4994" style="stroke:#181818;stroke-width:1.0;"/></g><!--MD5=[66837f7cee128dc6ca7363ed13e0752f]
link INICIAR_SESIÓN to INICIO--><g id="link_INICIAR_SESIÓN_INICIO"><path d="M76.42,165.6294 C88.84,185.4394 106.5,213.6094 106.5,213.6094 C106.5,213.6094 119.72,227.1094 132.29,239.9394 " fill="none" id="INICIAR_SESIÓN-to-INICIO" style="stroke:#181818;stroke-width:1.0;"/><polygon fill="#181818" points="135.8,243.5294,132.3575,234.3017,132.3004,239.9583,126.6438,239.9012,135.8,243.5294" style="stroke:#181818;stroke-width:1.0;"/><text fill="#000000" font-family="sans-serif" font-size="13" lengthAdjust="spacing" textLength="78" x="107.5" y="210.1045">Iniciar Sesión</text></g><!--MD5=[4eaddde1cee9389216769fe646f6a5a4]
link REGISTRAR_EGRESADO to INICIO--><g id="link_REGISTRAR_EGRESADO_INICIO"><path d="M230.47,165.7694 C214.67,185.9094 189.78,217.6394 172.83,239.2494 " fill="none" id="REGISTRAR_EGRESADO-to-INICIO" style="stroke:#181818;stroke-width:1.0;"/><polygon fill="#181818" points="169.55,243.4294,178.2549,238.8224,172.6385,239.4973,171.9636,233.8808,169.55,243.4294" style="stroke:#181818;stroke-width:1.0;"/><text fill="#000000" font-family="sans-serif" font-size="13" lengthAdjust="spacing" textLength="111" x="206.5" y="210.1045">Registrar Egresado</text></g><!--MD5=[1495991e21501395ab665efcecb13c7e]
link INICIO to LISTAR_SERVICIOS_PAQUETES--><g id="link_INICIO_LISTAR_SERVICIOS_PAQUETES"><path d="M178.32,243.5694 C193.05,231.1694 209.17,217.6094 209.17,217.6094 C209.17,217.6094 631.83,217.6094 631.83,217.6094 C631.83,217.6094 669.55,230.0294 705.78,241.9594 " fill="none" id="INICIO-to-LISTAR_SERVICIOS_PAQUETES" style="stroke:#181818;stroke-width:1.0;"/><polygon fill="#181818" points="710.65,243.5694,703.3409,236.9681,705.8981,242.0139,700.8522,244.5711,710.65,243.5694" style="stroke:#181818;stroke-width:1.0;"/></g><!--MD5=[664d0173aab66ebd1e1d37c3c58f4a1a]
reverse link INICIO to LISTAR_SERVICIOS_PAQUETES--><g id="link_INICIO_LISTAR_SERVICIOS_PAQUETES"><path d="M176.51,239.7194 C195.82,218.7594 220.83,191.6094 220.83,191.6094 C220.83,191.6094 620.17,191.6094 620.17,191.6094 C620.17,191.6094 684.57,222.2494 729.35,243.5494 " fill="none" id="INICIO-backto-LISTAR_SERVICIOS_PAQUETES" style="stroke:#181818;stroke-width:1.0;"/><polygon fill="#181818" points="172.98,243.5494,182.0218,239.6449,176.3696,239.8737,176.1408,234.2215,172.98,243.5494" style="stroke:#181818;stroke-width:1.0;"/></g><!--MD5=[10ee4d265459daef92205d557ef5fed0]
link INICIO to CANCELAR_SERVICIO_PAQUETE--><g id="link_INICIO_CANCELAR_SERVICIO_PAQUETE"><path d="M178.32,243.5694 C193.05,231.1694 209.17,217.6094 209.17,217.6094 C209.17,217.6094 367.83,217.6094 367.83,217.6094 C367.83,217.6094 406.63,230.0294 443.9,241.9594 " fill="none" id="INICIO-to-CANCELAR_SERVICIO_PAQUETE" style="stroke:#181818;stroke-width:1.0;"/><polygon fill="#181818" points="448.9,243.5694,441.5551,237.0079,444.1397,242.0398,439.1078,244.6244,448.9,243.5694" style="stroke:#181818;stroke-width:1.0;"/></g><!--MD5=[12041b9c3d056e4bb113fda8a8c9084b]
reverse link INICIO to CANCELAR_SERVICIO_PAQUETE--><g id="link_INICIO_CANCELAR_SERVICIO_PAQUETE"><path d="M176.51,239.7194 C195.82,218.7594 220.83,191.6094 220.83,191.6094 C220.83,191.6094 356.17,191.6094 356.17,191.6094 C356.17,191.6094 422.27,222.2494 468.23,243.5494 " fill="none" id="INICIO-backto-CANCELAR_SERVICIO_PAQUETE" style="stroke:#181818;stroke-width:1.0;"/><polygon fill="#181818" points="172.98,243.5494,182.0218,239.6449,176.3696,239.8737,176.1408,234.2215,172.98,243.5494" style="stroke:#181818;stroke-width:1.0;"/></g><!--MD5=[54daac3723ac904cae19f5aa971c4eb4]
link INICIO to REALIZAR_PETICIÓN--><g id="link_INICIO_REALIZAR_PETICIÓN"><path d="M179.71,274.8994 C189.84,279.4294 199.17,283.6094 199.17,283.6094 C199.17,283.6094 203.49,283.6094 209.46,283.6094 " fill="none" id="INICIO-to-REALIZAR_PETICIÓN" style="stroke:#181818;stroke-width:1.0;"/><polygon fill="#181818" points="214.79,283.6094,205.79,279.6094,209.79,283.6094,205.79,287.6094,214.79,283.6094" style="stroke:#181818;stroke-width:1.0;"/></g><!--MD5=[872c84babf2c185a47c8ce16a9fecf8b]
reverse link INICIO to REALIZAR_PETICIÓN--><g id="link_INICIO_REALIZAR_PETICIÓN"><path d="M184.36,250.2394 C192.52,246.5794 199.17,243.6094 199.17,243.6094 C199.17,243.6094 206.26,243.6094 214.79,243.6094 " fill="none" id="INICIO-backto-REALIZAR_PETICIÓN" style="stroke:#181818;stroke-width:1.0;"/><polygon fill="#181818" points="179.71,252.3194,189.5588,252.2994,184.2749,250.2794,186.2949,244.9955,179.71,252.3194" style="stroke:#181818;stroke-width:1.0;"/></g><!--MD5=[0876ba8a88d8bbcf732e506fae106d5c]
link INICIO to *end--><g id="link_INICIO_*end"><path d="M154.5,284.0494 C154.5,304.8494 154.5,337.3594 154.5,356.0594 " fill="none" id="INICIO-to-*end" style="stroke:#181818;stroke-width:1.0;"/><polygon fill="#181818" points="154.5,361.3894,158.5,352.3894,154.5,356.3894,150.5,352.3894,154.5,361.3894" style="stroke:#181818;stroke-width:1.0;"/><text fill="#000000" font-family="sans-serif" font-size="13" lengthAdjust="spacing" textLength="79" x="155.5" y="328.1045">Cerrar Sesión</text></g><!--MD5=[564260d65a29f07f45bda3511b388b15]
@startuml Contexto
title Contexto Egresado

skinparam {
    NoteBackgroundColor #whiteSmoke
    NoteBorderColor #green
    linetype polyline
}

hide empty description

[*] - -> INICIAR_SESIÓN
[*] - -> REGISTRAR_EGRESADO
INICIAR_SESIÓN - -> INICIO : Iniciar Sesión
REGISTRAR_EGRESADO - -> INICIO : Registrar Egresado

INICIO -> LISTAR_SERVICIOS_PAQUETES
INICIO <- LISTAR_SERVICIOS_PAQUETES
INICIO -> CANCELAR_SERVICIO_PAQUETE
INICIO <- CANCELAR_SERVICIO_PAQUETE
INICIO -> REALIZAR_PETICIÓN
INICIO <- REALIZAR_PETICIÓN

INICIO - -> [*] : Cerrar Sesión

@enduml

PlantUML version 1.2022.7(Mon Aug 22 19:01:30 CEST 2022)
(GPL source distribution)
Java Runtime: OpenJDK Runtime Environment
JVM: OpenJDK 64-Bit Server VM
Default Encoding: Cp1252
Language: es
Country: ES
--></g></svg>