<?xml version="1.0" encoding="UTF-8" standalone="no"?><svg xmlns="http://www.w3.org/2000/svg" xmlns:xlink="http://www.w3.org/1999/xlink" contentStyleType="text/css" height="391px" preserveAspectRatio="none" style="width:867px;height:391px;background:#FFFFFF;" version="1.1" viewBox="0 0 867 391" width="867px" zoomAndPan="magnify"><defs/><g><rect fill="none" height="29.0679" id="_title" style="stroke:none;stroke-width:1.0;" width="142" x="355.75" y="5"/><text fill="#000000" font-family="sans-serif" font-size="14" font-weight="bold" lengthAdjust="spacing" textLength="132" x="360.75" y="24.9659">Contexto Egresado</text><ellipse cx="155" cy="56.0679" fill="#222222" rx="10" ry="10" style="stroke:none;stroke-width:1.0;"/><rect fill="#F1F1F1" height="40" rx="12.5" ry="12.5" style="stroke:#181818;stroke-width:0.5;" width="120" x="7" y="127.0679"/><text fill="#000000" font-family="sans-serif" font-size="14" lengthAdjust="spacing" textLength="110" x="12" y="152.4999">INICIAR_SESIÓN</text><rect fill="#F1F1F1" height="40" rx="12.5" ry="12.5" style="stroke:#181818;stroke-width:0.5;" width="164" x="162" y="127.0679"/><text fill="#000000" font-family="sans-serif" font-size="14" lengthAdjust="spacing" textLength="154" x="167" y="152.4999">REGISTRAR_EGRESADO</text><rect fill="#F1F1F1" height="40" rx="12.5" ry="12.5" style="stroke:#181818;stroke-width:0.5;" width="56" x="127" y="246.0679"/><text fill="#000000" font-family="sans-serif" font-size="14" lengthAdjust="spacing" textLength="46" x="132" y="271.4999">INICIO</text><rect fill="#F1F1F1" height="40" rx="12.5" ry="12.5" style="stroke:#181818;stroke-width:0.5;" width="209" x="652.5" y="246.0679"/><text fill="#000000" font-family="sans-serif" font-size="14" lengthAdjust="spacing" textLength="199" x="657.5" y="271.4999">LISTAR_SERVICIOS_PAQUETES</text><rect fill="#F1F1F1" height="40" rx="12.5" ry="12.5" style="stroke:#181818;stroke-width:0.5;" width="218" x="399" y="246.0679"/><text fill="#000000" font-family="sans-serif" font-size="14" lengthAdjust="spacing" textLength="208" x="404" y="271.4999">CANCELAR_SERVICIO_PAQUETE</text><rect fill="#F1F1F1" height="40" rx="12.5" ry="12.5" style="stroke:#181818;stroke-width:0.5;" width="145" x="218.5" y="246.0679"/><text fill="#000000" font-family="sans-serif" font-size="14" lengthAdjust="spacing" textLength="135" x="223.5" y="271.4999">REALIZAR_PETICION</text><ellipse cx="155" cy="375.0679" fill="none" rx="10" ry="10" style="stroke:#222222;stroke-width:1.0;"/><ellipse cx="155.5" cy="375.5679" fill="#222222" rx="6" ry="6" style="stroke:none;stroke-width:1.0;"/><!--MD5=[fffa5c9a6c2a3d9bbcf62492fefaaec1]
link *start to INICIAR_SESIÓN--><g id="link_*start_INICIAR_SESIÓN"><path d="M148.39,63.7579 C136.27,76.0079 109.98,102.5979 90.54,122.2579 " fill="none" id="*start-to-INICIAR_SESIÓN" style="stroke:#181818;stroke-width:1.0;"/><polygon fill="#181818" points="87.32,125.5179,96.4908,121.9267,90.834,121.961,90.7998,116.3043,87.32,125.5179" style="stroke:#181818;stroke-width:1.0;"/></g><!--MD5=[ef2c9c3cadb6f7eb859a57fbfd2a6d8e]
link *start to REGISTRAR_EGRESADO--><g id="link_*start_REGISTRAR_EGRESADO"><path d="M161.69,63.7579 C173.94,76.0079 200.53,102.5979 220.19,122.2579 " fill="none" id="*start-to-REGISTRAR_EGRESADO" style="stroke:#181818;stroke-width:1.0;"/><polygon fill="#181818" points="223.45,125.5179,219.9145,116.3255,219.9145,121.9824,214.2576,121.9824,223.45,125.5179" style="stroke:#181818;stroke-width:1.0;"/></g><!--MD5=[66837f7cee128dc6ca7363ed13e0752f]
link INICIAR_SESIÓN to INICIO--><g id="link_INICIAR_SESIÓN_INICIO"><path d="M78.07,167.3679 C89.6,187.4779 106,216.0679 106,216.0679 C106,216.0679 118.64,228.7079 131.08,241.1479 " fill="none" id="INICIAR_SESIÓN-to-INICIO" style="stroke:#181818;stroke-width:1.0;"/><polygon fill="#181818" points="134.56,244.6279,131.0245,235.4355,131.0245,241.0924,125.3676,241.0924,134.56,244.6279" style="stroke:#181818;stroke-width:1.0;"/><text fill="#000000" font-family="sans-serif" font-size="13" lengthAdjust="spacing" textLength="78" x="107" y="211.9649">Iniciar Sesión</text></g><!--MD5=[4eaddde1cee9389216769fe646f6a5a4]
link REGISTRAR_EGRESADO to INICIO--><g id="link_REGISTRAR_EGRESADO_INICIO"><path d="M229.3,167.3879 C214.04,187.4579 190.11,218.9079 173.55,240.6779 " fill="none" id="REGISTRAR_EGRESADO-to-INICIO" style="stroke:#181818;stroke-width:1.0;"/><polygon fill="#181818" points="170.63,244.5179,179.2682,239.7869,173.6619,240.5421,172.9068,234.9358,170.63,244.5179" style="stroke:#181818;stroke-width:1.0;"/><text fill="#000000" font-family="sans-serif" font-size="13" lengthAdjust="spacing" textLength="113" x="206" y="211.9649">Registrar Egresado</text></g><!--MD5=[1495991e21501395ab665efcecb13c7e]
link INICIO to LISTAR_SERVICIOS_PAQUETES--><g id="link_INICIO_LISTAR_SERVICIOS_PAQUETES"><path d="M180.46,245.6079 C195.91,233.1979 212.67,219.7379 212.67,219.7379 C212.67,219.7379 623.33,219.7379 623.33,219.7379 C623.33,219.7379 658.04,231.7679 692.09,243.5679 " fill="none" id="INICIO-to-LISTAR_SERVICIOS_PAQUETES" style="stroke:#181818;stroke-width:1.0;"/><polygon fill="#181818" points="696.55,245.1179,689.3494,238.3985,691.824,243.4853,686.7372,245.96,696.55,245.1179" style="stroke:#181818;stroke-width:1.0;"/></g><!--MD5=[664d0173aab66ebd1e1d37c3c58f4a1a]
reverse link INICIO to LISTAR_SERVICIOS_PAQUETES--><g id="link_INICIO_LISTAR_SERVICIOS_PAQUETES"><path d="M178.76,241.1679 C198.83,220.1279 224.33,193.3979 224.33,193.3979 C224.33,193.3979 611.67,193.3979 611.67,193.3979 C611.67,193.3979 673.14,224.1379 716.13,245.6279 " fill="none" id="INICIO-backto-LISTAR_SERVICIOS_PAQUETES" style="stroke:#181818;stroke-width:1.0;"/><polygon fill="#181818" points="175.36,244.7279,184.4564,240.9523,178.8015,241.1008,178.653,235.4459,175.36,244.7279" style="stroke:#181818;stroke-width:1.0;"/></g><!--MD5=[10ee4d265459daef92205d557ef5fed0]
link INICIO to CANCELAR_SERVICIO_PAQUETE--><g id="link_INICIO_CANCELAR_SERVICIO_PAQUETE"><path d="M180.46,245.6079 C195.91,233.1979 212.67,219.7379 212.67,219.7379 C212.67,219.7379 369.33,219.7379 369.33,219.7379 C369.33,219.7379 405.34,231.7679 440.66,243.5679 " fill="none" id="INICIO-to-CANCELAR_SERVICIO_PAQUETE" style="stroke:#181818;stroke-width:1.0;"/><polygon fill="#181818" points="445.34,245.1279,438.0728,238.4806,440.598,243.5425,435.5361,246.0677,445.34,245.1279" style="stroke:#181818;stroke-width:1.0;"/></g><!--MD5=[12041b9c3d056e4bb113fda8a8c9084b]
reverse link INICIO to CANCELAR_SERVICIO_PAQUETE--><g id="link_INICIO_CANCELAR_SERVICIO_PAQUETE"><path d="M178.76,241.1679 C198.83,220.1279 224.33,193.3979 224.33,193.3979 C224.33,193.3979 357.67,193.3979 357.67,193.3979 C357.67,193.3979 421.26,224.1379 465.72,245.6279 " fill="none" id="INICIO-backto-CANCELAR_SERVICIO_PAQUETE" style="stroke:#181818;stroke-width:1.0;"/><polygon fill="#181818" points="175.36,244.7279,184.4564,240.9523,178.8015,241.1008,178.653,235.4459,175.36,244.7279" style="stroke:#181818;stroke-width:1.0;"/></g><!--MD5=[74c536f2fd072e549a0dfd499ee42aa8]
link INICIO to REALIZAR_PETICION--><g id="link_INICIO_REALIZAR_PETICION"><path d="M183.45,278.6179 C192.56,282.6379 200.33,286.0679 200.33,286.0679 C200.33,286.0679 205.24,286.0679 211.82,286.0679 " fill="none" id="INICIO-to-REALIZAR_PETICION" style="stroke:#181818;stroke-width:1.0;"/><polygon fill="#181818" points="216.74,286.0679,207.74,282.0679,211.74,286.0679,207.74,290.0679,216.74,286.0679" style="stroke:#181818;stroke-width:1.0;"/></g><!--MD5=[e7e6a61b615f7f8a73ef87547db8c28a]
reverse link INICIO to REALIZAR_PETICION--><g id="link_INICIO_REALIZAR_PETICION"><path d="M189.17,250.9879 C195.59,248.1579 200.33,246.0679 200.33,246.0679 C200.33,246.0679 208.7,246.0679 218.25,246.0679 " fill="none" id="INICIO-backto-REALIZAR_PETICION" style="stroke:#181818;stroke-width:1.0;"/><polygon fill="#181818" points="184.84,252.9079,194.6888,252.9394,189.4155,250.8918,191.4631,245.6185,184.84,252.9079" style="stroke:#181818;stroke-width:1.0;"/></g><!--MD5=[0876ba8a88d8bbcf732e506fae106d5c]
link INICIO to *end--><g id="link_INICIO_*end"><path d="M155,286.1979 C155,306.7579 155,339.0579 155,358.2379 " fill="none" id="INICIO-to-*end" style="stroke:#181818;stroke-width:1.0;"/><polygon fill="#181818" points="155,363.1479,159,354.1479,155,358.1479,151,354.1479,155,363.1479" style="stroke:#181818;stroke-width:1.0;"/><text fill="#000000" font-family="sans-serif" font-size="13" lengthAdjust="spacing" textLength="74" x="156" y="330.9649">Cerar Sesión</text></g><!--MD5=[809d33a6bd8e1e824e175a6e00070321]
@startuml Contexto
title Contexto Egresado

skinparam {
    NoteBackgroundColor #whiteSmoke
    NoteBorderColor #green
    linetype polyline
}

hide empty description

[*] - -> INICIAR_SESIÓN
[*] - -> REGISTRAR_EGRESADO
INICIAR_SESIÓN - -> INICIO : Iniciar Sesión
REGISTRAR_EGRESADO - -> INICIO : Registrar Egresado

INICIO -> LISTAR_SERVICIOS_PAQUETES
INICIO <- LISTAR_SERVICIOS_PAQUETES
INICIO -> CANCELAR_SERVICIO_PAQUETE
INICIO <- CANCELAR_SERVICIO_PAQUETE
INICIO -> REALIZAR_PETICION
INICIO <- REALIZAR_PETICION

INICIO - -> [*] : Cerar Sesión

@enduml

PlantUML version 1.2022.7(Mon Aug 22 19:01:30 CEST 2022)
(GPL source distribution)
Java Runtime: OpenJDK Runtime Environment
JVM: OpenJDK 64-Bit Server VM
Default Encoding: UTF-8
Language: es
Country: ES
--></g></svg>