<?xml version="1.0" encoding="us-ascii" standalone="no"?><svg xmlns="http://www.w3.org/2000/svg" xmlns:xlink="http://www.w3.org/1999/xlink" contentStyleType="text/css" height="734px" preserveAspectRatio="none" style="width:1383px;height:734px;background:#FFFFFF;" version="1.1" viewBox="0 0 1383 734" width="1383px" zoomAndPan="magnify"><defs/><g><text fill="#000000" font-family="sans-serif" font-size="14" font-weight="bold" lengthAdjust="spacing" textLength="292" x="538.75" y="22.9951">Modelo de Dominio - Aplicaci&#243;n FISK</text><!--class Usuario--><g id="elem_Usuario"><rect codeLine="3" fill="#F1F1F1" height="80.5938" id="Usuario" rx="2.5" ry="2.5" style="stroke:#181818;stroke-width:0.5;" width="202" x="828" y="44.2969"/><ellipse cx="899.25" cy="60.2969" fill="#ADD1B2" rx="11" ry="11" style="stroke:#181818;stroke-width:1.0;"/><path d="M901.5938,55.9688 C900.6563,55.5313 900.0625,55.3906 899.1875,55.3906 C896.5625,55.3906 894.5625,57.4688 894.5625,60.1875 L894.5625,61.3125 C894.5625,63.8906 896.6719,65.7813 899.5625,65.7813 C900.7813,65.7813 901.9375,65.4844 902.6875,64.9375 C903.2656,64.5313 903.5938,64.0781 903.5938,63.6875 C903.5938,63.2344 903.2031,62.8438 902.7344,62.8438 C902.5156,62.8438 902.3125,62.9219 902.125,63.1094 C901.6719,63.5938 901.6719,63.5938 901.4844,63.6875 C901.0625,63.9531 900.375,64.0781 899.6094,64.0781 C897.5625,64.0781 896.2656,62.9844 896.2656,61.2813 L896.2656,60.1875 C896.2656,58.4063 897.5156,57.0938 899.25,57.0938 C899.8281,57.0938 900.4375,57.25 900.9063,57.5 C901.3906,57.7813 901.5625,58 901.6563,58.4063 C901.7188,58.8125 901.75,58.9375 901.8906,59.0625 C902.0313,59.2031 902.2656,59.3125 902.4844,59.3125 C902.75,59.3125 903.0156,59.1719 903.1875,58.9531 C903.2969,58.7969 903.3281,58.6094 903.3281,58.1875 L903.3281,56.7656 C903.3281,56.3281 903.3125,56.2031 903.2188,56.0469 C903.0625,55.7813 902.7813,55.6406 902.4844,55.6406 C902.1875,55.6406 901.9844,55.7344 901.7656,56.0469 L901.5938,55.9688 Z " fill="#000000"/><text fill="#000000" font-family="sans-serif" font-size="14" lengthAdjust="spacing" textLength="51" x="919.75" y="65.1436">Usuario</text><line style="stroke:#181818;stroke-width:0.5;" x1="829" x2="1029" y1="76.2969" y2="76.2969"/><rect fill="none" height="6" style="stroke:#C82930;stroke-width:1.0;" width="6" x="836" y="86.9453"/><text fill="#000000" font-family="sans-serif" font-size="14" lengthAdjust="spacing" textLength="110" x="848" y="93.292">nombre: String</text><rect fill="none" height="6" style="stroke:#C82930;stroke-width:1.0;" width="6" x="836" y="103.2422"/><text fill="#000000" font-family="sans-serif" font-size="14" lengthAdjust="spacing" textLength="176" x="848" y="109.5889">registroDeAcciones: Log</text><line style="stroke:#181818;stroke-width:0.5;" x1="829" x2="1029" y1="116.8906" y2="116.8906"/></g><!--class Proyecto--><g id="elem_Proyecto"><rect codeLine="8" fill="#F1F1F1" height="113.1875" id="Proyecto" rx="2.5" ry="2.5" style="stroke:#181818;stroke-width:0.5;" width="251" x="612.5" y="202.2969"/><ellipse cx="701.25" cy="218.2969" fill="#ADD1B2" rx="11" ry="11" style="stroke:#181818;stroke-width:1.0;"/><path d="M703.5938,213.9688 C702.6563,213.5313 702.0625,213.3906 701.1875,213.3906 C698.5625,213.3906 696.5625,215.4688 696.5625,218.1875 L696.5625,219.3125 C696.5625,221.8906 698.6719,223.7813 701.5625,223.7813 C702.7813,223.7813 703.9375,223.4844 704.6875,222.9375 C705.2656,222.5313 705.5938,222.0781 705.5938,221.6875 C705.5938,221.2344 705.2031,220.8438 704.7344,220.8438 C704.5156,220.8438 704.3125,220.9219 704.125,221.1094 C703.6719,221.5938 703.6719,221.5938 703.4844,221.6875 C703.0625,221.9531 702.375,222.0781 701.6094,222.0781 C699.5625,222.0781 698.2656,220.9844 698.2656,219.2813 L698.2656,218.1875 C698.2656,216.4063 699.5156,215.0938 701.25,215.0938 C701.8281,215.0938 702.4375,215.25 702.9063,215.5 C703.3906,215.7813 703.5625,216 703.6563,216.4063 C703.7188,216.8125 703.75,216.9375 703.8906,217.0625 C704.0313,217.2031 704.2656,217.3125 704.4844,217.3125 C704.75,217.3125 705.0156,217.1719 705.1875,216.9531 C705.2969,216.7969 705.3281,216.6094 705.3281,216.1875 L705.3281,214.7656 C705.3281,214.3281 705.3125,214.2031 705.2188,214.0469 C705.0625,213.7813 704.7813,213.6406 704.4844,213.6406 C704.1875,213.6406 703.9844,213.7344 703.7656,214.0469 L703.5938,213.9688 Z " fill="#000000"/><text fill="#000000" font-family="sans-serif" font-size="14" lengthAdjust="spacing" textLength="65" x="721.75" y="223.1436">Proyecto</text><line style="stroke:#181818;stroke-width:0.5;" x1="613.5" x2="862.5" y1="234.2969" y2="234.2969"/><rect fill="none" height="6" style="stroke:#C82930;stroke-width:1.0;" width="6" x="620.5" y="244.9453"/><text fill="#000000" font-family="sans-serif" font-size="14" lengthAdjust="spacing" textLength="110" x="632.5" y="251.292">nombre: String</text><rect fill="none" height="6" style="stroke:#C82930;stroke-width:1.0;" width="6" x="620.5" y="261.2422"/><text fill="#000000" font-family="sans-serif" font-size="14" lengthAdjust="spacing" textLength="136" x="632.5" y="267.5889">descripcion: String</text><rect fill="none" height="6" style="stroke:#C82930;stroke-width:1.0;" width="6" x="620.5" y="277.5391"/><text fill="#000000" font-family="sans-serif" font-size="14" lengthAdjust="spacing" textLength="147" x="632.5" y="283.8857">fechaCreacion: Date</text><rect fill="none" height="6" style="stroke:#C82930;stroke-width:1.0;" width="6" x="620.5" y="293.8359"/><text fill="#000000" font-family="sans-serif" font-size="14" lengthAdjust="spacing" textLength="225" x="632.5" y="300.1826">simulaciones: List&lt;Simulacion&gt;</text><line style="stroke:#181818;stroke-width:0.5;" x1="613.5" x2="862.5" y1="307.4844" y2="307.4844"/></g><!--class Simulacion--><g id="elem_Simulacion"><rect codeLine="15" fill="#F1F1F1" height="129.4844" id="Simulacion" rx="2.5" ry="2.5" style="stroke:#181818;stroke-width:0.5;" width="275" x="600.5" y="392.2969"/><ellipse cx="695.25" cy="408.2969" fill="#ADD1B2" rx="11" ry="11" style="stroke:#181818;stroke-width:1.0;"/><path d="M697.5938,403.9688 C696.6563,403.5313 696.0625,403.3906 695.1875,403.3906 C692.5625,403.3906 690.5625,405.4688 690.5625,408.1875 L690.5625,409.3125 C690.5625,411.8906 692.6719,413.7813 695.5625,413.7813 C696.7813,413.7813 697.9375,413.4844 698.6875,412.9375 C699.2656,412.5313 699.5938,412.0781 699.5938,411.6875 C699.5938,411.2344 699.2031,410.8438 698.7344,410.8438 C698.5156,410.8438 698.3125,410.9219 698.125,411.1094 C697.6719,411.5938 697.6719,411.5938 697.4844,411.6875 C697.0625,411.9531 696.375,412.0781 695.6094,412.0781 C693.5625,412.0781 692.2656,410.9844 692.2656,409.2813 L692.2656,408.1875 C692.2656,406.4063 693.5156,405.0938 695.25,405.0938 C695.8281,405.0938 696.4375,405.25 696.9063,405.5 C697.3906,405.7813 697.5625,406 697.6563,406.4063 C697.7188,406.8125 697.75,406.9375 697.8906,407.0625 C698.0313,407.2031 698.2656,407.3125 698.4844,407.3125 C698.75,407.3125 699.0156,407.1719 699.1875,406.9531 C699.2969,406.7969 699.3281,406.6094 699.3281,406.1875 L699.3281,404.7656 C699.3281,404.3281 699.3125,404.2031 699.2188,404.0469 C699.0625,403.7813 698.7813,403.6406 698.4844,403.6406 C698.1875,403.6406 697.9844,403.7344 697.7656,404.0469 L697.5938,403.9688 Z " fill="#000000"/><text fill="#000000" font-family="sans-serif" font-size="14" lengthAdjust="spacing" textLength="77" x="715.75" y="413.1436">Simulacion</text><line style="stroke:#181818;stroke-width:0.5;" x1="601.5" x2="874.5" y1="424.2969" y2="424.2969"/><rect fill="none" height="6" style="stroke:#C82930;stroke-width:1.0;" width="6" x="608.5" y="434.9453"/><text fill="#000000" font-family="sans-serif" font-size="14" lengthAdjust="spacing" textLength="209" x="620.5" y="441.292">tipologia: TipologiaElemento</text><rect fill="none" height="6" style="stroke:#C82930;stroke-width:1.0;" width="6" x="608.5" y="451.2422"/><text fill="#000000" font-family="sans-serif" font-size="14" lengthAdjust="spacing" textLength="127" x="620.5" y="457.5889">material: Material</text><rect fill="none" height="6" style="stroke:#C82930;stroke-width:1.0;" width="6" x="608.5" y="467.5391"/><text fill="#000000" font-family="sans-serif" font-size="14" lengthAdjust="spacing" textLength="249" x="620.5" y="473.8857">agresionTermica: AgresionTermica</text><rect fill="none" height="6" style="stroke:#C82930;stroke-width:1.0;" width="6" x="608.5" y="483.8359"/><text fill="#000000" font-family="sans-serif" font-size="14" lengthAdjust="spacing" textLength="174" x="620.5" y="490.1826">graficaReaccion: Grafica</text><rect fill="none" height="6" style="stroke:#C82930;stroke-width:1.0;" width="6" x="608.5" y="500.1328"/><text fill="#000000" font-family="sans-serif" font-size="14" lengthAdjust="spacing" textLength="161" x="620.5" y="506.4795">fechaSimulacion: Date</text><line style="stroke:#181818;stroke-width:0.5;" x1="601.5" x2="874.5" y1="513.7813" y2="513.7813"/></g><!--class TipologiaElemento--><g id="elem_TipologiaElemento"><rect codeLine="23" fill="#F1F1F1" height="96.8906" id="TipologiaElemento" rx="2.5" ry="2.5" style="stroke:#181818;stroke-width:0.5;" width="168" x="7" y="614.2969"/><ellipse cx="22" cy="630.2969" fill="#EB937F" rx="11" ry="11" style="stroke:#181818;stroke-width:1.0;"/><path d="M20.7969,631.1719 L22.25,631.1719 L22.25,631.2813 C22.25,631.6875 22.2813,631.8438 22.3594,632 C22.5156,632.25 22.7969,632.4063 23.0938,632.4063 C23.3438,632.4063 23.6094,632.2656 23.7656,632.0469 C23.8906,631.8906 23.9219,631.7344 23.9219,631.2813 L23.9219,629.3594 C23.9219,629.2031 23.9219,629.1563 23.9063,629 C23.8438,628.5313 23.5313,628.2188 23.0781,628.2188 C22.8281,628.2188 22.5625,628.3594 22.3906,628.5781 C22.2813,628.75 22.25,628.9063 22.25,629.3594 L22.25,629.4844 L20.7969,629.4844 L20.7969,627.0781 L24.7813,627.0781 L24.7813,627.9375 C24.7813,628.3438 24.8125,628.5156 24.8906,628.6719 C25.0625,628.9219 25.3438,629.0781 25.625,629.0781 C25.8906,629.0781 26.1563,628.9375 26.3281,628.7188 C26.4375,628.5469 26.4688,628.4063 26.4688,627.9375 L26.4688,625.3906 L18.8438,625.3906 C18.4063,625.3906 18.2813,625.4063 18.125,625.5 C17.875,625.6563 17.7188,625.9531 17.7188,626.2344 C17.7188,626.5156 17.8594,626.7656 18.0781,626.9375 C18.2344,627.0469 18.4219,627.0781 18.8438,627.0781 L19.0938,627.0781 L19.0938,633.5938 L18.8438,633.5938 C18.4375,633.5938 18.2813,633.6094 18.125,633.7188 C17.875,633.8906 17.7188,634.1563 17.7188,634.4531 C17.7188,634.7188 17.8594,634.9688 18.0781,635.125 C18.2188,635.25 18.4531,635.2969 18.8438,635.2969 L26.8438,635.2969 L26.8438,632.7188 C26.8438,632.2813 26.8125,632.1406 26.7344,631.9844 C26.5625,631.7344 26.2813,631.5781 26,631.5781 C25.7344,631.5781 25.4688,631.6875 25.2969,631.9375 C25.1875,632.0938 25.1563,632.2344 25.1563,632.7188 L25.1563,633.5938 L20.7969,633.5938 L20.7969,631.1719 Z " fill="#000000"/><text fill="#000000" font-family="sans-serif" font-size="14" lengthAdjust="spacing" textLength="136" x="36" y="635.1436">TipologiaElemento</text><line style="stroke:#181818;stroke-width:0.5;" x1="8" x2="174" y1="646.2969" y2="646.2969"/><text fill="#000000" font-family="sans-serif" font-size="14" lengthAdjust="spacing" textLength="61" x="13" y="663.292">PLANOS,</text><text fill="#000000" font-family="sans-serif" font-size="14" lengthAdjust="spacing" textLength="116" x="13" y="679.5889">BIDIMENSIONAL,</text><text fill="#000000" font-family="sans-serif" font-size="14" lengthAdjust="spacing" textLength="121" x="13" y="695.8857">TRIDIMENSIONAL</text><line style="stroke:#181818;stroke-width:0.5;" x1="8" x2="174" y1="703.1875" y2="703.1875"/></g><!--class Material--><g id="elem_Material"><rect codeLine="29" fill="#F1F1F1" height="129.4844" id="Material" rx="2.5" ry="2.5" style="stroke:#181818;stroke-width:0.5;" width="318" x="210" y="598.2969"/><ellipse cx="335.75" cy="614.2969" fill="#ADD1B2" rx="11" ry="11" style="stroke:#181818;stroke-width:1.0;"/><path d="M338.0938,609.9688 C337.1563,609.5313 336.5625,609.3906 335.6875,609.3906 C333.0625,609.3906 331.0625,611.4688 331.0625,614.1875 L331.0625,615.3125 C331.0625,617.8906 333.1719,619.7813 336.0625,619.7813 C337.2813,619.7813 338.4375,619.4844 339.1875,618.9375 C339.7656,618.5313 340.0938,618.0781 340.0938,617.6875 C340.0938,617.2344 339.7031,616.8438 339.2344,616.8438 C339.0156,616.8438 338.8125,616.9219 338.625,617.1094 C338.1719,617.5938 338.1719,617.5938 337.9844,617.6875 C337.5625,617.9531 336.875,618.0781 336.1094,618.0781 C334.0625,618.0781 332.7656,616.9844 332.7656,615.2813 L332.7656,614.1875 C332.7656,612.4063 334.0156,611.0938 335.75,611.0938 C336.3281,611.0938 336.9375,611.25 337.4063,611.5 C337.8906,611.7813 338.0625,612 338.1563,612.4063 C338.2188,612.8125 338.25,612.9375 338.3906,613.0625 C338.5313,613.2031 338.7656,613.3125 338.9844,613.3125 C339.25,613.3125 339.5156,613.1719 339.6875,612.9531 C339.7969,612.7969 339.8281,612.6094 339.8281,612.1875 L339.8281,610.7656 C339.8281,610.3281 339.8125,610.2031 339.7188,610.0469 C339.5625,609.7813 339.2813,609.6406 338.9844,609.6406 C338.6875,609.6406 338.4844,609.7344 338.2656,610.0469 L338.0938,609.9688 Z " fill="#000000"/><text fill="#000000" font-family="sans-serif" font-size="14" lengthAdjust="spacing" textLength="58" x="356.25" y="619.1436">Material</text><line style="stroke:#181818;stroke-width:0.5;" x1="211" x2="527" y1="630.2969" y2="630.2969"/><rect fill="none" height="6" style="stroke:#C82930;stroke-width:1.0;" width="6" x="218" y="640.9453"/><text fill="#000000" font-family="sans-serif" font-size="14" lengthAdjust="spacing" textLength="110" x="230" y="647.292">nombre: String</text><rect fill="none" height="6" style="stroke:#C82930;stroke-width:1.0;" width="6" x="218" y="657.2422"/><text fill="#000000" font-family="sans-serif" font-size="14" lengthAdjust="spacing" textLength="199" x="230" y="663.5889">permeabilidadAgua: Double</text><rect fill="none" height="6" style="stroke:#C82930;stroke-width:1.0;" width="6" x="218" y="673.5391"/><text fill="#000000" font-family="sans-serif" font-size="14" lengthAdjust="spacing" textLength="190" x="230" y="679.8857">permeabilidadGas: Double</text><rect fill="none" height="6" style="stroke:#C82930;stroke-width:1.0;" width="6" x="218" y="689.8359"/><text fill="#000000" font-family="sans-serif" font-size="14" lengthAdjust="spacing" textLength="170" x="230" y="696.1826">conductorCalor: Double</text><rect fill="none" height="6" style="stroke:#C82930;stroke-width:1.0;" width="6" x="218" y="706.1328"/><text fill="#000000" font-family="sans-serif" font-size="14" lengthAdjust="spacing" textLength="292" x="230" y="712.4795">propiedadesExtra: Map&lt;String, Double&gt;</text><line style="stroke:#181818;stroke-width:0.5;" x1="211" x2="527" y1="719.7813" y2="719.7813"/></g><!--class AgresionTermica--><g id="elem_AgresionTermica"><rect codeLine="37" fill="#F1F1F1" height="129.4844" id="AgresionTermica" rx="2.5" ry="2.5" style="stroke:#181818;stroke-width:0.5;" width="349" x="563.5" y="598.2969"/><ellipse cx="673.25" cy="614.2969" fill="#ADD1B2" rx="11" ry="11" style="stroke:#181818;stroke-width:1.0;"/><path d="M675.5938,609.9688 C674.6563,609.5313 674.0625,609.3906 673.1875,609.3906 C670.5625,609.3906 668.5625,611.4688 668.5625,614.1875 L668.5625,615.3125 C668.5625,617.8906 670.6719,619.7813 673.5625,619.7813 C674.7813,619.7813 675.9375,619.4844 676.6875,618.9375 C677.2656,618.5313 677.5938,618.0781 677.5938,617.6875 C677.5938,617.2344 677.2031,616.8438 676.7344,616.8438 C676.5156,616.8438 676.3125,616.9219 676.125,617.1094 C675.6719,617.5938 675.6719,617.5938 675.4844,617.6875 C675.0625,617.9531 674.375,618.0781 673.6094,618.0781 C671.5625,618.0781 670.2656,616.9844 670.2656,615.2813 L670.2656,614.1875 C670.2656,612.4063 671.5156,611.0938 673.25,611.0938 C673.8281,611.0938 674.4375,611.25 674.9063,611.5 C675.3906,611.7813 675.5625,612 675.6563,612.4063 C675.7188,612.8125 675.75,612.9375 675.8906,613.0625 C676.0313,613.2031 676.2656,613.3125 676.4844,613.3125 C676.75,613.3125 677.0156,613.1719 677.1875,612.9531 C677.2969,612.7969 677.3281,612.6094 677.3281,612.1875 L677.3281,610.7656 C677.3281,610.3281 677.3125,610.2031 677.2188,610.0469 C677.0625,609.7813 676.7813,609.6406 676.4844,609.6406 C676.1875,609.6406 675.9844,609.7344 675.7656,610.0469 L675.5938,609.9688 Z " fill="#000000"/><text fill="#000000" font-family="sans-serif" font-size="14" lengthAdjust="spacing" textLength="121" x="693.75" y="619.1436">AgresionTermica</text><line style="stroke:#181818;stroke-width:0.5;" x1="564.5" x2="911.5" y1="630.2969" y2="630.2969"/><rect fill="none" height="6" style="stroke:#C82930;stroke-width:1.0;" width="6" x="571.5" y="640.9453"/><text fill="#000000" font-family="sans-serif" font-size="14" lengthAdjust="spacing" textLength="152" x="583.5" y="647.292">temperatura: Double</text><rect fill="none" height="6" style="stroke:#C82930;stroke-width:1.0;" width="6" x="571.5" y="657.2422"/><text fill="#000000" font-family="sans-serif" font-size="14" lengthAdjust="spacing" textLength="220" x="583.5" y="663.5889">tiempoCalentamiento: Double</text><rect fill="none" height="6" style="stroke:#C82930;stroke-width:1.0;" width="6" x="571.5" y="673.5391"/><text fill="#000000" font-family="sans-serif" font-size="14" lengthAdjust="spacing" textLength="184" x="583.5" y="679.8857">humedadExterior: Double</text><rect fill="none" height="6" style="stroke:#C82930;stroke-width:1.0;" width="6" x="571.5" y="689.8359"/><text fill="#000000" font-family="sans-serif" font-size="14" lengthAdjust="spacing" textLength="181" x="583.5" y="696.1826">geolocalizacion: Location</text><rect fill="none" height="6" style="stroke:#C82930;stroke-width:1.0;" width="6" x="571.5" y="706.1328"/><text fill="#000000" font-family="sans-serif" font-size="14" lengthAdjust="spacing" textLength="323" x="583.5" y="712.4795">agresionPersonalizada: Map&lt;String, Double&gt;</text><line style="stroke:#181818;stroke-width:0.5;" x1="564.5" x2="911.5" y1="719.7813" y2="719.7813"/></g><!--class Grafica--><g id="elem_Grafica"><rect codeLine="45" fill="#F1F1F1" height="80.5938" id="Grafica" rx="2.5" ry="2.5" style="stroke:#181818;stroke-width:0.5;" width="195" x="947.5" y="622.2969"/><ellipse cx="1015.25" cy="638.2969" fill="#ADD1B2" rx="11" ry="11" style="stroke:#181818;stroke-width:1.0;"/><path d="M1017.5938,633.9688 C1016.6563,633.5313 1016.0625,633.3906 1015.1875,633.3906 C1012.5625,633.3906 1010.5625,635.4688 1010.5625,638.1875 L1010.5625,639.3125 C1010.5625,641.8906 1012.6719,643.7813 1015.5625,643.7813 C1016.7813,643.7813 1017.9375,643.4844 1018.6875,642.9375 C1019.2656,642.5313 1019.5938,642.0781 1019.5938,641.6875 C1019.5938,641.2344 1019.2031,640.8438 1018.7344,640.8438 C1018.5156,640.8438 1018.3125,640.9219 1018.125,641.1094 C1017.6719,641.5938 1017.6719,641.5938 1017.4844,641.6875 C1017.0625,641.9531 1016.375,642.0781 1015.6094,642.0781 C1013.5625,642.0781 1012.2656,640.9844 1012.2656,639.2813 L1012.2656,638.1875 C1012.2656,636.4063 1013.5156,635.0938 1015.25,635.0938 C1015.8281,635.0938 1016.4375,635.25 1016.9063,635.5 C1017.3906,635.7813 1017.5625,636 1017.6563,636.4063 C1017.7188,636.8125 1017.75,636.9375 1017.8906,637.0625 C1018.0313,637.2031 1018.2656,637.3125 1018.4844,637.3125 C1018.75,637.3125 1019.0156,637.1719 1019.1875,636.9531 C1019.2969,636.7969 1019.3281,636.6094 1019.3281,636.1875 L1019.3281,634.7656 C1019.3281,634.3281 1019.3125,634.2031 1019.2188,634.0469 C1019.0625,633.7813 1018.7813,633.6406 1018.4844,633.6406 C1018.1875,633.6406 1017.9844,633.7344 1017.7656,634.0469 L1017.5938,633.9688 Z " fill="#000000"/><text fill="#000000" font-family="sans-serif" font-size="14" lengthAdjust="spacing" textLength="51" x="1035.75" y="643.1436">Grafica</text><line style="stroke:#181818;stroke-width:0.5;" x1="948.5" x2="1141.5" y1="654.2969" y2="654.2969"/><rect fill="none" height="6" style="stroke:#C82930;stroke-width:1.0;" width="6" x="955.5" y="664.9453"/><text fill="#000000" font-family="sans-serif" font-size="14" lengthAdjust="spacing" textLength="169" x="967.5" y="671.292">datos: List&lt;DataPoint&gt;</text><rect fill="none" height="6" style="stroke:#C82930;stroke-width:1.0;" width="6" x="955.5" y="681.2422"/><text fill="#000000" font-family="sans-serif" font-size="14" lengthAdjust="spacing" textLength="134" x="967.5" y="687.5889">tipoGrafica: String</text><line style="stroke:#181818;stroke-width:0.5;" x1="948.5" x2="1141.5" y1="694.8906" y2="694.8906"/></g><!--class DataPoint--><g id="elem_DataPoint"><rect codeLine="50" fill="#F1F1F1" height="80.5938" id="DataPoint" rx="2.5" ry="2.5" style="stroke:#181818;stroke-width:0.5;" width="131" x="1065.5" y="44.2969"/><ellipse cx="1092.65" cy="60.2969" fill="#ADD1B2" rx="11" ry="11" style="stroke:#181818;stroke-width:1.0;"/><path d="M1094.9938,55.9688 C1094.0563,55.5313 1093.4625,55.3906 1092.5875,55.3906 C1089.9625,55.3906 1087.9625,57.4688 1087.9625,60.1875 L1087.9625,61.3125 C1087.9625,63.8906 1090.0719,65.7813 1092.9625,65.7813 C1094.1813,65.7813 1095.3375,65.4844 1096.0875,64.9375 C1096.6656,64.5313 1096.9938,64.0781 1096.9938,63.6875 C1096.9938,63.2344 1096.6031,62.8438 1096.1344,62.8438 C1095.9156,62.8438 1095.7125,62.9219 1095.525,63.1094 C1095.0719,63.5938 1095.0719,63.5938 1094.8844,63.6875 C1094.4625,63.9531 1093.775,64.0781 1093.0094,64.0781 C1090.9625,64.0781 1089.6656,62.9844 1089.6656,61.2813 L1089.6656,60.1875 C1089.6656,58.4063 1090.9156,57.0938 1092.65,57.0938 C1093.2281,57.0938 1093.8375,57.25 1094.3063,57.5 C1094.7906,57.7813 1094.9625,58 1095.0563,58.4063 C1095.1188,58.8125 1095.15,58.9375 1095.2906,59.0625 C1095.4313,59.2031 1095.6656,59.3125 1095.8844,59.3125 C1096.15,59.3125 1096.4156,59.1719 1096.5875,58.9531 C1096.6969,58.7969 1096.7281,58.6094 1096.7281,58.1875 L1096.7281,56.7656 C1096.7281,56.3281 1096.7125,56.2031 1096.6188,56.0469 C1096.4625,55.7813 1096.1813,55.6406 1095.8844,55.6406 C1095.5875,55.6406 1095.3844,55.7344 1095.1656,56.0469 L1094.9938,55.9688 Z " fill="#000000"/><text fill="#000000" font-family="sans-serif" font-size="14" lengthAdjust="spacing" textLength="72" x="1109.35" y="65.1436">DataPoint</text><line style="stroke:#181818;stroke-width:0.5;" x1="1066.5" x2="1195.5" y1="76.2969" y2="76.2969"/><rect fill="none" height="6" style="stroke:#C82930;stroke-width:1.0;" width="6" x="1073.5" y="86.9453"/><text fill="#000000" font-family="sans-serif" font-size="14" lengthAdjust="spacing" textLength="105" x="1085.5" y="93.292">valorX: Double</text><rect fill="none" height="6" style="stroke:#C82930;stroke-width:1.0;" width="6" x="1073.5" y="103.2422"/><text fill="#000000" font-family="sans-serif" font-size="14" lengthAdjust="spacing" textLength="104" x="1085.5" y="109.5889">valorY: Double</text><line style="stroke:#181818;stroke-width:0.5;" x1="1066.5" x2="1195.5" y1="116.8906" y2="116.8906"/></g><!--class Log--><g id="elem_Log"><rect codeLine="55" fill="#F1F1F1" height="96.8906" id="Log" rx="2.5" ry="2.5" style="stroke:#181818;stroke-width:0.5;" width="189" x="898.5" y="210.2969"/><ellipse cx="975.75" cy="226.2969" fill="#ADD1B2" rx="11" ry="11" style="stroke:#181818;stroke-width:1.0;"/><path d="M978.0938,221.9688 C977.1563,221.5313 976.5625,221.3906 975.6875,221.3906 C973.0625,221.3906 971.0625,223.4688 971.0625,226.1875 L971.0625,227.3125 C971.0625,229.8906 973.1719,231.7813 976.0625,231.7813 C977.2813,231.7813 978.4375,231.4844 979.1875,230.9375 C979.7656,230.5313 980.0938,230.0781 980.0938,229.6875 C980.0938,229.2344 979.7031,228.8438 979.2344,228.8438 C979.0156,228.8438 978.8125,228.9219 978.625,229.1094 C978.1719,229.5938 978.1719,229.5938 977.9844,229.6875 C977.5625,229.9531 976.875,230.0781 976.1094,230.0781 C974.0625,230.0781 972.7656,228.9844 972.7656,227.2813 L972.7656,226.1875 C972.7656,224.4063 974.0156,223.0938 975.75,223.0938 C976.3281,223.0938 976.9375,223.25 977.4063,223.5 C977.8906,223.7813 978.0625,224 978.1563,224.4063 C978.2188,224.8125 978.25,224.9375 978.3906,225.0625 C978.5313,225.2031 978.7656,225.3125 978.9844,225.3125 C979.25,225.3125 979.5156,225.1719 979.6875,224.9531 C979.7969,224.7969 979.8281,224.6094 979.8281,224.1875 L979.8281,222.7656 C979.8281,222.3281 979.8125,222.2031 979.7188,222.0469 C979.5625,221.7813 979.2813,221.6406 978.9844,221.6406 C978.6875,221.6406 978.4844,221.7344 978.2656,222.0469 L978.0938,221.9688 Z " fill="#000000"/><text fill="#000000" font-family="sans-serif" font-size="14" lengthAdjust="spacing" textLength="26" x="996.25" y="231.1436">Log</text><line style="stroke:#181818;stroke-width:0.5;" x1="899.5" x2="1086.5" y1="242.2969" y2="242.2969"/><rect fill="none" height="6" style="stroke:#C82930;stroke-width:1.0;" width="6" x="906.5" y="252.9453"/><text fill="#000000" font-family="sans-serif" font-size="14" lengthAdjust="spacing" textLength="163" x="918.5" y="259.292">acciones: List&lt;String&gt;</text><rect fill="none" height="6" style="stroke:#C82930;stroke-width:1.0;" width="6" x="906.5" y="269.2422"/><text fill="#000000" font-family="sans-serif" font-size="14" lengthAdjust="spacing" textLength="153" x="918.5" y="275.5889">fechaHora: DateTime</text><rect fill="none" height="6" style="stroke:#C82930;stroke-width:1.0;" width="6" x="906.5" y="285.5391"/><text fill="#000000" font-family="sans-serif" font-size="14" lengthAdjust="spacing" textLength="110" x="918.5" y="291.8857">detalles: String</text><line style="stroke:#181818;stroke-width:0.5;" x1="899.5" x2="1086.5" y1="299.1875" y2="299.1875"/></g><!--class Reporte--><g id="elem_Reporte"><rect codeLine="61" fill="#F1F1F1" height="113.1875" id="Reporte" rx="2.5" ry="2.5" style="stroke:#181818;stroke-width:0.5;" width="152" x="1178" y="606.2969"/><ellipse cx="1220" cy="622.2969" fill="#ADD1B2" rx="11" ry="11" style="stroke:#181818;stroke-width:1.0;"/><path d="M1222.3438,617.9688 C1221.4063,617.5313 1220.8125,617.3906 1219.9375,617.3906 C1217.3125,617.3906 1215.3125,619.4688 1215.3125,622.1875 L1215.3125,623.3125 C1215.3125,625.8906 1217.4219,627.7813 1220.3125,627.7813 C1221.5313,627.7813 1222.6875,627.4844 1223.4375,626.9375 C1224.0156,626.5313 1224.3438,626.0781 1224.3438,625.6875 C1224.3438,625.2344 1223.9531,624.8438 1223.4844,624.8438 C1223.2656,624.8438 1223.0625,624.9219 1222.875,625.1094 C1222.4219,625.5938 1222.4219,625.5938 1222.2344,625.6875 C1221.8125,625.9531 1221.125,626.0781 1220.3594,626.0781 C1218.3125,626.0781 1217.0156,624.9844 1217.0156,623.2813 L1217.0156,622.1875 C1217.0156,620.4063 1218.2656,619.0938 1220,619.0938 C1220.5781,619.0938 1221.1875,619.25 1221.6563,619.5 C1222.1406,619.7813 1222.3125,620 1222.4063,620.4063 C1222.4688,620.8125 1222.5,620.9375 1222.6406,621.0625 C1222.7813,621.2031 1223.0156,621.3125 1223.2344,621.3125 C1223.5,621.3125 1223.7656,621.1719 1223.9375,620.9531 C1224.0469,620.7969 1224.0781,620.6094 1224.0781,620.1875 L1224.0781,618.7656 C1224.0781,618.3281 1224.0625,618.2031 1223.9688,618.0469 C1223.8125,617.7813 1223.5313,617.6406 1223.2344,617.6406 C1222.9375,617.6406 1222.7344,617.7344 1222.5156,618.0469 L1222.3438,617.9688 Z " fill="#000000"/><text fill="#000000" font-family="sans-serif" font-size="14" lengthAdjust="spacing" textLength="60" x="1240" y="627.1436">Reporte</text><line style="stroke:#181818;stroke-width:0.5;" x1="1179" x2="1329" y1="638.2969" y2="638.2969"/><rect fill="none" height="6" style="stroke:#C82930;stroke-width:1.0;" width="6" x="1186" y="648.9453"/><text fill="#000000" font-family="sans-serif" font-size="14" lengthAdjust="spacing" textLength="110" x="1198" y="655.292">nombre: String</text><rect fill="none" height="6" style="stroke:#C82930;stroke-width:1.0;" width="6" x="1186" y="665.2422"/><text fill="#000000" font-family="sans-serif" font-size="14" lengthAdjust="spacing" textLength="83" x="1198" y="671.5889">tipo: String</text><rect fill="none" height="6" style="stroke:#C82930;stroke-width:1.0;" width="6" x="1186" y="681.5391"/><text fill="#000000" font-family="sans-serif" font-size="14" lengthAdjust="spacing" textLength="126" x="1198" y="687.8857">contenido: String</text><rect fill="none" height="6" style="stroke:#C82930;stroke-width:1.0;" width="6" x="1186" y="697.8359"/><text fill="#000000" font-family="sans-serif" font-size="14" lengthAdjust="spacing" textLength="112" x="1198" y="704.1826">formato: String</text><line style="stroke:#181818;stroke-width:0.5;" x1="1179" x2="1329" y1="711.4844" y2="711.4844"/></g><!--class Location--><g id="elem_Location"><rect codeLine="68" fill="#F1F1F1" height="80.5938" id="Location" rx="2.5" ry="2.5" style="stroke:#181818;stroke-width:0.5;" width="145" x="1231.5" y="44.2969"/><ellipse cx="1269.45" cy="60.2969" fill="#ADD1B2" rx="11" ry="11" style="stroke:#181818;stroke-width:1.0;"/><path d="M1271.7938,55.9688 C1270.8563,55.5313 1270.2625,55.3906 1269.3875,55.3906 C1266.7625,55.3906 1264.7625,57.4688 1264.7625,60.1875 L1264.7625,61.3125 C1264.7625,63.8906 1266.8719,65.7813 1269.7625,65.7813 C1270.9813,65.7813 1272.1375,65.4844 1272.8875,64.9375 C1273.4656,64.5313 1273.7938,64.0781 1273.7938,63.6875 C1273.7938,63.2344 1273.4031,62.8438 1272.9344,62.8438 C1272.7156,62.8438 1272.5125,62.9219 1272.325,63.1094 C1271.8719,63.5938 1271.8719,63.5938 1271.6844,63.6875 C1271.2625,63.9531 1270.575,64.0781 1269.8094,64.0781 C1267.7625,64.0781 1266.4656,62.9844 1266.4656,61.2813 L1266.4656,60.1875 C1266.4656,58.4063 1267.7156,57.0938 1269.45,57.0938 C1270.0281,57.0938 1270.6375,57.25 1271.1063,57.5 C1271.5906,57.7813 1271.7625,58 1271.8563,58.4063 C1271.9188,58.8125 1271.95,58.9375 1272.0906,59.0625 C1272.2313,59.2031 1272.4656,59.3125 1272.6844,59.3125 C1272.95,59.3125 1273.2156,59.1719 1273.3875,58.9531 C1273.4969,58.7969 1273.5281,58.6094 1273.5281,58.1875 L1273.5281,56.7656 C1273.5281,56.3281 1273.5125,56.2031 1273.4188,56.0469 C1273.2625,55.7813 1272.9813,55.6406 1272.6844,55.6406 C1272.3875,55.6406 1272.1844,55.7344 1271.9656,56.0469 L1271.7938,55.9688 Z " fill="#000000"/><text fill="#000000" font-family="sans-serif" font-size="14" lengthAdjust="spacing" textLength="62" x="1288.55" y="65.1436">Location</text><line style="stroke:#181818;stroke-width:0.5;" x1="1232.5" x2="1375.5" y1="76.2969" y2="76.2969"/><rect fill="none" height="6" style="stroke:#C82930;stroke-width:1.0;" width="6" x="1239.5" y="86.9453"/><text fill="#000000" font-family="sans-serif" font-size="14" lengthAdjust="spacing" textLength="107" x="1251.5" y="93.292">latitud: Double</text><rect fill="none" height="6" style="stroke:#C82930;stroke-width:1.0;" width="6" x="1239.5" y="103.2422"/><text fill="#000000" font-family="sans-serif" font-size="14" lengthAdjust="spacing" textLength="119" x="1251.5" y="109.5889">longitud: Double</text><line style="stroke:#181818;stroke-width:0.5;" x1="1232.5" x2="1375.5" y1="116.8906" y2="116.8906"/></g><!--link Usuario to Proyecto--><g id="link_Usuario_Proyecto"><path codeLine="73" d="M884.701,125.6899 C859.464,148.4149 827.456,177.2399 799.781,202.1609 " fill="none" id="Usuario-Proyecto" style="stroke:#181818;stroke-width:1.0;"/><polygon fill="#000000" points="852.2845,167.2091,860.9726,163.3404,857.0393,158.9725,852.2845,167.2091" style="stroke:#000000;stroke-width:1.0;"/><text fill="#000000" font-family="sans-serif" font-size="13" lengthAdjust="spacing" textLength="42" x="865" y="168.3638">realiza</text></g><!--reverse link Proyecto to Simulacion--><g id="link_Proyecto_Simulacion"><path codeLine="74" d="M738,327.4379 C738,351.3189 738,367.3539 738,392.0639 " fill="none" id="Proyecto-backto-Simulacion" style="stroke:#181818;stroke-width:1.0;"/><polygon fill="none" points="738,315.4379,734,321.4379,738,327.4379,742,321.4379,738,315.4379" style="stroke:#181818;stroke-width:1.0;"/><polygon fill="#000000" points="743,358.8633,745.9389,349.8182,740.0611,349.8182,743,358.8633" style="stroke:#000000;stroke-width:1.0;"/><text fill="#000000" font-family="sans-serif" font-size="13" lengthAdjust="spacing" textLength="55" x="752" y="358.3638">contiene</text><text fill="#000000" font-family="sans-serif" font-size="13" lengthAdjust="spacing" textLength="8" x="729.4875" y="335.7193">1</text><text fill="#000000" font-family="sans-serif" font-size="13" lengthAdjust="spacing" textLength="7" x="730.6172" y="381.2111">*</text></g><!--link Simulacion to TipologiaElemento--><g id="link_Simulacion_TipologiaElemento"><path codeLine="75" d="M600.362,480.9629 C487.572,502.8099 325.391,540.8649 192,598.2969 C181.537,602.8019 170.908,608.3019 160.667,614.1619 " fill="none" id="Simulacion-TipologiaElemento" style="stroke:#181818;stroke-width:1.0;"/><polygon fill="#000000" points="308.2148,561.3129,317.7234,561.5032,316.0193,555.8778,308.2148,561.3129" style="stroke:#000000;stroke-width:1.0;"/><text fill="#000000" font-family="sans-serif" font-size="13" lengthAdjust="spacing" textLength="40" x="322" y="564.3638">define</text></g><!--link Simulacion to Material--><g id="link_Simulacion_Material"><path codeLine="76" d="M623.016,521.3649 C578.81,545.8039 528.367,573.6909 484.146,598.1389 " fill="none" id="Simulacion-Material" style="stroke:#181818;stroke-width:1.0;"/><polygon fill="#000000" points="565.6242,562.2824,574.962,560.4782,572.1182,555.3341,565.6242,562.2824" style="stroke:#000000;stroke-width:1.0;"/><text fill="#000000" font-family="sans-serif" font-size="13" lengthAdjust="spacing" textLength="37" x="579" y="564.3638">utiliza</text></g><!--link Simulacion to AgresionTermica--><g id="link_Simulacion_AgresionTermica"><path codeLine="77" d="M738,521.5049 C738,545.9379 738,573.8009 738,598.2219 " fill="none" id="Simulacion-AgresionTermica" style="stroke:#181818;stroke-width:1.0;"/><polygon fill="#000000" points="743,564.8633,745.9389,555.8182,740.0611,555.8182,743,564.8633" style="stroke:#000000;stroke-width:1.0;"/><text fill="#000000" font-family="sans-serif" font-size="13" lengthAdjust="spacing" textLength="61" x="752" y="564.3638">somete a</text></g><!--link Simulacion to Grafica--><g id="link_Simulacion_Grafica"><path codeLine="78" d="M833.874,521.5049 C883.487,554.4719 942.495,593.6829 985.499,622.2589 " fill="none" id="Simulacion-Grafica" style="stroke:#181818;stroke-width:1.0;"/><polygon fill="#000000" points="910.1644,562.6305,904.2575,555.1768,901.0044,560.0723,910.1644,562.6305" style="stroke:#000000;stroke-width:1.0;"/><text fill="#000000" font-family="sans-serif" font-size="13" lengthAdjust="spacing" textLength="45" x="915" y="564.3638">genera</text></g><!--reverse link Simulacion to Reporte--><g id="link_Simulacion_Reporte"><path codeLine="79" d="M887.2497,496.642 C971.5877,520.893 1068.91,553.4219 1160,598.2969 C1165.92,601.2129 1171.9,604.4529 1177.82,607.8819 " fill="none" id="Simulacion-backto-Reporte" style="stroke:#181818;stroke-width:1.0;"/><polygon fill="none" points="875.717,493.3259,880.378,498.8282,887.2497,496.642,882.5887,491.1397,875.717,493.3259" style="stroke:#181818;stroke-width:1.0;"/><polygon fill="#000000" points="1092.6695,561.6509,1085.273,555.6724,1083.1715,561.1617,1092.6695,561.6509" style="stroke:#000000;stroke-width:1.0;"/><text fill="#000000" font-family="sans-serif" font-size="13" lengthAdjust="spacing" textLength="52" x="1097" y="564.3638">produce</text></g><!--link Usuario to Log--><g id="link_Usuario_Log"><path codeLine="80" d="M943.844,125.6899 C953.223,150.8959 963.3015,177.9826 973.1865,204.5476 " fill="none" id="Usuario-to-Log" style="stroke:#181818;stroke-width:1.0;"/><polygon fill="#181818" points="975.279,210.1709,975.8892,200.3409,973.5353,205.4848,968.3914,203.1309,975.279,210.1709" style="stroke:#181818;stroke-width:1.0;"/><polygon fill="#000000" points="967.7437,168.5494,967.3438,159.0472,961.8349,161.097,967.7437,168.5494" style="stroke:#000000;stroke-width:1.0;"/><text fill="#000000" font-family="sans-serif" font-size="13" lengthAdjust="spacing" textLength="49" x="975" y="168.3638">registra</text></g><!--SRC=[XLJDRjim3BxdAOGSX-Qmgr44y9gk2vQaGP81sr6n6PU091gIFEm7Uwezmbvij2FBZXAqFida9_BZHr8UlGAnfX8KYHB4WZGQ934JUQsma0N- -sl4n-N-ysHIAEcS-E8QQHdnUoBucmb3-cWX4tjlqLJ1QA52voqj82yA90Ck4okg9d_wA5jBFw7mRuGfmHKMwpP2uZb1yI8VBCYpRo4z18z3tIWPapAD-tqqpGS6Wp5oy5YJeWfb9WxzyL611kCfG3GdiYXL9jRX51ooik0us06iPjqoaLyQ0gooyiH_EoP-PlvqDepB6fY5mfWpc4PVamhCjwjyyxo_wyuVbelb-d6pNpvlyjNPTDYDROC2VGMlzw1c_Y2FgB2KPLurNDg2cgE2M_udwH9tGQPikD7sGIgowLrBDGBV0_VumrlPgbhVdzFV1UYePOcaGzz0Cmlf6vkIyyWkujIibjJOQfOWNXhT4k3qhCKLmGfOy48g_1NwiU8_pwUawrkmZao7Az-g8dGyiY-bftvIkTroIsZyV3IIuKBiIumKqJ7MzrRahqaHdV5RDCRhl93neYmkDwRBD1zFvIVgrEMPEQ26kA1UAjLUIxdje2RhuVNPQgjBJ3ml7WoMgVr4bdUFhXFr7OcP5F_wfan4K6Ig2pC7w9-osMnuZp8nvLUbRQIOJoVHF7q_5SIuwRlf-ELWT4kO1mjQ-CZ3sEjrPNW99xm5Zil8cCPZJ-0Ib2u0OnrfO9blWFivOr35_6mAQSlfkyGOtaLUr8xPeCky6v9Ea-v1RsFy1m00]--></g></svg>