<?xml version="1.0" encoding="us-ascii" standalone="no"?><svg xmlns="http://www.w3.org/2000/svg" xmlns:xlink="http://www.w3.org/1999/xlink" contentStyleType="text/css" height="680px" preserveAspectRatio="none" style="width:1079px;height:680px;background:#FFFFFF;" version="1.1" viewBox="0 0 1079 680" width="1079px" zoomAndPan="magnify"><defs/><g><text fill="#000000" font-family="sans-serif" font-size="14" font-weight="bold" lengthAdjust="spacing" textLength="427" x="319.25" y="22.9951">Diagrama de Objetos - Simulaci&#243;n en Aplicaci&#243;n FISK</text><g id="elem_usuario1"><rect fill="#F1F1F1" height="44.5938" style="stroke:#181818;stroke-width:0.5;" width="139" x="675.5" y="44.2969"/><text fill="#000000" font-family="sans-serif" font-size="14" lengthAdjust="spacing" textLength="59" x="715.5" y="59.292">usuario1</text><line style="stroke:#181818;stroke-width:0.5;" x1="676.5" x2="813.5" y1="64.5938" y2="64.5938"/><text fill="#000000" font-family="sans-serif" font-size="14" lengthAdjust="spacing" textLength="127" x="681.5" y="81.5889">nombre = "Jorge"</text></g><g id="elem_proyecto1"><rect fill="#F1F1F1" height="77.1875" style="stroke:#181818;stroke-width:0.5;" width="291" x="295.5" y="166.2969"/><text fill="#000000" font-family="sans-serif" font-size="14" lengthAdjust="spacing" textLength="75" x="403.5" y="181.292">proyecto1</text><line style="stroke:#181818;stroke-width:0.5;" x1="296.5" x2="585.5" y1="186.5938" y2="186.5938"/><text fill="#000000" font-family="sans-serif" font-size="14" lengthAdjust="spacing" textLength="169" x="301.5" y="203.5889">nombre = "Proyecto X"</text><text fill="#000000" font-family="sans-serif" font-size="14" lengthAdjust="spacing" textLength="279" x="301.5" y="219.8857">descripcion = "Simulaci&#243;n de material"</text><text fill="#000000" font-family="sans-serif" font-size="14" lengthAdjust="spacing" textLength="218" x="301.5" y="236.1826">fechaCreacion = "2023-11-03"</text></g><g id="elem_simulacion1"><rect fill="#F1F1F1" height="60.8906" style="stroke:#181818;stroke-width:0.5;" width="244" x="319" y="320.2969"/><text fill="#000000" font-family="sans-serif" font-size="14" lengthAdjust="spacing" textLength="84" x="399" y="335.292">simulacion1</text><line style="stroke:#181818;stroke-width:0.5;" x1="320" x2="562" y1="340.5938" y2="340.5938"/><text fill="#000000" font-family="sans-serif" font-size="14" lengthAdjust="spacing" textLength="195" x="325" y="357.5889">tipologia = BIDIMENSIONAL</text><text fill="#000000" font-family="sans-serif" font-size="14" lengthAdjust="spacing" textLength="232" x="325" y="373.8857">fechaSimulacion = "2023-11-03"</text></g><g id="elem_material1"><rect fill="#F1F1F1" height="77.1875" style="stroke:#181818;stroke-width:0.5;" width="202" x="7" y="458.2969"/><text fill="#000000" font-family="sans-serif" font-size="14" lengthAdjust="spacing" textLength="69" x="73.5" y="473.292">material1</text><line style="stroke:#181818;stroke-width:0.5;" x1="8" x2="208" y1="478.5938" y2="478.5938"/><text fill="#000000" font-family="sans-serif" font-size="14" lengthAdjust="spacing" textLength="157" x="13" y="495.5889">nombre = "Concreto"</text><text fill="#000000" font-family="sans-serif" font-size="14" lengthAdjust="spacing" textLength="190" x="13" y="511.8857">permeabilidadAgua = 0.01</text><text fill="#000000" font-family="sans-serif" font-size="14" lengthAdjust="spacing" textLength="152" x="13" y="528.1826">conductorCalor = 1.5</text></g><g id="elem_agresionTermica1"><rect fill="#F1F1F1" height="77.1875" style="stroke:#181818;stroke-width:0.5;" width="209" x="244.5" y="458.2969"/><text fill="#000000" font-family="sans-serif" font-size="14" lengthAdjust="spacing" textLength="128" x="285" y="473.292">agresionTermica1</text><line style="stroke:#181818;stroke-width:0.5;" x1="245.5" x2="452.5" y1="478.5938" y2="478.5938"/><text fill="#000000" font-family="sans-serif" font-size="14" lengthAdjust="spacing" textLength="138" x="250.5" y="495.5889">temperatura = 100</text><text fill="#000000" font-family="sans-serif" font-size="14" lengthAdjust="spacing" textLength="197" x="250.5" y="511.8857">tiempoCalentamiento = 60</text><text fill="#000000" font-family="sans-serif" font-size="14" lengthAdjust="spacing" textLength="161" x="250.5" y="528.1826">humedadExterior = 70</text></g><g id="elem_grafica1"><rect fill="#F1F1F1" height="44.5938" style="stroke:#181818;stroke-width:0.5;" width="229" x="488.5" y="474.2969"/><text fill="#000000" font-family="sans-serif" font-size="14" lengthAdjust="spacing" textLength="58" x="574" y="489.292">grafica1</text><line style="stroke:#181818;stroke-width:0.5;" x1="489.5" x2="716.5" y1="494.5938" y2="494.5938"/><text fill="#000000" font-family="sans-serif" font-size="14" lengthAdjust="spacing" textLength="217" x="494.5" y="511.5889">tipoGrafica = "Curva de Calor"</text></g><g id="elem_dataPoint1"><rect fill="#F1F1F1" height="60.8906" style="stroke:#181818;stroke-width:0.5;" width="94" x="556" y="612.2969"/><text fill="#000000" font-family="sans-serif" font-size="14" lengthAdjust="spacing" textLength="79" x="563.5" y="627.292">dataPoint1</text><line style="stroke:#181818;stroke-width:0.5;" x1="557" x2="649" y1="632.5938" y2="632.5938"/><text fill="#000000" font-family="sans-serif" font-size="14" lengthAdjust="spacing" textLength="82" x="562" y="649.5889">valorX = 10</text><text fill="#000000" font-family="sans-serif" font-size="14" lengthAdjust="spacing" textLength="81" x="562" y="665.8857">valorY = 50</text></g><g id="elem_log1"><rect fill="#F1F1F1" height="60.8906" style="stroke:#181818;stroke-width:0.5;" width="451" x="621.5" y="174.2969"/><text fill="#000000" font-family="sans-serif" font-size="14" lengthAdjust="spacing" textLength="31" x="831.5" y="189.292">log1</text><line style="stroke:#181818;stroke-width:0.5;" x1="622.5" x2="1071.5" y1="194.5938" y2="194.5938"/><text fill="#000000" font-family="sans-serif" font-size="14" lengthAdjust="spacing" textLength="439" x="627.5" y="211.5889">acciones = ["Login", "Creaci&#243;n Proyecto", "Inicio Simulaci&#243;n"]</text><text fill="#000000" font-family="sans-serif" font-size="14" lengthAdjust="spacing" textLength="261" x="627.5" y="227.8857">fechaHora = "2023-11-03T10:00:00"</text></g><g id="elem_reporte1"><rect fill="#F1F1F1" height="77.1875" style="stroke:#181818;stroke-width:0.5;" width="257" x="752.5" y="458.2969"/><text fill="#000000" font-family="sans-serif" font-size="14" lengthAdjust="spacing" textLength="65" x="848.5" y="473.292">reporte1</text><line style="stroke:#181818;stroke-width:0.5;" x1="753.5" x2="1008.5" y1="478.5938" y2="478.5938"/><text fill="#000000" font-family="sans-serif" font-size="14" lengthAdjust="spacing" textLength="245" x="758.5" y="495.5889">nombre = "Reporte Simulaci&#243;n X"</text><text fill="#000000" font-family="sans-serif" font-size="14" lengthAdjust="spacing" textLength="179" x="758.5" y="511.8857">tipo = "An&#225;lisis T&#233;rmico"</text><text fill="#000000" font-family="sans-serif" font-size="14" lengthAdjust="spacing" textLength="120" x="758.5" y="528.1826">formato = "PDF"</text></g><!--link usuario1 to proyecto1--><g id="link_usuario1_proyecto1"><path codeLine="50" d="M696.83,89.3469 C650.789,109.9439 585.8799,138.9827 530.5829,163.7207 " fill="none" id="usuario1-to-proyecto1" style="stroke:#181818;stroke-width:1.0;"/><polygon fill="#181818" points="525.106,166.1709,534.9548,166.1469,529.6701,164.1291,531.6879,158.8443,525.106,166.1709" style="stroke:#181818;stroke-width:1.0;"/><polygon fill="#000000" points="630.4359,129.9051,639.8926,128.8941,637.4923,123.5287,630.4359,129.9051" style="stroke:#000000;stroke-width:1.0;"/><text fill="#000000" font-family="sans-serif" font-size="13" lengthAdjust="spacing" textLength="42" x="644" y="132.3638">realiza</text></g><!--link proyecto1 to simulacion1--><g id="link_proyecto1_simulacion1"><path codeLine="51" d="M441,243.6309 C441,267.4639 441,291.7969 441,313.9329 " fill="none" id="proyecto1-to-simulacion1" style="stroke:#181818;stroke-width:1.0;"/><polygon fill="#181818" points="441,319.9329,445,310.9329,441,314.9329,437,310.9329,441,319.9329" style="stroke:#181818;stroke-width:1.0;"/><polygon fill="#000000" points="446,286.8633,448.9389,277.8182,443.0611,277.8182,446,286.8633" style="stroke:#000000;stroke-width:1.0;"/><text fill="#000000" font-family="sans-serif" font-size="13" lengthAdjust="spacing" textLength="55" x="455" y="286.3638">contiene</text></g><!--link simulacion1 to material1--><g id="link_simulacion1_material1"><path codeLine="52" d="M372.406,381.4589 C321,403.6889 255.7891,431.8884 200.4231,455.8304 " fill="none" id="simulacion1-to-material1" style="stroke:#181818;stroke-width:1.0;"/><polygon fill="#181818" points="194.916,458.2119,204.7644,458.3111,199.5053,456.2273,201.5891,450.9683,194.916,458.2119" style="stroke:#181818;stroke-width:1.0;"/><polygon fill="#000000" points="295.4107,421.8478,304.8793,420.9552,302.5463,415.5602,295.4107,421.8478" style="stroke:#000000;stroke-width:1.0;"/><text fill="#000000" font-family="sans-serif" font-size="13" lengthAdjust="spacing" textLength="37" x="309" y="424.3638">utiliza</text></g><!--link simulacion1 to agresionTermica1--><g id="link_simulacion1_agresionTermica1"><path codeLine="53" d="M421.938,381.6339 C407.78,403.7939 391.5953,429.1257 376.3563,452.9787 " fill="none" id="simulacion1-to-agresionTermica1" style="stroke:#181818;stroke-width:1.0;"/><polygon fill="#181818" points="373.126,458.0349,381.3422,452.6041,375.8179,453.8214,374.6006,448.297,373.126,458.0349" style="stroke:#181818;stroke-width:1.0;"/><polygon fill="#000000" points="403.308,424.0768,410.6545,418.0368,405.7012,414.8722,403.308,424.0768" style="stroke:#000000;stroke-width:1.0;"/><text fill="#000000" font-family="sans-serif" font-size="13" lengthAdjust="spacing" textLength="61" x="415" y="424.3638">somete a</text></g><!--link simulacion1 to grafica1--><g id="link_simulacion1_grafica1"><path codeLine="54" d="M474.567,381.6339 C505.521,409.1489 546.2606,445.3617 573.9636,469.9867 " fill="none" id="simulacion1-to-grafica1" style="stroke:#181818;stroke-width:1.0;"/><polygon fill="#181818" points="578.448,473.9729,574.3788,465.004,574.711,470.651,569.0639,470.9832,578.448,473.9729" style="stroke:#181818;stroke-width:1.0;"/><polygon fill="#000000" points="535.737,423.1851,530.9292,414.9793,527.0242,419.3724,535.737,423.1851" style="stroke:#000000;stroke-width:1.0;"/><text fill="#000000" font-family="sans-serif" font-size="13" lengthAdjust="spacing" textLength="45" x="541" y="424.3638">genera</text></g><!--link simulacion1 to reporte1--><g id="link_simulacion1_reporte1"><path codeLine="55" d="M531.368,381.3719 C599.272,403.5949 687.0866,432.3347 760.3176,456.3007 " fill="none" id="simulacion1-to-reporte1" style="stroke:#181818;stroke-width:1.0;"/><polygon fill="#181818" points="766.02,458.1669,758.7105,451.566,761.268,456.6117,756.2223,459.1692,766.02,458.1669" style="stroke:#181818;stroke-width:1.0;"/><polygon fill="#000000" points="684.752,421.4185,677.0697,415.812,675.2414,421.3983,684.752,421.4185" style="stroke:#000000;stroke-width:1.0;"/><text fill="#000000" font-family="sans-serif" font-size="13" lengthAdjust="spacing" textLength="52" x="689" y="424.3638">produce</text></g><!--link usuario1 to log1--><g id="link_usuario1_log1"><path codeLine="56" d="M761.162,89.3469 C778.352,112.2659 802.055,143.8699 821.243,169.4539 " fill="none" id="usuario1-to-log1" style="stroke:#181818;stroke-width:1.0;"/><polygon fill="#181818" points="824.843,174.2539,822.643,164.6539,821.843,170.2539,816.243,169.4539,824.843,174.2539" style="stroke:#181818;stroke-width:1.0;"/><polygon fill="#000000" points="804,131.8633,800.9241,122.8639,796.2218,126.3906,804,131.8633" style="stroke:#000000;stroke-width:1.0;"/><text fill="#000000" font-family="sans-serif" font-size="13" lengthAdjust="spacing" textLength="49" x="810" y="132.3638">registra</text></g><!--link grafica1 to dataPoint1--><g id="link_grafica1_dataPoint1"><path codeLine="57" d="M603,519.3549 C603,543.9909 603,578.4618 603,606.0787 " fill="none" id="grafica1-to-dataPoint1" style="stroke:#181818;stroke-width:1.0;"/><polygon fill="#181818" points="603,612.0787,607,603.0787,603,607.0787,599,603.0787,603,612.0787" style="stroke:#181818;stroke-width:1.0;"/><polygon fill="#000000" points="608,578.8633,610.9389,569.8182,605.0611,569.8182,608,578.8633" style="stroke:#000000;stroke-width:1.0;"/><text fill="#000000" font-family="sans-serif" font-size="13" lengthAdjust="spacing" textLength="55" x="617" y="578.3638">contiene</text></g><!--SRC=[TLFBRjim4BphAmYTgq1Aa1O8q02kdRHgqyIeVKXHz41BQsKBYIjGLFe8-Z4zzfnFy8zbIRqOE3OC6-JExkpE3WsQ4iG2PQ5b9KKEucRp0mmr8X8hhDfIPhXxL0AKcDKbPltnCbrz2W9YQ6P4sxHI8oNY8H3yKLHjD8Yt8ln8ke0m-3iYQqs_-Vy5wBAFYDlGHN9eCerrXgHis6-5Uwoa0OsoxB1RoExaN8CSqCVnyKcK955yufCtVGrI0xt1caegK7BIktIHVhwuNgKtrxEhgUngJ3fSUEXcVwevgKopcbsVDUWAv0PBp6K-ArfB6n_5YGjcfFAM1T1pMPBcI79qwd7mVg3XBjPSWxSmJW0LLvMcrRPO4iVzN7nDN0YKaHNoBt7qTHUyQojW_ejVjcd7z2RsYDW7Mv-09NhVNRc1MdtlNEAwz4N8fP5BGcM6p7kBk7LTJUUlV3xrwLZ-8K5cLcPe6F8jlEArgF0LCxgzshqF5h6tgK86-muDlqzB-q1E3czTwoG-Y-tNRrb3JTh0_jg-T85d3w3tfTN3GcPgzw_41XkntlstA-btl2NDTd2GvUBIiOtF8yhffuhElLTm9a8UhyG_Kfo7mNG_87tBCfOzmgjLOC5-Q81FHcHmQt0e_19spr2Sqb05FFR1dD4RZ2su3tqGEKhBI1wBdUsQtfF2hT-fK61ZkdeZom3ohFLSX2S0]--></g></svg>