<?xml version="1.0" encoding="us-ascii" standalone="no"?><svg xmlns="http://www.w3.org/2000/svg" xmlns:xlink="http://www.w3.org/1999/xlink" contentStyleType="text/css" height="569px" preserveAspectRatio="none" style="width:354px;height:569px;background:#FFFFFF;" version="1.1" viewBox="0 0 354 569" width="354px" zoomAndPan="magnify"><defs/><g><text fill="#000000" font-family="sans-serif" font-size="14" font-weight="bold" lengthAdjust="spacing" textLength="196" x="72.2104" y="22.9951">Suscripci&#243;n en Servicios</text><!--entity Egresado--><g id="elem_Egresado"><ellipse cx="158" cy="51.2969" fill="#F1F1F1" rx="8" ry="8" style="stroke:#181818;stroke-width:0.5;"/><path d="M158,59.2969 L158,86.2969 M145,67.2969 L171,67.2969 M158,86.2969 L145,101.2969 M158,86.2969 L171,101.2969 " fill="none" style="stroke:#181818;stroke-width:0.5;"/><text fill="#000000" font-family="sans-serif" font-size="14" lengthAdjust="spacing" textLength="66" x="125" y="115.792">Egresado</text></g><g id="elem_Servicios"><ellipse cx="63.8265" cy="217.0535" fill="#F1F1F1" rx="57.8265" ry="14.7566" style="stroke:#181818;stroke-width:0.5;"/><text fill="#000000" font-family="sans-serif" font-size="14" lengthAdjust="spacing" textLength="64" x="28.8265" y="220.801">Servicios</text></g><g id="elem_Paquetes de servicios"><ellipse cx="252.9604" cy="217.289" fill="#F1F1F1" rx="95.4604" ry="21.4921" style="stroke:#181818;stroke-width:0.5;"/><text fill="#000000" font-family="sans-serif" font-size="14" lengthAdjust="spacing" textLength="154" x="175.9604" y="220.1356">Paquetes de servicios</text></g><g id="elem_Suscripci&#243;n"><ellipse cx="167.113" cy="331.4195" fill="#F1F1F1" rx="66.113" ry="15.6226" style="stroke:#181818;stroke-width:0.5;"/><text fill="#000000" font-family="sans-serif" font-size="14" lengthAdjust="spacing" textLength="82" x="123.113" y="335.167">Suscripci&#243;n</text></g><g id="elem_Pagos"><ellipse cx="111.9072" cy="438.3879" fill="#F1F1F1" rx="41.4072" ry="14.5911" style="stroke:#181818;stroke-width:0.5;"/><text fill="#000000" font-family="sans-serif" font-size="14" lengthAdjust="spacing" textLength="42" x="87.982" y="442.1174">Pagos</text></g><g id="elem_Base de datos"><ellipse cx="183.1868" cy="546.7342" fill="#F1F1F1" rx="72.6868" ry="16.9374" style="stroke:#181818;stroke-width:0.5;"/><text fill="#000000" font-family="sans-serif" font-size="14" lengthAdjust="spacing" textLength="100" x="130.1868" y="550.4818">Base de datos</text></g><!--link Egresado to Servicios--><g id="link_Egresado_Servicios"><path d="M132.065,118.9059 C112.719,146.5869 90.8066,177.9409 77.1551,197.4739 " fill="none" id="Egresado-to-Servicios" style="stroke:#181818;stroke-width:1.0;"/><polygon fill="#181818" points="73.718,202.3919,82.1523,197.3064,76.5823,198.2936,75.5951,192.7235,73.718,202.3919" style="stroke:#181818;stroke-width:1.0;"/><text fill="#000000" font-family="sans-serif" font-size="13" lengthAdjust="spacing" textLength="55" x="112" y="161.8638">visualiza</text></g><!--link Egresado to Paquetes de servicios--><g id="link_Egresado_Paquetes de servicios"><path d="M184.211,118.9059 C201.785,143.7879 220.8004,170.7102 235.1874,191.0782 " fill="none" id="Egresado-to-Paquetes de servicios" style="stroke:#181818;stroke-width:1.0;"/><polygon fill="#181818" points="238.649,195.9789,236.7237,186.32,235.7643,191.8949,230.1894,190.9356,238.649,195.9789" style="stroke:#181818;stroke-width:1.0;"/><text fill="#000000" font-family="sans-serif" font-size="13" lengthAdjust="spacing" textLength="55" x="218" y="161.8638">visualiza</text></g><!--link Servicios to Suscripci?n--><g id="link_Servicios_Suscripci&#243;n"><path d="M74.9658,232.0909 C86.1666,245.9829 104.243,267.8679 121,285.7969 C130.712,296.1879 137.8401,303.2036 146.9121,311.7306 " fill="none" id="Servicios-to-Suscripci&#243;n" style="stroke:#181818;stroke-width:1.0;"/><polygon fill="#181818" points="151.284,315.8399,147.4656,306.7613,147.6407,312.4155,141.9866,312.5906,151.284,315.8399" style="stroke:#181818;stroke-width:1.0;"/><text fill="#000000" font-family="sans-serif" font-size="13" lengthAdjust="spacing" textLength="72" x="122" y="281.8638">se suscribe</text></g><!--link Paquetes de servicios to Suscripci?n--><g id="link_Paquetes de servicios_Suscripci&#243;n"><path d="M237.426,238.5789 C220.291,260.8949 196.8383,291.438 181.7393,311.101 " fill="none" id="Paquetes de servicios-to-Suscripci&#243;n" style="stroke:#181818;stroke-width:1.0;"/><polygon fill="#181818" points="178.085,315.8599,186.7389,311.1578,181.1302,311.8942,180.3938,306.2855,178.085,315.8599" style="stroke:#181818;stroke-width:1.0;"/><text fill="#000000" font-family="sans-serif" font-size="13" lengthAdjust="spacing" textLength="72" x="214" y="281.8638">se suscribe</text></g><!--link Suscripci?n to Pagos--><g id="link_Suscripci&#243;n_Pagos"><path d="M133.111,344.7889 C118.988,351.8749 104.0302,362.2869 96,376.7969 C87.6879,391.8159 92.726,406.1485 100.1019,418.8965 " fill="none" id="Suscripci&#243;n-to-Pagos" style="stroke:#181818;stroke-width:1.0;"/><polygon fill="#181818" points="103.1067,424.0899,102.0617,414.2966,100.6027,419.7621,95.1372,418.3031,103.1067,424.0899" style="stroke:#181818;stroke-width:1.0;"/><text fill="#000000" font-family="sans-serif" font-size="13" lengthAdjust="spacing" textLength="112" x="97" y="389.8638">se realiza el pago</text></g><!--link Pagos to Base de datos--><g id="link_Pagos_Base de datos"><path d="M118.079,452.7519 C124.002,465.3371 133.612,484.4448 144,499.7969 C151.158,510.3761 156.3484,516.8494 164.0114,525.4068 " fill="none" id="Pagos-to-Base de datos" style="stroke:#181818;stroke-width:1.0;"/><polygon fill="#181818" points="168.014,529.8766,164.9899,520.5035,164.6785,526.1517,159.0302,525.8403,168.014,529.8766" style="stroke:#181818;stroke-width:1.0;"/><text fill="#000000" font-family="sans-serif" font-size="13" lengthAdjust="spacing" textLength="64" x="145" y="495.8638">se guarda</text></g><!--link Suscripci?n to Base de datos--><g id="link_Suscripci&#243;n_Base de datos"><path d="M188.188,346.1429 C198.01,353.8589 208.67,364.4109 214,376.7969 C235.608,427.0119 229.972,447.5159 214,499.7969 C210.623,510.849 207.2887,516.9142 200.7797,525.2681 " fill="none" id="Suscripci&#243;n-to-Base de datos" style="stroke:#181818;stroke-width:1.0;"/><polygon fill="#181818" points="197.092,530.0011,205.7789,525.3601,200.1651,526.057,199.4683,520.4432,197.092,530.0011" style="stroke:#181818;stroke-width:1.0;"/><text fill="#000000" font-family="sans-serif" font-size="13" lengthAdjust="spacing" textLength="64" x="230" y="442.8638">se guarda</text></g><!--SRC=[ZOvD2i8m44RtESMtj8jUe0iNWlj2Jp0cGnWeJSrF1Q_b4RoOCT1GnOAxCFFUoqI98sD8GNkPjJmV4tZ2m7uHBIueHJewZxFr7CWufTONslQ8GmMR3ek4HAFSwOlfwPeuSe1XX9_y9eFMkDjKqfkR6dHPHIYZ2wkTvf_ovx8wFTbtey2UosNW4NCUgtLPuHDbAdzkA5R99lA6TllxoWi0]--></g></svg>