<?xml version="1.0" encoding="UTF-8" standalone="no"?><svg xmlns="http://www.w3.org/2000/svg" xmlns:xlink="http://www.w3.org/1999/xlink" contentStyleType="text/css" height="833px" preserveAspectRatio="none" style="width:568px;height:833px;background:#FFFFFF;" version="1.1" viewBox="0 0 568 833" width="568px" zoomAndPan="magnify"><defs/><g><rect fill="none" height="29.0679" id="_title" style="stroke:none;stroke-width:1.0;" width="162" x="193" y="5"/><text fill="#000000" font-family="sans-serif" font-size="14" font-weight="bold" lengthAdjust="spacing" textLength="152" x="198" y="24.9659">Consultar Estadisticas</text><rect fill="#F1F1F1" height="40" rx="12.5" ry="12.5" style="stroke:#181818;stroke-width:0.5;" width="60" x="251" y="47.0679"/><text fill="#000000" font-family="sans-serif" font-size="14" lengthAdjust="spacing" textLength="50" x="256" y="72.4999">INITIAL</text><path d="M19.5,202.0679 L542.5,202.0679 A12.5,12.5 0 0 1 555,214.5679 L555,231.1358 L7,231.1358 L7,214.5679 A12.5,12.5 0 0 1 19.5,202.0679 " fill="#F1F1F1" style="stroke:#F1F1F1;stroke-width:1.0;"/><rect fill="none" height="625.0679" rx="12.5" ry="12.5" style="stroke:#181818;stroke-width:0.5;" width="548" x="7" y="202.0679"/><line style="stroke:#181818;stroke-width:0.5;" x1="7" x2="555" y1="231.1358" y2="231.1358"/><text fill="#000000" font-family="sans-serif" font-size="14" lengthAdjust="spacing" textLength="144" x="209" y="222.0339">ConsultarEstadisticas</text><rect fill="#F1F1F1" height="40" rx="12.5" ry="12.5" style="stroke:#181818;stroke-width:0.5;" width="50" x="128" y="299.1358"/><text fill="#000000" font-family="sans-serif" font-size="14" lengthAdjust="spacing" textLength="4" x="151" y="324.5678"> </text><rect fill="#F1F1F1" height="40" rx="12.5" ry="12.5" style="stroke:#181818;stroke-width:0.5;" width="50" x="19" y="508.6358"/><text fill="#000000" font-family="sans-serif" font-size="14" lengthAdjust="spacing" textLength="4" x="42" y="534.0678"> </text><g id="elem_4"><polygon fill="#F1F1F1" points="157,682.1358,169,694.1358,157,706.1358,145,694.1358,157,682.1358" style="stroke:#181818;stroke-width:0.5;"/></g><ellipse cx="153" cy="252.1358" fill="#222222" rx="10" ry="10" style="stroke:none;stroke-width:1.0;"/><ellipse cx="157" cy="807.1358" fill="none" rx="10" ry="10" style="stroke:#222222;stroke-width:1.0;"/><ellipse cx="157.5" cy="807.6358" fill="#222222" rx="6" ry="6" style="stroke:none;stroke-width:1.0;"/><!--MD5=[6c33efd7c7ddb450d1e735912f971880]
link *start*ConsultarEstadisticas to 2--><g id="link_*start*ConsultarEstadisticas_2"><path d="M153,262.4458 C153,270.2358 153,281.7358 153,292.2658 " fill="none" id="*start*ConsultarEstadisticas-to-2" style="stroke:#008000;stroke-width:1.0;"/><polygon fill="#008000" points="153,297.1458,157,288.1458,153,292.1458,149,288.1458,153,297.1458" style="stroke:#008000;stroke-width:1.0;"/></g><!--MD5=[eeb69082328d10abd3b14fdeede0d8a3]
link 2 to 3--><g id="link_2_3"><path d="M127.64,328.4358 C94.32,339.3458 40,357.1358 40,357.1358 C40,357.1358 40,483.1358 40,483.1358 C40,483.1358 40.81,492.1358 41.7,502.0358 " fill="none" id="2-to-3" style="stroke:#008000;stroke-width:1.0;"/><polygon fill="#008000" points="42.12,506.7358,45.308,497.4172,41.6776,501.7554,37.3394,498.125,42.12,506.7358" style="stroke:#008000;stroke-width:1.0;"/><path d="M45,362.1358 L45,478.1358 L248,478.1358 L248,372.1358 L238,362.1358 L45,362.1358 " fill="#F5F5F5" style="stroke:#181818;stroke-width:0.5;"/><path d="M238,362.1358 L238,372.1358 L248,372.1358 L238,362.1358 " fill="#F5F5F5" style="stroke:#181818;stroke-width:0.5;"/><text fill="#000000" font-family="sans-serif" font-size="13" font-weight="bold" lengthAdjust="spacing" textLength="103" x="51" y="381.0328">Sistema Solicita</text><ellipse cx="56.5" cy="395.0479" fill="#000000" rx="2.5" ry="2.5" style="stroke:#000000;stroke-width:0.0;"/><text fill="#000000" font-family="sans-serif" font-size="13" lengthAdjust="spacing" textLength="115" x="63" y="398.7389">Servicio a consultar</text><ellipse cx="56.5" cy="412.7539" fill="#000000" rx="2.5" ry="2.5" style="stroke:#000000;stroke-width:0.0;"/><text fill="#000000" font-family="sans-serif" font-size="13" lengthAdjust="spacing" textLength="87" x="63" y="416.4449">Fecha de inicio</text><ellipse cx="56.5" cy="430.4599" fill="#000000" rx="2.5" ry="2.5" style="stroke:#000000;stroke-width:0.0;"/><text fill="#000000" font-family="sans-serif" font-size="13" lengthAdjust="spacing" textLength="71" x="63" y="434.1509">Fecha de fin</text><text fill="#000000" font-family="sans-serif" font-size="13" font-weight="bold" lengthAdjust="spacing" textLength="108" x="51" y="451.8569">Sistema Permite</text><ellipse cx="56.5" cy="465.8719" fill="#000000" rx="2.5" ry="2.5" style="stroke:#000000;stroke-width:0.0;"/><text fill="#000000" font-family="sans-serif" font-size="13" lengthAdjust="spacing" textLength="170" x="63" y="469.5629">Actualizar datos de la cuenta</text></g><!--MD5=[b1f22f0c97e7f2b556a5a2d67c42ac53]
link 3 to 4--><g id="link_3_4"><path d="M46.15,548.9058 C50.3,586.0958 59,664.1358 59,664.1358 C59,664.1358 114.98,680.7058 142.32,688.7958 " fill="none" id="3-to-4" style="stroke:#008000;stroke-width:1.0;"/><polygon fill="#008000" points="146.85,690.1358,139.3475,683.7552,142.0539,688.7227,137.0864,691.4291,146.85,690.1358" style="stroke:#008000;stroke-width:1.0;"/><path d="M64,579.1358 L64,659.1358 L248,659.1358 L248,589.1358 L238,579.1358 L64,579.1358 " fill="#F5F5F5" style="stroke:#181818;stroke-width:0.5;"/><path d="M238,579.1358 L238,589.1358 L248,589.1358 L238,579.1358 " fill="#F5F5F5" style="stroke:#181818;stroke-width:0.5;"/><text fill="#000000" font-family="sans-serif" font-size="13" font-weight="bold" lengthAdjust="spacing" textLength="163" x="70" y="598.0328">Administrador introduce</text><ellipse cx="75.5" cy="612.0479" fill="#000000" rx="2.5" ry="2.5" style="stroke:#000000;stroke-width:0.0;"/><text fill="#000000" font-family="sans-serif" font-size="13" lengthAdjust="spacing" textLength="115" x="82" y="615.7389">Servicio a consultar</text><ellipse cx="75.5" cy="629.7539" fill="#000000" rx="2.5" ry="2.5" style="stroke:#000000;stroke-width:0.0;"/><text fill="#000000" font-family="sans-serif" font-size="13" lengthAdjust="spacing" textLength="87" x="82" y="633.4449">Fecha de inicio</text><ellipse cx="75.5" cy="647.4599" fill="#000000" rx="2.5" ry="2.5" style="stroke:#000000;stroke-width:0.0;"/><text fill="#000000" font-family="sans-serif" font-size="13" lengthAdjust="spacing" textLength="71" x="82" y="651.1509">Fecha de fin</text></g><!--MD5=[48c150dcc06f84c45f2dc2e3fa454db6]
link 4 to *end*ConsultarEstadisticas--><g id="link_4_*end*ConsultarEstadisticas"><path d="M157,706.5958 C157,726.5758 157,767.8058 157,790.4258 " fill="none" id="4-to-*end*ConsultarEstadisticas" style="stroke:#008000;stroke-width:1.0;"/><polygon fill="#008000" points="157,795.2958,161,786.2958,157,790.2958,153,786.2958,157,795.2958" style="stroke:#008000;stroke-width:1.0;"/><path d="M162,729.1358 L162,774.1358 L333,774.1358 L333,739.1358 L323,729.1358 L162,729.1358 " fill="#F5F5F5" style="stroke:#181818;stroke-width:0.5;"/><path d="M323,729.1358 L323,739.1358 L333,739.1358 L323,729.1358 " fill="#F5F5F5" style="stroke:#181818;stroke-width:0.5;"/><text fill="#000000" font-family="sans-serif" font-size="13" font-weight="bold" lengthAdjust="spacing" textLength="110" x="168" y="748.0328">Sistema Muestra</text><ellipse cx="173.5" cy="762.0479" fill="#000000" rx="2.5" ry="2.5" style="stroke:#000000;stroke-width:0.0;"/><text fill="#000000" font-family="sans-serif" font-size="13" lengthAdjust="spacing" textLength="138" x="180" y="765.7389">Estadisticas del servicio</text></g><!--MD5=[d5d43b3f3dfddbfb6ca65af0419a6a54]
link 4 to 2--><g id="link_4_2"><path d="M165.86,690.4558 C189.62,683.2758 253,664.1358 253,664.1358 C253,664.1358 253,357.1358 253,357.1358 C253,357.1358 213.88,342.6658 184.58,331.8158 " fill="none" id="4-to-2" style="stroke:#FF0000;stroke-width:1.0;"/><polygon fill="#FF0000" points="179.91,330.0958,186.9509,336.9824,184.5963,331.8389,189.7399,329.4843,179.91,330.0958" style="stroke:#FF0000;stroke-width:1.0;"/><path d="M258,506.1358 L258,551.1358 L546,551.1358 L546,516.1358 L536,506.1358 L258,506.1358 " fill="#F5F5F5" style="stroke:#181818;stroke-width:0.5;"/><path d="M536,506.1358 L536,516.1358 L546,516.1358 L536,506.1358 " fill="#F5F5F5" style="stroke:#181818;stroke-width:0.5;"/><text fill="#000000" font-family="sans-serif" font-size="13" font-weight="bold" lengthAdjust="spacing" textLength="110" x="264" y="525.0328">Sistema Muestra</text><ellipse cx="269.5" cy="539.0479" fill="#000000" rx="2.5" ry="2.5" style="stroke:#000000;stroke-width:0.0;"/><text fill="#000000" font-family="sans-serif" font-size="13" lengthAdjust="spacing" textLength="255" x="276" y="542.7389">Mensaje de error al generar las estadisticas</text></g><!--MD5=[4740aa01e4adfc48b372ec5a2acaa0d4]
link startState to ConsultarEstadisticas--><g id="link_startState_ConsultarEstadisticas"><path d="M281,87.4979 C281,109.7779 281,149.2479 281,195.4679 " fill="none" id="startState-to-ConsultarEstadisticas" style="stroke:#008000;stroke-width:1.0;"/><polygon fill="#008000" points="281,200.2179,285,191.2179,281,195.2179,277,191.2179,281,200.2179" style="stroke:#008000;stroke-width:1.0;"/><path d="M286,122.0679 L286,167.0679 L453,167.0679 L453,132.0679 L443,122.0679 L286,122.0679 " fill="#F5F5F5" style="stroke:#181818;stroke-width:0.5;"/><path d="M443,122.0679 L443,132.0679 L453,132.0679 L443,122.0679 " fill="#F5F5F5" style="stroke:#181818;stroke-width:0.5;"/><text fill="#000000" font-family="sans-serif" font-size="13" font-weight="bold" lengthAdjust="spacing" textLength="146" x="292" y="140.9649">Administrador Solicita</text><ellipse cx="297.5" cy="154.9799" fill="#000000" rx="2.5" ry="2.5" style="stroke:#000000;stroke-width:0.0;"/><text fill="#000000" font-family="sans-serif" font-size="13" lengthAdjust="spacing" textLength="130" x="304" y="158.6709">Consultar Estadisticas</text></g><!--MD5=[d53e0c3f6f22a97614308413899b8489]
@startuml
title Consultar Estadisticas

skinparam {
    NoteBackgroundColor #whiteSmoke
    ArrowColor #green
    NoteBorderColor #green
    linetype polyline
}

hide empty description

state startState as "INITIAL"

startState - -> ConsultarEstadisticas
note on link
    <b>Administrador Solicita</b>
    * Consultar Estadisticas
end note

state ConsultarEstadisticas{
state 2 as " "
state 3 as " "
state 4 <<choice>>

[*] -down-> 2

2 -down-> 3
note on link
<b>Sistema Solicita</b>
* Servicio a consultar
* Fecha de inicio
* Fecha de fin
<b>Sistema Permite</b>
* Actualizar datos de la cuenta
end note

3 -down-> 4
note on link
<b>Administrador introduce</b>
* Servicio a consultar
* Fecha de inicio
* Fecha de fin
end note

4 -down-> [*]
note on link
<b>Sistema Muestra</b>
* Estadisticas del servicio
end note

4 -[#red]-> 2
note on link
<b>Sistema Muestra</b>
* Mensaje de error al generar las estadisticas
end note

}
@enduml

PlantUML version 1.2022.7(Mon Aug 22 19:01:30 CEST 2022)
(GPL source distribution)
Java Runtime: OpenJDK Runtime Environment
JVM: OpenJDK 64-Bit Server VM
Default Encoding: UTF-8
Language: es
Country: ES
--></g></svg>