<?xml version="1.0" encoding="us-ascii" standalone="no"?><svg xmlns="http://www.w3.org/2000/svg" xmlns:xlink="http://www.w3.org/1999/xlink" contentStyleType="text/css" height="698px" preserveAspectRatio="none" style="width:582px;height:698px;background:#FFFFFF;" version="1.1" viewBox="0 0 582 698" width="582px" zoomAndPan="magnify"><defs/><g><text fill="#000000" font-family="sans-serif" font-size="14" font-weight="bold" lengthAdjust="spacing" textLength="185" x="188.5" y="22.9951">Consultar Estadisticas</text><rect fill="#F1F1F1" height="40" rx="12.5" ry="12.5" style="stroke:#181818;stroke-width:0.5;" width="59" x="258.5" y="44.2969"/><text fill="#000000" font-family="sans-serif" font-size="14" lengthAdjust="spacing" textLength="49" x="263.5" y="69.1436">INITIAL</text><path d="M19.5,194.2969 L556.5,194.2969 A12.5,12.5 0 0 1 569,206.7969 L569,220.5938 L7,220.5938 L7,206.7969 A12.5,12.5 0 0 1 19.5,194.2969 " fill="#F1F1F1" style="stroke:#F1F1F1;stroke-width:1.0;"/><rect fill="none" height="498.2969" rx="12.5" ry="12.5" style="stroke:#181818;stroke-width:0.5;" width="562" x="7" y="194.2969"/><line style="stroke:#181818;stroke-width:0.5;" x1="7" x2="569" y1="220.5938" y2="220.5938"/><text fill="#000000" font-family="sans-serif" font-size="14" lengthAdjust="spacing" textLength="153" x="211.5" y="212.292">ConsultarEstadisticas</text><rect fill="#F1F1F1" height="40" rx="12.5" ry="12.5" style="stroke:#181818;stroke-width:0.5;" width="50" x="152" y="288.5938"/><text fill="#000000" font-family="sans-serif" font-size="14" lengthAdjust="spacing" textLength="4" x="175" y="313.4404">&#160;</text><rect fill="#F1F1F1" height="40" rx="12.5" ry="12.5" style="stroke:#181818;stroke-width:0.5;" width="50" x="19" y="419.5938"/><text fill="#000000" font-family="sans-serif" font-size="14" lengthAdjust="spacing" textLength="4" x="42" y="444.4404">&#160;</text><g id="elem_4"><polygon fill="#F1F1F1" points="152,550.5938,164,562.5938,152,574.5938,140,562.5938,152,550.5938" style="stroke:#181818;stroke-width:0.5;"/></g><ellipse cx="177" cy="241.5938" fill="#222222" rx="10" ry="10" style="stroke:#222222;stroke-width:1.0;"/><ellipse cx="152" cy="671.5938" fill="none" rx="11" ry="11" style="stroke:#222222;stroke-width:1.0;"/><ellipse cx="152" cy="671.5938" fill="#222222" rx="6" ry="6" style="stroke:#222222;stroke-width:1.0;"/><!--link *start*ConsultarEstadisticas to 2--><g id="link_*start*ConsultarEstadisticas_2"><path d="M177,251.6318 C177,261.1198 177,270.3208 177,282.4868 " fill="none" id="*start*ConsultarEstadisticas-to-2" style="stroke:#008000;stroke-width:1.0;"/><polygon fill="#008000" points="177,288.4868,181,279.4868,177,283.4868,173,279.4868,177,288.4868" style="stroke:#008000;stroke-width:1.0;"/></g><!--link 2 to 3--><g id="link_2_3"><path d="M151.879,318.3618 C120.534,329.3038 71,346.5938 71,346.5938 C71,346.5938 59.1925,386.8266 51.284,413.7746 " fill="none" id="2-to-3" style="stroke:#008000;stroke-width:1.0;"/><polygon fill="#008000" points="49.5944,419.5318,55.9669,412.0223,51.0024,414.7341,48.2906,409.7696,49.5944,419.5318" style="stroke:#008000;stroke-width:1.0;"/><path d="M76,351.5938 L76,391.5938 L250,391.5938 L250,361.5938 L240,351.5938 L76,351.5938 " fill="#F5F5F5" style="stroke:#008000;stroke-width:0.5;"/><path d="M240,351.5938 L240,361.5938 L250,361.5938 L240,351.5938 " fill="#F5F5F5" style="stroke:#008000;stroke-width:0.5;"/><text fill="#000000" font-family="sans-serif" font-size="13" font-weight="bold" lengthAdjust="spacing" textLength="127" x="82" y="368.6606">Sistema Permite</text><ellipse cx="87.5" cy="379.3594" fill="#000000" rx="2.5" ry="2.5" style="stroke:#000000;stroke-width:0.0;"/><text fill="#000000" font-family="sans-serif" font-size="13" lengthAdjust="spacing" textLength="141" x="94" y="383.7935">Consultar Estadisticas</text></g><!--link 3 to 4--><g id="link_3_4"><path d="M40.8277,459.6278 C38.9756,470.7397 37,482.5938 37,482.5938 C37,482.5938 37,532.5938 37,532.5938 C37,532.5938 110.0481,551.0147 137.1581,557.8507 " fill="none" id="3-to-4" style="stroke:#008000;stroke-width:1.0;"/><polygon fill="#008000" points="142.976,559.3177,135.2272,553.2386,138.1278,558.0952,133.2711,560.9958,142.976,559.3177" style="stroke:#008000;stroke-width:1.0;"/><path d="M42,487.5938 L42,527.5938 L250,527.5938 L250,497.5938 L240,487.5938 L42,487.5938 " fill="#F5F5F5" style="stroke:#008000;stroke-width:0.5;"/><path d="M240,487.5938 L240,497.5938 L250,497.5938 L240,487.5938 " fill="#F5F5F5" style="stroke:#008000;stroke-width:0.5;"/><text fill="#000000" font-family="sans-serif" font-size="13" font-weight="bold" lengthAdjust="spacing" textLength="187" x="48" y="504.6606">Amdinistrador Introduce</text><ellipse cx="53.5" cy="515.3594" fill="#000000" rx="2.5" ry="2.5" style="stroke:#000000;stroke-width:0.0;"/><text fill="#000000" font-family="sans-serif" font-size="13" lengthAdjust="spacing" textLength="151" x="60" y="519.7935">Verificacion de Solicitud</text></g><!--link 4 to *end*ConsultarEstadisticas--><g id="link_4_*end*ConsultarEstadisticas"><path d="M152,574.6418 C152,595.4658 152,634.2386 152,654.3932 " fill="none" id="4-to-*end*ConsultarEstadisticas" style="stroke:#008000;stroke-width:1.0;"/><polygon fill="#008000" points="152,660.3932,156,651.3932,152,655.3932,148,651.3932,152,660.3932" style="stroke:#008000;stroke-width:1.0;"/><path d="M157,597.5938 L157,637.5938 L351,637.5938 L351,607.5938 L341,597.5938 L157,597.5938 " fill="#F5F5F5" style="stroke:#008000;stroke-width:0.5;"/><path d="M341,597.5938 L341,607.5938 L351,607.5938 L341,597.5938 " fill="#F5F5F5" style="stroke:#008000;stroke-width:0.5;"/><text fill="#000000" font-family="sans-serif" font-size="13" font-weight="bold" lengthAdjust="spacing" textLength="129" x="163" y="614.6606">Sistema Muestra</text><ellipse cx="168.5" cy="625.3594" fill="#000000" rx="2.5" ry="2.5" style="stroke:#000000;stroke-width:0.0;"/><text fill="#000000" font-family="sans-serif" font-size="13" lengthAdjust="spacing" textLength="161" x="175" y="629.7935">Mensaje de Confirmacion</text></g><!--link 4 to 2--><g id="link_4_2"><path d="M160.782,559.1208 C185.69,552.1078 255,532.5938 255,532.5938 C255,532.5938 255,346.5938 255,346.5938 C255,346.5938 230.332,334.8922 207.53,324.0762 " fill="none" id="4-to-2" style="stroke:#FF0000;stroke-width:1.0;"/><polygon fill="#FF0000" points="202.109,321.5048,208.5263,328.9759,206.6265,323.6476,211.9549,321.7479,202.109,321.5048" style="stroke:#FF0000;stroke-width:1.0;"/><path d="M260,419.5938 L260,459.5938 L560,459.5938 L560,429.5938 L550,419.5938 L260,419.5938 " fill="#F5F5F5" style="stroke:#008000;stroke-width:0.5;"/><path d="M550,419.5938 L550,429.5938 L560,429.5938 L550,419.5938 " fill="#F5F5F5" style="stroke:#008000;stroke-width:0.5;"/><text fill="#000000" font-family="sans-serif" font-size="13" font-weight="bold" lengthAdjust="spacing" textLength="129" x="266" y="436.6606">Sistema Muestra</text><ellipse cx="271.5" cy="447.3594" fill="#000000" rx="2.5" ry="2.5" style="stroke:#000000;stroke-width:0.0;"/><text fill="#000000" font-family="sans-serif" font-size="13" lengthAdjust="spacing" textLength="267" x="278" y="451.7935">Mensaje de error al Consultar Estadisticas</text></g><!--link startState to ConsultarEstadisticas--><g id="link_startState_ConsultarEstadisticas"><path d="M288,84.5109 C288,107.3179 288,142.1169 288,188.2149 " fill="none" id="startState-to-ConsultarEstadisticas" style="stroke:#008000;stroke-width:1.0;"/><polygon fill="#008000" points="288,194.2149,292,185.2149,288,189.2149,284,185.2149,288,194.2149" style="stroke:#008000;stroke-width:1.0;"/><path d="M293,119.2969 L293,159.2969 L483,159.2969 L483,129.2969 L473,119.2969 L293,119.2969 " fill="#F5F5F5" style="stroke:#008000;stroke-width:0.5;"/><path d="M473,119.2969 L473,129.2969 L483,129.2969 L473,119.2969 " fill="#F5F5F5" style="stroke:#008000;stroke-width:0.5;"/><text fill="#000000" font-family="sans-serif" font-size="13" font-weight="bold" lengthAdjust="spacing" textLength="169" x="299" y="136.3638">Administrador Solicita</text><ellipse cx="304.5" cy="147.0625" fill="#000000" rx="2.5" ry="2.5" style="stroke:#000000;stroke-width:0.0;"/><text fill="#000000" font-family="sans-serif" font-size="13" lengthAdjust="spacing" textLength="141" x="311" y="151.4966">Consultar Estadisticas</text></g><!--SRC=[bPBVQy8m483VyrSS-YR8G7qiXMxieJ1bqB4NyI4cfsPjad994H7_zwMXzGTEjlKXzBZhTzzTwfMl45wiSKtbES6hyrmgvvNWZZ5NAbDpuXgE3CApi1wVkIYtP1iZNsnb2ORxdV9OQ5jYhCc8xBvBRGdHNBwq997kKfKow0yrGcshGnkm4sCx9H5Gr_u04fqWLNjbJJ3ot2E4atmHNxc3GRx8F_BiRH3JVM8yJYzptOnbWWjOqpOkeq6oJZEfbGa5n6MmAsobXF8yULgdiMBqQ4Le9BIytkp7ZiSkEOcsCEZ2wMquWoGHEwi4fYbZoz4AnjBkJHXZmjZa74nl_ODx4TgWvl2EfCDLHEa_24_FoDaTCjFoQXsvyMHb8thq9vBQ19e8LnAkfrzN8w_eipCzJF9GUTvWswJZpj4u_eKjCjXl5EdOufQw71BALTpAlwaO_aq2Nls-dDCt]--></g></svg>