<?xml version="1.0" encoding="UTF-8" standalone="no"?><svg xmlns="http://www.w3.org/2000/svg" xmlns:xlink="http://www.w3.org/1999/xlink" contentStyleType="text/css" height="581px" preserveAspectRatio="none" style="width:498px;height:581px;background:#FFFFFF;" version="1.1" viewBox="0 0 498 581" width="498px" zoomAndPan="magnify"><defs/><g><rect fill="none" height="29.0679" id="_title" style="stroke:none;stroke-width:1.0;" width="162" x="158" y="5"/><text fill="#000000" font-family="sans-serif" font-size="14" font-weight="bold" lengthAdjust="spacing" textLength="152" x="163" y="24.9659">Consultar Estadisticas</text><rect fill="#F1F1F1" height="40" rx="12.5" ry="12.5" style="stroke:#181818;stroke-width:0.5;" width="60" x="216" y="47.0679"/><text fill="#000000" font-family="sans-serif" font-size="14" lengthAdjust="spacing" textLength="50" x="221" y="72.4999">INITIAL</text><path d="M19.5,202.0679 L472.5,202.0679 A12.5,12.5 0 0 1 485,214.5679 L485,231.1358 L7,231.1358 L7,214.5679 A12.5,12.5 0 0 1 19.5,202.0679 " fill="#F1F1F1" style="stroke:#F1F1F1;stroke-width:1.0;"/><rect fill="none" height="373.0679" rx="12.5" ry="12.5" style="stroke:#181818;stroke-width:0.5;" width="478" x="7" y="202.0679"/><line style="stroke:#181818;stroke-width:0.5;" x1="7" x2="485" y1="231.1358" y2="231.1358"/><text fill="#000000" font-family="sans-serif" font-size="14" lengthAdjust="spacing" textLength="144" x="174" y="222.0339">ConsultarEstadisticas</text><rect fill="#F1F1F1" height="40" rx="12.5" ry="12.5" style="stroke:#181818;stroke-width:0.5;" width="50" x="90" y="299.1358"/><text fill="#000000" font-family="sans-serif" font-size="14" lengthAdjust="spacing" textLength="4" x="113" y="324.5678"> </text><g id="elem_4"><polygon fill="#F1F1F1" points="115,430.1358,127,442.1358,115,454.1358,103,442.1358,115,430.1358" style="stroke:#181818;stroke-width:0.5;"/></g><ellipse cx="115" cy="252.1358" fill="#222222" rx="10" ry="10" style="stroke:none;stroke-width:1.0;"/><ellipse cx="115" cy="555.1358" fill="none" rx="10" ry="10" style="stroke:#222222;stroke-width:1.0;"/><ellipse cx="115.5" cy="555.6358" fill="#222222" rx="6" ry="6" style="stroke:none;stroke-width:1.0;"/><!--MD5=[6c33efd7c7ddb450d1e735912f971880]
link *start*ConsultarEstadisticas to 2--><g id="link_*start*ConsultarEstadisticas_2"><path d="M115,262.4458 C115,270.2358 115,281.7358 115,292.2658 " fill="none" id="*start*ConsultarEstadisticas-to-2" style="stroke:#008000;stroke-width:1.0;"/><polygon fill="#008000" points="115,297.1458,119,288.1458,115,292.1458,111,288.1458,115,297.1458" style="stroke:#008000;stroke-width:1.0;"/></g><!--MD5=[d209f2622dd5d3103b9c9b4670e2d6db]
link 2 to 4--><g id="link_2_4"><path d="M89.51,329.8558 C60.77,340.8158 18,357.1358 18,357.1358 C18,357.1358 18,412.1358 18,412.1358 C18,412.1358 72.88,428.5458 100.08,436.6758 " fill="none" id="2-to-4" style="stroke:#008000;stroke-width:1.0;"/><polygon fill="#008000" points="104.6,438.0258,97.1202,431.6186,99.8089,436.5957,94.8319,439.2844,104.6,438.0258" style="stroke:#008000;stroke-width:1.0;"/><path d="M23,362.1358 L23,407.1358 L186,407.1358 L186,372.1358 L176,362.1358 L23,362.1358 " fill="#F5F5F5" style="stroke:#181818;stroke-width:0.5;"/><path d="M176,362.1358 L176,372.1358 L186,372.1358 L176,362.1358 " fill="#F5F5F5" style="stroke:#181818;stroke-width:0.5;"/><text fill="#000000" font-family="sans-serif" font-size="13" font-weight="bold" lengthAdjust="spacing" textLength="108" x="29" y="381.0328">Sistema Permite</text><ellipse cx="34.5" cy="395.0479" fill="#000000" rx="2.5" ry="2.5" style="stroke:#000000;stroke-width:0.0;"/><text fill="#000000" font-family="sans-serif" font-size="13" lengthAdjust="spacing" textLength="130" x="41" y="398.7389">Consultar Estadisticas</text></g><!--MD5=[48c150dcc06f84c45f2dc2e3fa454db6]
link 4 to *end*ConsultarEstadisticas--><g id="link_4_*end*ConsultarEstadisticas"><path d="M115,454.5958 C115,474.5758 115,515.8058 115,538.4258 " fill="none" id="4-to-*end*ConsultarEstadisticas" style="stroke:#008000;stroke-width:1.0;"/><polygon fill="#008000" points="115,543.2958,119,534.2958,115,538.2958,111,534.2958,115,543.2958" style="stroke:#008000;stroke-width:1.0;"/><path d="M120,477.1358 L120,522.1358 L288,522.1358 L288,487.1358 L278,477.1358 L120,477.1358 " fill="#F5F5F5" style="stroke:#181818;stroke-width:0.5;"/><path d="M278,477.1358 L278,487.1358 L288,487.1358 L278,477.1358 " fill="#F5F5F5" style="stroke:#181818;stroke-width:0.5;"/><text fill="#000000" font-family="sans-serif" font-size="13" font-weight="bold" lengthAdjust="spacing" textLength="110" x="126" y="496.0328">Sistema Muestra</text><ellipse cx="131.5" cy="510.0479" fill="#000000" rx="2.5" ry="2.5" style="stroke:#000000;stroke-width:0.0;"/><text fill="#000000" font-family="sans-serif" font-size="13" lengthAdjust="spacing" textLength="135" x="138" y="513.7389">Estadisticas Solicitadas</text></g><!--MD5=[d5d43b3f3dfddbfb6ca65af0419a6a54]
link 4 to 2--><g id="link_4_2"><path d="M123.42,437.9258 C143.21,430.3758 191,412.1358 191,412.1358 C191,412.1358 191,357.1358 191,357.1358 C191,357.1358 167.12,345.5058 146.13,335.2858 " fill="none" id="4-to-2" style="stroke:#FF0000;stroke-width:1.0;"/><polygon fill="#FF0000" points="141.67,333.1158,148.018,340.646,146.1675,335.3004,151.5132,333.4499,141.67,333.1158" style="stroke:#FF0000;stroke-width:1.0;"/><path d="M196,362.1358 L196,407.1358 L476,407.1358 L476,372.1358 L466,362.1358 L196,362.1358 " fill="#F5F5F5" style="stroke:#181818;stroke-width:0.5;"/><path d="M466,362.1358 L466,372.1358 L476,372.1358 L466,362.1358 " fill="#F5F5F5" style="stroke:#181818;stroke-width:0.5;"/><text fill="#000000" font-family="sans-serif" font-size="13" font-weight="bold" lengthAdjust="spacing" textLength="110" x="202" y="381.0328">Sistema Muestra</text><ellipse cx="207.5" cy="395.0479" fill="#000000" rx="2.5" ry="2.5" style="stroke:#000000;stroke-width:0.0;"/><text fill="#000000" font-family="sans-serif" font-size="13" lengthAdjust="spacing" textLength="247" x="214" y="398.7389">Mensaje de error al Consultar Estadisticas</text></g><!--MD5=[4740aa01e4adfc48b372ec5a2acaa0d4]
link startState to ConsultarEstadisticas--><g id="link_startState_ConsultarEstadisticas"><path d="M246,87.0979 C246,110.0079 246,150.9779 246,195.4379 " fill="none" id="startState-to-ConsultarEstadisticas" style="stroke:#008000;stroke-width:1.0;"/><polygon fill="#008000" points="246,200.2179,250,191.2179,246,195.2179,242,191.2179,246,200.2179" style="stroke:#008000;stroke-width:1.0;"/><path d="M251,122.0679 L251,167.0679 L418,167.0679 L418,132.0679 L408,122.0679 L251,122.0679 " fill="#F5F5F5" style="stroke:#181818;stroke-width:0.5;"/><path d="M408,122.0679 L408,132.0679 L418,132.0679 L408,122.0679 " fill="#F5F5F5" style="stroke:#181818;stroke-width:0.5;"/><text fill="#000000" font-family="sans-serif" font-size="13" font-weight="bold" lengthAdjust="spacing" textLength="146" x="257" y="140.9649">Administrador Solicita</text><ellipse cx="262.5" cy="154.9799" fill="#000000" rx="2.5" ry="2.5" style="stroke:#000000;stroke-width:0.0;"/><text fill="#000000" font-family="sans-serif" font-size="13" lengthAdjust="spacing" textLength="130" x="269" y="158.6709">Consultar Estadisticas</text></g><!--MD5=[7e255110913ec7f3fd9b75bc697ad825]
@startuml
title Consultar Estadisticas

skinparam {
    NoteBackgroundColor #whiteSmoke
    ArrowColor #green
    NoteBorderColor #green
    linetype polyline
}

hide empty description

state startState as "INITIAL"

startState - -> ConsultarEstadisticas
note on link
    <b>Administrador Solicita</b>
    * Consultar Estadisticas
end note

state ConsultarEstadisticas{
state 2 as " "
state 4 <<choice>>

[*] -down-> 2

2 -down-> 4
note on link
<b>Sistema Permite</b>
* Consultar Estadisticas
end note

4 -down-> [*]
note on link
<b>Sistema Muestra</b>
* Estadisticas Solicitadas
end note

4 -[#red]-> 2
note on link
<b>Sistema Muestra</b>
* Mensaje de error al Consultar Estadisticas
end note

}
@enduml

PlantUML version 1.2022.7(Mon Aug 22 19:01:30 CEST 2022)
(GPL source distribution)
Java Runtime: OpenJDK Runtime Environment
JVM: OpenJDK 64-Bit Server VM
Default Encoding: UTF-8
Language: es
Country: ES
--></g></svg>