<?xml version="1.0" encoding="windows-1252" standalone="no"?>
<svg xmlns="http://www.w3.org/2000/svg" xmlns:xlink="http://www.w3.org/1999/xlink" contentStyleType="text/css" height="639px" preserveAspectRatio="none" style="width:440px;height:639px;background:#FFFFFF;" version="1.1" viewBox="0 0 440 639" width="440px" zoomAndPan="magnify"><defs/><g><ellipse cx="235" cy="16" fill="#222222" rx="10" ry="10" style="stroke:#222222;stroke-width:1.0;"/><g id="Inicializado"><rect fill="#F1F1F1" height="50" rx="12.5" ry="12.5" style="stroke:#181818;stroke-width:0.5;" width="99" x="185.5" y="103"/><line style="stroke:#181818;stroke-width:0.5;" x1="185.5" x2="284.5" y1="129.2969" y2="129.2969"/><text fill="#000000" font-family="sans-serif" font-size="14" lengthAdjust="spacing" textLength="79" x="195.5" y="120.9951">Inicializado</text></g><g id="Recopilando"><rect fill="#F1F1F1" height="50" rx="12.5" ry="12.5" style="stroke:#181818;stroke-width:0.5;" width="109" x="180.5" y="230"/><line style="stroke:#181818;stroke-width:0.5;" x1="180.5" x2="289.5" y1="256.2969" y2="256.2969"/><text fill="#000000" font-family="sans-serif" font-size="14" lengthAdjust="spacing" textLength="89" x="190.5" y="247.9951">Recopilando</text></g><g id="Procesando"><rect fill="#F1F1F1" height="50" rx="12.5" ry="12.5" style="stroke:#181818;stroke-width:0.5;" width="103" x="98.5" y="357"/><line style="stroke:#181818;stroke-width:0.5;" x1="98.5" x2="201.5" y1="383.2969" y2="383.2969"/><text fill="#000000" font-family="sans-serif" font-size="14" lengthAdjust="spacing" textLength="83" x="108.5" y="374.9951">Procesando</text></g><g id="Generadas"><rect fill="#F1F1F1" height="50" rx="12.5" ry="12.5" style="stroke:#181818;stroke-width:0.5;" width="96" x="7" y="484"/><line style="stroke:#181818;stroke-width:0.5;" x1="7" x2="103" y1="510.2969" y2="510.2969"/><text fill="#000000" font-family="sans-serif" font-size="14" lengthAdjust="spacing" textLength="76" x="17" y="501.9951">Generadas</text></g><ellipse cx="55" cy="622" fill="none" rx="11" ry="11" style="stroke:#222222;stroke-width:1.0;"/><ellipse cx="55" cy="622" fill="#222222" rx="6" ry="6" style="stroke:#222222;stroke-width:1.0;"/><g id="Error_Recopilación"><rect fill="#F1F1F1" height="50" rx="12.5" ry="12.5" style="stroke:#181818;stroke-width:0.5;" width="155" x="236.5" y="357"/><line style="stroke:#181818;stroke-width:0.5;" x1="236.5" x2="391.5" y1="383.2969" y2="383.2969"/><text fill="#000000" font-family="sans-serif" font-size="14" lengthAdjust="spacing" textLength="135" x="246.5" y="374.9951">Error_Recopilación</text></g><g id="Error_Procesamiento"><rect fill="#F1F1F1" height="50" rx="12.5" ry="12.5" style="stroke:#181818;stroke-width:0.5;" width="171" x="159.5" y="484"/><line style="stroke:#181818;stroke-width:0.5;" x1="159.5" x2="330.5" y1="510.2969" y2="510.2969"/><text fill="#000000" font-family="sans-serif" font-size="14" lengthAdjust="spacing" textLength="151" x="169.5" y="501.9951">Error_Procesamiento</text></g><!--link *start* to Inicializado--><g id="link_*start*_Inicializado"><path d="M235,26.002 C235,42.627 235,72.655 235,96.873 " fill="none" id="*start*-to-Inicializado" style="stroke:#181818;stroke-width:1.0;"/><polygon fill="#181818" points="235,102.873,239,93.873,235,97.873,231,93.873,235,102.873" style="stroke:#181818;stroke-width:1.0;"/><text fill="#000000" font-family="sans-serif" font-size="13" lengthAdjust="spacing" textLength="177" x="236" y="69.0669">Iniciar recopilación de datos</text></g><!--link Inicializado to Recopilando--><g id="link_Inicializado_Recopilando"><path d="M235,153.101 C235,175.236 235,201.861 235,223.973 " fill="none" id="Inicializado-to-Recopilando" style="stroke:#181818;stroke-width:1.0;"/><polygon fill="#181818" points="235,229.973,239,220.973,235,224.973,231,220.973,235,229.973" style="stroke:#181818;stroke-width:1.0;"/><text fill="#000000" font-family="sans-serif" font-size="13" lengthAdjust="spacing" textLength="118" x="236" y="196.0669">Recopilando datos</text></g><!--link Recopilando to Procesando--><g id="link_Recopilando_Procesando"><path d="M180.144,279.515 C168.105,287.38 156.903,297.435 150,310 C142.224,324.152 141.5709,336.4704 143.6029,350.9284 " fill="none" id="Recopilando-to-Procesando" style="stroke:#181818;stroke-width:1.0;"/><polygon fill="#181818" points="144.438,356.87,147.1465,347.4009,143.7421,351.9187,139.2243,348.5143,144.438,356.87" style="stroke:#181818;stroke-width:1.0;"/><text fill="#000000" font-family="sans-serif" font-size="13" lengthAdjust="spacing" textLength="115" x="151" y="323.0669">Datos recopilados</text></g><!--link Procesando to Generadas--><g id="link_Procesando_Generadas"><path d="M98.248,399.108 C80.3762,407.432 62.2756,419.606 52,437 C43.7796,450.915 43.5768,463.2984 46.492,477.8184 " fill="none" id="Procesando-to-Generadas" style="stroke:#181818;stroke-width:1.0;"/><polygon fill="#181818" points="47.6731,483.701,49.8233,474.0897,46.6889,478.7988,41.9798,475.6645,47.6731,483.701" style="stroke:#181818;stroke-width:1.0;"/><text fill="#000000" font-family="sans-serif" font-size="13" lengthAdjust="spacing" textLength="148" x="53" y="450.0669">Estadísticas generadas</text></g><!--link Generadas to *end*--><g id="link_Generadas_*end*"><path d="M55,534.0853 C55,558.0597 55,587.6954 55,604.9353 " fill="none" id="Generadas-to-*end*" style="stroke:#181818;stroke-width:1.0;"/><polygon fill="#181818" points="55,610.9353,59,601.9353,55,605.9353,51,601.9353,55,610.9353" style="stroke:#181818;stroke-width:1.0;"/><text fill="#000000" font-family="sans-serif" font-size="13" lengthAdjust="spacing" textLength="96" x="56" y="577.0669">Fin del proceso</text></g><!--link Recopilando to Error_Recopilaci?n--><g id="link_Recopilando_Error_Recopilación"><path d="M254.039,280.236 C260.925,289.373 268.579,299.981 275,310 C284.713,325.156 291.6762,337.5924 298.9982,351.5534 " fill="none" id="Recopilando-to-Error_Recopilación" style="stroke:#181818;stroke-width:1.0;"/><polygon fill="#181818" points="301.785,356.867,301.1472,347.0388,299.4627,352.439,294.0625,350.7545,301.785,356.867" style="stroke:#181818;stroke-width:1.0;"/><text fill="#000000" font-family="sans-serif" font-size="13" lengthAdjust="spacing" textLength="146" x="286" y="323.0669">Error en la recopilación</text></g><!--link Procesando to Error_Procesamiento--><g id="link_Procesando_Error_Procesamiento"><path d="M178.187,407.035 C187.662,415.897 197.877,426.379 206,437 C217.107,451.522 224.3388,464.222 231.3768,478.504 " fill="none" id="Procesando-to-Error_Procesamiento" style="stroke:#181818;stroke-width:1.0;"/><polygon fill="#181818" points="234.029,483.886,233.6387,474.0449,231.8188,479.401,226.4627,477.5811,234.029,483.886" style="stroke:#181818;stroke-width:1.0;"/><text fill="#000000" font-family="sans-serif" font-size="13" lengthAdjust="spacing" textLength="166" x="219" y="450.0669">Error en el procesamiento</text></g><!--SRC=[PP0n3i8m34Ntdi8pKY_GWOc2s53N2Y4hYP2b45TE9kxKYIFqOYHjA2cC_l_z-3lzxWfrlOUp8qLewOcQeScZW1Z50rbKDBqSQ0CQ0_jgGwTubpatfyjf2PHAuY_2olYC7nAohj8HB-n4dumpWXfzX5iVK4-Z3wJYVFyurPT9YJwUrS2HKcSBm_mSLtyrMX6MMxSvibbKC0uiRZ_WjzSIp-A3Z0jSnjVDsNi3]--></g></svg>