<?xml version="1.0" encoding="UTF-8" standalone="no"?><svg xmlns="http://www.w3.org/2000/svg" xmlns:xlink="http://www.w3.org/1999/xlink" contentStyleType="text/css" height="765px" preserveAspectRatio="none" style="width:1469px;height:765px;background:#FFFFFF;" version="1.1" viewBox="0 0 1469 765" width="1469px" zoomAndPan="magnify"><defs/><g><rect fill="none" height="29.0679" id="_title" style="stroke:none;stroke-width:1.0;" width="179" x="634.75" y="5"/><text fill="#000000" font-family="sans-serif" font-size="14" font-weight="bold" lengthAdjust="spacing" textLength="169" x="639.75" y="24.9659">Contexto Administrador</text><ellipse cx="731.25" cy="56.0679" fill="#222222" rx="10" ry="10" style="stroke:none;stroke-width:1.0;"/><rect fill="#F1F1F1" height="40" rx="12.5" ry="12.5" style="stroke:#181818;stroke-width:0.5;" width="60" x="701.25" y="127.0679"/><text fill="#000000" font-family="sans-serif" font-size="14" lengthAdjust="spacing" textLength="50" x="706.25" y="152.4999">INITIAL</text><ellipse cx="731.25" cy="749.1379" fill="none" rx="10" ry="10" style="stroke:#222222;stroke-width:1.0;"/><ellipse cx="731.75" cy="749.6379" fill="#222222" rx="6" ry="6" style="stroke:none;stroke-width:1.0;"/><path d="M19.5,264.0679 L1443,264.0679 A12.5,12.5 0 0 1 1455.5,276.5679 L1455.5,293.1358 L7,293.1358 L7,276.5679 A12.5,12.5 0 0 1 19.5,264.0679 " fill="#F1F1F1" style="stroke:#F1F1F1;stroke-width:1.0;"/><rect fill="none" height="378.0679" rx="12.5" ry="12.5" style="stroke:#181818;stroke-width:0.5;" width="1448.5" x="7" y="264.0679"/><line style="stroke:#181818;stroke-width:0.5;" x1="7" x2="1455.5" y1="293.1358" y2="293.1358"/><text fill="#000000" font-family="sans-serif" font-size="14" lengthAdjust="spacing" textLength="55" x="703.75" y="284.0339">ALUMNI</text><ellipse cx="636" cy="314.1358" fill="#222222" rx="10" ry="10" style="stroke:none;stroke-width:1.0;"/><rect fill="#F1F1F1" height="40" rx="12.5" ry="12.5" style="stroke:#181818;stroke-width:0.5;" width="95" x="588.5" y="415.1358"/><text fill="#000000" font-family="sans-serif" font-size="14" lengthAdjust="spacing" textLength="85" x="593.5" y="440.5678">DASHBOARD</text><rect fill="#F1F1F1" height="40" rx="12.5" ry="12.5" style="stroke:#181818;stroke-width:0.5;" width="158" x="19" y="571.1358"/><text fill="#000000" font-family="sans-serif" font-size="14" lengthAdjust="spacing" textLength="148" x="24" y="596.5678">GESTIÓN_EGRESADOS</text><rect fill="#F1F1F1" height="40" rx="12.5" ry="12.5" style="stroke:#181818;stroke-width:0.5;" width="210" x="385" y="571.1358"/><text fill="#000000" font-family="sans-serif" font-size="14" lengthAdjust="spacing" textLength="200" x="390" y="596.5678">GESTIÓN_ADMINISTRADORES</text><rect fill="#F1F1F1" height="40" rx="12.5" ry="12.5" style="stroke:#181818;stroke-width:0.5;" width="148" x="816" y="571.1358"/><text fill="#000000" font-family="sans-serif" font-size="14" lengthAdjust="spacing" textLength="138" x="821" y="596.5678">GESTIÓN_SERVICIOS</text><rect fill="#F1F1F1" height="40" rx="12.5" ry="12.5" style="stroke:#181818;stroke-width:0.5;" width="147" x="1148.5" y="571.1358"/><text fill="#000000" font-family="sans-serif" font-size="14" lengthAdjust="spacing" textLength="137" x="1153.5" y="596.5678">GESTIÓN_PAQUETES</text><!--MD5=[80ed1e7dc5ea98cae66a17687b6a86b3]
link *start*Alumni to DASHBOARD--><g id="link_*start*Alumni_DASHBOARD"><path d="M636,324.4758 C636,342.3558 636,381.9958 636,408.3858 " fill="none" id="*start*Alumni-to-DASHBOARD" style="stroke:#181818;stroke-width:1.0;"/><polygon fill="#181818" points="636,413.2758,640,404.2758,636,408.2758,632,404.2758,636,413.2758" style="stroke:#181818;stroke-width:1.0;"/><path d="M641,347.1358 L641,392.1358 L790,392.1358 L790,357.1358 L780,347.1358 L641,347.1358 " fill="#F5F5F5" style="stroke:#181818;stroke-width:0.5;"/><path d="M780,347.1358 L780,357.1358 L790,357.1358 L780,347.1358 " fill="#F5F5F5" style="stroke:#181818;stroke-width:0.5;"/><text fill="#000000" font-family="sans-serif" font-size="13" lengthAdjust="spacing" textLength="128" x="647" y="366.0328">consultar Estadísticas</text><text fill="#000000" font-family="sans-serif" font-size="13" lengthAdjust="spacing" textLength="97" x="647" y="383.7389">Realizar Petición</text></g><!--MD5=[06f76f9f09730989717e07f407a4a749]
link DASHBOARD to GESTIÓN_EGRESADOS--><g id="link_DASHBOARD_GESTIÓN_EGRESADOS"><path d="M588.19,440.5258 C481.44,450.3258 233,473.1358 233,473.1358 C233,473.1358 191,528.1358 191,528.1358 C191,528.1358 158.87,549.5558 132.38,567.2158 " fill="none" id="DASHBOARD-to-GESTIÓN_EGRESADOS" style="stroke:#181818;stroke-width:1.0;"/><polygon fill="#181818" points="128.43,569.8458,138.1399,568.1971,132.5946,567.0789,133.7128,561.5337,128.43,569.8458" style="stroke:#181818;stroke-width:1.0;"/><path d="M238,478.1358 L238,523.1358 L356,523.1358 L356,488.1358 L346,478.1358 L238,478.1358 " fill="#F5F5F5" style="stroke:#181818;stroke-width:0.5;"/><path d="M346,478.1358 L346,488.1358 L356,488.1358 L346,478.1358 " fill="#F5F5F5" style="stroke:#181818;stroke-width:0.5;"/><text fill="#000000" font-family="sans-serif" font-size="13" lengthAdjust="spacing" textLength="92" x="244" y="497.0328">Listar Egresado</text><text fill="#000000" font-family="sans-serif" font-size="13" lengthAdjust="spacing" textLength="97" x="244" y="514.7389">Realizar Petición</text></g><!--MD5=[877a874fe5d3d17be21245189237c707]
reverse link DASHBOARD to GESTIÓN_EGRESADOS--><g id="link_DASHBOARD_GESTIÓN_EGRESADOS"><path d="M581.73,439.4458 C433.03,448.5258 30,473.1358 30,473.1358 C30,473.1358 30,528.1358 30,528.1358 C30,528.1358 56.9,552.6558 76.86,570.8558 " fill="none" id="DASHBOARD-backto-GESTIÓN_EGRESADOS" style="stroke:#181818;stroke-width:1.0;"/><polygon fill="#181818" points="586.68,439.1458,577.456,435.6936,581.689,439.4462,577.9365,443.6792,586.68,439.1458" style="stroke:#181818;stroke-width:1.0;"/><path d="M35,478.1358 L35,523.1358 L186,523.1358 L186,488.1358 L176,478.1358 L35,478.1358 " fill="#F5F5F5" style="stroke:#181818;stroke-width:0.5;"/><path d="M176,478.1358 L176,488.1358 L186,488.1358 L176,478.1358 " fill="#F5F5F5" style="stroke:#181818;stroke-width:0.5;"/><text fill="#000000" font-family="sans-serif" font-size="13" lengthAdjust="spacing" textLength="130" x="41" y="497.0328">Consultar Estadisticas</text><text fill="#000000" font-family="sans-serif" font-size="13" lengthAdjust="spacing" textLength="97" x="41" y="514.7389">Realizar Petición</text></g><!--MD5=[c946a9e0fa2a55bb411b70034556f7ec]
link DASHBOARD to GESTIÓN_ADMINISTRADORES--><g id="link_DASHBOARD_GESTIÓN_ADMINISTRADORES"><path d="M590.21,455.6158 C569.25,464.5258 549,473.1358 549,473.1358 C549,473.1358 526,528.1358 526,528.1358 C526,528.1358 514.31,548.2758 504.25,565.5958 " fill="none" id="DASHBOARD-to-GESTIÓN_ADMINISTRADORES" style="stroke:#181818;stroke-width:1.0;"/><polygon fill="#181818" points="501.95,569.5458,509.9293,563.7725,504.4614,565.2223,503.0116,559.7544,501.95,569.5458" style="stroke:#181818;stroke-width:1.0;"/><path d="M554,478.1358 L554,523.1358 L697,523.1358 L697,488.1358 L687,478.1358 L554,478.1358 " fill="#F5F5F5" style="stroke:#181818;stroke-width:0.5;"/><path d="M687,478.1358 L687,488.1358 L697,488.1358 L687,478.1358 " fill="#F5F5F5" style="stroke:#181818;stroke-width:0.5;"/><text fill="#000000" font-family="sans-serif" font-size="13" lengthAdjust="spacing" textLength="122" x="560" y="497.0328">Listar Administrador</text><text fill="#000000" font-family="sans-serif" font-size="13" lengthAdjust="spacing" textLength="97" x="560" y="514.7389">Realizar Petición</text></g><!--MD5=[b47d1a4c785fcd3451f48ebc943e538b]
reverse link DASHBOARD to GESTIÓN_ADMINISTRADORES--><g id="link_DASHBOARD_GESTIÓN_ADMINISTRADORES"><path d="M582.12,443.4958 C503.09,454.2858 365,473.1358 365,473.1358 C365,473.1358 365,528.1358 365,528.1358 C365,528.1358 414.13,552.5058 450.79,570.6858 " fill="none" id="DASHBOARD-backto-GESTIÓN_ADMINISTRADORES" style="stroke:#181818;stroke-width:1.0;"/><polygon fill="#181818" points="586.67,442.8658,577.2057,440.1405,581.7174,443.5529,578.305,448.0646,586.67,442.8658" style="stroke:#181818;stroke-width:1.0;"/><path d="M370,478.1358 L370,523.1358 L521,523.1358 L521,488.1358 L511,478.1358 L370,478.1358 " fill="#F5F5F5" style="stroke:#181818;stroke-width:0.5;"/><path d="M511,478.1358 L511,488.1358 L521,488.1358 L511,478.1358 " fill="#F5F5F5" style="stroke:#181818;stroke-width:0.5;"/><text fill="#000000" font-family="sans-serif" font-size="13" lengthAdjust="spacing" textLength="130" x="376" y="497.0328">Consultar Estadisticas</text><text fill="#000000" font-family="sans-serif" font-size="13" lengthAdjust="spacing" textLength="97" x="376" y="514.7389">Realizar Petición</text></g><!--MD5=[7a176483c8bdfc4573031338cb7e7697]
link DASHBOARD to GESTIÓN_SERVICIOS--><g id="link_DASHBOARD_GESTIÓN_SERVICIOS"><path d="M683.91,443.2258 C756.5,453.9658 886,473.1358 886,473.1358 C886,473.1358 887.95,530.2558 889.13,564.6758 " fill="none" id="DASHBOARD-to-GESTIÓN_SERVICIOS" style="stroke:#181818;stroke-width:1.0;"/><polygon fill="#181818" points="889.29,569.3058,892.9793,560.1741,889.1187,564.3088,884.984,560.4482,889.29,569.3058" style="stroke:#181818;stroke-width:1.0;"/><path d="M893,478.1358 L893,523.1358 L1011,523.1358 L1011,488.1358 L1001,478.1358 L893,478.1358 " fill="#F5F5F5" style="stroke:#181818;stroke-width:0.5;"/><path d="M1001,478.1358 L1001,488.1358 L1011,488.1358 L1001,478.1358 " fill="#F5F5F5" style="stroke:#181818;stroke-width:0.5;"/><text fill="#000000" font-family="sans-serif" font-size="13" lengthAdjust="spacing" textLength="82" x="899" y="497.0328">Listar Servicio</text><text fill="#000000" font-family="sans-serif" font-size="13" lengthAdjust="spacing" textLength="97" x="899" y="514.7389">Realizar Petición</text></g><!--MD5=[9cce398f35a6b327834f123771a3fec0]
reverse link DASHBOARD to GESTIÓN_SERVICIOS--><g id="link_DASHBOARD_GESTIÓN_SERVICIOS"><path d="M676.12,458.6258 C689.93,466.3658 702,473.1358 702,473.1358 C702,473.1358 725,528.1358 725,528.1358 C725,528.1358 790,546.1358 790,546.1358 C790,546.1358 819.06,558.9258 845.85,570.7058 " fill="none" id="DASHBOARD-backto-GESTIÓN_SERVICIOS" style="stroke:#181818;stroke-width:1.0;"/><polygon fill="#181818" points="671.87,456.2458,677.7642,464.1362,676.2313,458.691,681.6765,457.1581,671.87,456.2458" style="stroke:#181818;stroke-width:1.0;"/><path d="M730,478.1358 L730,523.1358 L881,523.1358 L881,488.1358 L871,478.1358 L730,478.1358 " fill="#F5F5F5" style="stroke:#181818;stroke-width:0.5;"/><path d="M871,478.1358 L871,488.1358 L881,488.1358 L871,478.1358 " fill="#F5F5F5" style="stroke:#181818;stroke-width:0.5;"/><text fill="#000000" font-family="sans-serif" font-size="13" lengthAdjust="spacing" textLength="130" x="736" y="497.0328">Consultar Estadisticas</text><text fill="#000000" font-family="sans-serif" font-size="13" lengthAdjust="spacing" textLength="97" x="736" y="514.7389">Realizar Petición</text></g><!--MD5=[4ddc762a7432f34447201ef2af6726e4]
link DASHBOARD to GESTIÓN_PAQUETES--><g id="link_DASHBOARD_GESTIÓN_PAQUETES"><path d="M683.87,439.1658 C823.59,447.9958 1221,473.1358 1221,473.1358 C1221,473.1358 1221.49,530.2558 1221.78,564.6758 " fill="none" id="DASHBOARD-to-GESTIÓN_PAQUETES" style="stroke:#181818;stroke-width:1.0;"/><polygon fill="#181818" points="1221.82,569.3058,1225.7427,560.2719,1221.7771,564.306,1217.743,560.3404,1221.82,569.3058" style="stroke:#181818;stroke-width:1.0;"/><path d="M1227,478.1358 L1227,523.1358 L1345,523.1358 L1345,488.1358 L1335,478.1358 L1227,478.1358 " fill="#F5F5F5" style="stroke:#181818;stroke-width:0.5;"/><path d="M1335,478.1358 L1335,488.1358 L1345,488.1358 L1335,478.1358 " fill="#F5F5F5" style="stroke:#181818;stroke-width:0.5;"/><text fill="#000000" font-family="sans-serif" font-size="13" lengthAdjust="spacing" textLength="92" x="1233" y="497.0328">Listar Paquetes</text><text fill="#000000" font-family="sans-serif" font-size="13" lengthAdjust="spacing" textLength="97" x="1233" y="514.7389">Realizar Petición</text></g><!--MD5=[b0fff53457779cd50fb77b66bafb8c2d]
reverse link DASHBOARD to GESTIÓN_PAQUETES--><g id="link_DASHBOARD_GESTIÓN_PAQUETES"><path d="M690.04,441.3458 C795.82,451.5358 1020,473.1358 1020,473.1358 C1020,473.1358 1060,528.1358 1060,528.1358 C1060,528.1358 1119,546.1358 1119,546.1358 C1119,546.1358 1148.93,558.9258 1176.52,570.7058 " fill="none" id="DASHBOARD-backto-GESTIÓN_PAQUETES" style="stroke:#181818;stroke-width:1.0;"/><polygon fill="#181818" points="685.36,440.8958,693.9297,445.7496,690.3364,441.3806,694.7054,437.7873,685.36,440.8958" style="stroke:#181818;stroke-width:1.0;"/><path d="M1065,478.1358 L1065,523.1358 L1216,523.1358 L1216,488.1358 L1206,478.1358 L1065,478.1358 " fill="#F5F5F5" style="stroke:#181818;stroke-width:0.5;"/><path d="M1206,478.1358 L1206,488.1358 L1216,488.1358 L1206,478.1358 " fill="#F5F5F5" style="stroke:#181818;stroke-width:0.5;"/><text fill="#000000" font-family="sans-serif" font-size="13" lengthAdjust="spacing" textLength="130" x="1071" y="497.0328">Consultar Estadisticas</text><text fill="#000000" font-family="sans-serif" font-size="13" lengthAdjust="spacing" textLength="97" x="1071" y="514.7389">Realizar Petición</text></g><!--MD5=[95b1445b7d837765b7035b0a6715aece]
link GESTIÓN_EGRESADOS to GESTIÓN_EGRESADOS--><g id="link_GESTIÓN_EGRESADOS_GESTIÓN_EGRESADOS"><path d="M177.16,576.0858 C187.87,578.6058 195,583.6258 195,591.1358 C195,597.1258 190.47,601.5258 183.22,604.3458 " fill="none" id="GESTIÓN_EGRESADOS-to-GESTIÓN_EGRESADOS" style="stroke:#181818;stroke-width:1.0;"/><polygon fill="#181818" points="178.61,605.7458,188.3849,606.9509,183.3932,604.2895,186.0547,599.2978,178.61,605.7458" style="stroke:#181818;stroke-width:1.0;"/><path d="M200,551.1358 L200,631.1358 L328,631.1358 L328,561.1358 L318,551.1358 L200,551.1358 " fill="#F5F5F5" style="stroke:#181818;stroke-width:0.5;"/><path d="M318,551.1358 L318,561.1358 L328,561.1358 L318,551.1358 " fill="#F5F5F5" style="stroke:#181818;stroke-width:0.5;"/><text fill="#000000" font-family="sans-serif" font-size="13" lengthAdjust="spacing" textLength="92" x="206" y="570.0328">Listar Egresado</text><text fill="#000000" font-family="sans-serif" font-size="13" lengthAdjust="spacing" textLength="91" x="206" y="587.7389">Crear Egresado</text><text fill="#000000" font-family="sans-serif" font-size="13" lengthAdjust="spacing" textLength="94" x="206" y="605.4449">Editar Egresado</text><text fill="#000000" font-family="sans-serif" font-size="13" lengthAdjust="spacing" textLength="107" x="206" y="623.1509">Eliminar Egresado</text></g><!--MD5=[e5a9596ac5e458fd8174e3c99200666e]
link GESTIÓN_ADMINISTRADORES to GESTIÓN_ADMINISTRADORES--><g id="link_GESTIÓN_ADMINISTRADORES_GESTIÓN_ADMINISTRADORES"><path d="M595.42,577.1858 C606.15,579.9458 613,584.5958 613,591.1358 C613,596.3458 608.65,600.3558 601.45,603.1658 " fill="none" id="GESTIÓN_ADMINISTRADORES-to-GESTIÓN_ADMINISTRADORES" style="stroke:#181818;stroke-width:1.0;"/><polygon fill="#181818" points="596.86,604.6258,606.6483,605.716,601.6258,603.1133,604.2284,598.0908,596.86,604.6258" style="stroke:#181818;stroke-width:1.0;"/><path d="M618,551.1358 L618,631.1358 L776,631.1358 L776,561.1358 L766,551.1358 L618,551.1358 " fill="#F5F5F5" style="stroke:#181818;stroke-width:0.5;"/><path d="M766,551.1358 L766,561.1358 L776,561.1358 L766,551.1358 " fill="#F5F5F5" style="stroke:#181818;stroke-width:0.5;"/><text fill="#000000" font-family="sans-serif" font-size="13" lengthAdjust="spacing" textLength="122" x="624" y="570.0328">Listar Administrador</text><text fill="#000000" font-family="sans-serif" font-size="13" lengthAdjust="spacing" textLength="121" x="624" y="587.7389">Crear Administrador</text><text fill="#000000" font-family="sans-serif" font-size="13" lengthAdjust="spacing" textLength="124" x="624" y="605.4449">Editar Administrador</text><text fill="#000000" font-family="sans-serif" font-size="13" lengthAdjust="spacing" textLength="137" x="624" y="623.1509">Eliminar Administrador</text></g><!--MD5=[9006aa4e7e56f2ca25ea5fd5cd3e575c]
link GESTIÓN_SERVICIOS to GESTIÓN_SERVICIOS--><g id="link_GESTIÓN_SERVICIOS_GESTIÓN_SERVICIOS"><path d="M964.36,575.9058 C974.92,578.3758 982,583.4458 982,591.1358 C982,597.2658 977.5,601.7258 970.33,604.5358 " fill="none" id="GESTIÓN_SERVICIOS-to-GESTIÓN_SERVICIOS" style="stroke:#181818;stroke-width:1.0;"/><polygon fill="#181818" points="965.81,605.9258,975.5849,607.1309,970.5932,604.4695,973.2547,599.4778,965.81,605.9258" style="stroke:#181818;stroke-width:1.0;"/><path d="M987,551.1358 L987,631.1358 L1105,631.1358 L1105,561.1358 L1095,551.1358 L987,551.1358 " fill="#F5F5F5" style="stroke:#181818;stroke-width:0.5;"/><path d="M1095,551.1358 L1095,561.1358 L1105,561.1358 L1095,551.1358 " fill="#F5F5F5" style="stroke:#181818;stroke-width:0.5;"/><text fill="#000000" font-family="sans-serif" font-size="13" lengthAdjust="spacing" textLength="82" x="993" y="570.0328">Listar Servicio</text><text fill="#000000" font-family="sans-serif" font-size="13" lengthAdjust="spacing" textLength="81" x="993" y="587.7389">Crear Servicio</text><text fill="#000000" font-family="sans-serif" font-size="13" lengthAdjust="spacing" textLength="84" x="993" y="605.4449">Editar Servicio</text><text fill="#000000" font-family="sans-serif" font-size="13" lengthAdjust="spacing" textLength="97" x="993" y="623.1509">Eliminar Servicio</text></g><!--MD5=[2ca19845b3e3fe665e7700a09ed1f34b]
link GESTIÓN_PAQUETES to GESTIÓN_PAQUETES--><g id="link_GESTIÓN_PAQUETES_GESTIÓN_PAQUETES"><path d="M1295.96,575.9058 C1306.45,578.3758 1313.5,583.4458 1313.5,591.1358 C1313.5,597.2658 1309.03,601.7258 1301.9,604.5358 " fill="none" id="GESTIÓN_PAQUETES-to-GESTIÓN_PAQUETES" style="stroke:#181818;stroke-width:1.0;"/><polygon fill="#181818" points="1297.4,605.9158,1307.1781,607.0942,1302.1792,604.4464,1304.827,599.4475,1297.4,605.9158" style="stroke:#181818;stroke-width:1.0;"/><path d="M1318.5,551.1358 L1318.5,631.1358 L1446.5,631.1358 L1446.5,561.1358 L1436.5,551.1358 L1318.5,551.1358 " fill="#F5F5F5" style="stroke:#181818;stroke-width:0.5;"/><path d="M1436.5,551.1358 L1436.5,561.1358 L1446.5,561.1358 L1436.5,551.1358 " fill="#F5F5F5" style="stroke:#181818;stroke-width:0.5;"/><text fill="#000000" font-family="sans-serif" font-size="13" lengthAdjust="spacing" textLength="92" x="1324.5" y="570.0328">Listar Paquetes</text><text fill="#000000" font-family="sans-serif" font-size="13" lengthAdjust="spacing" textLength="91" x="1324.5" y="587.7389">Crear Paquetes</text><text fill="#000000" font-family="sans-serif" font-size="13" lengthAdjust="spacing" textLength="94" x="1324.5" y="605.4449">Editar Paquetes</text><text fill="#000000" font-family="sans-serif" font-size="13" lengthAdjust="spacing" textLength="107" x="1324.5" y="623.1509">Eliminar Paquetes</text></g><!--MD5=[06c3f2024f4ea60966e79307ee69ec5f]
link *start to INITIAL--><g id="link_*start_INITIAL"><path d="M731.25,66.2579 C731.25,78.9179 731.25,102.2079 731.25,120.3779 " fill="none" id="*start-to-INITIAL" style="stroke:#181818;stroke-width:1.0;"/><polygon fill="#181818" points="731.25,125.2979,735.25,116.2979,731.25,120.2979,727.25,116.2979,731.25,125.2979" style="stroke:#181818;stroke-width:1.0;"/></g><!--MD5=[5563963b6eff4b13ffd230664b5db6c7]
link INITIAL to Alumni--><g id="link_INITIAL_Alumni"><path d="M731.25,167.5479 C731.25,187.4379 731.25,220.5279 731.25,257.2379 " fill="none" id="INITIAL-to-Alumni" style="stroke:#181818;stroke-width:1.0;"/><polygon fill="#181818" points="731.25,262.1379,735.25,253.1379,731.25,257.1379,727.25,253.1379,731.25,262.1379" style="stroke:#181818;stroke-width:1.0;"/><path d="M736.25,202.0679 L736.25,229.0679 L835.25,229.0679 L835.25,212.0679 L825.25,202.0679 L736.25,202.0679 " fill="#F5F5F5" style="stroke:#181818;stroke-width:0.5;"/><path d="M825.25,202.0679 L825.25,212.0679 L835.25,212.0679 L825.25,202.0679 " fill="#F5F5F5" style="stroke:#181818;stroke-width:0.5;"/><text fill="#000000" font-family="sans-serif" font-size="13" lengthAdjust="spacing" textLength="78" x="742.25" y="220.9649">Iniciar Sesión</text></g><!--MD5=[58c2ff39d5451b5af4d7cc6e6c959528]
link Alumni to *end--><g id="link_Alumni_*end"><path d="M731.25,642.3979 C731.25,679.9679 731.25,713.6279 731.25,732.4179 " fill="none" id="Alumni-to-*end" style="stroke:#181818;stroke-width:1.0;"/><polygon fill="#181818" points="731.25,737.1379,735.25,728.1379,731.25,732.1379,727.25,728.1379,731.25,737.1379" style="stroke:#181818;stroke-width:1.0;"/><path d="M736.25,677.1379 L736.25,704.1379 L836.25,704.1379 L836.25,687.1379 L826.25,677.1379 L736.25,677.1379 " fill="#F5F5F5" style="stroke:#181818;stroke-width:0.5;"/><path d="M826.25,677.1379 L826.25,687.1379 L836.25,687.1379 L826.25,677.1379 " fill="#F5F5F5" style="stroke:#181818;stroke-width:0.5;"/><text fill="#000000" font-family="sans-serif" font-size="13" lengthAdjust="spacing" textLength="79" x="742.25" y="696.0349">Cerrar Sesión</text></g><!--MD5=[78966f28971d1bdbcf3ace3bf7beb510]
@startuml Contexto
title Contexto Administrador

skinparam {
    NoteBackgroundColor #whiteSmoke
    NoteBorderColor #green
    linetype polyline
}

hide empty description

[*] - -> INITIAL 

INITIAL - -> Alumni
note on link 
Iniciar Sesión
end note
Alumni - -> [*]
note on link
Cerrar Sesión
end note

state Alumni as "ALUMNI" {
    [*] - -> DASHBOARD
    note on link
    consultar Estadísticas
    Realizar Petición
    end note

    DASHBOARD - -> GESTIÓN_EGRESADOS
    note on link 
    Listar Egresado
    Realizar Petición
    end note  
    DASHBOARD <- - GESTIÓN_EGRESADOS
    note on link 
    Consultar Estadisticas
    Realizar Petición
    end note  
    DASHBOARD - -> GESTIÓN_ADMINISTRADORES
    note on link 
    Listar Administrador
    Realizar Petición
    end note  
    DASHBOARD <- - GESTIÓN_ADMINISTRADORES
    note on link 
    Consultar Estadisticas
    Realizar Petición
    end note
    DASHBOARD - -> GESTIÓN_SERVICIOS
    note on link 
    Listar Servicio
    Realizar Petición
    end note  
    DASHBOARD <- - GESTIÓN_SERVICIOS
    note on link 
    Consultar Estadisticas
    Realizar Petición
    end note
    DASHBOARD - -> GESTIÓN_PAQUETES
    note on link 
    Listar Paquetes
    Realizar Petición
    end note  
    DASHBOARD <- - GESTIÓN_PAQUETES
    note on link 
    Consultar Estadisticas
    Realizar Petición
    end note

    GESTIÓN_EGRESADOS - -> GESTIÓN_EGRESADOS
    note on link 
    Listar Egresado
    Crear Egresado
    Editar Egresado
    Eliminar Egresado
    end note
    GESTIÓN_ADMINISTRADORES - -> GESTIÓN_ADMINISTRADORES
    note on link 
    Listar Administrador
    Crear Administrador
    Editar Administrador
    Eliminar Administrador
    end note
    GESTIÓN_SERVICIOS - -> GESTIÓN_SERVICIOS
    note on link 
    Listar Servicio
    Crear Servicio
    Editar Servicio
    Eliminar Servicio
    end note
    GESTIÓN_PAQUETES - -> GESTIÓN_PAQUETES
    note on link 
    Listar Paquetes
    Crear Paquetes
    Editar Paquetes
    Eliminar Paquetes
    end note
    
}

@enduml

PlantUML version 1.2022.7(Mon Aug 22 19:01:30 CEST 2022)
(GPL source distribution)
Java Runtime: OpenJDK Runtime Environment
JVM: OpenJDK 64-Bit Server VM
Default Encoding: UTF-8
Language: es
Country: ES
--></g></svg>