<?xml version="1.0" encoding="us-ascii" standalone="no"?><svg xmlns="http://www.w3.org/2000/svg" xmlns:xlink="http://www.w3.org/1999/xlink" contentStyleType="text/css" height="1269px" preserveAspectRatio="none" style="width:712px;height:1269px;background:#FFFFFF;" version="1.1" viewBox="0 0 712 1269" width="712px" zoomAndPan="magnify"><defs/><g><text fill="#000000" font-family="sans-serif" font-size="14" font-weight="bold" lengthAdjust="spacing" textLength="318" x="195.9375" y="32.9951">Diagrama de Flujo de la Aplicaci&#243;n FISC</text><ellipse cx="401.875" cy="57.2969" fill="#222222" rx="10" ry="10" style="stroke:#222222;stroke-width:1.0;"/><rect fill="#F1F1F1" height="33.9688" rx="12.5" ry="12.5" style="stroke:#181818;stroke-width:0.5;" width="120" x="341.875" y="87.2969"/><text fill="#000000" font-family="sans-serif" font-size="12" lengthAdjust="spacing" textLength="100" x="351.875" y="108.4355">Iniciar Aplicaci&#243;n</text><rect fill="#F1F1F1" height="61.9063" rx="12.5" ry="12.5" style="stroke:#181818;stroke-width:0.5;" width="177" x="313.375" y="141.2656"/><text fill="#000000" font-family="sans-serif" font-size="12" lengthAdjust="spacing" textLength="132" x="323.375" y="162.4043">Crear Nuevo Proyecto</text><text fill="#000000" font-family="sans-serif" font-size="12" lengthAdjust="spacing" textLength="157" x="323.375" y="176.373">o Abrir Proyecto Existente</text><text fill="#000000" font-family="sans-serif" font-size="12" lengthAdjust="spacing" textLength="120" x="323.375" y="190.3418">o Importar Proyecto</text><polygon fill="#F1F1F1" points="141.375,223.1719,243.375,223.1719,255.375,235.1719,243.375,247.1719,141.375,247.1719,129.375,235.1719,141.375,223.1719" style="stroke:#181818;stroke-width:0.5;"/><text fill="#000000" font-family="sans-serif" font-size="11" lengthAdjust="spacing" textLength="9" x="196.375" y="257.3823">s&#237;</text><text fill="#000000" font-family="sans-serif" font-size="11" lengthAdjust="spacing" textLength="102" x="141.375" y="238.98">&#191;Proyecto Nuevo?</text><rect fill="#F1F1F1" height="33.9688" rx="12.5" ry="12.5" style="stroke:#181818;stroke-width:0.5;" width="181" x="101.875" y="279.9766"/><text fill="#000000" font-family="sans-serif" font-size="12" lengthAdjust="spacing" textLength="161" x="111.875" y="301.1152">Configurar Nuevo Proyecto</text><polygon fill="#F1F1F1" points="348.875,223.1719,470.875,223.1719,482.875,235.1719,470.875,247.1719,348.875,247.1719,336.875,235.1719,348.875,223.1719" style="stroke:#181818;stroke-width:0.5;"/><text fill="#000000" font-family="sans-serif" font-size="11" lengthAdjust="spacing" textLength="9" x="413.875" y="257.3823">s&#237;</text><text fill="#000000" font-family="sans-serif" font-size="11" lengthAdjust="spacing" textLength="122" x="348.875" y="238.98">&#191;Proyecto Importado?</text><text fill="#000000" font-family="sans-serif" font-size="11" lengthAdjust="spacing" textLength="107" x="482.875" y="232.5776">Proyecto Existente</text><rect fill="#F1F1F1" height="33.9688" rx="12.5" ry="12.5" style="stroke:#181818;stroke-width:0.5;" width="214" x="302.875" y="279.9766"/><text fill="#000000" font-family="sans-serif" font-size="12" lengthAdjust="spacing" textLength="194" x="312.875" y="301.1152">Seleccionar Proyecto a Importar</text><rect fill="#F1F1F1" height="33.9688" rx="12.5" ry="12.5" style="stroke:#181818;stroke-width:0.5;" width="165" x="536.875" y="276.5742"/><text fill="#000000" font-family="sans-serif" font-size="12" lengthAdjust="spacing" textLength="145" x="546.875" y="297.7129">Abrir Proyecto Existente</text><polygon fill="#F1F1F1" points="344.375,353.9453,459.375,353.9453,471.375,365.9453,459.375,377.9453,344.375,377.9453,332.375,365.9453,344.375,353.9453" style="stroke:#181818;stroke-width:0.5;"/><text fill="#000000" font-family="sans-serif" font-size="11" lengthAdjust="spacing" textLength="115" x="344.375" y="369.7534">&#191;Simulaci&#243;n Nueva?</text><text fill="#000000" font-family="sans-serif" font-size="11" lengthAdjust="spacing" textLength="9" x="323.375" y="363.3511">s&#237;</text><text fill="#000000" font-family="sans-serif" font-size="11" lengthAdjust="spacing" textLength="120" x="471.375" y="363.3511">Simulaci&#243;n Existente</text><polygon fill="#F1F1F1" points="175.25,387.9453,300.25,387.9453,312.25,399.9453,300.25,411.9453,175.25,411.9453,163.25,399.9453,175.25,387.9453" style="stroke:#181818;stroke-width:0.5;"/><text fill="#000000" font-family="sans-serif" font-size="11" lengthAdjust="spacing" textLength="125" x="175.25" y="403.7534">&#191;Importar Simulaci&#243;n?</text><text fill="#000000" font-family="sans-serif" font-size="11" lengthAdjust="spacing" textLength="9" x="154.25" y="397.3511">s&#237;</text><text fill="#000000" font-family="sans-serif" font-size="11" lengthAdjust="spacing" textLength="15" x="312.25" y="397.3511">No</text><rect fill="#F1F1F1" height="33.9688" rx="12.5" ry="12.5" style="stroke:#181818;stroke-width:0.5;" width="225" x="11" y="421.9453"/><text fill="#000000" font-family="sans-serif" font-size="12" lengthAdjust="spacing" textLength="205" x="21" y="443.084">Seleccionar Simulaci&#243;n a Importar</text><rect fill="#F1F1F1" height="33.9688" rx="12.5" ry="12.5" style="stroke:#181818;stroke-width:0.5;" width="214" x="16.5" y="475.9141"/><text fill="#000000" font-family="sans-serif" font-size="12" lengthAdjust="spacing" textLength="194" x="26.5" y="497.0527">Editar Par&#225;metros de Simulaci&#243;n</text><rect fill="#F1F1F1" height="33.9688" rx="12.5" ry="12.5" style="stroke:#181818;stroke-width:0.5;" width="155" x="274.5" y="421.9453"/><text fill="#000000" font-family="sans-serif" font-size="12" lengthAdjust="spacing" textLength="135" x="284.5" y="443.084">Seleccionar Topolog&#237;a</text><rect fill="#F1F1F1" height="33.9688" rx="12.5" ry="12.5" style="stroke:#181818;stroke-width:0.5;" width="133" x="285.5" y="475.9141"/><text fill="#000000" font-family="sans-serif" font-size="12" lengthAdjust="spacing" textLength="113" x="295.5" y="497.0527">Configurar Material</text><rect fill="#F1F1F1" height="33.9688" rx="12.5" ry="12.5" style="stroke:#181818;stroke-width:0.5;" width="192" x="256" y="529.8828"/><text fill="#000000" font-family="sans-serif" font-size="12" lengthAdjust="spacing" textLength="172" x="266" y="551.0215">Configurar Agresi&#243;n T&#233;rmica</text><rect fill="#F1F1F1" height="33.9688" rx="12.5" ry="12.5" style="stroke:#181818;stroke-width:0.5;" width="115" x="294.5" y="632.2539"/><text fill="#000000" font-family="sans-serif" font-size="12" lengthAdjust="spacing" textLength="95" x="304.5" y="653.3926">Mostrar Errores</text><rect fill="#F1F1F1" height="33.9688" rx="12.5" ry="12.5" style="stroke:#181818;stroke-width:0.5;" width="109" x="297.5" y="701.2227"/><text fill="#000000" font-family="sans-serif" font-size="12" lengthAdjust="spacing" textLength="89" x="307.5" y="722.3613">Corregir Datos</text><polygon fill="#F1F1F1" points="313,583.8516,391,583.8516,403,595.8516,391,607.8516,313,607.8516,301,595.8516,313,583.8516" style="stroke:#181818;stroke-width:0.5;"/><text fill="#000000" font-family="sans-serif" font-size="11" lengthAdjust="spacing" textLength="9" x="356" y="618.062">s&#237;</text><text fill="#000000" font-family="sans-serif" font-size="11" lengthAdjust="spacing" textLength="78" x="313" y="599.6597">&#191;Hay Errores?</text><polygon fill="#F1F1F1" points="352,755.1914,364,767.1914,352,779.1914,340,767.1914,352,755.1914" style="stroke:#181818;stroke-width:0.5;"/><rect fill="#F1F1F1" height="33.9688" rx="12.5" ry="12.5" style="stroke:#181818;stroke-width:0.5;" width="176" x="264" y="799.1914"/><text fill="#000000" font-family="sans-serif" font-size="12" lengthAdjust="spacing" textLength="156" x="274" y="820.3301">Revisar y Confirmar Datos</text><polygon fill="#F1F1F1" points="237.75,839.1602,249.75,851.1602,237.75,863.1602,225.75,851.1602,237.75,839.1602" style="stroke:#181818;stroke-width:0.5;"/><rect fill="#F1F1F1" height="33.9688" rx="12.5" ry="12.5" style="stroke:#181818;stroke-width:0.5;" width="123" x="176.25" y="883.1602"/><text fill="#000000" font-family="sans-serif" font-size="12" lengthAdjust="spacing" textLength="103" x="186.25" y="904.2988">Iniciar Simulaci&#243;n</text><rect fill="#F1F1F1" height="33.9688" rx="12.5" ry="12.5" style="stroke:#181818;stroke-width:0.5;" width="139" x="168.25" y="937.1289"/><text fill="#000000" font-family="sans-serif" font-size="12" lengthAdjust="spacing" textLength="119" x="178.25" y="958.2676">Generar Resultados</text><rect fill="#F1F1F1" height="33.9688" rx="12.5" ry="12.5" style="stroke:#181818;stroke-width:0.5;" width="176" x="478" y="387.9453"/><text fill="#000000" font-family="sans-serif" font-size="12" lengthAdjust="spacing" textLength="156" x="488" y="409.084">Abrir Simulaci&#243;n Existente</text><polygon fill="#F1F1F1" points="401.875,977.0977,413.875,989.0977,401.875,1001.0977,389.875,989.0977,401.875,977.0977" style="stroke:#181818;stroke-width:0.5;"/><rect fill="#F1F1F1" height="33.9688" rx="12.5" ry="12.5" style="stroke:#181818;stroke-width:0.5;" width="181" x="311.375" y="1021.0977"/><text fill="#000000" font-family="sans-serif" font-size="12" lengthAdjust="spacing" textLength="161" x="321.375" y="1042.2363">Visualizar Gr&#225;ficos y Datos</text><rect fill="#F1F1F1" height="33.9688" rx="12.5" ry="12.5" style="stroke:#181818;stroke-width:0.5;" width="121" x="341.375" y="1075.0664"/><text fill="#000000" font-family="sans-serif" font-size="12" lengthAdjust="spacing" textLength="101" x="351.375" y="1096.2051">Generar Reporte</text><rect fill="#F1F1F1" height="33.9688" rx="12.5" ry="12.5" style="stroke:#181818;stroke-width:0.5;" width="162" x="320.875" y="1129.0352"/><text fill="#000000" font-family="sans-serif" font-size="12" lengthAdjust="spacing" textLength="142" x="330.875" y="1150.1738">Exportar Datos/Reporte</text><rect fill="#F1F1F1" height="33.9688" rx="12.5" ry="12.5" style="stroke:#181818;stroke-width:0.5;" width="125" x="339.375" y="1183.0039"/><text fill="#000000" font-family="sans-serif" font-size="12" lengthAdjust="spacing" textLength="105" x="349.375" y="1204.1426">Guardar Proyecto</text><ellipse cx="401.875" cy="1247.9727" fill="none" rx="11" ry="11" style="stroke:#222222;stroke-width:1.0;"/><ellipse cx="401.875" cy="1247.9727" fill="#222222" rx="6" ry="6" style="stroke:#222222;stroke-width:1.0;"/><line style="stroke:#181818;stroke-width:1.0;" x1="401.875" x2="401.875" y1="67.2969" y2="87.2969"/><polygon fill="#181818" points="397.875,77.2969,401.875,87.2969,405.875,77.2969,401.875,81.2969" style="stroke:#181818;stroke-width:1.0;"/><line style="stroke:#181818;stroke-width:1.0;" x1="401.875" x2="401.875" y1="121.2656" y2="141.2656"/><polygon fill="#181818" points="397.875,131.2656,401.875,141.2656,405.875,131.2656,401.875,135.2656" style="stroke:#181818;stroke-width:1.0;"/><line style="stroke:#181818;stroke-width:1.0;" x1="192.375" x2="192.375" y1="247.1719" y2="279.9766"/><polygon fill="#181818" points="188.375,269.9766,192.375,279.9766,196.375,269.9766,192.375,273.9766" style="stroke:#181818;stroke-width:1.0;"/><line style="stroke:#181818;stroke-width:1.0;" x1="192.375" x2="192.375" y1="313.9453" y2="333.9453"/><polygon fill="#181818" points="188.375,323.9453,192.375,333.9453,196.375,323.9453,192.375,327.9453" style="stroke:#181818;stroke-width:1.0;"/><line style="stroke:#181818;stroke-width:1.0;" x1="409.875" x2="409.875" y1="247.1719" y2="279.9766"/><polygon fill="#181818" points="405.875,269.9766,409.875,279.9766,413.875,269.9766,409.875,273.9766" style="stroke:#181818;stroke-width:1.0;"/><line style="stroke:#181818;stroke-width:1.0;" x1="409.875" x2="409.875" y1="313.9453" y2="333.9453"/><polygon fill="#181818" points="405.875,323.9453,409.875,333.9453,413.875,323.9453,409.875,327.9453" style="stroke:#181818;stroke-width:1.0;"/><line style="stroke:#181818;stroke-width:1.0;" x1="255.375" x2="336.875" y1="235.1719" y2="235.1719"/><polygon fill="#181818" points="326.875,231.1719,336.875,235.1719,326.875,239.1719,330.875,235.1719" style="stroke:#181818;stroke-width:1.0;"/><line style="stroke:#181818;stroke-width:1.0;" x1="401.875" x2="401.875" y1="203.1719" y2="208.1719"/><line style="stroke:#181818;stroke-width:1.0;" x1="401.875" x2="192.375" y1="208.1719" y2="208.1719"/><line style="stroke:#181818;stroke-width:1.0;" x1="192.375" x2="192.375" y1="208.1719" y2="223.1719"/><polygon fill="#181818" points="188.375,213.1719,192.375,223.1719,196.375,213.1719,192.375,217.1719" style="stroke:#181818;stroke-width:1.0;"/><line style="stroke:#181818;stroke-width:1.0;" x1="482.875" x2="619.375" y1="235.1719" y2="235.1719"/><line style="stroke:#181818;stroke-width:1.0;" x1="619.375" x2="619.375" y1="235.1719" y2="276.5742"/><polygon fill="#181818" points="615.375,266.5742,619.375,276.5742,623.375,266.5742,619.375,270.5742" style="stroke:#181818;stroke-width:1.0;"/><line style="stroke:#181818;stroke-width:1.0;" x1="619.375" x2="619.375" y1="310.543" y2="333.9453"/><polygon fill="#181818" points="615.375,323.9453,619.375,333.9453,623.375,323.9453,619.375,327.9453" style="stroke:#181818;stroke-width:1.0;"/><line style="stroke:#181818;stroke-width:1.0;" x1="192.375" x2="619.375" y1="333.9453" y2="333.9453"/><line style="stroke:#181818;stroke-width:1.0;" x1="123.5" x2="123.5" y1="455.9141" y2="475.9141"/><polygon fill="#181818" points="119.5,465.9141,123.5,475.9141,127.5,465.9141,123.5,469.9141" style="stroke:#181818;stroke-width:1.0;"/><line style="stroke:#181818;stroke-width:1.0;" x1="352" x2="352" y1="455.9141" y2="475.9141"/><polygon fill="#181818" points="348,465.9141,352,475.9141,356,465.9141,352,469.9141" style="stroke:#181818;stroke-width:1.0;"/><line style="stroke:#181818;stroke-width:1.0;" x1="352" x2="352" y1="509.8828" y2="529.8828"/><polygon fill="#181818" points="348,519.8828,352,529.8828,356,519.8828,352,523.8828" style="stroke:#181818;stroke-width:1.0;"/><line style="stroke:#181818;stroke-width:1.0;" x1="352" x2="352" y1="666.2227" y2="701.2227"/><polygon fill="#181818" points="348,691.2227,352,701.2227,356,691.2227,352,695.2227" style="stroke:#181818;stroke-width:1.0;"/><line style="stroke:#181818;stroke-width:1.0;" x1="352" x2="352" y1="607.8516" y2="632.2539"/><polygon fill="#181818" points="348,622.2539,352,632.2539,356,622.2539,352,626.2539" style="stroke:#181818;stroke-width:1.0;"/><line style="stroke:#181818;stroke-width:1.0;" x1="403" x2="419.5" y1="595.8516" y2="595.8516"/><polygon fill="#181818" points="415.5,673.7227,419.5,683.7227,423.5,673.7227,419.5,677.7227" style="stroke:#181818;stroke-width:1.0;"/><line style="stroke:#181818;stroke-width:1.0;" x1="419.5" x2="419.5" y1="595.8516" y2="767.1914"/><line style="stroke:#181818;stroke-width:1.0;" x1="419.5" x2="364" y1="767.1914" y2="767.1914"/><polygon fill="#181818" points="374,763.1914,364,767.1914,374,771.1914,370,767.1914" style="stroke:#181818;stroke-width:1.0;"/><line style="stroke:#181818;stroke-width:1.0;" x1="352" x2="352" y1="735.1914" y2="755.1914"/><polygon fill="#181818" points="348,745.1914,352,755.1914,356,745.1914,352,749.1914" style="stroke:#181818;stroke-width:1.0;"/><line style="stroke:#181818;stroke-width:1.0;" x1="352" x2="352" y1="563.8516" y2="583.8516"/><polygon fill="#181818" points="348,573.8516,352,583.8516,356,573.8516,352,577.8516" style="stroke:#181818;stroke-width:1.0;"/><line style="stroke:#181818;stroke-width:1.0;" x1="352" x2="352" y1="779.1914" y2="799.1914"/><polygon fill="#181818" points="348,789.1914,352,799.1914,356,789.1914,352,793.1914" style="stroke:#181818;stroke-width:1.0;"/><line style="stroke:#181818;stroke-width:1.0;" x1="163.25" x2="123.5" y1="399.9453" y2="399.9453"/><line style="stroke:#181818;stroke-width:1.0;" x1="123.5" x2="123.5" y1="399.9453" y2="421.9453"/><polygon fill="#181818" points="119.5,411.9453,123.5,421.9453,127.5,411.9453,123.5,415.9453" style="stroke:#181818;stroke-width:1.0;"/><line style="stroke:#181818;stroke-width:1.0;" x1="312.25" x2="352" y1="399.9453" y2="399.9453"/><line style="stroke:#181818;stroke-width:1.0;" x1="352" x2="352" y1="399.9453" y2="421.9453"/><polygon fill="#181818" points="348,411.9453,352,421.9453,356,411.9453,352,415.9453" style="stroke:#181818;stroke-width:1.0;"/><line style="stroke:#181818;stroke-width:1.0;" x1="123.5" x2="123.5" y1="509.8828" y2="851.1602"/><line style="stroke:#181818;stroke-width:1.0;" x1="123.5" x2="225.75" y1="851.1602" y2="851.1602"/><polygon fill="#181818" points="215.75,847.1602,225.75,851.1602,215.75,855.1602,219.75,851.1602" style="stroke:#181818;stroke-width:1.0;"/><line style="stroke:#181818;stroke-width:1.0;" x1="352" x2="352" y1="833.1602" y2="851.1602"/><line style="stroke:#181818;stroke-width:1.0;" x1="352" x2="249.75" y1="851.1602" y2="851.1602"/><polygon fill="#181818" points="259.75,847.1602,249.75,851.1602,259.75,855.1602,255.75,851.1602" style="stroke:#181818;stroke-width:1.0;"/><line style="stroke:#181818;stroke-width:1.0;" x1="237.75" x2="237.75" y1="863.1602" y2="883.1602"/><polygon fill="#181818" points="233.75,873.1602,237.75,883.1602,241.75,873.1602,237.75,877.1602" style="stroke:#181818;stroke-width:1.0;"/><line style="stroke:#181818;stroke-width:1.0;" x1="237.75" x2="237.75" y1="917.1289" y2="937.1289"/><polygon fill="#181818" points="233.75,927.1289,237.75,937.1289,241.75,927.1289,237.75,931.1289" style="stroke:#181818;stroke-width:1.0;"/><line style="stroke:#181818;stroke-width:1.0;" x1="332.375" x2="237.75" y1="365.9453" y2="365.9453"/><line style="stroke:#181818;stroke-width:1.0;" x1="237.75" x2="237.75" y1="365.9453" y2="387.9453"/><polygon fill="#181818" points="233.75,377.9453,237.75,387.9453,241.75,377.9453,237.75,381.9453" style="stroke:#181818;stroke-width:1.0;"/><line style="stroke:#181818;stroke-width:1.0;" x1="471.375" x2="566" y1="365.9453" y2="365.9453"/><line style="stroke:#181818;stroke-width:1.0;" x1="566" x2="566" y1="365.9453" y2="387.9453"/><polygon fill="#181818" points="562,377.9453,566,387.9453,570,377.9453,566,381.9453" style="stroke:#181818;stroke-width:1.0;"/><line style="stroke:#181818;stroke-width:1.0;" x1="237.75" x2="237.75" y1="971.0977" y2="989.0977"/><line style="stroke:#181818;stroke-width:1.0;" x1="237.75" x2="389.875" y1="989.0977" y2="989.0977"/><polygon fill="#181818" points="379.875,985.0977,389.875,989.0977,379.875,993.0977,383.875,989.0977" style="stroke:#181818;stroke-width:1.0;"/><line style="stroke:#181818;stroke-width:1.0;" x1="566" x2="566" y1="421.9141" y2="989.0977"/><line style="stroke:#181818;stroke-width:1.0;" x1="566" x2="413.875" y1="989.0977" y2="989.0977"/><polygon fill="#181818" points="423.875,985.0977,413.875,989.0977,423.875,993.0977,419.875,989.0977" style="stroke:#181818;stroke-width:1.0;"/><line style="stroke:#181818;stroke-width:1.0;" x1="401.875" x2="401.875" y1="333.9453" y2="353.9453"/><polygon fill="#181818" points="397.875,343.9453,401.875,353.9453,405.875,343.9453,401.875,347.9453" style="stroke:#181818;stroke-width:1.0;"/><line style="stroke:#181818;stroke-width:1.0;" x1="401.875" x2="401.875" y1="1001.0977" y2="1021.0977"/><polygon fill="#181818" points="397.875,1011.0977,401.875,1021.0977,405.875,1011.0977,401.875,1015.0977" style="stroke:#181818;stroke-width:1.0;"/><line style="stroke:#181818;stroke-width:1.0;" x1="401.875" x2="401.875" y1="1055.0664" y2="1075.0664"/><polygon fill="#181818" points="397.875,1065.0664,401.875,1075.0664,405.875,1065.0664,401.875,1069.0664" style="stroke:#181818;stroke-width:1.0;"/><line style="stroke:#181818;stroke-width:1.0;" x1="401.875" x2="401.875" y1="1109.0352" y2="1129.0352"/><polygon fill="#181818" points="397.875,1119.0352,401.875,1129.0352,405.875,1119.0352,401.875,1123.0352" style="stroke:#181818;stroke-width:1.0;"/><line style="stroke:#181818;stroke-width:1.0;" x1="401.875" x2="401.875" y1="1163.0039" y2="1183.0039"/><polygon fill="#181818" points="397.875,1173.0039,401.875,1183.0039,405.875,1173.0039,401.875,1177.0039" style="stroke:#181818;stroke-width:1.0;"/><line style="stroke:#181818;stroke-width:1.0;" x1="401.875" x2="401.875" y1="1216.9727" y2="1236.9727"/><polygon fill="#181818" points="397.875,1226.9727,401.875,1236.9727,405.875,1226.9727,401.875,1230.9727" style="stroke:#181818;stroke-width:1.0;"/><!--SRC=[TLExRkD03EptAxPqgklbuc0uZkF2mI4EKgNXIRJ2msffS5T1dB-vCaMgV420quzbzSXwVL9K2U9mEEICF7c3-fAW5AX05wYlJFs7snS3Ud4mb4DEpRlLLvlTKYddGRpADfPo0aa1SwMofM3uU5FZ4-jVmaVCFJzOrelVGXA_wDKpEO_MOrlRL0UMm1hBSqLxFVlt4U4TtyyBxH_HwfbhtYwK3a-sPBkdifRHoBb2u_0_bc5ECSMqGuDvJcmJ6HgYj9vFpyOB3FtVxHSQRK5xDMoqewesmpbRnJ2MqWFZJPAECNOaFULFrKVmgg3kqY3Dtmgzi6kDJjfwRB_j3NypveuFRBXitY2XJipOWaSXCDFLHIdeEebtpQjK8JudNB_zDHprIeG3RdhfZdBBphTy0t9-Nbso29R1b4lmd1HxFoBi5f_81PAZxXHA1MST9tHC_EXOsHejja9kqTMc3PZxoalgntHa9X4nDTazkHeClGJsTR1iJtbmxFYbC9dSEXtwijNp49mEykDKMDSWnTbFvZmVFW40]--></g></svg>