<?xml version="1.0" encoding="us-ascii" standalone="no"?><svg xmlns="http://www.w3.org/2000/svg" xmlns:xlink="http://www.w3.org/1999/xlink" contentStyleType="text/css" height="790px" preserveAspectRatio="none" style="width:855px;height:790px;" version="1.1" viewBox="0 0 855 790" width="855px" zoomAndPan="magnify"><defs/><g><!--class ALUMNI--><g id="elem_ALUMNI"><rect codeLine="5" fill="#F1F1F1" height="64.2969" id="ALUMNI" rx="2.5" ry="2.5" style="stroke:#181818;stroke-width:0.5;" width="106" x="329.5" y="7"/><ellipse cx="353.95" cy="23" fill="#ADD1B2" rx="11" ry="11" style="stroke:#181818;stroke-width:1.0;"/><path d="M356.2938,18.6719 C355.3563,18.2344 354.7625,18.0938 353.8875,18.0938 C351.2625,18.0938 349.2625,20.1719 349.2625,22.8906 L349.2625,24.0156 C349.2625,26.5938 351.3719,28.4844 354.2625,28.4844 C355.4813,28.4844 356.6375,28.1875 357.3875,27.6406 C357.9656,27.2344 358.2938,26.7813 358.2938,26.3906 C358.2938,25.9375 357.9031,25.5469 357.4344,25.5469 C357.2156,25.5469 357.0125,25.625 356.825,25.8125 C356.3719,26.2969 356.3719,26.2969 356.1844,26.3906 C355.7625,26.6563 355.075,26.7813 354.3094,26.7813 C352.2625,26.7813 350.9656,25.6875 350.9656,23.9844 L350.9656,22.8906 C350.9656,21.1094 352.2156,19.7969 353.95,19.7969 C354.5281,19.7969 355.1375,19.9531 355.6063,20.2031 C356.0906,20.4844 356.2625,20.7031 356.3563,21.1094 C356.4188,21.5156 356.45,21.6406 356.5906,21.7656 C356.7313,21.9063 356.9656,22.0156 357.1844,22.0156 C357.45,22.0156 357.7156,21.875 357.8875,21.6563 C357.9969,21.5 358.0281,21.3125 358.0281,20.8906 L358.0281,19.4688 C358.0281,19.0313 358.0125,18.9063 357.9188,18.75 C357.7625,18.4844 357.4813,18.3438 357.1844,18.3438 C356.8875,18.3438 356.6844,18.4375 356.4656,18.75 L356.2938,18.6719 Z " fill="#000000"/><text fill="#000000" font-family="Arial" font-size="14" lengthAdjust="spacing" textLength="53" x="370.05" y="27.8467">ALUMNI</text><line style="stroke:#181818;stroke-width:0.5;" x1="330.5" x2="434.5" y1="39" y2="39"/><rect fill="none" height="6" style="stroke:#C82930;stroke-width:1.0;" width="6" x="337.5" y="49.6484"/><text fill="#000000" font-family="Arial" font-size="14" lengthAdjust="spacing" textLength="80" x="349.5" y="55.9951">plataforma</text><line style="stroke:#181818;stroke-width:0.5;" x1="330.5" x2="434.5" y1="63.2969" y2="63.2969"/></g><!--class REGISTER--><g id="elem_REGISTER"><rect codeLine="9" fill="#F1F1F1" height="80.5938" id="REGISTER" rx="2.5" ry="2.5" style="stroke:#181818;stroke-width:0.5;" width="193" x="161" y="148"/><ellipse cx="217.75" cy="164" fill="#ADD1B2" rx="11" ry="11" style="stroke:#181818;stroke-width:1.0;"/><path d="M220.0938,159.6719 C219.1563,159.2344 218.5625,159.0938 217.6875,159.0938 C215.0625,159.0938 213.0625,161.1719 213.0625,163.8906 L213.0625,165.0156 C213.0625,167.5938 215.1719,169.4844 218.0625,169.4844 C219.2813,169.4844 220.4375,169.1875 221.1875,168.6406 C221.7656,168.2344 222.0938,167.7813 222.0938,167.3906 C222.0938,166.9375 221.7031,166.5469 221.2344,166.5469 C221.0156,166.5469 220.8125,166.625 220.625,166.8125 C220.1719,167.2969 220.1719,167.2969 219.9844,167.3906 C219.5625,167.6563 218.875,167.7813 218.1094,167.7813 C216.0625,167.7813 214.7656,166.6875 214.7656,164.9844 L214.7656,163.8906 C214.7656,162.1094 216.0156,160.7969 217.75,160.7969 C218.3281,160.7969 218.9375,160.9531 219.4063,161.2031 C219.8906,161.4844 220.0625,161.7031 220.1563,162.1094 C220.2188,162.5156 220.25,162.6406 220.3906,162.7656 C220.5313,162.9063 220.7656,163.0156 220.9844,163.0156 C221.25,163.0156 221.5156,162.875 221.6875,162.6563 C221.7969,162.5 221.8281,162.3125 221.8281,161.8906 L221.8281,160.4688 C221.8281,160.0313 221.8125,159.9063 221.7188,159.75 C221.5625,159.4844 221.2813,159.3438 220.9844,159.3438 C220.6875,159.3438 220.4844,159.4375 220.2656,159.75 L220.0938,159.6719 Z " fill="#000000"/><text fill="#000000" font-family="Arial" font-size="14" lengthAdjust="spacing" textLength="71" x="238.25" y="168.8467">REGISTER</text><line style="stroke:#181818;stroke-width:0.5;" x1="162" x2="353" y1="180" y2="180"/><rect fill="none" height="6" style="stroke:#C82930;stroke-width:1.0;" width="6" x="169" y="190.6484"/><text fill="#000000" font-family="Arial" font-size="14" lengthAdjust="spacing" textLength="134" x="181" y="196.9951">Correo universidad</text><rect fill="none" height="6" style="stroke:#C82930;stroke-width:1.0;" width="6" x="169" y="206.9453"/><text fill="#000000" font-family="Arial" font-size="14" lengthAdjust="spacing" textLength="167" x="181" y="213.292">Contrase&#241;a universidad</text><line style="stroke:#181818;stroke-width:0.5;" x1="162" x2="353" y1="220.5938" y2="220.5938"/></g><!--class SERVICIOS GRATUITOS--><g id="elem_SERVICIOS GRATUITOS"><rect codeLine="14" fill="#F1F1F1" height="80.5938" id="SERVICIOS GRATUITOS" rx="2.5" ry="2.5" style="stroke:#181818;stroke-width:0.5;" width="194" x="113.5" y="330"/><ellipse cx="128.5" cy="346" fill="#ADD1B2" rx="11" ry="11" style="stroke:#181818;stroke-width:1.0;"/><path d="M130.8438,341.6719 C129.9063,341.2344 129.3125,341.0938 128.4375,341.0938 C125.8125,341.0938 123.8125,343.1719 123.8125,345.8906 L123.8125,347.0156 C123.8125,349.5938 125.9219,351.4844 128.8125,351.4844 C130.0313,351.4844 131.1875,351.1875 131.9375,350.6406 C132.5156,350.2344 132.8438,349.7813 132.8438,349.3906 C132.8438,348.9375 132.4531,348.5469 131.9844,348.5469 C131.7656,348.5469 131.5625,348.625 131.375,348.8125 C130.9219,349.2969 130.9219,349.2969 130.7344,349.3906 C130.3125,349.6563 129.625,349.7813 128.8594,349.7813 C126.8125,349.7813 125.5156,348.6875 125.5156,346.9844 L125.5156,345.8906 C125.5156,344.1094 126.7656,342.7969 128.5,342.7969 C129.0781,342.7969 129.6875,342.9531 130.1563,343.2031 C130.6406,343.4844 130.8125,343.7031 130.9063,344.1094 C130.9688,344.5156 131,344.6406 131.1406,344.7656 C131.2813,344.9063 131.5156,345.0156 131.7344,345.0156 C132,345.0156 132.2656,344.875 132.4375,344.6563 C132.5469,344.5 132.5781,344.3125 132.5781,343.8906 L132.5781,342.4688 C132.5781,342.0313 132.5625,341.9063 132.4688,341.75 C132.3125,341.4844 132.0313,341.3438 131.7344,341.3438 C131.4375,341.3438 131.2344,341.4375 131.0156,341.75 L130.8438,341.6719 Z " fill="#000000"/><text fill="#000000" font-family="Arial" font-size="14" lengthAdjust="spacing" textLength="162" x="142.5" y="350.8467">SERVICIOS GRATUITOS</text><line style="stroke:#181818;stroke-width:0.5;" x1="114.5" x2="306.5" y1="362" y2="362"/><rect fill="none" height="6" style="stroke:#C82930;stroke-width:1.0;" width="6" x="121.5" y="372.6484"/><text fill="#000000" font-family="Arial" font-size="14" lengthAdjust="spacing" textLength="57" x="133.5" y="378.9951">Noticias</text><rect fill="none" height="6" style="stroke:#C82930;stroke-width:1.0;" width="6" x="121.5" y="388.9453"/><text fill="#000000" font-family="Arial" font-size="14" lengthAdjust="spacing" textLength="160" x="133.5" y="395.292">Ofertas de suscripcion</text><line style="stroke:#181818;stroke-width:0.5;" x1="114.5" x2="306.5" y1="402.5938" y2="402.5938"/></g><!--class SUSCRIPCI?N--><g id="elem_SUSCRIPCI&#211;N"><rect codeLine="19" fill="#F1F1F1" height="129.4844" id="SUSCRIPCI&#211;N" rx="2.5" ry="2.5" style="stroke:#181818;stroke-width:0.5;" width="164" x="342.5" y="306"/><ellipse cx="374.15" cy="322" fill="#ADD1B2" rx="11" ry="11" style="stroke:#181818;stroke-width:1.0;"/><path d="M376.4938,317.6719 C375.5563,317.2344 374.9625,317.0938 374.0875,317.0938 C371.4625,317.0938 369.4625,319.1719 369.4625,321.8906 L369.4625,323.0156 C369.4625,325.5938 371.5719,327.4844 374.4625,327.4844 C375.6813,327.4844 376.8375,327.1875 377.5875,326.6406 C378.1656,326.2344 378.4938,325.7813 378.4938,325.3906 C378.4938,324.9375 378.1031,324.5469 377.6344,324.5469 C377.4156,324.5469 377.2125,324.625 377.025,324.8125 C376.5719,325.2969 376.5719,325.2969 376.3844,325.3906 C375.9625,325.6563 375.275,325.7813 374.5094,325.7813 C372.4625,325.7813 371.1656,324.6875 371.1656,322.9844 L371.1656,321.8906 C371.1656,320.1094 372.4156,318.7969 374.15,318.7969 C374.7281,318.7969 375.3375,318.9531 375.8063,319.2031 C376.2906,319.4844 376.4625,319.7031 376.5563,320.1094 C376.6188,320.5156 376.65,320.6406 376.7906,320.7656 C376.9313,320.9063 377.1656,321.0156 377.3844,321.0156 C377.65,321.0156 377.9156,320.875 378.0875,320.6563 C378.1969,320.5 378.2281,320.3125 378.2281,319.8906 L378.2281,318.4688 C378.2281,318.0313 378.2125,317.9063 378.1188,317.75 C377.9625,317.4844 377.6813,317.3438 377.3844,317.3438 C377.0875,317.3438 376.8844,317.4375 376.6656,317.75 L376.4938,317.6719 Z " fill="#000000"/><text fill="#000000" font-family="Arial" font-size="14" lengthAdjust="spacing" textLength="95" x="391.85" y="326.8467">SUSCRIPCI&#211;N</text><line style="stroke:#181818;stroke-width:0.5;" x1="343.5" x2="505.5" y1="338" y2="338"/><rect fill="none" height="6" style="stroke:#C82930;stroke-width:1.0;" width="6" x="350.5" y="348.6484"/><text fill="#000000" font-family="Arial" font-size="14" lengthAdjust="spacing" textLength="58" x="362.5" y="354.9951">Nombre</text><rect fill="none" height="6" style="stroke:#C82930;stroke-width:1.0;" width="6" x="350.5" y="364.9453"/><text fill="#000000" font-family="Arial" font-size="14" lengthAdjust="spacing" textLength="45" x="362.5" y="371.292">Precio</text><rect fill="none" height="6" style="stroke:#C82930;stroke-width:1.0;" width="6" x="350.5" y="381.2422"/><text fill="#000000" font-family="Arial" font-size="14" lengthAdjust="spacing" textLength="116" x="362.5" y="387.5889">M&#233;todo de Pago</text><rect fill="none" height="6" style="stroke:#C82930;stroke-width:1.0;" width="6" x="350.5" y="397.5391"/><text fill="#000000" font-family="Arial" font-size="14" lengthAdjust="spacing" textLength="138" x="362.5" y="403.8857">Frecuencia de Pago</text><rect fill="none" height="6" style="stroke:#C82930;stroke-width:1.0;" width="6" x="350.5" y="413.8359"/><text fill="#000000" font-family="Arial" font-size="14" lengthAdjust="spacing" textLength="92" x="362.5" y="420.1826">Prestaciones</text><line style="stroke:#181818;stroke-width:0.5;" x1="343.5" x2="505.5" y1="427.4844" y2="427.4844"/></g><!--class SERVICIO--><g id="elem_SERVICIO"><rect codeLine="27" fill="#F1F1F1" height="80.5938" id="SERVICIO" rx="2.5" ry="2.5" style="stroke:#181818;stroke-width:0.5;" width="111" x="369" y="512"/><ellipse cx="389.4" cy="528" fill="#ADD1B2" rx="11" ry="11" style="stroke:#181818;stroke-width:1.0;"/><path d="M391.7438,523.6719 C390.8063,523.2344 390.2125,523.0938 389.3375,523.0938 C386.7125,523.0938 384.7125,525.1719 384.7125,527.8906 L384.7125,529.0156 C384.7125,531.5938 386.8219,533.4844 389.7125,533.4844 C390.9313,533.4844 392.0875,533.1875 392.8375,532.6406 C393.4156,532.2344 393.7438,531.7813 393.7438,531.3906 C393.7438,530.9375 393.3531,530.5469 392.8844,530.5469 C392.6656,530.5469 392.4625,530.625 392.275,530.8125 C391.8219,531.2969 391.8219,531.2969 391.6344,531.3906 C391.2125,531.6563 390.525,531.7813 389.7594,531.7813 C387.7125,531.7813 386.4156,530.6875 386.4156,528.9844 L386.4156,527.8906 C386.4156,526.1094 387.6656,524.7969 389.4,524.7969 C389.9781,524.7969 390.5875,524.9531 391.0563,525.2031 C391.5406,525.4844 391.7125,525.7031 391.8063,526.1094 C391.8688,526.5156 391.9,526.6406 392.0406,526.7656 C392.1813,526.9063 392.4156,527.0156 392.6344,527.0156 C392.9,527.0156 393.1656,526.875 393.3375,526.6563 C393.4469,526.5 393.4781,526.3125 393.4781,525.8906 L393.4781,524.4688 C393.4781,524.0313 393.4625,523.9063 393.3688,523.75 C393.2125,523.4844 392.9313,523.3438 392.6344,523.3438 C392.3375,523.3438 392.1344,523.4375 391.9156,523.75 L391.7438,523.6719 Z " fill="#000000"/><text fill="#000000" font-family="Arial" font-size="14" lengthAdjust="spacing" textLength="67" x="404.6" y="532.8467">SERVICIO</text><line style="stroke:#181818;stroke-width:0.5;" x1="370" x2="479" y1="544" y2="544"/><rect fill="none" height="6" style="stroke:#C82930;stroke-width:1.0;" width="6" x="377" y="554.6484"/><text fill="#000000" font-family="Arial" font-size="14" lengthAdjust="spacing" textLength="58" x="389" y="560.9951">Nombre</text><rect fill="none" height="6" style="stroke:#C82930;stroke-width:1.0;" width="6" x="377" y="570.9453"/><text fill="#000000" font-family="Arial" font-size="14" lengthAdjust="spacing" textLength="85" x="389" y="577.292">Descripci&#243;n</text><line style="stroke:#181818;stroke-width:0.5;" x1="370" x2="479" y1="584.5938" y2="584.5938"/></g><!--class COMUNICACI?N--><g id="elem_COMUNICACI&#211;N"><rect codeLine="32" fill="#F1F1F1" height="96.8906" id="COMUNICACI&#211;N" rx="2.5" ry="2.5" style="stroke:#181818;stroke-width:0.5;" width="143" x="7" y="670"/><ellipse cx="22" cy="686" fill="#ADD1B2" rx="11" ry="11" style="stroke:#181818;stroke-width:1.0;"/><path d="M24.3438,681.6719 C23.4063,681.2344 22.8125,681.0938 21.9375,681.0938 C19.3125,681.0938 17.3125,683.1719 17.3125,685.8906 L17.3125,687.0156 C17.3125,689.5938 19.4219,691.4844 22.3125,691.4844 C23.5313,691.4844 24.6875,691.1875 25.4375,690.6406 C26.0156,690.2344 26.3438,689.7813 26.3438,689.3906 C26.3438,688.9375 25.9531,688.5469 25.4844,688.5469 C25.2656,688.5469 25.0625,688.625 24.875,688.8125 C24.4219,689.2969 24.4219,689.2969 24.2344,689.3906 C23.8125,689.6563 23.125,689.7813 22.3594,689.7813 C20.3125,689.7813 19.0156,688.6875 19.0156,686.9844 L19.0156,685.8906 C19.0156,684.1094 20.2656,682.7969 22,682.7969 C22.5781,682.7969 23.1875,682.9531 23.6563,683.2031 C24.1406,683.4844 24.3125,683.7031 24.4063,684.1094 C24.4688,684.5156 24.5,684.6406 24.6406,684.7656 C24.7813,684.9063 25.0156,685.0156 25.2344,685.0156 C25.5,685.0156 25.7656,684.875 25.9375,684.6563 C26.0469,684.5 26.0781,684.3125 26.0781,683.8906 L26.0781,682.4688 C26.0781,682.0313 26.0625,681.9063 25.9688,681.75 C25.8125,681.4844 25.5313,681.3438 25.2344,681.3438 C24.9375,681.3438 24.7344,681.4375 24.5156,681.75 L24.3438,681.6719 Z " fill="#000000"/><text fill="#000000" font-family="Arial" font-size="14" lengthAdjust="spacing" textLength="111" x="36" y="690.8467">COMUNICACI&#211;N</text><line style="stroke:#181818;stroke-width:0.5;" x1="8" x2="149" y1="702" y2="702"/><rect fill="none" height="6" style="stroke:#C82930;stroke-width:1.0;" width="6" x="15" y="712.6484"/><text fill="#000000" font-family="Arial" font-size="14" lengthAdjust="spacing" textLength="39" x="27" y="718.9951">Email</text><rect fill="none" height="6" style="stroke:#C82930;stroke-width:1.0;" width="6" x="15" y="728.9453"/><text fill="#000000" font-family="Arial" font-size="14" lengthAdjust="spacing" textLength="34" x="27" y="735.292">Chat</text><rect fill="none" height="6" style="stroke:#C82930;stroke-width:1.0;" width="6" x="15" y="745.2422"/><text fill="#000000" font-family="Arial" font-size="14" lengthAdjust="spacing" textLength="75" x="27" y="751.5889">Telef&#243;nica</text><line style="stroke:#181818;stroke-width:0.5;" x1="8" x2="149" y1="758.8906" y2="758.8906"/></g><!--class ALQUILER DE INSTALACIONES--><g id="elem_ALQUILER DE INSTALACIONES"><rect codeLine="38" fill="#F1F1F1" height="96.8906" id="ALQUILER DE INSTALACIONES" rx="2.5" ry="2.5" style="stroke:#181818;stroke-width:0.5;" width="242" x="185.5" y="670"/><ellipse cx="200.5" cy="686" fill="#ADD1B2" rx="11" ry="11" style="stroke:#181818;stroke-width:1.0;"/><path d="M202.8438,681.6719 C201.9063,681.2344 201.3125,681.0938 200.4375,681.0938 C197.8125,681.0938 195.8125,683.1719 195.8125,685.8906 L195.8125,687.0156 C195.8125,689.5938 197.9219,691.4844 200.8125,691.4844 C202.0313,691.4844 203.1875,691.1875 203.9375,690.6406 C204.5156,690.2344 204.8438,689.7813 204.8438,689.3906 C204.8438,688.9375 204.4531,688.5469 203.9844,688.5469 C203.7656,688.5469 203.5625,688.625 203.375,688.8125 C202.9219,689.2969 202.9219,689.2969 202.7344,689.3906 C202.3125,689.6563 201.625,689.7813 200.8594,689.7813 C198.8125,689.7813 197.5156,688.6875 197.5156,686.9844 L197.5156,685.8906 C197.5156,684.1094 198.7656,682.7969 200.5,682.7969 C201.0781,682.7969 201.6875,682.9531 202.1563,683.2031 C202.6406,683.4844 202.8125,683.7031 202.9063,684.1094 C202.9688,684.5156 203,684.6406 203.1406,684.7656 C203.2813,684.9063 203.5156,685.0156 203.7344,685.0156 C204,685.0156 204.2656,684.875 204.4375,684.6563 C204.5469,684.5 204.5781,684.3125 204.5781,683.8906 L204.5781,682.4688 C204.5781,682.0313 204.5625,681.9063 204.4688,681.75 C204.3125,681.4844 204.0313,681.3438 203.7344,681.3438 C203.4375,681.3438 203.2344,681.4375 203.0156,681.75 L202.8438,681.6719 Z " fill="#000000"/><text fill="#000000" font-family="Arial" font-size="14" lengthAdjust="spacing" textLength="210" x="214.5" y="690.8467">ALQUILER DE INSTALACIONES</text><line style="stroke:#181818;stroke-width:0.5;" x1="186.5" x2="426.5" y1="702" y2="702"/><rect fill="none" height="6" style="stroke:#C82930;stroke-width:1.0;" width="6" x="193.5" y="712.6484"/><text fill="#000000" font-family="Arial" font-size="14" lengthAdjust="spacing" textLength="73" x="205.5" y="718.9951">Biblioteca</text><rect fill="none" height="6" style="stroke:#C82930;stroke-width:1.0;" width="6" x="193.5" y="728.9453"/><text fill="#000000" font-family="Arial" font-size="14" lengthAdjust="spacing" textLength="145" x="205.5" y="735.292">Sala de ordenadores</text><rect fill="none" height="6" style="stroke:#C82930;stroke-width:1.0;" width="6" x="193.5" y="745.2422"/><text fill="#000000" font-family="Arial" font-size="14" lengthAdjust="spacing" textLength="174" x="205.5" y="751.5889">Instalaciones deportivas</text><line style="stroke:#181818;stroke-width:0.5;" x1="186.5" x2="426.5" y1="758.8906" y2="758.8906"/></g><!--class NEWSLETTER--><g id="elem_NEWSLETTER"><rect codeLine="44" fill="#F1F1F1" height="96.8906" id="NEWSLETTER" rx="2.5" ry="2.5" style="stroke:#181818;stroke-width:0.5;" width="161" x="463" y="670"/><ellipse cx="492.85" cy="686" fill="#ADD1B2" rx="11" ry="11" style="stroke:#181818;stroke-width:1.0;"/><path d="M495.1938,681.6719 C494.2563,681.2344 493.6625,681.0938 492.7875,681.0938 C490.1625,681.0938 488.1625,683.1719 488.1625,685.8906 L488.1625,687.0156 C488.1625,689.5938 490.2719,691.4844 493.1625,691.4844 C494.3813,691.4844 495.5375,691.1875 496.2875,690.6406 C496.8656,690.2344 497.1938,689.7813 497.1938,689.3906 C497.1938,688.9375 496.8031,688.5469 496.3344,688.5469 C496.1156,688.5469 495.9125,688.625 495.725,688.8125 C495.2719,689.2969 495.2719,689.2969 495.0844,689.3906 C494.6625,689.6563 493.975,689.7813 493.2094,689.7813 C491.1625,689.7813 489.8656,688.6875 489.8656,686.9844 L489.8656,685.8906 C489.8656,684.1094 491.1156,682.7969 492.85,682.7969 C493.4281,682.7969 494.0375,682.9531 494.5063,683.2031 C494.9906,683.4844 495.1625,683.7031 495.2563,684.1094 C495.3188,684.5156 495.35,684.6406 495.4906,684.7656 C495.6313,684.9063 495.8656,685.0156 496.0844,685.0156 C496.35,685.0156 496.6156,684.875 496.7875,684.6563 C496.8969,684.5 496.9281,684.3125 496.9281,683.8906 L496.9281,682.4688 C496.9281,682.0313 496.9125,681.9063 496.8188,681.75 C496.6625,681.4844 496.3813,681.3438 496.0844,681.3438 C495.7875,681.3438 495.5844,681.4375 495.3656,681.75 L495.1938,681.6719 Z " fill="#000000"/><text fill="#000000" font-family="Arial" font-size="14" lengthAdjust="spacing" textLength="96" x="510.15" y="690.8467">NEWSLETTER</text><line style="stroke:#181818;stroke-width:0.5;" x1="464" x2="623" y1="702" y2="702"/><rect fill="none" height="6" style="stroke:#C82930;stroke-width:1.0;" width="6" x="471" y="712.6484"/><text fill="#000000" font-family="Arial" font-size="14" lengthAdjust="spacing" textLength="57" x="483" y="718.9951">Noticias</text><rect fill="none" height="6" style="stroke:#C82930;stroke-width:1.0;" width="6" x="471" y="728.9453"/><text fill="#000000" font-family="Arial" font-size="14" lengthAdjust="spacing" textLength="58" x="483" y="735.292">Eventos</text><rect fill="none" height="6" style="stroke:#C82930;stroke-width:1.0;" width="6" x="471" y="745.2422"/><text fill="#000000" font-family="Arial" font-size="14" lengthAdjust="spacing" textLength="135" x="483" y="751.5889">Ofertas de empleo</text><line style="stroke:#181818;stroke-width:0.5;" x1="464" x2="623" y1="758.8906" y2="758.8906"/></g><!--class OFERTAS DE EMPLEO--><g id="elem_OFERTAS DE EMPLEO"><rect codeLine="50" fill="#F1F1F1" height="129.4844" id="OFERTAS DE EMPLEO" rx="2.5" ry="2.5" style="stroke:#181818;stroke-width:0.5;" width="189" x="659" y="654"/><ellipse cx="676.25" cy="670" fill="#ADD1B2" rx="11" ry="11" style="stroke:#181818;stroke-width:1.0;"/><path d="M678.5938,665.6719 C677.6563,665.2344 677.0625,665.0938 676.1875,665.0938 C673.5625,665.0938 671.5625,667.1719 671.5625,669.8906 L671.5625,671.0156 C671.5625,673.5938 673.6719,675.4844 676.5625,675.4844 C677.7813,675.4844 678.9375,675.1875 679.6875,674.6406 C680.2656,674.2344 680.5938,673.7813 680.5938,673.3906 C680.5938,672.9375 680.2031,672.5469 679.7344,672.5469 C679.5156,672.5469 679.3125,672.625 679.125,672.8125 C678.6719,673.2969 678.6719,673.2969 678.4844,673.3906 C678.0625,673.6563 677.375,673.7813 676.6094,673.7813 C674.5625,673.7813 673.2656,672.6875 673.2656,670.9844 L673.2656,669.8906 C673.2656,668.1094 674.5156,666.7969 676.25,666.7969 C676.8281,666.7969 677.4375,666.9531 677.9063,667.2031 C678.3906,667.4844 678.5625,667.7031 678.6563,668.1094 C678.7188,668.5156 678.75,668.6406 678.8906,668.7656 C679.0313,668.9063 679.2656,669.0156 679.4844,669.0156 C679.75,669.0156 680.0156,668.875 680.1875,668.6563 C680.2969,668.5 680.3281,668.3125 680.3281,667.8906 L680.3281,666.4688 C680.3281,666.0313 680.3125,665.9063 680.2188,665.75 C680.0625,665.4844 679.7813,665.3438 679.4844,665.3438 C679.1875,665.3438 678.9844,665.4375 678.7656,665.75 L678.5938,665.6719 Z " fill="#000000"/><text fill="#000000" font-family="Arial" font-size="14" lengthAdjust="spacing" textLength="152" x="690.75" y="674.8467">OFERTAS DE EMPLEO</text><line style="stroke:#181818;stroke-width:0.5;" x1="660" x2="847" y1="686" y2="686"/><rect fill="none" height="6" style="stroke:#C82930;stroke-width:1.0;" width="6" x="667" y="696.6484"/><text fill="#000000" font-family="Arial" font-size="14" lengthAdjust="spacing" textLength="163" x="679" y="702.9951">Nombre de la empresa</text><rect fill="none" height="6" style="stroke:#C82930;stroke-width:1.0;" width="6" x="667" y="712.9453"/><text fill="#000000" font-family="Arial" font-size="14" lengthAdjust="spacing" textLength="127" x="679" y="719.292">Puesto de trabajo</text><rect fill="none" height="6" style="stroke:#C82930;stroke-width:1.0;" width="6" x="667" y="729.2422"/><text fill="#000000" font-family="Arial" font-size="14" lengthAdjust="spacing" textLength="48" x="679" y="735.5889">Salario</text><rect fill="none" height="6" style="stroke:#C82930;stroke-width:1.0;" width="6" x="667" y="745.5391"/><text fill="#000000" font-family="Arial" font-size="14" lengthAdjust="spacing" textLength="69" x="679" y="751.8857">Ubicaci&#243;n</text><rect fill="none" height="6" style="stroke:#C82930;stroke-width:1.0;" width="6" x="667" y="761.8359"/><text fill="#000000" font-family="Arial" font-size="14" lengthAdjust="spacing" textLength="52" x="679" y="768.1826">Horario</text><line style="stroke:#181818;stroke-width:0.5;" x1="660" x2="847" y1="775.4844" y2="775.4844"/></g><!--link ALUMNI to REGISTER--><g id="link_ALUMNI_REGISTER"><path codeLine="58" d="M355.991,71.281 C337.071,93.606 311.477,123.808 291.121,147.827 " fill="none" id="ALUMNI-REGISTER" style="stroke:#181818;stroke-width:1.0;"/><text fill="#000000" font-family="Arial" font-size="13" lengthAdjust="spacing" textLength="45" x="328.5" y="114.0669">include</text></g><!--link ALUMNI to SUSCRIPCI?N--><g id="link_ALUMNI_SUSCRIPCI&#211;N"><path codeLine="59" d="M386.489,71.296 C393.328,124.95 407.42,235.504 416.392,305.888 " fill="none" id="ALUMNI-SUSCRIPCI&#211;N" style="stroke:#181818;stroke-width:1.0;stroke-dasharray:7.0,7.0;"/><text fill="#000000" font-family="Arial" font-size="13" lengthAdjust="spacing" textLength="52" x="407.5" y="193.0669">extends</text></g><!--link REGISTER to SERVICIOS GRATUITOS--><g id="link_REGISTER_SERVICIOS GRATUITOS"><path codeLine="60" d="M242.061,229.231 C238.629,238.884 235.211,249.239 232.5,259 C226.061,282.182 220.731,308.596 216.931,329.786 " fill="none" id="REGISTER-SERVICIOS GRATUITOS" style="stroke:#181818;stroke-width:1.0;"/><text fill="#000000" font-family="Arial" font-size="13" lengthAdjust="spacing" textLength="45" x="233.5" y="272.0669">include</text></g><!--link REGISTER to SUSCRIPCI?N--><g id="link_REGISTER_SUSCRIPCI&#211;N"><path codeLine="61" d="M294.149,229.002 C314.984,251.459 341.573,280.118 365.296,305.687 " fill="none" id="REGISTER-SUSCRIPCI&#211;N" style="stroke:#181818;stroke-width:1.0;"/><text fill="#000000" font-family="Arial" font-size="13" lengthAdjust="spacing" textLength="52" x="337.5" y="272.0669">extends</text></g><!--link SUSCRIPCI?N to SERVICIO--><g id="link_SUSCRIPCI&#211;N_SERVICIO"><path codeLine="62" d="M424.5,435.215 C424.5,460.801 424.5,489.495 424.5,511.978 " fill="none" id="SUSCRIPCI&#211;N-SERVICIO" style="stroke:#181818;stroke-width:1.0;"/><text fill="#000000" font-family="Arial" font-size="13" lengthAdjust="spacing" textLength="45" x="425.5" y="478.0669">include</text></g><!--reverse link SERVICIO to COMUNICACI?N--><g id="link_SERVICIO_COMUNICACI&#211;N"><path codeLine="65" d="M351.76,576.4588 C298.487,594.0528 233.749,618.131 167.5,654 C158.82,658.699 149.995,664.11 141.441,669.748 " fill="none" id="SERVICIO-backto-COMUNICACI&#211;N" style="stroke:#181818;stroke-width:1.0;"/><polygon fill="none" points="368.852,570.814,349.8784,570.7615,353.6416,582.1561,368.852,570.814" style="stroke:#181818;stroke-width:1.0;"/></g><!--reverse link SERVICIO to ALQUILER DE INSTALACIONES--><g id="link_SERVICIO_ALQUILER DE INSTALACIONES"><path codeLine="66" d="M385.4223,607.8111 C368.7803,630.9411 358.201,645.645 340.68,669.996 " fill="none" id="SERVICIO-backto-ALQUILER DE INSTALACIONES" style="stroke:#181818;stroke-width:1.0;"/><polygon fill="none" points="395.935,593.2,380.552,604.3069,390.2927,611.3153,395.935,593.2" style="stroke:#181818;stroke-width:1.0;"/></g><!--reverse link SERVICIO to NEWSLETTER--><g id="link_SERVICIO_NEWSLETTER"><path codeLine="67" d="M463.8781,607.7689 C480.6611,630.8989 491.361,645.645 509.03,669.996 " fill="none" id="SERVICIO-backto-NEWSLETTER" style="stroke:#181818;stroke-width:1.0;"/><polygon fill="none" points="453.307,593.2,459.0218,611.2926,468.7344,604.2452,453.307,593.2" style="stroke:#181818;stroke-width:1.0;"/></g><!--reverse link SERVICIO to OFERTAS DE EMPLEO--><g id="link_SERVICIO_OFERTAS DE EMPLEO"><path codeLine="68" d="M496.8522,585.18 C541.0382,604.807 587.588,626.292 641.5,654 C647.166,656.912 652.958,659.963 658.779,663.085 " fill="none" id="SERVICIO-backto-OFERTAS DE EMPLEO" style="stroke:#181818;stroke-width:1.0;"/><polygon fill="none" points="480.402,577.873,494.4165,590.6634,499.2878,579.6966,480.402,577.873" style="stroke:#181818;stroke-width:1.0;"/></g><!--SRC=[TL9BajCm4Dtx5C8RLfa3K6oCHpEeoh63Fx3ks9sC65bAINAAAk0Kd88bnH5oCJg9lnbcf-xt-lLhTRzzuv-mHGQjt4FWdgK-W8MMRQ5-tblJwIOsobZcBMX746e_OpMuWqxv1wDz2gGIMGag26e5ph4egTQfODy3njYA7HHus1dRGl1pOEJyKHGbpwyS8iN6MZIiq_A8ria6cX7GvC3XwGyiq54gB7Z-MSGYAzXZ7fMLABCYx6LJusKjmLsZR8VMWoFlp7Mkjl9GIwCdfQ8gubniOd7wbOx6KjDkBR8-sbYacY5QdtvxqvYpu0Rsfiy-4AT3JNsN0DKw3-UMw6PDU_UlDBp7tkZfhsPJLPojgrJ4qT8hRq6guT-UmFVF4XNkg5xMims4KVAf4Wcju9upaHPbb91Qbl8Y7FK-oAsInYFLNHC5gCjGnZQeeJ4qKOy8JREfVZgY78pryWYpGLF-fKXuEL_wSZsC7-d6p13DjeNjGQ6PUSyUU5v6nTawNsyIdeMttqTLP9KAoUBWVjFH0YxReelQmbSpcyhA8Qgsz4-N_-uJ7uszmDI-F-pLQZhWTqpgMdKD3k3TtVAGY87VFEh61MCH2VptR6TgS-v2Rv9RfC-quPGcbI0Oa-z_dBik3YUyHL-_YLlcjCqNqClb_0C0]--></g></svg>