<?xml version="1.0" encoding="us-ascii" standalone="no"?><svg xmlns="http://www.w3.org/2000/svg" xmlns:xlink="http://www.w3.org/1999/xlink" contentStyleType="text/css" height="86px" preserveAspectRatio="none" style="width:469px;height:86px;background:#FFFFFF;" version="1.1" viewBox="0 0 469 86" width="469px" zoomAndPan="magnify"><defs/><g><!--entity A--><g id="elem_A"><ellipse cx="55.5" cy="14" fill="#F1F1F1" rx="8" ry="8" style="stroke:#181818;stroke-width:0.5;"/><path d="M55.5,22 L55.5,49 M42.5,30 L68.5,30 M55.5,49 L42.5,64 M55.5,49 L68.5,64 " fill="none" style="stroke:#181818;stroke-width:0.5;"/><text fill="#000000" font-family="sans-serif" font-size="14" lengthAdjust="spacing" textLength="99" x="6" y="78.4951">TimeGuardian</text></g><g id="elem_UC1"><ellipse cx="380.1379" cy="43.5276" fill="#F1F1F1" rx="83.1379" ry="19.0276" style="stroke:#181818;stroke-width:0.5;"/><text fill="#000000" font-family="sans-serif" font-size="14" lengthAdjust="spacing" textLength="126" x="316.5914" y="46.5594">AsignaturaCreada</text></g><!--link A to UC1--><g id="link_A_UC1"><path d="M105.1307,43.5 C155.808,43.5 230.127,43.5 290.707,43.5 " fill="none" id="A-to-UC1" style="stroke:#181818;stroke-width:1.0;"/><polygon fill="#181818" points="296.707,43.5,287.707,39.5,291.707,43.5,287.707,47.5,296.707,43.5" style="stroke:#181818;stroke-width:1.0;"/><text fill="#000000" font-family="sans-serif" font-size="13" lengthAdjust="spacing" textLength="94" x="154" y="39.5669">Nombre/Grado</text></g><!--link A to UC1--><g id="link_A_UC1"><path d="M105.3553,61.6048 C115.05,64.47 125.248,66.9846 135,68.5 C192.971,77.5082 208.687,74.9291 267,68.5 C286.308,66.3713 301.3124,63.603 319.7244,59.3005 " fill="none" id="A-to-UC1-1" style="stroke:#181818;stroke-width:1.0;"/><polygon fill="#181818" points="325.567,57.9352,315.8929,56.0881,320.6982,59.0729,317.7133,63.8782,325.567,57.9352" style="stroke:#181818;stroke-width:1.0;"/><text fill="#000000" font-family="sans-serif" font-size="13" lengthAdjust="spacing" textLength="130" x="136" y="64.5669">Importaci&#243;n externa</text></g><!--SRC=[LSan2W8n40NGFgSOqYzYQo64BHORApt0DndN0PEHoGIybqVmOgATtODtvwkJAvciDwSYnjb5Mq1sDOedgRmCM16qIEYKmkYSqPbYwh8s-33CnYZu_NdUXaJJjF-ATdJKUZ7UB8QYVt6e3pL7blUh4J-ThU43]--></g></svg>