<?xml version="1.0" encoding="us-ascii" standalone="no"?><svg xmlns="http://www.w3.org/2000/svg" xmlns:xlink="http://www.w3.org/1999/xlink" contentStyleType="text/css" height="210px" preserveAspectRatio="none" style="width:486px;height:210px;background:#FFFFFF;" version="1.1" viewBox="0 0 486 210" width="486px" zoomAndPan="magnify"><defs/><g><!--entity A--><g id="elem_A"><ellipse cx="214.5" cy="14" fill="#F1F1F1" rx="8" ry="8" style="stroke:#181818;stroke-width:0.5;"/><path d="M214.5,22 L214.5,49 M201.5,30 L227.5,30 M214.5,49 L201.5,64 M214.5,49 L227.5,64 " fill="none" style="stroke:#181818;stroke-width:0.5;"/><text fill="#000000" font-family="sans-serif" font-size="14" lengthAdjust="spacing" textLength="134" x="147.5" y="78.4951">Gestor de Horarios</text></g><g id="elem_UC1"><ellipse cx="108.7042" cy="181.4408" fill="#F1F1F1" rx="102.7042" ry="22.9408" style="stroke:#181818;stroke-width:0.5;"/><text fill="#000000" font-family="sans-serif" font-size="14" lengthAdjust="spacing" textLength="170" x="23.7042" y="184.2875">Asignacion de docentes</text></g><g id="elem_UC2"><ellipse cx="320.5233" cy="181.4047" fill="#F1F1F1" rx="67.5233" ry="15.9047" style="stroke:#181818;stroke-width:0.5;"/><text fill="#000000" font-family="sans-serif" font-size="14" lengthAdjust="spacing" textLength="86" x="274.5233" y="185.1522">No asignado</text></g><!--link A to UC1--><g id="link_A_UC1"><path d="M147.325,71.32 C130.72,81.341 114.985,94.536 105.5,111.5 C97.6002,125.6286 97.6457,138.1698 100.6076,152.4219 " fill="none" id="A-to-UC1" style="stroke:#181818;stroke-width:1.0;"/><polygon fill="#181818" points="101.8284,158.2964,103.9135,148.6708,100.811,153.401,96.0808,150.2986,101.8284,158.2964" style="stroke:#181818;stroke-width:1.0;"/><text fill="#000000" font-family="sans-serif" font-size="13" lengthAdjust="spacing" textLength="170" x="106.5" y="124.5669">Asigna DocenteAsignatura</text></g><!--link A to UC2--><g id="link_A_UC2"><path d="M255.369,81.815 C264.483,91.075 273.736,101.285 281.5,111.5 C294.656,128.8088 303.7921,145.6461 310.8771,160.1269 " fill="none" id="A-to-UC2" style="stroke:#181818;stroke-width:1.0;"/><polygon fill="#181818" points="313.514,165.5164,313.1516,155.6742,311.3166,161.0252,305.9656,159.1901,313.514,165.5164" style="stroke:#181818;stroke-width:1.0;"/><text fill="#000000" font-family="sans-serif" font-size="13" lengthAdjust="spacing" textLength="185" x="293.5" y="124.5669">Descarta DocenteAsignatura</text></g><!--SRC=[RSon2iCm30JGtLznUC-GZ1qAfe5awjOF4B8eNYoGdFzlZ4ExT3fqUXnnKqFSn7jcmQv6LjGZo952E5oON12JbtSbBbexoyfIcmpsUim_zzIpwZJhzLn2I9YcUtUuOGnX7GlZQeVH5oqdMiMPhFrX7m00]--></g></svg>