<svg xmlns="http://www.w3.org/2000/svg" xmlns:xlink="http://www.w3.org/1999/xlink" contentStyleType="text/css" height="212px" preserveAspectRatio="none" style="width:306px;height:212px;background:#FFFFFF;" version="1.1" viewBox="0 0 306 212" width="306px" zoomAndPan="magnify"><defs/><g><text fill="#000000" font-family="sans-serif" font-size="14" font-weight="bold" lengthAdjust="spacing" textLength="239" x="26.64" y="22.9951">Caso de Uso - Pagina Principal</text><!--cluster Pagina Principal--><g id="cluster_Pagina Principal"><rect fill="none" height="162" rx="2.5" ry="2.5" style="stroke:#181818;stroke-width:1.0;" width="198.28" x="102" y="44.2969"/><text fill="#000000" font-family="sans-serif" font-size="14" font-weight="bold" lengthAdjust="spacing" textLength="124" x="139.14" y="59.292">Pagina Principal</text></g><g id="elem_OP1"><ellipse cx="201.138" cy="171.2945" fill="#F1F1F1" rx="82.288" ry="18.8576" style="stroke:#181818;stroke-width:0.5;"/><text fill="#000000" font-family="sans-serif" font-size="14" lengthAdjust="spacing" textLength="124" x="138.3005" y="174.4207">Visualizar horarios</text></g><g id="elem_OP2"><ellipse cx="201.1379" cy="98.2945" fill="#F1F1F1" rx="83.1379" ry="19.0276" style="stroke:#181818;stroke-width:0.5;"/><text fill="#000000" font-family="sans-serif" font-size="14" lengthAdjust="spacing" textLength="126" x="137.5914" y="101.3262">Organizar horarios</text></g><!--entity cust--><g id="elem_cust"><ellipse cx="32" cy="105.6469" fill="#F1F1F1" rx="8" ry="8" style="stroke:#181818;stroke-width:0.5;"/><path d="M32,113.6469 L32,140.6469 M19,121.6469 L45,121.6469 M32,140.6469 L19,155.6469 M32,140.6469 L45,155.6469 " fill="none" style="stroke:#181818;stroke-width:0.5;"/><text fill="#000000" font-family="sans-serif" font-size="14" lengthAdjust="spacing" textLength="52" x="6" y="170.142">Usuario</text></g><!--link cust to OP1--><g id="link_cust_OP1"><path d="M58.38,140.7669 C80.03,145.4269 106.1443,151.0544 134.2543,157.1044 " fill="none" id="cust-to-OP1" style="stroke:#181818;stroke-width:1.0;"/><polygon fill="#181818" points="140.12,158.3669,132.1631,152.5628,135.2319,157.3148,130.4798,160.3837,140.12,158.3669" style="stroke:#181818;stroke-width:1.0;"/></g><!--link cust to OP2--><g id="link_cust_OP2"><path d="M58.38,129.6769 C80.03,124.8869 106.1517,119.1032 134.2617,112.8832 " fill="none" id="cust-to-OP2" style="stroke:#181818;stroke-width:1.0;"/><polygon fill="#181818" points="140.12,111.5869,130.4684,109.6258,135.2381,112.6671,132.1967,117.4368,140.12,111.5869" style="stroke:#181818;stroke-width:1.0;"/></g><!--SRC=[ROqn3i8m34Ltd-AhUmTw01OEq2omMsb8BKK9Sfm5nDr9c03XnRB- -yycbW9EN0ksW7DVCnn7oGodahtSE16bS3LOWKhS3Pjey2Ob4tihsbkDLGgumhTgH2Fc7Bju-dLDU13wj1eyrmvSfBUJt5cn5nsUEWtJwWxVuAgHypzkeIVHU8nvFhvx7yVo0W00]--></g></svg>