<?xml version="1.0" encoding="us-ascii" standalone="no"?><svg xmlns="http://www.w3.org/2000/svg" xmlns:xlink="http://www.w3.org/1999/xlink" contentStyleType="text/css" height="947px" preserveAspectRatio="none" style="width:891px;height:947px;background:#FFFFFF;" version="1.1" viewBox="0 0 891 947" width="891px" zoomAndPan="magnify"><defs/><g><text fill="#000000" font-family="sans-serif" font-size="14" font-weight="bold" lengthAdjust="spacing" textLength="501" x="184.75" y="22.9951">Caso de Uso Asignaci&#243;n de Docentes a Cursos - TimeGuardian</text><g id="INICIO"><rect fill="#FFECB3" height="50" rx="12.5" ry="12.5" style="stroke:#004D40;stroke-width:0.5;" width="63" x="411" y="44.2969"/><line style="stroke:#004D40;stroke-width:0.5;" x1="411" x2="474" y1="70.5938" y2="70.5938"/><text fill="#000000" font-family="sans-serif" font-size="14" lengthAdjust="spacing" textLength="43" x="421" y="62.292">INICIO</text></g><path d="M19.5,204.2969 L865,204.2969 A12.5,12.5 0 0 1 877.5,216.7969 L877.5,230.5938 L7,230.5938 L7,216.7969 A12.5,12.5 0 0 1 19.5,204.2969 " fill="#FFECB3" style="stroke:#FFECB3;stroke-width:1.0;"/><rect fill="none" height="515.2969" rx="12.5" ry="12.5" style="stroke:#004D40;stroke-width:0.5;" width="870.5" x="7" y="204.2969"/><line style="stroke:#004D40;stroke-width:0.5;" x1="7" x2="877.5" y1="230.5938" y2="230.5938"/><text fill="#000000" font-family="sans-serif" font-size="14" lengthAdjust="spacing" textLength="125" x="379.75" y="222.292">asignar_docentes</text><g id="asignar_docentes.A"><rect fill="#FFECB3" height="50" rx="12.5" ry="12.5" style="stroke:#004D40;stroke-width:0.5;" width="268" x="271.5" y="298.5938"/><line style="stroke:#004D40;stroke-width:0.5;" x1="271.5" x2="539.5" y1="324.8906" y2="324.8906"/><text fill="#000000" font-family="sans-serif" font-size="14" lengthAdjust="spacing" textLength="248" x="281.5" y="316.5889">Evaluar disponibilidad de docentes</text></g><g id="asignar_docentes.B"><rect fill="#FFECB3" height="50" rx="12.5" ry="12.5" style="stroke:#004D40;stroke-width:0.5;" width="259" x="19" y="449.5938"/><line style="stroke:#004D40;stroke-width:0.5;" x1="19" x2="278" y1="475.8906" y2="475.8906"/><text fill="#000000" font-family="sans-serif" font-size="14" lengthAdjust="spacing" textLength="239" x="29" y="467.5889">Seleccionar docentes para cursos</text></g><g id="asignar_docentes.C"><rect fill="#FFECB3" height="50" rx="12.5" ry="12.5" style="stroke:#004D40;stroke-width:0.5;" width="280" x="162.5" y="600.5938"/><line style="stroke:#004D40;stroke-width:0.5;" x1="162.5" x2="442.5" y1="626.8906" y2="626.8906"/><text fill="#000000" font-family="sans-serif" font-size="14" lengthAdjust="spacing" textLength="260" x="172.5" y="618.5889">Confirmar asignaciones de docentes</text></g><ellipse cx="405.5" cy="251.5938" fill="#222222" rx="10" ry="10" style="stroke:#222222;stroke-width:1.0;"/><ellipse cx="302.5" cy="698.5938" fill="none" rx="11" ry="11" style="stroke:#222222;stroke-width:1.0;"/><ellipse cx="302.5" cy="698.5938" fill="#222222" rx="6" ry="6" style="stroke:#222222;stroke-width:1.0;"/><!--link *start*asignar_docentes to A--><g id="link_*start*asignar_docentes_A"><path d="M405.5,261.7448 C405.5,271.0098 405.5,279.7348 405.5,292.3778 " fill="none" id="*start*asignar_docentes-to-A" style="stroke:#008000;stroke-width:1.0;"/><polygon fill="#008000" points="405.5,298.3778,409.5,289.3778,405.5,293.3778,401.5,289.3778,405.5,298.3778" style="stroke:#008000;stroke-width:1.0;"/></g><!--link A to B--><g id="link_A_B"><path d="M318.403,348.6598 C284.441,358.0448 253.5,366.5938 253.5,366.5938 C253.5,366.5938 207.2245,413.7513 176.2665,445.2983 " fill="none" id="A-to-B" style="stroke:#008000;stroke-width:1.0;"/><polygon fill="#008000" points="172.064,449.5808,181.2227,445.9588,175.5661,446.0121,175.5128,440.3555,172.064,449.5808" style="stroke:#008000;stroke-width:1.0;"/><path d="M258.5,371.5938 L258.5,426.5938 L472.5,426.5938 L472.5,381.5938 L462.5,371.5938 L258.5,371.5938 " fill="#B3E5FC" style="stroke:#181818;stroke-width:0.5;"/><path d="M462.5,371.5938 L462.5,381.5938 L472.5,381.5938 L462.5,371.5938 " fill="#B3E5FC" style="stroke:#181818;stroke-width:0.5;"/><text fill="#000000" font-family="sans-serif" font-size="13" font-weight="bold" lengthAdjust="spacing" textLength="166" x="264.5" y="388.6606">Administrador eval&#250;a:</text><text fill="#000000" font-family="sans-serif" font-size="13" lengthAdjust="spacing" textLength="180" x="264.5" y="403.7935">- Disponibilidad de docentes</text><text fill="#000000" font-family="sans-serif" font-size="13" lengthAdjust="spacing" textLength="193" x="264.5" y="418.9263">- Especialidades y experiencia</text></g><!--link B to C--><g id="link_B_C"><path d="M129.304,500.0258 C122.044,509.2648 115.5,517.5938 115.5,517.5938 C115.5,517.5938 115.5,582.5938 115.5,582.5938 C115.5,582.5938 147.8759,589.8648 189.7649,599.2738 " fill="none" id="B-to-C" style="stroke:#008000;stroke-width:1.0;"/><polygon fill="#008000" points="195.619,600.5888,187.7144,594.7136,190.7406,599.493,185.9612,602.5191,195.619,600.5888" style="stroke:#008000;stroke-width:1.0;"/><path d="M120.5,522.5938 L120.5,577.5938 L472.5,577.5938 L472.5,532.5938 L462.5,522.5938 L120.5,522.5938 " fill="#B3E5FC" style="stroke:#181818;stroke-width:0.5;"/><path d="M462.5,522.5938 L462.5,532.5938 L472.5,532.5938 L462.5,522.5938 " fill="#B3E5FC" style="stroke:#181818;stroke-width:0.5;"/><text fill="#000000" font-family="sans-serif" font-size="13" font-weight="bold" lengthAdjust="spacing" textLength="166" x="126.5" y="539.6606">Administrador asigna:</text><text fill="#000000" font-family="sans-serif" font-size="13" lengthAdjust="spacing" textLength="203" x="126.5" y="554.7935">- Docentes a cursos espec&#237;ficos</text><text fill="#000000" font-family="sans-serif" font-size="13" lengthAdjust="spacing" textLength="331" x="126.5" y="569.9263">- Considerando habilidades y necesidades del curso</text></g><!--link C to A--><g id="link_C_A"><path d="M402.523,600.5888 C441.723,591.1798 477.5,582.5938 477.5,582.5938 C477.5,582.5938 477.5,366.5938 477.5,366.5938 C477.5,366.5938 468.1536,361.1422 452.1486,351.8052 " fill="none" id="C-to-A" style="stroke:#FF0000;stroke-width:1.0;"/><polygon fill="#FF0000" points="446.966,348.7818,452.7242,356.7719,451.2848,351.3013,456.7555,349.8618,446.966,348.7818" style="stroke:#FF0000;stroke-width:1.0;"/><path d="M482.5,462.0938 L482.5,487.0938 L868.5,487.0938 L868.5,472.0938 L858.5,462.0938 L482.5,462.0938 " fill="#B3E5FC" style="stroke:#181818;stroke-width:0.5;"/><path d="M858.5,462.0938 L858.5,472.0938 L868.5,472.0938 L858.5,462.0938 " fill="#B3E5FC" style="stroke:#181818;stroke-width:0.5;"/><text fill="#000000" font-family="sans-serif" font-size="13" lengthAdjust="spacing" textLength="365" x="488.5" y="479.1606">[incompatibilidad de horarios o asignaciones no &#243;ptimas]</text></g><!--link C to *end*asignar_docentes--><g id="link_C_*end*asignar_docentes"><path d="M302.5,650.6311 C302.5,663.1829 302.5,671.8762 302.5,681.44 " fill="none" id="C-to-*end*asignar_docentes" style="stroke:#008000;stroke-width:1.0;"/><polygon fill="#008000" points="302.5,687.44,306.5,678.44,302.5,682.44,298.5,678.44,302.5,687.44" style="stroke:#008000;stroke-width:1.0;"/></g><g id=":mostrarAsignacionesFinalizadas"><rect fill="#FFECB3" height="50" rx="12.5" ry="12.5" style="stroke:#004D40;stroke-width:0.5;" width="252" x="316.5" y="780.2969"/><line style="stroke:#004D40;stroke-width:0.5;" x1="316.5" x2="568.5" y1="806.5938" y2="806.5938"/><text fill="#000000" font-family="sans-serif" font-size="14" lengthAdjust="spacing" textLength="232" x="326.5" y="798.292">:mostrarAsignacionesFinalizadas</text></g><g id="ASIGNACIONES_FINALIZADAS"><rect fill="#FFECB3" height="50" rx="12.5" ry="12.5" style="stroke:#004D40;stroke-width:0.5;" width="228" x="328.5" y="891.2969"/><line style="stroke:#004D40;stroke-width:0.5;" x1="328.5" x2="556.5" y1="917.5938" y2="917.5938"/><text fill="#000000" font-family="sans-serif" font-size="14" lengthAdjust="spacing" textLength="208" x="338.5" y="909.292">ASIGNACIONES_FINALIZADAS</text></g><!--link INICIO to asignar_docentes--><g id="link_INICIO_asignar_docentes"><path d="M442.5,94.4299 C442.5,118.7069 442.5,152.9299 442.5,198.0299 " fill="none" id="INICIO-to-asignar_docentes" style="stroke:#008000;stroke-width:1.0;"/><polygon fill="#008000" points="442.5,204.0299,446.5,195.0299,442.5,199.0299,438.5,195.0299,442.5,204.0299" style="stroke:#008000;stroke-width:1.0;"/><path d="M447.5,129.2969 L447.5,169.2969 L779.5,169.2969 L779.5,139.2969 L769.5,129.2969 L447.5,129.2969 " fill="#B3E5FC" style="stroke:#181818;stroke-width:0.5;"/><path d="M769.5,129.2969 L769.5,139.2969 L779.5,139.2969 L769.5,129.2969 " fill="#B3E5FC" style="stroke:#181818;stroke-width:0.5;"/><text fill="#000000" font-family="sans-serif" font-size="13" font-weight="bold" lengthAdjust="spacing" textLength="311" x="453.5" y="146.3638">Administrador de departamento solicita:</text><text fill="#000000" font-family="sans-serif" font-size="13" lengthAdjust="spacing" textLength="200" x="453.5" y="161.4966">- Asignar docentes a los cursos</text></g><!--link asignar_docentes to :mostrarAsignacionesFinalizadas--><g id="link_asignar_docentes_:mostrarAsignacionesFinalizadas"><path d="M442.5,719.4419 C442.5,743.8129 442.5,759.0259 442.5,774.1469 " fill="none" id="asignar_docentes-to-:mostrarAsignacionesFinalizadas" style="stroke:#008000;stroke-width:1.0;"/><polygon fill="#008000" points="442.5,780.1469,446.5,771.1469,442.5,775.1469,438.5,771.1469,442.5,780.1469" style="stroke:#008000;stroke-width:1.0;"/></g><!--link :mostrarAsignacionesFinalizadas to ASIGNACIONES_FINALIZADAS--><g id="link_:mostrarAsignacionesFinalizadas_ASIGNACIONES_FINALIZADAS"><path d="M442.5,830.4879 C442.5,848.5507 442.5,867.127 442.5,885.1739 " fill="none" id=":mostrarAsignacionesFinalizadas-to-ASIGNACIONES_FINALIZADAS" style="stroke:#008000;stroke-width:1.0;"/><polygon fill="#008000" points="442.5,891.1739,446.5,882.1739,442.5,886.1739,438.5,882.1739,442.5,891.1739" style="stroke:#008000;stroke-width:1.0;"/></g><!--SRC=[XPFFQjj04CRl-nHBSZC834alEHGKsGc2uXxSNcfC6E-Eay7IZjXTbxgbZzHJRhtwnJehotza9rG8X5RVpFVRJxDXHQu13xKE4IBgNqhhUp2hPyzhPmkksElhvHBDuYPzOM_HTwl3uQsz7QhVIeL34yVlzLZSu8UbwQihSXWt3Ug6gqrwKIfIh50N45XRr5_baGTwTc1e- -hIqeWDkeX1WoxMFd3GcVv2DJwkmLi2frGvAOloiyvcryyUqSspZnhQ7lx9xejL2yek8Qm4Tp38RKsEGlHW1LUCB0faX5eAM0Uko524ky50r5a79ReZJIKefYLIw6oRXEor3VN2FYMq-tGr_WxLEdMYqB2Z1LLamRO0dVfAwdL-h9XYXSOGz_nJe9rzgxy_wWjsI_ArgA6BafrKd3iKKY7tR33lHPUCyzvAQdqMNxhE8qJPsFPlbrYwCZrwTuy7oJWqQ0XQWK1kDFveq1CwMHJH8LcPi1vKyHRKET9k_tkYx7IMTj5fJFRRFqio73gHn1T8fXwSPVq27NpBvj1WwDuiLhicVSeYKNgq-oWl66Va3DSDnDDONjY39-7X_ZzphBUlJQGQmlmDdqCQyXFJIRkOkrFDNSqf5v-V63oGa-X_WeMWr7y4_IcPbe-JN8xTP3nzUYWd-QVoMpxAf_y0]--></g></svg>