<svg xmlns="http://www.w3.org/2000/svg" xmlns:xlink="http://www.w3.org/1999/xlink" contentStyleType="text/css" height="857px" preserveAspectRatio="none" style="width:493px;height:857px;background:#FFFFFF;" version="1.1" viewBox="0 0 493 857" width="493px" zoomAndPan="magnify"><defs/><g><text fill="#000000" font-family="sans-serif" font-size="14" font-weight="bold" lengthAdjust="spacing" textLength="370" x="51.25" y="22.9951">Caso de Uso Confirmar Horario - TimeGuardian</text><g id="CONFIGURAR_HORARIO"><rect fill="#FAF4B4" height="50" rx="12.5" ry="12.5" style="stroke:#C90000;stroke-width:0.5;" width="183" x="151.75" y="44.2969"/><line style="stroke:#C90000;stroke-width:0.5;" x1="151.75" x2="334.75" y1="70.5938" y2="70.5938"/><text fill="#000000" font-family="sans-serif" font-size="14" lengthAdjust="spacing" textLength="163" x="161.75" y="62.292">CONFIGURAR_HORARIO</text></g><path d="M19.5,204.2969 L467,204.2969 A12.5,12.5 0 0 1 479.5,216.7969 L479.5,230.5938 L7,230.5938 L7,216.7969 A12.5,12.5 0 0 1 19.5,204.2969 " fill="#FAF4B4" style="stroke:#FAF4B4;stroke-width:1.0;"/><rect fill="none" height="537.4297" rx="12.5" ry="12.5" style="stroke:#C90000;stroke-width:0.5;" width="472.5" x="7" y="204.2969"/><line style="stroke:#C90000;stroke-width:0.5;" x1="7" x2="479.5" y1="230.5938" y2="230.5938"/><text fill="#000000" font-family="sans-serif" font-size="14" lengthAdjust="spacing" textLength="115" x="185.75" y="222.292">ConfirmarHorario</text><g id="ConfirmarHorario.Revisar"><rect fill="#FAF4B4" height="50" rx="12.5" ry="12.5" style="stroke:#C90000;stroke-width:0.5;" width="191" x="19" y="347.5938"/><line style="stroke:#C90000;stroke-width:0.5;" x1="19" x2="210" y1="373.8906" y2="373.8906"/><text fill="#000000" font-family="sans-serif" font-size="14" lengthAdjust="spacing" textLength="171" x="29" y="365.5889">Revisar Horario Asignado</text></g><g id="ConfirmarHorario.Validar"><rect fill="#FAF4B4" height="50" rx="12.5" ry="12.5" style="stroke:#C90000;stroke-width:0.5;" width="149" x="40" y="483.5938"/><line style="stroke:#C90000;stroke-width:0.5;" x1="40" x2="189" y1="509.8906" y2="509.8906"/><text fill="#000000" font-family="sans-serif" font-size="14" lengthAdjust="spacing" textLength="129" x="50" y="501.5889">Validar Informaci&#243;n</text></g><g id="ConfirmarHorario.Confirmar"><rect fill="#FAF4B4" height="50" rx="12.5" ry="12.5" style="stroke:#C90000;stroke-width:0.5;" width="145" x="42" y="619.5938"/><line style="stroke:#C90000;stroke-width:0.5;" x1="42" x2="187" y1="645.8906" y2="645.8906"/><text fill="#000000" font-family="sans-serif" font-size="14" lengthAdjust="spacing" textLength="125" x="52" y="637.5889">Confirmaci&#243;n Final</text></g><ellipse cx="114.5" cy="251.5938" fill="#222222" rx="10" ry="10" style="stroke:#222222;stroke-width:1.0;"/><ellipse cx="114.5" cy="718.1538" fill="none" rx="11" ry="11" style="stroke:#222222;stroke-width:1.0;"/><ellipse cx="114.5" cy="718.1538" fill="#222222" rx="6" ry="6" style="stroke:#222222;stroke-width:1.0;"/><g id="elem_GMN14"><path d="M144,705.5938 L144,714.1538 L125.87,718.1538 L144,722.1538 L144,730.7266 A0,0 0 0 0 144,730.7266 L363,730.7266 A0,0 0 0 0 363,730.7266 L363,715.5938 L353,705.5938 L144,705.5938 A0,0 0 0 0 144,705.5938 " fill="#F5F5F5" style="stroke:#181818;stroke-width:0.5;"/><path d="M353,705.5938 L353,715.5938 L363,715.5938 L353,705.5938 " fill="#F5F5F5" style="stroke:#181818;stroke-width:0.5;"/><text fill="#000000" font-family="sans-serif" font-size="13" lengthAdjust="spacing" textLength="198" x="150" y="722.6606">Horario confirmado y operativo</text></g><!--link *start*ConfirmarHorario to Revisar--><g id="link_*start*ConfirmarHorario_Revisar"><path d="M114.5,261.9238 C114.5,280.1238 114.5,314.8338 114.5,341.2038 " fill="none" id="*start*ConfirmarHorario-to-Revisar" style="stroke:#008000;stroke-width:1.0;"/><polygon fill="#008000" points="114.5,347.2038,118.5,338.2038,114.5,342.2038,110.5,338.2038,114.5,347.2038" style="stroke:#008000;stroke-width:1.0;"/><path d="M119.5,284.5938 L119.5,324.5938 L406.5,324.5938 L406.5,294.5938 L396.5,284.5938 L119.5,284.5938 " fill="#F5F5F5" style="stroke:#181818;stroke-width:0.5;"/><path d="M396.5,284.5938 L396.5,294.5938 L406.5,294.5938 L396.5,284.5938 " fill="#F5F5F5" style="stroke:#181818;stroke-width:0.5;"/><text fill="#000000" font-family="sans-serif" font-size="13" font-weight="bold" lengthAdjust="spacing" textLength="109" x="125.5" y="301.6606">Usuario revisa:</text><text fill="#000000" font-family="sans-serif" font-size="13" lengthAdjust="spacing" textLength="266" x="125.5" y="316.7935">- Detalles completos del horario asignado</text></g><!--link Revisar to Validar--><g id="link_Revisar_Validar"><path d="M114.5,397.8538 C114.5,422.1438 114.5,453.2838 114.5,477.5037 " fill="none" id="Revisar-to-Validar" style="stroke:#008000;stroke-width:1.0;"/><polygon fill="#008000" points="114.5,483.5037,118.5,474.5037,114.5,478.5037,110.5,474.5037,114.5,483.5037" style="stroke:#008000;stroke-width:1.0;"/><path d="M119.5,420.5938 L119.5,460.5938 L470.5,460.5938 L470.5,430.5938 L460.5,420.5938 L119.5,420.5938 " fill="#F5F5F5" style="stroke:#181818;stroke-width:0.5;"/><path d="M460.5,420.5938 L460.5,430.5938 L470.5,430.5938 L460.5,420.5938 " fill="#F5F5F5" style="stroke:#181818;stroke-width:0.5;"/><text fill="#000000" font-family="sans-serif" font-size="13" font-weight="bold" lengthAdjust="spacing" textLength="113" x="125.5" y="437.6606">Sistema valida:</text><text fill="#000000" font-family="sans-serif" font-size="13" lengthAdjust="spacing" textLength="330" x="125.5" y="452.7935">- Consistencia y ausencia de conflictos en el horario</text></g><!--link Validar to Confirmar--><g id="link_Validar_Confirmar"><path d="M114.5,533.8538 C114.5,558.1438 114.5,589.2838 114.5,613.5038 " fill="none" id="Validar-to-Confirmar" style="stroke:#008000;stroke-width:1.0;"/><polygon fill="#008000" points="114.5,619.5038,118.5,610.5038,114.5,614.5038,110.5,610.5038,114.5,619.5038" style="stroke:#008000;stroke-width:1.0;"/><path d="M119.5,556.5938 L119.5,596.5938 L335.5,596.5938 L335.5,566.5938 L325.5,556.5938 L119.5,556.5938 " fill="#F5F5F5" style="stroke:#181818;stroke-width:0.5;"/><path d="M325.5,556.5938 L325.5,566.5938 L335.5,566.5938 L325.5,556.5938 " fill="#F5F5F5" style="stroke:#181818;stroke-width:0.5;"/><text fill="#000000" font-family="sans-serif" font-size="13" font-weight="bold" lengthAdjust="spacing" textLength="114" x="125.5" y="573.6606">Usuario realiza:</text><text fill="#000000" font-family="sans-serif" font-size="13" lengthAdjust="spacing" textLength="195" x="125.5" y="588.7935">- Confirmaci&#243;n final del horario</text></g><!--link Confirmar to *end*ConfirmarHorario--><g id="link_Confirmar_*end*ConfirmarHorario"><path d="M114.5,669.8238 C114.5,682.4738 114.5,691.2838 114.5,700.9237 " fill="none" id="Confirmar-to-*end*ConfirmarHorario" style="stroke:#008000;stroke-width:1.0;"/><polygon fill="#008000" points="114.5,706.9237,118.5,697.9237,114.5,701.9237,110.5,697.9237,114.5,706.9237" style="stroke:#008000;stroke-width:1.0;"/></g><g id="HORARIO_FINALIZADO"><rect fill="#FAF4B4" height="50" rx="12.5" ry="12.5" style="stroke:#C90000;stroke-width:0.5;" width="172" x="157.25" y="801.7269"/><line style="stroke:#C90000;stroke-width:0.5;" x1="157.25" x2="329.25" y1="828.0238" y2="828.0238"/><text fill="#000000" font-family="sans-serif" font-size="14" lengthAdjust="spacing" textLength="152" x="167.25" y="819.722">HORARIO_FINALIZADO</text></g><!--link CONFIGURAR_HORARIO to ConfirmarHorario--><g id="link_CONFIGURAR_HORARIO_ConfirmarHorario"><path d="M243.25,94.5169 C243.25,118.7769 243.25,152.9369 243.25,198.2069 " fill="none" id="CONFIGURAR_HORARIO-to-ConfirmarHorario" style="stroke:#008000;stroke-width:1.0;"/><polygon fill="#008000" points="243.25,204.2069,247.25,195.2069,243.25,199.2069,239.25,195.2069,243.25,204.2069" style="stroke:#008000;stroke-width:1.0;"/><path d="M248.25,129.2969 L248.25,169.2969 L467.25,169.2969 L467.25,139.2969 L457.25,129.2969 L248.25,129.2969 " fill="#F5F5F5" style="stroke:#181818;stroke-width:0.5;"/><path d="M457.25,129.2969 L457.25,139.2969 L467.25,139.2969 L457.25,129.2969 " fill="#F5F5F5" style="stroke:#181818;stroke-width:0.5;"/><text fill="#000000" font-family="sans-serif" font-size="13" font-weight="bold" lengthAdjust="spacing" textLength="142" x="254.25" y="146.3638">Usuario selecciona:</text><text fill="#000000" font-family="sans-serif" font-size="13" lengthAdjust="spacing" textLength="198" x="254.25" y="161.4966">- Confirmar el horario asignado</text></g><!--link ConfirmarHorario to HORARIO_FINALIZADO--><g id="link_ConfirmarHorario_HORARIO_FINALIZADO"><path d="M243.25,741.9269 C243.25,765.7369 243.25,780.4069 243.25,795.2669 " fill="none" id="ConfirmarHorario-to-HORARIO_FINALIZADO" style="stroke:#008000;stroke-width:1.0;"/><polygon fill="#008000" points="243.25,801.2669,247.25,792.2669,243.25,796.2669,239.25,792.2669,243.25,801.2669" style="stroke:#008000;stroke-width:1.0;"/></g><!--SRC=[XLDDQzj04BtlhnYIcy3GGt9e3WNNmOaWnE3MFJI4C5sDdCMh7R6xDhYblwe_eN-iexLihLANMaPVy_QzUMz7OMDSYnuR214ZmGy5y17rPkrvwwePM_PmMMDzzUsggx2loFTlzVjtybC_bGed4iV_vBZkZZ7Q6aTntnAqRFVTWrBHH4immy1G4QpaCcDN6z-WXtlsw0t313wRXkwsw2k3JgdPud5UtgsMq-NB_KBEvMBoTBdsHEvvyc5OtozNgKTsdVf6EYsALTWcta2Mj3RiyAOef3B9jCd2Qo-FmQmTLgp8LScmM4hPlLLAGHnA5qlQcP1vcFOa5q87VN50Vq5hAa6NhcOXrERtBvUGVM507ZKJ1ER6eKt0Koy2bVzJyGnvA8FYcpJoF7m27RBeqhYbYDPI0CrDQoboa3qwaml0AHauAetK1nTdr3-P4Ab1s2NGe2wEGbTosY3i0RVXS2jZeiMiDRfhY5osLUDEZg6U7Ox_9I5hlu-RoMAlkzZpBCR2mnJbqh8bHr5lrg_nvZGRkiTNB3wv9O_HxBZxTFwQi9omd_sNUVauVIY_JcyNVm00]--></g></svg>