<?xml version="1.0" encoding="us-ascii" standalone="no"?><svg xmlns="http://www.w3.org/2000/svg" xmlns:xlink="http://www.w3.org/1999/xlink" contentStyleType="text/css" height="1087px" preserveAspectRatio="none" style="width:521px;height:1087px;background:#FFFFFF;" version="1.1" viewBox="0 0 521 1087" width="521px" zoomAndPan="magnify"><defs/><g><text fill="#000000" font-family="sans-serif" font-size="14" font-weight="bold" lengthAdjust="spacing" textLength="413" x="47" y="22.9951">Caso de Uso Selecci&#243;n de Docentes - TimeGuardian</text><g id="INICIO"><rect fill="#FFF59D" height="50" rx="12.5" ry="12.5" style="stroke:#F57F17;stroke-width:0.5;" width="63" x="204.5" y="44.2969"/><line style="stroke:#F57F17;stroke-width:0.5;" x1="204.5" x2="267.5" y1="70.5938" y2="70.5938"/><text fill="#000000" font-family="sans-serif" font-size="14" lengthAdjust="spacing" textLength="43" x="214.5" y="62.292">INICIO</text></g><path d="M19.5,204.2969 L452,204.2969 A12.5,12.5 0 0 1 464.5,216.7969 L464.5,230.5938 L7,230.5938 L7,216.7969 A12.5,12.5 0 0 1 19.5,204.2969 " fill="#FFF59D" style="stroke:#FFF59D;stroke-width:1.0;"/><rect fill="none" height="655.2969" rx="12.5" ry="12.5" style="stroke:#F57F17;stroke-width:0.5;" width="457.5" x="7" y="204.2969"/><line style="stroke:#F57F17;stroke-width:0.5;" x1="7" x2="464.5" y1="230.5938" y2="230.5938"/><text fill="#000000" font-family="sans-serif" font-size="14" lengthAdjust="spacing" textLength="187" x="142.25" y="222.292">selecci&#243;n_para_asignatura</text><g id="selecci&#243;n_para_asignatura.A"><rect fill="#FFF59D" height="50" rx="12.5" ry="12.5" style="stroke:#F57F17;stroke-width:0.5;" width="265" x="19" y="298.5938"/><line style="stroke:#F57F17;stroke-width:0.5;" x1="19" x2="284" y1="324.8906" y2="324.8906"/><text fill="#000000" font-family="sans-serif" font-size="14" lengthAdjust="spacing" textLength="245" x="29" y="316.5889">Identificar asignaturas disponibles</text></g><g id="selecci&#243;n_para_asignatura.B"><rect fill="#FFF59D" height="50" rx="12.5" ry="12.5" style="stroke:#F57F17;stroke-width:0.5;" width="201" x="51" y="434.5938"/><line style="stroke:#F57F17;stroke-width:0.5;" x1="51" x2="252" y1="460.8906" y2="460.8906"/><text fill="#000000" font-family="sans-serif" font-size="14" lengthAdjust="spacing" textLength="181" x="61" y="452.5889">Evaluar perfiles docentes</text></g><g id="selecci&#243;n_para_asignatura.C"><rect fill="#FFF59D" height="50" rx="12.5" ry="12.5" style="stroke:#F57F17;stroke-width:0.5;" width="241" x="31" y="570.5938"/><line style="stroke:#F57F17;stroke-width:0.5;" x1="31" x2="272" y1="596.8906" y2="596.8906"/><text fill="#000000" font-family="sans-serif" font-size="14" lengthAdjust="spacing" textLength="221" x="41" y="588.5889">Asignar docentes a asignaturas</text></g><g id="selecci&#243;n_para_asignatura.D"><rect fill="#FFF59D" height="50" rx="12.5" ry="12.5" style="stroke:#F57F17;stroke-width:0.5;" width="187" x="58" y="706.5938"/><line style="stroke:#F57F17;stroke-width:0.5;" x1="58" x2="245" y1="732.8906" y2="732.8906"/><text fill="#000000" font-family="sans-serif" font-size="14" lengthAdjust="spacing" textLength="167" x="68" y="724.5889">Confirmar asignaciones</text></g><ellipse cx="151.5" cy="251.5938" fill="#222222" rx="10" ry="10" style="stroke:#222222;stroke-width:1.0;"/><ellipse cx="151.5" cy="838.5938" fill="none" rx="11" ry="11" style="stroke:#222222;stroke-width:1.0;"/><ellipse cx="151.5" cy="838.5938" fill="#222222" rx="6" ry="6" style="stroke:#222222;stroke-width:1.0;"/><!--link *start*selecci?n_para_asignatura to A--><g id="link_*start*selecci&#243;n_para_asignatura_A"><path d="M151.5,261.7447 C151.5,271.0098 151.5,279.7347 151.5,292.3778 " fill="none" id="*start*selecci&#243;n_para_asignatura-to-A" style="stroke:#FFA500;stroke-width:1.0;"/><polygon fill="#FFA500" points="151.5,298.3778,155.5,289.3778,151.5,293.3778,147.5,289.3778,151.5,298.3778" style="stroke:#FFA500;stroke-width:1.0;"/></g><!--link A to B--><g id="link_A_B"><path d="M151.5,348.8598 C151.5,373.1458 151.5,404.2868 151.5,428.5078 " fill="none" id="A-to-B" style="stroke:#FFA500;stroke-width:1.0;"/><polygon fill="#FFA500" points="151.5,434.5078,155.5,425.5078,151.5,429.5078,147.5,425.5078,151.5,434.5078" style="stroke:#FFA500;stroke-width:1.0;"/><path d="M156.5,371.5938 L156.5,411.5938 L418.5,411.5938 L418.5,381.5938 L408.5,371.5938 L156.5,371.5938 " fill="#B2DFDB" style="stroke:#181818;stroke-width:0.5;"/><path d="M408.5,371.5938 L408.5,381.5938 L418.5,381.5938 L408.5,371.5938 " fill="#B2DFDB" style="stroke:#181818;stroke-width:0.5;"/><text fill="#000000" font-family="sans-serif" font-size="13" font-weight="bold" lengthAdjust="spacing" textLength="189" x="162.5" y="388.6606">Administrador identifica:</text><text fill="#000000" font-family="sans-serif" font-size="13" lengthAdjust="spacing" textLength="241" x="162.5" y="403.7935">- Asignaturas que requieren docentes</text></g><!--link B to C--><g id="link_B_C"><path d="M151.5,484.8598 C151.5,509.1458 151.5,540.2868 151.5,564.5078 " fill="none" id="B-to-C" style="stroke:#FFA500;stroke-width:1.0;"/><polygon fill="#FFA500" points="151.5,570.5078,155.5,561.5078,151.5,565.5078,147.5,561.5078,151.5,570.5078" style="stroke:#FFA500;stroke-width:1.0;"/><path d="M156.5,507.5938 L156.5,547.5938 L455.5,547.5938 L455.5,517.5938 L445.5,507.5938 L156.5,507.5938 " fill="#B2DFDB" style="stroke:#181818;stroke-width:0.5;"/><path d="M445.5,507.5938 L445.5,517.5938 L455.5,517.5938 L445.5,507.5938 " fill="#B2DFDB" style="stroke:#181818;stroke-width:0.5;"/><text fill="#000000" font-family="sans-serif" font-size="13" font-weight="bold" lengthAdjust="spacing" textLength="166" x="162.5" y="524.6606">Administrador eval&#250;a:</text><text fill="#000000" font-family="sans-serif" font-size="13" lengthAdjust="spacing" textLength="278" x="162.5" y="539.7935">- Experiencia y especializaci&#243;n de docentes</text></g><!--link C to D--><g id="link_C_D"><path d="M151.5,620.8598 C151.5,645.1458 151.5,676.2868 151.5,700.5078 " fill="none" id="C-to-D" style="stroke:#FFA500;stroke-width:1.0;"/><polygon fill="#FFA500" points="151.5,706.5078,155.5,697.5078,151.5,701.5078,147.5,697.5078,151.5,706.5078" style="stroke:#FFA500;stroke-width:1.0;"/><path d="M156.5,643.5938 L156.5,683.5938 L413.5,683.5938 L413.5,653.5938 L403.5,643.5938 L156.5,643.5938 " fill="#B2DFDB" style="stroke:#181818;stroke-width:0.5;"/><path d="M403.5,643.5938 L403.5,653.5938 L413.5,653.5938 L403.5,643.5938 " fill="#B2DFDB" style="stroke:#181818;stroke-width:0.5;"/><text fill="#000000" font-family="sans-serif" font-size="13" font-weight="bold" lengthAdjust="spacing" textLength="166" x="162.5" y="660.6606">Administrador asigna:</text><text fill="#000000" font-family="sans-serif" font-size="13" lengthAdjust="spacing" textLength="236" x="162.5" y="675.7935">- Docentes a asignaturas espec&#237;ficas</text></g><!--link D to *end*selecci?n_para_asignatura--><g id="link_D_*end*selecci&#243;n_para_asignatura"><path d="M151.5,756.6829 C151.5,779.085 151.5,805.3633 151.5,821.5445 " fill="none" id="D-to-*end*selecci&#243;n_para_asignatura" style="stroke:#008000;stroke-width:1.0;"/><polygon fill="#008000" points="151.5,827.5445,155.5,818.5445,151.5,822.5445,147.5,818.5445,151.5,827.5445" style="stroke:#008000;stroke-width:1.0;"/><path d="M156.5,779.5938 L156.5,804.5938 L357.5,804.5938 L357.5,789.5938 L347.5,779.5938 L156.5,779.5938 " fill="#B2DFDB" style="stroke:#181818;stroke-width:0.5;"/><path d="M347.5,779.5938 L347.5,789.5938 L357.5,789.5938 L347.5,779.5938 " fill="#B2DFDB" style="stroke:#181818;stroke-width:0.5;"/><text fill="#000000" font-family="sans-serif" font-size="13" lengthAdjust="spacing" textLength="180" x="162.5" y="796.6606">[asignaciones completadas]</text></g><g id=":mostrarAsignacionesFinalizadas"><rect fill="#FFF59D" height="50" rx="12.5" ry="12.5" style="stroke:#F57F17;stroke-width:0.5;" width="252" x="110" y="920.2969"/><line style="stroke:#F57F17;stroke-width:0.5;" x1="110" x2="362" y1="946.5938" y2="946.5938"/><text fill="#000000" font-family="sans-serif" font-size="14" lengthAdjust="spacing" textLength="232" x="120" y="938.292">:mostrarAsignacionesFinalizadas</text></g><g id="ASIGNACIONES_COMPLETADAS"><rect fill="#FFF59D" height="50" rx="12.5" ry="12.5" style="stroke:#F57F17;stroke-width:0.5;" width="242" x="115" y="1031.2969"/><line style="stroke:#F57F17;stroke-width:0.5;" x1="115" x2="357" y1="1057.5938" y2="1057.5938"/><text fill="#000000" font-family="sans-serif" font-size="14" lengthAdjust="spacing" textLength="222" x="125" y="1049.292">ASIGNACIONES_COMPLETADAS</text></g><!--link INICIO to selecci?n_para_asignatura--><g id="link_INICIO_selecci&#243;n_para_asignatura"><path d="M236,94.4069 C236,118.3729 236,152.1319 236,198.1629 " fill="none" id="INICIO-to-selecci&#243;n_para_asignatura" style="stroke:#FFA500;stroke-width:1.0;"/><polygon fill="#FFA500" points="236,204.1629,240,195.1629,236,199.1629,232,195.1629,236,204.1629" style="stroke:#FFA500;stroke-width:1.0;"/><path d="M241,129.2969 L241,169.2969 L514,169.2969 L514,139.2969 L504,129.2969 L241,129.2969 " fill="#B2DFDB" style="stroke:#181818;stroke-width:0.5;"/><path d="M504,129.2969 L504,139.2969 L514,139.2969 L504,129.2969 " fill="#B2DFDB" style="stroke:#181818;stroke-width:0.5;"/><text fill="#000000" font-family="sans-serif" font-size="13" font-weight="bold" lengthAdjust="spacing" textLength="241" x="247" y="146.3638">Administrador acad&#233;mico inicia:</text><text fill="#000000" font-family="sans-serif" font-size="13" lengthAdjust="spacing" textLength="252" x="247" y="161.4966">- Asignaci&#243;n de docentes a asignaturas</text></g><!--link selecci?n_para_asignatura to :mostrarAsignacionesFinalizadas--><g id="link_selecci&#243;n_para_asignatura_:mostrarAsignacionesFinalizadas"><path d="M236,859.5329 C236,884.1789 236,899.2329 236,914.1929 " fill="none" id="selecci&#243;n_para_asignatura-to-:mostrarAsignacionesFinalizadas" style="stroke:#FFA500;stroke-width:1.0;"/><polygon fill="#FFA500" points="236,920.1929,240,911.1929,236,915.1929,232,911.1929,236,920.1929" style="stroke:#FFA500;stroke-width:1.0;"/></g><!--link :mostrarAsignacionesFinalizadas to ASIGNACIONES_COMPLETADAS--><g id="link_:mostrarAsignacionesFinalizadas_ASIGNACIONES_COMPLETADAS"><path d="M236,970.4879 C236,988.5507 236,1007.127 236,1025.1739 " fill="none" id=":mostrarAsignacionesFinalizadas-to-ASIGNACIONES_COMPLETADAS" style="stroke:#FFA500;stroke-width:1.0;"/><polygon fill="#FFA500" points="236,1031.1739,240,1022.1739,236,1026.1739,232,1022.1739,236,1031.1739" style="stroke:#FFA500;stroke-width:1.0;"/></g><!--SRC=[ZLF1Yjim4BthAuRTcy675fQbUoXuxNGnjDb2jgSGWcADmn1RyafsQLhwGJtqr5kl-R6Ex8qTkmcjCDYMdjvxyqPoEzALjB84LyiQuPi0k9VPRcjDerLi2cFXEi_pcpVAhnYhq1vdRsxpLxVYkn2k9z7c4iVcjShLPemkI6Ezhn0gK-pzZn0rrGL2B9q1XV29NmiiCCley4lxcSHag6jq4C8JbVZGIAj8QY7IUHgdZn0khusLUekhy2suVklQ2wwbewsMTMEbQ8qQxItis6uGHAeaJQwsKh5TcKbr-55IPe1dCv9tGS2m4AAMehUZZdOa3EHEe5Pj55nic-fb8srO7UWgLSn5EMNIdhA18bSPJPi2tHKlG3HicNsM1KS05TgSUBqtr0Bl1s3dsrumtABZ0HqRdPCjUnyP6Vt2cJ2AdsMm6cVjJKNZAIy_oTcFQTRKbzs5xCSnw2w0vmR1udD3Q57t9J2qpvaFt5WxFgSzLKPEx_2xbmrXzeM39DJSSDW3kWhvgw2lVpTyB1wFnPF_4U-I7RIJivtfJ1n- -dWceeaNtLf4xJMv8UTKbwSDXCoKLO6rLDAjJidyhRnyH4UrtPN6Ls2Z4zvtfDkKc5Q8Vm0cfsQHFimZlhZpsM8TFtxu-7xs52NHuWy0]--></g></svg>