<?xml version="1.0" encoding="us-ascii" standalone="no"?><svg xmlns="http://www.w3.org/2000/svg" xmlns:xlink="http://www.w3.org/1999/xlink" contentStyleType="text/css" height="1087px" preserveAspectRatio="none" style="width:552px;height:1087px;background:#FFFFFF;" version="1.1" viewBox="0 0 552 1087" width="552px" zoomAndPan="magnify"><defs/><g><text fill="#000000" font-family="sans-serif" font-size="14" font-weight="bold" lengthAdjust="spacing" textLength="524" x="10" y="22.9951">Caso de Uso Programaci&#243;n de Turnos de Trabajo - TimeGuardian</text><g id="INICIO"><rect fill="#B3E5FC" height="50" rx="12.5" ry="12.5" style="stroke:#01579B;stroke-width:0.5;" width="63" x="241.25" y="44.2969"/><line style="stroke:#01579B;stroke-width:0.5;" x1="241.25" x2="304.25" y1="70.5938" y2="70.5938"/><text fill="#000000" font-family="sans-serif" font-size="14" lengthAdjust="spacing" textLength="43" x="251.25" y="62.292">INICIO</text></g><path d="M46.75,204.2969 L499.25,204.2969 A12.5,12.5 0 0 1 511.75,216.7969 L511.75,230.5938 L34.25,230.5938 L34.25,216.7969 A12.5,12.5 0 0 1 46.75,204.2969 " fill="#B3E5FC" style="stroke:#B3E5FC;stroke-width:1.0;"/><rect fill="none" height="655.2969" rx="12.5" ry="12.5" style="stroke:#01579B;stroke-width:0.5;" width="477.5" x="34.25" y="204.2969"/><line style="stroke:#01579B;stroke-width:0.5;" x1="34.25" x2="511.75" y1="230.5938" y2="230.5938"/><text fill="#000000" font-family="sans-serif" font-size="14" lengthAdjust="spacing" textLength="129" x="208.5" y="222.292">programar_turnos</text><g id="programar_turnos.A"><rect fill="#B3E5FC" height="50" rx="12.5" ry="12.5" style="stroke:#01579B;stroke-width:0.5;" width="252" x="68.75" y="298.5938"/><line style="stroke:#01579B;stroke-width:0.5;" x1="68.75" x2="320.75" y1="324.8906" y2="324.8906"/><text fill="#000000" font-family="sans-serif" font-size="14" lengthAdjust="spacing" textLength="232" x="78.75" y="316.5889">Revisar necesidades de personal</text></g><g id="programar_turnos.B"><rect fill="#B3E5FC" height="50" rx="12.5" ry="12.5" style="stroke:#01579B;stroke-width:0.5;" width="198" x="95.75" y="434.5938"/><line style="stroke:#01579B;stroke-width:0.5;" x1="95.75" x2="293.75" y1="460.8906" y2="460.8906"/><text fill="#000000" font-family="sans-serif" font-size="14" lengthAdjust="spacing" textLength="178" x="105.75" y="452.5889">Crear borrador de turnos</text></g><g id="programar_turnos.C"><rect fill="#B3E5FC" height="50" rx="12.5" ry="12.5" style="stroke:#01579B;stroke-width:0.5;" width="297" x="46.25" y="570.5938"/><line style="stroke:#01579B;stroke-width:0.5;" x1="46.25" x2="343.25" y1="596.8906" y2="596.8906"/><text fill="#000000" font-family="sans-serif" font-size="14" lengthAdjust="spacing" textLength="277" x="56.25" y="588.5889">Consultar disponibilidad de empleados</text></g><g id="programar_turnos.D"><rect fill="#B3E5FC" height="50" rx="12.5" ry="12.5" style="stroke:#01579B;stroke-width:0.5;" width="255" x="67.25" y="706.5938"/><line style="stroke:#01579B;stroke-width:0.5;" x1="67.25" x2="322.25" y1="732.8906" y2="732.8906"/><text fill="#000000" font-family="sans-serif" font-size="14" lengthAdjust="spacing" textLength="235" x="77.25" y="724.5889">Finalizar programaci&#243;n de turnos</text></g><ellipse cx="194.75" cy="251.5938" fill="#222222" rx="10" ry="10" style="stroke:#222222;stroke-width:1.0;"/><ellipse cx="194.75" cy="838.5938" fill="none" rx="11" ry="11" style="stroke:#222222;stroke-width:1.0;"/><ellipse cx="194.75" cy="838.5938" fill="#222222" rx="6" ry="6" style="stroke:#222222;stroke-width:1.0;"/><!--link *start*programar_turnos to A--><g id="link_*start*programar_turnos_A"><path d="M194.75,261.7447 C194.75,271.0098 194.75,279.7347 194.75,292.3778 " fill="none" id="*start*programar_turnos-to-A" style="stroke:#0000FF;stroke-width:1.0;"/><polygon fill="#0000FF" points="194.75,298.3778,198.75,289.3778,194.75,293.3778,190.75,289.3778,194.75,298.3778" style="stroke:#0000FF;stroke-width:1.0;"/></g><!--link A to B--><g id="link_A_B"><path d="M194.75,348.8598 C194.75,373.1458 194.75,404.2868 194.75,428.5078 " fill="none" id="A-to-B" style="stroke:#0000FF;stroke-width:1.0;"/><polygon fill="#0000FF" points="194.75,434.5078,198.75,425.5078,194.75,429.5078,190.75,425.5078,194.75,434.5078" style="stroke:#0000FF;stroke-width:1.0;"/><path d="M199.75,371.5938 L199.75,411.5938 L467.75,411.5938 L467.75,381.5938 L457.75,371.5938 L199.75,371.5938 " fill="#FFCCBC" style="stroke:#181818;stroke-width:0.5;"/><path d="M457.75,371.5938 L457.75,381.5938 L467.75,381.5938 L457.75,371.5938 " fill="#FFCCBC" style="stroke:#181818;stroke-width:0.5;"/><text fill="#000000" font-family="sans-serif" font-size="13" font-weight="bold" lengthAdjust="spacing" textLength="120" x="205.75" y="388.6606">Gerente eval&#250;a:</text><text fill="#000000" font-family="sans-serif" font-size="13" lengthAdjust="spacing" textLength="247" x="205.75" y="403.7935">- Requerimientos de personal por &#225;rea</text></g><!--link B to C--><g id="link_B_C"><path d="M194.75,484.8598 C194.75,509.1458 194.75,540.2868 194.75,564.5078 " fill="none" id="B-to-C" style="stroke:#0000FF;stroke-width:1.0;"/><polygon fill="#0000FF" points="194.75,570.5078,198.75,561.5078,194.75,565.5078,190.75,561.5078,194.75,570.5078" style="stroke:#0000FF;stroke-width:1.0;"/><path d="M199.75,507.5938 L199.75,547.5938 L398.75,547.5938 L398.75,517.5938 L388.75,507.5938 L199.75,507.5938 " fill="#FFCCBC" style="stroke:#181818;stroke-width:0.5;"/><path d="M388.75,507.5938 L388.75,517.5938 L398.75,517.5938 L388.75,507.5938 " fill="#FFCCBC" style="stroke:#181818;stroke-width:0.5;"/><text fill="#000000" font-family="sans-serif" font-size="13" font-weight="bold" lengthAdjust="spacing" textLength="129" x="205.75" y="524.6606">Gerente elabora:</text><text fill="#000000" font-family="sans-serif" font-size="13" lengthAdjust="spacing" textLength="178" x="205.75" y="539.7935">- Propuesta inicial de turnos</text></g><!--link C to D--><g id="link_C_D"><path d="M194.75,620.8598 C194.75,645.1458 194.75,676.2868 194.75,700.5078 " fill="none" id="C-to-D" style="stroke:#0000FF;stroke-width:1.0;"/><polygon fill="#0000FF" points="194.75,706.5078,198.75,697.5078,194.75,701.5078,190.75,697.5078,194.75,706.5078" style="stroke:#0000FF;stroke-width:1.0;"/><path d="M199.75,643.5938 L199.75,683.5938 L502.75,683.5938 L502.75,653.5938 L492.75,643.5938 L199.75,643.5938 " fill="#FFCCBC" style="stroke:#181818;stroke-width:0.5;"/><path d="M492.75,643.5938 L492.75,653.5938 L502.75,653.5938 L492.75,643.5938 " fill="#FFCCBC" style="stroke:#181818;stroke-width:0.5;"/><text fill="#000000" font-family="sans-serif" font-size="13" font-weight="bold" lengthAdjust="spacing" textLength="119" x="205.75" y="660.6606">Gerente ajusta:</text><text fill="#000000" font-family="sans-serif" font-size="13" lengthAdjust="spacing" textLength="282" x="205.75" y="675.7935">- Turnos seg&#250;n disponibilidad y preferencias</text></g><!--link D to *end*programar_turnos--><g id="link_D_*end*programar_turnos"><path d="M194.75,756.6829 C194.75,779.085 194.75,805.3633 194.75,821.5445 " fill="none" id="D-to-*end*programar_turnos" style="stroke:#008000;stroke-width:1.0;"/><polygon fill="#008000" points="194.75,827.5445,198.75,818.5445,194.75,822.5445,190.75,818.5445,194.75,827.5445" style="stroke:#008000;stroke-width:1.0;"/><path d="M199.75,779.5938 L199.75,804.5938 L464.75,804.5938 L464.75,789.5938 L454.75,779.5938 L199.75,779.5938 " fill="#FFCCBC" style="stroke:#181818;stroke-width:0.5;"/><path d="M454.75,779.5938 L454.75,789.5938 L464.75,789.5938 L454.75,779.5938 " fill="#FFCCBC" style="stroke:#181818;stroke-width:0.5;"/><text fill="#000000" font-family="sans-serif" font-size="13" lengthAdjust="spacing" textLength="244" x="205.75" y="796.6606">[programaci&#243;n de turnos completada]</text></g><g id=":mostrarHorarioFinal"><rect fill="#B3E5FC" height="50" rx="12.5" ry="12.5" style="stroke:#01579B;stroke-width:0.5;" width="167" x="189.25" y="920.2969"/><line style="stroke:#01579B;stroke-width:0.5;" x1="189.25" x2="356.25" y1="946.5938" y2="946.5938"/><text fill="#000000" font-family="sans-serif" font-size="14" lengthAdjust="spacing" textLength="147" x="199.25" y="938.292">:mostrarHorarioFinal</text></g><g id="HORARIO_DE_TURNOS_FINAL"><rect fill="#B3E5FC" height="50" rx="12.5" ry="12.5" style="stroke:#01579B;stroke-width:0.5;" width="225" x="160.25" y="1031.2969"/><line style="stroke:#01579B;stroke-width:0.5;" x1="160.25" x2="385.25" y1="1057.5938" y2="1057.5938"/><text fill="#000000" font-family="sans-serif" font-size="14" lengthAdjust="spacing" textLength="205" x="170.25" y="1049.292">HORARIO_DE_TURNOS_FINAL</text></g><!--link INICIO to programar_turnos--><g id="link_INICIO_programar_turnos"><path d="M272.75,94.4069 C272.75,118.3729 272.75,152.1319 272.75,198.1629 " fill="none" id="INICIO-to-programar_turnos" style="stroke:#0000FF;stroke-width:1.0;"/><polygon fill="#0000FF" points="272.75,204.1629,276.75,195.1629,272.75,199.1629,268.75,195.1629,272.75,204.1629" style="stroke:#0000FF;stroke-width:1.0;"/><path d="M277.75,129.2969 L277.75,169.2969 L523.75,169.2969 L523.75,139.2969 L513.75,129.2969 L277.75,129.2969 " fill="#FFCCBC" style="stroke:#181818;stroke-width:0.5;"/><path d="M513.75,129.2969 L513.75,139.2969 L523.75,139.2969 L513.75,129.2969 " fill="#FFCCBC" style="stroke:#181818;stroke-width:0.5;"/><text fill="#000000" font-family="sans-serif" font-size="13" font-weight="bold" lengthAdjust="spacing" textLength="110" x="283.75" y="146.3638">Gerente inicia:</text><text fill="#000000" font-family="sans-serif" font-size="13" lengthAdjust="spacing" textLength="225" x="283.75" y="161.4966">- Programaci&#243;n de turnos laborales</text></g><!--link programar_turnos to :mostrarHorarioFinal--><g id="link_programar_turnos_:mostrarHorarioFinal"><path d="M272.75,859.5329 C272.75,884.1789 272.75,899.2329 272.75,914.1929 " fill="none" id="programar_turnos-to-:mostrarHorarioFinal" style="stroke:#0000FF;stroke-width:1.0;"/><polygon fill="#0000FF" points="272.75,920.1929,276.75,911.1929,272.75,915.1929,268.75,911.1929,272.75,920.1929" style="stroke:#0000FF;stroke-width:1.0;"/></g><!--link :mostrarHorarioFinal to HORARIO_DE_TURNOS_FINAL--><g id="link_:mostrarHorarioFinal_HORARIO_DE_TURNOS_FINAL"><path d="M272.75,970.4879 C272.75,988.5507 272.75,1007.127 272.75,1025.1739 " fill="none" id=":mostrarHorarioFinal-to-HORARIO_DE_TURNOS_FINAL" style="stroke:#0000FF;stroke-width:1.0;"/><polygon fill="#0000FF" points="272.75,1031.1739,276.75,1022.1739,272.75,1026.1739,268.75,1022.1739,272.75,1031.1739" style="stroke:#0000FF;stroke-width:1.0;"/></g><!--SRC=[VLF1Qjj04BtlLop9JI1eAQ4qXu8ZDucWs4LrJiQOaJGs6wzsrLafu9P-JB-XjrpzOvbTgvRiE1K2IRFlpPjvCt8RPMeWgAHhe47vIqXv0yLcJROrPMAr9NcPVy2hLU5FB9L8NVJT-wkFdtBnMmXtI6BiMpbMgwB8YsEqLWQRROsojdhhFuHeLADH9k2iB54-yECRsJM3eL2xlyO7PoqPwy8RGGwFLiPofYgyQu5A1KQ8T98cwLJ6yyjSjxY8FykwIqBB9h15ADGQNyA6ousYEoGq75D65GgkeuYZyMlnFLrgo2s1HYVGbA5hxYiOUAeKtDWVNMJuf1oGD5YWKoMK6DgeaPmre2yaE3dguGaXWrc8e6GB3-e1TpF0MUDQtJ2sLAwsHkLA- -oUWLMjaUbxKjAJRXKhgfzCgi_t60XZ9l0zZnP3DtsDes705tFYgBzwL_49zEwvizLViSpmHukaAiK0U-G3hmF9tH_kdi47VtcdXfB9ESc1u7v2_mJ39EiMkVbkmhhlz5Wb6QgC_wy2Zordx4MwrNIutZsRqsbisMbSUIRBduYElUYQ48rNPRlFwSxVc9Gih9zo0oKiXcdvNtkrZOFUhYlh6WAwPvz8sR0GGfoB3bdtqsoKfTFb-Cjozf1Dfj-Nj-bazFK5]--></g></svg>