<?xml version="1.0" encoding="us-ascii" standalone="no"?><svg xmlns="http://www.w3.org/2000/svg" xmlns:xlink="http://www.w3.org/1999/xlink" contentStyleType="text/css" height="725px" preserveAspectRatio="none" style="width:656px;height:725px;background:#FFFFFF;" version="1.1" viewBox="0 0 656 725" width="656px" zoomAndPan="magnify"><defs/><g><text fill="#000000" font-family="sans-serif" font-size="14" font-weight="bold" lengthAdjust="spacing" textLength="505" x="68.75" y="22.9951">Caso de Uso - Guardado de Cambios en Sistema TimeGuardian</text><g id="INICIO"><rect fill="#E6EE9C" height="50" rx="12.5" ry="12.5" style="stroke:#D32F2F;stroke-width:0.5;" width="63" x="132.5" y="44.2969"/><line style="stroke:#D32F2F;stroke-width:0.5;" x1="132.5" x2="195.5" y1="70.5938" y2="70.5938"/><text fill="#000000" font-family="sans-serif" font-size="14" lengthAdjust="spacing" textLength="43" x="142.5" y="62.292">INICIO</text></g><g id="sistema_timeguardian"><rect fill="#E6EE9C" height="50" rx="12.5" ry="12.5" style="stroke:#D32F2F;stroke-width:0.5;" width="178" x="75" y="204.2969"/><line style="stroke:#D32F2F;stroke-width:0.5;" x1="75" x2="253" y1="230.5938" y2="230.5938"/><text fill="#000000" font-family="sans-serif" font-size="14" lengthAdjust="spacing" textLength="158" x="85" y="222.292">sistema_timeguardian</text></g><g id="guardar_cambios_realizados"><rect fill="#E6EE9C" height="50" rx="12.5" ry="12.5" style="stroke:#D32F2F;stroke-width:0.5;" width="220" x="54" y="315.2969"/><line style="stroke:#D32F2F;stroke-width:0.5;" x1="54" x2="274" y1="341.5938" y2="341.5938"/><text fill="#000000" font-family="sans-serif" font-size="14" lengthAdjust="spacing" textLength="200" x="64" y="333.292">guardar_cambios_realizados</text></g><g id="elem_GMN7"><path d="M309,327.7969 L309,336.2969 L274.23,340.2969 L309,344.2969 L309,352.9297 A0,0 0 0 0 309,352.9297 L509,352.9297 A0,0 0 0 0 509,352.9297 L509,337.7969 L499,327.7969 L309,327.7969 A0,0 0 0 0 309,327.7969 " fill="#FFE0B2" style="stroke:#181818;stroke-width:0.5;"/><path d="M499,327.7969 L499,337.7969 L509,337.7969 L499,327.7969 " fill="#FFE0B2" style="stroke:#181818;stroke-width:0.5;"/><text fill="#000000" font-family="sans-serif" font-size="13" lengthAdjust="spacing" textLength="179" x="315" y="344.8638">Guardar cambios realizados</text></g><g id="actualizar_informaci&#243;n_horario"><rect fill="#E6EE9C" height="50" rx="12.5" ry="12.5" style="stroke:#D32F2F;stroke-width:0.5;" width="240" x="44" y="475.2969"/><line style="stroke:#D32F2F;stroke-width:0.5;" x1="44" x2="284" y1="501.5938" y2="501.5938"/><text fill="#000000" font-family="sans-serif" font-size="14" lengthAdjust="spacing" textLength="220" x="54" y="493.292">actualizar_informaci&#243;n_horario</text></g><g id="hacer_accesible_informaci&#243;n_actualizada"><rect fill="#E6EE9C" height="50" rx="12.5" ry="12.5" style="stroke:#D32F2F;stroke-width:0.5;" width="314" x="7" y="586.2969"/><line style="stroke:#D32F2F;stroke-width:0.5;" x1="7" x2="321" y1="612.5938" y2="612.5938"/><text fill="#000000" font-family="sans-serif" font-size="14" lengthAdjust="spacing" textLength="294" x="17" y="604.292">hacer_accesible_informaci&#243;n_actualizada</text></g><g id="elem_GMN14"><path d="M356.5,598.7969 L356.5,607.2969 L321.012,611.2969 L356.5,615.2969 L356.5,623.9297 A0,0 0 0 0 356.5,623.9297 L649.5,623.9297 A0,0 0 0 0 649.5,623.9297 L649.5,608.7969 L639.5,598.7969 L356.5,598.7969 A0,0 0 0 0 356.5,598.7969 " fill="#FFE0B2" style="stroke:#181818;stroke-width:0.5;"/><path d="M639.5,598.7969 L639.5,608.7969 L649.5,608.7969 L639.5,598.7969 " fill="#FFE0B2" style="stroke:#181818;stroke-width:0.5;"/><text fill="#000000" font-family="sans-serif" font-size="13" lengthAdjust="spacing" textLength="272" x="362.5" y="615.8638">Hacer accesible la informaci&#243;n actualizada</text></g><ellipse cx="164" cy="708.2969" fill="none" rx="11" ry="11" style="stroke:#222222;stroke-width:1.0;"/><ellipse cx="164" cy="708.2969" fill="#222222" rx="6" ry="6" style="stroke:#222222;stroke-width:1.0;"/><!--link INICIO to sistema_timeguardian--><g id="link_INICIO_sistema_timeguardian"><path d="M164,94.6379 C164,124.4159 164,168.5159 164,198.1869 " fill="none" id="INICIO-to-sistema_timeguardian" style="stroke:#FF0000;stroke-width:1.0;"/><polygon fill="#FF0000" points="164,204.1869,168,195.1869,164,199.1869,160,195.1869,164,204.1869" style="stroke:#FF0000;stroke-width:1.0;"/><path d="M169,129.2969 L169,169.2969 L413,169.2969 L413,139.2969 L403,129.2969 L169,129.2969 " fill="#FFE0B2" style="stroke:#181818;stroke-width:0.5;"/><path d="M403,129.2969 L403,139.2969 L413,139.2969 L403,129.2969 " fill="#FFE0B2" style="stroke:#181818;stroke-width:0.5;"/><text fill="#000000" font-family="sans-serif" font-size="13" font-weight="bold" lengthAdjust="spacing" textLength="176" x="175" y="146.3638">Sistema TimeGuardian:</text><text fill="#000000" font-family="sans-serif" font-size="13" lengthAdjust="spacing" textLength="223" x="175" y="161.4966">- Proceso de guardado de cambios</text></g><!--link sistema_timeguardian to guardar_cambios_realizados--><g id="link_sistema_timeguardian_guardar_cambios_realizados"><path d="M164,254.4879 C164,272.5509 164,291.1269 164,309.1739 " fill="none" id="sistema_timeguardian-to-guardar_cambios_realizados" style="stroke:#FF0000;stroke-width:1.0;"/><polygon fill="#FF0000" points="164,315.1739,168,306.1739,164,310.1739,160,306.1739,164,315.1739" style="stroke:#FF0000;stroke-width:1.0;"/></g><!--link guardar_cambios_realizados to actualizar_informaci?n_horario--><g id="link_guardar_cambios_realizados_actualizar_informaci&#243;n_horario"><path d="M164,365.6379 C164,395.4159 164,439.5159 164,469.1869 " fill="none" id="guardar_cambios_realizados-to-actualizar_informaci&#243;n_horario" style="stroke:#FF0000;stroke-width:1.0;"/><polygon fill="#FF0000" points="164,475.1869,168,466.1869,164,470.1869,160,466.1869,164,475.1869" style="stroke:#FF0000;stroke-width:1.0;"/><path d="M169,400.2969 L169,440.2969 L414,440.2969 L414,410.2969 L404,400.2969 L169,400.2969 " fill="#FFE0B2" style="stroke:#181818;stroke-width:0.5;"/><path d="M404,400.2969 L404,410.2969 L414,410.2969 L404,400.2969 " fill="#FFE0B2" style="stroke:#181818;stroke-width:0.5;"/><text fill="#000000" font-family="sans-serif" font-size="13" font-weight="bold" lengthAdjust="spacing" textLength="121" x="175" y="417.3638">Sistema realiza:</text><text fill="#000000" font-family="sans-serif" font-size="13" lengthAdjust="spacing" textLength="224" x="175" y="432.4966">- Actualizar informaci&#243;n del horario</text></g><!--link actualizar_informaci?n_horario to hacer_accesible_informaci?n_actualizada--><g id="link_actualizar_informaci&#243;n_horario_hacer_accesible_informaci&#243;n_actualizada"><path d="M164,525.4879 C164,543.5509 164,562.1269 164,580.1739 " fill="none" id="actualizar_informaci&#243;n_horario-to-hacer_accesible_informaci&#243;n_actualizada" style="stroke:#FF0000;stroke-width:1.0;"/><polygon fill="#FF0000" points="164,586.1739,168,577.1739,164,581.1739,160,577.1739,164,586.1739" style="stroke:#FF0000;stroke-width:1.0;"/></g><!--link hacer_accesible_informaci?n_actualizada to *end*--><g id="link_hacer_accesible_informaci&#243;n_actualizada_*end*"><path d="M164,636.7618 C164,656.3333 164,676.789 164,691.0936 " fill="none" id="hacer_accesible_informaci&#243;n_actualizada-to-*end*" style="stroke:#FF0000;stroke-width:1.0;"/><polygon fill="#FF0000" points="164,697.0936,168,688.0936,164,692.0936,160,688.0936,164,697.0936" style="stroke:#FF0000;stroke-width:1.0;"/></g><!--SRC=[ZP3FIWCn4CRlUOe1RmiBKa7GWw1xq5vKK4-bBDDaTXkQJSeaFLJngNm4NypitswbrPv2PhxvvZUVNscxHiOAVC10y240xb2kIdORgp9d7CCPNH9ToRhZM15tLNKnAIQ5-1J23oRM7VCe2ZfVJFRLHbiAspN1sfbj_H4Yw608ClGE5C5RV5Auto0hL4qbmsgXdGUoyA9ze0hXLLVKI3HQ8QQFqspw1EdiZ4dDqnlmhImFKLRsieRJsPfW5McJv93PTPB4NWhFx2IrGEK8HROeWgngxewN7LWr8cc7EUy6SoOq-Zsw-PQ7TRaCu8g_XD2bmVrw63Lt9CSTHZmemwOfSwvjuRX2gR-_RBvqZApTyP0wjpwVsy47nZun8mEzrmxjdwqZlYLAuXnb35yl3EtB1nk5lz8xUGpWePR280M3-nUCrRiBJbqmEcMMp7y0]--></g></svg>