<svg xmlns="http://www.w3.org/2000/svg" xmlns:xlink="http://www.w3.org/1999/xlink" contentStyleType="text/css" height="721px" preserveAspectRatio="none" style="width:524px;height:721px;background:#FFFFFF;" version="1.1" viewBox="0 0 524 721" width="524px" zoomAndPan="magnify"><defs/><g><text fill="#000000" font-family="sans-serif" font-size="14" font-weight="bold" lengthAdjust="spacing" textLength="293" x="108.625" y="22.9951">Caso de Uso Guardar - TimeGuardian</text><g id="HORARIO_FINALIZADO"><rect fill="#FAF4B4" height="50" rx="12.5" ry="12.5" style="stroke:#C90000;stroke-width:0.5;" width="172" x="120.25" y="44.2969"/><line style="stroke:#C90000;stroke-width:0.5;" x1="120.25" x2="292.25" y1="70.5938" y2="70.5938"/><text fill="#000000" font-family="sans-serif" font-size="14" lengthAdjust="spacing" textLength="152" x="130.25" y="62.292">HORARIO_FINALIZADO</text></g><path d="M19.5,204.2969 L393,204.2969 A12.5,12.5 0 0 1 405.5,216.7969 L405.5,230.5937 L7,230.5937 L7,216.7969 A12.5,12.5 0 0 1 19.5,204.2969 " fill="#FAF4B4" style="stroke:#FAF4B4;stroke-width:1.0;"/><rect fill="none" height="401.4297" rx="12.5" ry="12.5" style="stroke:#C90000;stroke-width:0.5;" width="398.5" x="7" y="204.2969"/><line style="stroke:#C90000;stroke-width:0.5;" x1="7" x2="405.5" y1="230.5937" y2="230.5937"/><text fill="#000000" font-family="sans-serif" font-size="14" lengthAdjust="spacing" textLength="55" x="178.75" y="222.292">Guardar</text><g id="Guardar.Verificar"><rect fill="#FAF4B4" height="50" rx="12.5" ry="12.5" style="stroke:#C90000;stroke-width:0.5;" width="138" x="19.5" y="347.5937"/><line style="stroke:#C90000;stroke-width:0.5;" x1="19.5" x2="157.5" y1="373.8906" y2="373.8906"/><text fill="#000000" font-family="sans-serif" font-size="14" lengthAdjust="spacing" textLength="118" x="29.5" y="365.5889">Verificar Cambios</text></g><g id="Guardar.GuardarCambios"><rect fill="#FAF4B4" height="50" rx="12.5" ry="12.5" style="stroke:#C90000;stroke-width:0.5;" width="139" x="19" y="483.5937"/><line style="stroke:#C90000;stroke-width:0.5;" x1="19" x2="158" y1="509.8906" y2="509.8906"/><text fill="#000000" font-family="sans-serif" font-size="14" lengthAdjust="spacing" textLength="119" x="29" y="501.5889">Guardar Cambios</text></g><ellipse cx="88.5" cy="251.5937" fill="#222222" rx="10" ry="10" style="stroke:#222222;stroke-width:1.0;"/><ellipse cx="88.5" cy="582.1538" fill="none" rx="11" ry="11" style="stroke:#222222;stroke-width:1.0;"/><ellipse cx="88.5" cy="582.1538" fill="#222222" rx="6" ry="6" style="stroke:#222222;stroke-width:1.0;"/><g id="elem_GMN12"><path d="M117.5,569.5938 L117.5,578.1538 L100,582.1538 L117.5,586.1538 L117.5,594.7266 A0,0 0 0 0 117.5,594.7266 L365.5,594.7266 A0,0 0 0 0 365.5,594.7266 L365.5,579.5938 L355.5,569.5938 L117.5,569.5938 A0,0 0 0 0 117.5,569.5938 " fill="#F5F5F5" style="stroke:#181818;stroke-width:0.5;"/><path d="M355.5,569.5938 L355.5,579.5938 L365.5,579.5938 L355.5,569.5938 " fill="#F5F5F5" style="stroke:#181818;stroke-width:0.5;"/><text fill="#000000" font-family="sans-serif" font-size="13" lengthAdjust="spacing" textLength="227" x="123.5" y="586.6606">Cambios guardados correctamente</text></g><!--link *start*Guardar to Verificar--><g id="link_*start*Guardar_Verificar"><path d="M88.5,261.9237 C88.5,280.1237 88.5,314.8337 88.5,341.2037 " fill="none" id="*start*Guardar-to-Verificar" style="stroke:#008000;stroke-width:1.0;"/><polygon fill="#008000" points="88.5,347.2037,92.5,338.2037,88.5,342.2037,84.5,338.2037,88.5,347.2037" style="stroke:#008000;stroke-width:1.0;"/><path d="M93.5,284.5937 L93.5,324.5937 L396.5,324.5937 L396.5,294.5937 L386.5,284.5937 L93.5,284.5937 " fill="#F5F5F5" style="stroke:#181818;stroke-width:0.5;"/><path d="M386.5,284.5937 L386.5,294.5937 L396.5,294.5937 L386.5,284.5937 " fill="#F5F5F5" style="stroke:#181818;stroke-width:0.5;"/><text fill="#000000" font-family="sans-serif" font-size="13" font-weight="bold" lengthAdjust="spacing" textLength="123" x="99.5" y="301.6606">Sistema verifica:</text><text fill="#000000" font-family="sans-serif" font-size="13" lengthAdjust="spacing" textLength="282" x="99.5" y="316.7935">- Complejidad y consistencia de los cambios</text></g><!--link Verificar to GuardarCambios--><g id="link_Verificar_GuardarCambios"><path d="M88.5,397.8537 C88.5,422.1437 88.5,453.2837 88.5,477.5037 " fill="none" id="Verificar-to-GuardarCambios" style="stroke:#008000;stroke-width:1.0;"/><polygon fill="#008000" points="88.5,483.5037,92.5,474.5037,88.5,478.5037,84.5,474.5037,88.5,483.5037" style="stroke:#008000;stroke-width:1.0;"/><path d="M93.5,420.5937 L93.5,460.5937 L390.5,460.5937 L390.5,430.5937 L380.5,420.5937 L93.5,420.5937 " fill="#F5F5F5" style="stroke:#181818;stroke-width:0.5;"/><path d="M380.5,420.5937 L380.5,430.5937 L390.5,430.5937 L380.5,420.5937 " fill="#F5F5F5" style="stroke:#181818;stroke-width:0.5;"/><text fill="#000000" font-family="sans-serif" font-size="13" font-weight="bold" lengthAdjust="spacing" textLength="122" x="99.5" y="437.6606">Sistema guarda:</text><text fill="#000000" font-family="sans-serif" font-size="13" lengthAdjust="spacing" textLength="276" x="99.5" y="452.7935">- Todos los cambios realizados en la sesi&#243;n</text></g><!--link GuardarCambios to *end*Guardar--><g id="link_GuardarCambios_*end*Guardar"><path d="M88.5,533.8238 C88.5,546.4737 88.5,555.2837 88.5,564.9237 " fill="none" id="GuardarCambios-to-*end*Guardar" style="stroke:#008000;stroke-width:1.0;"/><polygon fill="#008000" points="88.5,570.9237,92.5,561.9237,88.5,565.9237,84.5,561.9237,88.5,570.9237" style="stroke:#008000;stroke-width:1.0;"/></g><g id="P&#193;GINA_PRINCIPAL"><rect fill="#FAF4B4" height="50" rx="12.5" ry="12.5" style="stroke:#C90000;stroke-width:0.5;" width="148" x="132.25" y="665.7269"/><line style="stroke:#C90000;stroke-width:0.5;" x1="132.25" x2="280.25" y1="692.0238" y2="692.0238"/><text fill="#000000" font-family="sans-serif" font-size="14" lengthAdjust="spacing" textLength="128" x="142.25" y="683.722">P&#193;GINA_PRINCIPAL</text></g><!--link HORARIO_FINALIZADO to Guardar--><g id="link_HORARIO_FINALIZADO_Guardar"><path d="M206.25,94.5669 C206.25,119.2369 206.25,153.9969 206.25,197.9669 " fill="none" id="HORARIO_FINALIZADO-to-Guardar" style="stroke:#008000;stroke-width:1.0;"/><polygon fill="#008000" points="206.25,203.9669,210.25,194.9669,206.25,198.9669,202.25,194.9669,206.25,203.9669" style="stroke:#008000;stroke-width:1.0;"/><path d="M211.25,129.2969 L211.25,169.2969 L517.25,169.2969 L517.25,139.2969 L507.25,129.2969 L211.25,129.2969 " fill="#F5F5F5" style="stroke:#181818;stroke-width:0.5;"/><path d="M507.25,129.2969 L507.25,139.2969 L517.25,139.2969 L507.25,129.2969 " fill="#F5F5F5" style="stroke:#181818;stroke-width:0.5;"/><text fill="#000000" font-family="sans-serif" font-size="13" font-weight="bold" lengthAdjust="spacing" textLength="142" x="217.25" y="146.3638">Usuario selecciona:</text><text fill="#000000" font-family="sans-serif" font-size="13" lengthAdjust="spacing" textLength="285" x="217.25" y="161.4966">- Guardar cambios en el sistema de horarios</text></g><!--link Guardar to P?GINA_PRINCIPAL--><g id="link_Guardar_P&#193;GINA_PRINCIPAL"><path d="M206.25,606.1369 C206.25,629.6069 206.25,644.5069 206.25,659.5369 " fill="none" id="Guardar-to-P&#193;GINA_PRINCIPAL" style="stroke:#008000;stroke-width:1.0;"/><polygon fill="#008000" points="206.25,665.5369,210.25,656.5369,206.25,660.5369,202.25,656.5369,206.25,665.5369" style="stroke:#008000;stroke-width:1.0;"/></g><!--SRC=[VLBDJi904BxlKqpWreJ40nxaO88rOXC21C63Xf1XTu2LxIxPBIPeFFXCFW8lvcvf2pLgssIpy_FzJCTjfDwYnHHSXXd1EmEuGRvPMRFJ8ZRAM6WkSTbUj4F6M46sYFAh2_-m3yPS1QBDdnYNuQrNAwafssy9jaRjmuMnJ6QA84PdG11C_T7ReHLeeGKJcL9-awWPkn-Ek-DaEBzB1jr-yjIz7KBhkRcoH7hMkYxRMAx8wC2ryRgYQEfyHXfmf8XpQJHseiXdMXKJntGXZGFIG0gST1cb6EIiZGsjZf4MkLLl9fzQsHcS7oEDHx9oARaFnaUu1g23AdegB7lFoufO4VAr_dkEPZM3vr0_J0QR3uNirwBiQ3BOZ4swLVGY1GhO0pSwTwYvp3qgRvnNl9LHEF7zDkQJqd-ahFBQav294PxiZ10ieP9lA8x3L-X_afE7BrrNKkUioV53AZLOkLfddNAi1Nb0viPQuXccf3sSNyXgmyw0HeVFdb-i-MYS3E9arEr_0m00]--></g></svg>