<?xml version="1.0" encoding="us-ascii" standalone="no"?><svg xmlns="http://www.w3.org/2000/svg" xmlns:xlink="http://www.w3.org/1999/xlink" contentStyleType="text/css" height="947px" preserveAspectRatio="none" style="width:819px;height:947px;background:#FFFFFF;" version="1.1" viewBox="0 0 819 947" width="819px" zoomAndPan="magnify"><defs/><g><text fill="#000000" font-family="sans-serif" font-size="14" font-weight="bold" lengthAdjust="spacing" textLength="545" x="127" y="22.9951">Caso de Uso Asignaci&#243;n de Asignaturas a Docentes - TimeGuardian</text><g id="INICIO"><rect fill="#FFE0B2" height="50" rx="12.5" ry="12.5" style="stroke:#6A1B9A;stroke-width:0.5;" width="63" x="375" y="44.2969"/><line style="stroke:#6A1B9A;stroke-width:0.5;" x1="375" x2="438" y1="70.5938" y2="70.5938"/><text fill="#000000" font-family="sans-serif" font-size="14" lengthAdjust="spacing" textLength="43" x="385" y="62.292">INICIO</text></g><path d="M19.5,204.2969 L793.5,204.2969 A12.5,12.5 0 0 1 806,216.7969 L806,230.5938 L7,230.5938 L7,216.7969 A12.5,12.5 0 0 1 19.5,204.2969 " fill="#FFE0B2" style="stroke:#FFE0B2;stroke-width:1.0;"/><rect fill="none" height="515.2969" rx="12.5" ry="12.5" style="stroke:#6A1B9A;stroke-width:0.5;" width="799" x="7" y="204.2969"/><line style="stroke:#6A1B9A;stroke-width:0.5;" x1="7" x2="806" y1="230.5938" y2="230.5938"/><text fill="#000000" font-family="sans-serif" font-size="14" lengthAdjust="spacing" textLength="139" x="337" y="222.292">asignar_asignaturas</text><g id="asignar_asignaturas.A"><rect fill="#FFE0B2" height="50" rx="12.5" ry="12.5" style="stroke:#6A1B9A;stroke-width:0.5;" width="193" x="262.5" y="298.5938"/><line style="stroke:#6A1B9A;stroke-width:0.5;" x1="262.5" x2="455.5" y1="324.8906" y2="324.8906"/><text fill="#000000" font-family="sans-serif" font-size="14" lengthAdjust="spacing" textLength="173" x="272.5" y="316.5889">Revisar plan de estudios</text></g><g id="asignar_asignaturas.B"><rect fill="#FFE0B2" height="50" rx="12.5" ry="12.5" style="stroke:#6A1B9A;stroke-width:0.5;" width="266" x="19" y="449.5938"/><line style="stroke:#6A1B9A;stroke-width:0.5;" x1="19" x2="285" y1="475.8906" y2="475.8906"/><text fill="#000000" font-family="sans-serif" font-size="14" lengthAdjust="spacing" textLength="246" x="29" y="467.5889">Determinar necesidades docentes</text></g><g id="asignar_asignaturas.C"><rect fill="#FFE0B2" height="50" rx="12.5" ry="12.5" style="stroke:#6A1B9A;stroke-width:0.5;" width="158" x="203" y="600.5938"/><line style="stroke:#6A1B9A;stroke-width:0.5;" x1="203" x2="361" y1="626.8906" y2="626.8906"/><text fill="#000000" font-family="sans-serif" font-size="14" lengthAdjust="spacing" textLength="138" x="213" y="618.5889">Asignar asignaturas</text></g><ellipse cx="359" cy="251.5938" fill="#222222" rx="10" ry="10" style="stroke:#222222;stroke-width:1.0;"/><ellipse cx="282" cy="698.5938" fill="none" rx="11" ry="11" style="stroke:#222222;stroke-width:1.0;"/><ellipse cx="282" cy="698.5938" fill="#222222" rx="6" ry="6" style="stroke:#222222;stroke-width:1.0;"/><!--link *start*asignar_asignaturas to A--><g id="link_*start*asignar_asignaturas_A"><path d="M359,261.7448 C359,271.0098 359,279.7348 359,292.3778 " fill="none" id="*start*asignar_asignaturas-to-A" style="stroke:#800080;stroke-width:1.0;"/><polygon fill="#800080" points="359,298.3778,363,289.3778,359,293.3778,355,289.3778,359,298.3778" style="stroke:#800080;stroke-width:1.0;"/></g><!--link A to B--><g id="link_A_B"><path d="M285.082,348.6598 C256.259,358.0448 230,366.5938 230,366.5938 C230,366.5938 196.0364,413.1853 173.0394,444.7323 " fill="none" id="A-to-B" style="stroke:#800080;stroke-width:1.0;"/><polygon fill="#800080" points="169.505,449.5808,178.039,444.6643,172.4504,445.5403,171.5743,439.9517,169.505,449.5808" style="stroke:#800080;stroke-width:1.0;"/><path d="M235,371.5938 L235,426.5938 L419,426.5938 L419,381.5938 L409,371.5938 L235,371.5938 " fill="#B2EBF2" style="stroke:#181818;stroke-width:0.5;"/><path d="M409,371.5938 L409,381.5938 L419,381.5938 L409,371.5938 " fill="#B2EBF2" style="stroke:#181818;stroke-width:0.5;"/><text fill="#000000" font-family="sans-serif" font-size="13" font-weight="bold" lengthAdjust="spacing" textLength="163" x="241" y="388.6606">Administrador revisa:</text><text fill="#000000" font-family="sans-serif" font-size="13" lengthAdjust="spacing" textLength="160" x="241" y="403.7935">- Asignaturas disponibles</text><text fill="#000000" font-family="sans-serif" font-size="13" lengthAdjust="spacing" textLength="156" x="241" y="418.9263">- Requisitos acad&#233;micos</text></g><!--link B to C--><g id="link_B_C"><path d="M137.457,500.0258 C131.958,509.2648 127,517.5938 127,517.5938 C127,517.5938 127,582.5938 127,582.5938 C127,582.5938 158.7579,591.1984 196.8929,601.5324 " fill="none" id="B-to-C" style="stroke:#800080;stroke-width:1.0;"/><polygon fill="#800080" points="202.684,603.1018,195.0435,596.887,197.8581,601.794,192.9511,604.6085,202.684,603.1018" style="stroke:#800080;stroke-width:1.0;"/><path d="M132,522.5938 L132,577.5938 L419,577.5938 L419,532.5938 L409,522.5938 L132,522.5938 " fill="#B2EBF2" style="stroke:#181818;stroke-width:0.5;"/><path d="M409,522.5938 L409,532.5938 L419,532.5938 L409,522.5938 " fill="#B2EBF2" style="stroke:#181818;stroke-width:0.5;"/><text fill="#000000" font-family="sans-serif" font-size="13" font-weight="bold" lengthAdjust="spacing" textLength="166" x="138" y="539.6606">Administrador asigna:</text><text fill="#000000" font-family="sans-serif" font-size="13" lengthAdjust="spacing" textLength="160" x="138" y="554.7935">- Asignaturas a docentes</text><text fill="#000000" font-family="sans-serif" font-size="13" lengthAdjust="spacing" textLength="266" x="138" y="569.9263">- Basado en especializaci&#243;n y experiencia</text></g><!--link C to A--><g id="link_C_A"><path d="M361.303,601.1378 C393.83,591.5168 424,582.5938 424,582.5938 C424,582.5938 424,366.5938 424,366.5938 C424,366.5938 415.9224,361.3752 401.4734,352.0382 " fill="none" id="C-to-A" style="stroke:#FF0000;stroke-width:1.0;"/><polygon fill="#FF0000" points="396.434,348.7818,401.8221,357.026,400.6335,351.4955,406.1641,350.3069,396.434,348.7818" style="stroke:#FF0000;stroke-width:1.0;"/><path d="M429,462.0938 L429,487.0938 L797,487.0938 L797,472.0938 L787,462.0938 L429,462.0938 " fill="#B2EBF2" style="stroke:#181818;stroke-width:0.5;"/><path d="M787,462.0938 L787,472.0938 L797,472.0938 L787,462.0938 " fill="#B2EBF2" style="stroke:#181818;stroke-width:0.5;"/><text fill="#000000" font-family="sans-serif" font-size="13" lengthAdjust="spacing" textLength="347" x="435" y="479.1606">[sobrecarga de trabajo o incompatibilidad de horarios]</text></g><!--link C to *end*asignar_asignaturas--><g id="link_C_*end*asignar_asignaturas"><path d="M282,650.6311 C282,663.1829 282,671.8762 282,681.44 " fill="none" id="C-to-*end*asignar_asignaturas" style="stroke:#800080;stroke-width:1.0;"/><polygon fill="#800080" points="282,687.44,286,678.44,282,682.44,278,678.44,282,687.44" style="stroke:#800080;stroke-width:1.0;"/></g><g id=":mostrarAsignacionesCompletas"><rect fill="#FFE0B2" height="50" rx="12.5" ry="12.5" style="stroke:#6A1B9A;stroke-width:0.5;" width="253" x="280" y="780.2969"/><line style="stroke:#6A1B9A;stroke-width:0.5;" x1="280" x2="533" y1="806.5938" y2="806.5938"/><text fill="#000000" font-family="sans-serif" font-size="14" lengthAdjust="spacing" textLength="233" x="290" y="798.292">:mostrarAsignacionesCompletas</text></g><g id="ASIGNACIONES_COMPLETAS"><rect fill="#FFE0B2" height="50" rx="12.5" ry="12.5" style="stroke:#6A1B9A;stroke-width:0.5;" width="221" x="296" y="891.2969"/><line style="stroke:#6A1B9A;stroke-width:0.5;" x1="296" x2="517" y1="917.5938" y2="917.5938"/><text fill="#000000" font-family="sans-serif" font-size="14" lengthAdjust="spacing" textLength="201" x="306" y="909.292">ASIGNACIONES_COMPLETAS</text></g><!--link INICIO to asignar_asignaturas--><g id="link_INICIO_asignar_asignaturas"><path d="M406.5,94.4299 C406.5,118.7069 406.5,152.9299 406.5,198.0299 " fill="none" id="INICIO-to-asignar_asignaturas" style="stroke:#800080;stroke-width:1.0;"/><polygon fill="#800080" points="406.5,204.0299,410.5,195.0299,406.5,199.0299,402.5,195.0299,406.5,204.0299" style="stroke:#800080;stroke-width:1.0;"/><path d="M411.5,129.2969 L411.5,169.2969 L698.5,169.2969 L698.5,139.2969 L688.5,129.2969 L411.5,129.2969 " fill="#B2EBF2" style="stroke:#181818;stroke-width:0.5;"/><path d="M688.5,129.2969 L688.5,139.2969 L698.5,139.2969 L688.5,129.2969 " fill="#B2EBF2" style="stroke:#181818;stroke-width:0.5;"/><text fill="#000000" font-family="sans-serif" font-size="13" font-weight="bold" lengthAdjust="spacing" textLength="266" x="417.5" y="146.3638">Administrador de estudios solicita:</text><text fill="#000000" font-family="sans-serif" font-size="13" lengthAdjust="spacing" textLength="246" x="417.5" y="161.4966">- Distribuir asignaturas entre docentes</text></g><!--link asignar_asignaturas to :mostrarAsignacionesCompletas--><g id="link_asignar_asignaturas_:mostrarAsignacionesCompletas"><path d="M406.5,719.4419 C406.5,743.8129 406.5,759.0259 406.5,774.1469 " fill="none" id="asignar_asignaturas-to-:mostrarAsignacionesCompletas" style="stroke:#800080;stroke-width:1.0;"/><polygon fill="#800080" points="406.5,780.1469,410.5,771.1469,406.5,775.1469,402.5,771.1469,406.5,780.1469" style="stroke:#800080;stroke-width:1.0;"/></g><!--link :mostrarAsignacionesCompletas to ASIGNACIONES_COMPLETAS--><g id="link_:mostrarAsignacionesCompletas_ASIGNACIONES_COMPLETAS"><path d="M406.5,830.4879 C406.5,848.5507 406.5,867.127 406.5,885.1739 " fill="none" id=":mostrarAsignacionesCompletas-to-ASIGNACIONES_COMPLETAS" style="stroke:#800080;stroke-width:1.0;"/><polygon fill="#800080" points="406.5,891.1739,410.5,882.1739,406.5,886.1739,402.5,882.1739,406.5,891.1739" style="stroke:#800080;stroke-width:1.0;"/></g><!--SRC=[VPF1Yjim48RlUefXznOmT7CeT0y5nrcMG9ijc-qfX6LiJT9fRCcLvDAqz85wxYFiYtLanqcSfZK6OyslcK__ZFoMJOqEA_010y4F1J31OhjnjZ4wiwLrSBrUqwjy72FMQNBxrTTuaxz1zLCfVqXYxBzov6FAr-EXkcH3OLSJrBRSnH-b0eUI84DlGHDyb4_gUMEmu9VV9Yvrlw5nw05XQWioWJmayCGLtJVeDADHQZQVPRC7I9RNTUFgabR9My1sgtl6anIg9ROcico5UpHATSM6VN2eXLigaW-DPkl1sv8B3dWx6eaoWMbKSTwmWzEK0kG8z9vCaT6jBNBmrk5B5D6nBdhrI5_PeuEwH7DQ_KesGdhKJIcG4rAH6Yh8iqOjFlHbM_daAEzi6u2saamayYv7gw5NiL8wN8hPpjoApxbZhZr0vr5yaa7BDFlQ6ivBSQQFFzANXZq7iHWBr2-_AYvi31-iataQicINMCv9khFs9CdPw1mQr0Kdw6MJb1J7QoeOI_w-dxeTqBUQ79EHvI5M5h4SwTwolvYMtkQE2dGRZDqKiXm_Mx30fh1LZO5pBcFlOlIJTUYarwiBHOvdbrx5QtHfZWQwsyf69rn_WQmXdqdDaW9wfVuRFXk6nUn-difzcjyjdhE7zn_UtJsbYpy0]--></g></svg>