<svg xmlns="http://www.w3.org/2000/svg" xmlns:xlink="http://www.w3.org/1999/xlink" contentStyleType="text/css" height="562px" preserveAspectRatio="none" style="width:583px;height:562px;background:#FFFFFF;" version="1.1" viewBox="0 0 583 562" width="583px" zoomAndPan="magnify"><defs/><g><text fill="#000000" font-family="sans-serif" font-size="14" font-weight="bold" lengthAdjust="spacing" textLength="296.2969" x="133.5395" y="22.9951">Caso de Uso - Creaci&#243;n de Asignatura</text><ellipse cx="288.69" cy="53.2969" fill="#222222" rx="10" ry="10" style="stroke:#222222;stroke-width:1.0;"/><path d="M19.5,173.2969 L557.8759,173.2969 A12.5,12.5 0 0 1 570.3759,185.7969 L570.3759,199.5938 L7,199.5938 L7,185.7969 A12.5,12.5 0 0 1 19.5,173.2969 " fill="#FAF4B4" style="stroke:#FAF4B4;stroke-width:1.0;"/><rect fill="none" height="383.2969" rx="12.5" ry="12.5" style="stroke:#C90000;stroke-width:0.5;" width="563.3759" x="7" y="173.2969"/><line style="stroke:#C90000;stroke-width:0.5;" x1="7" x2="570.3759" y1="199.5938" y2="199.5938"/><text fill="#000000" font-family="sans-serif" font-size="14" lengthAdjust="spacing" textLength="36.8047" x="270.2856" y="191.292">inicio</text><g id="inicio.state1"><rect fill="#FAF4B4" height="50" rx="12.5" ry="12.5" style="stroke:#C90000;stroke-width:0.5;" width="50" x="19" y="266.5938"/><line style="stroke:#C90000;stroke-width:0.5;" x1="19" x2="69" y1="292.8906" y2="292.8906"/><text fill="#000000" font-family="sans-serif" font-size="14" lengthAdjust="spacing" textLength="4.4502" x="41.7749" y="284.5889">&#160;</text></g><g id="inicio.state2"><rect fill="#FAF4B4" height="50" rx="12.5" ry="12.5" style="stroke:#C90000;stroke-width:0.5;" width="50" x="19" y="352.5938"/><line style="stroke:#C90000;stroke-width:0.5;" x1="19" x2="69" y1="378.8906" y2="378.8906"/><text fill="#000000" font-family="sans-serif" font-size="14" lengthAdjust="spacing" textLength="4.4502" x="41.7749" y="370.5889">&#160;</text></g><g id="inicio.state3"><rect fill="#FAF4B4" height="50" rx="12.5" ry="12.5" style="stroke:#C90000;stroke-width:0.5;" width="50" x="19" y="438.5938"/><line style="stroke:#C90000;stroke-width:0.5;" x1="19" x2="69" y1="464.8906" y2="464.8906"/><text fill="#000000" font-family="sans-serif" font-size="14" lengthAdjust="spacing" textLength="4.4502" x="41.7749" y="456.5889">&#160;</text></g><ellipse cx="44" cy="220.5938" fill="#222222" rx="10" ry="10" style="stroke:#222222;stroke-width:1.0;"/><g id="elem_GMN10"><path d="M87.07,271.4638 L87.07,287.5938 L69.2,291.5938 L87.07,295.5938 L87.07,311.7294 A0,0 0 0 0 87.07,311.7294 L400.9255,311.7294 A0,0 0 0 0 400.9255,311.7294 L400.9255,281.4638 L390.9255,271.4638 L87.07,271.4638 A0,0 0 0 0 87.07,271.4638 " fill="#F5F5F5" style="stroke:#181818;stroke-width:0.5;"/><path d="M390.9255,271.4638 L390.9255,281.4638 L400.9255,281.4638 L390.9255,271.4638 " fill="#F5F5F5" style="stroke:#181818;stroke-width:0.5;"/><text fill="#000000" font-family="sans-serif" font-size="13" font-weight="bold" lengthAdjust="spacing" textLength="146.2817" x="93.07" y="288.5306">Coordinador define:</text><text fill="#000000" font-family="sans-serif" font-size="13" lengthAdjust="spacing" textLength="292.8555" x="93.07" y="303.6635">- Contenidos y evaluaciones de la asignatura</text></g><g id="elem_GMN14"><path d="M86.58,357.4638 L86.58,373.5938 L69.43,377.5938 L86.58,381.5938 L86.58,397.7294 A0,0 0 0 0 86.58,397.7294 L283.4228,397.7294 A0,0 0 0 0 283.4228,397.7294 L283.4228,367.4638 L273.4228,357.4638 L86.58,357.4638 A0,0 0 0 0 86.58,357.4638 " fill="#F5F5F5" style="stroke:#181818;stroke-width:0.5;"/><path d="M273.4228,357.4638 L273.4228,367.4638 L283.4228,367.4638 L273.4228,357.4638 " fill="#F5F5F5" style="stroke:#181818;stroke-width:0.5;"/><text fill="#000000" font-family="sans-serif" font-size="13" font-weight="bold" lengthAdjust="spacing" textLength="164.709" x="92.58" y="374.5306">Coordinador confirma:</text><text fill="#000000" font-family="sans-serif" font-size="13" lengthAdjust="spacing" textLength="175.8428" x="92.58" y="389.6635">- Creaci&#243;n de la asignatura</text></g><g id="elem_GMN18"><path d="M86.62,451.0238 L86.62,459.5938 L69.01,463.5938 L86.62,467.5938 L86.62,476.1566 A0,0 0 0 0 86.62,476.1566 L561.3759,476.1566 A0,0 0 0 0 561.3759,476.1566 L561.3759,461.0238 L551.3759,451.0238 L86.62,451.0238 A0,0 0 0 0 86.62,451.0238 " fill="#F5F5F5" style="stroke:#181818;stroke-width:0.5;"/><path d="M551.3759,451.0238 L551.3759,461.0238 L561.3759,461.0238 L551.3759,451.0238 " fill="#F5F5F5" style="stroke:#181818;stroke-width:0.5;"/><text fill="#000000" font-family="sans-serif" font-size="13" lengthAdjust="spacing" textLength="453.7559" x="92.62" y="468.0906">Asignatura creada y lista para ser incluida en el programa acad&#233;mico</text></g><ellipse cx="44" cy="535.5938" fill="none" rx="11" ry="11" style="stroke:#222222;stroke-width:1.0;"/><ellipse cx="44" cy="535.5938" fill="#222222" rx="6" ry="6" style="stroke:#222222;stroke-width:1.0;"/><!--link *start*inicio to state1--><g id="link_*start*inicio_state1"><path d="M44,230.9038 C44,239.9438 44,248.0838 44,260.3238 " fill="none" id="*start*inicio-to-state1" style="stroke:#008000;stroke-width:1.0;"/><polygon fill="#008000" points="44,266.3238,48,257.3238,44,261.3238,40,257.3238,44,266.3238" style="stroke:#008000;stroke-width:1.0;"/></g><!--link state1 to state2--><g id="link_state1_state2"><path d="M44,316.8938 C44,328.0338 44,335.2138 44,346.3538 " fill="none" id="state1-to-state2" style="stroke:#008000;stroke-width:1.0;"/><polygon fill="#008000" points="44,352.3538,48,343.3538,44,347.3538,40,343.3538,44,352.3538" style="stroke:#008000;stroke-width:1.0;"/></g><!--link state2 to state3--><g id="link_state2_state3"><path d="M44,402.8938 C44,414.0338 44,421.2138 44,432.3538 " fill="none" id="state2-to-state3" style="stroke:#008000;stroke-width:1.0;"/><polygon fill="#008000" points="44,438.3538,48,429.3538,44,433.3538,40,429.3538,44,438.3538" style="stroke:#008000;stroke-width:1.0;"/></g><!--link state3 to *end*inicio--><g id="link_state3_*end*inicio"><path d="M44,489.0738 C44,501.0638 44,508.8638 44,518.0938 " fill="none" id="state3-to-*end*inicio" style="stroke:#008000;stroke-width:1.0;"/><polygon fill="#008000" points="44,524.0938,48,515.0938,44,519.0938,40,515.0938,44,524.0938" style="stroke:#008000;stroke-width:1.0;"/></g><!--link *start* to inicio--><g id="link_*start*_inicio"><path d="M288.69,63.5669 C288.69,81.8269 288.69,118.8969 288.69,166.8769 " fill="none" id="*start*-to-inicio" style="stroke:#008000;stroke-width:1.0;"/><polygon fill="#008000" points="288.69,172.8769,292.69,163.8769,288.69,167.8769,284.69,163.8769,288.69,172.8769" style="stroke:#008000;stroke-width:1.0;"/><path d="M293.69,98.2969 L293.69,138.2969 L547.69,138.2969 L547.69,108.2969 L537.69,98.2969 L293.69,98.2969 " fill="#F5F5F5" style="stroke:#181818;stroke-width:0.5;"/><path d="M537.69,98.2969 L537.69,108.2969 L547.69,108.2969 L537.69,98.2969 " fill="#F5F5F5" style="stroke:#181818;stroke-width:0.5;"/><text fill="#000000" font-family="sans-serif" font-size="13" font-weight="bold" lengthAdjust="spacing" textLength="221.6157" x="299.69" y="115.3638">Coordinador acad&#233;mico inicia:</text><text fill="#000000" font-family="sans-serif" font-size="13" lengthAdjust="spacing" textLength="233.7271" x="299.69" y="130.4966">- Proceso de creaci&#243;n de asignatura</text></g><!--SRC=[XP91JiCm44NtFiM8xY9LeabPm089SW4shAek1diIhBgUo7QGAjG3iUO8lHYJf6hJ4aGSAVBFQFv_ziIDzGq6t49Cc0W-5S0pwaqTkFMcPCS1PXLMoxTbzuU3eN1KzVsjF6glL3mryVndZxjkNLOxwodj6eA6tQxRA9LiSWGbHWP3y2gVEPI1KDl3j- -afsXhZwaDgDGgMyDyDQi3aL_F7y5wgoshFWJxhlr6ecHPoPBRUZGI13MQmzVMQXxAyI7Bf6WEBu4r3RPwR8XdG_Ac9nI6_h06lvvt46vaOHmsYqardrGBKUMzvZdrwOc2hTyJS7MMhzaCLNA80r27LB9FvAtX23kW3tIjOB6ds74v7AC1dE2E0HU_e-JJKVA9A9fzPSCMHs76X_gVUVxRl9WsB_hsvwdeBy-W03ih1T1D6aGASbdQjLR-a0Toq0IkPGPnD10JEOgB778_Qly3]--></g></svg>