<?xml version="1.0" encoding="us-ascii" standalone="no"?><svg xmlns="http://www.w3.org/2000/svg" xmlns:xlink="http://www.w3.org/1999/xlink" contentStyleType="text/css" height="660px" preserveAspectRatio="none" style="width:486px;height:660px;background:#FFFFFF;" version="1.1" viewBox="0 0 486 660" width="486px" zoomAndPan="magnify"><defs/><g><text fill="#000000" font-family="sans-serif" font-size="14" font-weight="bold" lengthAdjust="spacing" textLength="351" x="60.75" y="22.9951">Caso de Uso - Creaci&#243;n de Perfil de Docente</text><ellipse cx="93" cy="53.2969" fill="#222222" rx="10" ry="10" style="stroke:#222222;stroke-width:1.0;"/><g id="inicio"><rect fill="#E6EE9C" height="50" rx="12.5" ry="12.5" style="stroke:#004D40;stroke-width:0.5;" width="58" x="64" y="124.2969"/><line style="stroke:#004D40;stroke-width:0.5;" x1="64" x2="122" y1="150.5938" y2="150.5938"/><text fill="#000000" font-family="sans-serif" font-size="14" lengthAdjust="spacing" textLength="38" x="74" y="142.292">inicio</text></g><g id="elem_GMN5"><path d="M157.5,129.2969 L157.5,145.2969 L122.281,149.2969 L157.5,153.2969 L157.5,169.5625 A0,0 0 0 0 157.5,169.5625 L448.5,169.5625 A0,0 0 0 0 448.5,169.5625 L448.5,139.2969 L438.5,129.2969 L157.5,129.2969 A0,0 0 0 0 157.5,129.2969 " fill="#FFE0B2" style="stroke:#181818;stroke-width:0.5;"/><path d="M438.5,129.2969 L438.5,139.2969 L448.5,139.2969 L438.5,129.2969 " fill="#FFE0B2" style="stroke:#181818;stroke-width:0.5;"/><text fill="#000000" font-family="sans-serif" font-size="13" font-weight="bold" lengthAdjust="spacing" textLength="248" x="163.5" y="146.3638">Administrador del sistema inicia:</text><text fill="#000000" font-family="sans-serif" font-size="13" lengthAdjust="spacing" textLength="270" x="163.5" y="161.4966">- Proceso de creaci&#243;n de perfil de docente</text></g><g id="ingresar_datos"><rect fill="#E6EE9C" height="50" rx="12.5" ry="12.5" style="stroke:#004D40;stroke-width:0.5;" width="125" x="30.5" y="235.2969"/><line style="stroke:#004D40;stroke-width:0.5;" x1="30.5" x2="155.5" y1="261.5938" y2="261.5938"/><text fill="#000000" font-family="sans-serif" font-size="14" lengthAdjust="spacing" textLength="105" x="40.5" y="253.292">ingresar_datos</text></g><g id="elem_GMN10"><path d="M191,247.7969 L191,272.9297 L457,272.9297 L457,257.7969 L447,247.7969 L191,247.7969 " fill="#FFE0B2" style="stroke:#181818;stroke-width:0.5;"/><path d="M447,247.7969 L447,257.7969 L457,257.7969 L447,247.7969 " fill="#FFE0B2" style="stroke:#181818;stroke-width:1.0;"/><text fill="#000000" font-family="sans-serif" font-size="13" lengthAdjust="spacing" textLength="245" x="197" y="264.8638">Ingresar datos personales del docente</text></g><g id="verificar_informaci&#243;n"><rect fill="#E6EE9C" height="50" rx="12.5" ry="12.5" style="stroke:#004D40;stroke-width:0.5;" width="172" x="7" y="410.2969"/><line style="stroke:#004D40;stroke-width:0.5;" x1="7" x2="179" y1="436.5938" y2="436.5938"/><text fill="#000000" font-family="sans-serif" font-size="14" lengthAdjust="spacing" textLength="152" x="17" y="428.292">verificar_informaci&#243;n</text></g><g id="confirmar_creaci&#243;n"><rect fill="#E6EE9C" height="50" rx="12.5" ry="12.5" style="stroke:#004D40;stroke-width:0.5;" width="158" x="14" y="521.2969"/><line style="stroke:#004D40;stroke-width:0.5;" x1="14" x2="172" y1="547.5938" y2="547.5938"/><text fill="#000000" font-family="sans-serif" font-size="14" lengthAdjust="spacing" textLength="138" x="24" y="539.292">confirmar_creaci&#243;n</text></g><g id="elem_GMN17"><path d="M214.5,422.7969 L214.5,431.2969 L179.136,435.2969 L214.5,439.2969 L214.5,447.9297 A0,0 0 0 0 214.5,447.9297 L479.5,447.9297 A0,0 0 0 0 479.5,447.9297 L479.5,432.7969 L469.5,422.7969 L214.5,422.7969 A0,0 0 0 0 214.5,422.7969 " fill="#FFE0B2" style="stroke:#181818;stroke-width:0.5;"/><path d="M469.5,422.7969 L469.5,432.7969 L479.5,432.7969 L469.5,422.7969 " fill="#FFE0B2" style="stroke:#181818;stroke-width:0.5;"/><text fill="#000000" font-family="sans-serif" font-size="13" lengthAdjust="spacing" textLength="244" x="220.5" y="439.8638">Verificar la precisi&#243;n de la informaci&#243;n</text></g><ellipse cx="93" cy="643.2969" fill="none" rx="11" ry="11" style="stroke:#222222;stroke-width:1.0;"/><ellipse cx="93" cy="643.2969" fill="#222222" rx="6" ry="6" style="stroke:#222222;stroke-width:1.0;"/><g id="elem_GMN22"><path d="M207,533.7969 L207,558.9297 L477,558.9297 L477,543.7969 L467,533.7969 L207,533.7969 " fill="#FFE0B2" style="stroke:#181818;stroke-width:0.5;"/><path d="M467,533.7969 L467,543.7969 L477,543.7969 L467,533.7969 " fill="#FFE0B2" style="stroke:#181818;stroke-width:1.0;"/><text fill="#000000" font-family="sans-serif" font-size="13" lengthAdjust="spacing" textLength="249" x="213" y="550.8638">Perfil de docente creado exitosamente</text></g><!--link *start* to inicio--><g id="link_*start*_inicio"><path d="M93,63.3099 C93,77.1879 93,98.2619 93,118.1369 " fill="none" id="*start*-to-inicio" style="stroke:#008000;stroke-width:1.0;"/><polygon fill="#008000" points="93,124.1369,97,115.1369,93,119.1369,89,115.1369,93,124.1369" style="stroke:#008000;stroke-width:1.0;"/></g><!--link inicio to ingresar_datos--><g id="link_inicio_ingresar_datos"><path d="M93,174.4879 C93,192.5509 93,211.1269 93,229.1739 " fill="none" id="inicio-to-ingresar_datos" style="stroke:#008000;stroke-width:1.0;"/><polygon fill="#008000" points="93,235.1739,97,226.1739,93,230.1739,89,226.1739,93,235.1739" style="stroke:#008000;stroke-width:1.0;"/></g><!--link ingresar_datos to GMN10--><g id="link_ingresar_datos_GMN10"><path d="M155.517,260.2969 C164.077,260.2969 170,260.2969 170,260.2969 C170,260.2969 178.893,260.2969 190.635,260.2969 " fill="none" id="ingresar_datos-GMN10" style="stroke:#181818;stroke-width:1.0;stroke-dasharray:7.0,7.0;"/></g><!--link ingresar_datos to verificar_informaci?n--><g id="link_ingresar_datos_verificar_informaci&#243;n"><path d="M93,285.3519 C93,318.3109 93,371.1699 93,404.1679 " fill="none" id="ingresar_datos-to-verificar_informaci&#243;n" style="stroke:#008000;stroke-width:1.0;"/><polygon fill="#008000" points="93,410.1679,97,401.1679,93,405.1679,89,401.1679,93,410.1679" style="stroke:#008000;stroke-width:1.0;"/><path d="M98,320.2969 L98,375.2969 L179,375.2969 L179,330.2969 L169,320.2969 L98,320.2969 " fill="#FFE0B2" style="stroke:#181818;stroke-width:0.5;"/><path d="M169,320.2969 L169,330.2969 L179,330.2969 L169,320.2969 " fill="#FFE0B2" style="stroke:#181818;stroke-width:0.5;"/><text fill="#000000" font-family="sans-serif" font-size="13" font-weight="bold" lengthAdjust="spacing" textLength="57" x="104" y="337.3638">Incluye:</text><text fill="#000000" font-family="sans-serif" font-size="13" lengthAdjust="spacing" textLength="60" x="104" y="352.4966">- Nombre</text><text fill="#000000" font-family="sans-serif" font-size="13" lengthAdjust="spacing" textLength="59" x="104" y="367.6294">- Apellido</text></g><!--link verificar_informaci?n to confirmar_creaci?n--><g id="link_verificar_informaci&#243;n_confirmar_creaci&#243;n"><path d="M93,460.4879 C93,478.5509 93,497.1269 93,515.1739 " fill="none" id="verificar_informaci&#243;n-to-confirmar_creaci&#243;n" style="stroke:#008000;stroke-width:1.0;"/><polygon fill="#008000" points="93,521.1739,97,512.1739,93,516.1739,89,512.1739,93,521.1739" style="stroke:#008000;stroke-width:1.0;"/></g><!--link confirmar_creaci?n to *end*--><g id="link_confirmar_creaci&#243;n_*end*"><path d="M93,571.7618 C93,591.3333 93,611.789 93,626.0936 " fill="none" id="confirmar_creaci&#243;n-to-*end*" style="stroke:#008000;stroke-width:1.0;"/><polygon fill="#008000" points="93,632.0936,97,623.0936,93,627.0936,89,623.0936,93,632.0936" style="stroke:#008000;stroke-width:1.0;"/></g><!--link confirmar_creaci?n to GMN22--><g id="link_confirmar_creaci&#243;n_GMN22"><path d="M172.434,546.2969 C174.703,546.2969 176,546.2969 176,546.2969 C176,546.2969 190.23,546.2969 206.906,546.2969 " fill="none" id="confirmar_creaci&#243;n-GMN22" style="stroke:#181818;stroke-width:1.0;stroke-dasharray:7.0,7.0;"/></g><!--SRC=[TPB1QiCm38RlVWf1Ru526MMm7GPTT-bbzB9TIYckhNIYZXLaTwoCFTKUOIys9scwf4jFaIL5_wVV3dlofHPTG8Ww8dmgW4TjzZlXWxTpTYmmmbl4ErDLM2pAAJkPJErqehwK2kSXdg_Do7ESR6_wtOuyncE9KB8xLWUb8aM7CDU1mIAyfCyOveBQqC-thr9Bb9nS5JsnGH_JFwji3UFLQ2U8VZr-0F9aY5ND8hHxYy1vcmJ8ifajqYb4qJQHMNGGqWaBtJJf-onBVMDOIb9eG4mNeJmZs1C2UbklhbGZSu6Jmg1bOtNay0-hLmHOd19G9ogjm5ux33Nea61tG4_u7OLoCgb6FcSfcWqQ0FQL-_lQZuKtxd34TkrdBhQ2TJWhqJcotD4R7jhJDUnpIXNPd6sxsFeA6S1hMm2deHGq55hNNNKzdUO_f06z7azw7nVwGuJGULedc-jhjmpuGSbRNVIi_mK0]--></g></svg>