<svg xmlns="http://www.w3.org/2000/svg" xmlns:xlink="http://www.w3.org/1999/xlink" contentStyleType="text/css" height="803px" preserveAspectRatio="none" style="width:501px;height:803px;background:#FFFFFF;" version="1.1" viewBox="0 0 501 803" width="501px" zoomAndPan="magnify"><defs/><g><text fill="#000000" font-family="sans-serif" font-size="14" font-weight="bold" lengthAdjust="spacing" textLength="416" x="32.25" y="22.9951">Caso de Uso Crear un Nuevo Horario - TimeGuardian</text><g id="P&#193;GINA_PRINCIPAL"><rect fill="#FAF4B4" height="50" rx="12.5" ry="12.5" style="stroke:#C90000;stroke-width:0.5;" width="148" x="173.25" y="44.2969"/><line style="stroke:#C90000;stroke-width:0.5;" x1="173.25" x2="321.25" y1="70.5938" y2="70.5938"/><text fill="#000000" font-family="sans-serif" font-size="14" lengthAdjust="spacing" textLength="128" x="183.25" y="62.292">P&#193;GINA_PRINCIPAL</text></g><path d="M19.5,204.2969 L475,204.2969 A12.5,12.5 0 0 1 487.5,216.7969 L487.5,230.5938 L7,230.5938 L7,216.7969 A12.5,12.5 0 0 1 19.5,204.2969 " fill="#FAF4B4" style="stroke:#FAF4B4;stroke-width:1.0;"/><rect fill="none" height="483.2969" rx="12.5" ry="12.5" style="stroke:#C90000;stroke-width:0.5;" width="480.5" x="7" y="204.2969"/><line style="stroke:#C90000;stroke-width:0.5;" x1="7" x2="487.5" y1="230.5938" y2="230.5938"/><text fill="#000000" font-family="sans-serif" font-size="14" lengthAdjust="spacing" textLength="130" x="182.25" y="222.292">CrearNuevoHorario</text><g id="CrearNuevoHorario.Cargar"><rect fill="#FAF4B4" height="50" rx="12.5" ry="12.5" style="stroke:#C90000;stroke-width:0.5;" width="142" x="27.5" y="297.5938"/><line style="stroke:#C90000;stroke-width:0.5;" x1="27.5" x2="169.5" y1="323.8906" y2="323.8906"/><text fill="#000000" font-family="sans-serif" font-size="14" lengthAdjust="spacing" textLength="122" x="37.5" y="315.5889">Cargar Asignatura</text></g><g id="CrearNuevoHorario.Ingresar"><rect fill="#FAF4B4" height="50" rx="12.5" ry="12.5" style="stroke:#C90000;stroke-width:0.5;" width="159" x="19" y="433.5938"/><line style="stroke:#C90000;stroke-width:0.5;" x1="19" x2="178" y1="459.8906" y2="459.8906"/><text fill="#000000" font-family="sans-serif" font-size="14" lengthAdjust="spacing" textLength="139" x="29" y="451.5889">Cargar Horario Vacio</text></g><g id="CrearNuevoHorario.Guardar"><rect fill="#FAF4B4" height="50" rx="12.5" ry="12.5" style="stroke:#C90000;stroke-width:0.5;" width="128" x="34.5" y="569.5938"/><line style="stroke:#C90000;stroke-width:0.5;" x1="34.5" x2="162.5" y1="595.8906" y2="595.8906"/><text fill="#000000" font-family="sans-serif" font-size="14" lengthAdjust="spacing" textLength="108" x="44.5" y="587.5889">Guardar Horario</text></g><ellipse cx="98.5" cy="251.5938" fill="#222222" rx="10" ry="10" style="stroke:#222222;stroke-width:1.0;"/><ellipse cx="98.5" cy="666.5938" fill="none" rx="11" ry="11" style="stroke:#222222;stroke-width:1.0;"/><ellipse cx="98.5" cy="666.5938" fill="#222222" rx="6" ry="6" style="stroke:#222222;stroke-width:1.0;"/><!--link *start*CrearNuevoHorario to Cargar--><g id="link_*start*CrearNuevoHorario_Cargar"><path d="M98.5,261.9038 C98.5,270.9438 98.5,279.0838 98.5,291.3238 " fill="none" id="*start*CrearNuevoHorario-to-Cargar" style="stroke:#008000;stroke-width:1.0;"/><polygon fill="#008000" points="98.5,297.3238,102.5,288.3238,98.5,292.3238,94.5,288.3238,98.5,297.3238" style="stroke:#008000;stroke-width:1.0;"/></g><!--link Cargar to Ingresar--><g id="link_Cargar_Ingresar"><path d="M98.5,347.8638 C98.5,372.1438 98.5,403.2838 98.5,427.5037 " fill="none" id="Cargar-to-Ingresar" style="stroke:#008000;stroke-width:1.0;"/><polygon fill="#008000" points="98.5,433.5037,102.5,424.5037,98.5,428.5037,94.5,424.5037,98.5,433.5037" style="stroke:#008000;stroke-width:1.0;"/><path d="M103.5,370.5938 L103.5,410.5938 L286.5,410.5938 L286.5,380.5938 L276.5,370.5938 L103.5,370.5938 " fill="#F5F5F5" style="stroke:#181818;stroke-width:0.5;"/><path d="M276.5,370.5938 L276.5,380.5938 L286.5,380.5938 L276.5,370.5938 " fill="#F5F5F5" style="stroke:#181818;stroke-width:0.5;"/><text fill="#000000" font-family="sans-serif" font-size="13" font-weight="bold" lengthAdjust="spacing" textLength="120" x="109.5" y="387.6606">Usuario ingresa:</text><text fill="#000000" font-family="sans-serif" font-size="13" lengthAdjust="spacing" textLength="162" x="109.5" y="402.7935">- Datos del nuevo horario</text></g><!--link Ingresar to Guardar--><g id="link_Ingresar_Guardar"><path d="M98.5,483.8638 C98.5,508.1438 98.5,539.2838 98.5,563.5038 " fill="none" id="Ingresar-to-Guardar" style="stroke:#008000;stroke-width:1.0;"/><polygon fill="#008000" points="98.5,569.5038,102.5,560.5038,98.5,564.5038,94.5,560.5038,98.5,569.5038" style="stroke:#008000;stroke-width:1.0;"/><path d="M103.5,506.5938 L103.5,546.5938 L478.5,546.5938 L478.5,516.5938 L468.5,506.5938 L103.5,506.5938 " fill="#F5F5F5" style="stroke:#181818;stroke-width:0.5;"/><path d="M468.5,506.5938 L468.5,516.5938 L478.5,516.5938 L468.5,506.5938 " fill="#F5F5F5" style="stroke:#181818;stroke-width:0.5;"/><text fill="#000000" font-family="sans-serif" font-size="13" font-weight="bold" lengthAdjust="spacing" textLength="122" x="109.5" y="523.6606">Sistema guarda:</text><text fill="#000000" font-family="sans-serif" font-size="13" lengthAdjust="spacing" textLength="354" x="109.5" y="538.7935">- El nuevo horario creado con asignaturas ya asignadas</text></g><!--link Guardar to *end*CrearNuevoHorario--><g id="link_Guardar_*end*CrearNuevoHorario"><path d="M98.5,620.0738 C98.5,632.0638 98.5,639.8638 98.5,649.0938 " fill="none" id="Guardar-to-*end*CrearNuevoHorario" style="stroke:#008000;stroke-width:1.0;"/><polygon fill="#008000" points="98.5,655.0938,102.5,646.0938,98.5,650.0938,94.5,646.0938,98.5,655.0938" style="stroke:#008000;stroke-width:1.0;"/></g><g id="PAGINA_PRINCIPAL"><rect fill="#FAF4B4" height="50" rx="12.5" ry="12.5" style="stroke:#C90000;stroke-width:0.5;" width="148" x="173.25" y="747.5969"/><line style="stroke:#C90000;stroke-width:0.5;" x1="173.25" x2="321.25" y1="773.8938" y2="773.8938"/><text fill="#000000" font-family="sans-serif" font-size="14" lengthAdjust="spacing" textLength="128" x="183.25" y="765.592">PAGINA_PRINCIPAL</text></g><!--link P?GINA_PRINCIPAL to CrearNuevoHorario--><g id="link_P&#193;GINA_PRINCIPAL_CrearNuevoHorario"><path d="M247.25,94.5969 C247.25,118.9969 247.25,153.3269 247.25,198.1069 " fill="none" id="P&#193;GINA_PRINCIPAL-to-CrearNuevoHorario" style="stroke:#008000;stroke-width:1.0;"/><polygon fill="#008000" points="247.25,204.1069,251.25,195.1069,247.25,199.1069,243.25,195.1069,247.25,204.1069" style="stroke:#008000;stroke-width:1.0;"/><path d="M252.25,129.2969 L252.25,169.2969 L429.25,169.2969 L429.25,139.2969 L419.25,129.2969 L252.25,129.2969 " fill="#F5F5F5" style="stroke:#181818;stroke-width:0.5;"/><path d="M419.25,129.2969 L419.25,139.2969 L429.25,139.2969 L419.25,129.2969 " fill="#F5F5F5" style="stroke:#181818;stroke-width:0.5;"/><text fill="#000000" font-family="sans-serif" font-size="13" font-weight="bold" lengthAdjust="spacing" textLength="142" x="258.25" y="146.3638">Usuario selecciona:</text><text fill="#000000" font-family="sans-serif" font-size="13" lengthAdjust="spacing" textLength="156" x="258.25" y="161.4966">- Crear un nuevo horario</text></g><!--link CrearNuevoHorario to PAGINA_PRINCIPAL--><g id="link_CrearNuevoHorario_PAGINA_PRINCIPAL"><path d="M247.25,687.9869 C247.25,711.7169 247.25,726.4769 247.25,741.3769 " fill="none" id="CrearNuevoHorario-to-PAGINA_PRINCIPAL" style="stroke:#008000;stroke-width:1.0;"/><polygon fill="#008000" points="247.25,747.3769,251.25,738.3769,247.25,742.3769,243.25,738.3769,247.25,747.3769" style="stroke:#008000;stroke-width:1.0;"/></g><!--SRC=[TL9TIyCm57tFhxYujqB1X_cW3qAjCWioYZfVnf1hUrV3kcGagJ341t-RVypRjEl7faqX9FVad7DFOZTIxT3W5gn3H_0f06umsnH6LogFTQaDJDQudhvDwuesEPbsDxiyvqzy2M4x4gN_vRYennXTIaLkloFOwN9VBuHmqfK4CLeDES62fzWG6gWKp2lwq72l3Hgf8OHdkQLPXIQNg8H8VxvdoJnwJH-JUPoaqGE4oqbXYDGgl6v8F45xNdYdMjKUDkmt21QsyiIMIieogHLU1G5Nmjw1yWxUMmPIkU-NE_BHdMZu89hQMOocO9B8oaAXgmoU0LfeTazGX_Clo3uyC57SYXr2VUSzrgFQFGRnlmnMumWEMgt8i3QWFyfbc8niK4qiTJ2twBJbUogFaW7eie6EUoJOE_r3xqbQHrk4meDwkRiZ7SWuyPmdFevTi1Rss2vpj6ClXz26LZYd-bMUtjuGb4RZn_KB]--></g></svg>