<?xml version="1.0" encoding="us-ascii" standalone="no"?><svg xmlns="http://www.w3.org/2000/svg" xmlns:xlink="http://www.w3.org/1999/xlink" contentStyleType="text/css" height="947px" preserveAspectRatio="none" style="width:550px;height:947px;background:#FFFFFF;" version="1.1" viewBox="0 0 550 947" width="550px" zoomAndPan="magnify"><defs/><g><text fill="#000000" font-family="sans-serif" font-size="14" font-weight="bold" lengthAdjust="spacing" textLength="473" x="28.25" y="22.9951">Caso de Uso Creaci&#243;n de Horario de Clases - TimeGuardian</text><g id="INICIO"><rect fill="#FFF59D" height="50" rx="12.5" ry="12.5" style="stroke:#0288D1;stroke-width:0.5;" width="63" x="240.5" y="44.2969"/><line style="stroke:#0288D1;stroke-width:0.5;" x1="240.5" x2="303.5" y1="70.5938" y2="70.5938"/><text fill="#000000" font-family="sans-serif" font-size="14" lengthAdjust="spacing" textLength="43" x="250.5" y="62.292">INICIO</text></g><path d="M19.5,204.2969 L524,204.2969 A12.5,12.5 0 0 1 536.5,216.7969 L536.5,230.5938 L7,230.5938 L7,216.7969 A12.5,12.5 0 0 1 19.5,204.2969 " fill="#FFF59D" style="stroke:#FFF59D;stroke-width:1.0;"/><rect fill="none" height="515.2969" rx="12.5" ry="12.5" style="stroke:#0288D1;stroke-width:0.5;" width="529.5" x="7" y="204.2969"/><line style="stroke:#0288D1;stroke-width:0.5;" x1="7" x2="536.5" y1="230.5938" y2="230.5938"/><text fill="#000000" font-family="sans-serif" font-size="14" lengthAdjust="spacing" textLength="95" x="224.25" y="222.292">crear_horario</text><g id="crear_horario.A"><rect fill="#FFF59D" height="50" rx="12.5" ry="12.5" style="stroke:#0288D1;stroke-width:0.5;" width="170" x="117.5" y="298.5938"/><line style="stroke:#0288D1;stroke-width:0.5;" x1="117.5" x2="287.5" y1="324.8906" y2="324.8906"/><text fill="#000000" font-family="sans-serif" font-size="14" lengthAdjust="spacing" textLength="150" x="127.5" y="316.5889">Seleccionar materias</text></g><g id="crear_horario.B"><rect fill="#FFF59D" height="50" rx="12.5" ry="12.5" style="stroke:#0288D1;stroke-width:0.5;" width="131" x="19" y="449.5938"/><line style="stroke:#0288D1;stroke-width:0.5;" x1="19" x2="150" y1="475.8906" y2="475.8906"/><text fill="#000000" font-family="sans-serif" font-size="14" lengthAdjust="spacing" textLength="111" x="29" y="467.5889">Definir horarios</text></g><g id="crear_horario.C"><rect fill="#FFF59D" height="50" rx="12.5" ry="12.5" style="stroke:#0288D1;stroke-width:0.5;" width="147" x="135" y="600.5938"/><line style="stroke:#0288D1;stroke-width:0.5;" x1="135" x2="282" y1="626.8906" y2="626.8906"/><text fill="#000000" font-family="sans-serif" font-size="14" lengthAdjust="spacing" textLength="127" x="145" y="618.5889">Confirmar horario</text></g><ellipse cx="202.5" cy="251.5938" fill="#222222" rx="10" ry="10" style="stroke:#222222;stroke-width:1.0;"/><ellipse cx="208.5" cy="698.5938" fill="none" rx="11" ry="11" style="stroke:#222222;stroke-width:1.0;"/><ellipse cx="208.5" cy="698.5938" fill="#222222" rx="6" ry="6" style="stroke:#222222;stroke-width:1.0;"/><!--link *start*crear_horario to A--><g id="link_*start*crear_horario_A"><path d="M202.5,261.7448 C202.5,271.0098 202.5,279.7348 202.5,292.3778 " fill="none" id="*start*crear_horario-to-A" style="stroke:#0000FF;stroke-width:1.0;"/><polygon fill="#0000FF" points="202.5,298.3778,206.5,289.3778,202.5,293.3778,198.5,289.3778,202.5,298.3778" style="stroke:#0000FF;stroke-width:1.0;"/></g><!--link A to B--><g id="link_A_B"><path d="M133.166,348.6598 C106.1303,358.0448 81.5,366.5938 81.5,366.5938 C81.5,366.5938 81.5,431.5938 81.5,431.5938 C81.5,431.5938 81.6674,433.938 82.3274,443.177 " fill="none" id="A-to-B" style="stroke:#0000FF;stroke-width:1.0;"/><polygon fill="#0000FF" points="82.7549,449.1618,86.1034,439.8996,82.3986,444.1745,78.1238,440.4696,82.7549,449.1618" style="stroke:#0000FF;stroke-width:1.0;"/><path d="M86.5,371.5938 L86.5,426.5938 L306.5,426.5938 L306.5,381.5938 L296.5,371.5938 L86.5,371.5938 " fill="#B2DFDB" style="stroke:#181818;stroke-width:0.5;"/><path d="M296.5,371.5938 L296.5,381.5938 L306.5,381.5938 L296.5,371.5938 " fill="#B2DFDB" style="stroke:#181818;stroke-width:0.5;"/><text fill="#000000" font-family="sans-serif" font-size="13" font-weight="bold" lengthAdjust="spacing" textLength="161" x="92.5" y="388.6606">Profesor debe elegir:</text><text fill="#000000" font-family="sans-serif" font-size="13" lengthAdjust="spacing" textLength="129" x="92.5" y="403.7935">- Materias a impartir</text><text fill="#000000" font-family="sans-serif" font-size="13" lengthAdjust="spacing" textLength="199" x="92.5" y="418.9263">- N&#250;mero de horas por materia</text></g><!--link B to C--><g id="link_B_C"><path d="M87.193,499.6068 C90.731,531.1538 96.5,582.5938 96.5,582.5938 C96.5,582.5938 113.6801,589.0359 138.7051,598.4209 " fill="none" id="B-to-C" style="stroke:#0000FF;stroke-width:1.0;"/><polygon fill="#0000FF" points="144.323,600.5278,137.3007,593.6222,139.6414,598.772,134.4915,601.1127,144.323,600.5278" style="stroke:#0000FF;stroke-width:1.0;"/><path d="M101.5,522.5938 L101.5,577.5938 L306.5,577.5938 L306.5,532.5938 L296.5,522.5938 L101.5,522.5938 " fill="#B2DFDB" style="stroke:#181818;stroke-width:0.5;"/><path d="M296.5,522.5938 L296.5,532.5938 L306.5,532.5938 L296.5,522.5938 " fill="#B2DFDB" style="stroke:#181818;stroke-width:0.5;"/><text fill="#000000" font-family="sans-serif" font-size="13" font-weight="bold" lengthAdjust="spacing" textLength="126" x="107.5" y="539.6606">Profesor asigna:</text><text fill="#000000" font-family="sans-serif" font-size="13" lengthAdjust="spacing" textLength="184" x="107.5" y="554.7935">- Horarios para cada materia</text><text fill="#000000" font-family="sans-serif" font-size="13" lengthAdjust="spacing" textLength="119" x="107.5" y="569.9263">- Aulas disponibles</text></g><!--link C to A--><g id="link_C_A"><path d="M267.52,600.5278 C290.534,591.1428 311.5,582.5938 311.5,582.5938 C311.5,582.5938 311.5,366.5938 311.5,366.5938 C311.5,366.5938 294.9107,360.2022 270.5567,350.8172 " fill="none" id="C-to-A" style="stroke:#FF0000;stroke-width:1.0;"/><polygon fill="#FF0000" points="264.958,348.6598,271.9177,355.6284,269.6236,350.4577,274.7943,348.1635,264.958,348.6598" style="stroke:#FF0000;stroke-width:1.0;"/><path d="M316.5,462.0938 L316.5,487.0938 L527.5,487.0938 L527.5,472.0938 L517.5,462.0938 L316.5,462.0938 " fill="#B2DFDB" style="stroke:#181818;stroke-width:0.5;"/><path d="M517.5,462.0938 L517.5,472.0938 L527.5,472.0938 L517.5,462.0938 " fill="#B2DFDB" style="stroke:#181818;stroke-width:0.5;"/><text fill="#000000" font-family="sans-serif" font-size="13" lengthAdjust="spacing" textLength="190" x="322.5" y="479.1606">[conflicto de horarios o aulas]</text></g><!--link C to *end*crear_horario--><g id="link_C_*end*crear_horario"><path d="M208.5,650.6311 C208.5,663.1829 208.5,671.8762 208.5,681.44 " fill="none" id="C-to-*end*crear_horario" style="stroke:#0000FF;stroke-width:1.0;"/><polygon fill="#0000FF" points="208.5,687.44,212.5,678.44,208.5,682.44,204.5,678.44,208.5,687.44" style="stroke:#0000FF;stroke-width:1.0;"/></g><g id=":mostrarHorarioFinal"><rect fill="#FFF59D" height="50" rx="12.5" ry="12.5" style="stroke:#0288D1;stroke-width:0.5;" width="167" x="188.5" y="780.2969"/><line style="stroke:#0288D1;stroke-width:0.5;" x1="188.5" x2="355.5" y1="806.5938" y2="806.5938"/><text fill="#000000" font-family="sans-serif" font-size="14" lengthAdjust="spacing" textLength="147" x="198.5" y="798.292">:mostrarHorarioFinal</text></g><g id="HORARIO_FINAL"><rect fill="#FFF59D" height="50" rx="12.5" ry="12.5" style="stroke:#0288D1;stroke-width:0.5;" width="133" x="205.5" y="891.2969"/><line style="stroke:#0288D1;stroke-width:0.5;" x1="205.5" x2="338.5" y1="917.5938" y2="917.5938"/><text fill="#000000" font-family="sans-serif" font-size="14" lengthAdjust="spacing" textLength="113" x="215.5" y="909.292">HORARIO_FINAL</text></g><!--link INICIO to crear_horario--><g id="link_INICIO_crear_horario"><path d="M272,94.4299 C272,118.7069 272,152.9299 272,198.0299 " fill="none" id="INICIO-to-crear_horario" style="stroke:#0000FF;stroke-width:1.0;"/><polygon fill="#0000FF" points="272,204.0299,276,195.0299,272,199.0299,268,195.0299,272,204.0299" style="stroke:#0000FF;stroke-width:1.0;"/><path d="M277,129.2969 L277,169.2969 L499,169.2969 L499,139.2969 L489,129.2969 L277,129.2969 " fill="#B2DFDB" style="stroke:#181818;stroke-width:0.5;"/><path d="M489,129.2969 L489,139.2969 L499,139.2969 L489,129.2969 " fill="#B2DFDB" style="stroke:#181818;stroke-width:0.5;"/><text fill="#000000" font-family="sans-serif" font-size="13" font-weight="bold" lengthAdjust="spacing" textLength="133" x="283" y="146.3638">Profesor solicita:</text><text fill="#000000" font-family="sans-serif" font-size="13" lengthAdjust="spacing" textLength="201" x="283" y="161.4966">- Crear nuevo horario de clases</text></g><!--link crear_horario to :mostrarHorarioFinal--><g id="link_crear_horario_:mostrarHorarioFinal"><path d="M272,719.4419 C272,743.8129 272,759.0259 272,774.1469 " fill="none" id="crear_horario-to-:mostrarHorarioFinal" style="stroke:#0000FF;stroke-width:1.0;"/><polygon fill="#0000FF" points="272,780.1469,276,771.1469,272,775.1469,268,771.1469,272,780.1469" style="stroke:#0000FF;stroke-width:1.0;"/></g><!--link :mostrarHorarioFinal to HORARIO_FINAL--><g id="link_:mostrarHorarioFinal_HORARIO_FINAL"><path d="M272,830.4879 C272,848.5507 272,867.127 272,885.1739 " fill="none" id=":mostrarHorarioFinal-to-HORARIO_FINAL" style="stroke:#0000FF;stroke-width:1.0;"/><polygon fill="#0000FF" points="272,891.1739,276,882.1739,272,886.1739,268,882.1739,272,891.1739" style="stroke:#0000FF;stroke-width:1.0;"/></g><!--SRC=[TLBDQjj04BxlKmp9JI1e0uKqXuAYaaRGsYLjJyQ4qUx86RpQDRjI8PG-LM-zviKwArkotBf283JpxVSpit7BReS1MuWTTWG_5C0jwkqc-DwPqbiVuB9fcZTlJUhuO2WSgg-khg_DQ_LJgJYHEFy_ZlhADAO-HLjsr3tl27RUFgSVfJhkB469qOCX-2QVCX1gVldbKk7U1mmyz4gBaIBay9LR-j1ZC8nEgMfHbTKIyjLbRNjQv-z02q5uV3gSL8D5xvBuLencsUVW6uhYCNhBcZkyoJ9fv8Do0DVJTmzFHs4z22joPeWhWOR9dSga6Uph5r_8ajRidP2rKWcCyG8mGd74lAU67OTHPj-_FVPBxneEBKw80L0AGDvLjfxdJRJ5l91u_agTdbboGpM1sDnms8TFJmwV3cu1WLjPMSTXwYrUVhSKXe4aIr5sECKJq3GTkGfpB-KvBpCd67dZS3IHZmiNUhaneD7WJ2G1YbxM0ORZpZkkhIpcHBnCue7CE9X_j5TQHYjxxwOeWvm7JCJhCsnZ51bxkiwdUv_rRreVEwaU8jonGwlKkUhyrFtoeNYebeztrQBu-0S0]--></g></svg>