<?xml version="1.0" encoding="us-ascii" standalone="no"?><svg xmlns="http://www.w3.org/2000/svg" xmlns:xlink="http://www.w3.org/1999/xlink" contentStyleType="text/css" height="1087px" preserveAspectRatio="none" style="width:632px;height:1087px;background:#FFFFFF;" version="1.1" viewBox="0 0 632 1087" width="632px" zoomAndPan="magnify"><defs/><g><text fill="#000000" font-family="sans-serif" font-size="14" font-weight="bold" lengthAdjust="spacing" textLength="580" x="15.75" y="22.9951">Caso de Uso Preparaci&#243;n de Asignaturas por el Docente - TimeGuardian</text><g id="INICIO"><rect fill="#FFCC80" height="50" rx="12.5" ry="12.5" style="stroke:#BF360C;stroke-width:0.5;" width="63" x="281.5" y="44.2969"/><line style="stroke:#BF360C;stroke-width:0.5;" x1="281.5" x2="344.5" y1="70.5938" y2="70.5938"/><text fill="#000000" font-family="sans-serif" font-size="14" lengthAdjust="spacing" textLength="43" x="291.5" y="62.292">INICIO</text></g><path d="M19.5,204.2969 L606,204.2969 A12.5,12.5 0 0 1 618.5,216.7969 L618.5,230.5938 L7,230.5938 L7,216.7969 A12.5,12.5 0 0 1 19.5,204.2969 " fill="#FFCC80" style="stroke:#FFCC80;stroke-width:1.0;"/><rect fill="none" height="655.2969" rx="12.5" ry="12.5" style="stroke:#BF360C;stroke-width:0.5;" width="611.5" x="7" y="204.2969"/><line style="stroke:#BF360C;stroke-width:0.5;" x1="7" x2="618.5" y1="230.5938" y2="230.5938"/><text fill="#000000" font-family="sans-serif" font-size="14" lengthAdjust="spacing" textLength="144" x="240.75" y="222.292">preparar_asignatura</text><g id="preparar_asignatura.A"><rect fill="#FFCC80" height="50" rx="12.5" ry="12.5" style="stroke:#BF360C;stroke-width:0.5;" width="256" x="73.5" y="298.5938"/><line style="stroke:#BF360C;stroke-width:0.5;" x1="73.5" x2="329.5" y1="324.8906" y2="324.8906"/><text fill="#000000" font-family="sans-serif" font-size="14" lengthAdjust="spacing" textLength="236" x="83.5" y="316.5889">Definir objetivos de la asignatura</text></g><g id="preparar_asignatura.B"><rect fill="#FFCC80" height="50" rx="12.5" ry="12.5" style="stroke:#BF360C;stroke-width:0.5;" width="365" x="19" y="434.5938"/><line style="stroke:#BF360C;stroke-width:0.5;" x1="19" x2="384" y1="460.8906" y2="460.8906"/><text fill="#000000" font-family="sans-serif" font-size="14" lengthAdjust="spacing" textLength="345" x="29" y="452.5889">Elaborar contenido y materiales de la asignatura</text></g><g id="preparar_asignatura.C"><rect fill="#FFCC80" height="50" rx="12.5" ry="12.5" style="stroke:#BF360C;stroke-width:0.5;" width="304" x="49.5" y="570.5938"/><line style="stroke:#BF360C;stroke-width:0.5;" x1="49.5" x2="353.5" y1="596.8906" y2="596.8906"/><text fill="#000000" font-family="sans-serif" font-size="14" lengthAdjust="spacing" textLength="284" x="59.5" y="588.5889">Organizar actividades para la asignatura</text></g><g id="preparar_asignatura.D"><rect fill="#FFCC80" height="50" rx="12.5" ry="12.5" style="stroke:#BF360C;stroke-width:0.5;" width="304" x="49.5" y="706.5938"/><line style="stroke:#BF360C;stroke-width:0.5;" x1="49.5" x2="353.5" y1="732.8906" y2="732.8906"/><text fill="#000000" font-family="sans-serif" font-size="14" lengthAdjust="spacing" textLength="284" x="59.5" y="724.5889">Revisar y ajustar el plan de la asignatura</text></g><ellipse cx="201.5" cy="251.5938" fill="#222222" rx="10" ry="10" style="stroke:#222222;stroke-width:1.0;"/><ellipse cx="201.5" cy="838.5938" fill="none" rx="11" ry="11" style="stroke:#222222;stroke-width:1.0;"/><ellipse cx="201.5" cy="838.5938" fill="#222222" rx="6" ry="6" style="stroke:#222222;stroke-width:1.0;"/><!--link *start*preparar_asignatura to A--><g id="link_*start*preparar_asignatura_A"><path d="M201.5,261.7447 C201.5,271.0098 201.5,279.7347 201.5,292.3778 " fill="none" id="*start*preparar_asignatura-to-A" style="stroke:#FF0000;stroke-width:1.0;"/><polygon fill="#FF0000" points="201.5,298.3778,205.5,289.3778,201.5,293.3778,197.5,289.3778,201.5,298.3778" style="stroke:#FF0000;stroke-width:1.0;"/></g><!--link A to B--><g id="link_A_B"><path d="M201.5,348.8598 C201.5,373.1458 201.5,404.2868 201.5,428.5078 " fill="none" id="A-to-B" style="stroke:#FF0000;stroke-width:1.0;"/><polygon fill="#FF0000" points="201.5,434.5078,205.5,425.5078,201.5,429.5078,197.5,425.5078,201.5,434.5078" style="stroke:#FF0000;stroke-width:1.0;"/><path d="M206.5,371.5938 L206.5,411.5938 L548.5,411.5938 L548.5,381.5938 L538.5,371.5938 L206.5,371.5938 " fill="#C8E6C9" style="stroke:#181818;stroke-width:0.5;"/><path d="M538.5,371.5938 L538.5,381.5938 L548.5,381.5938 L538.5,371.5938 " fill="#C8E6C9" style="stroke:#181818;stroke-width:0.5;"/><text fill="#000000" font-family="sans-serif" font-size="13" font-weight="bold" lengthAdjust="spacing" textLength="152" x="212.5" y="388.6606">Docente determina:</text><text fill="#000000" font-family="sans-serif" font-size="13" lengthAdjust="spacing" textLength="321" x="212.5" y="403.7935">- Metas y resultados esperados para la asignatura</text></g><!--link B to C--><g id="link_B_C"><path d="M201.5,484.8598 C201.5,509.1458 201.5,540.2868 201.5,564.5078 " fill="none" id="B-to-C" style="stroke:#FF0000;stroke-width:1.0;"/><polygon fill="#FF0000" points="201.5,570.5078,205.5,561.5078,201.5,565.5078,197.5,561.5078,201.5,570.5078" style="stroke:#FF0000;stroke-width:1.0;"/><path d="M206.5,507.5938 L206.5,547.5938 L560.5,547.5938 L560.5,517.5938 L550.5,507.5938 L206.5,507.5938 " fill="#C8E6C9" style="stroke:#181818;stroke-width:0.5;"/><path d="M550.5,507.5938 L550.5,517.5938 L560.5,517.5938 L550.5,507.5938 " fill="#C8E6C9" style="stroke:#181818;stroke-width:0.5;"/><text fill="#000000" font-family="sans-serif" font-size="13" font-weight="bold" lengthAdjust="spacing" textLength="133" x="212.5" y="524.6606">Docente prepara:</text><text fill="#000000" font-family="sans-serif" font-size="13" lengthAdjust="spacing" textLength="333" x="212.5" y="539.7935">- Diapositivas, lecturas, ejercicios para la asignatura</text></g><!--link C to D--><g id="link_C_D"><path d="M201.5,620.8598 C201.5,645.1458 201.5,676.2868 201.5,700.5078 " fill="none" id="C-to-D" style="stroke:#FF0000;stroke-width:1.0;"/><polygon fill="#FF0000" points="201.5,706.5078,205.5,697.5078,201.5,701.5078,197.5,697.5078,201.5,706.5078" style="stroke:#FF0000;stroke-width:1.0;"/><path d="M206.5,643.5938 L206.5,683.5938 L609.5,683.5938 L609.5,653.5938 L599.5,643.5938 L206.5,643.5938 " fill="#C8E6C9" style="stroke:#181818;stroke-width:0.5;"/><path d="M599.5,643.5938 L599.5,653.5938 L609.5,653.5938 L599.5,643.5938 " fill="#C8E6C9" style="stroke:#181818;stroke-width:0.5;"/><text fill="#000000" font-family="sans-serif" font-size="13" font-weight="bold" lengthAdjust="spacing" textLength="137" x="212.5" y="660.6606">Docente planifica:</text><text fill="#000000" font-family="sans-serif" font-size="13" lengthAdjust="spacing" textLength="382" x="212.5" y="675.7935">- Actividades interactivas y evaluaciones para la asignatura</text></g><!--link D to *end*preparar_asignatura--><g id="link_D_*end*preparar_asignatura"><path d="M201.5,756.6829 C201.5,779.085 201.5,805.3633 201.5,821.5445 " fill="none" id="D-to-*end*preparar_asignatura" style="stroke:#008000;stroke-width:1.0;"/><polygon fill="#008000" points="201.5,827.5445,205.5,818.5445,201.5,822.5445,197.5,818.5445,201.5,827.5445" style="stroke:#008000;stroke-width:1.0;"/><path d="M206.5,779.5938 L206.5,804.5938 L436.5,804.5938 L436.5,789.5938 L426.5,779.5938 L206.5,779.5938 " fill="#C8E6C9" style="stroke:#181818;stroke-width:0.5;"/><path d="M426.5,779.5938 L426.5,789.5938 L436.5,789.5938 L426.5,779.5938 " fill="#C8E6C9" style="stroke:#181818;stroke-width:0.5;"/><text fill="#000000" font-family="sans-serif" font-size="13" lengthAdjust="spacing" textLength="209" x="212.5" y="796.6606">[plan de la asignatura finalizado]</text></g><g id=":listoParaEnse&#241;arAsignatura"><rect fill="#FFCC80" height="50" rx="12.5" ry="12.5" style="stroke:#BF360C;stroke-width:0.5;" width="220" x="203" y="920.2969"/><line style="stroke:#BF360C;stroke-width:0.5;" x1="203" x2="423" y1="946.5938" y2="946.5938"/><text fill="#000000" font-family="sans-serif" font-size="14" lengthAdjust="spacing" textLength="200" x="213" y="938.292">:listoParaEnse&#241;arAsignatura</text></g><g id="ASIGNATURA_LISTA"><rect fill="#FFCC80" height="50" rx="12.5" ry="12.5" style="stroke:#BF360C;stroke-width:0.5;" width="159" x="233.5" y="1031.2969"/><line style="stroke:#BF360C;stroke-width:0.5;" x1="233.5" x2="392.5" y1="1057.5938" y2="1057.5938"/><text fill="#000000" font-family="sans-serif" font-size="14" lengthAdjust="spacing" textLength="139" x="243.5" y="1049.292">ASIGNATURA_LISTA</text></g><!--link INICIO to preparar_asignatura--><g id="link_INICIO_preparar_asignatura"><path d="M313,94.4069 C313,118.3729 313,152.1319 313,198.1629 " fill="none" id="INICIO-to-preparar_asignatura" style="stroke:#FF0000;stroke-width:1.0;"/><polygon fill="#FF0000" points="313,204.1629,317,195.1629,313,199.1629,309,195.1629,313,204.1629" style="stroke:#FF0000;stroke-width:1.0;"/><path d="M318,129.2969 L318,169.2969 L531,169.2969 L531,139.2969 L521,129.2969 L318,129.2969 " fill="#C8E6C9" style="stroke:#181818;stroke-width:0.5;"/><path d="M521,129.2969 L521,139.2969 L531,139.2969 L521,129.2969 " fill="#C8E6C9" style="stroke:#181818;stroke-width:0.5;"/><text fill="#000000" font-family="sans-serif" font-size="13" font-weight="bold" lengthAdjust="spacing" textLength="112" x="324" y="146.3638">Docente inicia:</text><text fill="#000000" font-family="sans-serif" font-size="13" lengthAdjust="spacing" textLength="192" x="324" y="161.4966">- Preparaci&#243;n de la asignatura</text></g><!--link preparar_asignatura to :listoParaEnse?arAsignatura--><g id="link_preparar_asignatura_:listoParaEnse&#241;arAsignatura"><path d="M313,859.5329 C313,884.1789 313,899.2329 313,914.1929 " fill="none" id="preparar_asignatura-to-:listoParaEnse&#241;arAsignatura" style="stroke:#FF0000;stroke-width:1.0;"/><polygon fill="#FF0000" points="313,920.1929,317,911.1929,313,915.1929,309,911.1929,313,920.1929" style="stroke:#FF0000;stroke-width:1.0;"/></g><!--link :listoParaEnse?arAsignatura to ASIGNATURA_LISTA--><g id="link_:listoParaEnse&#241;arAsignatura_ASIGNATURA_LISTA"><path d="M313,970.4879 C313,988.5507 313,1007.127 313,1025.1739 " fill="none" id=":listoParaEnse&#241;arAsignatura-to-ASIGNATURA_LISTA" style="stroke:#FF0000;stroke-width:1.0;"/><polygon fill="#FF0000" points="313,1031.1739,317,1022.1739,313,1026.1739,309,1022.1739,313,1031.1739" style="stroke:#FF0000;stroke-width:1.0;"/></g><!--SRC=[ZLFDQjj04BxhAORaPY8854AQGq6HGX2qIKYSap5Xl3isOwztnQvaS4iVglGHycATLHnBgPMcGY1fTx-V-MOKLcmhzBY6K6DDy2C1k4IrMdZNM9qxupmSp-TAdP_67USr-TtgRFxfx5GbFvCax4ciUuz3dTEP-lpsj65BzROYg9pPneyagRas13a61vhWKHvtdk9fnS-_RLpB0Yyiret783WFPA1mYgm8fp3cDLqtw3MZJPBofipBMqWdnvxqDFq2rGkNVy8zIT9QTZQQMOdnqUYLZIqhnelHI5RJ0ni6eKT2LhUrItLjZ0D2RImlkqS5pONTWvijgUQD2mUCH_8EMOUuCZXpGWZAYJVBsi4MrhBb6GszWx_iyBT-WPQ_2m4gKMIDMb3Hum0kxt3tjE4Wg2tWif6rDk_Ae1rMB0GfzsGqxQKUoyXwtz7MNwd7gqjUazIrPhiBFrufVADQ1BRWAJIcHYsXKQZ8js-7XGXktnGPnvvyFYJVYUzQzogTGi5OkS2I6eOJCAJQsJi1Mf9NCYB_8P_tv8iFv2LRdhFg6SXw7MCvuziMjc7G1aqZG-aiVUoYY2uMdiX67zAZ8IUJmUQ2p2iQcH_jfdrI-Ps7Hhshzi9mgDsT7BYoWPv_eU_-toJvrsv_W1xAwvji_7YVFNqj7yRP7m00]--></g></svg>