<svg xmlns="http://www.w3.org/2000/svg" xmlns:xlink="http://www.w3.org/1999/xlink" contentStyleType="text/css" height="857px" preserveAspectRatio="none" style="width:526px;height:857px;background:#FFFFFF;" version="1.1" viewBox="0 0 526 857" width="526px" zoomAndPan="magnify"><defs/><g><text fill="#000000" font-family="sans-serif" font-size="14" font-weight="bold" lengthAdjust="spacing" textLength="337" x="84.25" y="22.9951">Caso de Uso Editar Horario - TimeGuardian</text><g id="CONFIGURAR_HORARIO"><rect fill="#FAF4B4" height="50" rx="12.5" ry="12.5" style="stroke:#C90000;stroke-width:0.5;" width="183" x="168.25" y="44.2969"/><line style="stroke:#C90000;stroke-width:0.5;" x1="168.25" x2="351.25" y1="70.5938" y2="70.5938"/><text fill="#000000" font-family="sans-serif" font-size="14" lengthAdjust="spacing" textLength="163" x="178.25" y="62.292">CONFIGURAR_HORARIO</text></g><path d="M19.5,204.2969 L500,204.2969 A12.5,12.5 0 0 1 512.5,216.7969 L512.5,230.5938 L7,230.5938 L7,216.7969 A12.5,12.5 0 0 1 19.5,204.2969 " fill="#FAF4B4" style="stroke:#FAF4B4;stroke-width:1.0;"/><rect fill="none" height="537.4297" rx="12.5" ry="12.5" style="stroke:#C90000;stroke-width:0.5;" width="505.5" x="7" y="204.2969"/><line style="stroke:#C90000;stroke-width:0.5;" x1="7" x2="512.5" y1="230.5938" y2="230.5938"/><text fill="#000000" font-family="sans-serif" font-size="14" lengthAdjust="spacing" textLength="88" x="215.75" y="222.292">EditarHorario</text><g id="EditarHorario.Seleccionar"><rect fill="#FAF4B4" height="50" rx="12.5" ry="12.5" style="stroke:#C90000;stroke-width:0.5;" width="221" x="19" y="347.5938"/><line style="stroke:#C90000;stroke-width:0.5;" x1="19" x2="240" y1="373.8906" y2="373.8906"/><text fill="#000000" font-family="sans-serif" font-size="14" lengthAdjust="spacing" textLength="201" x="29" y="365.5889">Seleccionar Horario Existente</text></g><g id="EditarHorario.Modificar"><rect fill="#FAF4B4" height="50" rx="12.5" ry="12.5" style="stroke:#C90000;stroke-width:0.5;" width="204" x="27.5" y="483.5938"/><line style="stroke:#C90000;stroke-width:0.5;" x1="27.5" x2="231.5" y1="509.8906" y2="509.8906"/><text fill="#000000" font-family="sans-serif" font-size="14" lengthAdjust="spacing" textLength="184" x="37.5" y="501.5889">Modificar Datos del Horario</text></g><g id="EditarHorario.Guardar"><rect fill="#FAF4B4" height="50" rx="12.5" ry="12.5" style="stroke:#C90000;stroke-width:0.5;" width="139" x="60" y="619.5938"/><line style="stroke:#C90000;stroke-width:0.5;" x1="60" x2="199" y1="645.8906" y2="645.8906"/><text fill="#000000" font-family="sans-serif" font-size="14" lengthAdjust="spacing" textLength="119" x="70" y="637.5889">Guardar Cambios</text></g><ellipse cx="129.5" cy="251.5938" fill="#222222" rx="10" ry="10" style="stroke:#222222;stroke-width:1.0;"/><ellipse cx="129.5" cy="718.1538" fill="none" rx="11" ry="11" style="stroke:#222222;stroke-width:1.0;"/><ellipse cx="129.5" cy="718.1538" fill="#222222" rx="6" ry="6" style="stroke:#222222;stroke-width:1.0;"/><g id="elem_GMN14"><path d="M159,705.5938 L159,714.1538 L140.66,718.1538 L159,722.1538 L159,730.7266 A0,0 0 0 0 159,730.7266 L282,730.7266 A0,0 0 0 0 282,730.7266 L282,715.5938 L272,705.5938 L159,705.5938 A0,0 0 0 0 159,705.5938 " fill="#F5F5F5" style="stroke:#181818;stroke-width:0.5;"/><path d="M272,705.5938 L272,715.5938 L282,715.5938 L272,705.5938 " fill="#F5F5F5" style="stroke:#181818;stroke-width:0.5;"/><text fill="#000000" font-family="sans-serif" font-size="13" lengthAdjust="spacing" textLength="102" x="165" y="722.6606">Fin de la edici&#243;n</text></g><!--link *start*EditarHorario to Seleccionar--><g id="link_*start*EditarHorario_Seleccionar"><path d="M129.5,261.9238 C129.5,280.1238 129.5,314.8338 129.5,341.2038 " fill="none" id="*start*EditarHorario-to-Seleccionar" style="stroke:#008000;stroke-width:1.0;"/><polygon fill="#008000" points="129.5,347.2038,133.5,338.2038,129.5,342.2038,125.5,338.2038,129.5,347.2038" style="stroke:#008000;stroke-width:1.0;"/><path d="M134.5,284.5938 L134.5,324.5938 L368.5,324.5938 L368.5,294.5938 L358.5,284.5938 L134.5,284.5938 " fill="#F5F5F5" style="stroke:#181818;stroke-width:0.5;"/><path d="M358.5,284.5938 L358.5,294.5938 L368.5,294.5938 L358.5,284.5938 " fill="#F5F5F5" style="stroke:#181818;stroke-width:0.5;"/><text fill="#000000" font-family="sans-serif" font-size="13" font-weight="bold" lengthAdjust="spacing" textLength="101" x="140.5" y="301.6606">Usuario elige:</text><text fill="#000000" font-family="sans-serif" font-size="13" lengthAdjust="spacing" textLength="213" x="140.5" y="316.7935">- Un horario existente para editar</text></g><!--link Seleccionar to Modificar--><g id="link_Seleccionar_Modificar"><path d="M129.5,397.8538 C129.5,422.1438 129.5,453.2838 129.5,477.5037 " fill="none" id="Seleccionar-to-Modificar" style="stroke:#008000;stroke-width:1.0;"/><polygon fill="#008000" points="129.5,483.5037,133.5,474.5037,129.5,478.5037,125.5,474.5037,129.5,483.5037" style="stroke:#008000;stroke-width:1.0;"/><path d="M134.5,420.5938 L134.5,460.5938 L503.5,460.5938 L503.5,430.5938 L493.5,420.5938 L134.5,420.5938 " fill="#F5F5F5" style="stroke:#181818;stroke-width:0.5;"/><path d="M493.5,420.5938 L493.5,430.5938 L503.5,430.5938 L493.5,420.5938 " fill="#F5F5F5" style="stroke:#181818;stroke-width:0.5;"/><text fill="#000000" font-family="sans-serif" font-size="13" font-weight="bold" lengthAdjust="spacing" textLength="129" x="140.5" y="437.6606">Usuario modifica:</text><text fill="#000000" font-family="sans-serif" font-size="13" lengthAdjust="spacing" textLength="348" x="140.5" y="452.7935">- Elementos del horario seleccionado (horas, d&#237;as,etc.)</text></g><!--link Modificar to Guardar--><g id="link_Modificar_Guardar"><path d="M129.5,533.8538 C129.5,558.1438 129.5,589.2838 129.5,613.5038 " fill="none" id="Modificar-to-Guardar" style="stroke:#008000;stroke-width:1.0;"/><polygon fill="#008000" points="129.5,619.5038,133.5,610.5038,129.5,614.5038,125.5,610.5038,129.5,619.5038" style="stroke:#008000;stroke-width:1.0;"/><path d="M134.5,556.5938 L134.5,596.5938 L373.5,596.5938 L373.5,566.5938 L363.5,556.5938 L134.5,556.5938 " fill="#F5F5F5" style="stroke:#181818;stroke-width:0.5;"/><path d="M363.5,556.5938 L363.5,566.5938 L373.5,566.5938 L363.5,556.5938 " fill="#F5F5F5" style="stroke:#181818;stroke-width:0.5;"/><text fill="#000000" font-family="sans-serif" font-size="13" font-weight="bold" lengthAdjust="spacing" textLength="122" x="140.5" y="573.6606">Sistema guarda:</text><text fill="#000000" font-family="sans-serif" font-size="13" lengthAdjust="spacing" textLength="218" x="140.5" y="588.7935">- Cambios realizados en el horario</text></g><!--link Guardar to *end*EditarHorario--><g id="link_Guardar_*end*EditarHorario"><path d="M129.5,669.8238 C129.5,682.4738 129.5,691.2838 129.5,700.9237 " fill="none" id="Guardar-to-*end*EditarHorario" style="stroke:#008000;stroke-width:1.0;"/><polygon fill="#008000" points="129.5,706.9237,133.5,697.9237,129.5,701.9237,125.5,697.9237,129.5,706.9237" style="stroke:#008000;stroke-width:1.0;"/></g><g id="CONFIGURACION_HORARIO"><rect fill="#FAF4B4" height="50" rx="12.5" ry="12.5" style="stroke:#C90000;stroke-width:0.5;" width="207" x="156.25" y="801.7269"/><line style="stroke:#C90000;stroke-width:0.5;" x1="156.25" x2="363.25" y1="828.0238" y2="828.0238"/><text fill="#000000" font-family="sans-serif" font-size="14" lengthAdjust="spacing" textLength="187" x="166.25" y="819.722">CONFIGURACION_HORARIO</text></g><!--link CONFIGURAR_HORARIO to EditarHorario--><g id="link_CONFIGURAR_HORARIO_EditarHorario"><path d="M259.75,94.5169 C259.75,118.7769 259.75,152.9369 259.75,198.2069 " fill="none" id="CONFIGURAR_HORARIO-to-EditarHorario" style="stroke:#008000;stroke-width:1.0;"/><polygon fill="#008000" points="259.75,204.2069,263.75,195.2069,259.75,199.2069,255.75,195.2069,259.75,204.2069" style="stroke:#008000;stroke-width:1.0;"/><path d="M264.75,129.2969 L264.75,169.2969 L443.75,169.2969 L443.75,139.2969 L433.75,129.2969 L264.75,129.2969 " fill="#F5F5F5" style="stroke:#181818;stroke-width:0.5;"/><path d="M433.75,129.2969 L433.75,139.2969 L443.75,139.2969 L433.75,129.2969 " fill="#F5F5F5" style="stroke:#181818;stroke-width:0.5;"/><text fill="#000000" font-family="sans-serif" font-size="13" font-weight="bold" lengthAdjust="spacing" textLength="142" x="270.75" y="146.3638">Usuario selecciona:</text><text fill="#000000" font-family="sans-serif" font-size="13" lengthAdjust="spacing" textLength="158" x="270.75" y="161.4966">- Editar horario existente</text></g><!--link EditarHorario to CONFIGURACION_HORARIO--><g id="link_EditarHorario_CONFIGURACION_HORARIO"><path d="M259.75,741.9269 C259.75,765.7369 259.75,780.4069 259.75,795.2669 " fill="none" id="EditarHorario-to-CONFIGURACION_HORARIO" style="stroke:#008000;stroke-width:1.0;"/><polygon fill="#008000" points="259.75,801.2669,263.75,792.2669,259.75,796.2669,255.75,792.2669,259.75,801.2669" style="stroke:#008000;stroke-width:1.0;"/></g><!--SRC=[VLDDJ-Cm4BtxLupWmaOKSM0FS5Y93GLwW4f0JmYjJ3mDepfsPRlIiYj-4YT-0d-CiPl4oNwGH8aodZVlpHlRhyYifPCD-203mcy1y5rMgzhPZL6brTR1xb8kZnwFuefr2bqRhOuF-H8lGlY-YB7_hV4rtkDiJGR3ynfXRVLp_14YKD08fVGM5CA2FrD5GJguj4uwiZ21EshmOYET8cc4AEVNvxEBnStfpO_BERzdyydzRkqGpSFaMmjkiIAfioRohbXZKIpy9XNrgB6go1fvKXIyCkbOdrfM_4a-e0aeqAZK9VUH31infDQtyPtRlcOMF-tAx83qCCZ8i2khQ4aLWyvai9vTq1qyWVhr34bcCA2KpIDPdzBQ62VnSryymD2LCV4VhWnzGKqrRYs9fYpCtuP072LWSe7JUdjWo39Y7tRm2NVJfcNwgSQ6ALjJEYLvTih2NepwVL3lh_p1K1ry6OlAzWubPRV-8UWsTjf8g5DIbjFQ3Gwbfb_Cxfa8ih8nSJUa8ItFfQDqL3-54pWd4_UzJevMzFvcueaPxx5XXNxtbxFvTNS0FW00]--></g></svg>