<svg xmlns="http://www.w3.org/2000/svg" xmlns:xlink="http://www.w3.org/1999/xlink" contentStyleType="text/css" height="1032px" preserveAspectRatio="none" style="width:549px;height:1032px;background:#FFFFFF;" version="1.1" viewBox="0 0 549 1032" width="549px" zoomAndPan="magnify"><defs/><g><text fill="#000000" font-family="sans-serif" font-size="14" font-weight="bold" lengthAdjust="spacing" textLength="511.1504" x="10" y="22.9951">Caso de Uso Administraci&#243;n de Horarios - Sistema TimeGuardian</text><ellipse cx="272.5702" cy="53.2969" fill="#222222" rx="10" ry="10" style="stroke:#222222;stroke-width:1.0;"/><path d="M21.1602,173.2969 L523.9902,173.2969 A12.5,12.5 0 0 1 536.4902,185.7969 L536.4902,199.5938 L8.6602,199.5938 L8.6602,185.7969 A12.5,12.5 0 0 1 21.1602,173.2969 " fill="#FAF4B4" style="stroke:#FAF4B4;stroke-width:1.0;"/><rect fill="none" height="742.2969" rx="12.5" ry="12.5" style="stroke:#C90000;stroke-width:0.5;" width="527.83" x="8.6602" y="173.2969"/><line style="stroke:#C90000;stroke-width:0.5;" x1="8.6602" x2="536.4902" y1="199.5938" y2="199.5938"/><text fill="#000000" font-family="sans-serif" font-size="14" lengthAdjust="spacing" textLength="94.1035" x="225.5234" y="191.292">iniciar_sesion</text><g id="iniciar_sesion.state1"><rect fill="#FAF4B4" height="50" rx="12.5" ry="12.5" style="stroke:#C90000;stroke-width:0.5;" width="213.1631" x="65.9102" y="267.5938"/><line style="stroke:#C90000;stroke-width:0.5;" x1="65.9102" x2="279.0733" y1="293.8906" y2="293.8906"/><text fill="#000000" font-family="sans-serif" font-size="14" lengthAdjust="spacing" textLength="193.1631" x="75.9102" y="285.5889">Mostrar la interfaz principal</text></g><g id="iniciar_sesion.state2"><rect fill="#FAF4B4" height="50" rx="12.5" ry="12.5" style="stroke:#C90000;stroke-width:0.5;" width="303.6572" x="20.6602" y="403.5938"/><line style="stroke:#C90000;stroke-width:0.5;" x1="20.6602" x2="324.3174" y1="429.8906" y2="429.8906"/><text fill="#000000" font-family="sans-serif" font-size="14" lengthAdjust="spacing" textLength="283.6572" x="30.6602" y="421.5889">Seleccionar visualizaci&#243;n de asignaturas</text></g><g id="iniciar_sesion.state3"><rect fill="#FAF4B4" height="50" rx="12.5" ry="12.5" style="stroke:#C90000;stroke-width:0.5;" width="228.7217" x="58.1302" y="524.5938"/><line style="stroke:#C90000;stroke-width:0.5;" x1="58.1302" x2="286.8519" y1="550.8906" y2="550.8906"/><text fill="#000000" font-family="sans-serif" font-size="14" lengthAdjust="spacing" textLength="208.7217" x="68.1302" y="542.5889">Mostrar asignaturas ofrecidas</text></g><g id="iniciar_sesion.state4"><rect fill="#FAF4B4" height="50" rx="12.5" ry="12.5" style="stroke:#C90000;stroke-width:0.5;" width="225.8438" x="59.5702" y="660.5938"/><line style="stroke:#C90000;stroke-width:0.5;" x1="59.5702" x2="285.4139" y1="686.8906" y2="686.8906"/><text fill="#000000" font-family="sans-serif" font-size="14" lengthAdjust="spacing" textLength="205.8438" x="69.5702" y="678.5889">Arrastrar y soltar asignaturas</text></g><g id="iniciar_sesion.state5"><rect fill="#FAF4B4" height="50" rx="12.5" ry="12.5" style="stroke:#C90000;stroke-width:0.5;" width="140.2783" x="102.3502" y="796.5938"/><line style="stroke:#C90000;stroke-width:0.5;" x1="102.3502" x2="242.6285" y1="822.8906" y2="822.8906"/><text fill="#000000" font-family="sans-serif" font-size="14" lengthAdjust="spacing" textLength="120.2783" x="112.3502" y="814.5889">Guardar cambios</text></g><ellipse cx="172.4902" cy="220.5938" fill="#222222" rx="10" ry="10" style="stroke:#222222;stroke-width:1.0;"/><ellipse cx="172.4902" cy="894.5938" fill="none" rx="11" ry="11" style="stroke:#222222;stroke-width:1.0;"/><ellipse cx="172.4902" cy="894.5938" fill="#222222" rx="6" ry="6" style="stroke:#222222;stroke-width:1.0;"/><!--link *start*iniciar_sesion to state1--><g id="link_*start*iniciar_sesion_state1"><path d="M172.4902,231.0338 C172.4902,240.2938 172.4902,248.7838 172.4902,261.2737 " fill="none" id="*start*iniciar_sesion-to-state1" style="stroke:#008000;stroke-width:1.0;"/><polygon fill="#008000" points="172.4902,267.2737,176.4902,258.2737,172.4902,262.2737,168.4902,258.2737,172.4902,267.2737" style="stroke:#008000;stroke-width:1.0;"/></g><!--link state1 to state2--><g id="link_state1_state2"><path d="M172.4902,317.8638 C172.4902,342.1437 172.4902,373.2838 172.4902,397.5038 " fill="none" id="state1-to-state2" style="stroke:#008000;stroke-width:1.0;"/><polygon fill="#008000" points="172.4902,403.5038,176.4902,394.5038,172.4902,398.5038,168.4902,394.5038,172.4902,403.5038" style="stroke:#008000;stroke-width:1.0;"/><path d="M177.4902,340.5938 L177.4902,380.5938 L527.4902,380.5938 L527.4902,350.5938 L517.4902,340.5938 L177.4902,340.5938 " fill="#F5F5F5" style="stroke:#181818;stroke-width:0.5;"/><path d="M517.4902,340.5938 L517.4902,350.5938 L527.4902,350.5938 L517.4902,340.5938 " fill="#F5F5F5" style="stroke:#181818;stroke-width:0.5;"/><text fill="#000000" font-family="sans-serif" font-size="13" font-weight="bold" lengthAdjust="spacing" textLength="191.2422" x="183.4902" y="357.6606">Administrador selecciona:</text><text fill="#000000" font-family="sans-serif" font-size="13" lengthAdjust="spacing" textLength="329.2656" x="183.4902" y="372.7935">- Visualizar asignaturas ofrecidas para una carrera</text></g><!--link state2 to state3--><g id="link_state2_state3"><path d="M172.4902,453.9638 C172.4902,474.4938 172.4902,497.7338 172.4902,518.2538 " fill="none" id="state2-to-state3" style="stroke:#008000;stroke-width:1.0;"/><polygon fill="#008000" points="172.4902,524.2538,176.4902,515.2538,172.4902,519.2538,168.4902,515.2538,172.4902,524.2538" style="stroke:#008000;stroke-width:1.0;"/><path d="M177.4902,476.5938 L177.4902,501.5938 L520.4902,501.5938 L520.4902,486.5938 L510.4902,476.5938 L177.4902,476.5938 " fill="#F5F5F5" style="stroke:#181818;stroke-width:0.5;"/><path d="M510.4902,476.5938 L510.4902,486.5938 L520.4902,486.5938 L510.4902,476.5938 " fill="#F5F5F5" style="stroke:#181818;stroke-width:0.5;"/><text fill="#000000" font-family="sans-serif" font-size="13" lengthAdjust="spacing" textLength="322.4102" x="183.4902" y="493.6606">Muestra asignaturas para la carrera seleccionada</text></g><!--link state3 to state4--><g id="link_state3_state4"><path d="M172.4902,574.8638 C172.4902,599.1438 172.4902,630.2838 172.4902,654.5038 " fill="none" id="state3-to-state4" style="stroke:#008000;stroke-width:1.0;"/><polygon fill="#008000" points="172.4902,660.5038,176.4902,651.5038,172.4902,655.5038,168.4902,651.5038,172.4902,660.5038" style="stroke:#008000;stroke-width:1.0;"/><path d="M177.4902,597.5938 L177.4902,637.5938 L503.4902,637.5938 L503.4902,607.5938 L493.4902,597.5938 L177.4902,597.5938 " fill="#F5F5F5" style="stroke:#181818;stroke-width:0.5;"/><path d="M493.4902,597.5938 L493.4902,607.5938 L503.4902,607.5938 L493.4902,597.5938 " fill="#F5F5F5" style="stroke:#181818;stroke-width:0.5;"/><text fill="#000000" font-family="sans-serif" font-size="13" font-weight="bold" lengthAdjust="spacing" textLength="163.8394" x="183.4902" y="614.6606">Administrador realiza:</text><text fill="#000000" font-family="sans-serif" font-size="13" lengthAdjust="spacing" textLength="305.8936" x="183.4902" y="629.7935">- Arrastra y suelta asignaturas en el calendario</text></g><!--link state4 to state5--><g id="link_state4_state5"><path d="M172.4902,710.8638 C172.4902,735.1438 172.4902,766.2838 172.4902,790.5038 " fill="none" id="state4-to-state5" style="stroke:#008000;stroke-width:1.0;"/><polygon fill="#008000" points="172.4902,796.5038,176.4902,787.5038,172.4902,791.5038,168.4902,787.5038,172.4902,796.5038" style="stroke:#008000;stroke-width:1.0;"/><path d="M177.4902,733.5938 L177.4902,773.5938 L512.4902,773.5938 L512.4902,743.5938 L502.4902,733.5938 L177.4902,733.5938 " fill="#F5F5F5" style="stroke:#181818;stroke-width:0.5;"/><path d="M502.4902,733.5938 L502.4902,743.5938 L512.4902,743.5938 L502.4902,733.5938 " fill="#F5F5F5" style="stroke:#181818;stroke-width:0.5;"/><text fill="#000000" font-family="sans-serif" font-size="13" lengthAdjust="spacing" textLength="314.939" x="183.4902" y="750.6606">- Guarda cambios y actualiza horario acad&#233;mico</text><text fill="#000000" font-family="sans-serif" font-size="13" lengthAdjust="spacing" textLength="210.3804" x="183.4902" y="765.7935">- Horario acad&#233;mico actualizado</text></g><!--link state5 to *end*iniciar_sesion--><g id="link_state5_*end*iniciar_sesion"><path d="M172.4902,847.0238 C172.4902,859.3838 172.4902,867.7238 172.4902,877.1938 " fill="none" id="state5-to-*end*iniciar_sesion" style="stroke:#008000;stroke-width:1.0;"/><polygon fill="#008000" points="172.4902,883.1938,176.4902,874.1938,172.4902,878.1938,168.4902,874.1938,172.4902,883.1938" style="stroke:#008000;stroke-width:1.0;"/></g><g id="MOSTRAR_HORARIO_ACTUALIZADO"><rect fill="#FAF4B4" height="50" rx="12.5" ry="12.5" style="stroke:#C90000;stroke-width:0.5;" width="269.9219" x="137.6102" y="976.5969"/><line style="stroke:#C90000;stroke-width:0.5;" x1="137.6102" x2="407.5321" y1="1002.8938" y2="1002.8938"/><text fill="#000000" font-family="sans-serif" font-size="14" lengthAdjust="spacing" textLength="249.9219" x="147.6102" y="994.592">MOSTRAR_HORARIO_ACTUALIZADO</text></g><!--link *start* to iniciar_sesion--><g id="link_*start*_iniciar_sesion"><path d="M272.5702,63.6369 C272.5702,81.1969 272.5702,116.0169 272.5702,166.8169 " fill="none" id="*start*-to-iniciar_sesion" style="stroke:#008000;stroke-width:1.0;"/><polygon fill="#008000" points="272.5702,172.8169,276.5702,163.8169,272.5702,167.8169,268.5702,163.8169,272.5702,172.8169" style="stroke:#008000;stroke-width:1.0;"/><path d="M277.5702,98.2969 L277.5702,138.2969 L496.5702,138.2969 L496.5702,108.2969 L486.5702,98.2969 L277.5702,98.2969 " fill="#F5F5F5" style="stroke:#181818;stroke-width:0.5;"/><path d="M486.5702,98.2969 L486.5702,108.2969 L496.5702,108.2969 L486.5702,98.2969 " fill="#F5F5F5" style="stroke:#181818;stroke-width:0.5;"/><text fill="#000000" font-family="sans-serif" font-size="13" font-weight="bold" lengthAdjust="spacing" textLength="198.1421" x="283.5702" y="115.3638">Administrador de horarios:</text><text fill="#000000" font-family="sans-serif" font-size="13" lengthAdjust="spacing" textLength="179.8418" x="283.5702" y="130.4966">- Inicia sesi&#243;n en el sistema</text></g><!--link iniciar_sesion to MOSTRAR_HORARIO_ACTUALIZADO--><g id="link_iniciar_sesion_MOSTRAR_HORARIO_ACTUALIZADO"><path d="M272.5702,916.0569 C272.5702,940.6769 272.5702,955.5369 272.5702,970.3869 " fill="none" id="iniciar_sesion-to-MOSTRAR_HORARIO_ACTUALIZADO" style="stroke:#008000;stroke-width:1.0;"/><polygon fill="#008000" points="272.5702,976.3869,276.5702,967.3869,272.5702,971.3869,268.5702,967.3869,272.5702,976.3869" style="stroke:#008000;stroke-width:1.0;"/></g><!--SRC=[ZLJ1Rjf04BtxAqR93Gcf2N1e3vLSAXMa8AH0UcWKeSdkG5QiTz6iNObK_Q2U-mdviSxQW35sf68BYzttvhsPjoPiZTiXOmOXnvpWLmBm1TLsmxvmUkojPxXUuthuF8mxdZNnOLLz_22Vv7UIX5CHvz-jCOfN4ssDeto_8zXvkuy_aYGtkIKOO_2W2HxaaUhCE1DoHcNU_hguFF6CR7o0FYnaXpA4fSdeMu6i3ReaUUmzGV_nUiD4xgd_6QI0CiYhGC5ubvGklOlwM_7QwzKQMhoAmij1uLEl9u0-JCi24FdH0ybj8LJQ2JbTDYwjbJDigfNZg3QkPZvgC5WKK4wynbVOiN7AxD1U0OOAU5Cp5cH9AIaZh9yc56ZDQpq836RZC2yOGys-RUkTuS2lcPJHvun1pKXPC2Ld3y7Rl4ckASEQKevTS0gpPnbPZHa9HkxBC9ejthJtOWCN4RL32gV1L1d5bBuV1_HEnn2F7HGEnIipCGhl5Dx1pstRpw3BpwoWQAKXL9Qtf-fd7dMNrA0jDVoVrfdA9kk-Zw75p0gIq1gkgiEgq8f-FDGTJePj9wCk9tsemZvcBOAeychcntT6Lb2__ScCyWVEfBLHitINdL73ZfoV-BTnyLQT8sRpnV8-lLzDvl8zdQ_IyV8XlPl-IB_E_m40]--></g></svg>