<?xml version="1.0" encoding="us-ascii" standalone="no"?><svg xmlns="http://www.w3.org/2000/svg" xmlns:xlink="http://www.w3.org/1999/xlink" contentStyleType="text/css" height="977px" preserveAspectRatio="none" style="width:604px;height:977px;background:#FFFFFF;" version="1.1" viewBox="0 0 604 977" width="604px" zoomAndPan="magnify"><defs/><g><text fill="#000000" font-family="sans-serif" font-size="14" font-weight="bold" lengthAdjust="spacing" textLength="302" x="140.75" y="22.9951">Caso de Uso Registro - TimeGuardian</text><g id="INICIO"><rect fill="#E6EE9C" height="50" rx="12.5" ry="12.5" style="stroke:#6A1B9A;stroke-width:0.5;" width="63" x="267.5" y="44.2969"/><line style="stroke:#6A1B9A;stroke-width:0.5;" x1="267.5" x2="330.5" y1="70.5938" y2="70.5938"/><text fill="#000000" font-family="sans-serif" font-size="14" lengthAdjust="spacing" textLength="43" x="277.5" y="62.292">INICIO</text></g><path d="M19.5,204.2969 L578,204.2969 A12.5,12.5 0 0 1 590.5,216.7969 L590.5,230.5938 L7,230.5938 L7,216.7969 A12.5,12.5 0 0 1 19.5,204.2969 " fill="#E6EE9C" style="stroke:#E6EE9C;stroke-width:1.0;"/><rect fill="none" height="545.2969" rx="12.5" ry="12.5" style="stroke:#6A1B9A;stroke-width:0.5;" width="583.5" x="7" y="204.2969"/><line style="stroke:#6A1B9A;stroke-width:0.5;" x1="7" x2="590.5" y1="230.5938" y2="230.5938"/><text fill="#000000" font-family="sans-serif" font-size="14" lengthAdjust="spacing" textLength="128" x="234.75" y="222.292">registroDeUsuario</text><g id="registroDeUsuario.A"><rect fill="#E6EE9C" height="50" rx="12.5" ry="12.5" style="stroke:#6A1B9A;stroke-width:0.5;" width="122" x="155.5" y="298.5938"/><line style="stroke:#6A1B9A;stroke-width:0.5;" x1="155.5" x2="277.5" y1="324.8906" y2="324.8906"/><text fill="#000000" font-family="sans-serif" font-size="14" lengthAdjust="spacing" textLength="102" x="165.5" y="316.5889">Ingresar datos</text></g><g id="registroDeUsuario.B"><rect fill="#E6EE9C" height="50" rx="12.5" ry="12.5" style="stroke:#6A1B9A;stroke-width:0.5;" width="159" x="19" y="464.5938"/><line style="stroke:#6A1B9A;stroke-width:0.5;" x1="19" x2="178" y1="490.8906" y2="490.8906"/><text fill="#000000" font-family="sans-serif" font-size="14" lengthAdjust="spacing" textLength="139" x="29" y="482.5889">Validar informaci&#243;n</text></g><g id="registroDeUsuario.C"><rect fill="#E6EE9C" height="50" rx="12.5" ry="12.5" style="stroke:#6A1B9A;stroke-width:0.5;" width="112" x="172.5" y="630.5938"/><line style="stroke:#6A1B9A;stroke-width:0.5;" x1="172.5" x2="284.5" y1="656.8906" y2="656.8906"/><text fill="#000000" font-family="sans-serif" font-size="14" lengthAdjust="spacing" textLength="92" x="182.5" y="648.5889">Crear cuenta</text></g><ellipse cx="216.5" cy="251.5938" fill="#222222" rx="10" ry="10" style="stroke:#222222;stroke-width:1.0;"/><ellipse cx="228.5" cy="728.5938" fill="none" rx="11" ry="11" style="stroke:#222222;stroke-width:1.0;"/><ellipse cx="228.5" cy="728.5938" fill="#222222" rx="6" ry="6" style="stroke:#222222;stroke-width:1.0;"/><!--link *start*registroDeUsuario to A--><g id="link_*start*registroDeUsuario_A"><path d="M216.5,261.7448 C216.5,271.0098 216.5,279.7348 216.5,292.3778 " fill="none" id="*start*registroDeUsuario-to-A" style="stroke:#FFA500;stroke-width:1.0;"/><polygon fill="#FFA500" points="216.5,298.3778,220.5,289.3778,216.5,293.3778,212.5,289.3778,216.5,298.3778" style="stroke:#FFA500;stroke-width:1.0;"/></g><!--link A to B--><g id="link_A_B"><path d="M155.465,345.1018 C123.734,355.7628 91.5,366.5938 91.5,366.5938 C91.5,366.5938 91.5,446.5938 91.5,446.5938 C91.5,446.5938 91.9016,449.0044 93.4416,458.2434 " fill="none" id="A-to-B" style="stroke:#FFA500;stroke-width:1.0;"/><polygon fill="#FFA500" points="94.4281,464.1618,96.8939,454.6266,93.606,459.2298,89.0028,455.9419,94.4281,464.1618" style="stroke:#FFA500;stroke-width:1.0;"/><path d="M96.5,371.5938 L96.5,441.5938 L324.5,441.5938 L324.5,381.5938 L314.5,371.5938 L96.5,371.5938 " fill="#FFE0B2" style="stroke:#181818;stroke-width:0.5;"/><path d="M314.5,371.5938 L314.5,381.5938 L324.5,381.5938 L314.5,371.5938 " fill="#FFE0B2" style="stroke:#181818;stroke-width:0.5;"/><text fill="#000000" font-family="sans-serif" font-size="13" font-weight="bold" lengthAdjust="spacing" textLength="207" x="102.5" y="388.6606">Usuario debe proporcionar:</text><text fill="#000000" font-family="sans-serif" font-size="13" lengthAdjust="spacing" textLength="60" x="102.5" y="403.7935">- Nombre</text><text fill="#000000" font-family="sans-serif" font-size="13" lengthAdjust="spacing" textLength="44" x="102.5" y="418.9263">- Email</text><text fill="#000000" font-family="sans-serif" font-size="13" lengthAdjust="spacing" textLength="83" x="102.5" y="434.0591">- Contrase&#241;a</text></g><!--link B to C--><g id="link_B_C"><path d="M103.2416,514.6968 C110.236,550.2518 122.5,612.5938 122.5,612.5938 C122.5,612.5938 141.3919,620.0796 166.8179,630.1536 " fill="none" id="B-to-C" style="stroke:#FFA500;stroke-width:1.0;"/><polygon fill="#FFA500" points="172.396,632.3638,165.5022,625.3299,167.7476,630.522,162.5554,632.7673,172.396,632.3638" style="stroke:#FFA500;stroke-width:1.0;"/><path d="M127.5,537.5938 L127.5,607.5938 L324.5,607.5938 L324.5,547.5938 L314.5,537.5938 L127.5,537.5938 " fill="#FFE0B2" style="stroke:#181818;stroke-width:0.5;"/><path d="M314.5,537.5938 L314.5,547.5938 L324.5,547.5938 L314.5,537.5938 " fill="#FFE0B2" style="stroke:#181818;stroke-width:0.5;"/><text fill="#000000" font-family="sans-serif" font-size="13" font-weight="bold" lengthAdjust="spacing" textLength="127" x="133.5" y="554.6606">Sistema verifica:</text><text fill="#000000" font-family="sans-serif" font-size="13" lengthAdjust="spacing" textLength="163" x="133.5" y="569.7935">- Email sin registro previo</text><text fill="#000000" font-family="sans-serif" font-size="13" lengthAdjust="spacing" textLength="176" x="133.5" y="584.9263">- Usuario sin registro previo</text><text fill="#000000" font-family="sans-serif" font-size="13" lengthAdjust="spacing" textLength="131" x="133.5" y="600.0591">- Contrase&#241;a segura</text></g><!--link C to A--><g id="link_C_A"><path d="M284.612,631.2597 C307.859,621.5928 329.5,612.5938 329.5,612.5938 C329.5,612.5938 329.5,366.5938 329.5,366.5938 C329.5,366.5938 309.8791,359.3011 283.2541,349.4051 " fill="none" id="C-to-A" style="stroke:#FF0000;stroke-width:1.0;"/><polygon fill="#FF0000" points="277.63,347.3148,284.6726,354.1997,282.3167,349.0567,287.4597,346.7009,277.63,347.3148" style="stroke:#FF0000;stroke-width:1.0;"/><path d="M334.5,477.0938 L334.5,502.0938 L581.5,502.0938 L581.5,487.0938 L571.5,477.0938 L334.5,477.0938 " fill="#FFE0B2" style="stroke:#181818;stroke-width:0.5;"/><path d="M571.5,477.0938 L571.5,487.0938 L581.5,487.0938 L571.5,477.0938 " fill="#FFE0B2" style="stroke:#181818;stroke-width:0.5;"/><text fill="#000000" font-family="sans-serif" font-size="13" lengthAdjust="spacing" textLength="226" x="340.5" y="494.1606">[informaci&#243;n inv&#225;lida o incompleta]</text></g><!--link C to *end*registroDeUsuario--><g id="link_C_*end*registroDeUsuario"><path d="M228.5,680.6311 C228.5,693.1829 228.5,701.8762 228.5,711.44 " fill="none" id="C-to-*end*registroDeUsuario" style="stroke:#FFA500;stroke-width:1.0;"/><polygon fill="#FFA500" points="228.5,717.44,232.5,708.44,228.5,712.44,224.5,708.44,228.5,717.44" style="stroke:#FFA500;stroke-width:1.0;"/></g><g id="abrirP&#225;ginaInicio"><rect fill="#E6EE9C" height="50" rx="12.5" ry="12.5" style="stroke:#6A1B9A;stroke-width:0.5;" width="139" x="229.5" y="810.2969"/><line style="stroke:#6A1B9A;stroke-width:0.5;" x1="229.5" x2="368.5" y1="836.5938" y2="836.5938"/><text fill="#000000" font-family="sans-serif" font-size="14" lengthAdjust="spacing" textLength="119" x="239.5" y="828.292">abrirP&#225;ginaInicio</text></g><g id="P&#193;GINA_HOME"><rect fill="#E6EE9C" height="50" rx="12.5" ry="12.5" style="stroke:#6A1B9A;stroke-width:0.5;" width="123" x="237.5" y="921.2969"/><line style="stroke:#6A1B9A;stroke-width:0.5;" x1="237.5" x2="360.5" y1="947.5938" y2="947.5938"/><text fill="#000000" font-family="sans-serif" font-size="14" lengthAdjust="spacing" textLength="103" x="247.5" y="939.292">P&#193;GINA_HOME</text></g><!--link INICIO to registroDeUsuario--><g id="link_INICIO_registroDeUsuario"><path d="M299,94.4489 C299,118.6599 299,152.7739 299,198.1089 " fill="none" id="INICIO-to-registroDeUsuario" style="stroke:#FFA500;stroke-width:1.0;"/><polygon fill="#FFA500" points="299,204.1089,303,195.1089,299,199.1089,295,195.1089,299,204.1089" style="stroke:#FFA500;stroke-width:1.0;"/><path d="M304,129.2969 L304,169.2969 L447,169.2969 L447,139.2969 L437,129.2969 L304,129.2969 " fill="#FFE0B2" style="stroke:#181818;stroke-width:0.5;"/><path d="M437,129.2969 L437,139.2969 L447,139.2969 L437,129.2969 " fill="#FFE0B2" style="stroke:#181818;stroke-width:0.5;"/><text fill="#000000" font-family="sans-serif" font-size="13" font-weight="bold" lengthAdjust="spacing" textLength="122" x="310" y="146.3638">Usuario solicita:</text><text fill="#000000" font-family="sans-serif" font-size="13" lengthAdjust="spacing" textLength="82" x="310" y="161.4966">- Registrarse</text></g><!--link registroDeUsuario to abrirP?ginaInicio--><g id="link_registroDeUsuario_abrirP&#225;ginaInicio"><path d="M299,749.3589 C299,773.8729 299,789.1069 299,804.2129 " fill="none" id="registroDeUsuario-to-abrirP&#225;ginaInicio" style="stroke:#FFA500;stroke-width:1.0;"/><polygon fill="#FFA500" points="299,810.2129,303,801.2129,299,805.2129,295,801.2129,299,810.2129" style="stroke:#FFA500;stroke-width:1.0;"/></g><!--link abrirP?ginaInicio to P?GINA_HOME--><g id="link_abrirP&#225;ginaInicio_P&#193;GINA_HOME"><path d="M299,860.4879 C299,878.5507 299,897.127 299,915.1739 " fill="none" id="abrirP&#225;ginaInicio-to-P&#193;GINA_HOME" style="stroke:#FFA500;stroke-width:1.0;"/><polygon fill="#FFA500" points="299,921.1739,303,912.1739,299,916.1739,295,912.1739,299,921.1739" style="stroke:#FFA500;stroke-width:1.0;"/></g><!--SRC=[TLB1Qjj04BtlLmp9JI1eUmYaXuAZXbI7Eg5jUZ4cZAInM2pjYDcr8PGU-YdvXD9Fq8zrLhRbA4uMWRJpdcRUcnc_jgv3mHPym43mom1SORckXJUkohXXWNEw8Bei8y9IaUoZ5_Y-k4JpsnW_9d7yLexLYjuL7wRinZeAZnr1nyrZl1WJR6W8ClGC5S6zlhvHRNqGXXH-s9PkDYYLHMTCFi-p_1RInJaBkfgMwIUGFVaptNibMZQ38dQnrbfr9SaU0C-DBMt0ZqcYyVHG1yMJ8LSDLbJiq9MJjD7Y3ZhBNItaKQ32mFuCqCFiYFx4nbOAMhTYQR6q_JytSAwEd4n86UM6NC01onJJPv4if-vYtjaq5DEyi1ZFqMP5XVPNk6CfBJkKdTzuKfXpMmYDr-iMRJFUCdRQ3a_zNzJOs1ATxLH2zfg49Fck7QCMOKjYLxR4Gzrz6V3MZNrLWRJLOUtmSK9lCfv90q_rHbuepA92eUhGj1DvY-VpqE5i-wSu9s3zBhdj6WguV2NdqRKE9oxpoMPCI5Y8bRl-gROESwVhniQSnYQ_tFL_RlBvxE7BxTVh_m00]--></g></svg>