<?xml version="1.0" encoding="us-ascii" standalone="no"?><svg xmlns="http://www.w3.org/2000/svg" xmlns:xlink="http://www.w3.org/1999/xlink" contentStyleType="text/css" height="481px" preserveAspectRatio="none" style="width:759px;height:481px;background:#FFFFFF;" version="1.1" viewBox="0 0 759 481" width="759px" zoomAndPan="magnify"><defs/><g><text fill="#000000" font-family="sans-serif" font-size="14" font-weight="bold" lengthAdjust="spacing" textLength="306" x="219.5" y="22.9951">Caso de Uso - Verificaci&#243;n de Docente</text><ellipse cx="100" cy="53.2969" fill="#222222" rx="10" ry="10" style="stroke:#222222;stroke-width:1.0;"/><g id="inicio"><rect fill="#E6EE9C" height="50" rx="12.5" ry="12.5" style="stroke:#004D40;stroke-width:0.5;" width="58" x="71" y="123.2969"/><line style="stroke:#004D40;stroke-width:0.5;" x1="71" x2="129" y1="149.5938" y2="149.5938"/><text fill="#000000" font-family="sans-serif" font-size="14" lengthAdjust="spacing" textLength="38" x="81" y="141.292">inicio</text></g><g id="elem_GMN5"><path d="M164,128.2969 L164,168.5625 L418,168.5625 L418,138.2969 L408,128.2969 L164,128.2969 " fill="#FFE0B2" style="stroke:#181818;stroke-width:0.5;"/><path d="M408,128.2969 L408,138.2969 L418,138.2969 L408,128.2969 " fill="#FFE0B2" style="stroke:#181818;stroke-width:1.0;"/><text fill="#000000" font-family="sans-serif" font-size="13" font-weight="bold" lengthAdjust="spacing" textLength="227" x="170" y="145.3638">Coordinador acad&#233;mico inicia:</text><text fill="#000000" font-family="sans-serif" font-size="13" lengthAdjust="spacing" textLength="233" x="170" y="160.4966">- Proceso de verificaci&#243;n de docente</text></g><g id="revisar_documentaci&#243;n"><rect fill="#E6EE9C" height="50" rx="12.5" ry="12.5" style="stroke:#004D40;stroke-width:0.5;" width="186" x="7" y="233.2969"/><line style="stroke:#004D40;stroke-width:0.5;" x1="7" x2="193" y1="259.5938" y2="259.5938"/><text fill="#000000" font-family="sans-serif" font-size="14" lengthAdjust="spacing" textLength="166" x="17" y="251.292">revisar_documentaci&#243;n</text></g><g id="elem_GMN10"><path d="M228.5,245.7969 L228.5,270.9297 L575.5,270.9297 L575.5,255.7969 L565.5,245.7969 L228.5,245.7969 " fill="#FFE0B2" style="stroke:#181818;stroke-width:0.5;"/><path d="M565.5,245.7969 L565.5,255.7969 L575.5,255.7969 L565.5,245.7969 " fill="#FFE0B2" style="stroke:#181818;stroke-width:1.0;"/><text fill="#000000" font-family="sans-serif" font-size="13" lengthAdjust="spacing" textLength="326" x="234.5" y="262.8638">Revisar documentaci&#243;n y credenciales del docente</text></g><g id="confirmar_verificaci&#243;n"><rect fill="#E6EE9C" height="50" rx="12.5" ry="12.5" style="stroke:#004D40;stroke-width:0.5;" width="180" x="10" y="343.2969"/><line style="stroke:#004D40;stroke-width:0.5;" x1="10" x2="190" y1="369.5938" y2="369.5938"/><text fill="#000000" font-family="sans-serif" font-size="14" lengthAdjust="spacing" textLength="160" x="20" y="361.292">confirmar_verificaci&#243;n</text></g><g id="elem_GMN15"><path d="M496,355.7969 L496,380.9297 L752,380.9297 L752,365.7969 L742,355.7969 L496,355.7969 " fill="#FFE0B2" style="stroke:#181818;stroke-width:0.5;"/><path d="M742,355.7969 L742,365.7969 L752,365.7969 L742,355.7969 " fill="#FFE0B2" style="stroke:#181818;stroke-width:1.0;"/><text fill="#000000" font-family="sans-serif" font-size="13" lengthAdjust="spacing" textLength="235" x="502" y="372.8638">Confirmar la verificaci&#243;n del docente</text></g><ellipse cx="100" cy="464.2969" fill="none" rx="11" ry="11" style="stroke:#222222;stroke-width:1.0;"/><ellipse cx="100" cy="464.2969" fill="#222222" rx="6" ry="6" style="stroke:#222222;stroke-width:1.0;"/><g id="elem_GMN20"><path d="M225.5,355.7969 L225.5,364.2969 L190.292,368.2969 L225.5,372.2969 L225.5,380.9297 A0,0 0 0 0 225.5,380.9297 L460.5,380.9297 A0,0 0 0 0 460.5,380.9297 L460.5,365.7969 L450.5,355.7969 L225.5,355.7969 A0,0 0 0 0 225.5,355.7969 " fill="#FFE0B2" style="stroke:#181818;stroke-width:0.5;"/><path d="M450.5,355.7969 L450.5,365.7969 L460.5,365.7969 L450.5,355.7969 " fill="#FFE0B2" style="stroke:#181818;stroke-width:0.5;"/><text fill="#000000" font-family="sans-serif" font-size="13" lengthAdjust="spacing" textLength="214" x="231.5" y="372.8638">Docente verificado exitosamente</text></g><!--link *start* to inicio--><g id="link_*start*_inicio"><path d="M100,63.5539 C100,77.3369 100,97.7189 100,117.2039 " fill="none" id="*start*-to-inicio" style="stroke:#008000;stroke-width:1.0;"/><polygon fill="#008000" points="100,123.2039,104,114.2039,100,118.2039,96,114.2039,100,123.2039" style="stroke:#008000;stroke-width:1.0;"/></g><!--link inicio to GMN5--><g id="link_inicio_GMN5"><path d="M129.225,148.2969 C145.962,148.2969 163.667,148.2969 163.667,148.2969 C163.667,148.2969 163.729,148.2969 163.849,148.2969 " fill="none" id="inicio-GMN5" style="stroke:#181818;stroke-width:1.0;stroke-dasharray:7.0,7.0;"/></g><!--link inicio to revisar_documentaci?n--><g id="link_inicio_revisar_documentaci&#243;n"><path d="M100,173.5339 C100,191.3209 100,209.3729 100,227.1409 " fill="none" id="inicio-to-revisar_documentaci&#243;n" style="stroke:#008000;stroke-width:1.0;"/><polygon fill="#008000" points="100,233.1409,104,224.1409,100,228.1409,96,224.1409,100,233.1409" style="stroke:#008000;stroke-width:1.0;"/></g><!--link revisar_documentaci?n to GMN10--><g id="link_revisar_documentaci&#243;n_GMN10"><path d="M193.1,258.2969 C197.827,258.2969 200.667,258.2969 200.667,258.2969 C200.667,258.2969 212.697,258.2969 228.441,258.2969 " fill="none" id="revisar_documentaci&#243;n-GMN10" style="stroke:#181818;stroke-width:1.0;stroke-dasharray:7.0,7.0;"/></g><!--link revisar_documentaci?n to confirmar_verificaci?n--><g id="link_revisar_documentaci&#243;n_confirmar_verificaci&#243;n"><path d="M100,283.5339 C100,301.3209 100,319.3729 100,337.1409 " fill="none" id="revisar_documentaci&#243;n-to-confirmar_verificaci&#243;n" style="stroke:#008000;stroke-width:1.0;"/><polygon fill="#008000" points="100,343.1409,104,334.1409,100,338.1409,96,334.1409,100,343.1409" style="stroke:#008000;stroke-width:1.0;"/></g><!--link confirmar_verificaci?n to GMN15--><g id="link_confirmar_verificaci&#243;n_GMN15"><path d="M157.241,343.2109 C190.341,328.7059 225.5,313.2969 225.5,313.2969 C225.5,313.2969 460.5,313.2969 460.5,313.2969 C460.5,313.2969 538.219,339.4409 586.49,355.6789 " fill="none" id="confirmar_verificaci&#243;n-GMN15" style="stroke:#181818;stroke-width:1.0;stroke-dasharray:7.0,7.0;"/></g><!--link confirmar_verificaci?n to *end*--><g id="link_confirmar_verificaci&#243;n_*end*"><path d="M100,393.5042 C100,412.8698 100,433.047 100,447.201 " fill="none" id="confirmar_verificaci&#243;n-to-*end*" style="stroke:#008000;stroke-width:1.0;"/><polygon fill="#008000" points="100,453.201,104,444.201,100,448.201,96,444.201,100,453.201" style="stroke:#008000;stroke-width:1.0;"/></g><!--SRC=[ZP71IWCn48RlUOg1tXOM5Yc27ZouFe08UYb5ncIs3ircbYGjBk83UVOH-c9cksqXjGkUGcR-_FytcR1crw775aB4IF2f0EvHhrTUDixKOiN3ZAw9RlJG4M_87wfLDJVpIdqf5KucJgOyceQgjwjSRTbHx3k2Jcm_N9IA72r1ZK7043odeuGNyjomHisx7pUK7qIJYqczA9PGBcOhJ-IMvHsmOysYzXIUL-yHf3aM0OgYbZG0EpI923MQtNVBMaO5tXP54fNmw9FzcByzJpQ7P79cFwjIetj6uMdB0Vrh4c_Q91-Vdr5DY02UnWRa3UX1UpBa4gYba5Zi1PZBfXcS5jUmRvCe6-wCRae5K1yxOF7F_rnYch3AeD8U_mrmMFufsmZG1qS9s6R9lm00]--></g></svg>