<svg xmlns="http://www.w3.org/2000/svg" xmlns:xlink="http://www.w3.org/1999/xlink" contentStyleType="text/css" height="853px" preserveAspectRatio="none" style="width:483px;height:853px;background:#FFFFFF;" version="1.1" viewBox="0 0 483 853" width="483px" zoomAndPan="magnify"><defs/><g><text fill="#000000" font-family="sans-serif" font-size="14" font-weight="bold" lengthAdjust="spacing" textLength="432" x="15.25" y="22.9951">Caso de Uso Asignar Aula a Asignatura - TimeGuardian</text><g id="ASIGNAR_DOCENTE_ASIGNATURA"><rect fill="#FAF4B4" height="50" rx="12.5" ry="12.5" style="stroke:#C90000;stroke-width:0.5;" width="253" x="111.75" y="44.2969"/><line style="stroke:#C90000;stroke-width:0.5;" x1="111.75" x2="364.75" y1="70.5938" y2="70.5938"/><text fill="#000000" font-family="sans-serif" font-size="14" lengthAdjust="spacing" textLength="233" x="121.75" y="62.292">ASIGNAR_DOCENTE_ASIGNATURA</text></g><path d="M19.5,204.2969 L457,204.2969 A12.5,12.5 0 0 1 469.5,216.7969 L469.5,230.5938 L7,230.5938 L7,216.7969 A12.5,12.5 0 0 1 19.5,204.2969 " fill="#FAF4B4" style="stroke:#FAF4B4;stroke-width:1.0;"/><rect fill="none" height="533.2969" rx="12.5" ry="12.5" style="stroke:#C90000;stroke-width:0.5;" width="462.5" x="7" y="204.2969"/><line style="stroke:#C90000;stroke-width:0.5;" x1="7" x2="469.5" y1="230.5938" y2="230.5938"/><text fill="#000000" font-family="sans-serif" font-size="14" lengthAdjust="spacing" textLength="104" x="186.25" y="222.292">AsignacionAula</text><g id="AsignacionAula.SeleccionarAsignatura"><rect fill="#FAF4B4" height="50" rx="12.5" ry="12.5" style="stroke:#C90000;stroke-width:0.5;" width="177" x="19" y="347.5938"/><line style="stroke:#C90000;stroke-width:0.5;" x1="19" x2="196" y1="373.8906" y2="373.8906"/><text fill="#000000" font-family="sans-serif" font-size="14" lengthAdjust="spacing" textLength="157" x="29" y="365.5889">Seleccionar Asignatura</text></g><g id="AsignacionAula.ElegirAula"><rect fill="#FAF4B4" height="50" rx="12.5" ry="12.5" style="stroke:#C90000;stroke-width:0.5;" width="91" x="62" y="483.5938"/><line style="stroke:#C90000;stroke-width:0.5;" x1="62" x2="153" y1="509.8906" y2="509.8906"/><text fill="#000000" font-family="sans-serif" font-size="14" lengthAdjust="spacing" textLength="71" x="72" y="501.5889">Elegir Aula</text></g><g id="AsignacionAula.Confirmar"><rect fill="#FAF4B4" height="50" rx="12.5" ry="12.5" style="stroke:#C90000;stroke-width:0.5;" width="165" x="25" y="619.5938"/><line style="stroke:#C90000;stroke-width:0.5;" x1="25" x2="190" y1="645.8906" y2="645.8906"/><text fill="#000000" font-family="sans-serif" font-size="14" lengthAdjust="spacing" textLength="145" x="35" y="637.5889">Confirmar Asignaci&#243;n</text></g><ellipse cx="107.5" cy="251.5938" fill="#222222" rx="10" ry="10" style="stroke:#222222;stroke-width:1.0;"/><ellipse cx="107.5" cy="716.5938" fill="none" rx="11" ry="11" style="stroke:#222222;stroke-width:1.0;"/><ellipse cx="107.5" cy="716.5938" fill="#222222" rx="6" ry="6" style="stroke:#222222;stroke-width:1.0;"/><!--link *start*AsignacionAula to SeleccionarAsignatura--><g id="link_*start*AsignacionAula_SeleccionarAsignatura"><path d="M107.5,261.9338 C107.5,280.1238 107.5,314.8338 107.5,341.2038 " fill="none" id="*start*AsignacionAula-to-SeleccionarAsignatura" style="stroke:#008000;stroke-width:1.0;"/><polygon fill="#008000" points="107.5,347.2038,111.5,338.2038,107.5,342.2038,103.5,338.2038,107.5,347.2038" style="stroke:#008000;stroke-width:1.0;"/><path d="M112.5,284.5938 L112.5,324.5938 L460.5,324.5938 L460.5,294.5938 L450.5,284.5938 L112.5,284.5938 " fill="#F5F5F5" style="stroke:#181818;stroke-width:0.5;"/><path d="M450.5,284.5938 L450.5,294.5938 L460.5,294.5938 L450.5,284.5938 " fill="#F5F5F5" style="stroke:#181818;stroke-width:0.5;"/><text fill="#000000" font-family="sans-serif" font-size="13" font-weight="bold" lengthAdjust="spacing" textLength="95" x="118.5" y="301.6606">Cargar Aulas</text><text fill="#000000" font-family="sans-serif" font-size="13" lengthAdjust="spacing" textLength="323" x="122.5" y="316.7935">- Cargar todas las asignaturas de la base de datos</text></g><!--link SeleccionarAsignatura to ElegirAula--><g id="link_SeleccionarAsignatura_ElegirAula"><path d="M107.5,397.8638 C107.5,422.1438 107.5,453.2838 107.5,477.5037 " fill="none" id="SeleccionarAsignatura-to-ElegirAula" style="stroke:#008000;stroke-width:1.0;"/><polygon fill="#008000" points="107.5,483.5037,111.5,474.5037,107.5,478.5037,103.5,474.5037,107.5,483.5037" style="stroke:#008000;stroke-width:1.0;"/><path d="M112.5,420.5938 L112.5,460.5938 L415.5,460.5938 L415.5,430.5938 L405.5,420.5938 L112.5,420.5938 " fill="#F5F5F5" style="stroke:#181818;stroke-width:0.5;"/><path d="M405.5,420.5938 L405.5,430.5938 L415.5,430.5938 L405.5,420.5938 " fill="#F5F5F5" style="stroke:#181818;stroke-width:0.5;"/><text fill="#000000" font-family="sans-serif" font-size="13" font-weight="bold" lengthAdjust="spacing" textLength="100" x="118.5" y="437.6606">Cargar Aulas:</text><text fill="#000000" font-family="sans-serif" font-size="13" lengthAdjust="spacing" textLength="282" x="118.5" y="452.7935">- Cargar todas las aulas de la base de datos</text></g><!--link ElegirAula to Confirmar--><g id="link_ElegirAula_Confirmar"><path d="M107.5,533.8638 C107.5,558.1438 107.5,589.2838 107.5,613.5038 " fill="none" id="ElegirAula-to-Confirmar" style="stroke:#008000;stroke-width:1.0;"/><polygon fill="#008000" points="107.5,619.5038,111.5,610.5038,107.5,614.5038,103.5,610.5038,107.5,619.5038" style="stroke:#008000;stroke-width:1.0;"/><path d="M112.5,556.5938 L112.5,596.5938 L265.5,596.5938 L265.5,566.5938 L255.5,556.5938 L112.5,556.5938 " fill="#F5F5F5" style="stroke:#181818;stroke-width:0.5;"/><path d="M255.5,556.5938 L255.5,566.5938 L265.5,566.5938 L255.5,556.5938 " fill="#F5F5F5" style="stroke:#181818;stroke-width:0.5;"/><text fill="#000000" font-family="sans-serif" font-size="13" font-weight="bold" lengthAdjust="spacing" textLength="122" x="118.5" y="573.6606">Sistema guarda:</text><text fill="#000000" font-family="sans-serif" font-size="13" lengthAdjust="spacing" textLength="132" x="118.5" y="588.7935">- Asignaci&#243;n del aula</text></g><!--link Confirmar to *end*AsignacionAula--><g id="link_Confirmar_*end*AsignacionAula"><path d="M107.5,670.0738 C107.5,682.0638 107.5,689.8638 107.5,699.0938 " fill="none" id="Confirmar-to-*end*AsignacionAula" style="stroke:#008000;stroke-width:1.0;"/><polygon fill="#008000" points="107.5,705.0938,111.5,696.0938,107.5,700.0938,103.5,696.0938,107.5,705.0938" style="stroke:#008000;stroke-width:1.0;"/></g><g id="ASIGNAR_AULA"><rect fill="#FAF4B4" height="50" rx="12.5" ry="12.5" style="stroke:#C90000;stroke-width:0.5;" width="123" x="176.75" y="797.5969"/><line style="stroke:#C90000;stroke-width:0.5;" x1="176.75" x2="299.75" y1="823.8938" y2="823.8938"/><text fill="#000000" font-family="sans-serif" font-size="14" lengthAdjust="spacing" textLength="103" x="186.75" y="815.592">ASIGNAR_AULA</text></g><!--link ASIGNAR_DOCENTE_ASIGNATURA to AsignacionAula--><g id="link_ASIGNAR_DOCENTE_ASIGNATURA_AsignacionAula"><path d="M238.25,94.6969 C238.25,118.9369 238.25,152.9069 238.25,197.9269 " fill="none" id="ASIGNAR_DOCENTE_ASIGNATURA-to-AsignacionAula" style="stroke:#008000;stroke-width:1.0;"/><polygon fill="#008000" points="238.25,203.9269,242.25,194.9269,238.25,198.9269,234.25,194.9269,238.25,203.9269" style="stroke:#008000;stroke-width:1.0;"/><path d="M243.25,129.2969 L243.25,169.2969 L436.25,169.2969 L436.25,139.2969 L426.25,129.2969 L243.25,129.2969 " fill="#F5F5F5" style="stroke:#181818;stroke-width:0.5;"/><path d="M426.25,129.2969 L426.25,139.2969 L436.25,139.2969 L426.25,129.2969 " fill="#F5F5F5" style="stroke:#181818;stroke-width:0.5;"/><text fill="#000000" font-family="sans-serif" font-size="13" font-weight="bold" lengthAdjust="spacing" textLength="142" x="249.25" y="146.3638">Usuario selecciona:</text><text fill="#000000" font-family="sans-serif" font-size="13" lengthAdjust="spacing" textLength="172" x="249.25" y="161.4966">- Asignar aula a asignatura</text></g><!--link AsignacionAula to ASIGNAR_AULA--><g id="link_AsignacionAula_ASIGNAR_AULA"><path d="M238.25,737.8469 C238.25,761.6269 238.25,776.2869 238.25,791.1369 " fill="none" id="AsignacionAula-to-ASIGNAR_AULA" style="stroke:#008000;stroke-width:1.0;"/><polygon fill="#008000" points="238.25,797.1369,242.25,788.1369,238.25,792.1369,234.25,788.1369,238.25,797.1369" style="stroke:#008000;stroke-width:1.0;"/></g><!--SRC=[TLD1QiCm4Bph5KjoCnXwI0_jeU2w8HHA2aby2Y5iRCM8o5AGv4CeVLMVq8zLaeqi1zSsnAlTxCpEhFM5YIigR40RD1I-2C0hbfTQoLPKkUHImVoCvyLfuJ9ILLJrf-NJWxt8Do4wD17otnwFxXvNSoQekLqfN2M_kO0GmmodaAEMK54ex4-cMIrGGTPo1En3qog457QieQiMLSLG499jtrVhR7Dy-yoNwztosCMxOfEb-tcjA1M7zALlK38fN4VY6KlXk5mixoGfj6t896ZAQUdAy3b9R2ODJB1ZWe49eQBoezlXl8fZ32z8bvXjGrSLZJAppI1A3PdXdqjEQzR9uCkxsCyGQd8fpamreNV9Vd-4hmuPMsoVVNA0M9Hfx5WR84cIewfx9xJJ98N-nCZAOjZJI1Jj3BJ3dr1JzrgXaJfI2gP1HxH6CzuvvRoA2NKkmIGfbv-a0n08GOGs8X5BDy5XoxIX3KBjzX075f435ezx4cEymQqOpbhZlfAx5HfjSB_dMV6H_G40]--></g></svg>