<svg xmlns="http://www.w3.org/2000/svg" xmlns:xlink="http://www.w3.org/1999/xlink" contentStyleType="text/css" height="977px" preserveAspectRatio="none" style="width:550px;height:977px;background:#FFFFFF;" version="1.1" viewBox="0 0 550 977" width="550px" zoomAndPan="magnify"><defs/><g><text fill="#000000" font-family="sans-serif" font-size="14" font-weight="bold" lengthAdjust="spacing" textLength="293.8086" x="118.0957" y="22.9951">Caso de Uso Registro - TimeGuardian</text><g id="INICIO"><rect fill="#E6EE9C" height="50" rx="12.5" ry="12.5" style="stroke:#6A1B9A;stroke-width:0.5;" width="63.6543" x="240.17" y="44.2969"/><line style="stroke:#6A1B9A;stroke-width:0.5;" x1="240.17" x2="303.8243" y1="70.5938" y2="70.5938"/><text fill="#000000" font-family="sans-serif" font-size="14" lengthAdjust="spacing" textLength="43.6543" x="250.17" y="62.292">INICIO</text></g><path d="M19.5,204.2969 L524.5,204.2969 A12.5,12.5 0 0 1 537,216.7969 L537,230.5938 L7,230.5938 L7,216.7969 A12.5,12.5 0 0 1 19.5,204.2969 " fill="#E6EE9C" style="stroke:#E6EE9C;stroke-width:1.0;"/><rect fill="none" height="545.2969" rx="12.5" ry="12.5" style="stroke:#6A1B9A;stroke-width:0.5;" width="530" x="7" y="204.2969"/><line style="stroke:#6A1B9A;stroke-width:0.5;" x1="7" x2="537" y1="230.5938" y2="230.5938"/><text fill="#000000" font-family="sans-serif" font-size="14" lengthAdjust="spacing" textLength="126.8477" x="208.5762" y="222.292">registroDeUsuario</text><g id="registroDeUsuario.1"><rect fill="#E6EE9C" height="50" rx="12.5" ry="12.5" style="stroke:#6A1B9A;stroke-width:0.5;" width="50" x="136" y="298.5938"/><line style="stroke:#6A1B9A;stroke-width:0.5;" x1="136" x2="186" y1="324.8906" y2="324.8906"/><text fill="#000000" font-family="sans-serif" font-size="14" lengthAdjust="spacing" textLength="4.4502" x="158.7749" y="316.5889">&#160;</text></g><g id="registroDeUsuario.2"><rect fill="#E6EE9C" height="50" rx="12.5" ry="12.5" style="stroke:#6A1B9A;stroke-width:0.5;" width="50" x="19" y="464.5938"/><line style="stroke:#6A1B9A;stroke-width:0.5;" x1="19" x2="69" y1="490.8906" y2="490.8906"/><text fill="#000000" font-family="sans-serif" font-size="14" lengthAdjust="spacing" textLength="4.4502" x="41.7749" y="482.5889">&#160;</text></g><g id="registroDeUsuario.3"><rect fill="#E6EE9C" height="50" rx="12.5" ry="12.5" style="stroke:#6A1B9A;stroke-width:0.5;" width="50" x="142" y="630.5938"/><line style="stroke:#6A1B9A;stroke-width:0.5;" x1="142" x2="192" y1="656.8906" y2="656.8906"/><text fill="#000000" font-family="sans-serif" font-size="14" lengthAdjust="spacing" textLength="4.4502" x="164.7749" y="648.5889">&#160;</text></g><ellipse cx="161" cy="251.5938" fill="#222222" rx="10" ry="10" style="stroke:#222222;stroke-width:1.0;"/><ellipse cx="167" cy="728.5938" fill="none" rx="11" ry="11" style="stroke:#222222;stroke-width:1.0;"/><ellipse cx="167" cy="728.5938" fill="#222222" rx="6" ry="6" style="stroke:#222222;stroke-width:1.0;"/><!--link *start*registroDeUsuario to 1--><g id="link_*start*registroDeUsuario_1"><path d="M161,262.0338 C161,271.2938 161,279.7838 161,292.2738 " fill="none" id="*start*registroDeUsuario-to-1" style="stroke:#FFA500;stroke-width:1.0;"/><polygon fill="#FFA500" points="161,298.2738,165,289.2738,161,293.2738,157,289.2738,161,298.2738" style="stroke:#FFA500;stroke-width:1.0;"/></g><!--link 1 to 2--><g id="link_1_2"><path d="M135.72,333.2938 C99.99,345.5938 39,366.5938 39,366.5938 C39,366.5938 39,446.5938 39,446.5938 C39,446.5938 39.2807,448.9658 40.3807,458.2058 " fill="none" id="1-to-2" style="stroke:#FFA500;stroke-width:1.0;"/><polygon fill="#FFA500" points="41.09,464.1638,43.998,454.754,40.4989,459.1988,36.0541,455.6997,41.09,464.1638" style="stroke:#FFA500;stroke-width:1.0;"/><path d="M44,371.5938 L44,441.5938 L266,441.5938 L266,381.5938 L256,371.5938 L44,371.5938 " fill="#FFE0B2" style="stroke:#181818;stroke-width:0.5;"/><path d="M256,371.5938 L256,381.5938 L266,381.5938 L256,371.5938 " fill="#FFE0B2" style="stroke:#181818;stroke-width:0.5;"/><text fill="#000000" font-family="sans-serif" font-size="13" font-weight="bold" lengthAdjust="spacing" textLength="201.4429" x="50" y="388.6606">Usuario debe proporcionar:</text><text fill="#000000" font-family="sans-serif" font-size="13" lengthAdjust="spacing" textLength="60.7598" x="50" y="403.7935">- Nombre</text><text fill="#000000" font-family="sans-serif" font-size="13" lengthAdjust="spacing" textLength="44.8906" x="50" y="418.9263">- Email</text><text fill="#000000" font-family="sans-serif" font-size="13" lengthAdjust="spacing" textLength="83.478" x="50" y="434.0591">- Contrase&#241;a</text></g><!--link 2 to 3--><g id="link_2_3"><path d="M47.2,514.9938 C51.87,550.5938 60,612.5938 60,612.5938 C60,612.5938 104.4149,630.0314 136.0549,642.4514 " fill="none" id="2-to-3" style="stroke:#FFA500;stroke-width:1.0;"/><polygon fill="#FFA500" points="141.64,644.6438,134.7239,637.6318,136.9857,642.8168,131.8007,645.0786,141.64,644.6438" style="stroke:#FFA500;stroke-width:1.0;"/><path d="M65,537.5938 L65,607.5938 L266,607.5938 L266,547.5938 L256,537.5938 L65,537.5938 " fill="#FFE0B2" style="stroke:#181818;stroke-width:0.5;"/><path d="M256,537.5938 L256,547.5938 L266,547.5938 L256,537.5938 " fill="#FFE0B2" style="stroke:#181818;stroke-width:0.5;"/><text fill="#000000" font-family="sans-serif" font-size="13" font-weight="bold" lengthAdjust="spacing" textLength="123.3794" x="71" y="554.6606">Sistema verifica:</text><text fill="#000000" font-family="sans-serif" font-size="13" lengthAdjust="spacing" textLength="167.1401" x="71" y="569.7935">- Email sin registro previo</text><text fill="#000000" font-family="sans-serif" font-size="13" lengthAdjust="spacing" textLength="180.4766" x="71" y="584.9263">- Usuario sin registro previo</text><text fill="#000000" font-family="sans-serif" font-size="13" lengthAdjust="spacing" textLength="132.1836" x="71" y="600.0591">- Contrase&#241;a segura</text></g><!--link 3 to 1--><g id="link_3_1"><path d="M192.44,644.3238 C223.23,631.8838 271,612.5938 271,612.5938 C271,612.5938 271,366.5938 271,366.5938 C271,366.5938 224.3152,348.7743 191.8452,336.3743 " fill="none" id="3-to-1" style="stroke:#FF0000;stroke-width:1.0;"/><polygon fill="#FF0000" points="186.24,334.2338,193.2207,341.1814,190.911,336.0176,196.0748,333.7078,186.24,334.2338" style="stroke:#FF0000;stroke-width:1.0;"/><path d="M276,477.0938 L276,502.0938 L528,502.0938 L528,487.0938 L518,477.0938 L276,477.0938 " fill="#FFE0B2" style="stroke:#181818;stroke-width:0.5;"/><path d="M518,477.0938 L518,487.0938 L528,487.0938 L518,477.0938 " fill="#FFE0B2" style="stroke:#181818;stroke-width:0.5;"/><text fill="#000000" font-family="sans-serif" font-size="13" lengthAdjust="spacing" textLength="231.2959" x="282" y="494.1606">[informaci&#243;n inv&#225;lida o incompleta]</text></g><!--link 3 to *end*registroDeUsuario--><g id="link_3_*end*registroDeUsuario"><path d="M167,681.0238 C167,693.3838 167,701.7238 167,711.1938 " fill="none" id="3-to-*end*registroDeUsuario" style="stroke:#FFA500;stroke-width:1.0;"/><polygon fill="#FFA500" points="167,717.1938,171,708.1938,167,712.1938,163,708.1938,167,717.1938" style="stroke:#FFA500;stroke-width:1.0;"/></g><g id="abrirP&#225;ginaInicio"><rect fill="#E6EE9C" height="50" rx="12.5" ry="12.5" style="stroke:#6A1B9A;stroke-width:0.5;" width="137.1611" x="203.42" y="810.5969"/><line style="stroke:#6A1B9A;stroke-width:0.5;" x1="203.42" x2="340.5811" y1="836.8938" y2="836.8938"/><text fill="#000000" font-family="sans-serif" font-size="14" lengthAdjust="spacing" textLength="117.1611" x="213.42" y="828.592">abrirP&#225;ginaInicio</text></g><g id="P&#193;GINA_HOME"><rect fill="#E6EE9C" height="50" rx="12.5" ry="12.5" style="stroke:#6A1B9A;stroke-width:0.5;" width="122.5186" x="210.74" y="921.5969"/><line style="stroke:#6A1B9A;stroke-width:0.5;" x1="210.74" x2="333.2586" y1="947.8938" y2="947.8938"/><text fill="#000000" font-family="sans-serif" font-size="14" lengthAdjust="spacing" textLength="102.5186" x="220.74" y="939.592">P&#193;GINA_HOME</text></g><!--link INICIO to registroDeUsuario--><g id="link_INICIO_registroDeUsuario"><path d="M272,94.7569 C272,118.9969 272,152.9569 272,198.0869 " fill="none" id="INICIO-to-registroDeUsuario" style="stroke:#FFA500;stroke-width:1.0;"/><polygon fill="#FFA500" points="272,204.0869,276,195.0869,272,199.0869,268,195.0869,272,204.0869" style="stroke:#FFA500;stroke-width:1.0;"/><path d="M277,129.2969 L277,169.2969 L416,169.2969 L416,139.2969 L406,129.2969 L277,129.2969 " fill="#FFE0B2" style="stroke:#181818;stroke-width:0.5;"/><path d="M406,129.2969 L406,139.2969 L416,139.2969 L406,129.2969 " fill="#FFE0B2" style="stroke:#181818;stroke-width:0.5;"/><text fill="#000000" font-family="sans-serif" font-size="13" font-weight="bold" lengthAdjust="spacing" textLength="118.5742" x="283" y="146.3638">Usuario solicita:</text><text fill="#000000" font-family="sans-serif" font-size="13" lengthAdjust="spacing" textLength="83.0146" x="283" y="161.4966">- Registrarse</text></g><!--link registroDeUsuario to abrirP?ginaInicio--><g id="link_registroDeUsuario_abrirP&#225;ginaInicio"><path d="M272,750.0769 C272,774.2969 272,789.2869 272,804.2869 " fill="none" id="registroDeUsuario-to-abrirP&#225;ginaInicio" style="stroke:#FFA500;stroke-width:1.0;"/><polygon fill="#FFA500" points="272,810.2869,276,801.2869,272,805.2869,268,801.2869,272,810.2869" style="stroke:#FFA500;stroke-width:1.0;"/></g><!--link abrirP?ginaInicio to P?GINA_HOME--><g id="link_abrirP&#225;ginaInicio_P&#193;GINA_HOME"><path d="M272,861.0569 C272,879.0069 272,897.2869 272,915.2169 " fill="none" id="abrirP&#225;ginaInicio-to-P&#193;GINA_HOME" style="stroke:#FFA500;stroke-width:1.0;"/><polygon fill="#FFA500" points="272,921.2169,276,912.2169,272,916.2169,268,912.2169,272,921.2169" style="stroke:#FFA500;stroke-width:1.0;"/></g><!--SRC=[TPBTQjjG3CVlprE8zivWM18eT1U3BIkTBvgMRRqAeSYsOaJi8wFZ14hPnHwbZp3s27wnoVbmvgGz66pz9Ki_IIUisDUeM45ei25uSG1VC5iLAckVJwKKXKkw8hhEEezeJhfNht2KNgFxvLpeatXvByToIH_IyJ2wP4_DSqrGI_dS6Surt9G4Kmm2ES6ZlRvJmQ5HWHX-SaMtQzISqJkNp99fSW_n_58KVK6B-1FeFlWhFGOBP75R8l5ThPLnHT7U0K5AphZ1Zr5aUdoeWnh8aS-thHZiTYfdQRiMTwuHO80BkEY5yQamEGhspAF547baucWeZKqwuUxEaJsdr8QcKejcB1vrrqHtOfX9bIhrvas5NFRMLBpr6AZzWwRrVO9X3n0cRo54qGyR0rK86r9USeQ7klio4DZtmp90sjW6Tlv-xEz6_8S6WOgrdX1EEaAb_32qCxmv-wLeXHctVpsmtxIl9US8Oj-PL7L93IxUo7disfRJtT2pTG-2C5NMX_QrO8-9jpiapfrhWryUsj-toUppqxVxkvj_]--></g></svg>