<svg xmlns="http://www.w3.org/2000/svg" xmlns:xlink="http://www.w3.org/1999/xlink" contentStyleType="text/css" height="678px" preserveAspectRatio="none" style="width:621px;height:678px;background:#FFFFFF;" version="1.1" viewBox="0 0 621 678" width="621px" zoomAndPan="magnify"><defs/><g><text fill="#000000" font-family="sans-serif" font-size="14" font-weight="bold" lengthAdjust="spacing" textLength="346.6846" x="127.1338" y="22.9951">Caso de Uso - Creaci&#243;n de Perfil de Docente</text><ellipse cx="307.48" cy="53.2969" fill="#222222" rx="10" ry="10" style="stroke:#222222;stroke-width:1.0;"/><path d="M19.5,173.2969 L595.4522,173.2969 A12.5,12.5 0 0 1 607.9522,185.7969 L607.9522,199.5938 L7,199.5938 L7,185.7969 A12.5,12.5 0 0 1 19.5,173.2969 " fill="#FAF4B4" style="stroke:#FAF4B4;stroke-width:1.0;"/><rect fill="none" height="388.6969" rx="12.5" ry="12.5" style="stroke:#C90000;stroke-width:0.5;" width="600.9522" x="7" y="173.2969"/><line style="stroke:#C90000;stroke-width:0.5;" x1="7" x2="607.9522" y1="199.5938" y2="199.5938"/><text fill="#000000" font-family="sans-serif" font-size="14" lengthAdjust="spacing" textLength="36.8047" x="289.0738" y="191.292">inicio</text><g id="inicio.state1"><rect fill="#FAF4B4" height="50" rx="12.5" ry="12.5" style="stroke:#C90000;stroke-width:0.5;" width="288.9941" x="19.55" y="269.2938"/><line style="stroke:#C90000;stroke-width:0.5;" x1="19.55" x2="308.5441" y1="295.5906" y2="295.5906"/><text fill="#000000" font-family="sans-serif" font-size="14" lengthAdjust="spacing" textLength="268.9941" x="29.55" y="287.2889">Ingresar datos personales del docente</text></g><g id="inicio.state2"><rect fill="#FAF4B4" height="50" rx="12.5" ry="12.5" style="stroke:#C90000;stroke-width:0.5;" width="290.0947" x="19" y="357.9938"/><line style="stroke:#C90000;stroke-width:0.5;" x1="19" x2="309.0947" y1="384.2906" y2="384.2906"/><text fill="#000000" font-family="sans-serif" font-size="14" lengthAdjust="spacing" textLength="270.0947" x="29" y="375.9889">Verificar la precisi&#243;n de la informaci&#243;n</text></g><g id="inicio.state3"><rect fill="#FAF4B4" height="50" rx="12.5" ry="12.5" style="stroke:#C90000;stroke-width:0.5;" width="153.8818" x="87.11" y="443.9938"/><line style="stroke:#C90000;stroke-width:0.5;" x1="87.11" x2="240.9918" y1="470.2906" y2="470.2906"/><text fill="#000000" font-family="sans-serif" font-size="14" lengthAdjust="spacing" textLength="133.8818" x="97.11" y="461.9889">Confirmar creaci&#243;n</text></g><ellipse cx="164.05" cy="220.5938" fill="#222222" rx="10" ry="10" style="stroke:#222222;stroke-width:1.0;"/><g id="elem_GMN10"><path d="M327.04,266.5938 L327.04,290.2938 L308.94,294.2938 L327.04,298.2938 L327.04,321.9922 A0,0 0 0 0 327.04,321.9922 L409.0473,321.9922 A0,0 0 0 0 409.0473,321.9922 L409.0473,276.5938 L399.0473,266.5938 L327.04,266.5938 A0,0 0 0 0 327.04,266.5938 " fill="#F5F5F5" style="stroke:#181818;stroke-width:0.5;"/><path d="M399.0473,266.5938 L399.0473,276.5938 L409.0473,276.5938 L399.0473,266.5938 " fill="#F5F5F5" style="stroke:#181818;stroke-width:0.5;"/><text fill="#000000" font-family="sans-serif" font-size="13" lengthAdjust="spacing" textLength="51.1431" x="333.04" y="283.6606">Incluye:</text><text fill="#000000" font-family="sans-serif" font-size="13" lengthAdjust="spacing" textLength="60.7598" x="333.04" y="298.7935">- Nombre</text><text fill="#000000" font-family="sans-serif" font-size="13" lengthAdjust="spacing" textLength="61.0073" x="333.04" y="313.9263">- Apellido</text></g><g id="elem_GMN14"><path d="M327.15,370.4238 L327.15,378.9938 L309.46,382.9938 L327.15,386.9938 L327.15,395.5566 A0,0 0 0 0 327.15,395.5566 L598.9522,395.5566 A0,0 0 0 0 598.9522,395.5566 L598.9522,380.4238 L588.9522,370.4238 L327.15,370.4238 A0,0 0 0 0 327.15,370.4238 " fill="#F5F5F5" style="stroke:#181818;stroke-width:0.5;"/><path d="M588.9522,370.4238 L588.9522,380.4238 L598.9522,380.4238 L588.9522,370.4238 " fill="#F5F5F5" style="stroke:#181818;stroke-width:0.5;"/><text fill="#000000" font-family="sans-serif" font-size="13" lengthAdjust="spacing" textLength="250.8022" x="333.15" y="387.4906">Verificar la precisi&#243;n de la informaci&#243;n</text></g><g id="elem_GMN18"><path d="M259.45,456.4238 L259.45,464.9938 L241.44,468.9938 L259.45,472.9938 L259.45,481.5566 A0,0 0 0 0 259.45,481.5566 L532.6487,481.5566 A0,0 0 0 0 532.6487,481.5566 L532.6487,466.4238 L522.6487,456.4238 L259.45,456.4238 A0,0 0 0 0 259.45,456.4238 " fill="#F5F5F5" style="stroke:#181818;stroke-width:0.5;"/><path d="M522.6487,456.4238 L522.6487,466.4238 L532.6487,466.4238 L522.6487,456.4238 " fill="#F5F5F5" style="stroke:#181818;stroke-width:0.5;"/><text fill="#000000" font-family="sans-serif" font-size="13" lengthAdjust="spacing" textLength="252.1987" x="265.45" y="473.4906">Perfil de docente creado exitosamente</text></g><ellipse cx="164.05" cy="540.9938" fill="none" rx="11" ry="11" style="stroke:#222222;stroke-width:1.0;"/><ellipse cx="164.05" cy="540.9938" fill="#222222" rx="6" ry="6" style="stroke:#222222;stroke-width:1.0;"/><!--link *start*inicio to state1--><g id="link_*start*inicio_state1"><path d="M164.05,230.9638 C164.05,240.5338 164.05,249.7838 164.05,262.8038 " fill="none" id="*start*inicio-to-state1" style="stroke:#008000;stroke-width:1.0;"/><polygon fill="#008000" points="164.05,268.8038,168.05,259.8038,164.05,263.8038,160.05,259.8038,164.05,268.8038" style="stroke:#008000;stroke-width:1.0;"/></g><!--link state1 to state2--><g id="link_state1_state2"><path d="M164.05,319.4438 C164.05,331.3738 164.05,339.7238 164.05,351.6738 " fill="none" id="state1-to-state2" style="stroke:#008000;stroke-width:1.0;"/><polygon fill="#008000" points="164.05,357.6738,168.05,348.6738,164.05,352.6738,160.05,348.6738,164.05,357.6738" style="stroke:#008000;stroke-width:1.0;"/></g><!--link state2 to state3--><g id="link_state2_state3"><path d="M164.05,408.2938 C164.05,419.4338 164.05,426.6138 164.05,437.7538 " fill="none" id="state2-to-state3" style="stroke:#008000;stroke-width:1.0;"/><polygon fill="#008000" points="164.05,443.7538,168.05,434.7538,164.05,438.7538,160.05,434.7538,164.05,443.7538" style="stroke:#008000;stroke-width:1.0;"/></g><!--link state3 to *end*inicio--><g id="link_state3_*end*inicio"><path d="M164.05,494.4738 C164.05,506.4638 164.05,514.2638 164.05,523.4938 " fill="none" id="state3-to-*end*inicio" style="stroke:#008000;stroke-width:1.0;"/><polygon fill="#008000" points="164.05,529.4938,168.05,520.4938,164.05,524.4938,160.05,520.4938,164.05,529.4938" style="stroke:#008000;stroke-width:1.0;"/></g><g id="PAGINA_PRINCIPAL"><rect fill="#FAF4B4" height="50" rx="12.5" ry="12.5" style="stroke:#C90000;stroke-width:0.5;" width="152.542" x="231.21" y="622.9969"/><line style="stroke:#C90000;stroke-width:0.5;" x1="231.21" x2="383.752" y1="649.2938" y2="649.2938"/><text fill="#000000" font-family="sans-serif" font-size="14" lengthAdjust="spacing" textLength="132.542" x="241.21" y="640.992">PAGINA_PRINCIPAL</text></g><!--link *start* to inicio--><g id="link_*start*_inicio"><path d="M307.48,63.6469 C307.48,81.9669 307.48,119.0269 307.48,167.1169 " fill="none" id="*start*-to-inicio" style="stroke:#008000;stroke-width:1.0;"/><polygon fill="#008000" points="307.48,173.1169,311.48,164.1169,307.48,168.1169,303.48,164.1169,307.48,173.1169" style="stroke:#008000;stroke-width:1.0;"/><path d="M312.48,98.2969 L312.48,138.2969 L607.48,138.2969 L607.48,108.2969 L597.48,98.2969 L312.48,98.2969 " fill="#F5F5F5" style="stroke:#181818;stroke-width:0.5;"/><path d="M597.48,98.2969 L597.48,108.2969 L607.48,108.2969 L597.48,98.2969 " fill="#F5F5F5" style="stroke:#181818;stroke-width:0.5;"/><text fill="#000000" font-family="sans-serif" font-size="13" font-weight="bold" lengthAdjust="spacing" textLength="242.6011" x="318.48" y="115.3638">Administrador del sistema inicia:</text><text fill="#000000" font-family="sans-serif" font-size="13" lengthAdjust="spacing" textLength="274.8662" x="318.48" y="130.4966">- Proceso de creaci&#243;n de perfil de docente</text></g><!--link inicio to PAGINA_PRINCIPAL--><g id="link_inicio_PAGINA_PRINCIPAL"><path d="M307.48,562.3469 C307.48,586.1969 307.48,601.4969 307.48,616.7769 " fill="none" id="inicio-to-PAGINA_PRINCIPAL" style="stroke:#008000;stroke-width:1.0;"/><polygon fill="#008000" points="307.48,622.7769,311.48,613.7769,307.48,617.7769,303.48,613.7769,307.48,622.7769" style="stroke:#008000;stroke-width:1.0;"/></g><!--SRC=[ZPB1IiGm48RlVOf1RuM2xkf13qAj80LPYg0N4Od9T0sRPaeImKLyAX_15tEIrgswAzWMqfdCpFVF97wbRI-SwC074H1UCu1p8LTBHyzMLMJ8mNuhsgF7exX3Jg4RlVBaW9_iBSlyfeYbFsiSn_TdjD4Mmxf7wCciev5bGGU3K0bFe11kU2cWSYYa_dYtqTMWQxM9VnSaqGREkSlleRZRNpf4Ur-SWRPQQigI5hAHic95ULwgZhTyS4An8eK6F5lOYI53dEOvnnNGEAuy293VqVq6hKOqMfLQvgRIz0Po6i3WsAijo_A2SIAGZoKyMM7G9_vOPm-47n8EfynRTBhLabEDWDwXrFvBY8cAMtBTe6rAdqtf5TbMSuIRUfZYvXp7t-_1RIIaqJczV0f0xUG6gAqqpsiyJKO12-eU7Ov6sQCnMX6RcxcCSWwtCRFTc5agzl_UTy1csx3vRjWymPhVnvecfWZmHVEPYIuTzJPd_eF3iuoNUxm1ttUQyh9Ub0_DTRsewgQy-WG0]--></g></svg>