<?xml version="1.0" encoding="us-ascii" standalone="no"?><svg xmlns="http://www.w3.org/2000/svg" xmlns:xlink="http://www.w3.org/1999/xlink" contentStyleType="text/css" height="645px" preserveAspectRatio="none" style="width:927px;height:645px;background:#FFFFFF;" version="1.1" viewBox="0 0 927 645" width="927px" zoomAndPan="magnify"><defs/><g><text fill="#000000" font-family="sans-serif" font-size="14" font-weight="bold" lengthAdjust="spacing" textLength="408" x="252.75" y="22.9951">Caso de Uso - Asignaci&#243;n de Docente a Asignatura</text><ellipse cx="100" cy="53.2969" fill="#222222" rx="10" ry="10" style="stroke:#222222;stroke-width:1.0;"/><g id="inicio"><rect fill="#E6EE9C" height="50" rx="12.5" ry="12.5" style="stroke:#004D40;stroke-width:0.5;" width="58" x="71" y="124.2969"/><line style="stroke:#004D40;stroke-width:0.5;" x1="71" x2="129" y1="150.5938" y2="150.5938"/><text fill="#000000" font-family="sans-serif" font-size="14" lengthAdjust="spacing" textLength="38" x="81" y="142.292">inicio</text></g><g id="elem_GMN5"><path d="M164,129.2969 L164,145.2969 L129.281,149.2969 L164,153.2969 L164,169.5625 A0,0 0 0 0 164,169.5625 L456,169.5625 A0,0 0 0 0 456,169.5625 L456,139.2969 L446,129.2969 L164,129.2969 A0,0 0 0 0 164,129.2969 " fill="#FFE0B2" style="stroke:#181818;stroke-width:0.5;"/><path d="M446,129.2969 L446,139.2969 L456,139.2969 L446,129.2969 " fill="#FFE0B2" style="stroke:#181818;stroke-width:0.5;"/><text fill="#000000" font-family="sans-serif" font-size="13" font-weight="bold" lengthAdjust="spacing" textLength="227" x="170" y="146.3638">Coordinador acad&#233;mico inicia:</text><text fill="#000000" font-family="sans-serif" font-size="13" lengthAdjust="spacing" textLength="271" x="170" y="161.4966">- Proceso de asignar docente a asignatura</text></g><g id="seleccionar_docente"><rect fill="#E6EE9C" height="50" rx="12.5" ry="12.5" style="stroke:#004D40;stroke-width:0.5;" width="168" x="16" y="235.2969"/><line style="stroke:#004D40;stroke-width:0.5;" x1="16" x2="184" y1="261.5938" y2="261.5938"/><text fill="#000000" font-family="sans-serif" font-size="14" lengthAdjust="spacing" textLength="148" x="26" y="253.292">seleccionar_docente</text></g><g id="elem_GMN10"><path d="M219,247.7969 L219,272.9297 L489,272.9297 L489,257.7969 L479,247.7969 L219,247.7969 " fill="#FFE0B2" style="stroke:#181818;stroke-width:0.5;"/><path d="M479,247.7969 L479,257.7969 L489,257.7969 L479,247.7969 " fill="#FFE0B2" style="stroke:#181818;stroke-width:1.0;"/><text fill="#000000" font-family="sans-serif" font-size="13" lengthAdjust="spacing" textLength="249" x="225" y="264.8638">Seleccionar docente para la asignatura</text></g><g id="evaluar_compatibilidad"><rect fill="#E6EE9C" height="50" rx="12.5" ry="12.5" style="stroke:#004D40;stroke-width:0.5;" width="186" x="7" y="395.2969"/><line style="stroke:#004D40;stroke-width:0.5;" x1="7" x2="193" y1="421.5938" y2="421.5938"/><text fill="#000000" font-family="sans-serif" font-size="14" lengthAdjust="spacing" textLength="166" x="17" y="413.292">evaluar_compatibilidad</text></g><g id="confirmar_asignaci&#243;n"><rect fill="#E6EE9C" height="50" rx="12.5" ry="12.5" style="stroke:#004D40;stroke-width:0.5;" width="172" x="14" y="506.2969"/><line style="stroke:#004D40;stroke-width:0.5;" x1="14" x2="186" y1="532.5938" y2="532.5938"/><text fill="#000000" font-family="sans-serif" font-size="14" lengthAdjust="spacing" textLength="152" x="24" y="524.292">confirmar_asignaci&#243;n</text></g><g id="elem_GMN17"><path d="M585.5,518.7969 L585.5,543.9297 L920.5,543.9297 L920.5,528.7969 L910.5,518.7969 L585.5,518.7969 " fill="#FFE0B2" style="stroke:#181818;stroke-width:0.5;"/><path d="M910.5,518.7969 L910.5,528.7969 L920.5,528.7969 L910.5,518.7969 " fill="#FFE0B2" style="stroke:#181818;stroke-width:1.0;"/><text fill="#000000" font-family="sans-serif" font-size="13" lengthAdjust="spacing" textLength="314" x="591.5" y="535.8638">Confirmar asignaci&#243;n del docente a la asignatura</text></g><ellipse cx="100" cy="628.2969" fill="none" rx="11" ry="11" style="stroke:#222222;stroke-width:1.0;"/><ellipse cx="100" cy="628.2969" fill="#222222" rx="6" ry="6" style="stroke:#222222;stroke-width:1.0;"/><g id="elem_GMN22"><path d="M221.5,518.7969 L221.5,543.9297 L550.5,543.9297 L550.5,528.7969 L540.5,518.7969 L221.5,518.7969 " fill="#FFE0B2" style="stroke:#181818;stroke-width:0.5;"/><path d="M540.5,518.7969 L540.5,528.7969 L550.5,528.7969 L540.5,518.7969 " fill="#FFE0B2" style="stroke:#181818;stroke-width:1.0;"/><text fill="#000000" font-family="sans-serif" font-size="13" lengthAdjust="spacing" textLength="308" x="227.5" y="535.8638">Docente asignado a la asignatura exitosamente</text></g><!--link *start* to inicio--><g id="link_*start*_inicio"><path d="M100,63.3099 C100,77.1879 100,98.2619 100,118.1369 " fill="none" id="*start*-to-inicio" style="stroke:#008000;stroke-width:1.0;"/><polygon fill="#008000" points="100,124.1369,104,115.1369,100,119.1369,96,115.1369,100,124.1369" style="stroke:#008000;stroke-width:1.0;"/></g><!--link inicio to seleccionar_docente--><g id="link_inicio_seleccionar_docente"><path d="M100,174.4879 C100,192.5509 100,211.1269 100,229.1739 " fill="none" id="inicio-to-seleccionar_docente" style="stroke:#008000;stroke-width:1.0;"/><polygon fill="#008000" points="100,235.1739,104,226.1739,100,230.1739,96,226.1739,100,235.1739" style="stroke:#008000;stroke-width:1.0;"/></g><!--link seleccionar_docente to GMN10--><g id="link_seleccionar_docente_GMN10"><path d="M184.126,260.2969 C184.481,260.2969 184.667,260.2969 184.667,260.2969 C184.667,260.2969 200.584,260.2969 218.616,260.2969 " fill="none" id="seleccionar_docente-GMN10" style="stroke:#181818;stroke-width:1.0;stroke-dasharray:7.0,7.0;"/></g><!--link seleccionar_docente to evaluar_compatibilidad--><g id="link_seleccionar_docente_evaluar_compatibilidad"><path d="M100,285.6379 C100,315.4159 100,359.5159 100,389.1869 " fill="none" id="seleccionar_docente-to-evaluar_compatibilidad" style="stroke:#008000;stroke-width:1.0;"/><polygon fill="#008000" points="100,395.1869,104,386.1869,100,390.1869,96,386.1869,100,395.1869" style="stroke:#008000;stroke-width:1.0;"/><path d="M105,320.2969 L105,360.2969 L423,360.2969 L423,330.2969 L413,320.2969 L105,320.2969 " fill="#FFE0B2" style="stroke:#181818;stroke-width:0.5;"/><path d="M413,320.2969 L413,330.2969 L423,330.2969 L413,320.2969 " fill="#FFE0B2" style="stroke:#181818;stroke-width:0.5;"/><text fill="#000000" font-family="sans-serif" font-size="13" font-weight="bold" lengthAdjust="spacing" textLength="152" x="111" y="337.3638">Coordinador eval&#250;a:</text><text fill="#000000" font-family="sans-serif" font-size="13" lengthAdjust="spacing" textLength="297" x="111" y="352.4966">- Compatibilidad del docente con la asignatura</text></g><!--link evaluar_compatibilidad to confirmar_asignaci?n--><g id="link_evaluar_compatibilidad_confirmar_asignaci&#243;n"><path d="M100,445.4879 C100,463.5509 100,482.1269 100,500.1739 " fill="none" id="evaluar_compatibilidad-to-confirmar_asignaci&#243;n" style="stroke:#008000;stroke-width:1.0;"/><polygon fill="#008000" points="100,506.1739,104,497.1739,100,501.1739,96,497.1739,100,506.1739" style="stroke:#008000;stroke-width:1.0;"/></g><!--link confirmar_asignaci?n to GMN17--><g id="link_confirmar_asignaci&#243;n_GMN17"><path d="M155.062,506.1449 C187.209,491.4609 221.5,475.7969 221.5,475.7969 C221.5,475.7969 550.5,475.7969 550.5,475.7969 C550.5,475.7969 647.577,502.4029 707.303,518.7729 " fill="none" id="confirmar_asignaci&#243;n-GMN17" style="stroke:#181818;stroke-width:1.0;stroke-dasharray:7.0,7.0;"/></g><!--link confirmar_asignaci?n to *end*--><g id="link_confirmar_asignaci&#243;n_*end*"><path d="M100,556.7618 C100,576.3333 100,596.789 100,611.0936 " fill="none" id="confirmar_asignaci&#243;n-to-*end*" style="stroke:#008000;stroke-width:1.0;"/><polygon fill="#008000" points="100,617.0936,104,608.0936,100,612.0936,96,608.0936,100,617.0936" style="stroke:#008000;stroke-width:1.0;"/></g><!--link confirmar_asignaci?n to GMN22--><g id="link_confirmar_asignaci&#243;n_GMN22"><path d="M186.192,531.2969 C191.841,531.2969 195.333,531.2969 195.333,531.2969 C195.333,531.2969 206.598,531.2969 221.384,531.2969 " fill="none" id="confirmar_asignaci&#243;n-GMN22" style="stroke:#181818;stroke-width:1.0;stroke-dasharray:7.0,7.0;"/></g><!--SRC=[ZPBDIiD04CVl-nG3lGK2GOgW1q7h0mZYgHIPxaxYqCrEs6p58ZwGPszU-s9kFfgQceAdaFzy_7yxC_M6NOKUIwW31e9t1N27UbDusJgp42iUPdH9TAMRY7X3lbUpR6xccVfGgXwQE3dN8yyfMr-Cioqx2hkAe1AxQtwK2XmimG9h0KFm53yftDPSEDIy_tADU2-QNBJ1FX2s7fLQ9Yj8bxF24xbLUWFiMBEe5iXpyH90yeC8a2GBYMzXXoR2eKQp_onPIvU1rqaIar9uyD6hGy7MouCPtF7eJiwqJrUgSnYHr6H9Hp5MF_VL9rXJ6G2FHtLmRUO6zeptH9iH2BsYtSQObhB2m6ksRD1qBEAQRMp-ZAQfsNyF0rcCIkDSx82ccnPdoAQTHt2nF6TVnYGyhljaJjCv4Abw7N1qAlRNjiwXJVOSaSNB-YV7S9cjQkJK5kYDWzHOjXi-CFm0]--></g></svg>