<svg xmlns="http://www.w3.org/2000/svg" xmlns:xlink="http://www.w3.org/1999/xlink" contentStyleType="text/css" height="667px" preserveAspectRatio="none" style="width:405px;height:667px;background:#FFFFFF;" version="1.1" viewBox="0 0 405 667" width="405px" zoomAndPan="magnify"><defs/><g><text fill="#000000" font-family="sans-serif" font-size="14" font-weight="bold" lengthAdjust="spacing" textLength="377" x="10" y="22.9951">Caso de Uso Visualizar Horarios - TimeGuardian</text><g id="P&#193;GINA_PRINCIPAL"><rect fill="#FAF4B4" height="50" rx="12.5" ry="12.5" style="stroke:#C90000;stroke-width:0.5;" width="148" x="123.375" y="44.2969"/><line style="stroke:#C90000;stroke-width:0.5;" x1="123.375" x2="271.375" y1="70.5938" y2="70.5938"/><text fill="#000000" font-family="sans-serif" font-size="14" lengthAdjust="spacing" textLength="128" x="133.375" y="62.292">P&#193;GINA_PRINCIPAL</text></g><path d="M58.125,204.2969 L336.625,204.2969 A12.5,12.5 0 0 1 349.125,216.7969 L349.125,230.5937 L45.625,230.5937 L45.625,216.7969 A12.5,12.5 0 0 1 58.125,204.2969 " fill="#FAF4B4" style="stroke:#FAF4B4;stroke-width:1.0;"/><rect fill="none" height="347.2969" rx="12.5" ry="12.5" style="stroke:#C90000;stroke-width:0.5;" width="303.5" x="45.625" y="204.2969"/><line style="stroke:#C90000;stroke-width:0.5;" x1="45.625" x2="349.125" y1="230.5937" y2="230.5937"/><text fill="#000000" font-family="sans-serif" font-size="14" lengthAdjust="spacing" textLength="121" x="136.875" y="222.292">VisualizarHorarios</text><g id="VisualizarHorarios.Cargar"><rect fill="#FAF4B4" height="50" rx="12.5" ry="12.5" style="stroke:#C90000;stroke-width:0.5;" width="126" x="61.125" y="297.5937"/><line style="stroke:#C90000;stroke-width:0.5;" x1="61.125" x2="187.125" y1="323.8906" y2="323.8906"/><text fill="#000000" font-family="sans-serif" font-size="14" lengthAdjust="spacing" textLength="106" x="71.125" y="315.5889">Cargar Horarios</text></g><g id="VisualizarHorarios.Mostrar"><rect fill="#FAF4B4" height="50" rx="12.5" ry="12.5" style="stroke:#C90000;stroke-width:0.5;" width="133" x="57.625" y="433.5937"/><line style="stroke:#C90000;stroke-width:0.5;" x1="57.625" x2="190.625" y1="459.8906" y2="459.8906"/><text fill="#000000" font-family="sans-serif" font-size="14" lengthAdjust="spacing" textLength="113" x="67.625" y="451.5889">Mostrar Horarios</text></g><ellipse cx="124.125" cy="251.5937" fill="#222222" rx="10" ry="10" style="stroke:#222222;stroke-width:1.0;"/><ellipse cx="124.125" cy="530.5938" fill="none" rx="11" ry="11" style="stroke:#222222;stroke-width:1.0;"/><ellipse cx="124.125" cy="530.5938" fill="#222222" rx="6" ry="6" style="stroke:#222222;stroke-width:1.0;"/><!--link *start*VisualizarHorarios to Cargar--><g id="link_*start*VisualizarHorarios_Cargar"><path d="M124.125,261.9037 C124.125,270.9437 124.125,279.0837 124.125,291.3237 " fill="none" id="*start*VisualizarHorarios-to-Cargar" style="stroke:#008000;stroke-width:1.0;"/><polygon fill="#008000" points="124.125,297.3237,128.125,288.3237,124.125,292.3237,120.125,288.3237,124.125,297.3237" style="stroke:#008000;stroke-width:1.0;"/></g><!--link Cargar to Mostrar--><g id="link_Cargar_Mostrar"><path d="M124.125,347.8638 C124.125,372.1437 124.125,403.2837 124.125,427.5037 " fill="none" id="Cargar-to-Mostrar" style="stroke:#008000;stroke-width:1.0;"/><polygon fill="#008000" points="124.125,433.5037,128.125,424.5037,124.125,428.5037,120.125,424.5037,124.125,433.5037" style="stroke:#008000;stroke-width:1.0;"/><path d="M129.125,370.5937 L129.125,410.5937 L340.125,410.5937 L340.125,380.5937 L330.125,370.5937 L129.125,370.5937 " fill="#F5F5F5" style="stroke:#181818;stroke-width:0.5;"/><path d="M330.125,370.5937 L330.125,380.5937 L340.125,380.5937 L330.125,370.5937 " fill="#F5F5F5" style="stroke:#181818;stroke-width:0.5;"/><text fill="#000000" font-family="sans-serif" font-size="13" font-weight="bold" lengthAdjust="spacing" textLength="111" x="135.125" y="387.6606">Sistema carga:</text><text fill="#000000" font-family="sans-serif" font-size="13" lengthAdjust="spacing" textLength="190" x="135.125" y="402.7935">- Lista de horarios disponibles</text></g><!--link Mostrar to *end*VisualizarHorarios--><g id="link_Mostrar_*end*VisualizarHorarios"><path d="M124.125,484.0737 C124.125,496.0637 124.125,503.8637 124.125,513.0938 " fill="none" id="Mostrar-to-*end*VisualizarHorarios" style="stroke:#008000;stroke-width:1.0;"/><polygon fill="#008000" points="124.125,519.0938,128.125,510.0937,124.125,514.0938,120.125,510.0937,124.125,519.0938" style="stroke:#008000;stroke-width:1.0;"/></g><g id="GESTIONAR_HORARIOS"><rect fill="#FAF4B4" height="50" rx="12.5" ry="12.5" style="stroke:#C90000;stroke-width:0.5;" width="181" x="106.875" y="611.5969"/><line style="stroke:#C90000;stroke-width:0.5;" x1="106.875" x2="287.875" y1="637.8938" y2="637.8938"/><text fill="#000000" font-family="sans-serif" font-size="14" lengthAdjust="spacing" textLength="161" x="116.875" y="629.592">GESTIONAR_HORARIOS</text></g><!--link P?GINA_PRINCIPAL to VisualizarHorarios--><g id="link_P&#193;GINA_PRINCIPAL_VisualizarHorarios"><path d="M197.375,94.6169 C197.375,119.5469 197.375,154.7069 197.375,197.9769 " fill="none" id="P&#193;GINA_PRINCIPAL-to-VisualizarHorarios" style="stroke:#008000;stroke-width:1.0;"/><polygon fill="#008000" points="197.375,203.9769,201.375,194.9769,197.375,198.9769,193.375,194.9769,197.375,203.9769" style="stroke:#008000;stroke-width:1.0;"/><path d="M202.375,129.2969 L202.375,169.2969 L365.375,169.2969 L365.375,139.2969 L355.375,129.2969 L202.375,129.2969 " fill="#F5F5F5" style="stroke:#181818;stroke-width:0.5;"/><path d="M355.375,129.2969 L355.375,139.2969 L365.375,139.2969 L355.375,129.2969 " fill="#F5F5F5" style="stroke:#181818;stroke-width:0.5;"/><text fill="#000000" font-family="sans-serif" font-size="13" font-weight="bold" lengthAdjust="spacing" textLength="142" x="208.375" y="146.3638">Usuario selecciona:</text><text fill="#000000" font-family="sans-serif" font-size="13" lengthAdjust="spacing" textLength="126" x="208.375" y="161.4966">- Visualizar horarios</text></g><!--link VisualizarHorarios to GESTIONAR_HORARIOS--><g id="link_VisualizarHorarios_GESTIONAR_HORARIOS"><path d="M197.375,551.9169 C197.375,575.0469 197.375,589.9669 197.375,605.1069 " fill="none" id="VisualizarHorarios-to-GESTIONAR_HORARIOS" style="stroke:#008000;stroke-width:1.0;"/><polygon fill="#008000" points="197.375,611.1069,201.375,602.1069,197.375,606.1069,193.375,602.1069,197.375,611.1069" style="stroke:#008000;stroke-width:1.0;"/></g><!--SRC=[TL71Qi904BtlLmnw2mHwi8VsK4Y3QC2gHEr5HCPaj4isks5tFTZIGx-jFzRTQ3JQDXi8cVVcpNkpfk2oGeqb68kMu8C1F6DMxBJQopnMGcdeRd7Rs_GyedHE-bJD7kxSmpuPCsSHgVxLkFVdcYsu97ke22eb3lw7CSkj88ZHACW95kxpoiqU1Nz73KEbKNDb88GvBscmHvrpb8nDlxy6oJXQJzDa72VJQ0JXihlJH78LFhKK6W5M-rJIEoYSso1OE8f3m92WBEDAucCGE2HiptzhsadcTLGNfjxQxmdr4evW9qQzQxdl01eurYwS5sMilYMTYexbtcMmkafrLZZ9jx5BuqrG7tN6ZQKI8VDznvG-vyYLqI-zIGavDvMIV2F8ECuvCpJoLoETFN-vVsoYpHhqP_DaCexIzN2IHcaocVq0]--></g></svg>