<?xml version="1.0" encoding="us-ascii" standalone="no"?><svg xmlns="http://www.w3.org/2000/svg" xmlns:xlink="http://www.w3.org/1999/xlink" contentStyleType="text/css" height="1087px" preserveAspectRatio="none" style="width:525px;height:1087px;background:#FFFFFF;" version="1.1" viewBox="0 0 525 1087" width="525px" zoomAndPan="magnify"><defs/><g><text fill="#000000" font-family="sans-serif" font-size="14" font-weight="bold" lengthAdjust="spacing" textLength="466" x="22.5" y="22.9951">Caso de Uso Verificaci&#243;n de Asignaciones - TimeGuardian</text><g id="INICIO"><rect fill="#E1BEE7" height="50" rx="12.5" ry="12.5" style="stroke:#6A0080;stroke-width:0.5;" width="63" x="203.5" y="44.2969"/><line style="stroke:#6A0080;stroke-width:0.5;" x1="203.5" x2="266.5" y1="70.5938" y2="70.5938"/><text fill="#000000" font-family="sans-serif" font-size="14" lengthAdjust="spacing" textLength="43" x="213.5" y="62.292">INICIO</text></g><path d="M19.5,204.2969 L450.5,204.2969 A12.5,12.5 0 0 1 463,216.7969 L463,230.5938 L7,230.5938 L7,216.7969 A12.5,12.5 0 0 1 19.5,204.2969 " fill="#E1BEE7" style="stroke:#E1BEE7;stroke-width:1.0;"/><rect fill="none" height="655.2969" rx="12.5" ry="12.5" style="stroke:#6A0080;stroke-width:0.5;" width="456" x="7" y="204.2969"/><line style="stroke:#6A0080;stroke-width:0.5;" x1="7" x2="463" y1="230.5938" y2="230.5938"/><text fill="#000000" font-family="sans-serif" font-size="14" lengthAdjust="spacing" textLength="157" x="156.5" y="222.292">verificar_asignaciones</text><g id="verificar_asignaciones.A"><rect fill="#E1BEE7" height="50" rx="12.5" ry="12.5" style="stroke:#6A0080;stroke-width:0.5;" width="228" x="51" y="298.5938"/><line style="stroke:#6A0080;stroke-width:0.5;" x1="51" x2="279" y1="324.8906" y2="324.8906"/><text fill="#000000" font-family="sans-serif" font-size="14" lengthAdjust="spacing" textLength="208" x="61" y="316.5889">Revisar asignaciones de aulas</text></g><g id="verificar_asignaciones.B"><rect fill="#E1BEE7" height="50" rx="12.5" ry="12.5" style="stroke:#6A0080;stroke-width:0.5;" width="260" x="35" y="434.5938"/><line style="stroke:#6A0080;stroke-width:0.5;" x1="35" x2="295" y1="460.8906" y2="460.8906"/><text fill="#000000" font-family="sans-serif" font-size="14" lengthAdjust="spacing" textLength="240" x="45" y="452.5889">Revisar asignaciones de docentes</text></g><g id="verificar_asignaciones.C"><rect fill="#E1BEE7" height="50" rx="12.5" ry="12.5" style="stroke:#6A0080;stroke-width:0.5;" width="292" x="19" y="570.5938"/><line style="stroke:#6A0080;stroke-width:0.5;" x1="19" x2="311" y1="596.8906" y2="596.8906"/><text fill="#000000" font-family="sans-serif" font-size="14" lengthAdjust="spacing" textLength="272" x="29" y="588.5889">Confirmar coherencia de asignaciones</text></g><g id="verificar_asignaciones.D"><rect fill="#E1BEE7" height="50" rx="12.5" ry="12.5" style="stroke:#6A0080;stroke-width:0.5;" width="239" x="45.5" y="706.5938"/><line style="stroke:#6A0080;stroke-width:0.5;" x1="45.5" x2="284.5" y1="732.8906" y2="732.8906"/><text fill="#000000" font-family="sans-serif" font-size="14" lengthAdjust="spacing" textLength="219" x="55.5" y="724.5889">Realizar ajustes si es necesario</text></g><ellipse cx="165" cy="251.5938" fill="#222222" rx="10" ry="10" style="stroke:#222222;stroke-width:1.0;"/><ellipse cx="165" cy="838.5938" fill="none" rx="11" ry="11" style="stroke:#222222;stroke-width:1.0;"/><ellipse cx="165" cy="838.5938" fill="#222222" rx="6" ry="6" style="stroke:#222222;stroke-width:1.0;"/><!--link *start*verificar_asignaciones to A--><g id="link_*start*verificar_asignaciones_A"><path d="M165,261.7447 C165,271.0098 165,279.7347 165,292.3778 " fill="none" id="*start*verificar_asignaciones-to-A" style="stroke:#800080;stroke-width:1.0;"/><polygon fill="#800080" points="165,298.3778,169,289.3778,165,293.3778,161,289.3778,165,298.3778" style="stroke:#800080;stroke-width:1.0;"/></g><!--link A to B--><g id="link_A_B"><path d="M165,348.8598 C165,373.1458 165,404.2868 165,428.5078 " fill="none" id="A-to-B" style="stroke:#800080;stroke-width:1.0;"/><polygon fill="#800080" points="165,434.5078,169,425.5078,165,429.5078,161,425.5078,165,434.5078" style="stroke:#800080;stroke-width:1.0;"/><path d="M170,371.5938 L170,411.5938 L382,411.5938 L382,381.5938 L372,371.5938 L170,371.5938 " fill="#FFF9C4" style="stroke:#181818;stroke-width:0.5;"/><path d="M372,371.5938 L372,381.5938 L382,381.5938 L372,371.5938 " fill="#FFF9C4" style="stroke:#181818;stroke-width:0.5;"/><text fill="#000000" font-family="sans-serif" font-size="13" font-weight="bold" lengthAdjust="spacing" textLength="163" x="176" y="388.6606">Administrador revisa:</text><text fill="#000000" font-family="sans-serif" font-size="13" lengthAdjust="spacing" textLength="191" x="176" y="403.7935">- Aulas asignadas a cada aula</text></g><!--link B to C--><g id="link_B_C"><path d="M165,484.8598 C165,509.1458 165,540.2868 165,564.5078 " fill="none" id="B-to-C" style="stroke:#800080;stroke-width:1.0;"/><polygon fill="#800080" points="165,570.5078,169,561.5078,165,565.5078,161,561.5078,165,570.5078" style="stroke:#800080;stroke-width:1.0;"/><path d="M170,507.5938 L170,547.5938 L421,547.5938 L421,517.5938 L411,507.5938 L170,507.5938 " fill="#FFF9C4" style="stroke:#181818;stroke-width:0.5;"/><path d="M411,507.5938 L411,517.5938 L421,517.5938 L411,507.5938 " fill="#FFF9C4" style="stroke:#181818;stroke-width:0.5;"/><text fill="#000000" font-family="sans-serif" font-size="13" font-weight="bold" lengthAdjust="spacing" textLength="174" x="176" y="524.6606">Administrador verifica:</text><text fill="#000000" font-family="sans-serif" font-size="13" lengthAdjust="spacing" textLength="230" x="176" y="539.7935">- Docentes asignados a asignaturas</text></g><!--link C to D--><g id="link_C_D"><path d="M165,620.8598 C165,645.1458 165,676.2868 165,700.5078 " fill="none" id="C-to-D" style="stroke:#800080;stroke-width:1.0;"/><polygon fill="#800080" points="165,706.5078,169,697.5078,165,701.5078,161,697.5078,165,706.5078" style="stroke:#800080;stroke-width:1.0;"/><path d="M170,643.5938 L170,683.5938 L431,683.5938 L431,653.5938 L421,643.5938 L170,643.5938 " fill="#FFF9C4" style="stroke:#181818;stroke-width:0.5;"/><path d="M421,643.5938 L421,653.5938 L431,653.5938 L421,643.5938 " fill="#FFF9C4" style="stroke:#181818;stroke-width:0.5;"/><text fill="#000000" font-family="sans-serif" font-size="13" font-weight="bold" lengthAdjust="spacing" textLength="178" x="176" y="660.6606">Administrador asegura:</text><text fill="#000000" font-family="sans-serif" font-size="13" lengthAdjust="spacing" textLength="240" x="176" y="675.7935">- Sin conflictos de horarios o recursos</text></g><!--link D to *end*verificar_asignaciones--><g id="link_D_*end*verificar_asignaciones"><path d="M165,756.6829 C165,779.085 165,805.3633 165,821.5445 " fill="none" id="D-to-*end*verificar_asignaciones" style="stroke:#008000;stroke-width:1.0;"/><polygon fill="#008000" points="165,827.5445,169,818.5445,165,822.5445,161,818.5445,165,827.5445" style="stroke:#008000;stroke-width:1.0;"/><path d="M170,779.5938 L170,804.5938 L454,804.5938 L454,789.5938 L444,779.5938 L170,779.5938 " fill="#FFF9C4" style="stroke:#181818;stroke-width:0.5;"/><path d="M444,779.5938 L444,789.5938 L454,789.5938 L444,779.5938 " fill="#FFF9C4" style="stroke:#181818;stroke-width:0.5;"/><text fill="#000000" font-family="sans-serif" font-size="13" lengthAdjust="spacing" textLength="263" x="176" y="796.6606">[asignaciones verificadas y confirmadas]</text></g><g id=":mostrarEstadoFinal"><rect fill="#E1BEE7" height="50" rx="12.5" ry="12.5" style="stroke:#6A0080;stroke-width:0.5;" width="164" x="153" y="920.2969"/><line style="stroke:#6A0080;stroke-width:0.5;" x1="153" x2="317" y1="946.5938" y2="946.5938"/><text fill="#000000" font-family="sans-serif" font-size="14" lengthAdjust="spacing" textLength="144" x="163" y="938.292">:mostrarEstadoFinal</text></g><g id="ESTADO_FINAL_ASIGNACIONES"><rect fill="#E1BEE7" height="50" rx="12.5" ry="12.5" style="stroke:#6A0080;stroke-width:0.5;" width="240" x="115" y="1031.2969"/><line style="stroke:#6A0080;stroke-width:0.5;" x1="115" x2="355" y1="1057.5938" y2="1057.5938"/><text fill="#000000" font-family="sans-serif" font-size="14" lengthAdjust="spacing" textLength="220" x="125" y="1049.292">ESTADO_FINAL_ASIGNACIONES</text></g><!--link INICIO to verificar_asignaciones--><g id="link_INICIO_verificar_asignaciones"><path d="M235,94.4069 C235,118.3729 235,152.1319 235,198.1629 " fill="none" id="INICIO-to-verificar_asignaciones" style="stroke:#800080;stroke-width:1.0;"/><polygon fill="#800080" points="235,204.1629,239,195.1629,235,199.1629,231,195.1629,235,204.1629" style="stroke:#800080;stroke-width:1.0;"/><path d="M240,129.2969 L240,169.2969 L518,169.2969 L518,139.2969 L508,129.2969 L240,129.2969 " fill="#FFF9C4" style="stroke:#181818;stroke-width:0.5;"/><path d="M508,129.2969 L508,139.2969 L518,139.2969 L508,129.2969 " fill="#FFF9C4" style="stroke:#181818;stroke-width:0.5;"/><text fill="#000000" font-family="sans-serif" font-size="13" font-weight="bold" lengthAdjust="spacing" textLength="257" x="246" y="146.3638">Administrador universitario inicia:</text><text fill="#000000" font-family="sans-serif" font-size="13" lengthAdjust="spacing" textLength="252" x="246" y="161.4966">- Verificaci&#243;n de todas las asignaciones</text></g><!--link verificar_asignaciones to :mostrarEstadoFinal--><g id="link_verificar_asignaciones_:mostrarEstadoFinal"><path d="M235,859.5329 C235,884.1789 235,899.2329 235,914.1929 " fill="none" id="verificar_asignaciones-to-:mostrarEstadoFinal" style="stroke:#800080;stroke-width:1.0;"/><polygon fill="#800080" points="235,920.1929,239,911.1929,235,915.1929,231,911.1929,235,920.1929" style="stroke:#800080;stroke-width:1.0;"/></g><!--link :mostrarEstadoFinal to ESTADO_FINAL_ASIGNACIONES--><g id="link_:mostrarEstadoFinal_ESTADO_FINAL_ASIGNACIONES"><path d="M235,970.4879 C235,988.5507 235,1007.127 235,1025.1739 " fill="none" id=":mostrarEstadoFinal-to-ESTADO_FINAL_ASIGNACIONES" style="stroke:#800080;stroke-width:1.0;"/><polygon fill="#800080" points="235,1031.1739,239,1022.1739,235,1026.1739,231,1022.1739,235,1031.1739" style="stroke:#800080;stroke-width:1.0;"/></g><!--SRC=[ZPFVQnin3CVV_LU8zYrmaC7ejZuChfUq14OAIxUN48BcqwLgBdQmVOLixA_Qdx1_RBAJD76MiXttopf97-bhdL-oMQF35VY0WU270hX1lLmusvcwigrrS4bllX6zYr-igydjh5VOxx_lgvzA-PSanhwMescQ3_fjxjsoeR1P4wnjkuaBfGA7bg12Rw4c-2AFh-IuOOsQV_yoqLXwNXXPMaCU2dZW5Trrw6f6ezHeFAf6zr1CBzUTMxSqApx2yow3c-DHg4grMXEhM4h5lLvPhzYm3mvhgRWpB86U0pgs81yqutMl9vx5tpK5MwE7LguCGQPEaaZJITtpbIJ1jWuNd-cPFReiJGHW9yaln0pblvrhgya4slhV7FmhQnfsAudGzf4S6Maf9J-AJp7LCGDR_XuXJvsNdE0Pv6v8au_A9F-1-CivxSrovMEjPMwAvPme7uzJzLrgRQjtF0eekuEyKMm4BSyaZFYyA2sZbmEhSy1Jt7vZzi021ZiDzqGRYTltq3dqERFAcOF_OQAdXMGw82TiP6DCqx8EDctaetLHOmzM1D6Ty_Q4EuZSXICo4IlwdmDFi_dOjnert2HU70bPpOvJot_woh1cZLwlR6p73MLQQdlB1bkbpXZpgE7aeHpSpsz7u_BJl9oCxiQb_BJZuUGF]--></g></svg>