<?xml version="1.0" encoding="us-ascii" standalone="no"?><svg xmlns="http://www.w3.org/2000/svg" xmlns:xlink="http://www.w3.org/1999/xlink" contentStyleType="text/css" height="805px" preserveAspectRatio="none" style="width:548px;height:805px;background:#FFFFFF;" version="1.1" viewBox="0 0 548 805" width="548px" zoomAndPan="magnify"><defs/><g><text fill="#000000" font-family="sans-serif" font-size="14" font-weight="bold" lengthAdjust="spacing" textLength="249" x="142.5" y="22.9951">Caso de Uso - Creaci&#243;n de Aula</text><ellipse cx="114" cy="53.2969" fill="#222222" rx="10" ry="10" style="stroke:#222222;stroke-width:1.0;"/><g id="inicio"><rect fill="#E6EE9C" height="50" rx="12.5" ry="12.5" style="stroke:#004D40;stroke-width:0.5;" width="58" x="85" y="124.2969"/><line style="stroke:#004D40;stroke-width:0.5;" x1="85" x2="143" y1="150.5938" y2="150.5938"/><text fill="#000000" font-family="sans-serif" font-size="14" lengthAdjust="spacing" textLength="38" x="95" y="142.292">inicio</text></g><g id="elem_GMN5"><path d="M178,129.2969 L178,145.2969 L143.285,149.2969 L178,153.2969 L178,169.5625 A0,0 0 0 0 178,169.5625 L482,169.5625 A0,0 0 0 0 482,169.5625 L482,139.2969 L472,129.2969 L178,129.2969 A0,0 0 0 0 178,129.2969 " fill="#FFE0B2" style="stroke:#181818;stroke-width:0.5;"/><path d="M472,129.2969 L472,139.2969 L482,139.2969 L472,129.2969 " fill="#FFE0B2" style="stroke:#181818;stroke-width:0.5;"/><text fill="#000000" font-family="sans-serif" font-size="13" font-weight="bold" lengthAdjust="spacing" textLength="283" x="184" y="146.3638">Administrador de instalaciones inicia:</text><text fill="#000000" font-family="sans-serif" font-size="13" lengthAdjust="spacing" textLength="189" x="184" y="161.4966">- Proceso de creaci&#243;n de aula</text></g><g id="definir_caracter&#237;sticas_aula"><rect fill="#E6EE9C" height="50" rx="12.5" ry="12.5" style="stroke:#004D40;stroke-width:0.5;" width="214" x="7" y="235.2969"/><line style="stroke:#004D40;stroke-width:0.5;" x1="7" x2="221" y1="261.5938" y2="261.5938"/><text fill="#000000" font-family="sans-serif" font-size="14" lengthAdjust="spacing" textLength="194" x="17" y="253.292">definir_caracter&#237;sticas_aula</text></g><g id="elem_GMN10"><path d="M256,247.7969 L256,256.2969 L221.007,260.2969 L256,264.2969 L256,272.9297 A0,0 0 0 0 256,272.9297 L470,272.9297 A0,0 0 0 0 470,272.9297 L470,257.7969 L460,247.7969 L256,247.7969 A0,0 0 0 0 256,247.7969 " fill="#FFE0B2" style="stroke:#181818;stroke-width:0.5;"/><path d="M460,247.7969 L460,257.7969 L470,257.7969 L460,247.7969 " fill="#FFE0B2" style="stroke:#181818;stroke-width:0.5;"/><text fill="#000000" font-family="sans-serif" font-size="13" lengthAdjust="spacing" textLength="193" x="262" y="264.8638">Definir caracter&#237;sticas del aula</text></g><g id="seleccionar_ubicaci&#243;n"><rect fill="#E6EE9C" height="50" rx="12.5" ry="12.5" style="stroke:#004D40;stroke-width:0.5;" width="176" x="26" y="395.2969"/><line style="stroke:#004D40;stroke-width:0.5;" x1="26" x2="202" y1="421.5938" y2="421.5938"/><text fill="#000000" font-family="sans-serif" font-size="14" lengthAdjust="spacing" textLength="156" x="36" y="413.292">seleccionar_ubicaci&#243;n</text></g><g id="preparar_infraestructura"><rect fill="#E6EE9C" height="50" rx="12.5" ry="12.5" style="stroke:#004D40;stroke-width:0.5;" width="197" x="15.5" y="506.2969"/><line style="stroke:#004D40;stroke-width:0.5;" x1="15.5" x2="212.5" y1="532.5938" y2="532.5938"/><text fill="#000000" font-family="sans-serif" font-size="14" lengthAdjust="spacing" textLength="177" x="25.5" y="524.292">preparar_infraestructura</text></g><g id="elem_GMN17"><path d="M237,407.7969 L237,432.9297 L541,432.9297 L541,417.7969 L531,407.7969 L237,407.7969 " fill="#FFE0B2" style="stroke:#181818;stroke-width:0.5;"/><path d="M531,407.7969 L531,417.7969 L541,417.7969 L531,407.7969 " fill="#FFE0B2" style="stroke:#181818;stroke-width:1.0;"/><text fill="#000000" font-family="sans-serif" font-size="13" lengthAdjust="spacing" textLength="283" x="243" y="424.8638">Seleccionar ubicaci&#243;n adecuada para el aula</text></g><g id="confirmar_creaci&#243;n_aula"><rect fill="#E6EE9C" height="50" rx="12.5" ry="12.5" style="stroke:#004D40;stroke-width:0.5;" width="193" x="17.5" y="666.2969"/><line style="stroke:#004D40;stroke-width:0.5;" x1="17.5" x2="210.5" y1="692.5938" y2="692.5938"/><text fill="#000000" font-family="sans-serif" font-size="14" lengthAdjust="spacing" textLength="173" x="27.5" y="684.292">confirmar_creaci&#243;n_aula</text></g><ellipse cx="114" cy="788.2969" fill="none" rx="11" ry="11" style="stroke:#222222;stroke-width:1.0;"/><ellipse cx="114" cy="788.2969" fill="#222222" rx="6" ry="6" style="stroke:#222222;stroke-width:1.0;"/><g id="elem_GMN24"><path d="M245.5,678.7969 L245.5,687.2969 L210.644,691.2969 L245.5,695.2969 L245.5,703.9297 A0,0 0 0 0 245.5,703.9297 L518.5,703.9297 A0,0 0 0 0 518.5,703.9297 L518.5,688.7969 L508.5,678.7969 L245.5,678.7969 A0,0 0 0 0 245.5,678.7969 " fill="#FFE0B2" style="stroke:#181818;stroke-width:0.5;"/><path d="M508.5,678.7969 L508.5,688.7969 L518.5,688.7969 L508.5,678.7969 " fill="#FFE0B2" style="stroke:#181818;stroke-width:0.5;"/><text fill="#000000" font-family="sans-serif" font-size="13" lengthAdjust="spacing" textLength="252" x="251.5" y="695.8638">Aula creada y lista para uso acad&#233;mico</text></g><!--link *start* to inicio--><g id="link_*start*_inicio"><path d="M114,63.3099 C114,77.1879 114,98.2619 114,118.1369 " fill="none" id="*start*-to-inicio" style="stroke:#008000;stroke-width:1.0;"/><polygon fill="#008000" points="114,124.1369,118,115.1369,114,119.1369,110,115.1369,114,124.1369" style="stroke:#008000;stroke-width:1.0;"/></g><!--link inicio to definir_caracter?sticas_aula--><g id="link_inicio_definir_caracter&#237;sticas_aula"><path d="M114,174.4879 C114,192.5509 114,211.1269 114,229.1739 " fill="none" id="inicio-to-definir_caracter&#237;sticas_aula" style="stroke:#008000;stroke-width:1.0;"/><polygon fill="#008000" points="114,235.1739,118,226.1739,114,230.1739,110,226.1739,114,235.1739" style="stroke:#008000;stroke-width:1.0;"/></g><!--link definir_caracter?sticas_aula to seleccionar_ubicaci?n--><g id="link_definir_caracter&#237;sticas_aula_seleccionar_ubicaci&#243;n"><path d="M114,285.6379 C114,315.4159 114,359.5159 114,389.1869 " fill="none" id="definir_caracter&#237;sticas_aula-to-seleccionar_ubicaci&#243;n" style="stroke:#008000;stroke-width:1.0;"/><polygon fill="#008000" points="114,395.1869,118,386.1869,114,390.1869,110,386.1869,114,395.1869" style="stroke:#008000;stroke-width:1.0;"/><path d="M119,320.2969 L119,360.2969 L379,360.2969 L379,330.2969 L369,320.2969 L119,320.2969 " fill="#FFE0B2" style="stroke:#181818;stroke-width:0.5;"/><path d="M369,320.2969 L369,330.2969 L379,330.2969 L369,320.2969 " fill="#FFE0B2" style="stroke:#181818;stroke-width:0.5;"/><text fill="#000000" font-family="sans-serif" font-size="13" font-weight="bold" lengthAdjust="spacing" textLength="165" x="125" y="337.3638">Administrador define:</text><text fill="#000000" font-family="sans-serif" font-size="13" lengthAdjust="spacing" textLength="239" x="125" y="352.4966">- Tama&#241;o, equipamiento y capacidad</text></g><!--link seleccionar_ubicaci?n to preparar_infraestructura--><g id="link_seleccionar_ubicaci&#243;n_preparar_infraestructura"><path d="M114,445.4879 C114,463.5509 114,482.1269 114,500.1739 " fill="none" id="seleccionar_ubicaci&#243;n-to-preparar_infraestructura" style="stroke:#008000;stroke-width:1.0;"/><polygon fill="#008000" points="114,506.1739,118,497.1739,114,501.1739,110,497.1739,114,506.1739" style="stroke:#008000;stroke-width:1.0;"/></g><!--link seleccionar_ubicaci?n to GMN17--><g id="link_seleccionar_ubicaci&#243;n_GMN17"><path d="M202.185,420.2969 C204.408,420.2969 205.667,420.2969 205.667,420.2969 C205.667,420.2969 219.794,420.2969 236.957,420.2969 " fill="none" id="seleccionar_ubicaci&#243;n-GMN17" style="stroke:#181818;stroke-width:1.0;stroke-dasharray:7.0,7.0;"/></g><!--link preparar_infraestructura to confirmar_creaci?n_aula--><g id="link_preparar_infraestructura_confirmar_creaci&#243;n_aula"><path d="M114,556.6379 C114,586.4159 114,630.5159 114,660.1869 " fill="none" id="preparar_infraestructura-to-confirmar_creaci&#243;n_aula" style="stroke:#008000;stroke-width:1.0;"/><polygon fill="#008000" points="114,666.1869,118,657.1869,114,661.1869,110,657.1869,114,666.1869" style="stroke:#008000;stroke-width:1.0;"/><path d="M119,591.2969 L119,631.2969 L388,631.2969 L388,601.2969 L378,591.2969 L119,591.2969 " fill="#FFE0B2" style="stroke:#181818;stroke-width:0.5;"/><path d="M378,591.2969 L378,601.2969 L388,601.2969 L378,591.2969 " fill="#FFE0B2" style="stroke:#181818;stroke-width:0.5;"/><text fill="#000000" font-family="sans-serif" font-size="13" font-weight="bold" lengthAdjust="spacing" textLength="177" x="125" y="608.3638">Administrador prepara:</text><text fill="#000000" font-family="sans-serif" font-size="13" lengthAdjust="spacing" textLength="248" x="125" y="623.4966">- Infraestructura y recursos necesarios</text></g><!--link confirmar_creaci?n_aula to *end*--><g id="link_confirmar_creaci&#243;n_aula_*end*"><path d="M114,716.7618 C114,736.3333 114,756.789 114,771.0936 " fill="none" id="confirmar_creaci&#243;n_aula-to-*end*" style="stroke:#008000;stroke-width:1.0;"/><polygon fill="#008000" points="114,777.0936,118,768.0936,114,772.0936,110,768.0936,114,777.0936" style="stroke:#008000;stroke-width:1.0;"/></g><!--SRC=[VPF1Rjim38RlUWe2lHaD40p5WEumeCikkmtOTYgAW9NeJ8WiUfHy28O-K0yx37k4lDWeEybih-x944dz_qUAJdiVMnHi86NC13yDm0Uq-vrm5zs60mjSqLkYMrioB8xa55slRzpDsZmPaouYaPSqwfhMZs-crS57oeUMeELmA0TZii-1O8E9mH5yqyyADa9e_V5FBA6xBg0nzzK3hEwlTa8K7rRlmKTlFPlUNlpkUmQkpq60ghfpZPvI5dGAep8-Qhz1PJbI6YhnNLLfyGe-2riQ0EpO6eirHTTtQSmWFy5mL6jKjbRRivda-2jbRp5j-wjJkjTh0JuEUPZdzMAOexogDI5C5CYMhb6stQFMzDqDQ1pBY-nV79Zgqta-Nx71us- -1lhH-HORJp4p79IqLJc7RaJsijy4gHKgwo1R7sj1Ki_EvaxcyreW1_ZoBm4Z2tHaEtG8HHp-dzcIxOJDSgozD5frsOJHMouFx2H-djYdcSK1HE4aSO98kciedjE8RSbsmgR_m6n4YxJG_pRzDhlY7XJqD9XE5nqjkkDpuorV6Fu2]--></g></svg>