<?xml version="1.0" encoding="us-ascii" standalone="no"?><svg xmlns="http://www.w3.org/2000/svg" xmlns:xlink="http://www.w3.org/1999/xlink" contentStyleType="text/css" height="261px" preserveAspectRatio="none" style="width:2350px;height:261px;background:#FFFFFF;" version="1.1" viewBox="0 0 2350 261" width="2350px" zoomAndPan="magnify"><defs/><g><text fill="#000000" font-family="sans-serif" font-size="14" font-weight="bold" lengthAdjust="spacing" textLength="326" x="1005" y="22.9951">Casos de Uso del Sistema TimeGuardian</text><!--cluster Gestionar Horario de Grado--><g id="cluster_Gestionar Horario de Grado"><path d="M8.5,147.2969 L232.5,147.2969 A3.75,3.75 0 0 1 235,149.7969 L242,169.5938 L812.5,169.5938 A2.5,2.5 0 0 1 815,172.0938 L815,248.7969 A2.5,2.5 0 0 1 812.5,251.2969 L8.5,251.2969 A2.5,2.5 0 0 1 6,248.7969 L6,149.7969 A2.5,2.5 0 0 1 8.5,147.2969 " fill="none" style="stroke:#000000;stroke-width:1.5;"/><line style="stroke:#000000;stroke-width:1.5;" x1="6" x2="242" y1="169.5938" y2="169.5938"/><text fill="#000000" font-family="sans-serif" font-size="14" font-weight="bold" lengthAdjust="spacing" textLength="223" x="10" y="162.292">Gestionar Horario de Grado</text></g><!--cluster Gestionar Horario de Profesor--><g id="cluster_Gestionar Horario de Profesor"><path d="M841.5,143.7969 L1085.5,143.7969 A3.75,3.75 0 0 1 1088,146.2969 L1095,166.0938 L1624.5,166.0938 A2.5,2.5 0 0 1 1627,168.5938 L1627,252.2969 A2.5,2.5 0 0 1 1624.5,254.7969 L841.5,254.7969 A2.5,2.5 0 0 1 839,252.2969 L839,146.2969 A2.5,2.5 0 0 1 841.5,143.7969 " fill="none" style="stroke:#000000;stroke-width:1.5;"/><line style="stroke:#000000;stroke-width:1.5;" x1="839" x2="1095" y1="166.0938" y2="166.0938"/><text fill="#000000" font-family="sans-serif" font-size="14" font-weight="bold" lengthAdjust="spacing" textLength="243" x="843" y="158.792">Gestionar Horario de Profesor</text></g><!--cluster Gestionar Horario de Aula--><g id="cluster_Gestionar Horario de Aula"><path d="M1653.5,149.2969 L1864.5,149.2969 A3.75,3.75 0 0 1 1867,151.7969 L1874,171.5938 L2340.5,171.5938 A2.5,2.5 0 0 1 2343,174.0938 L2343,246.7969 A2.5,2.5 0 0 1 2340.5,249.2969 L1653.5,249.2969 A2.5,2.5 0 0 1 1651,246.7969 L1651,151.7969 A2.5,2.5 0 0 1 1653.5,149.2969 " fill="none" style="stroke:#000000;stroke-width:1.5;"/><line style="stroke:#000000;stroke-width:1.5;" x1="1651" x2="1874" y1="171.5938" y2="171.5938"/><text fill="#000000" font-family="sans-serif" font-size="14" font-weight="bold" lengthAdjust="spacing" textLength="210" x="1655" y="164.292">Gestionar Horario de Aula</text></g><g id="elem_UC1"><ellipse cx="710.2318" cy="209.0432" fill="#F1F1F1" rx="89.2318" ry="20.2464" style="stroke:#181818;stroke-width:0.5;"/><text fill="#000000" font-family="sans-serif" font-size="14" lengthAdjust="spacing" textLength="140" x="640.2318" y="211.8899">Seleccionar Carrera</text></g><g id="elem_UC2"><ellipse cx="489.9604" cy="208.789" fill="#F1F1F1" rx="95.4604" ry="21.4921" style="stroke:#181818;stroke-width:0.5;"/><text fill="#000000" font-family="sans-serif" font-size="14" lengthAdjust="spacing" textLength="154" x="412.9604" y="211.6356">Visualizar Asignaturas</text></g><g id="elem_UC3"><ellipse cx="238.8027" cy="208.7574" fill="#F1F1F1" rx="120.3027" ry="26.4605" style="stroke:#181818;stroke-width:0.5;"/><text fill="#000000" font-family="sans-serif" font-size="14" lengthAdjust="spacing" textLength="208" x="134.8027" y="211.6041">Organizar Horario Acad&#233;mico</text></g><g id="elem_UC4"><ellipse cx="53.0772" cy="208.8205" fill="#F1F1F1" rx="30.5772" ry="14.5236" style="stroke:#181818;stroke-width:0.5;"/><text fill="#000000" font-family="sans-serif" font-size="14" lengthAdjust="spacing" textLength="27" x="39.5772" y="211.6672">UC4</text></g><g id="elem_UC5"><ellipse cx="1517.7771" cy="208.7523" fill="#F1F1F1" rx="92.7771" ry="20.9554" style="stroke:#181818;stroke-width:0.5;"/><text fill="#000000" font-family="sans-serif" font-size="14" lengthAdjust="spacing" textLength="148" x="1443.7771" y="211.599">Seleccionar Profesor</text></g><g id="elem_UC6"><ellipse cx="1251.8042" cy="208.7577" fill="#F1F1F1" rx="137.8042" ry="29.9608" style="stroke:#181818;stroke-width:0.5;"/><text fill="#000000" font-family="sans-serif" font-size="14" lengthAdjust="spacing" textLength="245" x="1129.3042" y="211.6044">Visualizar Asignaturas del Profesor</text></g><g id="elem_UC7"><ellipse cx="966.9079" cy="208.5785" fill="#F1F1F1" rx="111.9079" ry="24.7816" style="stroke:#181818;stroke-width:0.5;"/><text fill="#000000" font-family="sans-serif" font-size="14" lengthAdjust="spacing" textLength="190" x="871.9079" y="211.4251">Organizar Horario Semanal</text></g><g id="elem_UC8"><ellipse cx="2246.8735" cy="208.5716" fill="#F1F1F1" rx="79.3735" ry="18.2747" style="stroke:#181818;stroke-width:0.5;"/><text fill="#000000" font-family="sans-serif" font-size="14" lengthAdjust="spacing" textLength="117" x="2186.4676" y="212.0217">Seleccionar Aula</text></g><g id="elem_UC9"><ellipse cx="2026.9496" cy="208.7868" fill="#F1F1F1" rx="105.4496" ry="23.4899" style="stroke:#181818;stroke-width:0.5;"/><text fill="#000000" font-family="sans-serif" font-size="14" lengthAdjust="spacing" textLength="176" x="1938.9496" y="211.6335">Visualizar Clases del Aula</text></g><g id="elem_UC10"><ellipse cx="1777.0935" cy="208.6156" fill="#F1F1F1" rx="109.5935" ry="24.3187" style="stroke:#181818;stroke-width:0.5;"/><text fill="#000000" font-family="sans-serif" font-size="14" lengthAdjust="spacing" textLength="185" x="1684.5935" y="211.4623">Organizar Horario del Aula</text></g><!--entity A--><g id="elem_A"><ellipse cx="1109" cy="51.2969" fill="#F1F1F1" rx="8" ry="8" style="stroke:#181818;stroke-width:0.5;"/><path d="M1109,59.2969 L1109,86.2969 M1096,67.2969 L1122,67.2969 M1109,86.2969 L1096,101.2969 M1109,86.2969 L1122,101.2969 " fill="none" style="stroke:#181818;stroke-width:0.5;"/><text fill="#000000" font-family="sans-serif" font-size="14" lengthAdjust="spacing" textLength="187" x="1015.5" y="115.792">Administrador de Horarios</text></g><!--link A to UC1--><g id="link_A_UC1"><path d="M1015.5,93.1639 C962.593,101.3939 895.85,114.8369 839,135.7969 C801.7,149.5489 767.313,169.7799 742.012,186.1773 " fill="none" id="A-to-UC1" style="stroke:#181818;stroke-width:1.0;"/><polygon fill="#181818" points="736.977,189.4405,746.705,187.9024,741.1729,186.7212,742.3541,181.189,736.977,189.4405" style="stroke:#181818;stroke-width:1.0;"/></g><!--link A to UC2--><g id="link_A_UC2"><path d="M1015.46,86.7229 C890.897,94.1519 677.698,110.1479 604,135.7969 C570.175,147.5689 540.8131,167.3247 518.8381,184.2636 " fill="none" id="A-to-UC2" style="stroke:#181818;stroke-width:1.0;"/><polygon fill="#181818" points="514.086,187.9267,523.6561,185.6002,518.0461,184.8742,518.7721,179.2641,514.086,187.9267" style="stroke:#181818;stroke-width:1.0;"/></g><!--link A to UC3--><g id="link_A_UC3"><path d="M1015.36,83.9929 C845.743,88.7509 494.353,102.3989 377,135.7969 C340.482,146.1899 307.59,163.7157 280.734,180.2538 " fill="none" id="A-to-UC3" style="stroke:#181818;stroke-width:1.0;"/><polygon fill="#181818" points="275.625,183.4,285.3859,182.0867,279.8825,180.7782,281.191,175.2748,275.625,183.4" style="stroke:#181818;stroke-width:1.0;"/></g><!--link A to UC4--><g id="link_A_UC4"><path d="M1015.07,82.0709 C779.932,83.4259 179.121,91.2589 101,135.7969 C78.2911,148.7439 66.4624,171.7651 59.8148,188.7647 " fill="none" id="A-to-UC4" style="stroke:#181818;stroke-width:1.0;"/><polygon fill="#181818" points="57.6297,194.3527,64.6327,187.4275,59.4506,189.6961,57.1821,184.514,57.6297,194.3527" style="stroke:#181818;stroke-width:1.0;"/></g><!--link A to UC5--><g id="link_A_UC5"><path d="M1202.58,88.9979 C1262.9,95.9659 1342.09,109.5389 1408,135.7969 C1440.23,148.6369 1468.2344,167.9278 1489.5044,184.4762 " fill="none" id="A-to-UC5" style="stroke:#181818;stroke-width:1.0;"/><polygon fill="#181818" points="1494.24,188.1606,1489.5929,179.477,1490.2937,185.0903,1484.6804,185.7911,1494.24,188.1606" style="stroke:#181818;stroke-width:1.0;"/></g><!--link A to UC6--><g id="link_A_UC6"><path d="M1151.13,118.9199 C1173.05,138.2289 1194.9183,157.4972 1215.1983,175.3667 " fill="none" id="A-to-UC6" style="stroke:#181818;stroke-width:1.0;"/><polygon fill="#181818" points="1219.7,179.3334,1215.5918,170.3822,1215.9486,176.0278,1210.303,176.3845,1219.7,179.3334" style="stroke:#181818;stroke-width:1.0;"/></g><!--link A to UC7--><g id="link_A_UC7"><path d="M1067.16,118.9199 C1043.27,140.1159 1018.548,162.0617 997.848,180.4288 " fill="none" id="A-to-UC7" style="stroke:#181818;stroke-width:1.0;"/><polygon fill="#181818" points="993.36,184.411,1002.7468,181.4297,997.1,181.0925,997.4372,175.4457,993.36,184.411" style="stroke:#181818;stroke-width:1.0;"/></g><!--link A to UC8--><g id="link_A_UC8"><path d="M1202.58,83.5629 C1441.67,88.5119 2062.3,104.2609 2150,135.7969 C2181.97,147.2929 2208.0062,168.9017 2225.9862,186.2831 " fill="none" id="A-to-UC8" style="stroke:#181818;stroke-width:1.0;"/><polygon fill="#181818" points="2230.3,190.4533,2226.6094,181.322,2226.7051,186.9781,2221.0491,187.0738,2230.3,190.4533" style="stroke:#181818;stroke-width:1.0;"/></g><!--link A to UC9--><g id="link_A_UC9"><path d="M1202.69,82.7999 C1383.82,85.6169 1775.51,96.2309 1904,135.7969 C1939,146.5739 1969.7515,165.4749 1993.5915,182.4409 " fill="none" id="A-to-UC9" style="stroke:#181818;stroke-width:1.0;"/><polygon fill="#181818" points="1998.48,185.9199,1993.4666,177.4425,1994.4063,183.0208,1988.828,183.9605,1998.48,185.9199" style="stroke:#181818;stroke-width:1.0;"/></g><!--link A to UC10--><g id="link_A_UC10"><path d="M1202.5,81.9769 C1307.65,84.3629 1482.57,94.9389 1627,135.7969 C1667.58,147.2769 1705.4312,166.1382 1734.9612,182.7569 " fill="none" id="A-to-UC10" style="stroke:#181818;stroke-width:1.0;"/><polygon fill="#181818" points="1740.19,185.6996,1734.3085,177.7997,1735.8326,183.2474,1730.385,184.7715,1740.19,185.6996" style="stroke:#181818;stroke-width:1.0;"/></g><!--SRC=[ZP8zJiGm48LxdsAKVgNz_scGh1IX0oc4Vd1CPE74Q2PfG1o8St0nlCx66oqYkvMVxM_Up9FTcjPgI94TGwcXOESN2xdXLjS8JwRMMOTK6co4GDKwWaIMjMayG5ZwhQ-wTuHa72U035A8TrHlM6b8CisjSGtIW1pfx5YNmAS0w5WhP0_cscgbUZH58aqOp8fqCSQU3NTepOUd99kgmROZv1Ev79CFL64JmA6pL5Z-VDT6kHE_6lCXP6XUlmn9YdGjlgwbUIJtgjdHHA0p4amtrnE5DxWesqx7o_rpDMXFy6u4tnH3TXOd8lJNmNh_p_YfzIVzv2FwC3tr1RsO_vrRmcns5px2e9PHhQ9QHxM9QXlLBgfzL8Upy_mN]--></g></svg>