<?xml version="1.0" encoding="us-ascii" standalone="no"?><svg xmlns="http://www.w3.org/2000/svg" xmlns:xlink="http://www.w3.org/1999/xlink" contentStyleType="text/css" height="1144px" preserveAspectRatio="none" style="width:537px;height:1144px;background:#FFFFFF;" version="1.1" viewBox="0 0 537 1144" width="537px" zoomAndPan="magnify"><defs/><g><ellipse cx="265.5" cy="16" fill="#222222" rx="10" ry="10" style="stroke:#222222;stroke-width:1.0;"/><g id="Inicio"><rect fill="#FAF4B4" height="50" rx="12.5" ry="12.5" style="stroke:#C90000;stroke-width:0.5;" width="58" x="236.5" y="87"/><line style="stroke:#C90000;stroke-width:0.5;" x1="236.5" x2="294.5" y1="113.2969" y2="113.2969"/><text fill="#000000" font-family="sans-serif" font-size="14" lengthAdjust="spacing" textLength="38" x="246.5" y="104.9951">Inicio</text></g><path d="M19.5,232 L511.5,232 A12.5,12.5 0 0 1 524,244.5 L524,258.2969 L7,258.2969 L7,244.5 A12.5,12.5 0 0 1 19.5,232 " fill="#FAF4B4" style="stroke:#FAF4B4;stroke-width:1.0;"/><rect fill="none" height="789.2969" rx="12.5" ry="12.5" style="stroke:#C90000;stroke-width:0.5;" width="517" x="7" y="232"/><line style="stroke:#C90000;stroke-width:0.5;" x1="7" x2="524" y1="258.2969" y2="258.2969"/><text fill="#000000" font-family="sans-serif" font-size="14" lengthAdjust="spacing" textLength="99" x="216" y="249.9951">TimeGuardian</text><ellipse cx="276.5" cy="279.2969" fill="#222222" rx="10" ry="10" style="stroke:#222222;stroke-width:1.0;"/><g id="TimeGuardian.PaginaPrincipal"><rect fill="#FAF4B4" height="50" rx="12.5" ry="12.5" style="stroke:#C90000;stroke-width:0.5;" width="129" x="212" y="326.2969"/><line style="stroke:#C90000;stroke-width:0.5;" x1="212" x2="341" y1="352.5938" y2="352.5938"/><text fill="#000000" font-family="sans-serif" font-size="14" lengthAdjust="spacing" textLength="109" x="222" y="344.292">PaginaPrincipal</text></g><g id="TimeGuardian.GestionHorarios"><rect fill="#FAF4B4" height="50" rx="12.5" ry="12.5" style="stroke:#C90000;stroke-width:0.5;" width="135" x="96" y="462.2969"/><line style="stroke:#C90000;stroke-width:0.5;" x1="96" x2="231" y1="488.5938" y2="488.5938"/><text fill="#000000" font-family="sans-serif" font-size="14" lengthAdjust="spacing" textLength="115" x="106" y="480.292">GestionHorarios</text></g><g id="TimeGuardian.AsignacionDocenteAsignatura"><rect fill="#FAF4B4" height="50" rx="12.5" ry="12.5" style="stroke:#C90000;stroke-width:0.5;" width="235" x="19" y="583.2969"/><line style="stroke:#C90000;stroke-width:0.5;" x1="19" x2="254" y1="609.5938" y2="609.5938"/><text fill="#000000" font-family="sans-serif" font-size="14" lengthAdjust="spacing" textLength="215" x="29" y="601.292">AsignacionDocenteAsignatura</text></g><g id="TimeGuardian.AsignacionAula"><rect fill="#FAF4B4" height="50" rx="12.5" ry="12.5" style="stroke:#C90000;stroke-width:0.5;" width="127" x="68" y="704.2969"/><line style="stroke:#C90000;stroke-width:0.5;" x1="68" x2="195" y1="730.5938" y2="730.5938"/><text fill="#000000" font-family="sans-serif" font-size="14" lengthAdjust="spacing" textLength="107" x="78" y="722.292">AsignacionAula</text></g><g id="TimeGuardian.ConfiguracionHorario"><rect fill="#FAF4B4" height="50" rx="12.5" ry="12.5" style="stroke:#C90000;stroke-width:0.5;" width="171" x="45" y="825.2969"/><line style="stroke:#C90000;stroke-width:0.5;" x1="45" x2="216" y1="851.5938" y2="851.5938"/><text fill="#000000" font-family="sans-serif" font-size="14" lengthAdjust="spacing" textLength="151" x="55" y="843.292">ConfiguracionHorario</text></g><g id="TimeGuardian.HorarioFinalizado"><rect fill="#FAF4B4" height="50" rx="12.5" ry="12.5" style="stroke:#C90000;stroke-width:0.5;" width="143" x="206" y="961.2969"/><line style="stroke:#C90000;stroke-width:0.5;" x1="206" x2="349" y1="987.5938" y2="987.5938"/><text fill="#000000" font-family="sans-serif" font-size="14" lengthAdjust="spacing" textLength="123" x="216" y="979.292">HorarioFinalizado</text></g><!--link *start*TimeGuardian to PaginaPrincipal--><g id="link_*start*TimeGuardian_PaginaPrincipal"><path d="M276.5,289.4479 C276.5,298.7129 276.5,307.4379 276.5,320.0809 " fill="none" id="*start*TimeGuardian-to-PaginaPrincipal" style="stroke:#218C00;stroke-width:1.0;"/><polygon fill="#218C00" points="276.5,326.0809,280.5,317.0809,276.5,321.0809,272.5,317.0809,276.5,326.0809" style="stroke:#218C00;stroke-width:1.0;"/></g><!--link PaginaPrincipal to GestionHorarios--><g id="link_PaginaPrincipal_GestionHorarios"><path d="M241.945,376.4849 C228.608,385.8219 216.5,394.2969 216.5,394.2969 C216.5,394.2969 196.1231,429.6679 180.4201,456.9259 " fill="none" id="PaginaPrincipal-to-GestionHorarios" style="stroke:#218C00;stroke-width:1.0;"/><polygon fill="#218C00" points="177.425,462.1249,185.3836,456.3231,179.9209,457.7924,178.4516,452.3297,177.425,462.1249" style="stroke:#218C00;stroke-width:1.0;"/><path d="M221.5,399.2969 L221.5,439.2969 L361.5,439.2969 L361.5,409.2969 L351.5,399.2969 L221.5,399.2969 " fill="#F5F5F5" style="stroke:#C90000;stroke-width:0.5;"/><path d="M351.5,399.2969 L351.5,409.2969 L361.5,409.2969 L351.5,399.2969 " fill="#F5F5F5" style="stroke:#C90000;stroke-width:0.5;"/><text fill="#000000" font-family="sans-serif" font-size="13" lengthAdjust="spacing" textLength="118" x="227.5" y="416.3638">Visualizar Horarios</text><text fill="#000000" font-family="sans-serif" font-size="13" lengthAdjust="spacing" textLength="119" x="227.5" y="431.4966">Organizar Horarios</text></g><!--link PaginaPrincipal to PaginaPrincipal--><g id="link_PaginaPrincipal_PaginaPrincipal"><path d="M341.18,344.0109 C351.741,345.0539 359,347.4829 359,351.2969 C359,355.1109 357.712,356.9502 347.151,357.9932 " fill="none" id="PaginaPrincipal-to-PaginaPrincipal" style="stroke:#218C00;stroke-width:1.0;"/><polygon fill="#218C00" points="341.18,358.5829,350.5296,361.679,346.1558,358.0915,349.7433,353.7177,341.18,358.5829" style="stroke:#218C00;stroke-width:1.0;"/><path d="M364,338.7969 L364,363.7969 L515,363.7969 L515,348.7969 L505,338.7969 L364,338.7969 " fill="#F5F5F5" style="stroke:#C90000;stroke-width:0.5;"/><path d="M505,338.7969 L505,348.7969 L515,348.7969 L505,338.7969 " fill="#F5F5F5" style="stroke:#C90000;stroke-width:0.5;"/><text fill="#000000" font-family="sans-serif" font-size="13" lengthAdjust="spacing" textLength="130" x="370" y="355.8638">Crear Nuevo Horario</text></g><!--link GestionHorarios to AsignacionDocenteAsignatura--><g id="link_GestionHorarios_AsignacionDocenteAsignatura"><path d="M152.448,512.7289 C148.268,521.9679 144.5,530.2969 144.5,530.2969 C144.5,530.2969 141.9951,554.407 139.6511,576.966 " fill="none" id="GestionHorarios-to-AsignacionDocenteAsignatura" style="stroke:#218C00;stroke-width:1.0;"/><polygon fill="#218C00" points="139.031,582.9339,143.9397,574.3955,139.5477,577.9606,135.9826,573.5687,139.031,582.9339" style="stroke:#218C00;stroke-width:1.0;"/><path d="M149.5,535.2969 L149.5,560.2969 L361.5,560.2969 L361.5,545.2969 L351.5,535.2969 L149.5,535.2969 " fill="#F5F5F5" style="stroke:#C90000;stroke-width:0.5;"/><path d="M351.5,535.2969 L351.5,545.2969 L361.5,545.2969 L351.5,535.2969 " fill="#F5F5F5" style="stroke:#C90000;stroke-width:0.5;"/><text fill="#000000" font-family="sans-serif" font-size="13" lengthAdjust="spacing" textLength="191" x="155.5" y="552.3638">Asignar Docente a Asignatura</text></g><!--link AsignacionDocenteAsignatura to AsignacionAula--><g id="link_AsignacionDocenteAsignatura_AsignacionAula"><path d="M135.488,633.3779 C134.621,654.0239 133.6289,677.6212 132.7619,698.2562 " fill="none" id="AsignacionDocenteAsignatura-to-AsignacionAula" style="stroke:#218C00;stroke-width:1.0;"/><polygon fill="#218C00" points="132.51,704.2509,136.8843,695.4267,132.7199,699.2553,128.8913,695.0909,132.51,704.2509" style="stroke:#218C00;stroke-width:1.0;"/><path d="M140.5,656.2969 L140.5,681.2969 L326.5,681.2969 L326.5,666.2969 L316.5,656.2969 L140.5,656.2969 " fill="#F5F5F5" style="stroke:#C90000;stroke-width:0.5;"/><path d="M316.5,656.2969 L316.5,666.2969 L326.5,666.2969 L316.5,656.2969 " fill="#F5F5F5" style="stroke:#C90000;stroke-width:0.5;"/><text fill="#000000" font-family="sans-serif" font-size="13" lengthAdjust="spacing" textLength="165" x="146.5" y="673.3638">Asignar Aula a Asignatura</text></g><!--link AsignacionAula to ConfiguracionHorario--><g id="link_AsignacionAula_ConfiguracionHorario"><path d="M131.298,754.3779 C131.124,775.0239 130.9253,798.6161 130.7523,819.2511 " fill="none" id="AsignacionAula-to-ConfiguracionHorario" style="stroke:#218C00;stroke-width:1.0;"/><polygon fill="#218C00" points="130.702,825.2509,134.7773,816.2847,130.7439,820.2511,126.7776,816.2177,130.702,825.2509" style="stroke:#218C00;stroke-width:1.0;"/><path d="M136.5,777.2969 L136.5,802.2969 L306.5,802.2969 L306.5,787.2969 L296.5,777.2969 L136.5,777.2969 " fill="#F5F5F5" style="stroke:#C90000;stroke-width:0.5;"/><path d="M296.5,777.2969 L296.5,787.2969 L306.5,787.2969 L296.5,777.2969 " fill="#F5F5F5" style="stroke:#C90000;stroke-width:0.5;"/><text fill="#000000" font-family="sans-serif" font-size="13" lengthAdjust="spacing" textLength="149" x="142.5" y="794.3638">Configurar Horario Aula</text></g><!--link ConfiguracionHorario to HorarioFinalizado--><g id="link_ConfiguracionHorario_HorarioFinalizado"><path d="M154.409,875.4689 C181.371,902.7269 221.5,943.2969 221.5,943.2969 C221.5,943.2969 228.0011,948.1723 240.4491,957.5086 " fill="none" id="ConfiguracionHorario-to-HorarioFinalizado" style="stroke:#218C00;stroke-width:1.0;"/><polygon fill="#218C00" points="245.249,961.1087,240.4491,952.5086,241.249,958.1086,235.649,958.9085,245.249,961.1087" style="stroke:#218C00;stroke-width:1.0;"/><path d="M226.5,898.2969 L226.5,938.2969 L361.5,938.2969 L361.5,908.2969 L351.5,898.2969 L226.5,898.2969 " fill="#F5F5F5" style="stroke:#C90000;stroke-width:0.5;"/><path d="M351.5,898.2969 L351.5,908.2969 L361.5,908.2969 L351.5,898.2969 " fill="#F5F5F5" style="stroke:#C90000;stroke-width:0.5;"/><text fill="#000000" font-family="sans-serif" font-size="13" lengthAdjust="spacing" textLength="98" x="232.5" y="915.3638">Asignar Horario</text><text fill="#000000" font-family="sans-serif" font-size="13" lengthAdjust="spacing" textLength="114" x="232.5" y="930.4966">Confirmar Horario</text></g><!--link ConfiguracionHorario to ConfiguracionHorario--><g id="link_ConfiguracionHorario_ConfiguracionHorario"><path d="M216.163,840.4999 C226.921,842.2269 234,845.4919 234,850.2969 C234,855.1019 232.8452,857.4159 222.0872,859.1429 " fill="none" id="ConfiguracionHorario-to-ConfiguracionHorario" style="stroke:#218C00;stroke-width:1.0;"/><polygon fill="#218C00" points="216.163,860.0939,225.6832,862.6168,221.0998,859.3014,224.4152,854.7179,216.163,860.0939" style="stroke:#218C00;stroke-width:1.0;"/><path d="M239,837.7969 L239,862.7969 L347,862.7969 L347,847.7969 L337,837.7969 L239,837.7969 " fill="#F5F5F5" style="stroke:#C90000;stroke-width:0.5;"/><path d="M337,837.7969 L337,847.7969 L347,847.7969 L337,837.7969 " fill="#F5F5F5" style="stroke:#C90000;stroke-width:0.5;"/><text fill="#000000" font-family="sans-serif" font-size="13" lengthAdjust="spacing" textLength="87" x="245" y="854.8638">Editar Horario</text></g><!--link HorarioFinalizado to PaginaPrincipal--><g id="link_HorarioFinalizado_PaginaPrincipal"><path d="M328.498,961.2305 C348.384,951.8463 366.5,943.2969 366.5,943.2969 C366.5,943.2969 380.5,851.2969 380.5,851.2969 C380.5,486.2969 380.5,486.2969 380.5,486.2969 C380.5,486.2969 366.5,394.2969 366.5,394.2969 C366.5,394.2969 353.617,388.2854 333.508,378.9004 " fill="none" id="HorarioFinalizado-to-PaginaPrincipal" style="stroke:#218C00;stroke-width:1.0;"/><polygon fill="#218C00" points="328.071,376.3629,334.5349,383.7938,332.6018,378.4775,337.9182,376.5444,328.071,376.3629" style="stroke:#218C00;stroke-width:1.0;"/><path d="M385.5,656.2969 L385.5,681.2969 L501.5,681.2969 L501.5,666.2969 L491.5,656.2969 L385.5,656.2969 " fill="#F5F5F5" style="stroke:#C90000;stroke-width:0.5;"/><path d="M491.5,656.2969 L491.5,666.2969 L501.5,666.2969 L491.5,656.2969 " fill="#F5F5F5" style="stroke:#C90000;stroke-width:0.5;"/><text fill="#000000" font-family="sans-serif" font-size="13" lengthAdjust="spacing" textLength="95" x="391.5" y="673.3638">Guardar y Salir</text></g><ellipse cx="265.5" cy="1127" fill="none" rx="11" ry="11" style="stroke:#222222;stroke-width:1.0;"/><ellipse cx="265.5" cy="1127" fill="#222222" rx="6" ry="6" style="stroke:#222222;stroke-width:1.0;"/><!--link *start* to Inicio--><g id="link_*start*_Inicio"><path d="M265.5,26.01 C265.5,39.89 265.5,60.97 265.5,80.84 " fill="none" id="*start*-to-Inicio" style="stroke:#218C00;stroke-width:1.0;"/><polygon fill="#218C00" points="265.5,86.84,269.5,77.84,265.5,81.84,261.5,77.84,265.5,86.84" style="stroke:#218C00;stroke-width:1.0;"/></g><!--link Inicio to TimeGuardian--><g id="link_Inicio_TimeGuardian"><path d="M265.5,137.03 C265.5,158.207 265.5,185.865 265.5,225.863 " fill="none" id="Inicio-to-TimeGuardian" style="stroke:#218C00;stroke-width:1.0;"/><polygon fill="#218C00" points="265.5,231.863,269.5,222.863,265.5,226.863,261.5,222.863,265.5,231.863" style="stroke:#218C00;stroke-width:1.0;"/><path d="M270.5,172 L270.5,197 L325.5,197 L325.5,182 L315.5,172 L270.5,172 " fill="#F5F5F5" style="stroke:#C90000;stroke-width:0.5;"/><path d="M315.5,172 L315.5,182 L325.5,182 L315.5,172 " fill="#F5F5F5" style="stroke:#C90000;stroke-width:0.5;"/><text fill="#000000" font-family="sans-serif" font-size="13" lengthAdjust="spacing" textLength="34" x="276.5" y="189.0669">Login</text></g><!--link Inicio to Inicio--><g id="link_Inicio_Inicio"><path d="M294.793,102.55 C312.624,100.36 329.5,103.51 329.5,112 C329.5,120.49 318.5793,124.3714 300.7483,122.1814 " fill="none" id="Inicio-to-Inicio" style="stroke:#218C00;stroke-width:1.0;"/><polygon fill="#218C00" points="294.793,121.45,303.2383,126.5173,299.7557,122.0595,304.2135,118.577,294.793,121.45" style="stroke:#218C00;stroke-width:1.0;"/><path d="M334.5,99.5 L334.5,124.5 L465.5,124.5 L465.5,109.5 L455.5,99.5 L334.5,99.5 " fill="#F5F5F5" style="stroke:#C90000;stroke-width:0.5;"/><path d="M455.5,99.5 L455.5,109.5 L465.5,109.5 L455.5,99.5 " fill="#F5F5F5" style="stroke:#C90000;stroke-width:0.5;"/><text fill="#000000" font-family="sans-serif" font-size="13" lengthAdjust="spacing" textLength="110" x="340.5" y="116.5669">Registrar Usuario</text></g><!--link TimeGuardian to *end*--><g id="link_TimeGuardian_*end*"><path d="M265.5,1021.194 C265.5,1065.0164 265.5,1093.7425 265.5,1109.9838 " fill="none" id="TimeGuardian-to-*end*" style="stroke:#218C00;stroke-width:1.0;"/><polygon fill="#218C00" points="265.5,1115.9838,269.5,1106.9838,265.5,1110.9838,261.5,1106.9838,265.5,1115.9838" style="stroke:#218C00;stroke-width:1.0;"/><path d="M270.5,1056 L270.5,1081 L341.5,1081 L341.5,1066 L331.5,1056 L270.5,1056 " fill="#F5F5F5" style="stroke:#C90000;stroke-width:0.5;"/><path d="M331.5,1056 L331.5,1066 L341.5,1066 L331.5,1056 " fill="#F5F5F5" style="stroke:#C90000;stroke-width:0.5;"/><text fill="#000000" font-family="sans-serif" font-size="13" lengthAdjust="spacing" textLength="50" x="276.5" y="1073.0669">Log Out</text></g><!--SRC=[ZPDHJy8m4CVV-oakySs4H0mc-cA2g6XYX0ZwOdoeMvaNnfLSEmqQlxljDiPM1h8zBBt-x_-xwtfcZhIKB1T0sgeh6SqJrXd50vrgXgFPcN-5QQeqnufBHNHnufwQGZBhhtBpj7iUDJQDbMqKEUkzzxPaUp4fahAhfOAbJbT-4POm_S1eJieOw0hnUlm6dSubt1D6g8Kelj29NMoA2pNC9CSeIVZ-G9Etdmk01vqW2KLntdWZhRGA4fvKWiQoP7WspjC9gcGnyLqrSF1JLJQMZYJ7Z1JXKgP21842EbJ6egOxpTxRXFGNTD0Klns-aW2CE97K35P5jLB2MWBAW9NpUipKfruxrheCIYmS-mOJakwyw5f7Ygmg0ZPZ6ReNEmob42JKj1lC7iSGsS_IdHI_zpyYL-Mk0qqpJ9mkslIuTJvhJNNWEQRctEPI-9UBMtV-_Z_6UbVXQtQ9uqKjLe5sSmxfuoP6s-OgjeeywDhabzxvhM3YqdZZzoj4OoZyEBYnQ9b566Msoli3]--></g></svg>