<svg xmlns="http://www.w3.org/2000/svg" xmlns:xlink="http://www.w3.org/1999/xlink" contentStyleType="text/css" height="1142px" preserveAspectRatio="none" style="width:529px;height:1142px;background:#FFFFFF;" version="1.1" viewBox="0 0 529 1142" width="529px" zoomAndPan="magnify"><defs/><g><ellipse cx="261.25" cy="16" fill="#222222" rx="10" ry="10" style="stroke:#222222;stroke-width:1.0;"/><g id="Inicio"><rect fill="#FAF4B4" height="50" rx="12.5" ry="12.5" style="stroke:#C90000;stroke-width:0.5;" width="55" x="233.75" y="86"/><line style="stroke:#C90000;stroke-width:0.5;" x1="233.75" x2="288.75" y1="112.2969" y2="112.2969"/><text fill="#000000" font-family="sans-serif" font-size="14" lengthAdjust="spacing" textLength="35" x="243.75" y="103.9951">Inicio</text></g><path d="M19.5,231 L503,231 A12.5,12.5 0 0 1 515.5,243.5 L515.5,257.2969 L7,257.2969 L7,243.5 A12.5,12.5 0 0 1 19.5,231 " fill="#FAF4B4" style="stroke:#FAF4B4;stroke-width:1.0;"/><rect fill="none" height="788.2969" rx="12.5" ry="12.5" style="stroke:#C90000;stroke-width:0.5;" width="508.5" x="7" y="231"/><line style="stroke:#C90000;stroke-width:0.5;" x1="7" x2="515.5" y1="257.2969" y2="257.2969"/><text fill="#000000" font-family="sans-serif" font-size="14" lengthAdjust="spacing" textLength="96" x="213.25" y="248.9951">TimeGuardian</text><ellipse cx="270" cy="278.2969" fill="#222222" rx="10" ry="10" style="stroke:#222222;stroke-width:1.0;"/><g id="TimeGuardian.PaginaPrincipal"><rect fill="#FAF4B4" height="50" rx="12.5" ry="12.5" style="stroke:#C90000;stroke-width:0.5;" width="123" x="208.5" y="324.2969"/><line style="stroke:#C90000;stroke-width:0.5;" x1="208.5" x2="331.5" y1="350.5938" y2="350.5938"/><text fill="#000000" font-family="sans-serif" font-size="14" lengthAdjust="spacing" textLength="103" x="218.5" y="342.292">PaginaPrincipal</text></g><g id="TimeGuardian.GestionHorarios"><rect fill="#FAF4B4" height="50" rx="12.5" ry="12.5" style="stroke:#C90000;stroke-width:0.5;" width="131" x="86.5" y="460.2969"/><line style="stroke:#C90000;stroke-width:0.5;" x1="86.5" x2="217.5" y1="486.5938" y2="486.5938"/><text fill="#000000" font-family="sans-serif" font-size="14" lengthAdjust="spacing" textLength="111" x="96.5" y="478.292">GestionHorarios</text></g><g id="TimeGuardian.AsignacionDocenteAsignatura"><rect fill="#FAF4B4" height="50" rx="12.5" ry="12.5" style="stroke:#C90000;stroke-width:0.5;" width="228" x="19" y="581.2969"/><line style="stroke:#C90000;stroke-width:0.5;" x1="19" x2="247" y1="607.5938" y2="607.5938"/><text fill="#000000" font-family="sans-serif" font-size="14" lengthAdjust="spacing" textLength="208" x="29" y="599.292">AsignacionDocenteAsignatura</text></g><g id="TimeGuardian.AsignacionAula"><rect fill="#FAF4B4" height="50" rx="12.5" ry="12.5" style="stroke:#C90000;stroke-width:0.5;" width="124" x="68" y="702.2969"/><line style="stroke:#C90000;stroke-width:0.5;" x1="68" x2="192" y1="728.5938" y2="728.5938"/><text fill="#000000" font-family="sans-serif" font-size="14" lengthAdjust="spacing" textLength="104" x="78" y="720.292">AsignacionAula</text></g><g id="TimeGuardian.ConfiguracionHorario"><rect fill="#FAF4B4" height="50" rx="12.5" ry="12.5" style="stroke:#C90000;stroke-width:0.5;" width="164" x="42" y="823.2969"/><line style="stroke:#C90000;stroke-width:0.5;" x1="42" x2="206" y1="849.5938" y2="849.5938"/><text fill="#000000" font-family="sans-serif" font-size="14" lengthAdjust="spacing" textLength="144" x="52" y="841.292">ConfiguracionHorario</text></g><g id="TimeGuardian.HorarioFinalizado"><rect fill="#FAF4B4" height="50" rx="12.5" ry="12.5" style="stroke:#C90000;stroke-width:0.5;" width="137" x="179.5" y="959.2969"/><line style="stroke:#C90000;stroke-width:0.5;" x1="179.5" x2="316.5" y1="985.5938" y2="985.5938"/><text fill="#000000" font-family="sans-serif" font-size="14" lengthAdjust="spacing" textLength="117" x="189.5" y="977.292">HorarioFinalizado</text></g><!--link *start*TimeGuardian to PaginaPrincipal--><g id="link_*start*TimeGuardian_PaginaPrincipal"><path d="M270,288.6069 C270,297.6569 270,305.7869 270,318.0269 " fill="none" id="*start*TimeGuardian-to-PaginaPrincipal" style="stroke:#218C00;stroke-width:1.0;"/><polygon fill="#218C00" points="270,324.0269,274,315.0269,270,319.0269,266,315.0269,270,324.0269" style="stroke:#218C00;stroke-width:1.0;"/></g><!--link PaginaPrincipal to GestionHorarios--><g id="link_PaginaPrincipal_GestionHorarios"><path d="M232.77,374.7269 C218.69,383.9669 206,392.2969 206,392.2969 C206,392.2969 185.2271,427.6923 169.2271,454.9523 " fill="none" id="PaginaPrincipal-to-GestionHorarios" style="stroke:#218C00;stroke-width:1.0;"/><polygon fill="#218C00" points="166.19,460.1269,174.1954,454.3898,168.721,455.8148,167.296,450.3403,166.19,460.1269" style="stroke:#218C00;stroke-width:1.0;"/><path d="M211,397.2969 L211,437.2969 L352,437.2969 L352,407.2969 L342,397.2969 L211,397.2969 " fill="#F5F5F5" style="stroke:#C90000;stroke-width:0.5;"/><path d="M342,397.2969 L342,407.2969 L352,407.2969 L342,397.2969 " fill="#F5F5F5" style="stroke:#C90000;stroke-width:0.5;"/><text fill="#000000" font-family="sans-serif" font-size="13" lengthAdjust="spacing" textLength="119" x="217" y="414.3638">Visualizar Horarios</text><text fill="#000000" font-family="sans-serif" font-size="13" lengthAdjust="spacing" textLength="120" x="217" y="429.4966">Organizar Horarios</text></g><!--link PaginaPrincipal to PaginaPrincipal--><g id="link_PaginaPrincipal_PaginaPrincipal"><path d="M332,341.8069 C342.35,342.8569 349.5,345.3469 349.5,349.2969 C349.5,353.2469 348.3199,355.147 337.9699,356.187 " fill="none" id="PaginaPrincipal-to-PaginaPrincipal" style="stroke:#218C00;stroke-width:1.0;"/><polygon fill="#218C00" points="332,356.7869,341.3548,359.867,336.9749,356.287,340.555,351.9071,332,356.7869" style="stroke:#218C00;stroke-width:1.0;"/><path d="M354.5,336.7969 L354.5,361.7969 L506.5,361.7969 L506.5,346.7969 L496.5,336.7969 L354.5,336.7969 " fill="#F5F5F5" style="stroke:#C90000;stroke-width:0.5;"/><path d="M496.5,336.7969 L496.5,346.7969 L506.5,346.7969 L496.5,336.7969 " fill="#F5F5F5" style="stroke:#C90000;stroke-width:0.5;"/><text fill="#000000" font-family="sans-serif" font-size="13" lengthAdjust="spacing" textLength="131" x="360.5" y="353.8638">Crear Nuevo Horario</text></g><!--link GestionHorarios to AsignacionDocenteAsignatura--><g id="link_GestionHorarios_AsignacionDocenteAsignatura"><path d="M142.11,510.7269 C138.37,519.9669 135,528.2969 135,528.2969 C135,528.2969 134.3769,552.3789 133.7869,574.9389 " fill="none" id="GestionHorarios-to-AsignacionDocenteAsignatura" style="stroke:#218C00;stroke-width:1.0;"/><polygon fill="#218C00" points="133.63,580.9369,137.8639,572.0445,133.7607,575.9386,129.8667,571.8354,133.63,580.9369" style="stroke:#218C00;stroke-width:1.0;"/><path d="M140,533.2969 L140,558.2969 L352,558.2969 L352,543.2969 L342,533.2969 L140,533.2969 " fill="#F5F5F5" style="stroke:#C90000;stroke-width:0.5;"/><path d="M342,533.2969 L342,543.2969 L352,543.2969 L342,533.2969 " fill="#F5F5F5" style="stroke:#C90000;stroke-width:0.5;"/><text fill="#000000" font-family="sans-serif" font-size="13" lengthAdjust="spacing" textLength="191" x="146" y="550.3638">Asignar Docente a Asignatura</text></g><!--link AsignacionDocenteAsignatura to AsignacionAula--><g id="link_AsignacionDocenteAsignatura_AsignacionAula"><path d="M132.39,631.6669 C131.87,652.1969 131.282,675.4388 130.762,695.9588 " fill="none" id="AsignacionDocenteAsignatura-to-AsignacionAula" style="stroke:#218C00;stroke-width:1.0;"/><polygon fill="#218C00" points="130.61,701.9569,134.8367,693.0611,130.7367,696.9585,126.8393,692.8584,130.61,701.9569" style="stroke:#218C00;stroke-width:1.0;"/><path d="M137,654.2969 L137,679.2969 L323,679.2969 L323,664.2969 L313,654.2969 L137,654.2969 " fill="#F5F5F5" style="stroke:#C90000;stroke-width:0.5;"/><path d="M313,654.2969 L313,664.2969 L323,664.2969 L313,654.2969 " fill="#F5F5F5" style="stroke:#C90000;stroke-width:0.5;"/><text fill="#000000" font-family="sans-serif" font-size="13" lengthAdjust="spacing" textLength="165" x="143" y="671.3638">Asignar Aula a Asignatura</text></g><!--link AsignacionAula to ConfiguracionHorario--><g id="link_AsignacionAula_ConfiguracionHorario"><path d="M128.77,752.6669 C127.74,773.1969 126.5608,796.4444 125.5308,816.9644 " fill="none" id="AsignacionAula-to-ConfiguracionHorario" style="stroke:#218C00;stroke-width:1.0;"/><polygon fill="#218C00" points="125.23,822.9569,129.6762,814.1687,125.4807,817.9632,121.6862,813.7677,125.23,822.9569" style="stroke:#218C00;stroke-width:1.0;"/><path d="M133,775.2969 L133,800.2969 L303,800.2969 L303,785.2969 L293,775.2969 L133,775.2969 " fill="#F5F5F5" style="stroke:#C90000;stroke-width:0.5;"/><path d="M293,775.2969 L293,785.2969 L303,785.2969 L293,775.2969 " fill="#F5F5F5" style="stroke:#C90000;stroke-width:0.5;"/><text fill="#000000" font-family="sans-serif" font-size="13" lengthAdjust="spacing" textLength="149" x="139" y="792.3638">Configurar Horario Aula</text></g><!--link ConfiguracionHorario to HorarioFinalizado--><g id="link_ConfiguracionHorario_HorarioFinalizado"><path d="M146.46,873.5669 C168.93,897.8469 199.2251,930.5829 221.6351,954.8029 " fill="none" id="ConfiguracionHorario-to-HorarioFinalizado" style="stroke:#218C00;stroke-width:1.0;"/><polygon fill="#218C00" points="225.71,959.2069,222.5337,949.8843,222.3143,955.5369,216.6617,955.3175,225.71,959.2069" style="stroke:#218C00;stroke-width:1.0;"/><path d="M213,896.2969 L213,936.2969 L348,936.2969 L348,906.2969 L338,896.2969 L213,896.2969 " fill="#F5F5F5" style="stroke:#C90000;stroke-width:0.5;"/><path d="M338,896.2969 L338,906.2969 L348,906.2969 L338,896.2969 " fill="#F5F5F5" style="stroke:#C90000;stroke-width:0.5;"/><text fill="#000000" font-family="sans-serif" font-size="13" lengthAdjust="spacing" textLength="99" x="219" y="913.3638">Asignar Horario</text><text fill="#000000" font-family="sans-serif" font-size="13" lengthAdjust="spacing" textLength="114" x="219" y="928.4966">Confirmar Horario</text></g><!--link ConfiguracionHorario to ConfiguracionHorario--><g id="link_ConfiguracionHorario_ConfiguracionHorario"><path d="M206.38,838.3569 C216.99,840.0769 224,843.3969 224,848.2969 C224,853.1969 222.9127,855.5567 212.3027,857.2767 " fill="none" id="ConfiguracionHorario-to-ConfiguracionHorario" style="stroke:#218C00;stroke-width:1.0;"/><polygon fill="#218C00" points="206.38,858.2369,215.9041,860.7451,211.3156,857.4368,214.6239,852.8482,206.38,858.2369" style="stroke:#218C00;stroke-width:1.0;"/><path d="M229,835.7969 L229,860.7969 L338,860.7969 L338,845.7969 L328,835.7969 L229,835.7969 " fill="#F5F5F5" style="stroke:#C90000;stroke-width:0.5;"/><path d="M328,835.7969 L328,845.7969 L338,845.7969 L328,835.7969 " fill="#F5F5F5" style="stroke:#C90000;stroke-width:0.5;"/><text fill="#000000" font-family="sans-serif" font-size="13" lengthAdjust="spacing" textLength="88" x="235" y="852.8638">Editar Horario</text></g><!--link HorarioFinalizado to PaginaPrincipal--><g id="link_HorarioFinalizado_PaginaPrincipal"><path d="M311.41,958.8669 C335.38,949.6269 357,941.2969 357,941.2969 C357,941.2969 371,849.2969 371,849.2969 C371,484.2969 371,484.2969 371,484.2969 C371,484.2969 357,392.2969 357,392.2969 C357,392.2969 345.1533,386.5754 326.0133,377.3354 " fill="none" id="HorarioFinalizado-to-PaginaPrincipal" style="stroke:#218C00;stroke-width:1.0;"/><polygon fill="#218C00" points="320.61,374.7269,326.976,382.2418,325.1128,376.9006,330.454,375.0374,320.61,374.7269" style="stroke:#218C00;stroke-width:1.0;"/><path d="M376,654.2969 L376,679.2969 L449,679.2969 L449,664.2969 L439,654.2969 L376,654.2969 " fill="#F5F5F5" style="stroke:#C90000;stroke-width:0.5;"/><path d="M439,654.2969 L439,664.2969 L449,664.2969 L439,654.2969 " fill="#F5F5F5" style="stroke:#C90000;stroke-width:0.5;"/><text fill="#000000" font-family="sans-serif" font-size="13" lengthAdjust="spacing" textLength="52" x="382" y="671.3638">Guardar</text></g><ellipse cx="261.25" cy="1125.3" fill="none" rx="11" ry="11" style="stroke:#222222;stroke-width:1.0;"/><ellipse cx="261.25" cy="1125.3" fill="#222222" rx="6" ry="6" style="stroke:#222222;stroke-width:1.0;"/><!--link *start* to Inicio--><g id="link_*start*_Inicio"><path d="M261.25,26.26 C261.25,39.95 261.25,60.07 261.25,79.52 " fill="none" id="*start*-to-Inicio" style="stroke:#218C00;stroke-width:1.0;"/><polygon fill="#218C00" points="261.25,85.52,265.25,76.52,261.25,80.52,257.25,76.52,261.25,85.52" style="stroke:#218C00;stroke-width:1.0;"/></g><!--link Inicio to TimeGuardian--><g id="link_Inicio_TimeGuardian"><path d="M261.25,136.36 C261.25,157.53 261.25,185 261.25,224.74 " fill="none" id="Inicio-to-TimeGuardian" style="stroke:#218C00;stroke-width:1.0;"/><polygon fill="#218C00" points="261.25,230.74,265.25,221.74,261.25,225.74,257.25,221.74,261.25,230.74" style="stroke:#218C00;stroke-width:1.0;"/><path d="M266.25,171 L266.25,196 L321.25,196 L321.25,181 L311.25,171 L266.25,171 " fill="#F5F5F5" style="stroke:#C90000;stroke-width:0.5;"/><path d="M311.25,171 L311.25,181 L321.25,181 L311.25,171 " fill="#F5F5F5" style="stroke:#C90000;stroke-width:0.5;"/><text fill="#000000" font-family="sans-serif" font-size="13" lengthAdjust="spacing" textLength="34" x="272.25" y="188.0669">Login</text></g><!--link Inicio to Inicio--><g id="link_Inicio_Inicio"><path d="M289.21,101.46 C306.86,99.07 323.75,102.25 323.75,111 C323.75,119.76 312.8053,123.7484 295.1553,121.3484 " fill="none" id="Inicio-to-Inicio" style="stroke:#218C00;stroke-width:1.0;"/><polygon fill="#218C00" points="289.21,120.54,297.589,125.7162,294.1644,121.2137,298.6669,117.7891,289.21,120.54" style="stroke:#218C00;stroke-width:1.0;"/><path d="M328.75,98.5 L328.75,123.5 L459.75,123.5 L459.75,108.5 L449.75,98.5 L328.75,98.5 " fill="#F5F5F5" style="stroke:#C90000;stroke-width:0.5;"/><path d="M449.75,98.5 L449.75,108.5 L459.75,108.5 L449.75,98.5 " fill="#F5F5F5" style="stroke:#C90000;stroke-width:0.5;"/><text fill="#000000" font-family="sans-serif" font-size="13" lengthAdjust="spacing" textLength="110" x="334.75" y="115.5669">Registrar Usuario</text></g><!--link TimeGuardian to *end*--><g id="link_TimeGuardian_*end*"><path d="M261.25,1019.57 C261.25,1063.12 261.25,1091.68 261.25,1108.02 " fill="none" id="TimeGuardian-to-*end*" style="stroke:#218C00;stroke-width:1.0;"/><polygon fill="#218C00" points="261.25,1114.02,265.25,1105.02,261.25,1109.02,257.25,1105.02,261.25,1114.02" style="stroke:#218C00;stroke-width:1.0;"/><path d="M266.25,1054.3 L266.25,1079.3 L337.25,1079.3 L337.25,1064.3 L327.25,1054.3 L266.25,1054.3 " fill="#F5F5F5" style="stroke:#C90000;stroke-width:0.5;"/><path d="M327.25,1054.3 L327.25,1064.3 L337.25,1064.3 L327.25,1054.3 " fill="#F5F5F5" style="stroke:#C90000;stroke-width:0.5;"/><text fill="#000000" font-family="sans-serif" font-size="13" lengthAdjust="spacing" textLength="50" x="272.25" y="1071.3669">Log Out</text></g><!--SRC=[ZPDDJyCm38Rl-HMMk25D0WGIN91WV4g8JNnT40VJPiLQvqnE2WB4VoTfkwxDEbXxg6A_UH_RJUoKU8w2Cs3Zz2acqqnCmUdGv4PWQt8GNcMxAYEfbbgH7EtufwL04VDH9_Ts3vDEqZhie-1a_tL_HVOd9YVMxdEkOMxopx28ItXuesJAsbhOLUfv-mK6WsEuPah8A5LzOP3ws0FDz6M1aXAo2ls1uM0_LG0t9YDMcjEoySwssYhQSASpiavGuD5wJozeDglxq5K71zzDPMFq91mBSK9pp9MA0XNqKbj7Xg-C16yRqv_8GtFwylX60Z2I3BaRR8hgfSIrH9IXQEzrM-Xtit1iTHcLM3cUMCeO_Rpup2IQdQu2hX2CtQkCG2q4X9PsYVd3CKQU5FbQIiZzZoXLfUlGy8GohqkMFQxCPw5f1bvYMivzBfL_lRZmym__CJNh2b-mQvpCMh46j9wpIH_dARa-LxLIv4R7fZpqA4kV7wKwbo5S0tyTUkuWZ0hNxFi5]--></g></svg>