<?xml version="1.0" encoding="us-ascii" standalone="no"?><svg xmlns="http://www.w3.org/2000/svg" xmlns:xlink="http://www.w3.org/1999/xlink" contentStyleType="text/css" height="86px" preserveAspectRatio="none" style="width:480px;height:86px;background:#FFFFFF;" version="1.1" viewBox="0 0 480 86" width="480px" zoomAndPan="magnify"><defs/><g><!--entity A--><g id="elem_A"><ellipse cx="55.5" cy="14" fill="#F1F1F1" rx="8" ry="8" style="stroke:#181818;stroke-width:0.5;"/><path d="M55.5,22 L55.5,49 M42.5,30 L68.5,30 M55.5,49 L42.5,64 M55.5,49 L68.5,64 " fill="none" style="stroke:#181818;stroke-width:0.5;"/><text fill="#000000" font-family="sans-serif" font-size="14" lengthAdjust="spacing" textLength="99" x="6" y="78.4951">TimeGuardian</text></g><g id="elem_UC1"><ellipse cx="386.3518" cy="43.5704" fill="#F1F1F1" rx="88.3518" ry="20.0704" style="stroke:#181818;stroke-width:0.5;"/><text fill="#000000" font-family="sans-serif" font-size="14" lengthAdjust="spacing" textLength="138" x="317.3518" y="46.417">DocenteAsignatura</text></g><!--link A to UC1--><g id="link_A_UC1"><path d="M105.0451,43.5 C155.63,43.5 229.978,43.5 291.732,43.5 " fill="none" id="A-to-UC1" style="stroke:#181818;stroke-width:1.0;"/><polygon fill="#181818" points="297.732,43.5,288.732,39.5,292.732,43.5,288.732,47.5,297.732,43.5" style="stroke:#181818;stroke-width:1.0;"/><text fill="#000000" font-family="sans-serif" font-size="13" lengthAdjust="spacing" textLength="116" x="143.5" y="39.5669">Docente asignado</text></g><!--link A to UC1--><g id="link_A_UC1"><path d="M105.3553,61.6048 C115.05,64.47 125.248,66.9846 135,68.5 C193.41,77.5764 209.213,74.6847 268,68.5 C287.497,66.4488 302.6581,63.8221 321.4551,59.6879 " fill="none" id="A-to-UC1-1" style="stroke:#181818;stroke-width:1.0;"/><polygon fill="#181818" points="327.315,58.3991,317.6659,56.4257,322.4317,59.4731,319.3843,64.239,327.315,58.3991" style="stroke:#181818;stroke-width:1.0;"/><text fill="#000000" font-family="sans-serif" font-size="13" lengthAdjust="spacing" textLength="131" x="136" y="64.5669">Asignatura asignada</text></g><!--SRC=[LSin2iCm38NXtQTuUC-GjKF1f90Bf0SGjfe86Wja-VvjGalfzk3xtvCV3bUOh9kZY75sqHeeknhY8ZlFdQm8rGXgIA4tpjGOyQQPgtDgibRoRdG6zsaC2SDmFHOk-5HlEhAYV_ZxVfrU]--></g></svg>