<?xml version="1.0" encoding="us-ascii" standalone="no"?><svg xmlns="http://www.w3.org/2000/svg" xmlns:xlink="http://www.w3.org/1999/xlink" contentStyleType="text/css" height="86px" preserveAspectRatio="none" style="width:458px;height:86px;background:#FFFFFF;" version="1.1" viewBox="0 0 458 86" width="458px" zoomAndPan="magnify"><defs/><g><!--entity A--><g id="elem_A"><ellipse cx="55.5" cy="14" fill="#F1F1F1" rx="8" ry="8" style="stroke:#181818;stroke-width:0.5;"/><path d="M55.5,22 L55.5,49 M42.5,30 L68.5,30 M55.5,49 L42.5,64 M55.5,49 L68.5,64 " fill="none" style="stroke:#181818;stroke-width:0.5;"/><text fill="#000000" font-family="sans-serif" font-size="14" lengthAdjust="spacing" textLength="99" x="6" y="78.4951">TimeGuardian</text></g><g id="elem_UC1"><ellipse cx="374.7532" cy="43.4506" fill="#F1F1F1" rx="77.7532" ry="17.9506" style="stroke:#181818;stroke-width:0.5;"/><text fill="#000000" font-family="sans-serif" font-size="14" lengthAdjust="spacing" textLength="113" x="315.6994" y="47.0809">DocenteCreado</text></g><!--link A to UC1--><g id="link_A_UC1"><path d="M105.067,43.5 C156.052,43.5 230.957,43.5 290.724,43.5 " fill="none" id="A-to-UC1" style="stroke:#181818;stroke-width:1.0;"/><polygon fill="#181818" points="296.724,43.5,287.724,39.5,291.724,43.5,287.724,47.5,296.724,43.5" style="stroke:#181818;stroke-width:1.0;"/><text fill="#000000" font-family="sans-serif" font-size="13" lengthAdjust="spacing" textLength="105" x="148.5" y="39.5669">Nombre/Apellido</text></g><!--link A to UC1--><g id="link_A_UC1"><path d="M105.3553,61.6048 C115.05,64.47 125.248,66.9846 135,68.5 C192.971,77.5082 208.719,75.218 267,68.5 C286.235,66.2827 301.2144,63.338 319.3184,58.8479 " fill="none" id="A-to-UC1-1" style="stroke:#181818;stroke-width:1.0;"/><polygon fill="#181818" points="325.142,57.4036,315.4438,55.6877,320.289,58.6072,317.3696,63.4525,325.142,57.4036" style="stroke:#181818;stroke-width:1.0;"/><text fill="#000000" font-family="sans-serif" font-size="13" lengthAdjust="spacing" textLength="130" x="136" y="64.5669">Importaci&#243;n externa</text></g><!--SRC=[LSan2W8n40NGFgSOjb_4ra88AuYDbNk0CVdgG99P9hFWlJo25nFjx1wyWfkJAvdS7qvP3Cb5M-3aQZHSfEAuicNXDX1tYc7jIDn1mq4JccCoSDPVpjCsH1h7_LUqexFMgs4J5vGYMV_kL1SrvoJlLoCy7TRu0m00]--></g></svg>