<?xml version="1.0" encoding="us-ascii" standalone="no"?><svg xmlns="http://www.w3.org/2000/svg" xmlns:xlink="http://www.w3.org/1999/xlink" contentStyleType="text/css" height="222px" preserveAspectRatio="none" style="width:344px;height:222px;background:#FFFFFF;" version="1.1" viewBox="0 0 344 222" width="344px" zoomAndPan="magnify"><defs/><g><text fill="#000000" font-family="sans-serif" font-size="14" font-weight="bold" lengthAdjust="spacing" textLength="316" x="10" y="22.6738">Preparaci&#243;n de Clases por Parte del Docente</text><!--class Docente--><g id="elem_Docente"><rect codeLine="3" fill="#F1F1F1" height="48" id="Docente" rx="2.5" ry="2.5" style="stroke:#181818;stroke-width:0.5;" width="85" x="99.5" y="43.6406"/><ellipse cx="114.5" cy="59.6406" fill="#ADD1B2" rx="11" ry="11" style="stroke:#181818;stroke-width:1.0;"/><path d="M113.3594,60.4375 L113.3594,62.9375 L117.6875,62.9375 L117.6875,62.0156 Q117.6875,61.4063 117.9219,61.1406 Q118.1719,60.875 118.5469,60.875 Q118.9219,60.875 119.1563,61.1406 Q119.3906,61.4063 119.3906,62.0156 L119.3906,64.6406 L111.3906,64.6406 Q110.7656,64.6406 110.5,64.4063 Q110.25,64.1719 110.25,63.7813 Q110.25,63.4063 110.5156,63.1719 Q110.7813,62.9375 111.3906,62.9375 L111.6563,62.9375 L111.6563,56.2813 L111.3906,56.2813 Q110.7656,56.2813 110.5,56.0469 Q110.25,55.8125 110.25,55.4219 Q110.25,55.0469 110.5,54.8125 Q110.7656,54.5781 111.3906,54.5781 L119.0156,54.5781 L119.0156,57.1719 Q119.0156,57.7813 118.7813,58.0469 Q118.5625,58.2969 118.1719,58.2969 Q117.7969,58.2969 117.5625,58.0469 Q117.3281,57.7813 117.3281,57.1719 L117.3281,56.2813 L113.3594,56.2813 L113.3594,58.7344 L114.8438,58.7344 Q114.8438,58.0781 114.9688,57.8906 Q115.2344,57.4844 115.7031,57.4844 Q116.0781,57.4844 116.3125,57.75 Q116.5469,58 116.5469,58.6094 L116.5469,60.5781 Q116.5469,61.125 116.4219,61.3125 Q116.1563,61.7031 115.7031,61.7031 Q115.2344,61.7031 114.9688,61.2969 Q114.8438,61.1094 114.8438,60.4375 L113.3594,60.4375 Z " fill="#000000"/><text fill="#000000" font-family="sans-serif" font-size="14" lengthAdjust="spacing" textLength="53" x="128.5" y="64.4941">Docente</text><line style="stroke:#181818;stroke-width:0.5;" x1="100.5" x2="183.5" y1="75.6406" y2="75.6406"/><line style="stroke:#181818;stroke-width:0.5;" x1="100.5" x2="183.5" y1="83.6406" y2="83.6406"/></g><!--class Asignatura--><g id="elem_Asignatura"><rect codeLine="4" fill="#F1F1F1" height="48" id="Asignatura" rx="2.5" ry="2.5" style="stroke:#181818;stroke-width:0.5;" width="100" x="92" y="167.6406"/><ellipse cx="107" cy="183.6406" fill="#ADD1B2" rx="11" ry="11" style="stroke:#181818;stroke-width:1.0;"/><path d="M105.8594,184.4375 L105.8594,186.9375 L110.1875,186.9375 L110.1875,186.0156 Q110.1875,185.4063 110.4219,185.1406 Q110.6719,184.875 111.0469,184.875 Q111.4219,184.875 111.6563,185.1406 Q111.8906,185.4063 111.8906,186.0156 L111.8906,188.6406 L103.8906,188.6406 Q103.2656,188.6406 103,188.4063 Q102.75,188.1719 102.75,187.7813 Q102.75,187.4063 103.0156,187.1719 Q103.2813,186.9375 103.8906,186.9375 L104.1563,186.9375 L104.1563,180.2813 L103.8906,180.2813 Q103.2656,180.2813 103,180.0469 Q102.75,179.8125 102.75,179.4219 Q102.75,179.0469 103,178.8125 Q103.2656,178.5781 103.8906,178.5781 L111.5156,178.5781 L111.5156,181.1719 Q111.5156,181.7813 111.2813,182.0469 Q111.0625,182.2969 110.6719,182.2969 Q110.2969,182.2969 110.0625,182.0469 Q109.8281,181.7813 109.8281,181.1719 L109.8281,180.2813 L105.8594,180.2813 L105.8594,182.7344 L107.3438,182.7344 Q107.3438,182.0781 107.4688,181.8906 Q107.7344,181.4844 108.2031,181.4844 Q108.5781,181.4844 108.8125,181.75 Q109.0469,182 109.0469,182.6094 L109.0469,184.5781 Q109.0469,185.125 108.9219,185.3125 Q108.6563,185.7031 108.2031,185.7031 Q107.7344,185.7031 107.4688,185.2969 Q107.3438,185.1094 107.3438,184.4375 L105.8594,184.4375 Z " fill="#000000"/><text fill="#000000" font-family="sans-serif" font-size="14" lengthAdjust="spacing" textLength="68" x="121" y="188.4941">Asignatura</text><line style="stroke:#181818;stroke-width:0.5;" x1="93" x2="191" y1="199.6406" y2="199.6406"/><line style="stroke:#181818;stroke-width:0.5;" x1="93" x2="191" y1="207.6406" y2="207.6406"/></g><!--link Docente to Asignatura--><g id="link_Docente_Asignatura"><path codeLine="6" d="M142,91.8706 C142,113.5806 142,127.8106 142,149.4906 " fill="none" id="Docente-to-Asignatura" style="stroke:#181818;stroke-width:1.0;"/><polygon fill="none" points="142,167.4906,148,149.4906,136,149.4906,142,167.4906" style="stroke:#181818;stroke-width:1.0;"/><text fill="#000000" font-family="sans-serif" font-size="13" lengthAdjust="spacing" textLength="114" x="143" y="134.4092">revisarAsignaturas()</text></g><!--SRC=[JOcn2O10303xJ95I2nUm44G7S8MWGGBFAqaK1BTo11VpYqTj3kxEnGFZeBoIqYZt5N5Yx08P6wwBua3gd5h0VXavEWCaYX-lPsrDvaY-AG7aXLLrDhzHe_8kHlebAqg01m00]--></g></svg>