<?xml version="1.0" encoding="us-ascii" standalone="no"?><svg xmlns="http://www.w3.org/2000/svg" xmlns:xlink="http://www.w3.org/1999/xlink" contentStyleType="text/css" height="247px" preserveAspectRatio="none" style="width:232px;height:247px;background:#FFFFFF;" version="1.1" viewBox="0 0 232 247" width="232px" zoomAndPan="magnify"><defs/><g><text fill="#000000" font-family="sans-serif" font-size="14" font-weight="bold" lengthAdjust="spacing" textLength="203" x="10" y="22.6738">Verificaci&#243;n de Asignaciones</text><!--entity GestorAsignaciones--><g id="elem_GestorAsignaciones"><ellipse cx="74" cy="50.6406" fill="#F1F1F1" rx="8" ry="8" style="stroke:#181818;stroke-width:0.5;"/><path d="M74,58.6406 L74,85.6406 M61,66.6406 L87,66.6406 M74,85.6406 L61,100.6406 M74,85.6406 L87,100.6406 " fill="none" style="stroke:#181818;stroke-width:0.5;"/><text fill="#000000" font-family="sans-serif" font-size="14" lengthAdjust="spacing" textLength="127" x="10.5" y="114.8145">GestorAsignaciones</text></g><!--entity Asignatura--><g id="elem_Asignatura"><ellipse cx="74" cy="210.1406" fill="#F1F1F1" rx="12" ry="12" style="stroke:#181818;stroke-width:0.5;"/><line style="stroke:#181818;stroke-width:0.5;" x1="62" x2="86" y1="224.1406" y2="224.1406"/><text fill="#000000" font-family="sans-serif" font-size="14" lengthAdjust="spacing" textLength="68" x="40" y="238.8145">Asignatura</text></g><!--entity Docente--><g id="elem_Docente"><ellipse cx="199" cy="72.1406" fill="#F1F1F1" rx="12" ry="12" style="stroke:#181818;stroke-width:0.5;"/><line style="stroke:#181818;stroke-width:0.5;" x1="187" x2="211" y1="86.1406" y2="86.1406"/><text fill="#000000" font-family="sans-serif" font-size="14" lengthAdjust="spacing" textLength="53" x="172.5" y="100.8145">Docente</text></g><!--link GestorAsignaciones to Asignatura--><g id="link_GestorAsignaciones_Asignatura"><path d="M74,118.3006 C74,142.5306 74,155.3706 74,176.1106 " fill="none" id="GestorAsignaciones-to-Asignatura" style="stroke:#181818;stroke-width:1.0;"/><polygon fill="none" points="74,194.1106,80,176.1106,68,176.1106,74,194.1106" style="stroke:#181818;stroke-width:1.0;"/><text fill="#000000" font-family="sans-serif" font-size="13" lengthAdjust="spacing" textLength="129" x="75" y="160.9092">verificarAsignaciones()</text></g><!--SRC=[AyaioKbL24ijoapBJ4vCpZoyEKyX9LN1iJWpFG_8pSzBBURYIamkoIzIS4yj1b8eCgbv9PabbL3L9QL5YJ0Hb_na82kLYmjJauAkReqTaXOhXJAexIZAD3Iv0000]--></g></svg>