<?xml version="1.0" encoding="us-ascii" standalone="no"?><svg xmlns="http://www.w3.org/2000/svg" xmlns:xlink="http://www.w3.org/1999/xlink" contentStyleType="text/css" height="209px" preserveAspectRatio="none" style="width:483px;height:209px;background:#FFFFFF;" version="1.1" viewBox="0 0 483 209" width="483px" zoomAndPan="magnify"><defs/><g><!--entity A--><g id="elem_A"><ellipse cx="221.5" cy="14" fill="#F1F1F1" rx="8" ry="8" style="stroke:#181818;stroke-width:0.5;"/><path d="M221.5,22 L221.5,49 M208.5,30 L234.5,30 M221.5,49 L208.5,64 M221.5,49 L234.5,64 " fill="none" style="stroke:#181818;stroke-width:0.5;"/><text fill="#000000" font-family="sans-serif" font-size="14" lengthAdjust="spacing" textLength="127" x="158" y="78.4951">Verificar Docente</text></g><g id="elem_UC1"><ellipse cx="105.5203" cy="180.8041" fill="#F1F1F1" rx="99.5203" ry="22.3041" style="stroke:#181818;stroke-width:0.5;"/><text fill="#000000" font-family="sans-serif" font-size="14" lengthAdjust="spacing" textLength="163" x="24.0203" y="183.6507">Asignacion de docente</text></g><g id="elem_UC2"><ellipse cx="337.2599" cy="180.852" fill="#F1F1F1" rx="97.2599" ry="21.852" style="stroke:#181818;stroke-width:0.5;"/><text fill="#000000" font-family="sans-serif" font-size="14" lengthAdjust="spacing" textLength="158" x="258.2599" y="183.6987">Verificacion completa</text></g><!--link A to UC1--><g id="link_A_UC1"><path d="M178.949,81.583 C169.158,90.933 159.103,101.241 150.5,111.5 C138.157,126.2191 129.4209,139.328 120.9869,153.2863 " fill="none" id="A-to-UC1" style="stroke:#181818;stroke-width:1.0;"/><polygon fill="#181818" points="117.884,158.4217,125.962,152.7873,120.4698,154.1422,119.1148,148.6501,117.884,158.4217" style="stroke:#181818;stroke-width:1.0;"/><text fill="#000000" font-family="sans-serif" font-size="13" lengthAdjust="spacing" textLength="142" x="151.5" y="124.5669">Estan todos ocupados</text></g><!--link A to UC2--><g id="link_A_UC2"><path d="M269.515,81.837 C279.715,90.942 289.968,101.08 298.5,111.5 C310.465,126.1111 318.1957,139.5004 325.2397,153.694 " fill="none" id="A-to-UC2" style="stroke:#181818;stroke-width:1.0;"/><polygon fill="#181818" points="327.907,159.0685,327.4891,149.2285,325.6843,154.5897,320.3231,152.7849,327.907,159.0685" style="stroke:#181818;stroke-width:1.0;"/><text fill="#000000" font-family="sans-serif" font-size="13" lengthAdjust="spacing" textLength="165" x="310.5" y="124.5669">Hay Docentes disponibles</text></g><!--SRC=[JSwn3i8m30JGFLznwjw1ZWn84I3n0x0Rno1B9OxYTEZVKn05jXlUdOwuMKLtaQetPQeu64jkqe4SCOJ9XSa5NNIzPsArZ2H8V-gyt_pOElI6R8yoIgCF6qA8wFlTgu4jZjueeraoX_5KQ0bVC2pWHFDwnv7KYsMzZk9F]--></g></svg>