<?xml version="1.0" encoding="us-ascii" standalone="no"?><svg xmlns="http://www.w3.org/2000/svg" xmlns:xlink="http://www.w3.org/1999/xlink" contentStyleType="text/css" height="270px" preserveAspectRatio="none" style="width:189px;height:270px;background:#FFFFFF;" version="1.1" viewBox="0 0 189 270" width="189px" zoomAndPan="magnify"><defs/><g><g id="Trabajando"><rect fill="#F1F1F1" height="50" rx="12.5" ry="12.5" style="stroke:#181818;stroke-width:0.5;" width="100" x="16.5" y="214"/><line style="stroke:#181818;stroke-width:0.5;" x1="16.5" x2="116.5" y1="240.2969" y2="240.2969"/><text fill="#000000" font-family="sans-serif" font-size="14" lengthAdjust="spacing" textLength="80" x="26.5" y="231.9951">Trabajando</text></g><g id="NoTrabajando"><rect fill="#F1F1F1" height="50" rx="12.5" ry="12.5" style="stroke:#181818;stroke-width:0.5;" width="119" x="7" y="87"/><line style="stroke:#181818;stroke-width:0.5;" x1="7" x2="126" y1="113.2969" y2="113.2969"/><text fill="#000000" font-family="sans-serif" font-size="14" lengthAdjust="spacing" textLength="99" x="17" y="104.9951">NoTrabajando</text></g><ellipse cx="66.5" cy="16" fill="#222222" rx="10" ry="10" style="stroke:#222222;stroke-width:1.0;"/><ellipse cx="172.5" cy="112" fill="none" rx="11" ry="11" style="stroke:#222222;stroke-width:1.0;"/><ellipse cx="172.5" cy="112" fill="#222222" rx="6" ry="6" style="stroke:#222222;stroke-width:1.0;"/><!--link *start* to NoTrabajando--><g id="link_*start*_NoTrabajando"><path d="M66.5,26.013 C66.5,39.891 66.5,60.965 66.5,80.84 " fill="none" id="*start*-to-NoTrabajando" style="stroke:#181818;stroke-width:1.0;"/><polygon fill="#181818" points="66.5,86.84,70.5,77.84,66.5,81.84,62.5,77.84,66.5,86.84" style="stroke:#181818;stroke-width:1.0;"/></g><!--link NoTrabajando to Trabajando--><g id="link_NoTrabajando_Trabajando"><path d="M41.5538,137.187 C34.2917,145.831 27.2959,156.139 23.5,167 C17.6517,183.7327 23.3775,196.2801 35.0329,209.4735 " fill="none" id="NoTrabajando-to-Trabajando" style="stroke:#181818;stroke-width:1.0;"/><polygon fill="#181818" points="39.0053,213.9701,36.0444,204.5769,35.6949,210.2229,30.0489,209.8734,39.0053,213.9701" style="stroke:#181818;stroke-width:1.0;"/><text fill="#000000" font-family="sans-serif" font-size="13" lengthAdjust="spacing" textLength="38" x="24.5" y="180.0669">Fichar</text></g><!--link Trabajando to NoTrabajando--><g id="link_Trabajando_NoTrabajando"><path d="M67.0435,213.8083 C67.2278,204.4917 67.4097,193.7513 67.5,184 C67.6438,168.4679 67.5267,157.0247 67.2459,143.3147 " fill="none" id="Trabajando-to-NoTrabajando" style="stroke:#181818;stroke-width:1.0;"/><polygon fill="#181818" points="67.123,137.316,63.3081,146.396,67.2254,142.315,71.3065,146.2322,67.123,137.316" style="stroke:#181818;stroke-width:1.0;"/><text fill="#000000" font-family="sans-serif" font-size="13" lengthAdjust="spacing" textLength="38" x="68.5" y="180.0669">Fichar</text></g><!--link NoTrabajando to *end*--><g id="link_NoTrabajando_*end*"><path d="M126.125,112 C137.84,112 143.554,112 155.269,112 " fill="none" id="NoTrabajando-to-*end*" style="stroke:#181818;stroke-width:1.0;"/><polygon fill="#181818" points="161.269,112,152.269,108,156.269,112,152.269,116,161.269,112" style="stroke:#181818;stroke-width:1.0;"/></g><!--SRC=[Aov9B4bL22bAJ4hCIinBoUSg1WluvIC9SKLhnIhewjefe0bp8NCLT8k0Af3uLWfkcSaPYKLSNCYAKe2AKBGXb66Q1hGN0000]--></g></svg>