<?xml version="1.0" encoding="UTF-8" standalone="no"?><svg xmlns="http://www.w3.org/2000/svg" xmlns:xlink="http://www.w3.org/1999/xlink" contentStyleType="text/css" height="618px" preserveAspectRatio="none" style="width:473px;height:618px;background:#FFFFFF;" version="1.1" viewBox="0 0 473 618" width="473px" zoomAndPan="magnify"><defs/><g><rect fill="none" height="29.0679" id="_title" style="stroke:none;stroke-width:1.0;" width="124" x="164.5" y="5"/><text fill="#000000" font-family="sans-serif" font-size="14" font-weight="bold" lengthAdjust="spacing" textLength="114" x="169.5" y="24.9659">Listar Egresados</text><rect fill="#F1F1F1" height="40" rx="12.5" ry="12.5" style="stroke:#181818;stroke-width:0.5;" width="158" x="154.5" y="47.0679"/><text fill="#000000" font-family="sans-serif" font-size="14" lengthAdjust="spacing" textLength="148" x="159.5" y="72.4999">GESTIÓN_EGRESADOS</text><rect fill="#F1F1F1" height="40" rx="12.5" ry="12.5" style="stroke:#181818;stroke-width:0.5;" width="158" x="154.5" y="572.1379"/><text fill="#000000" font-family="sans-serif" font-size="14" lengthAdjust="spacing" textLength="148" x="159.5" y="597.5699">GESTIÓN_EGRESADOS</text><path d="M19.5,202.0679 L447.5,202.0679 A12.5,12.5 0 0 1 460,214.5679 L460,231.1358 L7,231.1358 L7,214.5679 A12.5,12.5 0 0 1 19.5,202.0679 " fill="#F1F1F1" style="stroke:#F1F1F1;stroke-width:1.0;"/><rect fill="none" height="309.0679" rx="12.5" ry="12.5" style="stroke:#181818;stroke-width:0.5;" width="453" x="7" y="202.0679"/><line style="stroke:#181818;stroke-width:0.5;" x1="7" x2="460" y1="231.1358" y2="231.1358"/><text fill="#000000" font-family="sans-serif" font-size="14" lengthAdjust="spacing" textLength="107" x="180" y="222.0339">ListarEgresados</text><rect fill="#F1F1F1" height="40" rx="12.5" ry="12.5" style="stroke:#181818;stroke-width:0.5;" width="50" x="19" y="342.6358"/><text fill="#000000" font-family="sans-serif" font-size="14" lengthAdjust="spacing" textLength="4" x="42" y="368.0678"> </text><ellipse cx="171" cy="252.1358" fill="#222222" rx="10" ry="10" style="stroke:none;stroke-width:1.0;"/><ellipse cx="171" cy="491.1358" fill="none" rx="10" ry="10" style="stroke:#222222;stroke-width:1.0;"/><ellipse cx="171.5" cy="491.6358" fill="#222222" rx="6" ry="6" style="stroke:none;stroke-width:1.0;"/><!--MD5=[72234770a483799a4b1225a56b22039d]
link *start*ListarEgresados to *end*ListarEgresados--><g id="link_*start*ListarEgresados_*end*ListarEgresados"><path d="M180.57,255.3458 C208.52,261.7958 288,280.1358 288,280.1358 C288,280.1358 288,463.1358 288,463.1358 C288,463.1358 218.72,479.1258 186.78,486.4958 " fill="none" id="*start*ListarEgresados-to-*end*ListarEgresados" style="stroke:#008000;stroke-width:1.0;"/><polygon fill="#008000" points="182.05,487.5858,191.7153,489.4783,186.9241,486.4709,189.9315,481.6797,182.05,487.5858" style="stroke:#008000;stroke-width:1.0;"/><path d="M293,340.1358 L293,385.1358 L451,385.1358 L451,350.1358 L441,340.1358 L293,340.1358 " fill="#F5F5F5" style="stroke:#181818;stroke-width:0.5;"/><path d="M441,340.1358 L441,350.1358 L451,350.1358 L441,340.1358 " fill="#F5F5F5" style="stroke:#181818;stroke-width:0.5;"/><text fill="#000000" font-family="sans-serif" font-size="13" font-weight="bold" lengthAdjust="spacing" textLength="110" x="299" y="359.0328">Sistema Muestra</text><ellipse cx="304.5" cy="373.0479" fill="#000000" rx="2.5" ry="2.5" style="stroke:#000000;stroke-width:0.0;"/><text fill="#000000" font-family="sans-serif" font-size="13" lengthAdjust="spacing" textLength="125" x="311" y="376.7389">Egresados en Alumni</text></g><!--MD5=[39ba1664b5852e4305aa27931ca238fd]
link *start*ListarEgresados to 2--><g id="link_*start*ListarEgresados_2"><path d="M161.43,255.3458 C133.48,261.7958 54,280.1358 54,280.1358 C54,280.1358 50.06,312.2258 47.13,336.1358 " fill="none" id="*start*ListarEgresados-to-2" style="stroke:#FF0000;stroke-width:1.0;"/><polygon fill="#FF0000" points="46.55,340.8158,51.6025,332.3617,47.1508,335.8521,43.6604,331.4004,46.55,340.8158" style="stroke:#FF0000;stroke-width:1.0;"/><path d="M59,285.1358 L59,312.1358 L283,312.1358 L283,295.1358 L273,285.1358 L59,285.1358 " fill="#F5F5F5" style="stroke:#181818;stroke-width:0.5;"/><path d="M273,285.1358 L273,295.1358 L283,295.1358 L273,285.1358 " fill="#F5F5F5" style="stroke:#181818;stroke-width:0.5;"/><text fill="#000000" font-family="sans-serif" font-size="13" lengthAdjust="spacing" textLength="203" x="65" y="304.0328">Error al listar Egresados en Alumni</text></g><!--MD5=[39f08986d8cc03ff41f37d0af69248bf]
link 2 to *end*ListarEgresados--><g id="link_2_*end*ListarEgresados"><path d="M43.13,383.0258 C42.59,395.0158 42,408.1358 42,408.1358 C42,408.1358 42,463.1358 42,463.1358 C42,463.1358 120.49,479.5658 155.02,486.7958 " fill="none" id="2-to-*end*ListarEgresados" style="stroke:#FF0000;stroke-width:1.0;"/><polygon fill="#FF0000" points="159.82,487.7958,151.8337,482.0322,154.9266,486.7687,150.1902,489.8616,159.82,487.7958" style="stroke:#FF0000;stroke-width:1.0;"/><path d="M47,413.1358 L47,458.1358 L283,458.1358 L283,423.1358 L273,413.1358 L47,413.1358 " fill="#F5F5F5" style="stroke:#181818;stroke-width:0.5;"/><path d="M273,413.1358 L273,423.1358 L283,423.1358 L273,413.1358 " fill="#F5F5F5" style="stroke:#181818;stroke-width:0.5;"/><text fill="#000000" font-family="sans-serif" font-size="13" font-weight="bold" lengthAdjust="spacing" textLength="110" x="53" y="432.0328">Sistema Muestra</text><ellipse cx="58.5" cy="446.0479" fill="#000000" rx="2.5" ry="2.5" style="stroke:#000000;stroke-width:0.0;"/><text fill="#000000" font-family="sans-serif" font-size="13" lengthAdjust="spacing" textLength="203" x="65" y="449.7389">Error al listar Egresados en Alumni</text></g><!--MD5=[41bdef23e6d285ba0ec3546c9dce1fcb]
link startState to ListarEgresados--><g id="link_startState_ListarEgresados"><path d="M233.5,87.3779 C233.5,110.6079 233.5,151.8979 233.5,195.2379 " fill="none" id="startState-to-ListarEgresados" style="stroke:#008000;stroke-width:1.0;"/><polygon fill="#008000" points="233.5,200.1279,237.5,191.1279,233.5,195.1279,229.5,191.1279,233.5,200.1279" style="stroke:#008000;stroke-width:1.0;"/><path d="M238.5,122.0679 L238.5,167.0679 L432.5,167.0679 L432.5,132.0679 L422.5,122.0679 L238.5,122.0679 " fill="#F5F5F5" style="stroke:#181818;stroke-width:0.5;"/><path d="M422.5,122.0679 L422.5,132.0679 L432.5,132.0679 L422.5,122.0679 " fill="#F5F5F5" style="stroke:#181818;stroke-width:0.5;"/><text fill="#000000" font-family="sans-serif" font-size="13" font-weight="bold" lengthAdjust="spacing" textLength="146" x="244.5" y="140.9649">Administrador Solicita</text><ellipse cx="250" cy="154.9799" fill="#000000" rx="2.5" ry="2.5" style="stroke:#000000;stroke-width:0.0;"/><text fill="#000000" font-family="sans-serif" font-size="13" lengthAdjust="spacing" textLength="161" x="256.5" y="158.6709">Listar Egresados en Alumni</text></g><!--MD5=[d0b11046b1384476eff984574204b258]
link ListarEgresados to endState--><g id="link_ListarEgresados_endState"><path d="M233.5,511.4179 C233.5,532.3079 233.5,551.4279 233.5,565.6979 " fill="none" id="ListarEgresados-to-endState" style="stroke:#008000;stroke-width:1.0;"/><polygon fill="#008000" points="233.5,570.3979,237.5,561.3979,233.5,565.3979,229.5,561.3979,233.5,570.3979" style="stroke:#008000;stroke-width:1.0;"/></g><!--MD5=[11fdbb264aa63573d856f259001e8c62]
@startuml

title Listar Egresados

skinparam {
    NoteBackgroundColor #whiteSmoke
    ArrowColor #green
    NoteBorderColor #green
    linetype polyline
}

hide empty description

state startState as "GESTIÓN_EGRESADOS"
state endState as "GESTIÓN_EGRESADOS"

startState - -> ListarEgresados
note on link
    <b>Administrador Solicita</b>
    * Listar Egresados en Alumni
end note

ListarEgresados - -> endState

state ListarEgresados {
    state 2 as " "
    [*] - -> [*] 
    note on link
        <b>Sistema Muestra</b>
        * Egresados en Alumni
    end note

    [*] -[#red]-> 2
    note on link
        Error al listar Egresados en Alumni
    end note

    2 -[#red]-> [*]
    note on link
        <b>Sistema Muestra</b>
        * Error al listar Egresados en Alumni
    end note


}

@enduml

PlantUML version 1.2022.7(Mon Aug 22 19:01:30 CEST 2022)
(GPL source distribution)
Java Runtime: OpenJDK Runtime Environment
JVM: OpenJDK 64-Bit Server VM
Default Encoding: UTF-8
Language: es
Country: ES
--></g></svg>