<?xml version="1.0" encoding="us-ascii" standalone="no"?><svg xmlns="http://www.w3.org/2000/svg" xmlns:xlink="http://www.w3.org/1999/xlink" contentStyleType="text/css" height="512px" preserveAspectRatio="none" style="width:433px;height:512px;background:#FFFFFF;" version="1.1" viewBox="0 0 433 512" width="433px" zoomAndPan="magnify"><defs/><g><ellipse cx="253" cy="16" fill="#222222" rx="10" ry="10" style="stroke:#222222;stroke-width:1.0;"/><g id="DocentesNoRecibidos"><rect fill="#F1F1F1" height="50" rx="12.5" ry="12.5" style="stroke:#181818;stroke-width:0.5;" width="178" x="164" y="103"/><line style="stroke:#181818;stroke-width:0.5;" x1="164" x2="342" y1="129.2969" y2="129.2969"/><text fill="#000000" font-family="sans-serif" font-size="14" lengthAdjust="spacing" textLength="158" x="174" y="120.9951">DocentesNoRecibidos</text></g><g id="AsignandoDocentesAsignatura"><rect fill="#F1F1F1" height="50" rx="12.5" ry="12.5" style="stroke:#181818;stroke-width:0.5;" width="239" x="133.5" y="230"/><line style="stroke:#181818;stroke-width:0.5;" x1="133.5" x2="372.5" y1="256.2969" y2="256.2969"/><text fill="#000000" font-family="sans-serif" font-size="14" lengthAdjust="spacing" textLength="219" x="143.5" y="247.9951">AsignandoDocentesAsignatura</text></g><g id="TodosDocentesAsignados"><rect fill="#F1F1F1" height="50" rx="12.5" ry="12.5" style="stroke:#181818;stroke-width:0.5;" width="204" x="7" y="357"/><line style="stroke:#181818;stroke-width:0.5;" x1="7" x2="211" y1="383.2969" y2="383.2969"/><text fill="#000000" font-family="sans-serif" font-size="14" lengthAdjust="spacing" textLength="184" x="17" y="374.9951">TodosDocentesAsignados</text></g><g id="DocentesNoAsignados"><rect fill="#F1F1F1" height="50" rx="12.5" ry="12.5" style="stroke:#181818;stroke-width:0.5;" width="180" x="246" y="357"/><line style="stroke:#181818;stroke-width:0.5;" x1="246" x2="426" y1="383.2969" y2="383.2969"/><text fill="#000000" font-family="sans-serif" font-size="14" lengthAdjust="spacing" textLength="160" x="256" y="374.9951">DocentesNoAsignados</text></g><ellipse cx="109" cy="495" fill="none" rx="11" ry="11" style="stroke:#222222;stroke-width:1.0;"/><ellipse cx="109" cy="495" fill="#222222" rx="6" ry="6" style="stroke:#222222;stroke-width:1.0;"/><!--link *start* to DocentesNoRecibidos--><g id="link_*start*_DocentesNoRecibidos"><path d="M253,26.002 C253,42.627 253,72.655 253,96.873 " fill="none" id="*start*-to-DocentesNoRecibidos" style="stroke:#181818;stroke-width:1.0;"/><polygon fill="#181818" points="253,102.873,257,93.873,253,97.873,249,93.873,253,102.873" style="stroke:#181818;stroke-width:1.0;"/><text fill="#000000" font-family="sans-serif" font-size="13" lengthAdjust="spacing" textLength="110" x="254" y="69.0669">Inicio del proceso</text></g><!--link DocentesNoRecibidos to AsignandoDocentesAsignatura--><g id="link_DocentesNoRecibidos_AsignandoDocentesAsignatura"><path d="M253,153.101 C253,175.236 253,201.861 253,223.973 " fill="none" id="DocentesNoRecibidos-to-AsignandoDocentesAsignatura" style="stroke:#181818;stroke-width:1.0;"/><polygon fill="#181818" points="253,229.973,257,220.973,253,224.973,249,220.973,253,229.973" style="stroke:#181818;stroke-width:1.0;"/><text fill="#000000" font-family="sans-serif" font-size="13" lengthAdjust="spacing" textLength="138" x="254" y="196.0669">Comenzar asignaci&#243;n</text></g><!--link AsignandoDocentesAsignatura to AsignandoDocentesAsignatura--><g id="link_AsignandoDocentesAsignatura_AsignandoDocentesAsignatura"><path d="M372.519,244.124 C393.166,245.593 407.5,249.218 407.5,255 C407.5,260.782 399.1509,263.9812 378.5039,265.4502 " fill="none" id="AsignandoDocentesAsignatura-to-AsignandoDocentesAsignatura" style="stroke:#181818;stroke-width:1.0;"/><polygon fill="#181818" points="372.519,265.876,381.7802,269.2272,377.5064,265.5212,381.2124,261.2474,372.519,265.876" style="stroke:#181818;stroke-width:1.0;"/></g><!--link AsignandoDocentesAsignatura to TodosDocentesAsignados--><g id="link_AsignandoDocentesAsignatura_TodosDocentesAsignados"><path d="M182.761,280.033 C167.268,287.778 151.937,297.649 140,310 C127.475,322.96 121.3582,336.078 116.6662,351.097 " fill="none" id="AsignandoDocentesAsignatura-to-TodosDocentesAsignados" style="stroke:#181818;stroke-width:1.0;"/><polygon fill="#181818" points="114.877,356.824,121.3787,349.4262,116.368,352.0515,113.7427,347.0407,114.877,356.824" style="stroke:#181818;stroke-width:1.0;"/><text fill="#000000" font-family="sans-serif" font-size="13" lengthAdjust="spacing" textLength="139" x="141" y="323.0669">Completar asignaci&#243;n</text></g><!--link AsignandoDocentesAsignatura to DocentesNoAsignados--><g id="link_AsignandoDocentesAsignatura_DocentesNoAsignados"><path d="M269.145,280.182 C275.359,289.497 282.516,300.239 289,310 C299.388,325.638 307.7274,338.2294 316.8284,351.9914 " fill="none" id="AsignandoDocentesAsignatura-to-DocentesNoAsignados" style="stroke:#181818;stroke-width:1.0;"/><polygon fill="#181818" points="320.138,356.996,318.51,347.2826,317.38,352.8255,311.8371,351.6955,320.138,356.996" style="stroke:#181818;stroke-width:1.0;"/></g><!--link TodosDocentesAsignados to *end*--><g id="link_TodosDocentesAsignados_*end*"><path d="M109,407.0853 C109,431.0597 109,460.6954 109,477.9353 " fill="none" id="TodosDocentesAsignados-to-*end*" style="stroke:#181818;stroke-width:1.0;"/><polygon fill="#181818" points="109,483.9353,113,474.9353,109,478.9353,105,474.9353,109,483.9353" style="stroke:#181818;stroke-width:1.0;"/><text fill="#000000" font-family="sans-serif" font-size="13" lengthAdjust="spacing" textLength="116" x="110" y="450.0669">Proceso finalizado</text></g><!--SRC=[YzQALT3LjLDmoKzEpIj9BVRB3qfDpapAJCaljbBmpCjCpinNI4dDKIWe0YeepkV2eWwatR4uCpqlCIyb7oOF4IWfBKgqKd3EpqtDgqeiKaW42oPd7jwSnuL71yX1UAJnQGMv9IGVw2XKAR1lWCueo4aj8SqTI043DueBkmqWrT5QiLOA0P2mKaZBp4lCoQm2oW40]--></g></svg>