<?xml version="1.0" encoding="us-ascii" standalone="no"?><svg xmlns="http://www.w3.org/2000/svg" xmlns:xlink="http://www.w3.org/1999/xlink" contentStyleType="text/css" height="426px" preserveAspectRatio="none" style="width:280px;height:426px;background:#FFFFFF;" version="1.1" viewBox="0 0 280 426" width="280px" zoomAndPan="magnify"><defs/><g><!--class Docente--><g id="elem_Docente"><rect codeLine="1" fill="#F1F1F1" height="80.5938" id="Docente" rx="2.5" ry="2.5" style="stroke:#181818;stroke-width:0.5;" width="94" x="67.5" y="339"/><ellipse cx="82.5" cy="355" fill="#ADD1B2" rx="11" ry="11" style="stroke:#181818;stroke-width:1.0;"/><path d="M84.8438,350.6719 C83.9063,350.2344 83.3125,350.0938 82.4375,350.0938 C79.8125,350.0938 77.8125,352.1719 77.8125,354.8906 L77.8125,356.0156 C77.8125,358.5938 79.9219,360.4844 82.8125,360.4844 C84.0313,360.4844 85.1875,360.1875 85.9375,359.6406 C86.5156,359.2344 86.8438,358.7813 86.8438,358.3906 C86.8438,357.9375 86.4531,357.5469 85.9844,357.5469 C85.7656,357.5469 85.5625,357.625 85.375,357.8125 C84.9219,358.2969 84.9219,358.2969 84.7344,358.3906 C84.3125,358.6563 83.625,358.7813 82.8594,358.7813 C80.8125,358.7813 79.5156,357.6875 79.5156,355.9844 L79.5156,354.8906 C79.5156,353.1094 80.7656,351.7969 82.5,351.7969 C83.0781,351.7969 83.6875,351.9531 84.1563,352.2031 C84.6406,352.4844 84.8125,352.7031 84.9063,353.1094 C84.9688,353.5156 85,353.6406 85.1406,353.7656 C85.2813,353.9063 85.5156,354.0156 85.7344,354.0156 C86,354.0156 86.2656,353.875 86.4375,353.6563 C86.5469,353.5 86.5781,353.3125 86.5781,352.8906 L86.5781,351.4688 C86.5781,351.0313 86.5625,350.9063 86.4688,350.75 C86.3125,350.4844 86.0313,350.3438 85.7344,350.3438 C85.4375,350.3438 85.2344,350.4375 85.0156,350.75 L84.8438,350.6719 Z " fill="#000000"/><text fill="#000000" font-family="sans-serif" font-size="14" lengthAdjust="spacing" textLength="62" x="96.5" y="359.8467">Docente</text><line style="stroke:#181818;stroke-width:0.5;" x1="68.5" x2="160.5" y1="371" y2="371"/><ellipse cx="78.5" cy="384.6484" fill="none" rx="3" ry="3" style="stroke:#038048;stroke-width:1.0;"/><text fill="#000000" font-family="sans-serif" font-size="14" lengthAdjust="spacing" textLength="57" x="87.5" y="387.9951">nombre</text><ellipse cx="78.5" cy="400.9453" fill="none" rx="3" ry="3" style="stroke:#038048;stroke-width:1.0;"/><text fill="#000000" font-family="sans-serif" font-size="14" lengthAdjust="spacing" textLength="57" x="87.5" y="404.292">apellido</text><line style="stroke:#181818;stroke-width:0.5;" x1="68.5" x2="160.5" y1="411.5938" y2="411.5938"/></g><!--class Asignatura--><g id="elem_Asignatura"><rect codeLine="8" fill="#F1F1F1" height="96.8906" id="Asignatura" rx="2.5" ry="2.5" style="stroke:#181818;stroke-width:0.5;" width="108" x="165.5" y="165"/><ellipse cx="180.5" cy="181" fill="#ADD1B2" rx="11" ry="11" style="stroke:#181818;stroke-width:1.0;"/><path d="M182.8438,176.6719 C181.9063,176.2344 181.3125,176.0938 180.4375,176.0938 C177.8125,176.0938 175.8125,178.1719 175.8125,180.8906 L175.8125,182.0156 C175.8125,184.5938 177.9219,186.4844 180.8125,186.4844 C182.0313,186.4844 183.1875,186.1875 183.9375,185.6406 C184.5156,185.2344 184.8438,184.7813 184.8438,184.3906 C184.8438,183.9375 184.4531,183.5469 183.9844,183.5469 C183.7656,183.5469 183.5625,183.625 183.375,183.8125 C182.9219,184.2969 182.9219,184.2969 182.7344,184.3906 C182.3125,184.6563 181.625,184.7813 180.8594,184.7813 C178.8125,184.7813 177.5156,183.6875 177.5156,181.9844 L177.5156,180.8906 C177.5156,179.1094 178.7656,177.7969 180.5,177.7969 C181.0781,177.7969 181.6875,177.9531 182.1563,178.2031 C182.6406,178.4844 182.8125,178.7031 182.9063,179.1094 C182.9688,179.5156 183,179.6406 183.1406,179.7656 C183.2813,179.9063 183.5156,180.0156 183.7344,180.0156 C184,180.0156 184.2656,179.875 184.4375,179.6563 C184.5469,179.5 184.5781,179.3125 184.5781,178.8906 L184.5781,177.4688 C184.5781,177.0313 184.5625,176.9063 184.4688,176.75 C184.3125,176.4844 184.0313,176.3438 183.7344,176.3438 C183.4375,176.3438 183.2344,176.4375 183.0156,176.75 L182.8438,176.6719 Z " fill="#000000"/><text fill="#000000" font-family="sans-serif" font-size="14" lengthAdjust="spacing" textLength="76" x="194.5" y="185.8467">Asignatura</text><line style="stroke:#181818;stroke-width:0.5;" x1="166.5" x2="272.5" y1="197" y2="197"/><ellipse cx="176.5" cy="210.6484" fill="none" rx="3" ry="3" style="stroke:#038048;stroke-width:1.0;"/><text fill="#000000" font-family="sans-serif" font-size="14" lengthAdjust="spacing" textLength="57" x="185.5" y="213.9951">nombre</text><ellipse cx="176.5" cy="226.9453" fill="none" rx="3" ry="3" style="stroke:#038048;stroke-width:1.0;"/><text fill="#000000" font-family="sans-serif" font-size="14" lengthAdjust="spacing" textLength="13" x="185.5" y="230.292">id</text><ellipse cx="176.5" cy="243.2422" fill="none" rx="3" ry="3" style="stroke:#038048;stroke-width:1.0;"/><text fill="#000000" font-family="sans-serif" font-size="14" lengthAdjust="spacing" textLength="41" x="185.5" y="246.5889">grado</text><line style="stroke:#181818;stroke-width:0.5;" x1="166.5" x2="272.5" y1="253.8906" y2="253.8906"/></g><!--class GestorAsignaciones--><g id="elem_GestorAsignaciones"><rect codeLine="15" fill="#F1F1F1" height="80.5938" id="GestorAsignaciones" rx="2.5" ry="2.5" style="stroke:#181818;stroke-width:0.5;" width="215" x="7" y="7"/><ellipse cx="40.45" cy="23" fill="#ADD1B2" rx="11" ry="11" style="stroke:#181818;stroke-width:1.0;"/><path d="M42.7938,18.6719 C41.8563,18.2344 41.2625,18.0938 40.3875,18.0938 C37.7625,18.0938 35.7625,20.1719 35.7625,22.8906 L35.7625,24.0156 C35.7625,26.5938 37.8719,28.4844 40.7625,28.4844 C41.9813,28.4844 43.1375,28.1875 43.8875,27.6406 C44.4656,27.2344 44.7938,26.7813 44.7938,26.3906 C44.7938,25.9375 44.4031,25.5469 43.9344,25.5469 C43.7156,25.5469 43.5125,25.625 43.325,25.8125 C42.8719,26.2969 42.8719,26.2969 42.6844,26.3906 C42.2625,26.6563 41.575,26.7813 40.8094,26.7813 C38.7625,26.7813 37.4656,25.6875 37.4656,23.9844 L37.4656,22.8906 C37.4656,21.1094 38.7156,19.7969 40.45,19.7969 C41.0281,19.7969 41.6375,19.9531 42.1063,20.2031 C42.5906,20.4844 42.7625,20.7031 42.8563,21.1094 C42.9188,21.5156 42.95,21.6406 43.0906,21.7656 C43.2313,21.9063 43.4656,22.0156 43.6844,22.0156 C43.95,22.0156 44.2156,21.875 44.3875,21.6563 C44.4969,21.5 44.5281,21.3125 44.5281,20.8906 L44.5281,19.4688 C44.5281,19.0313 44.5125,18.9063 44.4188,18.75 C44.2625,18.4844 43.9813,18.3438 43.6844,18.3438 C43.3875,18.3438 43.1844,18.4375 42.9656,18.75 L42.7938,18.6719 Z " fill="#000000"/><text fill="#000000" font-family="sans-serif" font-size="14" lengthAdjust="spacing" textLength="142" x="58.55" y="27.8467">GestorAsignaciones</text><line style="stroke:#181818;stroke-width:0.5;" x1="8" x2="221" y1="39" y2="39"/><ellipse cx="18" cy="52.6484" fill="none" rx="3" ry="3" style="stroke:#038048;stroke-width:1.0;"/><text fill="#000000" font-family="sans-serif" font-size="14" lengthAdjust="spacing" textLength="189" x="27" y="55.9951">asignarAsignaturaDocente</text><ellipse cx="18" cy="68.9453" fill="none" rx="3" ry="3" style="stroke:#038048;stroke-width:1.0;"/><text fill="#000000" font-family="sans-serif" font-size="14" lengthAdjust="spacing" textLength="152" x="27" y="72.292">verificarAsignaciones</text><line style="stroke:#181818;stroke-width:0.5;" x1="8" x2="221" y1="79.5938" y2="79.5938"/></g><!--link Asignatura to Docente--><g id="link_Asignatura_Docente"><path codeLine="24" d="M188.847,262.376 C173.291,286.674 157.8543,310.785 143.1143,333.8068 " fill="none" id="Asignatura-to-Docente" style="stroke:#181818;stroke-width:1.0;"/><polygon fill="#181818" points="139.879,338.8598,148.1006,333.4371,142.5751,334.6489,141.3632,329.1234,139.879,338.8598" style="stroke:#181818;stroke-width:1.0;"/><polygon fill="#000000" points="168.804,304.7773,176.1562,298.7444,171.206,295.5751,168.804,304.7773" style="stroke:#000000;stroke-width:1.0;"/><text fill="#000000" font-family="sans-serif" font-size="13" lengthAdjust="spacing" textLength="70" x="180.5" y="305.0669">asignado a</text></g><!--link GestorAsignaciones to Docente--><g id="link_GestorAsignaciones_Docente"><path codeLine="25" d="M98.9707,88.243 C91.1262,110.446 82.4505,138.835 78.5,165 C72.0638,207.628 72.0638,219.372 78.5,262 C82.4505,288.165 89.1274,310.8967 96.9719,333.0997 " fill="none" id="GestorAsignaciones-to-Docente" style="stroke:#181818;stroke-width:1.0;"/><polygon fill="#181818" points="98.9707,338.757,99.7441,328.9386,97.3051,334.0426,92.201,331.6036,98.9707,338.757" style="stroke:#181818;stroke-width:1.0;"/><polygon fill="#000000" points="83.4592,218.5662,86.4718,209.5454,80.5942,209.4975,83.4592,218.5662" style="stroke:#000000;stroke-width:1.0;"/><text fill="#000000" font-family="sans-serif" font-size="13" lengthAdjust="spacing" textLength="55" x="92.5" y="218.0669">gestiona</text></g><!--link GestorAsignaciones to Asignatura--><g id="link_GestorAsignaciones_Asignatura"><path codeLine="26" d="M139.918,88.2 C154.727,111.33 170.2597,135.592 185.8507,159.943 " fill="none" id="GestorAsignaciones-to-Asignatura" style="stroke:#181818;stroke-width:1.0;"/><polygon fill="#181818" points="189.086,164.996,187.6018,155.2596,186.39,160.7851,180.8644,159.5733,189.086,164.996" style="stroke:#181818;stroke-width:1.0;"/><polygon fill="#000000" points="174.196,130.7773,171.794,121.5751,166.8438,124.7444,174.196,130.7773" style="stroke:#000000;stroke-width:1.0;"/><text fill="#000000" font-family="sans-serif" font-size="13" lengthAdjust="spacing" textLength="55" x="180.5" y="131.0669">gestiona</text></g><!--SRC=[ROzB2WCX343tdYBxOIumYu52eUT8DPM0DKLjDwLthqwaOs6oaSJtyh41SuQpM8g5u6sWnHJbVatK4tnG2En4KsC-njZDEcNs4SipOHT7RsAdhqzOtTswK2wIrBKiaNAr5SMjcFQ-VI_zVL7Y6rlySrlV6iCgyxp-xW5OG9iw0OJL70mV-GLy1Mhzc6teC6calm00]--></g></svg>