<?xml version="1.0" encoding="UTF-8" standalone="no"?><svg xmlns="http://www.w3.org/2000/svg" xmlns:xlink="http://www.w3.org/1999/xlink" contentStyleType="text/css" height="742px" preserveAspectRatio="none" style="width:802px;height:742px;background:#FFFFFF;" version="1.1" viewBox="0 0 802 742" width="802px" zoomAndPan="magnify"><defs/><g><text fill="#000000" font-family="Arial" font-size="14" font-weight="bold" lengthAdjust="spacing" textLength="168" x="307" y="22.9951">Terminar Suscripción</text><rect fill="#F1F1F1" height="40" rx="12.5" ry="12.5" style="stroke:#181818;stroke-width:0.5;" width="168" x="314" y="44.2969"/><text fill="#000000" font-family="Arial" font-size="14" lengthAdjust="spacing" textLength="158" x="319" y="69.1436">DASHBOARD_ABIERTO</text><path d="M19.5,194.2969 L776.5,194.2969 A12.5,12.5 0 0 1 789,206.7969 L789,220.5938 L7,220.5938 L7,206.7969 A12.5,12.5 0 0 1 19.5,194.2969 " fill="#F1F1F1" style="stroke:#F1F1F1;stroke-width:1.0;"/><rect fill="none" height="542.2969" rx="12.5" ry="12.5" style="stroke:#181818;stroke-width:0.5;" width="782" x="7" y="194.2969"/><line style="stroke:#181818;stroke-width:0.5;" x1="7" x2="789" y1="220.5938" y2="220.5938"/><text fill="#000000" font-family="Arial" font-size="14" lengthAdjust="spacing" textLength="141" x="327.5" y="212.292">TerminarSuscripción</text><rect fill="#F1F1F1" height="40" rx="12.5" ry="12.5" style="stroke:#181818;stroke-width:0.5;" width="50" x="185" y="288.5938"/><text fill="#000000" font-family="Arial" font-size="14" lengthAdjust="spacing" textLength="4" x="208" y="313.4404"> </text><rect fill="#F1F1F1" height="40" rx="12.5" ry="12.5" style="stroke:#181818;stroke-width:0.5;" width="50" x="19" y="449.5938"/><text fill="#000000" font-family="Arial" font-size="14" lengthAdjust="spacing" textLength="4" x="42" y="474.4404"> </text><ellipse cx="210" cy="241.5938" fill="#222222" rx="10" ry="10" style="stroke:none;stroke-width:1.0;"/><rect fill="#F1F1F1" height="40" rx="12.5" ry="12.5" style="stroke:#181818;stroke-width:0.5;" width="163" x="119.5" y="580.5938"/><text fill="#000000" font-family="Arial" font-size="14" lengthAdjust="spacing" textLength="153" x="124.5" y="605.4404">SuscripcionTerminada</text><ellipse cx="201" cy="716.5938" fill="none" rx="10" ry="10" style="stroke:#222222;stroke-width:1.0;"/><ellipse cx="201.5" cy="717.0938" fill="#222222" rx="6" ry="6" style="stroke:none;stroke-width:1.0;"/><!--link *start*TerminarSuscripción to 1--><g id="link_*start*TerminarSuscripción_1"><path d="M210,251.6338 C210,259.7838 210,272.1538 210,283.1938 " fill="none" id="*start*TerminarSuscripción-to-1" style="stroke:#008000;stroke-width:1.0;"/><polygon fill="#008000" points="210,288.4838,214,279.4838,210,283.4838,206,279.4838,210,288.4838" style="stroke:#008000;stroke-width:1.0;"/></g><!--link 1 to 2--><g id="link_1_2"><path d="M184.73,315.9538 C142.7,326.5338 63,346.5938 63,346.5938 C63,346.5938 53.29,408.9338 47.75,444.4938 " fill="none" id="1-to-2" style="stroke:#008000;stroke-width:1.0;"/><polygon fill="#008000" points="46.97,449.5338,52.31,441.2582,47.741,444.5936,44.4057,440.0246,46.97,449.5338" style="stroke:#008000;stroke-width:1.0;"/><path d="M68,351.5938 L68,421.5938 L357,421.5938 L357,361.5938 L347,351.5938 L68,351.5938 " fill="#F5F5F5" style="stroke:#181818;stroke-width:0.5;"/><path d="M347,351.5938 L347,361.5938 L357,361.5938 L347,351.5938 " fill="#F5F5F5" style="stroke:#181818;stroke-width:0.5;"/><text fill="#000000" font-family="Arial" font-size="13" font-weight="bold" lengthAdjust="spacing" textLength="116" x="74" y="368.6606">Sistema solicita</text><text fill="#000000" font-family="Arial" font-size="13" lengthAdjust="spacing" textLength="268" x="74" y="383.7935">Confirmar la terminación de la suscripción</text><text fill="#000000" font-family="Arial" font-size="13" lengthAdjust="spacing" textLength="251" x="74" y="398.9263">a un servicio o paquete de servicios, se</text><text fill="#000000" font-family="Arial" font-size="13" lengthAdjust="spacing" textLength="223" x="74" y="414.0591">informa de la fecha de terminación</text></g><!--link 2 to SuscripcionTerminada--><g id="link_2_SuscripcionTerminada"><path d="M36.3,489.6238 C31.8,500.7438 27,512.5938 27,512.5938 C27,512.5938 27,562.5938 27,562.5938 C27,562.5938 70.71,571.8838 114.31,581.1637 " fill="none" id="2-to-SuscripcionTerminada" style="stroke:#008000;stroke-width:1.0;"/><polygon fill="#008000" points="119.35,582.2338,111.3833,576.4431,114.4602,581.19,109.7133,584.2669,119.35,582.2338" style="stroke:#008000;stroke-width:1.0;"/><path d="M32,517.5938 L32,557.5938 L357,557.5938 L357,527.5938 L347,517.5938 L32,517.5938 " fill="#F5F5F5" style="stroke:#181818;stroke-width:0.5;"/><path d="M347,517.5938 L347,527.5938 L357,527.5938 L347,517.5938 " fill="#F5F5F5" style="stroke:#181818;stroke-width:0.5;"/><text fill="#000000" font-family="Arial" font-size="13" font-weight="bold" lengthAdjust="spacing" textLength="130" x="38" y="534.6606">Usuario introduce</text><text fill="#000000" font-family="Arial" font-size="13" lengthAdjust="spacing" textLength="304" x="38" y="549.7935">Confimación de la terminación de la suscripción</text></g><!--link SuscripcionTerminada to 1--><g id="link_SuscripcionTerminada_1"><path d="M282.91,580.7638 C322.69,571.6238 362,562.5938 362,562.5938 C362,562.5938 362,346.5938 362,346.5938 C362,346.5938 284.37,327.6938 240.07,316.9138 " fill="none" id="SuscripcionTerminada-to-1" style="stroke:#FF0000;stroke-width:1.0;"/><polygon fill="#FF0000" points="235.1,315.7038,242.8946,321.724,239.9574,316.8895,244.7919,313.9522,235.1,315.7038" style="stroke:#FF0000;stroke-width:1.0;"/><path d="M367,449.5938 L367,489.5938 L780,489.5938 L780,459.5938 L770,449.5938 L367,449.5938 " fill="#F5F5F5" style="stroke:#181818;stroke-width:0.5;"/><path d="M770,449.5938 L770,459.5938 L780,459.5938 L770,449.5938 " fill="#F5F5F5" style="stroke:#181818;stroke-width:0.5;"/><text fill="#000000" font-family="Arial" font-size="13" font-weight="bold" lengthAdjust="spacing" textLength="125" x="373" y="466.6606">Sistema muestra</text><text fill="#000000" font-family="Arial" font-size="13" lengthAdjust="spacing" textLength="392" x="373" y="481.7935">Mensaje de error en caso de no poder terminar la suscripción</text></g><!--link SuscripcionTerminada to *end*TerminarSuscripción--><g id="link_SuscripcionTerminada_*end*TerminarSuscripción"><path d="M201,620.6737 C201,643.4838 201,681.1138 201,701.4738 " fill="none" id="SuscripcionTerminada-to-*end*TerminarSuscripción" style="stroke:#008000;stroke-width:1.0;"/><polygon fill="#008000" points="201,706.4938,205,697.4938,201,701.4938,197,697.4938,201,706.4938" style="stroke:#008000;stroke-width:1.0;"/><path d="M206,643.5938 L206,683.5938 L386,683.5938 L386,653.5938 L376,643.5938 L206,643.5938 " fill="#F5F5F5" style="stroke:#181818;stroke-width:0.5;"/><path d="M376,643.5938 L376,653.5938 L386,653.5938 L376,643.5938 " fill="#F5F5F5" style="stroke:#181818;stroke-width:0.5;"/><text fill="#000000" font-family="Arial" font-size="13" font-weight="bold" lengthAdjust="spacing" textLength="125" x="212" y="660.6606">Sistema muestra</text><text fill="#000000" font-family="Arial" font-size="13" lengthAdjust="spacing" textLength="159" x="212" y="675.7935">Mensaje de confirmación</text></g><!--link DASHBOARD_ABIERTO to TerminarSuscripción--><g id="link_DASHBOARD_ABIERTO_TerminarSuscripción"><path d="M398,84.5369 C398,106.3469 398,144.6569 398,188.8069 " fill="none" id="DASHBOARD_ABIERTO-to-TerminarSuscripción" style="stroke:#008000;stroke-width:1.0;"/><polygon fill="#008000" points="398,193.9369,402,184.9369,398,188.9369,394,184.9369,398,193.9369" style="stroke:#008000;stroke-width:1.0;"/><path d="M403,119.2969 L403,159.2969 L584,159.2969 L584,129.2969 L574,119.2969 L403,119.2969 " fill="#F5F5F5" style="stroke:#181818;stroke-width:0.5;"/><path d="M574,119.2969 L574,129.2969 L584,129.2969 L574,119.2969 " fill="#F5F5F5" style="stroke:#181818;stroke-width:0.5;"/><text fill="#000000" font-family="Arial" font-size="13" font-weight="bold" lengthAdjust="spacing" textLength="112" x="409" y="136.3638">Usuario solicita</text><text fill="#000000" font-family="Arial" font-size="13" lengthAdjust="spacing" textLength="160" x="409" y="151.4966">Terminar una suscripción</text></g><!--SRC=[dPF1Qjj048RlUeeXkPMQufo3GKvQMcWJYDDJ26MyEuwtrkweiwCQK_fKVOI-MCUAh4ZK8P3RQ6Ps_-__5-LDI3KAHl2qmgRI3vpq2YD1AG6h8lVpArQQeziy23V9Nt350gVRTL1QHDxGOBCKuMsty214QJ3x71BfhYQekTfLzb4erw0CIrPbemX2JWEdebW7Jq2nrfsnPIUXRliQj2Au9OaXeS2YQKSk_FrZP_8BTfuLkomN7-VNvStbjtB-wVtDxJLCF6_JPDOhZOIIXG6Sm1niYlFbx6jkK093vYgue7Z-RZahUiOc8UJXSKeUzbSOiABIKOrV1S3ZT0gOuGHE-iRPK-FkpJrCZ79gzRIjpgmQuG4Ou29afOXZG80BJgiWqHWh17saQDKjltrhH0s0PWKooK-xWu6XnXyDcPGj7xhvhPMs6jAAxUBkdXMvTLiFDMoh3mBCr9w-Ju1J5uh7euOEYOUamhvnD7GKHoPUzZN0E0O0axjJ8N_VvVnykh6Xh788zmkbZD_RTCX-2J4PS9XvtqWM7dkI0voyXifuxFrVH-Iwb_zFxFS_]--></g></svg>