<?xml version="1.0" encoding="UTF-8" standalone="no"?><svg xmlns="http://www.w3.org/2000/svg" xmlns:xlink="http://www.w3.org/1999/xlink" contentStyleType="text/css" height="863px" preserveAspectRatio="none" style="width:753px;height:863px;background:#FFFFFF;" version="1.1" viewBox="0 0 753 863" width="753px" zoomAndPan="magnify"><defs/><g><rect fill="none" height="29.0679" id="_title" style="stroke:none;stroke-width:1.0;" width="156" x="288.5" y="5"/><text fill="#000000" font-family="Arial" font-size="14" font-weight="bold" lengthAdjust="spacing" textLength="146" x="293.5" y="24.9659">Terminar Suscripción</text><rect fill="#F1F1F1" height="40" rx="12.5" ry="12.5" style="stroke:#181818;stroke-width:0.5;" width="95" x="326" y="817.1379"/><text fill="#000000" font-family="Arial" font-size="14" lengthAdjust="spacing" textLength="85" x="331" y="842.5699">DASHBOARD</text><rect fill="#F1F1F1" height="40" rx="12.5" ry="12.5" style="stroke:#181818;stroke-width:0.5;" width="95" x="326" y="47.0679"/><text fill="#000000" font-family="Arial" font-size="14" lengthAdjust="spacing" textLength="85" x="331" y="72.4999">DASHBOARD</text><path d="M19.5,202.0679 L727.5,202.0679 A12.5,12.5 0 0 1 740,214.5679 L740,231.1358 L7,231.1358 L7,214.5679 A12.5,12.5 0 0 1 19.5,202.0679 " fill="#F1F1F1" style="stroke:#F1F1F1;stroke-width:1.0;"/><rect fill="none" height="554.0679" rx="12.5" ry="12.5" style="stroke:#181818;stroke-width:0.5;" width="733" x="7" y="202.0679"/><line style="stroke:#181818;stroke-width:0.5;" x1="7" x2="740" y1="231.1358" y2="231.1358"/><text fill="#000000" font-family="Arial" font-size="14" lengthAdjust="spacing" textLength="140" x="303.5" y="222.0339">TerminarSuscripción</text><rect fill="#F1F1F1" height="40" rx="12.5" ry="12.5" style="stroke:#181818;stroke-width:0.5;" width="50" x="175" y="299.1358"/><text fill="#000000" font-family="Arial" font-size="14" lengthAdjust="spacing" textLength="4" x="198" y="324.5678"> </text><rect fill="#F1F1F1" height="40" rx="12.5" ry="12.5" style="stroke:#181818;stroke-width:0.5;" width="50" x="19" y="472.6358"/><text fill="#000000" font-family="Arial" font-size="14" lengthAdjust="spacing" textLength="4" x="42" y="498.0678"> </text><g id="elem_3"><polygon fill="#F1F1F1" points="192,611.1358,204,623.1358,192,635.1358,180,623.1358,192,611.1358" style="stroke:#181818;stroke-width:0.5;"/></g><ellipse cx="200" cy="252.1358" fill="#222222" rx="10" ry="10" style="stroke:none;stroke-width:1.0;"/><ellipse cx="192" cy="736.1358" fill="none" rx="10" ry="10" style="stroke:#222222;stroke-width:1.0;"/><ellipse cx="192.5" cy="736.6358" fill="#222222" rx="6" ry="6" style="stroke:none;stroke-width:1.0;"/><!--MD5=[732c1cffbf517d10194c4bfe9f25b361]
link *start*TerminarSuscripción to 1--><g id="link_*start*TerminarSuscripción_1"><path d="M200,262.4458 C200,270.2358 200,281.7358 200,292.2658 " fill="none" id="*start*TerminarSuscripción-to-1" style="stroke:#008000;stroke-width:1.0;"/><polygon fill="#008000" points="200,297.1458,204,288.1458,200,292.1458,196,288.1458,200,297.1458" style="stroke:#008000;stroke-width:1.0;"/></g><!--MD5=[0ba0d8a0fd0e641c23f69743a446dfe6]
link 1 to 2--><g id="link_1_2"><path d="M174.69,326.9258 C134.85,337.6058 62,357.1358 62,357.1358 C62,357.1358 52.67,426.8758 47.44,465.9158 " fill="none" id="1-to-2" style="stroke:#008000;stroke-width:1.0;"/><polygon fill="#008000" points="46.78,470.8658,51.9518,462.4842,47.4511,465.9111,44.0242,461.4104,46.78,470.8658" style="stroke:#008000;stroke-width:1.0;"/><path d="M67,362.1358 L67,442.1358 L337,442.1358 L337,372.1358 L327,362.1358 L67,362.1358 " fill="#F5F5F5" style="stroke:#181818;stroke-width:0.5;"/><path d="M327,362.1358 L327,372.1358 L337,372.1358 L327,362.1358 " fill="#F5F5F5" style="stroke:#181818;stroke-width:0.5;"/><text fill="#000000" font-family="Arial" font-size="13" font-weight="bold" lengthAdjust="spacing" textLength="102" x="73" y="381.0328">Sistema solicita</text><text fill="#000000" font-family="Arial" font-size="13" lengthAdjust="spacing" textLength="249" x="73" y="398.7389">Confirmar la terminación de la suscripción</text><text fill="#000000" font-family="Arial" font-size="13" lengthAdjust="spacing" textLength="229" x="73" y="416.4449">a un servicio o paquete de servicios, se</text><text fill="#000000" font-family="Arial" font-size="13" lengthAdjust="spacing" textLength="206" x="73" y="434.1509">informa de la fecha de terminación</text></g><!--MD5=[eeb69082328d10abd3b14fdeede0d8a3]
link 2 to 3--><g id="link_2_3"><path d="M37.46,513.0258 C33.42,525.0158 29,538.1358 29,538.1358 C29,538.1358 29,593.1358 29,593.1358 C29,593.1358 135.06,612.0058 176.08,619.3058 " fill="none" id="2-to-3" style="stroke:#008000;stroke-width:1.0;"/><polygon fill="#008000" points="180.8,620.1458,172.6522,614.6129,175.8793,619.259,171.2332,622.486,180.8,620.1458" style="stroke:#008000;stroke-width:1.0;"/><path d="M34,543.1358 L34,588.1358 L337,588.1358 L337,553.1358 L327,543.1358 L34,543.1358 " fill="#F5F5F5" style="stroke:#181818;stroke-width:0.5;"/><path d="M327,543.1358 L327,553.1358 L337,553.1358 L327,543.1358 " fill="#F5F5F5" style="stroke:#181818;stroke-width:0.5;"/><text fill="#000000" font-family="Arial" font-size="13" font-weight="bold" lengthAdjust="spacing" textLength="119" x="40" y="562.0328">Usuario introduce</text><text fill="#000000" font-family="Arial" font-size="13" lengthAdjust="spacing" textLength="282" x="40" y="579.7389">Confimación de la terminación de la suscripción</text></g><!--MD5=[4d444cbccd26e31ce172b5718b51e4cd]
link 3 to 1--><g id="link_3_1"><path d="M201.38,620.3258 C234.22,613.9758 342,593.1358 342,593.1358 C342,593.1358 342,357.1358 342,357.1358 C342,357.1358 273.45,339.2758 231.61,328.3758 " fill="none" id="3-to-1" style="stroke:#FF0000;stroke-width:1.0;"/><polygon fill="#FF0000" points="226.85,327.1358,234.5562,333.2688,231.6896,328.3921,236.5663,325.5255,226.85,327.1358" style="stroke:#FF0000;stroke-width:1.0;"/><path d="M347,470.1358 L347,515.1358 L731,515.1358 L731,480.1358 L721,470.1358 L347,470.1358 " fill="#F5F5F5" style="stroke:#181818;stroke-width:0.5;"/><path d="M721,470.1358 L721,480.1358 L731,480.1358 L721,470.1358 " fill="#F5F5F5" style="stroke:#181818;stroke-width:0.5;"/><text fill="#000000" font-family="Arial" font-size="13" font-weight="bold" lengthAdjust="spacing" textLength="111" x="353" y="489.0328">Sistema muestra</text><text fill="#000000" font-family="Arial" font-size="13" lengthAdjust="spacing" textLength="363" x="353" y="506.7389">Mensaje de error en caso de no poder terminar la suscripción</text></g><!--MD5=[24648aa2c05fff2ef7abb44279d351dd]
link 3 to *end*TerminarSuscripción--><g id="link_3_*end*TerminarSuscripción"><path d="M192,635.5958 C192,655.5758 192,696.8058 192,719.4258 " fill="none" id="3-to-*end*TerminarSuscripción" style="stroke:#008000;stroke-width:1.0;"/><polygon fill="#008000" points="192,724.2958,196,715.2958,192,719.2958,188,715.2958,192,724.2958" style="stroke:#008000;stroke-width:1.0;"/><path d="M197,658.1358 L197,703.1358 L367,703.1358 L367,668.1358 L357,658.1358 L197,658.1358 " fill="#F5F5F5" style="stroke:#181818;stroke-width:0.5;"/><path d="M357,658.1358 L357,668.1358 L367,668.1358 L357,658.1358 " fill="#F5F5F5" style="stroke:#181818;stroke-width:0.5;"/><text fill="#000000" font-family="Arial" font-size="13" font-weight="bold" lengthAdjust="spacing" textLength="111" x="203" y="677.0328">Sistema muestra</text><text fill="#000000" font-family="Arial" font-size="13" lengthAdjust="spacing" textLength="149" x="203" y="694.7389">Mensaje de confirmación</text></g><!--MD5=[1cf0e9dfe57089be50b7620d92685c41]
link DASHBOARD to TerminarSuscripción--><g id="link_DASHBOARD_TerminarSuscripción"><path d="M373.5,87.2979 C373.5,109.7179 373.5,149.6479 373.5,195.6779 " fill="none" id="DASHBOARD-to-TerminarSuscripción" style="stroke:#008000;stroke-width:1.0;"/><polygon fill="#008000" points="373.5,200.3979,377.5,191.3979,373.5,195.3979,369.5,191.3979,373.5,200.3979" style="stroke:#008000;stroke-width:1.0;"/><path d="M378.5,122.0679 L378.5,167.0679 L549.5,167.0679 L549.5,132.0679 L539.5,122.0679 L378.5,122.0679 " fill="#F5F5F5" style="stroke:#181818;stroke-width:0.5;"/><path d="M539.5,122.0679 L539.5,132.0679 L549.5,132.0679 L539.5,122.0679 " fill="#F5F5F5" style="stroke:#181818;stroke-width:0.5;"/><text fill="#000000" font-family="Arial" font-size="13" font-weight="bold" lengthAdjust="spacing" textLength="101" x="384.5" y="140.9649">Usuario solicita</text><text fill="#000000" font-family="Arial" font-size="13" lengthAdjust="spacing" textLength="150" x="384.5" y="158.6709">Terminar una suscripción</text></g><!--MD5=[dccf0352675cf14bb077384c2df9139d]
link TerminarSuscripción to endState--><g id="link_TerminarSuscripción_endState"><path d="M373.5,756.2379 C373.5,777.7479 373.5,796.4679 373.5,810.3779 " fill="none" id="TerminarSuscripción-to-endState" style="stroke:#008000;stroke-width:1.0;"/><polygon fill="#008000" points="373.5,815.2979,377.5,806.2979,373.5,810.2979,369.5,806.2979,373.5,815.2979" style="stroke:#008000;stroke-width:1.0;"/></g><!--MD5=[054b78dcb5963f587a61b2b5ff80e1ff]
@startuml
skinparam defaultFontName Arial
skinparam NoteBackgroundColor #whiteSmoke
skinparam ArrowColor #green
skinparam Linetype polyline
top to bottom direction

hide empty description
title Terminar Suscripción

skinparam defaultFontName Arial
top to bottom direction

state endState as "DASHBOARD"

DASHBOARD -down-> TerminarSuscripción
note on link
<b>Usuario solicita</b>
Terminar una suscripción
end note

TerminarSuscripción -down-> endState

state TerminarSuscripción{
  state 1 as " "
  state 2 as " "
  state 3 <<choice>>
  [*] - -> 1
  1 - -> 2
  note on link
  <b>Sistema solicita</b>
  Confirmar la terminación de la suscripción
  a un servicio o paquete de servicios, se
  informa de la fecha de terminación
  end note
  2 - -> 3
  note on link
  <b>Usuario introduce</b>
  Confimación de la terminación de la suscripción
  end note
  3 -[#red]-> 1
  note on link
  <b>Sistema muestra</b>
  Mensaje de error en caso de no poder terminar la suscripción
  end note
  3 - -> [*]
  note on link
  <b>Sistema muestra</b>
  Mensaje de confirmación
  end note
}

@enduml

PlantUML version 1.2022.7(Mon Aug 22 19:01:30 CEST 2022)
(GPL source distribution)
Java Runtime: OpenJDK Runtime Environment
JVM: OpenJDK 64-Bit Server VM
Default Encoding: UTF-8
Language: es
Country: ES
--></g></svg>