<?xml version="1.0" encoding="UTF-8" standalone="no"?><svg xmlns="http://www.w3.org/2000/svg" xmlns:xlink="http://www.w3.org/1999/xlink" contentStyleType="text/css" height="1981px" preserveAspectRatio="none" style="width:457px;height:1981px;background:#FFFFFF;" version="1.1" viewBox="0 0 457 1981" width="457px" zoomAndPan="magnify"><defs/><g><rect fill="none" height="27.6094" id="_title" style="stroke:none;stroke-width:1.0;" width="342" x="50.5" y="5"/><text fill="#000000" font-family="sans-serif" font-size="14" font-weight="bold" lengthAdjust="spacing" textLength="332" x="55.5" y="24.5332">Estructura de los Casos de Uso (Administrador)</text><!--MD5=[0da457cd346282cb9ffbbcbb0652be17]
cluster cuentas--><g id="cluster_cuentas"><path d="M154,172.1094 L287,172.1094 A3.75,3.75 0 0 1 289.5,174.6094 L296.5,195.7188 L433,195.7188 A2.5,2.5 0 0 1 435.5,198.2188 L435.5,355.6094 A2.5,2.5 0 0 1 433,358.1094 L154,358.1094 A2.5,2.5 0 0 1 151.5,355.6094 L151.5,174.6094 A2.5,2.5 0 0 1 154,172.1094 " fill="none" style="stroke:#000000;stroke-width:1.5;"/><line style="stroke:#000000;stroke-width:1.5;" x1="151.5" x2="296.5" y1="195.7188" y2="195.7188"/><text fill="#000000" font-family="sans-serif" font-size="14" font-weight="bold" lengthAdjust="spacing" textLength="132" x="155.5" y="188.6426">Manejo de Usuario</text></g><!--MD5=[a86b8758458e11e030fd076d8ea1e0f1]
cluster ingreso--><g id="cluster_ingreso"><path d="M210,382.1094 L355,382.1094 A3.75,3.75 0 0 1 357.5,384.6094 L364.5,405.7188 L377,405.7188 A2.5,2.5 0 0 1 379.5,408.2188 L379.5,532.6094 A2.5,2.5 0 0 1 377,535.1094 L210,535.1094 A2.5,2.5 0 0 1 207.5,532.6094 L207.5,384.6094 A2.5,2.5 0 0 1 210,382.1094 " fill="none" style="stroke:#000000;stroke-width:1.5;"/><line style="stroke:#000000;stroke-width:1.5;" x1="207.5" x2="364.5" y1="405.7188" y2="405.7188"/><text fill="#000000" font-family="sans-serif" font-size="14" font-weight="bold" lengthAdjust="spacing" textLength="144" x="211.5" y="398.6426">Ingreso a Plataforma</text></g><!--MD5=[a2e01a3d20edbfd1dfe88f1aa873f491]
cluster CRDSuscripciones--><g id="cluster_CRDSuscripciones"><path d="M139.5,559.1094 L274.5,559.1094 A3.75,3.75 0 0 1 277,561.6094 L284,582.7188 L447.5,582.7188 A2.5,2.5 0 0 1 450,585.2188 L450,670.6094 A2.5,2.5 0 0 1 447.5,673.1094 L139.5,673.1094 A2.5,2.5 0 0 1 137,670.6094 L137,561.6094 A2.5,2.5 0 0 1 139.5,559.1094 " fill="none" style="stroke:#000000;stroke-width:1.5;"/><line style="stroke:#000000;stroke-width:1.5;" x1="137" x2="284" y1="582.7188" y2="582.7188"/><text fill="#000000" font-family="sans-serif" font-size="14" font-weight="bold" lengthAdjust="spacing" textLength="134" x="141" y="575.6426">CRD Suscripciones</text></g><!--MD5=[3558f5497e9d89aef061cf9bb7df249a]
cluster CRUDServicios--><g id="cluster_CRUDServicios"><path d="M204,697.1094 L315,697.1094 A3.75,3.75 0 0 1 317.5,699.6094 L324.5,720.7188 L383,720.7188 A2.5,2.5 0 0 1 385.5,723.2188 L385.5,988.6094 A2.5,2.5 0 0 1 383,991.1094 L204,991.1094 A2.5,2.5 0 0 1 201.5,988.6094 L201.5,699.6094 A2.5,2.5 0 0 1 204,697.1094 " fill="none" style="stroke:#000000;stroke-width:1.5;"/><line style="stroke:#000000;stroke-width:1.5;" x1="201.5" x2="324.5" y1="720.7188" y2="720.7188"/><text fill="#000000" font-family="sans-serif" font-size="14" font-weight="bold" lengthAdjust="spacing" textLength="110" x="205.5" y="713.6426">CRUD Servicios</text></g><!--MD5=[3efe4913bb7606f0a928d99050ddabc6]
cluster CRUDEgresados--><g id="cluster_CRUDEgresados"><path d="M199.5,1015.1094 L319.5,1015.1094 A3.75,3.75 0 0 1 322,1017.6094 L329,1038.7188 L387.5,1038.7188 A2.5,2.5 0 0 1 390,1041.2188 L390,1312.6094 A2.5,2.5 0 0 1 387.5,1315.1094 L199.5,1315.1094 A2.5,2.5 0 0 1 197,1312.6094 L197,1017.6094 A2.5,2.5 0 0 1 199.5,1015.1094 " fill="none" style="stroke:#000000;stroke-width:1.5;"/><line style="stroke:#000000;stroke-width:1.5;" x1="197" x2="329" y1="1038.7188" y2="1038.7188"/><text fill="#000000" font-family="sans-serif" font-size="14" font-weight="bold" lengthAdjust="spacing" textLength="119" x="201" y="1031.6426">CRUD Egresados</text></g><!--MD5=[6a030e930e55ab3fed80196992fe8282]
cluster CRUDPaquetes--><g id="cluster_CRUDPaquetes"><path d="M203,1339.1094 L314,1339.1094 A3.75,3.75 0 0 1 316.5,1341.6094 L323.5,1362.7188 L384,1362.7188 A2.5,2.5 0 0 1 386.5,1365.2188 L386.5,1631.6094 A2.5,2.5 0 0 1 384,1634.1094 L203,1634.1094 A2.5,2.5 0 0 1 200.5,1631.6094 L200.5,1341.6094 A2.5,2.5 0 0 1 203,1339.1094 " fill="none" style="stroke:#000000;stroke-width:1.5;"/><line style="stroke:#000000;stroke-width:1.5;" x1="200.5" x2="323.5" y1="1362.7188" y2="1362.7188"/><text fill="#000000" font-family="sans-serif" font-size="14" font-weight="bold" lengthAdjust="spacing" textLength="110" x="204.5" y="1355.6426">CRUD Paquetes</text></g><!--MD5=[10af996e2ffe433c81f0f63a8782af60]
cluster CRUDAdministradores--><g id="cluster_CRUDAdministradores"><path d="M188.5,1658.1094 L348.5,1658.1094 A3.75,3.75 0 0 1 351,1660.6094 L358,1681.7188 L398.5,1681.7188 A2.5,2.5 0 0 1 401,1684.2188 L401,1971.6094 A2.5,2.5 0 0 1 398.5,1974.1094 L188.5,1974.1094 A2.5,2.5 0 0 1 186,1971.6094 L186,1660.6094 A2.5,2.5 0 0 1 188.5,1658.1094 " fill="none" style="stroke:#000000;stroke-width:1.5;"/><line style="stroke:#000000;stroke-width:1.5;" x1="186" x2="358" y1="1681.7188" y2="1681.7188"/><text fill="#000000" font-family="sans-serif" font-size="14" font-weight="bold" lengthAdjust="spacing" textLength="159" x="190" y="1674.6426">CRUD Administradores</text></g><g id="elem_Actualización de Datos del Usuario"><ellipse cx="293.6384" cy="236.2371" fill="#F1F1F1" rx="126.1384" ry="27.6277" style="stroke:#181818;stroke-width:0.5;"/><text fill="#000000" font-family="sans-serif" font-size="14" lengthAdjust="spacing" textLength="218" x="184.6384" y="239.9656">Actualización de Datos del Usuario</text></g><g id="elem_Listar Datos del Usuario"><ellipse cx="293.63" cy="320.1354" fill="#F1F1F1" rx="95.63" ry="21.526" style="stroke:#181818;stroke-width:0.5;"/><text fill="#000000" font-family="sans-serif" font-size="14" lengthAdjust="spacing" textLength="151" x="218.13" y="323.8639">Listar Datos del Usuario</text></g><g id="elem_Iniciar Sesión"><ellipse cx="293.2688" cy="434.2631" fill="#F1F1F1" rx="68.7688" ry="16.1538" style="stroke:#181818;stroke-width:0.5;"/><text fill="#000000" font-family="sans-serif" font-size="14" lengthAdjust="spacing" textLength="84" x="248.2688" y="438.7797">Iniciar Sesión</text></g><g id="elem_Cerrar Sesión"><ellipse cx="293.6531" cy="502.04" fill="#F1F1F1" rx="70.1531" ry="16.4306" style="stroke:#181818;stroke-width:0.5;"/><text fill="#000000" font-family="sans-serif" font-size="14" lengthAdjust="spacing" textLength="88" x="246.6531" y="506.5566">Cerrar Sesión</text></g><g id="elem_Listar Servicios / Paquetes de Servicios"><ellipse cx="293.7255" cy="626.1545" fill="#F1F1F1" rx="140.7255" ry="30.5451" style="stroke:#181818;stroke-width:0.5;"/><text fill="#000000" font-family="sans-serif" font-size="14" lengthAdjust="spacing" textLength="249" x="169.2255" y="629.883">Listar Servicios / Paquetes de Servicios</text></g><g id="elem_Crear Servicio"><ellipse cx="293.3567" cy="750.1807" fill="#F1F1F1" rx="70.8567" ry="16.5713" style="stroke:#181818;stroke-width:0.5;"/><text fill="#000000" font-family="sans-serif" font-size="14" lengthAdjust="spacing" textLength="90" x="245.3567" y="754.6973">Crear Servicio</text></g><g id="elem_Listar Servicios"><ellipse cx="293.5109" cy="819.1116" fill="#F1F1F1" rx="73.0109" ry="17.0022" style="stroke:#181818;stroke-width:0.5;"/><text fill="#000000" font-family="sans-serif" font-size="14" lengthAdjust="spacing" textLength="96" x="242.5109" y="823.6282">Listar Servicios</text></g><g id="elem_Editar Servicio"><ellipse cx="293.7113" cy="888.2516" fill="#F1F1F1" rx="71.2113" ry="16.6423" style="stroke:#181818;stroke-width:0.5;"/><text fill="#000000" font-family="sans-serif" font-size="14" lengthAdjust="spacing" textLength="91" x="245.2113" y="892.7682">Editar Servicio</text></g><g id="elem_Eliminar Servicio"><ellipse cx="293.4763" cy="957.2046" fill="#F1F1F1" rx="75.9763" ry="17.5953" style="stroke:#181818;stroke-width:0.5;"/><text fill="#000000" font-family="sans-serif" font-size="14" lengthAdjust="spacing" textLength="104" x="238.5467" y="961.7051">Eliminar Servicio</text></g><g id="elem_Crear Egresado"><ellipse cx="293.3525" cy="1068.9799" fill="#F1F1F1" rx="74.8525" ry="17.3705" style="stroke:#181818;stroke-width:0.5;"/><text fill="#000000" font-family="sans-serif" font-size="14" lengthAdjust="spacing" textLength="101" x="239.8525" y="1073.4965">Crear Egresado</text></g><g id="elem_Listar Egresado"><ellipse cx="293.481" cy="1138.9056" fill="#F1F1F1" rx="74.481" ry="17.2962" style="stroke:#181818;stroke-width:0.5;"/><text fill="#000000" font-family="sans-serif" font-size="14" lengthAdjust="spacing" textLength="100" x="240.481" y="1143.4222">Listar Egresado</text></g><g id="elem_Editar Egresado"><ellipse cx="293.7256" cy="1209.0545" fill="#F1F1F1" rx="75.2256" ry="17.4451" style="stroke:#181818;stroke-width:0.5;"/><text fill="#000000" font-family="sans-serif" font-size="14" lengthAdjust="spacing" textLength="102" x="239.7256" y="1213.5711">Editar Egresado</text></g><g id="elem_Eliminar Egresado"><ellipse cx="293.2827" cy="1280.0659" fill="#F1F1F1" rx="80.2827" ry="18.4565" style="stroke:#181818;stroke-width:0.5;"/><text fill="#000000" font-family="sans-serif" font-size="14" lengthAdjust="spacing" textLength="115" x="234.9192" y="1284.0435">Eliminar Egresado</text></g><g id="elem_Crear Paquete"><ellipse cx="293.4259" cy="1391.8946" fill="#F1F1F1" rx="71.9259" ry="16.7852" style="stroke:#181818;stroke-width:0.5;"/><text fill="#000000" font-family="sans-serif" font-size="14" lengthAdjust="spacing" textLength="93" x="243.9259" y="1396.4112">Crear Paquete</text></g><g id="elem_Listar Paquete"><ellipse cx="293.5677" cy="1461.3229" fill="#F1F1F1" rx="71.5677" ry="16.7135" style="stroke:#181818;stroke-width:0.5;"/><text fill="#000000" font-family="sans-serif" font-size="14" lengthAdjust="spacing" textLength="92" x="244.5677" y="1465.8395">Listar Paquete</text></g><g id="elem_Editar Paquete"><ellipse cx="293.2859" cy="1529.9666" fill="#F1F1F1" rx="72.2859" ry="16.8572" style="stroke:#181818;stroke-width:0.5;"/><text fill="#000000" font-family="sans-serif" font-size="14" lengthAdjust="spacing" textLength="94" x="243.2859" y="1534.4832">Editar Paquete</text></g><g id="elem_Eliminar Paquete"><ellipse cx="293.6203" cy="1599.9334" fill="#F1F1F1" rx="77.1203" ry="17.8241" style="stroke:#181818;stroke-width:0.5;"/><text fill="#000000" font-family="sans-serif" font-size="14" lengthAdjust="spacing" textLength="107" x="237.7783" y="1604.295">Eliminar Paquete</text></g><g id="elem_Crear Administrador"><ellipse cx="293.2698" cy="1714.0633" fill="#F1F1F1" rx="85.2698" ry="19.454" style="stroke:#181818;stroke-width:0.5;"/><text fill="#000000" font-family="sans-serif" font-size="14" lengthAdjust="spacing" textLength="127" x="229.7698" y="1717.7918">Crear Administrador</text></g><g id="elem_Listar Administrador"><ellipse cx="293.3478" cy="1787.9789" fill="#F1F1F1" rx="84.8478" ry="19.3696" style="stroke:#181818;stroke-width:0.5;"/><text fill="#000000" font-family="sans-serif" font-size="14" lengthAdjust="spacing" textLength="126" x="230.3478" y="1791.7075">Listar Administrador</text></g><g id="elem_Editar Administrador"><ellipse cx="293.6926" cy="1862.1479" fill="#F1F1F1" rx="85.6926" ry="19.5385" style="stroke:#181818;stroke-width:0.5;"/><text fill="#000000" font-family="sans-serif" font-size="14" lengthAdjust="spacing" textLength="128" x="229.6926" y="1865.8764">Editar Administrador</text></g><g id="elem_Eliminar Administrador"><ellipse cx="293.2628" cy="1937.2619" fill="#F1F1F1" rx="91.2628" ry="20.6526" style="stroke:#181818;stroke-width:0.5;"/><text fill="#000000" font-family="sans-serif" font-size="14" lengthAdjust="spacing" textLength="141" x="222.7628" y="1940.9904">Eliminar Administrador</text></g><!--MD5=[2e903384ba6a94be9c906ea46910cc3f]
entity Administrador--><g id="elem_Administrador"><ellipse cx="49.5" cy="1038.6094" fill="#F1F1F1" rx="8" ry="8" style="stroke:#181818;stroke-width:0.5;"/><path d="M49.5,1046.6094 L49.5,1073.6094 M36.5,1054.6094 L62.5,1054.6094 M49.5,1073.6094 L36.5,1088.6094 M49.5,1073.6094 L62.5,1088.6094 " fill="none" style="stroke:#181818;stroke-width:0.5;"/><text fill="#000000" font-family="sans-serif" font-size="14" lengthAdjust="spacing" textLength="87" x="6" y="1104.6426">Administrador</text></g><g id="elem_Consultar Estadísticas"><ellipse cx="293.3297" cy="65.1753" fill="#F1F1F1" rx="90.8297" ry="20.5659" style="stroke:#181818;stroke-width:0.5;"/><text fill="#000000" font-family="sans-serif" font-size="14" lengthAdjust="spacing" textLength="140" x="223.3297" y="68.9038">Consultar Estadísticas</text></g><g id="elem_Realizar Petición"><ellipse cx="293.355" cy="138.2804" fill="#F1F1F1" rx="76.355" ry="17.671" style="stroke:#181818;stroke-width:0.5;"/><text fill="#000000" font-family="sans-serif" font-size="14" lengthAdjust="spacing" textLength="105" x="238.1233" y="142.7349">Realizar Petición</text></g><!--MD5=[79ef10c45eb840b755a669a29cd1c2f9]
link Administrador to Consultar Estadísticas--><g id="link_Administrador_Consultar Estadísticas"><path d="M53.67,1030.0494 C68.36,849.3194 129,103.1094 129,103.1094 C129,103.1094 179.53,91.3694 224.41,80.9394 " fill="none" id="Administrador-to-Consultar Estadísticas" style="stroke:#181818;stroke-width:1.0;"/><polygon fill="#181818" points="229.29,79.7994,219.6194,77.9338,224.419,80.9278,221.425,85.7274,229.29,79.7994" style="stroke:#181818;stroke-width:1.0;"/></g><!--MD5=[5806e705b525d5d406cb5815149d3ab6]
link Administrador to Actualización de Datos del Usuario--><g id="link_Administrador_Actualización de Datos del Usuario"><path d="M54.39,1030.0294 C70.23,871.0294 129,281.1094 129,281.1094 C129,281.1094 169.14,270.0594 209.64,258.9094 " fill="none" id="Administrador-to-Actualización de Datos del Usuario" style="stroke:#181818;stroke-width:1.0;"/><polygon fill="#181818" points="214.58,257.5594,204.8443,256.0708,209.7565,258.8762,206.9512,263.7884,214.58,257.5594" style="stroke:#181818;stroke-width:1.0;"/></g><!--MD5=[369aa146724f41c27aef463534bdfb98]
link Administrador to Listar Datos del Usuario--><g id="link_Administrador_Listar Datos del Usuario"><path d="M55.12,1029.8794 C71.94,886.8994 129,402.1094 129,402.1094 C129,402.1094 200.29,366.3494 248.73,342.0594 " fill="none" id="Administrador-to-Listar Datos del Usuario" style="stroke:#181818;stroke-width:1.0;"/><polygon fill="#181818" points="253.34,339.7494,243.5019,340.2092,248.8707,341.9912,247.0887,347.36,253.34,339.7494" style="stroke:#181818;stroke-width:1.0;"/></g><!--MD5=[86e092906742a2dece3fbb8b4e11e9cf]
link Administrador to Iniciar Sesión--><g id="link_Administrador_Iniciar Sesión"><path d="M55.65,1029.6794 C73.11,895.9694 129,468.1094 129,468.1094 C129,468.1094 189.2,455.5894 236.54,445.7494 " fill="none" id="Administrador-to-Iniciar Sesión" style="stroke:#181818;stroke-width:1.0;"/><polygon fill="#181818" points="241.66,444.6794,232.0348,442.5923,236.7644,445.6957,233.661,450.4253,241.66,444.6794" style="stroke:#181818;stroke-width:1.0;"/></g><!--MD5=[f551cdc4e6ffb60e1ebf0a4e22f92eb2]
link Administrador to Cerrar Sesión--><g id="link_Administrador_Cerrar Sesión"><path d="M56.79,1029.8394 C75.42,913.5594 129,579.1094 129,579.1094 C129,579.1094 208.7,541.5794 256.81,518.9194 " fill="none" id="Administrador-to-Cerrar Sesión" style="stroke:#181818;stroke-width:1.0;"/><polygon fill="#181818" points="261.36,516.7694,251.5133,516.9778,256.8349,518.8963,254.9164,524.2179,261.36,516.7694" style="stroke:#181818;stroke-width:1.0;"/></g><!--MD5=[16828ee9522033f75a1005d28bf51339]
link Administrador to Listar Servicios / Paquetes de Servicios--><g id="link_Administrador_Listar Servicios / Paquetes de Servicios"><path d="M59.2,1030.0894 C79.64,938.4494 129,717.1094 129,717.1094 C129,717.1094 189.31,683.5394 236.68,657.1794 " fill="none" id="Administrador-to-Listar Servicios / Paquetes de Servicios" style="stroke:#181818;stroke-width:1.0;"/><polygon fill="#181818" points="241.22,654.6494,231.4112,655.5372,236.8526,657.0837,235.3061,662.525,241.22,654.6494" style="stroke:#181818;stroke-width:1.0;"/></g><!--MD5=[c3c47cad40e5695174e0e50470e08c10]
link Administrador to Crear Servicio--><g id="link_Administrador_Crear Servicio"><path d="M61.25,1030.0794 C82.75,952.0294 129,784.1094 129,784.1094 C129,784.1094 187.71,771.8994 234.77,762.1094 " fill="none" id="Administrador-to-Crear Servicio" style="stroke:#181818;stroke-width:1.0;"/><polygon fill="#181818" points="239.87,761.0494,230.246,758.9567,234.9738,762.0629,231.8676,766.7906,239.87,761.0494" style="stroke:#181818;stroke-width:1.0;"/></g><!--MD5=[5ef79b88bcd6df8fd01df01b07582278]
link Administrador to Listar Servicios--><g id="link_Administrador_Listar Servicios"><path d="M64.9,1029.6794 C87.56,967.6094 129,854.1094 129,854.1094 C129,854.1094 186.98,841.6994 233.88,831.6594 " fill="none" id="Administrador-to-Listar Servicios" style="stroke:#181818;stroke-width:1.0;"/><polygon fill="#181818" points="238.96,830.5694,229.3233,828.5362,234.0702,831.6131,230.9933,836.36,238.96,830.5694" style="stroke:#181818;stroke-width:1.0;"/></g><!--MD5=[e84ee6232aaaa04a6fe6bb5c48256d2b]
link Administrador to Editar Servicio--><g id="link_Administrador_Editar Servicio"><path d="M71.33,1030.0994 C94.59,986.5494 129,922.1094 129,922.1094 C129,922.1094 187.71,909.8994 234.77,900.1094 " fill="none" id="Administrador-to-Editar Servicio" style="stroke:#181818;stroke-width:1.0;"/><polygon fill="#181818" points="239.87,899.0494,230.246,896.9567,234.9738,900.0629,231.8676,904.7906,239.87,899.0494" style="stroke:#181818;stroke-width:1.0;"/></g><!--MD5=[868a0cbea05833b562bab3bcd133c982]
link Administrador to Eliminar Servicio--><g id="link_Administrador_Eliminar Servicio"><path d="M93.21,1049.3394 C138.77,1028.2594 210.28,995.1594 254.11,974.8794 " fill="none" id="Administrador-to-Eliminar Servicio" style="stroke:#181818;stroke-width:1.0;"/><polygon fill="#181818" points="258.79,972.7094,248.9422,972.855,254.2515,974.8074,252.299,980.1166,258.79,972.7094" style="stroke:#181818;stroke-width:1.0;"/></g><!--MD5=[a93f01c194319dfb49e3355441268a94]
link Administrador to Crear Egresado--><g id="link_Administrador_Crear Egresado"><path d="M93.21,1069.1094 C126.32,1069.1094 173.15,1069.1094 213.09,1069.1094 " fill="none" id="Administrador-to-Crear Egresado" style="stroke:#181818;stroke-width:1.0;"/><polygon fill="#181818" points="218.42,1069.1094,209.42,1065.1094,213.42,1069.1094,209.42,1073.1094,218.42,1069.1094" style="stroke:#181818;stroke-width:1.0;"/></g><!--MD5=[5c0273a74de74f95df81ec3eeaab63dd]
link Administrador to Listar Egresado--><g id="link_Administrador_Listar Egresado"><path d="M93.42,1088.2494 C111.75,1096.4194 129,1104.1094 129,1104.1094 C129,1104.1094 185.88,1116.2894 232.55,1126.2794 " fill="none" id="Administrador-to-Listar Egresado" style="stroke:#181818;stroke-width:1.0;"/><polygon fill="#181818" points="237.6,1127.3594,229.6333,1121.5688,232.7102,1126.3156,227.9633,1129.3925,237.6,1127.3594" style="stroke:#181818;stroke-width:1.0;"/></g><!--MD5=[dbcbc0ef6bf6d103d4816ad826883c25]
link Administrador to Editar Egresado--><g id="link_Administrador_Editar Egresado"><path d="M79.73,1108.2094 C102.05,1138.0594 129,1174.1094 129,1174.1094 C129,1174.1094 185.88,1186.2894 232.55,1196.2794 " fill="none" id="Administrador-to-Editar Egresado" style="stroke:#181818;stroke-width:1.0;"/><polygon fill="#181818" points="237.6,1197.3594,229.6333,1191.5688,232.7102,1196.3156,227.9633,1199.3925,237.6,1197.3594" style="stroke:#181818;stroke-width:1.0;"/></g><!--MD5=[9a712af60ae8cd7b3120e34b06a9e7ed]
link Administrador to Eliminar Egresado--><g id="link_Administrador_Eliminar Egresado"><path d="M68.12,1108.3794 C91.26,1159.9794 129,1244.1094 129,1244.1094 C129,1244.1094 183.72,1256.1594 229.85,1266.3194 " fill="none" id="Administrador-to-Eliminar Egresado" style="stroke:#181818;stroke-width:1.0;"/><polygon fill="#181818" points="234.86,1267.4194,226.9257,1261.5844,229.9761,1266.3483,225.2121,1269.3987,234.86,1267.4194" style="stroke:#181818;stroke-width:1.0;"/></g><!--MD5=[6c2f37c2b3424f647322ddcc3b45f7d4]
link Administrador to Crear Paquete--><g id="link_Administrador_Crear Paquete"><path d="M63.03,1108.3594 C85.19,1177.8094 129,1315.1094 129,1315.1094 C129,1315.1094 207.41,1352.0394 255.63,1374.7494 " fill="none" id="Administrador-to-Crear Paquete" style="stroke:#181818;stroke-width:1.0;"/><polygon fill="#181818" points="260.2,1376.8994,253.7564,1369.4509,255.6749,1374.7725,250.3533,1376.691,260.2,1376.8994" style="stroke:#181818;stroke-width:1.0;"/></g><!--MD5=[7a2bf7fd7722348faae9965f407bcb34]
link Administrador to Listar Paquete--><g id="link_Administrador_Listar Paquete"><path d="M59.13,1108.3394 C79.52,1201.0794 129,1426.1094 129,1426.1094 C129,1426.1094 188.08,1438.7594 235.22,1448.8494 " fill="none" id="Administrador-to-Listar Paquete" style="stroke:#181818;stroke-width:1.0;"/><polygon fill="#181818" points="240.32,1449.9394,232.3695,1444.1265,235.4331,1448.882,230.6776,1451.9456,240.32,1449.9394" style="stroke:#181818;stroke-width:1.0;"/></g><!--MD5=[a9d7abad8a4d656b57c3b3daebefe65c]
link Administrador to Editar Paquete--><g id="link_Administrador_Editar Paquete"><path d="M57.74,1108.4194 C77.18,1213.8794 129,1495.1094 129,1495.1094 C129,1495.1094 187.35,1507.5994 234.33,1517.6594 " fill="none" id="Administrador-to-Editar Paquete" style="stroke:#181818;stroke-width:1.0;"/><polygon fill="#181818" points="239.42,1518.7494,231.4533,1512.9588,234.5302,1517.7056,229.7833,1520.7825,239.42,1518.7494" style="stroke:#181818;stroke-width:1.0;"/></g><!--MD5=[f71c8a38419dd5fb211c82c893aaece2]
link Administrador to Eliminar Paquete--><g id="link_Administrador_Eliminar Paquete"><path d="M56.73,1108.3694 C75.29,1225.4394 129,1564.1094 129,1564.1094 C129,1564.1094 185.16,1576.4794 231.65,1586.7094 " fill="none" id="Administrador-to-Eliminar Paquete" style="stroke:#181818;stroke-width:1.0;"/><polygon fill="#181818" points="236.69,1587.8194,228.7557,1581.9844,231.8061,1586.7483,227.0421,1589.7987,236.69,1587.8194" style="stroke:#181818;stroke-width:1.0;"/></g><!--MD5=[5342176c0b2eeb0ed7ec732db39e7700]
link Administrador to Crear Administrador--><g id="link_Administrador_Crear Administrador"><path d="M55.96,1108.3894 C73.76,1236.5194 129,1634.1094 129,1634.1094 C129,1634.1094 203.18,1670.4094 251.61,1694.0994 " fill="none" id="Administrador-to-Crear Administrador" style="stroke:#181818;stroke-width:1.0;"/><polygon fill="#181818" points="256.21,1696.3594,249.8909,1688.805,251.7208,1694.1577,246.3682,1695.9877,256.21,1696.3594" style="stroke:#181818;stroke-width:1.0;"/></g><!--MD5=[2b934f00abb2bcc9123730b057bb5b4b]
link Administrador to Listar Administrador--><g id="link_Administrador_Listar Administrador"><path d="M55,1108.2294 C71.68,1253.1394 129,1751.1094 129,1751.1094 C129,1751.1094 181.6,1763.0094 227.14,1773.3194 " fill="none" id="Administrador-to-Listar Administrador" style="stroke:#181818;stroke-width:1.0;"/><polygon fill="#181818" points="232.08,1774.4394,224.1821,1768.5553,227.2028,1773.3381,222.42,1776.3588,232.08,1774.4394" style="stroke:#181818;stroke-width:1.0;"/></g><!--MD5=[2f716b311059773e423aaf609326297d]
link Administrador to Editar Administrador--><g id="link_Administrador_Editar Administrador"><path d="M54.56,1108.1594 C70.63,1262.9694 129,1825.1094 129,1825.1094 C129,1825.1094 181.6,1837.0094 227.14,1847.3194 " fill="none" id="Administrador-to-Editar Administrador" style="stroke:#181818;stroke-width:1.0;"/><polygon fill="#181818" points="232.08,1848.4394,224.1821,1842.5553,227.2028,1847.3381,222.42,1850.3588,232.08,1848.4394" style="stroke:#181818;stroke-width:1.0;"/></g><!--MD5=[b0eded1e2fcccd6bdbdb5b28e0aa437c]
link Administrador to Eliminar Administrador--><g id="link_Administrador_Eliminar Administrador"><path d="M54.21,1108.3094 C69.77,1272.8294 129,1899.1094 129,1899.1094 C129,1899.1094 179.53,1910.8494 224.41,1921.2794 " fill="none" id="Administrador-to-Eliminar Administrador" style="stroke:#181818;stroke-width:1.0;"/><polygon fill="#181818" points="229.29,1922.4194,221.425,1916.4913,224.419,1921.2909,219.6194,1924.2849,229.29,1922.4194" style="stroke:#181818;stroke-width:1.0;"/></g><!--MD5=[d08544df0053c4cc895e366e4a0c15cf]
link Administrador to Realizar Petición--><g id="link_Administrador_Realizar Petición"><path d="M54,1030.0094 C69.23,859.8194 129,192.1094 129,192.1094 C129,192.1094 196,169.9794 244.22,154.0594 " fill="none" id="Administrador-to-Realizar Petición" style="stroke:#181818;stroke-width:1.0;"/><polygon fill="#181818" points="249.11,152.4394,239.3087,151.473,244.3637,154.0119,241.8248,159.067,249.11,152.4394" style="stroke:#181818;stroke-width:1.0;"/></g><!--MD5=[62e3120aa2dd303c068b588478619e7b]
@startuml Estructura

title Estructura de los Casos de Uso (Administrador)

skinparam {
    NoteBackgroundColor #whiteSmoke
    NoteBorderColor #green
    linetype polyline
}

left to right direction

actor Administrador

Administrador - -> (Consultar Estadísticas)

folder "Manejo de Usuario" as cuentas {
    Administrador - -> (Actualización de Datos del Usuario)
    Administrador - -> (Listar Datos del Usuario)
}

folder "Ingreso a Plataforma" as ingreso {
    Administrador - -> (Iniciar Sesión)
    Administrador - -> (Cerrar Sesión)
}

folder "CRD Suscripciones" as CRDSuscripciones {
    Administrador - -> (Listar Servicios / Paquetes de Servicios)
}

folder "CRUD Servicios" as CRUDServicios {
    Administrador - -> (Crear Servicio)
    Administrador - -> (Listar Servicios)
    Administrador - -> (Editar Servicio)
    Administrador - -> (Eliminar Servicio)
}

folder "CRUD Egresados" as CRUDEgresados {
    Administrador - -> (Crear Egresado)
    Administrador - -> (Listar Egresado)
    Administrador - -> (Editar Egresado)
    Administrador - -> (Eliminar Egresado)
}

folder "CRUD Paquetes" as CRUDPaquetes {
    Administrador - -> (Crear Paquete)
    Administrador - -> (Listar Paquete)
    Administrador - -> (Editar Paquete)
    Administrador - -> (Eliminar Paquete)
}

folder "CRUD Administradores" as CRUDAdministradores {
    Administrador - -> (Crear Administrador)
    Administrador - -> (Listar Administrador)
    Administrador - -> (Editar Administrador)
    Administrador - -> (Eliminar Administrador)
}

Administrador - -> (Realizar Petición)

@enduml

PlantUML version 1.2022.7(Mon Aug 22 19:01:30 CEST 2022)
(GPL source distribution)
Java Runtime: OpenJDK Runtime Environment
JVM: OpenJDK 64-Bit Server VM
Default Encoding: Cp1252
Language: es
Country: ES
--></g></svg>