<?xml version="1.0" encoding="UTF-8" standalone="no"?><svg xmlns="http://www.w3.org/2000/svg" xmlns:xlink="http://www.w3.org/1999/xlink" contentStyleType="text/css" height="677px" preserveAspectRatio="none" style="width:529px;height:677px;background:#FFFFFF;" version="1.1" viewBox="0 0 529 677" width="529px" zoomAndPan="magnify"><defs/><g><rect fill="none" height="26.0986" id="_title" style="stroke:none;stroke-width:1.0;" width="153" x="181.435" y="5"/><text fill="#000000" font-family="Arial" font-size="14" font-weight="bold" lengthAdjust="spacing" textLength="143" x="186.435" y="23.3608">Eliminar Suscripción</text><ellipse cx="184.87" cy="53.0986" fill="#222222" rx="10" ry="10" style="stroke:none;stroke-width:1.0;"/><g id="ValidarSolicitud"><rect fill="#F1F1F1" height="50" rx="12.5" ry="12.5" style="stroke:#181818;stroke-width:0.5;" width="117" x="126.37" y="139.0986"/><line style="stroke:#181818;stroke-width:0.5;" x1="126.37" x2="243.37" y1="165.1973" y2="165.1973"/><text fill="#000000" font-family="Arial" font-size="14" lengthAdjust="spacing" textLength="97" x="136.37" y="157.4595">ValidarSolicitud</text></g><g id="elem_ComprobarDatos"><polygon fill="#F1F1F1" points="184.87,265.0986,196.87,277.0986,184.87,289.0986,172.87,277.0986,184.87,265.0986" style="stroke:#181818;stroke-width:0.5;"/></g><g id="EliminarSuscripción"><rect fill="#F1F1F1" height="50" rx="12.5" ry="12.5" style="stroke:#181818;stroke-width:0.5;" width="143" x="58.37" y="525.0986"/><line style="stroke:#181818;stroke-width:0.5;" x1="58.37" x2="201.37" y1="551.1973" y2="551.1973"/><text fill="#000000" font-family="Arial" font-size="14" lengthAdjust="spacing" textLength="123" x="68.37" y="543.4595">EliminarSuscripción</text></g><g id="DarDeBaja"><rect fill="#F1F1F1" height="50" rx="12.5" ry="12.5" style="stroke:#181818;stroke-width:0.5;" width="89" x="174.37" y="365.0986"/><line style="stroke:#181818;stroke-width:0.5;" x1="174.37" x2="263.37" y1="391.1973" y2="391.1973"/><text fill="#000000" font-family="Arial" font-size="14" lengthAdjust="spacing" textLength="69" x="184.37" y="383.4595">DarDeBaja</text></g><g id="MostrarError"><rect fill="#F1F1F1" height="50" rx="12.5" ry="12.5" style="stroke:#181818;stroke-width:0.5;" width="100" x="300.87" y="445.0986"/><line style="stroke:#181818;stroke-width:0.5;" x1="300.87" x2="400.87" y1="471.1973" y2="471.1973"/><text fill="#000000" font-family="Arial" font-size="14" lengthAdjust="spacing" textLength="80" x="310.87" y="463.4595">MostrarError</text></g><ellipse cx="239.87" cy="661.0986" fill="none" rx="10" ry="10" style="stroke:#222222;stroke-width:1.0;"/><ellipse cx="240.37" cy="661.5986" fill="#222222" rx="6" ry="6" style="stroke:none;stroke-width:1.0;"/><!--MD5=[59aa4c735b4dc92cef84b98d54530b4b]
link *start to ValidarSolicitud--><g id="link_*start_ValidarSolicitud"><path d="M184.87,63.3886 C184.87,78.8086 184.87,110.2786 184.87,133.7686 " fill="none" id="*start-to-ValidarSolicitud" style="stroke:#181818;stroke-width:1.0;"/><polygon fill="#181818" points="184.87,138.9486,188.87,129.9486,184.87,133.9486,180.87,129.9486,184.87,138.9486" style="stroke:#181818;stroke-width:1.0;"/><text fill="#000000" font-family="Arial" font-size="13" lengthAdjust="spacing" textLength="139" x="185.87" y="106.5051">Solicitud de Eliminación</text></g><!--MD5=[fafcb34e4e79ebfc813e91d480af057e]
link ValidarSolicitud to ComprobarDatos--><g id="link_ValidarSolicitud_ComprobarDatos"><path d="M184.87,189.1886 C184.87,210.4486 184.87,240.8886 184.87,259.5286 " fill="none" id="ValidarSolicitud-to-ComprobarDatos" style="stroke:#181818;stroke-width:1.0;"/><polygon fill="#181818" points="184.87,264.9086,188.87,255.9086,184.87,259.9086,180.87,255.9086,184.87,264.9086" style="stroke:#181818;stroke-width:1.0;"/><text fill="#000000" font-family="Arial" font-size="13" lengthAdjust="spacing" textLength="116" x="185.87" y="232.5051">Validación de Datos</text></g><!--MD5=[69d4664dcb723cf389fe20f2d4d5a66a]
link ComprobarDatos to EliminarSuscripción--><g id="link_ComprobarDatos_EliminarSuscripción"><path d="M175.66,280.1586 C148.4,286.8086 68.11,310.5086 36.87,365.0986 C6,419.0586 59.82,484.4886 97.63,520.9886 " fill="none" id="ComprobarDatos-to-EliminarSuscripción" style="stroke:#181818;stroke-width:1.0;"/><polygon fill="#181818" points="101.69,524.8586,97.9323,515.7548,98.0697,521.41,92.4145,521.5474,101.69,524.8586" style="stroke:#181818;stroke-width:1.0;"/><text fill="#000000" font-family="Arial" font-size="13" lengthAdjust="spacing" textLength="118" x="37.87" y="395.5051">Suscripción Gratuita</text></g><!--MD5=[70b9c51f27001f82c07d7aeef6ed5d03]
link ComprobarDatos to DarDeBaja--><g id="link_ComprobarDatos_DarDeBaja"><path d="M182.58,286.8286 C179.99,298.2186 176.77,318.6286 181.87,335.0986 C184.65,344.0786 189.5,352.8886 194.78,360.6986 " fill="none" id="ComprobarDatos-to-DarDeBaja" style="stroke:#181818;stroke-width:1.0;"/><polygon fill="#181818" points="197.76,364.9386,195.8735,355.2721,194.8917,360.8431,189.3207,359.8614,197.76,364.9386" style="stroke:#181818;stroke-width:1.0;"/><text fill="#000000" font-family="Arial" font-size="13" lengthAdjust="spacing" textLength="124" x="182.87" y="332.5051">Suscripción Premium</text></g><!--MD5=[9f240337143f65f6436867c05fc154cd]
link ComprobarDatos to MostrarError--><g id="link_ComprobarDatos_MostrarError"><path d="M195.88,278.2886 C220.45,279.3286 280.07,285.3986 311.87,319.0986 C342.9,351.9786 350,406.3086 351.22,439.7686 " fill="none" id="ComprobarDatos-to-MostrarError" style="stroke:#181818;stroke-width:1.0;"/><polygon fill="#181818" points="351.36,444.9586,355.1013,435.8481,351.2172,439.9607,347.1046,436.0765,351.36,444.9586" style="stroke:#181818;stroke-width:1.0;"/><text fill="#000000" font-family="Arial" font-size="13" lengthAdjust="spacing" textLength="158" x="322.87" y="332.5051">Datos Enviados Incorrectos</text></g><!--MD5=[a4bc508b879bba568c607f8d327e2501]
link MostrarError to *end--><g id="link_MostrarError_*end"><path d="M344.94,495.3486 C336.41,526.7086 318.36,581.9286 288.87,621.0986 C278.92,634.3286 263.47,645.6086 252.59,652.5886 " fill="none" id="MostrarError-to-*end" style="stroke:#181818;stroke-width:1.0;"/><polygon fill="#181818" points="248.23,655.3086,257.9841,653.9454,252.474,652.6651,253.7543,647.155,248.23,655.3086" style="stroke:#181818;stroke-width:1.0;"/><text fill="#000000" font-family="Arial" font-size="13" lengthAdjust="spacing" textLength="186" x="335.87" y="555.5051">Se indican los datos incorrectos</text></g><!--MD5=[d8ec5a25e79098b9b596fbc68ef854bc]
link DarDeBaja to EliminarSuscripción--><g id="link_DarDeBaja_EliminarSuscripción"><path d="M174.29,403.1986 C153.29,411.3786 130.19,424.5486 117.87,445.0986 C104.32,467.7086 109.98,498.0786 117.43,520.1586 " fill="none" id="DarDeBaja-to-EliminarSuscripción" style="stroke:#181818;stroke-width:1.0;"/><polygon fill="#181818" points="119.14,525.0186,119.929,515.2014,117.4819,520.3016,112.3817,517.8544,119.14,525.0186" style="stroke:#181818;stroke-width:1.0;"/><text fill="#000000" font-family="Arial" font-size="13" lengthAdjust="spacing" textLength="164" x="118.87" y="475.5051">Se da de baja la suscripción</text></g><!--MD5=[4ea584f58109c3da8ae7705cc032d087]
link EliminarSuscripción to *end--><g id="link_EliminarSuscripción_*end"><path d="M139.69,575.3086 C146.52,589.8986 156.74,608.1086 169.87,621.0986 C186.22,637.2686 210.65,648.8186 225.9,654.9686 " fill="none" id="EliminarSuscripción-to-*end" style="stroke:#181818;stroke-width:1.0;"/><polygon fill="#181818" points="230.7,656.8486,223.7845,649.8361,226.0459,655.0213,220.8607,657.2826,230.7,656.8486" style="stroke:#181818;stroke-width:1.0;"/><text fill="#000000" font-family="Arial" font-size="13" lengthAdjust="spacing" textLength="113" x="170.87" y="618.5051">Suscripción Creada</text></g><!--MD5=[09d7ecd28b4bf448435ddb51382792e7]
@startuml

title Eliminar Suscripción

skinparam defaultFontName Arial
top to bottom direction

[*] - -> ValidarSolicitud : Solicitud de Eliminación
state ComprobarDatos <<choice>>
ValidarSolicitud - -> ComprobarDatos : Validación de Datos
ComprobarDatos - -> EliminarSuscripción : Suscripción Gratuita
ComprobarDatos - -> DarDeBaja : Suscripción Premium
ComprobarDatos - -> MostrarError : Datos Enviados Incorrectos
MostrarError - -> [*] : Se indican los datos incorrectos
DarDeBaja - -> EliminarSuscripción : Se da de baja la suscripción

EliminarSuscripción - -> [*] : Suscripción Creada


@enduml

PlantUML version 1.2022.7(Mon Aug 22 19:01:30 CEST 2022)
(GPL source distribution)
Java Runtime: Java(TM) SE Runtime Environment
JVM: Java HotSpot(TM) Client VM
Default Encoding: Cp1252
Language: es
Country: ES
--></g></svg>