<?xml version="1.0" encoding="UTF-8" standalone="no"?><svg xmlns="http://www.w3.org/2000/svg" xmlns:xlink="http://www.w3.org/1999/xlink" contentStyleType="text/css" height="504px" preserveAspectRatio="none" style="width:429px;height:504px;background:#FFFFFF;" version="1.1" viewBox="0 0 429 504" width="429px" zoomAndPan="magnify"><defs/><g><rect fill="none" height="27.6094" id="_title" style="stroke:none;stroke-width:1.0;" width="176" x="116.5" y="5"/><text fill="#000000" font-family="sans-serif" font-size="14" font-weight="bold" lengthAdjust="spacing" textLength="166" x="121.5" y="24.5332">Listar datos del Usuario</text><rect fill="#F1F1F1" height="40" rx="12.5" ry="12.5" style="stroke:#181818;stroke-width:0.5;" width="115" x="154" y="45.6094"/><text fill="#000000" font-family="sans-serif" font-size="14" lengthAdjust="spacing" textLength="105" x="159" y="71.3379">CONFIGURCION</text><path d="M19.5,197.6094 L403.5,197.6094 A12.5,12.5 0 0 1 416,210.1094 L416,225.2188 L7,225.2188 L7,210.1094 A12.5,12.5 0 0 1 19.5,197.6094 " fill="#F1F1F1" style="stroke:#F1F1F1;stroke-width:1.0;"/><rect fill="none" height="300.6094" rx="12.5" ry="12.5" style="stroke:#181818;stroke-width:0.5;" width="409" x="7" y="197.6094"/><line style="stroke:#181818;stroke-width:0.5;" x1="7" x2="416" y1="225.2188" y2="225.2188"/><text fill="#000000" font-family="sans-serif" font-size="14" lengthAdjust="spacing" textLength="120" x="151.5" y="217.1426">ListarDatosUsuario</text><rect fill="#F1F1F1" height="40" rx="12.5" ry="12.5" style="stroke:#181818;stroke-width:0.5;" width="50" x="19" y="334.2188"/><text fill="#000000" font-family="sans-serif" font-size="14" lengthAdjust="spacing" textLength="4" x="42" y="359.9473"> </text><ellipse cx="160" cy="246.2188" fill="#222222" rx="10" ry="10" style="stroke:none;stroke-width:1.0;"/><ellipse cx="160" cy="478.2188" fill="none" rx="10" ry="10" style="stroke:#222222;stroke-width:1.0;"/><ellipse cx="160.5" cy="478.7188" fill="#222222" rx="6" ry="6" style="stroke:none;stroke-width:1.0;"/><!--MD5=[1c13e1a708ae36c9088354bb0841b606]
link *start*ListarDatosUsuario to *end*ListarDatosUsuario--><g id="link_*start*ListarDatosUsuario_*end*ListarDatosUsuario"><path d="M169.69,249.7088 C195.68,256.3988 265,274.2188 265,274.2188 C265,274.2188 265,450.2188 265,450.2188 C265,450.2188 203.57,466.0188 174.68,473.4388 " fill="none" id="*start*ListarDatosUsuario-to-*end*ListarDatosUsuario" style="stroke:#008000;stroke-width:1.0;"/><polygon fill="#008000" points="169.69,474.7288,179.4018,476.366,174.5331,473.4858,177.4132,468.6171,169.69,474.7288" style="stroke:#008000;stroke-width:1.0;"/><path d="M270,333.2188 L270,375.2188 L407,375.2188 L407,343.2188 L397,333.2188 L270,333.2188 " fill="#F5F5F5" style="stroke:#181818;stroke-width:0.5;"/><path d="M397,333.2188 L397,343.2188 L407,343.2188 L397,333.2188 " fill="#F5F5F5" style="stroke:#181818;stroke-width:0.5;"/><text fill="#000000" font-family="sans-serif" font-size="13" font-weight="bold" lengthAdjust="spacing" textLength="105" x="276" y="351.7139">Sistema Muestra</text><ellipse cx="281.5" cy="363.4219" fill="#000000" rx="2.5" ry="2.5" style="stroke:#000000;stroke-width:0.0;"/><text fill="#000000" font-family="sans-serif" font-size="13" lengthAdjust="spacing" textLength="103" x="289" y="368.0654">Datos del Usuario</text></g><!--MD5=[874629c454539b285d41946e91064482]
link *start*ListarDatosUsuario to 2--><g id="link_*start*ListarDatosUsuario_2"><path d="M150.31,249.7088 C124.32,256.3988 55,274.2188 55,274.2188 C55,274.2188 50.61,305.7587 47.37,328.9888 " fill="none" id="*start*ListarDatosUsuario-to-2" style="stroke:#FF0000;stroke-width:1.0;"/><polygon fill="#FF0000" points="46.66,334.0988,51.8791,325.7465,47.3591,329.1479,43.9577,324.6279,46.66,334.0988" style="stroke:#FF0000;stroke-width:1.0;"/><path d="M60,279.2188 L60,305.2188 L260,305.2188 L260,289.2188 L250,279.2188 L60,279.2188 " fill="#F5F5F5" style="stroke:#181818;stroke-width:0.5;"/><path d="M250,279.2188 L250,289.2188 L260,289.2188 L250,279.2188 " fill="#F5F5F5" style="stroke:#181818;stroke-width:0.5;"/><text fill="#000000" font-family="sans-serif" font-size="13" lengthAdjust="spacing" textLength="179" x="66" y="297.7139">Error al listar datos del Usuario</text></g><!--MD5=[968e8cef3f4163e3f9f793d09fb31aad]
link 2 to *end*ListarDatosUsuario--><g id="link_2_*end*ListarDatosUsuario"><path d="M43.11,374.4588 C42.57,385.9088 42,398.2188 42,398.2188 C42,398.2188 42,450.2188 42,450.2188 C42,450.2188 113.63,466.6088 145.28,473.8488 " fill="none" id="2-to-*end*ListarDatosUsuario" style="stroke:#FF0000;stroke-width:1.0;"/><polygon fill="#FF0000" points="150.34,475.0087,142.4585,469.1026,145.4659,473.8938,140.6747,476.9012,150.34,475.0087" style="stroke:#FF0000;stroke-width:1.0;"/><path d="M47,403.2188 L47,445.2188 L260,445.2188 L260,413.2188 L250,403.2188 L47,403.2188 " fill="#F5F5F5" style="stroke:#181818;stroke-width:0.5;"/><path d="M250,403.2188 L250,413.2188 L260,413.2188 L250,403.2188 " fill="#F5F5F5" style="stroke:#181818;stroke-width:0.5;"/><text fill="#000000" font-family="sans-serif" font-size="13" font-weight="bold" lengthAdjust="spacing" textLength="105" x="53" y="421.7139">Sistema Muestra</text><ellipse cx="58.5" cy="433.4219" fill="#000000" rx="2.5" ry="2.5" style="stroke:#000000;stroke-width:0.0;"/><text fill="#000000" font-family="sans-serif" font-size="13" lengthAdjust="spacing" textLength="179" x="66" y="438.0654">Error al listar datos del Usuario</text></g><!--MD5=[30a74583a9be446bca55ccb2f0e0541a]
link startState to ListarDatosUsuario--><g id="link_startState_ListarDatosUsuario"><path d="M211.5,85.8894 C211.5,108.8994 211.5,149.6594 211.5,192.2194 " fill="none" id="startState-to-ListarDatosUsuario" style="stroke:#008000;stroke-width:1.0;"/><polygon fill="#008000" points="211.5,197.4194,215.5,188.4194,211.5,192.4194,207.5,188.4194,211.5,197.4194" style="stroke:#008000;stroke-width:1.0;"/><path d="M216.5,120.6094 L216.5,162.6094 L387.5,162.6094 L387.5,130.6094 L377.5,120.6094 L216.5,120.6094 " fill="#F5F5F5" style="stroke:#181818;stroke-width:0.5;"/><path d="M377.5,120.6094 L377.5,130.6094 L387.5,130.6094 L377.5,120.6094 " fill="#F5F5F5" style="stroke:#181818;stroke-width:0.5;"/><text fill="#000000" font-family="sans-serif" font-size="13" font-weight="bold" lengthAdjust="spacing" textLength="100" x="222.5" y="139.1045">Usuario Solicita</text><ellipse cx="228" cy="150.8125" fill="#000000" rx="2.5" ry="2.5" style="stroke:#000000;stroke-width:0.0;"/><text fill="#000000" font-family="sans-serif" font-size="13" lengthAdjust="spacing" textLength="137" x="235.5" y="155.4561">Listar datos del Usuario</text></g><!--MD5=[b9f0009ab30bcb7bb212fb369b53404d]
@startuml

title Listar datos del Usuario

skinparam {
    NoteBackgroundColor #whiteSmoke
    ArrowColor #green
    NoteBorderColor #green
    linetype polyline
}

hide empty description

state startState as "CONFIGURCION"

startState - -> ListarDatosUsuario
note on link
    <b>Usuario Solicita</b>
    * Listar datos del Usuario
end note

state ListarDatosUsuario {
    state 2 as " "
    [*] - -> [*] 
    note on link
        <b>Sistema Muestra</b>
        * Datos del Usuario
    end note

    [*] -[#red]-> 2
    note on link
        Error al listar datos del Usuario
    end note

    2 -[#red]-> [*]
    note on link
        <b>Sistema Muestra</b>
        * Error al listar datos del Usuario
    end note


}

@enduml

PlantUML version 1.2022.7(Mon Aug 22 19:01:30 CEST 2022)
(GPL source distribution)
Java Runtime: Java(TM) SE Runtime Environment
JVM: Java HotSpot(TM) 64-Bit Server VM
Default Encoding: Cp1252
Language: es
Country: ES
--></g></svg>