<?xml version="1.0" encoding="UTF-8" standalone="no"?><svg xmlns="http://www.w3.org/2000/svg" xmlns:xlink="http://www.w3.org/1999/xlink" contentStyleType="text/css" height="517px" preserveAspectRatio="none" style="width:434px;height:517px;background:#FFFFFF;" version="1.1" viewBox="0 0 434 517" width="434px" zoomAndPan="magnify"><defs/><g><rect fill="none" height="29.0679" id="_title" style="stroke:none;stroke-width:1.0;" width="175" x="119.5" y="5"/><text fill="#000000" font-family="sans-serif" font-size="14" font-weight="bold" lengthAdjust="spacing" textLength="165" x="124.5" y="24.9659">Listar datos del Usuario</text><rect fill="#F1F1F1" height="40" rx="12.5" ry="12.5" style="stroke:#181818;stroke-width:0.5;" width="60" x="184" y="47.0679"/><text fill="#000000" font-family="sans-serif" font-size="14" lengthAdjust="spacing" textLength="50" x="189" y="72.4999">INITIAL</text><path d="M19.5,202.0679 L408.5,202.0679 A12.5,12.5 0 0 1 421,214.5679 L421,231.1358 L7,231.1358 L7,214.5679 A12.5,12.5 0 0 1 19.5,202.0679 " fill="#F1F1F1" style="stroke:#F1F1F1;stroke-width:1.0;"/><rect fill="none" height="309.0679" rx="12.5" ry="12.5" style="stroke:#181818;stroke-width:0.5;" width="414" x="7" y="202.0679"/><line style="stroke:#181818;stroke-width:0.5;" x1="7" x2="421" y1="231.1358" y2="231.1358"/><text fill="#000000" font-family="sans-serif" font-size="14" lengthAdjust="spacing" textLength="127" x="150.5" y="222.0339">ListarDatosUsuario</text><rect fill="#F1F1F1" height="40" rx="12.5" ry="12.5" style="stroke:#181818;stroke-width:0.5;" width="50" x="19" y="342.6358"/><text fill="#000000" font-family="sans-serif" font-size="14" lengthAdjust="spacing" textLength="4" x="42" y="368.0678"> </text><ellipse cx="161" cy="252.1358" fill="#222222" rx="10" ry="10" style="stroke:none;stroke-width:1.0;"/><ellipse cx="161" cy="491.1358" fill="none" rx="10" ry="10" style="stroke:#222222;stroke-width:1.0;"/><ellipse cx="161.5" cy="491.6358" fill="#222222" rx="6" ry="6" style="stroke:none;stroke-width:1.0;"/><!--MD5=[1c13e1a708ae36c9088354bb0841b606]
link *start*ListarDatosUsuario to *end*ListarDatosUsuario--><g id="link_*start*ListarDatosUsuario_*end*ListarDatosUsuario"><path d="M170.87,255.6258 C197.36,262.3158 268,280.1358 268,280.1358 C268,280.1358 268,463.1358 268,463.1358 C268,463.1358 206.95,478.5458 177.08,486.0758 " fill="none" id="*start*ListarDatosUsuario-to-*end*ListarDatosUsuario" style="stroke:#008000;stroke-width:1.0;"/><polygon fill="#008000" points="172.34,487.2758,182.0473,488.9399,177.1865,486.0463,180.0801,481.1856,172.34,487.2758" style="stroke:#008000;stroke-width:1.0;"/><path d="M273,340.1358 L273,385.1358 L412,385.1358 L412,350.1358 L402,340.1358 L273,340.1358 " fill="#F5F5F5" style="stroke:#181818;stroke-width:0.5;"/><path d="M402,340.1358 L402,350.1358 L412,350.1358 L402,340.1358 " fill="#F5F5F5" style="stroke:#181818;stroke-width:0.5;"/><text fill="#000000" font-family="sans-serif" font-size="13" font-weight="bold" lengthAdjust="spacing" textLength="110" x="279" y="359.0328">Sistema Muestra</text><ellipse cx="284.5" cy="373.0479" fill="#000000" rx="2.5" ry="2.5" style="stroke:#000000;stroke-width:0.0;"/><text fill="#000000" font-family="sans-serif" font-size="13" lengthAdjust="spacing" textLength="106" x="291" y="376.7389">Datos del Usuario</text></g><!--MD5=[874629c454539b285d41946e91064482]
link *start*ListarDatosUsuario to 2--><g id="link_*start*ListarDatosUsuario_2"><path d="M151.13,255.6258 C124.64,262.3158 54,280.1358 54,280.1358 C54,280.1358 50.06,312.2258 47.13,336.1358 " fill="none" id="*start*ListarDatosUsuario-to-2" style="stroke:#FF0000;stroke-width:1.0;"/><polygon fill="#FF0000" points="46.55,340.8158,51.6025,332.3617,47.1508,335.8521,43.6604,331.4004,46.55,340.8158" style="stroke:#FF0000;stroke-width:1.0;"/><path d="M59,285.1358 L59,312.1358 L263,312.1358 L263,295.1358 L253,285.1358 L59,285.1358 " fill="#F5F5F5" style="stroke:#181818;stroke-width:0.5;"/><path d="M253,285.1358 L253,295.1358 L263,295.1358 L253,285.1358 " fill="#F5F5F5" style="stroke:#181818;stroke-width:0.5;"/><text fill="#000000" font-family="sans-serif" font-size="13" lengthAdjust="spacing" textLength="183" x="65" y="304.0328">Error al listar datos del Usuario</text></g><!--MD5=[968e8cef3f4163e3f9f793d09fb31aad]
link 2 to *end*ListarDatosUsuario--><g id="link_2_*end*ListarDatosUsuario"><path d="M43.13,383.0258 C42.59,395.0158 42,408.1358 42,408.1358 C42,408.1358 42,463.1358 42,463.1358 C42,463.1358 112.46,479.1258 144.95,486.4958 " fill="none" id="2-to-*end*ListarDatosUsuario" style="stroke:#FF0000;stroke-width:1.0;"/><polygon fill="#FF0000" points="149.79,487.5958,141.9048,481.6947,144.9152,486.484,140.1259,489.4944,149.79,487.5958" style="stroke:#FF0000;stroke-width:1.0;"/><path d="M47,413.1358 L47,458.1358 L263,458.1358 L263,423.1358 L253,413.1358 L47,413.1358 " fill="#F5F5F5" style="stroke:#181818;stroke-width:0.5;"/><path d="M253,413.1358 L253,423.1358 L263,423.1358 L253,413.1358 " fill="#F5F5F5" style="stroke:#181818;stroke-width:0.5;"/><text fill="#000000" font-family="sans-serif" font-size="13" font-weight="bold" lengthAdjust="spacing" textLength="110" x="53" y="432.0328">Sistema Muestra</text><ellipse cx="58.5" cy="446.0479" fill="#000000" rx="2.5" ry="2.5" style="stroke:#000000;stroke-width:0.0;"/><text fill="#000000" font-family="sans-serif" font-size="13" lengthAdjust="spacing" textLength="183" x="65" y="449.7389">Error al listar datos del Usuario</text></g><!--MD5=[30a74583a9be446bca55ccb2f0e0541a]
link startState to ListarDatosUsuario--><g id="link_startState_ListarDatosUsuario"><path d="M214,87.3779 C214,110.6079 214,151.8979 214,195.2379 " fill="none" id="startState-to-ListarDatosUsuario" style="stroke:#008000;stroke-width:1.0;"/><polygon fill="#008000" points="214,200.1279,218,191.1279,214,195.1279,210,191.1279,214,200.1279" style="stroke:#008000;stroke-width:1.0;"/><path d="M219,122.0679 L219,167.0679 L393,167.0679 L393,132.0679 L383,122.0679 L219,122.0679 " fill="#F5F5F5" style="stroke:#181818;stroke-width:0.5;"/><path d="M383,122.0679 L383,132.0679 L393,132.0679 L383,122.0679 " fill="#F5F5F5" style="stroke:#181818;stroke-width:0.5;"/><text fill="#000000" font-family="sans-serif" font-size="13" font-weight="bold" lengthAdjust="spacing" textLength="102" x="225" y="140.9649">Usuario Solicita</text><ellipse cx="230.5" cy="154.9799" fill="#000000" rx="2.5" ry="2.5" style="stroke:#000000;stroke-width:0.0;"/><text fill="#000000" font-family="sans-serif" font-size="13" lengthAdjust="spacing" textLength="141" x="237" y="158.6709">Listar datos del Usuario</text></g><!--MD5=[552fe502f0b12df0d36d127fd201259d]
@startuml

title Listar datos del Usuario

skinparam {
    NoteBackgroundColor #whiteSmoke
    ArrowColor #green
    NoteBorderColor #green
    linetype polyline
}

hide empty description

state startState as "INITIAL"

startState - -> ListarDatosUsuario
note on link
    <b>Usuario Solicita</b>
    * Listar datos del Usuario
end note

state ListarDatosUsuario {
    state 2 as " "
    [*] - -> [*] 
    note on link
        <b>Sistema Muestra</b>
        * Datos del Usuario
    end note

    [*] -[#red]-> 2
    note on link
        Error al listar datos del Usuario
    end note

    2 -[#red]-> [*]
    note on link
        <b>Sistema Muestra</b>
        * Error al listar datos del Usuario
    end note


}

@enduml

PlantUML version 1.2022.7(Mon Aug 22 19:01:30 CEST 2022)
(GPL source distribution)
Java Runtime: OpenJDK Runtime Environment
JVM: OpenJDK 64-Bit Server VM
Default Encoding: UTF-8
Language: es
Country: ES
--></g></svg>