<?xml version="1.0" encoding="us-ascii" standalone="no"?><svg xmlns="http://www.w3.org/2000/svg" xmlns:xlink="http://www.w3.org/1999/xlink" contentStyleType="text/css" height="496px" preserveAspectRatio="none" style="width:512px;height:496px;background:#FFFFFF;" version="1.1" viewBox="0 0 512 496" width="512px" zoomAndPan="magnify"><defs/><g><text fill="#000000" font-family="sans-serif" font-size="14" font-weight="bold" lengthAdjust="spacing" textLength="230" x="131" y="22.9951">Listar Paquetes de Servicios</text><rect fill="#F1F1F1" height="40" rx="12.5" ry="12.5" style="stroke:#181818;stroke-width:0.5;" width="59" x="223.5" y="44.2969"/><text fill="#000000" font-family="sans-serif" font-size="14" lengthAdjust="spacing" textLength="49" x="228.5" y="69.1436">INITIAL</text><path d="M19.5,194.2969 L486.5,194.2969 A12.5,12.5 0 0 1 499,206.7969 L499,220.5938 L7,220.5938 L7,206.7969 A12.5,12.5 0 0 1 19.5,194.2969 " fill="#F1F1F1" style="stroke:#F1F1F1;stroke-width:1.0;"/><rect fill="none" height="296.2969" rx="12.5" ry="12.5" style="stroke:#181818;stroke-width:0.5;" width="492" x="7" y="194.2969"/><line style="stroke:#181818;stroke-width:0.5;" x1="7" x2="499" y1="220.5938" y2="220.5938"/><text fill="#000000" font-family="sans-serif" font-size="14" lengthAdjust="spacing" textLength="190" x="158" y="212.292">ListarPaquetesDeServicios</text><rect fill="#F1F1F1" height="40" rx="12.5" ry="12.5" style="stroke:#181818;stroke-width:0.5;" width="50" x="19" y="327.5938"/><text fill="#000000" font-family="sans-serif" font-size="14" lengthAdjust="spacing" textLength="4" x="42" y="352.4404">&#160;</text><ellipse cx="186" cy="241.5938" fill="#222222" rx="10" ry="10" style="stroke:#222222;stroke-width:1.0;"/><ellipse cx="183" cy="469.5938" fill="none" rx="11" ry="11" style="stroke:#222222;stroke-width:1.0;"/><ellipse cx="183" cy="469.5938" fill="#222222" rx="6" ry="6" style="stroke:#222222;stroke-width:1.0;"/><!--link *start*ListarPaquetesDeServicios to *end*ListarPaquetesDeServicios--><g id="link_*start*ListarPaquetesDeServicios_*end*ListarPaquetesDeServicios"><path d="M195.809,244.7128 C225.276,251.0778 311,269.5938 311,269.5938 C311,269.5938 311,440.5938 311,440.5938 C311,440.5938 230.7284,458.1532 199.7744,464.9243 " fill="none" id="*start*ListarPaquetesDeServicios-to-*end*ListarPaquetesDeServicios" style="stroke:#008000;stroke-width:1.0;"/><polygon fill="#008000" points="193.913,466.2065,203.5599,468.1908,198.7975,465.138,201.8503,460.3756,193.913,466.2065" style="stroke:#008000;stroke-width:1.0;"/><path d="M316,327.5938 L316,367.5938 L490,367.5938 L490,337.5938 L480,327.5938 L316,327.5938 " fill="#F5F5F5" style="stroke:#008000;stroke-width:0.5;"/><path d="M480,327.5938 L480,337.5938 L490,337.5938 L480,327.5938 " fill="#F5F5F5" style="stroke:#008000;stroke-width:0.5;"/><text fill="#000000" font-family="sans-serif" font-size="13" font-weight="bold" lengthAdjust="spacing" textLength="129" x="322" y="344.6606">Sistema Muestra</text><ellipse cx="327.5" cy="355.3594" fill="#000000" rx="2.5" ry="2.5" style="stroke:#000000;stroke-width:0.0;"/><text fill="#000000" font-family="sans-serif" font-size="13" lengthAdjust="spacing" textLength="141" x="334" y="359.7935">Paquetes de Servicios</text></g><!--link *start*ListarPaquetesDeServicios to 2--><g id="link_*start*ListarPaquetesDeServicios_2"><path d="M176.079,244.6228 C145.38,250.9028 54,269.5938 54,269.5938 C54,269.5938 50.2059,298.8077 47.2446,321.6097 " fill="none" id="*start*ListarPaquetesDeServicios-to-2" style="stroke:#FF0000;stroke-width:1.0;"/><polygon fill="#FF0000" points="46.4719,327.5598,51.5977,319.1499,47.1158,322.6014,43.6643,318.1195,46.4719,327.5598" style="stroke:#FF0000;stroke-width:1.0;"/><path d="M59,274.5938 L59,299.5938 L306,299.5938 L306,284.5938 L296,274.5938 L59,274.5938 " fill="#F5F5F5" style="stroke:#008000;stroke-width:0.5;"/><path d="M296,274.5938 L296,284.5938 L306,284.5938 L296,274.5938 " fill="#F5F5F5" style="stroke:#008000;stroke-width:0.5;"/><text fill="#000000" font-family="sans-serif" font-size="13" lengthAdjust="spacing" textLength="226" x="65" y="291.6606">Error al listar paquetes de Servicios</text></g><!--link 2 to *end*ListarPaquetesDeServicios--><g id="link_2_*end*ListarPaquetesDeServicios"><path d="M43.0936,367.6278 C42.5645,378.7398 42,390.5938 42,390.5938 C42,390.5938 42,440.5938 42,440.5938 C42,440.5938 133.7259,458.8088 166.5169,465.3205 " fill="none" id="2-to-*end*ListarPaquetesDeServicios" style="stroke:#FF0000;stroke-width:1.0;"/><polygon fill="#FF0000" points="172.402,466.4892,164.3535,460.8128,167.4978,465.5153,162.7953,468.6595,172.402,466.4892" style="stroke:#FF0000;stroke-width:1.0;"/><path d="M47,395.5938 L47,435.5938 L306,435.5938 L306,405.5938 L296,395.5938 L47,395.5938 " fill="#F5F5F5" style="stroke:#008000;stroke-width:0.5;"/><path d="M296,395.5938 L296,405.5938 L306,405.5938 L296,395.5938 " fill="#F5F5F5" style="stroke:#008000;stroke-width:0.5;"/><text fill="#000000" font-family="sans-serif" font-size="13" font-weight="bold" lengthAdjust="spacing" textLength="129" x="53" y="412.6606">Sistema Muestra</text><ellipse cx="58.5" cy="423.3594" fill="#000000" rx="2.5" ry="2.5" style="stroke:#000000;stroke-width:0.0;"/><text fill="#000000" font-family="sans-serif" font-size="13" lengthAdjust="spacing" textLength="226" x="65" y="427.7935">Error al listar Paquetes de Servicios</text></g><!--link startState to ListarPaquetesDeServicios--><g id="link_startState_ListarPaquetesDeServicios"><path d="M253,84.7049 C253,108.3859 253,144.6739 253,188.1759 " fill="none" id="startState-to-ListarPaquetesDeServicios" style="stroke:#008000;stroke-width:1.0;"/><polygon fill="#008000" points="253,194.1759,257,185.1759,253,189.1759,249,185.1759,253,194.1759" style="stroke:#008000;stroke-width:1.0;"/><path d="M258,119.2969 L258,159.2969 L471,159.2969 L471,129.2969 L461,119.2969 L258,119.2969 " fill="#F5F5F5" style="stroke:#008000;stroke-width:0.5;"/><path d="M461,119.2969 L461,129.2969 L471,129.2969 L461,119.2969 " fill="#F5F5F5" style="stroke:#008000;stroke-width:0.5;"/><text fill="#000000" font-family="sans-serif" font-size="13" font-weight="bold" lengthAdjust="spacing" textLength="169" x="264" y="136.3638">Administrador Solicita</text><ellipse cx="269.5" cy="147.0625" fill="#000000" rx="2.5" ry="2.5" style="stroke:#000000;stroke-width:0.0;"/><text fill="#000000" font-family="sans-serif" font-size="13" lengthAdjust="spacing" textLength="180" x="276" y="151.4966">Listar Paquetes de Servicios</text></g><!--SRC=[fP5FQy904CNl-oa6lGbIo5a4- -SWM2caD_6mPWTTakocax4IYj-zisjYIgr5C9TavytE-xq9MouG5hPcJV2cF_R8M8D1I94-RMPzhLITMrTfqYLyAP1dwHaVTPPloU-TUVA59nWUTfOnBNsEiMT6v0-jj2L4rz_qP90kfC8wvAP2g7pHX8CwAhMpGe9bnOqWrHdPYgrtGiIQ4G8pf_5Jrp2OB-VlyzbY4ELE68-dRRekt3FsqPpmW7V1F8yKayrqPahhv0Pf8uIfBwILzUHXCuqTe_-NXSv0cDenNlLkTtdgIc806CJIQhIEsE4T2nUKBMagix7KyBh7W7j6F67-pHUqdl5ijneIchMO9jSTN-IN4kX2gd41rOq6oO_nOdP7fDy4jqHKnsy0]--></g></svg>