<?xml version="1.0" encoding="us-ascii" standalone="no"?><svg xmlns="http://www.w3.org/2000/svg" xmlns:xlink="http://www.w3.org/1999/xlink" contentStyleType="text/css" height="1026px" preserveAspectRatio="none" style="width:767px;height:1026px;background:#FFFFFF;" version="1.1" viewBox="0 0 767 1026" width="767px" zoomAndPan="magnify"><defs/><g><ellipse cx="380.5" cy="16" fill="#222222" rx="10" ry="10" style="stroke:#222222;stroke-width:1.0;"/><path d="M246,86 L514.5,86 A12.5,12.5 0 0 1 527,98.5 L527,112.2969 L233.5,112.2969 L233.5,98.5 A12.5,12.5 0 0 1 246,86 " fill="#F1F1F1" style="stroke:#F1F1F1;stroke-width:1.0;"/><rect fill="none" height="617.2969" rx="12.5" ry="12.5" style="stroke:#181818;stroke-width:0.5;" width="293.5" x="233.5" y="86"/><line style="stroke:#181818;stroke-width:0.5;" x1="233.5" x2="527" y1="112.2969" y2="112.2969"/><text fill="#000000" font-family="sans-serif" font-size="14" lengthAdjust="spacing" textLength="170" x="295.25" y="103.9951">RegistrandoseEnAlumni</text><ellipse cx="312" cy="133.2969" fill="#222222" rx="10" ry="10" style="stroke:#222222;stroke-width:1.0;"/><g id="RegistrandoseEnAlumni.AjenoAlSistema"><rect fill="#F1F1F1" height="50" rx="12.5" ry="12.5" style="stroke:#181818;stroke-width:0.5;" width="133" x="245.5" y="180.2969"/><line style="stroke:#181818;stroke-width:0.5;" x1="245.5" x2="378.5" y1="206.5938" y2="206.5938"/><text fill="#000000" font-family="sans-serif" font-size="14" lengthAdjust="spacing" textLength="113" x="255.5" y="198.292">AjenoAlSistema</text></g><g id="elem_accion"><polygon fill="#F1F1F1" points="312,283.2969,324,295.2969,312,307.2969,300,295.2969,312,283.2969" style="stroke:#181818;stroke-width:0.5;"/></g><ellipse cx="276" cy="565.2969" fill="none" rx="11" ry="11" style="stroke:#222222;stroke-width:1.0;"/><ellipse cx="276" cy="565.2969" fill="#222222" rx="6" ry="6" style="stroke:#222222;stroke-width:1.0;"/><g id="RegistrandoseEnAlumni.IdentificandoUsuario"><rect fill="#F1F1F1" height="50" rx="12.5" ry="12.5" style="stroke:#181818;stroke-width:0.5;" width="166" x="304" y="360.2969"/><line style="stroke:#181818;stroke-width:0.5;" x1="304" x2="470" y1="386.5938" y2="386.5938"/><text fill="#000000" font-family="sans-serif" font-size="14" lengthAdjust="spacing" textLength="146" x="314" y="378.292">IdentificandoUsuario</text></g><g id="elem_accion1"><polygon fill="#F1F1F1" points="387,463.2969,399,475.2969,387,487.2969,375,475.2969,387,463.2969" style="stroke:#181818;stroke-width:0.5;"/></g><g id="RegistrandoseEnAlumni.RellenandoFormulario"><rect fill="#F1F1F1" height="50" rx="12.5" ry="12.5" style="stroke:#181818;stroke-width:0.5;" width="176" x="305" y="540.2969"/><line style="stroke:#181818;stroke-width:0.5;" x1="305" x2="481" y1="566.5938" y2="566.5938"/><text fill="#000000" font-family="sans-serif" font-size="14" lengthAdjust="spacing" textLength="156" x="315" y="558.292">RellenandoFormulario</text></g><g id="RegistrandoseEnAlumni.UsuarioAlumni"><rect fill="#F1F1F1" height="50" rx="12.5" ry="12.5" style="stroke:#181818;stroke-width:0.5;" width="120" x="333" y="643.2969"/><line style="stroke:#181818;stroke-width:0.5;" x1="333" x2="453" y1="669.5938" y2="669.5938"/><text fill="#000000" font-family="sans-serif" font-size="14" lengthAdjust="spacing" textLength="100" x="343" y="661.292">UsuarioAlumni</text></g><!--link *start*RegistrandoseEnAlumni to AjenoAlSistema--><g id="link_*start*RegistrandoseEnAlumni_AjenoAlSistema"><path d="M312,143.4479 C312,152.7129 312,161.4379 312,174.0809 " fill="none" id="*start*RegistrandoseEnAlumni-to-AjenoAlSistema" style="stroke:#181818;stroke-width:1.0;"/><polygon fill="#181818" points="312,180.0809,316,171.0809,312,175.0809,308,171.0809,312,180.0809" style="stroke:#181818;stroke-width:1.0;"/></g><!--link AjenoAlSistema to accion--><g id="link_AjenoAlSistema_accion"><path d="M312,230.3429 C312,247.4419 312,263.6409 312,276.8829 " fill="none" id="AjenoAlSistema-to-accion" style="stroke:#181818;stroke-width:1.0;"/><polygon fill="#181818" points="312,282.8829,316,273.8829,312,277.8829,308,273.8829,312,282.8829" style="stroke:#181818;stroke-width:1.0;"/><text fill="#000000" font-family="sans-serif" font-size="13" lengthAdjust="spacing" textLength="193" x="313" y="261.3638">quiere formar parte de alumni</text></g><!--link accion to *end*RegistrandoseEnAlumni--><g id="link_accion_*end*RegistrandoseEnAlumni"><path d="M309.2264,304.8899 C305.4053,317.0789 298.5881,340.1499 295,360.2969 C281.9028,433.8369 277.7387,518.0033 276.5822,548.0313 " fill="none" id="accion-to-*end*RegistrandoseEnAlumni" style="stroke:#181818;stroke-width:1.0;"/><polygon fill="#181818" points="276.3513,554.0269,280.6947,545.1875,276.5437,549.0306,272.7006,544.8796,276.3513,554.0269" style="stroke:#181818;stroke-width:1.0;"/><text fill="#000000" font-family="sans-serif" font-size="13" lengthAdjust="spacing" textLength="16" x="287" y="441.3638">no</text></g><!--link accion to IdentificandoUsuario--><g id="link_accion_IdentificandoUsuario"><path d="M317.1551,302.3459 C327.1497,314.0729 345.762,335.9114 362.541,355.5984 " fill="none" id="accion-to-IdentificandoUsuario" style="stroke:#181818;stroke-width:1.0;"/><polygon fill="#181818" points="366.433,360.1649,363.6394,350.7205,363.1897,356.3595,357.5508,355.9098,366.433,360.1649" style="stroke:#181818;stroke-width:1.0;"/><text fill="#000000" font-family="sans-serif" font-size="13" lengthAdjust="spacing" textLength="10" x="351" y="338.3638">si</text></g><!--link IdentificandoUsuario to accion1--><g id="link_IdentificandoUsuario_accion1"><path d="M387,410.3429 C387,427.4419 387,443.6409 387,456.8829 " fill="none" id="IdentificandoUsuario-to-accion1" style="stroke:#181818;stroke-width:1.0;"/><polygon fill="#181818" points="387,462.8829,391,453.8829,387,457.8829,383,453.8829,387,462.8829" style="stroke:#181818;stroke-width:1.0;"/><text fill="#000000" font-family="sans-serif" font-size="13" lengthAdjust="spacing" textLength="113" x="388" y="441.3638">cumple requisitos</text></g><!--link accion1 to *end*RegistrandoseEnAlumni--><g id="link_accion1_*end*RegistrandoseEnAlumni"><path d="M379.92,480.3869 C363.971,489.7829 324.409,514.1219 296,540.2969 C290.8943,545.0009 289.5605,546.2512 285.8369,551.0752 " fill="none" id="accion1-to-*end*RegistrandoseEnAlumni" style="stroke:#181818;stroke-width:1.0;"/><polygon fill="#181818" points="282.1707,555.8249,290.8364,551.1446,285.2259,551.8668,284.5036,546.2563,282.1707,555.8249" style="stroke:#181818;stroke-width:1.0;"/><text fill="#000000" font-family="sans-serif" font-size="13" lengthAdjust="spacing" textLength="16" x="340" y="518.3638">no</text></g><!--link accion1 to RellenandoFormulario--><g id="link_accion1_RellenandoFormulario"><path d="M387.712,486.7369 C388.606,499.8489 389.7589,516.7648 390.9539,534.2938 " fill="none" id="accion1-to-RellenandoFormulario" style="stroke:#181818;stroke-width:1.0;"/><polygon fill="#181818" points="391.362,540.2799,394.7406,531.0287,391.0219,535.2915,386.7591,531.5728,391.362,540.2799" style="stroke:#181818;stroke-width:1.0;"/><text fill="#000000" font-family="sans-serif" font-size="13" lengthAdjust="spacing" textLength="10" x="391" y="518.3638">si</text></g><!--link RellenandoFormulario to UsuarioAlumni--><g id="link_RellenandoFormulario_UsuarioAlumni"><path d="M393,590.4889 C393,606.3626 393,621.0478 393,636.9522 " fill="none" id="RellenandoFormulario-to-UsuarioAlumni" style="stroke:#181818;stroke-width:1.0;"/><polygon fill="#181818" points="393,642.9522,397,633.9522,393,637.9522,389,633.9522,393,642.9522" style="stroke:#181818;stroke-width:1.0;"/><text fill="#000000" font-family="sans-serif" font-size="13" lengthAdjust="spacing" textLength="123" x="394" y="621.3638">Formulario enviado</text></g><path d="M19.5,763 L741.1959,763 A12.5,12.5 0 0 1 753.6959,775.5 L753.6959,789.2969 L7,789.2969 L7,775.5 A12.5,12.5 0 0 1 19.5,763 " fill="#F1F1F1" style="stroke:#F1F1F1;stroke-width:1.0;"/><rect fill="none" height="257.2969" rx="12.5" ry="12.5" style="stroke:#181818;stroke-width:0.5;" width="746.6959" x="7" y="763"/><line style="stroke:#181818;stroke-width:0.5;" x1="7" x2="753.6959" y1="789.2969" y2="789.2969"/><text fill="#000000" font-family="sans-serif" font-size="14" lengthAdjust="spacing" textLength="49" x="355.8479" y="780.9951">Alumni</text><ellipse cx="321.6959" cy="810.2969" fill="#222222" rx="10" ry="10" style="stroke:#222222;stroke-width:1.0;"/><g id="Alumni.NoSuscrito"><rect fill="#F1F1F1" height="50" rx="12.5" ry="12.5" style="stroke:#181818;stroke-width:0.5;" width="97" x="273.1959" y="857.2969"/><line style="stroke:#181818;stroke-width:0.5;" x1="273.1959" x2="370.1959" y1="883.5938" y2="883.5938"/><text fill="#000000" font-family="sans-serif" font-size="14" lengthAdjust="spacing" textLength="77" x="283.1959" y="875.292">NoSuscrito</text></g><g id="Alumni.Suscrito"><rect fill="#F1F1F1" height="50" rx="12.5" ry="12.5" style="stroke:#181818;stroke-width:0.5;" width="78" x="35.6959" y="960.2969"/><line style="stroke:#181818;stroke-width:0.5;" x1="35.6959" x2="113.6959" y1="986.5938" y2="986.5938"/><text fill="#000000" font-family="sans-serif" font-size="14" lengthAdjust="spacing" textLength="58" x="45.6959" y="978.292">Suscrito</text></g><g id="Alumni.RealizandoPago"><rect fill="#F1F1F1" height="50" rx="12.5" ry="12.5" style="stroke:#181818;stroke-width:0.5;" width="133" x="424.1959" y="960.2969"/><line style="stroke:#181818;stroke-width:0.5;" x1="424.1959" x2="557.1959" y1="986.5938" y2="986.5938"/><text fill="#000000" font-family="sans-serif" font-size="14" lengthAdjust="spacing" textLength="113" x="434.1959" y="978.292">RealizandoPago</text></g><g id="Alumni.DadoDeBaja"><rect fill="#F1F1F1" height="50" rx="12.5" ry="12.5" style="stroke:#181818;stroke-width:0.5;" width="107" x="623.1959" y="960.2969"/><line style="stroke:#181818;stroke-width:0.5;" x1="623.1959" x2="730.1959" y1="986.5938" y2="986.5938"/><text fill="#000000" font-family="sans-serif" font-size="14" lengthAdjust="spacing" textLength="87" x="633.1959" y="978.292">DadoDeBaja</text></g><!--link *start*Alumni to NoSuscrito--><g id="link_*start*Alumni_NoSuscrito"><path d="M321.6959,820.4479 C321.6959,829.7129 321.6959,838.4379 321.6959,851.0809 " fill="none" id="*start*Alumni-to-NoSuscrito" style="stroke:#181818;stroke-width:1.0;"/><polygon fill="#181818" points="321.6959,857.0809,325.6959,848.0809,321.6959,852.0809,317.6959,848.0809,321.6959,857.0809" style="stroke:#181818;stroke-width:1.0;"/></g><!--link NoSuscrito to Suscrito--><g id="link_NoSuscrito_Suscrito"><path d="M272.9978,882.8869 C197.8109,883.4099 58.8599,889.3649 27.6959,925.2969 C18,936.4763 21.567,945.262 33.5536,956.08 " fill="none" id="NoSuscrito-to-Suscrito" style="stroke:#181818;stroke-width:1.0;"/><polygon fill="#181818" points="38.0079,960.1,34.0065,951.1006,34.296,956.75,28.6466,957.0395,38.0079,960.1" style="stroke:#181818;stroke-width:1.0;"/><text fill="#000000" font-family="sans-serif" font-size="13" lengthAdjust="spacing" textLength="157" x="28.6959" y="938.3638">se suscribe a un servicio</text></g><!--link Suscrito to Suscrito--><g id="link_Suscrito_Suscrito"><path d="M113.858,976.0186 C124.0279,976.5889 131.6959,979.6817 131.6959,985.2969 C131.6959,990.9121 130.0184,993.6689 119.8486,994.2392 " fill="none" id="Suscrito-to-Suscrito" style="stroke:#181818;stroke-width:1.0;"/><polygon fill="#181818" points="113.858,994.5752,123.0679,998.065,118.8502,994.2952,122.62,990.0775,113.858,994.5752" style="stroke:#181818;stroke-width:1.0;"/><text fill="#000000" font-family="sans-serif" font-size="13" lengthAdjust="spacing" textLength="167" x="137.6959" y="989.8638">se suscribe a otro servicio</text></g><!--link NoSuscrito to RealizandoPago--><g id="link_NoSuscrito_RealizandoPago"><path d="M315.7679,907.4089 C314.3509,919.1062 315.0489,932.6716 322.6959,942.2969 C335.5069,958.4213 376.7967,968.359 417.9217,975.0035 " fill="none" id="NoSuscrito-to-RealizandoPago" style="stroke:#181818;stroke-width:1.0;"/><polygon fill="#181818" points="423.8449,975.9605,415.5981,970.5762,418.9089,975.163,414.3221,978.4738,423.8449,975.9605" style="stroke:#181818;stroke-width:1.0;"/><text fill="#000000" font-family="sans-serif" font-size="13" lengthAdjust="spacing" textLength="217" x="323.6959" y="938.3638">se suscribe a un paquete de pago</text></g><!--link Suscrito to NoSuscrito--><g id="link_Suscrito_NoSuscrito"><path d="M113.8818,970.4993 C135.5229,962.6554 162.7869,952.405 186.6959,942.2969 C202.9939,935.4068 206.5479,932.5314 222.6959,925.2969 C239.0529,917.9687 251.5367,912.5656 267.6607,905.7546 " fill="none" id="Suscrito-to-NoSuscrito" style="stroke:#181818;stroke-width:1.0;"/><polygon fill="#181818" points="273.1878,903.4199,263.3407,903.2372,268.5819,905.3655,266.4537,910.6067,273.1878,903.4199" style="stroke:#181818;stroke-width:1.0;"/><text fill="#000000" font-family="sans-serif" font-size="13" lengthAdjust="spacing" textLength="88" x="223.6959" y="938.3638">se desuscribe</text></g><!--link RealizandoPago to NoSuscrito--><g id="link_RealizandoPago_NoSuscrito"><path d="M530.4649,960.1002 C542.9589,949.5077 551.2749,936.8775 541.6959,925.2969 C520.3819,899.5289 434.3837,889.8243 376.3137,885.9693 " fill="none" id="RealizandoPago-to-NoSuscrito" style="stroke:#181818;stroke-width:1.0;"/><polygon fill="#181818" points="370.3269,885.5719,379.0421,890.1592,375.3159,885.9031,379.572,882.1768,370.3269,885.5719" style="stroke:#181818;stroke-width:1.0;"/><text fill="#000000" font-family="sans-serif" font-size="13" lengthAdjust="spacing" textLength="88" x="547.6959" y="938.3638">deja de pagar</text></g><!--link NoSuscrito to DadoDeBaja--><g id="link_NoSuscrito_DadoDeBaja"><path d="M370.4389,884.6449 C448.4859,887.6289 597.1549,896.9609 640.6959,925.2969 C653.2669,933.4781 659.6133,942.2967 665.4073,954.7471 " fill="none" id="NoSuscrito-to-DadoDeBaja" style="stroke:#181818;stroke-width:1.0;"/><polygon fill="#181818" points="667.9389,960.1869,667.7681,950.3395,665.8293,955.6537,660.5151,953.7148,667.9389,960.1869" style="stroke:#181818;stroke-width:1.0;"/><text fill="#000000" font-family="sans-serif" font-size="13" lengthAdjust="spacing" textLength="86" x="657.6959" y="938.3638">se da de baja</text></g><!--link *start* to RegistrandoseEnAlumni--><g id="link_*start*_RegistrandoseEnAlumni"><path d="M380.5,26.307 C380.5,37.744 380.5,52.957 380.5,79.645 " fill="none" id="*start*-to-RegistrandoseEnAlumni" style="stroke:#181818;stroke-width:1.0;"/><polygon fill="#181818" points="380.5,85.645,384.5,76.645,380.5,80.645,376.5,76.645,380.5,85.645" style="stroke:#181818;stroke-width:1.0;"/></g><!--link RegistrandoseEnAlumni to Alumni--><g id="link_RegistrandoseEnAlumni_Alumni"><path d="M380.5,703.009 C380.5,723.782 380.5,737.955 380.5,756.893 " fill="none" id="RegistrandoseEnAlumni-to-Alumni" style="stroke:#181818;stroke-width:1.0;"/><polygon fill="#181818" points="380.5,762.893,384.5,753.893,380.5,757.893,376.5,753.893,380.5,762.893" style="stroke:#181818;stroke-width:1.0;"/></g><!--SRC=[VP4zQmCn38Pt_GftAXGoP0qXa98MkfIIqAbqK7nAek2pB_x8q9B_Nla-UdVbw6PRxwltiNH_5qzKaiAIZmZmyV2fPhELsjAHG_He2nVeoQvDAYq3X8YHfelVsIlMzPciMvkTAAX4sDKEr9gTLSkbFZdMj5h1M5PdjgA5kYGcJ-hWV8bULUYbGo5D6eXMbXsPTg6iKyF7bu9iv0FhpFSU4dfseWeyOfaFOIOjFT9Sx3gLbI7bIU02HnUWguckunY-RSaOihdXi_mZcHvZifBJskHcdg8TbCbU6Gi7S8F9wTV-TalDaiPRUNMx5BGNSEYFsTETCngfKD_sCYILh3puAyk7u5VqhyD5xthFE6PBQFWhCx_XSJAimakYPj6LI4QPVQ_QM51dXJzzSzHGND0PsuxenqWR6UU67l6CYzoobktb1hSV]--></g></svg>