<?xml version="1.0" encoding="UTF-8" standalone="no"?><svg xmlns="http://www.w3.org/2000/svg" xmlns:xlink="http://www.w3.org/1999/xlink" contentStyleType="text/css" height="2426px" preserveAspectRatio="none" style="width:591px;height:2426px;background:#FFFFFF;" version="1.1" viewBox="0 0 591 2426" width="591px" zoomAndPan="magnify"><defs/><g><rect fill="none" height="27.6094" id="_title" style="stroke:none;stroke-width:1.0;" width="230" x="173.5" y="5"/><text fill="#000000" font-family="sans-serif" font-size="14" font-weight="bold" lengthAdjust="spacing" textLength="220" x="178.5" y="24.5332">Estructura de los Casos de Uso</text><!--MD5=[0da457cd346282cb9ffbbcbb0652be17]
cluster cuentas--><g id="cluster_cuentas"><path d="M221,502.6094 L354,502.6094 A3.75,3.75 0 0 1 356.5,505.1094 L363.5,526.2188 L500,526.2188 A2.5,2.5 0 0 1 502.5,528.7188 L502.5,764.1094 A2.5,2.5 0 0 1 500,766.6094 L221,766.6094 A2.5,2.5 0 0 1 218.5,764.1094 L218.5,505.1094 A2.5,2.5 0 0 1 221,502.6094 " fill="none" style="stroke:#000000;stroke-width:1.5;"/><line style="stroke:#000000;stroke-width:1.5;" x1="218.5" x2="363.5" y1="526.2188" y2="526.2188"/><text fill="#000000" font-family="sans-serif" font-size="14" font-weight="bold" lengthAdjust="spacing" textLength="132" x="222.5" y="519.1426">Manejo de Usuario</text></g><!--MD5=[a86b8758458e11e030fd076d8ea1e0f1]
cluster ingreso--><g id="cluster_ingreso"><path d="M254,790.6094 L399,790.6094 A3.75,3.75 0 0 1 401.5,793.1094 L408.5,814.2188 L467,814.2188 A2.5,2.5 0 0 1 469.5,816.7188 L469.5,1018.1094 A2.5,2.5 0 0 1 467,1020.6094 L254,1020.6094 A2.5,2.5 0 0 1 251.5,1018.1094 L251.5,793.1094 A2.5,2.5 0 0 1 254,790.6094 " fill="none" style="stroke:#000000;stroke-width:1.5;"/><line style="stroke:#000000;stroke-width:1.5;" x1="251.5" x2="408.5" y1="814.2188" y2="814.2188"/><text fill="#000000" font-family="sans-serif" font-size="14" font-weight="bold" lengthAdjust="spacing" textLength="144" x="255.5" y="807.1426">Ingreso a Plataforma</text></g><!--MD5=[a2e01a3d20edbfd1dfe88f1aa873f491]
cluster CRDSuscripciones--><g id="cluster_CRDSuscripciones"><path d="M139.5,138.6094 L274.5,138.6094 A3.75,3.75 0 0 1 277,141.1094 L284,162.2188 L581.5,162.2188 A2.5,2.5 0 0 1 584,164.7188 L584,476.1094 A2.5,2.5 0 0 1 581.5,478.6094 L139.5,478.6094 A2.5,2.5 0 0 1 137,476.1094 L137,141.1094 A2.5,2.5 0 0 1 139.5,138.6094 " fill="none" style="stroke:#000000;stroke-width:1.5;"/><line style="stroke:#000000;stroke-width:1.5;" x1="137" x2="284" y1="162.2188" y2="162.2188"/><text fill="#000000" font-family="sans-serif" font-size="14" font-weight="bold" lengthAdjust="spacing" textLength="134" x="141" y="155.1426">CRD Suscripciones</text></g><!--MD5=[3558f5497e9d89aef061cf9bb7df249a]
cluster CRUDServicios--><g id="cluster_CRUDServicios"><path d="M271,1801.6094 L382,1801.6094 A3.75,3.75 0 0 1 384.5,1804.1094 L391.5,1825.2188 L450,1825.2188 A2.5,2.5 0 0 1 452.5,1827.7188 L452.5,2093.1094 A2.5,2.5 0 0 1 450,2095.6094 L271,2095.6094 A2.5,2.5 0 0 1 268.5,2093.1094 L268.5,1804.1094 A2.5,2.5 0 0 1 271,1801.6094 " fill="none" style="stroke:#000000;stroke-width:1.5;"/><line style="stroke:#000000;stroke-width:1.5;" x1="268.5" x2="391.5" y1="1825.2188" y2="1825.2188"/><text fill="#000000" font-family="sans-serif" font-size="14" font-weight="bold" lengthAdjust="spacing" textLength="110" x="272.5" y="1818.1426">CRUD Servicios</text></g><!--MD5=[3efe4913bb7606f0a928d99050ddabc6]
cluster CRUDEgresados--><g id="cluster_CRUDEgresados"><path d="M266.5,2119.6094 L386.5,2119.6094 A3.75,3.75 0 0 1 389,2122.1094 L396,2143.2188 L454.5,2143.2188 A2.5,2.5 0 0 1 457,2145.7188 L457,2417.1094 A2.5,2.5 0 0 1 454.5,2419.6094 L266.5,2419.6094 A2.5,2.5 0 0 1 264,2417.1094 L264,2122.1094 A2.5,2.5 0 0 1 266.5,2119.6094 " fill="none" style="stroke:#000000;stroke-width:1.5;"/><line style="stroke:#000000;stroke-width:1.5;" x1="264" x2="396" y1="2143.2188" y2="2143.2188"/><text fill="#000000" font-family="sans-serif" font-size="14" font-weight="bold" lengthAdjust="spacing" textLength="119" x="268" y="2136.1426">CRUD Egresados</text></g><!--MD5=[6a030e930e55ab3fed80196992fe8282]
cluster CRUDPaquetes--><g id="cluster_CRUDPaquetes"><path d="M270,1090.6094 L381,1090.6094 A3.75,3.75 0 0 1 383.5,1093.1094 L390.5,1114.2188 L451,1114.2188 A2.5,2.5 0 0 1 453.5,1116.7188 L453.5,1383.1094 A2.5,2.5 0 0 1 451,1385.6094 L270,1385.6094 A2.5,2.5 0 0 1 267.5,1383.1094 L267.5,1093.1094 A2.5,2.5 0 0 1 270,1090.6094 " fill="none" style="stroke:#000000;stroke-width:1.5;"/><line style="stroke:#000000;stroke-width:1.5;" x1="267.5" x2="390.5" y1="1114.2188" y2="1114.2188"/><text fill="#000000" font-family="sans-serif" font-size="14" font-weight="bold" lengthAdjust="spacing" textLength="110" x="271.5" y="1107.1426">CRUD Paquetes</text></g><!--MD5=[10af996e2ffe433c81f0f63a8782af60]
cluster CRUDAdministradores--><g id="cluster_CRUDAdministradores"><path d="M255.5,1409.6094 L415.5,1409.6094 A3.75,3.75 0 0 1 418,1412.1094 L425,1433.2188 L465.5,1433.2188 A2.5,2.5 0 0 1 468,1435.7188 L468,1723.1094 A2.5,2.5 0 0 1 465.5,1725.6094 L255.5,1725.6094 A2.5,2.5 0 0 1 253,1723.1094 L253,1412.1094 A2.5,2.5 0 0 1 255.5,1409.6094 " fill="none" style="stroke:#000000;stroke-width:1.5;"/><line style="stroke:#000000;stroke-width:1.5;" x1="253" x2="425" y1="1433.2188" y2="1433.2188"/><text fill="#000000" font-family="sans-serif" font-size="14" font-weight="bold" lengthAdjust="spacing" textLength="159" x="257" y="1426.1426">CRUD Administradores</text></g><g id="elem_Actualización de Datos del Usuario"><ellipse cx="360.6384" cy="644.7371" fill="#F1F1F1" rx="126.1384" ry="27.6277" style="stroke:#181818;stroke-width:0.5;"/><text fill="#000000" font-family="sans-serif" font-size="14" lengthAdjust="spacing" textLength="218" x="251.6384" y="648.4656">Actualización de Datos del Usuario</text></g><g id="elem_Cancelación de Cuenta"><ellipse cx="360.313" cy="560.372" fill="#F1F1F1" rx="94.313" ry="21.2626" style="stroke:#181818;stroke-width:0.5;"/><text fill="#000000" font-family="sans-serif" font-size="14" lengthAdjust="spacing" textLength="148" x="286.313" y="564.1005">Cancelación de Cuenta</text></g><g id="elem_Listar Datos del Usuario"><ellipse cx="360.63" cy="728.6354" fill="#F1F1F1" rx="95.63" ry="21.526" style="stroke:#181818;stroke-width:0.5;"/><text fill="#000000" font-family="sans-serif" font-size="14" lengthAdjust="spacing" textLength="151" x="285.13" y="732.3639">Listar Datos del Usuario</text></g><g id="elem_Registro en Plataforma"><ellipse cx="360.5017" cy="847.6097" fill="#F1F1F1" rx="93.0017" ry="21.0003" style="stroke:#181818;stroke-width:0.5;"/><text fill="#000000" font-family="sans-serif" font-size="14" lengthAdjust="spacing" textLength="145" x="288.0017" y="851.3382">Registro en Plataforma</text></g><g id="elem_Iniciar Sesión"><ellipse cx="360.2688" cy="919.7631" fill="#F1F1F1" rx="68.7688" ry="16.1538" style="stroke:#181818;stroke-width:0.5;"/><text fill="#000000" font-family="sans-serif" font-size="14" lengthAdjust="spacing" textLength="84" x="315.2688" y="924.2797">Iniciar Sesión</text></g><g id="elem_Cerrar Sesión"><ellipse cx="360.6531" cy="987.54" fill="#F1F1F1" rx="70.1531" ry="16.4306" style="stroke:#181818;stroke-width:0.5;"/><text fill="#000000" font-family="sans-serif" font-size="14" lengthAdjust="spacing" textLength="88" x="313.6531" y="992.0566">Cerrar Sesión</text></g><g id="elem_Suscripción a Servicio / Paquete de Servicios"><ellipse cx="360.3881" cy="208.587" fill="#F1F1F1" rx="157.8881" ry="33.9776" style="stroke:#181818;stroke-width:0.5;"/><text fill="#000000" font-family="sans-serif" font-size="14" lengthAdjust="spacing" textLength="285" x="217.8881" y="212.3155">Suscripción a Servicio / Paquete de Servicios</text></g><g id="elem_Cancelación de Suscripción a Servicio / Paquete de Servicios"><ellipse cx="360.2996" cy="321.4693" fill="#F1F1F1" rx="207.2996" ry="43.8599" style="stroke:#181818;stroke-width:0.5;"/><text fill="#000000" font-family="sans-serif" font-size="14" lengthAdjust="spacing" textLength="387" x="166.7996" y="325.1978">Cancelación de Suscripción a Servicio / Paquete de Servicios</text></g><g id="elem_Listar Servicios / Paquetes de Servicios"><ellipse cx="360.7255" cy="431.6545" fill="#F1F1F1" rx="140.7255" ry="30.5451" style="stroke:#181818;stroke-width:0.5;"/><text fill="#000000" font-family="sans-serif" font-size="14" lengthAdjust="spacing" textLength="249" x="236.2255" y="435.383">Listar Servicios / Paquetes de Servicios</text></g><g id="elem_Crear Servicio"><ellipse cx="360.3567" cy="1854.6807" fill="#F1F1F1" rx="70.8567" ry="16.5713" style="stroke:#181818;stroke-width:0.5;"/><text fill="#000000" font-family="sans-serif" font-size="14" lengthAdjust="spacing" textLength="90" x="312.3567" y="1859.1973">Crear Servicio</text></g><g id="elem_Listar Servicios"><ellipse cx="360.5109" cy="1923.6116" fill="#F1F1F1" rx="73.0109" ry="17.0022" style="stroke:#181818;stroke-width:0.5;"/><text fill="#000000" font-family="sans-serif" font-size="14" lengthAdjust="spacing" textLength="96" x="309.5109" y="1928.1282">Listar Servicios</text></g><g id="elem_Editar Servicio"><ellipse cx="360.7113" cy="1992.7516" fill="#F1F1F1" rx="71.2113" ry="16.6423" style="stroke:#181818;stroke-width:0.5;"/><text fill="#000000" font-family="sans-serif" font-size="14" lengthAdjust="spacing" textLength="91" x="312.2113" y="1997.2682">Editar Servicio</text></g><g id="elem_Eliminar Servicio"><ellipse cx="360.4763" cy="2061.7046" fill="#F1F1F1" rx="75.9763" ry="17.5953" style="stroke:#181818;stroke-width:0.5;"/><text fill="#000000" font-family="sans-serif" font-size="14" lengthAdjust="spacing" textLength="104" x="305.5467" y="2066.2051">Eliminar Servicio</text></g><g id="elem_Crear Egresado"><ellipse cx="360.3525" cy="2173.4799" fill="#F1F1F1" rx="74.8525" ry="17.3705" style="stroke:#181818;stroke-width:0.5;"/><text fill="#000000" font-family="sans-serif" font-size="14" lengthAdjust="spacing" textLength="101" x="306.8525" y="2177.9965">Crear Egresado</text></g><g id="elem_Listar Egresado"><ellipse cx="360.481" cy="2243.4056" fill="#F1F1F1" rx="74.481" ry="17.2962" style="stroke:#181818;stroke-width:0.5;"/><text fill="#000000" font-family="sans-serif" font-size="14" lengthAdjust="spacing" textLength="100" x="307.481" y="2247.9222">Listar Egresado</text></g><g id="elem_Editar Egresado"><ellipse cx="360.7256" cy="2313.5545" fill="#F1F1F1" rx="75.2256" ry="17.4451" style="stroke:#181818;stroke-width:0.5;"/><text fill="#000000" font-family="sans-serif" font-size="14" lengthAdjust="spacing" textLength="102" x="306.7256" y="2318.0711">Editar Egresado</text></g><g id="elem_Eliminar Egresado"><ellipse cx="360.2827" cy="2384.5659" fill="#F1F1F1" rx="80.2827" ry="18.4565" style="stroke:#181818;stroke-width:0.5;"/><text fill="#000000" font-family="sans-serif" font-size="14" lengthAdjust="spacing" textLength="115" x="301.9192" y="2388.5435">Eliminar Egresado</text></g><g id="elem_Crear Paquete"><ellipse cx="360.4259" cy="1143.3946" fill="#F1F1F1" rx="71.9259" ry="16.7852" style="stroke:#181818;stroke-width:0.5;"/><text fill="#000000" font-family="sans-serif" font-size="14" lengthAdjust="spacing" textLength="93" x="310.9259" y="1147.9112">Crear Paquete</text></g><g id="elem_Listar Paquete"><ellipse cx="360.5677" cy="1212.8229" fill="#F1F1F1" rx="71.5677" ry="16.7135" style="stroke:#181818;stroke-width:0.5;"/><text fill="#000000" font-family="sans-serif" font-size="14" lengthAdjust="spacing" textLength="92" x="311.5677" y="1217.3395">Listar Paquete</text></g><g id="elem_Editar Paquete"><ellipse cx="360.2859" cy="1281.4666" fill="#F1F1F1" rx="72.2859" ry="16.8572" style="stroke:#181818;stroke-width:0.5;"/><text fill="#000000" font-family="sans-serif" font-size="14" lengthAdjust="spacing" textLength="94" x="310.2859" y="1285.9832">Editar Paquete</text></g><g id="elem_Eliminar Paquete"><ellipse cx="360.6203" cy="1351.4334" fill="#F1F1F1" rx="77.1203" ry="17.8241" style="stroke:#181818;stroke-width:0.5;"/><text fill="#000000" font-family="sans-serif" font-size="14" lengthAdjust="spacing" textLength="107" x="304.7783" y="1355.795">Eliminar Paquete</text></g><g id="elem_Crear Administrador"><ellipse cx="360.2698" cy="1465.5633" fill="#F1F1F1" rx="85.2698" ry="19.454" style="stroke:#181818;stroke-width:0.5;"/><text fill="#000000" font-family="sans-serif" font-size="14" lengthAdjust="spacing" textLength="127" x="296.7698" y="1469.2918">Crear Administrador</text></g><g id="elem_Listar Administrador"><ellipse cx="360.3478" cy="1539.4789" fill="#F1F1F1" rx="84.8478" ry="19.3696" style="stroke:#181818;stroke-width:0.5;"/><text fill="#000000" font-family="sans-serif" font-size="14" lengthAdjust="spacing" textLength="126" x="297.3478" y="1543.2075">Listar Administrador</text></g><g id="elem_Editar Administrador"><ellipse cx="360.6926" cy="1613.6479" fill="#F1F1F1" rx="85.6926" ry="19.5385" style="stroke:#181818;stroke-width:0.5;"/><text fill="#000000" font-family="sans-serif" font-size="14" lengthAdjust="spacing" textLength="128" x="296.6926" y="1617.3764">Editar Administrador</text></g><g id="elem_Eliminar Administrador"><ellipse cx="360.2628" cy="1688.7619" fill="#F1F1F1" rx="91.2628" ry="20.6526" style="stroke:#181818;stroke-width:0.5;"/><text fill="#000000" font-family="sans-serif" font-size="14" lengthAdjust="spacing" textLength="141" x="289.7628" y="1692.4904">Eliminar Administrador</text></g><!--MD5=[886f27c4ce1bf6d1eb714be2c81d3749]
entity Egresado--><g id="elem_Egresado"><ellipse cx="49.5" cy="656.1094" fill="#F1F1F1" rx="8" ry="8" style="stroke:#181818;stroke-width:0.5;"/><path d="M49.5,664.1094 L49.5,691.1094 M36.5,672.1094 L62.5,672.1094 M49.5,691.1094 L36.5,706.1094 M49.5,691.1094 L62.5,706.1094 " fill="none" style="stroke:#181818;stroke-width:0.5;"/><text fill="#000000" font-family="sans-serif" font-size="14" lengthAdjust="spacing" textLength="61" x="19" y="722.1426">Egresado</text></g><!--MD5=[2e903384ba6a94be9c906ea46910cc3f]
entity Administrador--><g id="elem_Administrador"><ellipse cx="49.5" cy="1509.1094" fill="#F1F1F1" rx="8" ry="8" style="stroke:#181818;stroke-width:0.5;"/><path d="M49.5,1517.1094 L49.5,1544.1094 M36.5,1525.1094 L62.5,1525.1094 M49.5,1544.1094 L36.5,1559.1094 M49.5,1544.1094 L62.5,1559.1094 " fill="none" style="stroke:#181818;stroke-width:0.5;"/><text fill="#000000" font-family="sans-serif" font-size="14" lengthAdjust="spacing" textLength="87" x="6" y="1575.1426">Administrador</text></g><!--MD5=[19417cf465ec7225b3cd53ff9a44384c]
entity Tiempo--><g id="elem_Tiempo"><ellipse cx="49.5" cy="53.1094" fill="#F1F1F1" rx="8" ry="8" style="stroke:#181818;stroke-width:0.5;"/><path d="M49.5,61.1094 L49.5,88.1094 M36.5,69.1094 L62.5,69.1094 M49.5,88.1094 L36.5,103.1094 M49.5,88.1094 L62.5,103.1094 " fill="none" style="stroke:#181818;stroke-width:0.5;"/><text fill="#000000" font-family="sans-serif" font-size="14" lengthAdjust="spacing" textLength="47" x="26" y="119.1426">Tiempo</text></g><g id="elem_Eliminar Suscripción a Servicio / Paquete de Servicios"><ellipse cx="360.4373" cy="83.7968" fill="#F1F1F1" rx="183.9373" ry="39.1875" style="stroke:#181818;stroke-width:0.5;"/><text fill="#000000" font-family="sans-serif" font-size="14" lengthAdjust="spacing" textLength="339" x="190.9373" y="87.5254">Eliminar Suscripción a Servicio / Paquete de Servicios</text></g><g id="elem_Consultar Estadísticas"><ellipse cx="360.3297" cy="1764.6753" fill="#F1F1F1" rx="90.8297" ry="20.5659" style="stroke:#181818;stroke-width:0.5;"/><text fill="#000000" font-family="sans-serif" font-size="14" lengthAdjust="spacing" textLength="140" x="290.3297" y="1768.4038">Consultar Estadísticas</text></g><g id="elem_Realizar Petición"><ellipse cx="360.355" cy="1056.7804" fill="#F1F1F1" rx="76.355" ry="17.671" style="stroke:#181818;stroke-width:0.5;"/><text fill="#000000" font-family="sans-serif" font-size="14" lengthAdjust="spacing" textLength="105" x="305.1233" y="1061.2349">Realizar Petición</text></g><!--MD5=[002d1e4aed05dc3a430bb46214b4b5a2]
link Tiempo to Eliminar Suscripción a Servicio / Paquete de Servicios--><g id="link_Tiempo_Eliminar Suscripción a Servicio / Paquete de Servicios"><path d="M73.22,83.6094 C95.5,83.6094 131.76,83.6094 171.11,83.6094 " fill="none" id="Tiempo-to-Eliminar Suscripción a Servicio / Paquete de Servicios" style="stroke:#181818;stroke-width:1.0;"/><polygon fill="#181818" points="176.43,83.6094,167.43,79.6094,171.43,83.6094,167.43,87.6094,176.43,83.6094" style="stroke:#181818;stroke-width:1.0;"/></g><!--MD5=[79ef10c45eb840b755a669a29cd1c2f9]
link Administrador to Consultar Estadísticas--><g id="link_Administrador_Consultar Estadísticas"><path d="M67.15,1579.0594 C90.19,1633.6494 129,1725.6094 129,1725.6094 C129,1725.6094 215.06,1740.1694 282.01,1751.4994 " fill="none" id="Administrador-to-Consultar Estadísticas" style="stroke:#181818;stroke-width:1.0;"/><polygon fill="#181818" points="287.2,1752.3794,278.9877,1746.9426,282.2692,1751.5504,277.6614,1754.8319,287.2,1752.3794" style="stroke:#181818;stroke-width:1.0;"/></g><!--MD5=[3022be293dde8ff5aec774ec42f5bb06]
link Egresado to Actualización de Datos del Usuario--><g id="link_Egresado_Actualización de Datos del Usuario"><path d="M80.13,682.5794 C118.62,677.3494 188.01,667.9194 248,659.7694 " fill="none" id="Egresado-to-Actualización de Datos del Usuario" style="stroke:#181818;stroke-width:1.0;"/><polygon fill="#181818" points="253.03,659.0794,243.5746,656.3236,248.0752,659.7505,244.6483,664.2512,253.03,659.0794" style="stroke:#181818;stroke-width:1.0;"/></g><!--MD5=[6fc14c47e73df4c791fb6589e5e9d7a3]
link Egresado to Cancelación de Cuenta--><g id="link_Egresado_Cancelación de Cuenta"><path d="M80.18,653.7194 C102.41,629.0794 129,599.6094 129,599.6094 C129,599.6094 212.4,585.4994 278.87,574.2494 " fill="none" id="Egresado-to-Cancelación de Cuenta" style="stroke:#181818;stroke-width:1.0;"/><polygon fill="#181818" points="284.03,573.3794,274.4845,570.9537,279.1015,574.2222,275.8331,578.8392,284.03,573.3794" style="stroke:#181818;stroke-width:1.0;"/></g><!--MD5=[49a8251de11ef2a363a66e948f2c3020]
link Egresado to Listar Datos del Usuario--><g id="link_Egresado_Listar Datos del Usuario"><path d="M80.13,690.6394 C124.22,696.6294 208.84,708.1294 273.45,716.9094 " fill="none" id="Egresado-to-Listar Datos del Usuario" style="stroke:#181818;stroke-width:1.0;"/><polygon fill="#181818" points="278.45,717.5894,270.085,712.3906,273.4974,716.9023,268.9857,720.3147,278.45,717.5894" style="stroke:#181818;stroke-width:1.0;"/></g><!--MD5=[5806e705b525d5d406cb5815149d3ab6]
link Administrador to Actualización de Datos del Usuario--><g id="link_Administrador_Actualización de Datos del Usuario"><path d="M54.1,1500.5994 C69.5,1333.8694 129,689.6094 129,689.6094 C129,689.6094 198.24,676.0894 260.82,663.8794 " fill="none" id="Administrador-to-Actualización de Datos del Usuario" style="stroke:#181818;stroke-width:1.0;"/><polygon fill="#181818" points="266.08,662.8494,256.4801,660.649,261.1727,663.8079,258.0138,668.5006,266.08,662.8494" style="stroke:#181818;stroke-width:1.0;"/></g><!--MD5=[369aa146724f41c27aef463534bdfb98]
link Administrador to Listar Datos del Usuario--><g id="link_Administrador_Listar Datos del Usuario"><path d="M54.72,1500.4194 C71.03,1348.9994 129,810.6094 129,810.6094 C129,810.6094 235.57,772.6994 303.79,748.4294 " fill="none" id="Administrador-to-Listar Datos del Usuario" style="stroke:#181818;stroke-width:1.0;"/><polygon fill="#181818" points="308.63,746.7094,298.8087,745.9732,303.9219,748.3929,301.5023,753.5061,308.63,746.7094" style="stroke:#181818;stroke-width:1.0;"/></g><!--MD5=[8426604bda2913588765e14bdbd0d807]
link Egresado to Registro en Plataforma--><g id="link_Egresado_Registro en Plataforma"><path d="M80.18,716.8494 C102.41,739.5094 129,766.6094 129,766.6094 C129,766.6094 236.47,804.3794 304.65,828.3294 " fill="none" id="Egresado-to-Registro en Plataforma" style="stroke:#181818;stroke-width:1.0;"/><polygon fill="#181818" points="309.48,830.0294,302.3158,823.2711,304.7629,828.3713,299.6628,830.8184,309.48,830.0294" style="stroke:#181818;stroke-width:1.0;"/></g><!--MD5=[ef5c86e107dd7797e98a702c34242b76]
link Egresado to Iniciar Sesión--><g id="link_Egresado_Iniciar Sesión"><path d="M66.01,725.9294 C88.89,783.9194 129,885.6094 129,885.6094 C129,885.6094 228.41,900.2694 296.66,910.3394 " fill="none" id="Egresado-to-Iniciar Sesión" style="stroke:#181818;stroke-width:1.0;"/><polygon fill="#181818" points="301.93,911.1194,293.6095,905.8497,296.9834,910.3903,292.4429,913.7642,301.93,911.1194" style="stroke:#181818;stroke-width:1.0;"/></g><!--MD5=[86e092906742a2dece3fbb8b4e11e9cf]
link Administrador to Iniciar Sesión--><g id="link_Administrador_Iniciar Sesión"><path d="M55.77,1500.2494 C73.37,1368.8594 129,953.6094 129,953.6094 C129,953.6094 228.41,938.9494 296.66,928.8794 " fill="none" id="Administrador-to-Iniciar Sesión" style="stroke:#181818;stroke-width:1.0;"/><polygon fill="#181818" points="301.93,928.0994,292.4429,925.4545,296.9834,928.8285,293.6095,933.369,301.93,928.0994" style="stroke:#181818;stroke-width:1.0;"/></g><!--MD5=[c3fdc675c661717c8269a33081e99514]
link Egresado to Cerrar Sesión--><g id="link_Egresado_Cerrar Sesión"><path d="M62.08,725.8594 C83.92,799.8494 129,952.6094 129,952.6094 C129,952.6094 227.83,967.6194 296.07,977.9794 " fill="none" id="Egresado-to-Cerrar Sesión" style="stroke:#181818;stroke-width:1.0;"/><polygon fill="#181818" points="301.34,978.7794,293.0344,973.4862,296.3955,978.0363,291.8455,981.3974,301.34,978.7794" style="stroke:#181818;stroke-width:1.0;"/></g><!--MD5=[f551cdc4e6ffb60e1ebf0a4e22f92eb2]
link Administrador to Cerrar Sesión--><g id="link_Administrador_Cerrar Sesión"><path d="M56.46,1500.2494 C74.78,1379.3694 129,1021.6094 129,1021.6094 C129,1021.6094 227.26,1007.1194 295.47,997.0494 " fill="none" id="Administrador-to-Cerrar Sesión" style="stroke:#181818;stroke-width:1.0;"/><polygon fill="#181818" points="300.74,996.2794,291.2529,993.6345,295.7934,997.0085,292.4195,1001.549,300.74,996.2794" style="stroke:#181818;stroke-width:1.0;"/></g><!--MD5=[7d6c2f27233e1a683505a9751f2431e0]
link Egresado to Suscripción a Servicio / Paquete de Servicios--><g id="link_Egresado_Suscripción a Servicio / Paquete de Servicios"><path d="M57.67,647.5794 C77.05,542.1694 129,259.6094 129,259.6094 C129,259.6094 186.74,246.8294 244.43,234.0694 " fill="none" id="Egresado-to-Suscripción a Servicio / Paquete de Servicios" style="stroke:#181818;stroke-width:1.0;"/><polygon fill="#181818" points="249.65,232.9194,239.9954,230.973,244.7697,234.0071,241.7357,238.7814,249.65,232.9194" style="stroke:#181818;stroke-width:1.0;"/></g><!--MD5=[173058fa2fc76ff4827fceec93daab69]
link Egresado to Cancelación de Suscripción a Servicio / Paquete de Servicios--><g id="link_Egresado_Cancelación de Suscripción a Servicio / Paquete de Servicios"><path d="M60.68,647.3094 C81.92,565.3194 129,383.6094 129,383.6094 C129,383.6094 175.15,371.1994 226.16,357.4794 " fill="none" id="Egresado-to-Cancelación de Suscripción a Servicio / Paquete de Servicios" style="stroke:#181818;stroke-width:1.0;"/><polygon fill="#181818" points="231.11,356.1494,221.3796,354.6267,226.2819,357.4492,223.4594,362.3516,231.11,356.1494" style="stroke:#181818;stroke-width:1.0;"/></g><!--MD5=[58e4cf5416d9a429023adf5eec354dd0]
link Egresado to Listar Servicios / Paquetes de Servicios--><g id="link_Egresado_Listar Servicios / Paquetes de Servicios"><path d="M69.3,647.3294 C92.53,598.8094 129,522.6094 129,522.6094 C129,522.6094 219.49,486.8794 287.07,460.1994 " fill="none" id="Egresado-to-Listar Servicios / Paquetes de Servicios" style="stroke:#181818;stroke-width:1.0;"/><polygon fill="#181818" points="291.9,458.2994,282.0603,457.8757,287.2478,460.1316,284.9919,465.3192,291.9,458.2994" style="stroke:#181818;stroke-width:1.0;"/></g><!--MD5=[16828ee9522033f75a1005d28bf51339]
link Administrador to Listar Servicios / Paquetes de Servicios--><g id="link_Administrador_Listar Servicios / Paquetes de Servicios"><path d="M53.53,1500.3694 C67.96,1313.4594 129,522.6094 129,522.6094 C129,522.6094 219.49,486.8794 287.07,460.1994 " fill="none" id="Administrador-to-Listar Servicios / Paquetes de Servicios" style="stroke:#181818;stroke-width:1.0;"/><polygon fill="#181818" points="291.9,458.2994,282.0603,457.8757,287.2478,460.1316,284.9919,465.3192,291.9,458.2994" style="stroke:#181818;stroke-width:1.0;"/></g><!--MD5=[c3c47cad40e5695174e0e50470e08c10]
link Administrador to Crear Servicio--><g id="link_Administrador_Crear Servicio"><path d="M62.17,1578.6994 C84.04,1651.9594 129,1802.6094 129,1802.6094 C129,1802.6094 235.45,1826.6194 303.66,1842.0094 " fill="none" id="Administrador-to-Crear Servicio" style="stroke:#181818;stroke-width:1.0;"/><polygon fill="#181818" points="308.92,1843.1994,301.0184,1837.3202,304.0421,1842.1011,299.2612,1845.1249,308.92,1843.1994" style="stroke:#181818;stroke-width:1.0;"/></g><!--MD5=[5ef79b88bcd6df8fd01df01b07582278]
link Administrador to Listar Servicios--><g id="link_Administrador_Listar Servicios"><path d="M59.28,1578.6294 C79.76,1669.6994 129,1888.6094 129,1888.6094 C129,1888.6094 225.55,1903.2694 293.67,1913.6094 " fill="none" id="Administrador-to-Listar Servicios" style="stroke:#181818;stroke-width:1.0;"/><polygon fill="#181818" points="298.94,1914.4094,290.6494,1909.0928,293.9976,1913.6523,289.4381,1917.0005,298.94,1914.4094" style="stroke:#181818;stroke-width:1.0;"/></g><!--MD5=[e84ee6232aaaa04a6fe6bb5c48256d2b]
link Administrador to Editar Servicio--><g id="link_Administrador_Editar Servicio"><path d="M57.89,1578.9294 C77.43,1682.9894 129,1957.6094 129,1957.6094 C129,1957.6094 227.26,1972.5294 295.47,1982.8894 " fill="none" id="Administrador-to-Editar Servicio" style="stroke:#181818;stroke-width:1.0;"/><polygon fill="#181818" points="300.74,1983.6894,292.4494,1978.3728,295.7976,1982.9323,291.2381,1986.2805,300.74,1983.6894" style="stroke:#181818;stroke-width:1.0;"/></g><!--MD5=[868a0cbea05833b562bab3bcd133c982]
link Administrador to Eliminar Servicio--><g id="link_Administrador_Eliminar Servicio"><path d="M56.79,1578.6394 C75.42,1694.1994 129,2026.6094 129,2026.6094 C129,2026.6094 223.29,2040.9294 291.26,2051.2494 " fill="none" id="Administrador-to-Eliminar Servicio" style="stroke:#181818;stroke-width:1.0;"/><polygon fill="#181818" points="296.51,2052.0494,288.2044,2046.7562,291.5655,2051.3063,287.0155,2054.6674,296.51,2052.0494" style="stroke:#181818;stroke-width:1.0;"/></g><!--MD5=[a93f01c194319dfb49e3355441268a94]
link Administrador to Crear Egresado--><g id="link_Administrador_Crear Egresado"><path d="M56.02,1578.7094 C73.89,1705.2594 129,2095.6094 129,2095.6094 C129,2095.6094 245.04,2134.8794 312.46,2157.6894 " fill="none" id="Administrador-to-Crear Egresado" style="stroke:#181818;stroke-width:1.0;"/><polygon fill="#181818" points="317.22,2159.2994,309.9708,2152.6324,312.4823,2157.7011,307.4136,2160.2127,317.22,2159.2994" style="stroke:#181818;stroke-width:1.0;"/></g><!--MD5=[5c0273a74de74f95df81ec3eeaab63dd]
link Administrador to Listar Egresado--><g id="link_Administrador_Listar Egresado"><path d="M55.12,1578.9594 C71.94,1722.3694 129,2208.6094 129,2208.6094 C129,2208.6094 224.13,2223.0594 292.17,2233.3894 " fill="none" id="Administrador-to-Listar Egresado" style="stroke:#181818;stroke-width:1.0;"/><polygon fill="#181818" points="297.43,2234.1794,289.1394,2228.8628,292.4876,2233.4223,287.9281,2236.7705,297.43,2234.1794" style="stroke:#181818;stroke-width:1.0;"/></g><!--MD5=[dbcbc0ef6bf6d103d4816ad826883c25]
link Administrador to Editar Egresado--><g id="link_Administrador_Editar Egresado"><path d="M54.67,1578.8194 C70.89,1731.5994 129,2278.6094 129,2278.6094 C129,2278.6094 223.85,2293.0094 291.86,2303.3394 " fill="none" id="Administrador-to-Editar Egresado" style="stroke:#181818;stroke-width:1.0;"/><polygon fill="#181818" points="297.12,2304.1394,288.8144,2298.8462,292.1755,2303.3963,287.6255,2306.7574,297.12,2304.1394" style="stroke:#181818;stroke-width:1.0;"/></g><!--MD5=[9a712af60ae8cd7b3120e34b06a9e7ed]
link Administrador to Eliminar Egresado--><g id="link_Administrador_Eliminar Egresado"><path d="M54.29,1578.6294 C69.97,1740.2294 129,2348.6094 129,2348.6094 C129,2348.6094 220.51,2362.8994 288.21,2373.4794 " fill="none" id="Administrador-to-Eliminar Egresado" style="stroke:#181818;stroke-width:1.0;"/><polygon fill="#181818" points="293.45,2374.2894,285.1745,2368.9494,288.5098,2373.5184,283.9408,2376.8537,293.45,2374.2894" style="stroke:#181818;stroke-width:1.0;"/></g><!--MD5=[6c2f37c2b3424f647322ddcc3b45f7d4]
link Administrador to Crear Paquete--><g id="link_Administrador_Crear Paquete"><path d="M59.05,1500.2894 C79.4,1406.7294 129,1178.6094 129,1178.6094 C129,1178.6094 226.12,1163.8594 294.27,1153.5094 " fill="none" id="Administrador-to-Crear Paquete" style="stroke:#181818;stroke-width:1.0;"/><polygon fill="#181818" points="299.54,1152.7094,290.0392,1150.1141,294.5973,1153.4643,291.2471,1158.0224,299.54,1152.7094" style="stroke:#181818;stroke-width:1.0;"/></g><!--MD5=[7a2bf7fd7722348faae9965f407bcb34]
link Administrador to Listar Paquete--><g id="link_Administrador_Listar Paquete"><path d="M61.01,1500.3994 C82.4,1420.5594 129,1246.6094 129,1246.6094 C129,1246.6094 226.4,1232.2394 294.57,1222.1894 " fill="none" id="Administrador-to-Listar Paquete" style="stroke:#181818;stroke-width:1.0;"/><polygon fill="#181818" points="299.84,1221.4094,290.3529,1218.7645,294.8934,1222.1385,291.5195,1226.679,299.84,1221.4094" style="stroke:#181818;stroke-width:1.0;"/></g><!--MD5=[a9d7abad8a4d656b57c3b3daebefe65c]
link Administrador to Editar Paquete--><g id="link_Administrador_Editar Paquete"><path d="M64.17,1500.5894 C86.66,1436.4094 129,1315.6094 129,1315.6094 C129,1315.6094 225.27,1301.4094 293.37,1291.3594 " fill="none" id="Administrador-to-Editar Paquete" style="stroke:#181818;stroke-width:1.0;"/><polygon fill="#181818" points="298.64,1290.5894,289.1529,1287.9445,293.6934,1291.3185,290.3195,1295.859,298.64,1290.5894" style="stroke:#181818;stroke-width:1.0;"/></g><!--MD5=[f71c8a38419dd5fb211c82c893aaece2]
link Administrador to Eliminar Paquete--><g id="link_Administrador_Eliminar Paquete"><path d="M78.4,1500.5194 C100.96,1468.8994 129,1429.6094 129,1429.6094 C129,1429.6094 243.49,1390.8694 311.09,1367.9894 " fill="none" id="Administrador-to-Eliminar Paquete" style="stroke:#181818;stroke-width:1.0;"/><polygon fill="#181818" points="315.87,1366.3694,306.0627,1365.4651,311.1338,1367.972,308.6269,1373.043,315.87,1366.3694" style="stroke:#181818;stroke-width:1.0;"/></g><!--MD5=[5342176c0b2eeb0ed7ec732db39e7700]
link Administrador to Crear Administrador--><g id="link_Administrador_Crear Administrador"><path d="M93.42,1519.3794 C111.75,1510.7394 129,1502.6094 129,1502.6094 C129,1502.6094 217.49,1488.4094 284.81,1477.5994 " fill="none" id="Administrador-to-Crear Administrador" style="stroke:#181818;stroke-width:1.0;"/><polygon fill="#181818" points="290.03,1476.7594,280.5125,1474.2261,285.0924,1477.5465,281.772,1482.1264,290.03,1476.7594" style="stroke:#181818;stroke-width:1.0;"/></g><!--MD5=[2b934f00abb2bcc9123730b057bb5b4b]
link Administrador to Listar Administrador--><g id="link_Administrador_Listar Administrador"><path d="M93.14,1539.6094 C138.62,1539.6094 211.98,1539.6094 270.2,1539.6094 " fill="none" id="Administrador-to-Listar Administrador" style="stroke:#181818;stroke-width:1.0;"/><polygon fill="#181818" points="275.43,1539.6094,266.43,1535.6094,270.43,1539.6094,266.43,1543.6094,275.43,1539.6094" style="stroke:#181818;stroke-width:1.0;"/></g><!--MD5=[2f716b311059773e423aaf609326297d]
link Administrador to Editar Administrador--><g id="link_Administrador_Editar Administrador"><path d="M93.42,1559.8394 C111.75,1568.4794 129,1576.6094 129,1576.6094 C129,1576.6094 217.49,1590.8094 284.81,1601.6194 " fill="none" id="Administrador-to-Editar Administrador" style="stroke:#181818;stroke-width:1.0;"/><polygon fill="#181818" points="290.03,1602.4594,281.772,1597.0924,285.0924,1601.6722,280.5125,1604.9926,290.03,1602.4594" style="stroke:#181818;stroke-width:1.0;"/></g><!--MD5=[b0eded1e2fcccd6bdbdb5b28e0aa437c]
link Administrador to Eliminar Administrador--><g id="link_Administrador_Eliminar Administrador"><path d="M78.18,1578.7394 C100.78,1610.6994 129,1650.6094 129,1650.6094 C129,1650.6094 214.26,1664.6694 281.07,1675.6794 " fill="none" id="Administrador-to-Eliminar Administrador" style="stroke:#181818;stroke-width:1.0;"/><polygon fill="#181818" points="286.25,1676.5294,278.0199,1671.1196,281.3165,1675.7166,276.7195,1679.0132,286.25,1676.5294" style="stroke:#181818;stroke-width:1.0;"/></g><!--MD5=[d08544df0053c4cc895e366e4a0c15cf]
link Administrador to Realizar Petición--><g id="link_Administrador_Realizar Petición"><path d="M57.67,1500.3994 C77.05,1394.4994 129,1110.6094 129,1110.6094 C129,1110.6094 232.78,1086.2994 301.07,1070.2994 " fill="none" id="Administrador-to-Realizar Petición" style="stroke:#181818;stroke-width:1.0;"/><polygon fill="#181818" points="306.33,1069.0694,296.6543,1067.2307,301.4622,1070.2114,298.4815,1075.0193,306.33,1069.0694" style="stroke:#181818;stroke-width:1.0;"/></g><!--MD5=[ba6585a4adf4e0976f9f073972a0f16a]
link Egresado to Realizar Petición--><g id="link_Egresado_Realizar Petición"><path d="M59.74,725.9094 C80.49,814.1994 129,1020.6094 129,1020.6094 C129,1020.6094 223.57,1035.3794 291.56,1045.9994 " fill="none" id="Egresado-to-Realizar Petición" style="stroke:#181818;stroke-width:1.0;"/><polygon fill="#181818" points="296.82,1046.8194,288.5445,1041.4794,291.8798,1046.0484,287.3108,1049.3837,296.82,1046.8194" style="stroke:#181818;stroke-width:1.0;"/></g><!--MD5=[0fb30a9bf6dfeaa0c51bbde99d28d539]
@startuml Estructura

title Estructura de los Casos de Uso

skinparam {
    NoteBackgroundColor #whiteSmoke
    NoteBorderColor #green
    linetype polyline
}

left to right direction

actor Egresado
actor Administrador
actor Tiempo

Tiempo - -> (Eliminar Suscripción a Servicio / Paquete de Servicios)

Administrador - -> (Consultar Estadísticas)

folder "Manejo de Usuario" as cuentas {
    Egresado - -> (Actualización de Datos del Usuario)
    Egresado - -> (Cancelación de Cuenta)
    Egresado - -> (Listar Datos del Usuario)
    Administrador - -> (Actualización de Datos del Usuario)
    Administrador - -> (Listar Datos del Usuario)
}

folder "Ingreso a Plataforma" as ingreso {
    Egresado - -> (Registro en Plataforma)
    Egresado - -> (Iniciar Sesión)
    Administrador - -> (Iniciar Sesión)
    Egresado - -> (Cerrar Sesión)
    Administrador - -> (Cerrar Sesión)
}

folder "CRD Suscripciones" as CRDSuscripciones {
    Egresado - -> (Suscripción a Servicio / Paquete de Servicios)
    Egresado - -> (Cancelación de Suscripción a Servicio / Paquete de Servicios)
    Egresado - -> (Listar Servicios / Paquetes de Servicios)
    Administrador - -> (Listar Servicios / Paquetes de Servicios)
}

folder "CRUD Servicios" as CRUDServicios {
    Administrador - -> (Crear Servicio)
    Administrador - -> (Listar Servicios)
    Administrador - -> (Editar Servicio)
    Administrador - -> (Eliminar Servicio)
}

folder "CRUD Egresados" as CRUDEgresados {
    Administrador - -> (Crear Egresado)
    Administrador - -> (Listar Egresado)
    Administrador - -> (Editar Egresado)
    Administrador - -> (Eliminar Egresado)
}

folder "CRUD Paquetes" as CRUDPaquetes {
    Administrador - -> (Crear Paquete)
    Administrador - -> (Listar Paquete)
    Administrador - -> (Editar Paquete)
    Administrador - -> (Eliminar Paquete)
}

folder "CRUD Administradores" as CRUDAdministradores {
    Administrador - -> (Crear Administrador)
    Administrador - -> (Listar Administrador)
    Administrador - -> (Editar Administrador)
    Administrador - -> (Eliminar Administrador)
}

Administrador - -> (Realizar Petición)
Egresado - -> (Realizar Petición)

'(Consultar Estadísticas) - -> (Realizar Petición) : <<include>>
'(Eliminar Egresado) - -> (Cancelación de Cuenta) : <<include>>
'(Cancelación de Cuenta) - -> (Cancelación de Suscripción a Servicio / Paquete de Servicios) : <<include>>
'(Eliminar Paquete) - -> (Listar Servicios) : <<include>>
'(Eliminar Paquete) - -> (Cancelación de Suscripción a Servicio / Paquete de Servicios) : <<include>>
'(Editar Paquete) - -> (Listar Servicios) : <<include>>
'(Crear Paquete) - -> (Listar Servicios) : <<include>>
'(Eliminar Servicio) - -> (Cancelación de Suscripción a Servicio / Paquete de Servicios) : <<include>>

@enduml

@startuml Estructura

title Estructura de los Casos de Uso

skinparam {
    NoteBackgroundColor #whiteSmoke
    NoteBorderColor #green
    linetype polyline
}

left to right direction

actor Egresado
actor Administrador
actor Tiempo

Tiempo - -> (Eliminar Suscripción a Servicio / Paquete de Servicios)

Administrador - -> (Consultar Estadísticas)

folder "Manejo de Usuario" as cuentas {
    Egresado - -> (Actualización de Datos del Usuario)
    Egresado - -> (Cancelación de Cuenta)
    Egresado - -> (Listar Datos del Usuario)
    Administrador - -> (Actualización de Datos del Usuario)
    Administrador - -> (Listar Datos del Usuario)
}

folder "Ingreso a Plataforma" as ingreso {
    Egresado - -> (Registro en Plataforma)
    Egresado - -> (Iniciar Sesión)
    Administrador - -> (Iniciar Sesión)
    Egresado - -> (Cerrar Sesión)
    Administrador - -> (Cerrar Sesión)
}

folder "CRD Suscripciones" as CRDSuscripciones {
    Egresado - -> (Suscripción a Servicio / Paquete de Servicios)
    Egresado - -> (Cancelación de Suscripción a Servicio / Paquete de Servicios)
    Egresado - -> (Listar Servicios / Paquetes de Servicios)
    Administrador - -> (Listar Servicios / Paquetes de Servicios)
}

folder "CRUD Servicios" as CRUDServicios {
    Administrador - -> (Crear Servicio)
    Administrador - -> (Listar Servicios)
    Administrador - -> (Editar Servicio)
    Administrador - -> (Eliminar Servicio)
}

folder "CRUD Egresados" as CRUDEgresados {
    Administrador - -> (Crear Egresado)
    Administrador - -> (Listar Egresado)
    Administrador - -> (Editar Egresado)
    Administrador - -> (Eliminar Egresado)
}

folder "CRUD Paquetes" as CRUDPaquetes {
    Administrador - -> (Crear Paquete)
    Administrador - -> (Listar Paquete)
    Administrador - -> (Editar Paquete)
    Administrador - -> (Eliminar Paquete)
}

folder "CRUD Administradores" as CRUDAdministradores {
    Administrador - -> (Crear Administrador)
    Administrador - -> (Listar Administrador)
    Administrador - -> (Editar Administrador)
    Administrador - -> (Eliminar Administrador)
}

Administrador - -> (Realizar Petición)
Egresado - -> (Realizar Petición)


@enduml

PlantUML version 1.2022.7(Mon Aug 22 19:01:30 CEST 2022)
(GPL source distribution)
Java Runtime: OpenJDK Runtime Environment
JVM: OpenJDK 64-Bit Server VM
Default Encoding: Cp1252
Language: es
Country: ES
--></g></svg>