<?xml version="1.0" encoding="us-ascii" standalone="no"?><svg xmlns="http://www.w3.org/2000/svg" xmlns:xlink="http://www.w3.org/1999/xlink" contentStyleType="text/css" height="1174px" preserveAspectRatio="none" style="width:617px;height:1174px;background:#FFFFFF;" version="1.1" viewBox="0 0 617 1174" width="617px" zoomAndPan="magnify"><defs/><g><text fill="#000000" font-family="sans-serif" font-size="14" font-weight="bold" lengthAdjust="spacing" textLength="302" x="147.5" y="22.9951">TimeGuardian - Diagrama de Estados</text><!--cluster Inicio--><g id="cluster_Inicio"><path d="M24.5,118.2969 L591.5,118.2969 A12.5,12.5 0 0 1 604,130.7969 L604,139.5938 L12,139.5938 L12,130.7969 A12.5,12.5 0 0 1 24.5,118.2969 " fill="#F1F1F1" style="stroke:#F1F1F1;stroke-width:1.0;"/><rect fill="none" height="846" rx="12.5" ry="12.5" style="stroke:#181818;stroke-width:0.5;" width="592" x="12" y="118.2969"/><line style="stroke:#181818;stroke-width:0.5;" x1="12" x2="604" y1="139.5938" y2="139.5938"/><text fill="#000000" font-family="sans-serif" font-size="14" lengthAdjust="spacing" textLength="38" x="289" y="135.292">Inicio</text></g><ellipse cx="312" cy="171.2969" fill="#222222" rx="10" ry="10" style="stroke:#222222;stroke-width:1.0;"/><g id="Inicio.SeleccionaPantalla"><rect fill="#F1F1F1" height="50" rx="12.5" ry="12.5" style="stroke:#181818;stroke-width:0.5;" width="154" x="235" y="242.2969"/><line style="stroke:#181818;stroke-width:0.5;" x1="235" x2="389" y1="268.5938" y2="268.5938"/><text fill="#000000" font-family="sans-serif" font-size="14" lengthAdjust="spacing" textLength="134" x="245" y="260.292">SeleccionaPantalla</text></g><path d="M57,369.2969 L567,369.2969 A12.5,12.5 0 0 1 579.5,381.7969 L579.5,395.5938 L44.5,395.5938 L44.5,381.7969 A12.5,12.5 0 0 1 57,369.2969 " fill="#F1F1F1" style="stroke:#F1F1F1;stroke-width:1.0;"/><rect fill="none" height="570.5938" rx="12.5" ry="12.5" style="stroke:#181818;stroke-width:0.5;" width="535" x="44.5" y="369.2969"/><line style="stroke:#181818;stroke-width:0.5;" x1="44.5" x2="579.5" y1="395.5938" y2="395.5938"/><text fill="#000000" font-family="sans-serif" font-size="14" lengthAdjust="spacing" textLength="59" x="282.5" y="387.292">Horarios</text><ellipse cx="149.5" cy="432.5938" fill="#222222" rx="10" ry="10" style="stroke:#222222;stroke-width:1.0;"/><g id="Inicio.Horarios.MuestraAsignaturas"><rect fill="#F1F1F1" height="50" rx="12.5" ry="12.5" style="stroke:#181818;stroke-width:0.5;" width="160" x="69.5" y="510.5938"/><line style="stroke:#181818;stroke-width:0.5;" x1="69.5" x2="229.5" y1="536.8906" y2="536.8906"/><text fill="#000000" font-family="sans-serif" font-size="14" lengthAdjust="spacing" textLength="140" x="79.5" y="528.5889">MuestraAsignaturas</text></g><g id="Inicio.Horarios.MuestraOpciones"><rect fill="#F1F1F1" height="50" rx="12.5" ry="12.5" style="stroke:#181818;stroke-width:0.5;" width="144" x="241.5" y="407.5938"/><line style="stroke:#181818;stroke-width:0.5;" x1="241.5" x2="385.5" y1="433.8906" y2="433.8906"/><text fill="#000000" font-family="sans-serif" font-size="14" lengthAdjust="spacing" textLength="124" x="251.5" y="425.5889">MuestraOpciones</text></g><g id="Inicio.Horarios.ArrastraYSuelta"><rect fill="#F1F1F1" height="50" rx="12.5" ry="12.5" style="stroke:#181818;stroke-width:0.5;" width="132" x="247.5" y="510.5938"/><line style="stroke:#181818;stroke-width:0.5;" x1="247.5" x2="379.5" y1="536.8906" y2="536.8906"/><text fill="#000000" font-family="sans-serif" font-size="14" lengthAdjust="spacing" textLength="112" x="257.5" y="528.5889">ArrastraYSuelta</text></g><path d="M69,597.5938 L558,597.5938 A12.5,12.5 0 0 1 570.5,610.0938 L570.5,623.8906 L56.5,623.8906 L56.5,610.0938 A12.5,12.5 0 0 1 69,597.5938 " fill="#F1F1F1" style="stroke:#F1F1F1;stroke-width:1.0;"/><rect fill="none" height="332.2969" rx="12.5" ry="12.5" style="stroke:#181818;stroke-width:0.5;" width="514" x="56.5" y="597.5938"/><line style="stroke:#181818;stroke-width:0.5;" x1="56.5" x2="570.5" y1="623.8906" y2="623.8906"/><text fill="#000000" font-family="sans-serif" font-size="14" lengthAdjust="spacing" textLength="121" x="253" y="615.5889">VerificaConflicto</text><ellipse cx="229.5" cy="644.8906" fill="#222222" rx="10" ry="10" style="stroke:#222222;stroke-width:1.0;"/><g id="Inicio.Horarios.VerificaConflicto.Conflicto"><rect fill="#F1F1F1" height="50" rx="12.5" ry="12.5" style="stroke:#181818;stroke-width:0.5;" width="86" x="129.5" y="707.8906"/><line style="stroke:#181818;stroke-width:0.5;" x1="129.5" x2="215.5" y1="734.1875" y2="734.1875"/><text fill="#000000" font-family="sans-serif" font-size="14" lengthAdjust="spacing" textLength="66" x="139.5" y="725.8857">Conflicto</text></g><g id="Inicio.Horarios.VerificaConflicto.SinConflicto"><rect fill="#F1F1F1" height="50" rx="12.5" ry="12.5" style="stroke:#181818;stroke-width:0.5;" width="108" x="241.5" y="707.8906"/><line style="stroke:#181818;stroke-width:0.5;" x1="241.5" x2="349.5" y1="734.1875" y2="734.1875"/><text fill="#000000" font-family="sans-serif" font-size="14" lengthAdjust="spacing" textLength="88" x="251.5" y="725.8857">SinConflicto</text></g><g id="Inicio.Horarios.VerificaConflicto.Notificaci&#243;nConflicto"><rect fill="#F1F1F1" height="50" rx="12.5" ry="12.5" style="stroke:#181818;stroke-width:0.5;" width="172" x="68.5" y="810.8906"/><line style="stroke:#181818;stroke-width:0.5;" x1="68.5" x2="240.5" y1="837.1875" y2="837.1875"/><text fill="#000000" font-family="sans-serif" font-size="14" lengthAdjust="spacing" textLength="152" x="78.5" y="828.8857">Notificaci&#243;nConflicto</text></g><ellipse cx="266.5" cy="908.8906" fill="none" rx="11" ry="11" style="stroke:#222222;stroke-width:1.0;"/><ellipse cx="266.5" cy="908.8906" fill="#222222" rx="6" ry="6" style="stroke:#222222;stroke-width:1.0;"/><g id="Inicio.Horarios.VerificaConflicto.PosicionaElementos"><rect fill="#F1F1F1" height="50" rx="12.5" ry="12.5" style="stroke:#181818;stroke-width:0.5;" width="164" x="258.5" y="810.8906"/><line style="stroke:#181818;stroke-width:0.5;" x1="258.5" x2="422.5" y1="837.1875" y2="837.1875"/><text fill="#000000" font-family="sans-serif" font-size="14" lengthAdjust="spacing" textLength="144" x="268.5" y="828.8857">PosicionaElementos</text></g><!--link *start*VerificaConflicto to Conflicto--><g id="link_*start*VerificaConflicto_Conflicto"><path d="M224.442,653.5226 C216.486,665.5266 204.0246,684.3263 191.9366,702.5653 " fill="none" id="*start*VerificaConflicto-to-Conflicto" style="stroke:#181818;stroke-width:1.0;"/><polygon fill="#181818" points="188.622,707.5666,196.9282,702.2744,191.3842,703.3989,190.2598,697.8549,188.622,707.5666" style="stroke:#181818;stroke-width:1.0;"/><text fill="#000000" font-family="sans-serif" font-size="13" lengthAdjust="spacing" textLength="11" x="212.5" y="685.9575">S&#237;</text></g><!--link *start*VerificaConflicto to SinConflicto--><g id="link_*start*VerificaConflicto_SinConflicto"><path d="M235.127,653.2226 C244.292,665.1646 259.185,684.5718 273.317,702.9858 " fill="none" id="*start*VerificaConflicto-to-SinConflicto" style="stroke:#181818;stroke-width:1.0;"/><polygon fill="#181818" points="276.97,707.7456,274.6638,698.1706,273.9259,703.7791,268.3173,703.0412,276.97,707.7456" style="stroke:#181818;stroke-width:1.0;"/><text fill="#000000" font-family="sans-serif" font-size="13" lengthAdjust="spacing" textLength="17" x="263.5" y="685.9575">No</text></g><!--link Conflicto to Notificaci?nConflicto--><g id="link_Conflicto_Notificaci&#243;nConflicto"><path d="M168.1886,758.0826 C165.3596,773.9566 162.7258,788.7347 159.8914,804.6387 " fill="none" id="Conflicto-to-Notificaci&#243;nConflicto" style="stroke:#181818;stroke-width:1.0;"/><polygon fill="#181818" points="158.8387,810.5456,164.3557,802.3871,159.716,805.6232,156.4798,800.9834,158.8387,810.5456" style="stroke:#181818;stroke-width:1.0;"/><text fill="#000000" font-family="sans-serif" font-size="13" lengthAdjust="spacing" textLength="106" x="166.5" y="788.9575">Notifica conflicto</text></g><!--link Notificaci?nConflicto to *end*VerificaConflicto--><g id="link_Notificaci&#243;nConflicto_*end*VerificaConflicto"><path d="M192.418,860.928 C215.518,875.5716 238.1484,889.9178 252.2314,898.8454 " fill="none" id="Notificaci&#243;nConflicto-to-*end*VerificaConflicto" style="stroke:#181818;stroke-width:1.0;"/><polygon fill="#181818" points="257.299,902.0578,251.8393,893.8608,253.076,899.3808,247.556,900.6175,257.299,902.0578" style="stroke:#181818;stroke-width:1.0;"/></g><!--link SinConflicto to PosicionaElementos--><g id="link_SinConflicto_PosicionaElementos"><path d="M306.279,758.0826 C313.351,773.9566 320.1251,789.161 327.2111,805.065 " fill="none" id="SinConflicto-to-PosicionaElementos" style="stroke:#181818;stroke-width:1.0;"/><polygon fill="#181818" points="329.653,810.5456,329.6439,800.6968,327.6181,805.9784,322.3364,803.9526,329.653,810.5456" style="stroke:#181818;stroke-width:1.0;"/><text fill="#000000" font-family="sans-serif" font-size="13" lengthAdjust="spacing" textLength="239" x="321.5" y="788.9575">Posiciona asignaturas/clases/docente</text></g><!--link PosicionaElementos to *end*VerificaConflicto--><g id="link_PosicionaElementos_*end*VerificaConflicto"><path d="M315.447,860.928 C301.023,874.767 288.2154,887.0555 278.5224,896.3559 " fill="none" id="PosicionaElementos-to-*end*VerificaConflicto" style="stroke:#181818;stroke-width:1.0;"/><polygon fill="#181818" points="274.193,900.5099,283.4565,897.1651,277.8008,897.0482,277.9177,891.3926,274.193,900.5099" style="stroke:#181818;stroke-width:1.0;"/></g><!--link *start*Horarios to MuestraAsignaturas--><g id="link_*start*Horarios_MuestraAsignaturas"><path d="M149.5,442.9148 C149.5,458.1508 149.5,482.8618 149.5,504.5298 " fill="none" id="*start*Horarios-to-MuestraAsignaturas" style="stroke:#181818;stroke-width:1.0;"/><polygon fill="#181818" points="149.5,510.5298,153.5,501.5298,149.5,505.5298,145.5,501.5298,149.5,510.5298" style="stroke:#181818;stroke-width:1.0;"/></g><!--link MuestraOpciones to ArrastraYSuelta--><g id="link_MuestraOpciones_ArrastraYSuelta"><path d="M313.5,457.7858 C313.5,473.6598 313.5,488.3448 313.5,504.2488 " fill="none" id="MuestraOpciones-to-ArrastraYSuelta" style="stroke:#181818;stroke-width:1.0;"/><polygon fill="#181818" points="313.5,510.2488,317.5,501.2488,313.5,505.2488,309.5,501.2488,313.5,510.2488" style="stroke:#181818;stroke-width:1.0;"/><text fill="#000000" font-family="sans-serif" font-size="13" lengthAdjust="spacing" textLength="158" x="314.5" y="488.6606">Usuario arrastra y suelta</text></g><!--link ArrastraYSuelta to VerificaConflicto--><g id="link_ArrastraYSuelta_VerificaConflicto"><path d="M313.5,560.7797 C313.5,570.8008 313.5,577.3378 313.5,591.2317 " fill="none" id="ArrastraYSuelta-to-VerificaConflicto" style="stroke:#181818;stroke-width:1.0;"/><polygon fill="#181818" points="313.5,597.2317,317.5,588.2317,313.5,592.2317,309.5,588.2317,313.5,597.2317" style="stroke:#181818;stroke-width:1.0;"/></g><ellipse cx="20" cy="53.2969" fill="#222222" rx="10" ry="10" style="stroke:#222222;stroke-width:1.0;"/><g id="GuardaCambios"><rect fill="#F1F1F1" height="50" rx="12.5" ry="12.5" style="stroke:#181818;stroke-width:0.5;" width="132" x="246" y="1035.2969"/><line style="stroke:#181818;stroke-width:0.5;" x1="246" x2="378" y1="1061.5938" y2="1061.5938"/><text fill="#000000" font-family="sans-serif" font-size="14" lengthAdjust="spacing" textLength="112" x="256" y="1053.292">GuardaCambios</text></g><ellipse cx="312" cy="1157.2969" fill="none" rx="11" ry="11" style="stroke:#222222;stroke-width:1.0;"/><ellipse cx="312" cy="1157.2969" fill="#222222" rx="6" ry="6" style="stroke:#222222;stroke-width:1.0;"/><!--link *start* to Inicio--><g id="link_*start*_Inicio"><path d="M20,63.3969 C20,70.1269 20,80.0187 20,91.1086 C20,96.6536 20,102.498 20,108.3965 C20,111.3457 20,114.3084 20,117.254 C20,117.4381 20,111.6221 20,111.806 " fill="none" id="*start*-to-Inicio" style="stroke:#181818;stroke-width:1.0;"/><polygon fill="#181818" points="20,117.806,24,108.806,20,112.806,16,108.806,20,117.806" style="stroke:#181818;stroke-width:1.0;"/></g><!--link *start*Inicio to SeleccionaPantalla--><g id="link_*start*Inicio_SeleccionaPantalla"><path d="M312,181.3099 C312,195.1879 312,216.2619 312,236.1369 " fill="none" id="*start*Inicio-to-SeleccionaPantalla" style="stroke:#181818;stroke-width:1.0;"/><polygon fill="#181818" points="312,242.1369,316,233.1369,312,237.1369,308,233.1369,312,242.1369" style="stroke:#181818;stroke-width:1.0;"/></g><!--link SeleccionaPantalla to Horarios--><g id="link_SeleccionaPantalla_Horarios"><path d="M312,292.4119 C312,310.6259 312,331.8109 312,363.2459 " fill="none" id="SeleccionaPantalla-to-Horarios" style="stroke:#181818;stroke-width:1.0;"/><polygon fill="#181818" points="312,369.2459,316,360.2459,312,364.2459,308,360.2459,312,369.2459" style="stroke:#181818;stroke-width:1.0;"/><text fill="#000000" font-family="sans-serif" font-size="13" lengthAdjust="spacing" textLength="193" x="313" y="335.3638">Horarios Profesor/Grado/Aulas</text></g><!--link Horarios to GuardaCambios--><g id="link_Horarios_GuardaCambios"><path d="M312,940.4159 C312,979.5379 312,1007.6289 312,1029.1519 " fill="none" id="Horarios-to-GuardaCambios" style="stroke:#181818;stroke-width:1.0;"/><polygon fill="#181818" points="312,1035.1519,316,1026.1519,312,1030.1519,308,1026.1519,312,1035.1519" style="stroke:#181818;stroke-width:1.0;"/><text fill="#000000" font-family="sans-serif" font-size="13" lengthAdjust="spacing" textLength="105" x="313" y="1001.3638">Guarda cambios</text></g><!--link GuardaCambios to *end*--><g id="link_GuardaCambios_*end*"><path d="M312,1085.7618 C312,1105.3333 312,1125.789 312,1140.0936 " fill="none" id="GuardaCambios-to-*end*" style="stroke:#181818;stroke-width:1.0;"/><polygon fill="#181818" points="312,1146.0936,316,1137.0936,312,1141.0936,308,1137.0936,312,1146.0936" style="stroke:#181818;stroke-width:1.0;"/></g><!--SRC=[TP9DQiCm48NtEiMi2yRxB0ec3MaNJGrk2wLqCPKdOK2MYYGlIicHkkeHSh6EP2VEJmjUsEzzUc_mA78q18_SqR97tp9QAE26SUEnGsW95Y5Ywu9IhrTlK1JNS6TPirDAz4ZZ5tmfW3tGa24jeiKQRKHZKCnBCREtpgDd5s0slTRUhIauNowzD9TLRp2exRxmW1rNtlSKeiSgyCPYxBqSWBtuy95gAMImykA9-DBqP29AxLFeKnxWwC0dXEn9mZcT4fx9yverpfrT6zRH2IVFCDo5cQUSvfpq6JIxxnElONjihrns9oanAnTplkRTpnaz6A2FneB_-1GbjHavgKr6xGBdHIqCTMHZNiv119p-SQbbCnJArcdXACVzSNfgswOr7XQOz7pfS8xT-t09Xc_GWw1ExJ7e5m00]--></g></svg>