<?xml version="1.0" encoding="us-ascii" standalone="no"?><svg xmlns="http://www.w3.org/2000/svg" xmlns:xlink="http://www.w3.org/1999/xlink" contentStyleType="text/css" height="480px" preserveAspectRatio="none" style="width:160px;height:480px;background:#FFFFFF;" version="1.1" viewBox="0 0 160 480" width="160px" zoomAndPan="magnify"><defs/><g><ellipse cx="78.5" cy="16" fill="#222222" rx="10" ry="10" style="stroke:#222222;stroke-width:1.0;"/><g id="HorarioNoCreado"><rect fill="#F1F1F1" height="50" rx="12.5" ry="12.5" style="stroke:#181818;stroke-width:0.5;" width="142" x="7.5" y="103"/><line style="stroke:#181818;stroke-width:0.5;" x1="7.5" x2="149.5" y1="129.2969" y2="129.2969"/><text fill="#000000" font-family="sans-serif" font-size="14" lengthAdjust="spacing" textLength="122" x="17.5" y="120.9951">HorarioNoCreado</text></g><g id="Creando"><rect fill="#F1F1F1" height="50" rx="12.5" ry="12.5" style="stroke:#181818;stroke-width:0.5;" width="80" x="38.5" y="214"/><line style="stroke:#181818;stroke-width:0.5;" x1="38.5" x2="118.5" y1="240.2969" y2="240.2969"/><text fill="#000000" font-family="sans-serif" font-size="14" lengthAdjust="spacing" textLength="60" x="48.5" y="231.9951">Creando</text></g><g id="HorarioFinalizado"><rect fill="#F1F1F1" height="50" rx="12.5" ry="12.5" style="stroke:#181818;stroke-width:0.5;" width="143" x="7" y="325"/><line style="stroke:#181818;stroke-width:0.5;" x1="7" x2="150" y1="351.2969" y2="351.2969"/><text fill="#000000" font-family="sans-serif" font-size="14" lengthAdjust="spacing" textLength="123" x="17" y="342.9951">HorarioFinalizado</text></g><ellipse cx="78.5" cy="463" fill="none" rx="11" ry="11" style="stroke:#222222;stroke-width:1.0;"/><ellipse cx="78.5" cy="463" fill="#222222" rx="6" ry="6" style="stroke:#222222;stroke-width:1.0;"/><!--link *start* to HorarioNoCreado--><g id="link_*start*_HorarioNoCreado"><path d="M78.5,26.002 C78.5,42.627 78.5,72.655 78.5,96.873 " fill="none" id="*start*-to-HorarioNoCreado" style="stroke:#181818;stroke-width:1.0;"/><polygon fill="#181818" points="78.5,102.873,82.5,93.873,78.5,97.873,74.5,93.873,78.5,102.873" style="stroke:#181818;stroke-width:1.0;"/><text fill="#000000" font-family="sans-serif" font-size="13" lengthAdjust="spacing" textLength="37" x="79.5" y="69.0669">Iniciar</text></g><!--link HorarioNoCreado to Creando--><g id="link_HorarioNoCreado_Creando"><path d="M78.5,153.191 C78.5,171.254 78.5,189.83 78.5,207.877 " fill="none" id="HorarioNoCreado-to-Creando" style="stroke:#181818;stroke-width:1.0;"/><polygon fill="#181818" points="78.5,213.877,82.5,204.877,78.5,208.877,74.5,204.877,78.5,213.877" style="stroke:#181818;stroke-width:1.0;"/></g><!--link Creando to Creando--><g id="link_Creando_Creando"><path d="M118.624,229.075 C137.237,227.993 153.5,231.301 153.5,239 C153.5,246.699 143.2269,250.3552 124.6139,249.2732 " fill="none" id="Creando-to-Creando" style="stroke:#181818;stroke-width:1.0;"/><polygon fill="#181818" points="118.624,248.925,127.3767,253.4406,123.6156,249.2152,127.841,245.454,118.624,248.925" style="stroke:#181818;stroke-width:1.0;"/></g><!--link Creando to HorarioFinalizado--><g id="link_Creando_HorarioFinalizado"><path d="M78.5,264.191 C78.5,282.254 78.5,300.83 78.5,318.877 " fill="none" id="Creando-to-HorarioFinalizado" style="stroke:#181818;stroke-width:1.0;"/><polygon fill="#181818" points="78.5,324.877,82.5,315.877,78.5,319.877,74.5,315.877,78.5,324.877" style="stroke:#181818;stroke-width:1.0;"/></g><!--link HorarioFinalizado to *end*--><g id="link_HorarioFinalizado_*end*"><path d="M78.5,375.0853 C78.5,399.0597 78.5,428.6954 78.5,445.9353 " fill="none" id="HorarioFinalizado-to-*end*" style="stroke:#181818;stroke-width:1.0;"/><polygon fill="#181818" points="78.5,451.9353,82.5,442.9353,78.5,446.9353,74.5,442.9353,78.5,451.9353" style="stroke:#181818;stroke-width:1.0;"/><text fill="#000000" font-family="sans-serif" font-size="13" lengthAdjust="spacing" textLength="52" x="79.5" y="418.0669">Finalizar</text></g><!--SRC=[YzQALT3LjLFmo2zABChCzyjtBafDJCctKl3CoqpEJ2pYGfC0gGMnybBokQ0qI3yM8PYHRfbvYJcPLK2zN1WY86NHMh5M2Z2X8W00]--></g></svg>