<?xml version="1.0" encoding="us-ascii" standalone="no"?><svg xmlns="http://www.w3.org/2000/svg" xmlns:xlink="http://www.w3.org/1999/xlink" contentStyleType="text/css" height="567px" preserveAspectRatio="none" style="width:1549px;height:567px;background:#FFFFFF;" version="1.1" viewBox="0 0 1549 567" width="1549px" zoomAndPan="magnify"><defs/><g><ellipse cx="767.25" cy="20" fill="#222222" rx="10" ry="10" style="stroke:#222222;stroke-width:1.0;"/><rect fill="#F5F5F5" height="33.9688" rx="12.5" ry="12.5" style="stroke:#333333;stroke-width:0.5;" width="254" x="640.25" y="50"/><text fill="#333333" font-family="sans-serif" font-size="12" lengthAdjust="spacing" textLength="234" x="650.25" y="71.1387">Usuario accede al sistema de horarios</text><polygon fill="#F5F5F5" points="148,103.9688,260,103.9688,272,115.9688,260,127.9688,148,127.9688,136,115.9688,148,103.9688" style="stroke:#333333;stroke-width:0.5;"/><text fill="#000000" font-family="sans-serif" font-size="11" lengthAdjust="spacing" textLength="97" x="208" y="138.1792">Horario de Grado</text><text fill="#333333" font-family="sans-serif" font-size="11" lengthAdjust="spacing" textLength="112" x="148" y="119.7769">Selecciona pantalla</text><rect fill="#F5F5F5" height="33.9688" rx="12.5" ry="12.5" style="stroke:#333333;stroke-width:0.5;" width="242" x="83" y="160.7734"/><text fill="#333333" font-family="sans-serif" font-size="12" lengthAdjust="spacing" textLength="222" x="93" y="181.9121">Muestra asignaturas de cada carrera</text><rect fill="#F5F5F5" height="33.9688" rx="12.5" ry="12.5" style="stroke:#333333;stroke-width:0.5;" width="241" x="83.5" y="229.7422"/><text fill="#333333" font-family="sans-serif" font-size="12" lengthAdjust="spacing" textLength="221" x="93.5" y="250.8809">Usuario arrastra y suelta asignaturas</text><polygon fill="#F5F5F5" points="145.5,298.7109,262.5,298.7109,274.5,310.7109,262.5,322.7109,145.5,322.7109,133.5,310.7109,145.5,298.7109" style="stroke:#333333;stroke-width:0.5;"/><text fill="#333333" font-family="sans-serif" font-size="11" lengthAdjust="spacing" textLength="117" x="145.5" y="314.519">Conflicto de horario?</text><text fill="#000000" font-family="sans-serif" font-size="11" lengthAdjust="spacing" textLength="11" x="122.5" y="308.1167">S&#237;</text><text fill="#000000" font-family="sans-serif" font-size="11" lengthAdjust="spacing" textLength="15" x="274.5" y="308.1167">No</text><rect fill="#F5F5F5" height="33.9688" rx="12.5" ry="12.5" style="stroke:#333333;stroke-width:0.5;" width="164" x="11" y="332.7109"/><text fill="#333333" font-family="sans-serif" font-size="12" lengthAdjust="spacing" textLength="144" x="21" y="353.8496">Notificaci&#243;n de conflicto</text><ellipse cx="93" cy="412.6797" fill="none" rx="11" ry="11" style="stroke:#222222;stroke-width:1.0;"/><ellipse cx="93" cy="412.6797" fill="#222222" rx="6" ry="6" style="stroke:#222222;stroke-width:1.0;"/><rect fill="#F5F5F5" height="33.9688" rx="12.5" ry="12.5" style="stroke:#333333;stroke-width:0.5;" width="240" x="195" y="332.7109"/><text fill="#333333" font-family="sans-serif" font-size="12" lengthAdjust="spacing" textLength="220" x="205" y="353.8496">Asignaturas posicionadas en horario</text><polygon fill="#F5F5F5" points="583.5,103.9688,692.5,103.9688,704.5,115.9688,692.5,127.9688,583.5,127.9688,571.5,115.9688,583.5,103.9688" style="stroke:#333333;stroke-width:0.5;"/><text fill="#333333" font-family="sans-serif" font-size="11" lengthAdjust="spacing" textLength="109" x="583.5" y="119.7769">Horario de Profesor</text><text fill="#000000" font-family="sans-serif" font-size="11" lengthAdjust="spacing" textLength="88" x="704.5" y="113.3745">Horario de Aula</text><rect fill="#F5F5F5" height="33.9688" rx="12.5" ry="12.5" style="stroke:#333333;stroke-width:0.5;" width="308" x="484" y="147.9688"/><text fill="#333333" font-family="sans-serif" font-size="12" lengthAdjust="spacing" textLength="288" x="494" y="169.1074">Muestra asignaturas que imparte cada profesor</text><rect fill="#F5F5F5" height="33.9688" rx="12.5" ry="12.5" style="stroke:#333333;stroke-width:0.5;" width="241" x="517.5" y="216.9375"/><text fill="#333333" font-family="sans-serif" font-size="12" lengthAdjust="spacing" textLength="221" x="527.5" y="238.0762">Usuario arrastra y suelta asignaturas</text><polygon fill="#F5F5F5" points="579.5,285.9063,696.5,285.9063,708.5,297.9063,696.5,309.9063,579.5,309.9063,567.5,297.9063,579.5,285.9063" style="stroke:#333333;stroke-width:0.5;"/><text fill="#333333" font-family="sans-serif" font-size="11" lengthAdjust="spacing" textLength="117" x="579.5" y="301.7144">Conflicto de horario?</text><text fill="#000000" font-family="sans-serif" font-size="11" lengthAdjust="spacing" textLength="11" x="556.5" y="295.312">S&#237;</text><text fill="#000000" font-family="sans-serif" font-size="11" lengthAdjust="spacing" textLength="15" x="708.5" y="295.312">No</text><rect fill="#F5F5F5" height="33.9688" rx="12.5" ry="12.5" style="stroke:#333333;stroke-width:0.5;" width="164" x="445" y="319.9063"/><text fill="#333333" font-family="sans-serif" font-size="12" lengthAdjust="spacing" textLength="144" x="455" y="341.0449">Notificaci&#243;n de conflicto</text><ellipse cx="527" cy="399.875" fill="none" rx="11" ry="11" style="stroke:#222222;stroke-width:1.0;"/><ellipse cx="527" cy="399.875" fill="#222222" rx="6" ry="6" style="stroke:#222222;stroke-width:1.0;"/><rect fill="#F5F5F5" height="33.9688" rx="12.5" ry="12.5" style="stroke:#333333;stroke-width:0.5;" width="240" x="629" y="319.9063"/><text fill="#333333" font-family="sans-serif" font-size="12" lengthAdjust="spacing" textLength="220" x="639" y="341.0449">Asignaturas posicionadas en horario</text><rect fill="#F5F5F5" height="33.9688" rx="12.5" ry="12.5" style="stroke:#333333;stroke-width:0.5;" width="184" x="1062" y="143.1699"/><text fill="#333333" font-family="sans-serif" font-size="12" lengthAdjust="spacing" textLength="164" x="1072" y="164.3086">Muestra clase en cada aula</text><rect fill="#F5F5F5" height="33.9688" rx="12.5" ry="12.5" style="stroke:#333333;stroke-width:0.5;" width="211" x="1048.5" y="212.1387"/><text fill="#333333" font-family="sans-serif" font-size="12" lengthAdjust="spacing" textLength="191" x="1058.5" y="233.2773">Usuario arrastra y suelta clases</text><polygon fill="#F5F5F5" points="1095.5,281.1074,1212.5,281.1074,1224.5,293.1074,1212.5,305.1074,1095.5,305.1074,1083.5,293.1074,1095.5,281.1074" style="stroke:#333333;stroke-width:0.5;"/><text fill="#333333" font-family="sans-serif" font-size="11" lengthAdjust="spacing" textLength="117" x="1095.5" y="296.9155">Conflicto de horario?</text><text fill="#000000" font-family="sans-serif" font-size="11" lengthAdjust="spacing" textLength="11" x="1072.5" y="290.5132">S&#237;</text><text fill="#000000" font-family="sans-serif" font-size="11" lengthAdjust="spacing" textLength="15" x="1224.5" y="290.5132">No</text><rect fill="#F5F5F5" height="33.9688" rx="12.5" ry="12.5" style="stroke:#333333;stroke-width:0.5;" width="164" x="904.25" y="315.1074"/><text fill="#333333" font-family="sans-serif" font-size="12" lengthAdjust="spacing" textLength="144" x="914.25" y="336.2461">Notificaci&#243;n de conflicto</text><ellipse cx="986.25" cy="395.0762" fill="none" rx="11" ry="11" style="stroke:#222222;stroke-width:1.0;"/><ellipse cx="986.25" cy="395.0762" fill="#222222" rx="6" ry="6" style="stroke:#222222;stroke-width:1.0;"/><polygon fill="#F5F5F5" points="1222.25,315.1074,1421.25,315.1074,1433.25,327.1074,1421.25,339.1074,1222.25,339.1074,1210.25,327.1074,1222.25,315.1074" style="stroke:#333333;stroke-width:0.5;"/><text fill="#333333" font-family="sans-serif" font-size="11" lengthAdjust="spacing" textLength="199" x="1222.25" y="330.9155">Cambio de aula sin otros cambios?</text><text fill="#000000" font-family="sans-serif" font-size="11" lengthAdjust="spacing" textLength="11" x="1199.25" y="324.5132">S&#237;</text><text fill="#000000" font-family="sans-serif" font-size="11" lengthAdjust="spacing" textLength="15" x="1433.25" y="324.5132">No</text><rect fill="#F5F5F5" height="33.9688" rx="12.5" ry="12.5" style="stroke:#333333;stroke-width:0.5;" width="204" x="1098.25" y="349.1074"/><text fill="#333333" font-family="sans-serif" font-size="12" lengthAdjust="spacing" textLength="184" x="1108.25" y="370.2461">Notificaci&#243;n de cambio aislado</text><ellipse cx="1200.25" cy="429.0762" fill="none" rx="11" ry="11" style="stroke:#222222;stroke-width:1.0;"/><ellipse cx="1200.25" cy="429.0762" fill="#222222" rx="6" ry="6" style="stroke:#222222;stroke-width:1.0;"/><rect fill="#F5F5F5" height="33.9688" rx="12.5" ry="12.5" style="stroke:#333333;stroke-width:0.5;" width="191" x="1347.75" y="349.1074"/><text fill="#333333" font-family="sans-serif" font-size="12" lengthAdjust="spacing" textLength="171" x="1357.75" y="370.2461">Clases posicionadas en aula</text><rect fill="#F5F5F5" height="33.9688" rx="12.5" ry="12.5" style="stroke:#333333;stroke-width:0.5;" width="203" x="665.75" y="480.0762"/><text fill="#333333" font-family="sans-serif" font-size="12" lengthAdjust="spacing" textLength="183" x="675.75" y="501.2148">Guarda cambios en el sistema</text><ellipse cx="767.25" cy="545.0449" fill="none" rx="11" ry="11" style="stroke:#222222;stroke-width:1.0;"/><ellipse cx="767.25" cy="545.0449" fill="#222222" rx="6" ry="6" style="stroke:#222222;stroke-width:1.0;"/><line style="stroke:#333333;stroke-width:1.0;" x1="767.25" x2="767.25" y1="30" y2="50"/><polygon fill="#333333" points="763.25,40,767.25,50,771.25,40,767.25,44" style="stroke:#333333;stroke-width:1.0;"/><line style="stroke:#333333;stroke-width:1.0;" x1="204" x2="204" y1="194.7422" y2="229.7422"/><polygon fill="#333333" points="200,219.7422,204,229.7422,208,219.7422,204,223.7422" style="stroke:#333333;stroke-width:1.0;"/><line style="stroke:#333333;stroke-width:1.0;" x1="93" x2="93" y1="366.6797" y2="401.6797"/><polygon fill="#333333" points="89,391.6797,93,401.6797,97,391.6797,93,395.6797" style="stroke:#333333;stroke-width:1.0;"/><line style="stroke:#333333;stroke-width:1.0;" x1="133.5" x2="93" y1="310.7109" y2="310.7109"/><line style="stroke:#333333;stroke-width:1.0;" x1="93" x2="93" y1="310.7109" y2="332.7109"/><polygon fill="#333333" points="89,322.7109,93,332.7109,97,322.7109,93,326.7109" style="stroke:#333333;stroke-width:1.0;"/><line style="stroke:#333333;stroke-width:1.0;" x1="274.5" x2="315" y1="310.7109" y2="310.7109"/><line style="stroke:#333333;stroke-width:1.0;" x1="315" x2="315" y1="310.7109" y2="332.7109"/><polygon fill="#333333" points="311,322.7109,315,332.7109,319,322.7109,315,326.7109" style="stroke:#333333;stroke-width:1.0;"/><line style="stroke:#333333;stroke-width:1.0;" x1="315" x2="315" y1="366.6797" y2="429.6797"/><line style="stroke:#333333;stroke-width:1.0;" x1="315" x2="204" y1="429.6797" y2="429.6797"/><line style="stroke:#333333;stroke-width:1.0;" x1="204" x2="204" y1="429.6797" y2="460.0762"/><polygon fill="#333333" points="200,450.0762,204,460.0762,208,450.0762,204,454.0762" style="stroke:#333333;stroke-width:1.0;"/><line style="stroke:#333333;stroke-width:1.0;" x1="204" x2="204" y1="263.7109" y2="298.7109"/><polygon fill="#333333" points="200,288.7109,204,298.7109,208,288.7109,204,292.7109" style="stroke:#333333;stroke-width:1.0;"/><line style="stroke:#333333;stroke-width:1.0;" x1="638" x2="638" y1="181.9375" y2="216.9375"/><polygon fill="#333333" points="634,206.9375,638,216.9375,642,206.9375,638,210.9375" style="stroke:#333333;stroke-width:1.0;"/><line style="stroke:#333333;stroke-width:1.0;" x1="527" x2="527" y1="353.875" y2="388.875"/><polygon fill="#333333" points="523,378.875,527,388.875,531,378.875,527,382.875" style="stroke:#333333;stroke-width:1.0;"/><line style="stroke:#333333;stroke-width:1.0;" x1="567.5" x2="527" y1="297.9063" y2="297.9063"/><line style="stroke:#333333;stroke-width:1.0;" x1="527" x2="527" y1="297.9063" y2="319.9063"/><polygon fill="#333333" points="523,309.9063,527,319.9063,531,309.9063,527,313.9063" style="stroke:#333333;stroke-width:1.0;"/><line style="stroke:#333333;stroke-width:1.0;" x1="708.5" x2="749" y1="297.9063" y2="297.9063"/><line style="stroke:#333333;stroke-width:1.0;" x1="749" x2="749" y1="297.9063" y2="319.9063"/><polygon fill="#333333" points="745,309.9063,749,319.9063,753,309.9063,749,313.9063" style="stroke:#333333;stroke-width:1.0;"/><line style="stroke:#333333;stroke-width:1.0;" x1="749" x2="749" y1="353.875" y2="416.875"/><line style="stroke:#333333;stroke-width:1.0;" x1="749" x2="638" y1="416.875" y2="416.875"/><line style="stroke:#333333;stroke-width:1.0;" x1="638" x2="638" y1="416.875" y2="460.0762"/><polygon fill="#333333" points="634,450.0762,638,460.0762,642,450.0762,638,454.0762" style="stroke:#333333;stroke-width:1.0;"/><line style="stroke:#333333;stroke-width:1.0;" x1="638" x2="638" y1="250.9063" y2="285.9063"/><polygon fill="#333333" points="634,275.9063,638,285.9063,642,275.9063,638,279.9063" style="stroke:#333333;stroke-width:1.0;"/><line style="stroke:#333333;stroke-width:1.0;" x1="1154" x2="1154" y1="177.1387" y2="212.1387"/><polygon fill="#333333" points="1150,202.1387,1154,212.1387,1158,202.1387,1154,206.1387" style="stroke:#333333;stroke-width:1.0;"/><line style="stroke:#333333;stroke-width:1.0;" x1="986.25" x2="986.25" y1="349.0762" y2="384.0762"/><polygon fill="#333333" points="982.25,374.0762,986.25,384.0762,990.25,374.0762,986.25,378.0762" style="stroke:#333333;stroke-width:1.0;"/><line style="stroke:#333333;stroke-width:1.0;" x1="1200.25" x2="1200.25" y1="383.0762" y2="418.0762"/><polygon fill="#333333" points="1196.25,408.0762,1200.25,418.0762,1204.25,408.0762,1200.25,412.0762" style="stroke:#333333;stroke-width:1.0;"/><line style="stroke:#333333;stroke-width:1.0;" x1="1210.25" x2="1200.25" y1="327.1074" y2="327.1074"/><line style="stroke:#333333;stroke-width:1.0;" x1="1200.25" x2="1200.25" y1="327.1074" y2="349.1074"/><polygon fill="#333333" points="1196.25,339.1074,1200.25,349.1074,1204.25,339.1074,1200.25,343.1074" style="stroke:#333333;stroke-width:1.0;"/><line style="stroke:#333333;stroke-width:1.0;" x1="1433.25" x2="1443.25" y1="327.1074" y2="327.1074"/><line style="stroke:#333333;stroke-width:1.0;" x1="1443.25" x2="1443.25" y1="327.1074" y2="349.1074"/><polygon fill="#333333" points="1439.25,339.1074,1443.25,349.1074,1447.25,339.1074,1443.25,343.1074" style="stroke:#333333;stroke-width:1.0;"/><line style="stroke:#333333;stroke-width:1.0;" x1="1443.25" x2="1443.25" y1="383.0762" y2="445.0762"/><line style="stroke:#333333;stroke-width:1.0;" x1="1443.25" x2="1154" y1="445.0762" y2="445.0762"/><line style="stroke:#333333;stroke-width:1.0;" x1="1154" x2="1154" y1="445.0762" y2="460.0762"/><polygon fill="#333333" points="1150,450.0762,1154,460.0762,1158,450.0762,1154,454.0762" style="stroke:#333333;stroke-width:1.0;"/><line style="stroke:#333333;stroke-width:1.0;" x1="1083.5" x2="986.25" y1="293.1074" y2="293.1074"/><line style="stroke:#333333;stroke-width:1.0;" x1="986.25" x2="986.25" y1="293.1074" y2="315.1074"/><polygon fill="#333333" points="982.25,305.1074,986.25,315.1074,990.25,305.1074,986.25,309.1074" style="stroke:#333333;stroke-width:1.0;"/><line style="stroke:#333333;stroke-width:1.0;" x1="1224.5" x2="1321.75" y1="293.1074" y2="293.1074"/><line style="stroke:#333333;stroke-width:1.0;" x1="1321.75" x2="1321.75" y1="293.1074" y2="315.1074"/><polygon fill="#333333" points="1317.75,305.1074,1321.75,315.1074,1325.75,305.1074,1321.75,309.1074" style="stroke:#333333;stroke-width:1.0;"/><line style="stroke:#333333;stroke-width:1.0;" x1="1154" x2="1154" y1="246.1074" y2="281.1074"/><polygon fill="#333333" points="1150,271.1074,1154,281.1074,1158,271.1074,1154,275.1074" style="stroke:#333333;stroke-width:1.0;"/><line style="stroke:#333333;stroke-width:1.0;" x1="204" x2="204" y1="127.9688" y2="160.7734"/><polygon fill="#333333" points="200,150.7734,204,160.7734,208,150.7734,204,154.7734" style="stroke:#333333;stroke-width:1.0;"/><line style="stroke:#333333;stroke-width:1.0;" x1="638" x2="638" y1="127.9688" y2="147.9688"/><polygon fill="#333333" points="634,137.9688,638,147.9688,642,137.9688,638,141.9688" style="stroke:#333333;stroke-width:1.0;"/><line style="stroke:#333333;stroke-width:1.0;" x1="272" x2="571.5" y1="115.9688" y2="115.9688"/><polygon fill="#333333" points="561.5,111.9688,571.5,115.9688,561.5,119.9688,565.5,115.9688" style="stroke:#333333;stroke-width:1.0;"/><line style="stroke:#333333;stroke-width:1.0;" x1="767.25" x2="767.25" y1="83.9688" y2="88.9688"/><line style="stroke:#333333;stroke-width:1.0;" x1="767.25" x2="204" y1="88.9688" y2="88.9688"/><line style="stroke:#333333;stroke-width:1.0;" x1="204" x2="204" y1="88.9688" y2="103.9688"/><polygon fill="#333333" points="200,93.9688,204,103.9688,208,93.9688,204,97.9688" style="stroke:#333333;stroke-width:1.0;"/><line style="stroke:#333333;stroke-width:1.0;" x1="704.5" x2="1154" y1="115.9688" y2="115.9688"/><line style="stroke:#333333;stroke-width:1.0;" x1="1154" x2="1154" y1="115.9688" y2="143.1699"/><polygon fill="#333333" points="1150,133.1699,1154,143.1699,1158,133.1699,1154,137.1699" style="stroke:#333333;stroke-width:1.0;"/><line style="stroke:#333333;stroke-width:1.0;" x1="204" x2="1154" y1="460.0762" y2="460.0762"/><line style="stroke:#333333;stroke-width:1.0;" x1="767.25" x2="767.25" y1="460.0762" y2="480.0762"/><polygon fill="#333333" points="763.25,470.0762,767.25,480.0762,771.25,470.0762,767.25,474.0762" style="stroke:#333333;stroke-width:1.0;"/><line style="stroke:#333333;stroke-width:1.0;" x1="767.25" x2="767.25" y1="514.0449" y2="534.0449"/><polygon fill="#333333" points="763.25,524.0449,767.25,534.0449,771.25,524.0449,767.25,528.0449" style="stroke:#333333;stroke-width:1.0;"/><!--SRC=[rLD1JiCm4Bpx5PQujEUAItD0fLBBXGgfuW6BuxHM7M_OTK1z52UUq8-nTfCgq08t91J9YhKpExEJBEzSQ82Wrc2YUt5nVmjcjo5iGpb7ZwIl5jVfKNoEH2ejTQZ9P781ii0GVmJCYF1rW50SWQ9IqqTkWHmAqDZIQl2Q7KTRWvRR5YaLkL3ALNgqjjuQup20RY14y1x6EcvjqAEx8pAHbWGbZfNMq_lMSYJGm6uJ8BO4d006If23o18K2NVoG898XBtcrlhuYPcGoSGSG-MTYJWmUDFRM1_UahBqN65qbJDWtE4zPDMULsG0HspanNgsUhJ2ZZKRE6sGNHwsb8iqxxGItORILIfpawN1y0-4bMMaR-T_ReLJoyU9NH1Dn_ZtIGnZcBNoQmmZC1u48jmyCqZvbtapuKz6pVsXVZewJzPa1OB6ICXYDnNuNEkYsh4BEFQo0aM7wqI_oag3UPxnBDu-dJxTKyhvLDEbP9OtA5jB37lQsa8bkGy0]--></g></svg>