<?xml version="1.0" encoding="us-ascii" standalone="no"?><svg xmlns="http://www.w3.org/2000/svg" xmlns:xlink="http://www.w3.org/1999/xlink" contentStyleType="text/css" height="491px" preserveAspectRatio="none" style="width:703px;height:491px;background:#FFFFFF;" version="1.1" viewBox="0 0 703 491" width="703px" zoomAndPan="magnify"><defs/><g><!--class Horario--><g id="elem_Horario"><rect codeLine="1" fill="#F1F1F1" height="145.7813" id="Horario" rx="2.5" ry="2.5" style="stroke:#181818;stroke-width:0.5;" width="199" x="259.5" y="7"/><ellipse cx="328.75" cy="23" fill="#ADD1B2" rx="11" ry="11" style="stroke:#181818;stroke-width:1.0;"/><path d="M331.0938,18.6719 C330.1563,18.2344 329.5625,18.0938 328.6875,18.0938 C326.0625,18.0938 324.0625,20.1719 324.0625,22.8906 L324.0625,24.0156 C324.0625,26.5938 326.1719,28.4844 329.0625,28.4844 C330.2813,28.4844 331.4375,28.1875 332.1875,27.6406 C332.7656,27.2344 333.0938,26.7813 333.0938,26.3906 C333.0938,25.9375 332.7031,25.5469 332.2344,25.5469 C332.0156,25.5469 331.8125,25.625 331.625,25.8125 C331.1719,26.2969 331.1719,26.2969 330.9844,26.3906 C330.5625,26.6563 329.875,26.7813 329.1094,26.7813 C327.0625,26.7813 325.7656,25.6875 325.7656,23.9844 L325.7656,22.8906 C325.7656,21.1094 327.0156,19.7969 328.75,19.7969 C329.3281,19.7969 329.9375,19.9531 330.4063,20.2031 C330.8906,20.4844 331.0625,20.7031 331.1563,21.1094 C331.2188,21.5156 331.25,21.6406 331.3906,21.7656 C331.5313,21.9063 331.7656,22.0156 331.9844,22.0156 C332.25,22.0156 332.5156,21.875 332.6875,21.6563 C332.7969,21.5 332.8281,21.3125 332.8281,20.8906 L332.8281,19.4688 C332.8281,19.0313 332.8125,18.9063 332.7188,18.75 C332.5625,18.4844 332.2813,18.3438 331.9844,18.3438 C331.6875,18.3438 331.4844,18.4375 331.2656,18.75 L331.0938,18.6719 Z " fill="#000000"/><text fill="#000000" font-family="sans-serif" font-size="14" lengthAdjust="spacing" textLength="52" x="349.25" y="27.8467">Horario</text><line style="stroke:#181818;stroke-width:0.5;" x1="260.5" x2="457.5" y1="39" y2="39"/><rect fill="none" height="6" style="stroke:#C82930;stroke-width:1.0;" width="6" x="267.5" y="49.6484"/><text fill="#000000" font-family="sans-serif" font-size="14" lengthAdjust="spacing" textLength="63" x="279.5" y="55.9951">int horas</text><rect fill="none" height="6" style="stroke:#C82930;stroke-width:1.0;" width="6" x="267.5" y="65.9453"/><text fill="#000000" font-family="sans-serif" font-size="14" lengthAdjust="spacing" textLength="86" x="279.5" y="72.292">String[] dias</text><rect fill="none" height="6" style="stroke:#C82930;stroke-width:1.0;" width="6" x="267.5" y="82.2422"/><text fill="#000000" font-family="sans-serif" font-size="14" lengthAdjust="spacing" textLength="173" x="279.5" y="88.5889">String[] bloquesHorarios</text><line style="stroke:#181818;stroke-width:0.5;" x1="260.5" x2="457.5" y1="95.8906" y2="95.8906"/><ellipse cx="270.5" cy="109.5391" fill="#84BE84" rx="3" ry="3" style="stroke:#038048;stroke-width:1.0;"/><text fill="#000000" font-family="sans-serif" font-size="14" lengthAdjust="spacing" textLength="62" x="279.5" y="112.8857">Horario()</text><ellipse cx="270.5" cy="125.8359" fill="#84BE84" rx="3" ry="3" style="stroke:#038048;stroke-width:1.0;"/><text fill="#000000" font-family="sans-serif" font-size="14" lengthAdjust="spacing" textLength="101" x="279.5" y="129.1826">asignarHoras()</text><ellipse cx="270.5" cy="142.1328" fill="#84BE84" rx="3" ry="3" style="stroke:#038048;stroke-width:1.0;"/><text fill="#000000" font-family="sans-serif" font-size="14" lengthAdjust="spacing" textLength="91" x="279.5" y="145.4795">asignarDias()</text></g><!--class HorarioGrado--><g id="elem_HorarioGrado"><rect codeLine="10" fill="#F1F1F1" height="113.1875" id="HorarioGrado" rx="2.5" ry="2.5" style="stroke:#181818;stroke-width:0.5;" width="208" x="7" y="222"/><ellipse cx="59.25" cy="238" fill="#ADD1B2" rx="11" ry="11" style="stroke:#181818;stroke-width:1.0;"/><path d="M61.5938,233.6719 C60.6563,233.2344 60.0625,233.0938 59.1875,233.0938 C56.5625,233.0938 54.5625,235.1719 54.5625,237.8906 L54.5625,239.0156 C54.5625,241.5938 56.6719,243.4844 59.5625,243.4844 C60.7813,243.4844 61.9375,243.1875 62.6875,242.6406 C63.2656,242.2344 63.5938,241.7813 63.5938,241.3906 C63.5938,240.9375 63.2031,240.5469 62.7344,240.5469 C62.5156,240.5469 62.3125,240.625 62.125,240.8125 C61.6719,241.2969 61.6719,241.2969 61.4844,241.3906 C61.0625,241.6563 60.375,241.7813 59.6094,241.7813 C57.5625,241.7813 56.2656,240.6875 56.2656,238.9844 L56.2656,237.8906 C56.2656,236.1094 57.5156,234.7969 59.25,234.7969 C59.8281,234.7969 60.4375,234.9531 60.9063,235.2031 C61.3906,235.4844 61.5625,235.7031 61.6563,236.1094 C61.7188,236.5156 61.75,236.6406 61.8906,236.7656 C62.0313,236.9063 62.2656,237.0156 62.4844,237.0156 C62.75,237.0156 63.0156,236.875 63.1875,236.6563 C63.2969,236.5 63.3281,236.3125 63.3281,235.8906 L63.3281,234.4688 C63.3281,234.0313 63.3125,233.9063 63.2188,233.75 C63.0625,233.4844 62.7813,233.3438 62.4844,233.3438 C62.1875,233.3438 61.9844,233.4375 61.7656,233.75 L61.5938,233.6719 Z " fill="#000000"/><text fill="#000000" font-family="sans-serif" font-size="14" lengthAdjust="spacing" textLength="95" x="79.75" y="242.8467">HorarioGrado</text><line style="stroke:#181818;stroke-width:0.5;" x1="8" x2="214" y1="254" y2="254"/><rect fill="none" height="6" style="stroke:#C82930;stroke-width:1.0;" width="6" x="15" y="264.6484"/><text fill="#000000" font-family="sans-serif" font-size="14" lengthAdjust="spacing" textLength="148" x="27" y="270.9951">String nombreGrado</text><rect fill="none" height="6" style="stroke:#C82930;stroke-width:1.0;" width="6" x="15" y="280.9453"/><text fill="#000000" font-family="sans-serif" font-size="14" lengthAdjust="spacing" textLength="97" x="27" y="287.292">int anioGrado</text><rect fill="none" height="6" style="stroke:#C82930;stroke-width:1.0;" width="6" x="15" y="297.2422"/><text fill="#000000" font-family="sans-serif" font-size="14" lengthAdjust="spacing" textLength="182" x="27" y="303.5889">String[] asignaturasGrado</text><line style="stroke:#181818;stroke-width:0.5;" x1="8" x2="214" y1="310.8906" y2="310.8906"/><ellipse cx="18" cy="324.5391" fill="#84BE84" rx="3" ry="3" style="stroke:#038048;stroke-width:1.0;"/><text fill="#000000" font-family="sans-serif" font-size="14" lengthAdjust="spacing" textLength="105" x="27" y="327.8857">HorarioGrado()</text></g><!--class HorarioAula--><g id="elem_HorarioAula"><rect codeLine="17" fill="#F1F1F1" height="129.4844" id="HorarioAula" rx="2.5" ry="2.5" style="stroke:#181818;stroke-width:0.5;" width="218" x="250" y="214"/><ellipse cx="313.75" cy="230" fill="#ADD1B2" rx="11" ry="11" style="stroke:#181818;stroke-width:1.0;"/><path d="M316.0938,225.6719 C315.1563,225.2344 314.5625,225.0938 313.6875,225.0938 C311.0625,225.0938 309.0625,227.1719 309.0625,229.8906 L309.0625,231.0156 C309.0625,233.5938 311.1719,235.4844 314.0625,235.4844 C315.2813,235.4844 316.4375,235.1875 317.1875,234.6406 C317.7656,234.2344 318.0938,233.7813 318.0938,233.3906 C318.0938,232.9375 317.7031,232.5469 317.2344,232.5469 C317.0156,232.5469 316.8125,232.625 316.625,232.8125 C316.1719,233.2969 316.1719,233.2969 315.9844,233.3906 C315.5625,233.6563 314.875,233.7813 314.1094,233.7813 C312.0625,233.7813 310.7656,232.6875 310.7656,230.9844 L310.7656,229.8906 C310.7656,228.1094 312.0156,226.7969 313.75,226.7969 C314.3281,226.7969 314.9375,226.9531 315.4063,227.2031 C315.8906,227.4844 316.0625,227.7031 316.1563,228.1094 C316.2188,228.5156 316.25,228.6406 316.3906,228.7656 C316.5313,228.9063 316.7656,229.0156 316.9844,229.0156 C317.25,229.0156 317.5156,228.875 317.6875,228.6563 C317.7969,228.5 317.8281,228.3125 317.8281,227.8906 L317.8281,226.4688 C317.8281,226.0313 317.8125,225.9063 317.7188,225.75 C317.5625,225.4844 317.2813,225.3438 316.9844,225.3438 C316.6875,225.3438 316.4844,225.4375 316.2656,225.75 L316.0938,225.6719 Z " fill="#000000"/><text fill="#000000" font-family="sans-serif" font-size="14" lengthAdjust="spacing" textLength="82" x="334.25" y="234.8467">HorarioAula</text><line style="stroke:#181818;stroke-width:0.5;" x1="251" x2="467" y1="246" y2="246"/><rect fill="none" height="6" style="stroke:#C82930;stroke-width:1.0;" width="6" x="258" y="256.6484"/><text fill="#000000" font-family="sans-serif" font-size="14" lengthAdjust="spacing" textLength="192" x="270" y="262.9951">boolean disponibilidadAula</text><rect fill="none" height="6" style="stroke:#C82930;stroke-width:1.0;" width="6" x="258" y="272.9453"/><text fill="#000000" font-family="sans-serif" font-size="14" lengthAdjust="spacing" textLength="116" x="270" y="279.292">int numeroAulas</text><rect fill="none" height="6" style="stroke:#C82930;stroke-width:1.0;" width="6" x="258" y="289.2422"/><text fill="#000000" font-family="sans-serif" font-size="14" lengthAdjust="spacing" textLength="167" x="270" y="295.5889">String nombreDocente</text><rect fill="none" height="6" style="stroke:#C82930;stroke-width:1.0;" width="6" x="258" y="305.5391"/><text fill="#000000" font-family="sans-serif" font-size="14" lengthAdjust="spacing" textLength="152" x="270" y="311.8857">int horarioDisponible</text><line style="stroke:#181818;stroke-width:0.5;" x1="251" x2="467" y1="319.1875" y2="319.1875"/><ellipse cx="261" cy="332.8359" fill="#84BE84" rx="3" ry="3" style="stroke:#038048;stroke-width:1.0;"/><text fill="#000000" font-family="sans-serif" font-size="14" lengthAdjust="spacing" textLength="92" x="270" y="336.1826">HorarioAula()</text></g><!--class HorarioDocente--><g id="elem_HorarioDocente"><rect codeLine="25" fill="#F1F1F1" height="96.8906" id="HorarioDocente" rx="2.5" ry="2.5" style="stroke:#181818;stroke-width:0.5;" width="193" x="503.5" y="230"/><ellipse cx="539.65" cy="246" fill="#ADD1B2" rx="11" ry="11" style="stroke:#181818;stroke-width:1.0;"/><path d="M541.9938,241.6719 C541.0563,241.2344 540.4625,241.0938 539.5875,241.0938 C536.9625,241.0938 534.9625,243.1719 534.9625,245.8906 L534.9625,247.0156 C534.9625,249.5938 537.0719,251.4844 539.9625,251.4844 C541.1813,251.4844 542.3375,251.1875 543.0875,250.6406 C543.6656,250.2344 543.9938,249.7813 543.9938,249.3906 C543.9938,248.9375 543.6031,248.5469 543.1344,248.5469 C542.9156,248.5469 542.7125,248.625 542.525,248.8125 C542.0719,249.2969 542.0719,249.2969 541.8844,249.3906 C541.4625,249.6563 540.775,249.7813 540.0094,249.7813 C537.9625,249.7813 536.6656,248.6875 536.6656,246.9844 L536.6656,245.8906 C536.6656,244.1094 537.9156,242.7969 539.65,242.7969 C540.2281,242.7969 540.8375,242.9531 541.3063,243.2031 C541.7906,243.4844 541.9625,243.7031 542.0563,244.1094 C542.1188,244.5156 542.15,244.6406 542.2906,244.7656 C542.4313,244.9063 542.6656,245.0156 542.8844,245.0156 C543.15,245.0156 543.4156,244.875 543.5875,244.6563 C543.6969,244.5 543.7281,244.3125 543.7281,243.8906 L543.7281,242.4688 C543.7281,242.0313 543.7125,241.9063 543.6188,241.75 C543.4625,241.4844 543.1813,241.3438 542.8844,241.3438 C542.5875,241.3438 542.3844,241.4375 542.1656,241.75 L541.9938,241.6719 Z " fill="#000000"/><text fill="#000000" font-family="sans-serif" font-size="14" lengthAdjust="spacing" textLength="114" x="558.35" y="250.8467">HorarioDocente</text><line style="stroke:#181818;stroke-width:0.5;" x1="504.5" x2="695.5" y1="262" y2="262"/><rect fill="none" height="6" style="stroke:#C82930;stroke-width:1.0;" width="6" x="511.5" y="272.6484"/><text fill="#000000" font-family="sans-serif" font-size="14" lengthAdjust="spacing" textLength="167" x="523.5" y="278.9951">String nombreDocente</text><rect fill="none" height="6" style="stroke:#C82930;stroke-width:1.0;" width="6" x="511.5" y="288.9453"/><text fill="#000000" font-family="sans-serif" font-size="14" lengthAdjust="spacing" textLength="152" x="523.5" y="295.292">int horarioDisponible</text><line style="stroke:#181818;stroke-width:0.5;" x1="504.5" x2="695.5" y1="302.5938" y2="302.5938"/><ellipse cx="514.5" cy="316.2422" fill="#84BE84" rx="3" ry="3" style="stroke:#038048;stroke-width:1.0;"/><text fill="#000000" font-family="sans-serif" font-size="14" lengthAdjust="spacing" textLength="124" x="523.5" y="319.5889">HorarioDocente()</text></g><!--class AulaReservadaException--><g id="elem_AulaReservadaException"><rect codeLine="31" fill="#F1F1F1" height="64.2969" id="AulaReservadaException" rx="2.5" ry="2.5" style="stroke:#181818;stroke-width:0.5;" width="213" x="252.5" y="420"/><ellipse cx="269.3" cy="436" fill="#ADD1B2" rx="11" ry="11" style="stroke:#181818;stroke-width:1.0;"/><path d="M271.6438,431.6719 C270.7063,431.2344 270.1125,431.0938 269.2375,431.0938 C266.6125,431.0938 264.6125,433.1719 264.6125,435.8906 L264.6125,437.0156 C264.6125,439.5938 266.7219,441.4844 269.6125,441.4844 C270.8313,441.4844 271.9875,441.1875 272.7375,440.6406 C273.3156,440.2344 273.6438,439.7813 273.6438,439.3906 C273.6438,438.9375 273.2531,438.5469 272.7844,438.5469 C272.5656,438.5469 272.3625,438.625 272.175,438.8125 C271.7219,439.2969 271.7219,439.2969 271.5344,439.3906 C271.1125,439.6563 270.425,439.7813 269.6594,439.7813 C267.6125,439.7813 266.3156,438.6875 266.3156,436.9844 L266.3156,435.8906 C266.3156,434.1094 267.5656,432.7969 269.3,432.7969 C269.8781,432.7969 270.4875,432.9531 270.9563,433.2031 C271.4406,433.4844 271.6125,433.7031 271.7063,434.1094 C271.7688,434.5156 271.8,434.6406 271.9406,434.7656 C272.0813,434.9063 272.3156,435.0156 272.5344,435.0156 C272.8,435.0156 273.0656,434.875 273.2375,434.6563 C273.3469,434.5 273.3781,434.3125 273.3781,433.8906 L273.3781,432.4688 C273.3781,432.0313 273.3625,431.9063 273.2688,431.75 C273.1125,431.4844 272.8313,431.3438 272.5344,431.3438 C272.2375,431.3438 272.0344,431.4375 271.8156,431.75 L271.6438,431.6719 Z " fill="#000000"/><text fill="#000000" font-family="sans-serif" font-size="14" lengthAdjust="spacing" textLength="177" x="283.7" y="440.8467">AulaReservadaException</text><line style="stroke:#181818;stroke-width:0.5;" x1="253.5" x2="464.5" y1="452" y2="452"/><line style="stroke:#181818;stroke-width:0.5;" x1="253.5" x2="464.5" y1="460" y2="460"/><ellipse cx="263.5" cy="473.6484" fill="#84BE84" rx="3" ry="3" style="stroke:#038048;stroke-width:1.0;"/><text fill="#000000" font-family="sans-serif" font-size="14" lengthAdjust="spacing" textLength="187" x="272.5" y="476.9951">AulaReservadaException()</text></g><!--reverse link Horario to HorarioGrado--><g id="link_Horario_HorarioGrado"><path codeLine="35" d="M253.9537,164.2323 C225.3377,186.9053 208.296,200.408 181.339,221.768 " fill="none" id="Horario-backto-HorarioGrado" style="stroke:#181818;stroke-width:1.0;"/><polygon fill="none" points="268.062,153.054,250.2276,159.5295,257.6798,168.9351,268.062,153.054" style="stroke:#181818;stroke-width:1.0;"/></g><!--reverse link Horario to HorarioAula--><g id="link_Horario_HorarioAula"><path codeLine="36" d="M359,171.054 C359,190.989 359,194.476 359,213.893 " fill="none" id="Horario-backto-HorarioAula" style="stroke:#181818;stroke-width:1.0;"/><polygon fill="none" points="359,153.054,353,171.054,365,171.054,359,153.054" style="stroke:#181818;stroke-width:1.0;"/></g><!--reverse link Horario to HorarioDocente--><g id="link_Horario_HorarioDocente"><path codeLine="37" d="M461.3217,164.4285 C492.7567,190.0585 513.388,206.881 541.675,229.945 " fill="none" id="Horario-backto-HorarioDocente" style="stroke:#181818;stroke-width:1.0;"/><polygon fill="none" points="447.371,153.054,457.5302,169.0787,465.1132,159.7782,447.371,153.054" style="stroke:#181818;stroke-width:1.0;"/></g><!--link HorarioAula to AulaReservadaException--><g id="link_HorarioAula_AulaReservadaException"><path codeLine="38" d="M359,343.36 C359,369.454 359,398.4469 359,419.7623 " fill="none" id="HorarioAula-AulaReservadaException" style="stroke:#181818;stroke-width:1.0;"/><polygon fill="#000000" points="364,386.5664,366.9389,377.5213,361.0611,377.5213,364,386.5664" style="stroke:#000000;stroke-width:1.0;"/><text fill="#000000" font-family="sans-serif" font-size="13" lengthAdjust="spacing" textLength="44" x="373" y="386.0669">throws</text></g><!--SRC=[bPAnJiGm44JxV8LBK9GVG0W9AGXgA1759bxThUJRFRmE807_ZfCud1Dy1UayOyyRhzCxK3KFui6JcC_AnAynnC7iewPf_HGyyUxvnLZwgtLENWVKb37RzH9vSPdMeBHZyAEiMx6bIVkkgZwlS-_1dZhDFCDow3nELbOME6tVbfi9OOZKar-l20NoxU3W5zo9E0IETzUZC7Nao88TjsG5U3YWdyvfgMyhFNB0pNWZgKsX3jVDngH2iPHJ7ig_8Ub0pXcvZwZety32tKUFnq32YLUViUU0vIUw_cgQrO2BpZI_ah7S8d-Aw9ufTcN2tikxcfiV]--></g></svg>