<?xml version="1.0" encoding="us-ascii" standalone="no"?><svg xmlns="http://www.w3.org/2000/svg" xmlns:xlink="http://www.w3.org/1999/xlink" contentStyleType="text/css" height="475px" preserveAspectRatio="none" style="width:298px;height:475px;background:#FFFFFF;" version="1.1" viewBox="0 0 298 475" width="298px" zoomAndPan="magnify"><defs/><g><!--class Docente--><g id="elem_Docente"><rect codeLine="1" fill="#F1F1F1" height="113.1875" id="Docente" rx="2.5" ry="2.5" style="stroke:#181818;stroke-width:0.5;" width="248" x="17" y="165"/><ellipse cx="105.75" cy="181" fill="#ADD1B2" rx="11" ry="11" style="stroke:#181818;stroke-width:1.0;"/><path d="M108.0938,176.6719 C107.1563,176.2344 106.5625,176.0938 105.6875,176.0938 C103.0625,176.0938 101.0625,178.1719 101.0625,180.8906 L101.0625,182.0156 C101.0625,184.5938 103.1719,186.4844 106.0625,186.4844 C107.2813,186.4844 108.4375,186.1875 109.1875,185.6406 C109.7656,185.2344 110.0938,184.7813 110.0938,184.3906 C110.0938,183.9375 109.7031,183.5469 109.2344,183.5469 C109.0156,183.5469 108.8125,183.625 108.625,183.8125 C108.1719,184.2969 108.1719,184.2969 107.9844,184.3906 C107.5625,184.6563 106.875,184.7813 106.1094,184.7813 C104.0625,184.7813 102.7656,183.6875 102.7656,181.9844 L102.7656,180.8906 C102.7656,179.1094 104.0156,177.7969 105.75,177.7969 C106.3281,177.7969 106.9375,177.9531 107.4063,178.2031 C107.8906,178.4844 108.0625,178.7031 108.1563,179.1094 C108.2188,179.5156 108.25,179.6406 108.3906,179.7656 C108.5313,179.9063 108.7656,180.0156 108.9844,180.0156 C109.25,180.0156 109.5156,179.875 109.6875,179.6563 C109.7969,179.5 109.8281,179.3125 109.8281,178.8906 L109.8281,177.4688 C109.8281,177.0313 109.8125,176.9063 109.7188,176.75 C109.5625,176.4844 109.2813,176.3438 108.9844,176.3438 C108.6875,176.3438 108.4844,176.4375 108.2656,176.75 L108.0938,176.6719 Z " fill="#000000"/><text fill="#000000" font-family="sans-serif" font-size="14" lengthAdjust="spacing" textLength="62" x="126.25" y="185.8467">Docente</text><line style="stroke:#181818;stroke-width:0.5;" x1="18" x2="264" y1="197" y2="197"/><rect fill="none" height="6" style="stroke:#C82930;stroke-width:1.0;" width="6" x="25" y="207.6484"/><text fill="#000000" font-family="sans-serif" font-size="14" lengthAdjust="spacing" textLength="57" x="37" y="213.9951">nombre</text><rect fill="none" height="6" style="stroke:#C82930;stroke-width:1.0;" width="6" x="25" y="223.9453"/><text fill="#000000" font-family="sans-serif" font-size="14" lengthAdjust="spacing" textLength="75" x="37" y="230.292">idDocente</text><line style="stroke:#181818;stroke-width:0.5;" x1="18" x2="264" y1="237.5938" y2="237.5938"/><ellipse cx="28" cy="251.2422" fill="#84BE84" rx="3" ry="3" style="stroke:#038048;stroke-width:1.0;"/><text fill="#000000" font-family="sans-serif" font-size="14" lengthAdjust="spacing" textLength="141" x="37" y="254.5889">revisarAsignaturas()</text><ellipse cx="28" cy="267.5391" fill="#84BE84" rx="3" ry="3" style="stroke:#038048;stroke-width:1.0;"/><text fill="#000000" font-family="sans-serif" font-size="14" lengthAdjust="spacing" textLength="222" x="37" y="270.8857">verificarDisponibilidadHoraria()</text></g><!--class Asignatura--><g id="elem_Asignatura"><rect codeLine="8" fill="#F1F1F1" height="96.8906" id="Asignatura" rx="2.5" ry="2.5" style="stroke:#181818;stroke-width:0.5;" width="108" x="7" y="363"/><ellipse cx="22" cy="379" fill="#ADD1B2" rx="11" ry="11" style="stroke:#181818;stroke-width:1.0;"/><path d="M24.3438,374.6719 C23.4063,374.2344 22.8125,374.0938 21.9375,374.0938 C19.3125,374.0938 17.3125,376.1719 17.3125,378.8906 L17.3125,380.0156 C17.3125,382.5938 19.4219,384.4844 22.3125,384.4844 C23.5313,384.4844 24.6875,384.1875 25.4375,383.6406 C26.0156,383.2344 26.3438,382.7813 26.3438,382.3906 C26.3438,381.9375 25.9531,381.5469 25.4844,381.5469 C25.2656,381.5469 25.0625,381.625 24.875,381.8125 C24.4219,382.2969 24.4219,382.2969 24.2344,382.3906 C23.8125,382.6563 23.125,382.7813 22.3594,382.7813 C20.3125,382.7813 19.0156,381.6875 19.0156,379.9844 L19.0156,378.8906 C19.0156,377.1094 20.2656,375.7969 22,375.7969 C22.5781,375.7969 23.1875,375.9531 23.6563,376.2031 C24.1406,376.4844 24.3125,376.7031 24.4063,377.1094 C24.4688,377.5156 24.5,377.6406 24.6406,377.7656 C24.7813,377.9063 25.0156,378.0156 25.2344,378.0156 C25.5,378.0156 25.7656,377.875 25.9375,377.6563 C26.0469,377.5 26.0781,377.3125 26.0781,376.8906 L26.0781,375.4688 C26.0781,375.0313 26.0625,374.9063 25.9688,374.75 C25.8125,374.4844 25.5313,374.3438 25.2344,374.3438 C24.9375,374.3438 24.7344,374.4375 24.5156,374.75 L24.3438,374.6719 Z " fill="#000000"/><text fill="#000000" font-family="sans-serif" font-size="14" lengthAdjust="spacing" textLength="76" x="36" y="383.8467">Asignatura</text><line style="stroke:#181818;stroke-width:0.5;" x1="8" x2="114" y1="395" y2="395"/><rect fill="none" height="6" style="stroke:#C82930;stroke-width:1.0;" width="6" x="15" y="405.6484"/><text fill="#000000" font-family="sans-serif" font-size="14" lengthAdjust="spacing" textLength="57" x="27" y="411.9951">nombre</text><rect fill="none" height="6" style="stroke:#C82930;stroke-width:1.0;" width="6" x="15" y="421.9453"/><text fill="#000000" font-family="sans-serif" font-size="14" lengthAdjust="spacing" textLength="48" x="27" y="428.292">codigo</text><rect fill="none" height="6" style="stroke:#C82930;stroke-width:1.0;" width="6" x="15" y="438.2422"/><text fill="#000000" font-family="sans-serif" font-size="14" lengthAdjust="spacing" textLength="51" x="27" y="444.5889">horario</text><line style="stroke:#181818;stroke-width:0.5;" x1="8" x2="114" y1="451.8906" y2="451.8906"/></g><!--class Horario--><g id="elem_Horario"><rect codeLine="14" fill="#F1F1F1" height="113.1875" id="Horario" rx="2.5" ry="2.5" style="stroke:#181818;stroke-width:0.5;" width="141" x="150.5" y="355"/><ellipse cx="191.15" cy="371" fill="#ADD1B2" rx="11" ry="11" style="stroke:#181818;stroke-width:1.0;"/><path d="M193.4938,366.6719 C192.5563,366.2344 191.9625,366.0938 191.0875,366.0938 C188.4625,366.0938 186.4625,368.1719 186.4625,370.8906 L186.4625,372.0156 C186.4625,374.5938 188.5719,376.4844 191.4625,376.4844 C192.6813,376.4844 193.8375,376.1875 194.5875,375.6406 C195.1656,375.2344 195.4938,374.7813 195.4938,374.3906 C195.4938,373.9375 195.1031,373.5469 194.6344,373.5469 C194.4156,373.5469 194.2125,373.625 194.025,373.8125 C193.5719,374.2969 193.5719,374.2969 193.3844,374.3906 C192.9625,374.6563 192.275,374.7813 191.5094,374.7813 C189.4625,374.7813 188.1656,373.6875 188.1656,371.9844 L188.1656,370.8906 C188.1656,369.1094 189.4156,367.7969 191.15,367.7969 C191.7281,367.7969 192.3375,367.9531 192.8063,368.2031 C193.2906,368.4844 193.4625,368.7031 193.5563,369.1094 C193.6188,369.5156 193.65,369.6406 193.7906,369.7656 C193.9313,369.9063 194.1656,370.0156 194.3844,370.0156 C194.65,370.0156 194.9156,369.875 195.0875,369.6563 C195.1969,369.5 195.2281,369.3125 195.2281,368.8906 L195.2281,367.4688 C195.2281,367.0313 195.2125,366.9063 195.1188,366.75 C194.9625,366.4844 194.6813,366.3438 194.3844,366.3438 C194.0875,366.3438 193.8844,366.4375 193.6656,366.75 L193.4938,366.6719 Z " fill="#000000"/><text fill="#000000" font-family="sans-serif" font-size="14" lengthAdjust="spacing" textLength="52" x="210.85" y="375.8467">Horario</text><line style="stroke:#181818;stroke-width:0.5;" x1="151.5" x2="290.5" y1="387" y2="387"/><rect fill="none" height="6" style="stroke:#C82930;stroke-width:1.0;" width="6" x="158.5" y="397.6484"/><text fill="#000000" font-family="sans-serif" font-size="14" lengthAdjust="spacing" textLength="21" x="170.5" y="403.9951">dia</text><rect fill="none" height="6" style="stroke:#C82930;stroke-width:1.0;" width="6" x="158.5" y="413.9453"/><text fill="#000000" font-family="sans-serif" font-size="14" lengthAdjust="spacing" textLength="70" x="170.5" y="420.292">horaInicio</text><rect fill="none" height="6" style="stroke:#C82930;stroke-width:1.0;" width="6" x="158.5" y="430.2422"/><text fill="#000000" font-family="sans-serif" font-size="14" lengthAdjust="spacing" textLength="53" x="170.5" y="436.5889">horaFin</text><line style="stroke:#181818;stroke-width:0.5;" x1="151.5" x2="290.5" y1="443.8906" y2="443.8906"/><ellipse cx="161.5" cy="457.5391" fill="#84BE84" rx="3" ry="3" style="stroke:#038048;stroke-width:1.0;"/><text fill="#000000" font-family="sans-serif" font-size="14" lengthAdjust="spacing" textLength="115" x="170.5" y="460.8857">esHorarioLibre()</text></g><!--class GestorHorarios--><g id="elem_GestorHorarios"><rect codeLine="21" fill="#F1F1F1" height="80.5938" id="GestorHorarios" rx="2.5" ry="2.5" style="stroke:#181818;stroke-width:0.5;" width="209" x="36.5" y="7"/><ellipse cx="82.75" cy="23" fill="#ADD1B2" rx="11" ry="11" style="stroke:#181818;stroke-width:1.0;"/><path d="M85.0938,18.6719 C84.1563,18.2344 83.5625,18.0938 82.6875,18.0938 C80.0625,18.0938 78.0625,20.1719 78.0625,22.8906 L78.0625,24.0156 C78.0625,26.5938 80.1719,28.4844 83.0625,28.4844 C84.2813,28.4844 85.4375,28.1875 86.1875,27.6406 C86.7656,27.2344 87.0938,26.7813 87.0938,26.3906 C87.0938,25.9375 86.7031,25.5469 86.2344,25.5469 C86.0156,25.5469 85.8125,25.625 85.625,25.8125 C85.1719,26.2969 85.1719,26.2969 84.9844,26.3906 C84.5625,26.6563 83.875,26.7813 83.1094,26.7813 C81.0625,26.7813 79.7656,25.6875 79.7656,23.9844 L79.7656,22.8906 C79.7656,21.1094 81.0156,19.7969 82.75,19.7969 C83.3281,19.7969 83.9375,19.9531 84.4063,20.2031 C84.8906,20.4844 85.0625,20.7031 85.1563,21.1094 C85.2188,21.5156 85.25,21.6406 85.3906,21.7656 C85.5313,21.9063 85.7656,22.0156 85.9844,22.0156 C86.25,22.0156 86.5156,21.875 86.6875,21.6563 C86.7969,21.5 86.8281,21.3125 86.8281,20.8906 L86.8281,19.4688 C86.8281,19.0313 86.8125,18.9063 86.7188,18.75 C86.5625,18.4844 86.2813,18.3438 85.9844,18.3438 C85.6875,18.3438 85.4844,18.4375 85.2656,18.75 L85.0938,18.6719 Z " fill="#000000"/><text fill="#000000" font-family="sans-serif" font-size="14" lengthAdjust="spacing" textLength="108" x="103.25" y="27.8467">GestorHorarios</text><line style="stroke:#181818;stroke-width:0.5;" x1="37.5" x2="244.5" y1="39" y2="39"/><line style="stroke:#181818;stroke-width:0.5;" x1="37.5" x2="244.5" y1="47" y2="47"/><ellipse cx="47.5" cy="60.6484" fill="#84BE84" rx="3" ry="3" style="stroke:#038048;stroke-width:1.0;"/><text fill="#000000" font-family="sans-serif" font-size="14" lengthAdjust="spacing" textLength="175" x="56.5" y="63.9951">asignarHorarioDocente()</text><ellipse cx="47.5" cy="76.9453" fill="#84BE84" rx="3" ry="3" style="stroke:#038048;stroke-width:1.0;"/><text fill="#000000" font-family="sans-serif" font-size="14" lengthAdjust="spacing" textLength="183" x="56.5" y="80.292">verificarHorarioDocente()</text></g><!--link Docente to Asignatura--><g id="link_Docente_Asignatura"><path codeLine="26" d="M117.322,278.143 C105.8496,305.104 94.5641,331.6241 83.5837,357.4281 " fill="none" id="Docente-to-Asignatura" style="stroke:#181818;stroke-width:1.0;"/><polygon fill="#181818" points="81.2344,362.949,88.439,356.2338,83.1922,358.3482,81.0778,353.1014,81.2344,362.949" style="stroke:#181818;stroke-width:1.0;"/><text fill="#000000" font-family="sans-serif" font-size="13" lengthAdjust="spacing" textLength="50" x="105" y="321.0669">imparte</text></g><!--link Docente to Horario--><g id="link_Docente_Horario"><path codeLine="27" d="M164.678,278.143 C174.999,302.397 184.7197,325.2411 195.0337,349.4791 " fill="none" id="Docente-to-Horario" style="stroke:#181818;stroke-width:1.0;"/><polygon fill="#181818" points="197.383,355,197.5396,345.1524,195.4252,350.3992,190.1784,348.2848,197.383,355" style="stroke:#181818;stroke-width:1.0;"/><text fill="#000000" font-family="sans-serif" font-size="13" lengthAdjust="spacing" textLength="32" x="185" y="321.0669">tiene</text></g><!--link GestorHorarios to Docente--><g id="link_GestorHorarios_Docente"><path codeLine="28" d="M141,88.393 C141,111.118 141,133.943 141,158.864 " fill="none" id="GestorHorarios-to-Docente" style="stroke:#181818;stroke-width:1.0;"/><polygon fill="#181818" points="141,164.864,145,155.864,141,159.864,137,155.864,141,164.864" style="stroke:#181818;stroke-width:1.0;"/><text fill="#000000" font-family="sans-serif" font-size="13" lengthAdjust="spacing" textLength="55" x="142" y="131.0669">gestiona</text></g><!--SRC=[RL11Ri903Bpd5JwsGlb03aX8g0Mfdp2xRZeIh94Tk23-pf8w9ItTctTcFED9UtQdjIOfWz2beVfQAdhOcSI07F0uByZa36TREVh2mydONru3EelX4ubj3JzgmGvxPCuRDJPmfLsR9esE3_N_faapUetXQzJhG_szK7-a6JoZRWiIvjetb0We7j8FLAzve7VnGIrGZyqBuZ7dz1z5FD_xXDUzKwdKjakQ7zmH3aUsMkWlodHKHmEaIFCdqPqoyJlgAmWjV0C0]--></g></svg>