<?xml version="1.0" encoding="UTF-8" standalone="no"?><svg xmlns="http://www.w3.org/2000/svg" xmlns:xlink="http://www.w3.org/1999/xlink" contentStyleType="text/css" height="840px" preserveAspectRatio="none" style="width:612px;height:840px;background:#FFFFFF;" version="1.1" viewBox="0 0 612 840" width="612px" zoomAndPan="magnify"><defs/><g><rect fill="none" height="27.6094" id="_title" style="stroke:none;stroke-width:1.0;" width="113" x="239.3152" y="5"/><text fill="#000000" font-family="sans-serif" font-size="14" font-weight="bold" lengthAdjust="spacing" textLength="103" x="244.3152" y="24.5332">Editar Paquete</text><rect fill="#F1F1F1" height="40" rx="12.5" ry="12.5" style="stroke:#181818;stroke-width:0.5;" width="54" x="276" y="45.6094"/><text fill="#000000" font-family="sans-serif" font-size="14" lengthAdjust="spacing" textLength="44" x="281" y="71.3379">INITIAL</text><path d="M19.5,197.6094 L586.1304,197.6094 A12.5,12.5 0 0 1 598.6304,210.1094 L598.6304,225.2188 L7,225.2188 L7,210.1094 A12.5,12.5 0 0 1 19.5,197.6094 " fill="#F1F1F1" style="stroke:#F1F1F1;stroke-width:1.0;"/><rect fill="none" height="636.6094" rx="12.5" ry="12.5" style="stroke:#181818;stroke-width:0.5;" width="591.6304" x="7" y="197.6094"/><line style="stroke:#181818;stroke-width:0.5;" x1="7" x2="598.6304" y1="225.2188" y2="225.2188"/><text fill="#000000" font-family="sans-serif" font-size="14" lengthAdjust="spacing" textLength="90" x="257.8152" y="217.1426">EditarPaquete</text><rect fill="#F1F1F1" height="40" rx="12.5" ry="12.5" style="stroke:#181818;stroke-width:0.5;" width="50" x="144.6304" y="293.2188"/><text fill="#000000" font-family="sans-serif" font-size="14" lengthAdjust="spacing" textLength="4" x="167.6304" y="318.9473"> </text><rect fill="#F1F1F1" height="40" rx="12.5" ry="12.5" style="stroke:#181818;stroke-width:0.5;" width="50" x="21.6304" y="509.2188"/><text fill="#000000" font-family="sans-serif" font-size="14" lengthAdjust="spacing" textLength="4" x="44.6304" y="534.9473"> </text><g id="elem_4"><polygon fill="#F1F1F1" points="194.6304,692.2188,206.6304,704.2188,194.6304,716.2188,182.6304,704.2188,194.6304,692.2188" style="stroke:#181818;stroke-width:0.5;"/></g><ellipse cx="169.6304" cy="246.2188" fill="#222222" rx="10" ry="10" style="stroke:none;stroke-width:1.0;"/><ellipse cx="194.6304" cy="814.2188" fill="none" rx="10" ry="10" style="stroke:#222222;stroke-width:1.0;"/><ellipse cx="195.1304" cy="814.7188" fill="#222222" rx="6" ry="6" style="stroke:none;stroke-width:1.0;"/><!--MD5=[d65042c40b1b83a540a8cec182954caf]
link *start*EditarPaquete to 2--><g id="link_*start*EditarPaquete_2"><path d="M169.6304,256.2587 C169.6304,264.4088 169.6304,276.7787 169.6304,287.8188 " fill="none" id="*start*EditarPaquete-to-2" style="stroke:#008000;stroke-width:1.0;"/><polygon fill="#008000" points="169.6304,293.1088,173.6304,284.1088,169.6304,288.1088,165.6304,284.1088,169.6304,293.1088" style="stroke:#008000;stroke-width:1.0;"/></g><!--MD5=[eeb69082328d10abd3b14fdeede0d8a3]
link 2 to 3--><g id="link_2_3"><path d="M144.3604,320.5788 C102.3304,331.1588 22.6304,351.2188 22.6304,351.2188 C22.6304,351.2188 22.6304,485.2188 22.6304,485.2188 C22.6304,485.2188 27.8004,494.4788 33.3404,504.4088 " fill="none" id="2-to-3" style="stroke:#008000;stroke-width:1.0;"/><polygon fill="#008000" points="35.8904,508.9788,34.9781,499.1722,33.4452,504.6174,28,503.0845,35.8904,508.9788" style="stroke:#008000;stroke-width:1.0;"/><path d="M27.6304,356.2188 L27.6304,480.2188 L299.6304,480.2188 L299.6304,366.2188 L289.6304,356.2188 L27.6304,356.2188 " fill="#F5F5F5" style="stroke:#181818;stroke-width:0.5;"/><path d="M289.6304,356.2188 L289.6304,366.2188 L299.6304,366.2188 L289.6304,356.2188 " fill="#F5F5F5" style="stroke:#181818;stroke-width:0.5;"/><text fill="#000000" font-family="sans-serif" font-size="13" font-weight="bold" lengthAdjust="spacing" textLength="103" x="33.6304" y="374.7139">Sistema Solicita</text><ellipse cx="39.1304" cy="386.4219" fill="#000000" rx="2.5" ry="2.5" style="stroke:#000000;stroke-width:0.0;"/><text fill="#000000" font-family="sans-serif" font-size="13" lengthAdjust="spacing" textLength="45" x="46.6304" y="391.0654">Nombre</text><ellipse cx="39.1304" cy="402.7734" fill="#000000" rx="2.5" ry="2.5" style="stroke:#000000;stroke-width:0.0;"/><text fill="#000000" font-family="sans-serif" font-size="13" lengthAdjust="spacing" textLength="107" x="46.6304" y="407.417">Servicios Incluidos</text><ellipse cx="39.1304" cy="419.125" fill="#000000" rx="2.5" ry="2.5" style="stroke:#000000;stroke-width:0.0;"/><text fill="#000000" font-family="sans-serif" font-size="13" lengthAdjust="spacing" textLength="37" x="46.6304" y="423.7686">Precio</text><ellipse cx="39.1304" cy="435.4766" fill="#000000" rx="2.5" ry="2.5" style="stroke:#000000;stroke-width:0.0;"/><text fill="#000000" font-family="sans-serif" font-size="13" lengthAdjust="spacing" textLength="68" x="46.6304" y="440.1201">Descripción</text><text fill="#000000" font-family="sans-serif" font-size="13" font-weight="bold" lengthAdjust="spacing" textLength="105" x="33.6304" y="456.4717">Sistema Permite</text><ellipse cx="39.1304" cy="468.1797" fill="#000000" rx="2.5" ry="2.5" style="stroke:#000000;stroke-width:0.0;"/><text fill="#000000" font-family="sans-serif" font-size="13" lengthAdjust="spacing" textLength="238" x="46.6304" y="472.8232">Actualizar datos de Paquete de Servicios</text></g><!--MD5=[b1f22f0c97e7f2b556a5a2d67c42ac53]
link 3 to 4--><g id="link_3_4"><path d="M56.4604,549.3388 C76.5904,588.5088 120.6304,674.2188 120.6304,674.2188 C120.6304,674.2188 160.9004,689.9988 182.0304,698.2788 " fill="none" id="3-to-4" style="stroke:#008000;stroke-width:1.0;"/><polygon fill="#008000" points="186.7104,700.1188,179.7763,693.1246,182.0514,698.3038,176.8723,700.5789,186.7104,700.1188" style="stroke:#008000;stroke-width:1.0;"/><path d="M125.6304,578.2188 L125.6304,669.2188 L299.6304,669.2188 L299.6304,588.2188 L289.6304,578.2188 L125.6304,578.2188 " fill="#F5F5F5" style="stroke:#181818;stroke-width:0.5;"/><path d="M289.6304,578.2188 L289.6304,588.2188 L299.6304,588.2188 L289.6304,578.2188 " fill="#F5F5F5" style="stroke:#181818;stroke-width:0.5;"/><text fill="#000000" font-family="sans-serif" font-size="13" font-weight="bold" lengthAdjust="spacing" textLength="153" x="131.6304" y="596.7139">Amdinistrador Introduce</text><ellipse cx="137.1304" cy="608.4219" fill="#000000" rx="2.5" ry="2.5" style="stroke:#000000;stroke-width:0.0;"/><text fill="#000000" font-family="sans-serif" font-size="13" lengthAdjust="spacing" textLength="45" x="144.6304" y="613.0654">Nombre</text><ellipse cx="137.1304" cy="624.7734" fill="#000000" rx="2.5" ry="2.5" style="stroke:#000000;stroke-width:0.0;"/><text fill="#000000" font-family="sans-serif" font-size="13" lengthAdjust="spacing" textLength="107" x="144.6304" y="629.417">Servicios Incluidos</text><ellipse cx="137.1304" cy="641.125" fill="#000000" rx="2.5" ry="2.5" style="stroke:#000000;stroke-width:0.0;"/><text fill="#000000" font-family="sans-serif" font-size="13" lengthAdjust="spacing" textLength="37" x="144.6304" y="645.7686">Precio</text><ellipse cx="137.1304" cy="657.4766" fill="#000000" rx="2.5" ry="2.5" style="stroke:#000000;stroke-width:0.0;"/><text fill="#000000" font-family="sans-serif" font-size="13" lengthAdjust="spacing" textLength="68" x="144.6304" y="662.1201">Descripción</text></g><!--MD5=[f42725d358c4abec39d9ddf60b23be04]
link 4 to *end*EditarPaquete--><g id="link_4_*end*EditarPaquete"><path d="M194.6304,716.3688 C194.6304,736.1488 194.6304,777.3088 194.6304,799.0588 " fill="none" id="4-to-*end*EditarPaquete" style="stroke:#008000;stroke-width:1.0;"/><polygon fill="#008000" points="194.6304,804.1388,198.6304,795.1388,194.6304,799.1388,190.6304,795.1388,194.6304,804.1388" style="stroke:#008000;stroke-width:1.0;"/><path d="M199.6304,739.2188 L199.6304,781.2188 L352.6304,781.2188 L352.6304,749.2188 L342.6304,739.2188 L199.6304,739.2188 " fill="#F5F5F5" style="stroke:#181818;stroke-width:0.5;"/><path d="M342.6304,739.2188 L342.6304,749.2188 L352.6304,749.2188 L342.6304,739.2188 " fill="#F5F5F5" style="stroke:#181818;stroke-width:0.5;"/><text fill="#000000" font-family="sans-serif" font-size="13" font-weight="bold" lengthAdjust="spacing" textLength="105" x="205.6304" y="757.7139">Sistema Muestra</text><ellipse cx="211.1304" cy="769.4219" fill="#000000" rx="2.5" ry="2.5" style="stroke:#000000;stroke-width:0.0;"/><text fill="#000000" font-family="sans-serif" font-size="13" lengthAdjust="spacing" textLength="119" x="218.6304" y="774.0654">Cambios Realizados</text></g><!--MD5=[d5d43b3f3dfddbfb6ca65af0419a6a54]
link 4 to 2--><g id="link_4_2"><path d="M203.6304,700.8488 C229.9004,693.9188 304.6304,674.2188 304.6304,674.2188 C304.6304,674.2188 304.6304,351.2188 304.6304,351.2188 C304.6304,351.2188 239.7104,333.4288 199.9104,322.5188 " fill="none" id="4-to-2" style="stroke:#FF0000;stroke-width:1.0;"/><polygon fill="#FF0000" points="194.7104,321.0888,202.3392,327.3178,199.5339,322.4055,204.4461,319.6002,194.7104,321.0888" style="stroke:#FF0000;stroke-width:1.0;"/><path d="M309.6304,508.2188 L309.6304,550.2188 L589.6304,550.2188 L589.6304,518.2188 L579.6304,508.2188 L309.6304,508.2188 " fill="#F5F5F5" style="stroke:#181818;stroke-width:0.5;"/><path d="M579.6304,508.2188 L579.6304,518.2188 L589.6304,518.2188 L579.6304,508.2188 " fill="#F5F5F5" style="stroke:#181818;stroke-width:0.5;"/><text fill="#000000" font-family="sans-serif" font-size="13" font-weight="bold" lengthAdjust="spacing" textLength="105" x="315.6304" y="526.7139">Sistema Muestra</text><ellipse cx="321.1304" cy="538.4219" fill="#000000" rx="2.5" ry="2.5" style="stroke:#000000;stroke-width:0.0;"/><text fill="#000000" font-family="sans-serif" font-size="13" lengthAdjust="spacing" textLength="246" x="328.6304" y="543.0654">Mensaje de error en los datos introducidos</text></g><!--MD5=[e4985d932f25f1c1f0e8b3c679308eb7]
link startState to EditarPaquete--><g id="link_startState_EditarPaquete"><path d="M303,85.8794 C303,107.8794 303,146.7994 303,192.5194 " fill="none" id="startState-to-EditarPaquete" style="stroke:#008000;stroke-width:1.0;"/><polygon fill="#008000" points="303,197.5394,307,188.5394,303,192.5394,299,188.5394,303,197.5394" style="stroke:#008000;stroke-width:1.0;"/><path d="M308,120.6094 L308,162.6094 L502,162.6094 L502,130.6094 L492,120.6094 L308,120.6094 " fill="#F5F5F5" style="stroke:#181818;stroke-width:0.5;"/><path d="M492,120.6094 L492,130.6094 L502,130.6094 L492,120.6094 " fill="#F5F5F5" style="stroke:#181818;stroke-width:0.5;"/><text fill="#000000" font-family="sans-serif" font-size="13" font-weight="bold" lengthAdjust="spacing" textLength="141" x="314" y="139.1045">Administrador Solicita</text><ellipse cx="319.5" cy="150.8125" fill="#000000" rx="2.5" ry="2.5" style="stroke:#000000;stroke-width:0.0;"/><text fill="#000000" font-family="sans-serif" font-size="13" lengthAdjust="spacing" textLength="160" x="327" y="155.4561">Editar Paquete de Servicios</text></g><!--MD5=[ca1b85aa49cb933829729deea832a9ea]
@startuml
title Editar Paquete

skinparam {
    NoteBackgroundColor #whiteSmoke
    ArrowColor #green
    NoteBorderColor #green
    linetype polyline
}

hide empty description

state startState as "INITIAL"

startState - -> EditarPaquete
note on link
    <b>Administrador Solicita</b>
    * Editar Paquete de Servicios
end note

state EditarPaquete{
state 2 as " "
state 3 as " "
state 4 <<choice>>

[*] -down-> 2

2 -down-> 3
note on link
<b>Sistema Solicita</b>
* Nombre
* Servicios Incluidos
* Precio
* Descripción
<b>Sistema Permite</b>
* Actualizar datos de Paquete de Servicios
end note

3 -down-> 4
note on link
<b>Amdinistrador Introduce</b>
* Nombre
* Servicios Incluidos
* Precio
* Descripción
end note

4 -down-> [*]
note on link
<b>Sistema Muestra</b>
* Cambios Realizados
end note

4 -[#red]-> 2
note on link
<b>Sistema Muestra</b>
* Mensaje de error en los datos introducidos
end note

}
@enduml

PlantUML version 1.2022.7(Mon Aug 22 19:01:30 CEST 2022)
(GPL source distribution)
Java Runtime: Java(TM) SE Runtime Environment
JVM: Java HotSpot(TM) 64-Bit Server VM
Default Encoding: Cp1252
Language: es
Country: ES
--></g></svg>