<?xml version="1.0" encoding="us-ascii" standalone="no"?><svg xmlns="http://www.w3.org/2000/svg" xmlns:xlink="http://www.w3.org/1999/xlink" contentStyleType="text/css" height="420px" preserveAspectRatio="none" style="width:317px;height:420px;background:#FFFFFF;" version="1.1" viewBox="0 0 317 420" width="317px" zoomAndPan="magnify"><defs/><g><text fill="#000000" font-family="sans-serif" font-size="14" font-weight="bold" lengthAdjust="spacing" textLength="289" x="10" y="22.9951">Detalle Caso de Uso Abrir Log - FISC</text><g id="FISC"><rect fill="#FAF4B4" height="50" rx="12.5" ry="12.5" style="stroke:#C90000;stroke-width:0.5;" width="51" x="171.5" y="44.2969"/><line style="stroke:#C90000;stroke-width:0.5;" x1="171.5" x2="222.5" y1="70.5938" y2="70.5938"/><text fill="#000000" font-family="sans-serif" font-size="14" lengthAdjust="spacing" textLength="31" x="181.5" y="62.292">FISC</text></g><g id="log_abierto"><rect fill="#FAF4B4" height="50" rx="12.5" ry="12.5" style="stroke:#C90000;stroke-width:0.5;" width="102" x="60" y="204.2969"/><line style="stroke:#C90000;stroke-width:0.5;" x1="60" x2="162" y1="230.5938" y2="230.5938"/><text fill="#000000" font-family="sans-serif" font-size="14" lengthAdjust="spacing" textLength="82" x="70" y="222.292">log_abierto</text></g><g id=":cerrar_log"><rect fill="#FAF4B4" height="50" rx="12.5" ry="12.5" style="stroke:#C90000;stroke-width:0.5;" width="97" x="150.5" y="364.2969"/><line style="stroke:#C90000;stroke-width:0.5;" x1="150.5" x2="247.5" y1="390.5938" y2="390.5938"/><text fill="#000000" font-family="sans-serif" font-size="14" lengthAdjust="spacing" textLength="77" x="160.5" y="382.292">:cerrar_log</text></g><!--link FISC to log_abierto--><g id="link_FISC_log_abierto"><path d="M171.166,85.6269 C144.2629,101.5919 106,124.2969 106,124.2969 C106,124.2969 106,174.2969 106,174.2969 C106,174.2969 106.8789,183.7874 108.2101,198.1654 " fill="none" id="FISC-to-log_abierto" style="stroke:#008000;stroke-width:1.0;"/><polygon fill="#008000" points="108.7632,204.1399,111.9164,194.8094,108.3022,199.1612,103.9505,195.547,108.7632,204.1399" style="stroke:#008000;stroke-width:1.0;"/><path d="M111,129.2969 L111,169.2969 L254,169.2969 L254,139.2969 L244,129.2969 L111,129.2969 " fill="#F5F5F5" style="stroke:#181818;stroke-width:0.5;"/><path d="M244,129.2969 L244,139.2969 L254,139.2969 L244,129.2969 " fill="#F5F5F5" style="stroke:#181818;stroke-width:0.5;"/><text fill="#000000" font-family="sans-serif" font-size="13" font-weight="bold" lengthAdjust="spacing" textLength="122" x="117" y="146.3638">Usuario solicita:</text><text fill="#000000" font-family="sans-serif" font-size="13" lengthAdjust="spacing" textLength="66" x="117" y="161.4966">- Abrir Log</text></g><!--link log_abierto to :cerrar_log--><g id="link_log_abierto_:cerrar_log"><path d="M111,254.4179 C111,285.1409 111,334.2969 111,334.2969 C111,334.2969 131.0886,346.624 154.5191,361.0018 " fill="none" id="log_abierto-to-:cerrar_log" style="stroke:#008000;stroke-width:1.0;"/><polygon fill="#008000" points="159.633,364.1399,154.0542,356.0234,155.3714,361.5248,149.87,362.842,159.633,364.1399" style="stroke:#008000;stroke-width:1.0;"/><path d="M116,289.2969 L116,329.2969 L254,329.2969 L254,299.2969 L244,289.2969 L116,289.2969 " fill="#F5F5F5" style="stroke:#181818;stroke-width:0.5;"/><path d="M244,289.2969 L244,299.2969 L254,299.2969 L244,289.2969 " fill="#F5F5F5" style="stroke:#181818;stroke-width:0.5;"/><text fill="#000000" font-family="sans-serif" font-size="13" font-weight="bold" lengthAdjust="spacing" textLength="117" x="122" y="306.3638">Usuario solicita</text><text fill="#000000" font-family="sans-serif" font-size="13" lengthAdjust="spacing" textLength="76" x="122" y="321.4966">- Cerrar Log</text></g><!--link :cerrar_log to FISC--><g id="link_:cerrar_log_FISC"><path d="M227.631,364.1399 C244.671,349.7621 263,334.2969 263,334.2969 C263,334.2969 263,124.2969 263,124.2969 C263,124.2969 245.8817,110.2914 227.3497,95.1284 " fill="none" id=":cerrar_log-to-FISC" style="stroke:#008000;stroke-width:1.0;"/><polygon fill="#008000" points="222.706,91.3289,227.1385,100.1239,226.5757,94.4951,232.2045,93.9323,222.706,91.3289" style="stroke:#008000;stroke-width:1.0;"/></g><!--SRC=[XOzDQyCm38Rl-XM2t0A17TB3SYXi6OD2RwMdKOgIgC74iuBi7iBOVwyTIfSMokJ3Y_Nnl98VZ1j9wHjzeC3u0uZlr0wzojbrjLXHp4vqAfioLKGxrcksVNs90Ry0_WPnyfInIk- -snh7OHePHx5J-W044opZ1mUoKMloWXtZFifReqPnApqM-BdPrG2G18klh5TcToZMQAK_KcDOWo3CkuXBBaFSAC_t_ang1BrOqvf0LPx7VF571dRTV0B0ahHqg5fM9Jt6-ly6LtuzZpmOB41t1kcc2m00]--></g></svg>