<?xml version="1.0" encoding="us-ascii" standalone="no"?><svg xmlns="http://www.w3.org/2000/svg" xmlns:xlink="http://www.w3.org/1999/xlink" contentStyleType="text/css" height="996px" preserveAspectRatio="none" style="width:569px;height:996px;background:#FFFFFF;" version="1.1" viewBox="0 0 569 996" width="569px" zoomAndPan="magnify"><defs/><g><text fill="#000000" font-family="sans-serif" font-size="14" font-weight="bold" lengthAdjust="spacing" textLength="341" x="104" y="22.9951">Detalle Caso de Uso Nuevo Proyecto - FISC</text><g id="P&#193;GINA_PRINCIPAL"><rect fill="#FAF4B4" height="50" rx="12.5" ry="12.5" style="stroke:#C90000;stroke-width:0.5;" width="155" x="204" y="44.2969"/><line style="stroke:#C90000;stroke-width:0.5;" x1="204" x2="359" y1="70.5938" y2="70.5938"/><text fill="#000000" font-family="sans-serif" font-size="14" lengthAdjust="spacing" textLength="135" x="214" y="62.292">P&#193;GINA_PRINCIPAL</text></g><path d="M19.5,204.2969 L543.5,204.2969 A12.5,12.5 0 0 1 556,216.7969 L556,230.5938 L7,230.5938 L7,216.7969 A12.5,12.5 0 0 1 19.5,204.2969 " fill="#FAF4B4" style="stroke:#FAF4B4;stroke-width:1.0;"/><rect fill="none" height="564.2969" rx="12.5" ry="12.5" style="stroke:#C90000;stroke-width:0.5;" width="549" x="7" y="204.2969"/><line style="stroke:#C90000;stroke-width:0.5;" x1="7" x2="556" y1="230.5938" y2="230.5938"/><text fill="#000000" font-family="sans-serif" font-size="14" lengthAdjust="spacing" textLength="116" x="223.5" y="222.292">nuevo_proyecto</text><g id="nuevo_proyecto.1"><rect fill="#FAF4B4" height="50" rx="12.5" ry="12.5" style="stroke:#C90000;stroke-width:0.5;" width="50" x="167" y="298.5938"/><line style="stroke:#C90000;stroke-width:0.5;" x1="167" x2="217" y1="324.8906" y2="324.8906"/><text fill="#000000" font-family="sans-serif" font-size="14" lengthAdjust="spacing" textLength="4" x="190" y="316.5889">&#160;</text></g><g id="nuevo_proyecto.2"><rect fill="#FAF4B4" height="50" rx="12.5" ry="12.5" style="stroke:#C90000;stroke-width:0.5;" width="50" x="19" y="449.5938"/><line style="stroke:#C90000;stroke-width:0.5;" x1="19" x2="69" y1="475.8906" y2="475.8906"/><text fill="#000000" font-family="sans-serif" font-size="14" lengthAdjust="spacing" textLength="4" x="42" y="467.5889">&#160;</text></g><g id="nuevo_proyecto.3"><rect fill="#FAF4B4" height="50" rx="12.5" ry="12.5" style="stroke:#C90000;stroke-width:0.5;" width="50" x="161" y="600.5938"/><line style="stroke:#C90000;stroke-width:0.5;" x1="161" x2="211" y1="626.8906" y2="626.8906"/><text fill="#000000" font-family="sans-serif" font-size="14" lengthAdjust="spacing" textLength="4" x="184" y="618.5889">&#160;</text></g><ellipse cx="192" cy="251.5938" fill="#222222" rx="10" ry="10" style="stroke:#222222;stroke-width:1.0;"/><ellipse cx="186" cy="747.5938" fill="none" rx="11" ry="11" style="stroke:#222222;stroke-width:1.0;"/><ellipse cx="186" cy="747.5938" fill="#222222" rx="6" ry="6" style="stroke:#222222;stroke-width:1.0;"/><!--link *start*nuevo_proyecto to 1--><g id="link_*start*nuevo_proyecto_1"><path d="M192,261.7448 C192,271.0098 192,279.7348 192,292.3778 " fill="none" id="*start*nuevo_proyecto-to-1" style="stroke:#008000;stroke-width:1.0;"/><polygon fill="#008000" points="192,298.3778,196,289.3778,192,293.3778,188,289.3778,192,298.3778" style="stroke:#008000;stroke-width:1.0;"/></g><!--link 1 to 2--><g id="link_1_2"><path d="M166.792,332.1028 C126.235,344.1828 51,366.5938 51,366.5938 C51,366.5938 48.0265,412.0465 45.9626,443.5935 " fill="none" id="1-to-2" style="stroke:#008000;stroke-width:1.0;"/><polygon fill="#008000" points="45.5709,449.5808,50.1499,440.8611,45.8973,444.5914,42.167,440.3388,45.5709,449.5808" style="stroke:#008000;stroke-width:1.0;"/><path d="M56,371.5938 L56,426.5938 L311,426.5938 L311,381.5938 L301,371.5938 L56,371.5938 " fill="#F5F5F5" style="stroke:#181818;stroke-width:0.5;"/><path d="M301,371.5938 L301,381.5938 L311,381.5938 L301,371.5938 " fill="#F5F5F5" style="stroke:#181818;stroke-width:0.5;"/><text fill="#000000" font-family="sans-serif" font-size="13" font-weight="bold" lengthAdjust="spacing" textLength="134" x="62" y="388.6606">Sistema requiere:</text><text fill="#000000" font-family="sans-serif" font-size="13" lengthAdjust="spacing" textLength="144" x="62" y="403.7935">- Nombre del proyecto</text><text fill="#000000" font-family="sans-serif" font-size="13" lengthAdjust="spacing" textLength="234" x="62" y="418.9263">- Descripci&#243;n del proyecto (opcional)</text></g><!--link 2 to 3--><g id="link_2_3"><path d="M43.4183,500.0258 C43.1983,509.2648 43,517.5938 43,517.5938 C43,517.5938 43,582.5938 43,582.5938 C43,582.5938 113.9541,603.434 155.0071,615.491 " fill="none" id="2-to-3" style="stroke:#008000;stroke-width:1.0;"/><polygon fill="#008000" points="160.764,617.1818,153.2559,610.8077,155.9666,615.7728,151.0016,618.4835,160.764,617.1818" style="stroke:#008000;stroke-width:1.0;"/><path d="M48,522.5938 L48,577.5938 L311,577.5938 L311,532.5938 L301,522.5938 L48,522.5938 " fill="#F5F5F5" style="stroke:#181818;stroke-width:0.5;"/><path d="M301,522.5938 L301,532.5938 L311,532.5938 L301,522.5938 " fill="#F5F5F5" style="stroke:#181818;stroke-width:0.5;"/><text fill="#000000" font-family="sans-serif" font-size="13" font-weight="bold" lengthAdjust="spacing" textLength="119" x="54" y="539.6606">Usuario aporta:</text><text fill="#000000" font-family="sans-serif" font-size="13" lengthAdjust="spacing" textLength="144" x="62" y="554.7935">- Nombre del proyecto</text><text fill="#000000" font-family="sans-serif" font-size="13" lengthAdjust="spacing" textLength="234" x="62" y="569.9263">- Descripci&#243;n del proyecto (opcional)</text></g><!--link 3 to 1--><g id="link_3_1"><path d="M211.065,616.4958 C248.842,604.2908 316,582.5938 316,582.5938 C316,582.5938 316,366.5938 316,366.5938 C316,366.5938 259.0088,347.2907 222.7758,335.0177 " fill="none" id="3-to-1" style="stroke:#FF0000;stroke-width:1.0;"/><polygon fill="#FF0000" points="217.093,333.0928,224.334,339.7687,221.8287,334.6968,226.9005,332.1916,217.093,333.0928" style="stroke:#FF0000;stroke-width:1.0;"/><path d="M321,462.0938 L321,487.0938 L547,487.0938 L547,472.0938 L537,462.0938 L321,462.0938 " fill="#F5F5F5" style="stroke:#181818;stroke-width:0.5;"/><path d="M537,462.0938 L537,472.0938 L547,472.0938 L537,462.0938 " fill="#F5F5F5" style="stroke:#181818;stroke-width:0.5;"/><text fill="#000000" font-family="sans-serif" font-size="13" lengthAdjust="spacing" textLength="205" x="327" y="479.1606">[nombre de proyecto existente]</text></g><!--link 3 to *end*nuevo_proyecto--><g id="link_3_*end*nuevo_proyecto"><path d="M186,650.8778 C186,677.1759 186,711.8671 186,730.5691 " fill="none" id="3-to-*end*nuevo_proyecto" style="stroke:#008000;stroke-width:1.0;"/><polygon fill="#008000" points="186,736.5691,190,727.5691,186,731.5691,182,727.5691,186,736.5691" style="stroke:#008000;stroke-width:1.0;"/><path d="M191,673.5938 L191,713.5938 L361,713.5938 L361,683.5938 L351,673.5938 L191,673.5938 " fill="#F5F5F5" style="stroke:#181818;stroke-width:0.5;"/><path d="M351,673.5938 L351,683.5938 L361,683.5938 L351,673.5938 " fill="#F5F5F5" style="stroke:#181818;stroke-width:0.5;"/><text fill="#000000" font-family="sans-serif" font-size="13" font-weight="bold" lengthAdjust="spacing" textLength="122" x="197" y="690.6606">Usuario solicita:</text><text fill="#000000" font-family="sans-serif" font-size="13" lengthAdjust="spacing" textLength="149" x="197" y="705.7935">- Crear nuevo Proyecto</text></g><g id=":crearNuevoProyecto"><rect fill="#FAF4B4" height="50" rx="12.5" ry="12.5" style="stroke:#C90000;stroke-width:0.5;" width="171" x="196" y="829.2969"/><line style="stroke:#C90000;stroke-width:0.5;" x1="196" x2="367" y1="855.5938" y2="855.5938"/><text fill="#000000" font-family="sans-serif" font-size="14" lengthAdjust="spacing" textLength="151" x="206" y="847.292">:crearNuevoProyecto</text></g><g id="P&#193;GINA_PROYECTO"><rect fill="#FAF4B4" height="50" rx="12.5" ry="12.5" style="stroke:#C90000;stroke-width:0.5;" width="159" x="202" y="940.2969"/><line style="stroke:#C90000;stroke-width:0.5;" x1="202" x2="361" y1="966.5938" y2="966.5938"/><text fill="#000000" font-family="sans-serif" font-size="14" lengthAdjust="spacing" textLength="139" x="212" y="958.292">P&#193;GINA_PROYECTO</text></g><!--link P?GINA_PRINCIPAL to nuevo_proyecto--><g id="link_P&#193;GINA_PRINCIPAL_nuevo_proyecto"><path d="M281.5,94.4029 C281.5,118.5349 281.5,152.5349 281.5,197.9649 " fill="none" id="P&#193;GINA_PRINCIPAL-to-nuevo_proyecto" style="stroke:#008000;stroke-width:1.0;"/><polygon fill="#008000" points="281.5,203.9649,285.5,194.9649,281.5,198.9649,277.5,194.9649,281.5,203.9649" style="stroke:#008000;stroke-width:1.0;"/><path d="M286.5,129.2969 L286.5,169.2969 L429.5,169.2969 L429.5,139.2969 L419.5,129.2969 L286.5,129.2969 " fill="#F5F5F5" style="stroke:#181818;stroke-width:0.5;"/><path d="M419.5,129.2969 L419.5,139.2969 L429.5,139.2969 L419.5,129.2969 " fill="#F5F5F5" style="stroke:#181818;stroke-width:0.5;"/><text fill="#000000" font-family="sans-serif" font-size="13" font-weight="bold" lengthAdjust="spacing" textLength="122" x="292.5" y="146.3638">Usuario solicita:</text><text fill="#000000" font-family="sans-serif" font-size="13" lengthAdjust="spacing" textLength="111" x="292.5" y="161.4966">- Nuevo Proyecto</text></g><!--link nuevo_proyecto to :crearNuevoProyecto--><g id="link_nuevo_proyecto_:crearNuevoProyecto"><path d="M281.5,768.4089 C281.5,792.9819 281.5,808.2039 281.5,823.2829 " fill="none" id="nuevo_proyecto-to-:crearNuevoProyecto" style="stroke:#008000;stroke-width:1.0;"/><polygon fill="#008000" points="281.5,829.2829,285.5,820.2829,281.5,824.2829,277.5,820.2829,281.5,829.2829" style="stroke:#008000;stroke-width:1.0;"/></g><!--link :crearNuevoProyecto to P?GINA_PROYECTO--><g id="link_:crearNuevoProyecto_P&#193;GINA_PROYECTO"><path d="M281.5,879.4879 C281.5,897.5507 281.5,916.127 281.5,934.1739 " fill="none" id=":crearNuevoProyecto-to-P&#193;GINA_PROYECTO" style="stroke:#008000;stroke-width:1.0;"/><polygon fill="#008000" points="281.5,940.1739,285.5,931.1739,281.5,935.1739,277.5,931.1739,281.5,940.1739" style="stroke:#008000;stroke-width:1.0;"/></g><!--SRC=[jPBFJi904CRl-nGJk6WJ4Wjua8C95ZKa1eZ8mH12bdOW6yfEtLsCn7ZmcNm4NipT0ls3S7JRPDDlTsP-C_tqKiY4Axu2RRX1-6G0TpnSBXIjPHHGJ0ggSpvlpfhkX5I4Qg-6DrTsiI_6T9P4qjaSr-uftuw5HBD941AAD-w3CIDCZD11msEx1rmJH0WZk_NM-4umKBJ1q13KuA4x31XZW-ttOxVNdWwUkxsWEsW_rSRLXKAKazejI1SqJVP1BCKZwGelBQJdZVIQAq6WAHQXCBpbULQl7HLZAAEqDGkVJgcSrlMxqttW6YfGoOJwiT381VkElGaKS7qh-KK1wbOvWdRByuP26rnnKFYs5gXm1-wMXQVLJA6TMmnPvuUp3kfGYIGKsnzPkW4NP5MIFBwqbxE6mRPG16gS0ihdo1DIXod-1qp3mIYC78f_2cKi3_NoPFZXXYKDJauaopgp_y9b-3ljSov9MmWKShNpGsuNA9HnZY_RfLYq5Rhur6rPD3iXbaXpn_TVxuEN_Yy0]--></g></svg>