<?xml version="1.0" encoding="us-ascii" standalone="no"?><svg xmlns="http://www.w3.org/2000/svg" xmlns:xlink="http://www.w3.org/1999/xlink" contentStyleType="text/css" height="917px" preserveAspectRatio="none" style="width:356px;height:917px;background:#FFFFFF;" version="1.1" viewBox="0 0 356 917" width="356px" zoomAndPan="magnify"><defs/><g><text fill="#000000" font-family="sans-serif" font-size="14" font-weight="bold" lengthAdjust="spacing" textLength="328" x="10" y="22.9951">Detalle Caso de Uso Inicio Log Out - FISC</text><g id="FISC"><rect fill="#FAF4B4" height="50" rx="12.5" ry="12.5" style="stroke:#C90000;stroke-width:0.5;" width="51" x="133.75" y="44.2969"/><line style="stroke:#C90000;stroke-width:0.5;" x1="133.75" x2="184.75" y1="70.5938" y2="70.5938"/><text fill="#000000" font-family="sans-serif" font-size="14" lengthAdjust="spacing" textLength="31" x="143.75" y="62.292">FISC</text></g><path d="M67.25,204.2969 L251.25,204.2969 A12.5,12.5 0 0 1 263.75,216.7969 L263.75,230.5938 L54.75,230.5938 L54.75,216.7969 A12.5,12.5 0 0 1 67.25,204.2969 " fill="#FAF4B4" style="stroke:#FAF4B4;stroke-width:1.0;"/><rect fill="none" height="485.2969" rx="12.5" ry="12.5" style="stroke:#C90000;stroke-width:0.5;" width="209" x="54.75" y="204.2969"/><line style="stroke:#C90000;stroke-width:0.5;" x1="54.75" x2="263.75" y1="230.5938" y2="230.5938"/><text fill="#000000" font-family="sans-serif" font-size="14" lengthAdjust="spacing" textLength="95" x="111.75" y="222.292">cerrar_sesi&#243;n</text><g id="cerrar_sesi&#243;n.1"><rect fill="#FAF4B4" height="50" rx="12.5" ry="12.5" style="stroke:#C90000;stroke-width:0.5;" width="50" x="66.75" y="298.5938"/><line style="stroke:#C90000;stroke-width:0.5;" x1="66.75" x2="116.75" y1="324.8906" y2="324.8906"/><text fill="#000000" font-family="sans-serif" font-size="14" lengthAdjust="spacing" textLength="4" x="89.75" y="316.5889">&#160;</text></g><g id="cerrar_sesi&#243;n.2"><rect fill="#FAF4B4" height="50" rx="12.5" ry="12.5" style="stroke:#C90000;stroke-width:0.5;" width="50" x="66.75" y="434.5938"/><line style="stroke:#C90000;stroke-width:0.5;" x1="66.75" x2="116.75" y1="460.8906" y2="460.8906"/><text fill="#000000" font-family="sans-serif" font-size="14" lengthAdjust="spacing" textLength="4" x="89.75" y="452.5889">&#160;</text></g><g id="cerrar_sesi&#243;n.3"><rect fill="#FAF4B4" height="50" rx="12.5" ry="12.5" style="stroke:#C90000;stroke-width:0.5;" width="50" x="66.75" y="570.5938"/><line style="stroke:#C90000;stroke-width:0.5;" x1="66.75" x2="116.75" y1="596.8906" y2="596.8906"/><text fill="#000000" font-family="sans-serif" font-size="14" lengthAdjust="spacing" textLength="4" x="89.75" y="588.5889">&#160;</text></g><ellipse cx="91.75" cy="251.5938" fill="#222222" rx="10" ry="10" style="stroke:#222222;stroke-width:1.0;"/><ellipse cx="91.75" cy="668.5938" fill="none" rx="11" ry="11" style="stroke:#222222;stroke-width:1.0;"/><ellipse cx="91.75" cy="668.5938" fill="#222222" rx="6" ry="6" style="stroke:#222222;stroke-width:1.0;"/><!--link *start*cerrar_sesi?n to 1--><g id="link_*start*cerrar_sesi&#243;n_1"><path d="M91.75,261.7448 C91.75,271.0098 91.75,279.7348 91.75,292.3778 " fill="none" id="*start*cerrar_sesi&#243;n-to-1" style="stroke:#008000;stroke-width:1.0;"/><polygon fill="#008000" points="91.75,298.3778,95.75,289.3778,91.75,293.3778,87.75,289.3778,91.75,298.3778" style="stroke:#008000;stroke-width:1.0;"/></g><!--link 1 to 2--><g id="link_1_2"><path d="M91.75,348.8598 C91.75,373.1458 91.75,404.2868 91.75,428.5078 " fill="none" id="1-to-2" style="stroke:#008000;stroke-width:1.0;"/><polygon fill="#008000" points="91.75,434.5078,95.75,425.5078,91.75,429.5078,87.75,425.5078,91.75,434.5078" style="stroke:#008000;stroke-width:1.0;"/><path d="M96.75,371.5938 L96.75,411.5938 L254.75,411.5938 L254.75,381.5938 L244.75,371.5938 L96.75,371.5938 " fill="#F5F5F5" style="stroke:#181818;stroke-width:0.5;"/><path d="M244.75,371.5938 L244.75,381.5938 L254.75,381.5938 L244.75,371.5938 " fill="#F5F5F5" style="stroke:#181818;stroke-width:0.5;"/><text fill="#000000" font-family="sans-serif" font-size="13" font-weight="bold" lengthAdjust="spacing" textLength="137" x="102.75" y="388.6606">Sistema Requiere:</text><text fill="#000000" font-family="sans-serif" font-size="13" lengthAdjust="spacing" textLength="128" x="102.75" y="403.7935">- Guardar Cambios?</text></g><!--link 2 to 3--><g id="link_2_3"><path d="M91.75,484.8597 C91.75,509.1458 91.75,540.2868 91.75,564.5078 " fill="none" id="2-to-3" style="stroke:#008000;stroke-width:1.0;"/><polygon fill="#008000" points="91.75,570.5078,95.75,561.5078,91.75,565.5078,87.75,561.5078,91.75,570.5078" style="stroke:#008000;stroke-width:1.0;"/><path d="M96.75,507.5938 L96.75,547.5938 L237.75,547.5938 L237.75,517.5938 L227.75,507.5938 L96.75,507.5938 " fill="#F5F5F5" style="stroke:#181818;stroke-width:0.5;"/><path d="M227.75,507.5938 L227.75,517.5938 L237.75,517.5938 L227.75,507.5938 " fill="#F5F5F5" style="stroke:#181818;stroke-width:0.5;"/><text fill="#000000" font-family="sans-serif" font-size="13" font-weight="bold" lengthAdjust="spacing" textLength="120" x="102.75" y="524.6606">Usuario Aporta:</text><text fill="#000000" font-family="sans-serif" font-size="13" lengthAdjust="spacing" textLength="49" x="102.75" y="539.7935">- Si / No</text></g><!--link 3 to *end*cerrar_sesi?n--><g id="link_3_*end*cerrar_sesi&#243;n"><path d="M91.75,620.6311 C91.75,633.1829 91.75,641.8762 91.75,651.44 " fill="none" id="3-to-*end*cerrar_sesi&#243;n" style="stroke:#008000;stroke-width:1.0;"/><polygon fill="#008000" points="91.75,657.44,95.75,648.44,91.75,652.44,87.75,648.44,91.75,657.44" style="stroke:#008000;stroke-width:1.0;"/></g><g id=":log_out"><rect fill="#FAF4B4" height="50" rx="12.5" ry="12.5" style="stroke:#C90000;stroke-width:0.5;" width="78" x="120.25" y="750.2969"/><line style="stroke:#C90000;stroke-width:0.5;" x1="120.25" x2="198.25" y1="776.5938" y2="776.5938"/><text fill="#000000" font-family="sans-serif" font-size="14" lengthAdjust="spacing" textLength="58" x="130.25" y="768.292">:log_out</text></g><g id="Inicio"><rect fill="#FAF4B4" height="50" rx="12.5" ry="12.5" style="stroke:#C90000;stroke-width:0.5;" width="58" x="130.25" y="861.2969"/><line style="stroke:#C90000;stroke-width:0.5;" x1="130.25" x2="188.25" y1="887.5938" y2="887.5938"/><text fill="#000000" font-family="sans-serif" font-size="14" lengthAdjust="spacing" textLength="38" x="140.25" y="879.292">Inicio</text></g><!--link FISC to cerrar_sesi?n--><g id="link_FISC_cerrar_sesi&#243;n"><path d="M159.25,94.3569 C159.25,118.7189 159.25,153.1239 159.25,198.0359 " fill="none" id="FISC-to-cerrar_sesi&#243;n" style="stroke:#008000;stroke-width:1.0;"/><polygon fill="#008000" points="159.25,204.0359,163.25,195.0359,159.25,199.0359,155.25,195.0359,159.25,204.0359" style="stroke:#008000;stroke-width:1.0;"/><path d="M164.25,129.2969 L164.25,169.2969 L307.25,169.2969 L307.25,139.2969 L297.25,129.2969 L164.25,129.2969 " fill="#F5F5F5" style="stroke:#181818;stroke-width:0.5;"/><path d="M297.25,129.2969 L297.25,139.2969 L307.25,139.2969 L297.25,129.2969 " fill="#F5F5F5" style="stroke:#181818;stroke-width:0.5;"/><text fill="#000000" font-family="sans-serif" font-size="13" font-weight="bold" lengthAdjust="spacing" textLength="122" x="170.25" y="146.3638">Usuario solicita:</text><text fill="#000000" font-family="sans-serif" font-size="13" lengthAdjust="spacing" textLength="59" x="170.25" y="161.4966">- Log Out</text></g><!--link cerrar_sesi?n to :log_out--><g id="link_cerrar_sesi&#243;n_:log_out"><path d="M159.25,689.3649 C159.25,713.6209 159.25,728.8539 159.25,744.0229 " fill="none" id="cerrar_sesi&#243;n-to-:log_out" style="stroke:#008000;stroke-width:1.0;"/><polygon fill="#008000" points="159.25,750.0229,163.25,741.0229,159.25,745.0229,155.25,741.0229,159.25,750.0229" style="stroke:#008000;stroke-width:1.0;"/></g><!--link :log_out to Inicio--><g id="link_:log_out_Inicio"><path d="M159.25,800.4879 C159.25,818.5507 159.25,837.127 159.25,855.1739 " fill="none" id=":log_out-to-Inicio" style="stroke:#008000;stroke-width:1.0;"/><polygon fill="#008000" points="159.25,861.1739,163.25,852.1739,159.25,856.1739,155.25,852.1739,159.25,861.1739" style="stroke:#008000;stroke-width:1.0;"/></g><!--SRC=[TL5DImCn4BtdLmpjBR1eFppOWw8LfI0AbfvAAUdkT0bDCskIFHJnL_aJ_6DEjjtQA9s5pUxByEQzDtwZRQMSse8FAY1y281xbMzAHxKjncJ8GNUjriFLCDwGAz0TqFpwaajy2k6F99RESbp59-qsscBOLGWLcLty4IBeO10UC2Z3vrXvWW9XniV4wbmJF5C9htM031udqx4GyGtPl5iwHBl8RY17vvHRUlJw-ykAHX7PE6l3kgIS-Lev9l9ac32eaPICPosnG5iqDbXeaqZA5xqTekg1yj21pY_I_uSCMYH2Sxb8bFOOx2L8dv4_WcD9ETK-u5R16xxN6XtkHSVAu8dz5CfnMDkL9d_B5qSFm9fE1mpE3MXJkQl8jPdiwQSQBk25KjP1mih6HDoiIBDAUaQ6oYNnuhZj-7tQiD_l3m00]--></g></svg>