<?xml version="1.0" encoding="UTF-8" standalone="no"?><svg xmlns="http://www.w3.org/2000/svg" xmlns:xlink="http://www.w3.org/1999/xlink" contentStyleType="text/css" height="677px" preserveAspectRatio="none" style="width:523px;height:677px;background:#FFFFFF;" version="1.1" viewBox="0 0 523 677" width="523px" zoomAndPan="magnify"><defs/><g><rect fill="none" height="26.0986" id="_title" style="stroke:none;stroke-width:1.0;" width="136" x="186.99" y="5"/><text fill="#000000" font-family="Arial" font-size="14" font-weight="bold" lengthAdjust="spacing" textLength="126" x="191.99" y="23.3608">Crear Suscripción</text><ellipse cx="162.98" cy="53.0986" fill="#222222" rx="10" ry="10" style="stroke:none;stroke-width:1.0;"/><g id="ValidarSolicitud"><rect fill="#F1F1F1" height="50" rx="12.5" ry="12.5" style="stroke:#181818;stroke-width:0.5;" width="117" x="104.48" y="139.0986"/><line style="stroke:#181818;stroke-width:0.5;" x1="104.48" x2="221.48" y1="165.1973" y2="165.1973"/><text fill="#000000" font-family="Arial" font-size="14" lengthAdjust="spacing" textLength="97" x="114.48" y="157.4595">ValidarSolicitud</text></g><g id="elem_ComprobarDatos"><polygon fill="#F1F1F1" points="162.98,265.0986,174.98,277.0986,162.98,289.0986,150.98,277.0986,162.98,265.0986" style="stroke:#181818;stroke-width:0.5;"/></g><g id="CrearSuscripción"><rect fill="#F1F1F1" height="50" rx="12.5" ry="12.5" style="stroke:#181818;stroke-width:0.5;" width="129" x="124.48" y="525.0986"/><line style="stroke:#181818;stroke-width:0.5;" x1="124.48" x2="253.48" y1="551.1973" y2="551.1973"/><text fill="#000000" font-family="Arial" font-size="14" lengthAdjust="spacing" textLength="109" x="134.48" y="543.4595">CrearSuscripción</text></g><g id="RealizarPago"><rect fill="#F1F1F1" height="50" rx="12.5" ry="12.5" style="stroke:#181818;stroke-width:0.5;" width="104" x="154.98" y="365.0986"/><line style="stroke:#181818;stroke-width:0.5;" x1="154.98" x2="258.98" y1="391.1973" y2="391.1973"/><text fill="#000000" font-family="Arial" font-size="14" lengthAdjust="spacing" textLength="84" x="164.98" y="383.4595">RealizarPago</text></g><g id="MostrarError"><rect fill="#F1F1F1" height="50" rx="12.5" ry="12.5" style="stroke:#181818;stroke-width:0.5;" width="100" x="278.98" y="445.0986"/><line style="stroke:#181818;stroke-width:0.5;" x1="278.98" x2="378.98" y1="471.1973" y2="471.1973"/><text fill="#000000" font-family="Arial" font-size="14" lengthAdjust="spacing" textLength="80" x="288.98" y="463.4595">MostrarError</text></g><ellipse cx="258.98" cy="661.0986" fill="none" rx="10" ry="10" style="stroke:#222222;stroke-width:1.0;"/><ellipse cx="259.48" cy="661.5986" fill="#222222" rx="6" ry="6" style="stroke:none;stroke-width:1.0;"/><!--MD5=[59aa4c735b4dc92cef84b98d54530b4b]
link *start to ValidarSolicitud--><g id="link_*start_ValidarSolicitud"><path d="M162.98,63.3886 C162.98,78.8086 162.98,110.2786 162.98,133.7686 " fill="none" id="*start-to-ValidarSolicitud" style="stroke:#181818;stroke-width:1.0;"/><polygon fill="#181818" points="162.98,138.9486,166.98,129.9486,162.98,133.9486,158.98,129.9486,162.98,138.9486" style="stroke:#181818;stroke-width:1.0;"/><text fill="#000000" font-family="Arial" font-size="13" lengthAdjust="spacing" textLength="140" x="163.98" y="106.5051">Solicitud de Suscripción</text></g><!--MD5=[fafcb34e4e79ebfc813e91d480af057e]
link ValidarSolicitud to ComprobarDatos--><g id="link_ValidarSolicitud_ComprobarDatos"><path d="M162.98,189.1886 C162.98,210.4486 162.98,240.8886 162.98,259.5286 " fill="none" id="ValidarSolicitud-to-ComprobarDatos" style="stroke:#181818;stroke-width:1.0;"/><polygon fill="#181818" points="162.98,264.9086,166.98,255.9086,162.98,259.9086,158.98,255.9086,162.98,264.9086" style="stroke:#181818;stroke-width:1.0;"/><text fill="#000000" font-family="Arial" font-size="13" lengthAdjust="spacing" textLength="116" x="163.98" y="232.5051">Validación de Datos</text></g><!--MD5=[945d16b619f4cf1d97d111936d468a60]
link ComprobarDatos to CrearSuscripción--><g id="link_ComprobarDatos_CrearSuscripción"><path d="M153.88,280.1986 C126.98,286.9686 47.74,310.9686 16.98,365.0986 C6,384.4186 7.23,395.1286 16.98,415.0986 C40.77,463.7986 91.76,499.9386 132.07,522.3386 " fill="none" id="ComprobarDatos-to-CrearSuscripción" style="stroke:#181818;stroke-width:1.0;"/><polygon fill="#181818" points="136.93,524.9986,130.9551,517.1692,132.5438,522.5984,127.1146,524.1871,136.93,524.9986" style="stroke:#181818;stroke-width:1.0;"/><text fill="#000000" font-family="Arial" font-size="13" lengthAdjust="spacing" textLength="118" x="17.98" y="395.5051">Suscripción Gratuita</text></g><!--MD5=[f1cc6c0eae5397f140d95fc4ac119ba9]
link ComprobarDatos to RealizarPago--><g id="link_ComprobarDatos_RealizarPago"><path d="M160.4,286.9286 C157.5,298.4186 153.94,318.9486 159.98,335.0986 C163.47,344.4286 169.39,353.2086 175.86,360.8686 " fill="none" id="ComprobarDatos-to-RealizarPago" style="stroke:#181818;stroke-width:1.0;"/><polygon fill="#181818" points="179.51,365.0086,176.5382,355.6188,176.1953,361.2653,170.5488,360.9224,179.51,365.0086" style="stroke:#181818;stroke-width:1.0;"/><text fill="#000000" font-family="Arial" font-size="13" lengthAdjust="spacing" textLength="124" x="160.98" y="332.5051">Suscripción Premium</text></g><!--MD5=[9f240337143f65f6436867c05fc154cd]
link ComprobarDatos to MostrarError--><g id="link_ComprobarDatos_MostrarError"><path d="M173.99,278.2886 C198.55,279.3286 258.18,285.3986 289.98,319.0986 C321.01,351.9786 328.11,406.3086 329.32,439.7686 " fill="none" id="ComprobarDatos-to-MostrarError" style="stroke:#181818;stroke-width:1.0;"/><polygon fill="#181818" points="329.47,444.9586,333.2113,435.8481,329.3272,439.9607,325.2146,436.0765,329.47,444.9586" style="stroke:#181818;stroke-width:1.0;"/><text fill="#000000" font-family="Arial" font-size="13" lengthAdjust="spacing" textLength="158" x="300.98" y="332.5051">Datos Enviados Incorrectos</text></g><!--MD5=[a4bc508b879bba568c607f8d327e2501]
link MostrarError to *end--><g id="link_MostrarError_*end"><path d="M330.37,495.1286 C331.08,526.2486 328.57,581.2086 305.98,621.0986 C298.03,635.1486 282.91,646.2786 271.96,652.9986 " fill="none" id="MostrarError-to-*end" style="stroke:#181818;stroke-width:1.0;"/><polygon fill="#181818" points="267.56,655.5986,277.34,654.4364,271.8575,653.043,273.251,647.5604,267.56,655.5986" style="stroke:#181818;stroke-width:1.0;"/><text fill="#000000" font-family="Arial" font-size="13" lengthAdjust="spacing" textLength="186" x="329.98" y="555.5051">Se indican los datos incorrectos</text></g><!--MD5=[721247fc055bf6a24526f9c23f557065]
link RealizarPago to CrearSuscripción--><g id="link_RealizarPago_CrearSuscripción"><path d="M190.13,415.2486 C184.84,424.2086 179.67,434.7186 176.98,445.0986 C170.57,469.8586 174.83,498.8186 179.97,519.8886 " fill="none" id="RealizarPago-to-CrearSuscripción" style="stroke:#181818;stroke-width:1.0;"/><polygon fill="#181818" points="181.22,524.7886,182.8841,515.0814,179.9905,519.9422,175.1297,517.0486,181.22,524.7886" style="stroke:#181818;stroke-width:1.0;"/><text fill="#000000" font-family="Arial" font-size="13" lengthAdjust="spacing" textLength="83" x="177.98" y="475.5051">Pago realzado</text></g><!--MD5=[c8a62a386828e1aa2ce35a9ea1a502de]
link CrearSuscripción to *end--><g id="link_CrearSuscripción_*end"><path d="M182.13,575.4086 C179.54,589.6786 178.89,607.5186 186.98,621.0986 C199.38,641.9086 227.16,652.2886 244.37,656.9086 " fill="none" id="CrearSuscripción-to-*end" style="stroke:#181818;stroke-width:1.0;"/><polygon fill="#181818" points="249.33,658.1686,241.5731,652.0999,244.4801,656.9526,239.6274,659.8596,249.33,658.1686" style="stroke:#181818;stroke-width:1.0;"/><text fill="#000000" font-family="Arial" font-size="13" lengthAdjust="spacing" textLength="113" x="187.98" y="618.5051">Suscripción Creada</text></g><!--MD5=[ece9df944a2f6fbcf8b2558ba543fff9]
@startuml

title Crear Suscripción

skinparam defaultFontName Arial
top to bottom direction

[*] - -> ValidarSolicitud : Solicitud de Suscripción
state ComprobarDatos <<choice>>
ValidarSolicitud - -> ComprobarDatos : Validación de Datos
ComprobarDatos - -> CrearSuscripción : Suscripción Gratuita
ComprobarDatos - -> RealizarPago : Suscripción Premium
ComprobarDatos - -> MostrarError : Datos Enviados Incorrectos
MostrarError - -> [*] : Se indican los datos incorrectos
RealizarPago - -> CrearSuscripción : Pago realzado

CrearSuscripción - -> [*] : Suscripción Creada


@enduml

PlantUML version 1.2022.7(Mon Aug 22 19:01:30 CEST 2022)
(GPL source distribution)
Java Runtime: Java(TM) SE Runtime Environment
JVM: Java HotSpot(TM) Client VM
Default Encoding: Cp1252
Language: es
Country: ES
--></g></svg>