<?xml version="1.0" encoding="UTF-8" standalone="no"?><svg xmlns="http://www.w3.org/2000/svg" xmlns:xlink="http://www.w3.org/1999/xlink" contentStyleType="text/css" height="1036px" preserveAspectRatio="none" style="width:548px;height:1036px;background:#FFFFFF;" version="1.1" viewBox="0 0 548 1036" width="548px" zoomAndPan="magnify"><defs/><g><rect fill="none" height="27.6094" id="_title" style="stroke:none;stroke-width:1.0;" width="205" x="161.5" y="5"/><text fill="#000000" font-family="sans-serif" font-size="14" font-weight="bold" lengthAdjust="spacing" textLength="195" x="166.5" y="24.5332">Actualizar datos del Usuario</text><rect fill="#F1F1F1" height="40" rx="12.5" ry="12.5" style="stroke:#181818;stroke-width:0.5;" width="54" x="244" y="45.6094"/><text fill="#000000" font-family="sans-serif" font-size="14" lengthAdjust="spacing" textLength="44" x="249" y="71.3379">INITIAL</text><path d="M19.5,197.6094 L522.5,197.6094 A12.5,12.5 0 0 1 535,210.1094 L535,225.2188 L7,225.2188 L7,210.1094 A12.5,12.5 0 0 1 19.5,197.6094 " fill="#F1F1F1" style="stroke:#F1F1F1;stroke-width:1.0;"/><rect fill="none" height="832.6094" rx="12.5" ry="12.5" style="stroke:#181818;stroke-width:0.5;" width="528" x="7" y="197.6094"/><line style="stroke:#181818;stroke-width:0.5;" x1="7" x2="535" y1="225.2188" y2="225.2188"/><text fill="#000000" font-family="sans-serif" font-size="14" lengthAdjust="spacing" textLength="146" x="198" y="217.1426">ActualizarDatosUsuario</text><rect fill="#F1F1F1" height="40" rx="12.5" ry="12.5" style="stroke:#181818;stroke-width:0.5;" width="50" x="119" y="293.2188"/><text fill="#000000" font-family="sans-serif" font-size="14" lengthAdjust="spacing" textLength="4" x="142" y="318.9473"> </text><rect fill="#F1F1F1" height="40" rx="12.5" ry="12.5" style="stroke:#181818;stroke-width:0.5;" width="50" x="19" y="607.2188"/><text fill="#000000" font-family="sans-serif" font-size="14" lengthAdjust="spacing" textLength="4" x="42" y="632.9473"> </text><g id="elem_4"><polygon fill="#F1F1F1" points="155,888.2188,167,900.2188,155,912.2188,143,900.2188,155,888.2188" style="stroke:#181818;stroke-width:0.5;"/></g><ellipse cx="144" cy="246.2188" fill="#222222" rx="10" ry="10" style="stroke:none;stroke-width:1.0;"/><ellipse cx="155" cy="1010.2188" fill="none" rx="10" ry="10" style="stroke:#222222;stroke-width:1.0;"/><ellipse cx="155.5" cy="1010.7188" fill="#222222" rx="6" ry="6" style="stroke:none;stroke-width:1.0;"/><!--MD5=[1e308f09438486802560640bd58fabcf]
link *start*ActualizarDatosUsuario to 2--><g id="link_*start*ActualizarDatosUsuario_2"><path d="M144,256.2587 C144,264.4088 144,276.7787 144,287.8188 " fill="none" id="*start*ActualizarDatosUsuario-to-2" style="stroke:#008000;stroke-width:1.0;"/><polygon fill="#008000" points="144,293.1088,148,284.1088,144,288.1088,140,284.1088,144,293.1088" style="stroke:#008000;stroke-width:1.0;"/></g><!--MD5=[eeb69082328d10abd3b14fdeede0d8a3]
link 2 to 3--><g id="link_2_3"><path d="M118.76,322.7088 C86.29,333.6287 34,351.2188 34,351.2188 C34,351.2188 34,583.2188 34,583.2188 C34,583.2188 36.08,592.1488 38.34,601.8688 " fill="none" id="2-to-3" style="stroke:#008000;stroke-width:1.0;"/><polygon fill="#008000" points="39.53,606.9788,41.3955,597.3082,38.4015,602.1078,33.602,599.1137,39.53,606.9788" style="stroke:#008000;stroke-width:1.0;"/><path d="M39,356.2188 L39,578.2188 L236,578.2188 L236,366.2188 L226,356.2188 L39,356.2188 " fill="#F5F5F5" style="stroke:#181818;stroke-width:0.5;"/><path d="M226,356.2188 L226,366.2188 L236,366.2188 L226,356.2188 " fill="#F5F5F5" style="stroke:#181818;stroke-width:0.5;"/><text fill="#000000" font-family="sans-serif" font-size="13" font-weight="bold" lengthAdjust="spacing" textLength="103" x="45" y="374.7139">Sistema Solicita</text><ellipse cx="50.5" cy="386.4219" fill="#000000" rx="2.5" ry="2.5" style="stroke:#000000;stroke-width:0.0;"/><text fill="#000000" font-family="sans-serif" font-size="13" lengthAdjust="spacing" textLength="75" x="58" y="391.0654">Foto de perfil</text><ellipse cx="50.5" cy="402.7734" fill="#000000" rx="2.5" ry="2.5" style="stroke:#000000;stroke-width:0.0;"/><text fill="#000000" font-family="sans-serif" font-size="13" lengthAdjust="spacing" textLength="45" x="58" y="407.417">Nombre</text><ellipse cx="50.5" cy="419.125" fill="#000000" rx="2.5" ry="2.5" style="stroke:#000000;stroke-width:0.0;"/><text fill="#000000" font-family="sans-serif" font-size="13" lengthAdjust="spacing" textLength="46" x="58" y="423.7686">Apellido</text><ellipse cx="50.5" cy="435.4766" fill="#000000" rx="2.5" ry="2.5" style="stroke:#000000;stroke-width:0.0;"/><text fill="#000000" font-family="sans-serif" font-size="13" lengthAdjust="spacing" textLength="121" x="58" y="440.1201">Fecha de nacimiento</text><ellipse cx="50.5" cy="451.8281" fill="#000000" rx="2.5" ry="2.5" style="stroke:#000000;stroke-width:0.0;"/><text fill="#000000" font-family="sans-serif" font-size="13" lengthAdjust="spacing" textLength="33" x="58" y="456.4717">Email</text><ellipse cx="50.5" cy="468.1797" fill="#000000" rx="2.5" ry="2.5" style="stroke:#000000;stroke-width:0.0;"/><text fill="#000000" font-family="sans-serif" font-size="13" lengthAdjust="spacing" textLength="66" x="58" y="472.8232">Contraseña</text><ellipse cx="50.5" cy="484.5313" fill="#000000" rx="2.5" ry="2.5" style="stroke:#000000;stroke-width:0.0;"/><text fill="#000000" font-family="sans-serif" font-size="13" font-weight="bold" lengthAdjust="spacing" textLength="111" x="58" y="489.1748">Usuario Egresado</text><text fill="#000000" font-family="sans-serif" font-size="13" lengthAdjust="spacing" textLength="62" x="61" y="505.5264">- Dirección</text><text fill="#000000" font-family="sans-serif" font-size="13" lengthAdjust="spacing" textLength="56" x="61" y="521.8779">- Teléfono</text><text fill="#000000" font-family="sans-serif" font-size="13" lengthAdjust="spacing" textLength="70" x="61" y="538.2295">- Ocupación</text><text fill="#000000" font-family="sans-serif" font-size="13" font-weight="bold" lengthAdjust="spacing" textLength="105" x="45" y="554.5811">Sistema Permite</text><ellipse cx="50.5" cy="566.2891" fill="#000000" rx="2.5" ry="2.5" style="stroke:#000000;stroke-width:0.0;"/><text fill="#000000" font-family="sans-serif" font-size="13" lengthAdjust="spacing" textLength="163" x="58" y="570.9326">Actualizar datos del Usuario</text></g><!--MD5=[b1f22f0c97e7f2b556a5a2d67c42ac53]
link 3 to 4--><g id="link_3_4"><path d="M46.56,647.6088 C54.16,705.0387 76,870.2188 76,870.2188 C76,870.2188 119.42,886.1588 141.88,894.3988 " fill="none" id="3-to-4" style="stroke:#008000;stroke-width:1.0;"/><polygon fill="#008000" points="146.84,896.2288,139.7555,889.387,142.1427,894.5155,137.0142,896.9026,146.84,896.2288" style="stroke:#008000;stroke-width:1.0;"/><path d="M81,676.2188 L81,865.2188 L236,865.2188 L236,686.2188 L226,676.2188 L81,676.2188 " fill="#F5F5F5" style="stroke:#181818;stroke-width:0.5;"/><path d="M226,676.2188 L226,686.2188 L236,686.2188 L226,676.2188 " fill="#F5F5F5" style="stroke:#181818;stroke-width:0.5;"/><text fill="#000000" font-family="sans-serif" font-size="13" font-weight="bold" lengthAdjust="spacing" textLength="112" x="87" y="694.7139">Usuario introduce</text><ellipse cx="92.5" cy="706.4219" fill="#000000" rx="2.5" ry="2.5" style="stroke:#000000;stroke-width:0.0;"/><text fill="#000000" font-family="sans-serif" font-size="13" lengthAdjust="spacing" textLength="75" x="100" y="711.0654">Foto de perfil</text><ellipse cx="92.5" cy="722.7734" fill="#000000" rx="2.5" ry="2.5" style="stroke:#000000;stroke-width:0.0;"/><text fill="#000000" font-family="sans-serif" font-size="13" lengthAdjust="spacing" textLength="45" x="100" y="727.417">Nombre</text><ellipse cx="92.5" cy="739.125" fill="#000000" rx="2.5" ry="2.5" style="stroke:#000000;stroke-width:0.0;"/><text fill="#000000" font-family="sans-serif" font-size="13" lengthAdjust="spacing" textLength="46" x="100" y="743.7686">Apellido</text><ellipse cx="92.5" cy="755.4766" fill="#000000" rx="2.5" ry="2.5" style="stroke:#000000;stroke-width:0.0;"/><text fill="#000000" font-family="sans-serif" font-size="13" lengthAdjust="spacing" textLength="121" x="100" y="760.1201">Fecha de nacimiento</text><ellipse cx="92.5" cy="771.8281" fill="#000000" rx="2.5" ry="2.5" style="stroke:#000000;stroke-width:0.0;"/><text fill="#000000" font-family="sans-serif" font-size="13" lengthAdjust="spacing" textLength="33" x="100" y="776.4717">Email</text><ellipse cx="92.5" cy="788.1797" fill="#000000" rx="2.5" ry="2.5" style="stroke:#000000;stroke-width:0.0;"/><text fill="#000000" font-family="sans-serif" font-size="13" lengthAdjust="spacing" textLength="66" x="100" y="792.8232">Contraseña</text><ellipse cx="92.5" cy="804.5313" fill="#000000" rx="2.5" ry="2.5" style="stroke:#000000;stroke-width:0.0;"/><text fill="#000000" font-family="sans-serif" font-size="13" font-weight="bold" lengthAdjust="spacing" textLength="111" x="100" y="809.1748">Usuario Egresado</text><text fill="#000000" font-family="sans-serif" font-size="13" lengthAdjust="spacing" textLength="62" x="103" y="825.5264">- Dirección</text><text fill="#000000" font-family="sans-serif" font-size="13" lengthAdjust="spacing" textLength="56" x="103" y="841.8779">- Teléfono</text><text fill="#000000" font-family="sans-serif" font-size="13" lengthAdjust="spacing" textLength="70" x="103" y="858.2295">- Ocupación</text></g><!--MD5=[0e67fbf66955179361fc177f04cd965b]
link 4 to *end*ActualizarDatosUsuario--><g id="link_4_*end*ActualizarDatosUsuario"><path d="M155,912.3688 C155,932.1488 155,973.3088 155,995.0588 " fill="none" id="4-to-*end*ActualizarDatosUsuario" style="stroke:#008000;stroke-width:1.0;"/><polygon fill="#008000" points="155,1000.1388,159,991.1388,155,995.1388,151,991.1388,155,1000.1388" style="stroke:#008000;stroke-width:1.0;"/><path d="M160,935.2188 L160,977.2188 L308,977.2188 L308,945.2188 L298,935.2188 L160,935.2188 " fill="#F5F5F5" style="stroke:#181818;stroke-width:0.5;"/><path d="M298,935.2188 L298,945.2188 L308,945.2188 L298,935.2188 " fill="#F5F5F5" style="stroke:#181818;stroke-width:0.5;"/><text fill="#000000" font-family="sans-serif" font-size="13" font-weight="bold" lengthAdjust="spacing" textLength="105" x="166" y="953.7139">Sistema Muestra</text><ellipse cx="171.5" cy="965.4219" fill="#000000" rx="2.5" ry="2.5" style="stroke:#000000;stroke-width:0.0;"/><text fill="#000000" font-family="sans-serif" font-size="13" lengthAdjust="spacing" textLength="114" x="179" y="970.0654">Cambios realizados</text></g><!--MD5=[d5d43b3f3dfddbfb6ca65af0419a6a54]
link 4 to 2--><g id="link_4_2"><path d="M163.25,896.4388 C184.77,889.1788 241,870.2188 241,870.2188 C241,870.2188 241,351.2188 241,351.2188 C241,351.2188 202.55,336.5488 174.07,325.6888 " fill="none" id="4-to-2" style="stroke:#FF0000;stroke-width:1.0;"/><polygon fill="#FF0000" points="169.23,323.8388,176.2085,330.7886,173.9004,325.6241,179.065,323.316,169.23,323.8388" style="stroke:#FF0000;stroke-width:1.0;"/><path d="M246,606.2188 L246,648.2188 L526,648.2188 L526,616.2188 L516,606.2188 L246,606.2188 " fill="#F5F5F5" style="stroke:#181818;stroke-width:0.5;"/><path d="M516,606.2188 L516,616.2188 L526,616.2188 L516,606.2188 " fill="#F5F5F5" style="stroke:#181818;stroke-width:0.5;"/><text fill="#000000" font-family="sans-serif" font-size="13" font-weight="bold" lengthAdjust="spacing" textLength="105" x="252" y="624.7139">Sistema Muestra</text><ellipse cx="257.5" cy="636.4219" fill="#000000" rx="2.5" ry="2.5" style="stroke:#000000;stroke-width:0.0;"/><text fill="#000000" font-family="sans-serif" font-size="13" lengthAdjust="spacing" textLength="246" x="265" y="641.0654">Mensaje de error en los datos introducidos</text></g><!--MD5=[c62dad9d08e78822e4b0f8b7e446049a]
link startState to ActualizarDatosUsuario--><g id="link_startState_ActualizarDatosUsuario"><path d="M271,85.7394 C271,107.3894 271,145.7494 271,192.2694 " fill="none" id="startState-to-ActualizarDatosUsuario" style="stroke:#008000;stroke-width:1.0;"/><polygon fill="#008000" points="271,197.3894,275,188.3894,271,192.3894,267,188.3894,271,197.3894" style="stroke:#008000;stroke-width:1.0;"/><path d="M276,120.6094 L276,162.6094 L473,162.6094 L473,130.6094 L463,120.6094 L276,120.6094 " fill="#F5F5F5" style="stroke:#181818;stroke-width:0.5;"/><path d="M463,120.6094 L463,130.6094 L473,130.6094 L463,120.6094 " fill="#F5F5F5" style="stroke:#181818;stroke-width:0.5;"/><text fill="#000000" font-family="sans-serif" font-size="13" font-weight="bold" lengthAdjust="spacing" textLength="100" x="282" y="139.1045">Usuario Solicita</text><ellipse cx="287.5" cy="150.8125" fill="#000000" rx="2.5" ry="2.5" style="stroke:#000000;stroke-width:0.0;"/><text fill="#000000" font-family="sans-serif" font-size="13" lengthAdjust="spacing" textLength="163" x="295" y="155.4561">Actualizar datos del Usuario</text></g><!--MD5=[11128c897ca4cc8fb9b14b4879bab64f]
@startuml
title Actualizar datos del Usuario

skinparam {
    NoteBackgroundColor #whiteSmoke
    ArrowColor #green
    NoteBorderColor #green
    linetype polyline
}

hide empty description

state startState as "INITIAL"

startState - -> ActualizarDatosUsuario
note on link
    <b>Usuario Solicita</b>
    * Actualizar datos del Usuario
end note

state ActualizarDatosUsuario {
state 2 as " "
state 3 as " "
state 4 <<choice>>

[*] -down-> 2

2 -down-> 3
note on link
<b>Sistema Solicita</b>
* Foto de perfil
* Nombre
* Apellido
* Fecha de nacimiento
* Email
* Contraseña
* <b>Usuario Egresado</b>
    - Dirección
    - Teléfono
    - Ocupación
<b>Sistema Permite</b>
* Actualizar datos del Usuario
end note

3 -down-> 4
note on link
<b>Usuario introduce</b>
* Foto de perfil
* Nombre
* Apellido
* Fecha de nacimiento
* Email
* Contraseña
* <b>Usuario Egresado</b>
    - Dirección
    - Teléfono
    - Ocupación
end note

4 -down-> [*]
note on link
<b>Sistema Muestra</b>
* Cambios realizados
end note

4 -[#red]-> 2
note on link
<b>Sistema Muestra</b>
* Mensaje de error en los datos introducidos
end note

}
@enduml

PlantUML version 1.2022.7(Mon Aug 22 19:01:30 CEST 2022)
(GPL source distribution)
Java Runtime: Java(TM) SE Runtime Environment
JVM: Java HotSpot(TM) 64-Bit Server VM
Default Encoding: Cp1252
Language: es
Country: ES
--></g></svg>