<?xml version="1.0" encoding="UTF-8" standalone="no"?><svg xmlns="http://www.w3.org/2000/svg" xmlns:xlink="http://www.w3.org/1999/xlink" contentStyleType="text/css" height="326px" preserveAspectRatio="none" style="width:420px;height:326px;background:#FFFFFF;" version="1.1" viewBox="0 0 420 326" width="420px" zoomAndPan="magnify"><defs/><g><rect fill="none" height="29.0679" id="_title" style="stroke:none;stroke-width:1.0;" width="176" x="115.45" y="5"/><text fill="#000000" font-family="sans-serif" font-size="14" font-weight="bold" lengthAdjust="spacing" textLength="166" x="120.45" y="24.9659">Casos de Uso(Egresado)</text><!--MD5=[0da457cd346282cb9ffbbcbb0652be17]
cluster cuentas--><g id="cluster_cuentas"><path d="M115.5,46.6699 L246.5,46.6699 A3.75,3.75 0 0 1 249,49.1699 L256,71.7378 L411.4,71.7378 A2.5,2.5 0 0 1 413.9,74.2378 L413.9,317.1699 A2.5,2.5 0 0 1 411.4,319.6699 L115.5,319.6699 A2.5,2.5 0 0 1 113,317.1699 L113,49.1699 A2.5,2.5 0 0 1 115.5,46.6699 " fill="none" style="stroke:#000000;stroke-width:1.5;"/><line style="stroke:#000000;stroke-width:1.5;" x1="113" x2="256" y1="71.7378" y2="71.7378"/><text fill="#000000" font-family="sans-serif" font-size="14" font-weight="bold" lengthAdjust="spacing" textLength="130" x="117" y="63.6358">Manejo de Usuario</text></g><g id="elem_Actualización de Datos del Usuario"><ellipse cx="263.4483" cy="113.6696" fill="#F1F1F1" rx="134.4483" ry="29.2897" style="stroke:#181818;stroke-width:0.5;"/><text fill="#000000" font-family="sans-serif" font-size="14" lengthAdjust="spacing" textLength="233" x="146.9483" y="117.1015">Actualización de Datos del Usuario</text></g><g id="elem_Cancelación de Cuenta"><ellipse cx="263.4473" cy="200.6734" fill="#F1F1F1" rx="99.6173" ry="22.3235" style="stroke:#181818;stroke-width:0.5;"/><text fill="#000000" font-family="sans-serif" font-size="14" lengthAdjust="spacing" textLength="154" x="183.4473" y="205.4063">Cancelación de Cuenta</text></g><g id="elem_Listar Datos del Usuario"><ellipse cx="263.4456" cy="280.673" fill="#F1F1F1" rx="102.1156" ry="22.8231" style="stroke:#181818;stroke-width:0.5;"/><text fill="#000000" font-family="sans-serif" font-size="14" lengthAdjust="spacing" textLength="160" x="180.4456" y="285.406">Listar Datos del Usuario</text></g><!--MD5=[886f27c4ce1bf6d1eb714be2c81d3749]
entity Egresado--><g id="elem_Egresado"><ellipse cx="37.5" cy="169.6399" fill="#F1F1F1" rx="8" ry="8" style="stroke:#181818;stroke-width:0.5;"/><path d="M37.5,177.6399 L37.5,204.6399 M24.5,185.6399 L50.5,185.6399 M37.5,204.6399 L24.5,219.6399 M37.5,204.6399 L50.5,219.6399 " fill="none" style="stroke:#181818;stroke-width:0.5;"/><text fill="#000000" font-family="sans-serif" font-size="14" lengthAdjust="spacing" textLength="63" x="6" y="236.1058">Egresado</text></g><!--MD5=[3022be293dde8ff5aec774ec42f5bb06]
link Egresado to Actualización de Datos del Usuario--><g id="link_Egresado_Actualización de Datos del Usuario"><path d="M69.41,182.0799 C86.78,171.6299 105,160.6699 105,160.6699 C105,160.6699 139.91,150.2499 176.86,139.2199 " fill="none" id="Egresado-to-Actualización de Datos del Usuario" style="stroke:#181818;stroke-width:1.0;"/><polygon fill="#181818" points="181.35,137.8799,171.5829,136.6134,176.5577,139.3062,173.8649,144.281,181.35,137.8799" style="stroke:#181818;stroke-width:1.0;"/></g><!--MD5=[6fc14c47e73df4c791fb6589e5e9d7a3]
link Egresado to Cancelación de Cuenta--><g id="link_Egresado_Cancelación de Cuenta"><path d="M69.17,200.6699 C92.14,200.6699 125,200.6699 157.14,200.6699 " fill="none" id="Egresado-to-Cancelación de Cuenta" style="stroke:#181818;stroke-width:1.0;"/><polygon fill="#181818" points="162.04,200.6699,153.04,196.6699,157.04,200.6699,153.04,204.6699,162.04,200.6699" style="stroke:#181818;stroke-width:1.0;"/></g><!--MD5=[49a8251de11ef2a363a66e948f2c3020]
link Egresado to Listar Datos del Usuario--><g id="link_Egresado_Listar Datos del Usuario"><path d="M69.41,219.2599 C86.78,229.7099 105,240.6699 105,240.6699 C105,240.6699 147.6,251.4899 188.49,261.8799 " fill="none" id="Egresado-to-Listar Datos del Usuario" style="stroke:#181818;stroke-width:1.0;"/><polygon fill="#181818" points="193.3,263.0999,185.5557,257.0151,188.4527,261.8738,183.5939,264.7708,193.3,263.0999" style="stroke:#181818;stroke-width:1.0;"/></g><!--MD5=[186a7358f3cf6cd9b6a4c3014064e969]
@startuml Diagrama_CdU


title Casos de Uso(Egresado)

skinparam {
    NoteBackgroundColor #whiteSmoke
    NoteBorderColor #green
    linetype polyline
}

left to right direction

actor Egresado

folder "Manejo de Usuario" as cuentas {
    Egresado - -> (Actualización de Datos del Usuario)
    Egresado - -> (Cancelación de Cuenta)
    Egresado - -> (Listar Datos del Usuario)
}


@enduml

PlantUML version 1.2022.7(Mon Aug 22 19:01:30 CEST 2022)
(GPL source distribution)
Java Runtime: OpenJDK Runtime Environment
JVM: OpenJDK 64-Bit Server VM
Default Encoding: UTF-8
Language: es
Country: ES
--></g></svg>