<?xml version="1.0" encoding="us-ascii" standalone="no"?><svg xmlns="http://www.w3.org/2000/svg" xmlns:xlink="http://www.w3.org/1999/xlink" contentStyleType="text/css" height="625px" preserveAspectRatio="none" style="width:938px;height:625px;background:#FFFFFF;" version="1.1" viewBox="0 0 938 625" width="938px" zoomAndPan="magnify"><defs/><g><!--class ALUMNI--><g id="elem_ALUMNI"><rect codeLine="6" fill="#F1F1F1" height="42.2969" id="ALUMNI" rx="2.5" ry="2.5" style="stroke:#181818;stroke-width:0.5;" width="59" x="356" y="7"/><text fill="#000000" font-family="Arial" font-size="14" lengthAdjust="spacing" textLength="53" x="359" y="24.9951">ALUMNI</text><line style="stroke:#181818;stroke-width:0.5;" x1="357" x2="414" y1="33.2969" y2="33.2969"/><line style="stroke:#181818;stroke-width:0.5;" x1="357" x2="414" y1="41.2969" y2="41.2969"/></g><!--class USUARIO--><g id="elem_USUARIO"><rect codeLine="8" fill="#F1F1F1" height="156.375" id="USUARIO" rx="2.5" ry="2.5" style="stroke:#181818;stroke-width:0.5;" width="162" x="207.5" y="126"/><text fill="#000000" font-family="Arial" font-size="14" lengthAdjust="spacing" textLength="62" x="257.5" y="143.9951">USUARIO</text><line style="stroke:#181818;stroke-width:0.5;" x1="208.5" x2="368.5" y1="152.2969" y2="152.2969"/><text fill="#000000" font-family="Arial" font-size="14" lengthAdjust="spacing" textLength="15" x="213.5" y="169.292">ID</text><text fill="#000000" font-family="Arial" font-size="14" lengthAdjust="spacing" textLength="58" x="213.5" y="185.5889">Nombre</text><text fill="#000000" font-family="Arial" font-size="14" lengthAdjust="spacing" textLength="59" x="213.5" y="201.8857">Apellido</text><text fill="#000000" font-family="Arial" font-size="14" lengthAdjust="spacing" textLength="39" x="213.5" y="218.1826">Email</text><text fill="#000000" font-family="Arial" font-size="14" lengthAdjust="spacing" textLength="68" x="213.5" y="234.4795">ubicacion</text><text fill="#000000" font-family="Arial" font-size="14" lengthAdjust="spacing" textLength="150" x="213.5" y="250.7764">Fecha de Nacimiento</text><text fill="#000000" font-family="Arial" font-size="14" lengthAdjust="spacing" textLength="75" x="213.5" y="267.0732">Ocupaci&#243;n</text><line style="stroke:#181818;stroke-width:0.5;" x1="208.5" x2="368.5" y1="274.375" y2="274.375"/></g><!--class BASE DE DATOS--><g id="elem_BASE DE DATOS"><rect codeLine="19" fill="#F1F1F1" height="42.2969" id="BASE DE DATOS" rx="2.5" ry="2.5" style="stroke:#181818;stroke-width:0.5;" width="122" x="35.5" y="375.5"/><text fill="#000000" font-family="Arial" font-size="14" lengthAdjust="spacing" textLength="116" x="38.5" y="393.4951">BASE DE DATOS</text><line style="stroke:#181818;stroke-width:0.5;" x1="36.5" x2="156.5" y1="401.7969" y2="401.7969"/><line style="stroke:#181818;stroke-width:0.5;" x1="36.5" x2="156.5" y1="409.7969" y2="409.7969"/></g><!--class BASE DE DATOS UNEAT--><g id="elem_BASE DE DATOS UNEAT"><rect codeLine="21" fill="#F1F1F1" height="42.2969" id="BASE DE DATOS UNEAT" rx="2.5" ry="2.5" style="stroke:#181818;stroke-width:0.5;" width="173" x="7" y="543.5"/><text fill="#000000" font-family="Arial" font-size="14" lengthAdjust="spacing" textLength="167" x="10" y="561.4951">BASE DE DATOS UNEAT</text><line style="stroke:#181818;stroke-width:0.5;" x1="8" x2="179" y1="569.7969" y2="569.7969"/><line style="stroke:#181818;stroke-width:0.5;" x1="8" x2="179" y1="577.7969" y2="577.7969"/></g><!--class REQUISITO--><g id="elem_REQUISITO"><rect codeLine="23" fill="#F1F1F1" height="58.5938" id="REQUISITO" rx="2.5" ry="2.5" style="stroke:#181818;stroke-width:0.5;" width="148" x="214.5" y="367"/><text fill="#000000" font-family="Arial" font-size="14" lengthAdjust="spacing" textLength="76" x="250.5" y="384.9951">REQUISITO</text><line style="stroke:#181818;stroke-width:0.5;" x1="215.5" x2="361.5" y1="393.2969" y2="393.2969"/><text fill="#000000" font-family="Arial" font-size="14" lengthAdjust="spacing" textLength="136" x="220.5" y="410.292">titulaci&#243;n de Uneat</text><line style="stroke:#181818;stroke-width:0.5;" x1="215.5" x2="361.5" y1="417.5938" y2="417.5938"/></g><!--class SUSCRIPCI?N--><g id="elem_SUSCRIPCI&#211;N"><rect codeLine="28" fill="#F1F1F1" height="74.8906" id="SUSCRIPCI&#211;N" rx="2.5" ry="2.5" style="stroke:#181818;stroke-width:0.5;" width="101" x="408" y="166.5"/><text fill="#000000" font-family="Arial" font-size="14" lengthAdjust="spacing" textLength="95" x="411" y="184.4951">SUSCRIPCI&#211;N</text><line style="stroke:#181818;stroke-width:0.5;" x1="409" x2="508" y1="192.7969" y2="192.7969"/><text fill="#000000" font-family="Arial" font-size="14" lengthAdjust="spacing" textLength="58" x="414" y="209.792">Nombre</text><text fill="#000000" font-family="Arial" font-size="14" lengthAdjust="spacing" textLength="32" x="414" y="226.0889">Tipo</text><line style="stroke:#181818;stroke-width:0.5;" x1="409" x2="508" y1="233.3906" y2="233.3906"/></g><!--class SERVICIO--><g id="elem_SERVICIO"><rect codeLine="34" fill="#F1F1F1" height="74.8906" id="SERVICIO" rx="2.5" ry="2.5" style="stroke:#181818;stroke-width:0.5;" width="97" x="427" y="359"/><text fill="#000000" font-family="Arial" font-size="14" lengthAdjust="spacing" textLength="67" x="442" y="376.9951">SERVICIO</text><line style="stroke:#181818;stroke-width:0.5;" x1="428" x2="523" y1="385.2969" y2="385.2969"/><text fill="#000000" font-family="Arial" font-size="14" lengthAdjust="spacing" textLength="58" x="433" y="402.292">Nombre</text><text fill="#000000" font-family="Arial" font-size="14" lengthAdjust="spacing" textLength="85" x="433" y="418.5889">Descripci&#243;n</text><line style="stroke:#181818;stroke-width:0.5;" x1="428" x2="523" y1="425.8906" y2="425.8906"/></g><!--class COMUNICACI?N--><g id="elem_COMUNICACI&#211;N"><rect codeLine="40" fill="#F1F1F1" height="74.8906" id="COMUNICACI&#211;N" rx="2.5" ry="2.5" style="stroke:#181818;stroke-width:0.5;" width="117" x="215" y="527"/><text fill="#000000" font-family="Arial" font-size="14" lengthAdjust="spacing" textLength="111" x="218" y="544.9951">COMUNICACI&#211;N</text><line style="stroke:#181818;stroke-width:0.5;" x1="216" x2="331" y1="553.2969" y2="553.2969"/><text fill="#000000" font-family="Arial" font-size="14" lengthAdjust="spacing" textLength="39" x="221" y="570.292">Email</text><text fill="#000000" font-family="Arial" font-size="14" lengthAdjust="spacing" textLength="34" x="221" y="586.5889">Chat</text><line style="stroke:#181818;stroke-width:0.5;" x1="216" x2="331" y1="593.8906" y2="593.8906"/></g><!--class ALQUILER DE INSTALACIONES--><g id="elem_ALQUILER DE INSTALACIONES"><rect codeLine="46" fill="#F1F1F1" height="91.1875" id="ALQUILER DE INSTALACIONES" rx="2.5" ry="2.5" style="stroke:#181818;stroke-width:0.5;" width="216" x="367.5" y="519"/><text fill="#000000" font-family="Arial" font-size="14" lengthAdjust="spacing" textLength="210" x="370.5" y="536.9951">ALQUILER DE INSTALACIONES</text><line style="stroke:#181818;stroke-width:0.5;" x1="368.5" x2="582.5" y1="545.2969" y2="545.2969"/><text fill="#000000" font-family="Arial" font-size="14" lengthAdjust="spacing" textLength="73" x="373.5" y="562.292">Biblioteca</text><text fill="#000000" font-family="Arial" font-size="14" lengthAdjust="spacing" textLength="145" x="373.5" y="578.5889">Sala de ordenadores</text><text fill="#000000" font-family="Arial" font-size="14" lengthAdjust="spacing" textLength="174" x="373.5" y="594.8857">Instalaciones deportivas</text><line style="stroke:#181818;stroke-width:0.5;" x1="368.5" x2="582.5" y1="602.1875" y2="602.1875"/></g><!--class NEWSLETTER--><g id="elem_NEWSLETTER"><rect codeLine="53" fill="#F1F1F1" height="74.8906" id="NEWSLETTER" rx="2.5" ry="2.5" style="stroke:#181818;stroke-width:0.5;" width="102" x="618.5" y="527"/><text fill="#000000" font-family="Arial" font-size="14" lengthAdjust="spacing" textLength="96" x="621.5" y="544.9951">NEWSLETTER</text><line style="stroke:#181818;stroke-width:0.5;" x1="619.5" x2="719.5" y1="553.2969" y2="553.2969"/><text fill="#000000" font-family="Arial" font-size="14" lengthAdjust="spacing" textLength="57" x="624.5" y="570.292">Noticias</text><text fill="#000000" font-family="Arial" font-size="14" lengthAdjust="spacing" textLength="58" x="624.5" y="586.5889">Eventos</text><line style="stroke:#181818;stroke-width:0.5;" x1="619.5" x2="719.5" y1="593.8906" y2="593.8906"/></g><!--class OFERTAS DE EMPLEO--><g id="elem_OFERTAS DE EMPLEO"><rect codeLine="59" fill="#F1F1F1" height="107.4844" id="OFERTAS DE EMPLEO" rx="2.5" ry="2.5" style="stroke:#181818;stroke-width:0.5;" width="175" x="756" y="511"/><text fill="#000000" font-family="Arial" font-size="14" lengthAdjust="spacing" textLength="152" x="767.5" y="528.9951">OFERTAS DE EMPLEO</text><line style="stroke:#181818;stroke-width:0.5;" x1="757" x2="930" y1="537.2969" y2="537.2969"/><text fill="#000000" font-family="Arial" font-size="14" lengthAdjust="spacing" textLength="163" x="762" y="554.292">Nombre de la empresa</text><text fill="#000000" font-family="Arial" font-size="14" lengthAdjust="spacing" textLength="127" x="762" y="570.5889">Puesto de trabajo</text><text fill="#000000" font-family="Arial" font-size="14" lengthAdjust="spacing" textLength="48" x="762" y="586.8857">Salario</text><text fill="#000000" font-family="Arial" font-size="14" lengthAdjust="spacing" textLength="69" x="762" y="603.1826">Ubicaci&#243;n</text><line style="stroke:#181818;stroke-width:0.5;" x1="757" x2="930" y1="610.4844" y2="610.4844"/></g><!--link ALUMNI to USUARIO--><g id="link_ALUMNI_USUARIO"><path codeLine="67" d="M374.183,49.301 C363.638,68.216 347.233,97.644 331.588,125.708 " fill="none" id="ALUMNI-USUARIO" style="stroke:#181818;stroke-width:1.0;"/><text fill="#000000" font-family="Arial" font-size="13" lengthAdjust="spacing" textLength="32" x="358.5" y="92.0669">tiene</text></g><!--link ALUMNI to SUSCRIPCI?N--><g id="link_ALUMNI_SUSCRIPCI&#211;N"><path codeLine="68" d="M394.017,49.301 C406.052,77.988 428.232,130.855 443.175,166.471 " fill="none" id="ALUMNI-SUSCRIPCI&#211;N" style="stroke:#181818;stroke-width:1.0;"/><text fill="#000000" font-family="Arial" font-size="13" lengthAdjust="spacing" textLength="41" x="414.5" y="92.0669">ofrece</text></g><!--link SUSCRIPCI?N to SERVICIO--><g id="link_SUSCRIPCI&#211;N_SERVICIO"><path codeLine="69" d="M461.778,241.73 C464.788,275.464 469.225,325.185 472.232,358.882 " fill="none" id="SUSCRIPCI&#211;N-SERVICIO" style="stroke:#181818;stroke-width:1.0;"/><text fill="#000000" font-family="Arial" font-size="13" lengthAdjust="spacing" textLength="45" x="471.5" y="325.0669">incluye</text></g><!--link USUARIO to REQUISITO--><g id="link_USUARIO_REQUISITO"><path codeLine="70" d="M288.5,282.209 C288.5,312.119 288.5,344.492 288.5,366.942 " fill="none" id="USUARIO-REQUISITO" style="stroke:#181818;stroke-width:1.0;"/><text fill="#000000" font-family="Arial" font-size="13" lengthAdjust="spacing" textLength="47" x="289.5" y="325.0669">cumple</text></g><!--link USUARIO to BASE DE DATOS--><g id="link_USUARIO_BASE DE DATOS"><path codeLine="71" d="M210.683,282.209 C176.588,316.038 139.316,353.018 116.931,375.229 " fill="none" id="USUARIO-BASE DE DATOS" style="stroke:#181818;stroke-width:1.0;"/><text fill="#000000" font-family="Arial" font-size="13" lengthAdjust="spacing" textLength="64" x="176.5" y="325.0669">se guarda</text></g><!--link BASE DE DATOS to BASE DE DATOS UNEAT--><g id="link_BASE DE DATOS_BASE DE DATOS UNEAT"><path codeLine="72" d="M96.1381,417.523 C95.5615,449.429 94.4406,511.455 93.8632,543.4055 " fill="none" id="BASE DE DATOS-BASE DE DATOS UNEAT" style="stroke:#181818;stroke-width:1.0;"/><text fill="#000000" font-family="Arial" font-size="13" lengthAdjust="spacing" textLength="77" x="96.5" y="477.0669">se relaciona</text></g><!--reverse link SERVICIO to COMUNICACI?N--><g id="link_SERVICIO_COMUNICACI&#211;N"><path codeLine="74" d="M416.7633,445.7692 C383.2883,473.2782 351.65,499.278 318.205,526.7622 " fill="none" id="SERVICIO-backto-COMUNICACI&#211;N" style="stroke:#181818;stroke-width:1.0;"/><polygon fill="none" points="430.67,434.341,412.9539,441.1336,420.5727,450.4048,430.67,434.341" style="stroke:#181818;stroke-width:1.0;"/></g><!--reverse link SERVICIO to ALQUILER DE INSTALACIONES--><g id="link_SERVICIO_ALQUILER DE INSTALACIONES"><path codeLine="75" d="M475.5,452.341 C475.5,477.271 475.5,492.347 475.5,518.7864 " fill="none" id="SERVICIO-backto-ALQUILER DE INSTALACIONES" style="stroke:#181818;stroke-width:1.0;"/><polygon fill="none" points="475.5,434.341,469.5,452.341,481.5,452.341,475.5,434.341" style="stroke:#181818;stroke-width:1.0;"/></g><!--reverse link SERVICIO to NEWSLETTER--><g id="link_SERVICIO_NEWSLETTER"><path codeLine="76" d="M532.2316,446.0436 C564.3806,473.5526 594.445,499.278 626.565,526.7622 " fill="none" id="SERVICIO-backto-NEWSLETTER" style="stroke:#181818;stroke-width:1.0;"/><polygon fill="none" points="518.555,434.341,528.3307,450.6025,536.1324,441.4848,518.555,434.341" style="stroke:#181818;stroke-width:1.0;"/></g><!--reverse link SERVICIO to OFERTAS DE EMPLEO--><g id="link_SERVICIO_OFERTAS DE EMPLEO"><path codeLine="77" d="M540.7194,424.6415 C593.5704,446.7875 663.752,476.79 737.5,511 C743.461,513.765 749.589,516.66 755.747,519.6076 " fill="none" id="SERVICIO-backto-OFERTAS DE EMPLEO" style="stroke:#181818;stroke-width:1.0;"/><polygon fill="none" points="524.118,417.685,538.4006,430.1753,543.0383,419.1076,524.118,417.685" style="stroke:#181818;stroke-width:1.0;"/></g><!--SRC=[TL9BRjim4Dtp5AmsNUK2HZUCp002PCdLfrsFgOdDXY85YafHf3r5Zz8Zv6AbH5kIRSGGuE6yUPp7UVFvapjXYnHQUGJIlqZTWOMM7a2y7AqPT1CRPIpzUP8ELtY3pp0ezsIqoy3pcPMWo4asI8MqGY4XGa7VKvRMkooXRtykYRgiMP7abBmHwd_9TlhBJ7kmIAUOTQYKR4muyHQa2k5ma0A4D3eSdr2Sm2kXcK-s4hKpKpuNG-Spx_yqcRj6ZwpaTEi_LkLbjD9pZT0wuwnQumN_MYTbKisAdNI32lUFpMkDu9P6PLt6HRAFa_U_sPcmVbibExCgviMt95w6iQxSOY-ix4AVXHBdkpfBOZOrkF2c6KrHV5gBYLZgnQUy6D-NP6N5Ka_CC-udSAO-oeEIng60wLY2caPgR8CQ6cEn3pRfte6QXe-zB-YCTV8L-gLNnh-NAQygtsn-ZPD2GhY0lux-hEgZ_8aN5Ij7QNotJtaUtOp1o_1YiEsyYA1kFs3lp0Wu2mVuOMRDLeQu3YjozlwyV0yFyzPjl7seSOMi3VEmUROea5nbnwgBKnigjL33BoINApswxCY6Yg7jr1LwktiRsYCz3c0R8BVONVbb8IUInM01438B-l9xv5ojHNIBVhm6jvMBYtVGlL__0G00]--></g></svg>