<?xml version="1.0" encoding="UTF-8" standalone="no"?><svg xmlns="http://www.w3.org/2000/svg" xmlns:xlink="http://www.w3.org/1999/xlink" contentStyleType="text/css" height="2509px" preserveAspectRatio="none" style="width:618px;height:2509px;background:#FFFFFF;" version="1.1" viewBox="0 0 618 2509" width="618px" zoomAndPan="magnify"><defs/><g><rect fill="none" height="29.0679" id="_title" style="stroke:none;stroke-width:1.0;" width="223" x="190.895" y="5"/><text fill="#000000" font-family="sans-serif" font-size="14" font-weight="bold" lengthAdjust="spacing" textLength="213" x="195.895" y="24.9659">Estructura de los Casos de Uso</text><!--MD5=[0da457cd346282cb9ffbbcbb0652be17]
cluster cuentas--><g id="cluster_cuentas"><path d="M231.44,517.2779 L362.44,517.2779 A3.75,3.75 0 0 1 364.94,519.7779 L371.94,542.3458 L527.34,542.3458 A2.5,2.5 0 0 1 529.84,544.8458 L529.84,787.7779 A2.5,2.5 0 0 1 527.34,790.2779 L231.44,790.2779 A2.5,2.5 0 0 1 228.94,787.7779 L228.94,519.7779 A2.5,2.5 0 0 1 231.44,517.2779 " fill="none" style="stroke:#000000;stroke-width:1.5;"/><line style="stroke:#000000;stroke-width:1.5;" x1="228.94" x2="371.94" y1="542.3458" y2="542.3458"/><text fill="#000000" font-family="sans-serif" font-size="14" font-weight="bold" lengthAdjust="spacing" textLength="130" x="232.94" y="534.2439">Manejo de Usuario</text></g><!--MD5=[a86b8758458e11e030fd076d8ea1e0f1]
cluster ingreso--><g id="cluster_ingreso"><path d="M266.28,814.2779 L413.28,814.2779 A3.75,3.75 0 0 1 415.78,816.7779 L422.78,839.3458 L492.51,839.3458 A2.5,2.5 0 0 1 495.01,841.8458 L495.01,1050.7779 A2.5,2.5 0 0 1 492.51,1053.2779 L266.28,1053.2779 A2.5,2.5 0 0 1 263.78,1050.7779 L263.78,816.7779 A2.5,2.5 0 0 1 266.28,814.2779 " fill="none" style="stroke:#000000;stroke-width:1.5;"/><line style="stroke:#000000;stroke-width:1.5;" x1="263.78" x2="422.78" y1="839.3458" y2="839.3458"/><text fill="#000000" font-family="sans-serif" font-size="14" font-weight="bold" lengthAdjust="spacing" textLength="146" x="267.78" y="831.2439">Ingreso a Plataforma</text></g><!--MD5=[a2e01a3d20edbfd1dfe88f1aa873f491]
cluster CRDSuscripciones--><g id="cluster_CRDSuscripciones"><path d="M149.5,144.2779 L276.5,144.2779 A3.75,3.75 0 0 1 279,146.7779 L286,169.3458 L609.29,169.3458 A2.5,2.5 0 0 1 611.79,171.8458 L611.79,490.7779 A2.5,2.5 0 0 1 609.29,493.2779 L149.5,493.2779 A2.5,2.5 0 0 1 147,490.7779 L147,146.7779 A2.5,2.5 0 0 1 149.5,144.2779 " fill="none" style="stroke:#000000;stroke-width:1.5;"/><line style="stroke:#000000;stroke-width:1.5;" x1="147" x2="286" y1="169.3458" y2="169.3458"/><text fill="#000000" font-family="sans-serif" font-size="14" font-weight="bold" lengthAdjust="spacing" textLength="126" x="151" y="161.2439">CRD Suscripciones</text></g><!--MD5=[3558f5497e9d89aef061cf9bb7df249a]
cluster CRUDServicios--><g id="cluster_CRUDServicios"><path d="M282.79,1863.2779 L387.79,1863.2779 A3.75,3.75 0 0 1 390.29,1865.7779 L397.29,1888.3458 L475.99,1888.3458 A2.5,2.5 0 0 1 478.49,1890.8458 L478.49,2165.7779 A2.5,2.5 0 0 1 475.99,2168.2779 L282.79,2168.2779 A2.5,2.5 0 0 1 280.29,2165.7779 L280.29,1865.7779 A2.5,2.5 0 0 1 282.79,1863.2779 " fill="none" style="stroke:#000000;stroke-width:1.5;"/><line style="stroke:#000000;stroke-width:1.5;" x1="280.29" x2="397.29" y1="1888.3458" y2="1888.3458"/><text fill="#000000" font-family="sans-serif" font-size="14" font-weight="bold" lengthAdjust="spacing" textLength="104" x="284.29" y="1880.2439">CRUD Servicios</text></g><!--MD5=[3efe4913bb7606f0a928d99050ddabc6]
cluster CRUDEgresados--><g id="cluster_CRUDEgresados"><path d="M278.66,2192.2779 L393.66,2192.2779 A3.75,3.75 0 0 1 396.16,2194.7779 L403.16,2217.3458 L480.13,2217.3458 A2.5,2.5 0 0 1 482.63,2219.8458 L482.63,2499.7779 A2.5,2.5 0 0 1 480.13,2502.2779 L278.66,2502.2779 A2.5,2.5 0 0 1 276.16,2499.7779 L276.16,2194.7779 A2.5,2.5 0 0 1 278.66,2192.2779 " fill="none" style="stroke:#000000;stroke-width:1.5;"/><line style="stroke:#000000;stroke-width:1.5;" x1="276.16" x2="403.16" y1="2217.3458" y2="2217.3458"/><text fill="#000000" font-family="sans-serif" font-size="14" font-weight="bold" lengthAdjust="spacing" textLength="114" x="280.16" y="2209.2439">CRUD Egresados</text></g><!--MD5=[6a030e930e55ab3fed80196992fe8282]
cluster CRUDPaquetes--><g id="cluster_CRUDPaquetes"><path d="M281.68,1125.2779 L389.68,1125.2779 A3.75,3.75 0 0 1 392.18,1127.7779 L399.18,1150.3458 L477.1,1150.3458 A2.5,2.5 0 0 1 479.6,1152.8458 L479.6,1427.7779 A2.5,2.5 0 0 1 477.1,1430.2779 L281.68,1430.2779 A2.5,2.5 0 0 1 279.18,1427.7779 L279.18,1127.7779 A2.5,2.5 0 0 1 281.68,1125.2779 " fill="none" style="stroke:#000000;stroke-width:1.5;"/><line style="stroke:#000000;stroke-width:1.5;" x1="279.18" x2="399.18" y1="1150.3458" y2="1150.3458"/><text fill="#000000" font-family="sans-serif" font-size="14" font-weight="bold" lengthAdjust="spacing" textLength="107" x="283.18" y="1142.2439">CRUD Paquetes</text></g><!--MD5=[10af996e2ffe433c81f0f63a8782af60]
cluster CRUDAdministradores--><g id="cluster_CRUDAdministradores"><path d="M265.03,1454.2779 L425.03,1454.2779 A3.75,3.75 0 0 1 427.53,1456.7779 L434.53,1479.3458 L493.76,1479.3458 A2.5,2.5 0 0 1 496.26,1481.8458 L496.26,1782.7779 A2.5,2.5 0 0 1 493.76,1785.2779 L265.03,1785.2779 A2.5,2.5 0 0 1 262.53,1782.7779 L262.53,1456.7779 A2.5,2.5 0 0 1 265.03,1454.2779 " fill="none" style="stroke:#000000;stroke-width:1.5;"/><line style="stroke:#000000;stroke-width:1.5;" x1="262.53" x2="434.53" y1="1479.3458" y2="1479.3458"/><text fill="#000000" font-family="sans-serif" font-size="14" font-weight="bold" lengthAdjust="spacing" textLength="159" x="266.53" y="1471.2439">CRUD Administradores</text></g><g id="elem_Actualización de Datos del Usuario"><ellipse cx="379.3883" cy="664.2776" fill="#F1F1F1" rx="134.4483" ry="29.2897" style="stroke:#181818;stroke-width:0.5;"/><text fill="#000000" font-family="sans-serif" font-size="14" lengthAdjust="spacing" textLength="233" x="262.8883" y="667.7096">Actualización de Datos del Usuario</text></g><g id="elem_Cancelación de Cuenta"><ellipse cx="379.3873" cy="577.2814" fill="#F1F1F1" rx="99.6173" ry="22.3235" style="stroke:#181818;stroke-width:0.5;"/><text fill="#000000" font-family="sans-serif" font-size="14" lengthAdjust="spacing" textLength="154" x="299.3873" y="582.0143">Cancelación de Cuenta</text></g><g id="elem_Listar Datos del Usuario"><ellipse cx="379.3856" cy="751.281" fill="#F1F1F1" rx="102.1156" ry="22.8231" style="stroke:#181818;stroke-width:0.5;"/><text fill="#000000" font-family="sans-serif" font-size="14" lengthAdjust="spacing" textLength="160" x="296.3856" y="756.014">Listar Datos del Usuario</text></g><g id="elem_Registro en Plataforma"><ellipse cx="379.3873" cy="874.2814" fill="#F1F1F1" rx="99.6173" ry="22.3235" style="stroke:#181818;stroke-width:0.5;"/><text fill="#000000" font-family="sans-serif" font-size="14" lengthAdjust="spacing" textLength="154" x="299.3873" y="879.0143">Registro en Plataforma</text></g><g id="elem_Iniciar Sesión"><ellipse cx="379.3928" cy="949.2805" fill="#F1F1F1" rx="75.7128" ry="17.5426" style="stroke:#181818;stroke-width:0.5;"/><text fill="#000000" font-family="sans-serif" font-size="14" lengthAdjust="spacing" textLength="91" x="330.8928" y="954.0134">Iniciar Sesión</text></g><g id="elem_Cerrar Sesión"><ellipse cx="379.3928" cy="1019.2805" fill="#F1F1F1" rx="75.7128" ry="17.5426" style="stroke:#181818;stroke-width:0.5;"/><text fill="#000000" font-family="sans-serif" font-size="14" lengthAdjust="spacing" textLength="91" x="330.8928" y="1024.0134">Cerrar Sesión</text></g><g id="elem_Suscripción a Servicio / Paquete de Servicios"><ellipse cx="379.3948" cy="217.2809" fill="#F1F1F1" rx="165.1648" ry="35.433" style="stroke:#181818;stroke-width:0.5;"/><text fill="#000000" font-family="sans-serif" font-size="14" lengthAdjust="spacing" textLength="298" x="230.3948" y="220.7128">Suscripción a Servicio / Paquete de Servicios</text></g><g id="elem_Cancelación de Suscripción a Servicio / Paquete de Servicios"><ellipse cx="379.3926" cy="333.2764" fill="#F1F1F1" rx="216.3926" ry="45.6785" style="stroke:#181818;stroke-width:0.5;"/><text fill="#000000" font-family="sans-serif" font-size="14" lengthAdjust="spacing" textLength="404" x="177.3926" y="336.7084">Cancelación de Suscripción a Servicio / Paquete de Servicios</text></g><g id="elem_Listar Servicios / Paquetes de Servicios"><ellipse cx="379.3907" cy="445.2761" fill="#F1F1F1" rx="146.6407" ry="31.7281" style="stroke:#181818;stroke-width:0.5;"/><text fill="#000000" font-family="sans-serif" font-size="14" lengthAdjust="spacing" textLength="259" x="249.8907" y="448.708">Listar Servicios / Paquetes de Servicios</text></g><g id="elem_Crear Servicio"><ellipse cx="379.3936" cy="1919.2746" fill="#F1F1F1" rx="76.3836" ry="17.6767" style="stroke:#181818;stroke-width:0.5;"/><text fill="#000000" font-family="sans-serif" font-size="14" lengthAdjust="spacing" textLength="93" x="329.8936" y="1924.0076">Crear Servicio</text></g><g id="elem_Listar Servicios"><ellipse cx="379.3885" cy="1990.2756" fill="#F1F1F1" rx="78.7885" ry="18.1577" style="stroke:#181818;stroke-width:0.5;"/><text fill="#000000" font-family="sans-serif" font-size="14" lengthAdjust="spacing" textLength="100" x="326.3885" y="1995.0086">Listar Servicios</text></g><g id="elem_Editar Servicio"><ellipse cx="379.3937" cy="2061.2786" fill="#F1F1F1" rx="77.4037" ry="17.8807" style="stroke:#181818;stroke-width:0.5;"/><text fill="#000000" font-family="sans-serif" font-size="14" lengthAdjust="spacing" textLength="96" x="328.3937" y="2066.0116">Editar Servicio</text></g><g id="elem_Eliminar Servicio"><ellipse cx="379.3893" cy="2133.2778" fill="#F1F1F1" rx="83.0993" ry="19.0199" style="stroke:#181818;stroke-width:0.5;"/><text fill="#000000" font-family="sans-serif" font-size="14" lengthAdjust="spacing" textLength="112" x="320.3893" y="2138.0108">Eliminar Servicio</text></g><g id="elem_Crear Egresado"><ellipse cx="379.3904" cy="2248.278" fill="#F1F1F1" rx="80.2004" ry="18.4401" style="stroke:#181818;stroke-width:0.5;"/><text fill="#000000" font-family="sans-serif" font-size="14" lengthAdjust="spacing" textLength="104" x="324.3904" y="2253.011">Crear Egresado</text></g><g id="elem_Listar Egresado"><ellipse cx="379.3904" cy="2320.278" fill="#F1F1F1" rx="80.2004" ry="18.4401" style="stroke:#181818;stroke-width:0.5;"/><text fill="#000000" font-family="sans-serif" font-size="14" lengthAdjust="spacing" textLength="104" x="324.3904" y="2325.011">Listar Egresado</text></g><g id="elem_Editar Egresado"><ellipse cx="379.3861" cy="2392.2731" fill="#F1F1F1" rx="81.2761" ry="18.6552" style="stroke:#181818;stroke-width:0.5;"/><text fill="#000000" font-family="sans-serif" font-size="14" lengthAdjust="spacing" textLength="107" x="322.8861" y="2397.0061">Editar Egresado</text></g><g id="elem_Eliminar Egresado"><ellipse cx="379.3927" cy="2466.2745" fill="#F1F1F1" rx="87.2327" ry="19.8465" style="stroke:#181818;stroke-width:0.5;"/><text fill="#000000" font-family="sans-serif" font-size="14" lengthAdjust="spacing" textLength="123" x="314.8927" y="2471.0074">Eliminar Egresado</text></g><g id="elem_Crear Paquete"><ellipse cx="379.3937" cy="1181.2786" fill="#F1F1F1" rx="77.4037" ry="17.8807" style="stroke:#181818;stroke-width:0.5;"/><text fill="#000000" font-family="sans-serif" font-size="14" lengthAdjust="spacing" textLength="96" x="328.3937" y="1186.0116">Crear Paquete</text></g><g id="elem_Listar Paquete"><ellipse cx="379.3937" cy="1252.2786" fill="#F1F1F1" rx="77.4037" ry="17.8807" style="stroke:#181818;stroke-width:0.5;"/><text fill="#000000" font-family="sans-serif" font-size="14" lengthAdjust="spacing" textLength="96" x="328.3937" y="1257.0116">Listar Paquete</text></g><g id="elem_Editar Paquete"><ellipse cx="379.3897" cy="1323.2759" fill="#F1F1F1" rx="78.4397" ry="18.0879" style="stroke:#181818;stroke-width:0.5;"/><text fill="#000000" font-family="sans-serif" font-size="14" lengthAdjust="spacing" textLength="99" x="326.8897" y="1328.0088">Editar Paquete</text></g><g id="elem_Eliminar Paquete"><ellipse cx="379.3905" cy="1395.28" fill="#F1F1F1" rx="84.2105" ry="19.2421" style="stroke:#181818;stroke-width:0.5;"/><text fill="#000000" font-family="sans-serif" font-size="14" lengthAdjust="spacing" textLength="115" x="318.8905" y="1400.013">Eliminar Paquete</text></g><g id="elem_Crear Administrador"><ellipse cx="379.395" cy="1513.2789" fill="#F1F1F1" rx="93.105" ry="21.021" style="stroke:#181818;stroke-width:0.5;"/><text fill="#000000" font-family="sans-serif" font-size="14" lengthAdjust="spacing" textLength="138" x="307.395" y="1518.0119">Crear Administrador</text></g><g id="elem_Listar Administrador"><ellipse cx="379.395" cy="1590.2789" fill="#F1F1F1" rx="93.105" ry="21.021" style="stroke:#181818;stroke-width:0.5;"/><text fill="#000000" font-family="sans-serif" font-size="14" lengthAdjust="spacing" textLength="138" x="307.395" y="1595.0119">Listar Administrador</text></g><g id="elem_Editar Administrador"><ellipse cx="379.388" cy="1667.2795" fill="#F1F1F1" rx="94.308" ry="21.2616" style="stroke:#181818;stroke-width:0.5;"/><text fill="#000000" font-family="sans-serif" font-size="14" lengthAdjust="spacing" textLength="141" x="305.888" y="1672.0125">Editar Administrador</text></g><g id="elem_Eliminar Administrador"><ellipse cx="379.3929" cy="1746.2805" fill="#F1F1F1" rx="100.8629" ry="22.5726" style="stroke:#181818;stroke-width:0.5;"/><text fill="#000000" font-family="sans-serif" font-size="14" lengthAdjust="spacing" textLength="157" x="297.8929" y="1751.0135">Eliminar Administrador</text></g><!--MD5=[886f27c4ce1bf6d1eb714be2c81d3749]
entity Egresado--><g id="elem_Egresado"><ellipse cx="54.5" cy="677.2479" fill="#F1F1F1" rx="8" ry="8" style="stroke:#181818;stroke-width:0.5;"/><path d="M54.5,685.2479 L54.5,712.2479 M41.5,693.2479 L67.5,693.2479 M54.5,712.2479 L41.5,727.2479 M54.5,712.2479 L67.5,727.2479 " fill="none" style="stroke:#181818;stroke-width:0.5;"/><text fill="#000000" font-family="sans-serif" font-size="14" lengthAdjust="spacing" textLength="63" x="23" y="743.7139">Egresado</text></g><!--MD5=[2e903384ba6a94be9c906ea46910cc3f]
entity Administrador--><g id="elem_Administrador"><ellipse cx="54.5" cy="1559.2479" fill="#F1F1F1" rx="8" ry="8" style="stroke:#181818;stroke-width:0.5;"/><path d="M54.5,1567.2479 L54.5,1594.2479 M41.5,1575.2479 L67.5,1575.2479 M54.5,1594.2479 L41.5,1609.2479 M54.5,1594.2479 L67.5,1609.2479 " fill="none" style="stroke:#181818;stroke-width:0.5;"/><text fill="#000000" font-family="sans-serif" font-size="14" lengthAdjust="spacing" textLength="97" x="6" y="1625.7139">Administrador</text></g><!--MD5=[19417cf465ec7225b3cd53ff9a44384c]
entity Tiempo--><g id="elem_Tiempo"><ellipse cx="54.5" cy="56.2479" fill="#F1F1F1" rx="8" ry="8" style="stroke:#181818;stroke-width:0.5;"/><path d="M54.5,64.2479 L54.5,91.2479 M41.5,72.2479 L67.5,72.2479 M54.5,91.2479 L41.5,106.2479 M54.5,91.2479 L67.5,106.2479 " fill="none" style="stroke:#181818;stroke-width:0.5;"/><text fill="#000000" font-family="sans-serif" font-size="14" lengthAdjust="spacing" textLength="50" x="29.5" y="122.7139">Tiempo</text></g><g id="elem_Eliminar Suscripción a Servicio / Paquete de Servicios"><ellipse cx="379.393" cy="87.2765" fill="#F1F1F1" rx="194.043" ry="41.2086" style="stroke:#181818;stroke-width:0.5;"/><text fill="#000000" font-family="sans-serif" font-size="14" lengthAdjust="spacing" textLength="358" x="200.393" y="90.7085">Eliminar Suscripción a Servicio / Paquete de Servicios</text></g><g id="elem_Consultar Estadisticas"><ellipse cx="379.3883" cy="1825.2776" fill="#F1F1F1" rx="97.1483" ry="21.8297" style="stroke:#181818;stroke-width:0.5;"/><text fill="#000000" font-family="sans-serif" font-size="14" lengthAdjust="spacing" textLength="148" x="302.3883" y="1830.0105">Consultar Estadisticas</text></g><g id="elem_Realizar Petición"><ellipse cx="379.3918" cy="1090.2743" fill="#F1F1F1" rx="82.7318" ry="18.9464" style="stroke:#181818;stroke-width:0.5;"/><text fill="#000000" font-family="sans-serif" font-size="14" lengthAdjust="spacing" textLength="111" x="320.8918" y="1095.0072">Realizar Petición</text></g><!--MD5=[002d1e4aed05dc3a430bb46214b4b5a2]
link Tiempo to Eliminar Suscripción a Servicio / Paquete de Servicios--><g id="link_Tiempo_Eliminar Suscripción a Servicio / Paquete de Servicios"><path d="M79.77,87.2779 C102.53,87.2779 138.93,87.2779 178.61,87.2779 " fill="none" id="Tiempo-to-Eliminar Suscripción a Servicio / Paquete de Servicios" style="stroke:#181818;stroke-width:1.0;"/><polygon fill="#181818" points="183.49,87.2779,174.49,83.2779,178.49,87.2779,174.49,91.2779,183.49,87.2779" style="stroke:#181818;stroke-width:1.0;"/></g><!--MD5=[f7e95fb4e1b692b886a3e413815da830]
link Administrador to Consultar Estadisticas--><g id="link_Administrador_Consultar Estadisticas"><path d="M72.6,1630.2079 C97.03,1687.2579 139,1785.2779 139,1785.2779 C139,1785.2779 225.2,1799.6779 294.14,1811.1979 " fill="none" id="Administrador-to-Consultar Estadisticas" style="stroke:#181818;stroke-width:1.0;"/><polygon fill="#181818" points="298.84,1811.9879,290.6277,1806.5512,293.9092,1811.159,289.3014,1814.4405,298.84,1811.9879" style="stroke:#181818;stroke-width:1.0;"/></g><!--MD5=[3022be293dde8ff5aec774ec42f5bb06]
link Egresado to Actualización de Datos del Usuario--><g id="link_Egresado_Actualización de Datos del Usuario"><path d="M86.46,704.0579 C125.91,698.6879 196.4,689.0779 258.23,680.6479 " fill="none" id="Egresado-to-Actualización de Datos del Usuario" style="stroke:#181818;stroke-width:1.0;"/><polygon fill="#181818" points="263.07,679.9879,253.6135,677.2357,258.1155,680.6609,254.6903,685.1629,263.07,679.9879" style="stroke:#181818;stroke-width:1.0;"/></g><!--MD5=[6fc14c47e73df4c791fb6589e5e9d7a3]
link Egresado to Cancelación de Cuenta--><g id="link_Egresado_Cancelación de Cuenta"><path d="M86.36,674.6479 C110.14,648.7279 139,617.2779 139,617.2779 C139,617.2779 223.57,603.1479 292.18,591.6879 " fill="none" id="Egresado-to-Cancelación de Cuenta" style="stroke:#181818;stroke-width:1.0;"/><polygon fill="#181818" points="296.85,590.8979,287.3114,588.4454,291.9192,591.7269,288.6377,596.3347,296.85,590.8979" style="stroke:#181818;stroke-width:1.0;"/></g><!--MD5=[49a8251de11ef2a363a66e948f2c3020]
link Egresado to Listar Datos del Usuario--><g id="link_Egresado_Listar Datos del Usuario"><path d="M86.46,712.3979 C131.57,718.4079 217.27,729.8179 284.2,738.7379 " fill="none" id="Egresado-to-Listar Datos del Usuario" style="stroke:#181818;stroke-width:1.0;"/><polygon fill="#181818" points="289.12,739.3879,280.7237,734.2399,284.1634,738.7308,279.6724,742.1705,289.12,739.3879" style="stroke:#181818;stroke-width:1.0;"/></g><!--MD5=[5806e705b525d5d406cb5815149d3ab6]
link Administrador to Actualización de Datos del Usuario--><g id="link_Administrador_Actualización de Datos del Usuario"><path d="M59.28,1550.5179 C75.57,1379.0179 139,711.2779 139,711.2779 C139,711.2779 208.12,697.7079 272.08,685.1479 " fill="none" id="Administrador-to-Actualización de Datos del Usuario" style="stroke:#181818;stroke-width:1.0;"/><polygon fill="#181818" points="276.77,684.2279,267.1701,682.0275,271.8627,685.1865,268.7038,689.8791,276.77,684.2279" style="stroke:#181818;stroke-width:1.0;"/></g><!--MD5=[369aa146724f41c27aef463534bdfb98]
link Administrador to Listar Datos del Usuario--><g id="link_Administrador_Listar Datos del Usuario"><path d="M59.93,1550.2679 C77.19,1394.3879 139,836.2779 139,836.2779 C139,836.2779 246.66,798.0579 317.58,772.8679 " fill="none" id="Administrador-to-Listar Datos del Usuario" style="stroke:#181818;stroke-width:1.0;"/><polygon fill="#181818" points="322.04,771.2879,312.2207,770.5253,317.3274,772.9587,314.894,778.0655,322.04,771.2879" style="stroke:#181818;stroke-width:1.0;"/></g><!--MD5=[8426604bda2913588765e14bdbd0d807]
link Egresado to Registro en Plataforma--><g id="link_Egresado_Registro en Plataforma"><path d="M86.12,738.3479 C109.95,761.7479 139,790.2779 139,790.2779 C139,790.2779 247.57,828.3779 318.48,853.2579 " fill="none" id="Egresado-to-Registro en Plataforma" style="stroke:#181818;stroke-width:1.0;"/><polygon fill="#181818" points="322.94,854.8179,315.7758,848.0597,318.2229,853.1598,313.1228,855.607,322.94,854.8179" style="stroke:#181818;stroke-width:1.0;"/></g><!--MD5=[ef5c86e107dd7797e98a702c34242b76]
link Egresado to Iniciar Sesión--><g id="link_Egresado_Iniciar Sesión"><path d="M71.6,747.9979 C95.86,807.8579 139,914.2779 139,914.2779 C139,914.2779 237.6,928.6979 308.24,939.0179 " fill="none" id="Egresado-to-Iniciar Sesión" style="stroke:#181818;stroke-width:1.0;"/><polygon fill="#181818" points="313.06,939.7279,304.7225,934.4852,308.1111,939.0148,303.5815,942.4035,313.06,939.7279" style="stroke:#181818;stroke-width:1.0;"/></g><!--MD5=[86e092906742a2dece3fbb8b4e11e9cf]
link Administrador to Iniciar Sesión--><g id="link_Administrador_Iniciar Sesión"><path d="M60.98,1550.5179 C79.56,1415.6979 139,984.2779 139,984.2779 C139,984.2779 237.6,969.8579 308.24,959.5379 " fill="none" id="Administrador-to-Iniciar Sesión" style="stroke:#181818;stroke-width:1.0;"/><polygon fill="#181818" points="313.06,958.8279,303.5815,956.1524,308.1111,959.541,304.7225,964.0706,313.06,958.8279" style="stroke:#181818;stroke-width:1.0;"/></g><!--MD5=[c3fdc675c661717c8269a33081e99514]
link Egresado to Cerrar Sesión--><g id="link_Egresado_Cerrar Sesión"><path d="M67.55,748.1179 C90.68,824.5479 139,984.2779 139,984.2779 C139,984.2779 237.6,998.6979 308.24,1009.0179 " fill="none" id="Egresado-to-Cerrar Sesión" style="stroke:#181818;stroke-width:1.0;"/><polygon fill="#181818" points="313.06,1009.7279,304.7225,1004.4852,308.1111,1009.0148,303.5815,1012.4035,313.06,1009.7279" style="stroke:#181818;stroke-width:1.0;"/></g><!--MD5=[f551cdc4e6ffb60e1ebf0a4e22f92eb2]
link Administrador to Cerrar Sesión--><g id="link_Administrador_Cerrar Sesión"><path d="M61.71,1550.4279 C81.06,1426.2079 139,1054.2779 139,1054.2779 C139,1054.2779 237.6,1039.8579 308.24,1029.5379 " fill="none" id="Administrador-to-Cerrar Sesión" style="stroke:#181818;stroke-width:1.0;"/><polygon fill="#181818" points="313.06,1028.8279,303.5815,1026.1524,308.1111,1029.541,304.7225,1034.0706,313.06,1028.8279" style="stroke:#181818;stroke-width:1.0;"/></g><!--MD5=[7d6c2f27233e1a683505a9751f2431e0]
link Egresado to Suscripción a Servicio / Paquete de Servicios--><g id="link_Egresado_Suscripción a Servicio / Paquete de Servicios"><path d="M63.13,668.2479 C83.74,560.1179 139,270.2779 139,270.2779 C139,270.2779 197.82,257.2579 257.14,244.1179 " fill="none" id="Egresado-to-Suscripción a Servicio / Paquete de Servicios" style="stroke:#181818;stroke-width:1.0;"/><polygon fill="#181818" points="261.78,243.0979,252.1321,241.1186,256.8961,244.169,253.8457,248.9329,261.78,243.0979" style="stroke:#181818;stroke-width:1.0;"/></g><!--MD5=[173058fa2fc76ff4827fceec93daab69]
link Egresado to Cancelación de Suscripción a Servicio / Paquete de Servicios--><g id="link_Egresado_Cancelación de Suscripción a Servicio / Paquete de Servicios"><path d="M66.16,668.4479 C88.67,584.3379 139,396.2779 139,396.2779 C139,396.2779 184.97,384.1779 236.61,370.5879 " fill="none" id="Egresado-to-Cancelación de Suscripción a Servicio / Paquete de Servicios" style="stroke:#181818;stroke-width:1.0;"/><polygon fill="#181818" points="241.15,369.3979,231.4238,367.8484,236.3184,370.6845,233.4823,375.579,241.15,369.3979" style="stroke:#181818;stroke-width:1.0;"/></g><!--MD5=[58e4cf5416d9a429023adf5eec354dd0]
link Egresado to Listar Servicios / Paquetes de Servicios--><g id="link_Egresado_Listar Servicios / Paquetes de Servicios"><path d="M75.08,668.6579 C99.76,618.7079 139,539.2779 139,539.2779 C139,539.2779 231.38,503.0079 301.37,475.5179 " fill="none" id="Egresado-to-Listar Servicios / Paquetes de Servicios" style="stroke:#181818;stroke-width:1.0;"/><polygon fill="#181818" points="305.81,473.7779,295.9707,473.3439,301.1559,475.6053,298.8945,480.7905,305.81,473.7779" style="stroke:#181818;stroke-width:1.0;"/></g><!--MD5=[16828ee9522033f75a1005d28bf51339]
link Administrador to Listar Servicios / Paquetes de Servicios--><g id="link_Administrador_Listar Servicios / Paquetes de Servicios"><path d="M58.67,1550.3579 C73.92,1358.3879 139,539.2779 139,539.2779 C139,539.2779 231.38,503.0079 301.37,475.5179 " fill="none" id="Administrador-to-Listar Servicios / Paquetes de Servicios" style="stroke:#181818;stroke-width:1.0;"/><polygon fill="#181818" points="305.81,473.7779,295.9707,473.3439,301.1559,475.6053,298.8945,480.7905,305.81,473.7779" style="stroke:#181818;stroke-width:1.0;"/></g><!--MD5=[c3c47cad40e5695174e0e50470e08c10]
link Administrador to Crear Servicio--><g id="link_Administrador_Crear Servicio"><path d="M67.64,1630.1179 C90.8,1706.1179 139,1864.2779 139,1864.2779 C139,1864.2779 246.83,1889.0479 317.75,1905.3479 " fill="none" id="Administrador-to-Crear Servicio" style="stroke:#181818;stroke-width:1.0;"/><polygon fill="#181818" points="322.6,1906.4579,314.7185,1900.5518,317.7259,1905.343,312.9347,1908.3504,322.6,1906.4579" style="stroke:#181818;stroke-width:1.0;"/></g><!--MD5=[5ef79b88bcd6df8fd01df01b07582278]
link Administrador to Listar Servicios--><g id="link_Administrador_Listar Servicios"><path d="M64.67,1630.2779 C86.37,1724.8279 139,1954.2779 139,1954.2779 C139,1954.2779 235.57,1968.7979 306.04,1979.3979 " fill="none" id="Administrador-to-Listar Servicios" style="stroke:#181818;stroke-width:1.0;"/><polygon fill="#181818" points="310.85,1980.1179,302.5444,1974.8248,305.9055,1979.3748,301.3555,1982.7359,310.85,1980.1179" style="stroke:#181818;stroke-width:1.0;"/></g><!--MD5=[e84ee6232aaaa04a6fe6bb5c48256d2b]
link Administrador to Editar Servicio--><g id="link_Administrador_Editar Servicio"><path d="M63.13,1630.1279 C83.74,1737.7579 139,2026.2779 139,2026.2779 C139,2026.2779 236.15,2040.4779 306.67,2050.7879 " fill="none" id="Administrador-to-Editar Servicio" style="stroke:#181818;stroke-width:1.0;"/><polygon fill="#181818" points="311.48,2051.4979,303.1573,2046.2317,306.5331,2050.7709,301.994,2054.1467,311.48,2051.4979" style="stroke:#181818;stroke-width:1.0;"/></g><!--MD5=[868a0cbea05833b562bab3bcd133c982]
link Administrador to Eliminar Servicio--><g id="link_Administrador_Eliminar Servicio"><path d="M62.05,1629.9779 C81.74,1749.2679 139,2096.2779 139,2096.2779 C139,2096.2779 232.99,2110.8079 303.18,2121.6579 " fill="none" id="Administrador-to-Eliminar Servicio" style="stroke:#181818;stroke-width:1.0;"/><polygon fill="#181818" points="307.98,2122.3979,299.6894,2117.0813,303.0376,2121.6409,298.4781,2124.9891,307.98,2122.3979" style="stroke:#181818;stroke-width:1.0;"/></g><!--MD5=[a93f01c194319dfb49e3355441268a94]
link Administrador to Crear Egresado--><g id="link_Administrador_Crear Egresado"><path d="M61.24,1630.0079 C80.1,1760.5879 139,2168.2779 139,2168.2779 C139,2168.2779 256.32,2207.4879 326.7,2230.9979 " fill="none" id="Administrador-to-Crear Egresado" style="stroke:#181818;stroke-width:1.0;"/><polygon fill="#181818" points="331.08,2232.4679,323.8128,2225.8206,326.338,2230.8825,321.2761,2233.4077,331.08,2232.4679" style="stroke:#181818;stroke-width:1.0;"/></g><!--MD5=[5c0273a74de74f95df81ec3eeaab63dd]
link Administrador to Listar Egresado--><g id="link_Administrador_Listar Egresado"><path d="M60.29,1630.0879 C78.03,1777.5479 139,2284.2779 139,2284.2779 C139,2284.2779 234.71,2298.6679 305.09,2309.2579 " fill="none" id="Administrador-to-Listar Egresado" style="stroke:#181818;stroke-width:1.0;"/><polygon fill="#181818" points="309.89,2309.9779,301.5822,2304.6883,304.9452,2309.2369,300.3966,2312.5999,309.89,2309.9779" style="stroke:#181818;stroke-width:1.0;"/></g><!--MD5=[dbcbc0ef6bf6d103d4816ad826883c25]
link Administrador to Editar Egresado--><g id="link_Administrador_Editar Egresado"><path d="M59.84,1630.1179 C76.98,1787.3479 139,2356.2779 139,2356.2779 C139,2356.2779 233.85,2370.5379 304.14,2381.1079 " fill="none" id="Administrador-to-Editar Egresado" style="stroke:#181818;stroke-width:1.0;"/><polygon fill="#181818" points="308.94,2381.8379,300.6344,2376.5448,303.9955,2381.0948,299.4455,2384.4559,308.94,2381.8379" style="stroke:#181818;stroke-width:1.0;"/></g><!--MD5=[9a712af60ae8cd7b3120e34b06a9e7ed]
link Administrador to Eliminar Egresado--><g id="link_Administrador_Eliminar Egresado"><path d="M59.47,1630.1279 C76.07,1796.6679 139,2428.2779 139,2428.2779 C139,2428.2779 230.73,2442.8379 300.63,2453.9379 " fill="none" id="Administrador-to-Eliminar Egresado" style="stroke:#181818;stroke-width:1.0;"/><polygon fill="#181818" points="305.4,2454.6879,297.1396,2449.3246,300.462,2453.903,295.8836,2457.2254,305.4,2454.6879" style="stroke:#181818;stroke-width:1.0;"/></g><!--MD5=[6c2f37c2b3424f647322ddcc3b45f7d4]
link Administrador to Crear Paquete--><g id="link_Administrador_Crear Paquete"><path d="M64.44,1550.3579 C85.98,1454.1379 139,1217.2779 139,1217.2779 C139,1217.2779 236.72,1202.5779 307.3,1191.9679 " fill="none" id="Administrador-to-Crear Paquete" style="stroke:#181818;stroke-width:1.0;"/><polygon fill="#181818" points="312.11,1191.2479,302.6155,1188.6299,307.1655,1191.991,303.8044,1196.5411,312.11,1191.2479" style="stroke:#181818;stroke-width:1.0;"/></g><!--MD5=[7a2bf7fd7722348faae9965f407bcb34]
link Administrador to Listar Paquete--><g id="link_Administrador_Listar Paquete"><path d="M66.5,1550.3579 C89.18,1468.0779 139,1287.2779 139,1287.2779 C139,1287.2779 236.15,1273.0779 306.67,1262.7679 " fill="none" id="Administrador-to-Listar Paquete" style="stroke:#181818;stroke-width:1.0;"/><polygon fill="#181818" points="311.48,1262.0579,301.994,1259.4091,306.5331,1262.785,303.1573,1267.3241,311.48,1262.0579" style="stroke:#181818;stroke-width:1.0;"/></g><!--MD5=[a9d7abad8a4d656b57c3b3daebefe65c]
link Administrador to Editar Paquete--><g id="link_Administrador_Editar Paquete"><path d="M69.85,1550.3979 C93.73,1484.0679 139,1358.2779 139,1358.2779 C139,1358.2779 235.57,1344.1579 306.04,1333.8579 " fill="none" id="Administrador-to-Editar Paquete" style="stroke:#181818;stroke-width:1.0;"/><polygon fill="#181818" points="310.85,1333.1579,301.3704,1330.4862,305.9014,1333.873,302.5146,1338.404,310.85,1333.1579" style="stroke:#181818;stroke-width:1.0;"/></g><!--MD5=[f71c8a38419dd5fb211c82c893aaece2]
link Administrador to Eliminar Paquete--><g id="link_Administrador_Eliminar Paquete"><path d="M84.7,1550.4079 C108.78,1517.5279 139,1476.2779 139,1476.2779 C139,1476.2779 254.42,1437.2279 324.97,1413.3579 " fill="none" id="Administrador-to-Eliminar Paquete" style="stroke:#181818;stroke-width:1.0;"/><polygon fill="#181818" points="329.38,1411.8579,319.5736,1410.9446,324.6423,1413.4562,322.1308,1418.5249,329.38,1411.8579" style="stroke:#181818;stroke-width:1.0;"/></g><!--MD5=[5342176c0b2eeb0ed7ec732db39e7700]
link Administrador to Crear Administrador--><g id="link_Administrador_Crear Administrador"><path d="M103.1,1568.0479 C121.86,1559.2879 139,1551.2779 139,1551.2779 C139,1551.2779 226.84,1537.3379 296.1,1526.3379 " fill="none" id="Administrador-to-Crear Administrador" style="stroke:#181818;stroke-width:1.0;"/><polygon fill="#181818" points="300.82,1525.5879,291.3036,1523.0504,295.882,1526.3729,292.5596,1530.9512,300.82,1525.5879" style="stroke:#181818;stroke-width:1.0;"/></g><!--MD5=[2b934f00abb2bcc9123730b057bb5b4b]
link Administrador to Listar Administrador--><g id="link_Administrador_Listar Administrador"><path d="M103.49,1590.2779 C149.77,1590.2779 221.19,1590.2779 279.63,1590.2779 " fill="none" id="Administrador-to-Listar Administrador" style="stroke:#181818;stroke-width:1.0;"/><polygon fill="#181818" points="284.45,1590.2779,275.45,1586.2779,279.45,1590.2779,275.45,1594.2779,284.45,1590.2779" style="stroke:#181818;stroke-width:1.0;"/></g><!--MD5=[2f716b311059773e423aaf609326297d]
link Administrador to Editar Administrador--><g id="link_Administrador_Editar Administrador"><path d="M103.1,1612.5079 C121.86,1621.2679 139,1629.2779 139,1629.2779 C139,1629.2779 226.02,1643.0879 295.12,1654.0579 " fill="none" id="Administrador-to-Editar Administrador" style="stroke:#181818;stroke-width:1.0;"/><polygon fill="#181818" points="299.83,1654.8079,291.572,1649.4409,294.8924,1654.0208,290.3125,1657.3411,299.83,1654.8079" style="stroke:#181818;stroke-width:1.0;"/></g><!--MD5=[b0eded1e2fcccd6bdbdb5b28e0aa437c]
link Administrador to Eliminar Administrador--><g id="link_Administrador_Eliminar Administrador"><path d="M84.24,1630.1979 C108.39,1663.7579 139,1706.2779 139,1706.2779 C139,1706.2779 222.76,1720.2779 291.19,1731.7079 " fill="none" id="Administrador-to-Eliminar Administrador" style="stroke:#181818;stroke-width:1.0;"/><polygon fill="#181818" points="295.85,1732.4879,287.6377,1727.0512,290.9192,1731.659,286.3114,1734.9405,295.85,1732.4879" style="stroke:#181818;stroke-width:1.0;"/></g><!--MD5=[d08544df0053c4cc895e366e4a0c15cf]
link Administrador to Realizar Petición--><g id="link_Administrador_Realizar Petición"><path d="M62.98,1550.5779 C83.48,1441.8379 139,1147.2779 139,1147.2779 C139,1147.2779 243.51,1122.3979 314.42,1105.5079 " fill="none" id="Administrador-to-Realizar Petición" style="stroke:#181818;stroke-width:1.0;"/><polygon fill="#181818" points="319.28,1104.3579,309.5992,1102.5462,314.4154,1105.5134,311.4481,1110.3296,319.28,1104.3579" style="stroke:#181818;stroke-width:1.0;"/></g><!--MD5=[ba6585a4adf4e0976f9f073972a0f16a]
link Egresado to Realizar Petición--><g id="link_Egresado_Realizar Petición"><path d="M65.16,748.1879 C87.14,839.0079 139,1053.2779 139,1053.2779 C139,1053.2779 233.28,1067.8479 303.5,1078.7079 " fill="none" id="Egresado-to-Realizar Petición" style="stroke:#181818;stroke-width:1.0;"/><polygon fill="#181818" points="308.3,1079.4479,300.0094,1074.1313,303.3576,1078.6909,298.7981,1082.0391,308.3,1079.4479" style="stroke:#181818;stroke-width:1.0;"/></g><!--MD5=[07e59722d67eb5cd6e0347cddb83f808]
@startuml Estructura

title Estructura de los Casos de Uso

skinparam {
    NoteBackgroundColor #whiteSmoke
    NoteBorderColor #green
    linetype polyline
}

left to right direction

actor Egresado
actor Administrador
actor Tiempo

Tiempo - -> (Eliminar Suscripción a Servicio / Paquete de Servicios)

Administrador - -> (Consultar Estadisticas)

folder "Manejo de Usuario" as cuentas {
    Egresado - -> (Actualización de Datos del Usuario)
    Egresado - -> (Cancelación de Cuenta)
    Egresado - -> (Listar Datos del Usuario)
    Administrador - -> (Actualización de Datos del Usuario)
    Administrador - -> (Listar Datos del Usuario)
}

folder "Ingreso a Plataforma" as ingreso {
    Egresado - -> (Registro en Plataforma)
    Egresado - -> (Iniciar Sesión)
    Administrador - -> (Iniciar Sesión)
    Egresado - -> (Cerrar Sesión)
    Administrador - -> (Cerrar Sesión)
}

folder "CRD Suscripciones" as CRDSuscripciones {
    Egresado - -> (Suscripción a Servicio / Paquete de Servicios)
    Egresado - -> (Cancelación de Suscripción a Servicio / Paquete de Servicios)
    Egresado - -> (Listar Servicios / Paquetes de Servicios)
    Administrador - -> (Listar Servicios / Paquetes de Servicios)
}

folder "CRUD Servicios" as CRUDServicios {
    Administrador - -> (Crear Servicio)
    Administrador - -> (Listar Servicios)
    Administrador - -> (Editar Servicio)
    Administrador - -> (Eliminar Servicio)
}

folder "CRUD Egresados" as CRUDEgresados {
    Administrador - -> (Crear Egresado)
    Administrador - -> (Listar Egresado)
    Administrador - -> (Editar Egresado)
    Administrador - -> (Eliminar Egresado)
}

folder "CRUD Paquetes" as CRUDPaquetes {
    Administrador - -> (Crear Paquete)
    Administrador - -> (Listar Paquete)
    Administrador - -> (Editar Paquete)
    Administrador - -> (Eliminar Paquete)
}

folder "CRUD Administradores" as CRUDAdministradores {
    Administrador - -> (Crear Administrador)
    Administrador - -> (Listar Administrador)
    Administrador - -> (Editar Administrador)
    Administrador - -> (Eliminar Administrador)
}

Administrador - -> (Realizar Petición)
Egresado - -> (Realizar Petición)

'(Consultar Estadisticas) - -> (Realizar Petición) : <<include>>
'(Eliminar Egresado) - -> (Cancelación de Cuenta) : <<include>>
'(Cancelación de Cuenta) - -> (Cancelación de Suscripción a Servicio / Paquete de Servicios) : <<include>>
'(Eliminar Paquete) - -> (Listar Servicios) : <<include>>
'(Eliminar Paquete) - -> (Cancelación de Suscripción a Servicio / Paquete de Servicios) : <<include>>
'(Editar Paquete) - -> (Listar Servicios) : <<include>>
'(Crear Paquete) - -> (Listar Servicios) : <<include>>
'(Eliminar Servicio) - -> (Cancelación de Suscripción a Servicio / Paquete de Servicios) : <<include>>

@enduml

@startuml Estructura

title Estructura de los Casos de Uso

skinparam {
    NoteBackgroundColor #whiteSmoke
    NoteBorderColor #green
    linetype polyline
}

left to right direction

actor Egresado
actor Administrador
actor Tiempo

Tiempo - -> (Eliminar Suscripción a Servicio / Paquete de Servicios)

Administrador - -> (Consultar Estadisticas)

folder "Manejo de Usuario" as cuentas {
    Egresado - -> (Actualización de Datos del Usuario)
    Egresado - -> (Cancelación de Cuenta)
    Egresado - -> (Listar Datos del Usuario)
    Administrador - -> (Actualización de Datos del Usuario)
    Administrador - -> (Listar Datos del Usuario)
}

folder "Ingreso a Plataforma" as ingreso {
    Egresado - -> (Registro en Plataforma)
    Egresado - -> (Iniciar Sesión)
    Administrador - -> (Iniciar Sesión)
    Egresado - -> (Cerrar Sesión)
    Administrador - -> (Cerrar Sesión)
}

folder "CRD Suscripciones" as CRDSuscripciones {
    Egresado - -> (Suscripción a Servicio / Paquete de Servicios)
    Egresado - -> (Cancelación de Suscripción a Servicio / Paquete de Servicios)
    Egresado - -> (Listar Servicios / Paquetes de Servicios)
    Administrador - -> (Listar Servicios / Paquetes de Servicios)
}

folder "CRUD Servicios" as CRUDServicios {
    Administrador - -> (Crear Servicio)
    Administrador - -> (Listar Servicios)
    Administrador - -> (Editar Servicio)
    Administrador - -> (Eliminar Servicio)
}

folder "CRUD Egresados" as CRUDEgresados {
    Administrador - -> (Crear Egresado)
    Administrador - -> (Listar Egresado)
    Administrador - -> (Editar Egresado)
    Administrador - -> (Eliminar Egresado)
}

folder "CRUD Paquetes" as CRUDPaquetes {
    Administrador - -> (Crear Paquete)
    Administrador - -> (Listar Paquete)
    Administrador - -> (Editar Paquete)
    Administrador - -> (Eliminar Paquete)
}

folder "CRUD Administradores" as CRUDAdministradores {
    Administrador - -> (Crear Administrador)
    Administrador - -> (Listar Administrador)
    Administrador - -> (Editar Administrador)
    Administrador - -> (Eliminar Administrador)
}

Administrador - -> (Realizar Petición)
Egresado - -> (Realizar Petición)


@enduml

PlantUML version 1.2022.7(Mon Aug 22 19:01:30 CEST 2022)
(GPL source distribution)
Java Runtime: OpenJDK Runtime Environment
JVM: OpenJDK 64-Bit Server VM
Default Encoding: UTF-8
Language: es
Country: ES
--></g></svg>