<?xml version="1.0" encoding="UTF-8" standalone="no"?><svg xmlns="http://www.w3.org/2000/svg" xmlns:xlink="http://www.w3.org/1999/xlink" contentStyleType="text/css" height="905px" preserveAspectRatio="none" style="width:474px;height:905px;background:#FFFFFF;" version="1.1" viewBox="0 0 474 905" width="474px" zoomAndPan="magnify"><defs/><g><rect fill="none" height="29.0679" id="_title" style="stroke:none;stroke-width:1.0;" width="164" x="145" y="5"/><text fill="#000000" font-family="Arial" font-size="14" font-weight="bold" lengthAdjust="spacing" textLength="154" x="150" y="24.9659">Cancelación de cuenta</text><rect fill="#F1F1F1" height="40" rx="12.5" ry="12.5" style="stroke:#181818;stroke-width:0.5;" width="127" x="170.5" y="859.1379"/><text fill="#000000" font-family="Arial" font-size="14" lengthAdjust="spacing" textLength="117" x="175.5" y="884.5699">CONFIGURACIÓN</text><rect fill="#F1F1F1" height="40" rx="12.5" ry="12.5" style="stroke:#181818;stroke-width:0.5;" width="127" x="170.5" y="47.0679"/><text fill="#000000" font-family="Arial" font-size="14" lengthAdjust="spacing" textLength="117" x="175.5" y="72.4999">CONFIGURACIÓN</text><path d="M19.5,202.0679 L448.5,202.0679 A12.5,12.5 0 0 1 461,214.5679 L461,231.1358 L7,231.1358 L7,214.5679 A12.5,12.5 0 0 1 19.5,202.0679 " fill="#F1F1F1" style="stroke:#F1F1F1;stroke-width:1.0;"/><rect fill="none" height="596.0679" rx="12.5" ry="12.5" style="stroke:#181818;stroke-width:0.5;" width="454" x="7" y="202.0679"/><line style="stroke:#181818;stroke-width:0.5;" x1="7" x2="461" y1="231.1358" y2="231.1358"/><text fill="#000000" font-family="Arial" font-size="14" lengthAdjust="spacing" textLength="147" x="160.5" y="222.0339">CancelaciónDeCuenta</text><rect fill="#F1F1F1" height="40" rx="12.5" ry="12.5" style="stroke:#181818;stroke-width:0.5;" width="50" x="107" y="299.1358"/><text fill="#000000" font-family="Arial" font-size="14" lengthAdjust="spacing" textLength="4" x="130" y="324.5678"> </text><rect fill="#F1F1F1" height="40" rx="12.5" ry="12.5" style="stroke:#181818;stroke-width:0.5;" width="50" x="19" y="437.6358"/><text fill="#000000" font-family="Arial" font-size="14" lengthAdjust="spacing" textLength="4" x="42" y="463.0678"> </text><g id="elem_ComprobarRequisitos"><polygon fill="#F1F1F1" points="138,576.1358,150,588.1358,138,600.1358,126,588.1358,138,576.1358" style="stroke:#181818;stroke-width:0.5;"/></g><ellipse cx="132" cy="252.1358" fill="#222222" rx="10" ry="10" style="stroke:none;stroke-width:1.0;"/><rect fill="#F1F1F1" height="40" rx="12.5" ry="12.5" style="stroke:#181818;stroke-width:0.5;" width="155" x="60.5" y="637.1358"/><text fill="#000000" font-family="Arial" font-size="14" lengthAdjust="spacing" textLength="145" x="65.5" y="662.5678">UsuarioDeshabilitado</text><ellipse cx="138" cy="778.1358" fill="none" rx="10" ry="10" style="stroke:#222222;stroke-width:1.0;"/><ellipse cx="138.5" cy="778.6358" fill="#222222" rx="6" ry="6" style="stroke:none;stroke-width:1.0;"/><!--MD5=[06ecb8ec9215981c5aa086f2083bac40]
link *start*CancelaciónDeCuenta to 1--><g id="link_*start*CancelaciónDeCuenta_1"><path d="M132,262.4458 C132,270.2358 132,281.7358 132,292.2658 " fill="none" id="*start*CancelaciónDeCuenta-to-1" style="stroke:#008000;stroke-width:1.0;"/><polygon fill="#008000" points="132,297.1458,136,288.1458,132,292.1458,128,288.1458,132,297.1458" style="stroke:#008000;stroke-width:1.0;"/></g><!--MD5=[0ba0d8a0fd0e641c23f69743a446dfe6]
link 1 to 2--><g id="link_1_2"><path d="M106.59,330.2458 C79.05,341.2058 39,357.1358 39,357.1358 C39,357.1358 39,412.1358 39,412.1358 C39,412.1358 40.01,421.1358 41.12,431.0358 " fill="none" id="1-to-2" style="stroke:#008000;stroke-width:1.0;"/><polygon fill="#008000" points="41.65,435.7458,44.6198,426.3554,41.0916,430.7771,36.6698,427.2489,41.65,435.7458" style="stroke:#008000;stroke-width:1.0;"/><path d="M44,362.1358 L44,407.1358 L208,407.1358 L208,372.1358 L198,362.1358 L44,362.1358 " fill="#F5F5F5" style="stroke:#181818;stroke-width:0.5;"/><path d="M198,362.1358 L198,372.1358 L208,372.1358 L198,362.1358 " fill="#F5F5F5" style="stroke:#181818;stroke-width:0.5;"/><text fill="#000000" font-family="Arial" font-size="13" font-weight="bold" lengthAdjust="spacing" textLength="111" x="50" y="381.0328">Sistema muestra</text><text fill="#000000" font-family="Arial" font-size="13" lengthAdjust="spacing" textLength="143" x="50" y="398.7389">Confirmar la contraseña</text></g><!--MD5=[13909e73959e71170bc65ca165e7c964]
link 2 to ComprobarRequisitos--><g id="link_2_ComprobarRequisitos"><path d="M47.66,477.8158 C53.18,506.7358 63,558.1358 63,558.1358 C63,558.1358 102.07,573.2458 123.81,581.6458 " fill="none" id="2-to-ComprobarRequisitos" style="stroke:#008000;stroke-width:1.0;"/><polygon fill="#008000" points="128.28,583.3758,121.3201,576.4074,123.6144,581.5781,118.4437,583.8724,128.28,583.3758" style="stroke:#008000;stroke-width:1.0;"/><path d="M68,508.1358 L68,553.1358 L208,553.1358 L208,518.1358 L198,508.1358 L68,508.1358 " fill="#F5F5F5" style="stroke:#181818;stroke-width:0.5;"/><path d="M198,508.1358 L198,518.1358 L208,518.1358 L198,508.1358 " fill="#F5F5F5" style="stroke:#181818;stroke-width:0.5;"/><text fill="#000000" font-family="Arial" font-size="13" font-weight="bold" lengthAdjust="spacing" textLength="119" x="74" y="527.0328">Usuario introduce</text><text fill="#000000" font-family="Arial" font-size="13" lengthAdjust="spacing" textLength="69" x="74" y="544.7389">Contraseña</text></g><!--MD5=[c1b49b34dcfb68e63dee6960720ec1d8]
link ComprobarRequisitos to 1--><g id="link_ComprobarRequisitos_1"><path d="M146.31,583.9258 C165.84,576.3758 213,558.1358 213,558.1358 C213,558.1358 213,357.1358 213,357.1358 C213,357.1358 185.77,344.6958 162.89,334.2458 " fill="none" id="ComprobarRequisitos-to-1" style="stroke:#FF0000;stroke-width:1.0;"/><polygon fill="#FF0000" points="158.56,332.2658,165.0702,339.6562,163.104,334.3521,168.4081,332.3859,158.56,332.2658" style="stroke:#FF0000;stroke-width:1.0;"/><path d="M218,435.1358 L218,480.1358 L452,480.1358 L452,445.1358 L442,435.1358 L218,435.1358 " fill="#F5F5F5" style="stroke:#181818;stroke-width:0.5;"/><path d="M442,435.1358 L442,445.1358 L452,445.1358 L442,435.1358 " fill="#F5F5F5" style="stroke:#181818;stroke-width:0.5;"/><text fill="#000000" font-family="Arial" font-size="13" font-weight="bold" lengthAdjust="spacing" textLength="111" x="224" y="454.0328">Sistema muestra</text><text fill="#000000" font-family="Arial" font-size="13" lengthAdjust="spacing" textLength="213" x="224" y="471.7389">Mensaje de error en datos enviados</text></g><!--MD5=[175b3c26eca590134f55bef93cd8beb1]
link ComprobarRequisitos to UsuarioDeshabilitado--><g id="link_ComprobarRequisitos_UsuarioDeshabilitado"><path d="M138,600.8058 C138,608.9258 138,620.0758 138,630.2358 " fill="none" id="ComprobarRequisitos-to-UsuarioDeshabilitado" style="stroke:#008000;stroke-width:1.0;"/><polygon fill="#008000" points="138,635.2158,142,626.2158,138,630.2158,134,626.2158,138,635.2158" style="stroke:#008000;stroke-width:1.0;"/></g><!--MD5=[4d34fd25b8d531c66bbc55ad44978407]
link UsuarioDeshabilitado to *end*CancelaciónDeCuenta--><g id="link_UsuarioDeshabilitado_*end*CancelaciónDeCuenta"><path d="M138,677.5158 C138,700.9358 138,739.8658 138,761.4758 " fill="none" id="UsuarioDeshabilitado-to-*end*CancelaciónDeCuenta" style="stroke:#008000;stroke-width:1.0;"/><polygon fill="#008000" points="138,766.3258,142,757.3258,138,761.3258,134,757.3258,138,766.3258" style="stroke:#008000;stroke-width:1.0;"/><path d="M143,700.1358 L143,745.1358 L313,745.1358 L313,710.1358 L303,700.1358 L143,700.1358 " fill="#F5F5F5" style="stroke:#181818;stroke-width:0.5;"/><path d="M303,700.1358 L303,710.1358 L313,710.1358 L303,700.1358 " fill="#F5F5F5" style="stroke:#181818;stroke-width:0.5;"/><text fill="#000000" font-family="Arial" font-size="13" font-weight="bold" lengthAdjust="spacing" textLength="111" x="149" y="719.0328">Sistema muestra</text><text fill="#000000" font-family="Arial" font-size="13" lengthAdjust="spacing" textLength="149" x="149" y="736.7389">Mensaje de confirmación</text></g><!--MD5=[521fd2f0e62ea4b347b04daef375e201]
link CONFIGURACIÓN to CancelaciónDeCuenta--><g id="link_CONFIGURACIÓN_CancelaciónDeCuenta"><path d="M234,87.4279 C234,109.7679 234,149.4179 234,195.5679 " fill="none" id="CONFIGURACIÓN-to-CancelaciónDeCuenta" style="stroke:#008000;stroke-width:1.0;"/><polygon fill="#008000" points="234,200.3079,238,191.3079,234,195.3079,230,191.3079,234,200.3079" style="stroke:#008000;stroke-width:1.0;"/><path d="M239,122.0679 L239,167.0679 L372,167.0679 L372,132.0679 L362,122.0679 L239,122.0679 " fill="#F5F5F5" style="stroke:#181818;stroke-width:0.5;"/><path d="M362,122.0679 L362,132.0679 L372,132.0679 L362,122.0679 " fill="#F5F5F5" style="stroke:#181818;stroke-width:0.5;"/><text fill="#000000" font-family="Arial" font-size="13" font-weight="bold" lengthAdjust="spacing" textLength="101" x="245" y="140.9649">Usuario solicita</text><text fill="#000000" font-family="Arial" font-size="13" lengthAdjust="spacing" textLength="112" x="245" y="158.6709">Cancelar su cuenta</text></g><!--MD5=[00cdd797b2f81bbd8b46f2ed0c156d4c]
link CancelaciónDeCuenta to endState--><g id="link_CancelaciónDeCuenta_endState"><path d="M234,798.1779 C234,819.8279 234,838.5779 234,852.4679 " fill="none" id="CancelaciónDeCuenta-to-endState" style="stroke:#008000;stroke-width:1.0;"/><polygon fill="#008000" points="234,857.3779,238,848.3779,234,852.3779,230,848.3779,234,857.3779" style="stroke:#008000;stroke-width:1.0;"/></g><!--MD5=[b301acbc8f1f706201856b0a132d3500]
@startuml
skinparam defaultFontName Arial
skinparam NoteBackgroundColor #whiteSmoke
skinparam ArrowColor #green
skinparam Linetype polyline
top to bottom direction

hide empty description
title Cancelación de cuenta

state endState as "CONFIGURACIÓN"

CONFIGURACIÓN -down-> CancelaciónDeCuenta
note on link
<b>Usuario solicita</b>
Cancelar su cuenta
end note

CancelaciónDeCuenta -down-> endState

state CancelaciónDeCuenta{
  state 1 as " "
  state 2 as " "
  state ComprobarRequisitos <<choice>>
  [*] - -> 1
  1 - -> 2
  note on link
  <b>Sistema muestra</b>
  Confirmar la contraseña
  end note
  2 - -> ComprobarRequisitos
  note on link
  <b>Usuario introduce</b>
  Contraseña
  end note
  ComprobarRequisitos -[#red]-> 1
  note on link
  <b>Sistema muestra</b>
  Mensaje de error en datos enviados
  end note
  ComprobarRequisitos -down-> UsuarioDeshabilitado
  UsuarioDeshabilitado - -> [*]
  note on link
  <b>Sistema muestra</b>
  Mensaje de confirmación
  end note
}
@enduml

PlantUML version 1.2022.7(Mon Aug 22 19:01:30 CEST 2022)
(GPL source distribution)
Java Runtime: OpenJDK Runtime Environment
JVM: OpenJDK 64-Bit Server VM
Default Encoding: UTF-8
Language: es
Country: ES
--></g></svg>