<?xml version="1.0" encoding="UTF-8" standalone="no"?><svg xmlns="http://www.w3.org/2000/svg" xmlns:xlink="http://www.w3.org/1999/xlink" contentStyleType="text/css" height="391px" preserveAspectRatio="none" style="width:1078px;height:391px;background:#FFFFFF;" version="1.1" viewBox="0 0 1078 391" width="1078px" zoomAndPan="magnify"><defs/><g><rect fill="none" height="29.0679" id="_title" style="stroke:none;stroke-width:1.0;" width="142" x="461.25" y="5"/><text fill="#000000" font-family="sans-serif" font-size="14" font-weight="bold" lengthAdjust="spacing" textLength="132" x="466.25" y="24.9659">Contexto Egresado</text><ellipse cx="155" cy="56.0679" fill="#222222" rx="10" ry="10" style="stroke:none;stroke-width:1.0;"/><rect fill="#F1F1F1" height="40" rx="12.5" ry="12.5" style="stroke:#181818;stroke-width:0.5;" width="120" x="7" y="127.0679"/><text fill="#000000" font-family="sans-serif" font-size="14" lengthAdjust="spacing" textLength="110" x="12" y="152.4999">INICIAR_SESIÓN</text><rect fill="#F1F1F1" height="40" rx="12.5" ry="12.5" style="stroke:#181818;stroke-width:0.5;" width="164" x="162" y="127.0679"/><text fill="#000000" font-family="sans-serif" font-size="14" lengthAdjust="spacing" textLength="154" x="167" y="152.4999">REGISTRAR_EGRESADO</text><rect fill="#F1F1F1" height="40" rx="12.5" ry="12.5" style="stroke:#181818;stroke-width:0.5;" width="56" x="127" y="246.0679"/><text fill="#000000" font-family="sans-serif" font-size="14" lengthAdjust="spacing" textLength="46" x="132" y="271.4999">INICIO</text><rect fill="#F1F1F1" height="40" rx="12.5" ry="12.5" style="stroke:#181818;stroke-width:0.5;" width="156" x="218" y="246.0679"/><text fill="#000000" font-family="sans-serif" font-size="14" lengthAdjust="spacing" textLength="146" x="223" y="271.4999">EXPLORAR_SERVICIOS</text><rect fill="#F1F1F1" height="40" rx="12.5" ry="12.5" style="stroke:#181818;stroke-width:0.5;" width="209" x="863.5" y="246.0679"/><text fill="#000000" font-family="sans-serif" font-size="14" lengthAdjust="spacing" textLength="199" x="868.5" y="271.4999">LISTAR_SERVICIOS_PAQUETES</text><rect fill="#F1F1F1" height="40" rx="12.5" ry="12.5" style="stroke:#181818;stroke-width:0.5;" width="240" x="589" y="246.0679"/><text fill="#000000" font-family="sans-serif" font-size="14" lengthAdjust="spacing" textLength="230" x="594" y="271.4999">SUSCRIPCIÓN_SERVICIO_PAQUETE</text><rect fill="#F1F1F1" height="40" rx="12.5" ry="12.5" style="stroke:#181818;stroke-width:0.5;" width="145" x="409.5" y="246.0679"/><text fill="#000000" font-family="sans-serif" font-size="14" lengthAdjust="spacing" textLength="135" x="414.5" y="271.4999">REALIZAR_PETICIÓN</text><ellipse cx="225" cy="375.0679" fill="none" rx="10" ry="10" style="stroke:#222222;stroke-width:1.0;"/><ellipse cx="225.5" cy="375.5679" fill="#222222" rx="6" ry="6" style="stroke:none;stroke-width:1.0;"/><!--MD5=[fffa5c9a6c2a3d9bbcf62492fefaaec1]
link *start to INICIAR_SESIÓN--><g id="link_*start_INICIAR_SESIÓN"><path d="M148.39,63.7579 C136.27,76.0079 109.98,102.5979 90.54,122.2579 " fill="none" id="*start-to-INICIAR_SESIÓN" style="stroke:#181818;stroke-width:1.0;"/><polygon fill="#181818" points="87.32,125.5179,96.4908,121.9267,90.834,121.961,90.7998,116.3043,87.32,125.5179" style="stroke:#181818;stroke-width:1.0;"/></g><!--MD5=[ef2c9c3cadb6f7eb859a57fbfd2a6d8e]
link *start to REGISTRAR_EGRESADO--><g id="link_*start_REGISTRAR_EGRESADO"><path d="M161.69,63.7579 C173.94,76.0079 200.53,102.5979 220.19,122.2579 " fill="none" id="*start-to-REGISTRAR_EGRESADO" style="stroke:#181818;stroke-width:1.0;"/><polygon fill="#181818" points="223.45,125.5179,219.9145,116.3255,219.9145,121.9824,214.2576,121.9824,223.45,125.5179" style="stroke:#181818;stroke-width:1.0;"/></g><!--MD5=[66837f7cee128dc6ca7363ed13e0752f]
link INICIAR_SESIÓN to INICIO--><g id="link_INICIAR_SESIÓN_INICIO"><path d="M78.07,167.3679 C89.6,187.4779 106,216.0679 106,216.0679 C106,216.0679 118.64,228.7079 131.08,241.1479 " fill="none" id="INICIAR_SESIÓN-to-INICIO" style="stroke:#181818;stroke-width:1.0;"/><polygon fill="#181818" points="134.56,244.6279,131.0245,235.4355,131.0245,241.0924,125.3676,241.0924,134.56,244.6279" style="stroke:#181818;stroke-width:1.0;"/><text fill="#000000" font-family="sans-serif" font-size="13" lengthAdjust="spacing" textLength="78" x="107" y="211.9649">Iniciar Sesión</text></g><!--MD5=[4eaddde1cee9389216769fe646f6a5a4]
link REGISTRAR_EGRESADO to INICIO--><g id="link_REGISTRAR_EGRESADO_INICIO"><path d="M229.3,167.3879 C214.04,187.4579 190.11,218.9079 173.55,240.6779 " fill="none" id="REGISTRAR_EGRESADO-to-INICIO" style="stroke:#181818;stroke-width:1.0;"/><polygon fill="#181818" points="170.63,244.5179,179.2682,239.7869,173.6619,240.5421,172.9068,234.9358,170.63,244.5179" style="stroke:#181818;stroke-width:1.0;"/><text fill="#000000" font-family="sans-serif" font-size="13" lengthAdjust="spacing" textLength="113" x="206" y="211.9649">Registrar Egresado</text></g><!--MD5=[cca3090e76786349203404ad2fa77f79]
link INICIO to EXPLORAR_SERVICIOS--><g id="link_INICIO_EXPLORAR_SERVICIOS"><path d="M183.42,278.1679 C193.32,282.3779 202,286.0679 202,286.0679 C202,286.0679 205.79,286.0679 211.22,286.0679 " fill="none" id="INICIO-to-EXPLORAR_SERVICIOS" style="stroke:#181818;stroke-width:1.0;"/><polygon fill="#181818" points="216.14,286.0679,207.14,282.0679,211.14,286.0679,207.14,290.0679,216.14,286.0679" style="stroke:#181818;stroke-width:1.0;"/></g><!--MD5=[847b408c021b00de83bcc586619bdd73]
reverse link INICIO to EXPLORAR_SERVICIOS--><g id="link_INICIO_EXPLORAR_SERVICIOS"><path d="M189.24,251.4979 C196.49,248.4079 202,246.0679 202,246.0679 C202,246.0679 209.03,246.0679 217.65,246.0679 " fill="none" id="INICIO-backto-EXPLORAR_SERVICIOS" style="stroke:#181818;stroke-width:1.0;"/><polygon fill="#181818" points="184.82,253.3779,194.6676,253.5351,189.4209,251.4204,191.5356,246.1737,184.82,253.3779" style="stroke:#181818;stroke-width:1.0;"/></g><!--MD5=[587b4a2cc691686f37c51a60e6e06e4b]
link EXPLORAR_SERVICIOS to LISTAR_SERVICIOS_PAQUETES--><g id="link_EXPLORAR_SERVICIOS_LISTAR_SERVICIOS_PAQUETES"><path d="M343.54,245.6079 C372.38,233.1979 403.67,219.7379 403.67,219.7379 C403.67,219.7379 834.33,219.7379 834.33,219.7379 C834.33,219.7379 869.04,231.7679 903.09,243.5679 " fill="none" id="EXPLORAR_SERVICIOS-to-LISTAR_SERVICIOS_PAQUETES" style="stroke:#181818;stroke-width:1.0;"/><polygon fill="#181818" points="907.55,245.1179,900.3494,238.3985,902.824,243.4853,897.7372,245.96,907.55,245.1179" style="stroke:#181818;stroke-width:1.0;"/></g><!--MD5=[6f9c0a608dd1f796110e1368c11b6afe]
reverse link EXPLORAR_SERVICIOS to LISTAR_SERVICIOS_PAQUETES--><g id="link_EXPLORAR_SERVICIOS_LISTAR_SERVICIOS_PAQUETES"><path d="M335.04,242.2879 C369.85,221.0979 415.33,193.3979 415.33,193.3979 C415.33,193.3979 822.67,193.3979 822.67,193.3979 C822.67,193.3979 884.14,224.1379 927.13,245.6279 " fill="none" id="EXPLORAR_SERVICIOS-backto-LISTAR_SERVICIOS_PAQUETES" style="stroke:#181818;stroke-width:1.0;"/><polygon fill="#181818" points="330.85,244.8479,340.6176,243.5852,335.121,242.2482,336.458,236.7516,330.85,244.8479" style="stroke:#181818;stroke-width:1.0;"/></g><!--MD5=[122c3f22b6d2e6a9b9c09f0bb92cdf25]
link EXPLORAR_SERVICIOS to SUSCRIPCIÓN_SERVICIO_PAQUETE--><g id="link_EXPLORAR_SERVICIOS_SUSCRIPCIÓN_SERVICIO_PAQUETE"><path d="M343.54,245.6079 C372.38,233.1979 403.67,219.7379 403.67,219.7379 C403.67,219.7379 560.33,219.7379 560.33,219.7379 C560.33,219.7379 599.26,231.8679 637.27,243.7179 " fill="none" id="EXPLORAR_SERVICIOS-to-SUSCRIPCIÓN_SERVICIO_PAQUETE" style="stroke:#181818;stroke-width:1.0;"/><polygon fill="#181818" points="641.91,245.1579,634.5006,238.6694,637.1348,243.6755,632.1287,246.3097,641.91,245.1579" style="stroke:#181818;stroke-width:1.0;"/></g><!--MD5=[f5f03cca1f9a32f8797755fabf305c49]
reverse link EXPLORAR_SERVICIOS to SUSCRIPCIÓN_SERVICIO_PAQUETE--><g id="link_EXPLORAR_SERVICIOS_SUSCRIPCIÓN_SERVICIO_PAQUETE"><path d="M335.04,242.2879 C369.85,221.0979 415.33,193.3979 415.33,193.3979 C415.33,193.3979 548.67,193.3979 548.67,193.3979 C548.67,193.3979 616.49,224.1379 663.91,245.6279 " fill="none" id="EXPLORAR_SERVICIOS-backto-SUSCRIPCIÓN_SERVICIO_PAQUETE" style="stroke:#181818;stroke-width:1.0;"/><polygon fill="#181818" points="330.85,244.8479,340.6176,243.5852,335.121,242.2482,336.458,236.7516,330.85,244.8479" style="stroke:#181818;stroke-width:1.0;"/></g><!--MD5=[9cb8868040ab7e957bb84216f43e437d]
link EXPLORAR_SERVICIOS to REALIZAR_PETICIÓN--><g id="link_EXPLORAR_SERVICIOS_REALIZAR_PETICIÓN"><path d="M374.29,286.0679 C383.1,286.0679 393.96,286.0679 402.89,286.0679 " fill="none" id="EXPLORAR_SERVICIOS-to-REALIZAR_PETICIÓN" style="stroke:#181818;stroke-width:1.0;"/><polygon fill="#181818" points="407.76,286.0679,398.76,282.0679,402.76,286.0679,398.76,290.0679,407.76,286.0679" style="stroke:#181818;stroke-width:1.0;"/></g><!--MD5=[df043e65a6229f605f9b1f7c59e93a2b]
reverse link EXPLORAR_SERVICIOS to REALIZAR_PETICIÓN--><g id="link_EXPLORAR_SERVICIOS_REALIZAR_PETICIÓN"><path d="M380.8,246.0679 C390.54,246.0679 401.44,246.0679 409.28,246.0679 " fill="none" id="EXPLORAR_SERVICIOS-backto-REALIZAR_PETICIÓN" style="stroke:#181818;stroke-width:1.0;"/><polygon fill="#181818" points="375.8,246.0679,384.8,250.0679,380.8,246.0679,384.8,242.0679,375.8,246.0679" style="stroke:#181818;stroke-width:1.0;"/></g><!--MD5=[c6e8d97373a6e0272a3c575f2d7d2fa1]
link EXPLORAR_SERVICIOS to *end--><g id="link_EXPLORAR_SERVICIOS_*end"><path d="M283.31,286.1979 C268.99,307.7679 246.1,342.2679 233.69,360.9779 " fill="none" id="EXPLORAR_SERVICIOS-to-*end" style="stroke:#181818;stroke-width:1.0;"/><polygon fill="#181818" points="231.03,364.9879,239.3422,359.7051,233.7969,360.8233,232.6787,355.278,231.03,364.9879" style="stroke:#181818;stroke-width:1.0;"/><text fill="#000000" font-family="sans-serif" font-size="13" lengthAdjust="spacing" textLength="79" x="264" y="330.9649">Cerrar Sesión</text></g><!--MD5=[0876ba8a88d8bbcf732e506fae106d5c]
link INICIO to *end--><g id="link_INICIO_*end"><path d="M159.26,286.3679 C163.69,306.4779 170,335.0679 170,335.0679 C170,335.0679 196.02,353.5179 212.27,365.0379 " fill="none" id="INICIO-to-*end" style="stroke:#181818;stroke-width:1.0;"/><polygon fill="#181818" points="216.12,367.7679,211.0763,359.3085,212.036,364.8834,206.4611,365.843,216.12,367.7679" style="stroke:#181818;stroke-width:1.0;"/><text fill="#000000" font-family="sans-serif" font-size="13" lengthAdjust="spacing" textLength="74" x="171" y="330.9649">Cerar Sesión</text></g><!--MD5=[505173b7b54649a7d03d7b873701d780]
@startuml Contexto
title Contexto Egresado

skinparam {
    NoteBackgroundColor #whiteSmoke
    NoteBorderColor #green
    linetype polyline
}

hide empty description

[*] - -> INICIAR_SESIÓN
[*] - -> REGISTRAR_EGRESADO
INICIAR_SESIÓN - -> INICIO : Iniciar Sesión
REGISTRAR_EGRESADO - -> INICIO : Registrar Egresado

INICIO -> EXPLORAR_SERVICIOS
INICIO <- EXPLORAR_SERVICIOS

EXPLORAR_SERVICIOS -> LISTAR_SERVICIOS_PAQUETES
EXPLORAR_SERVICIOS <- LISTAR_SERVICIOS_PAQUETES
EXPLORAR_SERVICIOS -> SUSCRIPCIÓN_SERVICIO_PAQUETE
EXPLORAR_SERVICIOS <- SUSCRIPCIÓN_SERVICIO_PAQUETE
EXPLORAR_SERVICIOS -> REALIZAR_PETICIÓN
EXPLORAR_SERVICIOS <- REALIZAR_PETICIÓN

EXPLORAR_SERVICIOS -> [*] : Cerrar Sesión
INICIO - -> [*] : Cerar Sesión

@enduml

PlantUML version 1.2022.7(Mon Aug 22 19:01:30 CEST 2022)
(GPL source distribution)
Java Runtime: OpenJDK Runtime Environment
JVM: OpenJDK 64-Bit Server VM
Default Encoding: UTF-8
Language: es
Country: ES
--></g></svg>