<?xml version="1.0" encoding="us-ascii" standalone="no"?><svg xmlns="http://www.w3.org/2000/svg" xmlns:xlink="http://www.w3.org/1999/xlink" contentStyleType="text/css" height="211px" preserveAspectRatio="none" style="width:2564px;height:211px;background:#FFFFFF;" version="1.1" viewBox="0 0 2564 211" width="2564px" zoomAndPan="magnify"><defs/><g><g id="elem_gestorDeHorarios"><rect fill="#F1F1F1" height="44.5938" style="stroke:#181818;stroke-width:0.5;" width="193" x="1392.5" y="159.542"/><text fill="#000000" font-family="sans-serif" font-size="14" lengthAdjust="spacing" textLength="179" x="1399.5" y="174.5371">gestorDeHorarios : David</text><line style="stroke:#181818;stroke-width:0.5;" x1="1393.5" x2="1584.5" y1="179.8389" y2="179.8389"/><text fill="#000000" font-family="sans-serif" font-size="14" lengthAdjust="spacing" textLength="147" x="1398.5" y="196.834">rol = "Crear Horario"</text></g><g id="elem_aula1"><rect fill="#F1F1F1" height="44.5938" style="stroke:#181818;stroke-width:0.5;" width="128" x="1876" y="54.542"/><text fill="#000000" font-family="sans-serif" font-size="14" lengthAdjust="spacing" textLength="80" x="1900" y="69.5371">aula1 : Aula</text><line style="stroke:#181818;stroke-width:0.5;" x1="1877" x2="2003" y1="74.8389" y2="74.8389"/><text fill="#000000" font-family="sans-serif" font-size="14" lengthAdjust="spacing" textLength="116" x="1882" y="91.834">numero = "-2.6"</text></g><g id="elem_aula2"><rect fill="#F1F1F1" height="44.5938" style="stroke:#181818;stroke-width:0.5;" width="131" x="2039.5" y="54.542"/><text fill="#000000" font-family="sans-serif" font-size="14" lengthAdjust="spacing" textLength="79" x="2065.5" y="69.5371">aula2 : Aula</text><line style="stroke:#181818;stroke-width:0.5;" x1="2040.5" x2="2169.5" y1="74.8389" y2="74.8389"/><text fill="#000000" font-family="sans-serif" font-size="14" lengthAdjust="spacing" textLength="119" x="2045.5" y="91.834">numero = "0.12"</text></g><g id="elem_docente1"><rect fill="#F1F1F1" height="44.5938" style="stroke:#181818;stroke-width:0.5;" width="202" x="7" y="54.542"/><text fill="#000000" font-family="sans-serif" font-size="14" lengthAdjust="spacing" textLength="144" x="36" y="69.5371">docente1 : Docente</text><line style="stroke:#181818;stroke-width:0.5;" x1="8" x2="208" y1="74.8389" y2="74.8389"/><text fill="#000000" font-family="sans-serif" font-size="14" lengthAdjust="spacing" textLength="190" x="13" y="91.834">nombre = "Manuel Masias"</text></g><g id="elem_docente2"><rect fill="#F1F1F1" height="44.5938" style="stroke:#181818;stroke-width:0.5;" width="194" x="244" y="54.542"/><text fill="#000000" font-family="sans-serif" font-size="14" lengthAdjust="spacing" textLength="143" x="269.5" y="69.5371">docente2 : Docente</text><line style="stroke:#181818;stroke-width:0.5;" x1="245" x2="437" y1="74.8389" y2="74.8389"/><text fill="#000000" font-family="sans-serif" font-size="14" lengthAdjust="spacing" textLength="182" x="250" y="91.834">nombre = "Jorge Crespo"</text></g><g id="elem_asignatura1"><rect fill="#F1F1F1" height="44.5938" style="stroke:#181818;stroke-width:0.5;" width="209" x="916.5" y="54.542"/><text fill="#000000" font-family="sans-serif" font-size="14" lengthAdjust="spacing" textLength="172" x="935" y="69.5371">asignatura1 : Asignatura</text><line style="stroke:#181818;stroke-width:0.5;" x1="917.5" x2="1124.5" y1="74.8389" y2="74.8389"/><text fill="#000000" font-family="sans-serif" font-size="14" lengthAdjust="spacing" textLength="197" x="922.5" y="91.834">nombre = "Programaci&#243;n I"</text></g><g id="elem_asignatura2"><rect fill="#F1F1F1" height="44.5938" style="stroke:#181818;stroke-width:0.5;" width="206" x="1161" y="54.542"/><text fill="#000000" font-family="sans-serif" font-size="14" lengthAdjust="spacing" textLength="171" x="1178.5" y="69.5371">asignatura2 : Asignatura</text><line style="stroke:#181818;stroke-width:0.5;" x1="1162" x2="1366" y1="74.8389" y2="74.8389"/><text fill="#000000" font-family="sans-serif" font-size="14" lengthAdjust="spacing" textLength="194" x="1167" y="91.834">nombre = "Matem&#225;ticas II"</text></g><g id="elem_recibiendoAulas"><rect fill="#F1F1F1" height="36.2969" style="stroke:#181818;stroke-width:0.5;" width="128" x="2206" y="59.042"/><text fill="#000000" font-family="sans-serif" font-size="14" lengthAdjust="spacing" textLength="114" x="2213" y="74.0371">recibiendoAulas</text><line style="stroke:#181818;stroke-width:0.5;" x1="2207" x2="2333" y1="79.3389" y2="79.3389"/></g><g id="elem_GMN10"><path d="M2369,64.542 L2369,73.042 L2334.08,77.042 L2369,81.042 L2369,89.6748 A0,0 0 0 0 2369,89.6748 L2557,89.6748 A0,0 0 0 0 2557,89.6748 L2557,74.542 L2547,64.542 L2369,64.542 A0,0 0 0 0 2369,64.542 " fill="#FEFFDD" style="stroke:#181818;stroke-width:0.5;"/><path d="M2547,64.542 L2547,74.542 L2557,74.542 L2547,64.542 " fill="#FEFFDD" style="stroke:#181818;stroke-width:0.5;"/><text fill="#000000" font-family="sans-serif" font-size="13" lengthAdjust="spacing" textLength="167" x="2375" y="81.6089">Se reciben todas las aulas</text></g><g id="elem_recibiendoDocentes"><rect fill="#F1F1F1" height="36.2969" style="stroke:#181818;stroke-width:0.5;" width="160" x="473" y="59.042"/><text fill="#000000" font-family="sans-serif" font-size="14" lengthAdjust="spacing" textLength="146" x="480" y="74.0371">recibiendoDocentes</text><line style="stroke:#181818;stroke-width:0.5;" x1="474" x2="632" y1="79.3389" y2="79.3389"/></g><g id="elem_GMN14"><path d="M668.5,64.542 L668.5,73.042 L633.215,77.042 L668.5,81.042 L668.5,89.6748 A0,0 0 0 0 668.5,89.6748 L881.5,89.6748 A0,0 0 0 0 881.5,89.6748 L881.5,74.542 L871.5,64.542 L668.5,64.542 A0,0 0 0 0 668.5,64.542 " fill="#FEFFDD" style="stroke:#181818;stroke-width:0.5;"/><path d="M871.5,64.542 L871.5,74.542 L881.5,74.542 L871.5,64.542 " fill="#FEFFDD" style="stroke:#181818;stroke-width:0.5;"/><text fill="#000000" font-family="sans-serif" font-size="13" lengthAdjust="spacing" textLength="192" x="674.5" y="81.6089">Se reciben todos los docentes</text></g><g id="elem_recibiendoAsignaturas"><rect fill="#F1F1F1" height="36.2969" style="stroke:#181818;stroke-width:0.5;" width="174" x="1402" y="59.042"/><text fill="#000000" font-family="sans-serif" font-size="14" lengthAdjust="spacing" textLength="160" x="1409" y="74.0371">recibiendoAsignaturas</text><line style="stroke:#181818;stroke-width:0.5;" x1="1403" x2="1575" y1="79.3389" y2="79.3389"/></g><g id="elem_GMN18"><path d="M1611.5,64.542 L1611.5,73.042 L1576.02,77.042 L1611.5,81.042 L1611.5,89.6748 A0,0 0 0 0 1611.5,89.6748 L1840.5,89.6748 A0,0 0 0 0 1840.5,89.6748 L1840.5,74.542 L1830.5,64.542 L1611.5,64.542 A0,0 0 0 0 1611.5,64.542 " fill="#FEFFDD" style="stroke:#181818;stroke-width:0.5;"/><path d="M1830.5,64.542 L1830.5,74.542 L1840.5,74.542 L1830.5,64.542 " fill="#FEFFDD" style="stroke:#181818;stroke-width:0.5;"/><text fill="#000000" font-family="sans-serif" font-size="13" lengthAdjust="spacing" textLength="208" x="1617.5" y="81.6089">Se reciben todas las asignaturas</text></g><!--link aula1 to recibiendoAulas--><g id="link_aula1_recibiendoAulas"><path codeLine="44" d="M1972.88,54.48 C1991.52,43.065 2015.8,30.411 2039.5,24.542 C2096.02,10.547 2113.98,10.547 2170.5,24.542 C2197.23,31.162 2219.6492,43.1773 2238.9392,55.5463 " fill="none" id="aula1-to-recibiendoAulas" style="stroke:#181818;stroke-width:1.0;"/><polygon fill="#181818" points="2243.99,58.785,2238.5728,50.5598,2239.781,56.0861,2234.2546,57.2942,2243.99,58.785" style="stroke:#181818;stroke-width:1.0;"/></g><!--link aula2 to recibiendoAulas--><g id="link_aula2_recibiendoAulas"><path codeLine="45" d="M2170.74,77.042 C2182.37,77.042 2188.01,77.042 2199.64,77.042 " fill="none" id="aula2-to-recibiendoAulas" style="stroke:#181818;stroke-width:1.0;"/><polygon fill="#181818" points="2205.64,77.042,2196.64,73.042,2200.64,77.042,2196.64,81.042,2205.64,77.042" style="stroke:#181818;stroke-width:1.0;"/></g><!--link docente1 to recibiendoDocentes--><g id="link_docente1_recibiendoDocentes"><path codeLine="46" d="M153.78,54.422 C179.469,42.99 212.502,30.337 243.5,24.542 C328.254,8.697 353.232,6.289 437.5,24.542 C468.069,31.163 495.0041,43.7016 517.6141,56.1306 " fill="none" id="docente1-to-recibiendoDocentes" style="stroke:#181818;stroke-width:1.0;"/><polygon fill="#181818" points="522.872,59.021,516.912,51.1802,518.4904,56.6124,513.0582,58.1908,522.872,59.021" style="stroke:#181818;stroke-width:1.0;"/></g><!--link docente2 to recibiendoDocentes--><g id="link_docente2_recibiendoDocentes"><path codeLine="47" d="M438.305,77.042 C449.804,77.042 455.303,77.042 466.803,77.042 " fill="none" id="docente2-to-recibiendoDocentes" style="stroke:#181818;stroke-width:1.0;"/><polygon fill="#181818" points="472.803,77.042,463.803,73.042,467.803,77.042,463.803,81.042,472.803,77.042" style="stroke:#181818;stroke-width:1.0;"/></g><!--link asignatura1 to recibiendoAsignaturas--><g id="link_asignatura1_recibiendoAsignaturas"><path codeLine="48" d="M1068.56,54.417 C1095.22,42.984 1129.47,30.331 1161.5,24.542 C1251.6,8.259 1277.84,6 1367.5,24.542 C1399.45,31.15 1428.0194,43.8076 1451.8694,56.2396 " fill="none" id="asignatura1-to-recibiendoAsignaturas" style="stroke:#181818;stroke-width:1.0;"/><polygon fill="#181818" points="1457.19,59.013,1451.0581,51.3059,1452.7562,56.7018,1447.3602,58.4,1457.19,59.013" style="stroke:#181818;stroke-width:1.0;"/></g><!--link asignatura2 to recibiendoAsignaturas--><g id="link_asignatura2_recibiendoAsignaturas"><path codeLine="49" d="M1367.27,77.042 C1378.84,77.042 1384.41,77.042 1395.98,77.042 " fill="none" id="asignatura2-to-recibiendoAsignaturas" style="stroke:#181818;stroke-width:1.0;"/><polygon fill="#181818" points="1401.98,77.042,1392.98,73.042,1396.98,77.042,1392.98,81.042,1401.98,77.042" style="stroke:#181818;stroke-width:1.0;"/></g><!--link recibiendoAulas to gestorDeHorarios--><g id="link_recibiendoAulas_gestorDeHorarios"><path codeLine="51" d="M2208.87,95.073 C2201.86,96.726 2194.8,98.261 2188,99.542 C1974.89,139.699 1727.2413,162.8768 1591.7313,173.6059 " fill="none" id="recibiendoAulas-to-gestorDeHorarios" style="stroke:#181818;stroke-width:1.0;"/><polygon fill="#181818" points="1585.75,174.0795,1595.0376,177.3567,1590.7344,173.6849,1594.4062,169.3816,1585.75,174.0795" style="stroke:#181818;stroke-width:1.0;"/></g><!--link recibiendoDocentes to gestorDeHorarios--><g id="link_recibiendoDocentes_gestorDeHorarios"><path codeLine="52" d="M626.133,95.083 C634.493,96.734 642.913,98.266 651,99.542 C917.755,141.622 1229.9522,165.0303 1386.3922,175.0134 " fill="none" id="recibiendoDocentes-to-gestorDeHorarios" style="stroke:#181818;stroke-width:1.0;"/><polygon fill="#181818" points="1392.38,175.3955,1383.653,170.8305,1387.3901,175.0771,1383.1435,178.8142,1392.38,175.3955" style="stroke:#181818;stroke-width:1.0;"/></g><!--link recibiendoAsignaturas to gestorDeHorarios--><g id="link_recibiendoAsignaturas_gestorDeHorarios"><path codeLine="53" d="M1489,95.05 C1489,112.649 1489,134.1927 1489,153.3478 " fill="none" id="recibiendoAsignaturas-to-gestorDeHorarios" style="stroke:#181818;stroke-width:1.0;"/><polygon fill="#181818" points="1489,159.3478,1493,150.3478,1489,154.3478,1485,150.3478,1489,159.3478" style="stroke:#181818;stroke-width:1.0;"/></g><!--SRC=[XLH1JiCm4Bpx5QlSKu4F7910GlH0aIeXyG8tMO9HuaLhXmlgOtW3J-Z7SEeqSPqqv99aTsPsFRi9xJwmS91LQ1tn6f-85MkoS0jhzQNB39I5IV9RWB-OQhY3x95HCVIvJEo5e5vKjRMwzaeF_duK2e70Dcs3J9r0BbSt7I-coPGc9xIhrRKyArTIWSPXLt4T7e_i8TmBKBDZx0IsohHOmrPPhMpSGC-Gyq9o8lHCN25u7-ndOe3LbL6kvM33y1PE5ILJnHUcYbMZ2dtuDR0vSsUWoILDENDSXytXn-d20pURiqOP2xtJQ4hgJBT7hIJczVR2a4DWNRqxeBSKuUkzOWYY0KUb9zNz-ApmCEZeSqLxbzEwf_1YwHDeKjtlQKt3r9OR66sSd7tCB3imuYxw4476Pi8taND-F_4pxFriQbZg93kuCIph9K2yVcc9gD5uenPW8jsMlFJOzCSXPcRx7p0Um2ps3m00]--></g></svg>