<?xml version="1.0" encoding="us-ascii" standalone="no"?><svg xmlns="http://www.w3.org/2000/svg" xmlns:xlink="http://www.w3.org/1999/xlink" contentStyleType="text/css" height="232px" preserveAspectRatio="none" style="width:1827px;height:232px;background:#FFFFFF;" version="1.1" viewBox="0 0 1827 232" width="1827px" zoomAndPan="magnify"><defs/><g><g id="elem_gestorDeHorarios"><rect fill="#F1F1F1" height="44.5938" style="stroke:#181818;stroke-width:0.5;" width="193" x="1307.5" y="181.078"/><text fill="#000000" font-family="sans-serif" font-size="14" lengthAdjust="spacing" textLength="179" x="1314.5" y="196.0731">gestorDeHorarios : David</text><line style="stroke:#181818;stroke-width:0.5;" x1="1308.5" x2="1499.5" y1="201.3749" y2="201.3749"/><text fill="#000000" font-family="sans-serif" font-size="14" lengthAdjust="spacing" textLength="147" x="1313.5" y="218.37">rol = "Crear Horario"</text></g><g id="elem_aula1"><rect fill="#F1F1F1" height="44.5938" style="stroke:#181818;stroke-width:0.5;" width="128" x="7" y="76.078"/><text fill="#000000" font-family="sans-serif" font-size="14" lengthAdjust="spacing" textLength="80" x="31" y="91.0731">aula1 : Aula</text><line style="stroke:#181818;stroke-width:0.5;" x1="8" x2="134" y1="96.3749" y2="96.3749"/><text fill="#000000" font-family="sans-serif" font-size="14" lengthAdjust="spacing" textLength="116" x="13" y="113.37">numero = "-2.6"</text></g><g id="elem_aula2"><rect fill="#F1F1F1" height="44.5938" style="stroke:#181818;stroke-width:0.5;" width="131" x="1526.5" y="76.078"/><text fill="#000000" font-family="sans-serif" font-size="14" lengthAdjust="spacing" textLength="79" x="1552.5" y="91.0731">aula2 : Aula</text><line style="stroke:#181818;stroke-width:0.5;" x1="1527.5" x2="1656.5" y1="96.3749" y2="96.3749"/><text fill="#000000" font-family="sans-serif" font-size="14" lengthAdjust="spacing" textLength="119" x="1532.5" y="113.37">numero = "0.12"</text></g><g id="elem_docente1"><rect fill="#F1F1F1" height="44.5938" style="stroke:#181818;stroke-width:0.5;" width="202" x="170" y="76.078"/><text fill="#000000" font-family="sans-serif" font-size="14" lengthAdjust="spacing" textLength="144" x="199" y="91.0731">docente1 : Docente</text><line style="stroke:#181818;stroke-width:0.5;" x1="171" x2="371" y1="96.3749" y2="96.3749"/><text fill="#000000" font-family="sans-serif" font-size="14" lengthAdjust="spacing" textLength="190" x="176" y="113.37">nombre = "Manuel Masias"</text></g><g id="elem_docente2"><rect fill="#F1F1F1" height="44.5938" style="stroke:#181818;stroke-width:0.5;" width="194" x="407" y="76.078"/><text fill="#000000" font-family="sans-serif" font-size="14" lengthAdjust="spacing" textLength="143" x="432.5" y="91.0731">docente2 : Docente</text><line style="stroke:#181818;stroke-width:0.5;" x1="408" x2="600" y1="96.3749" y2="96.3749"/><text fill="#000000" font-family="sans-serif" font-size="14" lengthAdjust="spacing" textLength="182" x="413" y="113.37">nombre = "Jorge Crespo"</text></g><g id="elem_asignatura1"><rect fill="#F1F1F1" height="44.5938" style="stroke:#181818;stroke-width:0.5;" width="209" x="831.5" y="76.078"/><text fill="#000000" font-family="sans-serif" font-size="14" lengthAdjust="spacing" textLength="172" x="850" y="91.0731">asignatura1 : Asignatura</text><line style="stroke:#181818;stroke-width:0.5;" x1="832.5" x2="1039.5" y1="96.3749" y2="96.3749"/><text fill="#000000" font-family="sans-serif" font-size="14" lengthAdjust="spacing" textLength="197" x="837.5" y="113.37">nombre = "Programaci&#243;n I"</text></g><g id="elem_asignatura2"><rect fill="#F1F1F1" height="44.5938" style="stroke:#181818;stroke-width:0.5;" width="206" x="1076" y="76.078"/><text fill="#000000" font-family="sans-serif" font-size="14" lengthAdjust="spacing" textLength="171" x="1093.5" y="91.0731">asignatura2 : Asignatura</text><line style="stroke:#181818;stroke-width:0.5;" x1="1077" x2="1281" y1="96.3749" y2="96.3749"/><text fill="#000000" font-family="sans-serif" font-size="14" lengthAdjust="spacing" textLength="194" x="1082" y="113.37">nombre = "Matem&#225;ticas II"</text></g><g id="elem_recibiendoAulas"><rect fill="#F1F1F1" height="36.2969" style="stroke:#181818;stroke-width:0.5;" width="128" x="1693" y="80.578"/><text fill="#000000" font-family="sans-serif" font-size="14" lengthAdjust="spacing" textLength="114" x="1700" y="95.5731">recibiendoAulas</text><line style="stroke:#181818;stroke-width:0.5;" x1="1694" x2="1820" y1="100.8749" y2="100.8749"/></g><g id="elem_recibiendoDocentes"><rect fill="#F1F1F1" height="36.2969" style="stroke:#181818;stroke-width:0.5;" width="160" x="636" y="80.578"/><text fill="#000000" font-family="sans-serif" font-size="14" lengthAdjust="spacing" textLength="146" x="643" y="95.5731">recibiendoDocentes</text><line style="stroke:#181818;stroke-width:0.5;" x1="637" x2="795" y1="100.8749" y2="100.8749"/></g><g id="elem_recibiendoAsignaturas"><rect fill="#F1F1F1" height="36.2969" style="stroke:#181818;stroke-width:0.5;" width="174" x="1317" y="80.578"/><text fill="#000000" font-family="sans-serif" font-size="14" lengthAdjust="spacing" textLength="160" x="1324" y="95.5731">recibiendoAsignaturas</text><line style="stroke:#181818;stroke-width:0.5;" x1="1318" x2="1490" y1="100.8749" y2="100.8749"/></g><!--link aula1 to recibiendoAulas--><g id="link_aula1_recibiendoAulas"><path codeLine="33" d="M103.5202,76.018 C121.965,64.604 146,51.95 169.5,46.078 C329.902,6 1497.01,6.335 1657.5,46.078 C1684.23,52.698 1706.6492,64.7133 1725.9392,77.0823 " fill="none" id="aula1-to-recibiendoAulas" style="stroke:#181818;stroke-width:1.0;"/><polygon fill="#181818" points="1730.99,80.321,1725.5728,72.0958,1726.781,77.6221,1721.2546,78.8302,1730.99,80.321" style="stroke:#181818;stroke-width:1.0;"/></g><!--link aula2 to recibiendoAulas--><g id="link_aula2_recibiendoAulas"><path codeLine="34" d="M1657.74,98.578 C1669.37,98.578 1675.01,98.578 1686.64,98.578 " fill="none" id="aula2-to-recibiendoAulas" style="stroke:#181818;stroke-width:1.0;"/><polygon fill="#181818" points="1692.64,98.578,1683.64,94.578,1687.64,98.578,1683.64,102.578,1692.64,98.578" style="stroke:#181818;stroke-width:1.0;"/></g><!--link docente1 to recibiendoDocentes--><g id="link_docente1_recibiendoDocentes"><path codeLine="35" d="M316.78,75.958 C342.469,64.526 375.502,51.873 406.5,46.078 C491.254,30.233 516.232,27.825 600.5,46.078 C631.069,52.699 658.0041,65.2376 680.6141,77.6666 " fill="none" id="docente1-to-recibiendoDocentes" style="stroke:#181818;stroke-width:1.0;"/><polygon fill="#181818" points="685.872,80.557,679.912,72.7162,681.4904,78.1484,676.0582,79.7268,685.872,80.557" style="stroke:#181818;stroke-width:1.0;"/></g><!--link docente2 to recibiendoDocentes--><g id="link_docente2_recibiendoDocentes"><path codeLine="36" d="M601.305,98.578 C612.804,98.578 618.303,98.578 629.803,98.578 " fill="none" id="docente2-to-recibiendoDocentes" style="stroke:#181818;stroke-width:1.0;"/><polygon fill="#181818" points="635.803,98.578,626.803,94.578,630.803,98.578,626.803,102.578,635.803,98.578" style="stroke:#181818;stroke-width:1.0;"/></g><!--link asignatura1 to recibiendoAsignaturas--><g id="link_asignatura1_recibiendoAsignaturas"><path codeLine="37" d="M983.557,75.953 C1010.22,64.52 1044.47,51.867 1076.5,46.078 C1166.6,29.795 1192.84,27.536 1282.5,46.078 C1314.45,52.686 1343.0194,65.3436 1366.8694,77.7756 " fill="none" id="asignatura1-to-recibiendoAsignaturas" style="stroke:#181818;stroke-width:1.0;"/><polygon fill="#181818" points="1372.19,80.549,1366.0581,72.8419,1367.7562,78.2378,1362.3602,79.936,1372.19,80.549" style="stroke:#181818;stroke-width:1.0;"/></g><!--link asignatura2 to recibiendoAsignaturas--><g id="link_asignatura2_recibiendoAsignaturas"><path codeLine="38" d="M1282.27,98.578 C1293.84,98.578 1299.41,98.578 1310.98,98.578 " fill="none" id="asignatura2-to-recibiendoAsignaturas" style="stroke:#181818;stroke-width:1.0;"/><polygon fill="#181818" points="1316.98,98.578,1307.98,94.578,1311.98,98.578,1307.98,102.578,1316.98,98.578" style="stroke:#181818;stroke-width:1.0;"/></g><!--link recibiendoAulas to gestorDeHorarios--><g id="link_recibiendoAulas_gestorDeHorarios"><path codeLine="40" d="M1698.71,116.586 C1638.2,134.2421 1549.1398,160.227 1483.4698,179.3894 " fill="none" id="recibiendoAulas-to-gestorDeHorarios" style="stroke:#181818;stroke-width:1.0;"/><polygon fill="#181818" points="1477.71,181.0701,1487.4702,182.3889,1482.5098,179.6695,1485.2292,174.7092,1477.71,181.0701" style="stroke:#181818;stroke-width:1.0;"/></g><!--link recibiendoDocentes to gestorDeHorarios--><g id="link_recibiendoDocentes_gestorDeHorarios"><path codeLine="41" d="M790.787,116.62 C798.609,118.213 806.455,119.731 814,121.078 C986.924,151.9408 1184.1915,177.0261 1301.3515,190.886 " fill="none" id="recibiendoDocentes-to-gestorDeHorarios" style="stroke:#181818;stroke-width:1.0;"/><polygon fill="#181818" points="1307.31,191.5909,1298.8422,186.5613,1302.3446,191.0035,1297.9024,194.5059,1307.31,191.5909" style="stroke:#181818;stroke-width:1.0;"/></g><!--link recibiendoAsignaturas to gestorDeHorarios--><g id="link_recibiendoAsignaturas_gestorDeHorarios"><path codeLine="42" d="M1404,116.586 C1404,134.185 1404,155.7287 1404,174.8838 " fill="none" id="recibiendoAsignaturas-to-gestorDeHorarios" style="stroke:#181818;stroke-width:1.0;"/><polygon fill="#181818" points="1404,180.8838,1408,171.8838,1404,175.8838,1400,171.8838,1404,180.8838" style="stroke:#181818;stroke-width:1.0;"/></g><!--SRC=[XLD1ReCm4Bpx5HPteiQ77YgrKjKSIgL8_OA15N85tcfjUgdocBwXJyZ7QZ01OvoK2x0xCpiUsrX-G6Lvre2nI0TuHPAaqF07Vf1VgiwuD7pJ_6RSFOGjV-JP2u4aFlKoTc8C9r7PjtBlb9xTUnJo1S_MVGU4Wq0kTlS3BwI9c2OsjBlTNgp6rLY1jZ1CFFZFaJsN9m7iIe91u2Xr3oq_IgEa2GrC394M4XkXDwG6kCl1V4O16DLeQNloCSn_VbL1CrPy9sn8Th9Ivr_DYrKwCqtSqXI9vLhepZzMLGvO52kZ19Kg5UWQXz3Dg1NLdDufWPy2YYcNyXNMOdipQ-cCNERFJ4xvK-o8-NEHRCsR7dKlljYycTS0uVR48nQFB4py1ep5QUQrmyONYoK2_0yO1fR4_W40]--></g></svg>