<?xml version="1.0" encoding="us-ascii" standalone="no"?><svg xmlns="http://www.w3.org/2000/svg" xmlns:xlink="http://www.w3.org/1999/xlink" contentStyleType="text/css" height="758px" preserveAspectRatio="none" style="width:487px;height:758px;background:#FFFFFF;" version="1.1" viewBox="0 0 487 758" width="487px" zoomAndPan="magnify"><defs/><g><ellipse cx="260" cy="20" fill="#222222" rx="10" ry="10" style="stroke:#222222;stroke-width:1.0;"/><rect fill="#F1F1F1" height="33.9688" rx="12.5" ry="12.5" style="stroke:#181818;stroke-width:0.5;" width="86" x="217" y="50"/><text fill="#000000" font-family="sans-serif" font-size="12" lengthAdjust="spacing" textLength="66" x="227" y="71.1387">Leer huella</text><polygon fill="#F1F1F1" points="227,103.9688,293,103.9688,305,115.9688,293,127.9688,227,127.9688,215,115.9688,227,103.9688" style="stroke:#181818;stroke-width:0.5;"/><text fill="#000000" font-family="sans-serif" font-size="11" lengthAdjust="spacing" textLength="66" x="227" y="119.7769">Registrada?</text><text fill="#000000" font-family="sans-serif" font-size="11" lengthAdjust="spacing" textLength="11" x="204" y="113.3745">S&#237;</text><text fill="#000000" font-family="sans-serif" font-size="11" lengthAdjust="spacing" textLength="15" x="305" y="113.3745">No</text><rect fill="#F1F1F1" height="33.9688" rx="12.5" ry="12.5" style="stroke:#181818;stroke-width:0.5;" width="136" x="68.5" y="137.9688"/><text fill="#000000" font-family="sans-serif" font-size="12" lengthAdjust="spacing" textLength="116" x="78.5" y="159.1074">Obtener trabajador</text><rect fill="#F1F1F1" height="33.9688" rx="12.5" ry="12.5" style="stroke:#181818;stroke-width:0.5;" width="149" x="62" y="191.9375"/><text fill="#000000" font-family="sans-serif" font-size="12" lengthAdjust="spacing" textLength="129" x="72" y="213.0762">Obtener fecha y hora</text><rect fill="#F1F1F1" height="33.9688" rx="12.5" ry="12.5" style="stroke:#181818;stroke-width:0.5;" width="117" x="78" y="245.9063"/><text fill="#000000" font-family="sans-serif" font-size="12" lengthAdjust="spacing" textLength="97" x="88" y="267.0449">Registrar fichaje</text><rect fill="#F1F1F1" height="33.9688" rx="12.5" ry="12.5" style="stroke:#181818;stroke-width:0.5;" width="128" x="72.5" y="355.5854"/><text fill="#000000" font-family="sans-serif" font-size="12" lengthAdjust="spacing" textLength="108" x="82.5" y="376.7241">Contabilizar horas</text><polygon fill="#F1F1F1" points="102,299.875,171,299.875,183,311.875,171,323.875,102,323.875,90,311.875,102,299.875" style="stroke:#181818;stroke-width:0.5;"/><text fill="#000000" font-family="sans-serif" font-size="11" lengthAdjust="spacing" textLength="11" x="140.5" y="334.0854">S&#237;</text><text fill="#000000" font-family="sans-serif" font-size="11" lengthAdjust="spacing" textLength="69" x="102" y="315.6831">Trabajando?</text><polygon fill="#F1F1F1" points="89.5,431.5542,183.5,431.5542,195.5,443.5542,183.5,455.5542,89.5,455.5542,77.5,443.5542,89.5,431.5542" style="stroke:#181818;stroke-width:0.5;"/><text fill="#000000" font-family="sans-serif" font-size="11" lengthAdjust="spacing" textLength="94" x="89.5" y="447.3623">Fuera de horario</text><text fill="#000000" font-family="sans-serif" font-size="11" lengthAdjust="spacing" textLength="11" x="66.5" y="440.96">S&#237;</text><text fill="#000000" font-family="sans-serif" font-size="11" lengthAdjust="spacing" textLength="15" x="195.5" y="440.96">No</text><rect fill="#F1F1F1" height="33.9688" rx="12.5" ry="12.5" style="stroke:#181818;stroke-width:0.5;" width="113" x="11" y="465.5542"/><text fill="#000000" font-family="sans-serif" font-size="12" lengthAdjust="spacing" textLength="93" x="21" y="486.6929">Registrar salida</text><rect fill="#F1F1F1" height="33.9688" rx="12.5" ry="12.5" style="stroke:#181818;stroke-width:0.5;" width="110" x="150.5" y="465.5542"/><text fill="#000000" font-family="sans-serif" font-size="12" lengthAdjust="spacing" textLength="90" x="160.5" y="486.6929">Esperar fichaje</text><polygon fill="#F1F1F1" points="136.5,505.5229,148.5,517.5229,136.5,529.5229,124.5,517.5229,136.5,505.5229" style="stroke:#181818;stroke-width:0.5;"/><rect fill="#F1F1F1" height="33.9688" rx="12.5" ry="12.5" style="stroke:#181818;stroke-width:0.5;" width="119" x="77" y="597.9253"/><text fill="#000000" font-family="sans-serif" font-size="12" lengthAdjust="spacing" textLength="99" x="87" y="619.064">Generar informe</text><polygon fill="#F1F1F1" points="86,549.5229,187,549.5229,199,561.5229,187,573.5229,86,573.5229,74,561.5229,86,549.5229" style="stroke:#181818;stroke-width:0.5;"/><text fill="#000000" font-family="sans-serif" font-size="11" lengthAdjust="spacing" textLength="11" x="140.5" y="583.7334">S&#237;</text><text fill="#000000" font-family="sans-serif" font-size="11" lengthAdjust="spacing" textLength="101" x="86" y="565.3311">Final de semana?</text><polygon fill="#F1F1F1" points="136.5,651.894,148.5,663.894,136.5,675.894,124.5,663.894,136.5,651.894" style="stroke:#181818;stroke-width:0.5;"/><rect fill="#F1F1F1" height="33.9688" rx="12.5" ry="12.5" style="stroke:#181818;stroke-width:0.5;" width="186" x="290.5" y="137.9688"/><text fill="#000000" font-family="sans-serif" font-size="12" lengthAdjust="spacing" textLength="166" x="300.5" y="159.1074">Error "Huella no registrada"</text><polygon fill="#F1F1F1" points="260,681.894,272,693.894,260,705.894,248,693.894,260,681.894" style="stroke:#181818;stroke-width:0.5;"/><ellipse cx="260" cy="736.894" fill="none" rx="11" ry="11" style="stroke:#222222;stroke-width:1.0;"/><ellipse cx="260" cy="736.894" fill="#222222" rx="6" ry="6" style="stroke:#222222;stroke-width:1.0;"/><line style="stroke:#181818;stroke-width:1.0;" x1="260" x2="260" y1="30" y2="50"/><polygon fill="#181818" points="256,40,260,50,264,40,260,44" style="stroke:#181818;stroke-width:1.0;"/><line style="stroke:#181818;stroke-width:1.0;" x1="136.5" x2="136.5" y1="171.9375" y2="191.9375"/><polygon fill="#181818" points="132.5,181.9375,136.5,191.9375,140.5,181.9375,136.5,185.9375" style="stroke:#181818;stroke-width:1.0;"/><line style="stroke:#181818;stroke-width:1.0;" x1="136.5" x2="136.5" y1="225.9063" y2="245.9063"/><polygon fill="#181818" points="132.5,235.9063,136.5,245.9063,140.5,235.9063,136.5,239.9063" style="stroke:#181818;stroke-width:1.0;"/><line style="stroke:#181818;stroke-width:1.0;" x1="136.5" x2="136.5" y1="323.875" y2="355.5854"/><polygon fill="#181818" points="132.5,345.5854,136.5,355.5854,140.5,345.5854,136.5,349.5854" style="stroke:#181818;stroke-width:1.0;"/><line style="stroke:#181818;stroke-width:1.0;" x1="136.5" x2="136.5" y1="389.5542" y2="399.5542"/><line style="stroke:#181818;stroke-width:1.0;" x1="136.5" x2="212.5" y1="399.5542" y2="399.5542"/><polygon fill="#181818" points="208.5,364.1675,212.5,354.1675,216.5,364.1675,212.5,360.1675" style="stroke:#181818;stroke-width:1.0;"/><line style="stroke:#181818;stroke-width:1.0;" x1="212.5" x2="212.5" y1="311.875" y2="399.5542"/><line style="stroke:#181818;stroke-width:1.0;" x1="212.5" x2="183" y1="311.875" y2="311.875"/><polygon fill="#181818" points="193,307.875,183,311.875,193,315.875,189,311.875" style="stroke:#181818;stroke-width:1.0;"/><line style="stroke:#181818;stroke-width:1.0;" x1="90" x2="60.5" y1="311.875" y2="311.875"/><polygon fill="#181818" points="56.5,350.1675,60.5,360.1675,64.5,350.1675,60.5,354.1675" style="stroke:#181818;stroke-width:1.0;"/><line style="stroke:#181818;stroke-width:1.0;" x1="60.5" x2="60.5" y1="311.875" y2="411.5542"/><line style="stroke:#181818;stroke-width:1.0;" x1="60.5" x2="136.5" y1="411.5542" y2="411.5542"/><line style="stroke:#181818;stroke-width:1.0;" x1="136.5" x2="136.5" y1="411.5542" y2="431.5542"/><polygon fill="#181818" points="132.5,421.5542,136.5,431.5542,140.5,421.5542,136.5,425.5542" style="stroke:#181818;stroke-width:1.0;"/><line style="stroke:#181818;stroke-width:1.0;" x1="136.5" x2="136.5" y1="279.875" y2="299.875"/><polygon fill="#181818" points="132.5,289.875,136.5,299.875,140.5,289.875,136.5,293.875" style="stroke:#181818;stroke-width:1.0;"/><line style="stroke:#181818;stroke-width:1.0;" x1="77.5" x2="67.5" y1="443.5542" y2="443.5542"/><line style="stroke:#181818;stroke-width:1.0;" x1="67.5" x2="67.5" y1="443.5542" y2="465.5542"/><polygon fill="#181818" points="63.5,455.5542,67.5,465.5542,71.5,455.5542,67.5,459.5542" style="stroke:#181818;stroke-width:1.0;"/><line style="stroke:#181818;stroke-width:1.0;" x1="195.5" x2="205.5" y1="443.5542" y2="443.5542"/><line style="stroke:#181818;stroke-width:1.0;" x1="205.5" x2="205.5" y1="443.5542" y2="465.5542"/><polygon fill="#181818" points="201.5,455.5542,205.5,465.5542,209.5,455.5542,205.5,459.5542" style="stroke:#181818;stroke-width:1.0;"/><line style="stroke:#181818;stroke-width:1.0;" x1="67.5" x2="67.5" y1="499.5229" y2="517.5229"/><line style="stroke:#181818;stroke-width:1.0;" x1="67.5" x2="124.5" y1="517.5229" y2="517.5229"/><polygon fill="#181818" points="114.5,513.5229,124.5,517.5229,114.5,521.5229,118.5,517.5229" style="stroke:#181818;stroke-width:1.0;"/><line style="stroke:#181818;stroke-width:1.0;" x1="205.5" x2="205.5" y1="499.5229" y2="517.5229"/><line style="stroke:#181818;stroke-width:1.0;" x1="205.5" x2="148.5" y1="517.5229" y2="517.5229"/><polygon fill="#181818" points="158.5,513.5229,148.5,517.5229,158.5,521.5229,154.5,517.5229" style="stroke:#181818;stroke-width:1.0;"/><line style="stroke:#181818;stroke-width:1.0;" x1="136.5" x2="136.5" y1="573.5229" y2="597.9253"/><polygon fill="#181818" points="132.5,587.9253,136.5,597.9253,140.5,587.9253,136.5,591.9253" style="stroke:#181818;stroke-width:1.0;"/><line style="stroke:#181818;stroke-width:1.0;" x1="199" x2="211" y1="561.5229" y2="561.5229"/><polygon fill="#181818" points="207,604.9097,211,614.9097,215,604.9097,211,608.9097" style="stroke:#181818;stroke-width:1.0;"/><line style="stroke:#181818;stroke-width:1.0;" x1="211" x2="211" y1="561.5229" y2="663.894"/><line style="stroke:#181818;stroke-width:1.0;" x1="211" x2="148.5" y1="663.894" y2="663.894"/><polygon fill="#181818" points="158.5,659.894,148.5,663.894,158.5,667.894,154.5,663.894" style="stroke:#181818;stroke-width:1.0;"/><line style="stroke:#181818;stroke-width:1.0;" x1="136.5" x2="136.5" y1="631.894" y2="651.894"/><polygon fill="#181818" points="132.5,641.894,136.5,651.894,140.5,641.894,136.5,645.894" style="stroke:#181818;stroke-width:1.0;"/><line style="stroke:#181818;stroke-width:1.0;" x1="136.5" x2="136.5" y1="529.5229" y2="549.5229"/><polygon fill="#181818" points="132.5,539.5229,136.5,549.5229,140.5,539.5229,136.5,543.5229" style="stroke:#181818;stroke-width:1.0;"/><line style="stroke:#181818;stroke-width:1.0;" x1="215" x2="136.5" y1="115.9688" y2="115.9688"/><line style="stroke:#181818;stroke-width:1.0;" x1="136.5" x2="136.5" y1="115.9688" y2="137.9688"/><polygon fill="#181818" points="132.5,127.9688,136.5,137.9688,140.5,127.9688,136.5,131.9688" style="stroke:#181818;stroke-width:1.0;"/><line style="stroke:#181818;stroke-width:1.0;" x1="305" x2="383.5" y1="115.9688" y2="115.9688"/><line style="stroke:#181818;stroke-width:1.0;" x1="383.5" x2="383.5" y1="115.9688" y2="137.9688"/><polygon fill="#181818" points="379.5,127.9688,383.5,137.9688,387.5,127.9688,383.5,131.9688" style="stroke:#181818;stroke-width:1.0;"/><line style="stroke:#181818;stroke-width:1.0;" x1="136.5" x2="136.5" y1="675.894" y2="693.894"/><line style="stroke:#181818;stroke-width:1.0;" x1="136.5" x2="248" y1="693.894" y2="693.894"/><polygon fill="#181818" points="238,689.894,248,693.894,238,697.894,242,693.894" style="stroke:#181818;stroke-width:1.0;"/><line style="stroke:#181818;stroke-width:1.0;" x1="383.5" x2="383.5" y1="171.9375" y2="693.894"/><line style="stroke:#181818;stroke-width:1.0;" x1="383.5" x2="272" y1="693.894" y2="693.894"/><polygon fill="#181818" points="282,689.894,272,693.894,282,697.894,278,693.894" style="stroke:#181818;stroke-width:1.0;"/><line style="stroke:#181818;stroke-width:1.0;" x1="260" x2="260" y1="83.9688" y2="103.9688"/><polygon fill="#181818" points="256,93.9688,260,103.9688,264,93.9688,260,97.9688" style="stroke:#181818;stroke-width:1.0;"/><line style="stroke:#181818;stroke-width:1.0;" x1="260" x2="260" y1="705.894" y2="725.894"/><polygon fill="#181818" points="256,715.894,260,725.894,264,715.894,260,719.894" style="stroke:#181818;stroke-width:1.0;"/><!--SRC=[PP11JWCn34NtEONLrVGACmiMLO45eXBq0XxY8QxIk79I8RWJf-1YE1bQHh2B_Ft_-t4kgCMv_e588PmfHXmSJz0zqIldekZnPWqbK8Bk-UjpxG3wtLWesRgf8nxGYmxByKGl0U4TWYWsuH9b4fjqe3fz2nm9klsSaRmOXlCLOhQDf88ZH_umPmtBrKV9DwizQytRCoc2fxQWBCkkCEVyuZD6zgqJnMpmH_b1RVE9_lGp3ayN22UC5PBfYEdVGIpWhlxS0ZXDeiT5m1BKRrL5ONNVpWn9GAz7NWrkDhXSvFGD]--></g></svg>