<?xml version="1.0" encoding="UTF-8" standalone="no"?><svg xmlns="http://www.w3.org/2000/svg" xmlns:xlink="http://www.w3.org/1999/xlink" contentStyleType="text/css" height="391px" preserveAspectRatio="none" style="width:868px;height:391px;background:#FFFFFF;" version="1.1" viewBox="0 0 868 391" width="868px" zoomAndPan="magnify"><defs/><g><rect fill="none" height="29.0679" id="_title" style="stroke:none;stroke-width:1.0;" width="179" x="337.5" y="5"/><text fill="#000000" font-family="sans-serif" font-size="14" font-weight="bold" lengthAdjust="spacing" textLength="169" x="342.5" y="24.9659">Contexto Administrador</text><ellipse cx="67" cy="56.0679" fill="#222222" rx="10" ry="10" style="stroke:none;stroke-width:1.0;"/><rect fill="#F1F1F1" height="40" rx="12.5" ry="12.5" style="stroke:#181818;stroke-width:0.5;" width="120" x="7" y="127.0679"/><text fill="#000000" font-family="sans-serif" font-size="14" lengthAdjust="spacing" textLength="110" x="12" y="152.4999">INICIAR_SESIÓN</text><rect fill="#F1F1F1" height="40" rx="12.5" ry="12.5" style="stroke:#181818;stroke-width:0.5;" width="56" x="39" y="246.0679"/><text fill="#000000" font-family="sans-serif" font-size="14" lengthAdjust="spacing" textLength="46" x="44" y="271.4999">INICIO</text><rect fill="#F1F1F1" height="40" rx="12.5" ry="12.5" style="stroke:#181818;stroke-width:0.5;" width="127" x="130.5" y="246.0679"/><text fill="#000000" font-family="sans-serif" font-size="14" lengthAdjust="spacing" textLength="117" x="135.5" y="271.4999">CONFIGURACIÓN</text><rect fill="#F1F1F1" height="40" rx="12.5" ry="12.5" style="stroke:#181818;stroke-width:0.5;" width="176" x="686" y="246.0679"/><text fill="#000000" font-family="sans-serif" font-size="14" lengthAdjust="spacing" textLength="166" x="691" y="271.4999">LISTAR_DATOS_USUARIO</text><rect fill="#F1F1F1" height="40" rx="12.5" ry="12.5" style="stroke:#181818;stroke-width:0.5;" width="179" x="472.5" y="246.0679"/><text fill="#000000" font-family="sans-serif" font-size="14" lengthAdjust="spacing" textLength="169" x="477.5" y="271.4999">EDITAR_DATOS_USUARIO</text><rect fill="#F1F1F1" height="40" rx="12.5" ry="12.5" style="stroke:#181818;stroke-width:0.5;" width="145" x="292.5" y="246.0679"/><text fill="#000000" font-family="sans-serif" font-size="14" lengthAdjust="spacing" textLength="135" x="297.5" y="271.4999">REALIZAR_PETICIÓN</text><ellipse cx="130" cy="375.0679" fill="none" rx="10" ry="10" style="stroke:#222222;stroke-width:1.0;"/><ellipse cx="130.5" cy="375.5679" fill="#222222" rx="6" ry="6" style="stroke:none;stroke-width:1.0;"/><!--MD5=[fffa5c9a6c2a3d9bbcf62492fefaaec1]
link *start to INICIAR_SESIÓN--><g id="link_*start_INICIAR_SESIÓN"><path d="M67,66.2579 C67,78.9179 67,102.2079 67,120.3779 " fill="none" id="*start-to-INICIAR_SESIÓN" style="stroke:#181818;stroke-width:1.0;"/><polygon fill="#181818" points="67,125.2979,71,116.2979,67,120.2979,63,116.2979,67,125.2979" style="stroke:#181818;stroke-width:1.0;"/></g><!--MD5=[66837f7cee128dc6ca7363ed13e0752f]
link INICIAR_SESIÓN to INICIO--><g id="link_INICIAR_SESIÓN_INICIO"><path d="M67,167.3879 C67,187.0379 67,217.5879 67,239.2879 " fill="none" id="INICIAR_SESIÓN-to-INICIO" style="stroke:#181818;stroke-width:1.0;"/><polygon fill="#181818" points="67,244.2079,71,235.2079,67,239.2079,63,235.2079,67,244.2079" style="stroke:#181818;stroke-width:1.0;"/><text fill="#000000" font-family="sans-serif" font-size="13" lengthAdjust="spacing" textLength="78" x="68" y="211.9649">Iniciar Sesión</text></g><!--MD5=[4cc4cc43b11f3134bf32754e9a51a657]
link INICIO to CONFIGURACIÓN--><g id="link_INICIO_CONFIGURACIÓN"><path d="M95.47,279.5179 C103.13,283.1379 109.33,286.0679 109.33,286.0679 C109.33,286.0679 115.85,286.0679 123.76,286.0679 " fill="none" id="INICIO-to-CONFIGURACIÓN" style="stroke:#181818;stroke-width:1.0;"/><polygon fill="#181818" points="128.49,286.0679,119.49,282.0679,123.49,286.0679,119.49,290.0679,128.49,286.0679" style="stroke:#181818;stroke-width:1.0;"/></g><!--MD5=[0b6bd3b75ec5b2cd13b71c92fb5bba52]
reverse link INICIO to CONFIGURACIÓN--><g id="link_INICIO_CONFIGURACIÓN"><path d="M101.18,249.9179 C105.99,247.6479 109.33,246.0679 109.33,246.0679 C109.33,246.0679 119.59,246.0679 130,246.0679 " fill="none" id="INICIO-backto-CONFIGURACIÓN" style="stroke:#181818;stroke-width:1.0;"/><polygon fill="#181818" points="96.84,251.9679,106.6861,251.7341,101.3596,249.8293,103.2643,244.5028,96.84,251.9679" style="stroke:#181818;stroke-width:1.0;"/></g><!--MD5=[2b48973f0f4dab3fe086fe9341442b92]
link CONFIGURACIÓN to LISTAR_DATOS_USUARIO--><g id="link_CONFIGURACIÓN_LISTAR_DATOS_USUARIO"><path d="M234.91,245.6079 C259.74,233.1979 286.67,219.7379 286.67,219.7379 C286.67,219.7379 657.33,219.7379 657.33,219.7379 C657.33,219.7379 687.13,231.5679 716.61,243.2779 " fill="none" id="CONFIGURACIÓN-to-LISTAR_DATOS_USUARIO" style="stroke:#181818;stroke-width:1.0;"/><polygon fill="#181818" points="721.08,245.0479,714.1906,238.0098,716.4327,243.2033,711.2392,245.4454,721.08,245.0479" style="stroke:#181818;stroke-width:1.0;"/></g><!--MD5=[93948be5496bad843a37381033534260]
reverse link CONFIGURACIÓN to LISTAR_DATOS_USUARIO--><g id="link_CONFIGURACIÓN_LISTAR_DATOS_USUARIO"><path d="M228.51,242.0279 C258.89,220.8679 298.33,193.3979 298.33,193.3979 C298.33,193.3979 645.67,193.3979 645.67,193.3979 C645.67,193.3979 699.95,224.1379 737.91,245.6279 " fill="none" id="CONFIGURACIÓN-backto-LISTAR_DATOS_USUARIO" style="stroke:#181818;stroke-width:1.0;"/><polygon fill="#181818" points="224.58,244.7679,234.2509,242.9041,228.6822,241.9092,229.677,236.3406,224.58,244.7679" style="stroke:#181818;stroke-width:1.0;"/></g><!--MD5=[b2c27f7e4c0447cf73f2ec243833e5b9]
link CONFIGURACIÓN to EDITAR_DATOS_USUARIO--><g id="link_CONFIGURACIÓN_EDITAR_DATOS_USUARIO"><path d="M234.91,245.6079 C259.74,233.1979 286.67,219.7379 286.67,219.7379 C286.67,219.7379 443.33,219.7379 443.33,219.7379 C443.33,219.7379 473.64,231.5679 503.62,243.2779 " fill="none" id="CONFIGURACIÓN-to-EDITAR_DATOS_USUARIO" style="stroke:#181818;stroke-width:1.0;"/><polygon fill="#181818" points="508.2,245.0579,501.2659,238.0638,503.5411,243.2429,498.3619,245.5181,508.2,245.0579" style="stroke:#181818;stroke-width:1.0;"/></g><!--MD5=[708d238ced64878ce1f44dbfe65bcc05]
reverse link CONFIGURACIÓN to EDITAR_DATOS_USUARIO--><g id="link_CONFIGURACIÓN_EDITAR_DATOS_USUARIO"><path d="M228.51,242.0279 C258.89,220.8679 298.33,193.3979 298.33,193.3979 C298.33,193.3979 431.67,193.3979 431.67,193.3979 C431.67,193.3979 486.8,224.1379 525.35,245.6279 " fill="none" id="CONFIGURACIÓN-backto-EDITAR_DATOS_USUARIO" style="stroke:#181818;stroke-width:1.0;"/><polygon fill="#181818" points="224.58,244.7679,234.2509,242.9041,228.6822,241.9092,229.677,236.3406,224.58,244.7679" style="stroke:#181818;stroke-width:1.0;"/></g><!--MD5=[8054eeb7661c50c1d441750ccfdacb1f]
link CONFIGURACIÓN to REALIZAR_PETICIÓN--><g id="link_CONFIGURACIÓN_REALIZAR_PETICIÓN"><path d="M257.99,286.0679 C264.91,286.0679 275.89,286.0679 285.8,286.0679 " fill="none" id="CONFIGURACIÓN-to-REALIZAR_PETICIÓN" style="stroke:#181818;stroke-width:1.0;"/><polygon fill="#181818" points="290.59,286.0679,281.59,282.0679,285.59,286.0679,281.59,290.0679,290.59,286.0679" style="stroke:#181818;stroke-width:1.0;"/></g><!--MD5=[942ea4582faebbfa9f71e8ce6a8f42e1]
reverse link CONFIGURACIÓN to REALIZAR_PETICIÓN--><g id="link_CONFIGURACIÓN_REALIZAR_PETICIÓN"><path d="M264.3,246.0679 C272.6,246.0679 283.35,246.0679 292.1,246.0679 " fill="none" id="CONFIGURACIÓN-backto-REALIZAR_PETICIÓN" style="stroke:#181818;stroke-width:1.0;"/><polygon fill="#181818" points="259.5,246.0679,268.5,250.0679,264.5,246.0679,268.5,242.0679,259.5,246.0679" style="stroke:#181818;stroke-width:1.0;"/></g><!--MD5=[0876ba8a88d8bbcf732e506fae106d5c]
link INICIO to *end--><g id="link_INICIO_*end"><path d="M68.42,286.3679 C69.9,306.4779 72,335.0679 72,335.0679 C72,335.0679 99.44,353.5179 116.58,365.0379 " fill="none" id="INICIO-to-*end" style="stroke:#181818;stroke-width:1.0;"/><polygon fill="#181818" points="120.68,367.7979,115.4632,359.4442,116.5374,364.9981,110.9835,366.0723,120.68,367.7979" style="stroke:#181818;stroke-width:1.0;"/><text fill="#000000" font-family="sans-serif" font-size="13" lengthAdjust="spacing" textLength="74" x="73" y="330.9649">Cerar Sesión</text></g><!--MD5=[f281b6c48a71b2adc9bcfe8dff9d1342]
link CONFIGURACIÓN to *end--><g id="link_CONFIGURACIÓN_*end"><path d="M182.56,286.1979 C169.72,307.6579 149.23,341.9279 138,360.6979 " fill="none" id="CONFIGURACIÓN-to-*end" style="stroke:#181818;stroke-width:1.0;"/><polygon fill="#181818" points="135.61,364.6879,143.6482,358.9969,138.1657,360.3904,136.7722,354.9079,135.61,364.6879" style="stroke:#181818;stroke-width:1.0;"/><text fill="#000000" font-family="sans-serif" font-size="13" lengthAdjust="spacing" textLength="74" x="165" y="330.9649">Cerar Sesión</text></g><!--MD5=[a352fda5abce5ee7288362de2280c5de]
@startuml Contexto
title Contexto Administrador

skinparam {
    NoteBackgroundColor #whiteSmoke
    NoteBorderColor #green
    linetype polyline
}

hide empty description

[*] - -> INICIAR_SESIÓN
INICIAR_SESIÓN - -> INICIO : Iniciar Sesión

INICIO -> CONFIGURACIÓN
INICIO <- CONFIGURACIÓN

CONFIGURACIÓN -> LISTAR_DATOS_USUARIO
CONFIGURACIÓN <- LISTAR_DATOS_USUARIO
CONFIGURACIÓN -> EDITAR_DATOS_USUARIO
CONFIGURACIÓN <- EDITAR_DATOS_USUARIO
CONFIGURACIÓN -> REALIZAR_PETICIÓN
CONFIGURACIÓN <- REALIZAR_PETICIÓN

INICIO - -> [*] : Cerar Sesión
CONFIGURACIÓN - -> [*] : Cerar Sesión

@enduml

PlantUML version 1.2022.7(Mon Aug 22 19:01:30 CEST 2022)
(GPL source distribution)
Java Runtime: OpenJDK Runtime Environment
JVM: OpenJDK 64-Bit Server VM
Default Encoding: UTF-8
Language: es
Country: ES
--></g></svg>