<?xml version="1.0" encoding="UTF-8" standalone="no"?><svg xmlns="http://www.w3.org/2000/svg" xmlns:xlink="http://www.w3.org/1999/xlink" contentStyleType="text/css" height="391px" preserveAspectRatio="none" style="width:870px;height:391px;background:#FFFFFF;" version="1.1" viewBox="0 0 870 391" width="870px" zoomAndPan="magnify"><defs/><g><rect fill="none" height="29.0679" id="_title" style="stroke:none;stroke-width:1.0;" width="179" x="338.5" y="5"/><text fill="#000000" font-family="sans-serif" font-size="14" font-weight="bold" lengthAdjust="spacing" textLength="169" x="343.5" y="24.9659">Contexto Administrador</text><ellipse cx="67" cy="56.0679" fill="#222222" rx="10" ry="10" style="stroke:none;stroke-width:1.0;"/><rect fill="#F1F1F1" height="40" rx="12.5" ry="12.5" style="stroke:#181818;stroke-width:0.5;" width="120" x="7" y="127.0679"/><text fill="#000000" font-family="sans-serif" font-size="14" lengthAdjust="spacing" textLength="110" x="12" y="152.4999">INICIAR_SESIÓN</text><rect fill="#F1F1F1" height="40" rx="12.5" ry="12.5" style="stroke:#181818;stroke-width:0.5;" width="56" x="39" y="246.0679"/><text fill="#000000" font-family="sans-serif" font-size="14" lengthAdjust="spacing" textLength="46" x="44" y="271.4999">INICIO</text><rect fill="#F1F1F1" height="40" rx="12.5" ry="12.5" style="stroke:#181818;stroke-width:0.5;" width="147" x="130.5" y="246.0679"/><text fill="#000000" font-family="sans-serif" font-size="14" lengthAdjust="spacing" textLength="137" x="135.5" y="271.4999">GESTIÓN_PAQUETES</text><rect fill="#F1F1F1" height="40" rx="12.5" ry="12.5" style="stroke:#181818;stroke-width:0.5;" width="127" x="312.5" y="246.0679"/><text fill="#000000" font-family="sans-serif" font-size="14" lengthAdjust="spacing" textLength="117" x="317.5" y="271.4999">CONFIGURACIÓN</text><rect fill="#F1F1F1" height="40" rx="12.5" ry="12.5" style="stroke:#181818;stroke-width:0.5;" width="176" x="688" y="246.0679"/><text fill="#000000" font-family="sans-serif" font-size="14" lengthAdjust="spacing" textLength="166" x="693" y="271.4999">LISTAR_DATOS_USUARIO</text><rect fill="#F1F1F1" height="40" rx="12.5" ry="12.5" style="stroke:#181818;stroke-width:0.5;" width="179" x="474.5" y="246.0679"/><text fill="#000000" font-family="sans-serif" font-size="14" lengthAdjust="spacing" textLength="169" x="479.5" y="271.4999">EDITAR_DATOS_USUARIO</text><ellipse cx="221" cy="375.0679" fill="none" rx="10" ry="10" style="stroke:#222222;stroke-width:1.0;"/><ellipse cx="221.5" cy="375.5679" fill="#222222" rx="6" ry="6" style="stroke:none;stroke-width:1.0;"/><!--MD5=[fffa5c9a6c2a3d9bbcf62492fefaaec1]
link *start to INICIAR_SESIÓN--><g id="link_*start_INICIAR_SESIÓN"><path d="M67,66.2579 C67,78.9179 67,102.2079 67,120.3779 " fill="none" id="*start-to-INICIAR_SESIÓN" style="stroke:#181818;stroke-width:1.0;"/><polygon fill="#181818" points="67,125.2979,71,116.2979,67,120.2979,63,116.2979,67,125.2979" style="stroke:#181818;stroke-width:1.0;"/></g><!--MD5=[66837f7cee128dc6ca7363ed13e0752f]
link INICIAR_SESIÓN to INICIO--><g id="link_INICIAR_SESIÓN_INICIO"><path d="M67,167.3879 C67,187.0379 67,217.5879 67,239.2879 " fill="none" id="INICIAR_SESIÓN-to-INICIO" style="stroke:#181818;stroke-width:1.0;"/><polygon fill="#181818" points="67,244.2079,71,235.2079,67,239.2079,63,235.2079,67,244.2079" style="stroke:#181818;stroke-width:1.0;"/><text fill="#000000" font-family="sans-serif" font-size="13" lengthAdjust="spacing" textLength="78" x="68" y="211.9649">Iniciar Sesión</text></g><!--MD5=[3f0810a6510995f05b80500b04f71fb2]
reverse link INICIO to GESTIÓN_PAQUETES--><g id="link_INICIO_GESTIÓN_PAQUETES"><path d="M101.63,266.0679 C107.99,266.0679 112.67,266.0679 112.67,266.0679 C112.67,266.0679 120.79,266.0679 130.19,266.0679 " fill="none" id="INICIO-backto-GESTIÓN_PAQUETES" style="stroke:#181818;stroke-width:1.0;"/><polygon fill="#181818" points="96.92,266.0679,105.92,270.0679,101.92,266.0679,105.92,262.0679,96.92,266.0679" style="stroke:#181818;stroke-width:1.0;"/></g><!--MD5=[4cc4cc43b11f3134bf32754e9a51a657]
link INICIO to CONFIGURACIÓN--><g id="link_INICIO_CONFIGURACIÓN"><path d="M92.46,245.6079 C107.91,233.1979 124.67,219.7379 124.67,219.7379 C124.67,219.7379 283.33,219.7379 283.33,219.7379 C283.33,219.7379 306.41,231.2779 329.54,242.8379 " fill="none" id="INICIO-to-CONFIGURACIÓN" style="stroke:#181818;stroke-width:1.0;"/><polygon fill="#181818" points="333.73,244.9379,327.4593,237.3433,329.255,242.7076,323.8907,244.5033,333.73,244.9379" style="stroke:#181818;stroke-width:1.0;"/></g><!--MD5=[0b6bd3b75ec5b2cd13b71c92fb5bba52]
reverse link INICIO to CONFIGURACIÓN--><g id="link_INICIO_CONFIGURACIÓN"><path d="M90.76,241.1679 C110.83,220.1279 136.33,193.3979 136.33,193.3979 C136.33,193.3979 271.67,193.3979 271.67,193.3979 C271.67,193.3979 315.8,224.1379 346.66,245.6279 " fill="none" id="INICIO-backto-CONFIGURACIÓN" style="stroke:#181818;stroke-width:1.0;"/><polygon fill="#181818" points="87.36,244.7279,96.4564,240.9523,90.8015,241.1008,90.653,235.4459,87.36,244.7279" style="stroke:#181818;stroke-width:1.0;"/></g><!--MD5=[2b48973f0f4dab3fe086fe9341442b92]
link CONFIGURACIÓN to LISTAR_DATOS_USUARIO--><g id="link_CONFIGURACIÓN_LISTAR_DATOS_USUARIO"><path d="M416.91,245.6079 C441.74,233.1979 468.67,219.7379 468.67,219.7379 C468.67,219.7379 659.33,219.7379 659.33,219.7379 C659.33,219.7379 689.13,231.5679 718.61,243.2779 " fill="none" id="CONFIGURACIÓN-to-LISTAR_DATOS_USUARIO" style="stroke:#181818;stroke-width:1.0;"/><polygon fill="#181818" points="723.08,245.0479,716.1906,238.0098,718.4327,243.2033,713.2392,245.4454,723.08,245.0479" style="stroke:#181818;stroke-width:1.0;"/></g><!--MD5=[93948be5496bad843a37381033534260]
reverse link CONFIGURACIÓN to LISTAR_DATOS_USUARIO--><g id="link_CONFIGURACIÓN_LISTAR_DATOS_USUARIO"><path d="M410.51,242.0279 C440.89,220.8679 480.33,193.3979 480.33,193.3979 C480.33,193.3979 647.67,193.3979 647.67,193.3979 C647.67,193.3979 701.95,224.1379 739.91,245.6279 " fill="none" id="CONFIGURACIÓN-backto-LISTAR_DATOS_USUARIO" style="stroke:#181818;stroke-width:1.0;"/><polygon fill="#181818" points="406.58,244.7679,416.2509,242.9041,410.6822,241.9092,411.677,236.3406,406.58,244.7679" style="stroke:#181818;stroke-width:1.0;"/></g><!--MD5=[b2c27f7e4c0447cf73f2ec243833e5b9]
link CONFIGURACIÓN to EDITAR_DATOS_USUARIO--><g id="link_CONFIGURACIÓN_EDITAR_DATOS_USUARIO"><path d="M439.75,286.0679 C443.33,286.0679 455.17,286.0679 467.53,286.0679 " fill="none" id="CONFIGURACIÓN-to-EDITAR_DATOS_USUARIO" style="stroke:#181818;stroke-width:1.0;"/><polygon fill="#181818" points="472.49,286.0679,463.49,282.0679,467.49,286.0679,463.49,290.0679,472.49,286.0679" style="stroke:#181818;stroke-width:1.0;"/></g><!--MD5=[708d238ced64878ce1f44dbfe65bcc05]
reverse link CONFIGURACIÓN to EDITAR_DATOS_USUARIO--><g id="link_CONFIGURACIÓN_EDITAR_DATOS_USUARIO"><path d="M446.18,246.0679 C453.11,246.0679 463.84,246.0679 474,246.0679 " fill="none" id="CONFIGURACIÓN-backto-EDITAR_DATOS_USUARIO" style="stroke:#181818;stroke-width:1.0;"/><polygon fill="#181818" points="441.27,246.0679,450.27,250.0679,446.27,246.0679,450.27,242.0679,441.27,246.0679" style="stroke:#181818;stroke-width:1.0;"/></g><!--MD5=[0876ba8a88d8bbcf732e506fae106d5c]
link INICIO to *end--><g id="link_INICIO_*end"><path d="M94.89,286.4479 C128.41,309.7379 183.25,347.8379 208.07,365.0879 " fill="none" id="INICIO-to-*end" style="stroke:#181818;stroke-width:1.0;"/><polygon fill="#181818" points="211.92,367.7579,206.7895,359.3509,207.8065,364.9156,202.2418,365.9325,211.92,367.7579" style="stroke:#181818;stroke-width:1.0;"/><text fill="#000000" font-family="sans-serif" font-size="13" lengthAdjust="spacing" textLength="74" x="164" y="330.9649">Cerar Sesión</text></g><!--MD5=[f281b6c48a71b2adc9bcfe8dff9d1342]
link CONFIGURACIÓN to *end--><g id="link_CONFIGURACIÓN_*end"><path d="M347.93,286.4479 C314.19,309.7379 259,347.8379 234.01,365.0879 " fill="none" id="CONFIGURACIÓN-to-*end" style="stroke:#181818;stroke-width:1.0;"/><polygon fill="#181818" points="230.13,367.7679,239.8082,365.9425,234.2435,364.9256,235.2605,359.3609,230.13,367.7679" style="stroke:#181818;stroke-width:1.0;"/><text fill="#000000" font-family="sans-serif" font-size="13" lengthAdjust="spacing" textLength="74" x="304" y="330.9649">Cerar Sesión</text></g><!--MD5=[75f5bc0bd4001dbb00e83809d719a9a8]
@startuml Contexto
title Contexto Administrador

skinparam {
    NoteBackgroundColor #whiteSmoke
    NoteBorderColor #green
    linetype polyline
}

hide empty description

[*] - -> INICIAR_SESIÓN
INICIAR_SESIÓN - -> INICIO : Iniciar Sesión

INICIO <- GESTIÓN_PAQUETES
INICIO -> CONFIGURACIÓN
INICIO <- CONFIGURACIÓN

CONFIGURACIÓN -> LISTAR_DATOS_USUARIO
CONFIGURACIÓN <- LISTAR_DATOS_USUARIO
CONFIGURACIÓN -> EDITAR_DATOS_USUARIO
CONFIGURACIÓN <- EDITAR_DATOS_USUARIO


INICIO - -> [*] : Cerar Sesión
CONFIGURACIÓN - -> [*] : Cerar Sesión

@enduml

PlantUML version 1.2022.7(Mon Aug 22 19:01:30 CEST 2022)
(GPL source distribution)
Java Runtime: OpenJDK Runtime Environment
JVM: OpenJDK 64-Bit Server VM
Default Encoding: UTF-8
Language: es
Country: ES
--></g></svg>