<?xml version="1.0" encoding="UTF-8" standalone="no"?><svg xmlns="http://www.w3.org/2000/svg" xmlns:xlink="http://www.w3.org/1999/xlink" contentStyleType="text/css" height="873px" preserveAspectRatio="none" style="width:580px;height:873px;background:#FFFFFF;" version="1.1" viewBox="0 0 580 873" width="580px" zoomAndPan="magnify"><defs/><g><rect fill="none" height="27.6094" id="_title" style="stroke:none;stroke-width:1.0;" width="153" x="203.5" y="5"/><text fill="#000000" font-family="sans-serif" font-size="14" font-weight="bold" lengthAdjust="spacing" textLength="143" x="208.5" y="24.5332">Editar Administrador</text><rect fill="#F1F1F1" height="40" rx="12.5" ry="12.5" style="stroke:#181818;stroke-width:0.5;" width="141" x="216.5" y="45.6094"/><text fill="#000000" font-family="sans-serif" font-size="14" lengthAdjust="spacing" textLength="131" x="221.5" y="71.3379">ADMINISTRADORES</text><path d="M19.5,197.6094 L554.5,197.6094 A12.5,12.5 0 0 1 567,210.1094 L567,225.2188 L7,225.2188 L7,210.1094 A12.5,12.5 0 0 1 19.5,197.6094 " fill="#F1F1F1" style="stroke:#F1F1F1;stroke-width:1.0;"/><rect fill="none" height="669.6094" rx="12.5" ry="12.5" style="stroke:#181818;stroke-width:0.5;" width="560" x="7" y="197.6094"/><line style="stroke:#181818;stroke-width:0.5;" x1="7" x2="567" y1="225.2188" y2="225.2188"/><text fill="#000000" font-family="sans-serif" font-size="14" lengthAdjust="spacing" textLength="124" x="225" y="217.1426">EditarAdministrador</text><rect fill="#F1F1F1" height="40" rx="12.5" ry="12.5" style="stroke:#181818;stroke-width:0.5;" width="50" x="133" y="293.2188"/><text fill="#000000" font-family="sans-serif" font-size="14" lengthAdjust="spacing" textLength="4" x="156" y="318.9473"> </text><rect fill="#F1F1F1" height="40" rx="12.5" ry="12.5" style="stroke:#181818;stroke-width:0.5;" width="50" x="19" y="525.2188"/><text fill="#000000" font-family="sans-serif" font-size="14" lengthAdjust="spacing" textLength="4" x="42" y="550.9473"> </text><g id="elem_4"><polygon fill="#F1F1F1" points="172,725.2188,184,737.2188,172,749.2188,160,737.2188,172,725.2188" style="stroke:#181818;stroke-width:0.5;"/></g><ellipse cx="158" cy="246.2188" fill="#222222" rx="10" ry="10" style="stroke:none;stroke-width:1.0;"/><ellipse cx="172" cy="847.2188" fill="none" rx="10" ry="10" style="stroke:#222222;stroke-width:1.0;"/><ellipse cx="172.5" cy="847.7188" fill="#222222" rx="6" ry="6" style="stroke:none;stroke-width:1.0;"/><!--MD5=[299220511e4cecd7872c73a06223b2bc]
link *start*EditarAdministrador to 2--><g id="link_*start*EditarAdministrador_2"><path d="M158,256.2587 C158,264.4088 158,276.7787 158,287.8188 " fill="none" id="*start*EditarAdministrador-to-2" style="stroke:#008000;stroke-width:1.0;"/><polygon fill="#008000" points="158,293.1088,162,284.1088,158,288.1088,154,284.1088,158,293.1088" style="stroke:#008000;stroke-width:1.0;"/></g><!--MD5=[eeb69082328d10abd3b14fdeede0d8a3]
link 2 to 3--><g id="link_2_3"><path d="M132.71,321.5287 C95.41,332.3088 30,351.2188 30,351.2188 C30,351.2188 30,501.2188 30,501.2188 C30,501.2188 32.96,510.3088 36.16,520.1388 " fill="none" id="2-to-3" style="stroke:#008000;stroke-width:1.0;"/><polygon fill="#008000" points="37.74,524.9788,38.7597,515.1828,36.1933,520.224,31.1521,517.6576,37.74,524.9788" style="stroke:#008000;stroke-width:1.0;"/><path d="M35,356.2188 L35,496.2188 L268,496.2188 L268,366.2188 L258,356.2188 L35,356.2188 " fill="#F5F5F5" style="stroke:#181818;stroke-width:0.5;"/><path d="M258,356.2188 L258,366.2188 L268,366.2188 L258,356.2188 " fill="#F5F5F5" style="stroke:#181818;stroke-width:0.5;"/><text fill="#000000" font-family="sans-serif" font-size="13" font-weight="bold" lengthAdjust="spacing" textLength="103" x="41" y="374.7139">Sistema Solicita</text><ellipse cx="46.5" cy="386.4219" fill="#000000" rx="2.5" ry="2.5" style="stroke:#000000;stroke-width:0.0;"/><text fill="#000000" font-family="sans-serif" font-size="13" lengthAdjust="spacing" textLength="45" x="54" y="391.0654">Nombre</text><ellipse cx="46.5" cy="402.7734" fill="#000000" rx="2.5" ry="2.5" style="stroke:#000000;stroke-width:0.0;"/><text fill="#000000" font-family="sans-serif" font-size="13" lengthAdjust="spacing" textLength="46" x="54" y="407.417">Apellido</text><ellipse cx="46.5" cy="419.125" fill="#000000" rx="2.5" ry="2.5" style="stroke:#000000;stroke-width:0.0;"/><text fill="#000000" font-family="sans-serif" font-size="13" lengthAdjust="spacing" textLength="121" x="54" y="423.7686">Fecha de nacimiento</text><ellipse cx="46.5" cy="435.4766" fill="#000000" rx="2.5" ry="2.5" style="stroke:#000000;stroke-width:0.0;"/><text fill="#000000" font-family="sans-serif" font-size="13" lengthAdjust="spacing" textLength="33" x="54" y="440.1201">Email</text><ellipse cx="46.5" cy="451.8281" fill="#000000" rx="2.5" ry="2.5" style="stroke:#000000;stroke-width:0.0;"/><text fill="#000000" font-family="sans-serif" font-size="13" lengthAdjust="spacing" textLength="66" x="54" y="456.4717">Contraseña</text><text fill="#000000" font-family="sans-serif" font-size="13" font-weight="bold" lengthAdjust="spacing" textLength="105" x="41" y="472.8232">Sistema Permite</text><ellipse cx="46.5" cy="484.5313" fill="#000000" rx="2.5" ry="2.5" style="stroke:#000000;stroke-width:0.0;"/><text fill="#000000" font-family="sans-serif" font-size="13" lengthAdjust="spacing" textLength="199" x="54" y="489.1748">Actualizar datos del Administrador</text></g><!--MD5=[b1f22f0c97e7f2b556a5a2d67c42ac53]
link 3 to 4--><g id="link_3_4"><path d="M49.34,565.3188 C61.26,607.9688 89,707.2188 89,707.2188 C89,707.2188 135.45,723.4488 158.85,731.6288 " fill="none" id="3-to-4" style="stroke:#008000;stroke-width:1.0;"/><polygon fill="#008000" points="163.74,733.3288,156.5694,726.5773,159.0214,731.6751,153.9236,734.1271,163.74,733.3288" style="stroke:#008000;stroke-width:1.0;"/><path d="M94,594.2188 L94,702.2188 L268,702.2188 L268,604.2188 L258,594.2188 L94,594.2188 " fill="#F5F5F5" style="stroke:#181818;stroke-width:0.5;"/><path d="M258,594.2188 L258,604.2188 L268,604.2188 L258,594.2188 " fill="#F5F5F5" style="stroke:#181818;stroke-width:0.5;"/><text fill="#000000" font-family="sans-serif" font-size="13" font-weight="bold" lengthAdjust="spacing" textLength="153" x="100" y="612.7139">Administrador introduce</text><ellipse cx="105.5" cy="624.4219" fill="#000000" rx="2.5" ry="2.5" style="stroke:#000000;stroke-width:0.0;"/><text fill="#000000" font-family="sans-serif" font-size="13" lengthAdjust="spacing" textLength="45" x="113" y="629.0654">Nombre</text><ellipse cx="105.5" cy="640.7734" fill="#000000" rx="2.5" ry="2.5" style="stroke:#000000;stroke-width:0.0;"/><text fill="#000000" font-family="sans-serif" font-size="13" lengthAdjust="spacing" textLength="46" x="113" y="645.417">Apellido</text><ellipse cx="105.5" cy="657.125" fill="#000000" rx="2.5" ry="2.5" style="stroke:#000000;stroke-width:0.0;"/><text fill="#000000" font-family="sans-serif" font-size="13" lengthAdjust="spacing" textLength="121" x="113" y="661.7686">Fecha de nacimiento</text><ellipse cx="105.5" cy="673.4766" fill="#000000" rx="2.5" ry="2.5" style="stroke:#000000;stroke-width:0.0;"/><text fill="#000000" font-family="sans-serif" font-size="13" lengthAdjust="spacing" textLength="33" x="113" y="678.1201">Email</text><ellipse cx="105.5" cy="689.8281" fill="#000000" rx="2.5" ry="2.5" style="stroke:#000000;stroke-width:0.0;"/><text fill="#000000" font-family="sans-serif" font-size="13" lengthAdjust="spacing" textLength="66" x="113" y="694.4717">Contraseña</text></g><!--MD5=[3173ac9c51dde86e793d2ded1ea6bec2]
link 4 to *end*EditarAdministrador--><g id="link_4_*end*EditarAdministrador"><path d="M172,749.3688 C172,769.1488 172,810.3088 172,832.0588 " fill="none" id="4-to-*end*EditarAdministrador" style="stroke:#008000;stroke-width:1.0;"/><polygon fill="#008000" points="172,837.1388,176,828.1388,172,832.1388,168,828.1388,172,837.1388" style="stroke:#008000;stroke-width:1.0;"/><path d="M177,772.2188 L177,814.2188 L325,814.2188 L325,782.2188 L315,772.2188 L177,772.2188 " fill="#F5F5F5" style="stroke:#181818;stroke-width:0.5;"/><path d="M315,772.2188 L315,782.2188 L325,782.2188 L315,772.2188 " fill="#F5F5F5" style="stroke:#181818;stroke-width:0.5;"/><text fill="#000000" font-family="sans-serif" font-size="13" font-weight="bold" lengthAdjust="spacing" textLength="105" x="183" y="790.7139">Sistema Muestra</text><ellipse cx="188.5" cy="802.4219" fill="#000000" rx="2.5" ry="2.5" style="stroke:#000000;stroke-width:0.0;"/><text fill="#000000" font-family="sans-serif" font-size="13" lengthAdjust="spacing" textLength="114" x="196" y="807.0654">Cambios realizados</text></g><!--MD5=[d5d43b3f3dfddbfb6ca65af0419a6a54]
link 4 to 2--><g id="link_4_2"><path d="M180.61,733.7488 C205.04,726.7288 273,707.2188 273,707.2188 C273,707.2188 273,351.2188 273,351.2188 C273,351.2188 222.21,334.8787 188.14,323.9188 " fill="none" id="4-to-2" style="stroke:#FF0000;stroke-width:1.0;"/><polygon fill="#FF0000" points="183.24,322.3388,190.5849,328.9002,188.0003,323.8683,193.0322,321.2838,183.24,322.3388" style="stroke:#FF0000;stroke-width:1.0;"/><path d="M278,524.2188 L278,566.2188 L558,566.2188 L558,534.2188 L548,524.2188 L278,524.2188 " fill="#F5F5F5" style="stroke:#181818;stroke-width:0.5;"/><path d="M548,524.2188 L548,534.2188 L558,534.2188 L548,524.2188 " fill="#F5F5F5" style="stroke:#181818;stroke-width:0.5;"/><text fill="#000000" font-family="sans-serif" font-size="13" font-weight="bold" lengthAdjust="spacing" textLength="105" x="284" y="542.7139">Sistema Muestra</text><ellipse cx="289.5" cy="554.4219" fill="#000000" rx="2.5" ry="2.5" style="stroke:#000000;stroke-width:0.0;"/><text fill="#000000" font-family="sans-serif" font-size="13" lengthAdjust="spacing" textLength="246" x="297" y="559.0654">Mensaje de error en los datos introducidos</text></g><!--MD5=[79dcce2263345a45328835bb1844a474]
link startState to EditarAdministrador--><g id="link_startState_EditarAdministrador"><path d="M287,85.7094 C287,107.5894 287,146.4394 287,192.3794 " fill="none" id="startState-to-EditarAdministrador" style="stroke:#008000;stroke-width:1.0;"/><polygon fill="#008000" points="287,197.4294,291,188.4294,287,192.4294,283,188.4294,287,197.4294" style="stroke:#008000;stroke-width:1.0;"/><path d="M292,120.6094 L292,162.6094 L501,162.6094 L501,130.6094 L491,120.6094 L292,120.6094 " fill="#F5F5F5" style="stroke:#181818;stroke-width:0.5;"/><path d="M491,120.6094 L491,130.6094 L501,130.6094 L491,120.6094 " fill="#F5F5F5" style="stroke:#181818;stroke-width:0.5;"/><text fill="#000000" font-family="sans-serif" font-size="13" font-weight="bold" lengthAdjust="spacing" textLength="141" x="298" y="139.1045">Administrador Solicita</text><ellipse cx="303.5" cy="150.8125" fill="#000000" rx="2.5" ry="2.5" style="stroke:#000000;stroke-width:0.0;"/><text fill="#000000" font-family="sans-serif" font-size="13" lengthAdjust="spacing" textLength="175" x="311" y="155.4561">Editar datos del Administrador</text></g><!--MD5=[4ab056f659fa6ca8b1c5a1e5148941d8]
@startuml

title Editar Administrador

skinparam {
    NoteBackgroundColor #whiteSmoke
    ArrowColor #green
    NoteBorderColor #green
    linetype polyline
}

hide empty description

state startState as "ADMINISTRADORES"

startState - -> EditarAdministrador
note on link
    <b>Administrador Solicita</b>
    * Editar datos del Administrador
end note

state EditarAdministrador {
state 2 as " "
state 3 as " "
state 4 <<choice>>

[*] -down-> 2

2 -down-> 3
note on link
<b>Sistema Solicita</b>
* Nombre
* Apellido
* Fecha de nacimiento
* Email
* Contraseña
<b>Sistema Permite</b>
* Actualizar datos del Administrador
end note

3 -down-> 4
note on link
<b>Administrador introduce</b>
* Nombre
* Apellido
* Fecha de nacimiento
* Email
* Contraseña
end note

4 -down-> [*]
note on link
<b>Sistema Muestra</b>
* Cambios realizados
end note

4 -[#red]-> 2
note on link
<b>Sistema Muestra</b>
* Mensaje de error en los datos introducidos
end note

}

@enduml

PlantUML version 1.2022.7(Mon Aug 22 19:01:30 CEST 2022)
(GPL source distribution)
Java Runtime: Java(TM) SE Runtime Environment
JVM: Java HotSpot(TM) 64-Bit Server VM
Default Encoding: Cp1252
Language: es
Country: ES
--></g></svg>