<?xml version="1.0" encoding="UTF-8" standalone="no"?><svg xmlns="http://www.w3.org/2000/svg" xmlns:xlink="http://www.w3.org/1999/xlink" contentStyleType="text/css" height="387px" preserveAspectRatio="none" style="width:664px;height:387px;background:#FFFFFF;" version="1.1" viewBox="0 0 664 387" width="664px" zoomAndPan="magnify"><defs/><g><rect fill="none" height="27.6094" id="_title" style="stroke:none;stroke-width:1.0;" width="145" x="252.5" y="5"/><text fill="#000000" font-family="sans-serif" font-size="14" font-weight="bold" lengthAdjust="spacing" textLength="135" x="257.5" y="24.5332">Contexto Egresado</text><ellipse cx="154.5" cy="54.6094" fill="#222222" rx="10" ry="10" style="stroke:none;stroke-width:1.0;"/><rect fill="#F1F1F1" height="40" rx="12.5" ry="12.5" style="stroke:#181818;stroke-width:0.5;" width="115" x="7" y="125.6094"/><text fill="#000000" font-family="sans-serif" font-size="14" lengthAdjust="spacing" textLength="105" x="12" y="151.3379">INICIAR_SESIÓN</text><rect fill="#F1F1F1" height="40" rx="12.5" ry="12.5" style="stroke:#181818;stroke-width:0.5;" width="176" x="157.5" y="125.6094"/><text fill="#000000" font-family="sans-serif" font-size="14" lengthAdjust="spacing" textLength="166" x="162.5" y="151.3379">REGISTRAR_EGRESADO</text><rect fill="#F1F1F1" height="40" rx="12.5" ry="12.5" style="stroke:#181818;stroke-width:0.5;" width="50" x="129.5" y="243.6094"/><text fill="#000000" font-family="sans-serif" font-size="14" lengthAdjust="spacing" textLength="39" x="135" y="269.3379">INICIO</text><rect fill="#F1F1F1" height="40" rx="12.5" ry="12.5" style="stroke:#181818;stroke-width:0.5;" width="165" x="493" y="243.6094"/><text fill="#000000" font-family="sans-serif" font-size="14" lengthAdjust="spacing" textLength="155" x="498" y="269.3379">EXPLORAR_SERVICIOS</text><rect fill="#F1F1F1" height="40" rx="12.5" ry="12.5" style="stroke:#181818;stroke-width:0.5;" width="124" x="333.5" y="243.6094"/><text fill="#000000" font-family="sans-serif" font-size="14" lengthAdjust="spacing" textLength="114" x="338.5" y="269.3379">CONFIGURACIÓN</text><rect fill="#F1F1F1" height="40" rx="12.5" ry="12.5" style="stroke:#181818;stroke-width:0.5;" width="83" x="215" y="243.6094"/><text fill="#000000" font-family="sans-serif" font-size="14" lengthAdjust="spacing" textLength="73" x="220" y="269.3379">SERVICIOS</text><ellipse cx="335.5" cy="371.6094" fill="none" rx="10" ry="10" style="stroke:#222222;stroke-width:1.0;"/><ellipse cx="336" cy="372.1094" fill="#222222" rx="6" ry="6" style="stroke:none;stroke-width:1.0;"/><!--MD5=[fffa5c9a6c2a3d9bbcf62492fefaaec1]
link *start to INICIAR_SESIÓN--><g id="link_*start_INICIAR_SESIÓN"><path d="M147.74,62.2994 C135.16,74.7294 107.67,101.9194 87.71,121.6594 " fill="none" id="*start-to-INICIAR_SESIÓN" style="stroke:#181818;stroke-width:1.0;"/><polygon fill="#181818" points="83.83,125.4994,93.0436,122.0196,87.3869,121.9853,87.4212,116.3286,83.83,125.4994" style="stroke:#181818;stroke-width:1.0;"/></g><!--MD5=[ef2c9c3cadb6f7eb859a57fbfd2a6d8e]
link *start to REGISTRAR_EGRESADO--><g id="link_*start_REGISTRAR_EGRESADO"><path d="M161.34,62.2994 C174.05,74.7294 201.85,101.9194 222.03,121.6594 " fill="none" id="*start-to-REGISTRAR_EGRESADO" style="stroke:#181818;stroke-width:1.0;"/><polygon fill="#181818" points="225.96,125.4994,222.3318,116.3432,222.3889,121.9997,216.7324,122.0569,225.96,125.4994" style="stroke:#181818;stroke-width:1.0;"/></g><!--MD5=[66837f7cee128dc6ca7363ed13e0752f]
link INICIAR_SESIÓN to INICIO--><g id="link_INICIAR_SESIÓN_INICIO"><path d="M76.42,165.6294 C88.84,185.4394 106.5,213.6094 106.5,213.6094 C106.5,213.6094 119.72,227.1094 132.29,239.9394 " fill="none" id="INICIAR_SESIÓN-to-INICIO" style="stroke:#181818;stroke-width:1.0;"/><polygon fill="#181818" points="135.8,243.5294,132.3575,234.3017,132.3004,239.9583,126.6438,239.9012,135.8,243.5294" style="stroke:#181818;stroke-width:1.0;"/><text fill="#000000" font-family="sans-serif" font-size="13" lengthAdjust="spacing" textLength="78" x="107.5" y="210.1045">Iniciar Sesión</text></g><!--MD5=[4eaddde1cee9389216769fe646f6a5a4]
link REGISTRAR_EGRESADO to INICIO--><g id="link_REGISTRAR_EGRESADO_INICIO"><path d="M230.47,165.7694 C214.67,185.9094 189.78,217.6394 172.83,239.2494 " fill="none" id="REGISTRAR_EGRESADO-to-INICIO" style="stroke:#181818;stroke-width:1.0;"/><polygon fill="#181818" points="169.55,243.4294,178.2549,238.8224,172.6385,239.4973,171.9636,233.8808,169.55,243.4294" style="stroke:#181818;stroke-width:1.0;"/><text fill="#000000" font-family="sans-serif" font-size="13" lengthAdjust="spacing" textLength="111" x="206.5" y="210.1045">Registrar Egresado</text></g><!--MD5=[cca3090e76786349203404ad2fa77f79]
link INICIO to EXPLORAR_SERVICIOS--><g id="link_INICIO_EXPLORAR_SERVICIOS"><path d="M178.32,243.5694 C193.05,231.1694 209.17,217.6094 209.17,217.6094 C209.17,217.6094 463.83,217.6094 463.83,217.6094 C463.83,217.6094 493.25,229.7294 521.89,241.5294 " fill="none" id="INICIO-to-EXPLORAR_SERVICIOS" style="stroke:#181818;stroke-width:1.0;"/><polygon fill="#181818" points="526.85,243.5694,520.0432,236.4513,522.2245,241.6707,517.0052,243.852,526.85,243.5694" style="stroke:#181818;stroke-width:1.0;"/></g><!--MD5=[847b408c021b00de83bcc586619bdd73]
reverse link INICIO to EXPLORAR_SERVICIOS--><g id="link_INICIO_EXPLORAR_SERVICIOS"><path d="M176.51,239.7194 C195.82,218.7594 220.83,191.6094 220.83,191.6094 C220.83,191.6094 452.17,191.6094 452.17,191.6094 C452.17,191.6094 504.65,222.2494 541.14,243.5494 " fill="none" id="INICIO-backto-EXPLORAR_SERVICIOS" style="stroke:#181818;stroke-width:1.0;"/><polygon fill="#181818" points="172.98,243.5494,182.0218,239.6449,176.3696,239.8737,176.1408,234.2215,172.98,243.5494" style="stroke:#181818;stroke-width:1.0;"/></g><!--MD5=[4cc4cc43b11f3134bf32754e9a51a657]
link INICIO to CONFIGURACIÓN--><g id="link_INICIO_CONFIGURACIÓN"><path d="M178.32,243.5694 C193.05,231.1694 209.17,217.6094 209.17,217.6094 C209.17,217.6094 303.83,217.6094 303.83,217.6094 C303.83,217.6094 327.59,229.5294 350.91,241.2294 " fill="none" id="INICIO-to-CONFIGURACIÓN" style="stroke:#181818;stroke-width:1.0;"/><polygon fill="#181818" points="355.56,243.5694,349.3087,235.9588,351.0907,241.3276,345.7219,243.1096,355.56,243.5694" style="stroke:#181818;stroke-width:1.0;"/></g><!--MD5=[0b6bd3b75ec5b2cd13b71c92fb5bba52]
reverse link INICIO to CONFIGURACIÓN--><g id="link_INICIO_CONFIGURACIÓN"><path d="M176.51,239.7194 C195.82,218.7594 220.83,191.6094 220.83,191.6094 C220.83,191.6094 292.17,191.6094 292.17,191.6094 C292.17,191.6094 336.14,222.2494 366.72,243.5494 " fill="none" id="INICIO-backto-CONFIGURACIÓN" style="stroke:#181818;stroke-width:1.0;"/><polygon fill="#181818" points="172.98,243.5494,182.0218,239.6449,176.3696,239.8737,176.1408,234.2215,172.98,243.5494" style="stroke:#181818;stroke-width:1.0;"/></g><!--MD5=[0023349e8bcb5c519201d7e61fde61b3]
link INICIO to SERVICIOS--><g id="link_INICIO_SERVICIOS"><path d="M179.57,278.3594 C184.66,281.3494 188.5,283.6094 188.5,283.6094 C188.5,283.6094 200.2,283.6094 209.88,283.6094 " fill="none" id="INICIO-to-SERVICIOS" style="stroke:#181818;stroke-width:1.0;"/><polygon fill="#181818" points="214.95,283.6094,205.95,279.6094,209.95,283.6094,205.95,287.6094,214.95,283.6094" style="stroke:#181818;stroke-width:1.0;"/></g><!--MD5=[6edecfe94a264b0d01984fbd5538cd5d]
reverse link INICIO to SERVICIOS--><g id="link_INICIO_SERVICIOS"><path d="M183.9,246.3194 C186.69,244.6794 188.5,243.6094 188.5,243.6094 C188.5,243.6094 204.94,243.6094 214.95,243.6094 " fill="none" id="INICIO-backto-SERVICIOS" style="stroke:#181818;stroke-width:1.0;"/><polygon fill="#181818" points="179.57,248.8594,189.3573,247.7595,183.8837,246.3311,185.3121,240.8576,179.57,248.8594" style="stroke:#181818;stroke-width:1.0;"/></g><!--MD5=[f281b6c48a71b2adc9bcfe8dff9d1342]
link CONFIGURACIÓN to *end--><g id="link_CONFIGURACIÓN_*end"><path d="M384.5,284.0494 C372.37,305.4694 353.22,339.2994 342.82,357.6794 " fill="none" id="CONFIGURACIÓN-to-*end" style="stroke:#181818;stroke-width:1.0;"/><polygon fill="#181818" points="340.13,362.4394,348.0579,356.5957,342.603,358.0938,341.1049,352.6389,340.13,362.4394" style="stroke:#181818;stroke-width:1.0;"/><text fill="#000000" font-family="sans-serif" font-size="13" lengthAdjust="spacing" textLength="79" x="367.5" y="328.1045">Cerrar Sesión</text></g><!--MD5=[c6e8d97373a6e0272a3c575f2d7d2fa1]
link EXPLORAR_SERVICIOS to *end--><g id="link_EXPLORAR_SERVICIOS_*end"><path d="M541.43,283.6294 C505.96,303.4394 455.5,331.6094 455.5,331.6094 C455.5,331.6094 381.96,355.5094 350.02,365.8894 " fill="none" id="EXPLORAR_SERVICIOS-to-*end" style="stroke:#181818;stroke-width:1.0;"/><polygon fill="#181818" points="344.92,367.5494,354.715,368.5777,349.6761,366.0069,352.247,360.9679,344.92,367.5494" style="stroke:#181818;stroke-width:1.0;"/><text fill="#000000" font-family="sans-serif" font-size="13" lengthAdjust="spacing" textLength="79" x="488.5" y="328.1045">Cerrar Sesión</text></g><!--MD5=[bcf48f0dad38cb54a9a5c91127a57132]
link SERVICIOS to *end--><g id="link_SERVICIOS_*end"><path d="M259.91,283.6294 C263.45,303.4394 268.5,331.6094 268.5,331.6094 C268.5,331.6094 303.25,351.8394 322.7,363.1594 " fill="none" id="SERVICIOS-to-*end" style="stroke:#181818;stroke-width:1.0;"/><polygon fill="#181818" points="327.28,365.8294,321.5182,357.8418,322.9601,363.3118,317.4901,364.7537,327.28,365.8294" style="stroke:#181818;stroke-width:1.0;"/><text fill="#000000" font-family="sans-serif" font-size="13" lengthAdjust="spacing" textLength="79" x="269.5" y="328.1045">Cerrar Sesión</text></g><!--MD5=[0876ba8a88d8bbcf732e506fae106d5c]
link INICIO to *end--><g id="link_INICIO_*end"><path d="M160.75,283.6294 C167.25,303.4394 176.5,331.6094 176.5,331.6094 C176.5,331.6094 281.24,357.2994 320.7,366.9794 " fill="none" id="INICIO-to-*end" style="stroke:#181818;stroke-width:1.0;"/><polygon fill="#181818" points="326.03,368.2894,318.2354,362.2691,321.1726,367.1036,316.3381,370.0409,326.03,368.2894" style="stroke:#181818;stroke-width:1.0;"/><text fill="#000000" font-family="sans-serif" font-size="13" lengthAdjust="spacing" textLength="79" x="177.5" y="328.1045">Cerrar Sesión</text></g><!--MD5=[ed15e6f1983e5a9c9d31c78bd9032f55]
@startuml Contexto
title Contexto Egresado

skinparam {
    NoteBackgroundColor #whiteSmoke
    NoteBorderColor #green
    linetype polyline
}

hide empty description

[*] - -> INICIAR_SESIÓN
[*] - -> REGISTRAR_EGRESADO
INICIAR_SESIÓN - -> INICIO : Iniciar Sesión
REGISTRAR_EGRESADO - -> INICIO : Registrar Egresado

INICIO -> EXPLORAR_SERVICIOS
INICIO <- EXPLORAR_SERVICIOS
INICIO -> CONFIGURACIÓN
INICIO <- CONFIGURACIÓN
INICIO -> SERVICIOS
INICIO <- SERVICIOS

CONFIGURACIÓN -> [*] : Cerrar Sesión
EXPLORAR_SERVICIOS -> [*] : Cerrar Sesión
SERVICIOS -> [*] : Cerrar Sesión
INICIO - -> [*] : Cerrar Sesión

@enduml

PlantUML version 1.2022.7(Mon Aug 22 19:01:30 CEST 2022)
(GPL source distribution)
Java Runtime: OpenJDK Runtime Environment
JVM: OpenJDK 64-Bit Server VM
Default Encoding: Cp1252
Language: es
Country: ES
--></g></svg>