<?xml version="1.0" encoding="us-ascii" standalone="no"?><svg xmlns="http://www.w3.org/2000/svg" xmlns:xlink="http://www.w3.org/1999/xlink" contentStyleType="text/css" height="474px" preserveAspectRatio="none" style="width:675px;height:474px;background:#FFFFFF;" version="1.1" viewBox="0 0 675 474" width="675px" zoomAndPan="magnify"><defs/><g><ellipse cx="406" cy="20" fill="#222222" rx="10" ry="10" style="stroke:#222222;stroke-width:1.0;"/><rect fill="#F1F1F1" height="33.9688" rx="12.5" ry="12.5" style="stroke:#181818;stroke-width:0.5;" width="140" x="336" y="50"/><text fill="#000000" font-family="sans-serif" font-size="12" lengthAdjust="spacing" textLength="116" x="350" y="71.1387">Es ajeno al sistema</text><polygon fill="#F1F1F1" points="312,103.9688,500,103.9688,512,115.9688,500,127.9688,312,127.9688,300,115.9688,312,103.9688" style="stroke:#181818;stroke-width:0.5;"/><text fill="#000000" font-family="sans-serif" font-size="11" lengthAdjust="spacing" textLength="188" x="312" y="119.7769">&#191;Quiere formar parte de Alumni?</text><text fill="#000000" font-family="sans-serif" font-size="11" lengthAdjust="spacing" textLength="9" x="291" y="113.3745">si</text><text fill="#000000" font-family="sans-serif" font-size="11" lengthAdjust="spacing" textLength="14" x="512" y="113.3745">no</text><rect fill="#F1F1F1" height="33.9688" rx="12.5" ry="12.5" style="stroke:#181818;stroke-width:0.5;" width="155" x="157.5" y="137.9688"/><text fill="#000000" font-family="sans-serif" font-size="12" lengthAdjust="spacing" textLength="135" x="167.5" y="159.1074">El usuario se identifica</text><polygon fill="#F1F1F1" points="139,191.9375,331,191.9375,343,203.9375,331,215.9375,139,215.9375,127,203.9375,139,191.9375" style="stroke:#181818;stroke-width:0.5;"/><text fill="#000000" font-family="sans-serif" font-size="11" lengthAdjust="spacing" textLength="192" x="139" y="207.7456">&#191;El usuario cumple los requisitos?</text><text fill="#000000" font-family="sans-serif" font-size="11" lengthAdjust="spacing" textLength="9" x="118" y="201.3433">si</text><text fill="#000000" font-family="sans-serif" font-size="11" lengthAdjust="spacing" textLength="14" x="343" y="201.3433">no</text><rect fill="#F1F1F1" height="33.9688" rx="12.5" ry="12.5" style="stroke:#181818;stroke-width:0.5;" width="197" x="18.5" y="225.9375"/><text fill="#000000" font-family="sans-serif" font-size="12" lengthAdjust="spacing" textLength="177" x="28.5" y="247.0762">El sistema envia el formulario</text><rect fill="#F1F1F1" height="33.9688" rx="12.5" ry="12.5" style="stroke:#181818;stroke-width:0.5;" width="212" x="11" y="279.9063"/><text fill="#000000" font-family="sans-serif" font-size="12" lengthAdjust="spacing" textLength="192" x="21" y="301.0449">La persona rellena el formulario</text><rect fill="#F1F1F1" height="33.9688" rx="12.5" ry="12.5" style="stroke:#181818;stroke-width:0.5;" width="131" x="51.5" y="333.875"/><text fill="#000000" font-family="sans-serif" font-size="12" lengthAdjust="spacing" textLength="111" x="61.5" y="355.0137">Se genera usuario</text><rect fill="#F1F1F1" height="33.9688" rx="12.5" ry="12.5" style="stroke:#181818;stroke-width:0.5;" width="204" x="15" y="387.8438"/><text fill="#000000" font-family="sans-serif" font-size="12" lengthAdjust="spacing" textLength="184" x="25" y="408.9824">Usuario forma parte de Alumni</text><ellipse cx="117" cy="452.8125" fill="none" rx="11" ry="11" style="stroke:#222222;stroke-width:1.0;"/><ellipse cx="117" cy="452.8125" fill="#222222" rx="6" ry="6" style="stroke:#222222;stroke-width:1.0;"/><rect fill="#F1F1F1" height="33.9688" rx="12.5" ry="12.5" style="stroke:#181818;stroke-width:0.5;" width="214" x="246" y="225.9375"/><text fill="#000000" font-family="sans-serif" font-size="12" lengthAdjust="spacing" textLength="194" x="256" y="247.0762">Tiene que cumplir los requisitos</text><ellipse cx="353" cy="290.9063" fill="none" rx="11" ry="11" style="stroke:#222222;stroke-width:1.0;"/><ellipse cx="353" cy="290.9063" fill="#222222" rx="6" ry="6" style="stroke:#222222;stroke-width:1.0;"/><rect fill="#F1F1F1" height="33.9688" rx="12.5" ry="12.5" style="stroke:#181818;stroke-width:0.5;" width="174" x="490" y="137.9688"/><text fill="#000000" font-family="sans-serif" font-size="12" lengthAdjust="spacing" textLength="154" x="500" y="159.1074">No forma parte de Alumni</text><ellipse cx="577" cy="202.9375" fill="none" rx="11" ry="11" style="stroke:#222222;stroke-width:1.0;"/><ellipse cx="577" cy="202.9375" fill="#222222" rx="6" ry="6" style="stroke:#222222;stroke-width:1.0;"/><line style="stroke:#181818;stroke-width:1.0;" x1="406" x2="406" y1="30" y2="50"/><polygon fill="#181818" points="402,40,406,50,410,40,406,44" style="stroke:#181818;stroke-width:1.0;"/><line style="stroke:#181818;stroke-width:1.0;" x1="117" x2="117" y1="259.9063" y2="279.9063"/><polygon fill="#181818" points="113,269.9063,117,279.9063,121,269.9063,117,273.9063" style="stroke:#181818;stroke-width:1.0;"/><line style="stroke:#181818;stroke-width:1.0;" x1="117" x2="117" y1="313.875" y2="333.875"/><polygon fill="#181818" points="113,323.875,117,333.875,121,323.875,117,327.875" style="stroke:#181818;stroke-width:1.0;"/><line style="stroke:#181818;stroke-width:1.0;" x1="117" x2="117" y1="367.8438" y2="387.8438"/><polygon fill="#181818" points="113,377.8438,117,387.8438,121,377.8438,117,381.8438" style="stroke:#181818;stroke-width:1.0;"/><line style="stroke:#181818;stroke-width:1.0;" x1="117" x2="117" y1="421.8125" y2="441.8125"/><polygon fill="#181818" points="113,431.8125,117,441.8125,121,431.8125,117,435.8125" style="stroke:#181818;stroke-width:1.0;"/><line style="stroke:#181818;stroke-width:1.0;" x1="353" x2="353" y1="259.9063" y2="279.9063"/><polygon fill="#181818" points="349,269.9063,353,279.9063,357,269.9063,353,273.9063" style="stroke:#181818;stroke-width:1.0;"/><line style="stroke:#181818;stroke-width:1.0;" x1="127" x2="117" y1="203.9375" y2="203.9375"/><line style="stroke:#181818;stroke-width:1.0;" x1="117" x2="117" y1="203.9375" y2="225.9375"/><polygon fill="#181818" points="113,215.9375,117,225.9375,121,215.9375,117,219.9375" style="stroke:#181818;stroke-width:1.0;"/><line style="stroke:#181818;stroke-width:1.0;" x1="343" x2="353" y1="203.9375" y2="203.9375"/><line style="stroke:#181818;stroke-width:1.0;" x1="353" x2="353" y1="203.9375" y2="225.9375"/><polygon fill="#181818" points="349,215.9375,353,225.9375,357,215.9375,353,219.9375" style="stroke:#181818;stroke-width:1.0;"/><line style="stroke:#181818;stroke-width:1.0;" x1="235" x2="235" y1="171.9375" y2="191.9375"/><polygon fill="#181818" points="231,181.9375,235,191.9375,239,181.9375,235,185.9375" style="stroke:#181818;stroke-width:1.0;"/><line style="stroke:#181818;stroke-width:1.0;" x1="577" x2="577" y1="171.9375" y2="191.9375"/><polygon fill="#181818" points="573,181.9375,577,191.9375,581,181.9375,577,185.9375" style="stroke:#181818;stroke-width:1.0;"/><line style="stroke:#181818;stroke-width:1.0;" x1="300" x2="235" y1="115.9688" y2="115.9688"/><line style="stroke:#181818;stroke-width:1.0;" x1="235" x2="235" y1="115.9688" y2="137.9688"/><polygon fill="#181818" points="231,127.9688,235,137.9688,239,127.9688,235,131.9688" style="stroke:#181818;stroke-width:1.0;"/><line style="stroke:#181818;stroke-width:1.0;" x1="512" x2="577" y1="115.9688" y2="115.9688"/><line style="stroke:#181818;stroke-width:1.0;" x1="577" x2="577" y1="115.9688" y2="137.9688"/><polygon fill="#181818" points="573,127.9688,577,137.9688,581,127.9688,577,131.9688" style="stroke:#181818;stroke-width:1.0;"/><line style="stroke:#181818;stroke-width:1.0;" x1="406" x2="406" y1="83.9688" y2="103.9688"/><polygon fill="#181818" points="402,93.9688,406,103.9688,410,93.9688,406,97.9688" style="stroke:#181818;stroke-width:1.0;"/><!--SRC=[VOzBRiCm34JtEiKidIlOYwABx8e0HTi32F6uPK1JZYZbUWLwiYg_8aY0RhZWv_6DbvXBwB5sn1qj8IfSl72EGv09tS_tQnLcOafvZXbBsoT6ubdhRFAqGlcYeNDPXNwjg5vZbWGdPAGLcMJxXxgPR-kyAA79aRclubAIFz0kAg0Tf5KzMLGz4eRGlqGip9uiDeOgxN7bZVYaCSVhuzRxk2YS4jq76eANj0Hg2z1PQXhlqW3OLvwT9Tz9Nozib2dS7cx-VV4B]--></g></svg>