<?xml version="1.0" encoding="UTF-8" standalone="no"?><svg xmlns="http://www.w3.org/2000/svg" xmlns:xlink="http://www.w3.org/1999/xlink" contentStyleType="text/css" height="229px" preserveAspectRatio="none" style="width:681px;height:229px;background:#FFFFFF;" version="1.1" viewBox="0 0 681 229" width="681px" zoomAndPan="magnify"><defs/><g><rect fill="#FFFFFF" height="29.0679" id="_title" style="stroke:none;stroke-width:1.0;" width="136" x="265.5" y="5"/><text fill="#000000" font-family="Arial" font-size="14" font-weight="bold" lengthAdjust="spacing" textLength="126" x="270.5" y="24.9659">Servicios externos</text><!--MD5=[d487106a069dbf8887c3866d5775fb0b]
class SERVICIO EXTERNO--><g id="elem_SERVICIO EXTERNO"><rect codeLine="8" fill="#F1F1F1" height="48" id="SERVICIO EXTERNO" rx="2.5" ry="2.5" style="stroke:#181818;stroke-width:0.5;" width="150" x="276.5" y="47.0679"/><ellipse cx="291.5" cy="63.0679" fill="#A9DCDF" rx="11" ry="11" style="stroke:#181818;stroke-width:1.0;"/><path d="M286.6719,68.8179 L290.0156,56.6304 L293.1563,56.6304 L296.5313,68.8179 L294.0625,68.8179 L293.3281,65.8023 L289.8125,65.8023 L289.0625,68.8179 L286.6719,68.8179 Z M291.0781,60.771 L290.3281,63.771 L292.8438,63.771 L292.125,60.771 Q291.9844,60.1929 291.8594,59.646 Q291.7344,59.0835 291.5938,58.5054 Q291.4844,59.0835 291.3438,59.646 Q291.2031,60.1929 291.0781,60.771 Z " fill="#000000"/><text fill="#000000" font-family="Arial" font-size="14" font-style="italic" lengthAdjust="spacing" textLength="118" x="305.5" y="68.4999">SERVICIO EXTERNO</text><line style="stroke:#181818;stroke-width:0.5;" x1="277.5" x2="425.5" y1="79.0679" y2="79.0679"/><line style="stroke:#181818;stroke-width:0.5;" x1="277.5" x2="425.5" y1="87.0679" y2="87.0679"/></g><!--MD5=[b644a1a23592027d84a02e04553a752a]
class UNIVERSIDAD--><g id="elem_UNIVERSIDAD"><rect codeLine="12" fill="#F1F1F1" height="67.0679" id="UNIVERSIDAD" rx="2.5" ry="2.5" style="stroke:#181818;stroke-width:0.5;" width="125" x="7" y="155.0679"/><ellipse cx="22" cy="171.0679" fill="#ADD1B2" rx="11" ry="11" style="stroke:#181818;stroke-width:1.0;"/><path d="M21.4688,177.9898 Q19.7188,177.9898 18.5781,177.2554 Q17.4531,176.5054 16.8906,175.1617 Q16.3438,173.8023 16.3438,172.0054 Q16.3438,169.9742 17,168.521 Q17.6563,167.0679 18.9375,166.2867 Q20.2188,165.5054 22.0938,165.5054 Q22.9844,165.5054 23.6563,165.6929 Q24.3281,165.8648 25.0156,166.2085 L24.2031,168.2242 Q23.5781,167.9117 23.0313,167.7867 Q22.5,167.6617 22.0156,167.6617 Q20.8438,167.6617 20.1406,168.1929 Q19.4375,168.7242 19.1406,169.6773 Q18.8438,170.6304 18.8438,171.896 Q18.8438,173.9117 19.5625,174.8804 Q20.2813,175.8335 21.875,175.8335 Q22.4688,175.8335 23.0938,175.6773 Q23.7188,175.521 24.5469,175.146 L24.5469,177.3648 Q23.8125,177.6773 23.0156,177.8335 Q22.2344,177.9898 21.4688,177.9898 Z " fill="#000000"/><text fill="#000000" font-family="Arial" font-size="14" lengthAdjust="spacing" textLength="93" x="36" y="176.4999">UNIVERSIDAD</text><line style="stroke:#181818;stroke-width:0.5;" x1="8" x2="131" y1="187.0679" y2="187.0679"/><text fill="#000000" font-family="Arial" font-size="14" lengthAdjust="spacing" textLength="102" x="13" y="206.0339">Bases de Datos</text><line style="stroke:#181818;stroke-width:0.5;" x1="8" x2="131" y1="214.1358" y2="214.1358"/></g><!--MD5=[207814cf8154ca0962f67f4d540671b5]
class LINKEDIN--><g id="elem_LINKEDIN"><rect codeLine="17" fill="#F1F1F1" height="67.0679" id="LINKEDIN" rx="2.5" ry="2.5" style="stroke:#181818;stroke-width:0.5;" width="98" x="166.5" y="155.0679"/><ellipse cx="181.5" cy="171.0679" fill="#ADD1B2" rx="11" ry="11" style="stroke:#181818;stroke-width:1.0;"/><path d="M180.9688,177.9898 Q179.2188,177.9898 178.0781,177.2554 Q176.9531,176.5054 176.3906,175.1617 Q175.8438,173.8023 175.8438,172.0054 Q175.8438,169.9742 176.5,168.521 Q177.1563,167.0679 178.4375,166.2867 Q179.7188,165.5054 181.5938,165.5054 Q182.4844,165.5054 183.1563,165.6929 Q183.8281,165.8648 184.5156,166.2085 L183.7031,168.2242 Q183.0781,167.9117 182.5313,167.7867 Q182,167.6617 181.5156,167.6617 Q180.3438,167.6617 179.6406,168.1929 Q178.9375,168.7242 178.6406,169.6773 Q178.3438,170.6304 178.3438,171.896 Q178.3438,173.9117 179.0625,174.8804 Q179.7813,175.8335 181.375,175.8335 Q181.9688,175.8335 182.5938,175.6773 Q183.2188,175.521 184.0469,175.146 L184.0469,177.3648 Q183.3125,177.6773 182.5156,177.8335 Q181.7344,177.9898 180.9688,177.9898 Z " fill="#000000"/><text fill="#000000" font-family="Arial" font-size="14" lengthAdjust="spacing" textLength="66" x="195.5" y="176.4999">LINKEDIN</text><line style="stroke:#181818;stroke-width:0.5;" x1="167.5" x2="263.5" y1="187.0679" y2="187.0679"/><text fill="#000000" font-family="Arial" font-size="14" lengthAdjust="spacing" textLength="35" x="172.5" y="206.0339">Perfil</text><line style="stroke:#181818;stroke-width:0.5;" x1="167.5" x2="263.5" y1="214.1358" y2="214.1358"/></g><!--MD5=[0a96112909d36c571f452f0a78b1fdfa]
class FACEBOOK--><g id="elem_FACEBOOK"><rect codeLine="22" fill="#F1F1F1" height="48" id="FACEBOOK" rx="2.5" ry="2.5" style="stroke:#181818;stroke-width:0.5;" width="105" x="299" y="164.6079"/><ellipse cx="314" cy="180.6079" fill="#ADD1B2" rx="11" ry="11" style="stroke:#181818;stroke-width:1.0;"/><path d="M313.4688,187.5298 Q311.7188,187.5298 310.5781,186.7954 Q309.4531,186.0454 308.8906,184.7017 Q308.3438,183.3423 308.3438,181.5454 Q308.3438,179.5142 309,178.061 Q309.6563,176.6079 310.9375,175.8267 Q312.2188,175.0454 314.0938,175.0454 Q314.9844,175.0454 315.6563,175.2329 Q316.3281,175.4048 317.0156,175.7485 L316.2031,177.7642 Q315.5781,177.4517 315.0313,177.3267 Q314.5,177.2017 314.0156,177.2017 Q312.8438,177.2017 312.1406,177.7329 Q311.4375,178.2642 311.1406,179.2173 Q310.8438,180.1704 310.8438,181.436 Q310.8438,183.4517 311.5625,184.4204 Q312.2813,185.3735 313.875,185.3735 Q314.4688,185.3735 315.0938,185.2173 Q315.7188,185.061 316.5469,184.686 L316.5469,186.9048 Q315.8125,187.2173 315.0156,187.3735 Q314.2344,187.5298 313.4688,187.5298 Z " fill="#000000"/><text fill="#000000" font-family="Arial" font-size="14" lengthAdjust="spacing" textLength="73" x="328" y="186.0399">FACEBOOK</text><line style="stroke:#181818;stroke-width:0.5;" x1="300" x2="403" y1="196.6079" y2="196.6079"/><line style="stroke:#181818;stroke-width:0.5;" x1="300" x2="403" y1="204.6079" y2="204.6079"/></g><!--MD5=[c1107c9129958efd271b7e34bf2ae674]
class X (TWITTER)--><g id="elem_X (TWITTER)"><rect codeLine="26" fill="#F1F1F1" height="48" id="X (TWITTER)" rx="2.5" ry="2.5" style="stroke:#181818;stroke-width:0.5;" width="111" x="439" y="164.6079"/><ellipse cx="454" cy="180.6079" fill="#ADD1B2" rx="11" ry="11" style="stroke:#181818;stroke-width:1.0;"/><path d="M453.4688,187.5298 Q451.7188,187.5298 450.5781,186.7954 Q449.4531,186.0454 448.8906,184.7017 Q448.3438,183.3423 448.3438,181.5454 Q448.3438,179.5142 449,178.061 Q449.6563,176.6079 450.9375,175.8267 Q452.2188,175.0454 454.0938,175.0454 Q454.9844,175.0454 455.6563,175.2329 Q456.3281,175.4048 457.0156,175.7485 L456.2031,177.7642 Q455.5781,177.4517 455.0313,177.3267 Q454.5,177.2017 454.0156,177.2017 Q452.8438,177.2017 452.1406,177.7329 Q451.4375,178.2642 451.1406,179.2173 Q450.8438,180.1704 450.8438,181.436 Q450.8438,183.4517 451.5625,184.4204 Q452.2813,185.3735 453.875,185.3735 Q454.4688,185.3735 455.0938,185.2173 Q455.7188,185.061 456.5469,184.686 L456.5469,186.9048 Q455.8125,187.2173 455.0156,187.3735 Q454.2344,187.5298 453.4688,187.5298 Z " fill="#000000"/><text fill="#000000" font-family="Arial" font-size="14" lengthAdjust="spacing" textLength="79" x="468" y="186.0399">X (TWITTER)</text><line style="stroke:#181818;stroke-width:0.5;" x1="440" x2="549" y1="196.6079" y2="196.6079"/><line style="stroke:#181818;stroke-width:0.5;" x1="440" x2="549" y1="204.6079" y2="204.6079"/></g><!--MD5=[6b47c115db8a5b05e60b9f7f27e4054c]
class GOOGLE--><g id="elem_GOOGLE"><rect codeLine="30" fill="#F1F1F1" height="48" id="GOOGLE" rx="2.5" ry="2.5" style="stroke:#181818;stroke-width:0.5;" width="89" x="585" y="164.6079"/><ellipse cx="600" cy="180.6079" fill="#ADD1B2" rx="11" ry="11" style="stroke:#181818;stroke-width:1.0;"/><path d="M599.4688,187.5298 Q597.7188,187.5298 596.5781,186.7954 Q595.4531,186.0454 594.8906,184.7017 Q594.3438,183.3423 594.3438,181.5454 Q594.3438,179.5142 595,178.061 Q595.6563,176.6079 596.9375,175.8267 Q598.2188,175.0454 600.0938,175.0454 Q600.9844,175.0454 601.6563,175.2329 Q602.3281,175.4048 603.0156,175.7485 L602.2031,177.7642 Q601.5781,177.4517 601.0313,177.3267 Q600.5,177.2017 600.0156,177.2017 Q598.8438,177.2017 598.1406,177.7329 Q597.4375,178.2642 597.1406,179.2173 Q596.8438,180.1704 596.8438,181.436 Q596.8438,183.4517 597.5625,184.4204 Q598.2813,185.3735 599.875,185.3735 Q600.4688,185.3735 601.0938,185.2173 Q601.7188,185.061 602.5469,184.686 L602.5469,186.9048 Q601.8125,187.2173 601.0156,187.3735 Q600.2344,187.5298 599.4688,187.5298 Z " fill="#000000"/><text fill="#000000" font-family="Arial" font-size="14" lengthAdjust="spacing" textLength="57" x="614" y="186.0399">GOOGLE</text><line style="stroke:#181818;stroke-width:0.5;" x1="586" x2="673" y1="196.6079" y2="196.6079"/><line style="stroke:#181818;stroke-width:0.5;" x1="586" x2="673" y1="204.6079" y2="204.6079"/></g><!--MD5=[267a193bf8734c37dd4aff90837c4030]
reverse link SERVICIO EXTERNO to UNIVERSIDAD--><g id="link_SERVICIO EXTERNO_UNIVERSIDAD"><path codeLine="34" d="M274.76,103.5079 C230.08,121.8179 174.44,144.6079 132.37,161.8479 " fill="none" id="SERVICIO EXTERNO-backto-UNIVERSIDAD" style="stroke:#181818;stroke-width:1.0;"/><polygon fill="none" points="271.87,97.1279,293.03,96.0279,277.18,110.0879,271.87,97.1279" style="stroke:#181818;stroke-width:1.0;"/></g><!--MD5=[a4a446a8581bd9d1614f089af9387fd1]
reverse link SERVICIO EXTERNO to LINKEDIN--><g id="link_SERVICIO EXTERNO_LINKEDIN"><path codeLine="35" d="M307.77,109.2179 C290.58,123.8179 271,140.4579 254.32,154.6279 " fill="none" id="SERVICIO EXTERNO-backto-LINKEDIN" style="stroke:#181818;stroke-width:1.0;"/><polygon fill="none" points="303.05,104.0479,322.82,96.4279,312.11,114.7179,303.05,104.0479" style="stroke:#181818;stroke-width:1.0;"/></g><!--MD5=[6484b0c47206444cf2b615bcab438454]
reverse link SERVICIO EXTERNO to FACEBOOK--><g id="link_SERVICIO EXTERNO_FACEBOOK"><path codeLine="36" d="M351.5,116.8179 C351.5,133.0079 351.5,150.6379 351.5,164.2579 " fill="none" id="SERVICIO EXTERNO-backto-FACEBOOK" style="stroke:#181818;stroke-width:1.0;"/><polygon fill="none" points="344.5,116.9679,351.5,96.9679,358.5,116.9679,344.5,116.9679" style="stroke:#181818;stroke-width:1.0;"/></g><!--MD5=[6ee0dfb649729b53513e82fe980cb2e7]
reverse link SERVICIO EXTERNO to X (TWITTER)--><g id="link_SERVICIO EXTERNO_X (TWITTER)"><path codeLine="37" d="M397.04,108.8579 C419.51,127.0179 445.94,148.3679 465.6,164.2579 " fill="none" id="SERVICIO EXTERNO-backto-X (TWITTER)" style="stroke:#181818;stroke-width:1.0;"/><polygon fill="none" points="392.77,114.4179,381.62,96.3979,401.57,103.5279,392.77,114.4179" style="stroke:#181818;stroke-width:1.0;"/></g><!--MD5=[dfb134b4b38cf5b411c819b8da7ae527]
reverse link SERVICIO EXTERNO to GOOGLE--><g id="link_SERVICIO EXTERNO_GOOGLE"><path codeLine="38" d="M438.52,102.8779 C478.29,117.6279 525.74,136.1679 567.5,155.0679 C573.7,157.8779 580.16,161.0079 586.46,164.1979 " fill="none" id="SERVICIO EXTERNO-backto-GOOGLE" style="stroke:#181818;stroke-width:1.0;"/><polygon fill="none" points="436.28,109.5079,419.92,96.0479,441.11,96.3679,436.28,109.5079" style="stroke:#181818;stroke-width:1.0;"/></g><!--MD5=[562a460692c1c02306cdaea57808f52e]
@startuml AlumniExternalServices

title Servicios externos

'!theme amiga
skinparam backgroundColor white
skinparam defaultFontName Arial

abstract "SERVICIO EXTERNO" 
{ 
}

class UNIVERSIDAD 
{
    Bases de Datos
}

class LINKEDIN
{
    Perfil
}

class FACEBOOK
{
}

class "X (TWITTER)"
{
}

class GOOGLE
{
}

"SERVICIO EXTERNO" <|- - UNIVERSIDAD
"SERVICIO EXTERNO" <|- - LINKEDIN
"SERVICIO EXTERNO" <|- - FACEBOOK
"SERVICIO EXTERNO" <|- - "X (TWITTER)"
"SERVICIO EXTERNO" <|- - GOOGLE

@enduml

@startuml AlumniExternalServices

title Servicios externos

skinparam backgroundColor white
skinparam defaultFontName Arial

abstract "SERVICIO EXTERNO" 
{ 
}

class UNIVERSIDAD 
{
    Bases de Datos
}

class LINKEDIN
{
    Perfil
}

class FACEBOOK
{
}

class "X (TWITTER)"
{
}

class GOOGLE
{
}

"SERVICIO EXTERNO" <|- - UNIVERSIDAD
"SERVICIO EXTERNO" <|- - LINKEDIN
"SERVICIO EXTERNO" <|- - FACEBOOK
"SERVICIO EXTERNO" <|- - "X (TWITTER)"
"SERVICIO EXTERNO" <|- - GOOGLE

@enduml

PlantUML version 1.2022.7(Mon Aug 22 19:01:30 CEST 2022)
(GPL source distribution)
Java Runtime: OpenJDK Runtime Environment
JVM: OpenJDK 64-Bit Server VM
Default Encoding: UTF-8
Language: es
Country: ES
--></g></svg>