<?xml version="1.0" encoding="UTF-8" standalone="no"?><svg xmlns="http://www.w3.org/2000/svg" xmlns:xlink="http://www.w3.org/1999/xlink" contentStyleType="text/css" height="840px" preserveAspectRatio="none" style="width:548px;height:840px;background:#FFFFFF;" version="1.1" viewBox="0 0 548 840" width="548px" zoomAndPan="magnify"><defs/><g><rect fill="none" height="27.6094" id="_title" style="stroke:none;stroke-width:1.0;" width="111" x="208.5" y="5"/><text fill="#000000" font-family="sans-serif" font-size="14" font-weight="bold" lengthAdjust="spacing" textLength="101" x="213.5" y="24.5332">Crear Paquete</text><rect fill="#F1F1F1" height="40" rx="12.5" ry="12.5" style="stroke:#181818;stroke-width:0.5;" width="153" x="194.5" y="45.6094"/><text fill="#000000" font-family="sans-serif" font-size="14" lengthAdjust="spacing" textLength="143" x="199.5" y="71.3379">GESTIÓN_PAQUETES</text><path d="M19.5,197.6094 L522.5,197.6094 A12.5,12.5 0 0 1 535,210.1094 L535,225.2188 L7,225.2188 L7,210.1094 A12.5,12.5 0 0 1 19.5,197.6094 " fill="#F1F1F1" style="stroke:#F1F1F1;stroke-width:1.0;"/><rect fill="none" height="636.6094" rx="12.5" ry="12.5" style="stroke:#181818;stroke-width:0.5;" width="528" x="7" y="197.6094"/><line style="stroke:#181818;stroke-width:0.5;" x1="7" x2="535" y1="225.2188" y2="225.2188"/><text fill="#000000" font-family="sans-serif" font-size="14" lengthAdjust="spacing" textLength="89" x="226.5" y="217.1426">CrearPaquete</text><rect fill="#F1F1F1" height="40" rx="12.5" ry="12.5" style="stroke:#181818;stroke-width:0.5;" width="50" x="122" y="293.2188"/><text fill="#000000" font-family="sans-serif" font-size="14" lengthAdjust="spacing" textLength="4" x="145" y="318.9473"> </text><rect fill="#F1F1F1" height="40" rx="12.5" ry="12.5" style="stroke:#181818;stroke-width:0.5;" width="50" x="19" y="509.2188"/><text fill="#000000" font-family="sans-serif" font-size="14" lengthAdjust="spacing" textLength="4" x="42" y="534.9473"> </text><g id="elem_4"><polygon fill="#F1F1F1" points="151,692.2188,163,704.2188,151,716.2188,139,704.2188,151,692.2188" style="stroke:#181818;stroke-width:0.5;"/></g><ellipse cx="147" cy="246.2188" fill="#222222" rx="10" ry="10" style="stroke:none;stroke-width:1.0;"/><ellipse cx="151" cy="814.2188" fill="none" rx="10" ry="10" style="stroke:#222222;stroke-width:1.0;"/><ellipse cx="151.5" cy="814.7188" fill="#222222" rx="6" ry="6" style="stroke:none;stroke-width:1.0;"/><!--MD5=[ef319318b6f08224369642577235f8a4]
link *start*CrearPaquete to 2--><g id="link_*start*CrearPaquete_2"><path d="M147,256.2587 C147,264.4088 147,276.7787 147,287.8188 " fill="none" id="*start*CrearPaquete-to-2" style="stroke:#008000;stroke-width:1.0;"/><polygon fill="#008000" points="147,293.1088,151,284.1088,147,288.1088,143,284.1088,147,293.1088" style="stroke:#008000;stroke-width:1.0;"/></g><!--MD5=[eeb69082328d10abd3b14fdeede0d8a3]
link 2 to 3--><g id="link_2_3"><path d="M121.91,322.8888 C90.29,333.8288 40,351.2188 40,351.2188 C40,351.2188 40,485.2188 40,485.2188 C40,485.2188 40.83,494.1488 41.74,503.8688 " fill="none" id="2-to-3" style="stroke:#008000;stroke-width:1.0;"/><polygon fill="#008000" points="42.21,508.9788,45.345,499.6422,41.7393,504.001,37.3805,500.3953,42.21,508.9788" style="stroke:#008000;stroke-width:1.0;"/><path d="M45,356.2188 L45,480.2188 L236,480.2188 L236,366.2188 L226,356.2188 L45,356.2188 " fill="#F5F5F5" style="stroke:#181818;stroke-width:0.5;"/><path d="M226,356.2188 L226,366.2188 L236,366.2188 L226,356.2188 " fill="#F5F5F5" style="stroke:#181818;stroke-width:0.5;"/><text fill="#000000" font-family="sans-serif" font-size="13" font-weight="bold" lengthAdjust="spacing" textLength="103" x="51" y="374.7139">Sistema Solicita</text><ellipse cx="56.5" cy="386.4219" fill="#000000" rx="2.5" ry="2.5" style="stroke:#000000;stroke-width:0.0;"/><text fill="#000000" font-family="sans-serif" font-size="13" lengthAdjust="spacing" textLength="45" x="64" y="391.0654">Nombre</text><ellipse cx="56.5" cy="402.7734" fill="#000000" rx="2.5" ry="2.5" style="stroke:#000000;stroke-width:0.0;"/><text fill="#000000" font-family="sans-serif" font-size="13" lengthAdjust="spacing" textLength="107" x="64" y="407.417">Servicios Incluidos</text><ellipse cx="56.5" cy="419.125" fill="#000000" rx="2.5" ry="2.5" style="stroke:#000000;stroke-width:0.0;"/><text fill="#000000" font-family="sans-serif" font-size="13" lengthAdjust="spacing" textLength="37" x="64" y="423.7686">Precio</text><ellipse cx="56.5" cy="435.4766" fill="#000000" rx="2.5" ry="2.5" style="stroke:#000000;stroke-width:0.0;"/><text fill="#000000" font-family="sans-serif" font-size="13" lengthAdjust="spacing" textLength="68" x="64" y="440.1201">Descripción</text><text fill="#000000" font-family="sans-serif" font-size="13" font-weight="bold" lengthAdjust="spacing" textLength="105" x="51" y="456.4717">Sistema Permite</text><ellipse cx="56.5" cy="468.1797" fill="#000000" rx="2.5" ry="2.5" style="stroke:#000000;stroke-width:0.0;"/><text fill="#000000" font-family="sans-serif" font-size="13" lengthAdjust="spacing" textLength="157" x="64" y="472.8232">Crear Paquete de Servicios</text></g><!--MD5=[b1f22f0c97e7f2b556a5a2d67c42ac53]
link 3 to 4--><g id="link_3_4"><path d="M45.73,549.3388 C49.26,588.5088 57,674.2188 57,674.2188 C57,674.2188 111.54,691.0488 137.53,699.0688 " fill="none" id="3-to-4" style="stroke:#008000;stroke-width:1.0;"/><polygon fill="#008000" points="142.33,700.5387,134.9084,694.0642,137.552,699.0653,132.5509,701.7089,142.33,700.5387" style="stroke:#008000;stroke-width:1.0;"/><path d="M62,578.2188 L62,669.2188 L236,669.2188 L236,588.2188 L226,578.2188 L62,578.2188 " fill="#F5F5F5" style="stroke:#181818;stroke-width:0.5;"/><path d="M226,578.2188 L226,588.2188 L236,588.2188 L226,578.2188 " fill="#F5F5F5" style="stroke:#181818;stroke-width:0.5;"/><text fill="#000000" font-family="sans-serif" font-size="13" font-weight="bold" lengthAdjust="spacing" textLength="153" x="68" y="596.7139">Administrador Introduce</text><ellipse cx="73.5" cy="608.4219" fill="#000000" rx="2.5" ry="2.5" style="stroke:#000000;stroke-width:0.0;"/><text fill="#000000" font-family="sans-serif" font-size="13" lengthAdjust="spacing" textLength="45" x="81" y="613.0654">Nombre</text><ellipse cx="73.5" cy="624.7734" fill="#000000" rx="2.5" ry="2.5" style="stroke:#000000;stroke-width:0.0;"/><text fill="#000000" font-family="sans-serif" font-size="13" lengthAdjust="spacing" textLength="107" x="81" y="629.417">Servicios Incluidos</text><ellipse cx="73.5" cy="641.125" fill="#000000" rx="2.5" ry="2.5" style="stroke:#000000;stroke-width:0.0;"/><text fill="#000000" font-family="sans-serif" font-size="13" lengthAdjust="spacing" textLength="37" x="81" y="645.7686">Precio</text><ellipse cx="73.5" cy="657.4766" fill="#000000" rx="2.5" ry="2.5" style="stroke:#000000;stroke-width:0.0;"/><text fill="#000000" font-family="sans-serif" font-size="13" lengthAdjust="spacing" textLength="68" x="81" y="662.1201">Descripción</text></g><!--MD5=[79fbcc1b40a252a685bdc1accbf9c6a3]
link 4 to *end*CrearPaquete--><g id="link_4_*end*CrearPaquete"><path d="M151,716.3688 C151,736.1488 151,777.3088 151,799.0588 " fill="none" id="4-to-*end*CrearPaquete" style="stroke:#008000;stroke-width:1.0;"/><polygon fill="#008000" points="151,804.1388,155,795.1388,151,799.1388,147,795.1388,151,804.1388" style="stroke:#008000;stroke-width:1.0;"/><path d="M156,739.2188 L156,781.2188 L357,781.2188 L357,749.2188 L347,739.2188 L156,739.2188 " fill="#F5F5F5" style="stroke:#181818;stroke-width:0.5;"/><path d="M347,739.2188 L347,749.2188 L357,749.2188 L347,739.2188 " fill="#F5F5F5" style="stroke:#181818;stroke-width:0.5;"/><text fill="#000000" font-family="sans-serif" font-size="13" font-weight="bold" lengthAdjust="spacing" textLength="105" x="162" y="757.7139">Sistema Muestra</text><ellipse cx="167.5" cy="769.4219" fill="#000000" rx="2.5" ry="2.5" style="stroke:#000000;stroke-width:0.0;"/><text fill="#000000" font-family="sans-serif" font-size="13" lengthAdjust="spacing" textLength="167" x="175" y="774.0654">Paquete de Servicios Creado</text></g><!--MD5=[d5d43b3f3dfddbfb6ca65af0419a6a54]
link 4 to 2--><g id="link_4_2"><path d="M159.63,700.4388 C182.16,693.1788 241,674.2188 241,674.2188 C241,674.2188 241,351.2188 241,351.2188 C241,351.2188 204.39,336.8088 176.87,325.9788 " fill="none" id="4-to-2" style="stroke:#FF0000;stroke-width:1.0;"/><polygon fill="#FF0000" points="172.19,324.1388,179.1055,331.1513,176.8441,325.9661,182.0293,323.7047,172.19,324.1388" style="stroke:#FF0000;stroke-width:1.0;"/><path d="M246,508.2188 L246,550.2188 L526,550.2188 L526,518.2188 L516,508.2188 L246,508.2188 " fill="#F5F5F5" style="stroke:#181818;stroke-width:0.5;"/><path d="M516,508.2188 L516,518.2188 L526,518.2188 L516,508.2188 " fill="#F5F5F5" style="stroke:#181818;stroke-width:0.5;"/><text fill="#000000" font-family="sans-serif" font-size="13" font-weight="bold" lengthAdjust="spacing" textLength="105" x="252" y="526.7139">Sistema Muestra</text><ellipse cx="257.5" cy="538.4219" fill="#000000" rx="2.5" ry="2.5" style="stroke:#000000;stroke-width:0.0;"/><text fill="#000000" font-family="sans-serif" font-size="13" lengthAdjust="spacing" textLength="246" x="265" y="543.0654">Mensaje de error en los datos introducidos</text></g><!--MD5=[e34cc9f42ff0b4a826c8dda383fbbda4]
link startState to CrearPaquete--><g id="link_startState_CrearPaquete"><path d="M271,85.8794 C271,107.8794 271,146.7994 271,192.5194 " fill="none" id="startState-to-CrearPaquete" style="stroke:#008000;stroke-width:1.0;"/><polygon fill="#008000" points="271,197.5394,275,188.5394,271,192.5394,267,188.5394,271,197.5394" style="stroke:#008000;stroke-width:1.0;"/><path d="M276,120.6094 L276,162.6094 L467,162.6094 L467,130.6094 L457,120.6094 L276,120.6094 " fill="#F5F5F5" style="stroke:#181818;stroke-width:0.5;"/><path d="M457,120.6094 L457,130.6094 L467,130.6094 L457,120.6094 " fill="#F5F5F5" style="stroke:#181818;stroke-width:0.5;"/><text fill="#000000" font-family="sans-serif" font-size="13" font-weight="bold" lengthAdjust="spacing" textLength="141" x="282" y="139.1045">Administrador Solicita</text><ellipse cx="287.5" cy="150.8125" fill="#000000" rx="2.5" ry="2.5" style="stroke:#000000;stroke-width:0.0;"/><text fill="#000000" font-family="sans-serif" font-size="13" lengthAdjust="spacing" textLength="157" x="295" y="155.4561">Crear Paquete de Servicios</text></g><!--MD5=[75a019fb453dfc93b7c9b800343dff96]
@startuml

title Crear Paquete

skinparam {
    NoteBackgroundColor #whiteSmoke
    ArrowColor #green
    NoteBorderColor #green
    linetype polyline
}

hide empty description

state startState as "GESTIÓN_PAQUETES"

startState - -> CrearPaquete
note on link
    <b>Administrador Solicita</b>
    * Crear Paquete de Servicios
end note

state CrearPaquete{
state 2 as " "
state 3 as " "
state 4 <<choice>>

[*] -down-> 2

2 -down-> 3
note on link
<b>Sistema Solicita</b>
* Nombre
* Servicios Incluidos
* Precio
* Descripción
<b>Sistema Permite</b>
* Crear Paquete de Servicios
end note

3 -down-> 4
note on link
<b>Administrador Introduce</b>
* Nombre
* Servicios Incluidos
* Precio
* Descripción
end note

4 -down-> [*]
note on link
<b>Sistema Muestra</b>
* Paquete de Servicios Creado
end note

4 -[#red]-> 2
note on link
<b>Sistema Muestra</b>
* Mensaje de error en los datos introducidos
end note

}

@enduml

PlantUML version 1.2022.7(Mon Aug 22 19:01:30 CEST 2022)
(GPL source distribution)
Java Runtime: OpenJDK Runtime Environment
JVM: OpenJDK 64-Bit Server VM
Default Encoding: Cp1252
Language: es
Country: ES
--></g></svg>