<?xml version="1.0" encoding="UTF-8" standalone="no"?><svg xmlns="http://www.w3.org/2000/svg" xmlns:xlink="http://www.w3.org/1999/xlink" contentStyleType="text/css" height="840px" preserveAspectRatio="none" style="width:512px;height:840px;background:#FFFFFF;" version="1.1" viewBox="0 0 512 840" width="512px" zoomAndPan="magnify"><defs/><g><rect fill="none" height="27.6094" id="_title" style="stroke:none;stroke-width:1.0;" width="111" x="190.5" y="5"/><text fill="#000000" font-family="sans-serif" font-size="14" font-weight="bold" lengthAdjust="spacing" textLength="101" x="195.5" y="24.5332">Crear Servicio</text><rect fill="#F1F1F1" height="40" rx="12.5" ry="12.5" style="stroke:#181818;stroke-width:0.5;" width="152" x="177" y="45.6094"/><text fill="#000000" font-family="sans-serif" font-size="14" lengthAdjust="spacing" textLength="142" x="182" y="71.3379">GESTIÓN_SERVICIOS</text><path d="M19.5,197.6094 L486.5,197.6094 A12.5,12.5 0 0 1 499,210.1094 L499,225.2188 L7,225.2188 L7,210.1094 A12.5,12.5 0 0 1 19.5,197.6094 " fill="#F1F1F1" style="stroke:#F1F1F1;stroke-width:1.0;"/><rect fill="none" height="636.6094" rx="12.5" ry="12.5" style="stroke:#181818;stroke-width:0.5;" width="492" x="7" y="197.6094"/><line style="stroke:#181818;stroke-width:0.5;" x1="7" x2="499" y1="225.2188" y2="225.2188"/><text fill="#000000" font-family="sans-serif" font-size="14" lengthAdjust="spacing" textLength="86" x="210" y="217.1426">CrearServicio</text><rect fill="#F1F1F1" height="40" rx="12.5" ry="12.5" style="stroke:#181818;stroke-width:0.5;" width="50" x="106" y="293.2188"/><text fill="#000000" font-family="sans-serif" font-size="14" lengthAdjust="spacing" textLength="4" x="129" y="318.9473"> </text><rect fill="#F1F1F1" height="40" rx="12.5" ry="12.5" style="stroke:#181818;stroke-width:0.5;" width="50" x="19" y="509.2188"/><text fill="#000000" font-family="sans-serif" font-size="14" lengthAdjust="spacing" textLength="4" x="42" y="534.9473"> </text><g id="elem_4"><polygon fill="#F1F1F1" points="119,692.2188,131,704.2188,119,716.2188,107,704.2188,119,692.2188" style="stroke:#181818;stroke-width:0.5;"/></g><ellipse cx="131" cy="246.2188" fill="#222222" rx="10" ry="10" style="stroke:none;stroke-width:1.0;"/><ellipse cx="119" cy="814.2188" fill="none" rx="10" ry="10" style="stroke:#222222;stroke-width:1.0;"/><ellipse cx="119.5" cy="814.7188" fill="#222222" rx="6" ry="6" style="stroke:none;stroke-width:1.0;"/><!--MD5=[a050b501c77f4ccec412c3767b12b010]
link *start*CrearServicio to 2--><g id="link_*start*CrearServicio_2"><path d="M131,256.2587 C131,264.4088 131,276.7787 131,287.8188 " fill="none" id="*start*CrearServicio-to-2" style="stroke:#008000;stroke-width:1.0;"/><polygon fill="#008000" points="131,293.1088,135,284.1088,131,288.1088,127,284.1088,131,293.1088" style="stroke:#008000;stroke-width:1.0;"/></g><!--MD5=[eeb69082328d10abd3b14fdeede0d8a3]
link 2 to 3--><g id="link_2_3"><path d="M105.78,329.2688 C88.62,339.5088 69,351.2188 69,351.2188 C69,351.2188 54.29,455.3388 47.44,503.8688 " fill="none" id="2-to-3" style="stroke:#008000;stroke-width:1.0;"/><polygon fill="#008000" points="46.72,508.9388,51.9155,500.5717,47.4051,503.9859,43.9909,499.4755,46.72,508.9388" style="stroke:#008000;stroke-width:1.0;"/><path d="M74,356.2188 L74,480.2188 L200,480.2188 L200,366.2188 L190,356.2188 L74,356.2188 " fill="#F5F5F5" style="stroke:#181818;stroke-width:0.5;"/><path d="M190,356.2188 L190,366.2188 L200,366.2188 L190,356.2188 " fill="#F5F5F5" style="stroke:#181818;stroke-width:0.5;"/><text fill="#000000" font-family="sans-serif" font-size="13" font-weight="bold" lengthAdjust="spacing" textLength="103" x="80" y="374.7139">Sistema Solicita</text><ellipse cx="85.5" cy="386.4219" fill="#000000" rx="2.5" ry="2.5" style="stroke:#000000;stroke-width:0.0;"/><text fill="#000000" font-family="sans-serif" font-size="13" lengthAdjust="spacing" textLength="45" x="93" y="391.0654">Nombre</text><ellipse cx="85.5" cy="402.7734" fill="#000000" rx="2.5" ry="2.5" style="stroke:#000000;stroke-width:0.0;"/><text fill="#000000" font-family="sans-serif" font-size="13" lengthAdjust="spacing" textLength="37" x="93" y="407.417">Precio</text><ellipse cx="85.5" cy="419.125" fill="#000000" rx="2.5" ry="2.5" style="stroke:#000000;stroke-width:0.0;"/><text fill="#000000" font-family="sans-serif" font-size="13" lengthAdjust="spacing" textLength="86" x="93" y="423.7686">Url del Servicio</text><ellipse cx="85.5" cy="435.4766" fill="#000000" rx="2.5" ry="2.5" style="stroke:#000000;stroke-width:0.0;"/><text fill="#000000" font-family="sans-serif" font-size="13" lengthAdjust="spacing" textLength="68" x="93" y="440.1201">Descripción</text><text fill="#000000" font-family="sans-serif" font-size="13" font-weight="bold" lengthAdjust="spacing" textLength="105" x="80" y="456.4717">Sistema Permite</text><ellipse cx="85.5" cy="468.1797" fill="#000000" rx="2.5" ry="2.5" style="stroke:#000000;stroke-width:0.0;"/><text fill="#000000" font-family="sans-serif" font-size="13" lengthAdjust="spacing" textLength="80" x="93" y="472.8232">Crear Servicio</text></g><!--MD5=[b1f22f0c97e7f2b556a5a2d67c42ac53]
link 3 to 4--><g id="link_3_4"><path d="M33.71,549.4588 C27.59,560.9088 21,573.2188 21,573.2188 C21,573.2188 21,674.2188 21,674.2188 C21,674.2188 78.41,691.2088 105.35,699.1788 " fill="none" id="3-to-4" style="stroke:#008000;stroke-width:1.0;"/><polygon fill="#008000" points="110.3,700.6488,102.8149,694.2477,105.5077,699.2225,100.5329,701.9153,110.3,700.6488" style="stroke:#008000;stroke-width:1.0;"/><path d="M26,578.2188 L26,669.2188 L200,669.2188 L200,588.2188 L190,578.2188 L26,578.2188 " fill="#F5F5F5" style="stroke:#181818;stroke-width:0.5;"/><path d="M190,578.2188 L190,588.2188 L200,588.2188 L190,578.2188 " fill="#F5F5F5" style="stroke:#181818;stroke-width:0.5;"/><text fill="#000000" font-family="sans-serif" font-size="13" font-weight="bold" lengthAdjust="spacing" textLength="153" x="32" y="596.7139">Amdinistrador Introduce</text><ellipse cx="37.5" cy="608.4219" fill="#000000" rx="2.5" ry="2.5" style="stroke:#000000;stroke-width:0.0;"/><text fill="#000000" font-family="sans-serif" font-size="13" lengthAdjust="spacing" textLength="45" x="45" y="613.0654">Nombre</text><ellipse cx="37.5" cy="624.7734" fill="#000000" rx="2.5" ry="2.5" style="stroke:#000000;stroke-width:0.0;"/><text fill="#000000" font-family="sans-serif" font-size="13" lengthAdjust="spacing" textLength="37" x="45" y="629.417">Precio</text><ellipse cx="37.5" cy="641.125" fill="#000000" rx="2.5" ry="2.5" style="stroke:#000000;stroke-width:0.0;"/><text fill="#000000" font-family="sans-serif" font-size="13" lengthAdjust="spacing" textLength="86" x="45" y="645.7686">Url del Servicio</text><ellipse cx="37.5" cy="657.4766" fill="#000000" rx="2.5" ry="2.5" style="stroke:#000000;stroke-width:0.0;"/><text fill="#000000" font-family="sans-serif" font-size="13" lengthAdjust="spacing" textLength="68" x="45" y="662.1201">Descripción</text></g><!--MD5=[5500eccd0fb5408858dd8b8d7812debb]
link 4 to *end*CrearServicio--><g id="link_4_*end*CrearServicio"><path d="M119,716.3688 C119,736.1488 119,777.3088 119,799.0588 " fill="none" id="4-to-*end*CrearServicio" style="stroke:#008000;stroke-width:1.0;"/><polygon fill="#008000" points="119,804.1388,123,795.1388,119,799.1388,115,795.1388,119,804.1388" style="stroke:#008000;stroke-width:1.0;"/><path d="M124,739.2188 L124,781.2188 L250,781.2188 L250,749.2188 L240,739.2188 L124,739.2188 " fill="#F5F5F5" style="stroke:#181818;stroke-width:0.5;"/><path d="M240,739.2188 L240,749.2188 L250,749.2188 L240,739.2188 " fill="#F5F5F5" style="stroke:#181818;stroke-width:0.5;"/><text fill="#000000" font-family="sans-serif" font-size="13" font-weight="bold" lengthAdjust="spacing" textLength="105" x="130" y="757.7139">Sistema Muestra</text><ellipse cx="135.5" cy="769.4219" fill="#000000" rx="2.5" ry="2.5" style="stroke:#000000;stroke-width:0.0;"/><text fill="#000000" font-family="sans-serif" font-size="13" lengthAdjust="spacing" textLength="90" x="143" y="774.0654">Servicio Creado</text></g><!--MD5=[d5d43b3f3dfddbfb6ca65af0419a6a54]
link 4 to 2--><g id="link_4_2"><path d="M127.25,700.4388 C148.77,693.1788 205,674.2188 205,674.2188 C205,674.2188 205,351.2188 205,351.2188 C205,351.2188 181.25,339.3388 160.66,329.0488 " fill="none" id="4-to-2" style="stroke:#FF0000;stroke-width:1.0;"/><polygon fill="#FF0000" points="156.05,326.7488,162.3013,334.3594,160.5193,328.9905,165.8881,327.2085,156.05,326.7488" style="stroke:#FF0000;stroke-width:1.0;"/><path d="M210,508.2188 L210,550.2188 L490,550.2188 L490,518.2188 L480,508.2188 L210,508.2188 " fill="#F5F5F5" style="stroke:#181818;stroke-width:0.5;"/><path d="M480,508.2188 L480,518.2188 L490,518.2188 L480,508.2188 " fill="#F5F5F5" style="stroke:#181818;stroke-width:0.5;"/><text fill="#000000" font-family="sans-serif" font-size="13" font-weight="bold" lengthAdjust="spacing" textLength="105" x="216" y="526.7139">Sistema Muestra</text><ellipse cx="221.5" cy="538.4219" fill="#000000" rx="2.5" ry="2.5" style="stroke:#000000;stroke-width:0.0;"/><text fill="#000000" font-family="sans-serif" font-size="13" lengthAdjust="spacing" textLength="246" x="229" y="543.0654">Mensaje de error en los datos introducidos</text></g><!--MD5=[ee1e8b007dbffad1cdba0307dabd443e]
link startState to CrearServicio--><g id="link_startState_CrearServicio"><path d="M253,85.8794 C253,107.8794 253,146.7994 253,192.5194 " fill="none" id="startState-to-CrearServicio" style="stroke:#008000;stroke-width:1.0;"/><polygon fill="#008000" points="253,197.5394,257,188.5394,253,192.5394,249,188.5394,253,197.5394" style="stroke:#008000;stroke-width:1.0;"/><path d="M258,120.6094 L258,162.6094 L420,162.6094 L420,130.6094 L410,120.6094 L258,120.6094 " fill="#F5F5F5" style="stroke:#181818;stroke-width:0.5;"/><path d="M410,120.6094 L410,130.6094 L420,130.6094 L410,120.6094 " fill="#F5F5F5" style="stroke:#181818;stroke-width:0.5;"/><text fill="#000000" font-family="sans-serif" font-size="13" font-weight="bold" lengthAdjust="spacing" textLength="141" x="264" y="139.1045">Administrador Solicita</text><ellipse cx="269.5" cy="150.8125" fill="#000000" rx="2.5" ry="2.5" style="stroke:#000000;stroke-width:0.0;"/><text fill="#000000" font-family="sans-serif" font-size="13" lengthAdjust="spacing" textLength="80" x="277" y="155.4561">Crear Servicio</text></g><!--MD5=[c9467d6de9f2c8e8e2000d172fb2b1b0]
@startuml

title Crear Servicio

skinparam {
    NoteBackgroundColor #whiteSmoke
    ArrowColor #green
    NoteBorderColor #green
    linetype polyline
}

hide empty description

state startState as "GESTIÓN_SERVICIOS"

startState - -> CrearServicio
note on link
    <b>Administrador Solicita</b>
    * Crear Servicio
end note

state CrearServicio {
state 2 as " "
state 3 as " "
state 4 <<choice>>

[*] -down-> 2

2 -down-> 3
note on link
<b>Sistema Solicita</b>
* Nombre
* Precio
* Url del Servicio
* Descripción
<b>Sistema Permite</b>
* Crear Servicio
end note

3 -down-> 4
note on link
<b>Amdinistrador Introduce</b>
* Nombre
* Precio
* Url del Servicio
* Descripción
end note

4 -down-> [*]
note on link
<b>Sistema Muestra</b>
* Servicio Creado
end note

4 -[#red]-> 2
note on link
<b>Sistema Muestra</b>
* Mensaje de error en los datos introducidos
end note

}

@enduml

PlantUML version 1.2022.7(Mon Aug 22 19:01:30 CEST 2022)
(GPL source distribution)
Java Runtime: Java(TM) SE Runtime Environment
JVM: Java HotSpot(TM) 64-Bit Server VM
Default Encoding: Cp1252
Language: es
Country: ES
--></g></svg>