<?xml version="1.0" encoding="UTF-8" standalone="no"?><svg xmlns="http://www.w3.org/2000/svg" xmlns:xlink="http://www.w3.org/1999/xlink" contentStyleType="text/css" height="781px" preserveAspectRatio="none" style="width:1229px;height:781px;background:#FFFFFF;" version="1.1" viewBox="0 0 1229 781" width="1229px" zoomAndPan="magnify"><defs/><g><rect fill="none" height="29.0679" id="_title" style="stroke:none;stroke-width:1.0;" width="142" x="533.5" y="5"/><text fill="#000000" font-family="sans-serif" font-size="14" font-weight="bold" lengthAdjust="spacing" textLength="132" x="538.5" y="24.9659">Contexto Egresado</text><ellipse cx="611.5" cy="56.0679" fill="#222222" rx="10" ry="10" style="stroke:none;stroke-width:1.0;"/><rect fill="#F1F1F1" height="40" rx="12.5" ry="12.5" style="stroke:#181818;stroke-width:0.5;" width="60" x="581.5" y="127.0679"/><text fill="#000000" font-family="sans-serif" font-size="14" lengthAdjust="spacing" textLength="50" x="586.5" y="152.4999">INITIAL</text><ellipse cx="611.5" cy="765.1379" fill="none" rx="10" ry="10" style="stroke:#222222;stroke-width:1.0;"/><ellipse cx="612" cy="765.6379" fill="#222222" rx="6" ry="6" style="stroke:none;stroke-width:1.0;"/><path d="M19.5,282.0679 L1203.5,282.0679 A12.5,12.5 0 0 1 1216,294.5679 L1216,311.1358 L7,311.1358 L7,294.5679 A12.5,12.5 0 0 1 19.5,282.0679 " fill="#F1F1F1" style="stroke:#F1F1F1;stroke-width:1.0;"/><rect fill="none" height="376.0679" rx="12.5" ry="12.5" style="stroke:#181818;stroke-width:0.5;" width="1209" x="7" y="282.0679"/><line style="stroke:#181818;stroke-width:0.5;" x1="7" x2="1216" y1="311.1358" y2="311.1358"/><text fill="#000000" font-family="sans-serif" font-size="14" lengthAdjust="spacing" textLength="55" x="584" y="302.0339">ALUMNI</text><ellipse cx="559" cy="332.1358" fill="#222222" rx="10" ry="10" style="stroke:none;stroke-width:1.0;"/><rect fill="#F1F1F1" height="40" rx="12.5" ry="12.5" style="stroke:#181818;stroke-width:0.5;" width="95" x="511.5" y="440.6358"/><text fill="#000000" font-family="sans-serif" font-size="14" lengthAdjust="spacing" textLength="85" x="516.5" y="466.0678">DASHBOARD</text><rect fill="#F1F1F1" height="40" rx="12.5" ry="12.5" style="stroke:#181818;stroke-width:0.5;" width="156" x="19" y="595.6358"/><text fill="#000000" font-family="sans-serif" font-size="14" lengthAdjust="spacing" textLength="146" x="24" y="621.0678">EXPLORAR_SERVICIOS</text><rect fill="#F1F1F1" height="40" rx="12.5" ry="12.5" style="stroke:#181818;stroke-width:0.5;" width="127" x="424.5" y="595.6358"/><text fill="#000000" font-family="sans-serif" font-size="14" lengthAdjust="spacing" textLength="117" x="429.5" y="621.0678">CONFIGURACIÓN</text><rect fill="#F1F1F1" height="40" rx="12.5" ry="12.5" style="stroke:#181818;stroke-width:0.5;" width="81" x="902.5" y="595.6358"/><text fill="#000000" font-family="sans-serif" font-size="14" lengthAdjust="spacing" textLength="71" x="907.5" y="621.0678">SERVICIOS</text><!--MD5=[80ed1e7dc5ea98cae66a17687b6a86b3]
link *start*Alumni to DASHBOARD--><g id="link_*start*Alumni_DASHBOARD"><path d="M559,342.2358 C559,361.2158 559,405.6458 559,434.0858 " fill="none" id="*start*Alumni-to-DASHBOARD" style="stroke:#181818;stroke-width:1.0;"/><polygon fill="#181818" points="559,439.0758,563,430.0758,559,434.0758,555,430.0758,559,439.0758" style="stroke:#181818;stroke-width:1.0;"/><path d="M564,365.1358 L564,410.1358 L740,410.1358 L740,375.1358 L730,365.1358 L564,365.1358 " fill="#F5F5F5" style="stroke:#181818;stroke-width:0.5;"/><path d="M730,365.1358 L730,375.1358 L740,375.1358 L730,365.1358 " fill="#F5F5F5" style="stroke:#181818;stroke-width:0.5;"/><text fill="#000000" font-family="sans-serif" font-size="13" lengthAdjust="spacing" textLength="155" x="570" y="384.0328">Listar Servicios / Paquetes</text><text fill="#000000" font-family="sans-serif" font-size="13" lengthAdjust="spacing" textLength="97" x="570" y="401.7389">Realizar Petición</text></g><!--MD5=[32c88919d16ba5927ab528d95a6cb14d]
link DASHBOARD to EXPLORAR_SERVICIOS--><g id="link_DASHBOARD_EXPLORAR_SERVICIOS"><path d="M511.27,468.8858 C428.25,481.4958 266,506.1358 266,506.1358 C266,506.1358 224,561.1358 224,561.1358 C224,561.1358 183.92,578.0158 148.8,592.8158 " fill="none" id="DASHBOARD-to-EXPLORAR_SERVICIOS" style="stroke:#181818;stroke-width:1.0;"/><polygon fill="#181818" points="144.6,594.5858,154.4469,594.7799,149.2082,592.6455,151.3425,587.4068,144.6,594.5858" style="stroke:#181818;stroke-width:1.0;"/><path d="M271,511.1358 L271,556.1358 L447,556.1358 L447,521.1358 L437,511.1358 L271,511.1358 " fill="#F5F5F5" style="stroke:#181818;stroke-width:0.5;"/><path d="M437,511.1358 L437,521.1358 L447,521.1358 L437,511.1358 " fill="#F5F5F5" style="stroke:#181818;stroke-width:0.5;"/><text fill="#000000" font-family="sans-serif" font-size="13" lengthAdjust="spacing" textLength="155" x="277" y="530.0328">Listar Servicios / Paquetes</text><text fill="#000000" font-family="sans-serif" font-size="13" lengthAdjust="spacing" textLength="97" x="277" y="547.7389">Realizar Petición</text></g><!--MD5=[dd2dcb00e452a5e703e3ba78b2ad64cf]
reverse link DASHBOARD to EXPLORAR_SERVICIOS--><g id="link_DASHBOARD_EXPLORAR_SERVICIOS"><path d="M505.2,466.2358 C372.08,477.6058 38,506.1358 38,506.1358 C38,506.1358 38,561.1358 38,561.1358 C38,561.1358 58.8,579.9958 75.7,595.3258 " fill="none" id="DASHBOARD-backto-EXPLORAR_SERVICIOS" style="stroke:#181818;stroke-width:1.0;"/><polygon fill="#181818" points="509.88,465.8358,500.5705,462.6213,504.8984,466.2641,501.2556,470.5919,509.88,465.8358" style="stroke:#181818;stroke-width:1.0;"/><path d="M43,511.1358 L43,556.1358 L219,556.1358 L219,521.1358 L209,511.1358 L43,511.1358 " fill="#F5F5F5" style="stroke:#181818;stroke-width:0.5;"/><path d="M209,511.1358 L209,521.1358 L219,521.1358 L209,511.1358 " fill="#F5F5F5" style="stroke:#181818;stroke-width:0.5;"/><text fill="#000000" font-family="sans-serif" font-size="13" lengthAdjust="spacing" textLength="155" x="49" y="530.0328">Listar Servicios / Paquetes</text><text fill="#000000" font-family="sans-serif" font-size="13" lengthAdjust="spacing" textLength="97" x="49" y="547.7389">Realizar Petición</text></g><!--MD5=[7cae9b5798a55d6f83418a211846eb70]
link DASHBOARD to CONFIGURACIÓN--><g id="link_DASHBOARD_CONFIGURACIÓN"><path d="M595.16,481.0258 C617.53,493.0158 642,506.1358 642,506.1358 C642,506.1358 642,561.1358 642,561.1358 C642,561.1358 592.8,578.2258 550.02,593.0858 " fill="none" id="DASHBOARD-to-CONFIGURACIÓN" style="stroke:#181818;stroke-width:1.0;"/><polygon fill="#181818" points="545.46,594.6758,555.2743,595.5006,550.1831,593.0349,552.6488,587.9437,545.46,594.6758" style="stroke:#181818;stroke-width:1.0;"/><path d="M647,511.1358 L647,556.1358 L789,556.1358 L789,521.1358 L779,511.1358 L647,511.1358 " fill="#F5F5F5" style="stroke:#181818;stroke-width:0.5;"/><path d="M779,511.1358 L779,521.1358 L789,521.1358 L779,511.1358 " fill="#F5F5F5" style="stroke:#181818;stroke-width:0.5;"/><text fill="#000000" font-family="sans-serif" font-size="13" lengthAdjust="spacing" textLength="121" x="653" y="530.0328">Listar Datos Usuario</text><text fill="#000000" font-family="sans-serif" font-size="13" lengthAdjust="spacing" textLength="97" x="653" y="547.7389">Realizar Petición</text></g><!--MD5=[1e095cc5293d3c721a2bdf695703f74b]
reverse link DASHBOARD to CONFIGURACIÓN--><g id="link_DASHBOARD_CONFIGURACIÓN"><path d="M508.24,483.5658 C482.25,494.7958 456,506.1358 456,506.1358 C456,506.1358 456,561.1358 456,561.1358 C456,561.1358 467.28,579.9958 476.45,595.3258 " fill="none" id="DASHBOARD-backto-CONFIGURACIÓN" style="stroke:#181818;stroke-width:1.0;"/><polygon fill="#181818" points="512.73,481.6258,502.8816,481.5315,508.1417,483.6127,506.0605,488.8728,512.73,481.6258" style="stroke:#181818;stroke-width:1.0;"/><path d="M461,511.1358 L461,556.1358 L637,556.1358 L637,521.1358 L627,511.1358 L461,511.1358 " fill="#F5F5F5" style="stroke:#181818;stroke-width:0.5;"/><path d="M627,511.1358 L627,521.1358 L637,521.1358 L627,511.1358 " fill="#F5F5F5" style="stroke:#181818;stroke-width:0.5;"/><text fill="#000000" font-family="sans-serif" font-size="13" lengthAdjust="spacing" textLength="155" x="467" y="530.0328">Listar Servicios / Paquetes</text><text fill="#000000" font-family="sans-serif" font-size="13" lengthAdjust="spacing" textLength="97" x="467" y="547.7389">Realizar Petición</text></g><!--MD5=[7820c43a1beb09945b2afcd2f4f1c4c3]
link DASHBOARD to SERVICIOS--><g id="link_DASHBOARD_SERVICIOS"><path d="M606.78,466.1858 C725.81,477.5258 1026,506.1358 1026,506.1358 C1026,506.1358 1026,561.1358 1026,561.1358 C1026,561.1358 1000.92,577.3058 978.33,591.8558 " fill="none" id="DASHBOARD-to-SERVICIOS" style="stroke:#181818;stroke-width:1.0;"/><polygon fill="#181818" points="974.24,594.5058,983.97,592.9803,978.4394,591.7919,979.6278,586.2613,974.24,594.5058" style="stroke:#181818;stroke-width:1.0;"/><path d="M1031,511.1358 L1031,556.1358 L1207,556.1358 L1207,521.1358 L1197,511.1358 L1031,511.1358 " fill="#F5F5F5" style="stroke:#181818;stroke-width:0.5;"/><path d="M1197,511.1358 L1197,521.1358 L1207,521.1358 L1197,511.1358 " fill="#F5F5F5" style="stroke:#181818;stroke-width:0.5;"/><text fill="#000000" font-family="sans-serif" font-size="13" lengthAdjust="spacing" textLength="155" x="1037" y="530.0328">Listar Servicios / Paquetes</text><text fill="#000000" font-family="sans-serif" font-size="13" lengthAdjust="spacing" textLength="97" x="1037" y="547.7389">Realizar Petición</text></g><!--MD5=[c1fdba3d8c420396c01bd7c9b50e82e2]
reverse link DASHBOARD to SERVICIOS--><g id="link_DASHBOARD_SERVICIOS"><path d="M613.05,471.6958 C683.55,484.8258 798,506.1358 798,506.1358 C798,506.1358 840,561.1358 840,561.1358 C840,561.1358 876.07,579.8758 905.52,595.1658 " fill="none" id="DASHBOARD-backto-SERVICIOS" style="stroke:#181818;stroke-width:1.0;"/><polygon fill="#181818" points="608.28,470.8158,616.3965,476.3945,613.1957,471.7304,617.8598,468.5295,608.28,470.8158" style="stroke:#181818;stroke-width:1.0;"/><path d="M845,511.1358 L845,556.1358 L1021,556.1358 L1021,521.1358 L1011,511.1358 L845,511.1358 " fill="#F5F5F5" style="stroke:#181818;stroke-width:0.5;"/><path d="M1011,511.1358 L1011,521.1358 L1021,521.1358 L1011,511.1358 " fill="#F5F5F5" style="stroke:#181818;stroke-width:0.5;"/><text fill="#000000" font-family="sans-serif" font-size="13" lengthAdjust="spacing" textLength="155" x="851" y="530.0328">Listar Servicios / Paquetes</text><text fill="#000000" font-family="sans-serif" font-size="13" lengthAdjust="spacing" textLength="97" x="851" y="547.7389">Realizar Petición</text></g><!--MD5=[3cf5599dd911814b498cda2483b34115]
link DASHBOARD to DASHBOARD--><g id="link_DASHBOARD_DASHBOARD"><path d="M606.98,447.3858 C617.15,448.7358 624.5,453.1458 624.5,460.6358 C624.5,466.4858 620.02,470.4558 613.2,472.5558 " fill="none" id="DASHBOARD-to-DASHBOARD" style="stroke:#181818;stroke-width:1.0;"/><polygon fill="#181818" points="608.46,473.5658,618.0967,475.599,613.3498,472.5221,616.4267,467.7752,608.46,473.5658" style="stroke:#181818;stroke-width:1.0;"/><path d="M629.5,438.1358 L629.5,483.1358 L805.5,483.1358 L805.5,448.1358 L795.5,438.1358 L629.5,438.1358 " fill="#F5F5F5" style="stroke:#181818;stroke-width:0.5;"/><path d="M795.5,438.1358 L795.5,448.1358 L805.5,448.1358 L795.5,438.1358 " fill="#F5F5F5" style="stroke:#181818;stroke-width:0.5;"/><text fill="#000000" font-family="sans-serif" font-size="13" lengthAdjust="spacing" textLength="125" x="635.5" y="457.0328">Terminar Suscripción</text><text fill="#000000" font-family="sans-serif" font-size="13" lengthAdjust="spacing" textLength="155" x="635.5" y="474.7389">Listar Servicios / Paquetes</text></g><!--MD5=[25db80d4a06b6a0347c544f028d58385]
link EXPLORAR_SERVICIOS to EXPLORAR_SERVICIOS--><g id="link_EXPLORAR_SERVICIOS_EXPLORAR_SERVICIOS"><path d="M175.35,601.9958 C185.94,604.2858 193,608.8258 193,615.6358 C193,621.0558 188.52,625.0458 181.34,627.6058 " fill="none" id="EXPLORAR_SERVICIOS-to-EXPLORAR_SERVICIOS" style="stroke:#181818;stroke-width:1.0;"/><polygon fill="#181818" points="176.8,628.8658,186.5438,630.3007,181.6162,627.5225,184.3944,622.5948,176.8,628.8658" style="stroke:#181818;stroke-width:1.0;"/><path d="M198,584.1358 L198,647.1358 L374,647.1358 L374,594.1358 L364,584.1358 L198,584.1358 " fill="#F5F5F5" style="stroke:#181818;stroke-width:0.5;"/><path d="M364,584.1358 L364,594.1358 L374,594.1358 L364,584.1358 " fill="#F5F5F5" style="stroke:#181818;stroke-width:0.5;"/><text fill="#000000" font-family="sans-serif" font-size="13" lengthAdjust="spacing" textLength="97" x="204" y="603.0328">Realizar Petición</text><text fill="#000000" font-family="sans-serif" font-size="13" lengthAdjust="spacing" textLength="155" x="204" y="620.7389">Listar Servicios / Paquetes</text><text fill="#000000" font-family="sans-serif" font-size="13" lengthAdjust="spacing" textLength="103" x="204" y="638.4449">Crear Suscripción</text></g><!--MD5=[3f78e76ef453f16d960b33123f35b7ff]
link CONFIGURACIÓN to CONFIGURACIÓN--><g id="link_CONFIGURACIÓN_CONFIGURACIÓN"><path d="M551.9,601.4058 C562.33,603.4458 569.5,608.1858 569.5,615.6358 C569.5,621.5658 564.95,625.7858 557.82,628.2858 " fill="none" id="CONFIGURACIÓN-to-CONFIGURACIÓN" style="stroke:#181818;stroke-width:1.0;"/><polygon fill="#181818" points="553.36,629.4758,563.0862,631.0254,558.1916,628.1893,561.0277,623.2948,553.36,629.4758" style="stroke:#181818;stroke-width:1.0;"/><path d="M574.5,584.1358 L574.5,647.1358 L741.5,647.1358 L741.5,594.1358 L731.5,584.1358 L574.5,584.1358 " fill="#F5F5F5" style="stroke:#181818;stroke-width:0.5;"/><path d="M731.5,584.1358 L731.5,594.1358 L741.5,594.1358 L731.5,584.1358 " fill="#F5F5F5" style="stroke:#181818;stroke-width:0.5;"/><text fill="#000000" font-family="sans-serif" font-size="13" lengthAdjust="spacing" textLength="121" x="580.5" y="603.0328">Listar Datos Usuario</text><text fill="#000000" font-family="sans-serif" font-size="13" lengthAdjust="spacing" textLength="146" x="580.5" y="620.7389">Actualizar Datos Usuario</text><text fill="#000000" font-family="sans-serif" font-size="13" lengthAdjust="spacing" textLength="97" x="580.5" y="638.4449">Cancelar Cuenta</text></g><!--MD5=[d5b37b2e2d08a4c6818671524b21dafd]
link SERVICIOS to SERVICIOS--><g id="link_SERVICIOS_SERVICIOS"><path d="M983.73,600.4758 C993.9,601.5358 1001.5,606.5858 1001.5,615.6358 C1001.5,622.7058 996.86,627.3358 989.99,629.5258 " fill="none" id="SERVICIOS-to-SERVICIOS" style="stroke:#181818;stroke-width:1.0;"/><polygon fill="#181818" points="985.22,630.4958,994.8381,632.6154,990.119,629.496,993.2384,624.777,985.22,630.4958" style="stroke:#181818;stroke-width:1.0;"/><path d="M1006.5,602.1358 L1006.5,629.1358 L1124.5,629.1358 L1124.5,612.1358 L1114.5,602.1358 L1006.5,602.1358 " fill="#F5F5F5" style="stroke:#181818;stroke-width:0.5;"/><path d="M1114.5,602.1358 L1114.5,612.1358 L1124.5,612.1358 L1114.5,602.1358 " fill="#F5F5F5" style="stroke:#181818;stroke-width:0.5;"/><text fill="#000000" font-family="sans-serif" font-size="13" lengthAdjust="spacing" textLength="97" x="1012.5" y="621.0328">Realizar Petición</text></g><!--MD5=[06c3f2024f4ea60966e79307ee69ec5f]
link *start to INITIAL--><g id="link_*start_INITIAL"><path d="M611.5,66.2579 C611.5,78.9179 611.5,102.2079 611.5,120.3779 " fill="none" id="*start-to-INITIAL" style="stroke:#181818;stroke-width:1.0;"/><polygon fill="#181818" points="611.5,125.2979,615.5,116.2979,611.5,120.2979,607.5,116.2979,611.5,125.2979" style="stroke:#181818;stroke-width:1.0;"/></g><!--MD5=[5563963b6eff4b13ffd230664b5db6c7]
link INITIAL to Alumni--><g id="link_INITIAL_Alumni"><path d="M611.5,167.1879 C611.5,190.1379 611.5,231.1379 611.5,275.6579 " fill="none" id="INITIAL-to-Alumni" style="stroke:#181818;stroke-width:1.0;"/><polygon fill="#181818" points="611.5,280.4479,615.5,271.4479,611.5,275.4479,607.5,271.4479,611.5,280.4479" style="stroke:#181818;stroke-width:1.0;"/><path d="M616.5,202.0679 L616.5,247.0679 L715.5,247.0679 L715.5,212.0679 L705.5,202.0679 L616.5,202.0679 " fill="#F5F5F5" style="stroke:#181818;stroke-width:0.5;"/><path d="M705.5,202.0679 L705.5,212.0679 L715.5,212.0679 L705.5,202.0679 " fill="#F5F5F5" style="stroke:#181818;stroke-width:0.5;"/><text fill="#000000" font-family="sans-serif" font-size="13" lengthAdjust="spacing" textLength="78" x="622.5" y="220.9649">Iniciar Sesión</text><text fill="#000000" font-family="sans-serif" font-size="13" lengthAdjust="spacing" textLength="67" x="622.5" y="238.6709">Registrarse</text></g><!--MD5=[58c2ff39d5451b5af4d7cc6e6c959528]
link Alumni to *end--><g id="link_Alumni_*end"><path d="M611.5,658.3479 C611.5,696.1079 611.5,729.9479 611.5,748.6979 " fill="none" id="Alumni-to-*end" style="stroke:#181818;stroke-width:1.0;"/><polygon fill="#181818" points="611.5,753.3879,615.5,744.3879,611.5,748.3879,607.5,744.3879,611.5,753.3879" style="stroke:#181818;stroke-width:1.0;"/><path d="M616.5,693.1379 L616.5,720.1379 L716.5,720.1379 L716.5,703.1379 L706.5,693.1379 L616.5,693.1379 " fill="#F5F5F5" style="stroke:#181818;stroke-width:0.5;"/><path d="M706.5,693.1379 L706.5,703.1379 L716.5,703.1379 L706.5,693.1379 " fill="#F5F5F5" style="stroke:#181818;stroke-width:0.5;"/><text fill="#000000" font-family="sans-serif" font-size="13" lengthAdjust="spacing" textLength="79" x="622.5" y="712.0349">Cerrar Sesión</text></g><!--MD5=[2dd17696c8402809cbcfc04fe2d7fd15]
@startuml Contexto
title Contexto Egresado

skinparam {
    NoteBackgroundColor #whiteSmoke
    NoteBorderColor #green
    linetype polyline
}

hide empty description

[*] - -> INITIAL
INITIAL - -> Alumni
note on link 
Iniciar Sesión
Registrarse
end note 
Alumni - -> [*]
note on link
Cerrar Sesión
end note

state Alumni as "ALUMNI" {
    [*] - -> DASHBOARD
    note on link
    Listar Servicios / Paquetes
    Realizar Petición
    end note

    DASHBOARD - -> EXPLORAR_SERVICIOS
    note on link 
    Listar Servicios / Paquetes
    Realizar Petición
    end note  
    DASHBOARD <- - EXPLORAR_SERVICIOS
    note on link 
    Listar Servicios / Paquetes
    Realizar Petición
    end note  
    DASHBOARD - -> CONFIGURACIÓN
    note on link 
    Listar Datos Usuario
    Realizar Petición
    end note  
    DASHBOARD <- - CONFIGURACIÓN
    note on link 
    Listar Servicios / Paquetes
    Realizar Petición
    end note  
    DASHBOARD - -> SERVICIOS
    note on link 
    Listar Servicios / Paquetes
    Realizar Petición
    end note  
    DASHBOARD <- - SERVICIOS
    note on link 
    Listar Servicios / Paquetes
    Realizar Petición
    end note  

    DASHBOARD - -> DASHBOARD
    note on link
    Terminar Suscripción
    Listar Servicios / Paquetes
    end note

    EXPLORAR_SERVICIOS - -> EXPLORAR_SERVICIOS
    note on link 
    Realizar Petición
    Listar Servicios / Paquetes
    Crear Suscripción
    end note
    CONFIGURACIÓN - -> CONFIGURACIÓN
    note on link 
    Listar Datos Usuario
    Actualizar Datos Usuario
    Cancelar Cuenta
    end note
    SERVICIOS - -> SERVICIOS
    note on link 
    Realizar Petición
    end note
} 

@enduml

PlantUML version 1.2022.7(Mon Aug 22 19:01:30 CEST 2022)
(GPL source distribution)
Java Runtime: OpenJDK Runtime Environment
JVM: OpenJDK 64-Bit Server VM
Default Encoding: UTF-8
Language: es
Country: ES
--></g></svg>