<?xml version="1.0" encoding="us-ascii" standalone="no"?><svg xmlns="http://www.w3.org/2000/svg" xmlns:xlink="http://www.w3.org/1999/xlink" contentStyleType="text/css" height="587px" preserveAspectRatio="none" style="width:576px;height:587px;background:#FFFFFF;" version="1.1" viewBox="0 0 576 587" width="576px" zoomAndPan="magnify"><defs/><g><!--cluster VerificarDisponibilidadHoraria--><g id="cluster_VerificarDisponibilidadHoraria"><path d="M341,7 L550,7 A12.5,12.5 0 0 1 562.5,19.5 L562.5,28.2969 L328.5,28.2969 L328.5,19.5 A12.5,12.5 0 0 1 341,7 " fill="#F1F1F1" style="stroke:#F1F1F1;stroke-width:1.0;"/><rect fill="none" height="386.72" rx="12.5" ry="12.5" style="stroke:#181818;stroke-width:0.5;" width="234" x="328.5" y="7"/><line style="stroke:#181818;stroke-width:0.5;" x1="328.5" x2="562.5" y1="28.2969" y2="28.2969"/><text fill="#000000" font-family="sans-serif" font-size="14" lengthAdjust="spacing" textLength="214" x="338.5" y="23.9951">VerificarDisponibilidadHoraria</text></g><ellipse cx="445.5" cy="60" fill="#222222" rx="10" ry="10" style="stroke:#222222;stroke-width:1.0;"/><g id="VerificarDisponibilidadHoraria.RevisarHorarioDocente"><rect fill="#F1F1F1" height="50" rx="12.5" ry="12.5" style="stroke:#181818;stroke-width:0.5;" width="186" x="352.5" y="131"/><line style="stroke:#181818;stroke-width:0.5;" x1="352.5" x2="538.5" y1="157.2969" y2="157.2969"/><text fill="#000000" font-family="sans-serif" font-size="14" lengthAdjust="spacing" textLength="166" x="362.5" y="148.9951">RevisarHorarioDocente</text></g><g id="VerificarDisponibilidadHoraria.HorarioLibre"><rect fill="#F1F1F1" height="50" rx="12.5" ry="12.5" style="stroke:#181818;stroke-width:0.5;" width="109" x="357" y="258"/><line style="stroke:#181818;stroke-width:0.5;" x1="357" x2="466" y1="284.2969" y2="284.2969"/><text fill="#000000" font-family="sans-serif" font-size="14" lengthAdjust="spacing" textLength="89" x="367" y="275.9951">HorarioLibre</text></g><ellipse cx="96.5" cy="60" fill="#222222" rx="10" ry="10" style="stroke:#222222;stroke-width:1.0;"/><g id="InicioHorariosDocente"><rect fill="#F1F1F1" height="50" rx="12.5" ry="12.5" style="stroke:#181818;stroke-width:0.5;" width="179" x="7" y="131"/><line style="stroke:#181818;stroke-width:0.5;" x1="7" x2="186" y1="157.2969" y2="157.2969"/><text fill="#000000" font-family="sans-serif" font-size="14" lengthAdjust="spacing" textLength="159" x="17" y="148.9951">InicioHorariosDocente</text></g><g id="RevisarAsignaturas"><rect fill="#F1F1F1" height="50" rx="12.5" ry="12.5" style="stroke:#181818;stroke-width:0.5;" width="155" x="79" y="258"/><line style="stroke:#181818;stroke-width:0.5;" x1="79" x2="234" y1="284.2969" y2="284.2969"/><text fill="#000000" font-family="sans-serif" font-size="14" lengthAdjust="spacing" textLength="135" x="89" y="275.9951">RevisarAsignaturas</text></g><g id="HorarioDocenteCompleto"><rect fill="#F1F1F1" height="50" rx="12.5" ry="12.5" style="stroke:#181818;stroke-width:0.5;" width="206" x="252.5" y="448.72"/><line style="stroke:#181818;stroke-width:0.5;" x1="252.5" x2="458.5" y1="475.0169" y2="475.0169"/><text fill="#000000" font-family="sans-serif" font-size="14" lengthAdjust="spacing" textLength="186" x="262.5" y="466.7151">HorarioDocenteCompleto</text></g><ellipse cx="355.5" cy="570.72" fill="none" rx="11" ry="11" style="stroke:#222222;stroke-width:1.0;"/><ellipse cx="355.5" cy="570.72" fill="#222222" rx="6" ry="6" style="stroke:#222222;stroke-width:1.0;"/><!--link *start* to InicioHorariosDocente--><g id="link_*start*_InicioHorariosDocente"><path d="M96.5,70.013 C96.5,83.891 96.5,104.965 96.5,124.84 " fill="none" id="*start*-to-InicioHorariosDocente" style="stroke:#181818;stroke-width:1.0;"/><polygon fill="#181818" points="96.5,130.84,100.5,121.84,96.5,125.84,92.5,121.84,96.5,130.84" style="stroke:#181818;stroke-width:1.0;"/></g><!--link InicioHorariosDocente to RevisarAsignaturas--><g id="link_InicioHorariosDocente_RevisarAsignaturas"><path d="M106.9875,181.143 C113.083,194.951 121.017,212.545 128.5,228 C133.286,237.885 136.0222,243.3349 140.8882,252.6339 " fill="none" id="InicioHorariosDocente-to-RevisarAsignaturas" style="stroke:#181818;stroke-width:1.0;"/><polygon fill="#181818" points="143.67,257.95,143.0413,248.1212,141.3518,253.5199,135.9531,251.8303,143.67,257.95" style="stroke:#181818;stroke-width:1.0;"/><text fill="#000000" font-family="sans-serif" font-size="13" lengthAdjust="spacing" textLength="206" x="129.5" y="224.0669">Revisar asignaturas del docente</text></g><!--link RevisarAsignaturas to VerificarDisponibilidadHoraria--><g id="link_RevisarAsignaturas_VerificarDisponibilidadHoraria"><path d="M169.488,308.073 C179.251,323.846 194.086,343.586 212.5,355 C239.667,371.839 274.733,379.3695 303.3413,382.6754 C310.4933,383.5018 317.2418,384.0643 323.3623,384.4421 C324.8924,384.5366 326.3833,384.6195 327.8314,384.6921 C328.0124,384.7012 322.1999,384.418 322.3796,384.4267 " fill="none" id="RevisarAsignaturas-to-VerificarDisponibilidadHoraria" style="stroke:#181818;stroke-width:1.0;"/><polygon fill="#181818" points="328.3725,384.7189,319.5779,380.2854,323.3784,384.4754,319.1884,388.2759,328.3725,384.7189" style="stroke:#181818;stroke-width:1.0;"/><text fill="#000000" font-family="sans-serif" font-size="13" lengthAdjust="spacing" textLength="150" x="213.5" y="351.0669">Asignaturas verificadas</text></g><!--link *start*VerificarDisponibilidadHoraria to RevisarHorarioDocente--><g id="link_*start*VerificarDisponibilidadHoraria_RevisarHorarioDocente"><path d="M445.5,70.013 C445.5,83.891 445.5,104.965 445.5,124.84 " fill="none" id="*start*VerificarDisponibilidadHoraria-to-RevisarHorarioDocente" style="stroke:#181818;stroke-width:1.0;"/><polygon fill="#181818" points="445.5,130.84,449.5,121.84,445.5,125.84,441.5,121.84,445.5,130.84" style="stroke:#181818;stroke-width:1.0;"/></g><!--link RevisarHorarioDocente to HorarioLibre--><g id="link_RevisarHorarioDocente_HorarioLibre"><path d="M438.944,181.101 C432.924,203.236 425.6249,230.0714 419.6099,252.1834 " fill="none" id="RevisarHorarioDocente-to-HorarioLibre" style="stroke:#181818;stroke-width:1.0;"/><polygon fill="#181818" points="418.035,257.973,424.2571,250.3385,419.3474,253.1483,416.5376,248.2386,418.035,257.973" style="stroke:#181818;stroke-width:1.0;"/><text fill="#000000" font-family="sans-serif" font-size="13" lengthAdjust="spacing" textLength="114" x="431.5" y="224.0669">Horario disponible</text></g><!--link HorarioLibre to VerificarDisponibilidadHoraria--><g id="link_HorarioLibre_VerificarDisponibilidadHoraria"><path d="M398.087,308.192 C382.037,337.138 360.0273,376.8371 358.4853,379.6171 " fill="none" id="HorarioLibre-to-VerificarDisponibilidadHoraria" style="stroke:#181818;stroke-width:1.0;"/><polygon fill="#181818" points="355.575,384.864,363.4384,378.9339,358.0003,380.4916,356.4426,375.0534,355.575,384.864" style="stroke:#181818;stroke-width:1.0;"/></g><!--link VerificarDisponibilidadHoraria to HorarioDocenteCompleto--><g id="link_VerificarDisponibilidadHoraria_HorarioDocenteCompleto"><path d="M355.5,393.8757 C355.5,393.9393 355.5,394.0033 355.5,394.0676 C355.5,394.3248 355.5,394.5874 355.5,394.8552 C355.5,395.3909 355.5,395.9472 355.5,396.523 C355.5,397.6746 355.5,398.904 355.5,400.2002 C355.5,402.7927 355.5,405.6529 355.5,408.6948 C355.5,420.862 355.5,429.9345 355.5,442.398 " fill="none" id="VerificarDisponibilidadHoraria-to-HorarioDocenteCompleto" style="stroke:#181818;stroke-width:1.0;"/><polygon fill="#181818" points="355.5,448.398,359.5,439.398,355.5,443.398,351.5,439.398,355.5,448.398" style="stroke:#181818;stroke-width:1.0;"/></g><!--link HorarioDocenteCompleto to *end*--><g id="link_HorarioDocenteCompleto_*end*"><path d="M355.5,499.1849 C355.5,518.7564 355.5,539.2121 355.5,553.5167 " fill="none" id="HorarioDocenteCompleto-to-*end*" style="stroke:#181818;stroke-width:1.0;"/><polygon fill="#181818" points="355.5,559.5167,359.5,550.5167,355.5,554.5167,351.5,550.5167,355.5,559.5167" style="stroke:#181818;stroke-width:1.0;"/></g><!--SRC=[ZOyn2y8m48Nt-nKt2_q33eBOGS79mKKShasKWvYKI-mY_dVJzWeLAZLRthtlxhtBwef5iS63vvh3FWW9XrY6slfa0MRb7ZZPbYF9DlBTKteAHLoF8j94DTQXqNqpKBVhR8LlN9EK79lWkMB7XinmblBUAT2gsL04Y8bodWN-1PZVHPjg1kqqDkqSivEUKUd8bTWSHxzez9mR-2_N7xtW3R1WcHpNFBlmQ9nD0U67tY6vwmS0]--></g></svg>