<?xml version="1.0" encoding="us-ascii" standalone="no"?><svg xmlns="http://www.w3.org/2000/svg" xmlns:xlink="http://www.w3.org/1999/xlink" contentStyleType="text/css" height="980px" preserveAspectRatio="none" style="width:947px;height:980px;background:#FFFFFF;" version="1.1" viewBox="0 0 947 980" width="947px" zoomAndPan="magnify"><defs/><g><!--class ALUMNI--><g id="elem_ALUMNI"><rect codeLine="4" fill="#F1F1F1" height="64.2969" id="ALUMNI" rx="2.5" ry="2.5" style="stroke:#181818;stroke-width:0.5;" width="92" x="550" y="7"/><ellipse cx="568.15" cy="23" fill="#ADD1B2" rx="11" ry="11" style="stroke:#181818;stroke-width:1.0;"/><path d="M570.4938,18.6719 C569.5563,18.2344 568.9625,18.0938 568.0875,18.0938 C565.4625,18.0938 563.4625,20.1719 563.4625,22.8906 L563.4625,24.0156 C563.4625,26.5938 565.5719,28.4844 568.4625,28.4844 C569.6813,28.4844 570.8375,28.1875 571.5875,27.6406 C572.1656,27.2344 572.4938,26.7813 572.4938,26.3906 C572.4938,25.9375 572.1031,25.5469 571.6344,25.5469 C571.4156,25.5469 571.2125,25.625 571.025,25.8125 C570.5719,26.2969 570.5719,26.2969 570.3844,26.3906 C569.9625,26.6563 569.275,26.7813 568.5094,26.7813 C566.4625,26.7813 565.1656,25.6875 565.1656,23.9844 L565.1656,22.8906 C565.1656,21.1094 566.4156,19.7969 568.15,19.7969 C568.7281,19.7969 569.3375,19.9531 569.8063,20.2031 C570.2906,20.4844 570.4625,20.7031 570.5563,21.1094 C570.6188,21.5156 570.65,21.6406 570.7906,21.7656 C570.9313,21.9063 571.1656,22.0156 571.3844,22.0156 C571.65,22.0156 571.9156,21.875 572.0875,21.6563 C572.1969,21.5 572.2281,21.3125 572.2281,20.8906 L572.2281,19.4688 C572.2281,19.0313 572.2125,18.9063 572.1188,18.75 C571.9625,18.4844 571.6813,18.3438 571.3844,18.3438 C571.0875,18.3438 570.8844,18.4375 570.6656,18.75 L570.4938,18.6719 Z " fill="#000000"/><text fill="#000000" font-family="Arial" font-size="14" lengthAdjust="spacing" textLength="53" x="582.85" y="27.8467">ALUMNI</text><line style="stroke:#181818;stroke-width:0.5;" x1="551" x2="641" y1="39" y2="39"/><text fill="#000000" font-family="Arial" font-size="14" lengthAdjust="spacing" textLength="80" x="556" y="55.9951">plataforma</text><line style="stroke:#181818;stroke-width:0.5;" x1="551" x2="641" y1="63.2969" y2="63.2969"/></g><!--class USUARIO--><g id="elem_USUARIO"><rect codeLine="8" fill="#F1F1F1" height="178.375" id="USUARIO" rx="2.5" ry="2.5" style="stroke:#181818;stroke-width:0.5;" width="164" x="362" y="148"/><ellipse cx="408.75" cy="164" fill="#ADD1B2" rx="11" ry="11" style="stroke:#181818;stroke-width:1.0;"/><path d="M411.0938,159.6719 C410.1563,159.2344 409.5625,159.0938 408.6875,159.0938 C406.0625,159.0938 404.0625,161.1719 404.0625,163.8906 L404.0625,165.0156 C404.0625,167.5938 406.1719,169.4844 409.0625,169.4844 C410.2813,169.4844 411.4375,169.1875 412.1875,168.6406 C412.7656,168.2344 413.0938,167.7813 413.0938,167.3906 C413.0938,166.9375 412.7031,166.5469 412.2344,166.5469 C412.0156,166.5469 411.8125,166.625 411.625,166.8125 C411.1719,167.2969 411.1719,167.2969 410.9844,167.3906 C410.5625,167.6563 409.875,167.7813 409.1094,167.7813 C407.0625,167.7813 405.7656,166.6875 405.7656,164.9844 L405.7656,163.8906 C405.7656,162.1094 407.0156,160.7969 408.75,160.7969 C409.3281,160.7969 409.9375,160.9531 410.4063,161.2031 C410.8906,161.4844 411.0625,161.7031 411.1563,162.1094 C411.2188,162.5156 411.25,162.6406 411.3906,162.7656 C411.5313,162.9063 411.7656,163.0156 411.9844,163.0156 C412.25,163.0156 412.5156,162.875 412.6875,162.6563 C412.7969,162.5 412.8281,162.3125 412.8281,161.8906 L412.8281,160.4688 C412.8281,160.0313 412.8125,159.9063 412.7188,159.75 C412.5625,159.4844 412.2813,159.3438 411.9844,159.3438 C411.6875,159.3438 411.4844,159.4375 411.2656,159.75 L411.0938,159.6719 Z " fill="#000000"/><text fill="#000000" font-family="Arial" font-size="14" lengthAdjust="spacing" textLength="62" x="429.25" y="168.8467">USUARIO</text><line style="stroke:#181818;stroke-width:0.5;" x1="363" x2="525" y1="180" y2="180"/><text fill="#000000" font-family="Arial" font-size="14" lengthAdjust="spacing" textLength="15" x="368" y="196.9951">ID</text><text fill="#000000" font-family="Arial" font-size="14" lengthAdjust="spacing" textLength="58" x="368" y="213.292">Nombre</text><text fill="#000000" font-family="Arial" font-size="14" lengthAdjust="spacing" textLength="59" x="368" y="229.5889">Apellido</text><text fill="#000000" font-family="Arial" font-size="14" lengthAdjust="spacing" textLength="39" x="368" y="245.8857">Email</text><text fill="#000000" font-family="Arial" font-size="14" lengthAdjust="spacing" textLength="68" x="368" y="262.1826">ubicacion</text><text fill="#000000" font-family="Arial" font-size="14" lengthAdjust="spacing" textLength="150" x="368" y="278.4795">Fecha de Nacimiento</text><text fill="#000000" font-family="Arial" font-size="14" lengthAdjust="spacing" textLength="75" x="368" y="294.7764">Ocupaci&#243;n</text><text fill="#000000" font-family="Arial" font-size="14" lengthAdjust="spacing" textLength="152" x="368" y="311.0732">Carnet de Estudiante</text><line style="stroke:#181818;stroke-width:0.5;" x1="363" x2="525" y1="318.375" y2="318.375"/></g><!--class REQUISITO--><g id="elem_REQUISITO"><rect codeLine="19" fill="#F1F1F1" height="64.2969" id="REQUISITO" rx="2.5" ry="2.5" style="stroke:#181818;stroke-width:0.5;" width="166" x="302" y="427.5"/><ellipse cx="343.1" cy="443.5" fill="#ADD1B2" rx="11" ry="11" style="stroke:#181818;stroke-width:1.0;"/><path d="M345.4438,439.1719 C344.5063,438.7344 343.9125,438.5938 343.0375,438.5938 C340.4125,438.5938 338.4125,440.6719 338.4125,443.3906 L338.4125,444.5156 C338.4125,447.0938 340.5219,448.9844 343.4125,448.9844 C344.6313,448.9844 345.7875,448.6875 346.5375,448.1406 C347.1156,447.7344 347.4438,447.2813 347.4438,446.8906 C347.4438,446.4375 347.0531,446.0469 346.5844,446.0469 C346.3656,446.0469 346.1625,446.125 345.975,446.3125 C345.5219,446.7969 345.5219,446.7969 345.3344,446.8906 C344.9125,447.1563 344.225,447.2813 343.4594,447.2813 C341.4125,447.2813 340.1156,446.1875 340.1156,444.4844 L340.1156,443.3906 C340.1156,441.6094 341.3656,440.2969 343.1,440.2969 C343.6781,440.2969 344.2875,440.4531 344.7563,440.7031 C345.2406,440.9844 345.4125,441.2031 345.5063,441.6094 C345.5688,442.0156 345.6,442.1406 345.7406,442.2656 C345.8813,442.4063 346.1156,442.5156 346.3344,442.5156 C346.6,442.5156 346.8656,442.375 347.0375,442.1563 C347.1469,442 347.1781,441.8125 347.1781,441.3906 L347.1781,439.9688 C347.1781,439.5313 347.1625,439.4063 347.0688,439.25 C346.9125,438.9844 346.6313,438.8438 346.3344,438.8438 C346.0375,438.8438 345.8344,438.9375 345.6156,439.25 L345.4438,439.1719 Z " fill="#000000"/><text fill="#000000" font-family="Arial" font-size="14" lengthAdjust="spacing" textLength="76" x="362.9" y="448.3467">REQUISITO</text><line style="stroke:#181818;stroke-width:0.5;" x1="303" x2="467" y1="459.5" y2="459.5"/><text fill="#000000" font-family="Arial" font-size="14" lengthAdjust="spacing" textLength="154" x="308" y="476.4951">titulaci&#243;n de FUNIBER</text><line style="stroke:#181818;stroke-width:0.5;" x1="303" x2="467" y1="483.7969" y2="483.7969"/></g><!--class SUSCRIPCI?N--><g id="elem_SUSCRIPCI&#211;N"><rect codeLine="23" fill="#F1F1F1" height="113.1875" id="SUSCRIPCI&#211;N" rx="2.5" ry="2.5" style="stroke:#181818;stroke-width:0.5;" width="150" x="503" y="403"/><ellipse cx="528.35" cy="419" fill="#ADD1B2" rx="11" ry="11" style="stroke:#181818;stroke-width:1.0;"/><path d="M530.6938,414.6719 C529.7563,414.2344 529.1625,414.0938 528.2875,414.0938 C525.6625,414.0938 523.6625,416.1719 523.6625,418.8906 L523.6625,420.0156 C523.6625,422.5938 525.7719,424.4844 528.6625,424.4844 C529.8813,424.4844 531.0375,424.1875 531.7875,423.6406 C532.3656,423.2344 532.6938,422.7813 532.6938,422.3906 C532.6938,421.9375 532.3031,421.5469 531.8344,421.5469 C531.6156,421.5469 531.4125,421.625 531.225,421.8125 C530.7719,422.2969 530.7719,422.2969 530.5844,422.3906 C530.1625,422.6563 529.475,422.7813 528.7094,422.7813 C526.6625,422.7813 525.3656,421.6875 525.3656,419.9844 L525.3656,418.8906 C525.3656,417.1094 526.6156,415.7969 528.35,415.7969 C528.9281,415.7969 529.5375,415.9531 530.0063,416.2031 C530.4906,416.4844 530.6625,416.7031 530.7563,417.1094 C530.8188,417.5156 530.85,417.6406 530.9906,417.7656 C531.1313,417.9063 531.3656,418.0156 531.5844,418.0156 C531.85,418.0156 532.1156,417.875 532.2875,417.6563 C532.3969,417.5 532.4281,417.3125 532.4281,416.8906 L532.4281,415.4688 C532.4281,415.0313 532.4125,414.9063 532.3188,414.75 C532.1625,414.4844 531.8813,414.3438 531.5844,414.3438 C531.2875,414.3438 531.0844,414.4375 530.8656,414.75 L530.6938,414.6719 Z " fill="#000000"/><text fill="#000000" font-family="Arial" font-size="14" lengthAdjust="spacing" textLength="95" x="544.65" y="423.8467">SUSCRIPCI&#211;N</text><line style="stroke:#181818;stroke-width:0.5;" x1="504" x2="652" y1="435" y2="435"/><text fill="#000000" font-family="Arial" font-size="14" lengthAdjust="spacing" textLength="58" x="509" y="451.9951">Nombre</text><text fill="#000000" font-family="Arial" font-size="14" lengthAdjust="spacing" textLength="45" x="509" y="468.292">Precio</text><text fill="#000000" font-family="Arial" font-size="14" lengthAdjust="spacing" textLength="116" x="509" y="484.5889">M&#233;todo de Pago</text><text fill="#000000" font-family="Arial" font-size="14" lengthAdjust="spacing" textLength="138" x="509" y="500.8857">Frecuencia de Pago</text><line style="stroke:#181818;stroke-width:0.5;" x1="504" x2="652" y1="508.1875" y2="508.1875"/></g><!--class SERVICIO--><g id="elem_SERVICIO"><rect codeLine="30" fill="#F1F1F1" height="80.5938" id="SERVICIO" rx="2.5" ry="2.5" style="stroke:#181818;stroke-width:0.5;" width="111" x="519.5" y="593"/><ellipse cx="539.9" cy="609" fill="#ADD1B2" rx="11" ry="11" style="stroke:#181818;stroke-width:1.0;"/><path d="M542.2438,604.6719 C541.3063,604.2344 540.7125,604.0938 539.8375,604.0938 C537.2125,604.0938 535.2125,606.1719 535.2125,608.8906 L535.2125,610.0156 C535.2125,612.5938 537.3219,614.4844 540.2125,614.4844 C541.4313,614.4844 542.5875,614.1875 543.3375,613.6406 C543.9156,613.2344 544.2438,612.7813 544.2438,612.3906 C544.2438,611.9375 543.8531,611.5469 543.3844,611.5469 C543.1656,611.5469 542.9625,611.625 542.775,611.8125 C542.3219,612.2969 542.3219,612.2969 542.1344,612.3906 C541.7125,612.6563 541.025,612.7813 540.2594,612.7813 C538.2125,612.7813 536.9156,611.6875 536.9156,609.9844 L536.9156,608.8906 C536.9156,607.1094 538.1656,605.7969 539.9,605.7969 C540.4781,605.7969 541.0875,605.9531 541.5563,606.2031 C542.0406,606.4844 542.2125,606.7031 542.3063,607.1094 C542.3688,607.5156 542.4,607.6406 542.5406,607.7656 C542.6813,607.9063 542.9156,608.0156 543.1344,608.0156 C543.4,608.0156 543.6656,607.875 543.8375,607.6563 C543.9469,607.5 543.9781,607.3125 543.9781,606.8906 L543.9781,605.4688 C543.9781,605.0313 543.9625,604.9063 543.8688,604.75 C543.7125,604.4844 543.4313,604.3438 543.1344,604.3438 C542.8375,604.3438 542.6344,604.4375 542.4156,604.75 L542.2438,604.6719 Z " fill="#000000"/><text fill="#000000" font-family="Arial" font-size="14" lengthAdjust="spacing" textLength="67" x="555.1" y="613.8467">SERVICIO</text><line style="stroke:#181818;stroke-width:0.5;" x1="520.5" x2="629.5" y1="625" y2="625"/><rect fill="none" height="6" style="stroke:#C82930;stroke-width:1.0;" width="6" x="527.5" y="635.6484"/><text fill="#000000" font-family="Arial" font-size="14" lengthAdjust="spacing" textLength="58" x="539.5" y="641.9951">Nombre</text><rect fill="none" height="6" style="stroke:#C82930;stroke-width:1.0;" width="6" x="527.5" y="651.9453"/><text fill="#000000" font-family="Arial" font-size="14" lengthAdjust="spacing" textLength="85" x="539.5" y="658.292">Descripci&#243;n</text><line style="stroke:#181818;stroke-width:0.5;" x1="520.5" x2="629.5" y1="665.5938" y2="665.5938"/></g><!--class COMUNICACI?N--><g id="elem_COMUNICACI&#211;N"><rect codeLine="35" fill="#F1F1F1" height="48" id="COMUNICACI&#211;N" rx="2.5" ry="2.5" style="stroke:#181818;stroke-width:0.5;" width="143" x="704.5" y="783.5"/><ellipse cx="719.5" cy="799.5" fill="#ADD1B2" rx="11" ry="11" style="stroke:#181818;stroke-width:1.0;"/><path d="M721.8438,795.1719 C720.9063,794.7344 720.3125,794.5938 719.4375,794.5938 C716.8125,794.5938 714.8125,796.6719 714.8125,799.3906 L714.8125,800.5156 C714.8125,803.0938 716.9219,804.9844 719.8125,804.9844 C721.0313,804.9844 722.1875,804.6875 722.9375,804.1406 C723.5156,803.7344 723.8438,803.2813 723.8438,802.8906 C723.8438,802.4375 723.4531,802.0469 722.9844,802.0469 C722.7656,802.0469 722.5625,802.125 722.375,802.3125 C721.9219,802.7969 721.9219,802.7969 721.7344,802.8906 C721.3125,803.1563 720.625,803.2813 719.8594,803.2813 C717.8125,803.2813 716.5156,802.1875 716.5156,800.4844 L716.5156,799.3906 C716.5156,797.6094 717.7656,796.2969 719.5,796.2969 C720.0781,796.2969 720.6875,796.4531 721.1563,796.7031 C721.6406,796.9844 721.8125,797.2031 721.9063,797.6094 C721.9688,798.0156 722,798.1406 722.1406,798.2656 C722.2813,798.4063 722.5156,798.5156 722.7344,798.5156 C723,798.5156 723.2656,798.375 723.4375,798.1563 C723.5469,798 723.5781,797.8125 723.5781,797.3906 L723.5781,795.9688 C723.5781,795.5313 723.5625,795.4063 723.4688,795.25 C723.3125,794.9844 723.0313,794.8438 722.7344,794.8438 C722.4375,794.8438 722.2344,794.9375 722.0156,795.25 L721.8438,795.1719 Z " fill="#000000"/><text fill="#000000" font-family="Arial" font-size="14" lengthAdjust="spacing" textLength="111" x="733.5" y="804.3467">COMUNICACI&#211;N</text><line style="stroke:#181818;stroke-width:0.5;" x1="705.5" x2="846.5" y1="815.5" y2="815.5"/><line style="stroke:#181818;stroke-width:0.5;" x1="705.5" x2="846.5" y1="823.5" y2="823.5"/></g><!--class ALQUILER DE INSTALACIONES--><g id="elem_ALQUILER DE INSTALACIONES"><rect codeLine="38" fill="#F1F1F1" height="96.8906" id="ALQUILER DE INSTALACIONES" rx="2.5" ry="2.5" style="stroke:#181818;stroke-width:0.5;" width="242" x="7" y="759"/><ellipse cx="22" cy="775" fill="#ADD1B2" rx="11" ry="11" style="stroke:#181818;stroke-width:1.0;"/><path d="M24.3438,770.6719 C23.4063,770.2344 22.8125,770.0938 21.9375,770.0938 C19.3125,770.0938 17.3125,772.1719 17.3125,774.8906 L17.3125,776.0156 C17.3125,778.5938 19.4219,780.4844 22.3125,780.4844 C23.5313,780.4844 24.6875,780.1875 25.4375,779.6406 C26.0156,779.2344 26.3438,778.7813 26.3438,778.3906 C26.3438,777.9375 25.9531,777.5469 25.4844,777.5469 C25.2656,777.5469 25.0625,777.625 24.875,777.8125 C24.4219,778.2969 24.4219,778.2969 24.2344,778.3906 C23.8125,778.6563 23.125,778.7813 22.3594,778.7813 C20.3125,778.7813 19.0156,777.6875 19.0156,775.9844 L19.0156,774.8906 C19.0156,773.1094 20.2656,771.7969 22,771.7969 C22.5781,771.7969 23.1875,771.9531 23.6563,772.2031 C24.1406,772.4844 24.3125,772.7031 24.4063,773.1094 C24.4688,773.5156 24.5,773.6406 24.6406,773.7656 C24.7813,773.9063 25.0156,774.0156 25.2344,774.0156 C25.5,774.0156 25.7656,773.875 25.9375,773.6563 C26.0469,773.5 26.0781,773.3125 26.0781,772.8906 L26.0781,771.4688 C26.0781,771.0313 26.0625,770.9063 25.9688,770.75 C25.8125,770.4844 25.5313,770.3438 25.2344,770.3438 C24.9375,770.3438 24.7344,770.4375 24.5156,770.75 L24.3438,770.6719 Z " fill="#000000"/><text fill="#000000" font-family="Arial" font-size="14" lengthAdjust="spacing" textLength="210" x="36" y="779.8467">ALQUILER DE INSTALACIONES</text><line style="stroke:#181818;stroke-width:0.5;" x1="8" x2="248" y1="791" y2="791"/><rect fill="none" height="6" style="stroke:#C82930;stroke-width:1.0;" width="6" x="15" y="801.6484"/><text fill="#000000" font-family="Arial" font-size="14" lengthAdjust="spacing" textLength="73" x="27" y="807.9951">Biblioteca</text><rect fill="none" height="6" style="stroke:#C82930;stroke-width:1.0;" width="6" x="15" y="817.9453"/><text fill="#000000" font-family="Arial" font-size="14" lengthAdjust="spacing" textLength="145" x="27" y="824.292">Sala de ordenadores</text><rect fill="none" height="6" style="stroke:#C82930;stroke-width:1.0;" width="6" x="15" y="834.2422"/><text fill="#000000" font-family="Arial" font-size="14" lengthAdjust="spacing" textLength="101" x="27" y="840.5889">Pista de padel</text><line style="stroke:#181818;stroke-width:0.5;" x1="8" x2="248" y1="847.8906" y2="847.8906"/></g><!--class NEWSLETTER--><g id="elem_NEWSLETTER"><rect codeLine="44" fill="#F1F1F1" height="96.8906" id="NEWSLETTER" rx="2.5" ry="2.5" style="stroke:#181818;stroke-width:0.5;" width="161" x="284.5" y="759"/><ellipse cx="314.35" cy="775" fill="#ADD1B2" rx="11" ry="11" style="stroke:#181818;stroke-width:1.0;"/><path d="M316.6938,770.6719 C315.7563,770.2344 315.1625,770.0938 314.2875,770.0938 C311.6625,770.0938 309.6625,772.1719 309.6625,774.8906 L309.6625,776.0156 C309.6625,778.5938 311.7719,780.4844 314.6625,780.4844 C315.8813,780.4844 317.0375,780.1875 317.7875,779.6406 C318.3656,779.2344 318.6938,778.7813 318.6938,778.3906 C318.6938,777.9375 318.3031,777.5469 317.8344,777.5469 C317.6156,777.5469 317.4125,777.625 317.225,777.8125 C316.7719,778.2969 316.7719,778.2969 316.5844,778.3906 C316.1625,778.6563 315.475,778.7813 314.7094,778.7813 C312.6625,778.7813 311.3656,777.6875 311.3656,775.9844 L311.3656,774.8906 C311.3656,773.1094 312.6156,771.7969 314.35,771.7969 C314.9281,771.7969 315.5375,771.9531 316.0063,772.2031 C316.4906,772.4844 316.6625,772.7031 316.7563,773.1094 C316.8188,773.5156 316.85,773.6406 316.9906,773.7656 C317.1313,773.9063 317.3656,774.0156 317.5844,774.0156 C317.85,774.0156 318.1156,773.875 318.2875,773.6563 C318.3969,773.5 318.4281,773.3125 318.4281,772.8906 L318.4281,771.4688 C318.4281,771.0313 318.4125,770.9063 318.3188,770.75 C318.1625,770.4844 317.8813,770.3438 317.5844,770.3438 C317.2875,770.3438 317.0844,770.4375 316.8656,770.75 L316.6938,770.6719 Z " fill="#000000"/><text fill="#000000" font-family="Arial" font-size="14" lengthAdjust="spacing" textLength="96" x="331.65" y="779.8467">NEWSLETTER</text><line style="stroke:#181818;stroke-width:0.5;" x1="285.5" x2="444.5" y1="791" y2="791"/><rect fill="none" height="6" style="stroke:#C82930;stroke-width:1.0;" width="6" x="292.5" y="801.6484"/><text fill="#000000" font-family="Arial" font-size="14" lengthAdjust="spacing" textLength="57" x="304.5" y="807.9951">Noticias</text><rect fill="none" height="6" style="stroke:#C82930;stroke-width:1.0;" width="6" x="292.5" y="817.9453"/><text fill="#000000" font-family="Arial" font-size="14" lengthAdjust="spacing" textLength="58" x="304.5" y="824.292">Eventos</text><rect fill="none" height="6" style="stroke:#C82930;stroke-width:1.0;" width="6" x="292.5" y="834.2422"/><text fill="#000000" font-family="Arial" font-size="14" lengthAdjust="spacing" textLength="135" x="304.5" y="840.5889">Ofertas de empleo</text><line style="stroke:#181818;stroke-width:0.5;" x1="285.5" x2="444.5" y1="847.8906" y2="847.8906"/></g><!--class OFERTAS DE EMPLEO--><g id="elem_OFERTAS DE EMPLEO"><rect codeLine="50" fill="#F1F1F1" height="113.1875" id="OFERTAS DE EMPLEO" rx="2.5" ry="2.5" style="stroke:#181818;stroke-width:0.5;" width="189" x="480.5" y="751"/><ellipse cx="497.75" cy="767" fill="#ADD1B2" rx="11" ry="11" style="stroke:#181818;stroke-width:1.0;"/><path d="M500.0938,762.6719 C499.1563,762.2344 498.5625,762.0938 497.6875,762.0938 C495.0625,762.0938 493.0625,764.1719 493.0625,766.8906 L493.0625,768.0156 C493.0625,770.5938 495.1719,772.4844 498.0625,772.4844 C499.2813,772.4844 500.4375,772.1875 501.1875,771.6406 C501.7656,771.2344 502.0938,770.7813 502.0938,770.3906 C502.0938,769.9375 501.7031,769.5469 501.2344,769.5469 C501.0156,769.5469 500.8125,769.625 500.625,769.8125 C500.1719,770.2969 500.1719,770.2969 499.9844,770.3906 C499.5625,770.6563 498.875,770.7813 498.1094,770.7813 C496.0625,770.7813 494.7656,769.6875 494.7656,767.9844 L494.7656,766.8906 C494.7656,765.1094 496.0156,763.7969 497.75,763.7969 C498.3281,763.7969 498.9375,763.9531 499.4063,764.2031 C499.8906,764.4844 500.0625,764.7031 500.1563,765.1094 C500.2188,765.5156 500.25,765.6406 500.3906,765.7656 C500.5313,765.9063 500.7656,766.0156 500.9844,766.0156 C501.25,766.0156 501.5156,765.875 501.6875,765.6563 C501.7969,765.5 501.8281,765.3125 501.8281,764.8906 L501.8281,763.4688 C501.8281,763.0313 501.8125,762.9063 501.7188,762.75 C501.5625,762.4844 501.2813,762.3438 500.9844,762.3438 C500.6875,762.3438 500.4844,762.4375 500.2656,762.75 L500.0938,762.6719 Z " fill="#000000"/><text fill="#000000" font-family="Arial" font-size="14" lengthAdjust="spacing" textLength="152" x="512.25" y="771.8467">OFERTAS DE EMPLEO</text><line style="stroke:#181818;stroke-width:0.5;" x1="481.5" x2="668.5" y1="783" y2="783"/><rect fill="none" height="6" style="stroke:#C82930;stroke-width:1.0;" width="6" x="488.5" y="793.6484"/><text fill="#000000" font-family="Arial" font-size="14" lengthAdjust="spacing" textLength="163" x="500.5" y="799.9951">Nombre de la empresa</text><rect fill="none" height="6" style="stroke:#C82930;stroke-width:1.0;" width="6" x="488.5" y="809.9453"/><text fill="#000000" font-family="Arial" font-size="14" lengthAdjust="spacing" textLength="127" x="500.5" y="816.292">Puesto de trabajo</text><rect fill="none" height="6" style="stroke:#C82930;stroke-width:1.0;" width="6" x="488.5" y="826.2422"/><text fill="#000000" font-family="Arial" font-size="14" lengthAdjust="spacing" textLength="48" x="500.5" y="832.5889">Salario</text><rect fill="none" height="6" style="stroke:#C82930;stroke-width:1.0;" width="6" x="488.5" y="842.5391"/><text fill="#000000" font-family="Arial" font-size="14" lengthAdjust="spacing" textLength="69" x="500.5" y="848.8857">Ubicaci&#243;n</text><line style="stroke:#181818;stroke-width:0.5;" x1="481.5" x2="668.5" y1="856.1875" y2="856.1875"/></g><!--class Email--><g id="elem_Email"><rect fill="#F1F1F1" height="48" id="Email" rx="2.5" ry="2.5" style="stroke:#181818;stroke-width:0.5;" width="71" x="636.5" y="925"/><ellipse cx="651.5" cy="941" fill="#ADD1B2" rx="11" ry="11" style="stroke:#181818;stroke-width:1.0;"/><path d="M653.8438,936.6719 C652.9063,936.2344 652.3125,936.0938 651.4375,936.0938 C648.8125,936.0938 646.8125,938.1719 646.8125,940.8906 L646.8125,942.0156 C646.8125,944.5938 648.9219,946.4844 651.8125,946.4844 C653.0313,946.4844 654.1875,946.1875 654.9375,945.6406 C655.5156,945.2344 655.8438,944.7813 655.8438,944.3906 C655.8438,943.9375 655.4531,943.5469 654.9844,943.5469 C654.7656,943.5469 654.5625,943.625 654.375,943.8125 C653.9219,944.2969 653.9219,944.2969 653.7344,944.3906 C653.3125,944.6563 652.625,944.7813 651.8594,944.7813 C649.8125,944.7813 648.5156,943.6875 648.5156,941.9844 L648.5156,940.8906 C648.5156,939.1094 649.7656,937.7969 651.5,937.7969 C652.0781,937.7969 652.6875,937.9531 653.1563,938.2031 C653.6406,938.4844 653.8125,938.7031 653.9063,939.1094 C653.9688,939.5156 654,939.6406 654.1406,939.7656 C654.2813,939.9063 654.5156,940.0156 654.7344,940.0156 C655,940.0156 655.2656,939.875 655.4375,939.6563 C655.5469,939.5 655.5781,939.3125 655.5781,938.8906 L655.5781,937.4688 C655.5781,937.0313 655.5625,936.9063 655.4688,936.75 C655.3125,936.4844 655.0313,936.3438 654.7344,936.3438 C654.4375,936.3438 654.2344,936.4375 654.0156,936.75 L653.8438,936.6719 Z " fill="#000000"/><text fill="#000000" font-family="Arial" font-size="14" lengthAdjust="spacing" textLength="39" x="665.5" y="945.8467">Email</text><line style="stroke:#181818;stroke-width:0.5;" x1="637.5" x2="706.5" y1="957" y2="957"/><line style="stroke:#181818;stroke-width:0.5;" x1="637.5" x2="706.5" y1="965" y2="965"/></g><!--class Chat--><g id="elem_Chat"><rect fill="#F1F1F1" height="48" id="Chat" rx="2.5" ry="2.5" style="stroke:#181818;stroke-width:0.5;" width="66" x="743" y="925"/><ellipse cx="758" cy="941" fill="#ADD1B2" rx="11" ry="11" style="stroke:#181818;stroke-width:1.0;"/><path d="M760.3438,936.6719 C759.4063,936.2344 758.8125,936.0938 757.9375,936.0938 C755.3125,936.0938 753.3125,938.1719 753.3125,940.8906 L753.3125,942.0156 C753.3125,944.5938 755.4219,946.4844 758.3125,946.4844 C759.5313,946.4844 760.6875,946.1875 761.4375,945.6406 C762.0156,945.2344 762.3438,944.7813 762.3438,944.3906 C762.3438,943.9375 761.9531,943.5469 761.4844,943.5469 C761.2656,943.5469 761.0625,943.625 760.875,943.8125 C760.4219,944.2969 760.4219,944.2969 760.2344,944.3906 C759.8125,944.6563 759.125,944.7813 758.3594,944.7813 C756.3125,944.7813 755.0156,943.6875 755.0156,941.9844 L755.0156,940.8906 C755.0156,939.1094 756.2656,937.7969 758,937.7969 C758.5781,937.7969 759.1875,937.9531 759.6563,938.2031 C760.1406,938.4844 760.3125,938.7031 760.4063,939.1094 C760.4688,939.5156 760.5,939.6406 760.6406,939.7656 C760.7813,939.9063 761.0156,940.0156 761.2344,940.0156 C761.5,940.0156 761.7656,939.875 761.9375,939.6563 C762.0469,939.5 762.0781,939.3125 762.0781,938.8906 L762.0781,937.4688 C762.0781,937.0313 762.0625,936.9063 761.9688,936.75 C761.8125,936.4844 761.5313,936.3438 761.2344,936.3438 C760.9375,936.3438 760.7344,936.4375 760.5156,936.75 L760.3438,936.6719 Z " fill="#000000"/><text fill="#000000" font-family="Arial" font-size="14" lengthAdjust="spacing" textLength="34" x="772" y="945.8467">Chat</text><line style="stroke:#181818;stroke-width:0.5;" x1="744" x2="808" y1="957" y2="957"/><line style="stroke:#181818;stroke-width:0.5;" x1="744" x2="808" y1="965" y2="965"/></g><!--class Tel?fono--><g id="elem_Tel&#233;fono"><rect fill="#F1F1F1" height="48" id="Tel&#233;fono" rx="2.5" ry="2.5" style="stroke:#181818;stroke-width:0.5;" width="96" x="844" y="925"/><ellipse cx="859" cy="941" fill="#ADD1B2" rx="11" ry="11" style="stroke:#181818;stroke-width:1.0;"/><path d="M861.3438,936.6719 C860.4063,936.2344 859.8125,936.0938 858.9375,936.0938 C856.3125,936.0938 854.3125,938.1719 854.3125,940.8906 L854.3125,942.0156 C854.3125,944.5938 856.4219,946.4844 859.3125,946.4844 C860.5313,946.4844 861.6875,946.1875 862.4375,945.6406 C863.0156,945.2344 863.3438,944.7813 863.3438,944.3906 C863.3438,943.9375 862.9531,943.5469 862.4844,943.5469 C862.2656,943.5469 862.0625,943.625 861.875,943.8125 C861.4219,944.2969 861.4219,944.2969 861.2344,944.3906 C860.8125,944.6563 860.125,944.7813 859.3594,944.7813 C857.3125,944.7813 856.0156,943.6875 856.0156,941.9844 L856.0156,940.8906 C856.0156,939.1094 857.2656,937.7969 859,937.7969 C859.5781,937.7969 860.1875,937.9531 860.6563,938.2031 C861.1406,938.4844 861.3125,938.7031 861.4063,939.1094 C861.4688,939.5156 861.5,939.6406 861.6406,939.7656 C861.7813,939.9063 862.0156,940.0156 862.2344,940.0156 C862.5,940.0156 862.7656,939.875 862.9375,939.6563 C863.0469,939.5 863.0781,939.3125 863.0781,938.8906 L863.0781,937.4688 C863.0781,937.0313 863.0625,936.9063 862.9688,936.75 C862.8125,936.4844 862.5313,936.3438 862.2344,936.3438 C861.9375,936.3438 861.7344,936.4375 861.5156,936.75 L861.3438,936.6719 Z " fill="#000000"/><text fill="#000000" font-family="Arial" font-size="14" lengthAdjust="spacing" textLength="64" x="873" y="945.8467">Tel&#233;fono</text><line style="stroke:#181818;stroke-width:0.5;" x1="845" x2="939" y1="957" y2="957"/><line style="stroke:#181818;stroke-width:0.5;" x1="845" x2="939" y1="965" y2="965"/></g><!--link ALUMNI to USUARIO--><g id="link_ALUMNI_USUARIO"><path codeLine="57" d="M563.115,71.281 C553.98,80.534 544.297,90.899 536,101 C523.938,115.684 511.888,131.929 500.67,147.912 " fill="none" id="ALUMNI-USUARIO" style="stroke:#181818;stroke-width:1.0;"/><text fill="#000000" font-family="Arial" font-size="13" lengthAdjust="spacing" textLength="32" x="537" y="114.0669">tiene</text></g><!--link ALUMNI to SUSCRIPCI?N--><g id="link_ALUMNI_SUSCRIPCI&#211;N"><path codeLine="58" d="M594.662,71.114 C591.635,141.487 584.229,313.686 580.392,402.894 " fill="none" id="ALUMNI-SUSCRIPCI&#211;N" style="stroke:#181818;stroke-width:1.0;"/><text fill="#000000" font-family="Arial" font-size="13" lengthAdjust="spacing" textLength="41" x="593" y="241.5669">ofrece</text></g><!--link SUSCRIPCI?N to SERVICIO--><g id="link_SUSCRIPCI&#211;N_SERVICIO"><path codeLine="59" d="M577.026,516.343 C576.59,541.357 576.085,570.267 575.689,592.988 " fill="none" id="SUSCRIPCI&#211;N-SERVICIO" style="stroke:#181818;stroke-width:1.0;"/><text fill="#000000" font-family="Arial" font-size="13" lengthAdjust="spacing" textLength="45" x="578" y="559.0669">incluye</text></g><!--link USUARIO to REQUISITO--><g id="link_USUARIO_REQUISITO"><path codeLine="60" d="M420.427,326.098 C410.83,361.965 400.36,401.095 393.31,427.444 " fill="none" id="USUARIO-REQUISITO" style="stroke:#181818;stroke-width:1.0;"/><text fill="#000000" font-family="Arial" font-size="13" lengthAdjust="spacing" textLength="47" x="412" y="369.0669">cumple</text></g><!--reverse link ALUMNI to COMUNICACI?N--><g id="link_ALUMNI_COMUNICACI&#211;N"><path codeLine="63" d="M657.0484,78.6815 C705.2384,112.2115 759,162.533 759,236 C759,236 759,236 759,634.5 C759,688.062 767.265,750.553 772.269,783.48 " fill="none" id="ALUMNI-backto-COMUNICACI&#211;N" style="stroke:#181818;stroke-width:1.0;"/><polygon fill="none" points="642.273,68.401,653.6215,83.6066,660.4752,73.7564,642.273,68.401" style="stroke:#181818;stroke-width:1.0;"/></g><!--reverse link SERVICIO to ALQUILER DE INSTALACIONES--><g id="link_SERVICIO_ALQUILER DE INSTALACIONES"><path codeLine="64" d="M502.3787,661.5362 C440.5927,684.6012 354.921,716.823 267,751 C260.34,753.589 253.506,756.262 246.614,758.972 " fill="none" id="SERVICIO-backto-ALQUILER DE INSTALACIONES" style="stroke:#181818;stroke-width:1.0;"/><polygon fill="none" points="519.242,655.241,500.2803,655.915,504.4771,667.1573,519.242,655.241" style="stroke:#181818;stroke-width:1.0;"/></g><!--reverse link SERVICIO to NEWSLETTER--><g id="link_SERVICIO_NEWSLETTER"><path codeLine="65" d="M512.6328,685.5816 C481.8658,710.7816 455.79,732.139 423.289,758.759 " fill="none" id="SERVICIO-backto-NEWSLETTER" style="stroke:#181818;stroke-width:1.0;"/><polygon fill="none" points="526.558,674.176,508.8309,680.9399,516.4346,690.2233,526.558,674.176" style="stroke:#181818;stroke-width:1.0;"/></g><!--reverse link SERVICIO to OFERTAS DE EMPLEO--><g id="link_SERVICIO_OFERTAS DE EMPLEO"><path codeLine="66" d="M575,692.393 C575,715.118 575,725.943 575,750.864 " fill="none" id="SERVICIO-backto-OFERTAS DE EMPLEO" style="stroke:#181818;stroke-width:1.0;"/><polygon fill="none" points="575,674.393,569,692.393,581,692.393,575,674.393" style="stroke:#181818;stroke-width:1.0;"/></g><!--link USUARIO to SUSCRIPCI?N--><g id="link_USUARIO_SUSCRIPCI&#211;N"><path codeLine="68" d="M497.538,326.098 C513.284,352.009 530.065,379.622 544.205,402.89 " fill="none" id="USUARIO-SUSCRIPCI&#211;N" style="stroke:#181818;stroke-width:1.0;stroke-dasharray:7.0,7.0;"/></g><!--link SERVICIO to COMUNICACI?N--><g id="link_SERVICIO_COMUNICACI&#211;N"><path codeLine="70" d="M621.366,674.176 C660.901,708.007 716.366,755.47 749.005,783.4 " fill="none" id="SERVICIO-COMUNICACI&#211;N" style="stroke:#181818;stroke-width:1.0;"/><text fill="#000000" font-family="Arial" font-size="13" lengthAdjust="spacing" textLength="50" x="677" y="717.0669">anuncia</text></g><!--reverse link COMUNICACI?N to Email--><g id="link_COMUNICACI&#211;N_Email"><path codeLine="72" d="M748.0682,845.9668 C728.7982,871.8138 708.479,899.0691 689.199,924.9302 " fill="none" id="COMUNICACI&#211;N-backto-Email" style="stroke:#181818;stroke-width:1.0;"/><polygon fill="none" points="758.827,831.536,743.2579,842.3806,752.8785,849.5531,758.827,831.536" style="stroke:#181818;stroke-width:1.0;"/></g><!--reverse link COMUNICACI?N to Chat--><g id="link_COMUNICACI&#211;N_Chat"><path codeLine="73" d="M776,849.536 C776,875.383 776,899.0691 776,924.9302 " fill="none" id="COMUNICACI&#211;N-backto-Chat" style="stroke:#181818;stroke-width:1.0;"/><polygon fill="none" points="776,831.536,770,849.536,782,849.536,776,831.536" style="stroke:#181818;stroke-width:1.0;"/></g><!--reverse link COMUNICACI?N to Tel?fono--><g id="link_COMUNICACI&#211;N_Tel&#233;fono"><path codeLine="74" d="M806.6637,845.3761 C828.1567,871.2231 851.312,899.0691 872.817,924.9302 " fill="none" id="COMUNICACI&#211;N-backto-Tel&#233;fono" style="stroke:#181818;stroke-width:1.0;"/><polygon fill="none" points="795.155,831.536,802.0503,849.2124,811.2771,841.5399,795.155,831.536" style="stroke:#181818;stroke-width:1.0;"/></g><!--SRC=[TLDBafim4Dth50gRh3m7S6N3C78LLHW8dsJTXlPOYP0e8LALIdAAd6BMEO8lbiOOCEEP5Uf-_RfVV_ZumPsmGGwDV0RMVPUw1GiDh_48lN8xerqCXFjMWcAiKj1rt8_AVHpoNunptYfmS3Is0VPdmikyzBCm6GDu-7JvnAOvMEINjz-YKh8seoKQa6fyzWTPGIMD7iqTLYSWBJmcPoDHkoibgVgMNET_-c86O3Mw8L1qhgybQ8UBd4nyBiCyB2P1JhfUZUo1iYlZy55aItnUva4Mfa5u_XjVARVYKukaS7plpo_EK1-K9eLdCuecl4TTIPZTIsgHVGc3UJIRLU8DVyAkih8TfIsi8DcJni2V5Cs0vqVKMYGo_YHu6EU57r5G4elScoiyoeEInc45LqSEwgBCs1errCPYTqLIsRaBr4ADQYaJYwzv98g2wYowdQGE9wRuCUncif8ZMWVTa0cRLk7D0Bna9xB2pmV1Ofz68l5Upu9O992896pIdFROkSkOdOK3V3CtlLWvMULuFSDLKC7hbMusyprkQVMeyGPPhNhBpP5sXspb7QAchMsvr9NgVoARKXAwdDUML_tGBvkBV_fD0TvgVnwRqute-pjy7RdiuGww7okRDJuyhFfa2_TUt9Q3xeVRPMnzTLIcteo_wfj8S0Bt9b2WEhySZJR_0G00]--></g></svg>