<?xml version="1.0" encoding="UTF-8" standalone="no"?><svg xmlns="http://www.w3.org/2000/svg" xmlns:xlink="http://www.w3.org/1999/xlink" contentStyleType="text/css" height="338px" preserveAspectRatio="none" style="width:748px;height:338px;background:#FFFFFF;" version="1.1" viewBox="0 0 748 338" width="748px" zoomAndPan="magnify"><defs/><g><rect fill="#FFFFFF" height="26.0986" id="_title" style="stroke:none;stroke-width:1.0;" width="347" x="193.5" y="5"/><text fill="#000000" font-family="Arial" font-size="14" font-weight="bold" lengthAdjust="spacing" textLength="337" x="198.5" y="23.1318">Diagrama de Objetos - Reserva de Instalaciones</text><!--MD5=[48505422c03f555df6ba4b5977c5d640]
class INSTALACIONES--><g id="elem_INSTALACIONES"><rect codeLine="8" fill="#F1F1F1" height="112.3945" id="INSTALACIONES" rx="2.5" ry="2.5" style="stroke:#181818;stroke-width:0.5;" width="297" x="208" y="44.0986"/><ellipse cx="298.75" cy="60.0986" fill="#ADD1B2" rx="11" ry="11" style="stroke:#181818;stroke-width:1.0;"/><path d="M301.5156,55.9736 Q301.6719,55.7549 301.8594,55.6455 Q302.0469,55.5361 302.2656,55.5361 Q302.6406,55.5361 302.875,55.8018 Q303.1094,56.0518 303.1094,56.6611 L303.1094,58.1143 Q303.1094,58.7236 302.875,58.9893 Q302.6406,59.2549 302.2656,59.2549 Q301.9219,59.2549 301.7188,59.0518 Q301.5156,58.8643 301.4063,58.3486 Q301.3594,57.9893 301.1719,57.8018 Q300.8438,57.4268 300.2344,57.208 Q299.625,56.9893 299,56.9893 Q298.2344,56.9893 297.5938,57.3174 Q296.9688,57.6455 296.4688,58.3955 Q295.9844,59.1455 295.9844,60.1768 L295.9844,61.2705 Q295.9844,62.5049 296.875,63.333 Q297.7656,64.1455 299.3594,64.1455 Q300.2969,64.1455 300.9531,63.8955 Q301.3438,63.7393 301.7656,63.3018 Q302.0313,63.0361 302.1719,62.958 Q302.3281,62.8799 302.5313,62.8799 Q302.8594,62.8799 303.1094,63.1455 Q303.375,63.3955 303.375,63.7393 Q303.375,64.083 303.0313,64.4893 Q302.5313,65.0674 301.7344,65.3955 Q300.6563,65.8486 299.3594,65.8486 Q297.8438,65.8486 296.6406,65.2236 Q295.6563,64.7236 294.9688,63.6611 Q294.2813,62.583 294.2813,61.3018 L294.2813,60.1455 Q294.2813,58.8174 294.8906,57.6768 Q295.5156,56.5205 296.6094,55.9111 Q297.7031,55.2861 298.9375,55.2861 Q299.6719,55.2861 300.3125,55.458 Q300.9688,55.6143 301.5156,55.9736 Z " fill="#000000"/><text fill="#000000" font-family="Arial" font-size="14" lengthAdjust="spacing" textLength="107" x="319.25" y="65.1812">INSTALACIONES</text><line style="stroke:#181818;stroke-width:0.5;" x1="209" x2="504" y1="76.0986" y2="76.0986"/><text fill="#000000" font-family="Arial" font-size="14" lengthAdjust="spacing" textLength="180" x="214" y="93.2305">Nombre: "Cancha de Futbol"</text><text fill="#000000" font-family="Arial" font-size="14" lengthAdjust="spacing" textLength="192" x="214" y="109.3291">Ubicación: "Calle 13 # 100-00"</text><text fill="#000000" font-family="Arial" font-size="14" lengthAdjust="spacing" textLength="285" x="214" y="125.4277">horario: "Lunes a Viernes 8:00 am - 5:00 pm"</text><text fill="#000000" font-family="Arial" font-size="14" lengthAdjust="spacing" textLength="170" x="214" y="141.5264">disponibilidad: "Disponible"</text><line style="stroke:#181818;stroke-width:0.5;" x1="209" x2="504" y1="148.4932" y2="148.4932"/></g><!--MD5=[2ab7582ab6c49ef72aa094ce2439025d]
class EGRESADO--><g id="elem_EGRESADO"><rect codeLine="16" fill="#F1F1F1" height="48" id="EGRESADO" rx="2.5" ry="2.5" style="stroke:#181818;stroke-width:0.5;" width="110" x="220.5" y="258.0986"/><ellipse cx="235.5" cy="274.0986" fill="#ADD1B2" rx="11" ry="11" style="stroke:#181818;stroke-width:1.0;"/><path d="M238.2656,269.9736 Q238.4219,269.7549 238.6094,269.6455 Q238.7969,269.5361 239.0156,269.5361 Q239.3906,269.5361 239.625,269.8018 Q239.8594,270.0518 239.8594,270.6611 L239.8594,272.1143 Q239.8594,272.7236 239.625,272.9893 Q239.3906,273.2549 239.0156,273.2549 Q238.6719,273.2549 238.4688,273.0518 Q238.2656,272.8643 238.1563,272.3486 Q238.1094,271.9893 237.9219,271.8018 Q237.5938,271.4268 236.9844,271.208 Q236.375,270.9893 235.75,270.9893 Q234.9844,270.9893 234.3438,271.3174 Q233.7188,271.6455 233.2188,272.3955 Q232.7344,273.1455 232.7344,274.1768 L232.7344,275.2705 Q232.7344,276.5049 233.625,277.333 Q234.5156,278.1455 236.1094,278.1455 Q237.0469,278.1455 237.7031,277.8955 Q238.0938,277.7393 238.5156,277.3018 Q238.7813,277.0361 238.9219,276.958 Q239.0781,276.8799 239.2813,276.8799 Q239.6094,276.8799 239.8594,277.1455 Q240.125,277.3955 240.125,277.7393 Q240.125,278.083 239.7813,278.4893 Q239.2813,279.0674 238.4844,279.3955 Q237.4063,279.8486 236.1094,279.8486 Q234.5938,279.8486 233.3906,279.2236 Q232.4063,278.7236 231.7188,277.6611 Q231.0313,276.583 231.0313,275.3018 L231.0313,274.1455 Q231.0313,272.8174 231.6406,271.6768 Q232.2656,270.5205 233.3594,269.9111 Q234.4531,269.2861 235.6875,269.2861 Q236.4219,269.2861 237.0625,269.458 Q237.7188,269.6143 238.2656,269.9736 Z " fill="#000000"/><text fill="#000000" font-family="Arial" font-size="14" lengthAdjust="spacing" textLength="78" x="249.5" y="279.1812">EGRESADO</text><line style="stroke:#181818;stroke-width:0.5;" x1="221.5" x2="329.5" y1="290.0986" y2="290.0986"/><line style="stroke:#181818;stroke-width:0.5;" x1="221.5" x2="329.5" y1="298.0986" y2="298.0986"/></g><!--MD5=[4c1736d2acf393d1932c4bd71ed8c52b]
class ADMINISTRADOR--><g id="elem_ADMINISTRADOR"><rect codeLine="21" fill="#F1F1F1" height="48" id="ADMINISTRADOR" rx="2.5" ry="2.5" style="stroke:#181818;stroke-width:0.5;" width="145" x="366" y="258.0986"/><ellipse cx="381" cy="274.0986" fill="#ADD1B2" rx="11" ry="11" style="stroke:#181818;stroke-width:1.0;"/><path d="M383.7656,269.9736 Q383.9219,269.7549 384.1094,269.6455 Q384.2969,269.5361 384.5156,269.5361 Q384.8906,269.5361 385.125,269.8018 Q385.3594,270.0518 385.3594,270.6611 L385.3594,272.1143 Q385.3594,272.7236 385.125,272.9893 Q384.8906,273.2549 384.5156,273.2549 Q384.1719,273.2549 383.9688,273.0518 Q383.7656,272.8643 383.6563,272.3486 Q383.6094,271.9893 383.4219,271.8018 Q383.0938,271.4268 382.4844,271.208 Q381.875,270.9893 381.25,270.9893 Q380.4844,270.9893 379.8438,271.3174 Q379.2188,271.6455 378.7188,272.3955 Q378.2344,273.1455 378.2344,274.1768 L378.2344,275.2705 Q378.2344,276.5049 379.125,277.333 Q380.0156,278.1455 381.6094,278.1455 Q382.5469,278.1455 383.2031,277.8955 Q383.5938,277.7393 384.0156,277.3018 Q384.2813,277.0361 384.4219,276.958 Q384.5781,276.8799 384.7813,276.8799 Q385.1094,276.8799 385.3594,277.1455 Q385.625,277.3955 385.625,277.7393 Q385.625,278.083 385.2813,278.4893 Q384.7813,279.0674 383.9844,279.3955 Q382.9063,279.8486 381.6094,279.8486 Q380.0938,279.8486 378.8906,279.2236 Q377.9063,278.7236 377.2188,277.6611 Q376.5313,276.583 376.5313,275.3018 L376.5313,274.1455 Q376.5313,272.8174 377.1406,271.6768 Q377.7656,270.5205 378.8594,269.9111 Q379.9531,269.2861 381.1875,269.2861 Q381.9219,269.2861 382.5625,269.458 Q383.2188,269.6143 383.7656,269.9736 Z " fill="#000000"/><text fill="#000000" font-family="Arial" font-size="14" lengthAdjust="spacing" textLength="113" x="395" y="279.1812">ADMINISTRADOR</text><line style="stroke:#181818;stroke-width:0.5;" x1="367" x2="510" y1="290.0986" y2="290.0986"/><line style="stroke:#181818;stroke-width:0.5;" x1="367" x2="510" y1="298.0986" y2="298.0986"/></g><g id="elem_GMN6"><path d="M6,232.0986 L6,331.791 A0,0 0 0 0 6,331.791 L185,331.791 A0,0 0 0 0 185,331.791 L185,286.0986 L220.44,282.0986 L185,278.0986 L185,242.0986 L175,232.0986 L6,232.0986 A0,0 0 0 0 6,232.0986 " fill="#FEFFDD" style="stroke:#181818;stroke-width:0.5;"/><path d="M175,232.0986 L175,242.0986 L185,242.0986 L175,232.0986 " fill="#FEFFDD" style="stroke:#181818;stroke-width:0.5;"/><text fill="#000000" font-family="Arial" font-size="13" lengthAdjust="spacing" textLength="139" x="12" y="249.2925">es el que usa el servicio</text><text fill="#000000" font-family="Arial" font-size="13" lengthAdjust="spacing" textLength="154" x="12" y="264.2412">para reservar la instalación</text><text fill="#000000" font-family="Arial" font-size="13" lengthAdjust="spacing" textLength="4" x="12" y="279.1899"> </text><text fill="#000000" font-family="Arial" font-size="13" lengthAdjust="spacing" textLength="143" x="12" y="294.1387">se da por echo todos los</text><text fill="#000000" font-family="Arial" font-size="13" lengthAdjust="spacing" textLength="154" x="12" y="309.0874">datos que deberia tener un</text><text fill="#000000" font-family="Arial" font-size="13" lengthAdjust="spacing" textLength="53" x="12" y="324.0361">egresado</text></g><g id="elem_GMN10"><path d="M546,254.5986 L546,278.0986 L511.37,282.0986 L546,286.0986 L546,309.4448 A0,0 0 0 0 546,309.4448 L741,309.4448 A0,0 0 0 0 741,309.4448 L741,264.5986 L731,254.5986 L546,254.5986 A0,0 0 0 0 546,254.5986 " fill="#FEFFDD" style="stroke:#181818;stroke-width:0.5;"/><path d="M731,254.5986 L731,264.5986 L741,264.5986 L731,254.5986 " fill="#FEFFDD" style="stroke:#181818;stroke-width:0.5;"/><text fill="#000000" font-family="Arial" font-size="13" lengthAdjust="spacing" textLength="168" x="552" y="271.7925">es capaz de editar el servicio</text><text fill="#000000" font-family="Arial" font-size="13" lengthAdjust="spacing" textLength="170" x="552" y="286.7412">añadiendo o quitando horario,</text><text fill="#000000" font-family="Arial" font-size="13" lengthAdjust="spacing" textLength="171" x="552" y="301.6899">ubicación, disponibilidad, etc.</text></g><!--MD5=[ba40323a397df2a3f4e139d4e5f31236]
link INSTALACIONES to EGRESADO--><g id="link_INSTALACIONES_EGRESADO"><path codeLine="26" d="M331.54,156.5686 C316.2,190.6586 297.35,232.5386 285.89,257.9986 " fill="none" id="INSTALACIONES-EGRESADO" style="stroke:#181818;stroke-width:1.0;"/><text fill="#000000" font-family="Arial" font-size="13" lengthAdjust="spacing" textLength="41" x="317.5" y="199.2925">reserva</text></g><!--MD5=[90261981f9ca6f754dbb70e84bab3dca]
link INSTALACIONES to ADMINISTRADOR--><g id="link_INSTALACIONES_ADMINISTRADOR"><path codeLine="28" d="M381.77,156.5686 C397.3,190.6586 416.38,232.5386 427.98,257.9986 " fill="none" id="INSTALACIONES-ADMINISTRADOR" style="stroke:#181818;stroke-width:1.0;"/><text fill="#000000" font-family="Arial" font-size="13" lengthAdjust="spacing" textLength="89" x="402.5" y="199.2925">se gestiona por</text></g><!--MD5=[1702b074b72a3c4fc2c5361fff9bea5f]
@startuml Diagrama_de_Objetos-instalaciones

title Diagrama de Objetos - Reserva de Instalaciones

'!theme amiga
skinparam backgroundColor white
skinparam defaultFontName Arial

class INSTALACIONES 
{
    Nombre: "Cancha de Futbol"
    Ubicación: "Calle 13 # 100-00"
    horario: "Lunes a Viernes 8:00 am - 5:00 pm"
    disponibilidad: "Disponible"
}

class EGRESADO 
{
    
}

class ADMINISTRADOR 
{
    
}

INSTALACIONES - - EGRESADO : reserva
note left: es el que usa el servicio\npara reservar la instalación \n\nse da por echo todos los \ndatos que deberia tener un \negresado  
INSTALACIONES - - ADMINISTRADOR :se gestiona por
note right: es capaz de editar el servicio\nañadiendo o quitando horario, \nubicación, disponibilidad, etc.
@enduml

@startuml Diagrama_de_Objetos-instalaciones

title Diagrama de Objetos - Reserva de Instalaciones

skinparam backgroundColor white
skinparam defaultFontName Arial

class INSTALACIONES 
{
    Nombre: "Cancha de Futbol"
    Ubicación: "Calle 13 # 100-00"
    horario: "Lunes a Viernes 8:00 am - 5:00 pm"
    disponibilidad: "Disponible"
}

class EGRESADO 
{
    
}

class ADMINISTRADOR 
{
    
}

INSTALACIONES - - EGRESADO : reserva
note left: es el que usa el servicio\npara reservar la instalación \n\nse da por echo todos los \ndatos que deberia tener un \negresado  
INSTALACIONES - - ADMINISTRADOR :se gestiona por
note right: es capaz de editar el servicio\nañadiendo o quitando horario, \nubicación, disponibilidad, etc.
@enduml

PlantUML version 1.2022.7(Mon Aug 22 19:01:30 CEST 2022)
(GPL source distribution)
Java Runtime: Java(TM) SE Runtime Environment
JVM: Java HotSpot(TM) 64-Bit Server VM
Default Encoding: Cp1252
Language: es
Country: ES
--></g></svg>