<?xml version="1.0" encoding="us-ascii" standalone="no"?><svg xmlns="http://www.w3.org/2000/svg" xmlns:xlink="http://www.w3.org/1999/xlink" contentStyleType="text/css" height="598px" preserveAspectRatio="none" style="width:1103px;height:598px;background:#FFFFFF;" version="1.1" viewBox="0 0 1103 598" width="1103px" zoomAndPan="magnify"><defs/><g><ellipse cx="729.3125" cy="20" fill="#222222" rx="10" ry="10" style="stroke:#222222;stroke-width:1.0;"/><rect fill="#F1F1F1" height="33.9688" rx="12.5" ry="12.5" style="stroke:#181818;stroke-width:0.5;" width="86" x="686.3125" y="50"/><text fill="#000000" font-family="sans-serif" font-size="12" lengthAdjust="spacing" textLength="66" x="696.3125" y="71.1387">Leer huella</text><polygon fill="#F1F1F1" points="679.3125,103.9688,779.3125,103.9688,791.3125,115.9688,779.3125,127.9688,679.3125,127.9688,667.3125,115.9688,679.3125,103.9688" style="stroke:#181818;stroke-width:0.5;"/><text fill="#000000" font-family="sans-serif" font-size="11" lengthAdjust="spacing" textLength="100" x="679.3125" y="119.7769">Huellas coinciden</text><text fill="#000000" font-family="sans-serif" font-size="11" lengthAdjust="spacing" textLength="11" x="656.3125" y="113.3745">S&#237;</text><text fill="#000000" font-family="sans-serif" font-size="11" lengthAdjust="spacing" textLength="15" x="791.3125" y="113.3745">No</text><rect fill="#F1F1F1" height="33.9688" rx="12.5" ry="12.5" style="stroke:#181818;stroke-width:0.5;" width="136" x="409.875" y="137.9688"/><text fill="#000000" font-family="sans-serif" font-size="12" lengthAdjust="spacing" textLength="116" x="419.875" y="159.1074">Obtener trabajador</text><polygon fill="#F1F1F1" points="428.875,191.9375,526.875,191.9375,538.875,203.9375,526.875,215.9375,428.875,215.9375,416.875,203.9375,428.875,191.9375" style="stroke:#181818;stroke-width:0.5;"/><text fill="#000000" font-family="sans-serif" font-size="11" lengthAdjust="spacing" textLength="98" x="428.875" y="207.7456">Trabajador v&#225;lido</text><text fill="#000000" font-family="sans-serif" font-size="11" lengthAdjust="spacing" textLength="11" x="405.875" y="201.3433">S&#237;</text><text fill="#000000" font-family="sans-serif" font-size="11" lengthAdjust="spacing" textLength="15" x="538.875" y="201.3433">No</text><rect fill="#F1F1F1" height="33.9688" rx="12.5" ry="12.5" style="stroke:#181818;stroke-width:0.5;" width="149" x="185.75" y="225.9375"/><text fill="#000000" font-family="sans-serif" font-size="12" lengthAdjust="spacing" textLength="129" x="195.75" y="247.0762">Obtener fecha y hora</text><rect fill="#F1F1F1" height="33.9688" rx="12.5" ry="12.5" style="stroke:#181818;stroke-width:0.5;" width="117" x="201.75" y="279.9063"/><text fill="#000000" font-family="sans-serif" font-size="12" lengthAdjust="spacing" textLength="97" x="211.75" y="301.0449">Registrar fichaje</text><polygon fill="#F1F1F1" points="212.75,333.875,307.75,333.875,319.75,345.875,307.75,357.875,212.75,357.875,200.75,345.875,212.75,333.875" style="stroke:#181818;stroke-width:0.5;"/><text fill="#000000" font-family="sans-serif" font-size="11" lengthAdjust="spacing" textLength="95" x="212.75" y="349.6831">Horario cumplido</text><text fill="#000000" font-family="sans-serif" font-size="11" lengthAdjust="spacing" textLength="11" x="189.75" y="343.2808">S&#237;</text><text fill="#000000" font-family="sans-serif" font-size="11" lengthAdjust="spacing" textLength="15" x="319.75" y="343.2808">No</text><rect fill="#F1F1F1" height="33.9688" rx="12.5" ry="12.5" style="stroke:#181818;stroke-width:0.5;" width="119" x="64.5" y="367.875"/><text fill="#000000" font-family="sans-serif" font-size="12" lengthAdjust="spacing" textLength="99" x="74.5" y="389.0137">Generar informe</text><rect fill="#F1F1F1" height="33.9688" rx="12.5" ry="12.5" style="stroke:#181818;stroke-width:0.5;" width="226" x="11" y="421.8438"/><text fill="#000000" font-family="sans-serif" font-size="12" lengthAdjust="spacing" textLength="206" x="21" y="442.9824">Mostrar mensaje "Fichaje exitoso"</text><rect fill="#F1F1F1" height="33.9688" rx="12.5" ry="12.5" style="stroke:#181818;stroke-width:0.5;" width="279" x="257" y="367.875"/><text fill="#000000" font-family="sans-serif" font-size="12" lengthAdjust="spacing" textLength="259" x="267" y="389.0137">Mostrar mensaje "Fichaje fuera de horario"</text><polygon fill="#F1F1F1" points="260.25,461.8125,272.25,473.8125,260.25,485.8125,248.25,473.8125,260.25,461.8125" style="stroke:#181818;stroke-width:0.5;"/><rect fill="#F1F1F1" height="33.9688" rx="12.5" ry="12.5" style="stroke:#181818;stroke-width:0.5;" width="259" x="563.875" y="225.9375"/><text fill="#000000" font-family="sans-serif" font-size="12" lengthAdjust="spacing" textLength="239" x="573.875" y="247.0762">Mostrar mensaje "Trabajador no v&#225;lido"</text><polygon fill="#F1F1F1" points="477.875,491.8125,489.875,503.8125,477.875,515.8125,465.875,503.8125,477.875,491.8125" style="stroke:#181818;stroke-width:0.5;"/><rect fill="#F1F1F1" height="33.9688" rx="12.5" ry="12.5" style="stroke:#181818;stroke-width:0.5;" width="260" x="832.875" y="137.9688"/><text fill="#000000" font-family="sans-serif" font-size="12" lengthAdjust="spacing" textLength="240" x="842.875" y="159.1074">Mostrar mensaje "Huellas no coinciden"</text><polygon fill="#F1F1F1" points="729.3125,521.8125,741.3125,533.8125,729.3125,545.8125,717.3125,533.8125,729.3125,521.8125" style="stroke:#181818;stroke-width:0.5;"/><ellipse cx="729.3125" cy="576.8125" fill="none" rx="11" ry="11" style="stroke:#222222;stroke-width:1.0;"/><ellipse cx="729.3125" cy="576.8125" fill="#222222" rx="6" ry="6" style="stroke:#222222;stroke-width:1.0;"/><line style="stroke:#181818;stroke-width:1.0;" x1="729.3125" x2="729.3125" y1="30" y2="50"/><polygon fill="#181818" points="725.3125,40,729.3125,50,733.3125,40,729.3125,44" style="stroke:#181818;stroke-width:1.0;"/><line style="stroke:#181818;stroke-width:1.0;" x1="260.25" x2="260.25" y1="259.9063" y2="279.9063"/><polygon fill="#181818" points="256.25,269.9063,260.25,279.9063,264.25,269.9063,260.25,273.9063" style="stroke:#181818;stroke-width:1.0;"/><line style="stroke:#181818;stroke-width:1.0;" x1="124" x2="124" y1="401.8438" y2="421.8438"/><polygon fill="#181818" points="120,411.8438,124,421.8438,128,411.8438,124,415.8438" style="stroke:#181818;stroke-width:1.0;"/><line style="stroke:#181818;stroke-width:1.0;" x1="200.75" x2="124" y1="345.875" y2="345.875"/><line style="stroke:#181818;stroke-width:1.0;" x1="124" x2="124" y1="345.875" y2="367.875"/><polygon fill="#181818" points="120,357.875,124,367.875,128,357.875,124,361.875" style="stroke:#181818;stroke-width:1.0;"/><line style="stroke:#181818;stroke-width:1.0;" x1="319.75" x2="396.5" y1="345.875" y2="345.875"/><line style="stroke:#181818;stroke-width:1.0;" x1="396.5" x2="396.5" y1="345.875" y2="367.875"/><polygon fill="#181818" points="392.5,357.875,396.5,367.875,400.5,357.875,396.5,361.875" style="stroke:#181818;stroke-width:1.0;"/><line style="stroke:#181818;stroke-width:1.0;" x1="124" x2="124" y1="455.8125" y2="473.8125"/><line style="stroke:#181818;stroke-width:1.0;" x1="124" x2="248.25" y1="473.8125" y2="473.8125"/><polygon fill="#181818" points="238.25,469.8125,248.25,473.8125,238.25,477.8125,242.25,473.8125" style="stroke:#181818;stroke-width:1.0;"/><line style="stroke:#181818;stroke-width:1.0;" x1="396.5" x2="396.5" y1="401.8438" y2="473.8125"/><line style="stroke:#181818;stroke-width:1.0;" x1="396.5" x2="272.25" y1="473.8125" y2="473.8125"/><polygon fill="#181818" points="282.25,469.8125,272.25,473.8125,282.25,477.8125,278.25,473.8125" style="stroke:#181818;stroke-width:1.0;"/><line style="stroke:#181818;stroke-width:1.0;" x1="260.25" x2="260.25" y1="313.875" y2="333.875"/><polygon fill="#181818" points="256.25,323.875,260.25,333.875,264.25,323.875,260.25,327.875" style="stroke:#181818;stroke-width:1.0;"/><line style="stroke:#181818;stroke-width:1.0;" x1="416.875" x2="260.25" y1="203.9375" y2="203.9375"/><line style="stroke:#181818;stroke-width:1.0;" x1="260.25" x2="260.25" y1="203.9375" y2="225.9375"/><polygon fill="#181818" points="256.25,215.9375,260.25,225.9375,264.25,215.9375,260.25,219.9375" style="stroke:#181818;stroke-width:1.0;"/><line style="stroke:#181818;stroke-width:1.0;" x1="538.875" x2="693.375" y1="203.9375" y2="203.9375"/><line style="stroke:#181818;stroke-width:1.0;" x1="693.375" x2="693.375" y1="203.9375" y2="225.9375"/><polygon fill="#181818" points="689.375,215.9375,693.375,225.9375,697.375,215.9375,693.375,219.9375" style="stroke:#181818;stroke-width:1.0;"/><line style="stroke:#181818;stroke-width:1.0;" x1="260.25" x2="260.25" y1="485.8125" y2="503.8125"/><line style="stroke:#181818;stroke-width:1.0;" x1="260.25" x2="465.875" y1="503.8125" y2="503.8125"/><polygon fill="#181818" points="455.875,499.8125,465.875,503.8125,455.875,507.8125,459.875,503.8125" style="stroke:#181818;stroke-width:1.0;"/><line style="stroke:#181818;stroke-width:1.0;" x1="693.375" x2="693.375" y1="259.9063" y2="503.8125"/><line style="stroke:#181818;stroke-width:1.0;" x1="693.375" x2="489.875" y1="503.8125" y2="503.8125"/><polygon fill="#181818" points="499.875,499.8125,489.875,503.8125,499.875,507.8125,495.875,503.8125" style="stroke:#181818;stroke-width:1.0;"/><line style="stroke:#181818;stroke-width:1.0;" x1="477.875" x2="477.875" y1="171.9375" y2="191.9375"/><polygon fill="#181818" points="473.875,181.9375,477.875,191.9375,481.875,181.9375,477.875,185.9375" style="stroke:#181818;stroke-width:1.0;"/><line style="stroke:#181818;stroke-width:1.0;" x1="667.3125" x2="477.875" y1="115.9688" y2="115.9688"/><line style="stroke:#181818;stroke-width:1.0;" x1="477.875" x2="477.875" y1="115.9688" y2="137.9688"/><polygon fill="#181818" points="473.875,127.9688,477.875,137.9688,481.875,127.9688,477.875,131.9688" style="stroke:#181818;stroke-width:1.0;"/><line style="stroke:#181818;stroke-width:1.0;" x1="791.3125" x2="962.875" y1="115.9688" y2="115.9688"/><line style="stroke:#181818;stroke-width:1.0;" x1="962.875" x2="962.875" y1="115.9688" y2="137.9688"/><polygon fill="#181818" points="958.875,127.9688,962.875,137.9688,966.875,127.9688,962.875,131.9688" style="stroke:#181818;stroke-width:1.0;"/><line style="stroke:#181818;stroke-width:1.0;" x1="477.875" x2="477.875" y1="515.8125" y2="533.8125"/><line style="stroke:#181818;stroke-width:1.0;" x1="477.875" x2="717.3125" y1="533.8125" y2="533.8125"/><polygon fill="#181818" points="707.3125,529.8125,717.3125,533.8125,707.3125,537.8125,711.3125,533.8125" style="stroke:#181818;stroke-width:1.0;"/><line style="stroke:#181818;stroke-width:1.0;" x1="962.875" x2="962.875" y1="171.9375" y2="533.8125"/><line style="stroke:#181818;stroke-width:1.0;" x1="962.875" x2="741.3125" y1="533.8125" y2="533.8125"/><polygon fill="#181818" points="751.3125,529.8125,741.3125,533.8125,751.3125,537.8125,747.3125,533.8125" style="stroke:#181818;stroke-width:1.0;"/><line style="stroke:#181818;stroke-width:1.0;" x1="729.3125" x2="729.3125" y1="83.9688" y2="103.9688"/><polygon fill="#181818" points="725.3125,93.9688,729.3125,103.9688,733.3125,93.9688,729.3125,97.9688" style="stroke:#181818;stroke-width:1.0;"/><line style="stroke:#181818;stroke-width:1.0;" x1="729.3125" x2="729.3125" y1="545.8125" y2="565.8125"/><polygon fill="#181818" points="725.3125,555.8125,729.3125,565.8125,733.3125,555.8125,729.3125,559.8125" style="stroke:#181818;stroke-width:1.0;"/><!--SRC=[XP7D3S8m34RlcSBYrAv0xy217mbO83GEDMfZbAG8nc40fc0nJ4DH1KZSeiz-BvOTelPHgV4SqKFLObthGf65RDQz0vHChYI3BeTOeODiSx_b2c2ysaLq0aMlT_gW3Vj2uYUwVITmkbzhClp13cYBPQNX0XLxNQJI6lSKn2f5ak81KzuD9LsU6CgsEVxq2ZvzUWKcPzatBrZo1ITfWow854QJP0SyK-J0ezI9TK38bfp_vMmh_u31RdQPgXSuGrPzYhurWoqvxXVLEP9Xo7_J_Na4VLz8u8Ig4Fdu0000]--></g></svg>