<?xml version="1.0" encoding="UTF-8" standalone="no"?><svg xmlns="http://www.w3.org/2000/svg" xmlns:xlink="http://www.w3.org/1999/xlink" contentStyleType="text/css" height="1277px" preserveAspectRatio="none" style="width:1090px;height:1277px;background:#FFFFFF;" version="1.1" viewBox="0 0 1090 1277" width="1090px" zoomAndPan="magnify"><defs/><g><rect fill="none" height="27.6094" id="_title" style="stroke:none;stroke-width:1.0;" width="170" x="450" y="5"/><text fill="#000000" font-family="sans-serif" font-size="14" font-weight="bold" lengthAdjust="spacing" textLength="160" x="455" y="24.5332">Registro en Plataforma</text><rect fill="#F1F1F1" height="40" rx="12.5" ry="12.5" style="stroke:#181818;stroke-width:0.5;" width="54" x="515" y="45.6094"/><text fill="#000000" font-family="sans-serif" font-size="14" lengthAdjust="spacing" textLength="44" x="520" y="71.3379">INITIAL</text><path d="M19.5,197.6094 L1064.5,197.6094 A12.5,12.5 0 0 1 1077,210.1094 L1077,225.2188 L7,225.2188 L7,210.1094 A12.5,12.5 0 0 1 19.5,197.6094 " fill="#F1F1F1" style="stroke:#F1F1F1;stroke-width:1.0;"/><rect fill="none" height="1073.6094" rx="12.5" ry="12.5" style="stroke:#181818;stroke-width:0.5;" width="1070" x="7" y="197.6094"/><line style="stroke:#181818;stroke-width:0.5;" x1="7" x2="1077" y1="225.2188" y2="225.2188"/><text fill="#000000" font-family="sans-serif" font-size="14" lengthAdjust="spacing" textLength="138" x="473" y="217.1426">RegistroEnPlataforma</text><rect fill="#F1F1F1" height="40" rx="12.5" ry="12.5" style="stroke:#181818;stroke-width:0.5;" width="50" x="669" y="344.2188"/><text fill="#000000" font-family="sans-serif" font-size="14" lengthAdjust="spacing" textLength="4" x="692" y="369.9473"> </text><g id="elem_3"><polygon fill="#F1F1F1" points="598,486.2188,610,498.2188,598,510.2188,586,498.2188,598,486.2188" style="stroke:#181818;stroke-width:0.5;"/></g><rect fill="#F1F1F1" height="40" rx="12.5" ry="12.5" style="stroke:#181818;stroke-width:0.5;" width="50" x="391" y="596.2188"/><text fill="#000000" font-family="sans-serif" font-size="14" lengthAdjust="spacing" textLength="4" x="414" y="621.9473"> </text><rect fill="#F1F1F1" height="40" rx="12.5" ry="12.5" style="stroke:#181818;stroke-width:0.5;" width="50" x="669" y="596.2188"/><text fill="#000000" font-family="sans-serif" font-size="14" lengthAdjust="spacing" textLength="4" x="692" y="621.9473"> </text><rect fill="#F1F1F1" height="40" rx="12.5" ry="12.5" style="stroke:#181818;stroke-width:0.5;" width="50" x="391" y="855.2188"/><text fill="#000000" font-family="sans-serif" font-size="14" lengthAdjust="spacing" textLength="4" x="414" y="880.9473"> </text><g id="elem_7"><polygon fill="#F1F1F1" points="325,1095.2188,337,1107.2188,325,1119.2188,313,1107.2188,325,1095.2188" style="stroke:#181818;stroke-width:0.5;"/></g><rect fill="#F1F1F1" height="40" rx="12.5" ry="12.5" style="stroke:#181818;stroke-width:0.5;" width="50" x="390" y="1221.2188"/><text fill="#000000" font-family="sans-serif" font-size="14" lengthAdjust="spacing" textLength="4" x="413" y="1246.9473"> </text><ellipse cx="694" cy="246.2188" fill="#222222" rx="10" ry="10" style="stroke:none;stroke-width:1.0;"/><ellipse cx="28" cy="1241.2188" fill="none" rx="10" ry="10" style="stroke:#222222;stroke-width:1.0;"/><ellipse cx="28.5" cy="1241.7188" fill="#222222" rx="6" ry="6" style="stroke:none;stroke-width:1.0;"/><!--MD5=[551396dde787568e645a798f318599ed]
link *start*RegistroEnPlataforma to 2--><g id="link_*start*RegistroEnPlataforma_2"><path d="M694,256.3188 C694,273.8688 694,312.9288 694,338.6588 " fill="none" id="*start*RegistroEnPlataforma-to-2" style="stroke:#008000;stroke-width:1.0;"/><polygon fill="#008000" points="694,343.9288,698,334.9288,694,338.9288,690,334.9288,694,343.9288" style="stroke:#008000;stroke-width:1.0;"/><path d="M699,279.2188 L699,321.2188 L855,321.2188 L855,289.2188 L845,279.2188 L699,279.2188 " fill="#F5F5F5" style="stroke:#181818;stroke-width:0.5;"/><path d="M845,279.2188 L845,289.2188 L855,289.2188 L845,279.2188 " fill="#F5F5F5" style="stroke:#181818;stroke-width:0.5;"/><text fill="#000000" font-family="sans-serif" font-size="13" font-weight="bold" lengthAdjust="spacing" textLength="103" x="705" y="297.7139">Sistema Solicita</text><ellipse cx="710.5" cy="309.4219" fill="#000000" rx="2.5" ry="2.5" style="stroke:#000000;stroke-width:0.0;"/><text fill="#000000" font-family="sans-serif" font-size="13" lengthAdjust="spacing" textLength="122" x="718" y="314.0654">Carnet de Estudiante</text></g><!--MD5=[eeb69082328d10abd3b14fdeede0d8a3]
link 2 to 3--><g id="link_2_3"><path d="M668.8,376.3188 C644.05,387.2188 610,402.2188 610,402.2188 C610,402.2188 603.29,455.3188 599.91,482.1188 " fill="none" id="2-to-3" style="stroke:#008000;stroke-width:1.0;"/><polygon fill="#008000" points="599.24,487.4088,604.3404,478.9834,599.869,482.4485,596.4039,477.9771,599.24,487.4088" style="stroke:#008000;stroke-width:1.0;"/><path d="M615,407.2188 L615,449.2188 L771,449.2188 L771,417.2188 L761,407.2188 L615,407.2188 " fill="#F5F5F5" style="stroke:#181818;stroke-width:0.5;"/><path d="M761,407.2188 L761,417.2188 L771,417.2188 L761,407.2188 " fill="#F5F5F5" style="stroke:#181818;stroke-width:0.5;"/><text fill="#000000" font-family="sans-serif" font-size="13" font-weight="bold" lengthAdjust="spacing" textLength="112" x="621" y="425.7139">Usuario Introduce</text><ellipse cx="626.5" cy="437.4219" fill="#000000" rx="2.5" ry="2.5" style="stroke:#000000;stroke-width:0.0;"/><text fill="#000000" font-family="sans-serif" font-size="13" lengthAdjust="spacing" textLength="122" x="634" y="442.0654">Carnet de Estudiante</text></g><!--MD5=[c24e363b82b23e873c94edca50a9731f]
link 3 to 5--><g id="link_3_5"><path d="M598.14,510.1988 C598.41,531.9088 599,578.2188 599,578.2188 C599,578.2188 636,592.6288 663.81,603.4588 " fill="none" id="3-to-5" style="stroke:#FF0000;stroke-width:1.0;"/><polygon fill="#FF0000" points="668.54,605.2988,661.6059,598.3046,663.8811,603.4838,658.7019,605.7589,668.54,605.2988" style="stroke:#FF0000;stroke-width:1.0;"/><path d="M604,547.2188 L604,573.2188 L771,573.2188 L771,557.2188 L761,547.2188 L604,547.2188 " fill="#F5F5F5" style="stroke:#181818;stroke-width:0.5;"/><path d="M761,547.2188 L761,557.2188 L771,557.2188 L761,547.2188 " fill="#F5F5F5" style="stroke:#181818;stroke-width:0.5;"/><text fill="#000000" font-family="sans-serif" font-size="13" lengthAdjust="spacing" textLength="146" x="610" y="565.7139">Estudiante no Registrado</text></g><!--MD5=[4d8a96d09d2f7e5fdd4fcd506871cbc1]
link 5 to 2--><g id="link_5_2"><path d="M719.05,603.9188 C743.16,593.0388 776,578.2188 776,578.2188 C776,578.2188 776,402.2188 776,402.2188 C776,402.2188 747.14,389.1988 723.66,378.5988 " fill="none" id="5-to-2" style="stroke:#FF0000;stroke-width:1.0;"/><polygon fill="#FF0000" points="719.05,376.5187,725.6072,383.8674,723.6072,378.5759,728.8987,376.5759,719.05,376.5187" style="stroke:#FF0000;stroke-width:1.0;"/><path d="M781,477.2188 L781,519.2188 L1068,519.2188 L1068,487.2188 L1058,477.2188 L781,477.2188 " fill="#F5F5F5" style="stroke:#181818;stroke-width:0.5;"/><path d="M1058,477.2188 L1058,487.2188 L1068,487.2188 L1058,477.2188 " fill="#F5F5F5" style="stroke:#181818;stroke-width:0.5;"/><text fill="#000000" font-family="sans-serif" font-size="13" font-weight="bold" lengthAdjust="spacing" textLength="105" x="787" y="495.7139">Sistema Muestra</text><ellipse cx="792.5" cy="507.4219" fill="#000000" rx="2.5" ry="2.5" style="stroke:#000000;stroke-width:0.0;"/><text fill="#000000" font-family="sans-serif" font-size="13" lengthAdjust="spacing" textLength="253" x="800" y="512.0654">Mensaje de Error: Estudiante no Registrado</text></g><!--MD5=[b1f22f0c97e7f2b556a5a2d67c42ac53]
link 3 to 4--><g id="link_3_4"><path d="M589.29,501.5287 C555.64,510.4588 436,542.2188 436,542.2188 C436,542.2188 428.44,569.8088 422.62,591.0688 " fill="none" id="3-to-4" style="stroke:#008000;stroke-width:1.0;"/><polygon fill="#008000" points="421.25,596.0388,427.479,588.4099,422.5668,591.2153,419.7614,586.303,421.25,596.0388" style="stroke:#008000;stroke-width:1.0;"/><path d="M441,547.2188 L441,573.2188 L590,573.2188 L590,557.2188 L580,547.2188 L441,547.2188 " fill="#F5F5F5" style="stroke:#181818;stroke-width:0.5;"/><path d="M580,547.2188 L580,557.2188 L590,557.2188 L580,547.2188 " fill="#F5F5F5" style="stroke:#181818;stroke-width:0.5;"/><text fill="#000000" font-family="sans-serif" font-size="13" lengthAdjust="spacing" textLength="128" x="447" y="565.7139">Estudiante Registrado</text></g><!--MD5=[f13c3ab577a688343a149026a232f91b]
link 4 to 6--><g id="link_4_6"><path d="M416,636.5388 C416,682.5988 416,798.8488 416,849.7288 " fill="none" id="4-to-6" style="stroke:#008000;stroke-width:1.0;"/><polygon fill="#008000" points="416,855.0288,420,846.0288,416,850.0288,412,846.0288,416,855.0288" style="stroke:#008000;stroke-width:1.0;"/><path d="M421,659.2188 L421,832.2188 L692,832.2188 L692,669.2188 L682,659.2188 L421,659.2188 " fill="#F5F5F5" style="stroke:#181818;stroke-width:0.5;"/><path d="M682,659.2188 L682,669.2188 L692,669.2188 L682,659.2188 " fill="#F5F5F5" style="stroke:#181818;stroke-width:0.5;"/><text fill="#000000" font-family="sans-serif" font-size="13" font-weight="bold" lengthAdjust="spacing" textLength="105" x="427" y="677.7139">Sistema Muestra</text><ellipse cx="432.5" cy="689.4219" fill="#000000" rx="2.5" ry="2.5" style="stroke:#000000;stroke-width:0.0;"/><text fill="#000000" font-family="sans-serif" font-size="13" lengthAdjust="spacing" textLength="237" x="440" y="694.0654">Mensaje de Exito: Estudiante Registrado</text><text fill="#000000" font-family="sans-serif" font-size="13" font-weight="bold" lengthAdjust="spacing" textLength="103" x="427" y="710.417">Sistema Solicita</text><ellipse cx="432.5" cy="722.125" fill="#000000" rx="2.5" ry="2.5" style="stroke:#000000;stroke-width:0.0;"/><text fill="#000000" font-family="sans-serif" font-size="13" lengthAdjust="spacing" textLength="45" x="440" y="726.7686">Nombre</text><ellipse cx="432.5" cy="738.4766" fill="#000000" rx="2.5" ry="2.5" style="stroke:#000000;stroke-width:0.0;"/><text fill="#000000" font-family="sans-serif" font-size="13" lengthAdjust="spacing" textLength="46" x="440" y="743.1201">Apellido</text><ellipse cx="432.5" cy="754.8281" fill="#000000" rx="2.5" ry="2.5" style="stroke:#000000;stroke-width:0.0;"/><text fill="#000000" font-family="sans-serif" font-size="13" lengthAdjust="spacing" textLength="121" x="440" y="759.4717">Fecha de nacimiento</text><ellipse cx="432.5" cy="771.1797" fill="#000000" rx="2.5" ry="2.5" style="stroke:#000000;stroke-width:0.0;"/><text fill="#000000" font-family="sans-serif" font-size="13" lengthAdjust="spacing" textLength="33" x="440" y="775.8232">Email</text><ellipse cx="432.5" cy="787.5313" fill="#000000" rx="2.5" ry="2.5" style="stroke:#000000;stroke-width:0.0;"/><text fill="#000000" font-family="sans-serif" font-size="13" lengthAdjust="spacing" textLength="66" x="440" y="792.1748">Contraseña</text><ellipse cx="432.5" cy="803.8828" fill="#000000" rx="2.5" ry="2.5" style="stroke:#000000;stroke-width:0.0;"/><text fill="#000000" font-family="sans-serif" font-size="13" lengthAdjust="spacing" textLength="57" x="440" y="808.5264">Ubicación</text><ellipse cx="432.5" cy="820.2344" fill="#000000" rx="2.5" ry="2.5" style="stroke:#000000;stroke-width:0.0;"/><text fill="#000000" font-family="sans-serif" font-size="13" lengthAdjust="spacing" textLength="62" x="440" y="824.8779">Ocupación</text></g><!--MD5=[2dfa168d6698efd82f568a8036f37f42]
link 6 to 7--><g id="link_6_7"><path d="M390.73,886.7188 C364.42,897.6588 327,913.2188 327,913.2188 C327,913.2188 325.65,1043.6388 325.17,1090.0588 " fill="none" id="6-to-7" style="stroke:#008000;stroke-width:1.0;"/><polygon fill="#008000" points="325.11,1095.2888,329.2126,1086.335,325.1671,1090.2891,321.2131,1086.2436,325.11,1095.2888" style="stroke:#008000;stroke-width:1.0;"/><path d="M332,918.2188 L332,1058.2188 L487,1058.2188 L487,928.2188 L477,918.2188 L332,918.2188 " fill="#F5F5F5" style="stroke:#181818;stroke-width:0.5;"/><path d="M477,918.2188 L477,928.2188 L487,928.2188 L477,918.2188 " fill="#F5F5F5" style="stroke:#181818;stroke-width:0.5;"/><text fill="#000000" font-family="sans-serif" font-size="13" font-weight="bold" lengthAdjust="spacing" textLength="112" x="338" y="936.7139">Usuario Introduce</text><ellipse cx="343.5" cy="948.4219" fill="#000000" rx="2.5" ry="2.5" style="stroke:#000000;stroke-width:0.0;"/><text fill="#000000" font-family="sans-serif" font-size="13" lengthAdjust="spacing" textLength="45" x="351" y="953.0654">Nombre</text><ellipse cx="343.5" cy="964.7734" fill="#000000" rx="2.5" ry="2.5" style="stroke:#000000;stroke-width:0.0;"/><text fill="#000000" font-family="sans-serif" font-size="13" lengthAdjust="spacing" textLength="46" x="351" y="969.417">Apellido</text><ellipse cx="343.5" cy="981.125" fill="#000000" rx="2.5" ry="2.5" style="stroke:#000000;stroke-width:0.0;"/><text fill="#000000" font-family="sans-serif" font-size="13" lengthAdjust="spacing" textLength="121" x="351" y="985.7686">Fecha de nacimiento</text><ellipse cx="343.5" cy="997.4766" fill="#000000" rx="2.5" ry="2.5" style="stroke:#000000;stroke-width:0.0;"/><text fill="#000000" font-family="sans-serif" font-size="13" lengthAdjust="spacing" textLength="33" x="351" y="1002.1201">Email</text><ellipse cx="343.5" cy="1013.8281" fill="#000000" rx="2.5" ry="2.5" style="stroke:#000000;stroke-width:0.0;"/><text fill="#000000" font-family="sans-serif" font-size="13" lengthAdjust="spacing" textLength="66" x="351" y="1018.4717">Contraseña</text><ellipse cx="343.5" cy="1030.1797" fill="#000000" rx="2.5" ry="2.5" style="stroke:#000000;stroke-width:0.0;"/><text fill="#000000" font-family="sans-serif" font-size="13" lengthAdjust="spacing" textLength="57" x="351" y="1034.8232">Ubicación</text><ellipse cx="343.5" cy="1046.5313" fill="#000000" rx="2.5" ry="2.5" style="stroke:#000000;stroke-width:0.0;"/><text fill="#000000" font-family="sans-serif" font-size="13" lengthAdjust="spacing" textLength="62" x="351" y="1051.1748">Ocupación</text></g><!--MD5=[09e96f217a855a8e3d35b283e8945458]
link 7 to *end*RegistroEnPlataforma--><g id="link_7_*end*RegistroEnPlataforma"><path d="M315.47,1109.6988 C266.76,1117.2588 48,1151.2188 48,1151.2188 C48,1151.2188 36.71,1201.4488 31.1,1226.4388 " fill="none" id="7-to-*end*RegistroEnPlataforma" style="stroke:#008000;stroke-width:1.0;"/><polygon fill="#008000" points="29.99,1231.3587,35.8741,1223.4608,31.0913,1226.4815,28.0706,1221.6987,29.99,1231.3587" style="stroke:#008000;stroke-width:1.0;"/><path d="M53,1156.2188 L53,1198.2188 L317,1198.2188 L317,1166.2188 L307,1156.2188 L53,1156.2188 " fill="#F5F5F5" style="stroke:#181818;stroke-width:0.5;"/><path d="M307,1156.2188 L307,1166.2188 L317,1166.2188 L307,1156.2188 " fill="#F5F5F5" style="stroke:#181818;stroke-width:0.5;"/><text fill="#000000" font-family="sans-serif" font-size="13" font-weight="bold" lengthAdjust="spacing" textLength="105" x="59" y="1174.7139">Sistema Muestra</text><ellipse cx="64.5" cy="1186.4219" fill="#000000" rx="2.5" ry="2.5" style="stroke:#000000;stroke-width:0.0;"/><text fill="#000000" font-family="sans-serif" font-size="13" lengthAdjust="spacing" textLength="230" x="72" y="1191.0654">Mensaje de Exito: Egresado Registrado</text></g><!--MD5=[5ca979b543d038a4b12f05f8f6f2c83d]
link 7 to 8--><g id="link_7_8"><path d="M325.11,1119.1188 C325.38,1144.0688 326,1203.2188 326,1203.2188 C326,1203.2188 359.17,1217.0088 385,1227.7488 " fill="none" id="7-to-8" style="stroke:#FF0000;stroke-width:1.0;"/><polygon fill="#FF0000" points="389.73,1229.7188,382.9498,1222.5753,385.1117,1227.8028,379.8842,1229.9647,389.73,1229.7188" style="stroke:#FF0000;stroke-width:1.0;"/><path d="M331,1164.2188 L331,1190.2188 L487,1190.2188 L487,1174.2188 L477,1164.2188 L331,1164.2188 " fill="#F5F5F5" style="stroke:#181818;stroke-width:0.5;"/><path d="M477,1164.2188 L477,1174.2188 L487,1174.2188 L477,1164.2188 " fill="#F5F5F5" style="stroke:#181818;stroke-width:0.5;"/><text fill="#000000" font-family="sans-serif" font-size="13" lengthAdjust="spacing" textLength="135" x="337" y="1182.7139">Error al introducir datos</text></g><!--MD5=[dfd4d3abcbc1ea6e869654a29eca52f3]
link 8 to 6--><g id="link_8_6"><path d="M440.21,1228.0988 C462.67,1217.3088 492,1203.2188 492,1203.2188 C492,1203.2188 492,913.2188 492,913.2188 C492,913.2188 467.29,901.1888 446.05,890.8488 " fill="none" id="8-to-6" style="stroke:#FF0000;stroke-width:1.0;"/><polygon fill="#FF0000" points="441.31,888.5387,447.6485,896.0769,445.8048,890.7289,451.1528,888.8852,441.31,888.5387" style="stroke:#FF0000;stroke-width:1.0;"/><path d="M497,1086.2188 L497,1128.2188 L773,1128.2188 L773,1096.2188 L763,1086.2188 L497,1086.2188 " fill="#F5F5F5" style="stroke:#181818;stroke-width:0.5;"/><path d="M763,1086.2188 L763,1096.2188 L773,1096.2188 L763,1086.2188 " fill="#F5F5F5" style="stroke:#181818;stroke-width:0.5;"/><text fill="#000000" font-family="sans-serif" font-size="13" font-weight="bold" lengthAdjust="spacing" textLength="105" x="503" y="1104.7139">Sistema Muestra</text><ellipse cx="508.5" cy="1116.4219" fill="#000000" rx="2.5" ry="2.5" style="stroke:#000000;stroke-width:0.0;"/><text fill="#000000" font-family="sans-serif" font-size="13" lengthAdjust="spacing" textLength="242" x="516" y="1121.0654">Mensaje de Error: Error al introducir datos</text></g><!--MD5=[210252b9fa80965f133209cc2e7c058f]
link startState to RegistroEnPlataforma--><g id="link_startState_RegistroEnPlataforma"><path d="M542,85.8494 C542,107.2894 542,145.1994 542,192.3094 " fill="none" id="startState-to-RegistroEnPlataforma" style="stroke:#008000;stroke-width:1.0;"/><polygon fill="#008000" points="542,197.4894,546,188.4894,542,192.4894,538,188.4894,542,197.4894" style="stroke:#008000;stroke-width:1.0;"/><path d="M547,120.6094 L547,162.6094 L728,162.6094 L728,130.6094 L718,120.6094 L547,120.6094 " fill="#F5F5F5" style="stroke:#181818;stroke-width:0.5;"/><path d="M718,120.6094 L718,130.6094 L728,130.6094 L718,120.6094 " fill="#F5F5F5" style="stroke:#181818;stroke-width:0.5;"/><text fill="#000000" font-family="sans-serif" font-size="13" font-weight="bold" lengthAdjust="spacing" textLength="160" x="553" y="139.1045">Ajeno al Sistema Solicita</text><ellipse cx="558.5" cy="150.8125" fill="#000000" rx="2.5" ry="2.5" style="stroke:#000000;stroke-width:0.0;"/><text fill="#000000" font-family="sans-serif" font-size="13" lengthAdjust="spacing" textLength="132" x="566" y="155.4561">Registro en Plataforma</text></g><!--MD5=[edd8e19c3352e74d2f299f1b74c56cc4]
@startuml

title Registro en Plataforma

skinparam {
    NoteBackgroundColor #whiteSmoke
    ArrowColor #green
    NoteBorderColor #green
    linetype polyline
}

hide empty description

state startState as "INITIAL"

startState - -> RegistroEnPlataforma
note on link
    <b>Ajeno al Sistema Solicita</b>
    * Registro en Plataforma
end note

state RegistroEnPlataforma {
  state 2 as " "
  state 3 <<choice>>
  state 4 as " "
  state 5 as " "
  state 6 as " "
  state 7 <<choice>>
  state 8 as " "


  [*] - -> 2
  note on link
    <b>Sistema Solicita</b>
    * Carnet de Estudiante
  end note

  2 - -> 3
  note on link
    <b>Usuario Introduce</b>
    * Carnet de Estudiante
  end note

  3 -[#red]-> 5
  note on link
    Estudiante no Registrado
  end note

  5 -[#red]-> 2
  note on link
    <b>Sistema Muestra</b>
    * Mensaje de Error: Estudiante no Registrado
  end note

  3 - -> 4
  note on link
    Estudiante Registrado
  end note

  4 - -> 6
  note on link
    <b>Sistema Muestra</b>
    * Mensaje de Exito: Estudiante Registrado
    <b>Sistema Solicita</b>
    * Nombre
    * Apellido
    * Fecha de nacimiento
    * Email
    * Contraseña
    * Ubicación
    * Ocupación
  end note

  6 - -> 7
  note on link
    <b>Usuario Introduce</b>
    * Nombre
    * Apellido
    * Fecha de nacimiento
    * Email
    * Contraseña
    * Ubicación
    * Ocupación
  end note

  7 - -> [*]
  note on link
    <b>Sistema Muestra</b>
    * Mensaje de Exito: Egresado Registrado
  end note

  7 -[#red]-> 8
  note on link
    Error al introducir datos
  end note

  8 -[#red]-> 6
  note on link
    <b>Sistema Muestra</b>
    * Mensaje de Error: Error al introducir datos
  end note

}

@enduml

PlantUML version 1.2022.7(Mon Aug 22 19:01:30 CEST 2022)
(GPL source distribution)
Java Runtime: Java(TM) SE Runtime Environment
JVM: Java HotSpot(TM) Client VM
Default Encoding: Cp1252
Language: es
Country: ES
--></g></svg>