<?xml version="1.0" encoding="UTF-8" standalone="no"?><svg xmlns="http://www.w3.org/2000/svg" xmlns:xlink="http://www.w3.org/1999/xlink" contentStyleType="text/css" height="1238px" preserveAspectRatio="none" style="width:1090px;height:1238px;background:#FFFFFF;" version="1.1" viewBox="0 0 1090 1238" width="1090px" zoomAndPan="magnify"><defs/><g><rect fill="#F1F1F1" height="40" rx="12.5" ry="12.5" style="stroke:#181818;stroke-width:0.5;" width="54" x="515" y="7"/><text fill="#000000" font-family="sans-serif" font-size="14" lengthAdjust="spacing" textLength="44" x="520" y="32.7285">INITIAL</text><path d="M19.5,159 L1064.5,159 A12.5,12.5 0 0 1 1077,171.5 L1077,186.6094 L7,186.6094 L7,171.5 A12.5,12.5 0 0 1 19.5,159 " fill="#F1F1F1" style="stroke:#F1F1F1;stroke-width:1.0;"/><rect fill="none" height="1073.6094" rx="12.5" ry="12.5" style="stroke:#181818;stroke-width:0.5;" width="1070" x="7" y="159"/><line style="stroke:#181818;stroke-width:0.5;" x1="7" x2="1077" y1="186.6094" y2="186.6094"/><text fill="#000000" font-family="sans-serif" font-size="14" lengthAdjust="spacing" textLength="138" x="473" y="178.5332">RegistroEnPlataforma</text><rect fill="#F1F1F1" height="40" rx="12.5" ry="12.5" style="stroke:#181818;stroke-width:0.5;" width="50" x="669" y="305.6094"/><text fill="#000000" font-family="sans-serif" font-size="14" lengthAdjust="spacing" textLength="4" x="692" y="331.3379"> </text><g id="elem_3"><polygon fill="#F1F1F1" points="598,447.6094,610,459.6094,598,471.6094,586,459.6094,598,447.6094" style="stroke:#181818;stroke-width:0.5;"/></g><rect fill="#F1F1F1" height="40" rx="12.5" ry="12.5" style="stroke:#181818;stroke-width:0.5;" width="50" x="391" y="557.6094"/><text fill="#000000" font-family="sans-serif" font-size="14" lengthAdjust="spacing" textLength="4" x="414" y="583.3379"> </text><rect fill="#F1F1F1" height="40" rx="12.5" ry="12.5" style="stroke:#181818;stroke-width:0.5;" width="50" x="669" y="557.6094"/><text fill="#000000" font-family="sans-serif" font-size="14" lengthAdjust="spacing" textLength="4" x="692" y="583.3379"> </text><rect fill="#F1F1F1" height="40" rx="12.5" ry="12.5" style="stroke:#181818;stroke-width:0.5;" width="50" x="391" y="816.6094"/><text fill="#000000" font-family="sans-serif" font-size="14" lengthAdjust="spacing" textLength="4" x="414" y="842.3379"> </text><g id="elem_7"><polygon fill="#F1F1F1" points="325,1056.6094,337,1068.6094,325,1080.6094,313,1068.6094,325,1056.6094" style="stroke:#181818;stroke-width:0.5;"/></g><rect fill="#F1F1F1" height="40" rx="12.5" ry="12.5" style="stroke:#181818;stroke-width:0.5;" width="50" x="390" y="1182.6094"/><text fill="#000000" font-family="sans-serif" font-size="14" lengthAdjust="spacing" textLength="4" x="413" y="1208.3379"> </text><ellipse cx="694" cy="207.6094" fill="#222222" rx="10" ry="10" style="stroke:none;stroke-width:1.0;"/><ellipse cx="28" cy="1202.6094" fill="none" rx="10" ry="10" style="stroke:#222222;stroke-width:1.0;"/><ellipse cx="28.5" cy="1203.1094" fill="#222222" rx="6" ry="6" style="stroke:none;stroke-width:1.0;"/><!--MD5=[551396dde787568e645a798f318599ed]
link *start*RegistroEnPlataforma to 2--><g id="link_*start*RegistroEnPlataforma_2"><path d="M694,217.7094 C694,235.2594 694,274.3194 694,300.0494 " fill="none" id="*start*RegistroEnPlataforma-to-2" style="stroke:#008000;stroke-width:1.0;"/><polygon fill="#008000" points="694,305.3194,698,296.3194,694,300.3194,690,296.3194,694,305.3194" style="stroke:#008000;stroke-width:1.0;"/><path d="M699,240.6094 L699,282.6094 L855,282.6094 L855,250.6094 L845,240.6094 L699,240.6094 " fill="#F5F5F5" style="stroke:#181818;stroke-width:0.5;"/><path d="M845,240.6094 L845,250.6094 L855,250.6094 L845,240.6094 " fill="#F5F5F5" style="stroke:#181818;stroke-width:0.5;"/><text fill="#000000" font-family="sans-serif" font-size="13" font-weight="bold" lengthAdjust="spacing" textLength="103" x="705" y="259.1045">Sistema Solicita</text><ellipse cx="710.5" cy="270.8125" fill="#000000" rx="2.5" ry="2.5" style="stroke:#000000;stroke-width:0.0;"/><text fill="#000000" font-family="sans-serif" font-size="13" lengthAdjust="spacing" textLength="122" x="718" y="275.4561">Carnet de Estudiante</text></g><!--MD5=[eeb69082328d10abd3b14fdeede0d8a3]
link 2 to 3--><g id="link_2_3"><path d="M668.8,337.7094 C644.05,348.6094 610,363.6094 610,363.6094 C610,363.6094 603.29,416.7094 599.91,443.5094 " fill="none" id="2-to-3" style="stroke:#008000;stroke-width:1.0;"/><polygon fill="#008000" points="599.24,448.7994,604.3404,440.374,599.869,443.8391,596.4039,439.3677,599.24,448.7994" style="stroke:#008000;stroke-width:1.0;"/><path d="M615,368.6094 L615,410.6094 L771,410.6094 L771,378.6094 L761,368.6094 L615,368.6094 " fill="#F5F5F5" style="stroke:#181818;stroke-width:0.5;"/><path d="M761,368.6094 L761,378.6094 L771,378.6094 L761,368.6094 " fill="#F5F5F5" style="stroke:#181818;stroke-width:0.5;"/><text fill="#000000" font-family="sans-serif" font-size="13" font-weight="bold" lengthAdjust="spacing" textLength="112" x="621" y="387.1045">Usuario Introduce</text><ellipse cx="626.5" cy="398.8125" fill="#000000" rx="2.5" ry="2.5" style="stroke:#000000;stroke-width:0.0;"/><text fill="#000000" font-family="sans-serif" font-size="13" lengthAdjust="spacing" textLength="122" x="634" y="403.4561">Carnet de Estudiante</text></g><!--MD5=[c24e363b82b23e873c94edca50a9731f]
link 3 to 5--><g id="link_3_5"><path d="M598.14,471.5894 C598.41,493.2994 599,539.6094 599,539.6094 C599,539.6094 636,554.0194 663.81,564.8494 " fill="none" id="3-to-5" style="stroke:#FF0000;stroke-width:1.0;"/><polygon fill="#FF0000" points="668.54,566.6894,661.6059,559.6952,663.8811,564.8744,658.7019,567.1496,668.54,566.6894" style="stroke:#FF0000;stroke-width:1.0;"/><path d="M604,508.6094 L604,534.6094 L771,534.6094 L771,518.6094 L761,508.6094 L604,508.6094 " fill="#F5F5F5" style="stroke:#181818;stroke-width:0.5;"/><path d="M761,508.6094 L761,518.6094 L771,518.6094 L761,508.6094 " fill="#F5F5F5" style="stroke:#181818;stroke-width:0.5;"/><text fill="#000000" font-family="sans-serif" font-size="13" lengthAdjust="spacing" textLength="146" x="610" y="527.1045">Estudiante no Registrado</text></g><!--MD5=[4d8a96d09d2f7e5fdd4fcd506871cbc1]
link 5 to 2--><g id="link_5_2"><path d="M719.05,565.3094 C743.16,554.4294 776,539.6094 776,539.6094 C776,539.6094 776,363.6094 776,363.6094 C776,363.6094 747.14,350.5894 723.66,339.9894 " fill="none" id="5-to-2" style="stroke:#FF0000;stroke-width:1.0;"/><polygon fill="#FF0000" points="719.05,337.9094,725.6072,345.258,723.6072,339.9665,728.8987,337.9665,719.05,337.9094" style="stroke:#FF0000;stroke-width:1.0;"/><path d="M781,438.6094 L781,480.6094 L1068,480.6094 L1068,448.6094 L1058,438.6094 L781,438.6094 " fill="#F5F5F5" style="stroke:#181818;stroke-width:0.5;"/><path d="M1058,438.6094 L1058,448.6094 L1068,448.6094 L1058,438.6094 " fill="#F5F5F5" style="stroke:#181818;stroke-width:0.5;"/><text fill="#000000" font-family="sans-serif" font-size="13" font-weight="bold" lengthAdjust="spacing" textLength="105" x="787" y="457.1045">Sistema Muestra</text><ellipse cx="792.5" cy="468.8125" fill="#000000" rx="2.5" ry="2.5" style="stroke:#000000;stroke-width:0.0;"/><text fill="#000000" font-family="sans-serif" font-size="13" lengthAdjust="spacing" textLength="253" x="800" y="473.4561">Mensaje de Error: Estudiante no Registrado</text></g><!--MD5=[b1f22f0c97e7f2b556a5a2d67c42ac53]
link 3 to 4--><g id="link_3_4"><path d="M589.29,462.9194 C555.64,471.8494 436,503.6094 436,503.6094 C436,503.6094 428.44,531.1994 422.62,552.4594 " fill="none" id="3-to-4" style="stroke:#008000;stroke-width:1.0;"/><polygon fill="#008000" points="421.25,557.4294,427.479,549.8005,422.5668,552.6059,419.7614,547.6937,421.25,557.4294" style="stroke:#008000;stroke-width:1.0;"/><path d="M441,508.6094 L441,534.6094 L590,534.6094 L590,518.6094 L580,508.6094 L441,508.6094 " fill="#F5F5F5" style="stroke:#181818;stroke-width:0.5;"/><path d="M580,508.6094 L580,518.6094 L590,518.6094 L580,508.6094 " fill="#F5F5F5" style="stroke:#181818;stroke-width:0.5;"/><text fill="#000000" font-family="sans-serif" font-size="13" lengthAdjust="spacing" textLength="128" x="447" y="527.1045">Estudiante Registrado</text></g><!--MD5=[f13c3ab577a688343a149026a232f91b]
link 4 to 6--><g id="link_4_6"><path d="M416,597.9294 C416,643.9894 416,760.2394 416,811.1194 " fill="none" id="4-to-6" style="stroke:#008000;stroke-width:1.0;"/><polygon fill="#008000" points="416,816.4194,420,807.4194,416,811.4194,412,807.4194,416,816.4194" style="stroke:#008000;stroke-width:1.0;"/><path d="M421,620.6094 L421,793.6094 L692,793.6094 L692,630.6094 L682,620.6094 L421,620.6094 " fill="#F5F5F5" style="stroke:#181818;stroke-width:0.5;"/><path d="M682,620.6094 L682,630.6094 L692,630.6094 L682,620.6094 " fill="#F5F5F5" style="stroke:#181818;stroke-width:0.5;"/><text fill="#000000" font-family="sans-serif" font-size="13" font-weight="bold" lengthAdjust="spacing" textLength="105" x="427" y="639.1045">Sistema Muestra</text><ellipse cx="432.5" cy="650.8125" fill="#000000" rx="2.5" ry="2.5" style="stroke:#000000;stroke-width:0.0;"/><text fill="#000000" font-family="sans-serif" font-size="13" lengthAdjust="spacing" textLength="237" x="440" y="655.4561">Mensaje de Exito: Estudiante Registrado</text><text fill="#000000" font-family="sans-serif" font-size="13" font-weight="bold" lengthAdjust="spacing" textLength="103" x="427" y="671.8076">Sistema Solicita</text><ellipse cx="432.5" cy="683.5156" fill="#000000" rx="2.5" ry="2.5" style="stroke:#000000;stroke-width:0.0;"/><text fill="#000000" font-family="sans-serif" font-size="13" lengthAdjust="spacing" textLength="45" x="440" y="688.1592">Nombre</text><ellipse cx="432.5" cy="699.8672" fill="#000000" rx="2.5" ry="2.5" style="stroke:#000000;stroke-width:0.0;"/><text fill="#000000" font-family="sans-serif" font-size="13" lengthAdjust="spacing" textLength="46" x="440" y="704.5107">Apellido</text><ellipse cx="432.5" cy="716.2188" fill="#000000" rx="2.5" ry="2.5" style="stroke:#000000;stroke-width:0.0;"/><text fill="#000000" font-family="sans-serif" font-size="13" lengthAdjust="spacing" textLength="121" x="440" y="720.8623">Fecha de nacimiento</text><ellipse cx="432.5" cy="732.5703" fill="#000000" rx="2.5" ry="2.5" style="stroke:#000000;stroke-width:0.0;"/><text fill="#000000" font-family="sans-serif" font-size="13" lengthAdjust="spacing" textLength="33" x="440" y="737.2139">Email</text><ellipse cx="432.5" cy="748.9219" fill="#000000" rx="2.5" ry="2.5" style="stroke:#000000;stroke-width:0.0;"/><text fill="#000000" font-family="sans-serif" font-size="13" lengthAdjust="spacing" textLength="66" x="440" y="753.5654">Contraseña</text><ellipse cx="432.5" cy="765.2734" fill="#000000" rx="2.5" ry="2.5" style="stroke:#000000;stroke-width:0.0;"/><text fill="#000000" font-family="sans-serif" font-size="13" lengthAdjust="spacing" textLength="57" x="440" y="769.917">Ubicación</text><ellipse cx="432.5" cy="781.625" fill="#000000" rx="2.5" ry="2.5" style="stroke:#000000;stroke-width:0.0;"/><text fill="#000000" font-family="sans-serif" font-size="13" lengthAdjust="spacing" textLength="62" x="440" y="786.2686">Ocupación</text></g><!--MD5=[2dfa168d6698efd82f568a8036f37f42]
link 6 to 7--><g id="link_6_7"><path d="M390.73,848.1094 C364.42,859.0494 327,874.6094 327,874.6094 C327,874.6094 325.65,1005.0294 325.17,1051.4494 " fill="none" id="6-to-7" style="stroke:#008000;stroke-width:1.0;"/><polygon fill="#008000" points="325.11,1056.6794,329.2126,1047.7257,325.1671,1051.6797,321.2131,1047.6343,325.11,1056.6794" style="stroke:#008000;stroke-width:1.0;"/><path d="M332,879.6094 L332,1019.6094 L487,1019.6094 L487,889.6094 L477,879.6094 L332,879.6094 " fill="#F5F5F5" style="stroke:#181818;stroke-width:0.5;"/><path d="M477,879.6094 L477,889.6094 L487,889.6094 L477,879.6094 " fill="#F5F5F5" style="stroke:#181818;stroke-width:0.5;"/><text fill="#000000" font-family="sans-serif" font-size="13" font-weight="bold" lengthAdjust="spacing" textLength="112" x="338" y="898.1045">Usuario Introduce</text><ellipse cx="343.5" cy="909.8125" fill="#000000" rx="2.5" ry="2.5" style="stroke:#000000;stroke-width:0.0;"/><text fill="#000000" font-family="sans-serif" font-size="13" lengthAdjust="spacing" textLength="45" x="351" y="914.4561">Nombre</text><ellipse cx="343.5" cy="926.1641" fill="#000000" rx="2.5" ry="2.5" style="stroke:#000000;stroke-width:0.0;"/><text fill="#000000" font-family="sans-serif" font-size="13" lengthAdjust="spacing" textLength="46" x="351" y="930.8076">Apellido</text><ellipse cx="343.5" cy="942.5156" fill="#000000" rx="2.5" ry="2.5" style="stroke:#000000;stroke-width:0.0;"/><text fill="#000000" font-family="sans-serif" font-size="13" lengthAdjust="spacing" textLength="121" x="351" y="947.1592">Fecha de nacimiento</text><ellipse cx="343.5" cy="958.8672" fill="#000000" rx="2.5" ry="2.5" style="stroke:#000000;stroke-width:0.0;"/><text fill="#000000" font-family="sans-serif" font-size="13" lengthAdjust="spacing" textLength="33" x="351" y="963.5107">Email</text><ellipse cx="343.5" cy="975.2188" fill="#000000" rx="2.5" ry="2.5" style="stroke:#000000;stroke-width:0.0;"/><text fill="#000000" font-family="sans-serif" font-size="13" lengthAdjust="spacing" textLength="66" x="351" y="979.8623">Contraseña</text><ellipse cx="343.5" cy="991.5703" fill="#000000" rx="2.5" ry="2.5" style="stroke:#000000;stroke-width:0.0;"/><text fill="#000000" font-family="sans-serif" font-size="13" lengthAdjust="spacing" textLength="57" x="351" y="996.2139">Ubicación</text><ellipse cx="343.5" cy="1007.9219" fill="#000000" rx="2.5" ry="2.5" style="stroke:#000000;stroke-width:0.0;"/><text fill="#000000" font-family="sans-serif" font-size="13" lengthAdjust="spacing" textLength="62" x="351" y="1012.5654">Ocupación</text></g><!--MD5=[09e96f217a855a8e3d35b283e8945458]
link 7 to *end*RegistroEnPlataforma--><g id="link_7_*end*RegistroEnPlataforma"><path d="M315.47,1071.0894 C266.76,1078.6494 48,1112.6094 48,1112.6094 C48,1112.6094 36.71,1162.8394 31.1,1187.8294 " fill="none" id="7-to-*end*RegistroEnPlataforma" style="stroke:#008000;stroke-width:1.0;"/><polygon fill="#008000" points="29.99,1192.7494,35.8741,1184.8514,31.0913,1187.8722,28.0706,1183.0894,29.99,1192.7494" style="stroke:#008000;stroke-width:1.0;"/><path d="M53,1117.6094 L53,1159.6094 L317,1159.6094 L317,1127.6094 L307,1117.6094 L53,1117.6094 " fill="#F5F5F5" style="stroke:#181818;stroke-width:0.5;"/><path d="M307,1117.6094 L307,1127.6094 L317,1127.6094 L307,1117.6094 " fill="#F5F5F5" style="stroke:#181818;stroke-width:0.5;"/><text fill="#000000" font-family="sans-serif" font-size="13" font-weight="bold" lengthAdjust="spacing" textLength="105" x="59" y="1136.1045">Sistema Muestra</text><ellipse cx="64.5" cy="1147.8125" fill="#000000" rx="2.5" ry="2.5" style="stroke:#000000;stroke-width:0.0;"/><text fill="#000000" font-family="sans-serif" font-size="13" lengthAdjust="spacing" textLength="230" x="72" y="1152.4561">Mensaje de Exito: Egresado Registrado</text></g><!--MD5=[5ca979b543d038a4b12f05f8f6f2c83d]
link 7 to 8--><g id="link_7_8"><path d="M325.11,1080.5094 C325.38,1105.4594 326,1164.6094 326,1164.6094 C326,1164.6094 359.17,1178.3994 385,1189.1394 " fill="none" id="7-to-8" style="stroke:#FF0000;stroke-width:1.0;"/><polygon fill="#FF0000" points="389.73,1191.1094,382.9498,1183.966,385.1117,1189.1934,379.8842,1191.3553,389.73,1191.1094" style="stroke:#FF0000;stroke-width:1.0;"/><path d="M331,1125.6094 L331,1151.6094 L487,1151.6094 L487,1135.6094 L477,1125.6094 L331,1125.6094 " fill="#F5F5F5" style="stroke:#181818;stroke-width:0.5;"/><path d="M477,1125.6094 L477,1135.6094 L487,1135.6094 L477,1125.6094 " fill="#F5F5F5" style="stroke:#181818;stroke-width:0.5;"/><text fill="#000000" font-family="sans-serif" font-size="13" lengthAdjust="spacing" textLength="135" x="337" y="1144.1045">Error al introducir datos</text></g><!--MD5=[dfd4d3abcbc1ea6e869654a29eca52f3]
link 8 to 6--><g id="link_8_6"><path d="M440.21,1189.4894 C462.67,1178.6994 492,1164.6094 492,1164.6094 C492,1164.6094 492,874.6094 492,874.6094 C492,874.6094 467.29,862.5794 446.05,852.2394 " fill="none" id="8-to-6" style="stroke:#FF0000;stroke-width:1.0;"/><polygon fill="#FF0000" points="441.31,849.9294,447.6485,857.4675,445.8048,852.1195,451.1528,850.2758,441.31,849.9294" style="stroke:#FF0000;stroke-width:1.0;"/><path d="M497,1047.6094 L497,1089.6094 L773,1089.6094 L773,1057.6094 L763,1047.6094 L497,1047.6094 " fill="#F5F5F5" style="stroke:#181818;stroke-width:0.5;"/><path d="M763,1047.6094 L763,1057.6094 L773,1057.6094 L763,1047.6094 " fill="#F5F5F5" style="stroke:#181818;stroke-width:0.5;"/><text fill="#000000" font-family="sans-serif" font-size="13" font-weight="bold" lengthAdjust="spacing" textLength="105" x="503" y="1066.1045">Sistema Muestra</text><ellipse cx="508.5" cy="1077.8125" fill="#000000" rx="2.5" ry="2.5" style="stroke:#000000;stroke-width:0.0;"/><text fill="#000000" font-family="sans-serif" font-size="13" lengthAdjust="spacing" textLength="242" x="516" y="1082.4561">Mensaje de Error: Error al introducir datos</text></g><!--MD5=[210252b9fa80965f133209cc2e7c058f]
link startState to RegistroEnPlataforma--><g id="link_startState_RegistroEnPlataforma"><path d="M542,47.24 C542,68.68 542,106.59 542,153.7 " fill="none" id="startState-to-RegistroEnPlataforma" style="stroke:#008000;stroke-width:1.0;"/><polygon fill="#008000" points="542,158.88,546,149.88,542,153.88,538,149.88,542,158.88" style="stroke:#008000;stroke-width:1.0;"/><path d="M547,82 L547,124 L728,124 L728,92 L718,82 L547,82 " fill="#F5F5F5" style="stroke:#181818;stroke-width:0.5;"/><path d="M718,82 L718,92 L728,92 L718,82 " fill="#F5F5F5" style="stroke:#181818;stroke-width:0.5;"/><text fill="#000000" font-family="sans-serif" font-size="13" font-weight="bold" lengthAdjust="spacing" textLength="160" x="553" y="100.4951">Ajeno al Sistema Solicita</text><ellipse cx="558.5" cy="112.2031" fill="#000000" rx="2.5" ry="2.5" style="stroke:#000000;stroke-width:0.0;"/><text fill="#000000" font-family="sans-serif" font-size="13" lengthAdjust="spacing" textLength="132" x="566" y="116.8467">Registro en Plataforma</text></g><!--MD5=[b642c1d161fa64eaa5e003bfe160ee67]
@startuml

skinparam {
    NoteBackgroundColor #whiteSmoke
    ArrowColor #green
    NoteBorderColor #green
    linetype polyline
}

hide empty description

state startState as "INITIAL"

startState - -> RegistroEnPlataforma
note on link
    <b>Ajeno al Sistema Solicita</b>
    * Registro en Plataforma
end note

state RegistroEnPlataforma {
  state 2 as " "
  state 3 <<choice>>
  state 4 as " "
  state 5 as " "
  state 6 as " "
  state 7 <<choice>>
  state 8 as " "


  [*] - -> 2
  note on link
    <b>Sistema Solicita</b>
    * Carnet de Estudiante
  end note

  2 - -> 3
  note on link
    <b>Usuario Introduce</b>
    * Carnet de Estudiante
  end note

  3 -[#red]-> 5
  note on link
    Estudiante no Registrado
  end note

  5 -[#red]-> 2
  note on link
    <b>Sistema Muestra</b>
    * Mensaje de Error: Estudiante no Registrado
  end note

  3 - -> 4
  note on link
    Estudiante Registrado
  end note

  4 - -> 6
  note on link
    <b>Sistema Muestra</b>
    * Mensaje de Exito: Estudiante Registrado
    <b>Sistema Solicita</b>
    * Nombre
    * Apellido
    * Fecha de nacimiento
    * Email
    * Contraseña
    * Ubicación
    * Ocupación
  end note

  6 - -> 7
  note on link
    <b>Usuario Introduce</b>
    * Nombre
    * Apellido
    * Fecha de nacimiento
    * Email
    * Contraseña
    * Ubicación
    * Ocupación
  end note

  7 - -> [*]
  note on link
    <b>Sistema Muestra</b>
    * Mensaje de Exito: Egresado Registrado
  end note

  7 -[#red]-> 8
  note on link
    Error al introducir datos
  end note

  8 -[#red]-> 6
  note on link
    <b>Sistema Muestra</b>
    * Mensaje de Error: Error al introducir datos
  end note

}

@enduml

PlantUML version 1.2022.7(Mon Aug 22 19:01:30 CEST 2022)
(GPL source distribution)
Java Runtime: Java(TM) SE Runtime Environment
JVM: Java HotSpot(TM) Client VM
Default Encoding: Cp1252
Language: es
Country: ES
--></g></svg>