<?xml version="1.0" encoding="UTF-8" standalone="no"?><svg xmlns="http://www.w3.org/2000/svg" xmlns:xlink="http://www.w3.org/1999/xlink" contentStyleType="text/css" height="391px" preserveAspectRatio="none" style="width:527px;height:391px;background:#FFFFFF;" version="1.1" viewBox="0 0 527 391" width="527px" zoomAndPan="magnify"><defs/><g><!--MD5=[5d7a49de7400b78e9c30b55eaffa5bac]
cluster NoRegistrado--><g id="cluster_NoRegistrado"><path d="M62.5,7 L295.5,7 A12.5,12.5 0 0 1 308,19.5 L308,33.0986 L50,33.0986 L50,19.5 A12.5,12.5 0 0 1 62.5,7 " fill="#F1F1F1" style="stroke:#F1F1F1;stroke-width:1.0;"/><rect fill="none" height="316.86" rx="12.5" ry="12.5" style="stroke:#181818;stroke-width:0.5;" width="258" x="50" y="7"/><line style="stroke:#181818;stroke-width:0.5;" x1="50" x2="308" y1="33.0986" y2="33.0986"/><text fill="#000000" font-family="Arial" font-size="14" lengthAdjust="spacing" textLength="86" x="136" y="24.3608">NoRegistrado</text></g><g id="elem_Procesando"><polygon fill="#F1F1F1" points="109,146,121,158,109,170,97,158,109,146" style="stroke:#181818;stroke-width:0.5;"/></g><ellipse cx="109" cy="60" fill="#222222" rx="10" ry="10" style="stroke:none;stroke-width:1.0;"/><ellipse cx="16" cy="158" fill="#222222" rx="10" ry="10" style="stroke:none;stroke-width:1.0;"/><path d="M345,246 L491,246 A12.5,12.5 0 0 1 503.5,258.5 L503.5,272.0986 L332.5,272.0986 L332.5,258.5 A12.5,12.5 0 0 1 345,246 " fill="#F1F1F1" style="stroke:#F1F1F1;stroke-width:1.0;"/><rect fill="none" height="139.0986" rx="12.5" ry="12.5" style="stroke:#181818;stroke-width:0.5;" width="171" x="332.5" y="246"/><line style="stroke:#181818;stroke-width:0.5;" x1="332.5" x2="503.5" y1="272.0986" y2="272.0986"/><text fill="#000000" font-family="Arial" font-size="14" lengthAdjust="spacing" textLength="69" x="383.5" y="264.3608">Registrado</text><ellipse cx="357.5" cy="293.0986" fill="#222222" rx="10" ry="10" style="stroke:none;stroke-width:1.0;"/><ellipse cx="357.5" cy="365.0986" fill="none" rx="10" ry="10" style="stroke:#222222;stroke-width:1.0;"/><ellipse cx="358" cy="365.5986" fill="#222222" rx="6" ry="6" style="stroke:none;stroke-width:1.0;"/><!--MD5=[ad3cceb456a9ea365bd8c9aad0dd0067]
link *start*Registrado to *end*Registrado--><g id="link_*start*Registrado_*end*Registrado"><path d="M357.5,303.2486 C357.5,315.0286 357.5,335.6286 357.5,349.5586 " fill="none" id="*start*Registrado-to-*end*Registrado" style="stroke:#181818;stroke-width:1.0;"/><polygon fill="#181818" points="357.5,354.7186,361.5,345.7186,357.5,349.7186,353.5,345.7186,357.5,354.7186" style="stroke:#181818;stroke-width:1.0;"/><text fill="#000000" font-family="Arial" font-size="13" lengthAdjust="spacing" textLength="135" x="358.5" y="334.5051">Mostrar página de login</text></g><!--MD5=[de2579933e3220898d9204de0950a77b]
link *start to NoRegistrado--><g id="link_*start_NoRegistrado"><path d="M19.6,167.36 C23.025,175.3075 28.6037,188.2544 35.0687,203.2588 C38.3012,210.7609 41.7553,218.7775 45.2725,226.9407 C46.1518,228.9815 47.035,231.0315 47.9198,233.0849 C48.3621,234.1115 48.8048,235.1391 49.2476,236.1668 C49.469,236.6806 49.6904,237.1945 49.9118,237.7083 " fill="none" id="*start-to-NoRegistrado" style="stroke:#181818;stroke-width:1.0;"/><polygon fill="#181818" points="49.9118,237.7083,50.0241,227.8601,47.9333,233.1164,42.6771,231.0256,49.9118,237.7083" style="stroke:#181818;stroke-width:1.0;"/><text fill="#000000" font-family="Arial" font-size="13" lengthAdjust="spacing" textLength="30" x="40" y="213.4065">Inicio</text></g><!--MD5=[14b2b94f2e9f3530297e91f0f9277ab3]
link *start*NoRegistrado to Procesando--><g id="link_*start*NoRegistrado_Procesando"><path d="M109,70.2 C109,86.49 109,120.57 109,140.84 " fill="none" id="*start*NoRegistrado-to-Procesando" style="stroke:#181818;stroke-width:1.0;"/><polygon fill="#181818" points="109,145.92,113,136.92,109,140.92,105,136.92,109,145.92" style="stroke:#181818;stroke-width:1.0;"/><text fill="#000000" font-family="Arial" font-size="13" lengthAdjust="spacing" textLength="173" x="110" y="113.4065">Egresado introduce sus datos</text></g><!--MD5=[51dcf1f65c123ecdcfb672fdaff6b55d]
link Procesando to Registrado--><g id="link_Procesando_Registrado"><path d="M120.65,158.8 C153.62,158.72 249.53,162 316,200 C334.54,210.6 351.47,225.79 365.99,241.66 " fill="none" id="Procesando-to-Registrado" style="stroke:#181818;stroke-width:1.0;"/><polygon fill="#181818" points="369.62,245.71,366.5725,236.3445,366.2752,241.9935,360.6261,241.6962,369.62,245.71" style="stroke:#181818;stroke-width:1.0;"/><text fill="#000000" font-family="Arial" font-size="13" lengthAdjust="spacing" textLength="182" x="337" y="213.4065">Encontrado en BD Uneatlantico</text></g><!--MD5=[64f3bbd0d80ca892979c386a8f0e6825]
link Procesando to NoRegistrado--><g id="link_Procesando_NoRegistrado"><path d="M107.37,168.73 C101.77,202.24 83.58,311.03 83.01,314.42 " fill="none" id="Procesando-to-NoRegistrado" style="stroke:#181818;stroke-width:1.0;"/><polygon fill="#181818" points="83.01,314.42,88.447,306.2078,83.8391,309.4892,80.5577,304.8813,83.01,314.42" style="stroke:#181818;stroke-width:1.0;"/><text fill="#000000" font-family="Arial" font-size="13" lengthAdjust="spacing" textLength="141" x="103" y="213.4065">Egresado no encontrado</text></g><!--MD5=[089855541306cf32fc841ae0cfde94bb]
@startuml
skinparam defaultFontName Arial
top to bottom direction

[*] - -> NoRegistrado : Inicio

state NoRegistrado {
  state Procesando <<choice>>
  [*] - -> Procesando : Egresado introduce sus datos
  Procesando - -> Registrado : Encontrado en BD Uneatlantico
  Procesando - -> NoRegistrado : Egresado no encontrado
}

state Registrado {
  [*] - -> [*] : Mostrar página de login
}
@enduml

PlantUML version 1.2022.7(Mon Aug 22 19:01:30 CEST 2022)
(GPL source distribution)
Java Runtime: Java(TM) SE Runtime Environment
JVM: Java HotSpot(TM) Client VM
Default Encoding: Cp1252
Language: es
Country: ES
--></g></svg>