<?xml version="1.0" encoding="UTF-8" standalone="no"?><svg xmlns="http://www.w3.org/2000/svg" xmlns:xlink="http://www.w3.org/1999/xlink" contentStyleType="text/css" height="387px" preserveAspectRatio="none" style="width:734px;height:387px;background:#FFFFFF;" version="1.1" viewBox="0 0 734 387" width="734px" zoomAndPan="magnify"><defs/><g><rect fill="none" height="27.6094" id="_title" style="stroke:none;stroke-width:1.0;" width="176" x="272" y="5"/><text fill="#000000" font-family="sans-serif" font-size="14" font-weight="bold" lengthAdjust="spacing" textLength="166" x="277" y="24.5332">Contexto Administrador</text><ellipse cx="64.5" cy="54.6094" fill="#222222" rx="10" ry="10" style="stroke:none;stroke-width:1.0;"/><rect fill="#F1F1F1" height="40" rx="12.5" ry="12.5" style="stroke:#181818;stroke-width:0.5;" width="115" x="7" y="125.6094"/><text fill="#000000" font-family="sans-serif" font-size="14" lengthAdjust="spacing" textLength="105" x="12" y="151.3379">INICIAR_SESIÓN</text><rect fill="#F1F1F1" height="40" rx="12.5" ry="12.5" style="stroke:#181818;stroke-width:0.5;" width="50" x="39.5" y="243.6094"/><text fill="#000000" font-family="sans-serif" font-size="14" lengthAdjust="spacing" textLength="39" x="45" y="269.3379">INICIO</text><rect fill="#F1F1F1" height="40" rx="12.5" ry="12.5" style="stroke:#181818;stroke-width:0.5;" width="165" x="125" y="243.6094"/><text fill="#000000" font-family="sans-serif" font-size="14" lengthAdjust="spacing" textLength="155" x="130" y="269.3379">EXPLORAR_SERVICIOS</text><rect fill="#F1F1F1" height="40" rx="12.5" ry="12.5" style="stroke:#181818;stroke-width:0.5;" width="221" x="507" y="243.6094"/><text fill="#000000" font-family="sans-serif" font-size="14" lengthAdjust="spacing" textLength="211" x="512" y="269.3379">LISTAR_SERVICIOS_PAQUETES</text><rect fill="#F1F1F1" height="40" rx="12.5" ry="12.5" style="stroke:#181818;stroke-width:0.5;" width="147" x="325" y="243.6094"/><text fill="#000000" font-family="sans-serif" font-size="14" lengthAdjust="spacing" textLength="137" x="330" y="269.3379">REALIZAR_PETICIÓN</text><ellipse cx="135.5" cy="371.6094" fill="none" rx="10" ry="10" style="stroke:#222222;stroke-width:1.0;"/><ellipse cx="136" cy="372.1094" fill="#222222" rx="6" ry="6" style="stroke:none;stroke-width:1.0;"/><!--MD5=[fffa5c9a6c2a3d9bbcf62492fefaaec1]
link *start to INICIAR_SESIÓN--><g id="link_*start_INICIAR_SESIÓN"><path d="M64.5,64.7994 C64.5,77.7894 64.5,101.9894 64.5,120.3394 " fill="none" id="*start-to-INICIAR_SESIÓN" style="stroke:#181818;stroke-width:1.0;"/><polygon fill="#181818" points="64.5,125.3494,68.5,116.3494,64.5,120.3494,60.5,116.3494,64.5,125.3494" style="stroke:#181818;stroke-width:1.0;"/></g><!--MD5=[66837f7cee128dc6ca7363ed13e0752f]
link INICIAR_SESIÓN to INICIO--><g id="link_INICIAR_SESIÓN_INICIO"><path d="M64.5,165.7694 C64.5,185.5794 64.5,216.5894 64.5,238.1594 " fill="none" id="INICIAR_SESIÓN-to-INICIO" style="stroke:#181818;stroke-width:1.0;"/><polygon fill="#181818" points="64.5,243.4294,68.5,234.4294,64.5,238.4294,60.5,234.4294,64.5,243.4294" style="stroke:#181818;stroke-width:1.0;"/><text fill="#000000" font-family="sans-serif" font-size="13" lengthAdjust="spacing" textLength="78" x="65.5" y="210.1045">Iniciar Sesión</text></g><!--MD5=[cca3090e76786349203404ad2fa77f79]
link INICIO to EXPLORAR_SERVICIOS--><g id="link_INICIO_EXPLORAR_SERVICIOS"><path d="M89.73,274.1994 C101.16,278.9894 112.17,283.6094 112.17,283.6094 C112.17,283.6094 115.07,283.6094 119.44,283.6094 " fill="none" id="INICIO-to-EXPLORAR_SERVICIOS" style="stroke:#181818;stroke-width:1.0;"/><polygon fill="#181818" points="124.69,283.6094,115.69,279.6094,119.69,283.6094,115.69,287.6094,124.69,283.6094" style="stroke:#181818;stroke-width:1.0;"/></g><!--MD5=[847b408c021b00de83bcc586619bdd73]
reverse link INICIO to EXPLORAR_SERVICIOS--><g id="link_INICIO_EXPLORAR_SERVICIOS"><path d="M94.5,251.0194 C104.04,247.0194 112.17,243.6094 112.17,243.6094 C112.17,243.6094 117.55,243.6094 124.69,243.6094 " fill="none" id="INICIO-backto-EXPLORAR_SERVICIOS" style="stroke:#181818;stroke-width:1.0;"/><polygon fill="#181818" points="89.73,253.0194,99.5772,253.2025,94.336,251.074,96.4645,245.8328,89.73,253.0194" style="stroke:#181818;stroke-width:1.0;"/></g><!--MD5=[587b4a2cc691686f37c51a60e6e06e4b]
link EXPLORAR_SERVICIOS to LISTAR_SERVICIOS_PAQUETES--><g id="link_EXPLORAR_SERVICIOS_LISTAR_SERVICIOS_PAQUETES"><path d="M256.15,243.5694 C286.25,231.1694 319.17,217.6094 319.17,217.6094 C319.17,217.6094 477.83,217.6094 477.83,217.6094 C477.83,217.6094 515.55,230.0294 551.78,241.9594 " fill="none" id="EXPLORAR_SERVICIOS-to-LISTAR_SERVICIOS_PAQUETES" style="stroke:#181818;stroke-width:1.0;"/><polygon fill="#181818" points="556.65,243.5694,549.3409,236.9681,551.8981,242.0139,546.8522,244.5711,556.65,243.5694" style="stroke:#181818;stroke-width:1.0;"/></g><!--MD5=[6f9c0a608dd1f796110e1368c11b6afe]
reverse link EXPLORAR_SERVICIOS to LISTAR_SERVICIOS_PAQUETES--><g id="link_EXPLORAR_SERVICIOS_LISTAR_SERVICIOS_PAQUETES"><path d="M246.2,241.0194 C282.37,219.8994 330.83,191.6094 330.83,191.6094 C330.83,191.6094 466.17,191.6094 466.17,191.6094 C466.17,191.6094 530.57,222.2494 575.35,243.5494 " fill="none" id="EXPLORAR_SERVICIOS-backto-LISTAR_SERVICIOS_PAQUETES" style="stroke:#181818;stroke-width:1.0;"/><polygon fill="#181818" points="241.86,243.5494,251.6473,242.4495,246.1737,241.0211,247.6021,235.5476,241.86,243.5494" style="stroke:#181818;stroke-width:1.0;"/></g><!--MD5=[9cb8868040ab7e957bb84216f43e437d]
link EXPLORAR_SERVICIOS to REALIZAR_PETICIÓN--><g id="link_EXPLORAR_SERVICIOS_REALIZAR_PETICIÓN"><path d="M290.27,283.6094 C299.73,283.6094 310.99,283.6094 319.83,283.6094 " fill="none" id="EXPLORAR_SERVICIOS-to-REALIZAR_PETICIÓN" style="stroke:#181818;stroke-width:1.0;"/><polygon fill="#181818" points="324.98,283.6094,315.98,279.6094,319.98,283.6094,315.98,287.6094,324.98,283.6094" style="stroke:#181818;stroke-width:1.0;"/></g><!--MD5=[df043e65a6229f605f9b1f7c59e93a2b]
reverse link EXPLORAR_SERVICIOS to REALIZAR_PETICIÓN--><g id="link_EXPLORAR_SERVICIOS_REALIZAR_PETICIÓN"><path d="M295.51,243.6094 C305.76,243.6094 317.12,243.6094 324.98,243.6094 " fill="none" id="EXPLORAR_SERVICIOS-backto-REALIZAR_PETICIÓN" style="stroke:#181818;stroke-width:1.0;"/><polygon fill="#181818" points="290.27,243.6094,299.27,247.6094,295.27,243.6094,299.27,239.6094,290.27,243.6094" style="stroke:#181818;stroke-width:1.0;"/></g><!--MD5=[0876ba8a88d8bbcf732e506fae106d5c]
link INICIO to *end--><g id="link_INICIO_*end"><path d="M68.19,283.6294 C72.03,303.4394 77.5,331.6094 77.5,331.6094 C77.5,331.6094 105.91,350.7094 122.96,362.1794 " fill="none" id="INICIO-to-*end" style="stroke:#181818;stroke-width:1.0;"/><polygon fill="#181818" points="127.44,365.1894,122.1901,356.8564,123.2863,362.406,117.7367,363.5022,127.44,365.1894" style="stroke:#181818;stroke-width:1.0;"/><text fill="#000000" font-family="sans-serif" font-size="13" lengthAdjust="spacing" textLength="79" x="78.5" y="328.1045">Cerrar Sesión</text></g><!--MD5=[c6e8d97373a6e0272a3c575f2d7d2fa1]
link EXPLORAR_SERVICIOS to *end--><g id="link_EXPLORAR_SERVICIOS_*end"><path d="M194.73,283.6294 C181.42,303.4394 162.5,331.6094 162.5,331.6094 C162.5,331.6094 151.86,346.9694 143.94,358.4094 " fill="none" id="EXPLORAR_SERVICIOS-to-*end" style="stroke:#181818;stroke-width:1.0;"/><polygon fill="#181818" points="140.96,362.7194,149.367,357.5889,143.8023,358.6058,142.7854,353.0412,140.96,362.7194" style="stroke:#181818;stroke-width:1.0;"/><text fill="#000000" font-family="sans-serif" font-size="13" lengthAdjust="spacing" textLength="79" x="176.5" y="328.1045">Cerrar Sesión</text></g><!--MD5=[686b882b543e6a82ded90910d2bf20d3]
@startuml Contexto
title Contexto Administrador

skinparam {
    NoteBackgroundColor #whiteSmoke
    NoteBorderColor #green
    linetype polyline
}

hide empty description

[*] - -> INICIAR_SESIÓN
INICIAR_SESIÓN - -> INICIO : Iniciar Sesión

INICIO -> EXPLORAR_SERVICIOS
INICIO <- EXPLORAR_SERVICIOS

EXPLORAR_SERVICIOS -> LISTAR_SERVICIOS_PAQUETES
EXPLORAR_SERVICIOS <- LISTAR_SERVICIOS_PAQUETES
EXPLORAR_SERVICIOS -> REALIZAR_PETICIÓN
EXPLORAR_SERVICIOS <- REALIZAR_PETICIÓN

INICIO - -> [*] : Cerrar Sesión
EXPLORAR_SERVICIOS - -> [*] : Cerrar Sesión

@enduml

PlantUML version 1.2022.7(Mon Aug 22 19:01:30 CEST 2022)
(GPL source distribution)
Java Runtime: OpenJDK Runtime Environment
JVM: OpenJDK 64-Bit Server VM
Default Encoding: Cp1252
Language: es
Country: ES
--></g></svg>