<?xml version="1.0" encoding="UTF-8" standalone="no"?><svg xmlns="http://www.w3.org/2000/svg" xmlns:xlink="http://www.w3.org/1999/xlink" contentStyleType="text/css" height="775px" preserveAspectRatio="none" style="width:486px;height:775px;background:#FFFFFF;" version="1.1" viewBox="0 0 486 775" width="486px" zoomAndPan="magnify"><defs/><g><rect fill="none" height="27.6094" id="_title" style="stroke:none;stroke-width:1.0;" width="127" x="169.5" y="5"/><text fill="#000000" font-family="sans-serif" font-size="14" font-weight="bold" lengthAdjust="spacing" textLength="117" x="174.5" y="24.5332">Realizar Petición</text><rect fill="#F1F1F1" height="40" rx="12.5" ry="12.5" style="stroke:#181818;stroke-width:0.5;" width="54" x="213" y="45.6094"/><text fill="#000000" font-family="sans-serif" font-size="14" lengthAdjust="spacing" textLength="44" x="218" y="71.3379">INITIAL</text><path d="M19.5,197.6094 L460.5,197.6094 A12.5,12.5 0 0 1 473,210.1094 L473,225.2188 L7,225.2188 L7,210.1094 A12.5,12.5 0 0 1 19.5,197.6094 " fill="#F1F1F1" style="stroke:#F1F1F1;stroke-width:1.0;"/><rect fill="none" height="571.6094" rx="12.5" ry="12.5" style="stroke:#181818;stroke-width:0.5;" width="466" x="7" y="197.6094"/><line style="stroke:#181818;stroke-width:0.5;" x1="7" x2="473" y1="225.2188" y2="225.2188"/><text fill="#000000" font-family="sans-serif" font-size="14" lengthAdjust="spacing" textLength="101" x="189.5" y="217.1426">RealizarPetición</text><rect fill="#F1F1F1" height="40" rx="12.5" ry="12.5" style="stroke:#181818;stroke-width:0.5;" width="50" x="136" y="293.2188"/><text fill="#000000" font-family="sans-serif" font-size="14" lengthAdjust="spacing" textLength="4" x="159" y="318.9473"> </text><rect fill="#F1F1F1" height="40" rx="12.5" ry="12.5" style="stroke:#181818;stroke-width:0.5;" width="50" x="19" y="476.2188"/><text fill="#000000" font-family="sans-serif" font-size="14" lengthAdjust="spacing" textLength="4" x="42" y="501.9473"> </text><g id="elem_4"><polygon fill="#F1F1F1" points="170,627.2188,182,639.2188,170,651.2188,158,639.2188,170,627.2188" style="stroke:#181818;stroke-width:0.5;"/></g><ellipse cx="161" cy="246.2188" fill="#222222" rx="10" ry="10" style="stroke:none;stroke-width:1.0;"/><ellipse cx="170" cy="749.2188" fill="none" rx="10" ry="10" style="stroke:#222222;stroke-width:1.0;"/><ellipse cx="170.5" cy="749.7188" fill="#222222" rx="6" ry="6" style="stroke:none;stroke-width:1.0;"/><!--MD5=[6040a62b47c2a60d1fda8c3c82f9a6b5]
link *start*RealizarPetición to 2--><g id="link_*start*RealizarPetición_2"><path d="M161,256.2588 C161,264.4088 161,276.7788 161,287.8188 " fill="none" id="*start*RealizarPetición-to-2" style="stroke:#008000;stroke-width:1.0;"/><polygon fill="#008000" points="161,293.1088,165,284.1088,161,288.1088,157,284.1088,161,293.1088" style="stroke:#008000;stroke-width:1.0;"/></g><!--MD5=[eeb69082328d10abd3b14fdeede0d8a3]
link 2 to 3--><g id="link_2_3"><path d="M135.7,321.7088 C99.18,332.5188 36,351.2188 36,351.2188 C36,351.2188 36,452.2188 36,452.2188 C36,452.2188 37.66,461.1488 39.47,470.8688 " fill="none" id="2-to-3" style="stroke:#008000;stroke-width:1.0;"/><polygon fill="#008000" points="40.42,475.9788,42.7063,466.3989,39.5055,471.0631,34.8413,467.8622,40.42,475.9788" style="stroke:#008000;stroke-width:1.0;"/><path d="M41,356.2188 L41,447.2188 L269,447.2188 L269,366.2188 L259,356.2188 L41,356.2188 " fill="#F5F5F5" style="stroke:#181818;stroke-width:0.5;"/><path d="M259,356.2188 L259,366.2188 L269,366.2188 L259,356.2188 " fill="#F5F5F5" style="stroke:#181818;stroke-width:0.5;"/><text fill="#000000" font-family="sans-serif" font-size="13" font-weight="bold" lengthAdjust="spacing" textLength="103" x="47" y="374.7139">Sistema Solicita</text><ellipse cx="52.5" cy="386.4219" fill="#000000" rx="2.5" ry="2.5" style="stroke:#000000;stroke-width:0.0;"/><text fill="#000000" font-family="sans-serif" font-size="13" lengthAdjust="spacing" textLength="160" x="60" y="391.0654">Identificar el tipo de Usuario</text><ellipse cx="52.5" cy="402.7734" fill="#000000" rx="2.5" ry="2.5" style="stroke:#000000;stroke-width:0.0;"/><text fill="#000000" font-family="sans-serif" font-size="13" lengthAdjust="spacing" textLength="117" x="60" y="407.417">Datos de la Petición</text><text fill="#000000" font-family="sans-serif" font-size="13" font-weight="bold" lengthAdjust="spacing" textLength="105" x="47" y="423.7686">Sistema Permite</text><ellipse cx="52.5" cy="435.4766" fill="#000000" rx="2.5" ry="2.5" style="stroke:#000000;stroke-width:0.0;"/><text fill="#000000" font-family="sans-serif" font-size="13" lengthAdjust="spacing" textLength="194" x="60" y="440.1201">Interactuar con el servicio externo</text></g><!--MD5=[b1f22f0c97e7f2b556a5a2d67c42ac53]
link 3 to 4--><g id="link_3_4"><path d="M48.47,516.4688 C55.9,548.4988 70,609.2188 70,609.2188 C70,609.2188 128.58,626.2088 156.07,634.1788 " fill="none" id="3-to-4" style="stroke:#008000;stroke-width:1.0;"/><polygon fill="#008000" points="161.13,635.6488,153.5926,629.3094,156.3262,634.2619,151.3737,636.9955,161.13,635.6488" style="stroke:#008000;stroke-width:1.0;"/><path d="M75,545.2188 L75,604.2188 L269,604.2188 L269,555.2188 L259,545.2188 L75,545.2188 " fill="#F5F5F5" style="stroke:#181818;stroke-width:0.5;"/><path d="M259,545.2188 L259,555.2188 L269,555.2188 L259,545.2188 " fill="#F5F5F5" style="stroke:#181818;stroke-width:0.5;"/><text fill="#000000" font-family="sans-serif" font-size="13" font-weight="bold" lengthAdjust="spacing" textLength="112" x="81" y="563.7139">Usuario introduce</text><ellipse cx="86.5" cy="575.4219" fill="#000000" rx="2.5" ry="2.5" style="stroke:#000000;stroke-width:0.0;"/><text fill="#000000" font-family="sans-serif" font-size="13" lengthAdjust="spacing" textLength="160" x="94" y="580.0654">Identificar el tipo de Usuario</text><ellipse cx="86.5" cy="591.7734" fill="#000000" rx="2.5" ry="2.5" style="stroke:#000000;stroke-width:0.0;"/><text fill="#000000" font-family="sans-serif" font-size="13" lengthAdjust="spacing" textLength="117" x="94" y="596.417">Datos de la Petición</text></g><!--MD5=[89ed72dc9d3fbcb833dc5f2ced1418a8]
link 4 to *end*RealizarPetición--><g id="link_4_*end*RealizarPetición"><path d="M170,651.3688 C170,671.1488 170,712.3088 170,734.0587 " fill="none" id="4-to-*end*RealizarPetición" style="stroke:#008000;stroke-width:1.0;"/><polygon fill="#008000" points="170,739.1388,174,730.1388,170,734.1388,166,730.1388,170,739.1388" style="stroke:#008000;stroke-width:1.0;"/><path d="M175,674.2188 L175,716.2188 L390,716.2188 L390,684.2188 L380,674.2188 L175,674.2188 " fill="#F5F5F5" style="stroke:#181818;stroke-width:0.5;"/><path d="M380,674.2188 L380,684.2188 L390,684.2188 L380,674.2188 " fill="#F5F5F5" style="stroke:#181818;stroke-width:0.5;"/><text fill="#000000" font-family="sans-serif" font-size="13" font-weight="bold" lengthAdjust="spacing" textLength="105" x="181" y="692.7139">Sistema Muestra</text><ellipse cx="186.5" cy="704.4219" fill="#000000" rx="2.5" ry="2.5" style="stroke:#000000;stroke-width:0.0;"/><text fill="#000000" font-family="sans-serif" font-size="13" lengthAdjust="spacing" textLength="181" x="194" y="709.0654">Respuesta del Servicio Externo</text></g><!--MD5=[d5d43b3f3dfddbfb6ca65af0419a6a54]
link 4 to 2--><g id="link_4_2"><path d="M178.87,635.7488 C204.02,628.7288 274,609.2188 274,609.2188 C274,609.2188 274,351.2188 274,351.2188 C274,351.2188 224.37,334.9688 190.89,324.0088 " fill="none" id="4-to-2" style="stroke:#FF0000;stroke-width:1.0;"/><polygon fill="#FF0000" points="186.08,322.4288,193.407,329.0102,190.8361,323.9713,195.875,321.4004,186.08,322.4288" style="stroke:#FF0000;stroke-width:1.0;"/><path d="M279,475.2188 L279,517.2188 L464,517.2188 L464,485.2188 L454,475.2188 L279,475.2188 " fill="#F5F5F5" style="stroke:#181818;stroke-width:0.5;"/><path d="M454,475.2188 L454,485.2188 L464,485.2188 L454,475.2188 " fill="#F5F5F5" style="stroke:#181818;stroke-width:0.5;"/><text fill="#000000" font-family="sans-serif" font-size="13" font-weight="bold" lengthAdjust="spacing" textLength="105" x="285" y="493.7139">Sistema Muestra</text><ellipse cx="290.5" cy="505.4219" fill="#000000" rx="2.5" ry="2.5" style="stroke:#000000;stroke-width:0.0;"/><text fill="#000000" font-family="sans-serif" font-size="13" lengthAdjust="spacing" textLength="151" x="298" y="510.0654">Error al realizar la petición</text></g><!--MD5=[618b839787ccdc94877a93db5e503900]
link startState to RealizarPetición--><g id="link_startState_RealizarPetición"><path d="M240,85.8394 C240,107.9194 240,146.9794 240,192.2494 " fill="none" id="startState-to-RealizarPetición" style="stroke:#008000;stroke-width:1.0;"/><polygon fill="#008000" points="240,197.5094,244,188.5094,240,192.5094,236,188.5094,240,197.5094" style="stroke:#008000;stroke-width:1.0;"/><path d="M245,120.6094 L245,162.6094 L464,162.6094 L464,130.6094 L454,120.6094 L245,120.6094 " fill="#F5F5F5" style="stroke:#181818;stroke-width:0.5;"/><path d="M454,120.6094 L454,130.6094 L464,130.6094 L454,120.6094 " fill="#F5F5F5" style="stroke:#181818;stroke-width:0.5;"/><text fill="#000000" font-family="sans-serif" font-size="13" font-weight="bold" lengthAdjust="spacing" textLength="100" x="251" y="139.1045">Usuario Solicita</text><text fill="#000000" font-family="sans-serif" font-size="13" lengthAdjust="spacing" textLength="198" x="251" y="155.4561">Interactuar con un servicio externo</text></g><!--MD5=[f9cfcdc8bc25319b6da173812faec111]
@startuml
skinparam {
    NoteBackgroundColor #whiteSmoke
    ArrowColor #green
    NoteBorderColor #green
    linetype polyline
}

hide empty description

title Realizar Petición

state startState as "INITIAL"

startState - -> RealizarPetición
note on link
    <b>Usuario Solicita</b>
    Interactuar con un servicio externo
end note

state RealizarPetición {
state 2 as " "
state 3 as " "
state 4 <<choice>>

[*] -down-> 2

2 -down-> 3
note on link
<b>Sistema Solicita</b>
* Identificar el tipo de Usuario
* Datos de la Petición
<b>Sistema Permite</b>
* Interactuar con el servicio externo
end note

3 -down-> 4
note on link
<b>Usuario introduce</b>
* Identificar el tipo de Usuario
* Datos de la Petición
end note

4 -down-> [*]
note on link
<b>Sistema Muestra</b>
* Respuesta del Servicio Externo
end note

4 -[#red]-> 2
note on link
<b>Sistema Muestra</b>
* Error al realizar la petición
end note

}

@enduml

PlantUML version 1.2022.7(Mon Aug 22 19:01:30 CEST 2022)
(GPL source distribution)
Java Runtime: Java(TM) SE Runtime Environment
JVM: Java HotSpot(TM) 64-Bit Server VM
Default Encoding: Cp1252
Language: es
Country: ES
--></g></svg>