<?xml version="1.0" encoding="UTF-8" standalone="no"?><svg xmlns="http://www.w3.org/2000/svg" xmlns:xlink="http://www.w3.org/1999/xlink" contentStyleType="text/css" height="775px" preserveAspectRatio="none" style="width:488px;height:775px;background:#FFFFFF;" version="1.1" viewBox="0 0 488 775" width="488px" zoomAndPan="magnify"><defs/><g><rect fill="none" height="27.6094" id="_title" style="stroke:none;stroke-width:1.0;" width="127" x="170.5" y="5"/><text fill="#000000" font-family="sans-serif" font-size="14" font-weight="bold" lengthAdjust="spacing" textLength="117" x="175.5" y="24.5332">Realizar Petición</text><rect fill="#F1F1F1" height="40" rx="12.5" ry="12.5" style="stroke:#181818;stroke-width:0.5;" width="54" x="214" y="45.6094"/><text fill="#000000" font-family="sans-serif" font-size="14" lengthAdjust="spacing" textLength="44" x="219" y="71.3379">INITIAL</text><path d="M19.5,197.6094 L462.5,197.6094 A12.5,12.5 0 0 1 475,210.1094 L475,225.2188 L7,225.2188 L7,210.1094 A12.5,12.5 0 0 1 19.5,197.6094 " fill="#F1F1F1" style="stroke:#F1F1F1;stroke-width:1.0;"/><rect fill="none" height="571.6094" rx="12.5" ry="12.5" style="stroke:#181818;stroke-width:0.5;" width="468" x="7" y="197.6094"/><line style="stroke:#181818;stroke-width:0.5;" x1="7" x2="475" y1="225.2188" y2="225.2188"/><text fill="#000000" font-family="sans-serif" font-size="14" lengthAdjust="spacing" textLength="101" x="190.5" y="217.1426">RealziarPetición</text><rect fill="#F1F1F1" height="40" rx="12.5" ry="12.5" style="stroke:#181818;stroke-width:0.5;" width="50" x="138" y="293.2188"/><text fill="#000000" font-family="sans-serif" font-size="14" lengthAdjust="spacing" textLength="4" x="161" y="318.9473"> </text><rect fill="#F1F1F1" height="40" rx="12.5" ry="12.5" style="stroke:#181818;stroke-width:0.5;" width="50" x="19" y="476.2188"/><text fill="#000000" font-family="sans-serif" font-size="14" lengthAdjust="spacing" textLength="4" x="42" y="501.9473"> </text><g id="elem_4"><polygon fill="#F1F1F1" points="170,627.2188,182,639.2188,170,651.2188,158,639.2188,170,627.2188" style="stroke:#181818;stroke-width:0.5;"/></g><ellipse cx="163" cy="246.2188" fill="#222222" rx="10" ry="10" style="stroke:none;stroke-width:1.0;"/><ellipse cx="170" cy="749.2188" fill="none" rx="10" ry="10" style="stroke:#222222;stroke-width:1.0;"/><ellipse cx="170.5" cy="749.7188" fill="#222222" rx="6" ry="6" style="stroke:none;stroke-width:1.0;"/><!--MD5=[e6316bfac12efaa0dc435b2a9c4bc0f2]
link *start*RealziarPetición to 2--><g id="link_*start*RealziarPetición_2"><path d="M163,256.2588 C163,264.4088 163,276.7788 163,287.8188 " fill="none" id="*start*RealziarPetición-to-2" style="stroke:#008000;stroke-width:1.0;"/><polygon fill="#008000" points="163,293.1088,167,284.1088,163,288.1088,159,284.1088,163,293.1088" style="stroke:#008000;stroke-width:1.0;"/></g><!--MD5=[eeb69082328d10abd3b14fdeede0d8a3]
link 2 to 3--><g id="link_2_3"><path d="M137.7,321.7088 C101.18,332.5188 38,351.2188 38,351.2188 C38,351.2188 38,452.2188 38,452.2188 C38,452.2188 39.25,461.1488 40.6,470.8688 " fill="none" id="2-to-3" style="stroke:#008000;stroke-width:1.0;"/><polygon fill="#008000" points="41.32,475.9788,44.0491,466.5155,40.6349,471.0259,36.1245,467.6117,41.32,475.9788" style="stroke:#008000;stroke-width:1.0;"/><path d="M43,356.2188 L43,447.2188 L271,447.2188 L271,366.2188 L261,356.2188 L43,356.2188 " fill="#F5F5F5" style="stroke:#181818;stroke-width:0.5;"/><path d="M261,356.2188 L261,366.2188 L271,366.2188 L261,356.2188 " fill="#F5F5F5" style="stroke:#181818;stroke-width:0.5;"/><text fill="#000000" font-family="sans-serif" font-size="13" font-weight="bold" lengthAdjust="spacing" textLength="103" x="49" y="374.7139">Sistema Solicita</text><ellipse cx="54.5" cy="386.4219" fill="#000000" rx="2.5" ry="2.5" style="stroke:#000000;stroke-width:0.0;"/><text fill="#000000" font-family="sans-serif" font-size="13" lengthAdjust="spacing" textLength="167" x="62" y="391.0654">Identificar el tipo de Ususario</text><ellipse cx="54.5" cy="402.7734" fill="#000000" rx="2.5" ry="2.5" style="stroke:#000000;stroke-width:0.0;"/><text fill="#000000" font-family="sans-serif" font-size="13" lengthAdjust="spacing" textLength="117" x="62" y="407.417">Datos de la Petición</text><text fill="#000000" font-family="sans-serif" font-size="13" font-weight="bold" lengthAdjust="spacing" textLength="105" x="49" y="423.7686">Sistema Permite</text><ellipse cx="54.5" cy="435.4766" fill="#000000" rx="2.5" ry="2.5" style="stroke:#000000;stroke-width:0.0;"/><text fill="#000000" font-family="sans-serif" font-size="13" lengthAdjust="spacing" textLength="194" x="62" y="440.1201">Interactuar con el servicio externo</text></g><!--MD5=[b1f22f0c97e7f2b556a5a2d67c42ac53]
link 3 to 4--><g id="link_3_4"><path d="M47.61,516.4688 C53.61,548.4988 65,609.2188 65,609.2188 C65,609.2188 127.62,626.5088 156.14,634.3888 " fill="none" id="3-to-4" style="stroke:#008000;stroke-width:1.0;"/><polygon fill="#008000" points="161.05,635.7488,153.4384,629.4987,156.2302,634.4186,151.3102,637.2104,161.05,635.7488" style="stroke:#008000;stroke-width:1.0;"/><path d="M70,545.2188 L70,604.2188 L271,604.2188 L271,555.2188 L261,545.2188 L70,545.2188 " fill="#F5F5F5" style="stroke:#181818;stroke-width:0.5;"/><path d="M261,545.2188 L261,555.2188 L271,555.2188 L261,545.2188 " fill="#F5F5F5" style="stroke:#181818;stroke-width:0.5;"/><text fill="#000000" font-family="sans-serif" font-size="13" font-weight="bold" lengthAdjust="spacing" textLength="112" x="76" y="563.7139">Usuario introduce</text><ellipse cx="81.5" cy="575.4219" fill="#000000" rx="2.5" ry="2.5" style="stroke:#000000;stroke-width:0.0;"/><text fill="#000000" font-family="sans-serif" font-size="13" lengthAdjust="spacing" textLength="167" x="89" y="580.0654">Identificar el tipo de Ususario</text><ellipse cx="81.5" cy="591.7734" fill="#000000" rx="2.5" ry="2.5" style="stroke:#000000;stroke-width:0.0;"/><text fill="#000000" font-family="sans-serif" font-size="13" lengthAdjust="spacing" textLength="117" x="89" y="596.417">Datos de la Petición</text></g><!--MD5=[bb7b74735fd702c6bdff35cbfd9c23b7]
link 4 to *end*RealziarPetición--><g id="link_4_*end*RealziarPetición"><path d="M170,651.3688 C170,671.1488 170,712.3088 170,734.0587 " fill="none" id="4-to-*end*RealziarPetición" style="stroke:#008000;stroke-width:1.0;"/><polygon fill="#008000" points="170,739.1388,174,730.1388,170,734.1388,166,730.1388,170,739.1388" style="stroke:#008000;stroke-width:1.0;"/><path d="M175,674.2188 L175,716.2188 L390,716.2188 L390,684.2188 L380,674.2188 L175,674.2188 " fill="#F5F5F5" style="stroke:#181818;stroke-width:0.5;"/><path d="M380,674.2188 L380,684.2188 L390,684.2188 L380,674.2188 " fill="#F5F5F5" style="stroke:#181818;stroke-width:0.5;"/><text fill="#000000" font-family="sans-serif" font-size="13" font-weight="bold" lengthAdjust="spacing" textLength="105" x="181" y="692.7139">Sistema Muestra</text><ellipse cx="186.5" cy="704.4219" fill="#000000" rx="2.5" ry="2.5" style="stroke:#000000;stroke-width:0.0;"/><text fill="#000000" font-family="sans-serif" font-size="13" lengthAdjust="spacing" textLength="181" x="194" y="709.0654">Respuesta del Servicio Externo</text></g><!--MD5=[d5d43b3f3dfddbfb6ca65af0419a6a54]
link 4 to 2--><g id="link_4_2"><path d="M178.67,635.8488 C203.99,628.9188 276,609.2188 276,609.2188 C276,609.2188 276,351.2188 276,351.2188 C276,351.2188 226.37,334.9688 192.89,324.0088 " fill="none" id="4-to-2" style="stroke:#FF0000;stroke-width:1.0;"/><polygon fill="#FF0000" points="188.08,322.4288,195.407,329.0102,192.8361,323.9713,197.875,321.4004,188.08,322.4288" style="stroke:#FF0000;stroke-width:1.0;"/><path d="M281,475.2188 L281,517.2188 L466,517.2188 L466,485.2188 L456,475.2188 L281,475.2188 " fill="#F5F5F5" style="stroke:#181818;stroke-width:0.5;"/><path d="M456,475.2188 L456,485.2188 L466,485.2188 L456,475.2188 " fill="#F5F5F5" style="stroke:#181818;stroke-width:0.5;"/><text fill="#000000" font-family="sans-serif" font-size="13" font-weight="bold" lengthAdjust="spacing" textLength="105" x="287" y="493.7139">Sistema Muestra</text><ellipse cx="292.5" cy="505.4219" fill="#000000" rx="2.5" ry="2.5" style="stroke:#000000;stroke-width:0.0;"/><text fill="#000000" font-family="sans-serif" font-size="13" lengthAdjust="spacing" textLength="151" x="300" y="510.0654">Error al realizar la petición</text></g><!--MD5=[aee3d33afd2890867e2cce6884dfc22f]
link startState to RealziarPetición--><g id="link_startState_RealziarPetición"><path d="M241,85.8394 C241,107.9194 241,146.9794 241,192.2494 " fill="none" id="startState-to-RealziarPetición" style="stroke:#008000;stroke-width:1.0;"/><polygon fill="#008000" points="241,197.5094,245,188.5094,241,192.5094,237,188.5094,241,197.5094" style="stroke:#008000;stroke-width:1.0;"/><path d="M246,120.6094 L246,162.6094 L465,162.6094 L465,130.6094 L455,120.6094 L246,120.6094 " fill="#F5F5F5" style="stroke:#181818;stroke-width:0.5;"/><path d="M455,120.6094 L455,130.6094 L465,130.6094 L455,120.6094 " fill="#F5F5F5" style="stroke:#181818;stroke-width:0.5;"/><text fill="#000000" font-family="sans-serif" font-size="13" font-weight="bold" lengthAdjust="spacing" textLength="100" x="252" y="139.1045">Usuario Solicita</text><text fill="#000000" font-family="sans-serif" font-size="13" lengthAdjust="spacing" textLength="198" x="252" y="155.4561">Interactuar con un servicio externo</text></g><!--MD5=[78746debfb5e39b39a34cbe6ad8dadb7]
@startuml
skinparam {
    NoteBackgroundColor #whiteSmoke
    ArrowColor #green
    NoteBorderColor #green
    linetype polyline
}

hide empty description

title Realizar Petición

state startState as "INITIAL"

startState - -> RealziarPetición
note on link
    <b>Usuario Solicita</b>
    Interactuar con un servicio externo
end note

state RealziarPetición {
state 2 as " "
state 3 as " "
state 4 <<choice>>

[*] -down-> 2

2 -down-> 3
note on link
<b>Sistema Solicita</b>
* Identificar el tipo de Ususario
* Datos de la Petición
<b>Sistema Permite</b>
* Interactuar con el servicio externo
end note

3 -down-> 4
note on link
<b>Usuario introduce</b>
* Identificar el tipo de Ususario
* Datos de la Petición
end note

4 -down-> [*]
note on link
<b>Sistema Muestra</b>
* Respuesta del Servicio Externo
end note

4 -[#red]-> 2
note on link
<b>Sistema Muestra</b>
* Error al realizar la petición
end note

}

@enduml

PlantUML version 1.2022.7(Mon Aug 22 19:01:30 CEST 2022)
(GPL source distribution)
Java Runtime: Java(TM) SE Runtime Environment
JVM: Java HotSpot(TM) Client VM
Default Encoding: Cp1252
Language: es
Country: ES
--></g></svg>