<?xml version="1.0" encoding="us-ascii" standalone="no"?><svg xmlns="http://www.w3.org/2000/svg" xmlns:xlink="http://www.w3.org/1999/xlink" contentStyleType="text/css" height="1572px" preserveAspectRatio="none" style="width:1691px;height:1572px;background:#FFFFFF;" version="1.1" viewBox="0 0 1691 1572" width="1691px" zoomAndPan="magnify"><defs/><g><ellipse cx="665.5" cy="16" fill="#222222" rx="10" ry="10" style="stroke:#222222;stroke-width:1.0;"/><g id="InicioHorariosGrado"><rect fill="#F1F1F1" height="50" rx="12.5" ry="12.5" style="stroke:#181818;stroke-width:0.5;" width="160" x="585.5" y="87"/><line style="stroke:#181818;stroke-width:0.5;" x1="585.5" x2="745.5" y1="113.2969" y2="113.2969"/><text fill="#000000" font-family="sans-serif" font-size="14" lengthAdjust="spacing" textLength="140" x="595.5" y="104.9951">InicioHorariosGrado</text></g><g id="ElegirA&#241;oGrado"><rect fill="#F1F1F1" height="50" rx="12.5" ry="12.5" style="stroke:#181818;stroke-width:0.5;" width="132" x="599.5" y="214"/><line style="stroke:#181818;stroke-width:0.5;" x1="599.5" x2="731.5" y1="240.2969" y2="240.2969"/><text fill="#000000" font-family="sans-serif" font-size="14" lengthAdjust="spacing" textLength="112" x="609.5" y="231.9951">ElegirA&#241;oGrado</text></g><path d="M19.5,341 L385.5,341 A12.5,12.5 0 0 1 398,353.5 L398,367.2969 L7,367.2969 L7,353.5 A12.5,12.5 0 0 1 19.5,341 " fill="#F1F1F1" style="stroke:#F1F1F1;stroke-width:1.0;"/><rect fill="none" height="1014.5938" rx="12.5" ry="12.5" style="stroke:#181818;stroke-width:0.5;" width="391" x="7" y="341"/><line style="stroke:#181818;stroke-width:0.5;" x1="7" x2="398" y1="367.2969" y2="367.2969"/><text fill="#000000" font-family="sans-serif" font-size="14" lengthAdjust="spacing" textLength="147" x="129" y="358.9951">PrimerYSegundoA&#241;o</text><path d="M31.5,379.2969 L376.5,379.2969 A12.5,12.5 0 0 1 389,391.7969 L389,405.5938 L19,405.5938 L19,391.7969 A12.5,12.5 0 0 1 31.5,379.2969 " fill="#F1F1F1" style="stroke:#F1F1F1;stroke-width:1.0;"/><rect fill="none" height="966.2969" rx="12.5" ry="12.5" style="stroke:#181818;stroke-width:0.5;" width="370" x="19" y="379.2969"/><line style="stroke:#181818;stroke-width:0.5;" x1="19" x2="389" y1="405.5938" y2="405.5938"/><text fill="#000000" font-family="sans-serif" font-size="14" lengthAdjust="spacing" textLength="129" x="139.5" y="397.292">RevisarSemestres</text><ellipse cx="181" cy="426.5938" fill="#222222" rx="10" ry="10" style="stroke:#222222;stroke-width:1.0;"/><g id="PrimerYSegundoA&#241;o.RevisarSemestres.RevisarSemestre"><rect fill="#F1F1F1" height="50" rx="12.5" ry="12.5" style="stroke:#181818;stroke-width:0.5;" width="142" x="110" y="473.5938"/><line style="stroke:#181818;stroke-width:0.5;" x1="110" x2="252" y1="499.8906" y2="499.8906"/><text fill="#000000" font-family="sans-serif" font-size="14" lengthAdjust="spacing" textLength="122" x="120" y="491.5889">RevisarSemestre</text></g><g id="PrimerYSegundoA&#241;o.RevisarSemestres.PrimerSemestre"><rect fill="#F1F1F1" height="50" rx="12.5" ry="12.5" style="stroke:#181818;stroke-width:0.5;" width="138" x="31" y="576.5938"/><line style="stroke:#181818;stroke-width:0.5;" x1="31" x2="169" y1="602.8906" y2="602.8906"/><text fill="#000000" font-family="sans-serif" font-size="14" lengthAdjust="spacing" textLength="118" x="41" y="594.5889">PrimerSemestre</text></g><g id="PrimerYSegundoA&#241;o.RevisarSemestres.SegundoSemestre"><rect fill="#F1F1F1" height="50" rx="12.5" ry="12.5" style="stroke:#181818;stroke-width:0.5;" width="152" x="187" y="576.5938"/><line style="stroke:#181818;stroke-width:0.5;" x1="187" x2="339" y1="602.8906" y2="602.8906"/><text fill="#000000" font-family="sans-serif" font-size="14" lengthAdjust="spacing" textLength="132" x="197" y="594.5889">SegundoSemestre</text></g><path d="M77.5,663.5938 L318.5,663.5938 A12.5,12.5 0 0 1 331,676.0938 L331,689.8906 L65,689.8906 L65,676.0938 A12.5,12.5 0 0 1 77.5,663.5938 " fill="#F1F1F1" style="stroke:#F1F1F1;stroke-width:1.0;"/><rect fill="none" height="510.2969" rx="12.5" ry="12.5" style="stroke:#181818;stroke-width:0.5;" width="266" x="65" y="663.5938"/><line style="stroke:#181818;stroke-width:0.5;" x1="65" x2="331" y1="689.8906" y2="689.8906"/><text fill="#000000" font-family="sans-serif" font-size="14" lengthAdjust="spacing" textLength="246" x="75" y="681.5889">AsignarAsignaturasPrimerSegundo</text><g id="PrimerYSegundoA&#241;o.RevisarSemestres.AsignarAsignaturasPrimerSegundo.Asignatura1"><rect fill="#F1F1F1" height="50" rx="12.5" ry="12.5" style="stroke:#181818;stroke-width:0.5;" width="105" x="77" y="701.8906"/><line style="stroke:#181818;stroke-width:0.5;" x1="77" x2="182" y1="728.1875" y2="728.1875"/><text fill="#000000" font-family="sans-serif" font-size="14" lengthAdjust="spacing" textLength="85" x="87" y="719.8857">Asignatura1</text></g><g id="PrimerYSegundoA&#241;o.RevisarSemestres.AsignarAsignaturasPrimerSegundo.Asignatura2"><rect fill="#F1F1F1" height="50" rx="12.5" ry="12.5" style="stroke:#181818;stroke-width:0.5;" width="104" x="77.5" y="804.8906"/><line style="stroke:#181818;stroke-width:0.5;" x1="77.5" x2="181.5" y1="831.1875" y2="831.1875"/><text fill="#000000" font-family="sans-serif" font-size="14" lengthAdjust="spacing" textLength="84" x="87.5" y="822.8857">Asignatura2</text></g><g id="PrimerYSegundoA&#241;o.RevisarSemestres.AsignarAsignaturasPrimerSegundo.Asignatura3"><rect fill="#F1F1F1" height="50" rx="12.5" ry="12.5" style="stroke:#181818;stroke-width:0.5;" width="105" x="77" y="907.8906"/><line style="stroke:#181818;stroke-width:0.5;" x1="77" x2="182" y1="934.1875" y2="934.1875"/><text fill="#000000" font-family="sans-serif" font-size="14" lengthAdjust="spacing" textLength="85" x="87" y="925.8857">Asignatura3</text></g><g id="PrimerYSegundoA&#241;o.RevisarSemestres.AsignarAsignaturasPrimerSegundo.Asignatura4"><rect fill="#F1F1F1" height="50" rx="12.5" ry="12.5" style="stroke:#181818;stroke-width:0.5;" width="104" x="77.5" y="1010.8906"/><line style="stroke:#181818;stroke-width:0.5;" x1="77.5" x2="181.5" y1="1037.1875" y2="1037.1875"/><text fill="#000000" font-family="sans-serif" font-size="14" lengthAdjust="spacing" textLength="84" x="87.5" y="1028.8857">Asignatura4</text></g><g id="PrimerYSegundoA&#241;o.RevisarSemestres.AsignarAsignaturasPrimerSegundo.Asignatura5"><rect fill="#F1F1F1" height="50" rx="12.5" ry="12.5" style="stroke:#181818;stroke-width:0.5;" width="105" x="77" y="1113.8906"/><line style="stroke:#181818;stroke-width:0.5;" x1="77" x2="182" y1="1140.1875" y2="1140.1875"/><text fill="#000000" font-family="sans-serif" font-size="14" lengthAdjust="spacing" textLength="85" x="87" y="1131.8857">Asignatura5</text></g><!--link Asignatura1 to Asignatura2--><g id="link_Asignatura1_Asignatura2"><path d="M129.5,752.0826 C129.5,767.9566 129.5,782.6416 129.5,798.5456 " fill="none" id="Asignatura1-to-Asignatura2" style="stroke:#181818;stroke-width:1.0;"/><polygon fill="#181818" points="129.5,804.5456,133.5,795.5456,129.5,799.5456,125.5,795.5456,129.5,804.5456" style="stroke:#181818;stroke-width:1.0;"/><text fill="#000000" font-family="sans-serif" font-size="13" lengthAdjust="spacing" textLength="143" x="130.5" y="782.9575">Asignatura 1 asignada</text></g><!--link Asignatura2 to Asignatura3--><g id="link_Asignatura2_Asignatura3"><path d="M129.5,855.0826 C129.5,870.9566 129.5,885.6416 129.5,901.5456 " fill="none" id="Asignatura2-to-Asignatura3" style="stroke:#181818;stroke-width:1.0;"/><polygon fill="#181818" points="129.5,907.5456,133.5,898.5456,129.5,902.5456,125.5,898.5456,129.5,907.5456" style="stroke:#181818;stroke-width:1.0;"/><text fill="#000000" font-family="sans-serif" font-size="13" lengthAdjust="spacing" textLength="143" x="130.5" y="885.9575">Asignatura 2 asignada</text></g><!--link Asignatura3 to Asignatura4--><g id="link_Asignatura3_Asignatura4"><path d="M129.5,958.0826 C129.5,973.9566 129.5,988.6416 129.5,1004.5456 " fill="none" id="Asignatura3-to-Asignatura4" style="stroke:#181818;stroke-width:1.0;"/><polygon fill="#181818" points="129.5,1010.5456,133.5,1001.5456,129.5,1005.5456,125.5,1001.5456,129.5,1010.5456" style="stroke:#181818;stroke-width:1.0;"/><text fill="#000000" font-family="sans-serif" font-size="13" lengthAdjust="spacing" textLength="143" x="130.5" y="988.9575">Asignatura 3 asignada</text></g><!--link Asignatura4 to Asignatura5--><g id="link_Asignatura4_Asignatura5"><path d="M129.5,1061.0826 C129.5,1076.9563 129.5,1091.6415 129.5,1107.5459 " fill="none" id="Asignatura4-to-Asignatura5" style="stroke:#181818;stroke-width:1.0;"/><polygon fill="#181818" points="129.5,1113.5459,133.5,1104.5459,129.5,1108.5459,125.5,1104.5459,129.5,1113.5459" style="stroke:#181818;stroke-width:1.0;"/><text fill="#000000" font-family="sans-serif" font-size="13" lengthAdjust="spacing" textLength="143" x="130.5" y="1091.9575">Asignatura 4 asignada</text></g><g id="PrimerYSegundoA&#241;o.RevisarSemestres.GuardarCambios"><rect fill="#F1F1F1" height="50" rx="12.5" ry="12.5" style="stroke:#181818;stroke-width:0.5;" width="138" x="129" y="1210.5938"/><line style="stroke:#181818;stroke-width:0.5;" x1="129" x2="267" y1="1236.8906" y2="1236.8906"/><text fill="#000000" font-family="sans-serif" font-size="14" lengthAdjust="spacing" textLength="118" x="139" y="1228.5889">GuardarCambios</text></g><ellipse cx="198" cy="1324.5938" fill="none" rx="11" ry="11" style="stroke:#222222;stroke-width:1.0;"/><ellipse cx="198" cy="1324.5938" fill="#222222" rx="6" ry="6" style="stroke:#222222;stroke-width:1.0;"/><!--link *start*RevisarSemestres to RevisarSemestre--><g id="link_*start*RevisarSemestres_RevisarSemestre"><path d="M181,436.7447 C181,446.0098 181,454.7347 181,467.3778 " fill="none" id="*start*RevisarSemestres-to-RevisarSemestre" style="stroke:#181818;stroke-width:1.0;"/><polygon fill="#181818" points="181,473.3778,185,464.3778,181,468.3778,177,464.3778,181,473.3778" style="stroke:#181818;stroke-width:1.0;"/></g><!--link RevisarSemestre to PrimerSemestre--><g id="link_RevisarSemestre_PrimerSemestre"><path d="M124.455,523.8268 C117.6929,528.8168 111.5772,534.7028 107,541.5938 C100.2654,551.7328 98.3642,559.0608 98.1505,570.4838 " fill="none" id="RevisarSemestre-to-PrimerSemestre" style="stroke:#181818;stroke-width:1.0;"/><polygon fill="#181818" points="98.0383,576.4828,102.2059,567.5591,98.1318,571.4836,94.2073,567.4095,98.0383,576.4828" style="stroke:#181818;stroke-width:1.0;"/><text fill="#000000" font-family="sans-serif" font-size="13" lengthAdjust="spacing" textLength="130" x="108" y="554.6606">Semestre Verificado</text></g><!--link RevisarSemestre to SegundoSemestre--><g id="link_RevisarSemestre_SegundoSemestre"><path d="M220.754,523.7528 C227.436,529.0398 233.859,535.0398 239,541.5938 C246.985,551.7738 250.7616,559.2884 254.5966,570.6204 " fill="none" id="RevisarSemestre-to-SegundoSemestre" style="stroke:#181818;stroke-width:1.0;"/><polygon fill="#181818" points="256.52,576.3038,257.4238,566.4965,254.9172,571.5676,249.846,569.061,256.52,576.3038" style="stroke:#181818;stroke-width:1.0;"/><text fill="#000000" font-family="sans-serif" font-size="13" lengthAdjust="spacing" textLength="130" x="249" y="554.6606">Semestre Verificado</text></g><!--link PrimerSemestre to AsignarAsignaturasPrimerSegundo--><g id="link_PrimerSemestre_AsignarAsignaturasPrimerSegundo"><path d="M107.5272,626.7878 C110.6198,636.7288 112.7395,643.5426 117.177,657.8056 " fill="none" id="PrimerSemestre-to-AsignarAsignaturasPrimerSegundo" style="stroke:#181818;stroke-width:1.0;"/><polygon fill="#181818" points="118.9594,663.5348,120.1052,653.7528,117.474,658.7605,112.4663,656.1294,118.9594,663.5348" style="stroke:#181818;stroke-width:1.0;"/></g><!--link SegundoSemestre to AsignarAsignaturasPrimerSegundo--><g id="link_SegundoSemestre_AsignarAsignaturasPrimerSegundo"><path d="M258.007,626.7878 C255.956,636.7288 254.5805,643.3955 251.6375,657.6585 " fill="none" id="SegundoSemestre-to-AsignarAsignaturasPrimerSegundo" style="stroke:#181818;stroke-width:1.0;"/><polygon fill="#181818" points="250.425,663.5348,256.1612,655.5288,251.4354,658.6379,248.3263,653.9121,250.425,663.5348" style="stroke:#181818;stroke-width:1.0;"/></g><!--link AsignarAsignaturasPrimerSegundo to GuardarCambios--><g id="link_AsignarAsignaturasPrimerSegundo_GuardarCambios"><path d="M198,1173.8587 C198,1187.9898 198,1194.4248 198,1204.3018 " fill="none" id="AsignarAsignaturasPrimerSegundo-to-GuardarCambios" style="stroke:#181818;stroke-width:1.0;"/><polygon fill="#181818" points="198,1210.3018,202,1201.3018,198,1205.3018,194,1201.3018,198,1210.3018" style="stroke:#181818;stroke-width:1.0;"/></g><!--link GuardarCambios to *end*RevisarSemestres--><g id="link_GuardarCambios_*end*RevisarSemestres"><path d="M198,1260.8282 C198,1278.124 198,1294.5118 198,1307.3419 " fill="none" id="GuardarCambios-to-*end*RevisarSemestres" style="stroke:#181818;stroke-width:1.0;"/><polygon fill="#181818" points="198,1313.3419,202,1304.3419,198,1308.3419,194,1304.3419,198,1313.3419" style="stroke:#181818;stroke-width:1.0;"/><text fill="#000000" font-family="sans-serif" font-size="13" lengthAdjust="spacing" textLength="130" x="199" y="1291.6606">Cambios Guardados</text></g><path d="M445.5,341 L885.5,341 A12.5,12.5 0 0 1 898,353.5 L898,367.2969 L433,367.2969 L433,353.5 A12.5,12.5 0 0 1 445.5,341 " fill="#F1F1F1" style="stroke:#F1F1F1;stroke-width:1.0;"/><rect fill="none" height="1014.5938" rx="12.5" ry="12.5" style="stroke:#181818;stroke-width:0.5;" width="465" x="433" y="341"/><line style="stroke:#181818;stroke-width:0.5;" x1="433" x2="898" y1="367.2969" y2="367.2969"/><text fill="#000000" font-family="sans-serif" font-size="14" lengthAdjust="spacing" textLength="75" x="628" y="358.9951">TercerA&#241;o</text><path d="M457.5,379.2969 L876.5,379.2969 A12.5,12.5 0 0 1 889,391.7969 L889,405.5938 L445,405.5938 L445,391.7969 A12.5,12.5 0 0 1 457.5,379.2969 " fill="#F1F1F1" style="stroke:#F1F1F1;stroke-width:1.0;"/><rect fill="none" height="966.2969" rx="12.5" ry="12.5" style="stroke:#181818;stroke-width:0.5;" width="444" x="445" y="379.2969"/><line style="stroke:#181818;stroke-width:0.5;" x1="445" x2="889" y1="405.5938" y2="405.5938"/><text fill="#000000" font-family="sans-serif" font-size="14" lengthAdjust="spacing" textLength="185" x="574.5" y="397.292">RevisarSemestresTercero</text><ellipse cx="663" cy="426.5938" fill="#222222" rx="10" ry="10" style="stroke:#222222;stroke-width:1.0;"/><g id="TercerA&#241;o.RevisarSemestresTercero.RevisarSemestreTercero"><rect fill="#F1F1F1" height="50" rx="12.5" ry="12.5" style="stroke:#181818;stroke-width:0.5;" width="198" x="564" y="473.5938"/><line style="stroke:#181818;stroke-width:0.5;" x1="564" x2="762" y1="499.8906" y2="499.8906"/><text fill="#000000" font-family="sans-serif" font-size="14" lengthAdjust="spacing" textLength="178" x="574" y="491.5889">RevisarSemestreTercero</text></g><g id="TercerA&#241;o.RevisarSemestresTercero.PrimerSemestreTercero"><rect fill="#F1F1F1" height="50" rx="12.5" ry="12.5" style="stroke:#181818;stroke-width:0.5;" width="194" x="457" y="576.5938"/><line style="stroke:#181818;stroke-width:0.5;" x1="457" x2="651" y1="602.8906" y2="602.8906"/><text fill="#000000" font-family="sans-serif" font-size="14" lengthAdjust="spacing" textLength="174" x="467" y="594.5889">PrimerSemestreTercero</text></g><g id="TercerA&#241;o.RevisarSemestresTercero.SegundoSemestreTercero"><rect fill="#F1F1F1" height="50" rx="12.5" ry="12.5" style="stroke:#181818;stroke-width:0.5;" width="208" x="669" y="576.5938"/><line style="stroke:#181818;stroke-width:0.5;" x1="669" x2="877" y1="602.8906" y2="602.8906"/><text fill="#000000" font-family="sans-serif" font-size="14" lengthAdjust="spacing" textLength="188" x="679" y="594.5889">SegundoSemestreTercero</text></g><path d="M576.5,663.5938 L798,663.5938 A12.5,12.5 0 0 1 810.5,676.0938 L810.5,689.8906 L564,689.8906 L564,676.0938 A12.5,12.5 0 0 1 576.5,663.5938 " fill="#F1F1F1" style="stroke:#F1F1F1;stroke-width:1.0;"/><rect fill="none" height="510.2969" rx="12.5" ry="12.5" style="stroke:#181818;stroke-width:0.5;" width="246.5" x="564" y="663.5938"/><line style="stroke:#181818;stroke-width:0.5;" x1="564" x2="810.5" y1="689.8906" y2="689.8906"/><text fill="#000000" font-family="sans-serif" font-size="14" lengthAdjust="spacing" textLength="192" x="591.25" y="681.5889">AsignarAsignaturasTercero</text><g id="TercerA&#241;o.RevisarSemestresTercero.AsignarAsignaturasTercero.Asignatura1Tercero"><rect fill="#F1F1F1" height="50" rx="12.5" ry="12.5" style="stroke:#181818;stroke-width:0.5;" width="161" x="576" y="701.8906"/><line style="stroke:#181818;stroke-width:0.5;" x1="576" x2="737" y1="728.1875" y2="728.1875"/><text fill="#000000" font-family="sans-serif" font-size="14" lengthAdjust="spacing" textLength="141" x="586" y="719.8857">Asignatura1Tercero</text></g><g id="TercerA&#241;o.RevisarSemestresTercero.AsignarAsignaturasTercero.Asignatura2Tercero"><rect fill="#F1F1F1" height="50" rx="12.5" ry="12.5" style="stroke:#181818;stroke-width:0.5;" width="160" x="576.5" y="804.8906"/><line style="stroke:#181818;stroke-width:0.5;" x1="576.5" x2="736.5" y1="831.1875" y2="831.1875"/><text fill="#000000" font-family="sans-serif" font-size="14" lengthAdjust="spacing" textLength="140" x="586.5" y="822.8857">Asignatura2Tercero</text></g><g id="TercerA&#241;o.RevisarSemestresTercero.AsignarAsignaturasTercero.Asignatura3Tercero"><rect fill="#F1F1F1" height="50" rx="12.5" ry="12.5" style="stroke:#181818;stroke-width:0.5;" width="161" x="576" y="907.8906"/><line style="stroke:#181818;stroke-width:0.5;" x1="576" x2="737" y1="934.1875" y2="934.1875"/><text fill="#000000" font-family="sans-serif" font-size="14" lengthAdjust="spacing" textLength="141" x="586" y="925.8857">Asignatura3Tercero</text></g><g id="TercerA&#241;o.RevisarSemestresTercero.AsignarAsignaturasTercero.Asignatura4Tercero"><rect fill="#F1F1F1" height="50" rx="12.5" ry="12.5" style="stroke:#181818;stroke-width:0.5;" width="160" x="576.5" y="1010.8906"/><line style="stroke:#181818;stroke-width:0.5;" x1="576.5" x2="736.5" y1="1037.1875" y2="1037.1875"/><text fill="#000000" font-family="sans-serif" font-size="14" lengthAdjust="spacing" textLength="140" x="586.5" y="1028.8857">Asignatura4Tercero</text></g><g id="TercerA&#241;o.RevisarSemestresTercero.AsignarAsignaturasTercero.OptativaTercero"><rect fill="#F1F1F1" height="50" rx="12.5" ry="12.5" style="stroke:#181818;stroke-width:0.5;" width="139" x="587" y="1113.8906"/><line style="stroke:#181818;stroke-width:0.5;" x1="587" x2="726" y1="1140.1875" y2="1140.1875"/><text fill="#000000" font-family="sans-serif" font-size="14" lengthAdjust="spacing" textLength="119" x="597" y="1131.8857">OptativaTercero</text></g><!--link Asignatura1Tercero to Asignatura2Tercero--><g id="link_Asignatura1Tercero_Asignatura2Tercero"><path d="M656.5,752.0826 C656.5,767.9566 656.5,782.6416 656.5,798.5456 " fill="none" id="Asignatura1Tercero-to-Asignatura2Tercero" style="stroke:#181818;stroke-width:1.0;"/><polygon fill="#181818" points="656.5,804.5456,660.5,795.5456,656.5,799.5456,652.5,795.5456,656.5,804.5456" style="stroke:#181818;stroke-width:1.0;"/><text fill="#000000" font-family="sans-serif" font-size="13" lengthAdjust="spacing" textLength="143" x="657.5" y="782.9575">Asignatura 1 asignada</text></g><!--link Asignatura2Tercero to Asignatura3Tercero--><g id="link_Asignatura2Tercero_Asignatura3Tercero"><path d="M656.5,855.0826 C656.5,870.9566 656.5,885.6416 656.5,901.5456 " fill="none" id="Asignatura2Tercero-to-Asignatura3Tercero" style="stroke:#181818;stroke-width:1.0;"/><polygon fill="#181818" points="656.5,907.5456,660.5,898.5456,656.5,902.5456,652.5,898.5456,656.5,907.5456" style="stroke:#181818;stroke-width:1.0;"/><text fill="#000000" font-family="sans-serif" font-size="13" lengthAdjust="spacing" textLength="143" x="657.5" y="885.9575">Asignatura 2 asignada</text></g><!--link Asignatura3Tercero to Asignatura4Tercero--><g id="link_Asignatura3Tercero_Asignatura4Tercero"><path d="M656.5,958.0826 C656.5,973.9566 656.5,988.6416 656.5,1004.5456 " fill="none" id="Asignatura3Tercero-to-Asignatura4Tercero" style="stroke:#181818;stroke-width:1.0;"/><polygon fill="#181818" points="656.5,1010.5456,660.5,1001.5456,656.5,1005.5456,652.5,1001.5456,656.5,1010.5456" style="stroke:#181818;stroke-width:1.0;"/><text fill="#000000" font-family="sans-serif" font-size="13" lengthAdjust="spacing" textLength="143" x="657.5" y="988.9575">Asignatura 3 asignada</text></g><!--link Asignatura4Tercero to OptativaTercero--><g id="link_Asignatura4Tercero_OptativaTercero"><path d="M656.5,1061.0826 C656.5,1076.9563 656.5,1091.6415 656.5,1107.5459 " fill="none" id="Asignatura4Tercero-to-OptativaTercero" style="stroke:#181818;stroke-width:1.0;"/><polygon fill="#181818" points="656.5,1113.5459,660.5,1104.5459,656.5,1108.5459,652.5,1104.5459,656.5,1113.5459" style="stroke:#181818;stroke-width:1.0;"/><text fill="#000000" font-family="sans-serif" font-size="13" lengthAdjust="spacing" textLength="143" x="657.5" y="1091.9575">Asignatura 4 asignada</text></g><g id="TercerA&#241;o.RevisarSemestresTercero.GuardarCambiosTercero"><rect fill="#F1F1F1" height="50" rx="12.5" ry="12.5" style="stroke:#181818;stroke-width:0.5;" width="194" x="590" y="1210.5938"/><line style="stroke:#181818;stroke-width:0.5;" x1="590" x2="784" y1="1236.8906" y2="1236.8906"/><text fill="#000000" font-family="sans-serif" font-size="14" lengthAdjust="spacing" textLength="174" x="600" y="1228.5889">GuardarCambiosTercero</text></g><ellipse cx="687" cy="1324.5938" fill="none" rx="11" ry="11" style="stroke:#222222;stroke-width:1.0;"/><ellipse cx="687" cy="1324.5938" fill="#222222" rx="6" ry="6" style="stroke:#222222;stroke-width:1.0;"/><!--link *start*RevisarSemestresTercero to RevisarSemestreTercero--><g id="link_*start*RevisarSemestresTercero_RevisarSemestreTercero"><path d="M663,436.7447 C663,446.0098 663,454.7347 663,467.3778 " fill="none" id="*start*RevisarSemestresTercero-to-RevisarSemestreTercero" style="stroke:#181818;stroke-width:1.0;"/><polygon fill="#181818" points="663,473.3778,667,464.3778,663,468.3778,659,464.3778,663,473.3778" style="stroke:#181818;stroke-width:1.0;"/></g><!--link RevisarSemestreTercero to PrimerSemestreTercero--><g id="link_RevisarSemestreTercero_PrimerSemestreTercero"><path d="M625.321,523.6568 C617.641,529.1888 609.828,535.3058 603,541.5938 C591.638,552.0568 584.2128,560.429 575.4418,571.622 " fill="none" id="RevisarSemestreTercero-to-PrimerSemestreTercero" style="stroke:#181818;stroke-width:1.0;"/><polygon fill="#181818" points="571.741,576.3448,580.4407,571.7279,574.825,572.4091,574.1437,566.7935,571.741,576.3448" style="stroke:#181818;stroke-width:1.0;"/><text fill="#000000" font-family="sans-serif" font-size="13" lengthAdjust="spacing" textLength="130" x="604" y="554.6606">Semestre Verificado</text></g><!--link RevisarSemestreTercero to SegundoSemestreTercero--><g id="link_RevisarSemestreTercero_SegundoSemestreTercero"><path d="M711.707,523.7468 C719.971,529.0008 728.099,534.9908 735,541.5938 C745.388,551.5328 751.2927,559.6373 757.8537,571.1013 " fill="none" id="RevisarSemestreTercero-to-SegundoSemestreTercero" style="stroke:#181818;stroke-width:1.0;"/><polygon fill="#181818" points="760.834,576.3088,759.8352,566.5107,758.3504,571.9692,752.8919,570.4844,760.834,576.3088" style="stroke:#181818;stroke-width:1.0;"/><text fill="#000000" font-family="sans-serif" font-size="13" lengthAdjust="spacing" textLength="130" x="749" y="554.6606">Semestre Verificado</text></g><!--link PrimerSemestreTercero to AsignarAsignaturasTercero--><g id="link_PrimerSemestreTercero_AsignarAsignaturasTercero"><path d="M564.215,626.7878 C568.413,636.7288 571.3739,643.7444 577.3969,658.0074 " fill="none" id="PrimerSemestreTercero-to-AsignarAsignaturasTercero" style="stroke:#181818;stroke-width:1.0;"/><polygon fill="#181818" points="579.731,663.5348,579.9148,653.6876,577.7859,658.9286,572.5449,656.7998,579.731,663.5348" style="stroke:#181818;stroke-width:1.0;"/></g><!--link SegundoSemestreTercero to AsignarAsignaturasTercero--><g id="link_SegundoSemestreTercero_AsignarAsignaturasTercero"><path d="M766.395,626.7878 C763.681,636.7288 761.8362,643.4836 757.9422,657.7466 " fill="none" id="SegundoSemestreTercero-to-AsignarAsignaturasTercero" style="stroke:#181818;stroke-width:1.0;"/><polygon fill="#181818" points="756.362,663.5348,762.5911,655.906,757.6789,658.7113,754.8736,653.799,756.362,663.5348" style="stroke:#181818;stroke-width:1.0;"/></g><!--link AsignarAsignaturasTercero to GuardarCambiosTercero--><g id="link_AsignarAsignaturasTercero_GuardarCambiosTercero"><path d="M687,1173.8587 C687,1187.9898 687,1194.4248 687,1204.3018 " fill="none" id="AsignarAsignaturasTercero-to-GuardarCambiosTercero" style="stroke:#181818;stroke-width:1.0;"/><polygon fill="#181818" points="687,1210.3018,691,1201.3018,687,1205.3018,683,1201.3018,687,1210.3018" style="stroke:#181818;stroke-width:1.0;"/></g><!--link GuardarCambiosTercero to *end*RevisarSemestresTercero--><g id="link_GuardarCambiosTercero_*end*RevisarSemestresTercero"><path d="M687,1260.8282 C687,1278.124 687,1294.5118 687,1307.3419 " fill="none" id="GuardarCambiosTercero-to-*end*RevisarSemestresTercero" style="stroke:#181818;stroke-width:1.0;"/><polygon fill="#181818" points="687,1313.3419,691,1304.3419,687,1308.3419,683,1304.3419,687,1313.3419" style="stroke:#181818;stroke-width:1.0;"/><text fill="#000000" font-family="sans-serif" font-size="13" lengthAdjust="spacing" textLength="130" x="688" y="1291.6606">Cambios Guardados</text></g><path d="M945.5,355 L1665.5,355 A12.5,12.5 0 0 1 1678,367.5 L1678,381.2969 L933,381.2969 L933,367.5 A12.5,12.5 0 0 1 945.5,355 " fill="#F1F1F1" style="stroke:#F1F1F1;stroke-width:1.0;"/><rect fill="none" height="987.0169" rx="12.5" ry="12.5" style="stroke:#181818;stroke-width:0.5;" width="745" x="933" y="355"/><line style="stroke:#181818;stroke-width:0.5;" x1="933" x2="1678" y1="381.2969" y2="381.2969"/><text fill="#000000" font-family="sans-serif" font-size="14" lengthAdjust="spacing" textLength="76" x="1267.5" y="372.9951">CuartoA&#241;o</text><!--cluster RevisarSemestresCuarto--><g id="cluster_RevisarSemestresCuarto"><path d="M957.5,393.2969 L1656.5,393.2969 A12.5,12.5 0 0 1 1669,405.7969 L1669,414.5938 L945,414.5938 L945,405.7969 A12.5,12.5 0 0 1 957.5,393.2969 " fill="#F1F1F1" style="stroke:#F1F1F1;stroke-width:1.0;"/><rect fill="none" height="938.72" rx="12.5" ry="12.5" style="stroke:#181818;stroke-width:0.5;" width="724" x="945" y="393.2969"/><line style="stroke:#181818;stroke-width:0.5;" x1="945" x2="1669" y1="414.5938" y2="414.5938"/><text fill="#000000" font-family="sans-serif" font-size="14" lengthAdjust="spacing" textLength="177" x="1218.5" y="410.292">RevisarSemestresCuarto</text></g><ellipse cx="1277" cy="446.2969" fill="#222222" rx="10" ry="10" style="stroke:#222222;stroke-width:1.0;"/><g id="CuartoA&#241;o.RevisarSemestresCuarto.RevisarSemestreCuarto"><rect fill="#F1F1F1" height="50" rx="12.5" ry="12.5" style="stroke:#181818;stroke-width:0.5;" width="190" x="1182" y="493.2969"/><line style="stroke:#181818;stroke-width:0.5;" x1="1182" x2="1372" y1="519.5938" y2="519.5938"/><text fill="#000000" font-family="sans-serif" font-size="14" lengthAdjust="spacing" textLength="170" x="1192" y="511.292">RevisarSemestreCuarto</text></g><g id="CuartoA&#241;o.RevisarSemestresCuarto.PrimerSemestreCuarto"><rect fill="#F1F1F1" height="50" rx="12.5" ry="12.5" style="stroke:#181818;stroke-width:0.5;" width="186" x="1079" y="596.2969"/><line style="stroke:#181818;stroke-width:0.5;" x1="1079" x2="1265" y1="622.5938" y2="622.5938"/><text fill="#000000" font-family="sans-serif" font-size="14" lengthAdjust="spacing" textLength="166" x="1089" y="614.292">PrimerSemestreCuarto</text></g><g id="CuartoA&#241;o.RevisarSemestresCuarto.SegundoSemestreCuarto"><rect fill="#F1F1F1" height="50" rx="12.5" ry="12.5" style="stroke:#181818;stroke-width:0.5;" width="200" x="1351" y="596.2969"/><line style="stroke:#181818;stroke-width:0.5;" x1="1351" x2="1551" y1="622.5938" y2="622.5938"/><text fill="#000000" font-family="sans-serif" font-size="14" lengthAdjust="spacing" textLength="180" x="1361" y="614.292">SegundoSemestreCuarto</text></g><path d="M981.5,683.2969 L1278.5,683.2969 A12.5,12.5 0 0 1 1291,695.7969 L1291,709.5938 L969,709.5938 L969,695.7969 A12.5,12.5 0 0 1 981.5,683.2969 " fill="#F1F1F1" style="stroke:#F1F1F1;stroke-width:1.0;"/><rect fill="none" height="510.2969" rx="12.5" ry="12.5" style="stroke:#181818;stroke-width:0.5;" width="322" x="969" y="683.2969"/><line style="stroke:#181818;stroke-width:0.5;" x1="969" x2="1291" y1="709.5938" y2="709.5938"/><text fill="#000000" font-family="sans-serif" font-size="14" lengthAdjust="spacing" textLength="302" x="979" y="701.292">AsignarAsignaturasCuartoPrimerSemestre</text><g id="CuartoA&#241;o.RevisarSemestresCuarto.AsignarAsignaturasCuartoPrimerSemestre.Asignatura1Cuarto"><rect fill="#F1F1F1" height="50" rx="12.5" ry="12.5" style="stroke:#181818;stroke-width:0.5;" width="153" x="981" y="721.5938"/><line style="stroke:#181818;stroke-width:0.5;" x1="981" x2="1134" y1="747.8906" y2="747.8906"/><text fill="#000000" font-family="sans-serif" font-size="14" lengthAdjust="spacing" textLength="133" x="991" y="739.5889">Asignatura1Cuarto</text></g><g id="CuartoA&#241;o.RevisarSemestresCuarto.AsignarAsignaturasCuartoPrimerSemestre.Asignatura2Cuarto"><rect fill="#F1F1F1" height="50" rx="12.5" ry="12.5" style="stroke:#181818;stroke-width:0.5;" width="152" x="981.5" y="824.5938"/><line style="stroke:#181818;stroke-width:0.5;" x1="981.5" x2="1133.5" y1="850.8906" y2="850.8906"/><text fill="#000000" font-family="sans-serif" font-size="14" lengthAdjust="spacing" textLength="132" x="991.5" y="842.5889">Asignatura2Cuarto</text></g><g id="CuartoA&#241;o.RevisarSemestresCuarto.AsignarAsignaturasCuartoPrimerSemestre.Asignatura3Cuarto"><rect fill="#F1F1F1" height="50" rx="12.5" ry="12.5" style="stroke:#181818;stroke-width:0.5;" width="153" x="981" y="927.5938"/><line style="stroke:#181818;stroke-width:0.5;" x1="981" x2="1134" y1="953.8906" y2="953.8906"/><text fill="#000000" font-family="sans-serif" font-size="14" lengthAdjust="spacing" textLength="133" x="991" y="945.5889">Asignatura3Cuarto</text></g><g id="CuartoA&#241;o.RevisarSemestresCuarto.AsignarAsignaturasCuartoPrimerSemestre.Asignatura4Cuarto"><rect fill="#F1F1F1" height="50" rx="12.5" ry="12.5" style="stroke:#181818;stroke-width:0.5;" width="152" x="981.5" y="1030.5938"/><line style="stroke:#181818;stroke-width:0.5;" x1="981.5" x2="1133.5" y1="1056.8906" y2="1056.8906"/><text fill="#000000" font-family="sans-serif" font-size="14" lengthAdjust="spacing" textLength="132" x="991.5" y="1048.5889">Asignatura4Cuarto</text></g><g id="CuartoA&#241;o.RevisarSemestresCuarto.AsignarAsignaturasCuartoPrimerSemestre.OptativaCuarto"><rect fill="#F1F1F1" height="50" rx="12.5" ry="12.5" style="stroke:#181818;stroke-width:0.5;" width="131" x="992" y="1133.5938"/><line style="stroke:#181818;stroke-width:0.5;" x1="992" x2="1123" y1="1159.8906" y2="1159.8906"/><text fill="#000000" font-family="sans-serif" font-size="14" lengthAdjust="spacing" textLength="111" x="1002" y="1151.5889">OptativaCuarto</text></g><!--link Asignatura1Cuarto to Asignatura2Cuarto--><g id="link_Asignatura1Cuarto_Asignatura2Cuarto"><path d="M1057.5,771.7858 C1057.5,787.6598 1057.5,802.3448 1057.5,818.2488 " fill="none" id="Asignatura1Cuarto-to-Asignatura2Cuarto" style="stroke:#181818;stroke-width:1.0;"/><polygon fill="#181818" points="1057.5,824.2488,1061.5,815.2488,1057.5,819.2488,1053.5,815.2488,1057.5,824.2488" style="stroke:#181818;stroke-width:1.0;"/><text fill="#000000" font-family="sans-serif" font-size="13" lengthAdjust="spacing" textLength="143" x="1058.5" y="802.6606">Asignatura 1 asignada</text></g><!--link Asignatura2Cuarto to Asignatura3Cuarto--><g id="link_Asignatura2Cuarto_Asignatura3Cuarto"><path d="M1057.5,874.7858 C1057.5,890.6598 1057.5,905.3448 1057.5,921.2488 " fill="none" id="Asignatura2Cuarto-to-Asignatura3Cuarto" style="stroke:#181818;stroke-width:1.0;"/><polygon fill="#181818" points="1057.5,927.2488,1061.5,918.2488,1057.5,922.2488,1053.5,918.2488,1057.5,927.2488" style="stroke:#181818;stroke-width:1.0;"/><text fill="#000000" font-family="sans-serif" font-size="13" lengthAdjust="spacing" textLength="143" x="1058.5" y="905.6606">Asignatura 2 asignada</text></g><!--link Asignatura3Cuarto to Asignatura4Cuarto--><g id="link_Asignatura3Cuarto_Asignatura4Cuarto"><path d="M1057.5,977.7858 C1057.5,993.6598 1057.5,1008.3448 1057.5,1024.2488 " fill="none" id="Asignatura3Cuarto-to-Asignatura4Cuarto" style="stroke:#181818;stroke-width:1.0;"/><polygon fill="#181818" points="1057.5,1030.2488,1061.5,1021.2488,1057.5,1025.2488,1053.5,1021.2488,1057.5,1030.2488" style="stroke:#181818;stroke-width:1.0;"/><text fill="#000000" font-family="sans-serif" font-size="13" lengthAdjust="spacing" textLength="143" x="1058.5" y="1008.6606">Asignatura 3 asignada</text></g><!--link Asignatura4Cuarto to OptativaCuarto--><g id="link_Asignatura4Cuarto_OptativaCuarto"><path d="M1057.5,1080.7858 C1057.5,1096.6595 1057.5,1111.3447 1057.5,1127.2491 " fill="none" id="Asignatura4Cuarto-to-OptativaCuarto" style="stroke:#181818;stroke-width:1.0;"/><polygon fill="#181818" points="1057.5,1133.2491,1061.5,1124.2491,1057.5,1128.2491,1053.5,1124.2491,1057.5,1133.2491" style="stroke:#181818;stroke-width:1.0;"/><text fill="#000000" font-family="sans-serif" font-size="13" lengthAdjust="spacing" textLength="143" x="1058.5" y="1111.6606">Asignatura 4 asignada</text></g><path d="M1321.5,734.7969 L1632.5,734.7969 A12.5,12.5 0 0 1 1645,747.2969 L1645,761.0938 L1309,761.0938 L1309,747.2969 A12.5,12.5 0 0 1 1321.5,734.7969 " fill="#F1F1F1" style="stroke:#F1F1F1;stroke-width:1.0;"/><rect fill="none" height="407.2969" rx="12.5" ry="12.5" style="stroke:#181818;stroke-width:0.5;" width="336" x="1309" y="734.7969"/><line style="stroke:#181818;stroke-width:0.5;" x1="1309" x2="1645" y1="761.0938" y2="761.0938"/><text fill="#000000" font-family="sans-serif" font-size="14" lengthAdjust="spacing" textLength="316" x="1319" y="752.792">AsignarAsignaturasCuartoSegundoSemestre</text><g id="CuartoA&#241;o.RevisarSemestresCuarto.AsignarAsignaturasCuartoSegundoSemestre.Asignatura1CuartoSegundo"><rect fill="#F1F1F1" height="50" rx="12.5" ry="12.5" style="stroke:#181818;stroke-width:0.5;" width="215" x="1321" y="773.0938"/><line style="stroke:#181818;stroke-width:0.5;" x1="1321" x2="1536" y1="799.3906" y2="799.3906"/><text fill="#000000" font-family="sans-serif" font-size="14" lengthAdjust="spacing" textLength="195" x="1331" y="791.0889">Asignatura1CuartoSegundo</text></g><g id="CuartoA&#241;o.RevisarSemestresCuarto.AsignarAsignaturasCuartoSegundoSemestre.Asignatura2CuartoSegundo"><rect fill="#F1F1F1" height="50" rx="12.5" ry="12.5" style="stroke:#181818;stroke-width:0.5;" width="214" x="1321.5" y="876.0938"/><line style="stroke:#181818;stroke-width:0.5;" x1="1321.5" x2="1535.5" y1="902.3906" y2="902.3906"/><text fill="#000000" font-family="sans-serif" font-size="14" lengthAdjust="spacing" textLength="194" x="1331.5" y="894.0889">Asignatura2CuartoSegundo</text></g><g id="CuartoA&#241;o.RevisarSemestresCuarto.AsignarAsignaturasCuartoSegundoSemestre.Asignatura3CuartoSegundo"><rect fill="#F1F1F1" height="50" rx="12.5" ry="12.5" style="stroke:#181818;stroke-width:0.5;" width="215" x="1321" y="979.0938"/><line style="stroke:#181818;stroke-width:0.5;" x1="1321" x2="1536" y1="1005.3906" y2="1005.3906"/><text fill="#000000" font-family="sans-serif" font-size="14" lengthAdjust="spacing" textLength="195" x="1331" y="997.0889">Asignatura3CuartoSegundo</text></g><g id="CuartoA&#241;o.RevisarSemestresCuarto.AsignarAsignaturasCuartoSegundoSemestre.OptativaCuartoSegundo"><rect fill="#F1F1F1" height="50" rx="12.5" ry="12.5" style="stroke:#181818;stroke-width:0.5;" width="193" x="1332" y="1082.0938"/><line style="stroke:#181818;stroke-width:0.5;" x1="1332" x2="1525" y1="1108.3906" y2="1108.3906"/><text fill="#000000" font-family="sans-serif" font-size="14" lengthAdjust="spacing" textLength="173" x="1342" y="1100.0889">OptativaCuartoSegundo</text></g><!--link Asignatura1CuartoSegundo to Asignatura2CuartoSegundo--><g id="link_Asignatura1CuartoSegundo_Asignatura2CuartoSegundo"><path d="M1428.5,823.2858 C1428.5,839.1598 1428.5,853.8448 1428.5,869.7488 " fill="none" id="Asignatura1CuartoSegundo-to-Asignatura2CuartoSegundo" style="stroke:#181818;stroke-width:1.0;"/><polygon fill="#181818" points="1428.5,875.7488,1432.5,866.7488,1428.5,870.7488,1424.5,866.7488,1428.5,875.7488" style="stroke:#181818;stroke-width:1.0;"/><text fill="#000000" font-family="sans-serif" font-size="13" lengthAdjust="spacing" textLength="143" x="1429.5" y="854.1606">Asignatura 1 asignada</text></g><!--link Asignatura2CuartoSegundo to Asignatura3CuartoSegundo--><g id="link_Asignatura2CuartoSegundo_Asignatura3CuartoSegundo"><path d="M1428.5,926.2858 C1428.5,942.1598 1428.5,956.8448 1428.5,972.7488 " fill="none" id="Asignatura2CuartoSegundo-to-Asignatura3CuartoSegundo" style="stroke:#181818;stroke-width:1.0;"/><polygon fill="#181818" points="1428.5,978.7488,1432.5,969.7488,1428.5,973.7488,1424.5,969.7488,1428.5,978.7488" style="stroke:#181818;stroke-width:1.0;"/><text fill="#000000" font-family="sans-serif" font-size="13" lengthAdjust="spacing" textLength="143" x="1429.5" y="957.1606">Asignatura 2 asignada</text></g><!--link Asignatura3CuartoSegundo to OptativaCuartoSegundo--><g id="link_Asignatura3CuartoSegundo_OptativaCuartoSegundo"><path d="M1428.5,1029.2858 C1428.5,1045.1595 1428.5,1059.8447 1428.5,1075.7491 " fill="none" id="Asignatura3CuartoSegundo-to-OptativaCuartoSegundo" style="stroke:#181818;stroke-width:1.0;"/><polygon fill="#181818" points="1428.5,1081.7491,1432.5,1072.7491,1428.5,1076.7491,1424.5,1072.7491,1428.5,1081.7491" style="stroke:#181818;stroke-width:1.0;"/><text fill="#000000" font-family="sans-serif" font-size="13" lengthAdjust="spacing" textLength="143" x="1429.5" y="1060.1606">Asignatura 3 asignada</text></g><g id="CuartoA&#241;o.RevisarSemestresCuarto.GuardarCambiosCuarto"><rect fill="#F1F1F1" height="50" rx="12.5" ry="12.5" style="stroke:#181818;stroke-width:0.5;" width="186" x="1210" y="1230.2969"/><line style="stroke:#181818;stroke-width:0.5;" x1="1210" x2="1396" y1="1256.5938" y2="1256.5938"/><text fill="#000000" font-family="sans-serif" font-size="14" lengthAdjust="spacing" textLength="166" x="1220" y="1248.292">GuardarCambiosCuarto</text></g><!--link *start*RevisarSemestresCuarto to RevisarSemestreCuarto--><g id="link_*start*RevisarSemestresCuarto_RevisarSemestreCuarto"><path d="M1277,456.4479 C1277,465.7129 1277,474.4379 1277,487.0809 " fill="none" id="*start*RevisarSemestresCuarto-to-RevisarSemestreCuarto" style="stroke:#181818;stroke-width:1.0;"/><polygon fill="#181818" points="1277,493.0809,1281,484.0809,1277,488.0809,1273,484.0809,1277,493.0809" style="stroke:#181818;stroke-width:1.0;"/></g><!--link RevisarSemestreCuarto to PrimerSemestreCuarto--><g id="link_RevisarSemestreCuarto_PrimerSemestreCuarto"><path d="M1237.062,543.3479 C1229.364,548.7959 1221.638,554.8829 1215,561.2969 C1204.335,571.6009 1197.7856,579.8312 1190.1806,591.1382 " fill="none" id="RevisarSemestreCuarto-to-PrimerSemestreCuarto" style="stroke:#181818;stroke-width:1.0;"/><polygon fill="#181818" points="1186.832,596.1169,1195.174,590.8813,1189.6225,591.968,1188.5358,586.4165,1186.832,596.1169" style="stroke:#181818;stroke-width:1.0;"/><text fill="#000000" font-family="sans-serif" font-size="13" lengthAdjust="spacing" textLength="130" x="1216" y="574.3638">Semestre Verificado</text></g><!--link RevisarSemestreCuarto to SegundoSemestreCuarto--><g id="link_RevisarSemestreCuarto_SegundoSemestreCuarto"><path d="M1318.677,543.4889 C1346.125,559.4209 1376.7329,577.1878 1404.1729,593.1158 " fill="none" id="RevisarSemestreCuarto-to-SegundoSemestreCuarto" style="stroke:#181818;stroke-width:1.0;"/><polygon fill="#181818" points="1409.362,596.1279,1403.5864,588.1503,1405.0377,593.6178,1399.5702,595.0691,1409.362,596.1279" style="stroke:#181818;stroke-width:1.0;"/><text fill="#000000" font-family="sans-serif" font-size="13" lengthAdjust="spacing" textLength="130" x="1380" y="574.3638">Semestre Verificado</text></g><!--link PrimerSemestreCuarto to AsignarAsignaturasCuartoPrimerSemestre--><g id="link_PrimerSemestreCuarto_AsignarAsignaturasCuartoPrimerSemestre"><path d="M1168.774,646.4909 C1167.449,656.4319 1166.5687,663.0275 1164.6677,677.2905 " fill="none" id="PrimerSemestreCuarto-to-AsignarAsignaturasCuartoPrimerSemestre" style="stroke:#181818;stroke-width:1.0;"/><polygon fill="#181818" points="1163.875,683.2379,1169.029,674.8452,1164.5356,678.2817,1161.0991,673.7883,1163.875,683.2379" style="stroke:#181818;stroke-width:1.0;"/></g><!--link SegundoSemestreCuarto to AsignarAsignaturasCuartoSegundoSemestre--><g id="link_SegundoSemestreCuarto_AsignarAsignaturasCuartoSegundoSemestre"><path d="M1452.997,646.4909 C1454.709,667.2369 1456.8634,693.3362 1459.7854,728.7332 " fill="none" id="SegundoSemestreCuarto-to-AsignarAsignaturasCuartoSegundoSemestre" style="stroke:#181818;stroke-width:1.0;"/><polygon fill="#181818" points="1460.279,734.7129,1463.525,725.4143,1459.8677,729.7298,1455.5521,726.0725,1460.279,734.7129" style="stroke:#181818;stroke-width:1.0;"/></g><!--link AsignarAsignaturasCuartoPrimerSemestre to GuardarCambiosCuarto--><g id="link_AsignarAsignaturasCuartoPrimerSemestre_GuardarCambiosCuarto"><path d="M1269.644,1193.5619 C1277.405,1207.6929 1281.3455,1214.8689 1286.7705,1224.7459 " fill="none" id="AsignarAsignaturasCuartoPrimerSemestre-to-GuardarCambiosCuarto" style="stroke:#181818;stroke-width:1.0;"/><polygon fill="#181818" points="1289.659,1230.0049,1288.8322,1220.1908,1287.2519,1225.6224,1281.8203,1224.0421,1289.659,1230.0049" style="stroke:#181818;stroke-width:1.0;"/></g><!--link AsignarAsignaturasCuartoSegundoSemestre to GuardarCambiosCuarto--><g id="link_AsignarAsignaturasCuartoSegundoSemestre_GuardarCambiosCuarto"><path d="M1365.081,1141.9089 C1345.554,1177.2599 1330.7573,1204.048 1319.2993,1224.789 " fill="none" id="AsignarAsignaturasCuartoSegundoSemestre-to-GuardarCambiosCuarto" style="stroke:#181818;stroke-width:1.0;"/><polygon fill="#181818" points="1316.398,1230.0409,1324.2512,1224.0972,1318.8158,1225.6643,1317.2487,1220.2288,1316.398,1230.0409" style="stroke:#181818;stroke-width:1.0;"/></g><!--link GuardarCambiosCuarto to RevisarSemestresCuarto--><g id="link_GuardarCambiosCuarto_RevisarSemestresCuarto"><path d="M1303,1280.4854 C1303,1299.0771 1303,1315.825 1303,1317.2286 " fill="none" id="GuardarCambiosCuarto-to-RevisarSemestresCuarto" style="stroke:#181818;stroke-width:1.0;"/><polygon fill="#181818" points="1303,1323.2286,1307,1314.2286,1303,1318.2286,1299,1314.2286,1303,1323.2286" style="stroke:#181818;stroke-width:1.0;"/></g><g id="HorarioGradoCompleto"><rect fill="#F1F1F1" height="50" rx="12.5" ry="12.5" style="stroke:#181818;stroke-width:0.5;" width="187" x="1212" y="1433"/><line style="stroke:#181818;stroke-width:0.5;" x1="1212" x2="1399" y1="1459.2969" y2="1459.2969"/><text fill="#000000" font-family="sans-serif" font-size="14" lengthAdjust="spacing" textLength="167" x="1222" y="1450.9951">HorarioGradoCompleto</text></g><ellipse cx="1305.5" cy="1555" fill="none" rx="11" ry="11" style="stroke:#222222;stroke-width:1.0;"/><ellipse cx="1305.5" cy="1555" fill="#222222" rx="6" ry="6" style="stroke:#222222;stroke-width:1.0;"/><!--link *start* to InicioHorariosGrado--><g id="link_*start*_InicioHorariosGrado"><path d="M665.5,26.01 C665.5,39.89 665.5,60.97 665.5,80.84 " fill="none" id="*start*-to-InicioHorariosGrado" style="stroke:#181818;stroke-width:1.0;"/><polygon fill="#181818" points="665.5,86.84,669.5,77.84,665.5,81.84,661.5,77.84,665.5,86.84" style="stroke:#181818;stroke-width:1.0;"/></g><!--link InicioHorariosGrado to ElegirA?oGrado--><g id="link_InicioHorariosGrado_ElegirA&#241;oGrado"><path d="M665.5,137.1 C665.5,159.24 665.5,185.86 665.5,207.97 " fill="none" id="InicioHorariosGrado-to-ElegirA&#241;oGrado" style="stroke:#181818;stroke-width:1.0;"/><polygon fill="#181818" points="665.5,213.97,669.5,204.97,665.5,208.97,661.5,204.97,665.5,213.97" style="stroke:#181818;stroke-width:1.0;"/><text fill="#000000" font-family="sans-serif" font-size="13" lengthAdjust="spacing" textLength="140" x="666.5" y="180.0669">Revisar a&#241;o del grado</text></g><!--link ElegirA?oGrado to PrimerYSegundoA?o--><g id="link_ElegirA&#241;oGrado_PrimerYSegundoA&#241;o"><path d="M599.485,250.9 C543.414,263.44 464.459,289.37 415.5,341 C409.593,347.23 407.7281,349.0828 402.1221,355.6628 " fill="none" id="ElegirA&#241;oGrado-to-PrimerYSegundoA&#241;o" style="stroke:#181818;stroke-width:1.0;"/><polygon fill="#181818" points="398.231,360.23,407.1125,355.9733,401.4736,356.424,401.0229,350.7851,398.231,360.23" style="stroke:#181818;stroke-width:1.0;"/><text fill="#000000" font-family="sans-serif" font-size="13" lengthAdjust="spacing" textLength="143" x="473.5" y="307.0669">Primer y Segundo A&#241;o</text></g><!--link ElegirA?oGrado to TercerA?o--><g id="link_ElegirA&#241;oGrado_TercerA&#241;o"><path d="M665.5,264.19 C665.5,281.95 665.5,302.55 665.5,334.77 " fill="none" id="ElegirA&#241;oGrado-to-TercerA&#241;o" style="stroke:#181818;stroke-width:1.0;"/><polygon fill="#181818" points="665.5,340.77,669.5,331.77,665.5,335.77,661.5,331.77,665.5,340.77" style="stroke:#181818;stroke-width:1.0;"/><text fill="#000000" font-family="sans-serif" font-size="13" lengthAdjust="spacing" textLength="70" x="666.5" y="307.0669">Tercer A&#241;o</text></g><!--link ElegirA?oGrado to CuartoA?o--><g id="link_ElegirA&#241;oGrado_CuartoA&#241;o"><path d="M731.707,256.32 C785.129,271.81 860.224,299.04 915.5,341 C921.467,345.53 922.7233,346.3988 928.6013,351.1488 " fill="none" id="ElegirA&#241;oGrado-to-CuartoA&#241;o" style="stroke:#181818;stroke-width:1.0;"/><polygon fill="#181818" points="933.268,354.92,928.782,346.1521,929.3791,351.7774,923.7538,352.3744,933.268,354.92" style="stroke:#181818;stroke-width:1.0;"/><text fill="#000000" font-family="sans-serif" font-size="13" lengthAdjust="spacing" textLength="72" x="866.5" y="307.0669">Cuarto A&#241;o</text></g><!--link CuartoA?o to HorarioGradoCompleto--><g id="link_CuartoA&#241;o_HorarioGradoCompleto"><path d="M1305.5,1342.02 C1305.5,1380.491 1305.5,1406.269 1305.5,1426.594 " fill="none" id="CuartoA&#241;o-to-HorarioGradoCompleto" style="stroke:#181818;stroke-width:1.0;"/><polygon fill="#181818" points="1305.5,1432.594,1309.5,1423.594,1305.5,1427.594,1301.5,1423.594,1305.5,1432.594" style="stroke:#181818;stroke-width:1.0;"/><text fill="#000000" font-family="sans-serif" font-size="13" lengthAdjust="spacing" textLength="152" x="1306.5" y="1399.0669">Cuarto A&#241;o completado</text></g><!--link HorarioGradoCompleto to *end*--><g id="link_HorarioGradoCompleto_*end*"><path d="M1305.5,1483.4649 C1305.5,1503.0364 1305.5,1523.4921 1305.5,1537.7967 " fill="none" id="HorarioGradoCompleto-to-*end*" style="stroke:#181818;stroke-width:1.0;"/><polygon fill="#181818" points="1305.5,1543.7967,1309.5,1534.7967,1305.5,1538.7967,1301.5,1534.7967,1305.5,1543.7967" style="stroke:#181818;stroke-width:1.0;"/></g><!--SRC=[bLV1Ri8m3BttAtoUn07QNJXCGcZQTjeqfaaJsY6ZMHM94fGMf0dnKVk6_TYQ9YsfwwQ12yJsUqvilwQiRpvXChc3fvtO2Fae5LD25W-AfJAA26CTVB_bcL2BlrzPs-Rmoe-YO0fOPOAKRo4p12Ym1hyeaNFriUBPOPTAxOEvDS8FM3DeEmb_ush3bOMPnN3myi1KsUGm2nCS5IKhERMNKmJLnxZjiLOyvqMfU66T-hEsTKCXq0PWn-NehMaExSzthiItsEYY-GZiHWCPK3fDi2X4jcFAV9K7nOeco9IznU9C0U0MEvP4SprKpKYPMhBygngj5jerrv6wqbNphCK4f1PoZfnkZQKzeGtgaAbpCBsULQakAvW2gnSf8x0pX8sxs9aF6oDiqiN6Fco2iBTTRDB5dgDpC-sET7nJRiBa-B3RmA69RNZwazzuhXA0IuUcCuoFtWCzsFXe0md3m8CHVI5WAEdroG92TD7liAE8_jdgOR_KE5WVD5DCCldLGZCb99DVEoxJyxwgZpWoacPOHiwbufEHlMv6LMJYXgRUilGrP1rNISWXGmCTn4PkW9Q0SNO1Gs8A8488ZxAenCI5WueUc7USY79IJNTn8s8bJqGgjrV8MeLjQuDrI_B458zVjIHFGl7uDUlmD9AbI7gA3IWhRh2dhkxRIwzOZVFgAjEiiOSrfEOkQxTa96LCFEkSfvnciNy2wbVhfSptMrwYTshO6BD-Of3HzjRw1m00]--></g></svg>