<?xml version="1.0" encoding="us-ascii" standalone="no"?><svg xmlns="http://www.w3.org/2000/svg" xmlns:xlink="http://www.w3.org/1999/xlink" contentStyleType="text/css" height="474px" preserveAspectRatio="none" style="width:490px;height:474px;background:#FFFFFF;" version="1.1" viewBox="0 0 490 474" width="490px" zoomAndPan="magnify"><defs/><g><!--class Grado--><g id="elem_Grado"><rect codeLine="1" fill="#F1F1F1" height="129.4844" id="Grado" rx="2.5" ry="2.5" style="stroke:#181818;stroke-width:0.5;" width="170" x="114" y="7"/><ellipse cx="173.25" cy="23" fill="#ADD1B2" rx="11" ry="11" style="stroke:#181818;stroke-width:1.0;"/><path d="M175.5938,18.6719 C174.6563,18.2344 174.0625,18.0938 173.1875,18.0938 C170.5625,18.0938 168.5625,20.1719 168.5625,22.8906 L168.5625,24.0156 C168.5625,26.5938 170.6719,28.4844 173.5625,28.4844 C174.7813,28.4844 175.9375,28.1875 176.6875,27.6406 C177.2656,27.2344 177.5938,26.7813 177.5938,26.3906 C177.5938,25.9375 177.2031,25.5469 176.7344,25.5469 C176.5156,25.5469 176.3125,25.625 176.125,25.8125 C175.6719,26.2969 175.6719,26.2969 175.4844,26.3906 C175.0625,26.6563 174.375,26.7813 173.6094,26.7813 C171.5625,26.7813 170.2656,25.6875 170.2656,23.9844 L170.2656,22.8906 C170.2656,21.1094 171.5156,19.7969 173.25,19.7969 C173.8281,19.7969 174.4375,19.9531 174.9063,20.2031 C175.3906,20.4844 175.5625,20.7031 175.6563,21.1094 C175.7188,21.5156 175.75,21.6406 175.8906,21.7656 C176.0313,21.9063 176.2656,22.0156 176.4844,22.0156 C176.75,22.0156 177.0156,21.875 177.1875,21.6563 C177.2969,21.5 177.3281,21.3125 177.3281,20.8906 L177.3281,19.4688 C177.3281,19.0313 177.3125,18.9063 177.2188,18.75 C177.0625,18.4844 176.7813,18.3438 176.4844,18.3438 C176.1875,18.3438 175.9844,18.4375 175.7656,18.75 L175.5938,18.6719 Z " fill="#000000"/><text fill="#000000" font-family="sans-serif" font-size="14" lengthAdjust="spacing" textLength="43" x="193.75" y="27.8467">Grado</text><line style="stroke:#181818;stroke-width:0.5;" x1="115" x2="283" y1="39" y2="39"/><rect fill="none" height="6" style="stroke:#C82930;stroke-width:1.0;" width="6" x="122" y="49.6484"/><text fill="#000000" font-family="sans-serif" font-size="14" lengthAdjust="spacing" textLength="57" x="134" y="55.9951">nombre</text><rect fill="none" height="6" style="stroke:#C82930;stroke-width:1.0;" width="6" x="122" y="65.9453"/><text fill="#000000" font-family="sans-serif" font-size="14" lengthAdjust="spacing" textLength="13" x="134" y="72.292">id</text><rect fill="none" height="6" style="stroke:#C82930;stroke-width:1.0;" width="6" x="122" y="82.2422"/><text fill="#000000" font-family="sans-serif" font-size="14" lengthAdjust="spacing" textLength="91" x="134" y="88.5889">planEstudios</text><line style="stroke:#181818;stroke-width:0.5;" x1="115" x2="283" y1="95.8906" y2="95.8906"/><ellipse cx="125" cy="109.5391" fill="#84BE84" rx="3" ry="3" style="stroke:#038048;stroke-width:1.0;"/><text fill="#000000" font-family="sans-serif" font-size="14" lengthAdjust="spacing" textLength="79" x="134" y="112.8857">elegirA&#241;o()</text><ellipse cx="125" cy="125.8359" fill="#84BE84" rx="3" ry="3" style="stroke:#038048;stroke-width:1.0;"/><text fill="#000000" font-family="sans-serif" font-size="14" lengthAdjust="spacing" textLength="144" x="134" y="129.1826">asignarAsignaturas()</text></g><!--class PlanEstudios--><g id="elem_PlanEstudios"><rect codeLine="9" fill="#F1F1F1" height="80.5938" id="PlanEstudios" rx="2.5" ry="2.5" style="stroke:#181818;stroke-width:0.5;" width="230" x="7" y="221"/><ellipse cx="72.75" cy="237" fill="#ADD1B2" rx="11" ry="11" style="stroke:#181818;stroke-width:1.0;"/><path d="M75.0938,232.6719 C74.1563,232.2344 73.5625,232.0938 72.6875,232.0938 C70.0625,232.0938 68.0625,234.1719 68.0625,236.8906 L68.0625,238.0156 C68.0625,240.5938 70.1719,242.4844 73.0625,242.4844 C74.2813,242.4844 75.4375,242.1875 76.1875,241.6406 C76.7656,241.2344 77.0938,240.7813 77.0938,240.3906 C77.0938,239.9375 76.7031,239.5469 76.2344,239.5469 C76.0156,239.5469 75.8125,239.625 75.625,239.8125 C75.1719,240.2969 75.1719,240.2969 74.9844,240.3906 C74.5625,240.6563 73.875,240.7813 73.1094,240.7813 C71.0625,240.7813 69.7656,239.6875 69.7656,237.9844 L69.7656,236.8906 C69.7656,235.1094 71.0156,233.7969 72.75,233.7969 C73.3281,233.7969 73.9375,233.9531 74.4063,234.2031 C74.8906,234.4844 75.0625,234.7031 75.1563,235.1094 C75.2188,235.5156 75.25,235.6406 75.3906,235.7656 C75.5313,235.9063 75.7656,236.0156 75.9844,236.0156 C76.25,236.0156 76.5156,235.875 76.6875,235.6563 C76.7969,235.5 76.8281,235.3125 76.8281,234.8906 L76.8281,233.4688 C76.8281,233.0313 76.8125,232.9063 76.7188,232.75 C76.5625,232.4844 76.2813,232.3438 75.9844,232.3438 C75.6875,232.3438 75.4844,232.4375 75.2656,232.75 L75.0938,232.6719 Z " fill="#000000"/><text fill="#000000" font-family="sans-serif" font-size="14" lengthAdjust="spacing" textLength="90" x="93.25" y="241.8467">PlanEstudios</text><line style="stroke:#181818;stroke-width:0.5;" x1="8" x2="236" y1="253" y2="253"/><rect fill="none" height="6" style="stroke:#C82930;stroke-width:1.0;" width="6" x="15" y="263.6484"/><text fill="#000000" font-family="sans-serif" font-size="14" lengthAdjust="spacing" textLength="133" x="27" y="269.9951">asignaturasPorA&#241;o</text><line style="stroke:#181818;stroke-width:0.5;" x1="8" x2="236" y1="277.2969" y2="277.2969"/><ellipse cx="18" cy="290.9453" fill="#84BE84" rx="3" ry="3" style="stroke:#038048;stroke-width:1.0;"/><text fill="#000000" font-family="sans-serif" font-size="14" lengthAdjust="spacing" textLength="204" x="27" y="294.292">obtenerAsignaturasPorA&#241;o()</text></g><!--class Asignatura--><g id="elem_Asignatura"><rect codeLine="14" fill="#F1F1F1" height="80.5938" id="Asignatura" rx="2.5" ry="2.5" style="stroke:#181818;stroke-width:0.5;" width="115" x="226.5" y="387"/><ellipse cx="244.65" cy="403" fill="#ADD1B2" rx="11" ry="11" style="stroke:#181818;stroke-width:1.0;"/><path d="M246.9938,398.6719 C246.0563,398.2344 245.4625,398.0938 244.5875,398.0938 C241.9625,398.0938 239.9625,400.1719 239.9625,402.8906 L239.9625,404.0156 C239.9625,406.5938 242.0719,408.4844 244.9625,408.4844 C246.1813,408.4844 247.3375,408.1875 248.0875,407.6406 C248.6656,407.2344 248.9938,406.7813 248.9938,406.3906 C248.9938,405.9375 248.6031,405.5469 248.1344,405.5469 C247.9156,405.5469 247.7125,405.625 247.525,405.8125 C247.0719,406.2969 247.0719,406.2969 246.8844,406.3906 C246.4625,406.6563 245.775,406.7813 245.0094,406.7813 C242.9625,406.7813 241.6656,405.6875 241.6656,403.9844 L241.6656,402.8906 C241.6656,401.1094 242.9156,399.7969 244.65,399.7969 C245.2281,399.7969 245.8375,399.9531 246.3063,400.2031 C246.7906,400.4844 246.9625,400.7031 247.0563,401.1094 C247.1188,401.5156 247.15,401.6406 247.2906,401.7656 C247.4313,401.9063 247.6656,402.0156 247.8844,402.0156 C248.15,402.0156 248.4156,401.875 248.5875,401.6563 C248.6969,401.5 248.7281,401.3125 248.7281,400.8906 L248.7281,399.4688 C248.7281,399.0313 248.7125,398.9063 248.6188,398.75 C248.4625,398.4844 248.1813,398.3438 247.8844,398.3438 C247.5875,398.3438 247.3844,398.4375 247.1656,398.75 L246.9938,398.6719 Z " fill="#000000"/><text fill="#000000" font-family="sans-serif" font-size="14" lengthAdjust="spacing" textLength="76" x="259.35" y="407.8467">Asignatura</text><line style="stroke:#181818;stroke-width:0.5;" x1="227.5" x2="340.5" y1="419" y2="419"/><rect fill="none" height="6" style="stroke:#C82930;stroke-width:1.0;" width="6" x="234.5" y="429.6484"/><text fill="#000000" font-family="sans-serif" font-size="14" lengthAdjust="spacing" textLength="57" x="246.5" y="435.9951">nombre</text><rect fill="none" height="6" style="stroke:#C82930;stroke-width:1.0;" width="6" x="234.5" y="445.9453"/><text fill="#000000" font-family="sans-serif" font-size="14" lengthAdjust="spacing" textLength="89" x="246.5" y="452.292">idAsignatura</text><line style="stroke:#181818;stroke-width:0.5;" x1="227.5" x2="340.5" y1="459.5938" y2="459.5938"/></g><!--class A?oGrado--><g id="elem_A&#241;oGrado"><rect codeLine="19" fill="#F1F1F1" height="96.8906" id="A&#241;oGrado" rx="2.5" ry="2.5" style="stroke:#181818;stroke-width:0.5;" width="170" x="272" y="213"/><ellipse cx="317.25" cy="229" fill="#ADD1B2" rx="11" ry="11" style="stroke:#181818;stroke-width:1.0;"/><path d="M319.5938,224.6719 C318.6563,224.2344 318.0625,224.0938 317.1875,224.0938 C314.5625,224.0938 312.5625,226.1719 312.5625,228.8906 L312.5625,230.0156 C312.5625,232.5938 314.6719,234.4844 317.5625,234.4844 C318.7813,234.4844 319.9375,234.1875 320.6875,233.6406 C321.2656,233.2344 321.5938,232.7813 321.5938,232.3906 C321.5938,231.9375 321.2031,231.5469 320.7344,231.5469 C320.5156,231.5469 320.3125,231.625 320.125,231.8125 C319.6719,232.2969 319.6719,232.2969 319.4844,232.3906 C319.0625,232.6563 318.375,232.7813 317.6094,232.7813 C315.5625,232.7813 314.2656,231.6875 314.2656,229.9844 L314.2656,228.8906 C314.2656,227.1094 315.5156,225.7969 317.25,225.7969 C317.8281,225.7969 318.4375,225.9531 318.9063,226.2031 C319.3906,226.4844 319.5625,226.7031 319.6563,227.1094 C319.7188,227.5156 319.75,227.6406 319.8906,227.7656 C320.0313,227.9063 320.2656,228.0156 320.4844,228.0156 C320.75,228.0156 321.0156,227.875 321.1875,227.6563 C321.2969,227.5 321.3281,227.3125 321.3281,226.8906 L321.3281,225.4688 C321.3281,225.0313 321.3125,224.9063 321.2188,224.75 C321.0625,224.4844 320.7813,224.3438 320.4844,224.3438 C320.1875,224.3438 319.9844,224.4375 319.7656,224.75 L319.5938,224.6719 Z " fill="#000000"/><text fill="#000000" font-family="sans-serif" font-size="14" lengthAdjust="spacing" textLength="71" x="337.75" y="233.8467">A&#241;oGrado</text><line style="stroke:#181818;stroke-width:0.5;" x1="273" x2="441" y1="245" y2="245"/><rect fill="none" height="6" style="stroke:#C82930;stroke-width:1.0;" width="6" x="280" y="255.6484"/><text fill="#000000" font-family="sans-serif" font-size="14" lengthAdjust="spacing" textLength="26" x="292" y="261.9951">a&#241;o</text><rect fill="none" height="6" style="stroke:#C82930;stroke-width:1.0;" width="6" x="280" y="271.9453"/><text fill="#000000" font-family="sans-serif" font-size="14" lengthAdjust="spacing" textLength="81" x="292" y="278.292">asignaturas</text><line style="stroke:#181818;stroke-width:0.5;" x1="273" x2="441" y1="285.5938" y2="285.5938"/><ellipse cx="283" cy="299.2422" fill="#84BE84" rx="3" ry="3" style="stroke:#038048;stroke-width:1.0;"/><text fill="#000000" font-family="sans-serif" font-size="14" lengthAdjust="spacing" textLength="144" x="292" y="302.5889">asignarAsignaturas()</text></g><!--class Semestre--><g id="elem_Semestre"><rect codeLine="25" fill="#F1F1F1" height="80.5938" id="Semestre" rx="2.5" ry="2.5" style="stroke:#181818;stroke-width:0.5;" width="107" x="376.5" y="387"/><ellipse cx="393.75" cy="403" fill="#ADD1B2" rx="11" ry="11" style="stroke:#181818;stroke-width:1.0;"/><path d="M396.0938,398.6719 C395.1563,398.2344 394.5625,398.0938 393.6875,398.0938 C391.0625,398.0938 389.0625,400.1719 389.0625,402.8906 L389.0625,404.0156 C389.0625,406.5938 391.1719,408.4844 394.0625,408.4844 C395.2813,408.4844 396.4375,408.1875 397.1875,407.6406 C397.7656,407.2344 398.0938,406.7813 398.0938,406.3906 C398.0938,405.9375 397.7031,405.5469 397.2344,405.5469 C397.0156,405.5469 396.8125,405.625 396.625,405.8125 C396.1719,406.2969 396.1719,406.2969 395.9844,406.3906 C395.5625,406.6563 394.875,406.7813 394.1094,406.7813 C392.0625,406.7813 390.7656,405.6875 390.7656,403.9844 L390.7656,402.8906 C390.7656,401.1094 392.0156,399.7969 393.75,399.7969 C394.3281,399.7969 394.9375,399.9531 395.4063,400.2031 C395.8906,400.4844 396.0625,400.7031 396.1563,401.1094 C396.2188,401.5156 396.25,401.6406 396.3906,401.7656 C396.5313,401.9063 396.7656,402.0156 396.9844,402.0156 C397.25,402.0156 397.5156,401.875 397.6875,401.6563 C397.7969,401.5 397.8281,401.3125 397.8281,400.8906 L397.8281,399.4688 C397.8281,399.0313 397.8125,398.9063 397.7188,398.75 C397.5625,398.4844 397.2813,398.3438 396.9844,398.3438 C396.6875,398.3438 396.4844,398.4375 396.2656,398.75 L396.0938,398.6719 Z " fill="#000000"/><text fill="#000000" font-family="sans-serif" font-size="14" lengthAdjust="spacing" textLength="70" x="408.25" y="407.8467">Semestre</text><line style="stroke:#181818;stroke-width:0.5;" x1="377.5" x2="482.5" y1="419" y2="419"/><rect fill="none" height="6" style="stroke:#C82930;stroke-width:1.0;" width="6" x="384.5" y="429.6484"/><text fill="#000000" font-family="sans-serif" font-size="14" lengthAdjust="spacing" textLength="55" x="396.5" y="435.9951">numero</text><rect fill="none" height="6" style="stroke:#C82930;stroke-width:1.0;" width="6" x="384.5" y="445.9453"/><text fill="#000000" font-family="sans-serif" font-size="14" lengthAdjust="spacing" textLength="81" x="396.5" y="452.292">asignaturas</text><line style="stroke:#181818;stroke-width:0.5;" x1="377.5" x2="482.5" y1="459.5938" y2="459.5938"/></g><!--link Grado to PlanEstudios--><g id="link_Grado_PlanEstudios"><path codeLine="30" d="M172.931,136.148 C161.457,164.164 150.6061,190.6566 140.5541,215.1996 " fill="none" id="Grado-to-PlanEstudios" style="stroke:#181818;stroke-width:1.0;"/><polygon fill="#181818" points="138.28,220.752,145.3927,213.9395,140.1751,216.125,137.9895,210.9074,138.28,220.752" style="stroke:#181818;stroke-width:1.0;"/><text fill="#000000" font-family="sans-serif" font-size="13" lengthAdjust="spacing" textLength="32" x="162" y="179.0669">tiene</text></g><!--link Grado to A?oGrado--><g id="link_Grado_A&#241;oGrado"><path codeLine="31" d="M252.492,136.148 C273.62,161.288 293.6137,185.0787 313.1927,208.3757 " fill="none" id="Grado-to-A&#241;oGrado" style="stroke:#181818;stroke-width:1.0;"/><polygon fill="#181818" points="317.053,212.969,314.3248,203.5055,313.8361,209.1412,308.2004,208.6525,317.053,212.969" style="stroke:#181818;stroke-width:1.0;"/><text fill="#000000" font-family="sans-serif" font-size="13" lengthAdjust="spacing" textLength="45" x="288" y="179.0669">incluye</text></g><!--link A?oGrado to Asignatura--><g id="link_A&#241;oGrado_Asignatura"><path codeLine="32" d="M335.689,310.376 C324.874,334.674 314.3318,358.3565 304.0848,381.3783 " fill="none" id="A&#241;oGrado-to-Asignatura" style="stroke:#181818;stroke-width:1.0;"/><polygon fill="#181818" points="301.645,386.8598,308.9591,380.2641,303.6782,382.2919,301.6504,377.0109,301.645,386.8598" style="stroke:#181818;stroke-width:1.0;"/><text fill="#000000" font-family="sans-serif" font-size="13" lengthAdjust="spacing" textLength="45" x="321" y="353.0669">incluye</text></g><!--link A?oGrado to Semestre--><g id="link_A&#241;oGrado_Semestre"><path codeLine="33" d="M378.311,310.376 C389.126,334.674 399.6682,358.3565 409.9152,381.3783 " fill="none" id="A&#241;oGrado-to-Semestre" style="stroke:#181818;stroke-width:1.0;"/><polygon fill="#181818" points="412.355,386.8598,412.3496,377.0109,410.3218,382.2919,405.0409,380.2641,412.355,386.8598" style="stroke:#181818;stroke-width:1.0;"/><text fill="#000000" font-family="sans-serif" font-size="13" lengthAdjust="spacing" textLength="38" x="398" y="353.0669">divide</text></g><!--SRC=[ZL1B2i8m4Dtt5BDKf1VeGkX2t1OymRGPoa2QI3w2Y8Vo35xC64EJOWMpIURDcpVlPP1eBHmD2Wst2iAfGUcfDvGA5kbnbgWErdd1saPe1oHfPDC-7tgpJH1Q7XMQDbxE6xIXTQ-g8Uxf2erv7MPkfwCQ937TEr9KYYL2gPcxlm9aHZ4LL9QfCI3VZlwATQA9h3EK3VY9p9fQ6FbihUlzyZSQS1p25kriiG5MW_HNgZ8MAMNuDTARCvjhGF251Rq0]--></g></svg>