<?xml version="1.0" encoding="UTF-8" standalone="no"?><svg xmlns="http://www.w3.org/2000/svg" xmlns:xlink="http://www.w3.org/1999/xlink" contentStyleType="text/css" height="373px" preserveAspectRatio="none" style="width:901px;height:373px;background:#FFFFFF;" version="1.1" viewBox="0 0 901 373" width="901px" zoomAndPan="magnify"><defs/><g><ellipse cx="447.5" cy="16" fill="#222222" rx="10" ry="10" style="stroke:none;stroke-width:1.0;"/><path d="M19.5,105 L875.5,105 A12.5,12.5 0 0 1 888,117.5 L888,134.0679 L7,134.0679 L7,117.5 A12.5,12.5 0 0 1 19.5,105 " fill="#F1F1F1" style="stroke:#F1F1F1;stroke-width:1.0;"/><rect fill="none" height="262.0679" rx="12.5" ry="12.5" style="stroke:#181818;stroke-width:0.5;" width="881" x="7" y="105"/><line style="stroke:#181818;stroke-width:0.5;" x1="7" x2="888" y1="134.0679" y2="134.0679"/><text fill="#000000" font-family="sans-serif" font-size="14" lengthAdjust="spacing" textLength="149" x="373" y="124.9659">UsuarioAdministrador</text><g id="UsuarioAdministrador.Activo"><rect fill="#F1F1F1" height="50" rx="12.5" ry="12.5" style="stroke:#181818;stroke-width:0.5;" width="60" x="584.5" y="220.0679"/><line style="stroke:#181818;stroke-width:0.5;" x1="584.5" x2="644.5" y1="249.1358" y2="249.1358"/><text fill="#000000" font-family="sans-serif" font-size="14" lengthAdjust="spacing" textLength="40" x="594.5" y="240.0339">Activo</text></g><g id="UsuarioAdministrador.GestionandoAdministradores"><rect fill="#F1F1F1" height="50" rx="12.5" ry="12.5" style="stroke:#181818;stroke-width:0.5;" width="217" x="19" y="307.0679"/><line style="stroke:#181818;stroke-width:0.5;" x1="19" x2="236" y1="336.1358" y2="336.1358"/><text fill="#000000" font-family="sans-serif" font-size="14" lengthAdjust="spacing" textLength="197" x="29" y="327.0339">GestionandoAdministradores</text></g><g id="UsuarioAdministrador.GestionandoEgresados"><rect fill="#F1F1F1" height="50" rx="12.5" ry="12.5" style="stroke:#181818;stroke-width:0.5;" width="175" x="254" y="307.0679"/><line style="stroke:#181818;stroke-width:0.5;" x1="254" x2="429" y1="336.1358" y2="336.1358"/><text fill="#000000" font-family="sans-serif" font-size="14" lengthAdjust="spacing" textLength="155" x="264" y="327.0339">GestionandoEgresados</text></g><ellipse cx="614.5" cy="155.0679" fill="#222222" rx="10" ry="10" style="stroke:none;stroke-width:1.0;"/><g id="UsuarioAdministrador.gestionandoServicio"><rect fill="#F1F1F1" height="50" rx="12.5" ry="12.5" style="stroke:#181818;stroke-width:0.5;" width="156" x="447.5" y="307.0679"/><line style="stroke:#181818;stroke-width:0.5;" x1="447.5" x2="603.5" y1="336.1358" y2="336.1358"/><text fill="#000000" font-family="sans-serif" font-size="14" lengthAdjust="spacing" textLength="136" x="457.5" y="327.0339">gestionandoServicio</text></g><g id="UsuarioAdministrador.gestionandoPaquetes"><rect fill="#F1F1F1" height="50" rx="12.5" ry="12.5" style="stroke:#181818;stroke-width:0.5;" width="166" x="621.5" y="307.0679"/><line style="stroke:#181818;stroke-width:0.5;" x1="621.5" x2="787.5" y1="336.1358" y2="336.1358"/><text fill="#000000" font-family="sans-serif" font-size="14" lengthAdjust="spacing" textLength="146" x="631.5" y="327.0339">gestionandoPaquetes</text></g><g id="UsuarioAdministrador.Inactivo"><rect fill="#F1F1F1" height="50" rx="12.5" ry="12.5" style="stroke:#181818;stroke-width:0.5;" width="73" x="806" y="307.0679"/><line style="stroke:#181818;stroke-width:0.5;" x1="806" x2="879" y1="336.1358" y2="336.1358"/><text fill="#000000" font-family="sans-serif" font-size="14" lengthAdjust="spacing" textLength="53" x="816" y="327.0339">Inactivo</text></g><!--MD5=[a9e523c4f45182dc442387e4899c064e]
link Activo to GestionandoAdministradores--><g id="link_Activo_GestionandoAdministradores"><path d="M584.22,250.6479 C520.97,260.3179 370.3,283.8079 244.5,307.0679 C243.84,307.1879 243.17,307.3179 242.51,307.4379 " fill="none" id="Activo-to-GestionandoAdministradores" style="stroke:#181818;stroke-width:1.0;"/><polygon fill="#181818" points="237.95,308.2979,247.5362,310.5574,242.8631,307.3696,246.0508,302.6965,237.95,308.2979" style="stroke:#181818;stroke-width:1.0;"/></g><!--MD5=[2d33df133a6788e92de109498e2d125b]
link Activo to GestionandoEgresados--><g id="link_Activo_GestionandoEgresados"><path d="M584.24,255.4879 C546.41,267.2679 480.09,287.9179 426.32,304.6579 " fill="none" id="Activo-to-GestionandoEgresados" style="stroke:#181818;stroke-width:1.0;"/><polygon fill="#181818" points="421.61,306.1279,431.3923,307.2714,426.3839,304.6414,429.0139,299.6331,421.61,306.1279" style="stroke:#181818;stroke-width:1.0;"/></g><!--MD5=[25a029f012134f4f08fdeb618a5daa5a]
link *start*UsuarioAdministrador to Activo--><g id="link_*start*UsuarioAdministrador_Activo"><path d="M614.5,165.4879 C614.5,176.9379 614.5,196.8279 614.5,213.7379 " fill="none" id="*start*UsuarioAdministrador-to-Activo" style="stroke:#181818;stroke-width:1.0;"/><polygon fill="#181818" points="614.5,218.2979,618.5,209.2979,614.5,213.2979,610.5,209.2979,614.5,218.2979" style="stroke:#181818;stroke-width:1.0;"/><text fill="#000000" font-family="sans-serif" font-size="13" lengthAdjust="spacing" textLength="154" x="615.5" y="197.9649">necesita gestionar Alumni</text></g><!--MD5=[83f43bca0ed9262c224886b235871c89]
link Activo to gestionandoServicio--><g id="link_Activo_gestionandoServicio"><path d="M589.23,270.1979 C578.8,280.1579 566.62,291.7979 555.72,302.2079 " fill="none" id="Activo-to-gestionandoServicio" style="stroke:#181818;stroke-width:1.0;"/><polygon fill="#181818" points="552.23,305.5379,561.4987,302.2075,555.8432,302.0818,555.9689,296.4263,552.23,305.5379" style="stroke:#181818;stroke-width:1.0;"/></g><!--MD5=[d1cc4e35c0adf13df338234d99d2d6d5]
link Activo to gestionandoPaquetes--><g id="link_Activo_gestionandoPaquetes"><path d="M640.05,270.1979 C650.6,280.1579 662.91,291.7979 673.94,302.2079 " fill="none" id="Activo-to-gestionandoPaquetes" style="stroke:#181818;stroke-width:1.0;"/><polygon fill="#181818" points="677.47,305.5479,673.6755,296.4594,673.8357,302.114,668.1811,302.2742,677.47,305.5479" style="stroke:#181818;stroke-width:1.0;"/></g><!--MD5=[8df34ad196b45bac8ef09d1b8acb2ffd]
link Activo to Inactivo--><g id="link_Activo_Inactivo"><path d="M644.91,256.6679 C679.97,267.7079 738.59,286.2679 787.5,307.0679 C791.55,308.7879 795.72,310.7279 799.89,312.7379 " fill="none" id="Activo-to-Inactivo" style="stroke:#181818;stroke-width:1.0;"/><polygon fill="#181818" points="804.2,314.8379,797.8809,307.2835,799.7108,312.6362,794.3582,314.4662,804.2,314.8379" style="stroke:#181818;stroke-width:1.0;"/></g><!--MD5=[37920d76d58517991f2287e51a43e675]
link Inactivo to Activo--><g id="link_Inactivo_Activo"><path d="M805.18,306.9279 C752.98,284.7579 689.84,265.1579 650.75,254.5079 " fill="none" id="Inactivo-to-Activo" style="stroke:#181818;stroke-width:1.0;"/><polygon fill="#181818" points="646.16,253.2779,653.8106,259.4801,650.9881,254.5778,655.8904,251.7552,646.16,253.2779" style="stroke:#181818;stroke-width:1.0;"/></g><!--MD5=[c5e937ee73908dbaeeb525312030971c]
link *start to UsuarioAdministrador--><g id="link_*start_UsuarioAdministrador"><path d="M447.5,26.37 C447.5,40.2 447.5,67.79 447.5,98.49 " fill="none" id="*start-to-UsuarioAdministrador" style="stroke:#181818;stroke-width:1.0;"/><polygon fill="#181818" points="447.5,103.15,451.5,94.15,447.5,98.15,443.5,94.15,447.5,103.15" style="stroke:#181818;stroke-width:1.0;"/><text fill="#000000" font-family="sans-serif" font-size="13" lengthAdjust="spacing" textLength="129" x="448.5" y="70.897">se crea administrador</text></g><!--MD5=[fbaba53bac34899fdb7d956004a89fc7]
@startuml
[*] - -> UsuarioAdministrador: se crea administrador



state UsuarioAdministrador{
Activo- ->GestionandoAdministradores
Activo- ->GestionandoEgresados
[*]- ->Activo: necesita gestionar Alumni
Activo- ->gestionandoServicio
Activo- ->gestionandoPaquetes 
Activo - -> Inactivo
Inactivo - -> Activo
}


@enduml

PlantUML version 1.2022.7(Mon Aug 22 19:01:30 CEST 2022)
(GPL source distribution)
Java Runtime: OpenJDK Runtime Environment
JVM: OpenJDK 64-Bit Server VM
Default Encoding: UTF-8
Language: es
Country: ES
--></g></svg>