<?xml version="1.0" encoding="UTF-8" standalone="no"?><svg xmlns="http://www.w3.org/2000/svg" xmlns:xlink="http://www.w3.org/1999/xlink" contentStyleType="text/css" height="391px" preserveAspectRatio="none" style="width:567px;height:391px;background:#FFFFFF;" version="1.1" viewBox="0 0 567 391" width="567px" zoomAndPan="magnify"><defs/><g><rect fill="none" height="29.0679" id="_title" style="stroke:none;stroke-width:1.0;" width="142" x="205.5" y="5"/><text fill="#000000" font-family="sans-serif" font-size="14" font-weight="bold" lengthAdjust="spacing" textLength="132" x="210.5" y="24.9659">Contexto Egresado</text><ellipse cx="294" cy="56.0679" fill="#222222" rx="10" ry="10" style="stroke:none;stroke-width:1.0;"/><rect fill="#F1F1F1" height="40" rx="12.5" ry="12.5" style="stroke:#181818;stroke-width:0.5;" width="120" x="441" y="127.0679"/><text fill="#000000" font-family="sans-serif" font-size="14" lengthAdjust="spacing" textLength="110" x="446" y="152.4999">INICIAR_SESIÓN</text><rect fill="#F1F1F1" height="40" rx="12.5" ry="12.5" style="stroke:#181818;stroke-width:0.5;" width="164" x="7" y="127.0679"/><text fill="#000000" font-family="sans-serif" font-size="14" lengthAdjust="spacing" textLength="154" x="12" y="152.4999">REGISTRAR_EGRESADO</text><rect fill="#F1F1F1" height="40" rx="12.5" ry="12.5" style="stroke:#181818;stroke-width:0.5;" width="56" x="266" y="246.0679"/><text fill="#000000" font-family="sans-serif" font-size="14" lengthAdjust="spacing" textLength="46" x="271" y="271.4999">INICIO</text><rect fill="#F1F1F1" height="40" rx="12.5" ry="12.5" style="stroke:#181818;stroke-width:0.5;" width="199" x="206.5" y="127.0679"/><text fill="#000000" font-family="sans-serif" font-size="14" lengthAdjust="spacing" textLength="189" x="211.5" y="152.4999">REGISTRO_EN_PLATAFORMA</text><ellipse cx="294" cy="375.0679" fill="none" rx="10" ry="10" style="stroke:#222222;stroke-width:1.0;"/><ellipse cx="294.5" cy="375.5679" fill="#222222" rx="6" ry="6" style="stroke:none;stroke-width:1.0;"/><!--MD5=[fffa5c9a6c2a3d9bbcf62492fefaaec1]
link *start to INICIAR_SESIÓN--><g id="link_*start_INICIAR_SESIÓN"><path d="M303.16,61.0079 C328.35,71.8379 400.07,102.6779 449.86,124.0779 " fill="none" id="*start-to-INICIAR_SESIÓN" style="stroke:#181818;stroke-width:1.0;"/><polygon fill="#181818" points="454.42,126.0379,447.7234,118.8161,449.8243,124.0683,444.572,126.1692,454.42,126.0379" style="stroke:#181818;stroke-width:1.0;"/></g><!--MD5=[ef2c9c3cadb6f7eb859a57fbfd2a6d8e]
link *start to REGISTRAR_EGRESADO--><g id="link_*start_REGISTRAR_EGRESADO"><path d="M284.93,61.0079 C259.98,71.8379 188.95,102.6779 139.65,124.0779 " fill="none" id="*start-to-REGISTRAR_EGRESADO" style="stroke:#181818;stroke-width:1.0;"/><polygon fill="#181818" points="135.14,126.0379,144.9884,126.1323,139.7283,124.0511,141.8095,118.791,135.14,126.0379" style="stroke:#181818;stroke-width:1.0;"/></g><!--MD5=[66837f7cee128dc6ca7363ed13e0752f]
link INICIAR_SESIÓN to INICIO--><g id="link_INICIAR_SESIÓN_INICIO"><path d="M466.82,167.3879 C428.29,189.1679 366.05,224.3479 327.72,246.0079 " fill="none" id="INICIAR_SESIÓN-to-INICIO" style="stroke:#181818;stroke-width:1.0;"/><polygon fill="#181818" points="323.56,248.3579,333.3642,247.4212,327.9152,245.9019,329.4345,240.4529,323.56,248.3579" style="stroke:#181818;stroke-width:1.0;"/><text fill="#000000" font-family="sans-serif" font-size="13" lengthAdjust="spacing" textLength="78" x="410" y="211.9649">Iniciar Sesión</text></g><!--MD5=[4eaddde1cee9389216769fe646f6a5a4]
link REGISTRAR_EGRESADO to INICIO--><g id="link_REGISTRAR_EGRESADO_INICIO"><path d="M122.85,167.3879 C160.9,189.0979 222.3,224.1479 260.28,245.8279 " fill="none" id="REGISTRAR_EGRESADO-to-INICIO" style="stroke:#181818;stroke-width:1.0;"/><polygon fill="#181818" points="264.4,248.1779,258.5563,240.25,260.0544,245.7049,254.5995,247.203,264.4,248.1779" style="stroke:#181818;stroke-width:1.0;"/><text fill="#000000" font-family="sans-serif" font-size="13" lengthAdjust="spacing" textLength="113" x="204" y="211.9649">Registrar Egresado</text></g><!--MD5=[9f7cb7c98776774a0feacc4e0a238581]
link REGISTRAR_EGRESADO to REGISTRO_EN_PLATAFORMA--><g id="link_REGISTRAR_EGRESADO_REGISTRO_EN_PLATAFORMA"><path d="M171.39,167.0679 C178.85,167.0679 189.48,167.0679 199.85,167.0679 " fill="none" id="REGISTRAR_EGRESADO-to-REGISTRO_EN_PLATAFORMA" style="stroke:#181818;stroke-width:1.0;"/><polygon fill="#181818" points="204.73,167.0679,195.73,163.0679,199.73,167.0679,195.73,171.0679,204.73,167.0679" style="stroke:#181818;stroke-width:1.0;"/></g><!--MD5=[3f13977e3dd3beaedee0ab82148c2c65]
reverse link REGISTRAR_EGRESADO to REGISTRO_EN_PLATAFORMA--><g id="link_REGISTRAR_EGRESADO_REGISTRO_EN_PLATAFORMA"><path d="M177.9,127.0679 C186.29,127.0679 196.7,127.0679 206.24,127.0679 " fill="none" id="REGISTRAR_EGRESADO-backto-REGISTRO_EN_PLATAFORMA" style="stroke:#181818;stroke-width:1.0;"/><polygon fill="#181818" points="172.9,127.0679,181.9,131.0679,177.9,127.0679,181.9,123.0679,172.9,127.0679" style="stroke:#181818;stroke-width:1.0;"/></g><!--MD5=[0876ba8a88d8bbcf732e506fae106d5c]
link INICIO to *end--><g id="link_INICIO_*end"><path d="M294,286.1979 C294,306.7579 294,339.0579 294,358.2379 " fill="none" id="INICIO-to-*end" style="stroke:#181818;stroke-width:1.0;"/><polygon fill="#181818" points="294,363.1479,298,354.1479,294,358.1479,290,354.1479,294,363.1479" style="stroke:#181818;stroke-width:1.0;"/><text fill="#000000" font-family="sans-serif" font-size="13" lengthAdjust="spacing" textLength="74" x="295" y="330.9649">Cerar Sesión</text></g><!--MD5=[ca509ad39c29527bc856f09d7bb3cfbf]
@startuml Contexto
title Contexto Egresado

skinparam {
    NoteBackgroundColor #whiteSmoke
    NoteBorderColor #green
    linetype polyline
}

hide empty description

[*] - -> INICIAR_SESIÓN
[*] - -> REGISTRAR_EGRESADO
INICIAR_SESIÓN - -> INICIO : Iniciar Sesión
REGISTRAR_EGRESADO - -> INICIO : Registrar Egresado

REGISTRAR_EGRESADO -> REGISTRO_EN_PLATAFORMA
REGISTRAR_EGRESADO <- REGISTRO_EN_PLATAFORMA

INICIO - -> [*] : Cerar Sesión

@enduml

PlantUML version 1.2022.7(Mon Aug 22 19:01:30 CEST 2022)
(GPL source distribution)
Java Runtime: OpenJDK Runtime Environment
JVM: OpenJDK 64-Bit Server VM
Default Encoding: UTF-8
Language: es
Country: ES
--></g></svg>