<?xml version="1.0" encoding="UTF-8" standalone="no"?><svg xmlns="http://www.w3.org/2000/svg" xmlns:xlink="http://www.w3.org/1999/xlink" contentStyleType="text/css" height="391px" preserveAspectRatio="none" style="width:641px;height:391px;background:#FFFFFF;" version="1.1" viewBox="0 0 641 391" width="641px" zoomAndPan="magnify"><defs/><g><rect fill="none" height="29.0679" id="_title" style="stroke:none;stroke-width:1.0;" width="131" x="248.25" y="5"/><text fill="#000000" font-family="sans-serif" font-size="14" font-weight="bold" lengthAdjust="spacing" textLength="121" x="253.25" y="24.9659">Contexto General</text><ellipse cx="67" cy="56.0679" fill="#222222" rx="10" ry="10" style="stroke:none;stroke-width:1.0;"/><rect fill="#F1F1F1" height="40" rx="12.5" ry="12.5" style="stroke:#181818;stroke-width:0.5;" width="120" x="7" y="127.0679"/><text fill="#000000" font-family="sans-serif" font-size="14" lengthAdjust="spacing" textLength="110" x="12" y="152.4999">INICIAR_SESIÓN</text><rect fill="#F1F1F1" height="40" rx="12.5" ry="12.5" style="stroke:#181818;stroke-width:0.5;" width="56" x="39" y="246.0679"/><text fill="#000000" font-family="sans-serif" font-size="14" lengthAdjust="spacing" textLength="46" x="44" y="271.4999">INICIO</text><rect fill="#F1F1F1" height="40" rx="12.5" ry="12.5" style="stroke:#181818;stroke-width:0.5;" width="81" x="130.5" y="246.0679"/><text fill="#000000" font-family="sans-serif" font-size="14" lengthAdjust="spacing" textLength="71" x="135.5" y="271.4999">SERVICIOS</text><rect fill="#F1F1F1" height="40" rx="12.5" ry="12.5" style="stroke:#181818;stroke-width:0.5;" width="145" x="490.5" y="246.0679"/><text fill="#000000" font-family="sans-serif" font-size="14" lengthAdjust="spacing" textLength="135" x="495.5" y="271.4999">REALIZAR_PETICION</text><rect fill="#F1F1F1" height="40" rx="12.5" ry="12.5" style="stroke:#181818;stroke-width:0.5;" width="209" x="246.5" y="246.0679"/><text fill="#000000" font-family="sans-serif" font-size="14" lengthAdjust="spacing" textLength="199" x="251.5" y="271.4999">LISTAR_SERVICIOS_PAQUETES</text><ellipse cx="67" cy="375.0679" fill="none" rx="10" ry="10" style="stroke:#222222;stroke-width:1.0;"/><ellipse cx="67.5" cy="375.5679" fill="#222222" rx="6" ry="6" style="stroke:none;stroke-width:1.0;"/><!--MD5=[fffa5c9a6c2a3d9bbcf62492fefaaec1]
link *start to INICIAR_SESIÓN--><g id="link_*start_INICIAR_SESIÓN"><path d="M67,66.2579 C67,78.9179 67,102.2079 67,120.3779 " fill="none" id="*start-to-INICIAR_SESIÓN" style="stroke:#181818;stroke-width:1.0;"/><polygon fill="#181818" points="67,125.2979,71,116.2979,67,120.2979,63,116.2979,67,125.2979" style="stroke:#181818;stroke-width:1.0;"/></g><!--MD5=[66837f7cee128dc6ca7363ed13e0752f]
link INICIAR_SESIÓN to INICIO--><g id="link_INICIAR_SESIÓN_INICIO"><path d="M67,167.3879 C67,187.0379 67,217.5879 67,239.2879 " fill="none" id="INICIAR_SESIÓN-to-INICIO" style="stroke:#181818;stroke-width:1.0;"/><polygon fill="#181818" points="67,244.2079,71,235.2079,67,239.2079,63,235.2079,67,244.2079" style="stroke:#181818;stroke-width:1.0;"/><text fill="#000000" font-family="sans-serif" font-size="13" lengthAdjust="spacing" textLength="78" x="68" y="211.9649">Iniciar Sesión</text></g><!--MD5=[0023349e8bcb5c519201d7e61fde61b3]
link INICIO to SERVICIOS--><g id="link_INICIO_SERVICIOS"><path d="M95.31,282.3979 C99.07,284.5679 101.67,286.0679 101.67,286.0679 C101.67,286.0679 114.01,286.0679 123.96,286.0679 " fill="none" id="INICIO-to-SERVICIOS" style="stroke:#181818;stroke-width:1.0;"/><polygon fill="#181818" points="128.78,286.0679,119.78,282.0679,123.78,286.0679,119.78,290.0679,128.78,286.0679" style="stroke:#181818;stroke-width:1.0;"/></g><!--MD5=[6edecfe94a264b0d01984fbd5538cd5d]
reverse link INICIO to SERVICIOS--><g id="link_INICIO_SERVICIOS"><path d="M100.65,246.6579 C101.3,246.2779 101.67,246.0679 101.67,246.0679 C101.67,246.0679 120.36,246.0679 130.29,246.0679 " fill="none" id="INICIO-backto-SERVICIOS" style="stroke:#181818;stroke-width:1.0;"/><polygon fill="#181818" points="96.62,248.9779,106.4166,247.9648,100.9559,246.488,102.4327,241.0273,96.62,248.9779" style="stroke:#181818;stroke-width:1.0;"/></g><!--MD5=[cec6fb6f7a41b3ce15b86fd92d6823fe]
link SERVICIOS to REALIZAR_PETICION--><g id="link_SERVICIOS_REALIZAR_PETICION"><path d="M201.76,245.6079 C220.42,233.1979 240.67,219.7379 240.67,219.7379 C240.67,219.7379 461.33,219.7379 461.33,219.7379 C461.33,219.7379 486.87,231.3679 512.34,242.9779 " fill="none" id="SERVICIOS-to-REALIZAR_PETICION" style="stroke:#181818;stroke-width:1.0;"/><polygon fill="#181818" points="516.73,244.9779,510.2006,237.6045,512.1806,242.9035,506.8816,244.8835,516.73,244.9779" style="stroke:#181818;stroke-width:1.0;"/></g><!--MD5=[af857b626d6d7c7b6caa245e35897e39]
reverse link SERVICIOS to REALIZAR_PETICION--><g id="link_SERVICIOS_REALIZAR_PETICION"><path d="M198.28,241.6979 C221.91,220.5779 252.33,193.3979 252.33,193.3979 C252.33,193.3979 449.67,193.3979 449.67,193.3979 C449.67,193.3979 497.61,224.1379 531.13,245.6279 " fill="none" id="SERVICIOS-backto-REALIZAR_PETICION" style="stroke:#181818;stroke-width:1.0;"/><polygon fill="#181818" points="194.78,244.8179,204.1577,241.8082,198.5099,241.4881,198.8301,235.8403,194.78,244.8179" style="stroke:#181818;stroke-width:1.0;"/></g><!--MD5=[9399d3659057db4482c981b7d5fd79c2]
link SERVICIOS to LISTAR_SERVICIOS_PAQUETES--><g id="link_SERVICIOS_LISTAR_SERVICIOS_PAQUETES"><path d="M211.69,279.6279 C222.39,283.1979 231,286.0679 231,286.0679 C231,286.0679 234.48,286.0679 239.77,286.0679 " fill="none" id="SERVICIOS-to-LISTAR_SERVICIOS_PAQUETES" style="stroke:#181818;stroke-width:1.0;"/><polygon fill="#181818" points="244.63,286.0679,235.63,282.0679,239.63,286.0679,235.63,290.0679,244.63,286.0679" style="stroke:#181818;stroke-width:1.0;"/></g><!--MD5=[be029a2c11d151fdfe3cbe275ca1959c]
reverse link SERVICIOS to LISTAR_SERVICIOS_PAQUETES--><g id="link_SERVICIOS_LISTAR_SERVICIOS_PAQUETES"><path d="M217.44,250.5879 C225.31,247.9679 231,246.0679 231,246.0679 C231,246.0679 237.46,246.0679 246.14,246.0679 " fill="none" id="SERVICIOS-backto-LISTAR_SERVICIOS_PAQUETES" style="stroke:#181818;stroke-width:1.0;"/><polygon fill="#181818" points="213.12,252.0279,222.9239,252.9677,217.862,250.4425,220.3872,245.3806,213.12,252.0279" style="stroke:#181818;stroke-width:1.0;"/></g><!--MD5=[0876ba8a88d8bbcf732e506fae106d5c]
link INICIO to *end--><g id="link_INICIO_*end"><path d="M67,286.1979 C67,306.7579 67,339.0579 67,358.2379 " fill="none" id="INICIO-to-*end" style="stroke:#181818;stroke-width:1.0;"/><polygon fill="#181818" points="67,363.1479,71,354.1479,67,358.1479,63,354.1479,67,363.1479" style="stroke:#181818;stroke-width:1.0;"/><text fill="#000000" font-family="sans-serif" font-size="13" lengthAdjust="spacing" textLength="74" x="68" y="330.9649">Cerar Sesión</text></g><!--MD5=[5c8a11841c6cb4f9caa82af919731663]
@startuml Contexto
title Contexto General

skinparam {
    NoteBackgroundColor #whiteSmoke
    NoteBorderColor #green
    linetype polyline
}

hide empty description

[*] - -> INICIAR_SESIÓN
INICIAR_SESIÓN - -> INICIO : Iniciar Sesión

INICIO -> SERVICIOS
INICIO <- SERVICIOS

SERVICIOS -> REALIZAR_PETICION
SERVICIOS <- REALIZAR_PETICION
SERVICIOS -> LISTAR_SERVICIOS_PAQUETES
SERVICIOS <- LISTAR_SERVICIOS_PAQUETES

INICIO - -> [*] : Cerar Sesión

@enduml

PlantUML version 1.2022.7(Mon Aug 22 19:01:30 CEST 2022)
(GPL source distribution)
Java Runtime: OpenJDK Runtime Environment
JVM: OpenJDK 64-Bit Server VM
Default Encoding: UTF-8
Language: es
Country: ES
--></g></svg>