<?xml version="1.0" encoding="UTF-8" standalone="no"?><svg xmlns="http://www.w3.org/2000/svg" xmlns:xlink="http://www.w3.org/1999/xlink" contentStyleType="text/css" height="286px" preserveAspectRatio="none" style="width:842px;height:286px;background:#FFFFFF;" version="1.1" viewBox="0 0 842 286" width="842px" zoomAndPan="magnify"><defs/><g><rect fill="#FFFFFF" height="29.0679" id="_title" style="stroke:none;stroke-width:1.0;" width="275" x="276.5" y="5"/><text fill="#000000" font-family="Arial" font-size="14" font-weight="bold" lengthAdjust="spacing" textLength="265" x="281.5" y="24.9659">Diagrama de Herramientas de Gestión</text><!--MD5=[44840bd34cdbd15f071b6d4cc7756401]
class HERRAMIENTA DE GESTIÓN--><g id="elem_HERRAMIENTA DE GESTIÓN"><rect codeLine="8" fill="#F1F1F1" height="124.2717" id="HERRAMIENTA DE GESTIÓN" rx="2.5" ry="2.5" style="stroke:#181818;stroke-width:0.5;" width="201" x="308" y="47.0679"/><ellipse cx="323" cy="63.0679" fill="#A9DCDF" rx="11" ry="11" style="stroke:#181818;stroke-width:1.0;"/><path d="M318.1719,68.8179 L321.5156,56.6304 L324.6563,56.6304 L328.0313,68.8179 L325.5625,68.8179 L324.8281,65.8023 L321.3125,65.8023 L320.5625,68.8179 L318.1719,68.8179 Z M322.5781,60.771 L321.8281,63.771 L324.3438,63.771 L323.625,60.771 Q323.4844,60.1929 323.3594,59.646 Q323.2344,59.0835 323.0938,58.5054 Q322.9844,59.0835 322.8438,59.646 Q322.7031,60.1929 322.5781,60.771 Z " fill="#000000"/><text fill="#000000" font-family="Arial" font-size="14" font-style="italic" lengthAdjust="spacing" textLength="169" x="337" y="68.4999">HERRAMIENTA DE GESTIÓN</text><line style="stroke:#181818;stroke-width:0.5;" x1="309" x2="508" y1="79.0679" y2="79.0679"/><text fill="#000000" font-family="Arial" font-size="14" lengthAdjust="spacing" textLength="37" x="314" y="98.0339">Crear</text><text fill="#000000" font-family="Arial" font-size="14" lengthAdjust="spacing" textLength="37" x="314" y="117.1018">Listar</text><text fill="#000000" font-family="Arial" font-size="14" lengthAdjust="spacing" textLength="40" x="314" y="136.1697">Editar</text><text fill="#000000" font-family="Arial" font-size="14" lengthAdjust="spacing" textLength="56" x="314" y="155.2376">Eliminar</text><line style="stroke:#181818;stroke-width:0.5;" x1="309" x2="508" y1="163.3396" y2="163.3396"/></g><!--MD5=[fe560de7215207f28cbdbf42460cdbde]
class GESTOR DE SERVICIO--><g id="elem_GESTOR DE SERVICIO"><rect codeLine="16" fill="#F1F1F1" height="48" id="GESTOR DE SERVICIO" rx="2.5" ry="2.5" style="stroke:#181818;stroke-width:0.5;" width="175" x="7" y="231.3379"/><ellipse cx="22" cy="247.3379" fill="#ADD1B2" rx="11" ry="11" style="stroke:#181818;stroke-width:1.0;"/><path d="M21.4688,254.2598 Q19.7188,254.2598 18.5781,253.5254 Q17.4531,252.7754 16.8906,251.4317 Q16.3438,250.0723 16.3438,248.2754 Q16.3438,246.2442 17,244.791 Q17.6563,243.3379 18.9375,242.5567 Q20.2188,241.7754 22.0938,241.7754 Q22.9844,241.7754 23.6563,241.9629 Q24.3281,242.1348 25.0156,242.4785 L24.2031,244.4942 Q23.5781,244.1817 23.0313,244.0567 Q22.5,243.9317 22.0156,243.9317 Q20.8438,243.9317 20.1406,244.4629 Q19.4375,244.9942 19.1406,245.9473 Q18.8438,246.9004 18.8438,248.166 Q18.8438,250.1817 19.5625,251.1504 Q20.2813,252.1035 21.875,252.1035 Q22.4688,252.1035 23.0938,251.9473 Q23.7188,251.791 24.5469,251.416 L24.5469,253.6348 Q23.8125,253.9473 23.0156,254.1035 Q22.2344,254.2598 21.4688,254.2598 Z " fill="#000000"/><text fill="#000000" font-family="Arial" font-size="14" lengthAdjust="spacing" textLength="143" x="36" y="252.7699">GESTOR DE SERVICIO</text><line style="stroke:#181818;stroke-width:0.5;" x1="8" x2="181" y1="263.3379" y2="263.3379"/><line style="stroke:#181818;stroke-width:0.5;" x1="8" x2="181" y1="271.3379" y2="271.3379"/></g><!--MD5=[8043f3b72564e0a68a379600221c9435]
class GESTOR DE USUARIO--><g id="elem_GESTOR DE USUARIO"><rect codeLine="20" fill="#F1F1F1" height="48" id="GESTOR DE USUARIO" rx="2.5" ry="2.5" style="stroke:#181818;stroke-width:0.5;" width="174" x="217.5" y="231.3379"/><ellipse cx="232.5" cy="247.3379" fill="#ADD1B2" rx="11" ry="11" style="stroke:#181818;stroke-width:1.0;"/><path d="M231.9688,254.2598 Q230.2188,254.2598 229.0781,253.5254 Q227.9531,252.7754 227.3906,251.4317 Q226.8438,250.0723 226.8438,248.2754 Q226.8438,246.2442 227.5,244.791 Q228.1563,243.3379 229.4375,242.5567 Q230.7188,241.7754 232.5938,241.7754 Q233.4844,241.7754 234.1563,241.9629 Q234.8281,242.1348 235.5156,242.4785 L234.7031,244.4942 Q234.0781,244.1817 233.5313,244.0567 Q233,243.9317 232.5156,243.9317 Q231.3438,243.9317 230.6406,244.4629 Q229.9375,244.9942 229.6406,245.9473 Q229.3438,246.9004 229.3438,248.166 Q229.3438,250.1817 230.0625,251.1504 Q230.7813,252.1035 232.375,252.1035 Q232.9688,252.1035 233.5938,251.9473 Q234.2188,251.791 235.0469,251.416 L235.0469,253.6348 Q234.3125,253.9473 233.5156,254.1035 Q232.7344,254.2598 231.9688,254.2598 Z " fill="#000000"/><text fill="#000000" font-family="Arial" font-size="14" lengthAdjust="spacing" textLength="142" x="246.5" y="252.7699">GESTOR DE USUARIO</text><line style="stroke:#181818;stroke-width:0.5;" x1="218.5" x2="390.5" y1="263.3379" y2="263.3379"/><line style="stroke:#181818;stroke-width:0.5;" x1="218.5" x2="390.5" y1="271.3379" y2="271.3379"/></g><!--MD5=[3af3cf3ff6d6ffcc50cee52cf04f0efa]
class GESTOR DE PAQUETE--><g id="elem_GESTOR DE PAQUETE"><rect codeLine="24" fill="#F1F1F1" height="48" id="GESTOR DE PAQUETE" rx="2.5" ry="2.5" style="stroke:#181818;stroke-width:0.5;" width="174" x="426.5" y="231.3379"/><ellipse cx="441.5" cy="247.3379" fill="#ADD1B2" rx="11" ry="11" style="stroke:#181818;stroke-width:1.0;"/><path d="M440.9688,254.2598 Q439.2188,254.2598 438.0781,253.5254 Q436.9531,252.7754 436.3906,251.4317 Q435.8438,250.0723 435.8438,248.2754 Q435.8438,246.2442 436.5,244.791 Q437.1563,243.3379 438.4375,242.5567 Q439.7188,241.7754 441.5938,241.7754 Q442.4844,241.7754 443.1563,241.9629 Q443.8281,242.1348 444.5156,242.4785 L443.7031,244.4942 Q443.0781,244.1817 442.5313,244.0567 Q442,243.9317 441.5156,243.9317 Q440.3438,243.9317 439.6406,244.4629 Q438.9375,244.9942 438.6406,245.9473 Q438.3438,246.9004 438.3438,248.166 Q438.3438,250.1817 439.0625,251.1504 Q439.7813,252.1035 441.375,252.1035 Q441.9688,252.1035 442.5938,251.9473 Q443.2188,251.791 444.0469,251.416 L444.0469,253.6348 Q443.3125,253.9473 442.5156,254.1035 Q441.7344,254.2598 440.9688,254.2598 Z " fill="#000000"/><text fill="#000000" font-family="Arial" font-size="14" lengthAdjust="spacing" textLength="142" x="455.5" y="252.7699">GESTOR DE PAQUETE</text><line style="stroke:#181818;stroke-width:0.5;" x1="427.5" x2="599.5" y1="263.3379" y2="263.3379"/><line style="stroke:#181818;stroke-width:0.5;" x1="427.5" x2="599.5" y1="271.3379" y2="271.3379"/></g><!--MD5=[b2607c4f226e6afd247dd569875e6c72]
class GESTOR DE ESTADÍSTICA--><g id="elem_GESTOR DE ESTADÍSTICA"><rect codeLine="28" fill="#F1F1F1" height="48" id="GESTOR DE ESTADÍSTICA" rx="2.5" ry="2.5" style="stroke:#181818;stroke-width:0.5;" width="199" x="636" y="231.3379"/><ellipse cx="651" cy="247.3379" fill="#ADD1B2" rx="11" ry="11" style="stroke:#181818;stroke-width:1.0;"/><path d="M650.4688,254.2598 Q648.7188,254.2598 647.5781,253.5254 Q646.4531,252.7754 645.8906,251.4317 Q645.3438,250.0723 645.3438,248.2754 Q645.3438,246.2442 646,244.791 Q646.6563,243.3379 647.9375,242.5567 Q649.2188,241.7754 651.0938,241.7754 Q651.9844,241.7754 652.6563,241.9629 Q653.3281,242.1348 654.0156,242.4785 L653.2031,244.4942 Q652.5781,244.1817 652.0313,244.0567 Q651.5,243.9317 651.0156,243.9317 Q649.8438,243.9317 649.1406,244.4629 Q648.4375,244.9942 648.1406,245.9473 Q647.8438,246.9004 647.8438,248.166 Q647.8438,250.1817 648.5625,251.1504 Q649.2813,252.1035 650.875,252.1035 Q651.4688,252.1035 652.0938,251.9473 Q652.7188,251.791 653.5469,251.416 L653.5469,253.6348 Q652.8125,253.9473 652.0156,254.1035 Q651.2344,254.2598 650.4688,254.2598 Z " fill="#000000"/><text fill="#000000" font-family="Arial" font-size="14" lengthAdjust="spacing" textLength="167" x="665" y="252.7699">GESTOR DE ESTADÍSTICA</text><line style="stroke:#181818;stroke-width:0.5;" x1="637" x2="834" y1="263.3379" y2="263.3379"/><line style="stroke:#181818;stroke-width:0.5;" x1="637" x2="834" y1="271.3379" y2="271.3379"/></g><!--MD5=[80dc7949c2e52b59aa55d880cfe91bda]
reverse link HERRAMIENTA DE GESTIÓN to GESTOR DE PAQUETE--><g id="link_HERRAMIENTA DE GESTIÓN_GESTOR DE PAQUETE"><path codeLine="32" d="M465.95,189.0679 C477.11,204.3879 487.97,219.2879 496.48,230.9779 " fill="none" id="HERRAMIENTA DE GESTIÓN-backto-GESTOR DE PAQUETE" style="stroke:#181818;stroke-width:1.0;"/><polygon fill="none" points="460.34,193.2579,454.23,172.9679,471.66,185.0179,460.34,193.2579" style="stroke:#181818;stroke-width:1.0;"/></g><!--MD5=[caab1e9f539b1739031d8c1273d3586b]
reverse link HERRAMIENTA DE GESTIÓN to GESTOR DE SERVICIO--><g id="link_HERRAMIENTA DE GESTIÓN_GESTOR DE SERVICIO"><path codeLine="33" d="M288.43,165.3179 C238.85,188.0779 184.05,213.2279 145.39,230.9779 " fill="none" id="HERRAMIENTA DE GESTIÓN-backto-GESTOR DE SERVICIO" style="stroke:#181818;stroke-width:1.0;"/><polygon fill="none" points="285.38,159.0179,306.48,157.0379,291.22,171.7379,285.38,159.0179" style="stroke:#181818;stroke-width:1.0;"/></g><!--MD5=[889986361b4337257fb28e3b366c12b1]
reverse link HERRAMIENTA DE GESTIÓN to GESTOR DE USUARIO--><g id="link_HERRAMIENTA DE GESTIÓN_GESTOR DE USUARIO"><path codeLine="34" d="M351.6,189.0679 C340.54,204.3879 329.79,219.2879 321.35,230.9779 " fill="none" id="HERRAMIENTA DE GESTIÓN-backto-GESTOR DE USUARIO" style="stroke:#181818;stroke-width:1.0;"/><polygon fill="none" points="345.83,185.0979,363.21,172.9779,357.18,193.2879,345.83,185.0979" style="stroke:#181818;stroke-width:1.0;"/></g><!--MD5=[ae43c0cceb320e70569413dba715cc5e]
reverse link HERRAMIENTA DE GESTIÓN to GESTOR DE ESTADÍSTICA--><g id="link_HERRAMIENTA DE GESTIÓN_GESTOR DE ESTADÍSTICA"><path codeLine="35" d="M528.8,163.2279 C581.67,186.5279 641.04,212.6979 682.53,230.9879 " fill="none" id="HERRAMIENTA DE GESTIÓN-backto-GESTOR DE ESTADÍSTICA" style="stroke:#181818;stroke-width:1.0;"/><polygon fill="none" points="526.14,169.7079,510.66,155.2379,531.79,156.8979,526.14,169.7079" style="stroke:#181818;stroke-width:1.0;"/></g><!--MD5=[6c1f402c01bc74c9d458cebdcbe89df8]
@startuml AumniToolManagement

title Diagrama de Herramientas de Gestión

'!theme amiga
skinparam backgroundColor white
skinparam defaultFontName Arial

abstract "HERRAMIENTA DE GESTIÓN" 
{
    Crear
    Listar
    Editar
    Eliminar
}

class "GESTOR DE SERVICIO"
{
}

class "GESTOR DE USUARIO"
{
}

class "GESTOR DE PAQUETE"
{
}

class "GESTOR DE ESTADÍSTICA"
{
}

"HERRAMIENTA DE GESTIÓN" <|- - "GESTOR DE PAQUETE" 
"HERRAMIENTA DE GESTIÓN" <|- - "GESTOR DE SERVICIO" 
"HERRAMIENTA DE GESTIÓN" <|- - "GESTOR DE USUARIO" 
"HERRAMIENTA DE GESTIÓN" <|- - "GESTOR DE ESTADÍSTICA"

@enduml

@startuml AumniToolManagement

title Diagrama de Herramientas de Gestión

skinparam backgroundColor white
skinparam defaultFontName Arial

abstract "HERRAMIENTA DE GESTIÓN" 
{
    Crear
    Listar
    Editar
    Eliminar
}

class "GESTOR DE SERVICIO"
{
}

class "GESTOR DE USUARIO"
{
}

class "GESTOR DE PAQUETE"
{
}

class "GESTOR DE ESTADÍSTICA"
{
}

"HERRAMIENTA DE GESTIÓN" <|- - "GESTOR DE PAQUETE" 
"HERRAMIENTA DE GESTIÓN" <|- - "GESTOR DE SERVICIO" 
"HERRAMIENTA DE GESTIÓN" <|- - "GESTOR DE USUARIO" 
"HERRAMIENTA DE GESTIÓN" <|- - "GESTOR DE ESTADÍSTICA"

@enduml

PlantUML version 1.2022.7(Mon Aug 22 19:01:30 CEST 2022)
(GPL source distribution)
Java Runtime: OpenJDK Runtime Environment
JVM: OpenJDK 64-Bit Server VM
Default Encoding: UTF-8
Language: es
Country: ES
--></g></svg>