<?xml version="1.0" encoding="UTF-8" standalone="no"?><svg xmlns="http://www.w3.org/2000/svg" xmlns:xlink="http://www.w3.org/1999/xlink" contentStyleType="text/css" height="1366px" preserveAspectRatio="none" style="width:1559px;height:1366px;background:#FFFFFF;" version="1.1" viewBox="0 0 1559 1366" width="1559px" zoomAndPan="magnify"><defs/><g><rect fill="none" height="29.0679" id="_title" style="stroke:none;stroke-width:1.0;" width="223" x="661.1026" y="5"/><text fill="#000000" font-family="sans-serif" font-size="14" font-weight="bold" lengthAdjust="spacing" textLength="213" x="666.1026" y="24.9659">Estructura de los Casos de Uso</text><!--MD5=[3558f5497e9d89aef061cf9bb7df249a]
cluster CRUDServicios--><g id="cluster_CRUDServicios"><path d="M739.65,1054.2779 L844.65,1054.2779 A3.75,3.75 0 0 1 847.15,1056.7779 L854.15,1079.3458 L932.85,1079.3458 A2.5,2.5 0 0 1 935.35,1081.8458 L935.35,1356.7779 A2.5,2.5 0 0 1 932.85,1359.2779 L739.65,1359.2779 A2.5,2.5 0 0 1 737.15,1356.7779 L737.15,1056.7779 A2.5,2.5 0 0 1 739.65,1054.2779 " fill="none" style="stroke:#000000;stroke-width:1.5;"/><line style="stroke:#000000;stroke-width:1.5;" x1="737.15" x2="854.15" y1="1079.3458" y2="1079.3458"/><text fill="#000000" font-family="sans-serif" font-size="14" font-weight="bold" lengthAdjust="spacing" textLength="104" x="741.15" y="1071.2439">CRUD Servicios</text></g><!--MD5=[3efe4913bb7606f0a928d99050ddabc6]
cluster CRUDEgresados--><g id="cluster_CRUDEgresados"><path d="M247.39,442.2779 L362.39,442.2779 A3.75,3.75 0 0 1 364.89,444.7779 L371.89,467.3458 L468.69,467.3458 A2.5,2.5 0 0 1 471.19,469.8458 L471.19,827.7779 A2.5,2.5 0 0 1 468.69,830.2779 L247.39,830.2779 A2.5,2.5 0 0 1 244.89,827.7779 L244.89,444.7779 A2.5,2.5 0 0 1 247.39,442.2779 " fill="none" style="stroke:#000000;stroke-width:1.5;"/><line style="stroke:#000000;stroke-width:1.5;" x1="244.89" x2="371.89" y1="467.3458" y2="467.3458"/><text fill="#000000" font-family="sans-serif" font-size="14" font-weight="bold" lengthAdjust="spacing" textLength="114" x="248.89" y="459.2439">CRUD Egresados</text></g><!--MD5=[6a030e930e55ab3fed80196992fe8282]
cluster CRUDPaquetes--><g id="cluster_CRUDPaquetes"><path d="M260.33,854.2779 L368.33,854.2779 A3.75,3.75 0 0 1 370.83,856.7779 L377.83,879.3458 L455.75,879.3458 A2.5,2.5 0 0 1 458.25,881.8458 L458.25,1156.7779 A2.5,2.5 0 0 1 455.75,1159.2779 L260.33,1159.2779 A2.5,2.5 0 0 1 257.83,1156.7779 L257.83,856.7779 A2.5,2.5 0 0 1 260.33,854.2779 " fill="none" style="stroke:#000000;stroke-width:1.5;"/><line style="stroke:#000000;stroke-width:1.5;" x1="257.83" x2="377.83" y1="879.3458" y2="879.3458"/><text fill="#000000" font-family="sans-serif" font-size="14" font-weight="bold" lengthAdjust="spacing" textLength="107" x="261.83" y="871.2439">CRUD Paquetes</text></g><g id="elem_Crear Servicio"><ellipse cx="836.2536" cy="1325.2746" fill="#F1F1F1" rx="76.3836" ry="17.6767" style="stroke:#181818;stroke-width:0.5;"/><text fill="#000000" font-family="sans-serif" font-size="14" lengthAdjust="spacing" textLength="93" x="786.7536" y="1330.0076">Crear Servicio</text></g><g id="elem_Listar Servicios"><ellipse cx="836.2485" cy="1110.2756" fill="#F1F1F1" rx="78.7885" ry="18.1577" style="stroke:#181818;stroke-width:0.5;"/><text fill="#000000" font-family="sans-serif" font-size="14" lengthAdjust="spacing" textLength="100" x="783.2485" y="1115.0086">Listar Servicios</text></g><g id="elem_Editar Servicio"><ellipse cx="836.2537" cy="1181.2786" fill="#F1F1F1" rx="77.4037" ry="17.8807" style="stroke:#181818;stroke-width:0.5;"/><text fill="#000000" font-family="sans-serif" font-size="14" lengthAdjust="spacing" textLength="96" x="785.2537" y="1186.0116">Editar Servicio</text></g><g id="elem_Eliminar Servicio"><ellipse cx="836.2493" cy="1253.2778" fill="#F1F1F1" rx="83.0993" ry="19.0199" style="stroke:#181818;stroke-width:0.5;"/><text fill="#000000" font-family="sans-serif" font-size="14" lengthAdjust="spacing" textLength="112" x="777.2493" y="1258.0108">Eliminar Servicio</text></g><g id="elem_Crear Egresado"><ellipse cx="358.0404" cy="796.278" fill="#F1F1F1" rx="80.2004" ry="18.4401" style="stroke:#181818;stroke-width:0.5;"/><text fill="#000000" font-family="sans-serif" font-size="14" lengthAdjust="spacing" textLength="104" x="303.0404" y="801.011">Crear Egresado</text></g><g id="elem_Listar Egresado"><ellipse cx="358.0404" cy="498.278" fill="#F1F1F1" rx="80.2004" ry="18.4401" style="stroke:#181818;stroke-width:0.5;"/><text fill="#000000" font-family="sans-serif" font-size="14" lengthAdjust="spacing" textLength="104" x="303.0404" y="503.011">Listar Egresado</text></g><g id="elem_Editar Egresado"><ellipse cx="358.0361" cy="570.2731" fill="#F1F1F1" rx="81.2761" ry="18.6552" style="stroke:#181818;stroke-width:0.5;"/><text fill="#000000" font-family="sans-serif" font-size="14" lengthAdjust="spacing" textLength="107" x="301.5361" y="575.0061">Editar Egresado</text></g><g id="elem_Eliminar Egresado"><ellipse cx="358.0427" cy="644.2745" fill="#F1F1F1" rx="87.2327" ry="19.8465" style="stroke:#181818;stroke-width:0.5;"/><text fill="#000000" font-family="sans-serif" font-size="14" lengthAdjust="spacing" textLength="123" x="293.5427" y="649.0074">Eliminar Egresado</text></g><g id="elem_Consultar Estadisticas"><ellipse cx="358.0383" cy="721.2776" fill="#F1F1F1" rx="97.1483" ry="21.8297" style="stroke:#181818;stroke-width:0.5;"/><text fill="#000000" font-family="sans-serif" font-size="14" lengthAdjust="spacing" textLength="148" x="281.0383" y="726.0105">Consultar Estadisticas</text></g><g id="elem_Crear Paquete"><ellipse cx="358.0437" cy="1054.2786" fill="#F1F1F1" rx="77.4037" ry="17.8807" style="stroke:#181818;stroke-width:0.5;"/><text fill="#000000" font-family="sans-serif" font-size="14" lengthAdjust="spacing" textLength="96" x="307.0437" y="1059.0116">Crear Paquete</text></g><g id="elem_Listar Paquete"><ellipse cx="358.0437" cy="1125.2786" fill="#F1F1F1" rx="77.4037" ry="17.8807" style="stroke:#181818;stroke-width:0.5;"/><text fill="#000000" font-family="sans-serif" font-size="14" lengthAdjust="spacing" textLength="96" x="307.0437" y="1130.0116">Listar Paquete</text></g><g id="elem_Editar Paquete"><ellipse cx="358.0397" cy="910.2759" fill="#F1F1F1" rx="78.4397" ry="18.0879" style="stroke:#181818;stroke-width:0.5;"/><text fill="#000000" font-family="sans-serif" font-size="14" lengthAdjust="spacing" textLength="99" x="305.5397" y="915.0088">Editar Paquete</text></g><g id="elem_Eliminar Paquete"><ellipse cx="358.0405" cy="982.28" fill="#F1F1F1" rx="84.2105" ry="19.2421" style="stroke:#181818;stroke-width:0.5;"/><text fill="#000000" font-family="sans-serif" font-size="14" lengthAdjust="spacing" textLength="115" x="297.5405" y="987.013">Eliminar Paquete</text></g><!--MD5=[886f27c4ce1bf6d1eb714be2c81d3749]
entity Egresado--><g id="elem_Egresado"><ellipse cx="358.04" cy="355.2479" fill="#F1F1F1" rx="8" ry="8" style="stroke:#181818;stroke-width:0.5;"/><path d="M358.04,363.2479 L358.04,390.2479 M345.04,371.2479 L371.04,371.2479 M358.04,390.2479 L345.04,405.2479 M358.04,390.2479 L371.04,405.2479 " fill="none" style="stroke:#181818;stroke-width:0.5;"/><text fill="#000000" font-family="sans-serif" font-size="14" lengthAdjust="spacing" textLength="63" x="326.54" y="421.7139">Egresado</text></g><!--MD5=[2e903384ba6a94be9c906ea46910cc3f]
entity Administrador--><g id="elem_Administrador"><ellipse cx="54.5" cy="809.2479" fill="#F1F1F1" rx="8" ry="8" style="stroke:#181818;stroke-width:0.5;"/><path d="M54.5,817.2479 L54.5,844.2479 M41.5,825.2479 L67.5,825.2479 M54.5,844.2479 L41.5,859.2479 M54.5,844.2479 L67.5,859.2479 " fill="none" style="stroke:#181818;stroke-width:0.5;"/><text fill="#000000" font-family="sans-serif" font-size="14" lengthAdjust="spacing" textLength="97" x="6" y="875.7139">Administrador</text></g><!--MD5=[19417cf465ec7225b3cd53ff9a44384c]
entity Tiempo--><g id="elem_Tiempo"><ellipse cx="54.5" cy="56.2479" fill="#F1F1F1" rx="8" ry="8" style="stroke:#181818;stroke-width:0.5;"/><path d="M54.5,64.2479 L54.5,91.2479 M41.5,72.2479 L67.5,72.2479 M54.5,91.2479 L41.5,106.2479 M54.5,91.2479 L67.5,106.2479 " fill="none" style="stroke:#181818;stroke-width:0.5;"/><text fill="#000000" font-family="sans-serif" font-size="14" lengthAdjust="spacing" textLength="50" x="29.5" y="122.7139">Tiempo</text></g><g id="elem_Realizar Petición"><ellipse cx="836.2518" cy="186.2743" fill="#F1F1F1" rx="82.7318" ry="18.9464" style="stroke:#181818;stroke-width:0.5;"/><text fill="#000000" font-family="sans-serif" font-size="14" lengthAdjust="spacing" textLength="111" x="777.7518" y="191.0072">Realizar Petición</text></g><g id="elem_Registro en Plataforma"><ellipse cx="836.2473" cy="624.2814" fill="#F1F1F1" rx="99.6173" ry="22.3235" style="stroke:#181818;stroke-width:0.5;"/><text fill="#000000" font-family="sans-serif" font-size="14" lengthAdjust="spacing" textLength="154" x="756.2473" y="629.0143">Registro en Plataforma</text></g><g id="elem_Cancelación de Cuenta"><ellipse cx="836.2473" cy="798.2814" fill="#F1F1F1" rx="99.6173" ry="22.3235" style="stroke:#181818;stroke-width:0.5;"/><text fill="#000000" font-family="sans-serif" font-size="14" lengthAdjust="spacing" textLength="154" x="756.2473" y="803.0143">Cancelación de Cuenta</text></g><g id="elem_Actualización de Datos de la Cuenta"><ellipse cx="836.2538" cy="711.2747" fill="#F1F1F1" rx="138.1838" ry="30.0368" style="stroke:#181818;stroke-width:0.5;"/><text fill="#000000" font-family="sans-serif" font-size="14" lengthAdjust="spacing" textLength="241" x="715.7538" y="714.7067">Actualización de Datos de la Cuenta</text></g><g id="elem_Listar Datos de la Cuenta"><ellipse cx="836.2486" cy="339.2756" fill="#F1F1F1" rx="105.4886" ry="23.4977" style="stroke:#181818;stroke-width:0.5;"/><text fill="#000000" font-family="sans-serif" font-size="14" lengthAdjust="spacing" textLength="168" x="749.2486" y="344.0086">Listar Datos de la Cuenta</text></g><g id="elem_Suscripción a Servicio / Paquete de Servicios"><ellipse cx="836.2548" cy="433.2809" fill="#F1F1F1" rx="165.1648" ry="35.433" style="stroke:#181818;stroke-width:0.5;"/><text fill="#000000" font-family="sans-serif" font-size="14" lengthAdjust="spacing" textLength="298" x="687.2548" y="436.7128">Suscripción a Servicio / Paquete de Servicios</text></g><g id="elem_Cancelación de Suscripción a Servicio / Paquete de Servicios"><ellipse cx="1336.8126" cy="886.2764" fill="#F1F1F1" rx="216.3926" ry="45.6785" style="stroke:#181818;stroke-width:0.5;"/><text fill="#000000" font-family="sans-serif" font-size="14" lengthAdjust="spacing" textLength="404" x="1134.8126" y="889.7084">Cancelación de Suscripción a Servicio / Paquete de Servicios</text></g><g id="elem_Listar Servicios / Paquetes de Servicios"><ellipse cx="836.2507" cy="535.2761" fill="#F1F1F1" rx="146.6407" ry="31.7281" style="stroke:#181818;stroke-width:0.5;"/><text fill="#000000" font-family="sans-serif" font-size="14" lengthAdjust="spacing" textLength="259" x="706.7507" y="538.708">Listar Servicios / Paquetes de Servicios</text></g><g id="elem_Eliminar Suscripción a Servicio / Paquete de Servicios"><ellipse cx="358.043" cy="87.2765" fill="#F1F1F1" rx="194.043" ry="41.2086" style="stroke:#181818;stroke-width:0.5;"/><text fill="#000000" font-family="sans-serif" font-size="14" lengthAdjust="spacing" textLength="358" x="179.043" y="90.7085">Eliminar Suscripción a Servicio / Paquete de Servicios</text></g><g id="elem_Consultar_Estadisticas"><ellipse cx="1336.8079" cy="186.2815" fill="#F1F1F1" rx="97.9679" ry="21.9936" style="stroke:#181818;stroke-width:0.5;"/><text fill="#000000" font-family="sans-serif" font-size="14" lengthAdjust="spacing" textLength="150" x="1258.8079" y="191.0145">Consultar_Estadisticas</text></g><!--MD5=[c3c47cad40e5695174e0e50470e08c10]
link Administrador to Crear Servicio--><g id="link_Administrador_Crear Servicio"><path d="M66.6,880.2879 C94.25,979.9379 164,1231.2779 164,1231.2779 C164,1231.2779 590.68,1291.0279 763.68,1315.2579 " fill="none" id="Administrador-to-Crear Servicio" style="stroke:#181818;stroke-width:1.0;"/><polygon fill="#181818" points="768.47,1315.9279,760.103,1310.7324,763.5172,1315.2428,759.0068,1318.657,768.47,1315.9279" style="stroke:#181818;stroke-width:1.0;"/></g><!--MD5=[5ef79b88bcd6df8fd01df01b07582278]
link Administrador to Listar Servicios--><g id="link_Administrador_Listar Servicios"><path d="M69.02,880.0379 C98.11,965.5479 164,1159.2779 164,1159.2779 C164,1159.2779 552.09,1159.2779 552.09,1159.2779 C552.09,1159.2779 682.02,1136.7979 765.85,1122.2879 " fill="none" id="Administrador-to-Listar Servicios" style="stroke:#181818;stroke-width:1.0;"/><polygon fill="#181818" points="770.56,1121.4679,761.0077,1119.0691,765.6339,1122.3246,762.3785,1126.9508,770.56,1121.4679" style="stroke:#181818;stroke-width:1.0;"/></g><!--MD5=[e84ee6232aaaa04a6fe6bb5c48256d2b]
link Administrador to Editar Servicio--><g id="link_Administrador_Editar Servicio"><path d="M68.47,880.1179 C90.53,947.8679 133,1078.2779 133,1078.2779 C133,1078.2779 164,1167.2779 164,1167.2779 C164,1167.2779 573.21,1175.8079 752.62,1179.5579 " fill="none" id="Administrador-to-Editar Servicio" style="stroke:#181818;stroke-width:1.0;"/><polygon fill="#181818" points="757.39,1179.6579,748.4838,1175.4533,752.3913,1179.5437,748.3009,1183.4512,757.39,1179.6579" style="stroke:#181818;stroke-width:1.0;"/></g><!--MD5=[868a0cbea05833b562bab3bcd133c982]
link Administrador to Eliminar Servicio--><g id="link_Administrador_Eliminar Servicio"><path d="M67.95,880.2879 C89.86,950.6679 133,1089.2779 133,1089.2779 C133,1089.2779 164,1183.2779 164,1183.2779 C164,1183.2779 574.73,1226.1079 753.61,1244.7679 " fill="none" id="Administrador-to-Eliminar Servicio" style="stroke:#181818;stroke-width:1.0;"/><polygon fill="#181818" points="758.37,1245.2579,749.8294,1240.3531,753.3965,1244.7434,749.0062,1248.3106,758.37,1245.2579" style="stroke:#181818;stroke-width:1.0;"/></g><!--MD5=[a93f01c194319dfb49e3355441268a94]
link Administrador to Crear Egresado--><g id="link_Administrador_Crear Egresado"><path d="M103.26,844.5879 C119.21,846.0279 133,847.2779 133,847.2779 C133,847.2779 134,847.2779 134,847.2779 C134,847.2779 227.67,825.8579 293.6,810.7879 " fill="none" id="Administrador-to-Crear Egresado" style="stroke:#181818;stroke-width:1.0;"/><polygon fill="#181818" points="298.42,809.6779,288.7559,807.7793,293.5452,810.7897,290.5348,815.579,298.42,809.6779" style="stroke:#181818;stroke-width:1.0;"/></g><!--MD5=[5c0273a74de74f95df81ec3eeaab63dd]
link Administrador to Listar Egresado--><g id="link_Administrador_Listar Egresado"><path d="M69.68,800.2779 C99.09,717.3279 164,534.2779 164,534.2779 C164,534.2779 232.83,521.4379 288.29,511.0979 " fill="none" id="Administrador-to-Listar Egresado" style="stroke:#181818;stroke-width:1.0;"/><polygon fill="#181818" points="293.15,510.1979,283.5702,507.9116,288.2343,511.1125,285.0335,515.7766,293.15,510.1979" style="stroke:#181818;stroke-width:1.0;"/></g><!--MD5=[dbcbc0ef6bf6d103d4816ad826883c25]
link Administrador to Editar Egresado--><g id="link_Administrador_Editar Egresado"><path d="M74.03,800.4879 C105.02,733.9379 164,607.2779 164,607.2779 C164,607.2779 232.61,594.1279 288.02,583.5079 " fill="none" id="Administrador-to-Editar Egresado" style="stroke:#181818;stroke-width:1.0;"/><polygon fill="#181818" points="292.88,582.5779,283.2875,580.3454,287.9696,583.52,284.7949,588.2021,292.88,582.5779" style="stroke:#181818;stroke-width:1.0;"/></g><!--MD5=[9a712af60ae8cd7b3120e34b06a9e7ed]
link Administrador to Eliminar Egresado--><g id="link_Administrador_Eliminar Egresado"><path d="M82.88,800.4079 C115.02,753.5979 164,682.2779 164,682.2779 C164,682.2779 229.83,669.3179 284.6,658.5379 " fill="none" id="Administrador-to-Eliminar Egresado" style="stroke:#181818;stroke-width:1.0;"/><polygon fill="#181818" points="289.39,657.5979,279.784,655.4245,284.4855,658.5702,281.3397,663.2717,289.39,657.5979" style="stroke:#181818;stroke-width:1.0;"/></g><!--MD5=[f7e95fb4e1b692b886a3e413815da830]
link Administrador to Consultar Estadisticas--><g id="link_Administrador_Consultar Estadisticas"><path d="M103.41,819.2879 C132.47,800.5279 164,777.2779 164,777.2779 C164,777.2779 250.88,759.7279 308.07,743.0379 " fill="none" id="Administrador-to-Consultar Estadisticas" style="stroke:#181818;stroke-width:1.0;"/><polygon fill="#181818" points="312.75,741.6479,302.9854,740.3626,307.955,743.0649,305.2526,748.0346,312.75,741.6479" style="stroke:#181818;stroke-width:1.0;"/></g><!--MD5=[f7e95fb4e1b692b886a3e413815da830]
link Administrador to Consultar Estadisticas--><g id="link_Administrador_Consultar Estadisticas"><path d="M91.03,800.3179 C122.67,772.7479 164,742.2779 164,742.2779 C164,742.2779 209.07,733.1679 255.66,725.7879 " fill="none" id="Administrador-to-Consultar Estadisticas-1" style="stroke:#181818;stroke-width:1.0;"/><polygon fill="#181818" points="260.44,725.0379,250.9308,722.4736,255.4998,725.8089,252.1645,730.3779,260.44,725.0379" style="stroke:#181818;stroke-width:1.0;"/></g><!--MD5=[6c2f37c2b3424f647322ddcc3b45f7d4]
link Administrador to Crear Paquete--><g id="link_Administrador_Crear Paquete"><path d="M79.58,880.0079 C111.54,932.7379 164,1019.2779 164,1019.2779 C164,1019.2779 233.91,1031.9579 289.59,1042.0479 " fill="none" id="Administrador-to-Crear Paquete" style="stroke:#181818;stroke-width:1.0;"/><polygon fill="#181818" points="294.47,1042.9379,286.335,1037.3862,289.5513,1042.0397,284.8979,1045.2561,294.47,1042.9379" style="stroke:#181818;stroke-width:1.0;"/></g><!--MD5=[7a2bf7fd7722348faae9965f407bcb34]
link Administrador to Listar Paquete--><g id="link_Administrador_Listar Paquete"><path d="M72.93,880.2879 C103.6,950.6679 164,1089.2779 164,1089.2779 C164,1089.2779 234.57,1102.4379 290.38,1112.8479 " fill="none" id="Administrador-to-Listar Paquete" style="stroke:#181818;stroke-width:1.0;"/><polygon fill="#181818" points="295.27,1113.7579,287.1535,1108.1792,290.3543,1112.8434,285.6902,1116.0443,295.27,1113.7579" style="stroke:#181818;stroke-width:1.0;"/></g><!--MD5=[a9d7abad8a4d656b57c3b3daebefe65c]
link Administrador to Editar Paquete--><g id="link_Administrador_Editar Paquete"><path d="M103.28,851.3679 C155.27,863.4379 238.57,882.7779 295.44,895.9779 " fill="none" id="Administrador-to-Editar Paquete" style="stroke:#181818;stroke-width:1.0;"/><polygon fill="#181818" points="300.08,897.0579,292.215,891.1299,295.209,895.9294,290.4094,898.9235,300.08,897.0579" style="stroke:#181818;stroke-width:1.0;"/></g><!--MD5=[f71c8a38419dd5fb211c82c893aaece2]
link Administrador to Eliminar Paquete--><g id="link_Administrador_Eliminar Paquete"><path d="M96.21,880.0479 C127,910.1279 164,946.2779 164,946.2779 C164,946.2779 230.46,958.6679 285.39,968.9179 " fill="none" id="Administrador-to-Eliminar Paquete" style="stroke:#181818;stroke-width:1.0;"/><polygon fill="#181818" points="290.2,969.8079,282.0992,964.2065,285.2869,968.8796,280.6138,972.0674,290.2,969.8079" style="stroke:#181818;stroke-width:1.0;"/></g><!--MD5=[d08544df0053c4cc895e366e4a0c15cf]
link Administrador to Realizar Petición--><g id="link_Administrador_Realizar Petición"><path d="M63.92,800.6079 C89.42,680.5479 164,329.2779 164,329.2779 C164,329.2779 582.09,212.2779 582.09,212.2779 C582.09,212.2779 679.78,202.2479 753.8,194.6479 " fill="none" id="Administrador-to-Realizar Petición" style="stroke:#181818;stroke-width:1.0;"/><polygon fill="#181818" points="758.47,194.1679,749.1062,191.1152,753.4965,194.6824,749.9294,199.0728,758.47,194.1679" style="stroke:#181818;stroke-width:1.0;"/></g><!--MD5=[8426604bda2913588765e14bdbd0d807]
link Egresado to Registro en Plataforma--><g id="link_Egresado_Registro en Plataforma"><path d="M389.63,398.6379 C444.06,420.6279 552.09,464.2779 552.09,464.2779 C552.09,464.2779 671.09,584.2779 671.09,584.2779 C671.09,584.2779 717.81,595.6579 761.41,606.2879 " fill="none" id="Egresado-to-Registro en Plataforma" style="stroke:#181818;stroke-width:1.0;"/><polygon fill="#181818" points="766.06,607.4179,758.2654,601.3976,761.2026,606.2321,756.3681,609.1694,766.06,607.4179" style="stroke:#181818;stroke-width:1.0;"/></g><!--MD5=[6fc14c47e73df4c791fb6589e5e9d7a3]
link Egresado to Cancelación de Cuenta--><g id="link_Egresado_Cancelación de Cuenta"><path d="M389.63,398.6379 C444.06,420.6279 552.09,464.2779 552.09,464.2779 C552.09,464.2779 582.09,636.2779 582.09,636.2779 C582.09,636.2779 671.09,759.2779 671.09,759.2779 C671.09,759.2779 717.16,770.2279 760.49,780.5179 " fill="none" id="Egresado-to-Cancelación de Cuenta" style="stroke:#181818;stroke-width:1.0;"/><polygon fill="#181818" points="765.11,781.6179,757.282,775.6411,760.2461,780.4592,755.428,783.4233,765.11,781.6179" style="stroke:#181818;stroke-width:1.0;"/></g><!--MD5=[9a798759383098f40366426e4cc25681]
link Egresado to Actualización de Datos de la Cuenta--><g id="link_Egresado_Actualización de Datos de la Cuenta"><path d="M389.63,398.6379 C444.06,420.6279 552.09,464.2779 552.09,464.2779 C552.09,464.2779 582.09,560.2779 582.09,560.2779 C582.09,560.2779 671.09,664.2779 671.09,664.2779 C671.09,664.2779 706.92,674.5379 745.1,685.4679 " fill="none" id="Egresado-to-Actualización de Datos de la Cuenta" style="stroke:#181818;stroke-width:1.0;"/><polygon fill="#181818" points="749.79,686.8079,742.2302,680.4953,744.9813,685.4381,740.0385,688.1892,749.79,686.8079" style="stroke:#181818;stroke-width:1.0;"/></g><!--MD5=[024f5e8e82769c9d95f6c9fbe08d941c]
link Egresado to Listar Datos de la Cuenta--><g id="link_Egresado_Listar Datos de la Cuenta"><path d="M389.92,383.2279 C458.02,376.5079 623.69,360.1579 732.64,349.4079 " fill="none" id="Egresado-to-Listar Datos de la Cuenta" style="stroke:#181818;stroke-width:1.0;"/><polygon fill="#181818" points="737.57,348.9179,728.2237,345.812,732.5937,349.4041,729.0016,353.7741,737.57,348.9179" style="stroke:#181818;stroke-width:1.0;"/></g><!--MD5=[7d6c2f27233e1a683505a9751f2431e0]
link Egresado to Suscripción a Servicio / Paquete de Servicios--><g id="link_Egresado_Suscripción a Servicio / Paquete de Servicios"><path d="M389.92,389.3279 C447.61,395.0179 575.34,407.6279 679.27,417.8879 " fill="none" id="Egresado-to-Suscripción a Servicio / Paquete de Servicios" style="stroke:#181818;stroke-width:1.0;"/><polygon fill="#181818" points="683.94,418.3479,675.3703,413.4941,678.9636,417.8631,674.5946,421.4564,683.94,418.3479" style="stroke:#181818;stroke-width:1.0;"/></g><!--MD5=[173058fa2fc76ff4827fceec93daab69]
link Egresado to Cancelación de Suscripción a Servicio / Paquete de Servicios--><g id="link_Egresado_Cancelación de Suscripción a Servicio / Paquete de Servicios"><path d="M389.82,377.5979 C468.54,355.3979 671.09,298.2779 671.09,298.2779 C671.09,298.2779 1001.42,298.2779 1001.42,298.2779 C1001.42,298.2779 1225.48,692.2779 1306.78,835.2379 " fill="none" id="Egresado-to-Cancelación de Suscripción a Servicio / Paquete de Servicios" style="stroke:#181818;stroke-width:1.0;"/><polygon fill="#181818" points="1309.1,839.3079,1308.1251,829.5074,1306.627,834.9623,1301.1721,833.4642,1309.1,839.3079" style="stroke:#181818;stroke-width:1.0;"/></g><!--MD5=[58e4cf5416d9a429023adf5eec354dd0]
link Egresado to Listar Servicios / Paquetes de Servicios--><g id="link_Egresado_Listar Servicios / Paquetes de Servicios"><path d="M389.82,396.1379 C468.54,421.3679 671.09,486.2779 671.09,486.2779 C671.09,486.2779 705.51,496.5579 742.83,507.6879 " fill="none" id="Egresado-to-Listar Servicios / Paquetes de Servicios" style="stroke:#181818;stroke-width:1.0;"/><polygon fill="#181818" points="747.39,509.0579,739.9102,502.6507,742.5989,507.6277,737.6219,510.3165,747.39,509.0579" style="stroke:#181818;stroke-width:1.0;"/></g><!--MD5=[ba6585a4adf4e0976f9f073972a0f16a]
link Egresado to Realizar Petición--><g id="link_Egresado_Realizar Petición"><path d="M389.59,366.8279 C450.67,327.9379 582.09,244.2779 582.09,244.2779 C582.09,244.2779 695.29,218.3379 770.3,201.1579 " fill="none" id="Egresado-to-Realizar Petición" style="stroke:#181818;stroke-width:1.0;"/><polygon fill="#181818" points="775.06,200.0679,765.3894,198.2024,770.189,201.1964,767.195,205.996,775.06,200.0679" style="stroke:#181818;stroke-width:1.0;"/></g><!--MD5=[002d1e4aed05dc3a430bb46214b4b5a2]
link Tiempo to Eliminar Suscripción a Servicio / Paquete de Servicios--><g id="link_Tiempo_Eliminar Suscripción a Servicio / Paquete de Servicios"><path d="M79.92,87.2779 C98.65,87.2779 126.48,87.2779 157.37,87.2779 " fill="none" id="Tiempo-to-Eliminar Suscripción a Servicio / Paquete de Servicios" style="stroke:#181818;stroke-width:1.0;"/><polygon fill="#181818" points="162.08,87.2779,153.08,83.2779,157.08,87.2779,153.08,91.2779,162.08,87.2779" style="stroke:#181818;stroke-width:1.0;"/></g><!--MD5=[7208cabdac02d8e0ab3097f6e5b7978c]
link Realizar Petición to Consultar_Estadisticas--><g id="link_Realizar Petición_Consultar_Estadisticas"><path d="M919.3,186.2779 C1004.95,186.2779 1139.5,186.2779 1232.37,186.2779 " fill="none" id="Realizar Petición-to-Consultar_Estadisticas" style="stroke:#181818;stroke-width:1.0;"/><polygon fill="#181818" points="1237.2,186.2779,1228.2,182.2779,1232.2,186.2779,1228.2,190.2779,1237.2,186.2779" style="stroke:#181818;stroke-width:1.0;"/><text fill="#000000" font-family="sans-serif" font-size="13" lengthAdjust="spacing" textLength="57" x="1032.42" y="182.1749">«include»</text></g><!--MD5=[8363e1701310611f5f8ffcf838c0a5a2]
link Eliminar Egresado to Cancelación de Cuenta--><g id="link_Eliminar Egresado_Cancelación de Cuenta"><path d="M425.21,657.2979 C481.09,668.2979 552.09,682.2779 552.09,682.2779 C552.09,682.2779 582.09,798.2779 582.09,798.2779 C582.09,798.2779 660.47,798.2779 730.01,798.2779 " fill="none" id="Eliminar Egresado-to-Cancelación de Cuenta" style="stroke:#181818;stroke-width:1.0;"/><polygon fill="#181818" points="734.77,798.2779,725.77,794.2779,729.77,798.2779,725.77,802.2779,734.77,798.2779" style="stroke:#181818;stroke-width:1.0;"/><text fill="#000000" font-family="sans-serif" font-size="13" lengthAdjust="spacing" textLength="57" x="583.09" y="794.1749">«include»</text></g><!--MD5=[8371732b0577795bfb2e8cfb607e8119]
link Cancelación de Cuenta to Cancelación de Suscripción a Servicio / Paquete de Servicios--><g id="link_Cancelación de Cuenta_Cancelación de Suscripción a Servicio / Paquete de Servicios"><path d="M915.7,812.1279 C981.91,823.8079 1079.11,840.9679 1163.34,855.8379 " fill="none" id="Cancelación de Cuenta-to-Cancelación de Suscripción a Servicio / Paquete de Servicios" style="stroke:#181818;stroke-width:1.0;"/><polygon fill="#181818" points="1168.14,856.6879,1159.9585,851.205,1163.2139,855.8312,1158.5877,859.0867,1168.14,856.6879" style="stroke:#181818;stroke-width:1.0;"/><text fill="#000000" font-family="sans-serif" font-size="13" lengthAdjust="spacing" textLength="57" x="1032.42" y="831.1749">«include»</text></g><!--MD5=[17510928cd8b3b118e050e839fd22ac8]
link Eliminar Paquete to Listar Servicios--><g id="link_Eliminar Paquete_Listar Servicios"><path d="M423.86,994.6979 C479.94,1005.4479 552.09,1019.2779 552.09,1019.2779 C552.09,1019.2779 701.23,1067.2079 783.04,1093.4979 " fill="none" id="Eliminar Paquete-to-Listar Servicios" style="stroke:#181818;stroke-width:1.0;"/><polygon fill="#181818" points="787.37,1094.8879,780.0251,1088.3264,782.6097,1093.3583,777.5778,1095.9429,787.37,1094.8879" style="stroke:#181818;stroke-width:1.0;"/><text fill="#000000" font-family="sans-serif" font-size="13" lengthAdjust="spacing" textLength="57" x="583.09" y="1027.1749">«include»</text></g><!--MD5=[4990cfd4103bdb6675135a7e650eae7a]
link Eliminar Paquete to Cancelación de Suscripción a Servicio / Paquete de Servicios--><g id="link_Eliminar Paquete_Cancelación de Suscripción a Servicio / Paquete de Servicios"><path d="M437.23,975.3479 C520.7,967.9479 641.09,957.2779 641.09,957.2779 C641.09,957.2779 929.83,927.7679 1135.02,906.7979 " fill="none" id="Eliminar Paquete-to-Cancelación de Suscripción a Servicio / Paquete de Servicios" style="stroke:#181818;stroke-width:1.0;"/><polygon fill="#181818" points="1139.86,906.3079,1130.5058,903.226,1134.885,906.8068,1131.3041,911.186,1139.86,906.3079" style="stroke:#181818;stroke-width:1.0;"/><text fill="#000000" font-family="sans-serif" font-size="13" lengthAdjust="spacing" textLength="57" x="807.75" y="917.1749">«include»</text></g><!--MD5=[b18c439dc9001869cd9851fe8db9c5de]
link Editar Paquete to Listar Servicios--><g id="link_Editar Paquete_Listar Servicios"><path d="M420.92,921.4979 C477.38,931.7379 552.09,945.2779 552.09,945.2779 C552.09,945.2779 671.09,1022.2779 671.09,1022.2779 C671.09,1022.2779 749.72,1064.4279 798.14,1090.3879 " fill="none" id="Editar Paquete-to-Listar Servicios" style="stroke:#181818;stroke-width:1.0;"/><polygon fill="#181818" points="802.26,1092.5979,796.2051,1084.8302,797.8494,1090.2428,792.4368,1091.8871,802.26,1092.5979" style="stroke:#181818;stroke-width:1.0;"/><text fill="#000000" font-family="sans-serif" font-size="13" lengthAdjust="spacing" textLength="57" x="583.09" y="962.1749">«include»</text></g><!--MD5=[222c17cb36e7b8806e8eb46c43c4da3d]
link Crear Paquete to Listar Servicios--><g id="link_Crear Paquete_Listar Servicios"><path d="M424.76,1063.7079 C490.55,1073.1479 582.09,1086.2779 582.09,1086.2779 C582.09,1086.2779 682.19,1095.7679 756.5,1102.8079 " fill="none" id="Crear Paquete-to-Listar Servicios" style="stroke:#181818;stroke-width:1.0;"/><polygon fill="#181818" points="761.2,1103.2579,752.6178,1098.4261,756.2223,1102.7859,751.8626,1106.3904,761.2,1103.2579" style="stroke:#181818;stroke-width:1.0;"/><text fill="#000000" font-family="sans-serif" font-size="13" lengthAdjust="spacing" textLength="57" x="583.09" y="1082.1749">«include»</text></g><!--MD5=[d368ca4efed4b3e4862d2fe40637ffae]
link Eliminar Servicio to Cancelación de Suscripción a Servicio / Paquete de Servicios--><g id="link_Eliminar Servicio_Cancelación de Suscripción a Servicio / Paquete de Servicios"><path d="M896.52,1239.9179 C943.54,1229.3179 1001.42,1216.2779 1001.42,1216.2779 C1001.42,1216.2779 1192.81,1027.3979 1286,935.4279 " fill="none" id="Eliminar Servicio-to-Cancelación de Suscripción a Servicio / Paquete de Servicios" style="stroke:#181818;stroke-width:1.0;"/><polygon fill="#181818" points="1289.29,932.1879,1280.0764,935.6677,1285.7331,935.702,1285.6988,941.3587,1289.29,932.1879" style="stroke:#181818;stroke-width:1.0;"/><text fill="#000000" font-family="sans-serif" font-size="13" lengthAdjust="spacing" textLength="57" x="1032.42" y="1133.1749">«include»</text></g><!--MD5=[3f4e27def300afa950177484cf33dd6e]
@startuml Estructura

title Estructura de los Casos de Uso

skinparam {
    NoteBackgroundColor #whiteSmoke
    NoteBorderColor #green
    linetype polyline
}

left to right direction

actor Egresado
actor Administrador
actor Tiempo

folder "CRUD Servicios" as CRUDServicios {
    Administrador - -> (Crear Servicio)
    Administrador - -> (Listar Servicios)
    Administrador - -> (Editar Servicio)
    Administrador - -> (Eliminar Servicio)
}

folder "CRUD Egresados" as CRUDEgresados {
    Administrador - -> (Crear Egresado)
    Administrador - -> (Listar Egresado)
    Administrador - -> (Editar Egresado)
    Administrador - -> (Eliminar Egresado)
    Administrador - -> (Consultar Estadisticas)
}

folder "CRUD Paquetes" as CRUDPaquetes {
    Administrador - -> (Crear Paquete)
    Administrador - -> (Listar Paquete)
    Administrador - -> (Editar Paquete)
    Administrador - -> (Eliminar Paquete)
}

Administrador - -> (Realizar Petición)
Administrador - -> (Consultar Estadisticas)

Egresado - -> (Registro en Plataforma)
Egresado - -> (Cancelación de Cuenta)
Egresado - -> (Actualización de Datos de la Cuenta)
Egresado - -> (Listar Datos de la Cuenta)
Egresado - -> (Suscripción a Servicio / Paquete de Servicios)
Egresado - -> (Cancelación de Suscripción a Servicio / Paquete de Servicios)
Egresado - -> (Listar Servicios / Paquetes de Servicios)
Egresado - -> (Realizar Petición)

Tiempo - -> (Eliminar Suscripción a Servicio / Paquete de Servicios)

(Realizar Petición) - -> (Consultar_Estadisticas) : <<include>>
(Eliminar Egresado) - -> (Cancelación de Cuenta) : <<include>>
(Cancelación de Cuenta) - -> (Cancelación de Suscripción a Servicio / Paquete de Servicios) : <<include>>
(Eliminar Paquete) - -> (Listar Servicios) : <<include>>
(Eliminar Paquete) - -> (Cancelación de Suscripción a Servicio / Paquete de Servicios) : <<include>>
(Editar Paquete) - -> (Listar Servicios) : <<include>>
(Crear Paquete) - -> (Listar Servicios) : <<include>>
(Eliminar Servicio) - -> (Cancelación de Suscripción a Servicio / Paquete de Servicios) : <<include>>

@enduml

PlantUML version 1.2022.7(Mon Aug 22 19:01:30 CEST 2022)
(GPL source distribution)
Java Runtime: OpenJDK Runtime Environment
JVM: OpenJDK 64-Bit Server VM
Default Encoding: UTF-8
Language: es
Country: ES
--></g></svg>