<?xml version="1.0" encoding="UTF-8" standalone="no"?><svg xmlns="http://www.w3.org/2000/svg" xmlns:xlink="http://www.w3.org/1999/xlink" contentStyleType="text/css" height="618px" preserveAspectRatio="none" style="width:481px;height:618px;background:#FFFFFF;" version="1.1" viewBox="0 0 481 618" width="481px" zoomAndPan="magnify"><defs/><g><rect fill="none" height="29.0679" id="_title" style="stroke:none;stroke-width:1.0;" width="203" x="129" y="5"/><text fill="#000000" font-family="sans-serif" font-size="14" font-weight="bold" lengthAdjust="spacing" textLength="193" x="134" y="24.9659">Listar Paquetes de Servicios</text><rect fill="#F1F1F1" height="40" rx="12.5" ry="12.5" style="stroke:#181818;stroke-width:0.5;" width="147" x="164" y="47.0679"/><text fill="#000000" font-family="sans-serif" font-size="14" lengthAdjust="spacing" textLength="137" x="169" y="72.4999">GESTIÓN_PAQUETES</text><rect fill="#F1F1F1" height="40" rx="12.5" ry="12.5" style="stroke:#181818;stroke-width:0.5;" width="147" x="164" y="572.1379"/><text fill="#000000" font-family="sans-serif" font-size="14" lengthAdjust="spacing" textLength="137" x="169" y="597.5699">GESTIÓN_PAQUETES</text><path d="M19.5,202.0679 L455.5,202.0679 A12.5,12.5 0 0 1 468,214.5679 L468,231.1358 L7,231.1358 L7,214.5679 A12.5,12.5 0 0 1 19.5,202.0679 " fill="#F1F1F1" style="stroke:#F1F1F1;stroke-width:1.0;"/><rect fill="none" height="309.0679" rx="12.5" ry="12.5" style="stroke:#181818;stroke-width:0.5;" width="461" x="7" y="202.0679"/><line style="stroke:#181818;stroke-width:0.5;" x1="7" x2="468" y1="231.1358" y2="231.1358"/><text fill="#000000" font-family="sans-serif" font-size="14" lengthAdjust="spacing" textLength="176" x="149.5" y="222.0339">ListarPaquetesDeServicios</text><rect fill="#F1F1F1" height="40" rx="12.5" ry="12.5" style="stroke:#181818;stroke-width:0.5;" width="50" x="19" y="342.6358"/><text fill="#000000" font-family="sans-serif" font-size="14" lengthAdjust="spacing" textLength="4" x="42" y="368.0678"> </text><ellipse cx="173" cy="252.1358" fill="#222222" rx="10" ry="10" style="stroke:none;stroke-width:1.0;"/><ellipse cx="173" cy="491.1358" fill="none" rx="10" ry="10" style="stroke:#222222;stroke-width:1.0;"/><ellipse cx="173.5" cy="491.6358" fill="#222222" rx="6" ry="6" style="stroke:none;stroke-width:1.0;"/><!--MD5=[ca28b516f35559a34ed03b5b067ea232]
link *start*ListarPaquetesDeServicios to *end*ListarPaquetesDeServicios--><g id="link_*start*ListarPaquetesDeServicios_*end*ListarPaquetesDeServicios"><path d="M182.74,255.3458 C211.16,261.7958 292,280.1358 292,280.1358 C292,280.1358 292,463.1358 292,463.1358 C292,463.1358 221.54,479.1258 189.05,486.4958 " fill="none" id="*start*ListarPaquetesDeServicios-to-*end*ListarPaquetesDeServicios" style="stroke:#008000;stroke-width:1.0;"/><polygon fill="#008000" points="184.21,487.5958,193.8741,489.4944,189.0848,486.484,192.0952,481.6947,184.21,487.5958" style="stroke:#008000;stroke-width:1.0;"/><path d="M297,340.1358 L297,385.1358 L459,385.1358 L459,350.1358 L449,340.1358 L297,340.1358 " fill="#F5F5F5" style="stroke:#181818;stroke-width:0.5;"/><path d="M449,340.1358 L449,350.1358 L459,350.1358 L449,340.1358 " fill="#F5F5F5" style="stroke:#181818;stroke-width:0.5;"/><text fill="#000000" font-family="sans-serif" font-size="13" font-weight="bold" lengthAdjust="spacing" textLength="110" x="303" y="359.0328">Sistema Muestra</text><ellipse cx="308.5" cy="373.0479" fill="#000000" rx="2.5" ry="2.5" style="stroke:#000000;stroke-width:0.0;"/><text fill="#000000" font-family="sans-serif" font-size="13" lengthAdjust="spacing" textLength="129" x="315" y="376.7389">Paquetes de Servicios</text></g><!--MD5=[ba1d7acfa79cde0ff0d2d1e78773288d]
link *start*ListarPaquetesDeServicios to 2--><g id="link_*start*ListarPaquetesDeServicios_2"><path d="M163.26,255.3458 C134.84,261.7958 54,280.1358 54,280.1358 C54,280.1358 50.06,312.2258 47.13,336.1358 " fill="none" id="*start*ListarPaquetesDeServicios-to-2" style="stroke:#FF0000;stroke-width:1.0;"/><polygon fill="#FF0000" points="46.55,340.8158,51.6025,332.3617,47.1508,335.8521,43.6604,331.4004,46.55,340.8158" style="stroke:#FF0000;stroke-width:1.0;"/><path d="M59,285.1358 L59,312.1358 L287,312.1358 L287,295.1358 L277,285.1358 L59,285.1358 " fill="#F5F5F5" style="stroke:#181818;stroke-width:0.5;"/><path d="M277,285.1358 L277,295.1358 L287,295.1358 L277,285.1358 " fill="#F5F5F5" style="stroke:#181818;stroke-width:0.5;"/><text fill="#000000" font-family="sans-serif" font-size="13" lengthAdjust="spacing" textLength="207" x="65" y="304.0328">Error al listar paquetes de Servicios</text></g><!--MD5=[144c75362ad1a9f4bf77ded81422a431]
link 2 to *end*ListarPaquetesDeServicios--><g id="link_2_*end*ListarPaquetesDeServicios"><path d="M43.13,383.0258 C42.59,395.0158 42,408.1358 42,408.1358 C42,408.1358 42,463.1358 42,463.1358 C42,463.1358 122.37,479.7058 157.21,486.8858 " fill="none" id="2-to-*end*ListarPaquetesDeServicios" style="stroke:#FF0000;stroke-width:1.0;"/><polygon fill="#FF0000" points="161.67,487.8058,153.6676,482.0646,156.7738,486.7923,152.046,489.8985,161.67,487.8058" style="stroke:#FF0000;stroke-width:1.0;"/><path d="M47,413.1358 L47,458.1358 L287,458.1358 L287,423.1358 L277,413.1358 L47,413.1358 " fill="#F5F5F5" style="stroke:#181818;stroke-width:0.5;"/><path d="M277,413.1358 L277,423.1358 L287,423.1358 L277,413.1358 " fill="#F5F5F5" style="stroke:#181818;stroke-width:0.5;"/><text fill="#000000" font-family="sans-serif" font-size="13" font-weight="bold" lengthAdjust="spacing" textLength="110" x="53" y="432.0328">Sistema Muestra</text><ellipse cx="58.5" cy="446.0479" fill="#000000" rx="2.5" ry="2.5" style="stroke:#000000;stroke-width:0.0;"/><text fill="#000000" font-family="sans-serif" font-size="13" lengthAdjust="spacing" textLength="207" x="65" y="449.7389">Error al listar Paquetes de Servicios</text></g><!--MD5=[3246e95ff8ad35dc32dbb49f193aba99]
link startState to ListarPaquetesDeServicios--><g id="link_startState_ListarPaquetesDeServicios"><path d="M237.5,87.3779 C237.5,110.6079 237.5,151.8979 237.5,195.2379 " fill="none" id="startState-to-ListarPaquetesDeServicios" style="stroke:#008000;stroke-width:1.0;"/><polygon fill="#008000" points="237.5,200.1279,241.5,191.1279,237.5,195.1279,233.5,191.1279,237.5,200.1279" style="stroke:#008000;stroke-width:1.0;"/><path d="M242.5,122.0679 L242.5,167.0679 L440.5,167.0679 L440.5,132.0679 L430.5,122.0679 L242.5,122.0679 " fill="#F5F5F5" style="stroke:#181818;stroke-width:0.5;"/><path d="M430.5,122.0679 L430.5,132.0679 L440.5,132.0679 L430.5,122.0679 " fill="#F5F5F5" style="stroke:#181818;stroke-width:0.5;"/><text fill="#000000" font-family="sans-serif" font-size="13" font-weight="bold" lengthAdjust="spacing" textLength="146" x="248.5" y="140.9649">Administrador Solicita</text><ellipse cx="254" cy="154.9799" fill="#000000" rx="2.5" ry="2.5" style="stroke:#000000;stroke-width:0.0;"/><text fill="#000000" font-family="sans-serif" font-size="13" lengthAdjust="spacing" textLength="165" x="260.5" y="158.6709">Listar Paquetes de Servicios</text></g><!--MD5=[2629dcc3d4e669fffd616893a571b1c2]
link ListarPaquetesDeServicios to endState--><g id="link_ListarPaquetesDeServicios_endState"><path d="M237.5,511.4179 C237.5,532.3079 237.5,551.4279 237.5,565.6979 " fill="none" id="ListarPaquetesDeServicios-to-endState" style="stroke:#008000;stroke-width:1.0;"/><polygon fill="#008000" points="237.5,570.3979,241.5,561.3979,237.5,565.3979,233.5,561.3979,237.5,570.3979" style="stroke:#008000;stroke-width:1.0;"/></g><!--MD5=[de4e8058ff14bb20c27bd2b9a273ff85]
@startuml
title Listar Paquetes de Servicios

skinparam {
    NoteBackgroundColor #whiteSmoke
    ArrowColor #green
    NoteBorderColor #green
    linetype polyline
}

hide empty description

state startState as "GESTIÓN_PAQUETES"
state endState as "GESTIÓN_PAQUETES"

startState - -> ListarPaquetesDeServicios
note on link
    <b>Administrador Solicita</b>
    * Listar Paquetes de Servicios
end note

ListarPaquetesDeServicios - -> endState

state ListarPaquetesDeServicios {
    state 2 as " "
    [*] - -> [*] 
    note on link
        <b>Sistema Muestra</b>
        * Paquetes de Servicios
    end note

    [*] -[#red]-> 2
    note on link
        Error al listar paquetes de Servicios
    end note

    2 -[#red]-> [*]
    note on link
        <b>Sistema Muestra</b>
        * Error al listar Paquetes de Servicios
    end note


}
@enduml

PlantUML version 1.2022.7(Mon Aug 22 19:01:30 CEST 2022)
(GPL source distribution)
Java Runtime: OpenJDK Runtime Environment
JVM: OpenJDK 64-Bit Server VM
Default Encoding: UTF-8
Language: es
Country: ES
--></g></svg>