<?xml version="1.0" encoding="UTF-8" standalone="no"?><svg xmlns="http://www.w3.org/2000/svg" xmlns:xlink="http://www.w3.org/1999/xlink" contentStyleType="text/css" height="504px" preserveAspectRatio="none" style="width:482px;height:504px;background:#FFFFFF;" version="1.1" viewBox="0 0 482 504" width="482px" zoomAndPan="magnify"><defs/><g><rect fill="none" height="27.6094" id="_title" style="stroke:none;stroke-width:1.0;" width="211" x="125.5" y="5"/><text fill="#000000" font-family="sans-serif" font-size="14" font-weight="bold" lengthAdjust="spacing" textLength="201" x="130.5" y="24.5332">Listar Paquetes de Servicios</text><rect fill="#F1F1F1" height="40" rx="12.5" ry="12.5" style="stroke:#181818;stroke-width:0.5;" width="54" x="211" y="45.6094"/><text fill="#000000" font-family="sans-serif" font-size="14" lengthAdjust="spacing" textLength="44" x="216" y="71.3379">INITIAL</text><path d="M19.5,197.6094 L456.5,197.6094 A12.5,12.5 0 0 1 469,210.1094 L469,225.2188 L7,225.2188 L7,210.1094 A12.5,12.5 0 0 1 19.5,197.6094 " fill="#F1F1F1" style="stroke:#F1F1F1;stroke-width:1.0;"/><rect fill="none" height="300.6094" rx="12.5" ry="12.5" style="stroke:#181818;stroke-width:0.5;" width="462" x="7" y="197.6094"/><line style="stroke:#181818;stroke-width:0.5;" x1="7" x2="469" y1="225.2188" y2="225.2188"/><text fill="#000000" font-family="sans-serif" font-size="14" lengthAdjust="spacing" textLength="170" x="153" y="217.1426">ListarPaquetesDeServicios</text><rect fill="#F1F1F1" height="40" rx="12.5" ry="12.5" style="stroke:#181818;stroke-width:0.5;" width="50" x="19" y="334.2188"/><text fill="#000000" font-family="sans-serif" font-size="14" lengthAdjust="spacing" textLength="4" x="42" y="359.9473"> </text><ellipse cx="173" cy="246.2188" fill="#222222" rx="10" ry="10" style="stroke:none;stroke-width:1.0;"/><ellipse cx="173" cy="478.2188" fill="none" rx="10" ry="10" style="stroke:#222222;stroke-width:1.0;"/><ellipse cx="173.5" cy="478.7188" fill="#222222" rx="6" ry="6" style="stroke:none;stroke-width:1.0;"/><!--MD5=[ca28b516f35559a34ed03b5b067ea232]
link *start*ListarPaquetesDeServicios to *end*ListarPaquetesDeServicios--><g id="link_*start*ListarPaquetesDeServicios_*end*ListarPaquetesDeServicios"><path d="M182.74,249.4288 C211.16,255.8788 292,274.2188 292,274.2188 C292,274.2188 292,450.2188 292,450.2188 C292,450.2188 219.76,466.6088 187.85,473.8488 " fill="none" id="*start*ListarPaquetesDeServicios-to-*end*ListarPaquetesDeServicios" style="stroke:#008000;stroke-width:1.0;"/><polygon fill="#008000" points="182.74,475.0087,192.4,476.9282,187.6172,473.9074,190.6379,469.1246,182.74,475.0087" style="stroke:#008000;stroke-width:1.0;"/><path d="M297,333.2188 L297,375.2188 L460,375.2188 L460,343.2188 L450,333.2188 L297,333.2188 " fill="#F5F5F5" style="stroke:#181818;stroke-width:0.5;"/><path d="M450,333.2188 L450,343.2188 L460,343.2188 L450,333.2188 " fill="#F5F5F5" style="stroke:#181818;stroke-width:0.5;"/><text fill="#000000" font-family="sans-serif" font-size="13" font-weight="bold" lengthAdjust="spacing" textLength="105" x="303" y="351.7139">Sistema Muestra</text><ellipse cx="308.5" cy="363.4219" fill="#000000" rx="2.5" ry="2.5" style="stroke:#000000;stroke-width:0.0;"/><text fill="#000000" font-family="sans-serif" font-size="13" lengthAdjust="spacing" textLength="129" x="316" y="368.0654">Paquetes de Servicios</text></g><!--MD5=[ba1d7acfa79cde0ff0d2d1e78773288d]
link *start*ListarPaquetesDeServicios to 2--><g id="link_*start*ListarPaquetesDeServicios_2"><path d="M163.43,249.4288 C135.48,255.8788 56,274.2188 56,274.2188 C56,274.2188 51.21,305.7587 47.68,328.9888 " fill="none" id="*start*ListarPaquetesDeServicios-to-2" style="stroke:#FF0000;stroke-width:1.0;"/><polygon fill="#FF0000" points="46.9,334.0988,52.2166,325.8082,47.6571,329.1564,44.3088,324.5969,46.9,334.0988" style="stroke:#FF0000;stroke-width:1.0;"/><path d="M61,279.2188 L61,305.2188 L287,305.2188 L287,289.2188 L277,279.2188 L61,279.2188 " fill="#F5F5F5" style="stroke:#181818;stroke-width:0.5;"/><path d="M277,279.2188 L277,289.2188 L287,289.2188 L277,279.2188 " fill="#F5F5F5" style="stroke:#181818;stroke-width:0.5;"/><text fill="#000000" font-family="sans-serif" font-size="13" lengthAdjust="spacing" textLength="205" x="67" y="297.7139">Error al listar paquetes de Servicios</text></g><!--MD5=[144c75362ad1a9f4bf77ded81422a431]
link 2 to *end*ListarPaquetesDeServicios--><g id="link_2_*end*ListarPaquetesDeServicios"><path d="M42.66,374.4588 C41.86,385.9088 41,398.2188 41,398.2188 C41,398.2188 41,450.2188 41,450.2188 C41,450.2188 123.34,467.0588 157.95,474.1387 " fill="none" id="2-to-*end*ListarPaquetesDeServicios" style="stroke:#FF0000;stroke-width:1.0;"/><polygon fill="#FF0000" points="163.08,475.1888,155.0616,469.4699,158.181,474.1889,153.4619,477.3083,163.08,475.1888" style="stroke:#FF0000;stroke-width:1.0;"/><path d="M46,403.2188 L46,445.2188 L287,445.2188 L287,413.2188 L277,403.2188 L46,403.2188 " fill="#F5F5F5" style="stroke:#181818;stroke-width:0.5;"/><path d="M277,403.2188 L277,413.2188 L287,413.2188 L277,403.2188 " fill="#F5F5F5" style="stroke:#181818;stroke-width:0.5;"/><text fill="#000000" font-family="sans-serif" font-size="13" font-weight="bold" lengthAdjust="spacing" textLength="105" x="52" y="421.7139">Sistema Muestra</text><ellipse cx="57.5" cy="433.4219" fill="#000000" rx="2.5" ry="2.5" style="stroke:#000000;stroke-width:0.0;"/><text fill="#000000" font-family="sans-serif" font-size="13" lengthAdjust="spacing" textLength="207" x="65" y="438.0654">Error al listar Paquetes de Servicios</text></g><!--MD5=[3246e95ff8ad35dc32dbb49f193aba99]
link startState to ListarPaquetesDeServicios--><g id="link_startState_ListarPaquetesDeServicios"><path d="M238,85.8894 C238,108.8994 238,149.6594 238,192.2194 " fill="none" id="startState-to-ListarPaquetesDeServicios" style="stroke:#008000;stroke-width:1.0;"/><polygon fill="#008000" points="238,197.4194,242,188.4194,238,192.4194,234,188.4194,238,197.4194" style="stroke:#008000;stroke-width:1.0;"/><path d="M243,120.6094 L243,162.6094 L442,162.6094 L442,130.6094 L432,120.6094 L243,120.6094 " fill="#F5F5F5" style="stroke:#181818;stroke-width:0.5;"/><path d="M432,120.6094 L432,130.6094 L442,130.6094 L432,120.6094 " fill="#F5F5F5" style="stroke:#181818;stroke-width:0.5;"/><text fill="#000000" font-family="sans-serif" font-size="13" font-weight="bold" lengthAdjust="spacing" textLength="141" x="249" y="139.1045">Administrador Solicita</text><ellipse cx="254.5" cy="150.8125" fill="#000000" rx="2.5" ry="2.5" style="stroke:#000000;stroke-width:0.0;"/><text fill="#000000" font-family="sans-serif" font-size="13" lengthAdjust="spacing" textLength="165" x="262" y="155.4561">Listar Paquetes de Servicios</text></g><!--MD5=[db8b7b9a8332377077eb575c43c0d00e]
@startuml
title Listar Paquetes de Servicios

skinparam {
    NoteBackgroundColor #whiteSmoke
    ArrowColor #green
    NoteBorderColor #green
    linetype polyline
}

hide empty description

state startState as "INITIAL"

startState - -> ListarPaquetesDeServicios
note on link
    <b>Administrador Solicita</b>
    * Listar Paquetes de Servicios
end note

state ListarPaquetesDeServicios {
    state 2 as " "
    [*] - -> [*] 
    note on link
        <b>Sistema Muestra</b>
        * Paquetes de Servicios
    end note

    [*] -[#red]-> 2
    note on link
        Error al listar paquetes de Servicios
    end note

    2 -[#red]-> [*]
    note on link
        <b>Sistema Muestra</b>
        * Error al listar Paquetes de Servicios
    end note


}
@enduml

PlantUML version 1.2022.7(Mon Aug 22 19:01:30 CEST 2022)
(GPL source distribution)
Java Runtime: Java(TM) SE Runtime Environment
JVM: Java HotSpot(TM) 64-Bit Server VM
Default Encoding: Cp1252
Language: es
Country: ES
--></g></svg>