<?xml version="1.0" encoding="us-ascii" standalone="no"?><svg xmlns="http://www.w3.org/2000/svg" xmlns:xlink="http://www.w3.org/1999/xlink" contentStyleType="text/css" height="962px" preserveAspectRatio="none" style="width:767px;height:962px;background:#FFFFFF;" version="1.1" viewBox="0 0 767 962" width="767px" zoomAndPan="magnify"><defs/><g><!--class ALUMNI--><g id="elem_ALUMNI"><rect codeLine="6" fill="#F1F1F1" height="58.5938" id="ALUMNI" rx="2.5" ry="2.5" style="stroke:#181818;stroke-width:0.5;" width="92" x="418.5" y="7"/><text fill="#000000" font-family="Arial" font-size="14" lengthAdjust="spacing" textLength="53" x="438" y="24.9951">ALUMNI</text><line style="stroke:#181818;stroke-width:0.5;" x1="419.5" x2="509.5" y1="33.2969" y2="33.2969"/><text fill="#000000" font-family="Arial" font-size="14" lengthAdjust="spacing" textLength="80" x="424.5" y="50.292">plataforma</text><line style="stroke:#181818;stroke-width:0.5;" x1="419.5" x2="509.5" y1="57.5938" y2="57.5938"/></g><!--class SERVICIO EXTERNO--><g id="elem_SERVICIO EXTERNO"><rect codeLine="11" fill="#F1F1F1" height="42.2969" id="SERVICIO EXTERNO" rx="2.5" ry="2.5" style="stroke:#181818;stroke-width:0.5;" width="145" x="203" y="184"/><text fill="#000000" font-family="Arial" font-size="14" lengthAdjust="spacing" textLength="139" x="206" y="201.9951">SERVICIO EXTERNO</text><line style="stroke:#181818;stroke-width:0.5;" x1="204" x2="347" y1="210.2969" y2="210.2969"/><line style="stroke:#181818;stroke-width:0.5;" x1="204" x2="347" y1="218.2969" y2="218.2969"/></g><!--class UNIVERSIDAD--><g id="elem_UNIVERSIDAD"><rect codeLine="13" fill="#F1F1F1" height="42.2969" id="UNIVERSIDAD" rx="2.5" ry="2.5" style="stroke:#181818;stroke-width:0.5;" width="103" x="198" y="15.5"/><text fill="#000000" font-family="Arial" font-size="14" lengthAdjust="spacing" textLength="97" x="201" y="33.4951">UNIVERSIDAD</text><line style="stroke:#181818;stroke-width:0.5;" x1="199" x2="300" y1="41.7969" y2="41.7969"/><line style="stroke:#181818;stroke-width:0.5;" x1="199" x2="300" y1="49.7969" y2="49.7969"/></g><!--class USUARIO--><g id="elem_USUARIO"><rect codeLine="15" fill="#F1F1F1" height="123.7813" id="USUARIO" rx="2.5" ry="2.5" style="stroke:#181818;stroke-width:0.5;" width="162" x="383.5" y="143"/><text fill="#000000" font-family="Arial" font-size="14" lengthAdjust="spacing" textLength="62" x="433.5" y="160.9951">USUARIO</text><line style="stroke:#181818;stroke-width:0.5;" x1="384.5" x2="544.5" y1="169.2969" y2="169.2969"/><text fill="#000000" font-family="Arial" font-size="14" lengthAdjust="spacing" textLength="15" x="389.5" y="186.292">ID</text><text fill="#000000" font-family="Arial" font-size="14" lengthAdjust="spacing" textLength="58" x="389.5" y="202.5889">Nombre</text><text fill="#000000" font-family="Arial" font-size="14" lengthAdjust="spacing" textLength="59" x="389.5" y="218.8857">Apellido</text><text fill="#000000" font-family="Arial" font-size="14" lengthAdjust="spacing" textLength="150" x="389.5" y="235.1826">Fecha de Nacimiento</text><text fill="#000000" font-family="Arial" font-size="14" lengthAdjust="spacing" textLength="39" x="389.5" y="251.4795">Email</text><line style="stroke:#181818;stroke-width:0.5;" x1="384.5" x2="544.5" y1="258.7813" y2="258.7813"/></g><!--class EGRESADO--><g id="elem_EGRESADO"><rect codeLine="24" fill="#F1F1F1" height="91.1875" id="EGRESADO" rx="2.5" ry="2.5" style="stroke:#181818;stroke-width:0.5;" width="164" x="186.5" y="344"/><text fill="#000000" font-family="Arial" font-size="14" lengthAdjust="spacing" textLength="80" x="228.5" y="361.9951">EGRESADO</text><line style="stroke:#181818;stroke-width:0.5;" x1="187.5" x2="349.5" y1="370.2969" y2="370.2969"/><text fill="#000000" font-family="Arial" font-size="14" lengthAdjust="spacing" textLength="68" x="192.5" y="387.292">ubicacion</text><text fill="#000000" font-family="Arial" font-size="14" lengthAdjust="spacing" textLength="75" x="192.5" y="403.5889">Ocupaci&#243;n</text><text fill="#000000" font-family="Arial" font-size="14" lengthAdjust="spacing" textLength="152" x="192.5" y="419.8857">Carnet de Estudiante</text><line style="stroke:#181818;stroke-width:0.5;" x1="187.5" x2="349.5" y1="427.1875" y2="427.1875"/></g><!--class ADMINISTRADOR--><g id="elem_ADMINISTRADOR"><rect codeLine="31" fill="#F1F1F1" height="58.5938" id="ADMINISTRADOR" rx="2.5" ry="2.5" style="stroke:#181818;stroke-width:0.5;" width="127" x="401" y="360"/><text fill="#000000" font-family="Arial" font-size="14" lengthAdjust="spacing" textLength="121" x="404" y="377.9951">ADMINISTRADOR</text><line style="stroke:#181818;stroke-width:0.5;" x1="402" x2="527" y1="386.2969" y2="386.2969"/><text fill="#000000" font-family="Arial" font-size="14" lengthAdjust="spacing" textLength="114" x="407" y="403.292">Zona de trabajo</text><line style="stroke:#181818;stroke-width:0.5;" x1="402" x2="527" y1="410.5938" y2="410.5938"/></g><!--class REQUISITO--><g id="elem_REQUISITO"><rect codeLine="36" fill="#F1F1F1" height="58.5938" id="REQUISITO" rx="2.5" ry="2.5" style="stroke:#181818;stroke-width:0.5;" width="153" x="7" y="528"/><text fill="#000000" font-family="Arial" font-size="14" lengthAdjust="spacing" textLength="76" x="45.5" y="545.9951">REQUISITO</text><line style="stroke:#181818;stroke-width:0.5;" x1="8" x2="159" y1="554.2969" y2="554.2969"/><text fill="#000000" font-family="Arial" font-size="14" lengthAdjust="spacing" textLength="141" x="13" y="571.292">titulaci&#243;n de UNEAT</text><line style="stroke:#181818;stroke-width:0.5;" x1="8" x2="159" y1="578.5938" y2="578.5938"/></g><!--class ESTADISTICAS--><g id="elem_ESTADISTICAS"><rect codeLine="41" fill="#F1F1F1" height="58.5938" id="ESTADISTICAS" rx="2.5" ry="2.5" style="stroke:#181818;stroke-width:0.5;" width="221" x="504" y="528"/><text fill="#000000" font-family="Arial" font-size="14" lengthAdjust="spacing" textLength="103" x="563" y="545.9951">ESTADISTICAS</text><line style="stroke:#181818;stroke-width:0.5;" x1="505" x2="724" y1="554.2969" y2="554.2969"/><text fill="#000000" font-family="Arial" font-size="14" lengthAdjust="spacing" textLength="209" x="510" y="571.292">informaci&#243;n de los egresados</text><line style="stroke:#181818;stroke-width:0.5;" x1="505" x2="724" y1="578.5938" y2="578.5938"/></g><!--class SUSCRIPCI?N--><g id="elem_SUSCRIPCI&#211;N"><rect codeLine="46" fill="#F1F1F1" height="91.1875" id="SUSCRIPCI&#211;N" rx="2.5" ry="2.5" style="stroke:#181818;stroke-width:0.5;" width="146" x="195.5" y="512"/><text fill="#000000" font-family="Arial" font-size="14" lengthAdjust="spacing" textLength="95" x="221" y="529.9951">SUSCRIPCI&#211;N</text><line style="stroke:#181818;stroke-width:0.5;" x1="196.5" x2="340.5" y1="538.2969" y2="538.2969"/><text fill="#000000" font-family="Arial" font-size="14" lengthAdjust="spacing" textLength="134" x="201.5" y="555.292">paquetes suscritos</text><text fill="#000000" font-family="Arial" font-size="14" lengthAdjust="spacing" textLength="129" x="201.5" y="571.5889">servicios suscritos</text><text fill="#000000" font-family="Arial" font-size="14" lengthAdjust="spacing" textLength="85" x="201.5" y="587.8857">precio total</text><line style="stroke:#181818;stroke-width:0.5;" x1="196.5" x2="340.5" y1="595.1875" y2="595.1875"/></g><!--class PAQUETE--><g id="elem_PAQUETE"><rect codeLine="53" fill="#F1F1F1" height="107.4844" id="PAQUETE" rx="2.5" ry="2.5" style="stroke:#181818;stroke-width:0.5;" width="140" x="184.5" y="680"/><text fill="#000000" font-family="Arial" font-size="14" lengthAdjust="spacing" textLength="66" x="221.5" y="697.9951">PAQUETE</text><line style="stroke:#181818;stroke-width:0.5;" x1="185.5" x2="323.5" y1="706.2969" y2="706.2969"/><text fill="#000000" font-family="Arial" font-size="14" lengthAdjust="spacing" textLength="58" x="190.5" y="723.292">Nombre</text><text fill="#000000" font-family="Arial" font-size="14" lengthAdjust="spacing" textLength="85" x="190.5" y="739.5889">Descripci&#243;n</text><text fill="#000000" font-family="Arial" font-size="14" lengthAdjust="spacing" textLength="128" x="190.5" y="755.8857">servicios incluidos</text><text fill="#000000" font-family="Arial" font-size="14" lengthAdjust="spacing" textLength="46" x="190.5" y="772.1826">precio</text><line style="stroke:#181818;stroke-width:0.5;" x1="185.5" x2="323.5" y1="779.4844" y2="779.4844"/></g><!--class SERVICIO--><g id="elem_SERVICIO"><rect codeLine="61" fill="#F1F1F1" height="91.1875" id="SERVICIO" rx="2.5" ry="2.5" style="stroke:#181818;stroke-width:0.5;" width="97" x="361" y="688"/><text fill="#000000" font-family="Arial" font-size="14" lengthAdjust="spacing" textLength="67" x="376" y="705.9951">SERVICIO</text><line style="stroke:#181818;stroke-width:0.5;" x1="362" x2="457" y1="714.2969" y2="714.2969"/><text fill="#000000" font-family="Arial" font-size="14" lengthAdjust="spacing" textLength="58" x="367" y="731.292">Nombre</text><text fill="#000000" font-family="Arial" font-size="14" lengthAdjust="spacing" textLength="85" x="367" y="747.5889">Descripci&#243;n</text><text fill="#000000" font-family="Arial" font-size="14" lengthAdjust="spacing" textLength="46" x="367" y="763.8857">precio</text><line style="stroke:#181818;stroke-width:0.5;" x1="362" x2="457" y1="771.1875" y2="771.1875"/></g><!--class COMUNICACI?N--><g id="elem_COMUNICACI&#211;N"><rect codeLine="68" fill="#F1F1F1" height="91.1875" id="COMUNICACI&#211;N" rx="2.5" ry="2.5" style="stroke:#181818;stroke-width:0.5;" width="117" x="74" y="856"/><text fill="#000000" font-family="Arial" font-size="14" lengthAdjust="spacing" textLength="111" x="77" y="873.9951">COMUNICACI&#211;N</text><line style="stroke:#181818;stroke-width:0.5;" x1="75" x2="190" y1="882.2969" y2="882.2969"/><text fill="#000000" font-family="Arial" font-size="14" lengthAdjust="spacing" textLength="39" x="80" y="899.292">Email</text><text fill="#000000" font-family="Arial" font-size="14" lengthAdjust="spacing" textLength="34" x="80" y="915.5889">Chat</text><text fill="#000000" font-family="Arial" font-size="14" lengthAdjust="spacing" textLength="91" x="80" y="931.8857">Seguimiento</text><line style="stroke:#181818;stroke-width:0.5;" x1="75" x2="190" y1="939.1875" y2="939.1875"/></g><!--class INSTALACIONES--><g id="elem_INSTALACIONES"><rect codeLine="75" fill="#F1F1F1" height="91.1875" id="INSTALACIONES" rx="2.5" ry="2.5" style="stroke:#181818;stroke-width:0.5;" width="186" x="226.5" y="856"/><text fill="#000000" font-family="Arial" font-size="14" lengthAdjust="spacing" textLength="113" x="263" y="873.9951">INSTALACIONES</text><line style="stroke:#181818;stroke-width:0.5;" x1="227.5" x2="411.5" y1="882.2969" y2="882.2969"/><text fill="#000000" font-family="Arial" font-size="14" lengthAdjust="spacing" textLength="73" x="232.5" y="899.292">Biblioteca</text><text fill="#000000" font-family="Arial" font-size="14" lengthAdjust="spacing" textLength="145" x="232.5" y="915.5889">Sala de ordenadores</text><text fill="#000000" font-family="Arial" font-size="14" lengthAdjust="spacing" textLength="174" x="232.5" y="931.8857">Instalaciones deportivas</text><line style="stroke:#181818;stroke-width:0.5;" x1="227.5" x2="411.5" y1="939.1875" y2="939.1875"/></g><!--class NEWSLETTER--><g id="elem_NEWSLETTER"><rect codeLine="82" fill="#F1F1F1" height="74.8906" id="NEWSLETTER" rx="2.5" ry="2.5" style="stroke:#181818;stroke-width:0.5;" width="102" x="447.5" y="864"/><text fill="#000000" font-family="Arial" font-size="14" lengthAdjust="spacing" textLength="96" x="450.5" y="881.9951">NEWSLETTER</text><line style="stroke:#181818;stroke-width:0.5;" x1="448.5" x2="548.5" y1="890.2969" y2="890.2969"/><text fill="#000000" font-family="Arial" font-size="14" lengthAdjust="spacing" textLength="57" x="453.5" y="907.292">Noticias</text><text fill="#000000" font-family="Arial" font-size="14" lengthAdjust="spacing" textLength="58" x="453.5" y="923.5889">Eventos</text><line style="stroke:#181818;stroke-width:0.5;" x1="448.5" x2="548.5" y1="930.8906" y2="930.8906"/></g><!--class OFERTAS DE EMPLEO--><g id="elem_OFERTAS DE EMPLEO"><rect codeLine="88" fill="#F1F1F1" height="107.4844" id="OFERTAS DE EMPLEO" rx="2.5" ry="2.5" style="stroke:#181818;stroke-width:0.5;" width="175" x="585" y="848"/><text fill="#000000" font-family="Arial" font-size="14" lengthAdjust="spacing" textLength="152" x="596.5" y="865.9951">OFERTAS DE EMPLEO</text><line style="stroke:#181818;stroke-width:0.5;" x1="586" x2="759" y1="874.2969" y2="874.2969"/><text fill="#000000" font-family="Arial" font-size="14" lengthAdjust="spacing" textLength="163" x="591" y="891.292">Nombre de la empresa</text><text fill="#000000" font-family="Arial" font-size="14" lengthAdjust="spacing" textLength="127" x="591" y="907.5889">Puesto de trabajo</text><text fill="#000000" font-family="Arial" font-size="14" lengthAdjust="spacing" textLength="48" x="591" y="923.8857">Salario</text><text fill="#000000" font-family="Arial" font-size="14" lengthAdjust="spacing" textLength="69" x="591" y="940.1826">Ubicaci&#243;n</text><line style="stroke:#181818;stroke-width:0.5;" x1="586" x2="759" y1="947.4844" y2="947.4844"/></g><!--link ALUMNI to USUARIO--><g id="link_ALUMNI_USUARIO"><path codeLine="96" d="M464.5,66.122 C464.5,87.135 464.5,116.462 464.5,142.668 " fill="none" id="ALUMNI-USUARIO" style="stroke:#181818;stroke-width:1.0;"/><text fill="#000000" font-family="Arial" font-size="13" lengthAdjust="spacing" textLength="32" x="465.5" y="109.0669">tiene</text></g><!--link EGRESADO to SUSCRIPCI?N--><g id="link_EGRESADO_SUSCRIPCI&#211;N"><path codeLine="97" d="M268.5,435.422 C268.5,459.139 268.5,488.151 268.5,511.83 " fill="none" id="EGRESADO-SUSCRIPCI&#211;N" style="stroke:#181818;stroke-width:1.0;"/><text fill="#000000" font-family="Arial" font-size="13" lengthAdjust="spacing" textLength="68" x="269.5" y="478.0669">se inscribe</text></g><!--link ALUMNI to SERVICIO EXTERNO--><g id="link_ALUMNI_SERVICIO EXTERNO"><path codeLine="98" d="M418.418,63.836 C403.497,73.209 387.26,84.348 373.5,96 C341.232,123.324 309.36,160.958 291.098,183.823 " fill="none" id="ALUMNI-SERVICIO EXTERNO" style="stroke:#181818;stroke-width:1.0;"/><text fill="#000000" font-family="Arial" font-size="13" lengthAdjust="spacing" textLength="81" x="374.5" y="109.0669">se comunica</text></g><!--link SUSCRIPCI?N to SERVICIO--><g id="link_SUSCRIPCI&#211;N_SERVICIO"><path codeLine="99" d="M301.817,603.113 C313.262,618.152 326.273,634.937 338.5,650 C348.623,662.471 359.851,675.756 370.334,687.939 " fill="none" id="SUSCRIPCI&#211;N-SERVICIO" style="stroke:#181818;stroke-width:1.0;"/><text fill="#000000" font-family="Arial" font-size="13" lengthAdjust="spacing" textLength="45" x="339.5" y="646.0669">incluye</text></g><!--link EGRESADO to REQUISITO--><g id="link_EGRESADO_REQUISITO"><path codeLine="100" d="M218.436,435.422 C185.585,464.9 143.615,502.559 115.274,527.989 " fill="none" id="EGRESADO-REQUISITO" style="stroke:#181818;stroke-width:1.0;"/><text fill="#000000" font-family="Arial" font-size="13" lengthAdjust="spacing" textLength="47" x="183.5" y="478.0669">cumple</text></g><!--link ALUMNI to ESTADISTICAS--><g id="link_ALUMNI_ESTADISTICAS"><path codeLine="101" d="M501.285,66.211 C523.159,85.456 549.326,112.75 563.5,143 C625.799,275.963 621.365,458.063 616.858,527.765 " fill="none" id="ALUMNI-ESTADISTICAS" style="stroke:#181818;stroke-width:1.0;"/><text fill="#000000" font-family="Arial" font-size="13" lengthAdjust="spacing" textLength="45" x="610.5" y="310.0669">genera</text></g><!--link ADMINISTRADOR to ESTADISTICAS--><g id="link_ADMINISTRADOR_ESTADISTICAS"><path codeLine="102" d="M480.336,419.275 C491.417,438.126 507.274,462.746 524.5,482 C539.377,498.628 558.086,514.722 574.587,527.67 " fill="none" id="ADMINISTRADOR-ESTADISTICAS" style="stroke:#181818;stroke-width:1.0;stroke-dasharray:7.0,7.0;"/><text fill="#000000" font-family="Arial" font-size="13" lengthAdjust="spacing" textLength="54" x="525.5" y="478.0669">consulta</text></g><!--link SUSCRIPCI?N to PAQUETE--><g id="link_SUSCRIPCI&#211;N_PAQUETE"><path codeLine="103" d="M256.606,603.132 C254.483,612.904 252.599,623.244 251.5,633 C249.788,648.199 249.618,664.78 250.129,679.972 " fill="none" id="SUSCRIPCI&#211;N-PAQUETE" style="stroke:#181818;stroke-width:1.0;"/><text fill="#000000" font-family="Arial" font-size="13" lengthAdjust="spacing" textLength="45" x="252.5" y="646.0669">incluye</text></g><!--reverse link USUARIO to EGRESADO--><g id="link_USUARIO_EGRESADO"><path codeLine="104" d="M385.7886,279.2903 C358.7466,304.4703 341.159,320.845 316.302,343.991 " fill="none" id="USUARIO-backto-EGRESADO" style="stroke:#181818;stroke-width:1.0;"/><polygon fill="none" points="398.962,267.024,381.6999,274.8992,389.8774,283.6814,398.962,267.024" style="stroke:#181818;stroke-width:1.0;"/></g><!--reverse link USUARIO to ADMINISTRADOR--><g id="link_USUARIO_ADMINISTRADOR"><path codeLine="105" d="M464.5,285.024 C464.5,316.317 464.5,334.958 464.5,359.75 " fill="none" id="USUARIO-backto-ADMINISTRADOR" style="stroke:#181818;stroke-width:1.0;"/><polygon fill="none" points="464.5,267.024,458.5,285.024,470.5,285.024,464.5,267.024" style="stroke:#181818;stroke-width:1.0;"/></g><!--link UNIVERSIDAD to ALUMNI--><g id="link_UNIVERSIDAD_ALUMNI"><path codeLine="106" d="M301.271,36.5 C336.932,36.5 383.903,36.5 418.298,36.5 " fill="none" id="UNIVERSIDAD-ALUMNI" style="stroke:#181818;stroke-width:1.0;"/><text fill="#000000" font-family="Arial" font-size="13" lengthAdjust="spacing" textLength="81" x="319.25" y="29.5669">se comunica</text></g><!--link ADMINISTRADOR to SERVICIO--><g id="link_ADMINISTRADOR_SERVICIO"><path codeLine="107" d="M454.59,419.097 C446.545,443.486 435.572,479.637 429.5,512 C418.194,572.258 413.213,643.024 411.064,687.813 " fill="none" id="ADMINISTRADOR-SERVICIO" style="stroke:#181818;stroke-width:1.0;"/><text fill="#000000" font-family="Arial" font-size="13" lengthAdjust="spacing" textLength="55" x="430.5" y="562.0669">gestiona</text></g><!--reverse link SERVICIO to COMUNICACI?N--><g id="link_SERVICIO_COMUNICACI&#211;N"><path codeLine="109" d="M346.0837,785.3816 C340.1017,789.6906 348.562,783.317 342.5,787 C286.575,820.975 265.421,815.722 208.5,848 C202.781,851.243 196.944,854.794 191.174,858.4714 " fill="none" id="SERVICIO-backto-COMUNICACI&#211;N" style="stroke:#181818;stroke-width:1.0;"/><polygon fill="none" points="360.689,774.861,342.5768,780.5132,349.5905,790.2501,360.689,774.861" style="stroke:#181818;stroke-width:1.0;"/></g><!--reverse link SERVICIO to INSTALACIONES--><g id="link_SERVICIO_INSTALACIONES"><path codeLine="110" d="M376.5656,795.2458 C363.7066,818.9628 356.557,832.151 343.719,855.83 " fill="none" id="SERVICIO-backto-INSTALACIONES" style="stroke:#181818;stroke-width:1.0;"/><polygon fill="none" points="385.145,779.422,371.291,792.386,381.8402,798.1056,385.145,779.422" style="stroke:#181818;stroke-width:1.0;"/></g><!--reverse link SERVICIO to NEWSLETTER--><g id="link_SERVICIO_NEWSLETTER"><path codeLine="111" d="M442.0901,795.2859 C456.2981,821.7869 465.547,839.037 478.895,863.9326 " fill="none" id="SERVICIO-backto-NEWSLETTER" style="stroke:#181818;stroke-width:1.0;"/><polygon fill="none" points="433.585,779.422,436.8022,798.1209,447.3781,792.4508,433.585,779.422" style="stroke:#181818;stroke-width:1.0;"/></g><!--reverse link SERVICIO to OFERTAS DE EMPLEO--><g id="link_SERVICIO_OFERTAS DE EMPLEO"><path codeLine="112" d="M473.2664,774.7478 C509.9264,797.8878 545.904,820.595 589.083,847.849 " fill="none" id="SERVICIO-backto-OFERTAS DE EMPLEO" style="stroke:#181818;stroke-width:1.0;"/><polygon fill="none" points="458.045,765.14,470.0638,779.8216,476.469,769.674,458.045,765.14" style="stroke:#181818;stroke-width:1.0;"/></g><!--SRC=[RLHBajCm4Dtx528RLk40AJR6rb2kIfoCFmF5hcDh4Z6oP2HvA6hW51o58yp5QClnHyciBFNdTVlrQxr_Py-iOGGQVeB0F77PWeQ67A5wEcdLoJfIGcdoyymjM_XhzWYTi7TAsXGmFzGSH73cDICLrvLWGL09C8Q4stAN9YHu2GWXhG0BZqet4FmP0rOvpHwIADaJ-hMWMRfVaPV9MQR90yto90xZfJKlmmmJ1b2InEwJgkQe6N7di6L2y5gvonshpe0TanGgtd0cxM2d3N0nDq8_PpGFumcsE_8A4vHqjttLjNXx_JTS8z2IsHwK6jlL72JICq65yIv9axp842uRyRufwRgm6exmNStH6RqlapmffigMsquCnVg4CgLXiUWpBy8OmPCepCSCBXshKufGXh2JPWPgPURKlCoZB3b4oUlVT4njuKV7B3F4TARIt69yRpPCFtFy-sjxgnbQYLKM5jmTmlkI5lG2EKp27MFM9xSpSJCkbvNeUEtXBbeTLU5XahT1hvEZ_GwL4uNUZmxZTiCxWtM7d9swKH5JSf8YmLlCtQTq8lWJFmgkBAjWI0JXPgbqpIHoZ4mFKfG6UN6gGKPhrYfj-JCiHf3IB_cM5gZq-Syi4W8307tkcrd4h_PtD2jmqZ4bT7VOKjmFdv9-t41Oq_RZTev3nunLIwsDFMi-dCj1spr_MEcoe-lrj5aRr22JB9Xs0dsUU3OuI9nWFuSZMm2yiSqkj59D9x5cuA7qg6FyPX34Bx_el1iRKdLDAvR5l4tOa1Dsh27mb-_3X-kmIac3JzTjAnSHBpePwVZukwzsQSktUjM2vNkrrlnqjkln1VHfy9lqUJZXz51040IJqPLQUR9UNNiztTvuPztTk6uLzXy0]--></g></svg>