<?xml version="1.0" encoding="us-ascii" standalone="no"?><svg xmlns="http://www.w3.org/2000/svg" xmlns:xlink="http://www.w3.org/1999/xlink" contentStyleType="text/css" height="493px" preserveAspectRatio="none" style="width:503px;height:493px;background:#FFFFFF;" version="1.1" viewBox="0 0 503 493" width="503px" zoomAndPan="magnify"><defs/><g><ellipse cx="248.5" cy="16" fill="#222222" rx="10" ry="10" style="stroke:#222222;stroke-width:1.0;"/><path d="M19.5,103 L477.4816,103 A12.5,12.5 0 0 1 489.9816,115.5 L489.9816,129.2969 L7,129.2969 L7,115.5 A12.5,12.5 0 0 1 19.5,103 " fill="#F1F1F1" style="stroke:#F1F1F1;stroke-width:1.0;"/><rect fill="none" height="257.2969" rx="12.5" ry="12.5" style="stroke:#181818;stroke-width:0.5;" width="482.9816" x="7" y="103"/><line style="stroke:#181818;stroke-width:0.5;" x1="7" x2="489.9816" y1="129.2969" y2="129.2969"/><text fill="#000000" font-family="sans-serif" font-size="14" lengthAdjust="spacing" textLength="103" x="196.9908" y="120.9951">ServicioActivo</text><ellipse cx="153.9816" cy="150.2969" fill="#222222" rx="10" ry="10" style="stroke:#222222;stroke-width:1.0;"/><g id="ServicioActivo.Servicio"><rect fill="#F1F1F1" height="50" rx="12.5" ry="12.5" style="stroke:#181818;stroke-width:0.5;" width="77" x="115.4812" y="197.2969"/><line style="stroke:#181818;stroke-width:0.5;" x1="115.4812" x2="192.4812" y1="223.5938" y2="223.5938"/><text fill="#000000" font-family="sans-serif" font-size="14" lengthAdjust="spacing" textLength="57" x="125.4812" y="215.292">Servicio</text></g><g id="ServicioActivo.A&#241;adidoaPaquete"><rect fill="#F1F1F1" height="50" rx="12.5" ry="12.5" style="stroke:#181818;stroke-width:0.5;" width="145" x="81.4812" y="300.2969"/><line style="stroke:#181818;stroke-width:0.5;" x1="81.4812" x2="226.4812" y1="326.5938" y2="326.5938"/><text fill="#000000" font-family="sans-serif" font-size="14" lengthAdjust="spacing" textLength="125" x="91.4812" y="318.292">A&#241;adidoaPaquete</text></g><!--link *start*ServicioActivo to Servicio--><g id="link_*start*ServicioActivo_Servicio"><path d="M153.9816,160.4479 C153.9816,169.7129 153.9816,178.4379 153.9816,191.0809 " fill="none" id="*start*ServicioActivo-to-Servicio" style="stroke:#181818;stroke-width:1.0;"/><polygon fill="#181818" points="153.9816,197.0809,157.9816,188.0809,153.9816,192.0809,149.9816,188.0809,153.9816,197.0809" style="stroke:#181818;stroke-width:1.0;"/></g><!--link Servicio to A?adidoaPaquete--><g id="link_Servicio_A&#241;adidoaPaquete"><path d="M115.4692,225.6729 C88.0869,229.6139 53.0762,239.7219 34.9812,265.2969 C18,289.2981 41.6422,302.5267 75.4874,311.2657 " fill="none" id="Servicio-to-A&#241;adidoaPaquete" style="stroke:#181818;stroke-width:1.0;"/><polygon fill="#181818" points="81.2969,312.7658,73.5827,306.6427,76.4557,311.5157,71.5827,314.3887,81.2969,312.7658" style="stroke:#181818;stroke-width:1.0;"/><text fill="#000000" font-family="sans-serif" font-size="13" lengthAdjust="spacing" textLength="216" x="35.9812" y="278.3638">se a&#241;ade el servicio a un paquete</text></g><!--link A?adidoaPaquete to Servicio--><g id="link_A&#241;adidoaPaquete_Servicio"><path d="M226.6396,306.1356 C249.0076,296.7544 264.9646,283.3985 252.9816,265.2969 C239.5826,245.0589 220.0817,236.006 198.4027,230.559 " fill="none" id="A&#241;adidoaPaquete-to-Servicio" style="stroke:#181818;stroke-width:1.0;"/><polygon fill="#181818" points="192.5836,229.0969,200.3376,235.1694,197.4329,230.3153,202.287,227.4106,192.5836,229.0969" style="stroke:#181818;stroke-width:1.0;"/><text fill="#000000" font-family="sans-serif" font-size="13" lengthAdjust="spacing" textLength="222" x="257.9816" y="278.3638">se elimina el servicio del paquete}</text></g><g id="ServicioInactivo"><rect fill="#F1F1F1" height="50" rx="12.5" ry="12.5" style="stroke:#181818;stroke-width:0.5;" width="134" x="181.5" y="437"/><line style="stroke:#181818;stroke-width:0.5;" x1="181.5" x2="315.5" y1="463.2969" y2="463.2969"/><text fill="#000000" font-family="sans-serif" font-size="14" lengthAdjust="spacing" textLength="114" x="191.5" y="454.9951">ServicioInactivo</text></g><!--link *start* to ServicioActivo--><g id="link_*start*_ServicioActivo"><path d="M248.5,26.174 C248.5,40.62 248.5,64.388 248.5,96.839 " fill="none" id="*start*-to-ServicioActivo" style="stroke:#181818;stroke-width:1.0;"/><polygon fill="#181818" points="248.5,102.839,252.5,93.839,248.5,97.839,244.5,93.839,248.5,102.839" style="stroke:#181818;stroke-width:1.0;"/><text fill="#000000" font-family="sans-serif" font-size="13" lengthAdjust="spacing" textLength="120" x="249.5" y="69.0669">se crea un servicio</text></g><!--link ServicioActivo to ServicioInactivo--><g id="link_ServicioActivo_ServicioInactivo"><path d="M158.555,360.321 C154.194,370.083 150.424,380.025 147.5,390 C140.839,412.7282 153.3759,426.3857 175.8829,437.6127 " fill="none" id="ServicioActivo-to-ServicioInactivo" style="stroke:#181818;stroke-width:1.0;"/><polygon fill="#181818" points="181.252,440.2909,174.9838,432.6942,176.7778,438.059,171.4129,439.853,181.252,440.2909" style="stroke:#181818;stroke-width:1.0;"/><text fill="#000000" font-family="sans-serif" font-size="13" lengthAdjust="spacing" textLength="154" x="148.5" y="403.0669">se desactiva un servicio</text></g><!--link ServicioInactivo to ServicioActivo--><g id="link_ServicioInactivo_ServicioActivo"><path d="M284.398,436.7569 C293.676,428.5069 302.463,418.4372 307.5,407 C314.073,392.0734 316.299,382.1376 314.666,366.2366 " fill="none" id="ServicioInactivo-to-ServicioActivo" style="stroke:#181818;stroke-width:1.0;"/><polygon fill="#181818" points="314.053,360.268,310.9934,369.6296,314.5638,365.2418,318.9515,368.8123,314.053,360.268" style="stroke:#181818;stroke-width:1.0;"/><text fill="#000000" font-family="sans-serif" font-size="13" lengthAdjust="spacing" textLength="144" x="312.5" y="403.0669">se reactiva un servicio</text></g><!--SRC=[YzQALT3LjLC8JYqgoqpEp7TCBiaiorUmKYXELKWkIarKACq3CY5oN5oegf3rUUOb8kbCIIq6Sr6rewl5PI_GMYoQIn9BKj6KLtD5QyK2JGb6jm4evdXuOs9APaf-Oa1YOMagKAiLqEH4a62gGceEt5m5i2q543LS69gGdGXnN6fEPcvcNYAA6Ib03jI8MW00]--></g></svg>