<?xml version="1.0" encoding="us-ascii" standalone="no"?><svg xmlns="http://www.w3.org/2000/svg" xmlns:xlink="http://www.w3.org/1999/xlink" contentStyleType="text/css" height="413px" preserveAspectRatio="none" style="width:1369px;height:413px;background:#FFFFFF;" version="1.1" viewBox="0 0 1369 413" width="1369px" zoomAndPan="magnify"><defs/><g><ellipse cx="537.7847" cy="16" fill="#222222" rx="10" ry="10" style="stroke:#222222;stroke-width:1.0;"/><g id="ServicioActivo"><rect fill="#F1F1F1" height="50" rx="12.5" ry="12.5" style="stroke:#181818;stroke-width:0.5;" width="123" x="476.2847" y="103"/><line style="stroke:#181818;stroke-width:0.5;" x1="476.2847" x2="599.2847" y1="129.2969" y2="129.2969"/><text fill="#000000" font-family="sans-serif" font-size="14" lengthAdjust="spacing" textLength="103" x="486.2847" y="120.9951">ServicioActivo</text></g><g id="ServicioInactivo"><rect fill="#F1F1F1" height="50" rx="12.5" ry="12.5" style="stroke:#181818;stroke-width:0.5;" width="134" x="57.7845" y="230"/><line style="stroke:#181818;stroke-width:0.5;" x1="57.7845" x2="191.7845" y1="256.2969" y2="256.2969"/><text fill="#000000" font-family="sans-serif" font-size="14" lengthAdjust="spacing" textLength="114" x="67.7845" y="247.9951">ServicioInactivo</text></g><g id="Paquete"><rect fill="#F1F1F1" height="50" rx="12.5" ry="12.5" style="stroke:#181818;stroke-width:0.5;" width="79" x="497.2847" y="230"/><line style="stroke:#181818;stroke-width:0.5;" x1="497.2847" x2="576.2847" y1="256.2969" y2="256.2969"/><text fill="#000000" font-family="sans-serif" font-size="14" lengthAdjust="spacing" textLength="59" x="507.2847" y="247.9951">Paquete</text></g><g id="UsuarioSuscrito"><rect fill="#F1F1F1" height="50" rx="12.5" ry="12.5" style="stroke:#181818;stroke-width:0.5;" width="129" x="720.2847" y="357"/><line style="stroke:#181818;stroke-width:0.5;" x1="720.2847" x2="849.2847" y1="383.2969" y2="383.2969"/><text fill="#000000" font-family="sans-serif" font-size="14" lengthAdjust="spacing" textLength="109" x="730.2847" y="374.9951">UsuarioSuscrito</text></g><!--link *start* to ServicioActivo--><g id="link_*start*_ServicioActivo"><path d="M537.7847,26.002 C537.7847,42.627 537.7847,72.655 537.7847,96.873 " fill="none" id="*start*-to-ServicioActivo" style="stroke:#181818;stroke-width:1.0;"/><polygon fill="#181818" points="537.7847,102.873,541.7847,93.873,537.7847,97.873,533.7847,93.873,537.7847,102.873" style="stroke:#181818;stroke-width:1.0;"/><text fill="#000000" font-family="sans-serif" font-size="13" lengthAdjust="spacing" textLength="120" x="538.7847" y="69.0669">se crea un servicio</text></g><!--link ServicioActivo to ServicioInactivo--><g id="link_ServicioActivo_ServicioInactivo"><path d="M476.1497,130.941 C346.2017,135.669 53.5797,149.911 23.7845,183 C6,202.751 23.6477,217.6122 52.2399,230.1762 " fill="none" id="ServicioActivo-to-ServicioInactivo" style="stroke:#181818;stroke-width:1.0;"/><polygon fill="#181818" points="57.733,232.59,51.1026,225.3073,53.1554,230.5785,47.8842,232.6314,57.733,232.59" style="stroke:#181818;stroke-width:1.0;"/><text fill="#000000" font-family="sans-serif" font-size="13" lengthAdjust="spacing" textLength="154" x="24.7845" y="196.0669">se desactiva un servicio</text></g><!--link ServicioInactivo to ServicioActivo--><g id="link_ServicioInactivo_ServicioActivo"><path d="M158.6987,229.979 C182.3417,214.334 215.1927,194.721 246.7847,183 C323.0207,154.716 410.2379,141.4137 470.2839,134.8837 " fill="none" id="ServicioInactivo-to-ServicioActivo" style="stroke:#181818;stroke-width:1.0;"/><polygon fill="#181818" points="476.2487,134.235,466.869,131.2315,471.278,134.7756,467.7339,139.1846,476.2487,134.235" style="stroke:#181818;stroke-width:1.0;"/><text fill="#000000" font-family="sans-serif" font-size="13" lengthAdjust="spacing" textLength="144" x="247.7847" y="196.0669">se reactiva un servicio</text></g><!--link ServicioActivo to Paquete--><g id="link_ServicioActivo_Paquete"><path d="M476.2087,138.584 C449.9047,146.061 421.6557,159.359 405.7847,183 C380.7677,220.263 443.9295,238.5501 491.0415,247.1621 " fill="none" id="ServicioActivo-to-Paquete" style="stroke:#181818;stroke-width:1.0;"/><polygon fill="#181818" points="496.9437,248.241,488.8097,242.6878,492.0252,247.3419,487.3711,250.5574,496.9437,248.241" style="stroke:#181818;stroke-width:1.0;"/><text fill="#000000" font-family="sans-serif" font-size="13" lengthAdjust="spacing" textLength="216" x="406.7847" y="196.0669">se a&#241;ade el servicio a un paquete</text></g><!--link Paquete to ServicioActivo--><g id="link_Paquete_ServicioActivo"><path d="M576.3657,241.112 C595.5077,232.653 616.6947,219.476 627.7847,200 C639.2077,179.938 627.0913,166.3082 604.6353,154.3062 " fill="none" id="Paquete-to-ServicioActivo" style="stroke:#181818;stroke-width:1.0;"/><polygon fill="#181818" points="599.3437,151.478,605.3957,159.248,603.7534,153.8348,609.1666,152.1926,599.3437,151.478" style="stroke:#181818;stroke-width:1.0;"/><text fill="#000000" font-family="sans-serif" font-size="13" lengthAdjust="spacing" textLength="213" x="632.7847" y="196.0669">se elimina el servicio del paquete</text></g><!--link ServicioActivo to UsuarioSuscrito--><g id="link_ServicioActivo_UsuarioSuscrito"><path d="M599.4977,131.516 C681.1687,136.15 819.0157,148.917 854.7847,183 C901.9857,227.976 915.9457,270.865 882.7847,327 C874.9787,340.2131 867.8368,347.3826 854.5308,355.1716 " fill="none" id="ServicioActivo-to-UsuarioSuscrito" style="stroke:#181818;stroke-width:1.0;"/><polygon fill="#181818" points="849.3527,358.2027,859.1405,357.1081,853.6678,355.6768,855.0991,350.204,849.3527,358.2027" style="stroke:#181818;stroke-width:1.0;"/><text fill="#000000" font-family="sans-serif" font-size="13" lengthAdjust="spacing" textLength="211" x="902.7847" y="259.5669">un usuario se suscribe al servicio</text></g><!--link UsuarioSuscrito to ServicioActivo--><g id="link_UsuarioSuscrito_ServicioActivo"><path d="M849.4777,375.597 C968.1567,363.246 1201.5877,326.2073 1122.7877,230 C1057.3477,150.119 741.9517,133.5623 605.3707,130.0723 " fill="none" id="UsuarioSuscrito-to-ServicioActivo" style="stroke:#181818;stroke-width:1.0;"/><polygon fill="#181818" points="599.3727,129.919,608.2676,134.1476,604.3711,130.0467,608.4719,126.1502,599.3727,129.919" style="stroke:#181818;stroke-width:1.0;"/><text fill="#000000" font-family="sans-serif" font-size="13" lengthAdjust="spacing" textLength="223" x="1138.7877" y="259.5669">un usuario se suscribe del paquete</text></g><!--link Paquete to UsuarioSuscrito--><g id="link_Paquete_UsuarioSuscrito"><path d="M497.2797,260.363 C441.4417,268.04 349.8987,287.088 384.7847,327 C406.4877,351.8305 606.5834,368.9238 714.1414,376.4539 " fill="none" id="Paquete-to-UsuarioSuscrito" style="stroke:#181818;stroke-width:1.0;"/><polygon fill="#181818" points="720.1267,376.8729,711.428,372.2541,715.1389,376.5237,710.8693,380.2346,720.1267,376.8729" style="stroke:#181818;stroke-width:1.0;"/><text fill="#000000" font-family="sans-serif" font-size="13" lengthAdjust="spacing" textLength="235" x="385.7847" y="323.0669">un usuario se desuscribe del servicio</text></g><!--link UsuarioSuscrito to Paquete--><g id="link_UsuarioSuscrito_Paquete"><path d="M726.6467,356.935 C705.9567,347.9884 682.6287,337.4605 661.7847,327 C632.6747,312.3913 605.9315,297.2705 581.6365,282.9705 " fill="none" id="UsuarioSuscrito-to-Paquete" style="stroke:#181818;stroke-width:1.0;"/><polygon fill="#181818" points="576.4657,279.927,582.1929,287.9395,580.7747,282.4633,586.2509,281.0451,576.4657,279.927" style="stroke:#181818;stroke-width:1.0;"/><text fill="#000000" font-family="sans-serif" font-size="13" lengthAdjust="spacing" textLength="215" x="662.7847" y="323.0669">un usuario se suscribe al paquete</text></g><!--SRC=[XP113e8m44Ntd6BM9bo0XObBToR4bN4njhEO145Rohqy0nTpIbCiI7L7wN_lJ-Uokq9Pxg4cCx3Yxg1w7Zgem18eGmYkbSzmLon3ANPiCG4rsUcuJSTihbPQy_1SVSAdevwW4WB75se2QkOyJFGZP8gOpJLImtTkSI7GSeZyYl6QitLekAkTLOPxxv4-5tvwfPqkRZBRnxcOuvz0TXWLEfchM7FUDU_Ynn3nBLlyrquoccGdRm00]--></g></svg>