<?xml version="1.0" encoding="UTF-8" standalone="no"?><svg xmlns="http://www.w3.org/2000/svg" xmlns:xlink="http://www.w3.org/1999/xlink" contentStyleType="text/css" height="692px" preserveAspectRatio="none" style="width:758px;height:692px;background:#FFFFFF;" version="1.1" viewBox="0 0 758 692" width="758px" zoomAndPan="magnify"><defs/><g><rect fill="#FFFFFF" height="29.0679" id="_title" style="stroke:none;stroke-width:1.0;" width="145" x="299.5" y="5"/><text fill="#000000" font-family="Arial" font-size="14" font-weight="bold" lengthAdjust="spacing" textLength="135" x="304.5" y="24.9659">Diagrama de Clases</text><!--MD5=[86a46607765088d6bc16607347922e0b]
class ALUMNI--><g id="elem_ALUMNI"><rect codeLine="8" fill="#F1F1F1" height="67.0679" id="ALUMNI" rx="2.5" ry="2.5" style="stroke:#181818;stroke-width:0.5;" width="87" x="267.5" y="47.0679"/><ellipse cx="282.5" cy="63.0679" fill="#ADD1B2" rx="11" ry="11" style="stroke:#181818;stroke-width:1.0;"/><path d="M281.9688,69.9898 Q280.2188,69.9898 279.0781,69.2554 Q277.9531,68.5054 277.3906,67.1617 Q276.8438,65.8023 276.8438,64.0054 Q276.8438,61.9742 277.5,60.521 Q278.1563,59.0679 279.4375,58.2867 Q280.7188,57.5054 282.5938,57.5054 Q283.4844,57.5054 284.1563,57.6929 Q284.8281,57.8648 285.5156,58.2085 L284.7031,60.2242 Q284.0781,59.9117 283.5313,59.7867 Q283,59.6617 282.5156,59.6617 Q281.3438,59.6617 280.6406,60.1929 Q279.9375,60.7242 279.6406,61.6773 Q279.3438,62.6304 279.3438,63.896 Q279.3438,65.9117 280.0625,66.8804 Q280.7813,67.8335 282.375,67.8335 Q282.9688,67.8335 283.5938,67.6773 Q284.2188,67.521 285.0469,67.146 L285.0469,69.3648 Q284.3125,69.6773 283.5156,69.8335 Q282.7344,69.9898 281.9688,69.9898 Z " fill="#000000"/><text fill="#000000" font-family="Arial" font-size="14" lengthAdjust="spacing" textLength="55" x="296.5" y="68.4999">ALUMNI</text><line style="stroke:#181818;stroke-width:0.5;" x1="268.5" x2="353.5" y1="79.0679" y2="79.0679"/><text fill="#000000" font-family="Arial" font-size="14" lengthAdjust="spacing" textLength="73" x="273.5" y="98.0339">Plataforma</text><line style="stroke:#181818;stroke-width:0.5;" x1="268.5" x2="353.5" y1="106.1358" y2="106.1358"/></g><!--MD5=[d487106a069dbf8887c3866d5775fb0b]
class SERVICIO EXTERNO--><g id="elem_SERVICIO EXTERNO"><rect codeLine="13" fill="#F1F1F1" height="48" id="SERVICIO EXTERNO" rx="2.5" ry="2.5" style="stroke:#181818;stroke-width:0.5;" width="150" x="7" y="56.6079"/><ellipse cx="22" cy="72.6079" fill="#A9DCDF" rx="11" ry="11" style="stroke:#181818;stroke-width:1.0;"/><path d="M17.1719,78.3579 L20.5156,66.1704 L23.6563,66.1704 L27.0313,78.3579 L24.5625,78.3579 L23.8281,75.3423 L20.3125,75.3423 L19.5625,78.3579 L17.1719,78.3579 Z M21.5781,70.311 L20.8281,73.311 L23.3438,73.311 L22.625,70.311 Q22.4844,69.7329 22.3594,69.186 Q22.2344,68.6235 22.0938,68.0454 Q21.9844,68.6235 21.8438,69.186 Q21.7031,69.7329 21.5781,70.311 Z " fill="#000000"/><text fill="#000000" font-family="Arial" font-size="14" font-style="italic" lengthAdjust="spacing" textLength="118" x="36" y="78.0399">SERVICIO EXTERNO</text><line style="stroke:#181818;stroke-width:0.5;" x1="8" x2="156" y1="88.6079" y2="88.6079"/><line style="stroke:#181818;stroke-width:0.5;" x1="8" x2="156" y1="96.6079" y2="96.6079"/></g><!--MD5=[9fb774ed7ae05b667c8401cd383f5fbb]
class USUARIO--><g id="elem_USUARIO"><rect codeLine="15" fill="#F1F1F1" height="143.3396" id="USUARIO" rx="2.5" ry="2.5" style="stroke:#181818;stroke-width:0.5;" width="153" x="234.5" y="193.1379"/><ellipse cx="278.75" cy="209.1379" fill="#A9DCDF" rx="11" ry="11" style="stroke:#181818;stroke-width:1.0;"/><path d="M273.9219,214.8879 L277.2656,202.7004 L280.4063,202.7004 L283.7813,214.8879 L281.3125,214.8879 L280.5781,211.8723 L277.0625,211.8723 L276.3125,214.8879 L273.9219,214.8879 Z M278.3281,206.841 L277.5781,209.841 L280.0938,209.841 L279.375,206.841 Q279.2344,206.2629 279.1094,205.716 Q278.9844,205.1535 278.8438,204.5754 Q278.7344,205.1535 278.5938,205.716 Q278.4531,206.2629 278.3281,206.841 Z " fill="#000000"/><text fill="#000000" font-family="Arial" font-size="14" font-style="italic" lengthAdjust="spacing" textLength="56" x="299.25" y="214.5699">USUARIO</text><line style="stroke:#181818;stroke-width:0.5;" x1="235.5" x2="386.5" y1="225.1379" y2="225.1379"/><text fill="#000000" font-family="Arial" font-size="14" lengthAdjust="spacing" textLength="15" x="240.5" y="244.1039">ID</text><text fill="#000000" font-family="Arial" font-size="14" lengthAdjust="spacing" textLength="55" x="240.5" y="263.1718">Nombre</text><text fill="#000000" font-family="Arial" font-size="14" lengthAdjust="spacing" textLength="55" x="240.5" y="282.2397">Apellido</text><text fill="#000000" font-family="Arial" font-size="14" lengthAdjust="spacing" textLength="141" x="240.5" y="301.3076">Fecha de Nacimiento</text><text fill="#000000" font-family="Arial" font-size="14" lengthAdjust="spacing" textLength="37" x="240.5" y="320.3755">Email</text><line style="stroke:#181818;stroke-width:0.5;" x1="235.5" x2="386.5" y1="328.4775" y2="328.4775"/></g><!--MD5=[2ab7582ab6c49ef72aa094ce2439025d]
class EGRESADO--><g id="elem_EGRESADO"><rect codeLine="24" fill="#F1F1F1" height="105.2038" id="EGRESADO" rx="2.5" ry="2.5" style="stroke:#181818;stroke-width:0.5;" width="154" x="234" y="425.0079"/><ellipse cx="271.05" cy="441.0079" fill="#ADD1B2" rx="11" ry="11" style="stroke:#181818;stroke-width:1.0;"/><path d="M270.5188,447.9298 Q268.7688,447.9298 267.6281,447.1954 Q266.5031,446.4454 265.9406,445.1017 Q265.3938,443.7423 265.3938,441.9454 Q265.3938,439.9142 266.05,438.461 Q266.7063,437.0079 267.9875,436.2267 Q269.2688,435.4454 271.1438,435.4454 Q272.0344,435.4454 272.7063,435.6329 Q273.3781,435.8048 274.0656,436.1485 L273.2531,438.1642 Q272.6281,437.8517 272.0813,437.7267 Q271.55,437.6017 271.0656,437.6017 Q269.8938,437.6017 269.1906,438.1329 Q268.4875,438.6642 268.1906,439.6173 Q267.8938,440.5704 267.8938,441.836 Q267.8938,443.8517 268.6125,444.8204 Q269.3313,445.7735 270.925,445.7735 Q271.5188,445.7735 272.1438,445.6173 Q272.7688,445.461 273.5969,445.086 L273.5969,447.3048 Q272.8625,447.6173 272.0656,447.7735 Q271.2844,447.9298 270.5188,447.9298 Z " fill="#000000"/><text fill="#000000" font-family="Arial" font-size="14" lengthAdjust="spacing" textLength="73" x="289.95" y="446.4399">EGRESADO</text><line style="stroke:#181818;stroke-width:0.5;" x1="235" x2="387" y1="457.0079" y2="457.0079"/><text fill="#000000" font-family="Arial" font-size="14" lengthAdjust="spacing" textLength="66" x="240" y="475.9739">Ubicacion</text><text fill="#000000" font-family="Arial" font-size="14" lengthAdjust="spacing" textLength="72" x="240" y="495.0418">Ocupación</text><text fill="#000000" font-family="Arial" font-size="14" lengthAdjust="spacing" textLength="142" x="240" y="514.1097">Carnet de Estudiante</text><line style="stroke:#181818;stroke-width:0.5;" x1="235" x2="387" y1="522.2117" y2="522.2117"/></g><!--MD5=[4c1736d2acf393d1932c4bd71ed8c52b]
class ADMINISTRADOR--><g id="elem_ADMINISTRADOR"><rect codeLine="31" fill="#F1F1F1" height="67.0679" id="ADMINISTRADOR" rx="2.5" ry="2.5" style="stroke:#181818;stroke-width:0.5;" width="149" x="50.5" y="231.2779"/><ellipse cx="65.5" cy="247.2779" fill="#ADD1B2" rx="11" ry="11" style="stroke:#181818;stroke-width:1.0;"/><path d="M64.9688,254.1998 Q63.2188,254.1998 62.0781,253.4654 Q60.9531,252.7154 60.3906,251.3717 Q59.8438,250.0123 59.8438,248.2154 Q59.8438,246.1842 60.5,244.731 Q61.1563,243.2779 62.4375,242.4967 Q63.7188,241.7154 65.5938,241.7154 Q66.4844,241.7154 67.1563,241.9029 Q67.8281,242.0748 68.5156,242.4185 L67.7031,244.4342 Q67.0781,244.1217 66.5313,243.9967 Q66,243.8717 65.5156,243.8717 Q64.3438,243.8717 63.6406,244.4029 Q62.9375,244.9342 62.6406,245.8873 Q62.3438,246.8404 62.3438,248.106 Q62.3438,250.1217 63.0625,251.0904 Q63.7813,252.0435 65.375,252.0435 Q65.9688,252.0435 66.5938,251.8873 Q67.2188,251.731 68.0469,251.356 L68.0469,253.5748 Q67.3125,253.8873 66.5156,254.0435 Q65.7344,254.1998 64.9688,254.1998 Z " fill="#000000"/><text fill="#000000" font-family="Arial" font-size="14" lengthAdjust="spacing" textLength="117" x="79.5" y="252.7099">ADMINISTRADOR</text><line style="stroke:#181818;stroke-width:0.5;" x1="51.5" x2="198.5" y1="263.2779" y2="263.2779"/><text fill="#000000" font-family="Arial" font-size="14" lengthAdjust="spacing" textLength="106" x="56.5" y="282.2439">Zona de trabajo</text><line style="stroke:#181818;stroke-width:0.5;" x1="51.5" x2="198.5" y1="290.3458" y2="290.3458"/></g><!--MD5=[a63780b95c376d0ca261608ab8f4ee8f]
class REQUISITO--><g id="elem_REQUISITO"><rect codeLine="36" fill="#F1F1F1" height="67.0679" id="REQUISITO" rx="2.5" ry="2.5" style="stroke:#181818;stroke-width:0.5;" width="149" x="236.5" y="618.7479"/><ellipse cx="270.4" cy="634.7479" fill="#ADD1B2" rx="11" ry="11" style="stroke:#181818;stroke-width:1.0;"/><path d="M269.8688,641.6698 Q268.1188,641.6698 266.9781,640.9354 Q265.8531,640.1854 265.2906,638.8417 Q264.7438,637.4823 264.7438,635.6854 Q264.7438,633.6542 265.4,632.201 Q266.0563,630.7479 267.3375,629.9667 Q268.6188,629.1854 270.4938,629.1854 Q271.3844,629.1854 272.0563,629.3729 Q272.7281,629.5448 273.4156,629.8885 L272.6031,631.9042 Q271.9781,631.5917 271.4313,631.4667 Q270.9,631.3417 270.4156,631.3417 Q269.2438,631.3417 268.5406,631.8729 Q267.8375,632.4042 267.5406,633.3573 Q267.2438,634.3104 267.2438,635.576 Q267.2438,637.5917 267.9625,638.5604 Q268.6813,639.5135 270.275,639.5135 Q270.8688,639.5135 271.4938,639.3573 Q272.1188,639.201 272.9469,638.826 L272.9469,641.0448 Q272.2125,641.3573 271.4156,641.5135 Q270.6344,641.6698 269.8688,641.6698 Z " fill="#000000"/><text fill="#000000" font-family="Arial" font-size="14" lengthAdjust="spacing" textLength="75" x="288.6" y="640.1799">REQUISITO</text><line style="stroke:#181818;stroke-width:0.5;" x1="237.5" x2="384.5" y1="650.7479" y2="650.7479"/><text fill="#000000" font-family="Arial" font-size="14" lengthAdjust="spacing" textLength="137" x="242.5" y="669.7139">Titulación de UNEAT</text><line style="stroke:#181818;stroke-width:0.5;" x1="237.5" x2="384.5" y1="677.8158" y2="677.8158"/></g><!--MD5=[4fba4a15a69a30bd8d74d766c660e0fd]
class ESTADISTICA--><g id="elem_ESTADISTICA"><rect codeLine="41" fill="#F1F1F1" height="48" id="ESTADISTICA" rx="2.5" ry="2.5" style="stroke:#181818;stroke-width:0.5;" width="119" x="432.5" y="56.6079"/><ellipse cx="447.5" cy="72.6079" fill="#ADD1B2" rx="11" ry="11" style="stroke:#181818;stroke-width:1.0;"/><path d="M446.9688,79.5298 Q445.2188,79.5298 444.0781,78.7954 Q442.9531,78.0454 442.3906,76.7017 Q441.8438,75.3423 441.8438,73.5454 Q441.8438,71.5142 442.5,70.061 Q443.1563,68.6079 444.4375,67.8267 Q445.7188,67.0454 447.5938,67.0454 Q448.4844,67.0454 449.1563,67.2329 Q449.8281,67.4048 450.5156,67.7485 L449.7031,69.7642 Q449.0781,69.4517 448.5313,69.3267 Q448,69.2017 447.5156,69.2017 Q446.3438,69.2017 445.6406,69.7329 Q444.9375,70.2642 444.6406,71.2173 Q444.3438,72.1704 444.3438,73.436 Q444.3438,75.4517 445.0625,76.4204 Q445.7813,77.3735 447.375,77.3735 Q447.9688,77.3735 448.5938,77.2173 Q449.2188,77.061 450.0469,76.686 L450.0469,78.9048 Q449.3125,79.2173 448.5156,79.3735 Q447.7344,79.5298 446.9688,79.5298 Z " fill="#000000"/><text fill="#000000" font-family="Arial" font-size="14" lengthAdjust="spacing" textLength="87" x="461.5" y="78.0399">ESTADISTICA</text><line style="stroke:#181818;stroke-width:0.5;" x1="433.5" x2="550.5" y1="88.6079" y2="88.6079"/><line style="stroke:#181818;stroke-width:0.5;" x1="433.5" x2="550.5" y1="96.6079" y2="96.6079"/></g><!--MD5=[19899f9ca578ac9ce8c1dbc8b9bc3638]
class SUSCRIPCIÓN--><g id="elem_SUSCRIPCIÓN"><rect codeLine="45" fill="#F1F1F1" height="105.2038" id="SUSCRIPCIÓN" rx="2.5" ry="2.5" style="stroke:#181818;stroke-width:0.5;" width="139" x="422.5" y="212.2079"/><ellipse cx="443.8" cy="228.2079" fill="#ADD1B2" rx="11" ry="11" style="stroke:#181818;stroke-width:1.0;"/><path d="M443.2688,235.1298 Q441.5188,235.1298 440.3781,234.3954 Q439.2531,233.6454 438.6906,232.3017 Q438.1438,230.9423 438.1438,229.1454 Q438.1438,227.1142 438.8,225.661 Q439.4563,224.2079 440.7375,223.4267 Q442.0188,222.6454 443.8938,222.6454 Q444.7844,222.6454 445.4563,222.8329 Q446.1281,223.0048 446.8156,223.3485 L446.0031,225.3642 Q445.3781,225.0517 444.8313,224.9267 Q444.3,224.8017 443.8156,224.8017 Q442.6438,224.8017 441.9406,225.3329 Q441.2375,225.8642 440.9406,226.8173 Q440.6438,227.7704 440.6438,229.036 Q440.6438,231.0517 441.3625,232.0204 Q442.0813,232.9735 443.675,232.9735 Q444.2688,232.9735 444.8938,232.8173 Q445.5188,232.661 446.3469,232.286 L446.3469,234.5048 Q445.6125,234.8173 444.8156,234.9735 Q444.0344,235.1298 443.2688,235.1298 Z " fill="#000000"/><text fill="#000000" font-family="Arial" font-size="14" lengthAdjust="spacing" textLength="93" x="459.2" y="233.6399">SUSCRIPCIÓN</text><line style="stroke:#181818;stroke-width:0.5;" x1="423.5" x2="560.5" y1="244.2079" y2="244.2079"/><text fill="#000000" font-family="Arial" font-size="14" lengthAdjust="spacing" textLength="127" x="428.5" y="263.1739">Paquetes Suscritos</text><text fill="#000000" font-family="Arial" font-size="14" lengthAdjust="spacing" textLength="124" x="428.5" y="282.2418">Servicios Suscritos</text><text fill="#000000" font-family="Arial" font-size="14" lengthAdjust="spacing" textLength="78" x="428.5" y="301.3097">Precio Total</text><line style="stroke:#181818;stroke-width:0.5;" x1="423.5" x2="560.5" y1="309.4117" y2="309.4117"/></g><!--MD5=[400228ae5d671c1e1fdff589fc59b7ba]
class PAQUETE--><g id="elem_PAQUETE"><rect codeLine="52" fill="#F1F1F1" height="124.2717" id="PAQUETE" rx="2.5" ry="2.5" style="stroke:#181818;stroke-width:0.5;" width="136" x="423" y="415.4779"/><ellipse cx="456.9" cy="431.4779" fill="#ADD1B2" rx="11" ry="11" style="stroke:#181818;stroke-width:1.0;"/><path d="M456.3688,438.3998 Q454.6188,438.3998 453.4781,437.6654 Q452.3531,436.9154 451.7906,435.5717 Q451.2438,434.2123 451.2438,432.4154 Q451.2438,430.3842 451.9,428.931 Q452.5563,427.4779 453.8375,426.6967 Q455.1188,425.9154 456.9938,425.9154 Q457.8844,425.9154 458.5563,426.1029 Q459.2281,426.2748 459.9156,426.6185 L459.1031,428.6342 Q458.4781,428.3217 457.9313,428.1967 Q457.4,428.0717 456.9156,428.0717 Q455.7438,428.0717 455.0406,428.6029 Q454.3375,429.1342 454.0406,430.0873 Q453.7438,431.0404 453.7438,432.306 Q453.7438,434.3217 454.4625,435.2904 Q455.1813,436.2435 456.775,436.2435 Q457.3688,436.2435 457.9938,436.0873 Q458.6188,435.931 459.4469,435.556 L459.4469,437.7748 Q458.7125,438.0873 457.9156,438.2435 Q457.1344,438.3998 456.3688,438.3998 Z " fill="#000000"/><text fill="#000000" font-family="Arial" font-size="14" lengthAdjust="spacing" textLength="62" x="475.1" y="436.9099">PAQUETE</text><line style="stroke:#181818;stroke-width:0.5;" x1="424" x2="558" y1="447.4779" y2="447.4779"/><text fill="#000000" font-family="Arial" font-size="14" lengthAdjust="spacing" textLength="55" x="429" y="466.4439">Nombre</text><text fill="#000000" font-family="Arial" font-size="14" lengthAdjust="spacing" textLength="79" x="429" y="485.5118">Descripción</text><text fill="#000000" font-family="Arial" font-size="14" lengthAdjust="spacing" textLength="124" x="429" y="504.5797">Servicios incluidos</text><text fill="#000000" font-family="Arial" font-size="14" lengthAdjust="spacing" textLength="41" x="429" y="523.6476">Precio</text><line style="stroke:#181818;stroke-width:0.5;" x1="424" x2="558" y1="531.7496" y2="531.7496"/></g><!--MD5=[30a145389985b39b0bce1272ac991c13]
class SERVICIO--><g id="elem_SERVICIO"><rect codeLine="60" fill="#F1F1F1" height="124.2717" id="SERVICIO" rx="2.5" ry="2.5" style="stroke:#181818;stroke-width:0.5;" width="114" x="637" y="415.4779"/><ellipse cx="662.8" cy="431.4779" fill="#A9DCDF" rx="11" ry="11" style="stroke:#181818;stroke-width:1.0;"/><path d="M657.9719,437.2279 L661.3156,425.0404 L664.4563,425.0404 L667.8313,437.2279 L665.3625,437.2279 L664.6281,434.2123 L661.1125,434.2123 L660.3625,437.2279 L657.9719,437.2279 Z M662.3781,429.181 L661.6281,432.181 L664.1438,432.181 L663.425,429.181 Q663.2844,428.6029 663.1594,428.056 Q663.0344,427.4935 662.8938,426.9154 Q662.7844,427.4935 662.6438,428.056 Q662.5031,428.6029 662.3781,429.181 Z " fill="#000000"/><text fill="#000000" font-family="Arial" font-size="14" font-style="italic" lengthAdjust="spacing" textLength="58" x="679.2" y="436.9099">SERVICIO</text><line style="stroke:#181818;stroke-width:0.5;" x1="638" x2="750" y1="447.4779" y2="447.4779"/><text fill="#000000" font-family="Arial" font-size="14" lengthAdjust="spacing" textLength="55" x="643" y="466.4439">Nombre</text><text fill="#000000" font-family="Arial" font-size="14" lengthAdjust="spacing" textLength="79" x="643" y="485.5118">Descripción</text><text fill="#000000" font-family="Arial" font-size="14" lengthAdjust="spacing" textLength="42" x="643" y="504.5797">precio</text><text fill="#000000" font-family="Arial" font-size="14" lengthAdjust="spacing" textLength="102" x="643" y="523.6476">tipo de servicio</text><line style="stroke:#181818;stroke-width:0.5;" x1="638" x2="750" y1="531.7496" y2="531.7496"/></g><!--MD5=[cd9d7b4beac7efb04da1046c0c93b951]
link ALUMNI to USUARIO--><g id="link_ALUMNI_USUARIO"><path codeLine="68" d="M311,114.5979 C311,136.4479 311,165.9379 311,192.9279 " fill="none" id="ALUMNI-USUARIO" style="stroke:#181818;stroke-width:1.0;"/><text fill="#000000" font-family="Arial" font-size="13" lengthAdjust="spacing" textLength="30" x="312" y="159.0349">tiene</text></g><!--MD5=[9365370cc971b884a8e805df918b3a71]
link ALUMNI to ESTADISTICA--><g id="link_ALUMNI_ESTADISTICA"><path codeLine="69" d="M354.82,80.6079 C378.04,80.6079 406.92,80.6079 432.18,80.6079 " fill="none" id="ALUMNI-ESTADISTICA" style="stroke:#181818;stroke-width:1.0;"/><text fill="#000000" font-family="Arial" font-size="13" lengthAdjust="spacing" textLength="42" x="372.5" y="73.5049">genera</text></g><!--MD5=[625d6457cff7940fcaddac1811ce25ea]
link ALUMNI to SUSCRIPCIÓN--><g id="link_ALUMNI_SUSCRIPCIÓN"><path codeLine="70" d="M343.78,114.5979 C370.67,141.6779 409.24,180.4979 440.29,211.7579 " fill="none" id="ALUMNI-SUSCRIPCIÓN" style="stroke:#181818;stroke-width:1.0;"/><text fill="#000000" font-family="Arial" font-size="13" lengthAdjust="spacing" textLength="30" x="392" y="159.0349">tiene</text></g><!--MD5=[f50313c6997b57110d5dab24447c9118]
link SERVICIO EXTERNO to ALUMNI--><g id="link_SERVICIO EXTERNO_ALUMNI"><path codeLine="71" d="M157.3,80.6079 C193.67,80.6079 236.04,80.6079 267.08,80.6079 " fill="none" id="SERVICIO EXTERNO-ALUMNI" style="stroke:#181818;stroke-width:1.0;"/><text fill="#000000" font-family="Arial" font-size="13" lengthAdjust="spacing" textLength="74" x="175.25" y="73.5049">se comunica</text></g><!--MD5=[7a78beded7e279d7942fce86d4482847]
link SUSCRIPCIÓN to SERVICIO--><g id="link_SUSCRIPCIÓN_SERVICIO"><path codeLine="72" d="M541.67,317.6479 C570.41,347.6379 606.7,385.5079 636.65,416.7579 " fill="none" id="SUSCRIPCIÓN-SERVICIO" style="stroke:#181818;stroke-width:1.0;"/><text fill="#000000" font-family="Arial" font-size="13" lengthAdjust="spacing" textLength="42" x="606" y="381.3749">incluye</text></g><!--MD5=[dddc89fd371c160f93cf11b7ec7e78d6]
link EGRESADO to REQUISITO--><g id="link_EGRESADO_REQUISITO"><path codeLine="73" d="M311,530.4179 C311,558.9279 311,593.4579 311,618.2979 " fill="none" id="EGRESADO-REQUISITO" style="stroke:#181818;stroke-width:1.0;"/><text fill="#000000" font-family="Arial" font-size="13" lengthAdjust="spacing" textLength="44" x="312" y="584.6449">cumple</text></g><!--MD5=[0ae76caab6403afd96ace9cd4635e9a5]
link SUSCRIPCIÓN to PAQUETE--><g id="link_SUSCRIPCIÓN_PAQUETE"><path codeLine="74" d="M491.75,317.6479 C491.61,347.1479 491.44,384.2779 491.29,415.2279 " fill="none" id="SUSCRIPCIÓN-PAQUETE" style="stroke:#181818;stroke-width:1.0;"/><text fill="#000000" font-family="Arial" font-size="13" lengthAdjust="spacing" textLength="42" x="493" y="381.3749">incluye</text></g><!--MD5=[b7918388a681f58c4ca22ddee4ca86c3]
link PAQUETE to SERVICIO--><g id="link_PAQUETE_SERVICIO"><path codeLine="75" d="M559.44,477.6179 C584.54,477.6179 612.65,477.6179 636.67,477.6179 " fill="none" id="PAQUETE-SERVICIO" style="stroke:#181818;stroke-width:1.0;"/><text fill="#000000" font-family="Arial" font-size="13" lengthAdjust="spacing" textLength="42" x="577" y="470.5149">incluye</text></g><!--MD5=[db839ad93d3aba4fedf50576859f9ea2]
reverse link USUARIO to EGRESADO--><g id="link_USUARIO_EGRESADO"><path codeLine="76" d="M311,358.3479 C311,381.1379 311,404.7479 311,424.8279 " fill="none" id="USUARIO-backto-EGRESADO" style="stroke:#181818;stroke-width:1.0;"/><polygon fill="none" points="304,358.3979,311,338.3979,318,358.3979,304,358.3979" style="stroke:#181818;stroke-width:1.0;"/></g><!--MD5=[c126933903f3eb1a530ad3212fc2242a]
link ADMINISTRADOR to USUARIO--><g id="link_ADMINISTRADOR_USUARIO"><path codeLine="77" d="M199.84,264.8079 C204.12,264.8079 208.41,264.8079 212.7,264.8079 " fill="none" id="ADMINISTRADOR-to-USUARIO" style="stroke:#181818;stroke-width:1.0;"/><polygon fill="none" points="212.63,257.8079,232.63,264.8079,212.63,271.8079,212.63,257.8079" style="stroke:#181818;stroke-width:1.0;"/></g><!--MD5=[0f15262c4370eece06a3d46540fc7acf]
link ALUMNI to ADMINISTRADOR--><g id="link_ALUMNI_ADMINISTRADOR"><path codeLine="78" d="M270.31,114.5279 C259.28,123.8479 247.48,134.1679 237,144.1379 C207.51,172.1779 176.02,206.2279 153.96,230.8279 " fill="none" id="ALUMNI-ADMINISTRADOR" style="stroke:#181818;stroke-width:1.0;"/><text fill="#000000" font-family="Arial" font-size="13" lengthAdjust="spacing" textLength="64" x="238" y="159.0349">administra</text></g><!--MD5=[cf9d63098d3abc25e415d56f92bde876]
@startuml AumniClasses

title Diagrama de Clases

'!theme amiga
skinparam backgroundColor white
skinparam defaultFontName Arial

class ALUMNI 
{
   Plataforma
}

abstract "SERVICIO EXTERNO" {}

abstract USUARIO 
{
    ID
    Nombre 
    Apellido
    Fecha de Nacimiento
    Email
}

class EGRESADO 
{
    Ubicacion
    Ocupación
    Carnet de Estudiante
}

class ADMINISTRADOR 
{
    Zona de trabajo
}

class REQUISITO 
{
    Titulación de UNEAT
}

class ESTADISTICA 
{
}

class SUSCRIPCIÓN 
{
    Paquetes Suscritos
    Servicios Suscritos
    Precio Total
}

class PAQUETE
{
    Nombre
    Descripción
    Servicios incluidos
    Precio
}

abstract SERVICIO 
{
    Nombre 
    Descripción
    precio
    tipo de servicio
}

ALUMNI - - USUARIO : tiene
ALUMNI - ESTADISTICA : genera
SUSCRIPCIÓN -up- ALUMNI : tiene
ALUMNI -left- "SERVICIO EXTERNO" : se comunica
SUSCRIPCIÓN - - SERVICIO : incluye
EGRESADO - - REQUISITO : cumple
SUSCRIPCIÓN - - PAQUETE : incluye
PAQUETE - SERVICIO : incluye
USUARIO <|- - EGRESADO
USUARIO <|-left- ADMINISTRADOR
ADMINISTRADOR -up- ALUMNI : administra

@enduml

@startuml AumniClasses

title Diagrama de Clases

skinparam backgroundColor white
skinparam defaultFontName Arial

class ALUMNI 
{
   Plataforma
}

abstract "SERVICIO EXTERNO" {}

abstract USUARIO 
{
    ID
    Nombre 
    Apellido
    Fecha de Nacimiento
    Email
}

class EGRESADO 
{
    Ubicacion
    Ocupación
    Carnet de Estudiante
}

class ADMINISTRADOR 
{
    Zona de trabajo
}

class REQUISITO 
{
    Titulación de UNEAT
}

class ESTADISTICA 
{
}

class SUSCRIPCIÓN 
{
    Paquetes Suscritos
    Servicios Suscritos
    Precio Total
}

class PAQUETE
{
    Nombre
    Descripción
    Servicios incluidos
    Precio
}

abstract SERVICIO 
{
    Nombre 
    Descripción
    precio
    tipo de servicio
}

ALUMNI - - USUARIO : tiene
ALUMNI - ESTADISTICA : genera
SUSCRIPCIÓN -up- ALUMNI : tiene
ALUMNI -left- "SERVICIO EXTERNO" : se comunica
SUSCRIPCIÓN - - SERVICIO : incluye
EGRESADO - - REQUISITO : cumple
SUSCRIPCIÓN - - PAQUETE : incluye
PAQUETE - SERVICIO : incluye
USUARIO <|- - EGRESADO
USUARIO <|-left- ADMINISTRADOR
ADMINISTRADOR -up- ALUMNI : administra

@enduml

PlantUML version 1.2022.7(Mon Aug 22 19:01:30 CEST 2022)
(GPL source distribution)
Java Runtime: OpenJDK Runtime Environment
JVM: OpenJDK 64-Bit Server VM
Default Encoding: UTF-8
Language: es
Country: ES
--></g></svg>