<?xml version="1.0" encoding="us-ascii" standalone="no"?><svg xmlns="http://www.w3.org/2000/svg" xmlns:xlink="http://www.w3.org/1999/xlink" contentStyleType="text/css" height="278px" preserveAspectRatio="none" style="width:440px;height:278px;background:#FFFFFF;" version="1.1" viewBox="0 0 440 278" width="440px" zoomAndPan="magnify"><defs/><g><!--class Trabajadores--><g id="elem_Trabajadores"><rect codeLine="1" fill="#F1F1F1" height="48" id="Trabajadores" rx="2.5" ry="2.5" style="stroke:#181818;stroke-width:0.5;" width="125" x="7" y="7"/><ellipse cx="22" cy="23" fill="#ADD1B2" rx="11" ry="11" style="stroke:#181818;stroke-width:1.0;"/><path d="M24.3438,18.6719 C23.4063,18.2344 22.8125,18.0938 21.9375,18.0938 C19.3125,18.0938 17.3125,20.1719 17.3125,22.8906 L17.3125,24.0156 C17.3125,26.5938 19.4219,28.4844 22.3125,28.4844 C23.5313,28.4844 24.6875,28.1875 25.4375,27.6406 C26.0156,27.2344 26.3438,26.7813 26.3438,26.3906 C26.3438,25.9375 25.9531,25.5469 25.4844,25.5469 C25.2656,25.5469 25.0625,25.625 24.875,25.8125 C24.4219,26.2969 24.4219,26.2969 24.2344,26.3906 C23.8125,26.6563 23.125,26.7813 22.3594,26.7813 C20.3125,26.7813 19.0156,25.6875 19.0156,23.9844 L19.0156,22.8906 C19.0156,21.1094 20.2656,19.7969 22,19.7969 C22.5781,19.7969 23.1875,19.9531 23.6563,20.2031 C24.1406,20.4844 24.3125,20.7031 24.4063,21.1094 C24.4688,21.5156 24.5,21.6406 24.6406,21.7656 C24.7813,21.9063 25.0156,22.0156 25.2344,22.0156 C25.5,22.0156 25.7656,21.875 25.9375,21.6563 C26.0469,21.5 26.0781,21.3125 26.0781,20.8906 L26.0781,19.4688 C26.0781,19.0313 26.0625,18.9063 25.9688,18.75 C25.8125,18.4844 25.5313,18.3438 25.2344,18.3438 C24.9375,18.3438 24.7344,18.4375 24.5156,18.75 L24.3438,18.6719 Z " fill="#000000"/><text fill="#000000" font-family="sans-serif" font-size="14" lengthAdjust="spacing" textLength="93" x="36" y="27.8467">Trabajadores</text><line style="stroke:#181818;stroke-width:0.5;" x1="8" x2="131" y1="39" y2="39"/><line style="stroke:#181818;stroke-width:0.5;" x1="8" x2="131" y1="47" y2="47"/></g><!--class LectorDeHuellas--><g id="elem_LectorDeHuellas"><rect codeLine="4" fill="#F1F1F1" height="48" id="LectorDeHuellas" rx="2.5" ry="2.5" style="stroke:#181818;stroke-width:0.5;" width="149" x="167" y="7"/><ellipse cx="182" cy="23" fill="#ADD1B2" rx="11" ry="11" style="stroke:#181818;stroke-width:1.0;"/><path d="M184.3438,18.6719 C183.4063,18.2344 182.8125,18.0938 181.9375,18.0938 C179.3125,18.0938 177.3125,20.1719 177.3125,22.8906 L177.3125,24.0156 C177.3125,26.5938 179.4219,28.4844 182.3125,28.4844 C183.5313,28.4844 184.6875,28.1875 185.4375,27.6406 C186.0156,27.2344 186.3438,26.7813 186.3438,26.3906 C186.3438,25.9375 185.9531,25.5469 185.4844,25.5469 C185.2656,25.5469 185.0625,25.625 184.875,25.8125 C184.4219,26.2969 184.4219,26.2969 184.2344,26.3906 C183.8125,26.6563 183.125,26.7813 182.3594,26.7813 C180.3125,26.7813 179.0156,25.6875 179.0156,23.9844 L179.0156,22.8906 C179.0156,21.1094 180.2656,19.7969 182,19.7969 C182.5781,19.7969 183.1875,19.9531 183.6563,20.2031 C184.1406,20.4844 184.3125,20.7031 184.4063,21.1094 C184.4688,21.5156 184.5,21.6406 184.6406,21.7656 C184.7813,21.9063 185.0156,22.0156 185.2344,22.0156 C185.5,22.0156 185.7656,21.875 185.9375,21.6563 C186.0469,21.5 186.0781,21.3125 186.0781,20.8906 L186.0781,19.4688 C186.0781,19.0313 186.0625,18.9063 185.9688,18.75 C185.8125,18.4844 185.5313,18.3438 185.2344,18.3438 C184.9375,18.3438 184.7344,18.4375 184.5156,18.75 L184.3438,18.6719 Z " fill="#000000"/><text fill="#000000" font-family="sans-serif" font-size="14" lengthAdjust="spacing" textLength="117" x="196" y="27.8467">LectorDeHuellas</text><line style="stroke:#181818;stroke-width:0.5;" x1="168" x2="315" y1="39" y2="39"/><line style="stroke:#181818;stroke-width:0.5;" x1="168" x2="315" y1="47" y2="47"/></g><!--class Fichaje--><g id="elem_Fichaje"><rect codeLine="7" fill="#F1F1F1" height="48" id="Fichaje" rx="2.5" ry="2.5" style="stroke:#181818;stroke-width:0.5;" width="82" x="351.5" y="7"/><ellipse cx="366.5" cy="23" fill="#ADD1B2" rx="11" ry="11" style="stroke:#181818;stroke-width:1.0;"/><path d="M368.8438,18.6719 C367.9063,18.2344 367.3125,18.0938 366.4375,18.0938 C363.8125,18.0938 361.8125,20.1719 361.8125,22.8906 L361.8125,24.0156 C361.8125,26.5938 363.9219,28.4844 366.8125,28.4844 C368.0313,28.4844 369.1875,28.1875 369.9375,27.6406 C370.5156,27.2344 370.8438,26.7813 370.8438,26.3906 C370.8438,25.9375 370.4531,25.5469 369.9844,25.5469 C369.7656,25.5469 369.5625,25.625 369.375,25.8125 C368.9219,26.2969 368.9219,26.2969 368.7344,26.3906 C368.3125,26.6563 367.625,26.7813 366.8594,26.7813 C364.8125,26.7813 363.5156,25.6875 363.5156,23.9844 L363.5156,22.8906 C363.5156,21.1094 364.7656,19.7969 366.5,19.7969 C367.0781,19.7969 367.6875,19.9531 368.1563,20.2031 C368.6406,20.4844 368.8125,20.7031 368.9063,21.1094 C368.9688,21.5156 369,21.6406 369.1406,21.7656 C369.2813,21.9063 369.5156,22.0156 369.7344,22.0156 C370,22.0156 370.2656,21.875 370.4375,21.6563 C370.5469,21.5 370.5781,21.3125 370.5781,20.8906 L370.5781,19.4688 C370.5781,19.0313 370.5625,18.9063 370.4688,18.75 C370.3125,18.4844 370.0313,18.3438 369.7344,18.3438 C369.4375,18.3438 369.2344,18.4375 369.0156,18.75 L368.8438,18.6719 Z " fill="#000000"/><text fill="#000000" font-family="sans-serif" font-size="14" lengthAdjust="spacing" textLength="50" x="380.5" y="27.8467">Fichaje</text><line style="stroke:#181818;stroke-width:0.5;" x1="352.5" x2="432.5" y1="39" y2="39"/><line style="stroke:#181818;stroke-width:0.5;" x1="352.5" x2="432.5" y1="47" y2="47"/></g><!--class Informe--><g id="elem_Informe"><rect codeLine="10" fill="#F1F1F1" height="48" id="Informe" rx="2.5" ry="2.5" style="stroke:#181818;stroke-width:0.5;" width="89" x="25" y="115"/><ellipse cx="40" cy="131" fill="#ADD1B2" rx="11" ry="11" style="stroke:#181818;stroke-width:1.0;"/><path d="M42.3438,126.6719 C41.4063,126.2344 40.8125,126.0938 39.9375,126.0938 C37.3125,126.0938 35.3125,128.1719 35.3125,130.8906 L35.3125,132.0156 C35.3125,134.5938 37.4219,136.4844 40.3125,136.4844 C41.5313,136.4844 42.6875,136.1875 43.4375,135.6406 C44.0156,135.2344 44.3438,134.7813 44.3438,134.3906 C44.3438,133.9375 43.9531,133.5469 43.4844,133.5469 C43.2656,133.5469 43.0625,133.625 42.875,133.8125 C42.4219,134.2969 42.4219,134.2969 42.2344,134.3906 C41.8125,134.6563 41.125,134.7813 40.3594,134.7813 C38.3125,134.7813 37.0156,133.6875 37.0156,131.9844 L37.0156,130.8906 C37.0156,129.1094 38.2656,127.7969 40,127.7969 C40.5781,127.7969 41.1875,127.9531 41.6563,128.2031 C42.1406,128.4844 42.3125,128.7031 42.4063,129.1094 C42.4688,129.5156 42.5,129.6406 42.6406,129.7656 C42.7813,129.9063 43.0156,130.0156 43.2344,130.0156 C43.5,130.0156 43.7656,129.875 43.9375,129.6563 C44.0469,129.5 44.0781,129.3125 44.0781,128.8906 L44.0781,127.4688 C44.0781,127.0313 44.0625,126.9063 43.9688,126.75 C43.8125,126.4844 43.5313,126.3438 43.2344,126.3438 C42.9375,126.3438 42.7344,126.4375 42.5156,126.75 L42.3438,126.6719 Z " fill="#000000"/><text fill="#000000" font-family="sans-serif" font-size="14" lengthAdjust="spacing" textLength="57" x="54" y="135.8467">Informe</text><line style="stroke:#181818;stroke-width:0.5;" x1="26" x2="113" y1="147" y2="147"/><line style="stroke:#181818;stroke-width:0.5;" x1="26" x2="113" y1="155" y2="155"/></g><!--class Horario--><g id="elem_Horario"><rect codeLine="13" fill="#F1F1F1" height="48" id="Horario" rx="2.5" ry="2.5" style="stroke:#181818;stroke-width:0.5;" width="84" x="149.5" y="115"/><ellipse cx="164.5" cy="131" fill="#ADD1B2" rx="11" ry="11" style="stroke:#181818;stroke-width:1.0;"/><path d="M166.8438,126.6719 C165.9063,126.2344 165.3125,126.0938 164.4375,126.0938 C161.8125,126.0938 159.8125,128.1719 159.8125,130.8906 L159.8125,132.0156 C159.8125,134.5938 161.9219,136.4844 164.8125,136.4844 C166.0313,136.4844 167.1875,136.1875 167.9375,135.6406 C168.5156,135.2344 168.8438,134.7813 168.8438,134.3906 C168.8438,133.9375 168.4531,133.5469 167.9844,133.5469 C167.7656,133.5469 167.5625,133.625 167.375,133.8125 C166.9219,134.2969 166.9219,134.2969 166.7344,134.3906 C166.3125,134.6563 165.625,134.7813 164.8594,134.7813 C162.8125,134.7813 161.5156,133.6875 161.5156,131.9844 L161.5156,130.8906 C161.5156,129.1094 162.7656,127.7969 164.5,127.7969 C165.0781,127.7969 165.6875,127.9531 166.1563,128.2031 C166.6406,128.4844 166.8125,128.7031 166.9063,129.1094 C166.9688,129.5156 167,129.6406 167.1406,129.7656 C167.2813,129.9063 167.5156,130.0156 167.7344,130.0156 C168,130.0156 168.2656,129.875 168.4375,129.6563 C168.5469,129.5 168.5781,129.3125 168.5781,128.8906 L168.5781,127.4688 C168.5781,127.0313 168.5625,126.9063 168.4688,126.75 C168.3125,126.4844 168.0313,126.3438 167.7344,126.3438 C167.4375,126.3438 167.2344,126.4375 167.0156,126.75 L166.8438,126.6719 Z " fill="#000000"/><text fill="#000000" font-family="sans-serif" font-size="14" lengthAdjust="spacing" textLength="52" x="178.5" y="135.8467">Horario</text><line style="stroke:#181818;stroke-width:0.5;" x1="150.5" x2="232.5" y1="147" y2="147"/><line style="stroke:#181818;stroke-width:0.5;" x1="150.5" x2="232.5" y1="155" y2="155"/></g><!--class Contrato--><g id="elem_Contrato"><rect codeLine="16" fill="#F1F1F1" height="48" id="Contrato" rx="2.5" ry="2.5" style="stroke:#181818;stroke-width:0.5;" width="97" x="269" y="115"/><ellipse cx="284" cy="131" fill="#ADD1B2" rx="11" ry="11" style="stroke:#181818;stroke-width:1.0;"/><path d="M286.3438,126.6719 C285.4063,126.2344 284.8125,126.0938 283.9375,126.0938 C281.3125,126.0938 279.3125,128.1719 279.3125,130.8906 L279.3125,132.0156 C279.3125,134.5938 281.4219,136.4844 284.3125,136.4844 C285.5313,136.4844 286.6875,136.1875 287.4375,135.6406 C288.0156,135.2344 288.3438,134.7813 288.3438,134.3906 C288.3438,133.9375 287.9531,133.5469 287.4844,133.5469 C287.2656,133.5469 287.0625,133.625 286.875,133.8125 C286.4219,134.2969 286.4219,134.2969 286.2344,134.3906 C285.8125,134.6563 285.125,134.7813 284.3594,134.7813 C282.3125,134.7813 281.0156,133.6875 281.0156,131.9844 L281.0156,130.8906 C281.0156,129.1094 282.2656,127.7969 284,127.7969 C284.5781,127.7969 285.1875,127.9531 285.6563,128.2031 C286.1406,128.4844 286.3125,128.7031 286.4063,129.1094 C286.4688,129.5156 286.5,129.6406 286.6406,129.7656 C286.7813,129.9063 287.0156,130.0156 287.2344,130.0156 C287.5,130.0156 287.7656,129.875 287.9375,129.6563 C288.0469,129.5 288.0781,129.3125 288.0781,128.8906 L288.0781,127.4688 C288.0781,127.0313 288.0625,126.9063 287.9688,126.75 C287.8125,126.4844 287.5313,126.3438 287.2344,126.3438 C286.9375,126.3438 286.7344,126.4375 286.5156,126.75 L286.3438,126.6719 Z " fill="#000000"/><text fill="#000000" font-family="sans-serif" font-size="14" lengthAdjust="spacing" textLength="65" x="298" y="135.8467">Contrato</text><line style="stroke:#181818;stroke-width:0.5;" x1="270" x2="365" y1="147" y2="147"/><line style="stroke:#181818;stroke-width:0.5;" x1="270" x2="365" y1="155" y2="155"/></g><!--class Normas--><g id="elem_Normas"><rect codeLine="19" fill="#F1F1F1" height="48" id="Normas" rx="2.5" ry="2.5" style="stroke:#181818;stroke-width:0.5;" width="86" x="26.5" y="223"/><ellipse cx="41.5" cy="239" fill="#ADD1B2" rx="11" ry="11" style="stroke:#181818;stroke-width:1.0;"/><path d="M43.8438,234.6719 C42.9063,234.2344 42.3125,234.0938 41.4375,234.0938 C38.8125,234.0938 36.8125,236.1719 36.8125,238.8906 L36.8125,240.0156 C36.8125,242.5938 38.9219,244.4844 41.8125,244.4844 C43.0313,244.4844 44.1875,244.1875 44.9375,243.6406 C45.5156,243.2344 45.8438,242.7813 45.8438,242.3906 C45.8438,241.9375 45.4531,241.5469 44.9844,241.5469 C44.7656,241.5469 44.5625,241.625 44.375,241.8125 C43.9219,242.2969 43.9219,242.2969 43.7344,242.3906 C43.3125,242.6563 42.625,242.7813 41.8594,242.7813 C39.8125,242.7813 38.5156,241.6875 38.5156,239.9844 L38.5156,238.8906 C38.5156,237.1094 39.7656,235.7969 41.5,235.7969 C42.0781,235.7969 42.6875,235.9531 43.1563,236.2031 C43.6406,236.4844 43.8125,236.7031 43.9063,237.1094 C43.9688,237.5156 44,237.6406 44.1406,237.7656 C44.2813,237.9063 44.5156,238.0156 44.7344,238.0156 C45,238.0156 45.2656,237.875 45.4375,237.6563 C45.5469,237.5 45.5781,237.3125 45.5781,236.8906 L45.5781,235.4688 C45.5781,235.0313 45.5625,234.9063 45.4688,234.75 C45.3125,234.4844 45.0313,234.3438 44.7344,234.3438 C44.4375,234.3438 44.2344,234.4375 44.0156,234.75 L43.8438,234.6719 Z " fill="#000000"/><text fill="#000000" font-family="sans-serif" font-size="14" lengthAdjust="spacing" textLength="54" x="55.5" y="243.8467">Normas</text><line style="stroke:#181818;stroke-width:0.5;" x1="27.5" x2="111.5" y1="255" y2="255"/><line style="stroke:#181818;stroke-width:0.5;" x1="27.5" x2="111.5" y1="263" y2="263"/></g><!--SRC=[Iyv9B2vM22bAJ4hCIap9BqejhkPI00AkMgvai9HFQd99Vf5BgaTfQWvG04tMBJCv8p4h5IWA5_BCIyiloaq5AuGBUkGN9HPbvgCAEkVdbHGbbkIZcUa7r0woYAiM0000]--></g></svg>
