<?xml version="1.0" encoding="us-ascii" standalone="no"?><svg xmlns="http://www.w3.org/2000/svg" xmlns:xlink="http://www.w3.org/1999/xlink" contentStyleType="text/css" height="494px" preserveAspectRatio="none" style="width:367px;height:494px;background:#FFFFFF;" version="1.1" viewBox="0 0 367 494" width="367px" zoomAndPan="magnify"><defs/><g><!--class Trabajadores--><g id="elem_Trabajadores"><rect codeLine="1" fill="#F1F1F1" height="48" id="Trabajadores" rx="2.5" ry="2.5" style="stroke:#181818;stroke-width:0.5;" width="125" x="147" y="7"/><ellipse cx="162" cy="23" fill="#ADD1B2" rx="11" ry="11" style="stroke:#181818;stroke-width:1.0;"/><path d="M164.3438,18.6719 C163.4063,18.2344 162.8125,18.0938 161.9375,18.0938 C159.3125,18.0938 157.3125,20.1719 157.3125,22.8906 L157.3125,24.0156 C157.3125,26.5938 159.4219,28.4844 162.3125,28.4844 C163.5313,28.4844 164.6875,28.1875 165.4375,27.6406 C166.0156,27.2344 166.3438,26.7813 166.3438,26.3906 C166.3438,25.9375 165.9531,25.5469 165.4844,25.5469 C165.2656,25.5469 165.0625,25.625 164.875,25.8125 C164.4219,26.2969 164.4219,26.2969 164.2344,26.3906 C163.8125,26.6563 163.125,26.7813 162.3594,26.7813 C160.3125,26.7813 159.0156,25.6875 159.0156,23.9844 L159.0156,22.8906 C159.0156,21.1094 160.2656,19.7969 162,19.7969 C162.5781,19.7969 163.1875,19.9531 163.6563,20.2031 C164.1406,20.4844 164.3125,20.7031 164.4063,21.1094 C164.4688,21.5156 164.5,21.6406 164.6406,21.7656 C164.7813,21.9063 165.0156,22.0156 165.2344,22.0156 C165.5,22.0156 165.7656,21.875 165.9375,21.6563 C166.0469,21.5 166.0781,21.3125 166.0781,20.8906 L166.0781,19.4688 C166.0781,19.0313 166.0625,18.9063 165.9688,18.75 C165.8125,18.4844 165.5313,18.3438 165.2344,18.3438 C164.9375,18.3438 164.7344,18.4375 164.5156,18.75 L164.3438,18.6719 Z " fill="#000000"/><text fill="#000000" font-family="sans-serif" font-size="14" lengthAdjust="spacing" textLength="93" x="176" y="27.8467">Trabajadores</text><line style="stroke:#181818;stroke-width:0.5;" x1="148" x2="271" y1="39" y2="39"/><line style="stroke:#181818;stroke-width:0.5;" x1="148" x2="271" y1="47" y2="47"/></g><!--class LectorDeHuellas--><g id="elem_LectorDeHuellas"><rect codeLine="4" fill="#F1F1F1" height="48" id="LectorDeHuellas" rx="2.5" ry="2.5" style="stroke:#181818;stroke-width:0.5;" width="149" x="7" y="115"/><ellipse cx="22" cy="131" fill="#ADD1B2" rx="11" ry="11" style="stroke:#181818;stroke-width:1.0;"/><path d="M24.3438,126.6719 C23.4063,126.2344 22.8125,126.0938 21.9375,126.0938 C19.3125,126.0938 17.3125,128.1719 17.3125,130.8906 L17.3125,132.0156 C17.3125,134.5938 19.4219,136.4844 22.3125,136.4844 C23.5313,136.4844 24.6875,136.1875 25.4375,135.6406 C26.0156,135.2344 26.3438,134.7813 26.3438,134.3906 C26.3438,133.9375 25.9531,133.5469 25.4844,133.5469 C25.2656,133.5469 25.0625,133.625 24.875,133.8125 C24.4219,134.2969 24.4219,134.2969 24.2344,134.3906 C23.8125,134.6563 23.125,134.7813 22.3594,134.7813 C20.3125,134.7813 19.0156,133.6875 19.0156,131.9844 L19.0156,130.8906 C19.0156,129.1094 20.2656,127.7969 22,127.7969 C22.5781,127.7969 23.1875,127.9531 23.6563,128.2031 C24.1406,128.4844 24.3125,128.7031 24.4063,129.1094 C24.4688,129.5156 24.5,129.6406 24.6406,129.7656 C24.7813,129.9063 25.0156,130.0156 25.2344,130.0156 C25.5,130.0156 25.7656,129.875 25.9375,129.6563 C26.0469,129.5 26.0781,129.3125 26.0781,128.8906 L26.0781,127.4688 C26.0781,127.0313 26.0625,126.9063 25.9688,126.75 C25.8125,126.4844 25.5313,126.3438 25.2344,126.3438 C24.9375,126.3438 24.7344,126.4375 24.5156,126.75 L24.3438,126.6719 Z " fill="#000000"/><text fill="#000000" font-family="sans-serif" font-size="14" lengthAdjust="spacing" textLength="117" x="36" y="135.8467">LectorDeHuellas</text><line style="stroke:#181818;stroke-width:0.5;" x1="8" x2="155" y1="147" y2="147"/><line style="stroke:#181818;stroke-width:0.5;" x1="8" x2="155" y1="155" y2="155"/></g><!--class Fichaje--><g id="elem_Fichaje"><rect codeLine="6" fill="#F1F1F1" height="48" id="Fichaje" rx="2.5" ry="2.5" style="stroke:#181818;stroke-width:0.5;" width="82" x="57.5" y="223"/><ellipse cx="72.5" cy="239" fill="#ADD1B2" rx="11" ry="11" style="stroke:#181818;stroke-width:1.0;"/><path d="M74.8438,234.6719 C73.9063,234.2344 73.3125,234.0938 72.4375,234.0938 C69.8125,234.0938 67.8125,236.1719 67.8125,238.8906 L67.8125,240.0156 C67.8125,242.5938 69.9219,244.4844 72.8125,244.4844 C74.0313,244.4844 75.1875,244.1875 75.9375,243.6406 C76.5156,243.2344 76.8438,242.7813 76.8438,242.3906 C76.8438,241.9375 76.4531,241.5469 75.9844,241.5469 C75.7656,241.5469 75.5625,241.625 75.375,241.8125 C74.9219,242.2969 74.9219,242.2969 74.7344,242.3906 C74.3125,242.6563 73.625,242.7813 72.8594,242.7813 C70.8125,242.7813 69.5156,241.6875 69.5156,239.9844 L69.5156,238.8906 C69.5156,237.1094 70.7656,235.7969 72.5,235.7969 C73.0781,235.7969 73.6875,235.9531 74.1563,236.2031 C74.6406,236.4844 74.8125,236.7031 74.9063,237.1094 C74.9688,237.5156 75,237.6406 75.1406,237.7656 C75.2813,237.9063 75.5156,238.0156 75.7344,238.0156 C76,238.0156 76.2656,237.875 76.4375,237.6563 C76.5469,237.5 76.5781,237.3125 76.5781,236.8906 L76.5781,235.4688 C76.5781,235.0313 76.5625,234.9063 76.4688,234.75 C76.3125,234.4844 76.0313,234.3438 75.7344,234.3438 C75.4375,234.3438 75.2344,234.4375 75.0156,234.75 L74.8438,234.6719 Z " fill="#000000"/><text fill="#000000" font-family="sans-serif" font-size="14" lengthAdjust="spacing" textLength="50" x="86.5" y="243.8467">Fichaje</text><line style="stroke:#181818;stroke-width:0.5;" x1="58.5" x2="138.5" y1="255" y2="255"/><line style="stroke:#181818;stroke-width:0.5;" x1="58.5" x2="138.5" y1="263" y2="263"/></g><!--class Informe--><g id="elem_Informe"><rect codeLine="9" fill="#F1F1F1" height="48" id="Informe" rx="2.5" ry="2.5" style="stroke:#181818;stroke-width:0.5;" width="89" x="109" y="331"/><ellipse cx="124" cy="347" fill="#ADD1B2" rx="11" ry="11" style="stroke:#181818;stroke-width:1.0;"/><path d="M126.3438,342.6719 C125.4063,342.2344 124.8125,342.0938 123.9375,342.0938 C121.3125,342.0938 119.3125,344.1719 119.3125,346.8906 L119.3125,348.0156 C119.3125,350.5938 121.4219,352.4844 124.3125,352.4844 C125.5313,352.4844 126.6875,352.1875 127.4375,351.6406 C128.0156,351.2344 128.3438,350.7813 128.3438,350.3906 C128.3438,349.9375 127.9531,349.5469 127.4844,349.5469 C127.2656,349.5469 127.0625,349.625 126.875,349.8125 C126.4219,350.2969 126.4219,350.2969 126.2344,350.3906 C125.8125,350.6563 125.125,350.7813 124.3594,350.7813 C122.3125,350.7813 121.0156,349.6875 121.0156,347.9844 L121.0156,346.8906 C121.0156,345.1094 122.2656,343.7969 124,343.7969 C124.5781,343.7969 125.1875,343.9531 125.6563,344.2031 C126.1406,344.4844 126.3125,344.7031 126.4063,345.1094 C126.4688,345.5156 126.5,345.6406 126.6406,345.7656 C126.7813,345.9063 127.0156,346.0156 127.2344,346.0156 C127.5,346.0156 127.7656,345.875 127.9375,345.6563 C128.0469,345.5 128.0781,345.3125 128.0781,344.8906 L128.0781,343.4688 C128.0781,343.0313 128.0625,342.9063 127.9688,342.75 C127.8125,342.4844 127.5313,342.3438 127.2344,342.3438 C126.9375,342.3438 126.7344,342.4375 126.5156,342.75 L126.3438,342.6719 Z " fill="#000000"/><text fill="#000000" font-family="sans-serif" font-size="14" lengthAdjust="spacing" textLength="57" x="138" y="351.8467">Informe</text><line style="stroke:#181818;stroke-width:0.5;" x1="110" x2="197" y1="363" y2="363"/><line style="stroke:#181818;stroke-width:0.5;" x1="110" x2="197" y1="371" y2="371"/></g><!--class Horario--><g id="elem_Horario"><rect codeLine="11" fill="#F1F1F1" height="48" id="Horario" rx="2.5" ry="2.5" style="stroke:#181818;stroke-width:0.5;" width="84" x="111.5" y="439"/><ellipse cx="126.5" cy="455" fill="#ADD1B2" rx="11" ry="11" style="stroke:#181818;stroke-width:1.0;"/><path d="M128.8438,450.6719 C127.9063,450.2344 127.3125,450.0938 126.4375,450.0938 C123.8125,450.0938 121.8125,452.1719 121.8125,454.8906 L121.8125,456.0156 C121.8125,458.5938 123.9219,460.4844 126.8125,460.4844 C128.0313,460.4844 129.1875,460.1875 129.9375,459.6406 C130.5156,459.2344 130.8438,458.7813 130.8438,458.3906 C130.8438,457.9375 130.4531,457.5469 129.9844,457.5469 C129.7656,457.5469 129.5625,457.625 129.375,457.8125 C128.9219,458.2969 128.9219,458.2969 128.7344,458.3906 C128.3125,458.6563 127.625,458.7813 126.8594,458.7813 C124.8125,458.7813 123.5156,457.6875 123.5156,455.9844 L123.5156,454.8906 C123.5156,453.1094 124.7656,451.7969 126.5,451.7969 C127.0781,451.7969 127.6875,451.9531 128.1563,452.2031 C128.6406,452.4844 128.8125,452.7031 128.9063,453.1094 C128.9688,453.5156 129,453.6406 129.1406,453.7656 C129.2813,453.9063 129.5156,454.0156 129.7344,454.0156 C130,454.0156 130.2656,453.875 130.4375,453.6563 C130.5469,453.5 130.5781,453.3125 130.5781,452.8906 L130.5781,451.4688 C130.5781,451.0313 130.5625,450.9063 130.4688,450.75 C130.3125,450.4844 130.0313,450.3438 129.7344,450.3438 C129.4375,450.3438 129.2344,450.4375 129.0156,450.75 L128.8438,450.6719 Z " fill="#000000"/><text fill="#000000" font-family="sans-serif" font-size="14" lengthAdjust="spacing" textLength="52" x="140.5" y="459.8467">Horario</text><line style="stroke:#181818;stroke-width:0.5;" x1="112.5" x2="194.5" y1="471" y2="471"/><line style="stroke:#181818;stroke-width:0.5;" x1="112.5" x2="194.5" y1="479" y2="479"/></g><!--class Contrato--><g id="elem_Contrato"><rect codeLine="14" fill="#F1F1F1" height="48" id="Contrato" rx="2.5" ry="2.5" style="stroke:#181818;stroke-width:0.5;" width="97" x="263" y="115"/><ellipse cx="278" cy="131" fill="#ADD1B2" rx="11" ry="11" style="stroke:#181818;stroke-width:1.0;"/><path d="M280.3438,126.6719 C279.4063,126.2344 278.8125,126.0938 277.9375,126.0938 C275.3125,126.0938 273.3125,128.1719 273.3125,130.8906 L273.3125,132.0156 C273.3125,134.5938 275.4219,136.4844 278.3125,136.4844 C279.5313,136.4844 280.6875,136.1875 281.4375,135.6406 C282.0156,135.2344 282.3438,134.7813 282.3438,134.3906 C282.3438,133.9375 281.9531,133.5469 281.4844,133.5469 C281.2656,133.5469 281.0625,133.625 280.875,133.8125 C280.4219,134.2969 280.4219,134.2969 280.2344,134.3906 C279.8125,134.6563 279.125,134.7813 278.3594,134.7813 C276.3125,134.7813 275.0156,133.6875 275.0156,131.9844 L275.0156,130.8906 C275.0156,129.1094 276.2656,127.7969 278,127.7969 C278.5781,127.7969 279.1875,127.9531 279.6563,128.2031 C280.1406,128.4844 280.3125,128.7031 280.4063,129.1094 C280.4688,129.5156 280.5,129.6406 280.6406,129.7656 C280.7813,129.9063 281.0156,130.0156 281.2344,130.0156 C281.5,130.0156 281.7656,129.875 281.9375,129.6563 C282.0469,129.5 282.0781,129.3125 282.0781,128.8906 L282.0781,127.4688 C282.0781,127.0313 282.0625,126.9063 281.9688,126.75 C281.8125,126.4844 281.5313,126.3438 281.2344,126.3438 C280.9375,126.3438 280.7344,126.4375 280.5156,126.75 L280.3438,126.6719 Z " fill="#000000"/><text fill="#000000" font-family="sans-serif" font-size="14" lengthAdjust="spacing" textLength="65" x="292" y="135.8467">Contrato</text><line style="stroke:#181818;stroke-width:0.5;" x1="264" x2="359" y1="147" y2="147"/><line style="stroke:#181818;stroke-width:0.5;" x1="264" x2="359" y1="155" y2="155"/></g><!--link Trabajadores to Contrato--><g id="link_Trabajadores_Contrato"><path codeLine="18" d="M231.632,55 C248.624,72.658 271.99,96.941 289.058,114.678 " fill="none" id="Trabajadores-Contrato" style="stroke:#181818;stroke-width:1.0;"/></g><!--link Trabajadores to LectorDeHuellas--><g id="link_Trabajadores_LectorDeHuellas"><path codeLine="19" d="M181.726,55 C160.403,72.658 131.081,96.941 109.662,114.678 " fill="none" id="Trabajadores-LectorDeHuellas" style="stroke:#181818;stroke-width:1.0;"/></g><!--link LectorDeHuellas to Fichaje--><g id="link_LectorDeHuellas_Fichaje"><path codeLine="20" d="M85.1887,163 C88.0207,180.658 91.915,204.941 94.7597,222.678 " fill="none" id="LectorDeHuellas-Fichaje" style="stroke:#181818;stroke-width:1.0;"/></g><!--link Fichaje to Informe--><g id="link_Fichaje_Informe"><path codeLine="21" d="M110.434,271 C119.596,288.658 132.196,312.941 141.399,330.678 " fill="none" id="Fichaje-Informe" style="stroke:#181818;stroke-width:1.0;"/></g><!--link Informe to Horario--><g id="link_Informe_Horario"><path codeLine="22" d="M153.5,379 C153.5,396.6584 153.5,420.9408 153.5,438.6784 " fill="none" id="Informe-Horario" style="stroke:#181818;stroke-width:1.0;stroke-dasharray:7.0,7.0;"/></g><!--link Trabajadores to Informe--><g id="link_Trabajadores_Informe"><path codeLine="23" d="M205.473,55.157 C195.165,114.425 167.916,271.109 157.566,330.62 " fill="none" id="Trabajadores-Informe" style="stroke:#181818;stroke-width:1.0;"/></g><!--SRC=[POv12eGm40JlyuhvW7x2PL7mw0V6x8YAEZ39diI_6oNHeBUckw3BJ6GjDaejZVGJPRi2R63EkcRZH3zS_ddonNeDty7qD7A2LaidElEDbAAaWoH88OjJSd8m0EabPjcrucjvM20y2yy48OGOV1UK46B8ysZrFWdC3W00]--></g></svg>
