<?xml version="1.0" encoding="UTF-8" standalone="no"?><svg xmlns="http://www.w3.org/2000/svg" xmlns:xlink="http://www.w3.org/1999/xlink" contentStyleType="text/css" height="873px" preserveAspectRatio="none" style="width:527px;height:873px;background:#FFFFFF;" version="1.1" viewBox="0 0 527 873" width="527px" zoomAndPan="magnify"><defs/><g><rect fill="none" height="27.6094" id="_title" style="stroke:none;stroke-width:1.0;" width="151" x="178" y="5"/><text fill="#000000" font-family="sans-serif" font-size="14" font-weight="bold" lengthAdjust="spacing" textLength="141" x="183" y="24.5332">Crear Administrador</text><rect fill="#F1F1F1" height="40" rx="12.5" ry="12.5" style="stroke:#181818;stroke-width:0.5;" width="141" x="190" y="45.6094"/><text fill="#000000" font-family="sans-serif" font-size="14" lengthAdjust="spacing" textLength="131" x="195" y="71.3379">ADMINISTRADORES</text><path d="M19.5,197.6094 L501.5,197.6094 A12.5,12.5 0 0 1 514,210.1094 L514,225.2188 L7,225.2188 L7,210.1094 A12.5,12.5 0 0 1 19.5,197.6094 " fill="#F1F1F1" style="stroke:#F1F1F1;stroke-width:1.0;"/><rect fill="none" height="669.6094" rx="12.5" ry="12.5" style="stroke:#181818;stroke-width:0.5;" width="507" x="7" y="197.6094"/><line style="stroke:#181818;stroke-width:0.5;" x1="7" x2="514" y1="225.2188" y2="225.2188"/><text fill="#000000" font-family="sans-serif" font-size="14" lengthAdjust="spacing" textLength="123" x="199" y="217.1426">CrearAdministrador</text><rect fill="#F1F1F1" height="40" rx="12.5" ry="12.5" style="stroke:#181818;stroke-width:0.5;" width="50" x="114" y="293.2188"/><text fill="#000000" font-family="sans-serif" font-size="14" lengthAdjust="spacing" textLength="4" x="137" y="318.9473"> </text><rect fill="#F1F1F1" height="40" rx="12.5" ry="12.5" style="stroke:#181818;stroke-width:0.5;" width="50" x="19" y="525.2188"/><text fill="#000000" font-family="sans-serif" font-size="14" lengthAdjust="spacing" textLength="4" x="42" y="550.9473"> </text><g id="elem_4"><polygon fill="#F1F1F1" points="134,725.2188,146,737.2188,134,749.2188,122,737.2188,134,725.2188" style="stroke:#181818;stroke-width:0.5;"/></g><ellipse cx="139" cy="246.2188" fill="#222222" rx="10" ry="10" style="stroke:none;stroke-width:1.0;"/><ellipse cx="134" cy="847.2188" fill="none" rx="10" ry="10" style="stroke:#222222;stroke-width:1.0;"/><ellipse cx="134.5" cy="847.7188" fill="#222222" rx="6" ry="6" style="stroke:none;stroke-width:1.0;"/><!--MD5=[94343e84b6dbfeabd2344e31c9197269]
link *start*CrearAdministrador to 2--><g id="link_*start*CrearAdministrador_2"><path d="M139,256.2587 C139,264.4088 139,276.7787 139,287.8188 " fill="none" id="*start*CrearAdministrador-to-2" style="stroke:#008000;stroke-width:1.0;"/><polygon fill="#008000" points="139,293.1088,143,284.1088,139,288.1088,135,284.1088,139,293.1088" style="stroke:#008000;stroke-width:1.0;"/></g><!--MD5=[eeb69082328d10abd3b14fdeede0d8a3]
link 2 to 3--><g id="link_2_3"><path d="M113.8,325.3188 C89.05,336.2188 55,351.2188 55,351.2188 C55,351.2188 48.34,468.0288 45.39,519.8988 " fill="none" id="2-to-3" style="stroke:#008000;stroke-width:1.0;"/><polygon fill="#008000" points="45.09,525.0088,49.5969,516.2516,45.3752,520.0169,41.61,515.7952,45.09,525.0088" style="stroke:#008000;stroke-width:1.0;"/><path d="M60,356.2188 L60,496.2188 L215,496.2188 L215,366.2188 L205,356.2188 L60,356.2188 " fill="#F5F5F5" style="stroke:#181818;stroke-width:0.5;"/><path d="M205,356.2188 L205,366.2188 L215,366.2188 L205,356.2188 " fill="#F5F5F5" style="stroke:#181818;stroke-width:0.5;"/><text fill="#000000" font-family="sans-serif" font-size="13" font-weight="bold" lengthAdjust="spacing" textLength="103" x="66" y="374.7139">Sistema Solicita</text><ellipse cx="71.5" cy="386.4219" fill="#000000" rx="2.5" ry="2.5" style="stroke:#000000;stroke-width:0.0;"/><text fill="#000000" font-family="sans-serif" font-size="13" lengthAdjust="spacing" textLength="45" x="79" y="391.0654">Nombre</text><ellipse cx="71.5" cy="402.7734" fill="#000000" rx="2.5" ry="2.5" style="stroke:#000000;stroke-width:0.0;"/><text fill="#000000" font-family="sans-serif" font-size="13" lengthAdjust="spacing" textLength="46" x="79" y="407.417">Apellido</text><ellipse cx="71.5" cy="419.125" fill="#000000" rx="2.5" ry="2.5" style="stroke:#000000;stroke-width:0.0;"/><text fill="#000000" font-family="sans-serif" font-size="13" lengthAdjust="spacing" textLength="121" x="79" y="423.7686">Fecha de nacimiento</text><ellipse cx="71.5" cy="435.4766" fill="#000000" rx="2.5" ry="2.5" style="stroke:#000000;stroke-width:0.0;"/><text fill="#000000" font-family="sans-serif" font-size="13" lengthAdjust="spacing" textLength="33" x="79" y="440.1201">Email</text><ellipse cx="71.5" cy="451.8281" fill="#000000" rx="2.5" ry="2.5" style="stroke:#000000;stroke-width:0.0;"/><text fill="#000000" font-family="sans-serif" font-size="13" lengthAdjust="spacing" textLength="66" x="79" y="456.4717">Contraseña</text><text fill="#000000" font-family="sans-serif" font-size="13" font-weight="bold" lengthAdjust="spacing" textLength="105" x="66" y="472.8232">Sistema Permite</text><ellipse cx="71.5" cy="484.5313" fill="#000000" rx="2.5" ry="2.5" style="stroke:#000000;stroke-width:0.0;"/><text fill="#000000" font-family="sans-serif" font-size="13" lengthAdjust="spacing" textLength="115" x="79" y="489.1748">Crear Administrador</text></g><!--MD5=[b1f22f0c97e7f2b556a5a2d67c42ac53]
link 3 to 4--><g id="link_3_4"><path d="M40.42,565.4588 C38.29,576.9088 36,589.2188 36,589.2188 C36,589.2188 36,707.2188 36,707.2188 C36,707.2188 93.41,724.2088 120.35,732.1788 " fill="none" id="3-to-4" style="stroke:#008000;stroke-width:1.0;"/><polygon fill="#008000" points="125.3,733.6488,117.8149,727.2477,120.5077,732.2225,115.5329,734.9153,125.3,733.6488" style="stroke:#008000;stroke-width:1.0;"/><path d="M41,594.2188 L41,702.2188 L215,702.2188 L215,604.2188 L205,594.2188 L41,594.2188 " fill="#F5F5F5" style="stroke:#181818;stroke-width:0.5;"/><path d="M205,594.2188 L205,604.2188 L215,604.2188 L205,594.2188 " fill="#F5F5F5" style="stroke:#181818;stroke-width:0.5;"/><text fill="#000000" font-family="sans-serif" font-size="13" font-weight="bold" lengthAdjust="spacing" textLength="153" x="47" y="612.7139">Amdinistrador Introduce</text><ellipse cx="52.5" cy="624.4219" fill="#000000" rx="2.5" ry="2.5" style="stroke:#000000;stroke-width:0.0;"/><text fill="#000000" font-family="sans-serif" font-size="13" lengthAdjust="spacing" textLength="45" x="60" y="629.0654">Nombre</text><ellipse cx="52.5" cy="640.7734" fill="#000000" rx="2.5" ry="2.5" style="stroke:#000000;stroke-width:0.0;"/><text fill="#000000" font-family="sans-serif" font-size="13" lengthAdjust="spacing" textLength="46" x="60" y="645.417">Apellido</text><ellipse cx="52.5" cy="657.125" fill="#000000" rx="2.5" ry="2.5" style="stroke:#000000;stroke-width:0.0;"/><text fill="#000000" font-family="sans-serif" font-size="13" lengthAdjust="spacing" textLength="121" x="60" y="661.7686">Fecha de nacimiento</text><ellipse cx="52.5" cy="673.4766" fill="#000000" rx="2.5" ry="2.5" style="stroke:#000000;stroke-width:0.0;"/><text fill="#000000" font-family="sans-serif" font-size="13" lengthAdjust="spacing" textLength="33" x="60" y="678.1201">Email</text><ellipse cx="52.5" cy="689.8281" fill="#000000" rx="2.5" ry="2.5" style="stroke:#000000;stroke-width:0.0;"/><text fill="#000000" font-family="sans-serif" font-size="13" lengthAdjust="spacing" textLength="66" x="60" y="694.4717">Contraseña</text></g><!--MD5=[b508b1162d6862a7cd4aa49672c73b13]
link 4 to *end*CrearAdministrador--><g id="link_4_*end*CrearAdministrador"><path d="M134,749.3688 C134,769.1488 134,810.3088 134,832.0588 " fill="none" id="4-to-*end*CrearAdministrador" style="stroke:#008000;stroke-width:1.0;"/><polygon fill="#008000" points="134,837.1388,138,828.1388,134,832.1388,130,828.1388,134,837.1388" style="stroke:#008000;stroke-width:1.0;"/><path d="M139,772.2188 L139,814.2188 L298,814.2188 L298,782.2188 L288,772.2188 L139,772.2188 " fill="#F5F5F5" style="stroke:#181818;stroke-width:0.5;"/><path d="M288,772.2188 L288,782.2188 L298,782.2188 L288,772.2188 " fill="#F5F5F5" style="stroke:#181818;stroke-width:0.5;"/><text fill="#000000" font-family="sans-serif" font-size="13" font-weight="bold" lengthAdjust="spacing" textLength="105" x="145" y="790.7139">Sistema Muestra</text><ellipse cx="150.5" cy="802.4219" fill="#000000" rx="2.5" ry="2.5" style="stroke:#000000;stroke-width:0.0;"/><text fill="#000000" font-family="sans-serif" font-size="13" lengthAdjust="spacing" textLength="125" x="158" y="807.0654">Administrador Creado</text></g><!--MD5=[d5d43b3f3dfddbfb6ca65af0419a6a54]
link 4 to 2--><g id="link_4_2"><path d="M142.25,733.4388 C163.77,726.1788 220,707.2188 220,707.2188 C220,707.2188 220,351.2188 220,351.2188 C220,351.2188 192.08,338.4588 169.02,327.9288 " fill="none" id="4-to-2" style="stroke:#FF0000;stroke-width:1.0;"/><polygon fill="#FF0000" points="164.18,325.7188,170.7094,333.0922,168.7294,327.7932,174.0284,325.8132,164.18,325.7188" style="stroke:#FF0000;stroke-width:1.0;"/><path d="M225,524.2188 L225,566.2188 L505,566.2188 L505,534.2188 L495,524.2188 L225,524.2188 " fill="#F5F5F5" style="stroke:#181818;stroke-width:0.5;"/><path d="M495,524.2188 L495,534.2188 L505,534.2188 L495,524.2188 " fill="#F5F5F5" style="stroke:#181818;stroke-width:0.5;"/><text fill="#000000" font-family="sans-serif" font-size="13" font-weight="bold" lengthAdjust="spacing" textLength="105" x="231" y="542.7139">Sistema Muestra</text><ellipse cx="236.5" cy="554.4219" fill="#000000" rx="2.5" ry="2.5" style="stroke:#000000;stroke-width:0.0;"/><text fill="#000000" font-family="sans-serif" font-size="13" lengthAdjust="spacing" textLength="246" x="244" y="559.0654">Mensaje de error en los datos introducidos</text></g><!--MD5=[f0efc1087ff8bc3ccb48a40e96590ea4]
link startState to CrearAdministrador--><g id="link_startState_CrearAdministrador"><path d="M260.5,85.7094 C260.5,107.5894 260.5,146.4394 260.5,192.3794 " fill="none" id="startState-to-CrearAdministrador" style="stroke:#008000;stroke-width:1.0;"/><polygon fill="#008000" points="260.5,197.4294,264.5,188.4294,260.5,192.4294,256.5,188.4294,260.5,197.4294" style="stroke:#008000;stroke-width:1.0;"/><path d="M265.5,120.6094 L265.5,162.6094 L462.5,162.6094 L462.5,130.6094 L452.5,120.6094 L265.5,120.6094 " fill="#F5F5F5" style="stroke:#181818;stroke-width:0.5;"/><path d="M452.5,120.6094 L452.5,130.6094 L462.5,130.6094 L452.5,120.6094 " fill="#F5F5F5" style="stroke:#181818;stroke-width:0.5;"/><text fill="#000000" font-family="sans-serif" font-size="13" font-weight="bold" lengthAdjust="spacing" textLength="141" x="271.5" y="139.1045">Administrador Solicita</text><ellipse cx="277" cy="150.8125" fill="#000000" rx="2.5" ry="2.5" style="stroke:#000000;stroke-width:0.0;"/><text fill="#000000" font-family="sans-serif" font-size="13" lengthAdjust="spacing" textLength="163" x="284.5" y="155.4561">Crear Usuario Administrador</text></g><!--MD5=[3949b77bffa34d207c208ed6a8ba264f]
@startuml

title Crear Administrador

skinparam {
    NoteBackgroundColor #whiteSmoke
    ArrowColor #green
    NoteBorderColor #green
    linetype polyline
}

hide empty description

state startState as "ADMINISTRADORES"

startState - -> CrearAdministrador
note on link
    <b>Administrador Solicita</b>
    * Crear Usuario Administrador
end note

state CrearAdministrador {
state 2 as " "
state 3 as " "
state 4 <<choice>>

[*] -down-> 2

2 -down-> 3
note on link
<b>Sistema Solicita</b>
* Nombre
* Apellido
* Fecha de nacimiento
* Email
* Contraseña
<b>Sistema Permite</b>
* Crear Administrador
end note

3 -down-> 4
note on link
<b>Amdinistrador Introduce</b>
* Nombre
* Apellido
* Fecha de nacimiento
* Email
* Contraseña
end note

4 -down-> [*]
note on link
<b>Sistema Muestra</b>
* Administrador Creado
end note

4 -[#red]-> 2
note on link
<b>Sistema Muestra</b>
* Mensaje de error en los datos introducidos
end note

}

@enduml

PlantUML version 1.2022.7(Mon Aug 22 19:01:30 CEST 2022)
(GPL source distribution)
Java Runtime: Java(TM) SE Runtime Environment
JVM: Java HotSpot(TM) 64-Bit Server VM
Default Encoding: Cp1252
Language: es
Country: ES
--></g></svg>