<?xml version="1.0" encoding="us-ascii" standalone="no"?><svg xmlns="http://www.w3.org/2000/svg" xmlns:xlink="http://www.w3.org/1999/xlink" contentStyleType="text/css" height="375px" preserveAspectRatio="none" style="width:525px;height:375px;" version="1.1" viewBox="0 0 525 375" width="525px" zoomAndPan="magnify"><defs/><g><!--class Alumni--><g id="elem_Alumni"><rect codeLine="5" fill="#0B58A8" height="44" id="Alumni" rx="2.5" ry="2.5" style="stroke:#FFFFFF;stroke-width:1.0;" width="77" x="253.5" y="12"/><ellipse cx="266.5" cy="26" fill="#0B58A8" rx="9" ry="9" style="stroke:#FFFFFF;stroke-width:1.0;"/><path d="M268.8438,21.6719 C267.9063,21.2344 267.3125,21.0938 266.4375,21.0938 C263.8125,21.0938 261.8125,23.1719 261.8125,25.8906 L261.8125,27.0156 C261.8125,29.5938 263.9219,31.4844 266.8125,31.4844 C268.0313,31.4844 269.1875,31.1875 269.9375,30.6406 C270.5156,30.2344 270.8438,29.7813 270.8438,29.3906 C270.8438,28.9375 270.4531,28.5469 269.9844,28.5469 C269.7656,28.5469 269.5625,28.625 269.375,28.8125 C268.9219,29.2969 268.9219,29.2969 268.7344,29.3906 C268.3125,29.6563 267.625,29.7813 266.8594,29.7813 C264.8125,29.7813 263.5156,28.6875 263.5156,26.9844 L263.5156,25.8906 C263.5156,24.1094 264.7656,22.7969 266.5,22.7969 C267.0781,22.7969 267.6875,22.9531 268.1563,23.2031 C268.6406,23.4844 268.8125,23.7031 268.9063,24.1094 C268.9688,24.5156 269,24.6406 269.1406,24.7656 C269.2813,24.9063 269.5156,25.0156 269.7344,25.0156 C270,25.0156 270.2656,24.875 270.4375,24.6563 C270.5469,24.5 270.5781,24.3125 270.5781,23.8906 L270.5781,22.4688 C270.5781,22.0313 270.5625,21.9063 270.4688,21.75 C270.3125,21.4844 270.0313,21.3438 269.7344,21.3438 C269.4375,21.3438 269.2344,21.4375 269.0156,21.75 L268.8438,21.6719 Z " fill="#FFFFFF"/><text fill="#FFFFFF" font-family="Arial" font-size="14" lengthAdjust="spacing" textLength="49" x="278.5" y="30.8467">Alumni</text><line style="stroke:#FFFFFF;stroke-width:1.0;" x1="254.5" x2="329.5" y1="40" y2="40"/><line style="stroke:#FFFFFF;stroke-width:1.0;" x1="254.5" x2="329.5" y1="48" y2="48"/></g><!--class Servicios--><g id="elem_Servicios"><rect codeLine="7" fill="#0B58A8" height="44" id="Servicios" rx="2.5" ry="2.5" style="stroke:#FFFFFF;stroke-width:1.0;" width="92" x="188" y="220"/><ellipse cx="201" cy="234" fill="#0B58A8" rx="9" ry="9" style="stroke:#FFFFFF;stroke-width:1.0;"/><path d="M203.3438,229.6719 C202.4063,229.2344 201.8125,229.0938 200.9375,229.0938 C198.3125,229.0938 196.3125,231.1719 196.3125,233.8906 L196.3125,235.0156 C196.3125,237.5938 198.4219,239.4844 201.3125,239.4844 C202.5313,239.4844 203.6875,239.1875 204.4375,238.6406 C205.0156,238.2344 205.3438,237.7813 205.3438,237.3906 C205.3438,236.9375 204.9531,236.5469 204.4844,236.5469 C204.2656,236.5469 204.0625,236.625 203.875,236.8125 C203.4219,237.2969 203.4219,237.2969 203.2344,237.3906 C202.8125,237.6563 202.125,237.7813 201.3594,237.7813 C199.3125,237.7813 198.0156,236.6875 198.0156,234.9844 L198.0156,233.8906 C198.0156,232.1094 199.2656,230.7969 201,230.7969 C201.5781,230.7969 202.1875,230.9531 202.6563,231.2031 C203.1406,231.4844 203.3125,231.7031 203.4063,232.1094 C203.4688,232.5156 203.5,232.6406 203.6406,232.7656 C203.7813,232.9063 204.0156,233.0156 204.2344,233.0156 C204.5,233.0156 204.7656,232.875 204.9375,232.6563 C205.0469,232.5 205.0781,232.3125 205.0781,231.8906 L205.0781,230.4688 C205.0781,230.0313 205.0625,229.9063 204.9688,229.75 C204.8125,229.4844 204.5313,229.3438 204.2344,229.3438 C203.9375,229.3438 203.7344,229.4375 203.5156,229.75 L203.3438,229.6719 Z " fill="#FFFFFF"/><text fill="#FFFFFF" font-family="Arial" font-size="14" lengthAdjust="spacing" textLength="64" x="213" y="238.8467">Servicios</text><line style="stroke:#FFFFFF;stroke-width:1.0;" x1="189" x2="279" y1="248" y2="248"/><line style="stroke:#FFFFFF;stroke-width:1.0;" x1="189" x2="279" y1="256" y2="256"/></g><!--class Membresia--><g id="elem_Membresia"><rect codeLine="9" fill="#0B58A8" height="44" id="Membresia" rx="2.5" ry="2.5" style="stroke:#FFFFFF;stroke-width:1.0;" width="107" x="238.5" y="116"/><ellipse cx="251.5" cy="130" fill="#0B58A8" rx="9" ry="9" style="stroke:#FFFFFF;stroke-width:1.0;"/><path d="M253.8438,125.6719 C252.9063,125.2344 252.3125,125.0938 251.4375,125.0938 C248.8125,125.0938 246.8125,127.1719 246.8125,129.8906 L246.8125,131.0156 C246.8125,133.5938 248.9219,135.4844 251.8125,135.4844 C253.0313,135.4844 254.1875,135.1875 254.9375,134.6406 C255.5156,134.2344 255.8438,133.7813 255.8438,133.3906 C255.8438,132.9375 255.4531,132.5469 254.9844,132.5469 C254.7656,132.5469 254.5625,132.625 254.375,132.8125 C253.9219,133.2969 253.9219,133.2969 253.7344,133.3906 C253.3125,133.6563 252.625,133.7813 251.8594,133.7813 C249.8125,133.7813 248.5156,132.6875 248.5156,130.9844 L248.5156,129.8906 C248.5156,128.1094 249.7656,126.7969 251.5,126.7969 C252.0781,126.7969 252.6875,126.9531 253.1563,127.2031 C253.6406,127.4844 253.8125,127.7031 253.9063,128.1094 C253.9688,128.5156 254,128.6406 254.1406,128.7656 C254.2813,128.9063 254.5156,129.0156 254.7344,129.0156 C255,129.0156 255.2656,128.875 255.4375,128.6563 C255.5469,128.5 255.5781,128.3125 255.5781,127.8906 L255.5781,126.4688 C255.5781,126.0313 255.5625,125.9063 255.4688,125.75 C255.3125,125.4844 255.0313,125.3438 254.7344,125.3438 C254.4375,125.3438 254.2344,125.4375 254.0156,125.75 L253.8438,125.6719 Z " fill="#FFFFFF"/><text fill="#FFFFFF" font-family="Arial" font-size="14" lengthAdjust="spacing" textLength="79" x="263.5" y="134.8467">Membresia</text><line style="stroke:#FFFFFF;stroke-width:1.0;" x1="239.5" x2="344.5" y1="144" y2="144"/><line style="stroke:#FFFFFF;stroke-width:1.0;" x1="239.5" x2="344.5" y1="152" y2="152"/></g><!--class Pagos--><g id="elem_Pagos"><rect codeLine="11" fill="#0B58A8" height="44" id="Pagos" rx="2.5" ry="2.5" style="stroke:#FFFFFF;stroke-width:1.0;" width="70" x="315" y="220"/><ellipse cx="328" cy="234" fill="#0B58A8" rx="9" ry="9" style="stroke:#FFFFFF;stroke-width:1.0;"/><path d="M330.3438,229.6719 C329.4063,229.2344 328.8125,229.0938 327.9375,229.0938 C325.3125,229.0938 323.3125,231.1719 323.3125,233.8906 L323.3125,235.0156 C323.3125,237.5938 325.4219,239.4844 328.3125,239.4844 C329.5313,239.4844 330.6875,239.1875 331.4375,238.6406 C332.0156,238.2344 332.3438,237.7813 332.3438,237.3906 C332.3438,236.9375 331.9531,236.5469 331.4844,236.5469 C331.2656,236.5469 331.0625,236.625 330.875,236.8125 C330.4219,237.2969 330.4219,237.2969 330.2344,237.3906 C329.8125,237.6563 329.125,237.7813 328.3594,237.7813 C326.3125,237.7813 325.0156,236.6875 325.0156,234.9844 L325.0156,233.8906 C325.0156,232.1094 326.2656,230.7969 328,230.7969 C328.5781,230.7969 329.1875,230.9531 329.6563,231.2031 C330.1406,231.4844 330.3125,231.7031 330.4063,232.1094 C330.4688,232.5156 330.5,232.6406 330.6406,232.7656 C330.7813,232.9063 331.0156,233.0156 331.2344,233.0156 C331.5,233.0156 331.7656,232.875 331.9375,232.6563 C332.0469,232.5 332.0781,232.3125 332.0781,231.8906 L332.0781,230.4688 C332.0781,230.0313 332.0625,229.9063 331.9688,229.75 C331.8125,229.4844 331.5313,229.3438 331.2344,229.3438 C330.9375,229.3438 330.7344,229.4375 330.5156,229.75 L330.3438,229.6719 Z " fill="#FFFFFF"/><text fill="#FFFFFF" font-family="Arial" font-size="14" lengthAdjust="spacing" textLength="42" x="340" y="238.8467">Pagos</text><line style="stroke:#FFFFFF;stroke-width:1.0;" x1="316" x2="384" y1="248" y2="248"/><line style="stroke:#FFFFFF;stroke-width:1.0;" x1="316" x2="384" y1="256" y2="256"/></g><!--class Comunicaciones--><g id="elem_Comunicaciones"><rect codeLine="13" fill="#0B58A8" height="44" id="Comunicaciones" rx="2.5" ry="2.5" style="stroke:#FFFFFF;stroke-width:1.0;" width="144" x="12" y="324"/><ellipse cx="25" cy="338" fill="#0B58A8" rx="9" ry="9" style="stroke:#FFFFFF;stroke-width:1.0;"/><path d="M27.3438,333.6719 C26.4063,333.2344 25.8125,333.0938 24.9375,333.0938 C22.3125,333.0938 20.3125,335.1719 20.3125,337.8906 L20.3125,339.0156 C20.3125,341.5938 22.4219,343.4844 25.3125,343.4844 C26.5313,343.4844 27.6875,343.1875 28.4375,342.6406 C29.0156,342.2344 29.3438,341.7813 29.3438,341.3906 C29.3438,340.9375 28.9531,340.5469 28.4844,340.5469 C28.2656,340.5469 28.0625,340.625 27.875,340.8125 C27.4219,341.2969 27.4219,341.2969 27.2344,341.3906 C26.8125,341.6563 26.125,341.7813 25.3594,341.7813 C23.3125,341.7813 22.0156,340.6875 22.0156,338.9844 L22.0156,337.8906 C22.0156,336.1094 23.2656,334.7969 25,334.7969 C25.5781,334.7969 26.1875,334.9531 26.6563,335.2031 C27.1406,335.4844 27.3125,335.7031 27.4063,336.1094 C27.4688,336.5156 27.5,336.6406 27.6406,336.7656 C27.7813,336.9063 28.0156,337.0156 28.2344,337.0156 C28.5,337.0156 28.7656,336.875 28.9375,336.6563 C29.0469,336.5 29.0781,336.3125 29.0781,335.8906 L29.0781,334.4688 C29.0781,334.0313 29.0625,333.9063 28.9688,333.75 C28.8125,333.4844 28.5313,333.3438 28.2344,333.3438 C27.9375,333.3438 27.7344,333.4375 27.5156,333.75 L27.3438,333.6719 Z " fill="#FFFFFF"/><text fill="#FFFFFF" font-family="Arial" font-size="14" lengthAdjust="spacing" textLength="116" x="37" y="342.8467">Comunicaciones</text><line style="stroke:#FFFFFF;stroke-width:1.0;" x1="13" x2="155" y1="352" y2="352"/><line style="stroke:#FFFFFF;stroke-width:1.0;" x1="13" x2="155" y1="360" y2="360"/></g><!--class Instalaciones--><g id="elem_Instalaciones"><rect codeLine="15" fill="#0B58A8" height="44" id="Instalaciones" rx="2.5" ry="2.5" style="stroke:#FFFFFF;stroke-width:1.0;" width="121" x="191.5" y="324"/><ellipse cx="204.5" cy="338" fill="#0B58A8" rx="9" ry="9" style="stroke:#FFFFFF;stroke-width:1.0;"/><path d="M206.8438,333.6719 C205.9063,333.2344 205.3125,333.0938 204.4375,333.0938 C201.8125,333.0938 199.8125,335.1719 199.8125,337.8906 L199.8125,339.0156 C199.8125,341.5938 201.9219,343.4844 204.8125,343.4844 C206.0313,343.4844 207.1875,343.1875 207.9375,342.6406 C208.5156,342.2344 208.8438,341.7813 208.8438,341.3906 C208.8438,340.9375 208.4531,340.5469 207.9844,340.5469 C207.7656,340.5469 207.5625,340.625 207.375,340.8125 C206.9219,341.2969 206.9219,341.2969 206.7344,341.3906 C206.3125,341.6563 205.625,341.7813 204.8594,341.7813 C202.8125,341.7813 201.5156,340.6875 201.5156,338.9844 L201.5156,337.8906 C201.5156,336.1094 202.7656,334.7969 204.5,334.7969 C205.0781,334.7969 205.6875,334.9531 206.1563,335.2031 C206.6406,335.4844 206.8125,335.7031 206.9063,336.1094 C206.9688,336.5156 207,336.6406 207.1406,336.7656 C207.2813,336.9063 207.5156,337.0156 207.7344,337.0156 C208,337.0156 208.2656,336.875 208.4375,336.6563 C208.5469,336.5 208.5781,336.3125 208.5781,335.8906 L208.5781,334.4688 C208.5781,334.0313 208.5625,333.9063 208.4688,333.75 C208.3125,333.4844 208.0313,333.3438 207.7344,333.3438 C207.4375,333.3438 207.2344,333.4375 207.0156,333.75 L206.8438,333.6719 Z " fill="#FFFFFF"/><text fill="#FFFFFF" font-family="Arial" font-size="14" lengthAdjust="spacing" textLength="93" x="216.5" y="342.8467">Instalaciones</text><line style="stroke:#FFFFFF;stroke-width:1.0;" x1="192.5" x2="311.5" y1="352" y2="352"/><line style="stroke:#FFFFFF;stroke-width:1.0;" x1="192.5" x2="311.5" y1="360" y2="360"/></g><!--class OfertasTrabajo--><g id="elem_OfertasTrabajo"><rect codeLine="17" fill="#0B58A8" height="44" id="OfertasTrabajo" rx="2.5" ry="2.5" style="stroke:#FFFFFF;stroke-width:1.0;" width="136" x="366" y="324"/><ellipse cx="379" cy="338" fill="#0B58A8" rx="9" ry="9" style="stroke:#FFFFFF;stroke-width:1.0;"/><path d="M381.3438,333.6719 C380.4063,333.2344 379.8125,333.0938 378.9375,333.0938 C376.3125,333.0938 374.3125,335.1719 374.3125,337.8906 L374.3125,339.0156 C374.3125,341.5938 376.4219,343.4844 379.3125,343.4844 C380.5313,343.4844 381.6875,343.1875 382.4375,342.6406 C383.0156,342.2344 383.3438,341.7813 383.3438,341.3906 C383.3438,340.9375 382.9531,340.5469 382.4844,340.5469 C382.2656,340.5469 382.0625,340.625 381.875,340.8125 C381.4219,341.2969 381.4219,341.2969 381.2344,341.3906 C380.8125,341.6563 380.125,341.7813 379.3594,341.7813 C377.3125,341.7813 376.0156,340.6875 376.0156,338.9844 L376.0156,337.8906 C376.0156,336.1094 377.2656,334.7969 379,334.7969 C379.5781,334.7969 380.1875,334.9531 380.6563,335.2031 C381.1406,335.4844 381.3125,335.7031 381.4063,336.1094 C381.4688,336.5156 381.5,336.6406 381.6406,336.7656 C381.7813,336.9063 382.0156,337.0156 382.2344,337.0156 C382.5,337.0156 382.7656,336.875 382.9375,336.6563 C383.0469,336.5 383.0781,336.3125 383.0781,335.8906 L383.0781,334.4688 C383.0781,334.0313 383.0625,333.9063 382.9688,333.75 C382.8125,333.4844 382.5313,333.3438 382.2344,333.3438 C381.9375,333.3438 381.7344,333.4375 381.5156,333.75 L381.3438,333.6719 Z " fill="#FFFFFF"/><text fill="#FFFFFF" font-family="Arial" font-size="14" lengthAdjust="spacing" textLength="108" x="391" y="342.8467">OfertasTrabajo</text><line style="stroke:#FFFFFF;stroke-width:1.0;" x1="367" x2="501" y1="352" y2="352"/><line style="stroke:#FFFFFF;stroke-width:1.0;" x1="367" x2="501" y1="360" y2="360"/></g><!--class Empresas--><g id="elem_Empresas"><rect codeLine="19" fill="#0B58A8" height="44" id="Empresas" rx="2.5" ry="2.5" style="stroke:#FFFFFF;stroke-width:1.0;" width="98" x="420" y="220"/><ellipse cx="433" cy="234" fill="#0B58A8" rx="9" ry="9" style="stroke:#FFFFFF;stroke-width:1.0;"/><path d="M435.3438,229.6719 C434.4063,229.2344 433.8125,229.0938 432.9375,229.0938 C430.3125,229.0938 428.3125,231.1719 428.3125,233.8906 L428.3125,235.0156 C428.3125,237.5938 430.4219,239.4844 433.3125,239.4844 C434.5313,239.4844 435.6875,239.1875 436.4375,238.6406 C437.0156,238.2344 437.3438,237.7813 437.3438,237.3906 C437.3438,236.9375 436.9531,236.5469 436.4844,236.5469 C436.2656,236.5469 436.0625,236.625 435.875,236.8125 C435.4219,237.2969 435.4219,237.2969 435.2344,237.3906 C434.8125,237.6563 434.125,237.7813 433.3594,237.7813 C431.3125,237.7813 430.0156,236.6875 430.0156,234.9844 L430.0156,233.8906 C430.0156,232.1094 431.2656,230.7969 433,230.7969 C433.5781,230.7969 434.1875,230.9531 434.6563,231.2031 C435.1406,231.4844 435.3125,231.7031 435.4063,232.1094 C435.4688,232.5156 435.5,232.6406 435.6406,232.7656 C435.7813,232.9063 436.0156,233.0156 436.2344,233.0156 C436.5,233.0156 436.7656,232.875 436.9375,232.6563 C437.0469,232.5 437.0781,232.3125 437.0781,231.8906 L437.0781,230.4688 C437.0781,230.0313 437.0625,229.9063 436.9688,229.75 C436.8125,229.4844 436.5313,229.3438 436.2344,229.3438 C435.9375,229.3438 435.7344,229.4375 435.5156,229.75 L435.3438,229.6719 Z " fill="#FFFFFF"/><text fill="#FFFFFF" font-family="Arial" font-size="14" lengthAdjust="spacing" textLength="70" x="445" y="238.8467">Empresas</text><line style="stroke:#FFFFFF;stroke-width:1.0;" x1="421" x2="517" y1="248" y2="248"/><line style="stroke:#FFFFFF;stroke-width:1.0;" x1="421" x2="517" y1="256" y2="256"/></g><!--link Alumni to Membresia--><g id="link_Alumni_Membresia"><path codeLine="22" d="M292,56.134 C292,73.64 292,92.394 292,109.893 " fill="none" id="Alumni-to-Membresia" style="stroke:#FFFFFF;stroke-width:1.0;"/><polygon fill="#FFFFFF" points="292,115.893,296,106.893,292,110.893,288,106.893,292,115.893" style="stroke:#FFFFFF;stroke-width:1.0;"/></g><!--link Membresia to Pagos--><g id="link_Membresia_Pagos"><path codeLine="23" d="M304.018,160.134 C313.972,177.64 325.0823,197.1782 335.0323,214.6772 " fill="none" id="Membresia-to-Pagos" style="stroke:#FFFFFF;stroke-width:1.0;"/><polygon fill="#FFFFFF" points="337.998,219.893,337.0266,210.0922,335.5266,215.5465,330.0722,214.0465,337.998,219.893" style="stroke:#FFFFFF;stroke-width:1.0;"/></g><!--link Membresia to Servicios--><g id="link_Membresia_Servicios"><path codeLine="24" d="M279.982,160.134 C270.028,177.64 258.9177,197.1782 248.9677,214.6772 " fill="none" id="Membresia-to-Servicios" style="stroke:#FFFFFF;stroke-width:1.0;"/><polygon fill="#FFFFFF" points="246.002,219.893,253.9278,214.0465,248.4734,215.5465,246.9734,210.0922,246.002,219.893" style="stroke:#FFFFFF;stroke-width:1.0;"/></g><!--link Servicios to Comunicaciones--><g id="link_Servicios_Comunicaciones"><path codeLine="25" d="M202.92,264.134 C177.176,281.6402 145.7346,303.0206 120.0016,320.5188 " fill="none" id="Servicios-to-Comunicaciones" style="stroke:#FFFFFF;stroke-width:1.0;"/><polygon fill="#FFFFFF" points="115.04,323.8926,124.7316,322.1396,119.1747,321.0811,120.2332,315.5241,115.04,323.8926" style="stroke:#FFFFFF;stroke-width:1.0;"/></g><!--link Servicios to Instalaciones--><g id="link_Servicios_Instalaciones"><path codeLine="26" d="M237.73,264.134 C240.819,281.6402 244.1443,300.4857 247.2323,317.9839 " fill="none" id="Servicios-to-Instalaciones" style="stroke:#FFFFFF;stroke-width:1.0;"/><polygon fill="#FFFFFF" points="248.275,323.8926,250.65,314.3344,247.4061,318.9687,242.7718,315.7247,248.275,323.8926" style="stroke:#FFFFFF;stroke-width:1.0;"/></g><!--link Servicios to OfertasTrabajo--><g id="link_Servicios_OfertasTrabajo"><path codeLine="27" d="M275.44,264.134 C309.765,281.6402 352.958,303.6684 387.268,321.1666 " fill="none" id="Servicios-to-OfertasTrabajo" style="stroke:#FFFFFF;stroke-width:1.0;"/><polygon fill="#FFFFFF" points="392.613,323.8926,386.4128,316.2403,388.1588,321.621,382.7782,323.367,392.613,323.8926" style="stroke:#FFFFFF;stroke-width:1.0;"/></g><!--link Empresas to OfertasTrabajo--><g id="link_Empresas_OfertasTrabajo"><path codeLine="28" d="M461.748,264.134 C455.741,281.6402 449.1943,300.7192 443.1903,318.2174 " fill="none" id="Empresas-to-OfertasTrabajo" style="stroke:#FFFFFF;stroke-width:1.0;"/><polygon fill="#FFFFFF" points="441.243,323.8926,447.9474,316.678,442.8657,319.1633,440.3805,314.0816,441.243,323.8926" style="stroke:#FFFFFF;stroke-width:1.0;"/></g><!--SRC=[POzD3e8m44RtFKKzW5SmCKOJ5_uaUe4F6B3QJisqk37UNL021RRlpRHl5l56ZZISgQ32m_0J0gSpv8zAVCt5nbilEWeuD8eu9bC5bQXjt7cEHpIlhCN0AfLRXA3NjdPiz5jzEd0XUPdS-92m0xbCA1Wax8ngDBFnhcQJerbbIiMUGuITyrD94X6kWWntduYjUpQVuJ-hki3bSZLag26evR-K2UlFKCD1BHzdJkGeTUB6kQgFdBil]--></g></svg>